<?xml version="1.0" encoding="UTF-8" standalone="no"?>
<!DOCTYPE svg PUBLIC "-//W3C//DTD SVG 1.1//EN"
 "http://www.w3.org/Graphics/SVG/1.1/DTD/svg11.dtd">
<!-- Generated by graphviz version 7.0.5 (20221223.1930)
 -->
<!-- Title: /github/workspace/client/include/Components/Background.hpp Pages: 1 -->
<!--zoomable 544 -->
<svg id="main" version="1.1" xmlns="http://www.w3.org/2000/svg" xmlns:xlink="http://www.w3.org/1999/xlink" xml:space="preserve" onload="init(evt)">
<style type="text/css"><![CDATA[
.edge:hover path { stroke: red; }
.edge:hover polygon { stroke: red; fill: red; }
]]></style>
<script type="text/javascript"><![CDATA[
var edges = document.getElementsByTagName('g');
if (edges && edges.length) {
  for (var i=0;i<edges.length;i++) {
    if (edges[i].id.substr(0,4)=='edge') {
      edges[i].setAttribute('class','edge');
    }
  }
}
]]></script>
        <defs>
                <circle id="rim" cx="0" cy="0" r="7"/>
                <circle id="rim2" cx="0" cy="0" r="3.5"/>
                <g id="zoomPlus">
                        <use xlink:href="#rim" fill="#404040">
                                <set attributeName="fill" to="#808080" begin="zoomplus.mouseover" end="zoomplus.mouseout"/>
                        </use>
                        <path d="M-4,0h8M0,-4v8" fill="none" stroke="white" stroke-width="1.5" pointer-events="none"/>
                </g>
                <g id="zoomMin">
                        <use xlink:href="#rim" fill="#404040">
                                <set attributeName="fill" to="#808080" begin="zoomminus.mouseover" end="zoomminus.mouseout"/>
                        </use>
                        <path d="M-4,0h8" fill="none" stroke="white" stroke-width="1.5" pointer-events="none"/>
                </g>
                <g id="dirArrow">
                        <path fill="none" stroke="white" stroke-width="1.5" d="M0,-3.0v7 M-2.5,-0.5L0,-3.0L2.5,-0.5"/>
                </g>
               <g id="resetDef">
                       <use xlink:href="#rim2" fill="#404040">
                               <set attributeName="fill" to="#808080" begin="reset.mouseover" end="reset.mouseout"/>
                       </use>
               </g>
        </defs>

<script type="text/javascript">
var viewWidth = 2558;
var viewHeight = 544;
var sectionId = 'dynsection-1';
</script>
<script xlink:href="svgpan.js"/>
<svg id="graph" class="graph">
<g id="viewport">
<title>/github/workspace/client/include/Components/Background.hpp</title>
<!-- Node1 -->
<g id="node1" class="node">
<title>Node1</title>
<g id="a_node1"><a xlink:title=" ">
<polygon fill="#999999" stroke="#666666" points="1188.5,-536 1007.5,-536 1007.5,-506 1188.5,-506 1188.5,-536"/>
<text text-anchor="start" x="1015.5" y="-524" font-family="Helvetica,sans-Serif" font-size="10.00">/github/workspace/client</text>
<text text-anchor="middle" x="1098" y="-513" font-family="Helvetica,sans-Serif" font-size="10.00">/include/Components/Background.hpp</text>
</a>
</g>
</g>
<!-- Node2 -->
<g id="node2" class="node">
<title>Node2</title>
<g id="a_node2"><a xlink:href="Engine_8hpp.html" target="_top" xlink:title=" ">
<polygon fill="white" stroke="#666666" points="1164.5,-470 1031.5,-470 1031.5,-440 1164.5,-440 1164.5,-470"/>
<text text-anchor="start" x="1039.5" y="-458" font-family="Helvetica,sans-Serif" font-size="10.00">/github/workspace/client</text>
<text text-anchor="middle" x="1098" y="-447" font-family="Helvetica,sans-Serif" font-size="10.00">/include/Engine/Engine.hpp</text>
</a>
</g>
</g>
<!-- Node1&#45;&gt;Node2 -->
<g id="edge1" class="edge">
<title>Node1&#45;&gt;Node2</title>
<path fill="none" stroke="#63b8ff" d="M1091.37,-494.39C1091.05,-486.13 1091.36,-477.28 1092.29,-470.16"/>
<polygon fill="#63b8ff" stroke="#63b8ff" points="1087.88,-494.6 1092.16,-504.29 1094.85,-494.04 1087.88,-494.6"/>
</g>
<!-- Node10 -->
<g id="node10" class="node">
<title>Node10</title>
<g id="a_node10"><a xlink:href="IGameState_8hpp.html" target="_top" xlink:title=" ">
<polygon fill="white" stroke="#666666" points="1946,-118 1806,-118 1806,-77 1946,-77 1946,-118"/>
<text text-anchor="start" x="1814" y="-106" font-family="Helvetica,sans-Serif" font-size="10.00">/github/workspace/client</text>
<text text-anchor="start" x="1814" y="-95" font-family="Helvetica,sans-Serif" font-size="10.00">/include/system/gameStates</text>
<text text-anchor="middle" x="1876" y="-84" font-family="Helvetica,sans-Serif" font-size="10.00">/IGameState.hpp</text>
</a>
</g>
</g>
<!-- Node1&#45;&gt;Node10 -->
<g id="edge64" class="edge">
<title>Node1&#45;&gt;Node10</title>
<path fill="none" stroke="#63b8ff" d="M995.75,-518.51C723.22,-513.2 0,-489.7 0,-390 0,-390 0,-390 0,-239.5 0,-147.16 1464.5,-107.92 1805.6,-100.03"/>
<polygon fill="#63b8ff" stroke="#63b8ff" points="995.63,-522.01 1005.7,-518.7 995.77,-515.01 995.63,-522.01"/>
</g>
<!-- Node2&#45;&gt;Node1 -->
<g id="edge2" class="edge">
<title>Node2&#45;&gt;Node1</title>
<path fill="none" stroke="#63b8ff" d="M1104.63,-481.56C1104.95,-489.82 1104.64,-498.67 1103.72,-505.8"/>
<polygon fill="#63b8ff" stroke="#63b8ff" points="1108.12,-481.36 1103.84,-471.67 1101.14,-481.92 1108.12,-481.36"/>
</g>
<!-- Node3 -->
<g id="node3" class="node">
<title>Node3</title>
<g id="a_node3"><a xlink:href="Bonus_8hpp.html" target="_top" xlink:title=" ">
<polygon fill="white" stroke="#666666" points="223.5,-404 66.5,-404 66.5,-374 223.5,-374 223.5,-404"/>
<text text-anchor="start" x="74.5" y="-392" font-family="Helvetica,sans-Serif" font-size="10.00">/github/workspace/client</text>
<text text-anchor="middle" x="145" y="-381" font-family="Helvetica,sans-Serif" font-size="10.00">/include/Components/Bonus.hpp</text>
</a>
</g>
</g>
<!-- Node2&#45;&gt;Node3 -->
<g id="edge3" class="edge">
<title>Node2&#45;&gt;Node3</title>
<path fill="none" stroke="#63b8ff" d="M1019.77,-451.84C868.44,-447.14 525.23,-433.91 238,-404 233.37,-403.52 228.62,-402.97 223.83,-402.38"/>
<polygon fill="#63b8ff" stroke="#63b8ff" points="1019.58,-455.34 1029.69,-452.15 1019.8,-448.34 1019.58,-455.34"/>
</g>
<!-- Node4 -->
<g id="node4" class="node">
<title>Node4</title>
<g id="a_node4"><a xlink:href="include_8hpp.html" target="_top" xlink:title=" ">
<polygon fill="white" stroke="#666666" points="206,-255.5 84,-255.5 84,-225.5 206,-225.5 206,-255.5"/>
<text text-anchor="start" x="92" y="-243.5" font-family="Helvetica,sans-Serif" font-size="10.00">/github/workspace/client</text>
<text text-anchor="middle" x="145" y="-232.5" font-family="Helvetica,sans-Serif" font-size="10.00">/include/include.hpp</text>
</a>
</g>
</g>
<!-- Node2&#45;&gt;Node4 -->
<g id="edge61" class="edge">
<title>Node2&#45;&gt;Node4</title>
<path fill="none" stroke="#63b8ff" d="M1020.16,-453.16C784.07,-450.25 90.12,-438.75 57,-404 13.28,-358.13 89.4,-286.32 126.47,-255.89"/>
<polygon fill="#63b8ff" stroke="#63b8ff" points="1019.83,-456.66 1029.87,-453.28 1019.92,-449.66 1019.83,-456.66"/>
</g>
<!-- Node5 -->
<g id="node5" class="node">
<title>Node5</title>
<g id="a_node5"><a xlink:href="Bouton_8hpp.html" target="_top" xlink:title=" ">
<polygon fill="white" stroke="#666666" points="2190,-404 2030,-404 2030,-374 2190,-374 2190,-404"/>
<text text-anchor="start" x="2038" y="-392" font-family="Helvetica,sans-Serif" font-size="10.00">/github/workspace/client</text>
<text text-anchor="middle" x="2110" y="-381" font-family="Helvetica,sans-Serif" font-size="10.00">/include/Components/Bouton.hpp</text>
</a>
</g>
</g>
<!-- Node2&#45;&gt;Node5 -->
<g id="edge5" class="edge">
<title>Node2&#45;&gt;Node5</title>
<path fill="none" stroke="#63b8ff" d="M1175.87,-452.46C1335.02,-448.72 1708.91,-436.91 2021,-404 2023.8,-403.7 2026.65,-403.38 2029.52,-403.04"/>
<polygon fill="#63b8ff" stroke="#63b8ff" points="1176.22,-448.95 1166.3,-452.68 1176.38,-455.95 1176.22,-448.95"/>
</g>
<!-- Node15 -->
<g id="node15" class="node">
<title>Node15</title>
<g id="a_node15"><a xlink:href="client_2src_2main_8cpp.html" target="_top" xlink:title=" ">
<polygon fill="white" stroke="#666666" points="2115,-112.5 1993,-112.5 1993,-82.5 2115,-82.5 2115,-112.5"/>
<text text-anchor="start" x="2001" y="-100.5" font-family="Helvetica,sans-Serif" font-size="10.00">/github/workspace/client</text>
<text text-anchor="middle" x="2054" y="-89.5" font-family="Helvetica,sans-Serif" font-size="10.00">/src/main.cpp</text>
</a>
</g>
</g>
<!-- Node2&#45;&gt;Node15 -->
<g id="edge63" class="edge">
<title>Node2&#45;&gt;Node15</title>
<path fill="none" stroke="#63b8ff" d="M1176.09,-453.38C1421.6,-451.03 2163.72,-440.92 2199,-404 2222.72,-379.18 2283.48,-346.17 2143,-154 2129.57,-135.62 2108.03,-121.96 2089.51,-112.79"/>
<polygon fill="#63b8ff" stroke="#63b8ff" points="1176.26,-449.87 1166.29,-453.47 1176.32,-456.87 1176.26,-449.87"/>
</g>
<!-- Node16 -->
<g id="node16" class="node">
<title>Node16</title>
<g id="a_node16"><a xlink:href="Bullets_8hpp.html" target="_top" xlink:title=" ">
<polygon fill="white" stroke="#666666" points="336.5,-332.5 177.5,-332.5 177.5,-302.5 336.5,-302.5 336.5,-332.5"/>
<text text-anchor="start" x="185.5" y="-320.5" font-family="Helvetica,sans-Serif" font-size="10.00">/github/workspace/client</text>
<text text-anchor="middle" x="257" y="-309.5" font-family="Helvetica,sans-Serif" font-size="10.00">/include/Components/Bullets.hpp</text>
</a>
</g>
</g>
<!-- Node2&#45;&gt;Node16 -->
<g id="edge20" class="edge">
<title>Node2&#45;&gt;Node16</title>
<path fill="none" stroke="#63b8ff" d="M1019.65,-452.92C831.89,-449.73 367.62,-438.33 307,-404 278.91,-388.09 261.26,-352.63 256.25,-332.73"/>
<polygon fill="#63b8ff" stroke="#63b8ff" points="1019.51,-456.42 1029.56,-453.09 1019.62,-449.42 1019.51,-456.42"/>
</g>
<!-- Node18 -->
<g id="node18" class="node">
<title>Node18</title>
<g id="a_node18"><a xlink:href="Centipede_8hpp.html" target="_top" xlink:title=" ">
<polygon fill="white" stroke="#666666" points="527.5,-332.5 354.5,-332.5 354.5,-302.5 527.5,-302.5 527.5,-332.5"/>
<text text-anchor="start" x="362.5" y="-320.5" font-family="Helvetica,sans-Serif" font-size="10.00">/github/workspace/client</text>
<text text-anchor="middle" x="441" y="-309.5" font-family="Helvetica,sans-Serif" font-size="10.00">/include/Components/Centipede.hpp</text>
</a>
</g>
</g>
<!-- Node2&#45;&gt;Node18 -->
<g id="edge24" class="edge">
<title>Node2&#45;&gt;Node18</title>
<path fill="none" stroke="#63b8ff" d="M1019.65,-451.78C828.19,-445.96 350.44,-429.01 327,-404 299.68,-374.85 352.2,-348.45 394.7,-332.93"/>
<polygon fill="#63b8ff" stroke="#63b8ff" points="1019.4,-455.27 1029.5,-452.07 1019.61,-448.27 1019.4,-455.27"/>
</g>
<!-- Node19 -->
<g id="node19" class="node">
<title>Node19</title>
<g id="a_node19"><a xlink:href="IComponents_8hpp.html" target="_top" xlink:title=" ">
<polygon fill="white" stroke="#666666" points="523.5,-404 336.5,-404 336.5,-374 523.5,-374 523.5,-404"/>
<text text-anchor="start" x="344.5" y="-392" font-family="Helvetica,sans-Serif" font-size="10.00">/github/workspace/client</text>
<text text-anchor="middle" x="430" y="-381" font-family="Helvetica,sans-Serif" font-size="10.00">/include/Components/IComponents.hpp</text>
</a>
</g>
</g>
<!-- Node2&#45;&gt;Node19 -->
<g id="edge26" class="edge">
<title>Node2&#45;&gt;Node19</title>
<path fill="none" stroke="#63b8ff" d="M1019.64,-447.99C911.26,-439.46 709.56,-422.77 538,-404 533.4,-403.5 528.68,-402.96 523.93,-402.4"/>
<polygon fill="#63b8ff" stroke="#63b8ff" points="1019.36,-451.48 1029.6,-448.78 1019.9,-444.5 1019.36,-451.48"/>
</g>
<!-- Node20 -->
<g id="node20" class="node">
<title>Node20</title>
<g id="a_node20"><a xlink:href="EntitiesManager_8hpp.html" target="_top" xlink:title=" ">
<polygon fill="white" stroke="#666666" points="949,-332.5 773,-332.5 773,-302.5 949,-302.5 949,-332.5"/>
<text text-anchor="start" x="781" y="-320.5" font-family="Helvetica,sans-Serif" font-size="10.00">/github/workspace/client</text>
<text text-anchor="middle" x="861" y="-309.5" font-family="Helvetica,sans-Serif" font-size="10.00">/include/Entities/EntitiesManager.hpp</text>
</a>
</g>
</g>
<!-- Node2&#45;&gt;Node20 -->
<g id="edge55" class="edge">
<title>Node2&#45;&gt;Node20</title>
<path fill="none" stroke="#63b8ff" d="M1020.18,-438.88C992.21,-431.04 961.37,-419.73 936,-404 905.05,-384.81 877.16,-351.9 865.49,-333"/>
<polygon fill="#63b8ff" stroke="#63b8ff" points="1019.13,-442.22 1029.69,-441.43 1020.94,-435.46 1019.13,-442.22"/>
</g>
<!-- Node22 -->
<g id="node22" class="node">
<title>Node22</title>
<g id="a_node22"><a xlink:href="oold__EntitiesManager_8hpp.html" target="_top" xlink:title=" ">
<polygon fill="white" stroke="#666666" points="668,-338 546,-338 546,-297 668,-297 668,-338"/>
<text text-anchor="start" x="554" y="-326" font-family="Helvetica,sans-Serif" font-size="10.00">/github/workspace/client</text>
<text text-anchor="start" x="554" y="-315" font-family="Helvetica,sans-Serif" font-size="10.00">/include/Entities/oold</text>
<text text-anchor="middle" x="607" y="-304" font-family="Helvetica,sans-Serif" font-size="10.00">_EntitiesManager.hpp</text>
</a>
</g>
</g>
<!-- Node2&#45;&gt;Node22 -->
<g id="edge60" class="edge">
<title>Node2&#45;&gt;Node22</title>
<path fill="none" stroke="#63b8ff" d="M1019.58,-452.26C880.08,-448.35 600.57,-436.51 571,-404 553.88,-385.18 571.6,-357.02 587.68,-338.22"/>
<polygon fill="#63b8ff" stroke="#63b8ff" points="1019.4,-455.76 1029.5,-452.53 1019.59,-448.76 1019.4,-455.76"/>
</g>
<!-- Node23 -->
<g id="node23" class="node">
<title>Node23</title>
<g id="a_node23"><a xlink:href="Mobs_8hpp.html" target="_top" xlink:title=" ">
<polygon fill="white" stroke="#666666" points="733.5,-404 580.5,-404 580.5,-374 733.5,-374 733.5,-404"/>
<text text-anchor="start" x="588.5" y="-392" font-family="Helvetica,sans-Serif" font-size="10.00">/github/workspace/client</text>
<text text-anchor="middle" x="657" y="-381" font-family="Helvetica,sans-Serif" font-size="10.00">/include/Components/Mobs.hpp</text>
</a>
</g>
</g>
<!-- Node2&#45;&gt;Node23 -->
<g id="edge35" class="edge">
<title>Node2&#45;&gt;Node23</title>
<path fill="none" stroke="#63b8ff" d="M1019.98,-443.5C948.01,-433.7 838.21,-418.45 743,-404 740.01,-403.55 736.96,-403.08 733.88,-402.6"/>
<polygon fill="#63b8ff" stroke="#63b8ff" points="1019.32,-446.94 1029.7,-444.82 1020.26,-440.01 1019.32,-446.94"/>
</g>
<!-- Node24 -->
<g id="node24" class="node">
<title>Node24</title>
<g id="a_node24"><a xlink:href="Audio_8hpp.html" target="_top" xlink:title=" ">
<polygon fill="white" stroke="#666666" points="880,-404 752,-404 752,-374 880,-374 880,-404"/>
<text text-anchor="start" x="760" y="-392" font-family="Helvetica,sans-Serif" font-size="10.00">/github/workspace/client</text>
<text text-anchor="middle" x="816" y="-381" font-family="Helvetica,sans-Serif" font-size="10.00">/include/Engine/Audio.hpp</text>
</a>
</g>
</g>
<!-- Node2&#45;&gt;Node24 -->
<g id="edge36" class="edge">
<title>Node2&#45;&gt;Node24</title>
<path fill="none" stroke="#63b8ff" d="M1023.23,-437.03C978.41,-426.86 922.04,-414.07 879.41,-404.39"/>
<polygon fill="#63b8ff" stroke="#63b8ff" points="1022.36,-440.42 1032.89,-439.22 1023.91,-433.6 1022.36,-440.42"/>
</g>
<!-- Node25 -->
<g id="node25" class="node">
<title>Node25</title>
<g id="a_node25"><a xlink:href="Destroy_8hpp.html" target="_top" xlink:title=" ">
<polygon fill="white" stroke="#666666" points="1091.5,-404 954.5,-404 954.5,-374 1091.5,-374 1091.5,-404"/>
<text text-anchor="start" x="962.5" y="-392" font-family="Helvetica,sans-Serif" font-size="10.00">/github/workspace/client</text>
<text text-anchor="middle" x="1023" y="-381" font-family="Helvetica,sans-Serif" font-size="10.00">/include/Engine/Destroy.hpp</text>
</a>
</g>
</g>
<!-- Node2&#45;&gt;Node25 -->
<g id="edge37" class="edge">
<title>Node2&#45;&gt;Node25</title>
<path fill="none" stroke="#63b8ff" d="M1072.71,-432.42C1061.89,-423.18 1049.54,-412.65 1039.86,-404.39"/>
<polygon fill="#63b8ff" stroke="#63b8ff" points="1070.32,-434.99 1080.2,-438.81 1074.87,-429.66 1070.32,-434.99"/>
</g>
<!-- Node27 -->
<g id="node27" class="node">
<title>Node27</title>
<g id="a_node27"><a xlink:href="Draw_8hpp.html" target="_top" xlink:title=" ">
<polygon fill="white" stroke="#666666" points="1236,-404 1110,-404 1110,-374 1236,-374 1236,-404"/>
<text text-anchor="start" x="1118" y="-392" font-family="Helvetica,sans-Serif" font-size="10.00">/github/workspace/client</text>
<text text-anchor="middle" x="1173" y="-381" font-family="Helvetica,sans-Serif" font-size="10.00">/include/Engine/Draw.hpp</text>
</a>
</g>
</g>
<!-- Node2&#45;&gt;Node27 -->
<g id="edge39" class="edge">
<title>Node2&#45;&gt;Node27</title>
<path fill="none" stroke="#63b8ff" d="M1123.29,-432.42C1134.11,-423.18 1146.46,-412.65 1156.14,-404.39"/>
<polygon fill="#63b8ff" stroke="#63b8ff" points="1121.13,-429.66 1115.8,-438.81 1125.68,-434.99 1121.13,-429.66"/>
</g>
<!-- Node29 -->
<g id="node29" class="node">
<title>Node29</title>
<g id="a_node29"><a xlink:href="Error_8hpp.html" target="_top" xlink:title=" ">
<polygon fill="white" stroke="#666666" points="2012,-404 1888,-404 1888,-374 2012,-374 2012,-404"/>
<text text-anchor="start" x="1896" y="-392" font-family="Helvetica,sans-Serif" font-size="10.00">/github/workspace/client</text>
<text text-anchor="middle" x="1950" y="-381" font-family="Helvetica,sans-Serif" font-size="10.00">/include/Engine/Error.hpp</text>
</a>
</g>
</g>
<!-- Node2&#45;&gt;Node29 -->
<g id="edge41" class="edge">
<title>Node2&#45;&gt;Node29</title>
<path fill="none" stroke="#63b8ff" d="M1176.39,-452.37C1317.47,-448.68 1623.29,-437.25 1879,-404 1881.87,-403.63 1884.79,-403.21 1887.74,-402.76"/>
<polygon fill="#63b8ff" stroke="#63b8ff" points="1176.31,-448.87 1166.4,-452.62 1176.48,-455.87 1176.31,-448.87"/>
</g>
<!-- Node31 -->
<g id="node31" class="node">
<title>Node31</title>
<g id="a_node31"><a xlink:href="Event_8hpp.html" target="_top" xlink:title=" ">
<polygon fill="white" stroke="#666666" points="1382,-404 1254,-404 1254,-374 1382,-374 1382,-404"/>
<text text-anchor="start" x="1262" y="-392" font-family="Helvetica,sans-Serif" font-size="10.00">/github/workspace/client</text>
<text text-anchor="middle" x="1318" y="-381" font-family="Helvetica,sans-Serif" font-size="10.00">/include/Engine/Event.hpp</text>
</a>
</g>
</g>
<!-- Node2&#45;&gt;Node31 -->
<g id="edge44" class="edge">
<title>Node2&#45;&gt;Node31</title>
<path fill="none" stroke="#63b8ff" d="M1152.9,-436.25C1186.45,-426.21 1229.17,-413.82 1262.79,-404.39"/>
<polygon fill="#63b8ff" stroke="#63b8ff" points="1151.91,-432.89 1143.35,-439.12 1153.93,-439.6 1151.91,-432.89"/>
</g>
<!-- Node32 -->
<g id="node32" class="node">
<title>Node32</title>
<g id="a_node32"><a xlink:href="Event_8cpp.html" target="_top" xlink:title=" ">
<polygon fill="white" stroke="#666666" points="1381,-332.5 1259,-332.5 1259,-302.5 1381,-302.5 1381,-332.5"/>
<text text-anchor="start" x="1267" y="-320.5" font-family="Helvetica,sans-Serif" font-size="10.00">/github/workspace/client</text>
<text text-anchor="middle" x="1320" y="-309.5" font-family="Helvetica,sans-Serif" font-size="10.00">/src/Event.cpp</text>
</a>
</g>
</g>
<!-- Node2&#45;&gt;Node32 -->
<g id="edge62" class="edge">
<title>Node2&#45;&gt;Node32</title>
<path fill="none" stroke="#63b8ff" d="M1175.87,-451.69C1253.18,-447.55 1363.96,-436.05 1391,-404 1412.03,-379.08 1374.35,-349.8 1346.31,-332.78"/>
<polygon fill="#63b8ff" stroke="#63b8ff" points="1176.05,-448.17 1166.24,-452.17 1176.4,-455.16 1176.05,-448.17"/>
</g>
<!-- Node33 -->
<g id="node33" class="node">
<title>Node33</title>
<g id="a_node33"><a xlink:href="Map_8hpp.html" target="_top" xlink:title=" ">
<polygon fill="white" stroke="#666666" points="1560,-404 1438,-404 1438,-374 1560,-374 1560,-404"/>
<text text-anchor="start" x="1446" y="-392" font-family="Helvetica,sans-Serif" font-size="10.00">/github/workspace/client</text>
<text text-anchor="middle" x="1499" y="-381" font-family="Helvetica,sans-Serif" font-size="10.00">/include/Engine/Map.hpp</text>
</a>
</g>
</g>
<!-- Node2&#45;&gt;Node33 -->
<g id="edge47" class="edge">
<title>Node2&#45;&gt;Node33</title>
<path fill="none" stroke="#63b8ff" d="M1176.06,-442.75C1242.17,-433.05 1339.42,-418.38 1424,-404 1428.44,-403.25 1433.02,-402.44 1437.63,-401.62"/>
<polygon fill="#63b8ff" stroke="#63b8ff" points="1175.79,-439.25 1166.41,-444.17 1176.81,-446.18 1175.79,-439.25"/>
</g>
<!-- Node34 -->
<g id="node34" class="node">
<title>Node34</title>
<g id="a_node34"><a xlink:href="StateManager_8hpp.html" target="_top" xlink:title=" ">
<polygon fill="white" stroke="#666666" points="2410,-332.5 2246,-332.5 2246,-302.5 2410,-302.5 2410,-332.5"/>
<text text-anchor="start" x="2254" y="-320.5" font-family="Helvetica,sans-Serif" font-size="10.00">/github/workspace/client</text>
<text text-anchor="middle" x="2328" y="-309.5" font-family="Helvetica,sans-Serif" font-size="10.00">/include/Engine/StateManager.hpp</text>
</a>
</g>
</g>
<!-- Node2&#45;&gt;Node34 -->
<g id="edge48" class="edge">
<title>Node2&#45;&gt;Node34</title>
<path fill="none" stroke="#63b8ff" d="M1176.21,-453.58C1416.71,-451.85 2134.94,-443.43 2232,-404 2251.13,-396.23 2292.74,-355.04 2314.36,-332.79"/>
<polygon fill="#63b8ff" stroke="#63b8ff" points="1176.28,-450.08 1166.3,-453.64 1176.32,-457.08 1176.28,-450.08"/>
</g>
<!-- Node35 -->
<g id="node35" class="node">
<title>Node35</title>
<g id="a_node35"><a xlink:href="Text_8hpp.html" target="_top" xlink:title=" ">
<polygon fill="white" stroke="#666666" points="1870,-404 1748,-404 1748,-374 1870,-374 1870,-404"/>
<text text-anchor="start" x="1756" y="-392" font-family="Helvetica,sans-Serif" font-size="10.00">/github/workspace/client</text>
<text text-anchor="middle" x="1809" y="-381" font-family="Helvetica,sans-Serif" font-size="10.00">/include/Engine/Text.hpp</text>
</a>
</g>
</g>
<!-- Node2&#45;&gt;Node35 -->
<g id="edge50" class="edge">
<title>Node2&#45;&gt;Node35</title>
<path fill="none" stroke="#63b8ff" d="M1175.93,-450.85C1296.75,-445.3 1536.37,-431.66 1738,-404 1741.11,-403.57 1744.29,-403.1 1747.5,-402.58"/>
<polygon fill="#63b8ff" stroke="#63b8ff" points="1175.95,-447.34 1166.12,-451.29 1176.27,-454.34 1175.95,-447.34"/>
</g>
<!-- Node36 -->
<g id="node36" class="node">
<title>Node36</title>
<g id="a_node36"><a xlink:href="Window_8hpp.html" target="_top" xlink:title=" ">
<polygon fill="white" stroke="#666666" points="2422,-404 2284,-404 2284,-374 2422,-374 2422,-404"/>
<text text-anchor="start" x="2292" y="-392" font-family="Helvetica,sans-Serif" font-size="10.00">/github/workspace/client</text>
<text text-anchor="middle" x="2353" y="-381" font-family="Helvetica,sans-Serif" font-size="10.00">/include/Engine/Window.hpp</text>
</a>
</g>
</g>
<!-- Node2&#45;&gt;Node36 -->
<g id="edge51" class="edge">
<title>Node2&#45;&gt;Node36</title>
<path fill="none" stroke="#63b8ff" d="M1176.26,-454C1363.97,-453.23 1854.06,-446.83 2261,-404 2268.41,-403.22 2276.16,-402.19 2283.9,-401.05"/>
<polygon fill="#63b8ff" stroke="#63b8ff" points="1176.37,-450.5 1166.38,-454.04 1176.4,-457.5 1176.37,-450.5"/>
</g>
<!-- Node38 -->
<g id="node38" class="node">
<title>Node38</title>
<g id="a_node38"><a xlink:href="Properties_8hpp.html" target="_top" xlink:title=" ">
<polygon fill="white" stroke="#666666" points="1729.5,-404 1578.5,-404 1578.5,-374 1729.5,-374 1729.5,-404"/>
<text text-anchor="start" x="1586.5" y="-392" font-family="Helvetica,sans-Serif" font-size="10.00">/github/workspace/client</text>
<text text-anchor="middle" x="1654" y="-381" font-family="Helvetica,sans-Serif" font-size="10.00">/include/Entities/Properties.hpp</text>
</a>
</g>
</g>
<!-- Node2&#45;&gt;Node38 -->
<g id="edge56" class="edge">
<title>Node2&#45;&gt;Node38</title>
<path fill="none" stroke="#63b8ff" d="M1176.18,-447.09C1269.76,-438.49 1431.13,-422.66 1569,-404 1571.96,-403.6 1574.98,-403.18 1578.03,-402.73"/>
<polygon fill="#63b8ff" stroke="#63b8ff" points="1175.98,-443.59 1166.34,-447.99 1176.62,-450.56 1175.98,-443.59"/>
</g>
<!-- Node3&#45;&gt;Node4 -->
<g id="edge4" class="edge">
<title>Node3&#45;&gt;Node4</title>
<path fill="none" stroke="#63b8ff" d="M145,-362.53C145,-331.54 145,-280.33 145,-255.66"/>
<polygon fill="#63b8ff" stroke="#63b8ff" points="141.5,-362.17 145,-372.17 148.5,-362.17 141.5,-362.17"/>
</g>
<!-- Node6 -->
<g id="node6" class="node">
<title>Node6</title>
<g id="a_node6"><a xlink:href="SMenu__Duck_8hpp.html" target="_top" xlink:title=" ">
<polygon fill="white" stroke="#666666" points="2306,-41 2166,-41 2166,0 2306,0 2306,-41"/>
<text text-anchor="start" x="2174" y="-29" font-family="Helvetica,sans-Serif" font-size="10.00">/github/workspace/client</text>
<text text-anchor="start" x="2174" y="-18" font-family="Helvetica,sans-Serif" font-size="10.00">/include/system/gameStates</text>
<text text-anchor="middle" x="2236" y="-7" font-family="Helvetica,sans-Serif" font-size="10.00">/Example/SMenu_Duck.hpp</text>
</a>
</g>
</g>
<!-- Node5&#45;&gt;Node6 -->
<g id="edge6" class="edge">
<title>Node5&#45;&gt;Node6</title>
<path fill="none" stroke="#63b8ff" d="M2121.94,-363.54C2125.68,-355.49 2129.7,-346.44 2133,-338 2176.05,-227.95 2216.05,-91.76 2230.4,-41.41"/>
<polygon fill="#63b8ff" stroke="#63b8ff" points="2118.87,-361.85 2117.74,-372.38 2125.19,-364.85 2118.87,-361.85"/>
</g>
<!-- Node7 -->
<g id="node7" class="node">
<title>Node7</title>
<g id="a_node7"><a xlink:href="SMenu_8hpp.html" target="_top" xlink:title=" ">
<polygon fill="white" stroke="#666666" points="2124,-338 1984,-338 1984,-297 2124,-297 2124,-338"/>
<text text-anchor="start" x="1992" y="-326" font-family="Helvetica,sans-Serif" font-size="10.00">/github/workspace/client</text>
<text text-anchor="start" x="1992" y="-315" font-family="Helvetica,sans-Serif" font-size="10.00">/include/system/gameStates</text>
<text text-anchor="middle" x="2054" y="-304" font-family="Helvetica,sans-Serif" font-size="10.00">/SMenu.hpp</text>
</a>
</g>
</g>
<!-- Node5&#45;&gt;Node7 -->
<g id="edge7" class="edge">
<title>Node5&#45;&gt;Node7</title>
<path fill="none" stroke="#63b8ff" d="M2091.34,-364.84C2084.44,-356.28 2076.69,-346.66 2070.05,-338.42"/>
<polygon fill="#63b8ff" stroke="#63b8ff" points="2088.45,-366.83 2097.45,-372.42 2093.9,-362.44 2088.45,-366.83"/>
</g>
<!-- Node8 -->
<g id="node8" class="node">
<title>Node8</title>
<g id="a_node8"><a xlink:href="States_8hpp.html" target="_top" xlink:title=" ">
<polygon fill="white" stroke="#666666" points="2124,-261 1984,-261 1984,-220 2124,-220 2124,-261"/>
<text text-anchor="start" x="1992" y="-249" font-family="Helvetica,sans-Serif" font-size="10.00">/github/workspace/client</text>
<text text-anchor="start" x="1992" y="-238" font-family="Helvetica,sans-Serif" font-size="10.00">/include/system/gameStates</text>
<text text-anchor="middle" x="2054" y="-227" font-family="Helvetica,sans-Serif" font-size="10.00">/States.hpp</text>
</a>
</g>
</g>
<!-- Node7&#45;&gt;Node8 -->
<g id="edge8" class="edge">
<title>Node7&#45;&gt;Node8</title>
<path fill="none" stroke="#63b8ff" d="M2054,-285.36C2054,-277.24 2054,-268.7 2054,-261.33"/>
<polygon fill="#63b8ff" stroke="#63b8ff" points="2050.5,-285.28 2054,-295.28 2057.5,-285.28 2050.5,-285.28"/>
</g>
<!-- Node9 -->
<g id="node9" class="node">
<title>Node9</title>
<g id="a_node9"><a xlink:href="GameEngine_8hpp.html" target="_top" xlink:title=" ">
<polygon fill="white" stroke="#666666" points="2134.5,-184 1973.5,-184 1973.5,-154 2134.5,-154 2134.5,-184"/>
<text text-anchor="start" x="1981.5" y="-172" font-family="Helvetica,sans-Serif" font-size="10.00">/github/workspace/client</text>
<text text-anchor="middle" x="2054" y="-161" font-family="Helvetica,sans-Serif" font-size="10.00">/include/system/GameEngine.hpp</text>
</a>
</g>
</g>
<!-- Node8&#45;&gt;Node9 -->
<g id="edge9" class="edge">
<title>Node8&#45;&gt;Node9</title>
<path fill="none" stroke="#63b8ff" d="M2054,-208.38C2054,-200.04 2054,-191.43 2054,-184.47"/>
<polygon fill="#63b8ff" stroke="#63b8ff" points="2050.5,-208.26 2054,-218.26 2057.5,-208.26 2050.5,-208.26"/>
</g>
<!-- Node9&#45;&gt;Node10 -->
<g id="edge10" class="edge">
<title>Node9&#45;&gt;Node10</title>
<path fill="none" stroke="#63b8ff" d="M2006.61,-149.5C1982.06,-139.91 1952.06,-128.2 1927.01,-118.42"/>
<polygon fill="#63b8ff" stroke="#63b8ff" points="2005.12,-152.67 2015.71,-153.05 2007.67,-146.15 2005.12,-152.67"/>
</g>
<!-- Node14 -->
<g id="node14" class="node">
<title>Node14</title>
<g id="a_node14"><a xlink:href="StateManager_8cpp.html" target="_top" xlink:title=" ">
<polygon fill="white" stroke="#666666" points="2389,-112.5 2267,-112.5 2267,-82.5 2389,-82.5 2389,-112.5"/>
<text text-anchor="start" x="2275" y="-100.5" font-family="Helvetica,sans-Serif" font-size="10.00">/github/workspace/client</text>
<text text-anchor="middle" x="2328" y="-89.5" font-family="Helvetica,sans-Serif" font-size="10.00">/src/StateManager.cpp</text>
</a>
</g>
</g>
<!-- Node9&#45;&gt;Node14 -->
<g id="edge18" class="edge">
<title>Node9&#45;&gt;Node14</title>
<path fill="none" stroke="#63b8ff" d="M2122.14,-150.72C2167.96,-139.09 2227.66,-123.95 2270.97,-112.97"/>
<polygon fill="#63b8ff" stroke="#63b8ff" points="2121.41,-147.29 2112.57,-153.14 2123.13,-154.08 2121.41,-147.29"/>
</g>
<!-- Node9&#45;&gt;Node15 -->
<g id="edge19" class="edge">
<title>Node9&#45;&gt;Node15</title>
<path fill="none" stroke="#63b8ff" d="M2054,-142.26C2054,-132.33 2054,-121.36 2054,-112.88"/>
<polygon fill="#63b8ff" stroke="#63b8ff" points="2050.5,-142.09 2054,-152.09 2057.5,-142.09 2050.5,-142.09"/>
</g>
<!-- Node10&#45;&gt;Node6 -->
<g id="edge12" class="edge">
<title>Node10&#45;&gt;Node6</title>
<path fill="none" stroke="#63b8ff" d="M1957.33,-79.76C2010.47,-68.8 2081.37,-54.12 2144,-41 2151.03,-39.53 2158.36,-37.98 2165.68,-36.44"/>
<polygon fill="#63b8ff" stroke="#63b8ff" points="1956.84,-76.29 1947.75,-81.74 1958.25,-83.14 1956.84,-76.29"/>
</g>
<!-- Node10&#45;&gt;Node7 -->
<g id="edge15" class="edge">
<title>Node10&#45;&gt;Node7</title>
<path fill="none" stroke="#63b8ff" d="M1889.58,-128.72C1906.2,-163.42 1936.89,-220.73 1975,-261 1987.9,-274.63 2004.64,-286.96 2019.38,-296.52"/>
<polygon fill="#63b8ff" stroke="#63b8ff" points="1892.75,-127.23 1885.33,-119.67 1886.41,-130.2 1892.75,-127.23"/>
</g>
<!-- Node10&#45;&gt;Node8 -->
<g id="edge16" class="edge">
<title>Node10&#45;&gt;Node8</title>
<path fill="none" stroke="#63b8ff" d="M1901.87,-126.61C1918.7,-144.12 1941.62,-166.56 1964,-184 1980.8,-197.09 2000.85,-209.71 2017.76,-219.6"/>
<polygon fill="#63b8ff" stroke="#63b8ff" points="1904.59,-124.39 1895.16,-119.55 1899.51,-129.21 1904.59,-124.39"/>
</g>
<!-- Node11 -->
<g id="node11" class="node">
<title>Node11</title>
<g id="a_node11"><a xlink:href="SGamePlay__Duck_8hpp.html" target="_top" xlink:title=" ">
<polygon fill="white" stroke="#666666" points="1791.5,-41 1634.5,-41 1634.5,0 1791.5,0 1791.5,-41"/>
<text text-anchor="start" x="1642.5" y="-29" font-family="Helvetica,sans-Serif" font-size="10.00">/github/workspace/client</text>
<text text-anchor="start" x="1642.5" y="-18" font-family="Helvetica,sans-Serif" font-size="10.00">/include/system/gameStates</text>
<text text-anchor="middle" x="1713" y="-7" font-family="Helvetica,sans-Serif" font-size="10.00">/Example/SGamePlay_Duck.hpp</text>
</a>
</g>
</g>
<!-- Node10&#45;&gt;Node11 -->
<g id="edge11" class="edge">
<title>Node10&#45;&gt;Node11</title>
<path fill="none" stroke="#63b8ff" d="M1822.5,-71.88C1801.09,-62.03 1776.75,-50.83 1756.46,-41.49"/>
<polygon fill="#63b8ff" stroke="#63b8ff" points="1820.82,-74.97 1831.37,-75.97 1823.75,-68.61 1820.82,-74.97"/>
</g>
<!-- Node12 -->
<g id="node12" class="node">
<title>Node12</title>
<g id="a_node12"><a xlink:href="SGamePlay_8hpp.html" target="_top" xlink:title=" ">
<polygon fill="white" stroke="#666666" points="2135,-41 1995,-41 1995,0 2135,0 2135,-41"/>
<text text-anchor="start" x="2003" y="-29" font-family="Helvetica,sans-Serif" font-size="10.00">/github/workspace/client</text>
<text text-anchor="start" x="2003" y="-18" font-family="Helvetica,sans-Serif" font-size="10.00">/include/system/gameStates</text>
<text text-anchor="middle" x="2065" y="-7" font-family="Helvetica,sans-Serif" font-size="10.00">/SGamePlay.hpp</text>
</a>
</g>
</g>
<!-- Node10&#45;&gt;Node12 -->
<g id="edge13" class="edge">
<title>Node10&#45;&gt;Node12</title>
<path fill="none" stroke="#63b8ff" d="M1936.68,-72.42C1961.83,-62.44 1990.66,-51 2014.61,-41.49"/>
<polygon fill="#63b8ff" stroke="#63b8ff" points="1935.56,-69.1 1927.56,-76.04 1938.15,-75.6 1935.56,-69.1"/>
</g>
<!-- Node13 -->
<g id="node13" class="node">
<title>Node13</title>
<g id="a_node13"><a xlink:href="old__SGamePlay_01copy_8hpp.html" target="_top" xlink:title=" ">
<polygon fill="white" stroke="#666666" points="1950,-41 1810,-41 1810,0 1950,0 1950,-41"/>
<text text-anchor="start" x="1818" y="-29" font-family="Helvetica,sans-Serif" font-size="10.00">/github/workspace/client</text>
<text text-anchor="start" x="1818" y="-18" font-family="Helvetica,sans-Serif" font-size="10.00">/include/system/gameStates</text>
<text text-anchor="middle" x="1880" y="-7" font-family="Helvetica,sans-Serif" font-size="10.00">/old_SGamePlay copy.hpp</text>
</a>
</g>
</g>
<!-- Node10&#45;&gt;Node13 -->
<g id="edge17" class="edge">
<title>Node10&#45;&gt;Node13</title>
<path fill="none" stroke="#63b8ff" d="M1877.66,-65.36C1878.09,-57.24 1878.55,-48.7 1878.94,-41.33"/>
<polygon fill="#63b8ff" stroke="#63b8ff" points="1874.17,-65.11 1877.13,-75.28 1881.16,-65.48 1874.17,-65.11"/>
</g>
<!-- Node12&#45;&gt;Node8 -->
<g id="edge14" class="edge">
<title>Node12&#45;&gt;Node8</title>
<path fill="none" stroke="#63b8ff" d="M2100.54,-48.71C2109.31,-56.95 2117.92,-66.6 2124,-77 2133.08,-92.54 2157.23,-158.36 2143,-184 2134.43,-199.44 2119.58,-211.15 2104.43,-219.74"/>
<polygon fill="#63b8ff" stroke="#63b8ff" points="2103.09,-46.29 2093.29,-42.27 2098.44,-51.53 2103.09,-46.29"/>
</g>
<!-- Node16&#45;&gt;Node2 -->
<g id="edge21" class="edge">
<title>Node16&#45;&gt;Node2</title>
<path fill="none" stroke="#63b8ff" d="M273.67,-342.79C284.88,-362.98 301.19,-390.51 325,-404 385.93,-438.51 854.61,-449.85 1031.13,-452.97"/>
<polygon fill="#63b8ff" stroke="#63b8ff" points="276.74,-341.11 268.83,-334.06 270.62,-344.5 276.74,-341.11"/>
</g>
<!-- Node16&#45;&gt;Node4 -->
<g id="edge22" class="edge">
<title>Node16&#45;&gt;Node4</title>
<path fill="none" stroke="#63b8ff" d="M226.01,-295.75C207.1,-283.09 183.4,-267.21 166.53,-255.92"/>
<polygon fill="#63b8ff" stroke="#63b8ff" points="223.89,-298.54 234.15,-301.2 227.79,-292.72 223.89,-298.54"/>
</g>
<!-- Node17 -->
<g id="node17" class="node">
<title>Node17</title>
<g id="a_node17"><a xlink:href="Bullets_8cpp.html" target="_top" xlink:title=" ">
<polygon fill="white" stroke="#666666" points="346,-255.5 224,-255.5 224,-225.5 346,-225.5 346,-255.5"/>
<text text-anchor="start" x="232" y="-243.5" font-family="Helvetica,sans-Serif" font-size="10.00">/github/workspace/client</text>
<text text-anchor="middle" x="285" y="-232.5" font-family="Helvetica,sans-Serif" font-size="10.00">/src/Bullets.cpp</text>
</a>
</g>
</g>
<!-- Node16&#45;&gt;Node17 -->
<g id="edge23" class="edge">
<title>Node16&#45;&gt;Node17</title>
<path fill="none" stroke="#63b8ff" d="M266.35,-291.46C270.76,-279.65 275.86,-265.97 279.62,-255.92"/>
<polygon fill="#63b8ff" stroke="#63b8ff" points="263.15,-290.03 262.93,-300.62 269.7,-292.48 263.15,-290.03"/>
</g>
<!-- Node18&#45;&gt;Node10 -->
<g id="edge25" class="edge">
<title>Node18&#45;&gt;Node10</title>
<path fill="none" stroke="#63b8ff" d="M495.42,-298.56C563.55,-276.77 684.17,-240.42 790,-220 1169.09,-146.86 1631.73,-113.23 1805.54,-102.51"/>
<polygon fill="#63b8ff" stroke="#63b8ff" points="494.43,-295.2 485.99,-301.59 496.58,-301.86 494.43,-295.2"/>
</g>
<!-- Node19&#45;&gt;Node16 -->
<g id="edge27" class="edge">
<title>Node19&#45;&gt;Node16</title>
<path fill="none" stroke="#63b8ff" d="M383.63,-369.37C355.11,-357.91 319.12,-343.45 292.8,-332.88"/>
<polygon fill="#63b8ff" stroke="#63b8ff" points="382.17,-372.56 392.75,-373.04 384.78,-366.06 382.17,-372.56"/>
</g>
<!-- Node19&#45;&gt;Node18 -->
<g id="edge28" class="edge">
<title>Node19&#45;&gt;Node18</title>
<path fill="none" stroke="#63b8ff" d="M434.07,-362.26C435.65,-352.33 437.38,-341.36 438.72,-332.88"/>
<polygon fill="#63b8ff" stroke="#63b8ff" points="430.62,-361.68 432.52,-372.1 437.54,-362.77 430.62,-361.68"/>
</g>
<!-- Node19&#45;&gt;Node20 -->
<g id="edge29" class="edge">
<title>Node19&#45;&gt;Node20</title>
<path fill="none" stroke="#63b8ff" d="M530.92,-371.73C604.25,-359.9 702.55,-344.05 772.76,-332.73"/>
<polygon fill="#63b8ff" stroke="#63b8ff" points="530.64,-368.23 521.32,-373.27 531.75,-375.14 530.64,-368.23"/>
</g>
<!-- Node19&#45;&gt;Node22 -->
<g id="edge34" class="edge">
<title>Node19&#45;&gt;Node22</title>
<path fill="none" stroke="#63b8ff" d="M477.12,-369.5C501.53,-359.91 531.36,-348.2 556.28,-338.42"/>
<polygon fill="#63b8ff" stroke="#63b8ff" points="476.11,-366.13 468.08,-373.05 478.67,-372.65 476.11,-366.13"/>
</g>
<!-- Node20&#45;&gt;Node2 -->
<g id="edge30" class="edge">
<title>Node20&#45;&gt;Node2</title>
<path fill="none" stroke="#63b8ff" d="M885.45,-341.47C902.85,-360.64 927.28,-387.43 954,-404 980.12,-420.2 1012.05,-431.71 1039.25,-439.57"/>
<polygon fill="#63b8ff" stroke="#63b8ff" points="888.08,-339.15 878.76,-334.12 882.9,-343.87 888.08,-339.15"/>
</g>
<!-- Node20&#45;&gt;Node4 -->
<g id="edge31" class="edge">
<title>Node20&#45;&gt;Node4</title>
<path fill="none" stroke="#63b8ff" d="M761.44,-305.44C734.09,-302.54 704.41,-299.52 677,-297 471.91,-278.15 417.82,-296.8 215,-261 207.55,-259.68 199.74,-257.91 192.16,-255.97"/>
<polygon fill="#63b8ff" stroke="#63b8ff" points="760.79,-308.89 771.1,-306.47 761.53,-301.93 760.79,-308.89"/>
</g>
<!-- Node20&#45;&gt;Node10 -->
<g id="edge32" class="edge">
<title>Node20&#45;&gt;Node10</title>
<path fill="none" stroke="#63b8ff" d="M939.5,-299.64C1131.48,-258.41 1622.39,-152.97 1805.62,-113.62"/>
<polygon fill="#63b8ff" stroke="#63b8ff" points="938.9,-296.19 929.86,-301.71 940.37,-303.03 938.9,-296.19"/>
</g>
<!-- Node21 -->
<g id="node21" class="node">
<title>Node21</title>
<g id="a_node21"><a xlink:href="EntitiesManager_8cpp.html" target="_top" xlink:title=" ">
<polygon fill="white" stroke="#666666" points="923,-255.5 799,-255.5 799,-225.5 923,-225.5 923,-255.5"/>
<text text-anchor="start" x="807" y="-243.5" font-family="Helvetica,sans-Serif" font-size="10.00">/github/workspace/client</text>
<text text-anchor="middle" x="861" y="-232.5" font-family="Helvetica,sans-Serif" font-size="10.00">/src/EntitiesManager.cpp</text>
</a>
</g>
</g>
<!-- Node20&#45;&gt;Node21 -->
<g id="edge33" class="edge">
<title>Node20&#45;&gt;Node21</title>
<path fill="none" stroke="#63b8ff" d="M861,-290.73C861,-279.08 861,-265.76 861,-255.92"/>
<polygon fill="#63b8ff" stroke="#63b8ff" points="857.5,-290.53 861,-300.53 864.5,-290.53 857.5,-290.53"/>
</g>
<!-- Node26 -->
<g id="node26" class="node">
<title>Node26</title>
<g id="a_node26"><a xlink:href="Destroy_8cpp.html" target="_top" xlink:title=" ">
<polygon fill="white" stroke="#666666" points="1089,-332.5 967,-332.5 967,-302.5 1089,-302.5 1089,-332.5"/>
<text text-anchor="start" x="975" y="-320.5" font-family="Helvetica,sans-Serif" font-size="10.00">/github/workspace/client</text>
<text text-anchor="middle" x="1028" y="-309.5" font-family="Helvetica,sans-Serif" font-size="10.00">/src/Destroy.cpp</text>
</a>
</g>
</g>
<!-- Node25&#45;&gt;Node26 -->
<g id="edge38" class="edge">
<title>Node25&#45;&gt;Node26</title>
<path fill="none" stroke="#63b8ff" d="M1024.85,-362.26C1025.57,-352.33 1026.36,-341.36 1026.97,-332.88"/>
<polygon fill="#63b8ff" stroke="#63b8ff" points="1021.37,-361.86 1024.14,-372.09 1028.35,-362.37 1021.37,-361.86"/>
</g>
<!-- Node28 -->
<g id="node28" class="node">
<title>Node28</title>
<g id="a_node28"><a xlink:href="Draw_8cpp.html" target="_top" xlink:title=" ">
<polygon fill="white" stroke="#666666" points="1234,-332.5 1112,-332.5 1112,-302.5 1234,-302.5 1234,-332.5"/>
<text text-anchor="start" x="1120" y="-320.5" font-family="Helvetica,sans-Serif" font-size="10.00">/github/workspace/client</text>
<text text-anchor="middle" x="1173" y="-309.5" font-family="Helvetica,sans-Serif" font-size="10.00">/src/Draw.cpp</text>
</a>
</g>
</g>
<!-- Node27&#45;&gt;Node28 -->
<g id="edge40" class="edge">
<title>Node27&#45;&gt;Node28</title>
<path fill="none" stroke="#63b8ff" d="M1173,-362.26C1173,-352.33 1173,-341.36 1173,-332.88"/>
<polygon fill="#63b8ff" stroke="#63b8ff" points="1169.5,-362.09 1173,-372.09 1176.5,-362.09 1169.5,-362.09"/>
</g>
<!-- Node29&#45;&gt;Node15 -->
<g id="edge43" class="edge">
<title>Node29&#45;&gt;Node15</title>
<path fill="none" stroke="#63b8ff" d="M1944.35,-362.32C1935.78,-316.72 1924.39,-220.23 1964,-154 1975.31,-135.09 1995.79,-121.72 2014.36,-112.84"/>
<polygon fill="#63b8ff" stroke="#63b8ff" points="1940.89,-362.91 1946.29,-372.03 1947.76,-361.53 1940.89,-362.91"/>
</g>
<!-- Node30 -->
<g id="node30" class="node">
<title>Node30</title>
<g id="a_node30"><a xlink:href="Error_8cpp.html" target="_top" xlink:title=" ">
<polygon fill="white" stroke="#666666" points="1917,-332.5 1795,-332.5 1795,-302.5 1917,-302.5 1917,-332.5"/>
<text text-anchor="start" x="1803" y="-320.5" font-family="Helvetica,sans-Serif" font-size="10.00">/github/workspace/client</text>
<text text-anchor="middle" x="1856" y="-309.5" font-family="Helvetica,sans-Serif" font-size="10.00">/src/Error.cpp</text>
</a>
</g>
</g>
<!-- Node29&#45;&gt;Node30 -->
<g id="edge42" class="edge">
<title>Node29&#45;&gt;Node30</title>
<path fill="none" stroke="#63b8ff" d="M1921.68,-367.06C1906.75,-356.02 1888.81,-342.76 1875.45,-332.88"/>
<polygon fill="#63b8ff" stroke="#63b8ff" points="1919.18,-369.57 1929.31,-372.7 1923.35,-363.94 1919.18,-369.57"/>
</g>
<!-- Node31&#45;&gt;Node2 -->
<g id="edge45" class="edge">
<title>Node31&#45;&gt;Node2</title>
<path fill="none" stroke="#63b8ff" d="M1263.29,-407.69C1229.77,-417.72 1187.05,-430.12 1153.4,-439.56"/>
<polygon fill="#63b8ff" stroke="#63b8ff" points="1264.26,-411.06 1272.83,-404.83 1262.24,-404.35 1264.26,-411.06"/>
</g>
<!-- Node31&#45;&gt;Node32 -->
<g id="edge46" class="edge">
<title>Node31&#45;&gt;Node32</title>
<path fill="none" stroke="#63b8ff" d="M1318.74,-362.26C1319.03,-352.33 1319.34,-341.36 1319.59,-332.88"/>
<polygon fill="#63b8ff" stroke="#63b8ff" points="1315.25,-361.99 1318.46,-372.09 1322.24,-362.19 1315.25,-361.99"/>
</g>
<!-- Node34&#45;&gt;Node14 -->
<g id="edge49" class="edge">
<title>Node34&#45;&gt;Node14</title>
<path fill="none" stroke="#63b8ff" d="M2328,-290.83C2328,-244.67 2328,-149.1 2328,-112.86"/>
<polygon fill="#63b8ff" stroke="#63b8ff" points="2324.5,-290.68 2328,-300.68 2331.5,-290.68 2324.5,-290.68"/>
</g>
<!-- Node36&#45;&gt;Node2 -->
<g id="edge52" class="edge">
<title>Node36&#45;&gt;Node2</title>
<path fill="none" stroke="#63b8ff" d="M2272.56,-404.64C1848,-448.51 1343.89,-453.66 1164.92,-454.06"/>
<polygon fill="#63b8ff" stroke="#63b8ff" points="2272.75,-408.14 2282.33,-403.62 2272.02,-401.18 2272.75,-408.14"/>
</g>
<!-- Node36&#45;&gt;Node34 -->
<g id="edge53" class="edge">
<title>Node36&#45;&gt;Node34</title>
<path fill="none" stroke="#63b8ff" d="M2343.97,-362.91C2340.34,-352.82 2336.29,-341.54 2333.17,-332.88"/>
<polygon fill="#63b8ff" stroke="#63b8ff" points="2340.63,-363.95 2347.31,-372.18 2347.22,-361.58 2340.63,-363.95"/>
</g>
<!-- Node37 -->
<g id="node37" class="node">
<title>Node37</title>
<g id="a_node37"><a xlink:href="Window_8cpp.html" target="_top" xlink:title=" ">
<polygon fill="white" stroke="#666666" points="2550,-332.5 2428,-332.5 2428,-302.5 2550,-302.5 2550,-332.5"/>
<text text-anchor="start" x="2436" y="-320.5" font-family="Helvetica,sans-Serif" font-size="10.00">/github/workspace/client</text>
<text text-anchor="middle" x="2489" y="-309.5" font-family="Helvetica,sans-Serif" font-size="10.00">/src/Window.cpp</text>
</a>
</g>
</g>
<!-- Node36&#45;&gt;Node37 -->
<g id="edge54" class="edge">
<title>Node36&#45;&gt;Node37</title>
<path fill="none" stroke="#63b8ff" d="M2391.25,-368.46C2413.36,-357.15 2440.72,-343.17 2460.86,-332.88"/>
<polygon fill="#63b8ff" stroke="#63b8ff" points="2389.84,-365.24 2382.53,-372.91 2393.02,-371.48 2389.84,-365.24"/>
</g>
<!-- Node39 -->
<g id="node39" class="node">
<title>Node39</title>
<g id="a_node39"><a xlink:href="Enemy_8hpp.html" target="_top" xlink:title=" ">
<polygon fill="white" stroke="#666666" points="1755,-332.5 1597,-332.5 1597,-302.5 1755,-302.5 1755,-332.5"/>
<text text-anchor="start" x="1605" y="-320.5" font-family="Helvetica,sans-Serif" font-size="10.00">/github/workspace/client</text>
<text text-anchor="middle" x="1676" y="-309.5" font-family="Helvetica,sans-Serif" font-size="10.00">/include/Components/Enemy.hpp</text>
</a>
</g>
</g>
<!-- Node38&#45;&gt;Node39 -->
<g id="edge57" class="edge">
<title>Node38&#45;&gt;Node39</title>
<path fill="none" stroke="#63b8ff" d="M1661.94,-362.91C1665.14,-352.82 1668.71,-341.54 1671.45,-332.88"/>
<polygon fill="#63b8ff" stroke="#63b8ff" points="1658.7,-361.57 1659.02,-372.16 1665.37,-363.68 1658.7,-361.57"/>
</g>
<!-- Node40 -->
<g id="node40" class="node">
<title>Node40</title>
<g id="a_node40"><a xlink:href="Player_8hpp.html" target="_top" xlink:title=" ">
<polygon fill="white" stroke="#666666" points="1579,-332.5 1423,-332.5 1423,-302.5 1579,-302.5 1579,-332.5"/>
<text text-anchor="start" x="1431" y="-320.5" font-family="Helvetica,sans-Serif" font-size="10.00">/github/workspace/client</text>
<text text-anchor="middle" x="1501" y="-309.5" font-family="Helvetica,sans-Serif" font-size="10.00">/include/Components/Player.hpp</text>
</a>
</g>
</g>
<!-- Node38&#45;&gt;Node40 -->
<g id="edge58" class="edge">
<title>Node38&#45;&gt;Node40</title>
<path fill="none" stroke="#63b8ff" d="M1611.98,-368.91C1586.93,-357.53 1555.63,-343.31 1532.66,-332.88"/>
<polygon fill="#63b8ff" stroke="#63b8ff" points="1610.37,-372.02 1620.92,-372.97 1613.26,-365.65 1610.37,-372.02"/>
</g>
<!-- Node41 -->
<g id="node41" class="node">
<title>Node41</title>
<g id="a_node41"><a xlink:href="Player_8cpp.html" target="_top" xlink:title=" ">
<polygon fill="white" stroke="#666666" points="1562,-255.5 1440,-255.5 1440,-225.5 1562,-225.5 1562,-255.5"/>
<text text-anchor="start" x="1448" y="-243.5" font-family="Helvetica,sans-Serif" font-size="10.00">/github/workspace/client</text>
<text text-anchor="middle" x="1501" y="-232.5" font-family="Helvetica,sans-Serif" font-size="10.00">/src/Player.cpp</text>
</a>
</g>
</g>
<!-- Node40&#45;&gt;Node41 -->
<g id="edge59" class="edge">
<title>Node40&#45;&gt;Node41</title>
<path fill="none" stroke="#63b8ff" d="M1501,-290.73C1501,-279.08 1501,-265.76 1501,-255.92"/>
<polygon fill="#63b8ff" stroke="#63b8ff" points="1497.5,-290.53 1501,-300.53 1504.5,-290.53 1497.5,-290.53"/>
</g>
</g>
</svg>
        <g id="navigator" transform="translate(0 0)" fill="#404254">
                <rect fill="#f2f5e9" fill-opacity="0.5" stroke="#606060" stroke-width=".5" x="0" y="0" width="60" height="60"/>
                <use id="zoomplus" xlink:href="#zoomPlus" x="17" y="9" onmousedown="handleZoom(evt,'in')"/>
                <use id="zoomminus" xlink:href="#zoomMin" x="42" y="9" onmousedown="handleZoom(evt,'out')"/>
                <use id="reset" xlink:href="#resetDef" x="30" y="36" onmousedown="handleReset()"/>
                <g id="arrowUp" xlink:href="#dirArrow" transform="translate(30 24)" onmousedown="handlePan(0,-1)">
                  <use xlink:href="#rim" fill="#404040">
                        <set attributeName="fill" to="#808080" begin="arrowUp.mouseover" end="arrowUp.mouseout"/>
                  </use>
                  <path fill="none" stroke="white" stroke-width="1.5" d="M0,-3.0v7 M-2.5,-0.5L0,-3.0L2.5,-0.5"/>
                </g>
                <g id="arrowRight" xlink:href="#dirArrow" transform="rotate(90) translate(36 -43)" onmousedown="handlePan(1,0)">
                  <use xlink:href="#rim" fill="#404040">
                        <set attributeName="fill" to="#808080" begin="arrowRight.mouseover" end="arrowRight.mouseout"/>
                  </use>
                  <path fill="none" stroke="white" stroke-width="1.5" d="M0,-3.0v7 M-2.5,-0.5L0,-3.0L2.5,-0.5"/>
                </g>
                <g id="arrowDown" xlink:href="#dirArrow" transform="rotate(180) translate(-30 -48)" onmousedown="handlePan(0,1)">
                  <use xlink:href="#rim" fill="#404040">
                        <set attributeName="fill" to="#808080" begin="arrowDown.mouseover" end="arrowDown.mouseout"/>
                  </use>
                  <path fill="none" stroke="white" stroke-width="1.5" d="M0,-3.0v7 M-2.5,-0.5L0,-3.0L2.5,-0.5"/>
                </g>
                <g id="arrowLeft" xlink:href="#dirArrow" transform="rotate(270) translate(-36 17)" onmousedown="handlePan(-1,0)">
                  <use xlink:href="#rim" fill="#404040">
                        <set attributeName="fill" to="#808080" begin="arrowLeft.mouseover" end="arrowLeft.mouseout"/>
                  </use>
                  <path fill="none" stroke="white" stroke-width="1.5" d="M0,-3.0v7 M-2.5,-0.5L0,-3.0L2.5,-0.5"/>
                </g>
        </g>
        <svg viewBox="0 0 15 15" width="100%" height="30px" preserveAspectRatio="xMaxYMin meet">
         <g id="arrow_out" transform="scale(0.3 0.3)">
          <a xlink:href="Background_8hpp__dep__incl_org.svg" target="_base">
           <rect id="button" ry="5" rx="5" y="6" x="6" height="38" width="38"
                fill="#f2f5e9" fill-opacity="0.5" stroke="#606060" stroke-width="1.0"/>
           <path id="arrow"
             d="M 11.500037,31.436501 C 11.940474,20.09759 22.043105,11.32322 32.158766,21.979434 L 37.068811,17.246167 C 37.068811,17.246167 37.088388,32 37.088388,32 L 22.160133,31.978069 C 22.160133,31.978069 26.997745,27.140456 26.997745,27.140456 C 18.528582,18.264221 13.291696,25.230495 11.500037,31.436501 z"
             style="fill:#404040;"/>
          </a>
         </g>
        </svg>
</svg>
