<?xml version="1.0" encoding="UTF-8" standalone="no"?>
<!DOCTYPE svg PUBLIC "-//W3C//DTD SVG 1.1//EN"
 "http://www.w3.org/Graphics/SVG/1.1/DTD/svg11.dtd">
<!-- Generated by graphviz version 7.0.5 (20221223.1930)
 -->
<!-- Title: /github/workspace/client/include/Components/Bouton.hpp Pages: 1 -->
<svg width="677pt" height="412pt"
 viewBox="0.00 0.00 676.50 412.00" xmlns="http://www.w3.org/2000/svg" xmlns:xlink="http://www.w3.org/1999/xlink">
<g id="graph0" class="graph" transform="scale(1 1) rotate(0) translate(4 408)">
<title>/github/workspace/client/include/Components/Bouton.hpp</title>
<!-- Node1 -->
<g id="node1" class="node">
<title>Node1</title>
<g id="a_node1"><a xlink:title=" ">
<polygon fill="#999999" stroke="#666666" points="233,-404 73,-404 73,-374 233,-374 233,-404"/>
<text text-anchor="start" x="81" y="-392" font-family="Helvetica,sans-Serif" font-size="10.00">/github/workspace/client</text>
<text text-anchor="middle" x="153" y="-381" font-family="Helvetica,sans-Serif" font-size="10.00">/include/Components/Bouton.hpp</text>
</a>
</g>
</g>
<!-- Node2 -->
<g id="node2" class="node">
<title>Node2</title>
<g id="a_node2"><a xlink:href="SMenu__Duck_8hpp.html" target="_top" xlink:title=" ">
<polygon fill="white" stroke="#666666" points="140,-41 0,-41 0,0 140,0 140,-41"/>
<text text-anchor="start" x="8" y="-29" font-family="Helvetica,sans-Serif" font-size="10.00">/github/workspace/client</text>
<text text-anchor="start" x="8" y="-18" font-family="Helvetica,sans-Serif" font-size="10.00">/include/system/gameStates</text>
<text text-anchor="middle" x="70" y="-7" font-family="Helvetica,sans-Serif" font-size="10.00">/Example/SMenu_Duck.hpp</text>
</a>
</g>
</g>
<!-- Node1&#45;&gt;Node2 -->
<g id="edge1" class="edge">
<title>Node1&#45;&gt;Node2</title>
<path fill="none" stroke="#63b8ff" d="M115.6,-367.78C76.26,-343.47 20,-298.7 20,-241.5 20,-241.5 20,-241.5 20,-168 20,-120.43 43.9,-68.61 58.65,-41.15"/>
<polygon fill="#63b8ff" stroke="#63b8ff" points="113.76,-370.76 124.14,-372.88 117.35,-364.75 113.76,-370.76"/>
</g>
<!-- Node3 -->
<g id="node3" class="node">
<title>Node3</title>
<g id="a_node3"><a xlink:href="SMenu_8hpp.html" target="_top" xlink:title=" ">
<polygon fill="white" stroke="#666666" points="357,-338 217,-338 217,-297 357,-297 357,-338"/>
<text text-anchor="start" x="225" y="-326" font-family="Helvetica,sans-Serif" font-size="10.00">/github/workspace/client</text>
<text text-anchor="start" x="225" y="-315" font-family="Helvetica,sans-Serif" font-size="10.00">/include/system/gameStates</text>
<text text-anchor="middle" x="287" y="-304" font-family="Helvetica,sans-Serif" font-size="10.00">/SMenu.hpp</text>
</a>
</g>
</g>
<!-- Node1&#45;&gt;Node3 -->
<g id="edge2" class="edge">
<title>Node1&#45;&gt;Node3</title>
<path fill="none" stroke="#63b8ff" d="M190.93,-368.33C208.97,-358.97 230.5,-347.8 248.6,-338.42"/>
<polygon fill="#63b8ff" stroke="#63b8ff" points="189.37,-365.19 182.11,-372.9 192.6,-371.41 189.37,-365.19"/>
</g>
<!-- Node4 -->
<g id="node4" class="node">
<title>Node4</title>
<g id="a_node4"><a xlink:href="States_8hpp.html" target="_top" xlink:title=" ">
<polygon fill="white" stroke="#666666" points="357,-261 217,-261 217,-220 357,-220 357,-261"/>
<text text-anchor="start" x="225" y="-249" font-family="Helvetica,sans-Serif" font-size="10.00">/github/workspace/client</text>
<text text-anchor="start" x="225" y="-238" font-family="Helvetica,sans-Serif" font-size="10.00">/include/system/gameStates</text>
<text text-anchor="middle" x="287" y="-227" font-family="Helvetica,sans-Serif" font-size="10.00">/States.hpp</text>
</a>
</g>
</g>
<!-- Node3&#45;&gt;Node4 -->
<g id="edge3" class="edge">
<title>Node3&#45;&gt;Node4</title>
<path fill="none" stroke="#63b8ff" d="M287,-285.36C287,-277.24 287,-268.7 287,-261.33"/>
<polygon fill="#63b8ff" stroke="#63b8ff" points="283.5,-285.28 287,-295.28 290.5,-285.28 283.5,-285.28"/>
</g>
<!-- Node5 -->
<g id="node5" class="node">
<title>Node5</title>
<g id="a_node5"><a xlink:href="GameEngine_8hpp.html" target="_top" xlink:title=" ">
<polygon fill="white" stroke="#666666" points="367.5,-184 206.5,-184 206.5,-154 367.5,-154 367.5,-184"/>
<text text-anchor="start" x="214.5" y="-172" font-family="Helvetica,sans-Serif" font-size="10.00">/github/workspace/client</text>
<text text-anchor="middle" x="287" y="-161" font-family="Helvetica,sans-Serif" font-size="10.00">/include/system/GameEngine.hpp</text>
</a>
</g>
</g>
<!-- Node4&#45;&gt;Node5 -->
<g id="edge4" class="edge">
<title>Node4&#45;&gt;Node5</title>
<path fill="none" stroke="#63b8ff" d="M287,-208.38C287,-200.04 287,-191.43 287,-184.47"/>
<polygon fill="#63b8ff" stroke="#63b8ff" points="283.5,-208.26 287,-218.26 290.5,-208.26 283.5,-208.26"/>
</g>
<!-- Node6 -->
<g id="node6" class="node">
<title>Node6</title>
<g id="a_node6"><a xlink:href="IGameState_8hpp.html" target="_top" xlink:title=" ">
<polygon fill="white" stroke="#666666" points="506,-118 366,-118 366,-77 506,-77 506,-118"/>
<text text-anchor="start" x="374" y="-106" font-family="Helvetica,sans-Serif" font-size="10.00">/github/workspace/client</text>
<text text-anchor="start" x="374" y="-95" font-family="Helvetica,sans-Serif" font-size="10.00">/include/system/gameStates</text>
<text text-anchor="middle" x="436" y="-84" font-family="Helvetica,sans-Serif" font-size="10.00">/IGameState.hpp</text>
</a>
</g>
</g>
<!-- Node5&#45;&gt;Node6 -->
<g id="edge5" class="edge">
<title>Node5&#45;&gt;Node6</title>
<path fill="none" stroke="#63b8ff" d="M328.06,-148.85C348.34,-139.39 372.8,-127.98 393.3,-118.42"/>
<polygon fill="#63b8ff" stroke="#63b8ff" points="326.83,-145.56 319.24,-152.96 329.79,-151.9 326.83,-145.56"/>
</g>
<!-- Node10 -->
<g id="node10" class="node">
<title>Node10</title>
<g id="a_node10"><a xlink:href="StateManager_8cpp.html" target="_top" xlink:title=" ">
<polygon fill="white" stroke="#666666" points="348,-112.5 226,-112.5 226,-82.5 348,-82.5 348,-112.5"/>
<text text-anchor="start" x="234" y="-100.5" font-family="Helvetica,sans-Serif" font-size="10.00">/github/workspace/client</text>
<text text-anchor="middle" x="287" y="-89.5" font-family="Helvetica,sans-Serif" font-size="10.00">/src/StateManager.cpp</text>
</a>
</g>
</g>
<!-- Node5&#45;&gt;Node10 -->
<g id="edge13" class="edge">
<title>Node5&#45;&gt;Node10</title>
<path fill="none" stroke="#63b8ff" d="M287,-142.26C287,-132.33 287,-121.36 287,-112.88"/>
<polygon fill="#63b8ff" stroke="#63b8ff" points="283.5,-142.09 287,-152.09 290.5,-142.09 283.5,-142.09"/>
</g>
<!-- Node11 -->
<g id="node11" class="node">
<title>Node11</title>
<g id="a_node11"><a xlink:href="client_2src_2main_8cpp.html" target="_top" xlink:title=" ">
<polygon fill="white" stroke="#666666" points="208,-112.5 86,-112.5 86,-82.5 208,-82.5 208,-112.5"/>
<text text-anchor="start" x="94" y="-100.5" font-family="Helvetica,sans-Serif" font-size="10.00">/github/workspace/client</text>
<text text-anchor="middle" x="147" y="-89.5" font-family="Helvetica,sans-Serif" font-size="10.00">/src/main.cpp</text>
</a>
</g>
</g>
<!-- Node5&#45;&gt;Node11 -->
<g id="edge14" class="edge">
<title>Node5&#45;&gt;Node11</title>
<path fill="none" stroke="#63b8ff" d="M247.94,-148.61C225.12,-137.28 196.8,-123.22 175.97,-112.88"/>
<polygon fill="#63b8ff" stroke="#63b8ff" points="246.12,-151.61 256.64,-152.93 249.24,-145.35 246.12,-151.61"/>
</g>
<!-- Node6&#45;&gt;Node2 -->
<g id="edge7" class="edge">
<title>Node6&#45;&gt;Node2</title>
<path fill="none" stroke="#63b8ff" d="M354.66,-76.56C302.06,-65.35 206.62,-47.16 140.44,-34.7"/>
<polygon fill="#63b8ff" stroke="#63b8ff" points="353.84,-79.97 364.35,-78.66 355.32,-73.12 353.84,-79.97"/>
</g>
<!-- Node6&#45;&gt;Node3 -->
<g id="edge10" class="edge">
<title>Node6&#45;&gt;Node3</title>
<path fill="none" stroke="#63b8ff" d="M428.63,-129.23C418.98,-164.26 399.28,-221.74 366,-261 354.08,-275.06 337.82,-287.29 323.14,-296.66"/>
<polygon fill="#63b8ff" stroke="#63b8ff" points="431.96,-130.29 431.13,-119.73 425.2,-128.51 431.96,-130.29"/>
</g>
<!-- Node6&#45;&gt;Node4 -->
<g id="edge11" class="edge">
<title>Node6&#45;&gt;Node4</title>
<path fill="none" stroke="#63b8ff" d="M419.85,-128.01C409.23,-145.64 394.16,-167.7 377,-184 362.36,-197.91 343.68,-210.11 327.14,-219.5"/>
<polygon fill="#63b8ff" stroke="#63b8ff" points="422.78,-129.93 424.8,-119.53 416.74,-126.4 422.78,-129.93"/>
</g>
<!-- Node7 -->
<g id="node7" class="node">
<title>Node7</title>
<g id="a_node7"><a xlink:href="SGamePlay__Duck_8hpp.html" target="_top" xlink:title=" ">
<polygon fill="white" stroke="#666666" points="668.5,-41 511.5,-41 511.5,0 668.5,0 668.5,-41"/>
<text text-anchor="start" x="519.5" y="-29" font-family="Helvetica,sans-Serif" font-size="10.00">/github/workspace/client</text>
<text text-anchor="start" x="519.5" y="-18" font-family="Helvetica,sans-Serif" font-size="10.00">/include/system/gameStates</text>
<text text-anchor="middle" x="590" y="-7" font-family="Helvetica,sans-Serif" font-size="10.00">/Example/SGamePlay_Duck.hpp</text>
</a>
</g>
</g>
<!-- Node6&#45;&gt;Node7 -->
<g id="edge6" class="edge">
<title>Node6&#45;&gt;Node7</title>
<path fill="none" stroke="#63b8ff" d="M487.1,-71.62C507.19,-61.83 529.95,-50.75 548.94,-41.49"/>
<polygon fill="#63b8ff" stroke="#63b8ff" points="485.68,-68.41 478.23,-75.94 488.75,-74.7 485.68,-68.41"/>
</g>
<!-- Node8 -->
<g id="node8" class="node">
<title>Node8</title>
<g id="a_node8"><a xlink:href="SGamePlay_8hpp.html" target="_top" xlink:title=" ">
<polygon fill="white" stroke="#666666" points="323,-41 183,-41 183,0 323,0 323,-41"/>
<text text-anchor="start" x="191" y="-29" font-family="Helvetica,sans-Serif" font-size="10.00">/github/workspace/client</text>
<text text-anchor="start" x="191" y="-18" font-family="Helvetica,sans-Serif" font-size="10.00">/include/system/gameStates</text>
<text text-anchor="middle" x="253" y="-7" font-family="Helvetica,sans-Serif" font-size="10.00">/SGamePlay.hpp</text>
</a>
</g>
</g>
<!-- Node6&#45;&gt;Node8 -->
<g id="edge8" class="edge">
<title>Node6&#45;&gt;Node8</title>
<path fill="none" stroke="#63b8ff" d="M376.92,-72.29C352.65,-62.34 324.88,-50.96 301.79,-41.49"/>
<polygon fill="#63b8ff" stroke="#63b8ff" points="375.46,-75.47 386.04,-76.02 378.11,-68.99 375.46,-75.47"/>
</g>
<!-- Node9 -->
<g id="node9" class="node">
<title>Node9</title>
<g id="a_node9"><a xlink:href="old__SGamePlay_01copy_8hpp.html" target="_top" xlink:title=" ">
<polygon fill="white" stroke="#666666" points="493,-41 353,-41 353,0 493,0 493,-41"/>
<text text-anchor="start" x="361" y="-29" font-family="Helvetica,sans-Serif" font-size="10.00">/github/workspace/client</text>
<text text-anchor="start" x="361" y="-18" font-family="Helvetica,sans-Serif" font-size="10.00">/include/system/gameStates</text>
<text text-anchor="middle" x="423" y="-7" font-family="Helvetica,sans-Serif" font-size="10.00">/old_SGamePlay copy.hpp</text>
</a>
</g>
</g>
<!-- Node6&#45;&gt;Node9 -->
<g id="edge12" class="edge">
<title>Node6&#45;&gt;Node9</title>
<path fill="none" stroke="#63b8ff" d="M430.65,-65.65C429.23,-57.43 427.73,-48.78 426.44,-41.33"/>
<polygon fill="#63b8ff" stroke="#63b8ff" points="427.17,-66.05 432.33,-75.3 434.07,-64.85 427.17,-66.05"/>
</g>
<!-- Node8&#45;&gt;Node4 -->
<g id="edge9" class="edge">
<title>Node8&#45;&gt;Node4</title>
<path fill="none" stroke="#63b8ff" d="M171.68,-37.42C131.41,-47.13 88.89,-60.79 77,-77 66.23,-91.7 67.9,-102.21 77,-118 106.88,-169.81 168.23,-201.53 216.93,-219.5"/>
<polygon fill="#63b8ff" stroke="#63b8ff" points="172.26,-40.88 181.2,-35.2 170.67,-34.07 172.26,-40.88"/>
</g>
</g>
</svg>
