<?xml version="1.0" encoding="UTF-8" standalone="no"?>
<!DOCTYPE svg PUBLIC "-//W3C//DTD SVG 1.1//EN"
 "http://www.w3.org/Graphics/SVG/1.1/DTD/svg11.dtd">
<!-- Generated by graphviz version 7.0.5 (20221223.1930)
 -->
<!-- Title: /github/workspace/client/src/Bullets.cpp Pages: 1 -->
<svg width="1696pt" height="368pt"
 viewBox="0.00 0.00 1695.50 368.00" xmlns="http://www.w3.org/2000/svg" xmlns:xlink="http://www.w3.org/1999/xlink">
<g id="graph0" class="graph" transform="scale(1 1) rotate(0) translate(4 364)">
<title>/github/workspace/client/src/Bullets.cpp</title>
<!-- Node1 -->
<g id="node1" class="node">
<title>Node1</title>
<g id="a_node1"><a xlink:title=" ">
<polygon fill="#999999" stroke="#666666" points="1283.5,-360 1161.5,-360 1161.5,-330 1283.5,-330 1283.5,-360"/>
<text text-anchor="start" x="1169.5" y="-348" font-family="Helvetica,sans-Serif" font-size="10.00">/github/workspace/client</text>
<text text-anchor="middle" x="1222.5" y="-337" font-family="Helvetica,sans-Serif" font-size="10.00">/src/Bullets.cpp</text>
</a>
</g>
</g>
<!-- Node2 -->
<g id="node2" class="node">
<title>Node2</title>
<g id="a_node2"><a xlink:href="Bullets_8hpp.html" target="_top" xlink:title=" ">
<polygon fill="white" stroke="#666666" points="1283.5,-294 1161.5,-294 1161.5,-275 1283.5,-275 1283.5,-294"/>
<text text-anchor="middle" x="1222.5" y="-282" font-family="Helvetica,sans-Serif" font-size="10.00">Components/Bullets.hpp</text>
</a>
</g>
</g>
<!-- Node1&#45;&gt;Node2 -->
<g id="edge1" class="edge">
<title>Node1&#45;&gt;Node2</title>
<path fill="none" stroke="#63b8ff" d="M1222.5,-329.54C1222.5,-322.34 1222.5,-313.53 1222.5,-305.68"/>
<polygon fill="#63b8ff" stroke="#63b8ff" points="1226,-305.69 1222.5,-295.69 1219,-305.69 1226,-305.69"/>
</g>
<!-- Node3 -->
<g id="node3" class="node">
<title>Node3</title>
<g id="a_node3"><a xlink:href="Engine_8hpp.html" target="_top" xlink:title=" ">
<polygon fill="white" stroke="#666666" points="879.5,-239 783.5,-239 783.5,-220 879.5,-220 879.5,-239"/>
<text text-anchor="middle" x="831.5" y="-227" font-family="Helvetica,sans-Serif" font-size="10.00">Engine/Engine.hpp</text>
</a>
</g>
</g>
<!-- Node2&#45;&gt;Node3 -->
<g id="edge2" class="edge">
<title>Node2&#45;&gt;Node3</title>
<path fill="none" stroke="#63b8ff" d="M1161.15,-275.85C1087.33,-266.16 964.37,-249.51 891.26,-239.3"/>
<polygon fill="#63b8ff" stroke="#63b8ff" points="891.86,-235.85 881.47,-237.93 890.89,-242.78 891.86,-235.85"/>
</g>
<!-- Node21 -->
<g id="node21" class="node">
<title>Node21</title>
<g id="a_node21"><a xlink:href="IComponents_8hpp.html" target="_top" xlink:title=" ">
<polygon fill="white" stroke="#666666" points="1300.5,-129 1150.5,-129 1150.5,-110 1300.5,-110 1300.5,-129"/>
<text text-anchor="middle" x="1225.5" y="-117" font-family="Helvetica,sans-Serif" font-size="10.00">Components/IComponents.hpp</text>
</a>
</g>
</g>
<!-- Node2&#45;&gt;Node21 -->
<g id="edge40" class="edge">
<title>Node2&#45;&gt;Node21</title>
<path fill="none" stroke="#63b8ff" d="M1283.88,-283.49C1410.94,-281.47 1683.76,-265.67 1594.5,-165 1576.06,-144.2 1415.3,-131.24 1312.14,-124.99"/>
<polygon fill="#63b8ff" stroke="#63b8ff" points="1312.5,-121.51 1302.31,-124.41 1312.08,-128.49 1312.5,-121.51"/>
</g>
<!-- Node28 -->
<g id="node28" class="node">
<title>Node28</title>
<g id="a_node28"><a xlink:title=" ">
<polygon fill="#e0e0e0" stroke="#999999" points="1687.5,-239 1641.5,-239 1641.5,-220 1687.5,-220 1687.5,-239"/>
<text text-anchor="middle" x="1664.5" y="-227" font-family="Helvetica,sans-Serif" font-size="10.00">math.h</text>
</a>
</g>
</g>
<!-- Node2&#45;&gt;Node28 -->
<g id="edge41" class="edge">
<title>Node2&#45;&gt;Node28</title>
<path fill="none" stroke="#63b8ff" d="M1283.87,-278.99C1363.48,-272.64 1506.49,-259.48 1627.5,-239 1628.33,-238.86 1629.17,-238.71 1630.01,-238.56"/>
<polygon fill="#63b8ff" stroke="#63b8ff" points="1630.51,-242.03 1639.61,-236.61 1629.11,-235.17 1630.51,-242.03"/>
</g>
<!-- Node3&#45;&gt;Node2 -->
<g id="edge37" class="edge">
<title>Node3&#45;&gt;Node2</title>
<path fill="none" stroke="#63b8ff" d="M879.81,-236.44C947.61,-245.28 1071.29,-261.99 1150.1,-272.94"/>
<polygon fill="#63b8ff" stroke="#63b8ff" points="1149.5,-276.39 1159.89,-274.3 1150.47,-269.46 1149.5,-276.39"/>
</g>
<!-- Node4 -->
<g id="node4" class="node">
<title>Node4</title>
<g id="a_node4"><a xlink:title=" ">
<polygon fill="#e0e0e0" stroke="#999999" points="1343,-184 1254,-184 1254,-165 1343,-165 1343,-184"/>
<text text-anchor="middle" x="1298.5" y="-172" font-family="Helvetica,sans-Serif" font-size="10.00">SFML/Audio.hpp</text>
</a>
</g>
</g>
<!-- Node3&#45;&gt;Node4 -->
<g id="edge3" class="edge">
<title>Node3&#45;&gt;Node4</title>
<path fill="none" stroke="#63b8ff" d="M879.92,-223.76C956.4,-216.16 1109.78,-200.41 1239.5,-184 1240.51,-183.87 1241.53,-183.74 1242.56,-183.61"/>
<polygon fill="#63b8ff" stroke="#63b8ff" points="1242.8,-187.11 1252.24,-182.31 1241.87,-180.17 1242.8,-187.11"/>
</g>
<!-- Node5 -->
<g id="node5" class="node">
<title>Node5</title>
<g id="a_node5"><a xlink:title=" ">
<polygon fill="#e0e0e0" stroke="#999999" points="1465.5,-184 1361.5,-184 1361.5,-165 1465.5,-165 1465.5,-184"/>
<text text-anchor="middle" x="1413.5" y="-172" font-family="Helvetica,sans-Serif" font-size="10.00">SFML/Graphics.hpp</text>
</a>
</g>
</g>
<!-- Node3&#45;&gt;Node5 -->
<g id="edge4" class="edge">
<title>Node3&#45;&gt;Node5</title>
<path fill="none" stroke="#63b8ff" d="M879.71,-225.24C969.87,-218.97 1170.39,-204.13 1350.03,-184.22"/>
<polygon fill="#63b8ff" stroke="#63b8ff" points="1350.23,-187.72 1359.78,-183.13 1349.45,-180.76 1350.23,-187.72"/>
</g>
<!-- Node6 -->
<g id="node6" class="node">
<title>Node6</title>
<g id="a_node6"><a xlink:title=" ">
<polygon fill="#e0e0e0" stroke="#999999" points="1585,-184 1484,-184 1484,-165 1585,-165 1585,-184"/>
<text text-anchor="middle" x="1534.5" y="-172" font-family="Helvetica,sans-Serif" font-size="10.00">SFML/Network.hpp</text>
</a>
</g>
</g>
<!-- Node3&#45;&gt;Node6 -->
<g id="edge5" class="edge">
<title>Node3&#45;&gt;Node6</title>
<path fill="none" stroke="#63b8ff" d="M879.6,-226.35C984.95,-221.39 1244.23,-207.8 1472.6,-184.12"/>
<polygon fill="#63b8ff" stroke="#63b8ff" points="1472.71,-187.62 1482.29,-183.1 1471.98,-180.66 1472.71,-187.62"/>
</g>
<!-- Node7 -->
<g id="node7" class="node">
<title>Node7</title>
<g id="a_node7"><a xlink:title=" ">
<polygon fill="#e0e0e0" stroke="#999999" points="99,-184 0,-184 0,-165 99,-165 99,-184"/>
<text text-anchor="middle" x="49.5" y="-172" font-family="Helvetica,sans-Serif" font-size="10.00">SFML/Window.hpp</text>
</a>
</g>
</g>
<!-- Node3&#45;&gt;Node7 -->
<g id="edge6" class="edge">
<title>Node3&#45;&gt;Node7</title>
<path fill="none" stroke="#63b8ff" d="M783.16,-226.89C668.42,-222.77 370.43,-210.36 110.53,-184.11"/>
<polygon fill="#63b8ff" stroke="#63b8ff" points="111.17,-180.66 100.86,-183.13 110.46,-187.62 111.17,-180.66"/>
</g>
<!-- Node8 -->
<g id="node8" class="node">
<title>Node8</title>
<g id="a_node8"><a xlink:title=" ">
<polygon fill="#e0e0e0" stroke="#999999" points="215.5,-184 117.5,-184 117.5,-165 215.5,-165 215.5,-184"/>
<text text-anchor="middle" x="166.5" y="-172" font-family="Helvetica,sans-Serif" font-size="10.00">SFML/System.hpp</text>
</a>
</g>
</g>
<!-- Node3&#45;&gt;Node8 -->
<g id="edge7" class="edge">
<title>Node3&#45;&gt;Node8</title>
<path fill="none" stroke="#63b8ff" d="M783.03,-225.91C680.64,-220.23 434.84,-205.42 229.5,-184 228.68,-183.91 227.85,-183.83 227.01,-183.74"/>
<polygon fill="#63b8ff" stroke="#63b8ff" points="227.83,-180.31 217.49,-182.64 227.03,-187.26 227.83,-180.31"/>
</g>
<!-- Node9 -->
<g id="node9" class="node">
<title>Node9</title>
<g id="a_node9"><a xlink:title=" ">
<polygon fill="#e0e0e0" stroke="#999999" points="550.5,-19 496.5,-19 496.5,0 550.5,0 550.5,-19"/>
<text text-anchor="middle" x="523.5" y="-7" font-family="Helvetica,sans-Serif" font-size="10.00">iostream</text>
</a>
</g>
</g>
<!-- Node3&#45;&gt;Node9 -->
<g id="edge8" class="edge">
<title>Node3&#45;&gt;Node9</title>
<path fill="none" stroke="#63b8ff" d="M783.15,-228.39C652.1,-227.58 297.53,-221.87 262.5,-184 187.47,-102.87 395.76,-41.27 485.06,-19.27"/>
<polygon fill="#63b8ff" stroke="#63b8ff" points="485.71,-22.71 494.61,-16.96 484.07,-15.91 485.71,-22.71"/>
</g>
<!-- Node10 -->
<g id="node10" class="node">
<title>Node10</title>
<g id="a_node10"><a xlink:title=" ">
<polygon fill="#e0e0e0" stroke="#999999" points="321.5,-184 271.5,-184 271.5,-165 321.5,-165 321.5,-184"/>
<text text-anchor="middle" x="296.5" y="-172" font-family="Helvetica,sans-Serif" font-size="10.00">fstream</text>
</a>
</g>
</g>
<!-- Node3&#45;&gt;Node10 -->
<g id="edge9" class="edge">
<title>Node3&#45;&gt;Node10</title>
<path fill="none" stroke="#63b8ff" d="M783.17,-226.72C695.35,-222.94 503.65,-212.2 332.88,-184.13"/>
<polygon fill="#63b8ff" stroke="#63b8ff" points="333.59,-180.7 323.15,-182.5 332.44,-187.6 333.59,-180.7"/>
</g>
<!-- Node11 -->
<g id="node11" class="node">
<title>Node11</title>
<g id="a_node11"><a xlink:title=" ">
<polygon fill="#e0e0e0" stroke="#999999" points="381,-184 340,-184 340,-165 381,-165 381,-184"/>
<text text-anchor="middle" x="360.5" y="-172" font-family="Helvetica,sans-Serif" font-size="10.00">string</text>
</a>
</g>
</g>
<!-- Node3&#45;&gt;Node11 -->
<g id="edge10" class="edge">
<title>Node3&#45;&gt;Node11</title>
<path fill="none" stroke="#63b8ff" d="M783.14,-226.4C703.55,-222.34 539.91,-211.45 392.41,-184.01"/>
<polygon fill="#63b8ff" stroke="#63b8ff" points="393.33,-180.62 382.86,-182.2 392.03,-187.5 393.33,-180.62"/>
</g>
<!-- Node12 -->
<g id="node12" class="node">
<title>Node12</title>
<g id="a_node12"><a xlink:title=" ">
<polygon fill="#e0e0e0" stroke="#999999" points="449.5,-184 399.5,-184 399.5,-165 449.5,-165 449.5,-184"/>
<text text-anchor="middle" x="424.5" y="-172" font-family="Helvetica,sans-Serif" font-size="10.00">unistd.h</text>
</a>
</g>
</g>
<!-- Node3&#45;&gt;Node12 -->
<g id="edge11" class="edge">
<title>Node3&#45;&gt;Node12</title>
<path fill="none" stroke="#63b8ff" d="M783.22,-224.7C713.93,-218.82 582.13,-206.04 460.64,-184.17"/>
<polygon fill="#63b8ff" stroke="#63b8ff" points="461.63,-180.8 451.16,-182.44 460.37,-187.68 461.63,-180.8"/>
</g>
<!-- Node13 -->
<g id="node13" class="node">
<title>Node13</title>
<g id="a_node13"><a xlink:title=" ">
<polygon fill="#e0e0e0" stroke="#999999" points="533,-184 468,-184 468,-165 533,-165 533,-184"/>
<text text-anchor="middle" x="500.5" y="-172" font-family="Helvetica,sans-Serif" font-size="10.00">sys/types.h</text>
</a>
</g>
</g>
<!-- Node3&#45;&gt;Node13 -->
<g id="edge12" class="edge">
<title>Node3&#45;&gt;Node13</title>
<path fill="none" stroke="#63b8ff" d="M783.2,-221.29C726.65,-212.76 630.18,-197.95 547.5,-184 546.5,-183.83 545.48,-183.66 544.46,-183.48"/>
<polygon fill="#63b8ff" stroke="#63b8ff" points="545.3,-180.08 534.84,-181.8 544.09,-186.97 545.3,-180.08"/>
</g>
<!-- Node14 -->
<g id="node14" class="node">
<title>Node14</title>
<g id="a_node14"><a xlink:title=" ">
<polygon fill="#e0e0e0" stroke="#999999" points="691.5,-19 647.5,-19 647.5,0 691.5,0 691.5,-19"/>
<text text-anchor="middle" x="669.5" y="-7" font-family="Helvetica,sans-Serif" font-size="10.00">vector</text>
</a>
</g>
</g>
<!-- Node3&#45;&gt;Node14 -->
<g id="edge13" class="edge">
<title>Node3&#45;&gt;Node14</title>
<path fill="none" stroke="#63b8ff" d="M783.12,-227.04C717.58,-223.93 605.84,-214.23 580.5,-184 538,-133.3 612.26,-58.89 649.78,-26.52"/>
<polygon fill="#63b8ff" stroke="#63b8ff" points="651.88,-29.33 657.27,-20.21 647.37,-23.98 651.88,-29.33"/>
</g>
<!-- Node15 -->
<g id="node15" class="node">
<title>Node15</title>
<g id="a_node15"><a xlink:title=" ">
<polygon fill="#e0e0e0" stroke="#999999" points="647.5,-184 589.5,-184 589.5,-165 647.5,-165 647.5,-184"/>
<text text-anchor="middle" x="618.5" y="-172" font-family="Helvetica,sans-Serif" font-size="10.00">exception</text>
</a>
</g>
</g>
<!-- Node3&#45;&gt;Node15 -->
<g id="edge14" class="edge">
<title>Node3&#45;&gt;Node15</title>
<path fill="none" stroke="#63b8ff" d="M795.37,-219.51C757.56,-210.1 698.33,-195.36 658.97,-185.57"/>
<polygon fill="#63b8ff" stroke="#63b8ff" points="659.96,-182.21 649.41,-183.19 658.27,-189 659.96,-182.21"/>
</g>
<!-- Node16 -->
<g id="node16" class="node">
<title>Node16</title>
<g id="a_node16"><a xlink:href="Window_8hpp.html" target="_top" xlink:title=" ">
<polygon fill="white" stroke="#666666" points="767,-184 666,-184 666,-165 767,-165 767,-184"/>
<text text-anchor="middle" x="716.5" y="-172" font-family="Helvetica,sans-Serif" font-size="10.00">Engine/Window.hpp</text>
</a>
</g>
</g>
<!-- Node3&#45;&gt;Node16 -->
<g id="edge15" class="edge">
<title>Node3&#45;&gt;Node16</title>
<path fill="none" stroke="#63b8ff" d="M806.77,-219.51C787.18,-211.27 760.19,-198.96 740.73,-189.45"/>
<polygon fill="#63b8ff" stroke="#63b8ff" points="742.4,-186.36 731.89,-185.03 739.27,-192.63 742.4,-186.36"/>
</g>
<!-- Node17 -->
<g id="node17" class="node">
<title>Node17</title>
<g id="a_node17"><a xlink:href="Event_8hpp.html" target="_top" xlink:title=" ">
<polygon fill="white" stroke="#666666" points="877.5,-184 785.5,-184 785.5,-165 877.5,-165 877.5,-184"/>
<text text-anchor="middle" x="831.5" y="-172" font-family="Helvetica,sans-Serif" font-size="10.00">Engine/Event.hpp</text>
</a>
</g>
</g>
<!-- Node3&#45;&gt;Node17 -->
<g id="edge17" class="edge">
<title>Node3&#45;&gt;Node17</title>
<path fill="none" stroke="#63b8ff" d="M826.33,-219.75C824.92,-213.19 824.46,-203.95 824.93,-195.6"/>
<polygon fill="#63b8ff" stroke="#63b8ff" points="828.37,-196.3 826.11,-185.94 821.42,-195.45 828.37,-196.3"/>
</g>
<!-- Node20 -->
<g id="node20" class="node">
<title>Node20</title>
<g id="a_node20"><a xlink:href="EntitiesManager_8hpp.html" target="_top" xlink:title=" ">
<polygon fill="white" stroke="#666666" points="1035.5,-184 895.5,-184 895.5,-165 1035.5,-165 1035.5,-184"/>
<text text-anchor="middle" x="965.5" y="-172" font-family="Helvetica,sans-Serif" font-size="10.00">Entities/EntitiesManager.hpp</text>
</a>
</g>
</g>
<!-- Node3&#45;&gt;Node20 -->
<g id="edge21" class="edge">
<title>Node3&#45;&gt;Node20</title>
<path fill="none" stroke="#63b8ff" d="M849.01,-219.51C868.91,-210.93 901.59,-197.92 927.35,-188.27"/>
<polygon fill="#63b8ff" stroke="#63b8ff" points="928.33,-191.64 936.5,-184.88 925.9,-185.07 928.33,-191.64"/>
</g>
<!-- Node27 -->
<g id="node27" class="node">
<title>Node27</title>
<g id="a_node27"><a xlink:href="Background_8hpp.html" target="_top" xlink:title=" ">
<polygon fill="white" stroke="#666666" points="1197.5,-184 1053.5,-184 1053.5,-165 1197.5,-165 1197.5,-184"/>
<text text-anchor="middle" x="1125.5" y="-172" font-family="Helvetica,sans-Serif" font-size="10.00">Components/Background.hpp</text>
</a>
</g>
</g>
<!-- Node3&#45;&gt;Node27 -->
<g id="edge38" class="edge">
<title>Node3&#45;&gt;Node27</title>
<path fill="none" stroke="#63b8ff" d="M876.16,-219.51C924.9,-210.38 1003.28,-196.23 1059.19,-186.45"/>
<polygon fill="#63b8ff" stroke="#63b8ff" points="1059.67,-189.92 1068.92,-184.75 1058.47,-183.02 1059.67,-189.92"/>
</g>
<!-- Node16&#45;&gt;Node3 -->
<g id="edge16" class="edge">
<title>Node16&#45;&gt;Node3</title>
<path fill="none" stroke="#63b8ff" d="M740.91,-184.36C760.42,-192.55 787.42,-204.86 806.95,-214.4"/>
<polygon fill="#63b8ff" stroke="#63b8ff" points="805.34,-217.51 815.85,-218.83 808.46,-211.24 805.34,-217.51"/>
</g>
<!-- Node17&#45;&gt;Node3 -->
<g id="edge18" class="edge">
<title>Node17&#45;&gt;Node3</title>
<path fill="none" stroke="#63b8ff" d="M836.71,-184.44C838.08,-190.97 838.54,-200.1 838.07,-208.35"/>
<polygon fill="#63b8ff" stroke="#63b8ff" points="834.6,-207.89 836.85,-218.25 841.55,-208.75 834.6,-207.89"/>
</g>
<!-- Node18 -->
<g id="node18" class="node">
<title>Node18</title>
<g id="a_node18"><a xlink:title=" ">
<polygon fill="#e0e0e0" stroke="#999999" points="721,-129 692,-129 692,-110 721,-110 721,-129"/>
<text text-anchor="middle" x="706.5" y="-117" font-family="Helvetica,sans-Serif" font-size="10.00">list</text>
</a>
</g>
</g>
<!-- Node17&#45;&gt;Node18 -->
<g id="edge19" class="edge">
<title>Node17&#45;&gt;Node18</title>
<path fill="none" stroke="#63b8ff" d="M810.3,-164.51C788.51,-155.27 754.6,-140.89 731.51,-131.11"/>
<polygon fill="#63b8ff" stroke="#63b8ff" points="733.12,-127.98 722.54,-127.3 730.38,-134.43 733.12,-127.98"/>
</g>
<!-- Node19 -->
<g id="node19" class="node">
<title>Node19</title>
<g id="a_node19"><a xlink:title=" ">
<polygon fill="#e0e0e0" stroke="#999999" points="782,-129 739,-129 739,-110 782,-110 782,-129"/>
<text text-anchor="middle" x="760.5" y="-117" font-family="Helvetica,sans-Serif" font-size="10.00">queue</text>
</a>
</g>
</g>
<!-- Node17&#45;&gt;Node19 -->
<g id="edge20" class="edge">
<title>Node17&#45;&gt;Node19</title>
<path fill="none" stroke="#63b8ff" d="M819.46,-164.51C809.09,-156.77 793.9,-145.43 781.53,-136.2"/>
<polygon fill="#63b8ff" stroke="#63b8ff" points="783.69,-133.44 773.58,-130.26 779.5,-139.05 783.69,-133.44"/>
</g>
<!-- Node20&#45;&gt;Node3 -->
<g id="edge22" class="edge">
<title>Node20&#45;&gt;Node3</title>
<path fill="none" stroke="#63b8ff" d="M948.29,-184.36C928.53,-192.89 895.88,-205.9 870.05,-215.58"/>
<polygon fill="#63b8ff" stroke="#63b8ff" points="869.03,-212.23 860.87,-218.98 871.46,-218.79 869.03,-212.23"/>
</g>
<!-- Node20&#45;&gt;Node21 -->
<g id="edge23" class="edge">
<title>Node20&#45;&gt;Node21</title>
<path fill="none" stroke="#63b8ff" d="M1009.61,-164.51C1054,-155.46 1122.59,-141.48 1170.51,-131.71"/>
<polygon fill="#63b8ff" stroke="#63b8ff" points="1171.03,-135.18 1180.13,-129.75 1169.63,-128.32 1171.03,-135.18"/>
</g>
<!-- Node22 -->
<g id="node22" class="node">
<title>Node22</title>
<g id="a_node22"><a xlink:href="SparseArray_8hpp.html" target="_top" xlink:title=" ">
<polygon fill="white" stroke="#666666" points="911,-129 800,-129 800,-110 911,-110 911,-129"/>
<text text-anchor="middle" x="855.5" y="-117" font-family="Helvetica,sans-Serif" font-size="10.00">Utils/SparseArray.hpp</text>
</a>
</g>
</g>
<!-- Node20&#45;&gt;Node22 -->
<g id="edge25" class="edge">
<title>Node20&#45;&gt;Node22</title>
<path fill="none" stroke="#63b8ff" d="M946.84,-164.51C929.67,-156.24 903.95,-143.84 884.17,-134.31"/>
<polygon fill="#63b8ff" stroke="#63b8ff" points="885.78,-131.2 875.25,-130.01 882.74,-137.51 885.78,-131.2"/>
</g>
<!-- Node21&#45;&gt;Node3 -->
<g id="edge24" class="edge">
<title>Node21&#45;&gt;Node3</title>
<path fill="none" stroke="#63b8ff" d="M1225.69,-129.06C1225.49,-142.95 1222.88,-170.23 1206.5,-184 1160.01,-223.08 984.4,-228.9 890.91,-229.14"/>
<polygon fill="#63b8ff" stroke="#63b8ff" points="891.17,-225.64 881.17,-229.14 891.17,-232.64 891.17,-225.64"/>
</g>
<!-- Node22&#45;&gt;Node9 -->
<g id="edge26" class="edge">
<title>Node22&#45;&gt;Node9</title>
<path fill="none" stroke="#63b8ff" d="M819.98,-109.52C787.39,-101.07 737.89,-87.69 695.5,-74 646.44,-58.15 590.61,-36.94 556.21,-23.49"/>
<polygon fill="#63b8ff" stroke="#63b8ff" points="557.83,-20.37 547.24,-19.97 555.27,-26.88 557.83,-20.37"/>
</g>
<!-- Node22&#45;&gt;Node14 -->
<g id="edge29" class="edge">
<title>Node22&#45;&gt;Node14</title>
<path fill="none" stroke="#63b8ff" d="M804.34,-109.53C777.05,-102.95 743.95,-91.93 718.5,-74 701.81,-62.24 688.16,-43.12 679.55,-28.93"/>
<polygon fill="#63b8ff" stroke="#63b8ff" points="682.75,-27.48 674.73,-20.55 676.68,-30.97 682.75,-27.48"/>
</g>
<!-- Node23 -->
<g id="node23" class="node">
<title>Node23</title>
<g id="a_node23"><a xlink:title=" ">
<polygon fill="#e0e0e0" stroke="#999999" points="782.5,-19 726.5,-19 726.5,0 782.5,0 782.5,-19"/>
<text text-anchor="middle" x="754.5" y="-7" font-family="Helvetica,sans-Serif" font-size="10.00">algorithm</text>
</a>
</g>
</g>
<!-- Node22&#45;&gt;Node23 -->
<g id="edge27" class="edge">
<title>Node22&#45;&gt;Node23</title>
<path fill="none" stroke="#63b8ff" d="M813.44,-109.53C779.9,-101.43 736.88,-88.56 726.5,-74 716.27,-59.65 726.87,-40.97 737.83,-27.59"/>
<polygon fill="#63b8ff" stroke="#63b8ff" points="740.18,-30.22 744.23,-20.43 734.96,-25.56 740.18,-30.22"/>
</g>
<!-- Node24 -->
<g id="node24" class="node">
<title>Node24</title>
<g id="a_node24"><a xlink:title=" ">
<polygon fill="#e0e0e0" stroke="#999999" points="846.5,-19 808.5,-19 808.5,0 846.5,0 846.5,-19"/>
<text text-anchor="middle" x="827.5" y="-7" font-family="Helvetica,sans-Serif" font-size="10.00">array</text>
</a>
</g>
</g>
<!-- Node22&#45;&gt;Node24 -->
<g id="edge28" class="edge">
<title>Node22&#45;&gt;Node24</title>
<path fill="none" stroke="#63b8ff" d="M853.21,-109.66C848.76,-92.5 838.84,-54.26 832.71,-30.6"/>
<polygon fill="#63b8ff" stroke="#63b8ff" points="836.1,-29.73 830.2,-20.93 829.32,-31.48 836.1,-29.73"/>
</g>
<!-- Node25 -->
<g id="node25" class="node">
<title>Node25</title>
<g id="a_node25"><a xlink:title=" ">
<polygon fill="#e0e0e0" stroke="#999999" points="908,-19 869,-19 869,0 908,0 908,-19"/>
<text text-anchor="middle" x="888.5" y="-7" font-family="Helvetica,sans-Serif" font-size="10.00">utility</text>
</a>
</g>
</g>
<!-- Node22&#45;&gt;Node25 -->
<g id="edge30" class="edge">
<title>Node22&#45;&gt;Node25</title>
<path fill="none" stroke="#63b8ff" d="M858.2,-109.66C863.47,-92.42 875.24,-53.9 882.46,-30.27"/>
<polygon fill="#63b8ff" stroke="#63b8ff" points="885.74,-31.49 885.32,-20.91 879.05,-29.45 885.74,-31.49"/>
</g>
<!-- Node26 -->
<g id="node26" class="node">
<title>Node26</title>
<g id="a_node26"><a xlink:href="Vectors_8hpp.html" target="_top" xlink:title=" ">
<polygon fill="white" stroke="#666666" points="827.5,-74 735.5,-74 735.5,-55 827.5,-55 827.5,-74"/>
<text text-anchor="middle" x="781.5" y="-62" font-family="Helvetica,sans-Serif" font-size="10.00">Utils/Vectors.hpp</text>
</a>
</g>
</g>
<!-- Node22&#45;&gt;Node26 -->
<g id="edge31" class="edge">
<title>Node22&#45;&gt;Node26</title>
<path fill="none" stroke="#63b8ff" d="M842.95,-109.51C832.04,-101.7 816,-90.21 803.04,-80.93"/>
<polygon fill="#63b8ff" stroke="#63b8ff" points="805.27,-78.22 795.1,-75.24 801.19,-83.91 805.27,-78.22"/>
</g>
<!-- Node26&#45;&gt;Node9 -->
<g id="edge32" class="edge">
<title>Node26&#45;&gt;Node9</title>
<path fill="none" stroke="#63b8ff" d="M737.73,-54.51C688.43,-44.38 609.06,-28.08 562.02,-18.41"/>
<polygon fill="#63b8ff" stroke="#63b8ff" points="562.78,-15 552.28,-16.41 561.37,-21.85 562.78,-15"/>
</g>
<!-- Node26&#45;&gt;Node14 -->
<g id="edge35" class="edge">
<title>Node26&#45;&gt;Node14</title>
<path fill="none" stroke="#63b8ff" d="M762.5,-54.51C744.94,-46.2 718.58,-33.73 698.41,-24.18"/>
<polygon fill="#63b8ff" stroke="#63b8ff" points="700.12,-21.12 689.59,-20.01 697.13,-27.45 700.12,-21.12"/>
</g>
<!-- Node26&#45;&gt;Node23 -->
<g id="edge33" class="edge">
<title>Node26&#45;&gt;Node23</title>
<path fill="none" stroke="#63b8ff" d="M777.04,-54.75C773.55,-47.88 768.55,-38.08 764.15,-29.45"/>
<polygon fill="#63b8ff" stroke="#63b8ff" points="767.4,-28.11 759.74,-20.79 761.16,-31.29 767.4,-28.11"/>
</g>
<!-- Node26&#45;&gt;Node24 -->
<g id="edge34" class="edge">
<title>Node26&#45;&gt;Node24</title>
<path fill="none" stroke="#63b8ff" d="M789.1,-54.75C795.38,-47.5 804.51,-36.98 812.3,-28.02"/>
<polygon fill="#63b8ff" stroke="#63b8ff" points="814.84,-30.43 818.75,-20.59 809.55,-25.84 814.84,-30.43"/>
</g>
<!-- Node26&#45;&gt;Node25 -->
<g id="edge36" class="edge">
<title>Node26&#45;&gt;Node25</title>
<path fill="none" stroke="#63b8ff" d="M799.65,-54.51C816.28,-46.27 841.14,-33.96 860.35,-24.45"/>
<polygon fill="#63b8ff" stroke="#63b8ff" points="861.85,-27.6 869.26,-20.03 858.75,-21.33 861.85,-27.6"/>
</g>
<!-- Node27&#45;&gt;Node3 -->
<g id="edge39" class="edge">
<title>Node27&#45;&gt;Node3</title>
<path fill="none" stroke="#63b8ff" d="M1081.24,-184.42C1030.55,-193.92 947.42,-208.91 891.08,-218.73"/>
<polygon fill="#63b8ff" stroke="#63b8ff" points="890.58,-215.26 881.33,-220.42 891.78,-222.16 890.58,-215.26"/>
</g>
</g>
</svg>
