<?xml version="1.0" encoding="UTF-8" standalone="no"?>
<!DOCTYPE svg PUBLIC "-//W3C//DTD SVG 1.1//EN"
 "http://www.w3.org/Graphics/SVG/1.1/DTD/svg11.dtd">
<!-- Generated by graphviz version 7.0.5 (20221223.1930)
 -->
<!-- Title: /github/workspace/client/include/Components/Bullets.hpp Pages: 1 -->
<!--zoomable 203 -->
<svg id="main" version="1.1" xmlns="http://www.w3.org/2000/svg" xmlns:xlink="http://www.w3.org/1999/xlink" xml:space="preserve" onload="init(evt)">
<style type="text/css"><![CDATA[
.edge:hover path { stroke: red; }
.edge:hover polygon { stroke: red; fill: red; }
]]></style>
<script type="text/javascript"><![CDATA[
var edges = document.getElementsByTagName('g');
if (edges && edges.length) {
  for (var i=0;i<edges.length;i++) {
    if (edges[i].id.substr(0,4)=='edge') {
      edges[i].setAttribute('class','edge');
    }
  }
}
]]></script>
        <defs>
                <circle id="rim" cx="0" cy="0" r="7"/>
                <circle id="rim2" cx="0" cy="0" r="3.5"/>
                <g id="zoomPlus">
                        <use xlink:href="#rim" fill="#404040">
                                <set attributeName="fill" to="#808080" begin="zoomplus.mouseover" end="zoomplus.mouseout"/>
                        </use>
                        <path d="M-4,0h8M0,-4v8" fill="none" stroke="white" stroke-width="1.5" pointer-events="none"/>
                </g>
                <g id="zoomMin">
                        <use xlink:href="#rim" fill="#404040">
                                <set attributeName="fill" to="#808080" begin="zoomminus.mouseover" end="zoomminus.mouseout"/>
                        </use>
                        <path d="M-4,0h8" fill="none" stroke="white" stroke-width="1.5" pointer-events="none"/>
                </g>
                <g id="dirArrow">
                        <path fill="none" stroke="white" stroke-width="1.5" d="M0,-3.0v7 M-2.5,-0.5L0,-3.0L2.5,-0.5"/>
                </g>
               <g id="resetDef">
                       <use xlink:href="#rim2" fill="#404040">
                               <set attributeName="fill" to="#808080" begin="reset.mouseover" end="reset.mouseout"/>
                       </use>
               </g>
        </defs>

<script type="text/javascript">
var viewWidth = 1846;
var viewHeight = 203;
var sectionId = 'dynsection-0';
</script>
<script xlink:href="svgpan.js"/>
<svg id="graph" class="graph">
<g id="viewport">
<title>/github/workspace/client/include/Components/Bullets.hpp</title>
<!-- Node1 -->
<g id="node1" class="node">
<title>Node1</title>
<g id="a_node1"><a xlink:title=" ">
<polygon fill="#999999" stroke="#666666" points="1121,-195 962,-195 962,-165 1121,-165 1121,-195"/>
<text text-anchor="start" x="970" y="-183" font-family="Helvetica,sans-Serif" font-size="10.00">/github/workspace/client</text>
<text text-anchor="middle" x="1041.5" y="-172" font-family="Helvetica,sans-Serif" font-size="10.00">/include/Components/Bullets.hpp</text>
</a>
</g>
</g>
<!-- Node2 -->
<g id="node2" class="node">
<title>Node2</title>
<g id="a_node2"><a xlink:href="Engine_8hpp.html" target="_top" xlink:title=" ">
<polygon fill="white" stroke="#666666" points="1089.5,-129 993.5,-129 993.5,-110 1089.5,-110 1089.5,-129"/>
<text text-anchor="middle" x="1041.5" y="-117" font-family="Helvetica,sans-Serif" font-size="10.00">Engine/Engine.hpp</text>
</a>
</g>
</g>
<!-- Node1&#45;&gt;Node2 -->
<g id="edge1" class="edge">
<title>Node1&#45;&gt;Node2</title>
<path fill="none" stroke="#63b8ff" d="M1035.58,-164.54C1034.69,-157.26 1034.51,-148.31 1035.07,-140.39"/>
<polygon fill="#63b8ff" stroke="#63b8ff" points="1038.51,-141.05 1036.34,-130.68 1031.57,-140.14 1038.51,-141.05"/>
</g>
<!-- Node26 -->
<g id="node26" class="node">
<title>Node26</title>
<g id="a_node26"><a xlink:title=" ">
<polygon fill="#e0e0e0" stroke="#999999" points="1153.5,-129 1107.5,-129 1107.5,-110 1153.5,-110 1153.5,-129"/>
<text text-anchor="middle" x="1130.5" y="-117" font-family="Helvetica,sans-Serif" font-size="10.00">math.h</text>
</a>
</g>
</g>
<!-- Node1&#45;&gt;Node26 -->
<g id="edge33" class="edge">
<title>Node1&#45;&gt;Node26</title>
<path fill="none" stroke="#63b8ff" d="M1063.5,-164.54C1076.87,-155.75 1093.92,-144.54 1107.48,-135.63"/>
<polygon fill="#63b8ff" stroke="#63b8ff" points="1109.34,-138.6 1115.78,-130.18 1105.5,-132.75 1109.34,-138.6"/>
</g>
<!-- Node2&#45;&gt;Node1 -->
<g id="edge32" class="edge">
<title>Node2&#45;&gt;Node1</title>
<path fill="none" stroke="#63b8ff" d="M1046.46,-129.18C1047.84,-135.58 1048.42,-144.65 1048.21,-153.3"/>
<polygon fill="#63b8ff" stroke="#63b8ff" points="1044.73,-152.81 1047.52,-163.03 1051.71,-153.3 1044.73,-152.81"/>
</g>
<!-- Node3 -->
<g id="node3" class="node">
<title>Node3</title>
<g id="a_node3"><a xlink:title=" ">
<polygon fill="#e0e0e0" stroke="#999999" points="89,-74 0,-74 0,-55 89,-55 89,-74"/>
<text text-anchor="middle" x="44.5" y="-62" font-family="Helvetica,sans-Serif" font-size="10.00">SFML/Audio.hpp</text>
</a>
</g>
</g>
<!-- Node2&#45;&gt;Node3 -->
<g id="edge2" class="edge">
<title>Node2&#45;&gt;Node3</title>
<path fill="none" stroke="#63b8ff" d="M993.28,-118.08C855.63,-116.48 448.96,-109 100.57,-74.07"/>
<polygon fill="#63b8ff" stroke="#63b8ff" points="101.05,-70.61 90.75,-73.08 100.34,-77.57 101.05,-70.61"/>
</g>
<!-- Node4 -->
<g id="node4" class="node">
<title>Node4</title>
<g id="a_node4"><a xlink:title=" ">
<polygon fill="#e0e0e0" stroke="#999999" points="211.5,-74 107.5,-74 107.5,-55 211.5,-55 211.5,-74"/>
<text text-anchor="middle" x="159.5" y="-62" font-family="Helvetica,sans-Serif" font-size="10.00">SFML/Graphics.hpp</text>
</a>
</g>
</g>
<!-- Node2&#45;&gt;Node4 -->
<g id="edge3" class="edge">
<title>Node2&#45;&gt;Node4</title>
<path fill="none" stroke="#63b8ff" d="M993.27,-117.31C868,-113.9 521.78,-102.56 222.77,-74.13"/>
<polygon fill="#63b8ff" stroke="#63b8ff" points="223.5,-70.69 213.22,-73.21 222.84,-77.65 223.5,-70.69"/>
</g>
<!-- Node5 -->
<g id="node5" class="node">
<title>Node5</title>
<g id="a_node5"><a xlink:title=" ">
<polygon fill="#e0e0e0" stroke="#999999" points="331,-74 230,-74 230,-55 331,-55 331,-74"/>
<text text-anchor="middle" x="280.5" y="-62" font-family="Helvetica,sans-Serif" font-size="10.00">SFML/Network.hpp</text>
</a>
</g>
</g>
<!-- Node2&#45;&gt;Node5 -->
<g id="edge4" class="edge">
<title>Node2&#45;&gt;Node5</title>
<path fill="none" stroke="#63b8ff" d="M993.3,-116.77C881.03,-112.46 593.16,-99.76 342.47,-74.23"/>
<polygon fill="#63b8ff" stroke="#63b8ff" points="343.13,-70.78 332.82,-73.24 342.41,-77.74 343.13,-70.78"/>
</g>
<!-- Node6 -->
<g id="node6" class="node">
<title>Node6</title>
<g id="a_node6"><a xlink:title=" ">
<polygon fill="#e0e0e0" stroke="#999999" points="448,-74 349,-74 349,-55 448,-55 448,-74"/>
<text text-anchor="middle" x="398.5" y="-62" font-family="Helvetica,sans-Serif" font-size="10.00">SFML/Window.hpp</text>
</a>
</g>
</g>
<!-- Node2&#45;&gt;Node6 -->
<g id="edge5" class="edge">
<title>Node2&#45;&gt;Node6</title>
<path fill="none" stroke="#63b8ff" d="M993.33,-115.93C895.1,-110.44 664.39,-96.34 459.64,-74.16"/>
<polygon fill="#63b8ff" stroke="#63b8ff" points="460.19,-70.7 449.87,-73.09 459.43,-77.65 460.19,-70.7"/>
</g>
<!-- Node7 -->
<g id="node7" class="node">
<title>Node7</title>
<g id="a_node7"><a xlink:title=" ">
<polygon fill="#e0e0e0" stroke="#999999" points="564.5,-74 466.5,-74 466.5,-55 564.5,-55 564.5,-74"/>
<text text-anchor="middle" x="515.5" y="-62" font-family="Helvetica,sans-Serif" font-size="10.00">SFML/System.hpp</text>
</a>
</g>
</g>
<!-- Node2&#45;&gt;Node7 -->
<g id="edge6" class="edge">
<title>Node2&#45;&gt;Node7</title>
<path fill="none" stroke="#63b8ff" d="M993.24,-114.72C910.26,-108.05 734.91,-93.18 576.23,-74.27"/>
<polygon fill="#63b8ff" stroke="#63b8ff" points="576.69,-70.8 566.34,-73.08 575.85,-77.75 576.69,-70.8"/>
</g>
<!-- Node8 -->
<g id="node8" class="node">
<title>Node8</title>
<g id="a_node8"><a xlink:title=" ">
<polygon fill="#e0e0e0" stroke="#999999" points="636.5,-74 582.5,-74 582.5,-55 636.5,-55 636.5,-74"/>
<text text-anchor="middle" x="609.5" y="-62" font-family="Helvetica,sans-Serif" font-size="10.00">iostream</text>
</a>
</g>
</g>
<!-- Node2&#45;&gt;Node8 -->
<g id="edge7" class="edge">
<title>Node2&#45;&gt;Node8</title>
<path fill="none" stroke="#63b8ff" d="M993.08,-114.94C920.31,-109.18 778.24,-96.35 648.28,-74.29"/>
<polygon fill="#63b8ff" stroke="#63b8ff" points="648.89,-70.84 638.44,-72.6 647.7,-77.74 648.89,-70.84"/>
</g>
<!-- Node9 -->
<g id="node9" class="node">
<title>Node9</title>
<g id="a_node9"><a xlink:title=" ">
<polygon fill="#e0e0e0" stroke="#999999" points="704.5,-74 654.5,-74 654.5,-55 704.5,-55 704.5,-74"/>
<text text-anchor="middle" x="679.5" y="-62" font-family="Helvetica,sans-Serif" font-size="10.00">fstream</text>
</a>
</g>
</g>
<!-- Node2&#45;&gt;Node9 -->
<g id="edge8" class="edge">
<title>Node2&#45;&gt;Node9</title>
<path fill="none" stroke="#63b8ff" d="M993.15,-113.63C931.13,-107 820.04,-93.89 715.73,-74.24"/>
<polygon fill="#63b8ff" stroke="#63b8ff" points="716.65,-70.85 706.17,-72.41 715.33,-77.72 716.65,-70.85"/>
</g>
<!-- Node10 -->
<g id="node10" class="node">
<title>Node10</title>
<g id="a_node10"><a xlink:title=" ">
<polygon fill="#e0e0e0" stroke="#999999" points="770.5,-74 722.5,-74 722.5,-55 770.5,-55 770.5,-74"/>
<text text-anchor="middle" x="746.5" y="-62" font-family="Helvetica,sans-Serif" font-size="10.00">string.h</text>
</a>
</g>
</g>
<!-- Node2&#45;&gt;Node10 -->
<g id="edge9" class="edge">
<title>Node2&#45;&gt;Node10</title>
<path fill="none" stroke="#63b8ff" d="M993.46,-111.58C943.11,-104.05 861.47,-91.07 782.13,-74.42"/>
<polygon fill="#63b8ff" stroke="#63b8ff" points="782.94,-71.01 772.43,-72.36 781.49,-77.86 782.94,-71.01"/>
</g>
<!-- Node11 -->
<g id="node11" class="node">
<title>Node11</title>
<g id="a_node11"><a xlink:title=" ">
<polygon fill="#e0e0e0" stroke="#999999" points="838.5,-74 788.5,-74 788.5,-55 838.5,-55 838.5,-74"/>
<text text-anchor="middle" x="813.5" y="-62" font-family="Helvetica,sans-Serif" font-size="10.00">unistd.h</text>
</a>
</g>
</g>
<!-- Node2&#45;&gt;Node11 -->
<g id="edge10" class="edge">
<title>Node2&#45;&gt;Node11</title>
<path fill="none" stroke="#63b8ff" d="M1001.32,-109.52C964.35,-101.21 907.72,-88.34 849.6,-74.47"/>
<polygon fill="#63b8ff" stroke="#63b8ff" points="850.75,-71.15 840.21,-72.22 849.12,-77.95 850.75,-71.15"/>
</g>
<!-- Node12 -->
<g id="node12" class="node">
<title>Node12</title>
<g id="a_node12"><a xlink:title=" ">
<polygon fill="#e0e0e0" stroke="#999999" points="922,-74 857,-74 857,-55 922,-55 922,-74"/>
<text text-anchor="middle" x="889.5" y="-62" font-family="Helvetica,sans-Serif" font-size="10.00">sys/types.h</text>
</a>
</g>
</g>
<!-- Node2&#45;&gt;Node12 -->
<g id="edge11" class="edge">
<title>Node2&#45;&gt;Node12</title>
<path fill="none" stroke="#63b8ff" d="M1015.72,-109.51C991.07,-100.92 953.69,-87.88 925.99,-78.22"/>
<polygon fill="#63b8ff" stroke="#63b8ff" points="927.18,-74.93 916.59,-74.94 924.88,-81.54 927.18,-74.93"/>
</g>
<!-- Node13 -->
<g id="node13" class="node">
<title>Node13</title>
<g id="a_node13"><a xlink:title=" ">
<polygon fill="#e0e0e0" stroke="#999999" points="1100.5,-19 1056.5,-19 1056.5,0 1100.5,0 1100.5,-19"/>
<text text-anchor="middle" x="1078.5" y="-7" font-family="Helvetica,sans-Serif" font-size="10.00">vector</text>
</a>
</g>
</g>
<!-- Node2&#45;&gt;Node13 -->
<g id="edge12" class="edge">
<title>Node2&#45;&gt;Node13</title>
<path fill="none" stroke="#63b8ff" d="M1016.76,-109.58C990.2,-98.56 953.79,-78.38 969.5,-55 986.3,-29.99 1019.9,-19.03 1045.38,-14.23"/>
<polygon fill="#63b8ff" stroke="#63b8ff" points="1045.62,-17.73 1054.93,-12.67 1044.5,-10.82 1045.62,-17.73"/>
</g>
<!-- Node14 -->
<g id="node14" class="node">
<title>Node14</title>
<g id="a_node14"><a xlink:title=" ">
<polygon fill="#e0e0e0" stroke="#999999" points="1034.5,-74 978.5,-74 978.5,-55 1034.5,-55 1034.5,-74"/>
<text text-anchor="middle" x="1006.5" y="-62" font-family="Helvetica,sans-Serif" font-size="10.00">stdbool.h</text>
</a>
</g>
</g>
<!-- Node2&#45;&gt;Node14 -->
<g id="edge13" class="edge">
<title>Node2&#45;&gt;Node14</title>
<path fill="none" stroke="#63b8ff" d="M1035.72,-109.75C1031.09,-102.73 1024.43,-92.64 1018.63,-83.87"/>
<polygon fill="#63b8ff" stroke="#63b8ff" points="1021.67,-82.12 1013.24,-75.71 1015.83,-85.98 1021.67,-82.12"/>
</g>
<!-- Node15 -->
<g id="node15" class="node">
<title>Node15</title>
<g id="a_node15"><a xlink:title=" ">
<polygon fill="#e0e0e0" stroke="#999999" points="1100,-74 1053,-74 1053,-55 1100,-55 1100,-74"/>
<text text-anchor="middle" x="1076.5" y="-62" font-family="Helvetica,sans-Serif" font-size="10.00">stdlib.h</text>
</a>
</g>
</g>
<!-- Node2&#45;&gt;Node15 -->
<g id="edge14" class="edge">
<title>Node2&#45;&gt;Node15</title>
<path fill="none" stroke="#63b8ff" d="M1047.28,-109.75C1051.91,-102.73 1058.57,-92.64 1064.37,-83.87"/>
<polygon fill="#63b8ff" stroke="#63b8ff" points="1067.17,-85.98 1069.76,-75.71 1061.33,-82.12 1067.17,-85.98"/>
</g>
<!-- Node16 -->
<g id="node16" class="node">
<title>Node16</title>
<g id="a_node16"><a xlink:title=" ">
<polygon fill="#e0e0e0" stroke="#999999" points="1176.5,-74 1118.5,-74 1118.5,-55 1176.5,-55 1176.5,-74"/>
<text text-anchor="middle" x="1147.5" y="-62" font-family="Helvetica,sans-Serif" font-size="10.00">exception</text>
</a>
</g>
</g>
<!-- Node2&#45;&gt;Node16 -->
<g id="edge15" class="edge">
<title>Node2&#45;&gt;Node16</title>
<path fill="none" stroke="#63b8ff" d="M1059.48,-109.51C1075.95,-101.27 1100.59,-88.96 1119.61,-79.45"/>
<polygon fill="#63b8ff" stroke="#63b8ff" points="1121.05,-82.64 1128.43,-75.03 1117.92,-76.38 1121.05,-82.64"/>
</g>
<!-- Node17 -->
<g id="node17" class="node">
<title>Node17</title>
<g id="a_node17"><a xlink:href="Window_8hpp.html" target="_top" xlink:title=" ">
<polygon fill="white" stroke="#666666" points="1649,-19 1548,-19 1548,0 1649,0 1649,-19"/>
<text text-anchor="middle" x="1598.5" y="-7" font-family="Helvetica,sans-Serif" font-size="10.00">Engine/Window.hpp</text>
</a>
</g>
</g>
<!-- Node2&#45;&gt;Node17 -->
<g id="edge16" class="edge">
<title>Node2&#45;&gt;Node17</title>
<path fill="none" stroke="#63b8ff" d="M1089.83,-109.96C1146.34,-103.94 1550.39,-114.32 1588.5,-74 1599.17,-62.71 1598.4,-44.62 1597.05,-30.63"/>
<polygon fill="#63b8ff" stroke="#63b8ff" points="1600.54,-30.37 1596.1,-20.75 1593.57,-31.04 1600.54,-30.37"/>
</g>
<!-- Node18 -->
<g id="node18" class="node">
<title>Node18</title>
<g id="a_node18"><a xlink:href="Draw_8hpp.html" target="_top" xlink:title=" ">
<polygon fill="white" stroke="#666666" points="1442,-74 1353,-74 1353,-55 1442,-55 1442,-74"/>
<text text-anchor="middle" x="1397.5" y="-62" font-family="Helvetica,sans-Serif" font-size="10.00">Engine/Draw.hpp</text>
</a>
</g>
</g>
<!-- Node2&#45;&gt;Node18 -->
<g id="edge18" class="edge">
<title>Node2&#45;&gt;Node18</title>
<path fill="none" stroke="#63b8ff" d="M1089.82,-109.95C1198.43,-93.88 1225.8,-90.54 1334.5,-74 1336.77,-73.65 1339.1,-73.3 1341.45,-72.94"/>
<polygon fill="#63b8ff" stroke="#63b8ff" points="1341.77,-76.43 1351.12,-71.45 1340.71,-69.51 1341.77,-76.43"/>
</g>
<!-- Node19 -->
<g id="node19" class="node">
<title>Node19</title>
<g id="a_node19"><a xlink:href="Event_8hpp.html" target="_top" xlink:title=" ">
<polygon fill="white" stroke="#666666" points="1754.5,-74 1662.5,-74 1662.5,-55 1754.5,-55 1754.5,-74"/>
<text text-anchor="middle" x="1708.5" y="-62" font-family="Helvetica,sans-Serif" font-size="10.00">Engine/Event.hpp</text>
</a>
</g>
</g>
<!-- Node2&#45;&gt;Node19 -->
<g id="edge20" class="edge">
<title>Node2&#45;&gt;Node19</title>
<path fill="none" stroke="#63b8ff" d="M1089.86,-109.96C1333.14,-83.93 1395.95,-99.19 1639.5,-74 1643.28,-73.61 1647.18,-73.16 1651.13,-72.68"/>
<polygon fill="#63b8ff" stroke="#63b8ff" points="1651.32,-76.18 1660.79,-71.43 1650.42,-69.24 1651.32,-76.18"/>
</g>
<!-- Node23 -->
<g id="node23" class="node">
<title>Node23</title>
<g id="a_node23"><a xlink:href="StateManager_8hpp.html" target="_top" xlink:title=" ">
<polygon fill="white" stroke="#666666" points="1588.5,-74 1460.5,-74 1460.5,-55 1588.5,-55 1588.5,-74"/>
<text text-anchor="middle" x="1524.5" y="-62" font-family="Helvetica,sans-Serif" font-size="10.00">Engine/StateManager.hpp</text>
</a>
</g>
</g>
<!-- Node2&#45;&gt;Node23 -->
<g id="edge25" class="edge">
<title>Node2&#45;&gt;Node23</title>
<path fill="none" stroke="#63b8ff" d="M1089.96,-109.94C1245.61,-90.4 1285.31,-90.96 1441.5,-74 1443.95,-73.73 1446.45,-73.46 1448.98,-73.18"/>
<polygon fill="#63b8ff" stroke="#63b8ff" points="1449.15,-76.68 1458.7,-72.1 1448.38,-69.73 1449.15,-76.68"/>
</g>
<!-- Node24 -->
<g id="node24" class="node">
<title>Node24</title>
<g id="a_node24"><a xlink:href="EntitiesManager_8hpp.html" target="_top" xlink:title=" ">
<polygon fill="white" stroke="#666666" points="1334.5,-74 1194.5,-74 1194.5,-55 1334.5,-55 1334.5,-74"/>
<text text-anchor="middle" x="1264.5" y="-62" font-family="Helvetica,sans-Serif" font-size="10.00">Entities/EntitiesManager.hpp</text>
</a>
</g>
</g>
<!-- Node2&#45;&gt;Node24 -->
<g id="edge28" class="edge">
<title>Node2&#45;&gt;Node24</title>
<path fill="none" stroke="#63b8ff" d="M1074.11,-109.51C1109.99,-100.54 1168,-86.71 1210.62,-76.96"/>
<polygon fill="#63b8ff" stroke="#63b8ff" points="1211.2,-80.41 1220.17,-74.78 1209.65,-73.59 1211.2,-80.41"/>
</g>
<!-- Node17&#45;&gt;Node2 -->
<g id="edge17" class="edge">
<title>Node17&#45;&gt;Node2</title>
<path fill="none" stroke="#63b8ff" d="M1607.27,-19.24C1614.86,-32.9 1620.44,-59.26 1606.5,-74 1568.31,-114.4 1162.75,-103.9 1107.5,-110 1105.46,-110.23 1103.39,-110.47 1101.29,-110.73"/>
<polygon fill="#63b8ff" stroke="#63b8ff" points="1100.87,-107.25 1091.41,-112.02 1101.78,-114.19 1100.87,-107.25"/>
</g>
<!-- Node18&#45;&gt;Node2 -->
<g id="edge19" class="edge">
<title>Node18&#45;&gt;Node2</title>
<path fill="none" stroke="#63b8ff" d="M1352.18,-74.05C1243.64,-90.56 1216.27,-93.9 1107.5,-110 1105.47,-110.3 1103.4,-110.61 1101.31,-110.92"/>
<polygon fill="#63b8ff" stroke="#63b8ff" points="1100.83,-107.45 1091.45,-112.37 1101.86,-114.37 1100.83,-107.45"/>
</g>
<!-- Node19&#45;&gt;Node2 -->
<g id="edge21" class="edge">
<title>Node19&#45;&gt;Node2</title>
<path fill="none" stroke="#63b8ff" d="M1662.27,-73.48C1660.66,-73.67 1659.07,-73.84 1657.5,-74 1413.83,-99.2 1351.07,-83.91 1107.5,-110 1105.46,-110.22 1103.39,-110.46 1101.28,-110.71"/>
<polygon fill="#63b8ff" stroke="#63b8ff" points="1100.87,-107.23 1091.4,-111.98 1101.77,-114.18 1100.87,-107.23"/>
</g>
<!-- Node20 -->
<g id="node20" class="node">
<title>Node20</title>
<g id="a_node20"><a xlink:title=" ">
<polygon fill="#e0e0e0" stroke="#999999" points="1696,-19 1667,-19 1667,0 1696,0 1696,-19"/>
<text text-anchor="middle" x="1681.5" y="-7" font-family="Helvetica,sans-Serif" font-size="10.00">list</text>
</a>
</g>
</g>
<!-- Node19&#45;&gt;Node20 -->
<g id="edge22" class="edge">
<title>Node19&#45;&gt;Node20</title>
<path fill="none" stroke="#63b8ff" d="M1704.04,-54.75C1700.55,-47.88 1695.55,-38.08 1691.15,-29.45"/>
<polygon fill="#63b8ff" stroke="#63b8ff" points="1694.4,-28.11 1686.74,-20.79 1688.16,-31.29 1694.4,-28.11"/>
</g>
<!-- Node21 -->
<g id="node21" class="node">
<title>Node21</title>
<g id="a_node21"><a xlink:title=" ">
<polygon fill="#e0e0e0" stroke="#999999" points="1757,-19 1714,-19 1714,0 1757,0 1757,-19"/>
<text text-anchor="middle" x="1735.5" y="-7" font-family="Helvetica,sans-Serif" font-size="10.00">queue</text>
</a>
</g>
</g>
<!-- Node19&#45;&gt;Node21 -->
<g id="edge23" class="edge">
<title>Node19&#45;&gt;Node21</title>
<path fill="none" stroke="#63b8ff" d="M1712.96,-54.75C1716.45,-47.88 1721.45,-38.08 1725.85,-29.45"/>
<polygon fill="#63b8ff" stroke="#63b8ff" points="1728.84,-31.29 1730.26,-20.79 1722.6,-28.11 1728.84,-31.29"/>
</g>
<!-- Node22 -->
<g id="node22" class="node">
<title>Node22</title>
<g id="a_node22"><a xlink:title=" ">
<polygon fill="#e0e0e0" stroke="#999999" points="1837.5,-19 1775.5,-19 1775.5,0 1837.5,0 1837.5,-19"/>
<text text-anchor="middle" x="1806.5" y="-7" font-family="Helvetica,sans-Serif" font-size="10.00">Skaldi.hpp</text>
</a>
</g>
</g>
<!-- Node19&#45;&gt;Node22 -->
<g id="edge24" class="edge">
<title>Node19&#45;&gt;Node22</title>
<path fill="none" stroke="#63b8ff" d="M1725.12,-54.51C1740.28,-46.31 1762.92,-34.07 1780.47,-24.58"/>
<polygon fill="#63b8ff" stroke="#63b8ff" points="1781.66,-27.91 1788.79,-20.08 1778.33,-21.76 1781.66,-27.91"/>
</g>
<!-- Node23&#45;&gt;Node2 -->
<g id="edge26" class="edge">
<title>Node23&#45;&gt;Node2</title>
<path fill="none" stroke="#63b8ff" d="M1460.27,-73.92C1460.01,-73.94 1459.76,-73.97 1459.5,-74 1303.16,-90.97 1263.53,-90.4 1107.5,-110 1105.47,-110.26 1103.39,-110.52 1101.3,-110.8"/>
<polygon fill="#63b8ff" stroke="#63b8ff" points="1100.85,-107.33 1091.42,-112.16 1101.81,-114.27 1100.85,-107.33"/>
</g>
<!-- Node23&#45;&gt;Node17 -->
<g id="edge27" class="edge">
<title>Node23&#45;&gt;Node17</title>
<path fill="none" stroke="#63b8ff" d="M1537.05,-54.51C1547.96,-46.7 1564,-35.21 1576.96,-25.93"/>
<polygon fill="#63b8ff" stroke="#63b8ff" points="1578.81,-28.91 1584.9,-20.24 1574.73,-23.22 1578.81,-28.91"/>
</g>
<!-- Node24&#45;&gt;Node2 -->
<g id="edge29" class="edge">
<title>Node24&#45;&gt;Node2</title>
<path fill="none" stroke="#63b8ff" d="M1232.07,-74.45C1196.26,-83.4 1138.27,-97.22 1095.59,-106.99"/>
<polygon fill="#63b8ff" stroke="#63b8ff" points="1094.99,-103.54 1086.02,-109.17 1096.55,-110.37 1094.99,-103.54"/>
</g>
<!-- Node24&#45;&gt;Node13 -->
<g id="edge31" class="edge">
<title>Node24&#45;&gt;Node13</title>
<path fill="none" stroke="#63b8ff" d="M1232.95,-54.51C1199.24,-44.9 1146.03,-29.74 1111.7,-19.96"/>
<polygon fill="#63b8ff" stroke="#63b8ff" points="1112.87,-16.66 1102.3,-17.28 1110.95,-23.39 1112.87,-16.66"/>
</g>
<!-- Node25 -->
<g id="node25" class="node">
<title>Node25</title>
<g id="a_node25"><a xlink:title=" ">
<polygon fill="#e0e0e0" stroke="#999999" points="1283.5,-19 1245.5,-19 1245.5,0 1283.5,0 1283.5,-19"/>
<text text-anchor="middle" x="1264.5" y="-7" font-family="Helvetica,sans-Serif" font-size="10.00">array</text>
</a>
</g>
</g>
<!-- Node24&#45;&gt;Node25 -->
<g id="edge30" class="edge">
<title>Node24&#45;&gt;Node25</title>
<path fill="none" stroke="#63b8ff" d="M1264.5,-54.75C1264.5,-48.27 1264.5,-39.16 1264.5,-30.9"/>
<polygon fill="#63b8ff" stroke="#63b8ff" points="1268,-30.96 1264.5,-20.96 1261,-30.96 1268,-30.96"/>
</g>
</g>
</svg>
        <g id="navigator" transform="translate(0 0)" fill="#404254">
                <rect fill="#f2f5e9" fill-opacity="0.5" stroke="#606060" stroke-width=".5" x="0" y="0" width="60" height="60"/>
                <use id="zoomplus" xlink:href="#zoomPlus" x="17" y="9" onmousedown="handleZoom(evt,'in')"/>
                <use id="zoomminus" xlink:href="#zoomMin" x="42" y="9" onmousedown="handleZoom(evt,'out')"/>
                <use id="reset" xlink:href="#resetDef" x="30" y="36" onmousedown="handleReset()"/>
                <g id="arrowUp" xlink:href="#dirArrow" transform="translate(30 24)" onmousedown="handlePan(0,-1)">
                  <use xlink:href="#rim" fill="#404040">
                        <set attributeName="fill" to="#808080" begin="arrowUp.mouseover" end="arrowUp.mouseout"/>
                  </use>
                  <path fill="none" stroke="white" stroke-width="1.5" d="M0,-3.0v7 M-2.5,-0.5L0,-3.0L2.5,-0.5"/>
                </g>
                <g id="arrowRight" xlink:href="#dirArrow" transform="rotate(90) translate(36 -43)" onmousedown="handlePan(1,0)">
                  <use xlink:href="#rim" fill="#404040">
                        <set attributeName="fill" to="#808080" begin="arrowRight.mouseover" end="arrowRight.mouseout"/>
                  </use>
                  <path fill="none" stroke="white" stroke-width="1.5" d="M0,-3.0v7 M-2.5,-0.5L0,-3.0L2.5,-0.5"/>
                </g>
                <g id="arrowDown" xlink:href="#dirArrow" transform="rotate(180) translate(-30 -48)" onmousedown="handlePan(0,1)">
                  <use xlink:href="#rim" fill="#404040">
                        <set attributeName="fill" to="#808080" begin="arrowDown.mouseover" end="arrowDown.mouseout"/>
                  </use>
                  <path fill="none" stroke="white" stroke-width="1.5" d="M0,-3.0v7 M-2.5,-0.5L0,-3.0L2.5,-0.5"/>
                </g>
                <g id="arrowLeft" xlink:href="#dirArrow" transform="rotate(270) translate(-36 17)" onmousedown="handlePan(-1,0)">
                  <use xlink:href="#rim" fill="#404040">
                        <set attributeName="fill" to="#808080" begin="arrowLeft.mouseover" end="arrowLeft.mouseout"/>
                  </use>
                  <path fill="none" stroke="white" stroke-width="1.5" d="M0,-3.0v7 M-2.5,-0.5L0,-3.0L2.5,-0.5"/>
                </g>
        </g>
        <svg viewBox="0 0 15 15" width="100%" height="30px" preserveAspectRatio="xMaxYMin meet">
         <g id="arrow_out" transform="scale(0.3 0.3)">
          <a xlink:href="Bullets_8hpp__incl_org.svg" target="_base">
           <rect id="button" ry="5" rx="5" y="6" x="6" height="38" width="38"
                fill="#f2f5e9" fill-opacity="0.5" stroke="#606060" stroke-width="1.0"/>
           <path id="arrow"
             d="M 11.500037,31.436501 C 11.940474,20.09759 22.043105,11.32322 32.158766,21.979434 L 37.068811,17.246167 C 37.068811,17.246167 37.088388,32 37.088388,32 L 22.160133,31.978069 C 22.160133,31.978069 26.997745,27.140456 26.997745,27.140456 C 18.528582,18.264221 13.291696,25.230495 11.500037,31.436501 z"
             style="fill:#404040;"/>
          </a>
         </g>
        </svg>
</svg>
