<?xml version="1.0" encoding="UTF-8" standalone="no"?>
<!DOCTYPE svg PUBLIC "-//W3C//DTD SVG 1.1//EN"
 "http://www.w3.org/Graphics/SVG/1.1/DTD/svg11.dtd">
<!-- Generated by graphviz version 7.0.5 (20221223.1930)
 -->
<!-- Title: /github/workspace/client/include/Components/Bullets.hpp Pages: 1 -->
<svg width="2531pt" height="610pt"
 viewBox="0.00 0.00 2531.00 610.00" xmlns="http://www.w3.org/2000/svg" xmlns:xlink="http://www.w3.org/1999/xlink">
<g id="graph0" class="graph" transform="scale(1 1) rotate(0) translate(4 606)">
<title>/github/workspace/client/include/Components/Bullets.hpp</title>
<!-- Node1 -->
<g id="node1" class="node">
<title>Node1</title>
<g id="a_node1"><a xlink:title=" ">
<polygon fill="#999999" stroke="#666666" points="1321.5,-602 1162.5,-602 1162.5,-572 1321.5,-572 1321.5,-602"/>
<text text-anchor="start" x="1170.5" y="-590" font-family="Helvetica,sans-Serif" font-size="10.00">/github/workspace/client</text>
<text text-anchor="middle" x="1242" y="-579" font-family="Helvetica,sans-Serif" font-size="10.00">/include/Components/Bullets.hpp</text>
</a>
</g>
</g>
<!-- Node2 -->
<g id="node2" class="node">
<title>Node2</title>
<g id="a_node2"><a xlink:href="Engine_8hpp.html" target="_top" xlink:title=" ">
<polygon fill="white" stroke="#666666" points="1308.5,-536 1175.5,-536 1175.5,-506 1308.5,-506 1308.5,-536"/>
<text text-anchor="start" x="1183.5" y="-524" font-family="Helvetica,sans-Serif" font-size="10.00">/github/workspace/client</text>
<text text-anchor="middle" x="1242" y="-513" font-family="Helvetica,sans-Serif" font-size="10.00">/include/Engine/Engine.hpp</text>
</a>
</g>
</g>
<!-- Node1&#45;&gt;Node2 -->
<g id="edge1" class="edge">
<title>Node1&#45;&gt;Node2</title>
<path fill="none" stroke="#63b8ff" d="M1235.37,-560.39C1235.05,-552.13 1235.36,-543.28 1236.29,-536.16"/>
<polygon fill="#63b8ff" stroke="#63b8ff" points="1231.88,-560.6 1236.16,-570.29 1238.85,-560.04 1231.88,-560.6"/>
</g>
<!-- Node15 -->
<g id="node15" class="node">
<title>Node15</title>
<g id="a_node15"><a xlink:href="include_8hpp.html" target="_top" xlink:title=" ">
<polygon fill="white" stroke="#666666" points="122,-321.5 0,-321.5 0,-291.5 122,-291.5 122,-321.5"/>
<text text-anchor="start" x="8" y="-309.5" font-family="Helvetica,sans-Serif" font-size="10.00">/github/workspace/client</text>
<text text-anchor="middle" x="61" y="-298.5" font-family="Helvetica,sans-Serif" font-size="10.00">/include/include.hpp</text>
</a>
</g>
</g>
<!-- Node1&#45;&gt;Node15 -->
<g id="edge63" class="edge">
<title>Node1&#45;&gt;Node15</title>
<path fill="none" stroke="#63b8ff" d="M1150.93,-581.94C888.79,-569.58 145.25,-529.6 54,-470 11.87,-442.48 0.45,-410.52 17,-363 22.58,-346.98 34.93,-332.1 45.13,-321.79"/>
<polygon fill="#63b8ff" stroke="#63b8ff" points="1150.64,-585.43 1160.79,-582.4 1150.96,-578.44 1150.64,-585.43"/>
</g>
<!-- Node41 -->
<g id="node41" class="node">
<title>Node41</title>
<g id="a_node41"><a xlink:href="Bullets_8cpp.html" target="_top" xlink:title=" ">
<polygon fill="white" stroke="#666666" points="1449,-536 1327,-536 1327,-506 1449,-506 1449,-536"/>
<text text-anchor="start" x="1335" y="-524" font-family="Helvetica,sans-Serif" font-size="10.00">/github/workspace/client</text>
<text text-anchor="middle" x="1388" y="-513" font-family="Helvetica,sans-Serif" font-size="10.00">/src/Bullets.cpp</text>
</a>
</g>
</g>
<!-- Node1&#45;&gt;Node41 -->
<g id="edge64" class="edge">
<title>Node1&#45;&gt;Node41</title>
<path fill="none" stroke="#63b8ff" d="M1285.02,-567.14C1307.42,-557.32 1334.38,-545.51 1355.09,-536.43"/>
<polygon fill="#63b8ff" stroke="#63b8ff" points="1283.9,-563.81 1276.15,-571.03 1286.72,-570.22 1283.9,-563.81"/>
</g>
<!-- Node2&#45;&gt;Node1 -->
<g id="edge22" class="edge">
<title>Node2&#45;&gt;Node1</title>
<path fill="none" stroke="#63b8ff" d="M1248.63,-547.56C1248.95,-555.82 1248.64,-564.67 1247.72,-571.8"/>
<polygon fill="#63b8ff" stroke="#63b8ff" points="1252.12,-547.36 1247.84,-537.67 1245.14,-547.92 1252.12,-547.36"/>
</g>
<!-- Node3 -->
<g id="node3" class="node">
<title>Node3</title>
<g id="a_node3"><a xlink:href="Background_8hpp.html" target="_top" xlink:title=" ">
<polygon fill="white" stroke="#666666" points="1600.5,-470 1419.5,-470 1419.5,-440 1600.5,-440 1600.5,-470"/>
<text text-anchor="start" x="1427.5" y="-458" font-family="Helvetica,sans-Serif" font-size="10.00">/github/workspace/client</text>
<text text-anchor="middle" x="1510" y="-447" font-family="Helvetica,sans-Serif" font-size="10.00">/include/Components/Background.hpp</text>
</a>
</g>
</g>
<!-- Node2&#45;&gt;Node3 -->
<g id="edge2" class="edge">
<title>Node2&#45;&gt;Node3</title>
<path fill="none" stroke="#63b8ff" d="M1307.81,-502.84C1349.26,-492.7 1402.51,-480 1444,-470.39"/>
<polygon fill="#63b8ff" stroke="#63b8ff" points="1307.08,-499.41 1298.2,-505.2 1308.74,-506.21 1307.08,-499.41"/>
</g>
<!-- Node11 -->
<g id="node11" class="node">
<title>Node11</title>
<g id="a_node11"><a xlink:href="client_2src_2main_8cpp.html" target="_top" xlink:title=" ">
<polygon fill="white" stroke="#666666" points="740,-30 618,-30 618,0 740,0 740,-30"/>
<text text-anchor="start" x="626" y="-18" font-family="Helvetica,sans-Serif" font-size="10.00">/github/workspace/client</text>
<text text-anchor="middle" x="679" y="-7" font-family="Helvetica,sans-Serif" font-size="10.00">/src/main.cpp</text>
</a>
</g>
</g>
<!-- Node2&#45;&gt;Node11 -->
<g id="edge62" class="edge">
<title>Node2&#45;&gt;Node11</title>
<path fill="none" stroke="#63b8ff" d="M1163.77,-518.85C1015.73,-515.86 706.42,-505.4 674,-470 664.99,-460.17 673.75,-453.33 674,-440 675.11,-381.08 679,-366.43 679,-307.5 679,-307.5 679,-307.5 679,-151.5 679,-107.27 679,-54.93 679,-30.24"/>
<polygon fill="#63b8ff" stroke="#63b8ff" points="1163.43,-522.34 1173.5,-519.04 1163.57,-515.35 1163.43,-522.34"/>
</g>
<!-- Node14 -->
<g id="node14" class="node">
<title>Node14</title>
<g id="a_node14"><a xlink:href="Bonus_8hpp.html" target="_top" xlink:title=" ">
<polygon fill="white" stroke="#666666" points="192.5,-398.5 35.5,-398.5 35.5,-368.5 192.5,-368.5 192.5,-398.5"/>
<text text-anchor="start" x="43.5" y="-386.5" font-family="Helvetica,sans-Serif" font-size="10.00">/github/workspace/client</text>
<text text-anchor="middle" x="114" y="-375.5" font-family="Helvetica,sans-Serif" font-size="10.00">/include/Components/Bonus.hpp</text>
</a>
</g>
</g>
<!-- Node2&#45;&gt;Node14 -->
<g id="edge17" class="edge">
<title>Node2&#45;&gt;Node14</title>
<path fill="none" stroke="#63b8ff" d="M1163.78,-519.64C935.58,-518.13 281.14,-510.3 194,-470 160.97,-454.73 135.02,-419.01 122.39,-398.91"/>
<polygon fill="#63b8ff" stroke="#63b8ff" points="1163.76,-523.14 1173.78,-519.71 1163.81,-516.14 1163.76,-523.14"/>
</g>
<!-- Node2&#45;&gt;Node15 -->
<g id="edge60" class="edge">
<title>Node2&#45;&gt;Node15</title>
<path fill="none" stroke="#63b8ff" d="M1163.59,-518.37C929.95,-513.23 248.71,-496.16 152,-470 90.98,-453.49 58.73,-458.09 26,-404 9.67,-377.01 32.65,-341.21 48.39,-321.69"/>
<polygon fill="#63b8ff" stroke="#63b8ff" points="1163.44,-521.87 1173.52,-518.58 1163.6,-514.87 1163.44,-521.87"/>
</g>
<!-- Node16 -->
<g id="node16" class="node">
<title>Node16</title>
<g id="a_node16"><a xlink:href="Bouton_8hpp.html" target="_top" xlink:title=" ">
<polygon fill="white" stroke="#666666" points="1124,-321.5 964,-321.5 964,-291.5 1124,-291.5 1124,-321.5"/>
<text text-anchor="start" x="972" y="-309.5" font-family="Helvetica,sans-Serif" font-size="10.00">/github/workspace/client</text>
<text text-anchor="middle" x="1044" y="-298.5" font-family="Helvetica,sans-Serif" font-size="10.00">/include/Components/Bouton.hpp</text>
</a>
</g>
</g>
<!-- Node2&#45;&gt;Node16 -->
<g id="edge19" class="edge">
<title>Node2&#45;&gt;Node16</title>
<path fill="none" stroke="#63b8ff" d="M1164.31,-514.36C1128.38,-508.17 1087.27,-495.54 1058,-470 1020.96,-437.68 1023.94,-411.78 1030,-363 1031.76,-348.8 1035.97,-333.01 1039.32,-321.92"/>
<polygon fill="#63b8ff" stroke="#63b8ff" points="1163.36,-517.76 1173.78,-515.85 1164.45,-510.84 1163.36,-517.76"/>
</g>
<!-- Node17 -->
<g id="node17" class="node">
<title>Node17</title>
<g id="a_node17"><a xlink:href="Centipede_8hpp.html" target="_top" xlink:title=" ">
<polygon fill="white" stroke="#666666" points="1850.5,-398.5 1677.5,-398.5 1677.5,-368.5 1850.5,-368.5 1850.5,-398.5"/>
<text text-anchor="start" x="1685.5" y="-386.5" font-family="Helvetica,sans-Serif" font-size="10.00">/github/workspace/client</text>
<text text-anchor="middle" x="1764" y="-375.5" font-family="Helvetica,sans-Serif" font-size="10.00">/include/Components/Centipede.hpp</text>
</a>
</g>
</g>
<!-- Node2&#45;&gt;Node17 -->
<g id="edge23" class="edge">
<title>Node2&#45;&gt;Node17</title>
<path fill="none" stroke="#63b8ff" d="M1319.87,-506.25C1432.63,-499.09 1943.24,-522.48 1993,-470 2002.17,-460.32 2001.24,-450.48 1993,-440 1987.89,-433.51 1898.09,-413.12 1832.49,-398.95"/>
<polygon fill="#63b8ff" stroke="#63b8ff" points="1319.82,-502.74 1310.16,-507.09 1320.43,-509.71 1319.82,-502.74"/>
</g>
<!-- Node18 -->
<g id="node18" class="node">
<title>Node18</title>
<g id="a_node18"><a xlink:href="IComponents_8hpp.html" target="_top" xlink:title=" ">
<polygon fill="white" stroke="#666666" points="1984.5,-470 1797.5,-470 1797.5,-440 1984.5,-440 1984.5,-470"/>
<text text-anchor="start" x="1805.5" y="-458" font-family="Helvetica,sans-Serif" font-size="10.00">/github/workspace/client</text>
<text text-anchor="middle" x="1891" y="-447" font-family="Helvetica,sans-Serif" font-size="10.00">/include/Components/IComponents.hpp</text>
</a>
</g>
</g>
<!-- Node2&#45;&gt;Node18 -->
<g id="edge25" class="edge">
<title>Node2&#45;&gt;Node18</title>
<path fill="none" stroke="#63b8ff" d="M1319.85,-505.86C1525.46,-479.6 1580.44,-490.96 1783,-470 1787.61,-469.52 1792.32,-469.01 1797.08,-468.47"/>
<polygon fill="#63b8ff" stroke="#63b8ff" points="1319.64,-502.36 1310.17,-507.12 1320.53,-509.31 1319.64,-502.36"/>
</g>
<!-- Node19 -->
<g id="node19" class="node">
<title>Node19</title>
<g id="a_node19"><a xlink:href="EntitiesManager_8hpp.html" target="_top" xlink:title=" ">
<polygon fill="white" stroke="#666666" points="1355,-398.5 1179,-398.5 1179,-368.5 1355,-368.5 1355,-398.5"/>
<text text-anchor="start" x="1187" y="-386.5" font-family="Helvetica,sans-Serif" font-size="10.00">/github/workspace/client</text>
<text text-anchor="middle" x="1267" y="-375.5" font-family="Helvetica,sans-Serif" font-size="10.00">/include/Entities/EntitiesManager.hpp</text>
</a>
</g>
</g>
<!-- Node2&#45;&gt;Node19 -->
<g id="edge54" class="edge">
<title>Node2&#45;&gt;Node19</title>
<path fill="none" stroke="#63b8ff" d="M1241.3,-494.41C1244.44,-466.17 1252.99,-421.71 1259.97,-398.96"/>
<polygon fill="#63b8ff" stroke="#63b8ff" points="1237.83,-493.98 1240.42,-504.25 1244.8,-494.6 1237.83,-493.98"/>
</g>
<!-- Node21 -->
<g id="node21" class="node">
<title>Node21</title>
<g id="a_node21"><a xlink:href="oold__EntitiesManager_8hpp.html" target="_top" xlink:title=" ">
<polygon fill="white" stroke="#666666" points="1659,-404 1537,-404 1537,-363 1659,-363 1659,-404"/>
<text text-anchor="start" x="1545" y="-392" font-family="Helvetica,sans-Serif" font-size="10.00">/github/workspace/client</text>
<text text-anchor="start" x="1545" y="-381" font-family="Helvetica,sans-Serif" font-size="10.00">/include/Entities/oold</text>
<text text-anchor="middle" x="1598" y="-370" font-family="Helvetica,sans-Serif" font-size="10.00">_EntitiesManager.hpp</text>
</a>
</g>
</g>
<!-- Node2&#45;&gt;Node21 -->
<g id="edge59" class="edge">
<title>Node2&#45;&gt;Node21</title>
<path fill="none" stroke="#63b8ff" d="M1320.07,-506.22C1401.94,-500.13 1719.11,-503.58 1750,-470 1759.03,-460.19 1757.64,-450.93 1750,-440 1744.34,-431.91 1699.11,-415.99 1659.45,-403.26"/>
<polygon fill="#63b8ff" stroke="#63b8ff" points="1319.79,-502.73 1310.17,-507.19 1320.47,-509.7 1319.79,-502.73"/>
</g>
<!-- Node22 -->
<g id="node22" class="node">
<title>Node22</title>
<g id="a_node22"><a xlink:href="Mobs_8hpp.html" target="_top" xlink:title=" ">
<polygon fill="white" stroke="#666666" points="836.5,-470 683.5,-470 683.5,-440 836.5,-440 836.5,-470"/>
<text text-anchor="start" x="691.5" y="-458" font-family="Helvetica,sans-Serif" font-size="10.00">/github/workspace/client</text>
<text text-anchor="middle" x="760" y="-447" font-family="Helvetica,sans-Serif" font-size="10.00">/include/Components/Mobs.hpp</text>
</a>
</g>
</g>
<!-- Node2&#45;&gt;Node22 -->
<g id="edge34" class="edge">
<title>Node2&#45;&gt;Node22</title>
<path fill="none" stroke="#63b8ff" d="M1164.39,-511.03C1084.47,-501.6 956.37,-485.95 846,-470 843.01,-469.57 839.95,-469.12 836.87,-468.65"/>
<polygon fill="#63b8ff" stroke="#63b8ff" points="1163.5,-514.45 1173.84,-512.14 1164.31,-507.5 1163.5,-514.45"/>
</g>
<!-- Node23 -->
<g id="node23" class="node">
<title>Node23</title>
<g id="a_node23"><a xlink:href="Audio_8hpp.html" target="_top" xlink:title=" ">
<polygon fill="white" stroke="#666666" points="983,-470 855,-470 855,-440 983,-440 983,-470"/>
<text text-anchor="start" x="863" y="-458" font-family="Helvetica,sans-Serif" font-size="10.00">/github/workspace/client</text>
<text text-anchor="middle" x="919" y="-447" font-family="Helvetica,sans-Serif" font-size="10.00">/include/Engine/Audio.hpp</text>
</a>
</g>
</g>
<!-- Node2&#45;&gt;Node23 -->
<g id="edge35" class="edge">
<title>Node2&#45;&gt;Node23</title>
<path fill="none" stroke="#63b8ff" d="M1163.91,-504.53C1108.61,-493.57 1035.32,-479.05 983.36,-468.75"/>
<polygon fill="#63b8ff" stroke="#63b8ff" points="1163.1,-507.93 1173.59,-506.44 1164.46,-501.07 1163.1,-507.93"/>
</g>
<!-- Node24 -->
<g id="node24" class="node">
<title>Node24</title>
<g id="a_node24"><a xlink:href="Destroy_8hpp.html" target="_top" xlink:title=" ">
<polygon fill="white" stroke="#666666" points="340.5,-470 203.5,-470 203.5,-440 340.5,-440 340.5,-470"/>
<text text-anchor="start" x="211.5" y="-458" font-family="Helvetica,sans-Serif" font-size="10.00">/github/workspace/client</text>
<text text-anchor="middle" x="272" y="-447" font-family="Helvetica,sans-Serif" font-size="10.00">/include/Engine/Destroy.hpp</text>
</a>
</g>
</g>
<!-- Node2&#45;&gt;Node24 -->
<g id="edge36" class="edge">
<title>Node2&#45;&gt;Node24</title>
<path fill="none" stroke="#63b8ff" d="M1163.9,-518.81C1008.44,-515.74 649.45,-505.13 350,-470 346.99,-469.65 343.93,-469.25 340.84,-468.82"/>
<polygon fill="#63b8ff" stroke="#63b8ff" points="1163.6,-522.31 1173.67,-519 1163.74,-515.31 1163.6,-522.31"/>
</g>
<!-- Node26 -->
<g id="node26" class="node">
<title>Node26</title>
<g id="a_node26"><a xlink:href="Draw_8hpp.html" target="_top" xlink:title=" ">
<polygon fill="white" stroke="#666666" points="627,-470 501,-470 501,-440 627,-440 627,-470"/>
<text text-anchor="start" x="509" y="-458" font-family="Helvetica,sans-Serif" font-size="10.00">/github/workspace/client</text>
<text text-anchor="middle" x="564" y="-447" font-family="Helvetica,sans-Serif" font-size="10.00">/include/Engine/Draw.hpp</text>
</a>
</g>
</g>
<!-- Node2&#45;&gt;Node26 -->
<g id="edge38" class="edge">
<title>Node2&#45;&gt;Node26</title>
<path fill="none" stroke="#63b8ff" d="M1163.61,-515.91C1048.63,-509.35 827.65,-494.67 641,-470 636.55,-469.41 631.98,-468.74 627.37,-468.02"/>
<polygon fill="#63b8ff" stroke="#63b8ff" points="1163.38,-519.4 1173.56,-516.47 1163.77,-512.41 1163.38,-519.4"/>
</g>
<!-- Node28 -->
<g id="node28" class="node">
<title>Node28</title>
<g id="a_node28"><a xlink:href="Error_8hpp.html" target="_top" xlink:title=" ">
<polygon fill="white" stroke="#666666" points="483,-470 359,-470 359,-440 483,-440 483,-470"/>
<text text-anchor="start" x="367" y="-458" font-family="Helvetica,sans-Serif" font-size="10.00">/github/workspace/client</text>
<text text-anchor="middle" x="421" y="-447" font-family="Helvetica,sans-Serif" font-size="10.00">/include/Engine/Error.hpp</text>
</a>
</g>
</g>
<!-- Node2&#45;&gt;Node28 -->
<g id="edge40" class="edge">
<title>Node2&#45;&gt;Node28</title>
<path fill="none" stroke="#63b8ff" d="M1164.1,-518.09C1027.48,-514.02 735.99,-502.05 492,-470 489.13,-469.62 486.21,-469.2 483.26,-468.75"/>
<polygon fill="#63b8ff" stroke="#63b8ff" points="1163.64,-521.58 1173.74,-518.37 1163.84,-514.58 1163.64,-521.58"/>
</g>
<!-- Node30 -->
<g id="node30" class="node">
<title>Node30</title>
<g id="a_node30"><a xlink:href="Event_8hpp.html" target="_top" xlink:title=" ">
<polygon fill="white" stroke="#666666" points="1205,-470 1077,-470 1077,-440 1205,-440 1205,-470"/>
<text text-anchor="start" x="1085" y="-458" font-family="Helvetica,sans-Serif" font-size="10.00">/github/workspace/client</text>
<text text-anchor="middle" x="1141" y="-447" font-family="Helvetica,sans-Serif" font-size="10.00">/include/Engine/Event.hpp</text>
</a>
</g>
</g>
<!-- Node2&#45;&gt;Node30 -->
<g id="edge43" class="edge">
<title>Node2&#45;&gt;Node30</title>
<path fill="none" stroke="#63b8ff" d="M1203.98,-499.91C1188.09,-490.31 1170.5,-479.03 1157.86,-470.31"/>
<polygon fill="#63b8ff" stroke="#63b8ff" points="1201.91,-502.75 1212.29,-504.86 1205.49,-496.74 1201.91,-502.75"/>
</g>
<!-- Node31 -->
<g id="node31" class="node">
<title>Node31</title>
<g id="a_node31"><a xlink:href="Event_8cpp.html" target="_top" xlink:title=" ">
<polygon fill="white" stroke="#666666" points="1161,-398.5 1039,-398.5 1039,-368.5 1161,-368.5 1161,-398.5"/>
<text text-anchor="start" x="1047" y="-386.5" font-family="Helvetica,sans-Serif" font-size="10.00">/github/workspace/client</text>
<text text-anchor="middle" x="1100" y="-375.5" font-family="Helvetica,sans-Serif" font-size="10.00">/src/Event.cpp</text>
</a>
</g>
</g>
<!-- Node2&#45;&gt;Node31 -->
<g id="edge61" class="edge">
<title>Node2&#45;&gt;Node31</title>
<path fill="none" stroke="#63b8ff" d="M1164.31,-507.1C1123.77,-498.62 1080.12,-486.1 1068,-470 1051.5,-448.1 1071.92,-416.75 1086.89,-398.73"/>
<polygon fill="#63b8ff" stroke="#63b8ff" points="1163.37,-510.48 1173.87,-509.03 1164.76,-503.62 1163.37,-510.48"/>
</g>
<!-- Node32 -->
<g id="node32" class="node">
<title>Node32</title>
<g id="a_node32"><a xlink:href="Map_8hpp.html" target="_top" xlink:title=" ">
<polygon fill="white" stroke="#666666" points="1401,-470 1279,-470 1279,-440 1401,-440 1401,-470"/>
<text text-anchor="start" x="1287" y="-458" font-family="Helvetica,sans-Serif" font-size="10.00">/github/workspace/client</text>
<text text-anchor="middle" x="1340" y="-447" font-family="Helvetica,sans-Serif" font-size="10.00">/include/Engine/Map.hpp</text>
</a>
</g>
</g>
<!-- Node2&#45;&gt;Node32 -->
<g id="edge46" class="edge">
<title>Node2&#45;&gt;Node32</title>
<path fill="none" stroke="#63b8ff" d="M1273.35,-499.52C1287.89,-490.03 1304.82,-478.98 1317.97,-470.39"/>
<polygon fill="#63b8ff" stroke="#63b8ff" points="1271.48,-496.57 1265.02,-504.97 1275.3,-502.43 1271.48,-496.57"/>
</g>
<!-- Node33 -->
<g id="node33" class="node">
<title>Node33</title>
<g id="a_node33"><a xlink:href="StateManager_8hpp.html" target="_top" xlink:title=" ">
<polygon fill="white" stroke="#666666" points="2523,-398.5 2359,-398.5 2359,-368.5 2523,-368.5 2523,-398.5"/>
<text text-anchor="start" x="2367" y="-386.5" font-family="Helvetica,sans-Serif" font-size="10.00">/github/workspace/client</text>
<text text-anchor="middle" x="2441" y="-375.5" font-family="Helvetica,sans-Serif" font-size="10.00">/include/Engine/StateManager.hpp</text>
</a>
</g>
</g>
<!-- Node2&#45;&gt;Node33 -->
<g id="edge47" class="edge">
<title>Node2&#45;&gt;Node33</title>
<path fill="none" stroke="#63b8ff" d="M1319.9,-506.14C1475.66,-494.68 2255.09,-515.64 2358,-470 2391.85,-454.99 2418.94,-419.17 2432.18,-398.98"/>
<polygon fill="#63b8ff" stroke="#63b8ff" points="1319.8,-502.64 1310.15,-507.01 1320.43,-509.61 1319.8,-502.64"/>
</g>
<!-- Node34 -->
<g id="node34" class="node">
<title>Node34</title>
<g id="a_node34"><a xlink:href="Text_8hpp.html" target="_top" xlink:title=" ">
<polygon fill="white" stroke="#666666" points="1741,-470 1619,-470 1619,-440 1741,-440 1741,-470"/>
<text text-anchor="start" x="1627" y="-458" font-family="Helvetica,sans-Serif" font-size="10.00">/github/workspace/client</text>
<text text-anchor="middle" x="1680" y="-447" font-family="Helvetica,sans-Serif" font-size="10.00">/include/Engine/Text.hpp</text>
</a>
</g>
</g>
<!-- Node2&#45;&gt;Node34 -->
<g id="edge49" class="edge">
<title>Node2&#45;&gt;Node34</title>
<path fill="none" stroke="#63b8ff" d="M1319.79,-505.79C1448.71,-486.41 1483.84,-490.06 1609,-470 1612.23,-469.48 1615.53,-468.93 1618.86,-468.34"/>
<polygon fill="#63b8ff" stroke="#63b8ff" points="1319.55,-502.29 1310.19,-507.26 1320.6,-509.21 1319.55,-502.29"/>
</g>
<!-- Node35 -->
<g id="node35" class="node">
<title>Node35</title>
<g id="a_node35"><a xlink:href="Window_8hpp.html" target="_top" xlink:title=" ">
<polygon fill="white" stroke="#666666" points="2349,-470 2211,-470 2211,-440 2349,-440 2349,-470"/>
<text text-anchor="start" x="2219" y="-458" font-family="Helvetica,sans-Serif" font-size="10.00">/github/workspace/client</text>
<text text-anchor="middle" x="2280" y="-447" font-family="Helvetica,sans-Serif" font-size="10.00">/include/Engine/Window.hpp</text>
</a>
</g>
</g>
<!-- Node2&#45;&gt;Node35 -->
<g id="edge50" class="edge">
<title>Node2&#45;&gt;Node35</title>
<path fill="none" stroke="#63b8ff" d="M1320.63,-504.72C1701.41,-463.31 1805.43,-511.94 2192,-470 2198.09,-469.34 2204.43,-468.49 2210.78,-467.54"/>
<polygon fill="#63b8ff" stroke="#63b8ff" points="1320.35,-501.23 1310.79,-505.8 1321.11,-508.18 1320.35,-501.23"/>
</g>
<!-- Node37 -->
<g id="node37" class="node">
<title>Node37</title>
<g id="a_node37"><a xlink:href="Properties_8hpp.html" target="_top" xlink:title=" ">
<polygon fill="white" stroke="#666666" points="2192.5,-470 2041.5,-470 2041.5,-440 2192.5,-440 2192.5,-470"/>
<text text-anchor="start" x="2049.5" y="-458" font-family="Helvetica,sans-Serif" font-size="10.00">/github/workspace/client</text>
<text text-anchor="middle" x="2117" y="-447" font-family="Helvetica,sans-Serif" font-size="10.00">/include/Entities/Properties.hpp</text>
</a>
</g>
</g>
<!-- Node2&#45;&gt;Node37 -->
<g id="edge55" class="edge">
<title>Node2&#45;&gt;Node37</title>
<path fill="none" stroke="#63b8ff" d="M1319.9,-505.91C1633.33,-470.1 1716.82,-501.91 2027,-470 2031.72,-469.51 2036.57,-468.95 2041.45,-468.33"/>
<polygon fill="#63b8ff" stroke="#63b8ff" points="1319.69,-502.41 1310.16,-507.04 1320.49,-509.36 1319.69,-502.41"/>
</g>
<!-- Node3&#45;&gt;Node2 -->
<g id="edge3" class="edge">
<title>Node3&#45;&gt;Node2</title>
<path fill="none" stroke="#63b8ff" d="M1444.41,-473.11C1403.01,-483.24 1349.76,-495.93 1308.23,-505.56"/>
<polygon fill="#63b8ff" stroke="#63b8ff" points="1445.14,-476.53 1454.02,-470.75 1443.47,-469.74 1445.14,-476.53"/>
</g>
<!-- Node4 -->
<g id="node4" class="node">
<title>Node4</title>
<g id="a_node4"><a xlink:href="IGameState_8hpp.html" target="_top" xlink:title=" ">
<polygon fill="white" stroke="#666666" points="1510,-327 1370,-327 1370,-286 1510,-286 1510,-327"/>
<text text-anchor="start" x="1378" y="-315" font-family="Helvetica,sans-Serif" font-size="10.00">/github/workspace/client</text>
<text text-anchor="start" x="1378" y="-304" font-family="Helvetica,sans-Serif" font-size="10.00">/include/system/gameStates</text>
<text text-anchor="middle" x="1440" y="-293" font-family="Helvetica,sans-Serif" font-size="10.00">/IGameState.hpp</text>
</a>
</g>
</g>
<!-- Node3&#45;&gt;Node4 -->
<g id="edge4" class="edge">
<title>Node3&#45;&gt;Node4</title>
<path fill="none" stroke="#63b8ff" d="M1498.37,-429.66C1484.64,-400.93 1462.08,-353.72 1449.41,-327.19"/>
<polygon fill="#63b8ff" stroke="#63b8ff" points="1495.04,-430.81 1502.51,-438.32 1501.35,-427.79 1495.04,-430.81"/>
</g>
<!-- Node5 -->
<g id="node5" class="node">
<title>Node5</title>
<g id="a_node5"><a xlink:href="SGamePlay__Duck_8hpp.html" target="_top" xlink:title=" ">
<polygon fill="white" stroke="#666666" points="1485.5,-250 1328.5,-250 1328.5,-209 1485.5,-209 1485.5,-250"/>
<text text-anchor="start" x="1336.5" y="-238" font-family="Helvetica,sans-Serif" font-size="10.00">/github/workspace/client</text>
<text text-anchor="start" x="1336.5" y="-227" font-family="Helvetica,sans-Serif" font-size="10.00">/include/system/gameStates</text>
<text text-anchor="middle" x="1407" y="-216" font-family="Helvetica,sans-Serif" font-size="10.00">/Example/SGamePlay_Duck.hpp</text>
</a>
</g>
</g>
<!-- Node4&#45;&gt;Node5 -->
<g id="edge5" class="edge">
<title>Node4&#45;&gt;Node5</title>
<path fill="none" stroke="#63b8ff" d="M1426.8,-275.5C1423.07,-267.03 1419.12,-258.04 1415.73,-250.33"/>
<polygon fill="#63b8ff" stroke="#63b8ff" points="1423.49,-276.67 1430.72,-284.41 1429.9,-273.85 1423.49,-276.67"/>
</g>
<!-- Node6 -->
<g id="node6" class="node">
<title>Node6</title>
<g id="a_node6"><a xlink:href="SMenu__Duck_8hpp.html" target="_top" xlink:title=" ">
<polygon fill="white" stroke="#666666" points="1114,-250 974,-250 974,-209 1114,-209 1114,-250"/>
<text text-anchor="start" x="982" y="-238" font-family="Helvetica,sans-Serif" font-size="10.00">/github/workspace/client</text>
<text text-anchor="start" x="982" y="-227" font-family="Helvetica,sans-Serif" font-size="10.00">/include/system/gameStates</text>
<text text-anchor="middle" x="1044" y="-216" font-family="Helvetica,sans-Serif" font-size="10.00">/Example/SMenu_Duck.hpp</text>
</a>
</g>
</g>
<!-- Node4&#45;&gt;Node6 -->
<g id="edge6" class="edge">
<title>Node4&#45;&gt;Node6</title>
<path fill="none" stroke="#63b8ff" d="M1358.6,-289.76C1351.63,-288.47 1344.7,-287.2 1338,-286 1242.63,-268.9 1217.88,-269.62 1123,-250 1120.09,-249.4 1117.13,-248.77 1114.15,-248.11"/>
<polygon fill="#63b8ff" stroke="#63b8ff" points="1357.57,-293.13 1368.04,-291.53 1358.86,-286.25 1357.57,-293.13"/>
</g>
<!-- Node7 -->
<g id="node7" class="node">
<title>Node7</title>
<g id="a_node7"><a xlink:href="SGamePlay_8hpp.html" target="_top" xlink:title=" ">
<polygon fill="white" stroke="#666666" points="1644,-250 1504,-250 1504,-209 1644,-209 1644,-250"/>
<text text-anchor="start" x="1512" y="-238" font-family="Helvetica,sans-Serif" font-size="10.00">/github/workspace/client</text>
<text text-anchor="start" x="1512" y="-227" font-family="Helvetica,sans-Serif" font-size="10.00">/include/system/gameStates</text>
<text text-anchor="middle" x="1574" y="-216" font-family="Helvetica,sans-Serif" font-size="10.00">/SGamePlay.hpp</text>
</a>
</g>
</g>
<!-- Node4&#45;&gt;Node7 -->
<g id="edge7" class="edge">
<title>Node4&#45;&gt;Node7</title>
<path fill="none" stroke="#63b8ff" d="M1485.42,-280.08C1502.67,-270.42 1522.05,-259.58 1538.28,-250.49"/>
<polygon fill="#63b8ff" stroke="#63b8ff" points="1483.9,-276.92 1476.88,-284.86 1487.31,-283.03 1483.9,-276.92"/>
</g>
<!-- Node8 -->
<g id="node8" class="node">
<title>Node8</title>
<g id="a_node8"><a xlink:href="States_8hpp.html" target="_top" xlink:title=" ">
<polygon fill="white" stroke="#666666" points="1576,-173 1436,-173 1436,-132 1576,-132 1576,-173"/>
<text text-anchor="start" x="1444" y="-161" font-family="Helvetica,sans-Serif" font-size="10.00">/github/workspace/client</text>
<text text-anchor="start" x="1444" y="-150" font-family="Helvetica,sans-Serif" font-size="10.00">/include/system/gameStates</text>
<text text-anchor="middle" x="1506" y="-139" font-family="Helvetica,sans-Serif" font-size="10.00">/States.hpp</text>
</a>
</g>
</g>
<!-- Node4&#45;&gt;Node8 -->
<g id="edge15" class="edge">
<title>Node4&#45;&gt;Node8</title>
<path fill="none" stroke="#63b8ff" d="M1521.5,-305.21C1619.2,-302.92 1774.4,-292.48 1811,-250 1878.61,-171.53 1685.83,-156.18 1576.18,-153.62"/>
<polygon fill="#63b8ff" stroke="#63b8ff" points="1521.61,-301.7 1511.69,-305.41 1521.76,-308.7 1521.61,-301.7"/>
</g>
<!-- Node12 -->
<g id="node12" class="node">
<title>Node12</title>
<g id="a_node12"><a xlink:href="SMenu_8hpp.html" target="_top" xlink:title=" ">
<polygon fill="white" stroke="#666666" points="1272,-250 1132,-250 1132,-209 1272,-209 1272,-250"/>
<text text-anchor="start" x="1140" y="-238" font-family="Helvetica,sans-Serif" font-size="10.00">/github/workspace/client</text>
<text text-anchor="start" x="1140" y="-227" font-family="Helvetica,sans-Serif" font-size="10.00">/include/system/gameStates</text>
<text text-anchor="middle" x="1202" y="-216" font-family="Helvetica,sans-Serif" font-size="10.00">/SMenu.hpp</text>
</a>
</g>
</g>
<!-- Node4&#45;&gt;Node12 -->
<g id="edge13" class="edge">
<title>Node4&#45;&gt;Node12</title>
<path fill="none" stroke="#63b8ff" d="M1366.12,-282.22C1333.87,-272.06 1296.42,-260.26 1265.45,-250.49"/>
<polygon fill="#63b8ff" stroke="#63b8ff" points="1364.81,-285.48 1375.4,-285.14 1366.92,-278.8 1364.81,-285.48"/>
</g>
<!-- Node13 -->
<g id="node13" class="node">
<title>Node13</title>
<g id="a_node13"><a xlink:href="old__SGamePlay_01copy_8hpp.html" target="_top" xlink:title=" ">
<polygon fill="white" stroke="#666666" points="1802,-250 1662,-250 1662,-209 1802,-209 1802,-250"/>
<text text-anchor="start" x="1670" y="-238" font-family="Helvetica,sans-Serif" font-size="10.00">/github/workspace/client</text>
<text text-anchor="start" x="1670" y="-227" font-family="Helvetica,sans-Serif" font-size="10.00">/include/system/gameStates</text>
<text text-anchor="middle" x="1732" y="-216" font-family="Helvetica,sans-Serif" font-size="10.00">/old_SGamePlay copy.hpp</text>
</a>
</g>
</g>
<!-- Node4&#45;&gt;Node13 -->
<g id="edge16" class="edge">
<title>Node4&#45;&gt;Node13</title>
<path fill="none" stroke="#63b8ff" d="M1521.29,-284.62C1565.35,-273.3 1619.27,-259.45 1661.54,-248.6"/>
<polygon fill="#63b8ff" stroke="#63b8ff" points="1520.59,-281.19 1511.78,-287.06 1522.34,-287.97 1520.59,-281.19"/>
</g>
<!-- Node7&#45;&gt;Node8 -->
<g id="edge8" class="edge">
<title>Node7&#45;&gt;Node8</title>
<path fill="none" stroke="#63b8ff" d="M1548.58,-200.46C1540.4,-191.44 1531.51,-181.64 1523.98,-173.33"/>
<polygon fill="#63b8ff" stroke="#63b8ff" points="1545.81,-202.62 1555.12,-207.67 1550.99,-197.91 1545.81,-202.62"/>
</g>
<!-- Node9 -->
<g id="node9" class="node">
<title>Node9</title>
<g id="a_node9"><a xlink:href="GameEngine_8hpp.html" target="_top" xlink:title=" ">
<polygon fill="white" stroke="#666666" points="1517.5,-96 1356.5,-96 1356.5,-66 1517.5,-66 1517.5,-96"/>
<text text-anchor="start" x="1364.5" y="-84" font-family="Helvetica,sans-Serif" font-size="10.00">/github/workspace/client</text>
<text text-anchor="middle" x="1437" y="-73" font-family="Helvetica,sans-Serif" font-size="10.00">/include/system/GameEngine.hpp</text>
</a>
</g>
</g>
<!-- Node8&#45;&gt;Node9 -->
<g id="edge9" class="edge">
<title>Node8&#45;&gt;Node9</title>
<path fill="none" stroke="#63b8ff" d="M1478.5,-123.81C1469.22,-114.45 1459.22,-104.38 1451.37,-96.47"/>
<polygon fill="#63b8ff" stroke="#63b8ff" points="1475.82,-126.07 1485.35,-130.7 1480.78,-121.13 1475.82,-126.07"/>
</g>
<!-- Node9&#45;&gt;Node4 -->
<g id="edge10" class="edge">
<title>Node9&#45;&gt;Node4</title>
<path fill="none" stroke="#63b8ff" d="M1404.03,-102.53C1358.05,-133.8 1284.05,-195.52 1319,-250 1330.67,-268.19 1349.95,-280.49 1369.74,-288.79"/>
<polygon fill="#63b8ff" stroke="#63b8ff" points="1405.71,-105.61 1412.1,-97.16 1401.83,-99.78 1405.71,-105.61"/>
</g>
<!-- Node10 -->
<g id="node10" class="node">
<title>Node10</title>
<g id="a_node10"><a xlink:href="StateManager_8cpp.html" target="_top" xlink:title=" ">
<polygon fill="white" stroke="#666666" points="1959,-30 1837,-30 1837,0 1959,0 1959,-30"/>
<text text-anchor="start" x="1845" y="-18" font-family="Helvetica,sans-Serif" font-size="10.00">/github/workspace/client</text>
<text text-anchor="middle" x="1898" y="-7" font-family="Helvetica,sans-Serif" font-size="10.00">/src/StateManager.cpp</text>
</a>
</g>
</g>
<!-- Node9&#45;&gt;Node10 -->
<g id="edge11" class="edge">
<title>Node9&#45;&gt;Node10</title>
<path fill="none" stroke="#63b8ff" d="M1529.02,-67.23C1620.43,-54.53 1758.03,-35.43 1836.8,-24.5"/>
<polygon fill="#63b8ff" stroke="#63b8ff" points="1528.75,-63.73 1519.33,-68.57 1529.71,-70.66 1528.75,-63.73"/>
</g>
<!-- Node9&#45;&gt;Node11 -->
<g id="edge12" class="edge">
<title>Node9&#45;&gt;Node11</title>
<path fill="none" stroke="#63b8ff" d="M1345.23,-72.25C1188.51,-59.02 873.35,-32.41 740.39,-21.18"/>
<polygon fill="#63b8ff" stroke="#63b8ff" points="1344.47,-75.7 1354.73,-73.05 1345.06,-68.72 1344.47,-75.7"/>
</g>
<!-- Node12&#45;&gt;Node8 -->
<g id="edge14" class="edge">
<title>Node12&#45;&gt;Node8</title>
<path fill="none" stroke="#63b8ff" d="M1283.01,-208.51C1330.58,-196.78 1390.12,-182.09 1435.7,-170.84"/>
<polygon fill="#63b8ff" stroke="#63b8ff" points="1282.47,-205.04 1273.59,-210.84 1284.14,-211.84 1282.47,-205.04"/>
</g>
<!-- Node14&#45;&gt;Node15 -->
<g id="edge18" class="edge">
<title>Node14&#45;&gt;Node15</title>
<path fill="none" stroke="#63b8ff" d="M97.33,-358.91C88.76,-346.78 78.59,-332.38 71.19,-321.92"/>
<polygon fill="#63b8ff" stroke="#63b8ff" points="94.28,-360.66 102.91,-366.8 99.99,-356.62 94.28,-360.66"/>
</g>
<!-- Node16&#45;&gt;Node6 -->
<g id="edge20" class="edge">
<title>Node16&#45;&gt;Node6</title>
<path fill="none" stroke="#63b8ff" d="M1044,-279.68C1044,-270.06 1044,-259.3 1044,-250.3"/>
<polygon fill="#63b8ff" stroke="#63b8ff" points="1040.5,-279.53 1044,-289.53 1047.5,-279.53 1040.5,-279.53"/>
</g>
<!-- Node16&#45;&gt;Node12 -->
<g id="edge21" class="edge">
<title>Node16&#45;&gt;Node12</title>
<path fill="none" stroke="#63b8ff" d="M1084.64,-286.21C1107.75,-275.24 1136.65,-261.52 1159.98,-250.44"/>
<polygon fill="#63b8ff" stroke="#63b8ff" points="1083.36,-282.94 1075.83,-290.39 1086.37,-289.26 1083.36,-282.94"/>
</g>
<!-- Node17&#45;&gt;Node4 -->
<g id="edge24" class="edge">
<title>Node17&#45;&gt;Node4</title>
<path fill="none" stroke="#63b8ff" d="M1690.32,-365.44C1636.37,-352.96 1563.61,-336.11 1510.44,-323.81"/>
<polygon fill="#63b8ff" stroke="#63b8ff" points="1689.52,-368.85 1700.05,-367.7 1691.1,-362.03 1689.52,-368.85"/>
</g>
<!-- Node18&#45;&gt;Node1 -->
<g id="edge26" class="edge">
<title>Node18&#45;&gt;Node1</title>
<path fill="none" stroke="#63b8ff" d="M1807.91,-472.64C1679.65,-498.33 1435.6,-547.22 1314.25,-571.53"/>
<polygon fill="#63b8ff" stroke="#63b8ff" points="1808.22,-476.15 1817.34,-470.75 1806.85,-469.29 1808.22,-476.15"/>
</g>
<!-- Node18&#45;&gt;Node17 -->
<g id="edge27" class="edge">
<title>Node18&#45;&gt;Node17</title>
<path fill="none" stroke="#63b8ff" d="M1854.72,-434.15C1834.17,-422.9 1808.92,-409.08 1790.28,-398.88"/>
<polygon fill="#63b8ff" stroke="#63b8ff" points="1852.91,-437.14 1863.36,-438.87 1856.27,-431 1852.91,-437.14"/>
</g>
<!-- Node18&#45;&gt;Node19 -->
<g id="edge28" class="edge">
<title>Node18&#45;&gt;Node19</title>
<path fill="none" stroke="#63b8ff" d="M1786.15,-442.32C1665.3,-428.86 1468.81,-406.98 1355.39,-394.35"/>
<polygon fill="#63b8ff" stroke="#63b8ff" points="1785.41,-445.76 1795.74,-443.39 1786.19,-438.8 1785.41,-445.76"/>
</g>
<!-- Node18&#45;&gt;Node21 -->
<g id="edge33" class="edge">
<title>Node18&#45;&gt;Node21</title>
<path fill="none" stroke="#63b8ff" d="M1811.3,-437.17C1768.67,-427.9 1715.33,-415.89 1668,-404 1665.19,-403.29 1662.31,-402.56 1659.41,-401.8"/>
<polygon fill="#63b8ff" stroke="#63b8ff" points="1810.47,-440.57 1820.99,-439.26 1811.95,-433.73 1810.47,-440.57"/>
</g>
<!-- Node19&#45;&gt;Node2 -->
<g id="edge29" class="edge">
<title>Node19&#45;&gt;Node2</title>
<path fill="none" stroke="#63b8ff" d="M1267.67,-410.36C1264.5,-438.71 1255.93,-483.15 1248.97,-505.76"/>
<polygon fill="#63b8ff" stroke="#63b8ff" points="1271.15,-410.74 1268.56,-400.47 1264.18,-410.11 1271.15,-410.74"/>
</g>
<!-- Node19&#45;&gt;Node4 -->
<g id="edge31" class="edge">
<title>Node19&#45;&gt;Node4</title>
<path fill="none" stroke="#63b8ff" d="M1310.81,-363.51C1336.23,-352.49 1368.21,-338.62 1393.99,-327.44"/>
<polygon fill="#63b8ff" stroke="#63b8ff" points="1309.53,-360.25 1301.74,-367.44 1312.31,-366.67 1309.53,-360.25"/>
</g>
<!-- Node19&#45;&gt;Node15 -->
<g id="edge30" class="edge">
<title>Node19&#45;&gt;Node15</title>
<path fill="none" stroke="#63b8ff" d="M1190.52,-366.03C1183.6,-364.87 1176.69,-363.83 1170,-363 772.83,-313.42 290.42,-307.76 122.29,-307.39"/>
<polygon fill="#63b8ff" stroke="#63b8ff" points="1189.79,-369.45 1200.24,-367.74 1191,-362.56 1189.79,-369.45"/>
</g>
<!-- Node20 -->
<g id="node20" class="node">
<title>Node20</title>
<g id="a_node20"><a xlink:href="EntitiesManager_8cpp.html" target="_top" xlink:title=" ">
<polygon fill="white" stroke="#666666" points="1329,-321.5 1205,-321.5 1205,-291.5 1329,-291.5 1329,-321.5"/>
<text text-anchor="start" x="1213" y="-309.5" font-family="Helvetica,sans-Serif" font-size="10.00">/github/workspace/client</text>
<text text-anchor="middle" x="1267" y="-298.5" font-family="Helvetica,sans-Serif" font-size="10.00">/src/EntitiesManager.cpp</text>
</a>
</g>
</g>
<!-- Node19&#45;&gt;Node20 -->
<g id="edge32" class="edge">
<title>Node19&#45;&gt;Node20</title>
<path fill="none" stroke="#63b8ff" d="M1267,-356.73C1267,-345.08 1267,-331.76 1267,-321.92"/>
<polygon fill="#63b8ff" stroke="#63b8ff" points="1263.5,-356.53 1267,-366.53 1270.5,-356.53 1263.5,-356.53"/>
</g>
<!-- Node25 -->
<g id="node25" class="node">
<title>Node25</title>
<g id="a_node25"><a xlink:href="Destroy_8cpp.html" target="_top" xlink:title=" ">
<polygon fill="white" stroke="#666666" points="333,-398.5 211,-398.5 211,-368.5 333,-368.5 333,-398.5"/>
<text text-anchor="start" x="219" y="-386.5" font-family="Helvetica,sans-Serif" font-size="10.00">/github/workspace/client</text>
<text text-anchor="middle" x="272" y="-375.5" font-family="Helvetica,sans-Serif" font-size="10.00">/src/Destroy.cpp</text>
</a>
</g>
</g>
<!-- Node24&#45;&gt;Node25 -->
<g id="edge37" class="edge">
<title>Node24&#45;&gt;Node25</title>
<path fill="none" stroke="#63b8ff" d="M272,-428.26C272,-418.33 272,-407.36 272,-398.88"/>
<polygon fill="#63b8ff" stroke="#63b8ff" points="268.5,-428.09 272,-438.09 275.5,-428.09 268.5,-428.09"/>
</g>
<!-- Node27 -->
<g id="node27" class="node">
<title>Node27</title>
<g id="a_node27"><a xlink:href="Draw_8cpp.html" target="_top" xlink:title=" ">
<polygon fill="white" stroke="#666666" points="651,-398.5 529,-398.5 529,-368.5 651,-368.5 651,-398.5"/>
<text text-anchor="start" x="537" y="-386.5" font-family="Helvetica,sans-Serif" font-size="10.00">/github/workspace/client</text>
<text text-anchor="middle" x="590" y="-375.5" font-family="Helvetica,sans-Serif" font-size="10.00">/src/Draw.cpp</text>
</a>
</g>
</g>
<!-- Node26&#45;&gt;Node27 -->
<g id="edge39" class="edge">
<title>Node26&#45;&gt;Node27</title>
<path fill="none" stroke="#63b8ff" d="M573.39,-428.91C577.16,-418.82 581.38,-407.54 584.62,-398.88"/>
<polygon fill="#63b8ff" stroke="#63b8ff" points="570.14,-427.59 569.92,-438.18 576.7,-430.04 570.14,-427.59"/>
</g>
<!-- Node28&#45;&gt;Node11 -->
<g id="edge42" class="edge">
<title>Node28&#45;&gt;Node11</title>
<path fill="none" stroke="#63b8ff" d="M398.34,-431.22C391.5,-423.2 384.59,-413.74 380,-404 361.36,-364.46 361,-351.21 361,-307.5 361,-307.5 361,-307.5 361,-151.5 361,-41.08 525.28,-19.39 617.69,-15.92"/>
<polygon fill="#63b8ff" stroke="#63b8ff" points="395.6,-433.4 404.89,-438.48 400.79,-428.71 395.6,-433.4"/>
</g>
<!-- Node29 -->
<g id="node29" class="node">
<title>Node29</title>
<g id="a_node29"><a xlink:href="Error_8cpp.html" target="_top" xlink:title=" ">
<polygon fill="white" stroke="#666666" points="511,-398.5 389,-398.5 389,-368.5 511,-368.5 511,-398.5"/>
<text text-anchor="start" x="397" y="-386.5" font-family="Helvetica,sans-Serif" font-size="10.00">/github/workspace/client</text>
<text text-anchor="middle" x="450" y="-375.5" font-family="Helvetica,sans-Serif" font-size="10.00">/src/Error.cpp</text>
</a>
</g>
</g>
<!-- Node28&#45;&gt;Node29 -->
<g id="edge41" class="edge">
<title>Node28&#45;&gt;Node29</title>
<path fill="none" stroke="#63b8ff" d="M431.33,-429.23C435.58,-419.06 440.35,-407.64 444,-398.88"/>
<polygon fill="#63b8ff" stroke="#63b8ff" points="428.21,-427.63 427.59,-438.2 434.67,-430.32 428.21,-427.63"/>
</g>
<!-- Node30&#45;&gt;Node2 -->
<g id="edge44" class="edge">
<title>Node30&#45;&gt;Node2</title>
<path fill="none" stroke="#63b8ff" d="M1179.09,-476.13C1195.02,-485.77 1212.67,-497.07 1225.3,-505.8"/>
<polygon fill="#63b8ff" stroke="#63b8ff" points="1181.13,-473.27 1170.75,-471.16 1177.54,-479.29 1181.13,-473.27"/>
</g>
<!-- Node30&#45;&gt;Node31 -->
<g id="edge45" class="edge">
<title>Node30&#45;&gt;Node31</title>
<path fill="none" stroke="#63b8ff" d="M1126.77,-429.88C1120.68,-419.55 1113.76,-407.82 1108.48,-398.88"/>
<polygon fill="#63b8ff" stroke="#63b8ff" points="1123.64,-431.46 1131.74,-438.3 1129.67,-427.9 1123.64,-431.46"/>
</g>
<!-- Node33&#45;&gt;Node10 -->
<g id="edge48" class="edge">
<title>Node33&#45;&gt;Node10</title>
<path fill="none" stroke="#63b8ff" d="M2410.24,-361.19C2376.18,-334.81 2326,-286.46 2326,-230.5 2326,-230.5 2326,-230.5 2326,-151.5 2326,-75.51 2077.67,-36.67 1959.32,-22.47"/>
<polygon fill="#63b8ff" stroke="#63b8ff" points="2408.06,-363.93 2418.16,-367.13 2412.26,-358.33 2408.06,-363.93"/>
</g>
<!-- Node35&#45;&gt;Node2 -->
<g id="edge51" class="edge">
<title>Node35&#45;&gt;Node2</title>
<path fill="none" stroke="#63b8ff" d="M2199.45,-471.13C1817.5,-511.4 1713.52,-462.74 1327,-506 1321.13,-506.66 1315.04,-507.5 1308.92,-508.45"/>
<polygon fill="#63b8ff" stroke="#63b8ff" points="2199.76,-474.61 2209.33,-470.07 2199.01,-467.65 2199.76,-474.61"/>
</g>
<!-- Node35&#45;&gt;Node33 -->
<g id="edge52" class="edge">
<title>Node35&#45;&gt;Node33</title>
<path fill="none" stroke="#63b8ff" d="M2323.86,-435.07C2350.29,-423.66 2383.41,-409.36 2407.68,-398.88"/>
<polygon fill="#63b8ff" stroke="#63b8ff" points="2322.54,-431.82 2314.75,-439 2325.32,-438.25 2322.54,-431.82"/>
</g>
<!-- Node36 -->
<g id="node36" class="node">
<title>Node36</title>
<g id="a_node36"><a xlink:href="Window_8cpp.html" target="_top" xlink:title=" ">
<polygon fill="white" stroke="#666666" points="2341,-398.5 2219,-398.5 2219,-368.5 2341,-368.5 2341,-398.5"/>
<text text-anchor="start" x="2227" y="-386.5" font-family="Helvetica,sans-Serif" font-size="10.00">/github/workspace/client</text>
<text text-anchor="middle" x="2280" y="-375.5" font-family="Helvetica,sans-Serif" font-size="10.00">/src/Window.cpp</text>
</a>
</g>
</g>
<!-- Node35&#45;&gt;Node36 -->
<g id="edge53" class="edge">
<title>Node35&#45;&gt;Node36</title>
<path fill="none" stroke="#63b8ff" d="M2280,-428.26C2280,-418.33 2280,-407.36 2280,-398.88"/>
<polygon fill="#63b8ff" stroke="#63b8ff" points="2276.5,-428.09 2280,-438.09 2283.5,-428.09 2276.5,-428.09"/>
</g>
<!-- Node38 -->
<g id="node38" class="node">
<title>Node38</title>
<g id="a_node38"><a xlink:href="Enemy_8hpp.html" target="_top" xlink:title=" ">
<polygon fill="white" stroke="#666666" points="2027,-398.5 1869,-398.5 1869,-368.5 2027,-368.5 2027,-398.5"/>
<text text-anchor="start" x="1877" y="-386.5" font-family="Helvetica,sans-Serif" font-size="10.00">/github/workspace/client</text>
<text text-anchor="middle" x="1948" y="-375.5" font-family="Helvetica,sans-Serif" font-size="10.00">/include/Components/Enemy.hpp</text>
</a>
</g>
</g>
<!-- Node37&#45;&gt;Node38 -->
<g id="edge56" class="edge">
<title>Node37&#45;&gt;Node38</title>
<path fill="none" stroke="#63b8ff" d="M2071.7,-435.37C2043.84,-423.91 2008.68,-409.45 1982.97,-398.88"/>
<polygon fill="#63b8ff" stroke="#63b8ff" points="2070,-438.46 2080.58,-439.02 2072.67,-431.98 2070,-438.46"/>
</g>
<!-- Node39 -->
<g id="node39" class="node">
<title>Node39</title>
<g id="a_node39"><a xlink:href="Player_8hpp.html" target="_top" xlink:title=" ">
<polygon fill="white" stroke="#666666" points="2201,-398.5 2045,-398.5 2045,-368.5 2201,-368.5 2201,-398.5"/>
<text text-anchor="start" x="2053" y="-386.5" font-family="Helvetica,sans-Serif" font-size="10.00">/github/workspace/client</text>
<text text-anchor="middle" x="2123" y="-375.5" font-family="Helvetica,sans-Serif" font-size="10.00">/include/Components/Player.hpp</text>
</a>
</g>
</g>
<!-- Node37&#45;&gt;Node39 -->
<g id="edge57" class="edge">
<title>Node37&#45;&gt;Node39</title>
<path fill="none" stroke="#63b8ff" d="M2119.22,-428.26C2120.08,-418.33 2121.03,-407.36 2121.76,-398.88"/>
<polygon fill="#63b8ff" stroke="#63b8ff" points="2115.75,-427.83 2118.37,-438.09 2122.72,-428.43 2115.75,-427.83"/>
</g>
<!-- Node40 -->
<g id="node40" class="node">
<title>Node40</title>
<g id="a_node40"><a xlink:href="Player_8cpp.html" target="_top" xlink:title=" ">
<polygon fill="white" stroke="#666666" points="2184,-321.5 2062,-321.5 2062,-291.5 2184,-291.5 2184,-321.5"/>
<text text-anchor="start" x="2070" y="-309.5" font-family="Helvetica,sans-Serif" font-size="10.00">/github/workspace/client</text>
<text text-anchor="middle" x="2123" y="-298.5" font-family="Helvetica,sans-Serif" font-size="10.00">/src/Player.cpp</text>
</a>
</g>
</g>
<!-- Node39&#45;&gt;Node40 -->
<g id="edge58" class="edge">
<title>Node39&#45;&gt;Node40</title>
<path fill="none" stroke="#63b8ff" d="M2123,-356.73C2123,-345.08 2123,-331.76 2123,-321.92"/>
<polygon fill="#63b8ff" stroke="#63b8ff" points="2119.5,-356.53 2123,-366.53 2126.5,-356.53 2119.5,-356.53"/>
</g>
</g>
</svg>
