<?xml version="1.0" encoding="UTF-8" standalone="no"?>
<!DOCTYPE svg PUBLIC "-//W3C//DTD SVG 1.1//EN"
 "http://www.w3.org/Graphics/SVG/1.1/DTD/svg11.dtd">
<!-- Generated by graphviz version 7.0.5 (20221223.1930)
 -->
<!-- Title: /github/workspace/client/src/Bullets.cpp Pages: 1 -->
<!--zoomable 368 -->
<svg id="main" version="1.1" xmlns="http://www.w3.org/2000/svg" xmlns:xlink="http://www.w3.org/1999/xlink" xml:space="preserve" onload="init(evt)">
<style type="text/css"><![CDATA[
.edge:hover path { stroke: red; }
.edge:hover polygon { stroke: red; fill: red; }
]]></style>
<script type="text/javascript"><![CDATA[
var edges = document.getElementsByTagName('g');
if (edges && edges.length) {
  for (var i=0;i<edges.length;i++) {
    if (edges[i].id.substr(0,4)=='edge') {
      edges[i].setAttribute('class','edge');
    }
  }
}
]]></script>
        <defs>
                <circle id="rim" cx="0" cy="0" r="7"/>
                <circle id="rim2" cx="0" cy="0" r="3.5"/>
                <g id="zoomPlus">
                        <use xlink:href="#rim" fill="#404040">
                                <set attributeName="fill" to="#808080" begin="zoomplus.mouseover" end="zoomplus.mouseout"/>
                        </use>
                        <path d="M-4,0h8M0,-4v8" fill="none" stroke="white" stroke-width="1.5" pointer-events="none"/>
                </g>
                <g id="zoomMin">
                        <use xlink:href="#rim" fill="#404040">
                                <set attributeName="fill" to="#808080" begin="zoomminus.mouseover" end="zoomminus.mouseout"/>
                        </use>
                        <path d="M-4,0h8" fill="none" stroke="white" stroke-width="1.5" pointer-events="none"/>
                </g>
                <g id="dirArrow">
                        <path fill="none" stroke="white" stroke-width="1.5" d="M0,-3.0v7 M-2.5,-0.5L0,-3.0L2.5,-0.5"/>
                </g>
               <g id="resetDef">
                       <use xlink:href="#rim2" fill="#404040">
                               <set attributeName="fill" to="#808080" begin="reset.mouseover" end="reset.mouseout"/>
                       </use>
               </g>
        </defs>

<script type="text/javascript">
var viewWidth = 1842;
var viewHeight = 368;
var sectionId = 'dynsection-0';
</script>
<script xlink:href="svgpan.js"/>
<svg id="graph" class="graph">
<g id="viewport">
<title>/github/workspace/client/src/Bullets.cpp</title>
<!-- Node1 -->
<g id="node1" class="node">
<title>Node1</title>
<g id="a_node1"><a xlink:title=" ">
<polygon fill="#999999" stroke="#666666" points="1371.5,-360 1249.5,-360 1249.5,-330 1371.5,-330 1371.5,-360"/>
<text text-anchor="start" x="1257.5" y="-348" font-family="Helvetica,sans-Serif" font-size="10.00">/github/workspace/client</text>
<text text-anchor="middle" x="1310.5" y="-337" font-family="Helvetica,sans-Serif" font-size="10.00">/src/Bullets.cpp</text>
</a>
</g>
</g>
<!-- Node2 -->
<g id="node2" class="node">
<title>Node2</title>
<g id="a_node2"><a xlink:href="Bullets_8hpp.html" target="_top" xlink:title=" ">
<polygon fill="white" stroke="#666666" points="1371.5,-294 1249.5,-294 1249.5,-275 1371.5,-275 1371.5,-294"/>
<text text-anchor="middle" x="1310.5" y="-282" font-family="Helvetica,sans-Serif" font-size="10.00">Components/Bullets.hpp</text>
</a>
</g>
</g>
<!-- Node1&#45;&gt;Node2 -->
<g id="edge1" class="edge">
<title>Node1&#45;&gt;Node2</title>
<path fill="none" stroke="#63b8ff" d="M1310.5,-329.54C1310.5,-322.34 1310.5,-313.53 1310.5,-305.68"/>
<polygon fill="#63b8ff" stroke="#63b8ff" points="1314,-305.69 1310.5,-295.69 1307,-305.69 1314,-305.69"/>
</g>
<!-- Node3 -->
<g id="node3" class="node">
<title>Node3</title>
<g id="a_node3"><a xlink:href="Engine_8hpp.html" target="_top" xlink:title=" ">
<polygon fill="white" stroke="#666666" points="910.5,-239 814.5,-239 814.5,-220 910.5,-220 910.5,-239"/>
<text text-anchor="middle" x="862.5" y="-227" font-family="Helvetica,sans-Serif" font-size="10.00">Engine/Engine.hpp</text>
</a>
</g>
</g>
<!-- Node2&#45;&gt;Node3 -->
<g id="edge2" class="edge">
<title>Node2&#45;&gt;Node3</title>
<path fill="none" stroke="#63b8ff" d="M1249.09,-276.79C1162.89,-266.91 1007.23,-248.5 922.05,-238.13"/>
<polygon fill="#63b8ff" stroke="#63b8ff" points="922.61,-234.67 912.26,-236.93 921.76,-241.62 922.61,-234.67"/>
</g>
<!-- Node24 -->
<g id="node24" class="node">
<title>Node24</title>
<g id="a_node24"><a xlink:href="IComponents_8hpp.html" target="_top" xlink:title=" ">
<polygon fill="white" stroke="#666666" points="1450.5,-129 1292.5,-129 1292.5,-110 1450.5,-110 1450.5,-129"/>
<text text-anchor="middle" x="1371.5" y="-117" font-family="Helvetica,sans-Serif" font-size="10.00">../Components/IComponents.hpp</text>
</a>
</g>
</g>
<!-- Node2&#45;&gt;Node24 -->
<g id="edge43" class="edge">
<title>Node2&#45;&gt;Node24</title>
<path fill="none" stroke="#63b8ff" d="M1371.62,-278.51C1479.15,-268.33 1695.08,-241.13 1740.5,-184 1776.6,-138.59 1582.98,-125.63 1462.42,-121.95"/>
<polygon fill="#63b8ff" stroke="#63b8ff" points="1462.6,-118.45 1452.51,-121.67 1462.4,-125.45 1462.6,-118.45"/>
</g>
<!-- Node31 -->
<g id="node31" class="node">
<title>Node31</title>
<g id="a_node31"><a xlink:title=" ">
<polygon fill="#e0e0e0" stroke="#999999" points="1833.5,-239 1787.5,-239 1787.5,-220 1833.5,-220 1833.5,-239"/>
<text text-anchor="middle" x="1810.5" y="-227" font-family="Helvetica,sans-Serif" font-size="10.00">math.h</text>
</a>
</g>
</g>
<!-- Node2&#45;&gt;Node31 -->
<g id="edge44" class="edge">
<title>Node2&#45;&gt;Node31</title>
<path fill="none" stroke="#63b8ff" d="M1371.87,-280.15C1460.83,-274.71 1630.62,-262.18 1773.5,-239 1774.33,-238.87 1775.17,-238.72 1776.01,-238.57"/>
<polygon fill="#63b8ff" stroke="#63b8ff" points="1776.5,-242.05 1785.62,-236.65 1775.13,-235.18 1776.5,-242.05"/>
</g>
<!-- Node3&#45;&gt;Node2 -->
<g id="edge40" class="edge">
<title>Node3&#45;&gt;Node2</title>
<path fill="none" stroke="#63b8ff" d="M910.72,-235.7C989.51,-244.67 1146.04,-263.15 1238.17,-274.32"/>
<polygon fill="#63b8ff" stroke="#63b8ff" points="1237.5,-277.77 1247.85,-275.5 1238.34,-270.82 1237.5,-277.77"/>
</g>
<!-- Node4 -->
<g id="node4" class="node">
<title>Node4</title>
<g id="a_node4"><a xlink:title=" ">
<polygon fill="#e0e0e0" stroke="#999999" points="1489,-184 1400,-184 1400,-165 1489,-165 1489,-184"/>
<text text-anchor="middle" x="1444.5" y="-172" font-family="Helvetica,sans-Serif" font-size="10.00">SFML/Audio.hpp</text>
</a>
</g>
</g>
<!-- Node3&#45;&gt;Node4 -->
<g id="edge3" class="edge">
<title>Node3&#45;&gt;Node4</title>
<path fill="none" stroke="#63b8ff" d="M910.9,-225.33C1003.32,-219.06 1211.22,-203.95 1385.5,-184 1386.51,-183.88 1387.53,-183.76 1388.56,-183.64"/>
<polygon fill="#63b8ff" stroke="#63b8ff" points="1388.77,-187.14 1398.26,-182.42 1387.9,-180.2 1388.77,-187.14"/>
</g>
<!-- Node5 -->
<g id="node5" class="node">
<title>Node5</title>
<g id="a_node5"><a xlink:title=" ">
<polygon fill="#e0e0e0" stroke="#999999" points="1611.5,-184 1507.5,-184 1507.5,-165 1611.5,-165 1611.5,-184"/>
<text text-anchor="middle" x="1559.5" y="-172" font-family="Helvetica,sans-Serif" font-size="10.00">SFML/Graphics.hpp</text>
</a>
</g>
</g>
<!-- Node3&#45;&gt;Node5 -->
<g id="edge4" class="edge">
<title>Node3&#45;&gt;Node5</title>
<path fill="none" stroke="#63b8ff" d="M910.87,-226.25C1015.53,-221.14 1271.03,-207.34 1495.92,-184.2"/>
<polygon fill="#63b8ff" stroke="#63b8ff" points="1496.2,-187.69 1505.78,-183.17 1495.47,-180.72 1496.2,-187.69"/>
</g>
<!-- Node6 -->
<g id="node6" class="node">
<title>Node6</title>
<g id="a_node6"><a xlink:title=" ">
<polygon fill="#e0e0e0" stroke="#999999" points="1731,-184 1630,-184 1630,-165 1731,-165 1731,-184"/>
<text text-anchor="middle" x="1680.5" y="-172" font-family="Helvetica,sans-Serif" font-size="10.00">SFML/Network.hpp</text>
</a>
</g>
</g>
<!-- Node3&#45;&gt;Node6 -->
<g id="edge5" class="edge">
<title>Node3&#45;&gt;Node6</title>
<path fill="none" stroke="#63b8ff" d="M910.94,-227.04C1029.6,-223.15 1344.48,-211.07 1618.43,-184.11"/>
<polygon fill="#63b8ff" stroke="#63b8ff" points="1618.69,-187.6 1628.29,-183.13 1617.99,-180.64 1618.69,-187.6"/>
</g>
<!-- Node7 -->
<g id="node7" class="node">
<title>Node7</title>
<g id="a_node7"><a xlink:title=" ">
<polygon fill="#e0e0e0" stroke="#999999" points="99,-184 0,-184 0,-165 99,-165 99,-184"/>
<text text-anchor="middle" x="49.5" y="-172" font-family="Helvetica,sans-Serif" font-size="10.00">SFML/Window.hpp</text>
</a>
</g>
</g>
<!-- Node3&#45;&gt;Node7 -->
<g id="edge6" class="edge">
<title>Node3&#45;&gt;Node7</title>
<path fill="none" stroke="#63b8ff" d="M814.31,-227.06C696.27,-223.24 383.04,-211.28 110.66,-184.12"/>
<polygon fill="#63b8ff" stroke="#63b8ff" points="111.16,-180.65 100.86,-183.14 110.46,-187.62 111.16,-180.65"/>
</g>
<!-- Node8 -->
<g id="node8" class="node">
<title>Node8</title>
<g id="a_node8"><a xlink:title=" ">
<polygon fill="#e0e0e0" stroke="#999999" points="215.5,-184 117.5,-184 117.5,-165 215.5,-165 215.5,-184"/>
<text text-anchor="middle" x="166.5" y="-172" font-family="Helvetica,sans-Serif" font-size="10.00">SFML/System.hpp</text>
</a>
</g>
</g>
<!-- Node3&#45;&gt;Node8 -->
<g id="edge7" class="edge">
<title>Node3&#45;&gt;Node8</title>
<path fill="none" stroke="#63b8ff" d="M814.37,-226.17C708.46,-220.81 447.32,-206.33 229.5,-184 228.68,-183.92 227.85,-183.83 227.01,-183.74"/>
<polygon fill="#63b8ff" stroke="#63b8ff" points="227.82,-180.31 217.49,-182.65 227.03,-187.26 227.82,-180.31"/>
</g>
<!-- Node9 -->
<g id="node9" class="node">
<title>Node9</title>
<g id="a_node9"><a xlink:title=" ">
<polygon fill="#e0e0e0" stroke="#999999" points="556.5,-19 502.5,-19 502.5,0 556.5,0 556.5,-19"/>
<text text-anchor="middle" x="529.5" y="-7" font-family="Helvetica,sans-Serif" font-size="10.00">iostream</text>
</a>
</g>
</g>
<!-- Node3&#45;&gt;Node9 -->
<g id="edge8" class="edge">
<title>Node3&#45;&gt;Node9</title>
<path fill="none" stroke="#63b8ff" d="M814.47,-228.6C678.75,-228.38 299.77,-224.14 262.5,-184 185.92,-101.53 399.98,-40.51 490.86,-18.97"/>
<polygon fill="#63b8ff" stroke="#63b8ff" points="491.65,-22.38 500.59,-16.71 490.06,-15.57 491.65,-22.38"/>
</g>
<!-- Node10 -->
<g id="node10" class="node">
<title>Node10</title>
<g id="a_node10"><a xlink:title=" ">
<polygon fill="#e0e0e0" stroke="#999999" points="321.5,-184 271.5,-184 271.5,-165 321.5,-165 321.5,-184"/>
<text text-anchor="middle" x="296.5" y="-172" font-family="Helvetica,sans-Serif" font-size="10.00">fstream</text>
</a>
</g>
</g>
<!-- Node3&#45;&gt;Node10 -->
<g id="edge9" class="edge">
<title>Node3&#45;&gt;Node10</title>
<path fill="none" stroke="#63b8ff" d="M814.13,-227.07C722.16,-223.78 515.69,-213.7 332.83,-184.11"/>
<polygon fill="#63b8ff" stroke="#63b8ff" points="333.59,-180.68 323.15,-182.52 332.45,-187.59 333.59,-180.68"/>
</g>
<!-- Node11 -->
<g id="node11" class="node">
<title>Node11</title>
<g id="a_node11"><a xlink:title=" ">
<polygon fill="#e0e0e0" stroke="#999999" points="387.5,-184 339.5,-184 339.5,-165 387.5,-165 387.5,-184"/>
<text text-anchor="middle" x="363.5" y="-172" font-family="Helvetica,sans-Serif" font-size="10.00">string.h</text>
</a>
</g>
</g>
<!-- Node3&#45;&gt;Node11 -->
<g id="edge10" class="edge">
<title>Node3&#45;&gt;Node11</title>
<path fill="none" stroke="#63b8ff" d="M814.2,-226.39C731.2,-222.22 556.05,-211.04 399.18,-184.2"/>
<polygon fill="#63b8ff" stroke="#63b8ff" points="399.86,-180.77 389.41,-182.5 398.66,-187.67 399.86,-180.77"/>
</g>
<!-- Node12 -->
<g id="node12" class="node">
<title>Node12</title>
<g id="a_node12"><a xlink:title=" ">
<polygon fill="#e0e0e0" stroke="#999999" points="455.5,-184 405.5,-184 405.5,-165 455.5,-165 455.5,-184"/>
<text text-anchor="middle" x="430.5" y="-172" font-family="Helvetica,sans-Serif" font-size="10.00">unistd.h</text>
</a>
</g>
</g>
<!-- Node3&#45;&gt;Node12 -->
<g id="edge11" class="edge">
<title>Node3&#45;&gt;Node12</title>
<path fill="none" stroke="#63b8ff" d="M814.11,-225.19C740.94,-219.72 597.66,-207.23 466.69,-184.16"/>
<polygon fill="#63b8ff" stroke="#63b8ff" points="467.62,-180.77 457.16,-182.46 466.39,-187.66 467.62,-180.77"/>
</g>
<!-- Node13 -->
<g id="node13" class="node">
<title>Node13</title>
<g id="a_node13"><a xlink:title=" ">
<polygon fill="#e0e0e0" stroke="#999999" points="539,-184 474,-184 474,-165 539,-165 539,-184"/>
<text text-anchor="middle" x="506.5" y="-172" font-family="Helvetica,sans-Serif" font-size="10.00">sys/types.h</text>
</a>
</g>
</g>
<!-- Node3&#45;&gt;Node13 -->
<g id="edge12" class="edge">
<title>Node3&#45;&gt;Node13</title>
<path fill="none" stroke="#63b8ff" d="M814.25,-222.1C753.37,-213.89 645.52,-198.94 553.5,-184 552.5,-183.84 551.48,-183.67 550.46,-183.5"/>
<polygon fill="#63b8ff" stroke="#63b8ff" points="551.28,-180.09 540.84,-181.85 550.1,-186.99 551.28,-180.09"/>
</g>
<!-- Node14 -->
<g id="node14" class="node">
<title>Node14</title>
<g id="a_node14"><a xlink:title=" ">
<polygon fill="#e0e0e0" stroke="#999999" points="918.5,-19 874.5,-19 874.5,0 918.5,0 918.5,-19"/>
<text text-anchor="middle" x="896.5" y="-7" font-family="Helvetica,sans-Serif" font-size="10.00">vector</text>
</a>
</g>
</g>
<!-- Node3&#45;&gt;Node14 -->
<g id="edge13" class="edge">
<title>Node3&#45;&gt;Node14</title>
<path fill="none" stroke="#63b8ff" d="M814.12,-227.93C742.91,-225.95 615.18,-217.67 586.5,-184 581.02,-177.57 582.06,-172.18 586.5,-165 648.45,-64.91 796.91,-27.55 863.36,-15.51"/>
<polygon fill="#63b8ff" stroke="#63b8ff" points="863.65,-19.01 872.92,-13.87 862.47,-12.12 863.65,-19.01"/>
</g>
<!-- Node15 -->
<g id="node15" class="node">
<title>Node15</title>
<g id="a_node15"><a xlink:title=" ">
<polygon fill="#e0e0e0" stroke="#999999" points="651.5,-184 595.5,-184 595.5,-165 651.5,-165 651.5,-184"/>
<text text-anchor="middle" x="623.5" y="-172" font-family="Helvetica,sans-Serif" font-size="10.00">stdbool.h</text>
</a>
</g>
</g>
<!-- Node3&#45;&gt;Node15 -->
<g id="edge14" class="edge">
<title>Node3&#45;&gt;Node15</title>
<path fill="none" stroke="#63b8ff" d="M821.47,-219.57C782.95,-211.17 723.43,-198.12 662.72,-184.48"/>
<polygon fill="#63b8ff" stroke="#63b8ff" points="663.78,-181.13 653.25,-182.36 662.24,-187.96 663.78,-181.13"/>
</g>
<!-- Node16 -->
<g id="node16" class="node">
<title>Node16</title>
<g id="a_node16"><a xlink:title=" ">
<polygon fill="#e0e0e0" stroke="#999999" points="717,-184 670,-184 670,-165 717,-165 717,-184"/>
<text text-anchor="middle" x="693.5" y="-172" font-family="Helvetica,sans-Serif" font-size="10.00">stdlib.h</text>
</a>
</g>
</g>
<!-- Node3&#45;&gt;Node16 -->
<g id="edge15" class="edge">
<title>Node3&#45;&gt;Node16</title>
<path fill="none" stroke="#63b8ff" d="M833.83,-219.51C804.64,-210.36 759.37,-196.16 728.18,-186.38"/>
<polygon fill="#63b8ff" stroke="#63b8ff" points="729.42,-183.1 718.83,-183.44 727.32,-189.77 729.42,-183.1"/>
</g>
<!-- Node17 -->
<g id="node17" class="node">
<title>Node17</title>
<g id="a_node17"><a xlink:title=" ">
<polygon fill="#e0e0e0" stroke="#999999" points="793.5,-184 735.5,-184 735.5,-165 793.5,-165 793.5,-184"/>
<text text-anchor="middle" x="764.5" y="-172" font-family="Helvetica,sans-Serif" font-size="10.00">exception</text>
</a>
</g>
</g>
<!-- Node3&#45;&gt;Node17 -->
<g id="edge16" class="edge">
<title>Node3&#45;&gt;Node17</title>
<path fill="none" stroke="#63b8ff" d="M845.88,-219.51C830.72,-211.31 808.08,-199.07 790.53,-189.58"/>
<polygon fill="#63b8ff" stroke="#63b8ff" points="792.67,-186.76 782.21,-185.08 789.34,-192.91 792.67,-186.76"/>
</g>
<!-- Node18 -->
<g id="node18" class="node">
<title>Node18</title>
<g id="a_node18"><a xlink:href="Window_8hpp.html" target="_top" xlink:title=" ">
<polygon fill="white" stroke="#666666" points="913,-184 812,-184 812,-165 913,-165 913,-184"/>
<text text-anchor="middle" x="862.5" y="-172" font-family="Helvetica,sans-Serif" font-size="10.00">Engine/Window.hpp</text>
</a>
</g>
</g>
<!-- Node3&#45;&gt;Node18 -->
<g id="edge17" class="edge">
<title>Node3&#45;&gt;Node18</title>
<path fill="none" stroke="#63b8ff" d="M857.33,-219.75C855.92,-213.19 855.46,-203.95 855.93,-195.6"/>
<polygon fill="#63b8ff" stroke="#63b8ff" points="859.37,-196.3 857.11,-185.94 852.42,-195.45 859.37,-196.3"/>
</g>
<!-- Node19 -->
<g id="node19" class="node">
<title>Node19</title>
<g id="a_node19"><a xlink:href="Event_8hpp.html" target="_top" xlink:title=" ">
<polygon fill="white" stroke="#666666" points="1023.5,-184 931.5,-184 931.5,-165 1023.5,-165 1023.5,-184"/>
<text text-anchor="middle" x="977.5" y="-172" font-family="Helvetica,sans-Serif" font-size="10.00">Engine/Event.hpp</text>
</a>
</g>
</g>
<!-- Node3&#45;&gt;Node19 -->
<g id="edge19" class="edge">
<title>Node3&#45;&gt;Node19</title>
<path fill="none" stroke="#63b8ff" d="M876.79,-219.51C893.31,-211.08 920.63,-198.38 942.73,-188.79"/>
<polygon fill="#63b8ff" stroke="#63b8ff" points="943.88,-192.1 951.7,-184.95 941.13,-185.66 943.88,-192.1"/>
</g>
<!-- Node23 -->
<g id="node23" class="node">
<title>Node23</title>
<g id="a_node23"><a xlink:href="EntitiesManager_8hpp.html" target="_top" xlink:title=" ">
<polygon fill="white" stroke="#666666" points="1181.5,-184 1041.5,-184 1041.5,-165 1181.5,-165 1181.5,-184"/>
<text text-anchor="middle" x="1111.5" y="-172" font-family="Helvetica,sans-Serif" font-size="10.00">Entities/EntitiesManager.hpp</text>
</a>
</g>
</g>
<!-- Node3&#45;&gt;Node23 -->
<g id="edge24" class="edge">
<title>Node3&#45;&gt;Node23</title>
<path fill="none" stroke="#63b8ff" d="M899.52,-219.51C940.15,-210.46 1005.69,-196.48 1053.21,-186.71"/>
<polygon fill="#63b8ff" stroke="#63b8ff" points="1053.68,-190.18 1062.78,-184.75 1052.28,-183.33 1053.68,-190.18"/>
</g>
<!-- Node30 -->
<g id="node30" class="node">
<title>Node30</title>
<g id="a_node30"><a xlink:href="Background_8hpp.html" target="_top" xlink:title=" ">
<polygon fill="white" stroke="#666666" points="1343.5,-184 1199.5,-184 1199.5,-165 1343.5,-165 1343.5,-184"/>
<text text-anchor="middle" x="1271.5" y="-172" font-family="Helvetica,sans-Serif" font-size="10.00">Components/Background.hpp</text>
</a>
</g>
</g>
<!-- Node3&#45;&gt;Node30 -->
<g id="edge41" class="edge">
<title>Node3&#45;&gt;Node30</title>
<path fill="none" stroke="#63b8ff" d="M910.83,-221.63C979.06,-212.47 1104.4,-196.2 1187.89,-185.63"/>
<polygon fill="#63b8ff" stroke="#63b8ff" points="1188.14,-189.13 1197.62,-184.4 1187.26,-182.18 1188.14,-189.13"/>
</g>
<!-- Node18&#45;&gt;Node3 -->
<g id="edge18" class="edge">
<title>Node18&#45;&gt;Node3</title>
<path fill="none" stroke="#63b8ff" d="M867.71,-184.44C869.08,-190.97 869.54,-200.1 869.07,-208.35"/>
<polygon fill="#63b8ff" stroke="#63b8ff" points="865.6,-207.89 867.85,-218.25 872.55,-208.75 865.6,-207.89"/>
</g>
<!-- Node19&#45;&gt;Node3 -->
<g id="edge20" class="edge">
<title>Node19&#45;&gt;Node3</title>
<path fill="none" stroke="#63b8ff" d="M963.47,-184.36C947.06,-192.74 919.78,-205.43 897.62,-215.06"/>
<polygon fill="#63b8ff" stroke="#63b8ff" points="896.43,-211.76 888.62,-218.91 899.19,-218.2 896.43,-211.76"/>
</g>
<!-- Node20 -->
<g id="node20" class="node">
<title>Node20</title>
<g id="a_node20"><a xlink:title=" ">
<polygon fill="#e0e0e0" stroke="#999999" points="867,-129 838,-129 838,-110 867,-110 867,-129"/>
<text text-anchor="middle" x="852.5" y="-117" font-family="Helvetica,sans-Serif" font-size="10.00">list</text>
</a>
</g>
</g>
<!-- Node19&#45;&gt;Node20 -->
<g id="edge21" class="edge">
<title>Node19&#45;&gt;Node20</title>
<path fill="none" stroke="#63b8ff" d="M956.3,-164.51C934.51,-155.27 900.6,-140.89 877.51,-131.11"/>
<polygon fill="#63b8ff" stroke="#63b8ff" points="879.12,-127.98 868.54,-127.3 876.38,-134.43 879.12,-127.98"/>
</g>
<!-- Node21 -->
<g id="node21" class="node">
<title>Node21</title>
<g id="a_node21"><a xlink:title=" ">
<polygon fill="#e0e0e0" stroke="#999999" points="928,-129 885,-129 885,-110 928,-110 928,-129"/>
<text text-anchor="middle" x="906.5" y="-117" font-family="Helvetica,sans-Serif" font-size="10.00">queue</text>
</a>
</g>
</g>
<!-- Node19&#45;&gt;Node21 -->
<g id="edge22" class="edge">
<title>Node19&#45;&gt;Node21</title>
<path fill="none" stroke="#63b8ff" d="M965.46,-164.51C955.09,-156.77 939.9,-145.43 927.53,-136.2"/>
<polygon fill="#63b8ff" stroke="#63b8ff" points="929.69,-133.44 919.58,-130.26 925.5,-139.05 929.69,-133.44"/>
</g>
<!-- Node22 -->
<g id="node22" class="node">
<title>Node22</title>
<g id="a_node22"><a xlink:title=" ">
<polygon fill="#e0e0e0" stroke="#999999" points="1008.5,-129 946.5,-129 946.5,-110 1008.5,-110 1008.5,-129"/>
<text text-anchor="middle" x="977.5" y="-117" font-family="Helvetica,sans-Serif" font-size="10.00">Skaldi.hpp</text>
</a>
</g>
</g>
<!-- Node19&#45;&gt;Node22 -->
<g id="edge23" class="edge">
<title>Node19&#45;&gt;Node22</title>
<path fill="none" stroke="#63b8ff" d="M977.5,-164.75C977.5,-158.27 977.5,-149.16 977.5,-140.9"/>
<polygon fill="#63b8ff" stroke="#63b8ff" points="981,-140.96 977.5,-130.96 974,-140.96 981,-140.96"/>
</g>
<!-- Node23&#45;&gt;Node3 -->
<g id="edge25" class="edge">
<title>Node23&#45;&gt;Node3</title>
<path fill="none" stroke="#63b8ff" d="M1074.68,-184.45C1034.14,-193.48 968.6,-207.46 921.03,-217.24"/>
<polygon fill="#63b8ff" stroke="#63b8ff" points="920.53,-213.77 911.44,-219.21 921.94,-220.63 920.53,-213.77"/>
</g>
<!-- Node23&#45;&gt;Node24 -->
<g id="edge26" class="edge">
<title>Node23&#45;&gt;Node24</title>
<path fill="none" stroke="#63b8ff" d="M1155.61,-164.51C1200,-155.46 1268.59,-141.48 1316.51,-131.71"/>
<polygon fill="#63b8ff" stroke="#63b8ff" points="1317.03,-135.18 1326.13,-129.75 1315.63,-128.32 1317.03,-135.18"/>
</g>
<!-- Node25 -->
<g id="node25" class="node">
<title>Node25</title>
<g id="a_node25"><a xlink:href="SparseArray_8hpp.html" target="_top" xlink:title=" ">
<polygon fill="white" stroke="#666666" points="1138,-129 1027,-129 1027,-110 1138,-110 1138,-129"/>
<text text-anchor="middle" x="1082.5" y="-117" font-family="Helvetica,sans-Serif" font-size="10.00">Utils/SparseArray.hpp</text>
</a>
</g>
</g>
<!-- Node23&#45;&gt;Node25 -->
<g id="edge28" class="edge">
<title>Node23&#45;&gt;Node25</title>
<path fill="none" stroke="#63b8ff" d="M1106.71,-164.75C1102.96,-157.88 1097.59,-148.08 1092.87,-139.45"/>
<polygon fill="#63b8ff" stroke="#63b8ff" points="1095.99,-137.86 1088.12,-130.77 1089.85,-141.22 1095.99,-137.86"/>
</g>
<!-- Node24&#45;&gt;Node3 -->
<g id="edge27" class="edge">
<title>Node24&#45;&gt;Node3</title>
<path fill="none" stroke="#63b8ff" d="M1371.73,-129.11C1371.59,-143.07 1369.07,-170.45 1352.5,-184 1319.83,-210.71 1045.59,-222.7 922.22,-226.78"/>
<polygon fill="#63b8ff" stroke="#63b8ff" points="922.16,-223.28 912.28,-227.1 922.38,-230.28 922.16,-223.28"/>
</g>
<!-- Node25&#45;&gt;Node9 -->
<g id="edge29" class="edge">
<title>Node25&#45;&gt;Node9</title>
<path fill="none" stroke="#63b8ff" d="M1036.78,-109.57C930.22,-88.76 666.96,-37.35 567.96,-18.01"/>
<polygon fill="#63b8ff" stroke="#63b8ff" points="568.7,-14.59 558.21,-16.11 567.36,-21.46 568.7,-14.59"/>
</g>
<!-- Node25&#45;&gt;Node14 -->
<g id="edge32" class="edge">
<title>Node25&#45;&gt;Node14</title>
<path fill="none" stroke="#63b8ff" d="M1030.23,-109.55C1002.85,-103 969.84,-92.01 944.5,-74 927.98,-62.26 914.64,-43.14 906.25,-28.94"/>
<polygon fill="#63b8ff" stroke="#63b8ff" points="909.51,-27.59 901.57,-20.57 903.4,-31.01 909.51,-27.59"/>
</g>
<!-- Node26 -->
<g id="node26" class="node">
<title>Node26</title>
<g id="a_node26"><a xlink:title=" ">
<polygon fill="#e0e0e0" stroke="#999999" points="1009.5,-19 953.5,-19 953.5,0 1009.5,0 1009.5,-19"/>
<text text-anchor="middle" x="981.5" y="-7" font-family="Helvetica,sans-Serif" font-size="10.00">algorithm</text>
</a>
</g>
</g>
<!-- Node25&#45;&gt;Node26 -->
<g id="edge30" class="edge">
<title>Node25&#45;&gt;Node26</title>
<path fill="none" stroke="#63b8ff" d="M1040.44,-109.53C1006.9,-101.43 963.88,-88.56 953.5,-74 943.27,-59.65 953.87,-40.97 964.83,-27.59"/>
<polygon fill="#63b8ff" stroke="#63b8ff" points="967.18,-30.22 971.23,-20.43 961.96,-25.56 967.18,-30.22"/>
</g>
<!-- Node27 -->
<g id="node27" class="node">
<title>Node27</title>
<g id="a_node27"><a xlink:title=" ">
<polygon fill="#e0e0e0" stroke="#999999" points="1073.5,-19 1035.5,-19 1035.5,0 1073.5,0 1073.5,-19"/>
<text text-anchor="middle" x="1054.5" y="-7" font-family="Helvetica,sans-Serif" font-size="10.00">array</text>
</a>
</g>
</g>
<!-- Node25&#45;&gt;Node27 -->
<g id="edge31" class="edge">
<title>Node25&#45;&gt;Node27</title>
<path fill="none" stroke="#63b8ff" d="M1080.21,-109.66C1075.76,-92.5 1065.84,-54.26 1059.71,-30.6"/>
<polygon fill="#63b8ff" stroke="#63b8ff" points="1063.1,-29.73 1057.2,-20.93 1056.32,-31.48 1063.1,-29.73"/>
</g>
<!-- Node28 -->
<g id="node28" class="node">
<title>Node28</title>
<g id="a_node28"><a xlink:title=" ">
<polygon fill="#e0e0e0" stroke="#999999" points="1135,-19 1096,-19 1096,0 1135,0 1135,-19"/>
<text text-anchor="middle" x="1115.5" y="-7" font-family="Helvetica,sans-Serif" font-size="10.00">utility</text>
</a>
</g>
</g>
<!-- Node25&#45;&gt;Node28 -->
<g id="edge33" class="edge">
<title>Node25&#45;&gt;Node28</title>
<path fill="none" stroke="#63b8ff" d="M1085.2,-109.66C1090.47,-92.42 1102.24,-53.9 1109.46,-30.27"/>
<polygon fill="#63b8ff" stroke="#63b8ff" points="1112.74,-31.49 1112.32,-20.91 1106.05,-29.45 1112.74,-31.49"/>
</g>
<!-- Node29 -->
<g id="node29" class="node">
<title>Node29</title>
<g id="a_node29"><a xlink:href="Vectors_8hpp.html" target="_top" xlink:title=" ">
<polygon fill="white" stroke="#666666" points="1054.5,-74 962.5,-74 962.5,-55 1054.5,-55 1054.5,-74"/>
<text text-anchor="middle" x="1008.5" y="-62" font-family="Helvetica,sans-Serif" font-size="10.00">Utils/Vectors.hpp</text>
</a>
</g>
</g>
<!-- Node25&#45;&gt;Node29 -->
<g id="edge34" class="edge">
<title>Node25&#45;&gt;Node29</title>
<path fill="none" stroke="#63b8ff" d="M1069.95,-109.51C1059.04,-101.7 1043,-90.21 1030.04,-80.93"/>
<polygon fill="#63b8ff" stroke="#63b8ff" points="1032.27,-78.22 1022.1,-75.24 1028.19,-83.91 1032.27,-78.22"/>
</g>
<!-- Node29&#45;&gt;Node9 -->
<g id="edge35" class="edge">
<title>Node29&#45;&gt;Node9</title>
<path fill="none" stroke="#63b8ff" d="M962.14,-58.37C867.86,-47.94 655.36,-24.43 568.06,-14.77"/>
<polygon fill="#63b8ff" stroke="#63b8ff" points="568.66,-11.31 558.34,-13.69 567.89,-18.27 568.66,-11.31"/>
</g>
<!-- Node29&#45;&gt;Node14 -->
<g id="edge38" class="edge">
<title>Node29&#45;&gt;Node14</title>
<path fill="none" stroke="#63b8ff" d="M989.5,-54.51C971.94,-46.2 945.58,-33.73 925.41,-24.18"/>
<polygon fill="#63b8ff" stroke="#63b8ff" points="927.12,-21.12 916.59,-20.01 924.13,-27.45 927.12,-21.12"/>
</g>
<!-- Node29&#45;&gt;Node26 -->
<g id="edge36" class="edge">
<title>Node29&#45;&gt;Node26</title>
<path fill="none" stroke="#63b8ff" d="M1004.04,-54.75C1000.55,-47.88 995.55,-38.08 991.15,-29.45"/>
<polygon fill="#63b8ff" stroke="#63b8ff" points="994.4,-28.11 986.74,-20.79 988.16,-31.29 994.4,-28.11"/>
</g>
<!-- Node29&#45;&gt;Node27 -->
<g id="edge37" class="edge">
<title>Node29&#45;&gt;Node27</title>
<path fill="none" stroke="#63b8ff" d="M1016.1,-54.75C1022.38,-47.5 1031.51,-36.98 1039.3,-28.02"/>
<polygon fill="#63b8ff" stroke="#63b8ff" points="1041.84,-30.43 1045.75,-20.59 1036.55,-25.84 1041.84,-30.43"/>
</g>
<!-- Node29&#45;&gt;Node28 -->
<g id="edge39" class="edge">
<title>Node29&#45;&gt;Node28</title>
<path fill="none" stroke="#63b8ff" d="M1026.65,-54.51C1043.28,-46.27 1068.14,-33.96 1087.35,-24.45"/>
<polygon fill="#63b8ff" stroke="#63b8ff" points="1088.85,-27.6 1096.26,-20.03 1085.75,-21.33 1088.85,-27.6"/>
</g>
<!-- Node30&#45;&gt;Node3 -->
<g id="edge42" class="edge">
<title>Node30&#45;&gt;Node3</title>
<path fill="none" stroke="#63b8ff" d="M1207.45,-184.48C1129.19,-194.9 998,-211.88 921.91,-221.42"/>
<polygon fill="#63b8ff" stroke="#63b8ff" points="921.63,-217.93 912.14,-222.64 922.5,-224.87 921.63,-217.93"/>
</g>
</g>
</svg>
        <g id="navigator" transform="translate(0 0)" fill="#404254">
                <rect fill="#f2f5e9" fill-opacity="0.5" stroke="#606060" stroke-width=".5" x="0" y="0" width="60" height="60"/>
                <use id="zoomplus" xlink:href="#zoomPlus" x="17" y="9" onmousedown="handleZoom(evt,'in')"/>
                <use id="zoomminus" xlink:href="#zoomMin" x="42" y="9" onmousedown="handleZoom(evt,'out')"/>
                <use id="reset" xlink:href="#resetDef" x="30" y="36" onmousedown="handleReset()"/>
                <g id="arrowUp" xlink:href="#dirArrow" transform="translate(30 24)" onmousedown="handlePan(0,-1)">
                  <use xlink:href="#rim" fill="#404040">
                        <set attributeName="fill" to="#808080" begin="arrowUp.mouseover" end="arrowUp.mouseout"/>
                  </use>
                  <path fill="none" stroke="white" stroke-width="1.5" d="M0,-3.0v7 M-2.5,-0.5L0,-3.0L2.5,-0.5"/>
                </g>
                <g id="arrowRight" xlink:href="#dirArrow" transform="rotate(90) translate(36 -43)" onmousedown="handlePan(1,0)">
                  <use xlink:href="#rim" fill="#404040">
                        <set attributeName="fill" to="#808080" begin="arrowRight.mouseover" end="arrowRight.mouseout"/>
                  </use>
                  <path fill="none" stroke="white" stroke-width="1.5" d="M0,-3.0v7 M-2.5,-0.5L0,-3.0L2.5,-0.5"/>
                </g>
                <g id="arrowDown" xlink:href="#dirArrow" transform="rotate(180) translate(-30 -48)" onmousedown="handlePan(0,1)">
                  <use xlink:href="#rim" fill="#404040">
                        <set attributeName="fill" to="#808080" begin="arrowDown.mouseover" end="arrowDown.mouseout"/>
                  </use>
                  <path fill="none" stroke="white" stroke-width="1.5" d="M0,-3.0v7 M-2.5,-0.5L0,-3.0L2.5,-0.5"/>
                </g>
                <g id="arrowLeft" xlink:href="#dirArrow" transform="rotate(270) translate(-36 17)" onmousedown="handlePan(-1,0)">
                  <use xlink:href="#rim" fill="#404040">
                        <set attributeName="fill" to="#808080" begin="arrowLeft.mouseover" end="arrowLeft.mouseout"/>
                  </use>
                  <path fill="none" stroke="white" stroke-width="1.5" d="M0,-3.0v7 M-2.5,-0.5L0,-3.0L2.5,-0.5"/>
                </g>
        </g>
        <svg viewBox="0 0 15 15" width="100%" height="30px" preserveAspectRatio="xMaxYMin meet">
         <g id="arrow_out" transform="scale(0.3 0.3)">
          <a xlink:href="Bullets_8cpp__incl_org.svg" target="_base">
           <rect id="button" ry="5" rx="5" y="6" x="6" height="38" width="38"
                fill="#f2f5e9" fill-opacity="0.5" stroke="#606060" stroke-width="1.0"/>
           <path id="arrow"
             d="M 11.500037,31.436501 C 11.940474,20.09759 22.043105,11.32322 32.158766,21.979434 L 37.068811,17.246167 C 37.068811,17.246167 37.088388,32 37.088388,32 L 22.160133,31.978069 C 22.160133,31.978069 26.997745,27.140456 26.997745,27.140456 C 18.528582,18.264221 13.291696,25.230495 11.500037,31.436501 z"
             style="fill:#404040;"/>
          </a>
         </g>
        </svg>
</svg>
