<?xml version="1.0" encoding="UTF-8" standalone="no"?>
<!DOCTYPE svg PUBLIC "-//W3C//DTD SVG 1.1//EN"
 "http://www.w3.org/Graphics/SVG/1.1/DTD/svg11.dtd">
<!-- Generated by graphviz version 7.0.5 (20221223.1930)
 -->
<!-- Title: /github/workspace/client/include/Components/Bullets.hpp Pages: 1 -->
<!--zoomable 456 -->
<svg id="main" version="1.1" xmlns="http://www.w3.org/2000/svg" xmlns:xlink="http://www.w3.org/1999/xlink" xml:space="preserve" onload="init(evt)">
<style type="text/css"><![CDATA[
.edge:hover path { stroke: red; }
.edge:hover polygon { stroke: red; fill: red; }
]]></style>
<script type="text/javascript"><![CDATA[
var edges = document.getElementsByTagName('g');
if (edges && edges.length) {
  for (var i=0;i<edges.length;i++) {
    if (edges[i].id.substr(0,4)=='edge') {
      edges[i].setAttribute('class','edge');
    }
  }
}
]]></script>
        <defs>
                <circle id="rim" cx="0" cy="0" r="7"/>
                <circle id="rim2" cx="0" cy="0" r="3.5"/>
                <g id="zoomPlus">
                        <use xlink:href="#rim" fill="#404040">
                                <set attributeName="fill" to="#808080" begin="zoomplus.mouseover" end="zoomplus.mouseout"/>
                        </use>
                        <path d="M-4,0h8M0,-4v8" fill="none" stroke="white" stroke-width="1.5" pointer-events="none"/>
                </g>
                <g id="zoomMin">
                        <use xlink:href="#rim" fill="#404040">
                                <set attributeName="fill" to="#808080" begin="zoomminus.mouseover" end="zoomminus.mouseout"/>
                        </use>
                        <path d="M-4,0h8" fill="none" stroke="white" stroke-width="1.5" pointer-events="none"/>
                </g>
                <g id="dirArrow">
                        <path fill="none" stroke="white" stroke-width="1.5" d="M0,-3.0v7 M-2.5,-0.5L0,-3.0L2.5,-0.5"/>
                </g>
               <g id="resetDef">
                       <use xlink:href="#rim2" fill="#404040">
                               <set attributeName="fill" to="#808080" begin="reset.mouseover" end="reset.mouseout"/>
                       </use>
               </g>
        </defs>

<script type="text/javascript">
var viewWidth = 2162;
var viewHeight = 456;
var sectionId = 'dynsection-1';
</script>
<script xlink:href="svgpan.js"/>
<svg id="graph" class="graph">
<g id="viewport">
<title>/github/workspace/client/include/Components/Bullets.hpp</title>
<!-- Node1 -->
<g id="node1" class="node">
<title>Node1</title>
<g id="a_node1"><a xlink:title=" ">
<polygon fill="#999999" stroke="#666666" points="1393.71,-448 1234.71,-448 1234.71,-418 1393.71,-418 1393.71,-448"/>
<text text-anchor="start" x="1242.71" y="-436" font-family="Helvetica,sans-Serif" font-size="10.00">/github/workspace/client</text>
<text text-anchor="middle" x="1314.21" y="-425" font-family="Helvetica,sans-Serif" font-size="10.00">/include/Components/Bullets.hpp</text>
</a>
</g>
</g>
<!-- Node2 -->
<g id="node2" class="node">
<title>Node2</title>
<g id="a_node2"><a xlink:href="Engine_8hpp.html" target="_top" xlink:title=" ">
<polygon fill="white" stroke="#666666" points="1380.71,-382 1247.71,-382 1247.71,-352 1380.71,-352 1380.71,-382"/>
<text text-anchor="start" x="1255.71" y="-370" font-family="Helvetica,sans-Serif" font-size="10.00">/github/workspace/client</text>
<text text-anchor="middle" x="1314.21" y="-359" font-family="Helvetica,sans-Serif" font-size="10.00">/include/Engine/Engine.hpp</text>
</a>
</g>
</g>
<!-- Node1&#45;&gt;Node2 -->
<g id="edge1" class="edge">
<title>Node1&#45;&gt;Node2</title>
<path fill="none" stroke="#63b8ff" d="M1307.58,-406.39C1307.26,-398.13 1307.57,-389.28 1308.5,-382.16"/>
<polygon fill="#63b8ff" stroke="#63b8ff" points="1304.09,-406.6 1308.37,-416.29 1311.06,-406.04 1304.09,-406.6"/>
</g>
<!-- Node4 -->
<g id="node4" class="node">
<title>Node4</title>
<g id="a_node4"><a xlink:href="include_8hpp.html" target="_top" xlink:title=" ">
<polygon fill="white" stroke="#666666" points="352.21,-167.5 230.21,-167.5 230.21,-137.5 352.21,-137.5 352.21,-167.5"/>
<text text-anchor="start" x="238.21" y="-155.5" font-family="Helvetica,sans-Serif" font-size="10.00">/github/workspace/client</text>
<text text-anchor="middle" x="291.21" y="-144.5" font-family="Helvetica,sans-Serif" font-size="10.00">/include/include.hpp</text>
</a>
</g>
</g>
<!-- Node1&#45;&gt;Node4 -->
<g id="edge46" class="edge">
<title>Node1&#45;&gt;Node4</title>
<path fill="none" stroke="#63b8ff" d="M1223.12,-427.94C951.62,-415.25 160.45,-373.68 60.21,-316 15.19,-290.1 -19.73,-249.16 13.21,-209 40.05,-176.27 156.32,-162.47 229.73,-156.93"/>
<polygon fill="#63b8ff" stroke="#63b8ff" points="1222.83,-431.44 1232.99,-428.4 1223.16,-424.44 1222.83,-431.44"/>
</g>
<!-- Node30 -->
<g id="node30" class="node">
<title>Node30</title>
<g id="a_node30"><a xlink:href="Bullets_8cpp.html" target="_top" xlink:title=" ">
<polygon fill="white" stroke="#666666" points="1521.21,-382 1399.21,-382 1399.21,-352 1521.21,-352 1521.21,-382"/>
<text text-anchor="start" x="1407.21" y="-370" font-family="Helvetica,sans-Serif" font-size="10.00">/github/workspace/client</text>
<text text-anchor="middle" x="1460.21" y="-359" font-family="Helvetica,sans-Serif" font-size="10.00">/src/Bullets.cpp</text>
</a>
</g>
</g>
<!-- Node1&#45;&gt;Node30 -->
<g id="edge47" class="edge">
<title>Node1&#45;&gt;Node30</title>
<path fill="none" stroke="#63b8ff" d="M1357.23,-413.14C1379.63,-403.32 1406.59,-391.51 1427.3,-382.43"/>
<polygon fill="#63b8ff" stroke="#63b8ff" points="1356.12,-409.81 1348.36,-417.03 1358.93,-416.22 1356.12,-409.81"/>
</g>
<!-- Node2&#45;&gt;Node1 -->
<g id="edge4" class="edge">
<title>Node2&#45;&gt;Node1</title>
<path fill="none" stroke="#63b8ff" d="M1320.84,-393.56C1321.16,-401.82 1320.85,-410.67 1319.93,-417.8"/>
<polygon fill="#63b8ff" stroke="#63b8ff" points="1324.33,-393.36 1320.05,-383.67 1317.35,-393.92 1324.33,-393.36"/>
</g>
<!-- Node3 -->
<g id="node3" class="node">
<title>Node3</title>
<g id="a_node3"><a xlink:href="Bonus_8hpp.html" target="_top" xlink:title=" ">
<polygon fill="white" stroke="#666666" points="193.71,-244.5 36.71,-244.5 36.71,-214.5 193.71,-214.5 193.71,-244.5"/>
<text text-anchor="start" x="44.71" y="-232.5" font-family="Helvetica,sans-Serif" font-size="10.00">/github/workspace/client</text>
<text text-anchor="middle" x="115.21" y="-221.5" font-family="Helvetica,sans-Serif" font-size="10.00">/include/Components/Bonus.hpp</text>
</a>
</g>
</g>
<!-- Node2&#45;&gt;Node3 -->
<g id="edge2" class="edge">
<title>Node2&#45;&gt;Node3</title>
<path fill="none" stroke="#63b8ff" d="M1236.09,-364.53C1041.27,-360.43 537.82,-347.07 373.21,-316 290.44,-300.38 197.66,-264.97 149.07,-244.97"/>
<polygon fill="#63b8ff" stroke="#63b8ff" points="1235.77,-368.02 1245.84,-364.73 1235.92,-361.02 1235.77,-368.02"/>
</g>
<!-- Node2&#45;&gt;Node4 -->
<g id="edge43" class="edge">
<title>Node2&#45;&gt;Node4</title>
<path fill="none" stroke="#63b8ff" d="M1236.25,-364.6C1025.71,-360.44 448.9,-346.52 261.21,-316 154.55,-298.66 92.43,-336.16 27.21,-250 -27.42,-177.82 135.73,-159.58 229.74,-155"/>
<polygon fill="#63b8ff" stroke="#63b8ff" points="1235.91,-368.09 1245.98,-364.79 1236.05,-361.09 1235.91,-368.09"/>
</g>
<!-- Node5 -->
<g id="node5" class="node">
<title>Node5</title>
<g id="a_node5"><a xlink:href="Audio_8hpp.html" target="_top" xlink:title=" ">
<polygon fill="white" stroke="#666666" points="935.21,-316 807.21,-316 807.21,-286 935.21,-286 935.21,-316"/>
<text text-anchor="start" x="815.21" y="-304" font-family="Helvetica,sans-Serif" font-size="10.00">/github/workspace/client</text>
<text text-anchor="middle" x="871.21" y="-293" font-family="Helvetica,sans-Serif" font-size="10.00">/include/Engine/Audio.hpp</text>
</a>
</g>
</g>
<!-- Node2&#45;&gt;Node5 -->
<g id="edge5" class="edge">
<title>Node2&#45;&gt;Node5</title>
<path fill="none" stroke="#63b8ff" d="M1236.33,-356.74C1161.32,-347.53 1044.76,-332.42 944.21,-316 941.41,-315.54 938.55,-315.06 935.66,-314.56"/>
<polygon fill="#63b8ff" stroke="#63b8ff" points="1235.69,-360.19 1246.04,-357.93 1236.54,-353.24 1235.69,-360.19"/>
</g>
<!-- Node6 -->
<g id="node6" class="node">
<title>Node6</title>
<g id="a_node6"><a xlink:href="Destroy_8hpp.html" target="_top" xlink:title=" ">
<polygon fill="white" stroke="#666666" points="1232.71,-316 1095.71,-316 1095.71,-286 1232.71,-286 1232.71,-316"/>
<text text-anchor="start" x="1103.71" y="-304" font-family="Helvetica,sans-Serif" font-size="10.00">/github/workspace/client</text>
<text text-anchor="middle" x="1164.21" y="-293" font-family="Helvetica,sans-Serif" font-size="10.00">/include/Engine/Destroy.hpp</text>
</a>
</g>
</g>
<!-- Node2&#45;&gt;Node6 -->
<g id="edge6" class="edge">
<title>Node2&#45;&gt;Node6</title>
<path fill="none" stroke="#63b8ff" d="M1270.01,-347.14C1247,-337.32 1219.3,-325.51 1198.02,-316.43"/>
<polygon fill="#63b8ff" stroke="#63b8ff" points="1268.58,-350.34 1279.16,-351.04 1271.33,-343.9 1268.58,-350.34"/>
</g>
<!-- Node8 -->
<g id="node8" class="node">
<title>Node8</title>
<g id="a_node8"><a xlink:href="Draw_8hpp.html" target="_top" xlink:title=" ">
<polygon fill="white" stroke="#666666" points="1377.21,-316 1251.21,-316 1251.21,-286 1377.21,-286 1377.21,-316"/>
<text text-anchor="start" x="1259.21" y="-304" font-family="Helvetica,sans-Serif" font-size="10.00">/github/workspace/client</text>
<text text-anchor="middle" x="1314.21" y="-293" font-family="Helvetica,sans-Serif" font-size="10.00">/include/Engine/Draw.hpp</text>
</a>
</g>
</g>
<!-- Node2&#45;&gt;Node8 -->
<g id="edge8" class="edge">
<title>Node2&#45;&gt;Node8</title>
<path fill="none" stroke="#63b8ff" d="M1307.58,-340.39C1307.26,-332.13 1307.57,-323.28 1308.5,-316.16"/>
<polygon fill="#63b8ff" stroke="#63b8ff" points="1304.09,-340.6 1308.37,-350.29 1311.06,-340.04 1304.09,-340.6"/>
</g>
<!-- Node10 -->
<g id="node10" class="node">
<title>Node10</title>
<g id="a_node10"><a xlink:href="Error_8hpp.html" target="_top" xlink:title=" ">
<polygon fill="white" stroke="#666666" points="1077.21,-316 953.21,-316 953.21,-286 1077.21,-286 1077.21,-316"/>
<text text-anchor="start" x="961.21" y="-304" font-family="Helvetica,sans-Serif" font-size="10.00">/github/workspace/client</text>
<text text-anchor="middle" x="1015.21" y="-293" font-family="Helvetica,sans-Serif" font-size="10.00">/include/Engine/Error.hpp</text>
</a>
</g>
</g>
<!-- Node2&#45;&gt;Node10 -->
<g id="edge11" class="edge">
<title>Node2&#45;&gt;Node10</title>
<path fill="none" stroke="#63b8ff" d="M1236.51,-349.37C1187.05,-338.78 1123.84,-325.25 1077.65,-315.37"/>
<polygon fill="#63b8ff" stroke="#63b8ff" points="1235.49,-352.73 1246,-351.4 1236.95,-345.88 1235.49,-352.73"/>
</g>
<!-- Node12 -->
<g id="node12" class="node">
<title>Node12</title>
<g id="a_node12"><a xlink:href="client_2src_2main_8cpp.html" target="_top" xlink:title=" ">
<polygon fill="white" stroke="#666666" points="1435.21,-30 1313.21,-30 1313.21,0 1435.21,0 1435.21,-30"/>
<text text-anchor="start" x="1321.21" y="-18" font-family="Helvetica,sans-Serif" font-size="10.00">/github/workspace/client</text>
<text text-anchor="middle" x="1374.21" y="-7" font-family="Helvetica,sans-Serif" font-size="10.00">/src/main.cpp</text>
</a>
</g>
</g>
<!-- Node2&#45;&gt;Node12 -->
<g id="edge45" class="edge">
<title>Node2&#45;&gt;Node12</title>
<path fill="none" stroke="#63b8ff" d="M1357.12,-345.8C1368.62,-338.16 1379.67,-328.28 1386.21,-316 1438.41,-218.01 1395.44,-75.4 1379.53,-30.25"/>
<polygon fill="#63b8ff" stroke="#63b8ff" points="1355.45,-342.71 1348.73,-350.9 1359.09,-348.69 1355.45,-342.71"/>
</g>
<!-- Node13 -->
<g id="node13" class="node">
<title>Node13</title>
<g id="a_node13"><a xlink:href="Event_8hpp.html" target="_top" xlink:title=" ">
<polygon fill="white" stroke="#666666" points="1841.21,-316 1713.21,-316 1713.21,-286 1841.21,-286 1841.21,-316"/>
<text text-anchor="start" x="1721.21" y="-304" font-family="Helvetica,sans-Serif" font-size="10.00">/github/workspace/client</text>
<text text-anchor="middle" x="1777.21" y="-293" font-family="Helvetica,sans-Serif" font-size="10.00">/include/Engine/Event.hpp</text>
</a>
</g>
</g>
<!-- Node2&#45;&gt;Node13 -->
<g id="edge14" class="edge">
<title>Node2&#45;&gt;Node13</title>
<path fill="none" stroke="#63b8ff" d="M1392.76,-350.3C1522.27,-331.58 1560.28,-336.64 1695.21,-316 1700.95,-315.12 1706.93,-314.12 1712.93,-313.06"/>
<polygon fill="#63b8ff" stroke="#63b8ff" points="1392.5,-346.8 1383.11,-351.72 1393.52,-353.73 1392.5,-346.8"/>
</g>
<!-- Node14 -->
<g id="node14" class="node">
<title>Node14</title>
<g id="a_node14"><a xlink:href="Event_8cpp.html" target="_top" xlink:title=" ">
<polygon fill="white" stroke="#666666" points="1832.21,-244.5 1710.21,-244.5 1710.21,-214.5 1832.21,-214.5 1832.21,-244.5"/>
<text text-anchor="start" x="1718.21" y="-232.5" font-family="Helvetica,sans-Serif" font-size="10.00">/github/workspace/client</text>
<text text-anchor="middle" x="1771.21" y="-221.5" font-family="Helvetica,sans-Serif" font-size="10.00">/src/Event.cpp</text>
</a>
</g>
</g>
<!-- Node2&#45;&gt;Node14 -->
<g id="edge44" class="edge">
<title>Node2&#45;&gt;Node14</title>
<path fill="none" stroke="#63b8ff" d="M1392.12,-352.24C1477.49,-346.06 1817.14,-351.76 1850.21,-316 1873.33,-291 1831.79,-261.87 1800.69,-244.88"/>
<polygon fill="#63b8ff" stroke="#63b8ff" points="1392,-348.73 1382.38,-353.17 1392.67,-355.7 1392,-348.73"/>
</g>
<!-- Node15 -->
<g id="node15" class="node">
<title>Node15</title>
<g id="a_node15"><a xlink:href="Map_8hpp.html" target="_top" xlink:title=" ">
<polygon fill="white" stroke="#666666" points="1555.21,-316 1433.21,-316 1433.21,-286 1555.21,-286 1555.21,-316"/>
<text text-anchor="start" x="1441.21" y="-304" font-family="Helvetica,sans-Serif" font-size="10.00">/github/workspace/client</text>
<text text-anchor="middle" x="1494.21" y="-293" font-family="Helvetica,sans-Serif" font-size="10.00">/include/Engine/Map.hpp</text>
</a>
</g>
</g>
<!-- Node2&#45;&gt;Node15 -->
<g id="edge17" class="edge">
<title>Node2&#45;&gt;Node15</title>
<path fill="none" stroke="#63b8ff" d="M1365.38,-347.8C1393.36,-337.86 1427.52,-325.71 1453.64,-316.43"/>
<polygon fill="#63b8ff" stroke="#63b8ff" points="1364.28,-344.48 1356.03,-351.13 1366.63,-351.08 1364.28,-344.48"/>
</g>
<!-- Node16 -->
<g id="node16" class="node">
<title>Node16</title>
<g id="a_node16"><a xlink:href="StateManager_8hpp.html" target="_top" xlink:title=" ">
<polygon fill="white" stroke="#666666" points="2154.21,-244.5 1990.21,-244.5 1990.21,-214.5 2154.21,-214.5 2154.21,-244.5"/>
<text text-anchor="start" x="1998.21" y="-232.5" font-family="Helvetica,sans-Serif" font-size="10.00">/github/workspace/client</text>
<text text-anchor="middle" x="2072.21" y="-221.5" font-family="Helvetica,sans-Serif" font-size="10.00">/include/Engine/StateManager.hpp</text>
</a>
</g>
</g>
<!-- Node2&#45;&gt;Node16 -->
<g id="edge18" class="edge">
<title>Node2&#45;&gt;Node16</title>
<path fill="none" stroke="#63b8ff" d="M1392.93,-351.03C1497.57,-344.73 1979.96,-358.41 2035.21,-316 2057.26,-299.07 2062.19,-264.35 2066.16,-244.76"/>
<polygon fill="#63b8ff" stroke="#63b8ff" points="1392.83,-347.52 1383.15,-351.83 1393.4,-354.5 1392.83,-347.52"/>
</g>
<!-- Node18 -->
<g id="node18" class="node">
<title>Node18</title>
<g id="a_node18"><a xlink:href="Text_8hpp.html" target="_top" xlink:title=" ">
<polygon fill="white" stroke="#666666" points="1695.21,-316 1573.21,-316 1573.21,-286 1695.21,-286 1695.21,-316"/>
<text text-anchor="start" x="1581.21" y="-304" font-family="Helvetica,sans-Serif" font-size="10.00">/github/workspace/client</text>
<text text-anchor="middle" x="1634.21" y="-293" font-family="Helvetica,sans-Serif" font-size="10.00">/include/Engine/Text.hpp</text>
</a>
</g>
</g>
<!-- Node2&#45;&gt;Node18 -->
<g id="edge21" class="edge">
<title>Node2&#45;&gt;Node18</title>
<path fill="none" stroke="#63b8ff" d="M1392.11,-350.42C1447.67,-339.31 1521.33,-324.58 1572.75,-314.29"/>
<polygon fill="#63b8ff" stroke="#63b8ff" points="1391.51,-346.97 1382.39,-352.36 1392.88,-353.84 1391.51,-346.97"/>
</g>
<!-- Node19 -->
<g id="node19" class="node">
<title>Node19</title>
<g id="a_node19"><a xlink:href="Window_8hpp.html" target="_top" xlink:title=" ">
<polygon fill="white" stroke="#666666" points="2035.21,-316 1897.21,-316 1897.21,-286 2035.21,-286 2035.21,-316"/>
<text text-anchor="start" x="1905.21" y="-304" font-family="Helvetica,sans-Serif" font-size="10.00">/github/workspace/client</text>
<text text-anchor="middle" x="1966.21" y="-293" font-family="Helvetica,sans-Serif" font-size="10.00">/include/Engine/Window.hpp</text>
</a>
</g>
</g>
<!-- Node2&#45;&gt;Node19 -->
<g id="edge22" class="edge">
<title>Node2&#45;&gt;Node19</title>
<path fill="none" stroke="#63b8ff" d="M1392.86,-350.53C1601.23,-324.7 1660.03,-341.82 1874.21,-316 1881.61,-315.11 1889.35,-314.02 1897.09,-312.84"/>
<polygon fill="#63b8ff" stroke="#63b8ff" points="1392.51,-347.05 1383.03,-351.77 1393.39,-353.99 1392.51,-347.05"/>
</g>
<!-- Node21 -->
<g id="node21" class="node">
<title>Node21</title>
<g id="a_node21"><a xlink:href="EntitiesManager_8hpp.html" target="_top" xlink:title=" ">
<polygon fill="white" stroke="#666666" points="789.21,-316 613.21,-316 613.21,-286 789.21,-286 789.21,-316"/>
<text text-anchor="start" x="621.21" y="-304" font-family="Helvetica,sans-Serif" font-size="10.00">/github/workspace/client</text>
<text text-anchor="middle" x="701.21" y="-293" font-family="Helvetica,sans-Serif" font-size="10.00">/include/Entities/EntitiesManager.hpp</text>
</a>
</g>
</g>
<!-- Node2&#45;&gt;Node21 -->
<g id="edge26" class="edge">
<title>Node2&#45;&gt;Node21</title>
<path fill="none" stroke="#63b8ff" d="M1236.07,-360.08C1133.34,-351.65 947.64,-335.09 789.69,-316.06"/>
<polygon fill="#63b8ff" stroke="#63b8ff" points="1235.5,-363.55 1245.75,-360.87 1236.07,-356.57 1235.5,-363.55"/>
</g>
<!-- Node26 -->
<g id="node26" class="node">
<title>Node26</title>
<g id="a_node26"><a xlink:href="Properties_8hpp.html" target="_top" xlink:title=" ">
<polygon fill="white" stroke="#666666" points="533.71,-316 382.71,-316 382.71,-286 533.71,-286 533.71,-316"/>
<text text-anchor="start" x="390.71" y="-304" font-family="Helvetica,sans-Serif" font-size="10.00">/github/workspace/client</text>
<text text-anchor="middle" x="458.21" y="-293" font-family="Helvetica,sans-Serif" font-size="10.00">/include/Entities/Properties.hpp</text>
</a>
</g>
</g>
<!-- Node2&#45;&gt;Node26 -->
<g id="edge36" class="edge">
<title>Node2&#45;&gt;Node26</title>
<path fill="none" stroke="#63b8ff" d="M1236.15,-361.15C1105.37,-352.88 833.72,-335.08 604.21,-316 581.37,-314.1 556.55,-311.81 533.95,-309.63"/>
<polygon fill="#63b8ff" stroke="#63b8ff" points="1235.89,-364.64 1246.09,-361.78 1236.33,-357.66 1235.89,-364.64"/>
</g>
<!-- Node3&#45;&gt;Node4 -->
<g id="edge3" class="edge">
<title>Node3&#45;&gt;Node4</title>
<path fill="none" stroke="#63b8ff" d="M159.46,-209.64C189.84,-196.7 229.53,-179.78 257.38,-167.92"/>
<polygon fill="#63b8ff" stroke="#63b8ff" points="158.36,-206.31 150.54,-213.45 161.11,-212.75 158.36,-206.31"/>
</g>
<!-- Node7 -->
<g id="node7" class="node">
<title>Node7</title>
<g id="a_node7"><a xlink:href="Destroy_8cpp.html" target="_top" xlink:title=" ">
<polygon fill="white" stroke="#666666" points="1238.21,-244.5 1116.21,-244.5 1116.21,-214.5 1238.21,-214.5 1238.21,-244.5"/>
<text text-anchor="start" x="1124.21" y="-232.5" font-family="Helvetica,sans-Serif" font-size="10.00">/github/workspace/client</text>
<text text-anchor="middle" x="1177.21" y="-221.5" font-family="Helvetica,sans-Serif" font-size="10.00">/src/Destroy.cpp</text>
</a>
</g>
</g>
<!-- Node6&#45;&gt;Node7 -->
<g id="edge7" class="edge">
<title>Node6&#45;&gt;Node7</title>
<path fill="none" stroke="#63b8ff" d="M1168.96,-274.58C1170.84,-264.58 1172.92,-253.45 1174.52,-244.88"/>
<polygon fill="#63b8ff" stroke="#63b8ff" points="1165.58,-273.64 1167.18,-284.11 1172.46,-274.93 1165.58,-273.64"/>
</g>
<!-- Node8&#45;&gt;Node2 -->
<g id="edge9" class="edge">
<title>Node8&#45;&gt;Node2</title>
<path fill="none" stroke="#63b8ff" d="M1320.84,-327.56C1321.16,-335.82 1320.85,-344.67 1319.93,-351.8"/>
<polygon fill="#63b8ff" stroke="#63b8ff" points="1324.33,-327.36 1320.05,-317.67 1317.35,-327.92 1324.33,-327.36"/>
</g>
<!-- Node9 -->
<g id="node9" class="node">
<title>Node9</title>
<g id="a_node9"><a xlink:href="Draw_8cpp.html" target="_top" xlink:title=" ">
<polygon fill="white" stroke="#666666" points="1378.21,-244.5 1256.21,-244.5 1256.21,-214.5 1378.21,-214.5 1378.21,-244.5"/>
<text text-anchor="start" x="1264.21" y="-232.5" font-family="Helvetica,sans-Serif" font-size="10.00">/github/workspace/client</text>
<text text-anchor="middle" x="1317.21" y="-221.5" font-family="Helvetica,sans-Serif" font-size="10.00">/src/Draw.cpp</text>
</a>
</g>
</g>
<!-- Node8&#45;&gt;Node9 -->
<g id="edge10" class="edge">
<title>Node8&#45;&gt;Node9</title>
<path fill="none" stroke="#63b8ff" d="M1315.32,-274.26C1315.75,-264.33 1316.22,-253.36 1316.59,-244.88"/>
<polygon fill="#63b8ff" stroke="#63b8ff" points="1311.83,-273.95 1314.9,-284.09 1318.83,-274.25 1311.83,-273.95"/>
</g>
<!-- Node11 -->
<g id="node11" class="node">
<title>Node11</title>
<g id="a_node11"><a xlink:href="Error_8cpp.html" target="_top" xlink:title=" ">
<polygon fill="white" stroke="#666666" points="1098.21,-244.5 976.21,-244.5 976.21,-214.5 1098.21,-214.5 1098.21,-244.5"/>
<text text-anchor="start" x="984.21" y="-232.5" font-family="Helvetica,sans-Serif" font-size="10.00">/github/workspace/client</text>
<text text-anchor="middle" x="1037.21" y="-221.5" font-family="Helvetica,sans-Serif" font-size="10.00">/src/Error.cpp</text>
</a>
</g>
</g>
<!-- Node10&#45;&gt;Node11 -->
<g id="edge12" class="edge">
<title>Node10&#45;&gt;Node11</title>
<path fill="none" stroke="#63b8ff" d="M1023.15,-274.91C1026.35,-264.82 1029.92,-253.54 1032.66,-244.88"/>
<polygon fill="#63b8ff" stroke="#63b8ff" points="1019.91,-273.57 1020.23,-284.16 1026.58,-275.68 1019.91,-273.57"/>
</g>
<!-- Node10&#45;&gt;Node12 -->
<g id="edge13" class="edge">
<title>Node10&#45;&gt;Node12</title>
<path fill="none" stroke="#63b8ff" d="M987.2,-278.13C979.19,-270.23 971.48,-260.61 967.21,-250 960.41,-233.09 957.47,-224.4 967.21,-209 1043.82,-87.89 1219.3,-41.27 1312.85,-24.56"/>
<polygon fill="#63b8ff" stroke="#63b8ff" points="984.65,-280.55 994.4,-284.7 989.37,-275.37 984.65,-280.55"/>
</g>
<!-- Node13&#45;&gt;Node2 -->
<g id="edge15" class="edge">
<title>Node13&#45;&gt;Node2</title>
<path fill="none" stroke="#63b8ff" d="M1701.67,-317.74C1572.22,-336.93 1534.21,-331.85 1399.21,-352 1393.37,-352.87 1387.29,-353.86 1381.19,-354.89"/>
<polygon fill="#63b8ff" stroke="#63b8ff" points="1701.94,-321.24 1711.31,-316.29 1700.9,-314.32 1701.94,-321.24"/>
</g>
<!-- Node13&#45;&gt;Node14 -->
<g id="edge16" class="edge">
<title>Node13&#45;&gt;Node14</title>
<path fill="none" stroke="#63b8ff" d="M1774.99,-274.26C1774.13,-264.33 1773.18,-253.36 1772.45,-244.88"/>
<polygon fill="#63b8ff" stroke="#63b8ff" points="1771.49,-274.43 1775.84,-284.09 1778.46,-273.83 1771.49,-274.43"/>
</g>
<!-- Node16&#45;&gt;Node2 -->
<g id="edge19" class="edge">
<title>Node16&#45;&gt;Node2</title>
<path fill="none" stroke="#63b8ff" d="M2078.51,-256.03C2077.99,-275.76 2071.47,-301.98 2053.21,-316 1995.48,-360.31 1471.48,-343.39 1399.21,-352 1393.35,-352.7 1387.26,-353.57 1381.14,-354.54"/>
<polygon fill="#63b8ff" stroke="#63b8ff" points="2082.02,-256.14 2078.17,-246.27 2075.02,-256.39 2082.02,-256.14"/>
</g>
<!-- Node17 -->
<g id="node17" class="node">
<title>Node17</title>
<g id="a_node17"><a xlink:href="StateManager_8cpp.html" target="_top" xlink:title=" ">
<polygon fill="white" stroke="#666666" points="1608.21,-30 1486.21,-30 1486.21,0 1608.21,0 1608.21,-30"/>
<text text-anchor="start" x="1494.21" y="-18" font-family="Helvetica,sans-Serif" font-size="10.00">/github/workspace/client</text>
<text text-anchor="middle" x="1547.21" y="-7" font-family="Helvetica,sans-Serif" font-size="10.00">/src/StateManager.cpp</text>
</a>
</g>
</g>
<!-- Node16&#45;&gt;Node17 -->
<g id="edge20" class="edge">
<title>Node16&#45;&gt;Node17</title>
<path fill="none" stroke="#63b8ff" d="M2026.15,-209.86C1923.04,-168.12 1675.49,-67.92 1582.93,-30.46"/>
<polygon fill="#63b8ff" stroke="#63b8ff" points="2024.55,-212.99 2035.13,-213.49 2027.18,-206.5 2024.55,-212.99"/>
</g>
<!-- Node19&#45;&gt;Node2 -->
<g id="edge23" class="edge">
<title>Node19&#45;&gt;Node2</title>
<path fill="none" stroke="#63b8ff" d="M1885.75,-316.74C1672.1,-341.69 1613.4,-324.54 1399.21,-352 1393.35,-352.75 1387.27,-353.66 1381.15,-354.64"/>
<polygon fill="#63b8ff" stroke="#63b8ff" points="1886.02,-320.23 1895.54,-315.57 1885.2,-313.28 1886.02,-320.23"/>
</g>
<!-- Node19&#45;&gt;Node16 -->
<g id="edge24" class="edge">
<title>Node19&#45;&gt;Node16</title>
<path fill="none" stroke="#63b8ff" d="M1997.67,-279.37C2014.6,-268.27 2035.07,-254.85 2050.27,-244.88"/>
<polygon fill="#63b8ff" stroke="#63b8ff" points="1995.88,-276.36 1989.44,-284.77 1999.72,-282.21 1995.88,-276.36"/>
</g>
<!-- Node20 -->
<g id="node20" class="node">
<title>Node20</title>
<g id="a_node20"><a xlink:href="Window_8cpp.html" target="_top" xlink:title=" ">
<polygon fill="white" stroke="#666666" points="1972.21,-244.5 1850.21,-244.5 1850.21,-214.5 1972.21,-214.5 1972.21,-244.5"/>
<text text-anchor="start" x="1858.21" y="-232.5" font-family="Helvetica,sans-Serif" font-size="10.00">/github/workspace/client</text>
<text text-anchor="middle" x="1911.21" y="-221.5" font-family="Helvetica,sans-Serif" font-size="10.00">/src/Window.cpp</text>
</a>
</g>
</g>
<!-- Node19&#45;&gt;Node20 -->
<g id="edge25" class="edge">
<title>Node19&#45;&gt;Node20</title>
<path fill="none" stroke="#63b8ff" d="M1947.89,-276.85C1939.53,-266.28 1929.89,-254.1 1922.59,-244.88"/>
<polygon fill="#63b8ff" stroke="#63b8ff" points="1944.92,-278.74 1953.87,-284.41 1950.41,-274.4 1944.92,-278.74"/>
</g>
<!-- Node21&#45;&gt;Node2 -->
<g id="edge27" class="edge">
<title>Node21&#45;&gt;Node2</title>
<path fill="none" stroke="#63b8ff" d="M800.95,-315.23C803.06,-315.49 805.15,-315.75 807.21,-316 964.92,-335.01 1150.44,-351.58 1247.51,-360.03"/>
<polygon fill="#63b8ff" stroke="#63b8ff" points="801.42,-311.76 791.05,-313.96 800.53,-318.7 801.42,-311.76"/>
</g>
<!-- Node21&#45;&gt;Node4 -->
<g id="edge28" class="edge">
<title>Node21&#45;&gt;Node4</title>
<path fill="none" stroke="#63b8ff" d="M601.53,-292.79C554.97,-286.23 500.04,-273.74 455.21,-250 432.16,-237.79 434.74,-223.73 413.21,-209 388.05,-191.78 356.7,-177.66 332.07,-167.96"/>
<polygon fill="#63b8ff" stroke="#63b8ff" points="601,-296.25 611.37,-294.09 601.92,-289.31 601,-296.25"/>
</g>
<!-- Node22 -->
<g id="node22" class="node">
<title>Node22</title>
<g id="a_node22"><a xlink:href="IGameState_8hpp.html" target="_top" xlink:title=" ">
<polygon fill="white" stroke="#666666" points="920.21,-250 780.21,-250 780.21,-209 920.21,-209 920.21,-250"/>
<text text-anchor="start" x="788.21" y="-238" font-family="Helvetica,sans-Serif" font-size="10.00">/github/workspace/client</text>
<text text-anchor="start" x="788.21" y="-227" font-family="Helvetica,sans-Serif" font-size="10.00">/include/system/gameStates</text>
<text text-anchor="middle" x="850.21" y="-216" font-family="Helvetica,sans-Serif" font-size="10.00">/IGameState.hpp</text>
</a>
</g>
</g>
<!-- Node21&#45;&gt;Node22 -->
<g id="edge29" class="edge">
<title>Node21&#45;&gt;Node22</title>
<path fill="none" stroke="#63b8ff" d="M742.27,-280.85C762.55,-271.39 787.01,-259.98 807.51,-250.42"/>
<polygon fill="#63b8ff" stroke="#63b8ff" points="741.04,-277.56 733.45,-284.96 744,-283.9 741.04,-277.56"/>
</g>
<!-- Node25 -->
<g id="node25" class="node">
<title>Node25</title>
<g id="a_node25"><a xlink:href="EntitiesManager_8cpp.html" target="_top" xlink:title=" ">
<polygon fill="white" stroke="#666666" points="762.21,-244.5 638.21,-244.5 638.21,-214.5 762.21,-214.5 762.21,-244.5"/>
<text text-anchor="start" x="646.21" y="-232.5" font-family="Helvetica,sans-Serif" font-size="10.00">/github/workspace/client</text>
<text text-anchor="middle" x="700.21" y="-221.5" font-family="Helvetica,sans-Serif" font-size="10.00">/src/EntitiesManager.cpp</text>
</a>
</g>
</g>
<!-- Node21&#45;&gt;Node25 -->
<g id="edge35" class="edge">
<title>Node21&#45;&gt;Node25</title>
<path fill="none" stroke="#63b8ff" d="M700.84,-274.26C700.7,-264.33 700.54,-253.36 700.42,-244.88"/>
<polygon fill="#63b8ff" stroke="#63b8ff" points="697.34,-274.14 700.98,-284.09 704.34,-274.04 697.34,-274.14"/>
</g>
<!-- Node23 -->
<g id="node23" class="node">
<title>Node23</title>
<g id="a_node23"><a xlink:href="SGamePlay_8hpp.html" target="_top" xlink:title=" ">
<polygon fill="white" stroke="#666666" points="1378.21,-173 1238.21,-173 1238.21,-132 1378.21,-132 1378.21,-173"/>
<text text-anchor="start" x="1246.21" y="-161" font-family="Helvetica,sans-Serif" font-size="10.00">/github/workspace/client</text>
<text text-anchor="start" x="1246.21" y="-150" font-family="Helvetica,sans-Serif" font-size="10.00">/include/system/gameStates</text>
<text text-anchor="middle" x="1308.21" y="-139" font-family="Helvetica,sans-Serif" font-size="10.00">/SGamePlay.hpp</text>
</a>
</g>
</g>
<!-- Node22&#45;&gt;Node23 -->
<g id="edge30" class="edge">
<title>Node22&#45;&gt;Node23</title>
<path fill="none" stroke="#63b8ff" d="M931.74,-214.87C943.64,-212.89 955.74,-210.89 967.21,-209 1060.87,-193.57 1169.04,-176.01 1237.99,-164.85"/>
<polygon fill="#63b8ff" stroke="#63b8ff" points="931.21,-211.41 921.92,-216.5 932.36,-218.32 931.21,-211.41"/>
</g>
<!-- Node23&#45;&gt;Node12 -->
<g id="edge34" class="edge">
<title>Node23&#45;&gt;Node12</title>
<path fill="none" stroke="#63b8ff" d="M1322.9,-121.33C1336.72,-92.97 1356.79,-51.76 1367.26,-30.26"/>
<polygon fill="#63b8ff" stroke="#63b8ff" points="1319.84,-119.62 1318.61,-130.15 1326.14,-122.69 1319.84,-119.62"/>
</g>
<!-- Node24 -->
<g id="node24" class="node">
<title>Node24</title>
<g id="a_node24"><a xlink:href="GameEngine_8hpp.html" target="_top" xlink:title=" ">
<polygon fill="white" stroke="#666666" points="1595.71,-96 1434.71,-96 1434.71,-66 1595.71,-66 1595.71,-96"/>
<text text-anchor="start" x="1442.71" y="-84" font-family="Helvetica,sans-Serif" font-size="10.00">/github/workspace/client</text>
<text text-anchor="middle" x="1515.21" y="-73" font-family="Helvetica,sans-Serif" font-size="10.00">/include/system/GameEngine.hpp</text>
</a>
</g>
</g>
<!-- Node23&#45;&gt;Node24 -->
<g id="edge31" class="edge">
<title>Node23&#45;&gt;Node24</title>
<path fill="none" stroke="#63b8ff" d="M1378.34,-127.95C1409.52,-117.49 1445.21,-105.5 1472.33,-96.4"/>
<polygon fill="#63b8ff" stroke="#63b8ff" points="1377.33,-124.6 1368.96,-131.1 1379.56,-131.24 1377.33,-124.6"/>
</g>
<!-- Node24&#45;&gt;Node12 -->
<g id="edge33" class="edge">
<title>Node24&#45;&gt;Node12</title>
<path fill="none" stroke="#63b8ff" d="M1473.33,-60.99C1451.68,-51.16 1425.68,-39.36 1405.75,-30.31"/>
<polygon fill="#63b8ff" stroke="#63b8ff" points="1471.64,-64.07 1482.19,-65.01 1474.53,-57.69 1471.64,-64.07"/>
</g>
<!-- Node24&#45;&gt;Node17 -->
<g id="edge32" class="edge">
<title>Node24&#45;&gt;Node17</title>
<path fill="none" stroke="#63b8ff" d="M1527.44,-55.54C1531.73,-46.96 1536.4,-37.61 1540.13,-30.16"/>
<polygon fill="#63b8ff" stroke="#63b8ff" points="1524.33,-53.93 1522.99,-64.44 1530.59,-57.06 1524.33,-53.93"/>
</g>
<!-- Node26&#45;&gt;Node4 -->
<g id="edge42" class="edge">
<title>Node26&#45;&gt;Node4</title>
<path fill="none" stroke="#63b8ff" d="M440.95,-276.51C425.96,-257.06 402.98,-229.4 379.21,-209 360.43,-192.88 336.55,-178.12 318.4,-167.88"/>
<polygon fill="#63b8ff" stroke="#63b8ff" points="438.09,-278.53 446.92,-284.39 443.67,-274.3 438.09,-278.53"/>
</g>
<!-- Node27 -->
<g id="node27" class="node">
<title>Node27</title>
<g id="a_node27"><a xlink:href="Enemy_8hpp.html" target="_top" xlink:title=" ">
<polygon fill="white" stroke="#666666" points="370.21,-244.5 212.21,-244.5 212.21,-214.5 370.21,-214.5 370.21,-244.5"/>
<text text-anchor="start" x="220.21" y="-232.5" font-family="Helvetica,sans-Serif" font-size="10.00">/github/workspace/client</text>
<text text-anchor="middle" x="291.21" y="-221.5" font-family="Helvetica,sans-Serif" font-size="10.00">/include/Components/Enemy.hpp</text>
</a>
</g>
</g>
<!-- Node26&#45;&gt;Node27 -->
<g id="edge37" class="edge">
<title>Node26&#45;&gt;Node27</title>
<path fill="none" stroke="#63b8ff" d="M413.08,-281.22C385.61,-269.79 351.06,-255.41 325.77,-244.88"/>
<polygon fill="#63b8ff" stroke="#63b8ff" points="411.63,-284.41 422.21,-285.02 414.32,-277.94 411.63,-284.41"/>
</g>
<!-- Node28 -->
<g id="node28" class="node">
<title>Node28</title>
<g id="a_node28"><a xlink:href="Player_8hpp.html" target="_top" xlink:title=" ">
<polygon fill="white" stroke="#666666" points="620.21,-244.5 464.21,-244.5 464.21,-214.5 620.21,-214.5 620.21,-244.5"/>
<text text-anchor="start" x="472.21" y="-232.5" font-family="Helvetica,sans-Serif" font-size="10.00">/github/workspace/client</text>
<text text-anchor="middle" x="542.21" y="-221.5" font-family="Helvetica,sans-Serif" font-size="10.00">/include/Components/Player.hpp</text>
</a>
</g>
</g>
<!-- Node26&#45;&gt;Node28 -->
<g id="edge39" class="edge">
<title>Node26&#45;&gt;Node28</title>
<path fill="none" stroke="#63b8ff" d="M484.28,-278.43C497.47,-267.52 513.12,-254.57 524.83,-244.88"/>
<polygon fill="#63b8ff" stroke="#63b8ff" points="482.25,-275.56 476.78,-284.63 486.72,-280.96 482.25,-275.56"/>
</g>
<!-- Node27&#45;&gt;Node4 -->
<g id="edge38" class="edge">
<title>Node27&#45;&gt;Node4</title>
<path fill="none" stroke="#63b8ff" d="M291.21,-202.73C291.21,-191.08 291.21,-177.76 291.21,-167.92"/>
<polygon fill="#63b8ff" stroke="#63b8ff" points="287.71,-202.53 291.21,-212.53 294.71,-202.53 287.71,-202.53"/>
</g>
<!-- Node28&#45;&gt;Node4 -->
<g id="edge40" class="edge">
<title>Node28&#45;&gt;Node4</title>
<path fill="none" stroke="#63b8ff" d="M483.03,-210.82C439.26,-197.74 380.39,-180.15 339.46,-167.92"/>
<polygon fill="#63b8ff" stroke="#63b8ff" points="481.78,-214.1 492.36,-213.61 483.79,-207.39 481.78,-214.1"/>
</g>
<!-- Node29 -->
<g id="node29" class="node">
<title>Node29</title>
<g id="a_node29"><a xlink:href="Player_8cpp.html" target="_top" xlink:title=" ">
<polygon fill="white" stroke="#666666" points="603.21,-167.5 481.21,-167.5 481.21,-137.5 603.21,-137.5 603.21,-167.5"/>
<text text-anchor="start" x="489.21" y="-155.5" font-family="Helvetica,sans-Serif" font-size="10.00">/github/workspace/client</text>
<text text-anchor="middle" x="542.21" y="-144.5" font-family="Helvetica,sans-Serif" font-size="10.00">/src/Player.cpp</text>
</a>
</g>
</g>
<!-- Node28&#45;&gt;Node29 -->
<g id="edge41" class="edge">
<title>Node28&#45;&gt;Node29</title>
<path fill="none" stroke="#63b8ff" d="M542.21,-202.73C542.21,-191.08 542.21,-177.76 542.21,-167.92"/>
<polygon fill="#63b8ff" stroke="#63b8ff" points="538.71,-202.53 542.21,-212.53 545.71,-202.53 538.71,-202.53"/>
</g>
</g>
</svg>
        <g id="navigator" transform="translate(0 0)" fill="#404254">
                <rect fill="#f2f5e9" fill-opacity="0.5" stroke="#606060" stroke-width=".5" x="0" y="0" width="60" height="60"/>
                <use id="zoomplus" xlink:href="#zoomPlus" x="17" y="9" onmousedown="handleZoom(evt,'in')"/>
                <use id="zoomminus" xlink:href="#zoomMin" x="42" y="9" onmousedown="handleZoom(evt,'out')"/>
                <use id="reset" xlink:href="#resetDef" x="30" y="36" onmousedown="handleReset()"/>
                <g id="arrowUp" xlink:href="#dirArrow" transform="translate(30 24)" onmousedown="handlePan(0,-1)">
                  <use xlink:href="#rim" fill="#404040">
                        <set attributeName="fill" to="#808080" begin="arrowUp.mouseover" end="arrowUp.mouseout"/>
                  </use>
                  <path fill="none" stroke="white" stroke-width="1.5" d="M0,-3.0v7 M-2.5,-0.5L0,-3.0L2.5,-0.5"/>
                </g>
                <g id="arrowRight" xlink:href="#dirArrow" transform="rotate(90) translate(36 -43)" onmousedown="handlePan(1,0)">
                  <use xlink:href="#rim" fill="#404040">
                        <set attributeName="fill" to="#808080" begin="arrowRight.mouseover" end="arrowRight.mouseout"/>
                  </use>
                  <path fill="none" stroke="white" stroke-width="1.5" d="M0,-3.0v7 M-2.5,-0.5L0,-3.0L2.5,-0.5"/>
                </g>
                <g id="arrowDown" xlink:href="#dirArrow" transform="rotate(180) translate(-30 -48)" onmousedown="handlePan(0,1)">
                  <use xlink:href="#rim" fill="#404040">
                        <set attributeName="fill" to="#808080" begin="arrowDown.mouseover" end="arrowDown.mouseout"/>
                  </use>
                  <path fill="none" stroke="white" stroke-width="1.5" d="M0,-3.0v7 M-2.5,-0.5L0,-3.0L2.5,-0.5"/>
                </g>
                <g id="arrowLeft" xlink:href="#dirArrow" transform="rotate(270) translate(-36 17)" onmousedown="handlePan(-1,0)">
                  <use xlink:href="#rim" fill="#404040">
                        <set attributeName="fill" to="#808080" begin="arrowLeft.mouseover" end="arrowLeft.mouseout"/>
                  </use>
                  <path fill="none" stroke="white" stroke-width="1.5" d="M0,-3.0v7 M-2.5,-0.5L0,-3.0L2.5,-0.5"/>
                </g>
        </g>
        <svg viewBox="0 0 15 15" width="100%" height="30px" preserveAspectRatio="xMaxYMin meet">
         <g id="arrow_out" transform="scale(0.3 0.3)">
          <a xlink:href="Bullets_8hpp__dep__incl_org.svg" target="_base">
           <rect id="button" ry="5" rx="5" y="6" x="6" height="38" width="38"
                fill="#f2f5e9" fill-opacity="0.5" stroke="#606060" stroke-width="1.0"/>
           <path id="arrow"
             d="M 11.500037,31.436501 C 11.940474,20.09759 22.043105,11.32322 32.158766,21.979434 L 37.068811,17.246167 C 37.068811,17.246167 37.088388,32 37.088388,32 L 22.160133,31.978069 C 22.160133,31.978069 26.997745,27.140456 26.997745,27.140456 C 18.528582,18.264221 13.291696,25.230495 11.500037,31.436501 z"
             style="fill:#404040;"/>
          </a>
         </g>
        </svg>
</svg>
