<?xml version="1.0" encoding="UTF-8" standalone="no"?>
<!DOCTYPE svg PUBLIC "-//W3C//DTD SVG 1.1//EN"
 "http://www.w3.org/Graphics/SVG/1.1/DTD/svg11.dtd">
<!-- Generated by graphviz version 7.0.5 (20221223.1930)
 -->
<!-- Title: /github/workspace/client/include/Components/Centipede.hpp Pages: 1 -->
<svg width="1899pt" height="313pt"
 viewBox="0.00 0.00 1899.00 313.00" xmlns="http://www.w3.org/2000/svg" xmlns:xlink="http://www.w3.org/1999/xlink">
<g id="graph0" class="graph" transform="scale(1 1) rotate(0) translate(4 309)">
<title>/github/workspace/client/include/Components/Centipede.hpp</title>
<!-- Node1 -->
<g id="node1" class="node">
<title>Node1</title>
<g id="a_node1"><a xlink:title=" ">
<polygon fill="#999999" stroke="#666666" points="1867.5,-305 1694.5,-305 1694.5,-275 1867.5,-275 1867.5,-305"/>
<text text-anchor="start" x="1702.5" y="-293" font-family="Helvetica,sans-Serif" font-size="10.00">/github/workspace/client</text>
<text text-anchor="middle" x="1781" y="-282" font-family="Helvetica,sans-Serif" font-size="10.00">/include/Components/Centipede.hpp</text>
</a>
</g>
</g>
<!-- Node2 -->
<g id="node2" class="node">
<title>Node2</title>
<g id="a_node2"><a xlink:href="Engine_8hpp.html" target="_top" xlink:title=" ">
<polygon fill="white" stroke="#666666" points="926,-239 830,-239 830,-220 926,-220 926,-239"/>
<text text-anchor="middle" x="878" y="-227" font-family="Helvetica,sans-Serif" font-size="10.00">Engine/Engine.hpp</text>
</a>
</g>
</g>
<!-- Node1&#45;&gt;Node2 -->
<g id="edge1" class="edge">
<title>Node1&#45;&gt;Node2</title>
<path fill="none" stroke="#63b8ff" d="M1694.01,-283.36C1511.6,-271.55 1093.12,-244.44 937.62,-234.36"/>
<polygon fill="#63b8ff" stroke="#63b8ff" points="938.16,-230.89 927.96,-233.74 937.71,-237.88 938.16,-230.89"/>
</g>
<!-- Node13 -->
<g id="node13" class="node">
<title>Node13</title>
<g id="a_node13"><a xlink:title=" ">
<polygon fill="#e0e0e0" stroke="#999999" points="485,-19 441,-19 441,0 485,0 485,-19"/>
<text text-anchor="middle" x="463" y="-7" font-family="Helvetica,sans-Serif" font-size="10.00">vector</text>
</a>
</g>
</g>
<!-- Node1&#45;&gt;Node13 -->
<g id="edge44" class="edge">
<title>Node1&#45;&gt;Node13</title>
<path fill="none" stroke="#63b8ff" d="M1694.2,-288.06C1337.08,-283.65 0,-261.4 0,-175.5 0,-175.5 0,-175.5 0,-118.5 0,-30.28 322.82,-14.09 429.35,-11.15"/>
<polygon fill="#63b8ff" stroke="#63b8ff" points="429.25,-14.65 439.16,-10.9 429.07,-7.65 429.25,-14.65"/>
</g>
<!-- Node20 -->
<g id="node20" class="node">
<title>Node20</title>
<g id="a_node20"><a xlink:href="IComponents_8hpp.html" target="_top" xlink:title=" ">
<polygon fill="white" stroke="#666666" points="1662,-129 1512,-129 1512,-110 1662,-110 1662,-129"/>
<text text-anchor="middle" x="1587" y="-117" font-family="Helvetica,sans-Serif" font-size="10.00">Components/IComponents.hpp</text>
</a>
</g>
</g>
<!-- Node1&#45;&gt;Node20 -->
<g id="edge42" class="edge">
<title>Node1&#45;&gt;Node20</title>
<path fill="none" stroke="#63b8ff" d="M1783.41,-274.63C1786.8,-249.11 1789.81,-195.64 1762,-165 1748.42,-150.04 1704.16,-138.86 1663.55,-131.45"/>
<polygon fill="#63b8ff" stroke="#63b8ff" points="1664.17,-128.01 1653.72,-129.73 1662.96,-134.9 1664.17,-128.01"/>
</g>
<!-- Node27 -->
<g id="node27" class="node">
<title>Node27</title>
<g id="a_node27"><a xlink:title=" ">
<polygon fill="#e0e0e0" stroke="#999999" points="1778,-129 1732,-129 1732,-110 1778,-110 1778,-129"/>
<text text-anchor="middle" x="1755" y="-117" font-family="Helvetica,sans-Serif" font-size="10.00">math.h</text>
</a>
</g>
</g>
<!-- Node1&#45;&gt;Node27 -->
<g id="edge43" class="edge">
<title>Node1&#45;&gt;Node27</title>
<path fill="none" stroke="#63b8ff" d="M1786.8,-274.7C1795.5,-251.04 1809.42,-202.63 1795,-165 1790.89,-154.29 1782.89,-144.54 1775.11,-136.91"/>
<polygon fill="#63b8ff" stroke="#63b8ff" points="1777.53,-134.39 1767.77,-130.28 1772.84,-139.58 1777.53,-134.39"/>
</g>
<!-- Node29 -->
<g id="node29" class="node">
<title>Node29</title>
<g id="a_node29"><a xlink:title=" ">
<polygon fill="#e0e0e0" stroke="#999999" points="1891,-239 1847,-239 1847,-220 1891,-220 1891,-239"/>
<text text-anchor="middle" x="1869" y="-227" font-family="Helvetica,sans-Serif" font-size="10.00">cmath</text>
</a>
</g>
</g>
<!-- Node1&#45;&gt;Node29 -->
<g id="edge45" class="edge">
<title>Node1&#45;&gt;Node29</title>
<path fill="none" stroke="#63b8ff" d="M1802.75,-274.54C1815.97,-265.75 1832.83,-254.54 1846.24,-245.63"/>
<polygon fill="#63b8ff" stroke="#63b8ff" points="1848.04,-248.63 1854.43,-240.18 1844.17,-242.81 1848.04,-248.63"/>
</g>
<!-- Node3 -->
<g id="node3" class="node">
<title>Node3</title>
<g id="a_node3"><a xlink:title=" ">
<polygon fill="#e0e0e0" stroke="#999999" points="865.5,-184 776.5,-184 776.5,-165 865.5,-165 865.5,-184"/>
<text text-anchor="middle" x="821" y="-172" font-family="Helvetica,sans-Serif" font-size="10.00">SFML/Audio.hpp</text>
</a>
</g>
</g>
<!-- Node2&#45;&gt;Node3 -->
<g id="edge2" class="edge">
<title>Node2&#45;&gt;Node3</title>
<path fill="none" stroke="#63b8ff" d="M868.33,-219.51C860.26,-212 848.53,-201.1 838.78,-192.03"/>
<polygon fill="#63b8ff" stroke="#63b8ff" points="841.34,-189.63 831.63,-185.39 836.57,-194.76 841.34,-189.63"/>
</g>
<!-- Node4 -->
<g id="node4" class="node">
<title>Node4</title>
<g id="a_node4"><a xlink:title=" ">
<polygon fill="#e0e0e0" stroke="#999999" points="988,-184 884,-184 884,-165 988,-165 988,-184"/>
<text text-anchor="middle" x="936" y="-172" font-family="Helvetica,sans-Serif" font-size="10.00">SFML/Graphics.hpp</text>
</a>
</g>
</g>
<!-- Node2&#45;&gt;Node4 -->
<g id="edge3" class="edge">
<title>Node2&#45;&gt;Node4</title>
<path fill="none" stroke="#63b8ff" d="M887.84,-219.51C896.05,-212 907.98,-201.1 917.91,-192.03"/>
<polygon fill="#63b8ff" stroke="#63b8ff" points="920.17,-194.71 925.19,-185.38 915.45,-189.54 920.17,-194.71"/>
</g>
<!-- Node5 -->
<g id="node5" class="node">
<title>Node5</title>
<g id="a_node5"><a xlink:title=" ">
<polygon fill="#e0e0e0" stroke="#999999" points="1107.5,-184 1006.5,-184 1006.5,-165 1107.5,-165 1107.5,-184"/>
<text text-anchor="middle" x="1057" y="-172" font-family="Helvetica,sans-Serif" font-size="10.00">SFML/Network.hpp</text>
</a>
</g>
</g>
<!-- Node2&#45;&gt;Node5 -->
<g id="edge4" class="edge">
<title>Node2&#45;&gt;Node5</title>
<path fill="none" stroke="#63b8ff" d="M908.36,-219.51C937.9,-210.76 982.98,-197.42 1015.75,-187.71"/>
<polygon fill="#63b8ff" stroke="#63b8ff" points="1016.74,-191.07 1025.33,-184.88 1014.75,-184.36 1016.74,-191.07"/>
</g>
<!-- Node6 -->
<g id="node6" class="node">
<title>Node6</title>
<g id="a_node6"><a xlink:title=" ">
<polygon fill="#e0e0e0" stroke="#999999" points="1224.5,-184 1125.5,-184 1125.5,-165 1224.5,-165 1224.5,-184"/>
<text text-anchor="middle" x="1175" y="-172" font-family="Helvetica,sans-Serif" font-size="10.00">SFML/Window.hpp</text>
</a>
</g>
</g>
<!-- Node2&#45;&gt;Node6 -->
<g id="edge5" class="edge">
<title>Node2&#45;&gt;Node6</title>
<path fill="none" stroke="#63b8ff" d="M926.38,-219.87C977.59,-210.73 1058.53,-196.28 1114.06,-186.38"/>
<polygon fill="#63b8ff" stroke="#63b8ff" points="1114.43,-189.86 1123.66,-184.66 1113.2,-182.97 1114.43,-189.86"/>
</g>
<!-- Node7 -->
<g id="node7" class="node">
<title>Node7</title>
<g id="a_node7"><a xlink:title=" ">
<polygon fill="#e0e0e0" stroke="#999999" points="1341,-184 1243,-184 1243,-165 1341,-165 1341,-184"/>
<text text-anchor="middle" x="1292" y="-172" font-family="Helvetica,sans-Serif" font-size="10.00">SFML/System.hpp</text>
</a>
</g>
</g>
<!-- Node2&#45;&gt;Node7 -->
<g id="edge6" class="edge">
<title>Node2&#45;&gt;Node7</title>
<path fill="none" stroke="#63b8ff" d="M926.41,-222.78C992.8,-214.86 1116.12,-199.89 1231.51,-184.31"/>
<polygon fill="#63b8ff" stroke="#63b8ff" points="1231.71,-187.82 1241.15,-183.01 1230.77,-180.88 1231.71,-187.82"/>
</g>
<!-- Node8 -->
<g id="node8" class="node">
<title>Node8</title>
<g id="a_node8"><a xlink:title=" ">
<polygon fill="#e0e0e0" stroke="#999999" points="778,-19 724,-19 724,0 778,0 778,-19"/>
<text text-anchor="middle" x="751" y="-7" font-family="Helvetica,sans-Serif" font-size="10.00">iostream</text>
</a>
</g>
</g>
<!-- Node2&#45;&gt;Node8 -->
<g id="edge7" class="edge">
<title>Node2&#45;&gt;Node8</title>
<path fill="none" stroke="#63b8ff" d="M926.28,-227.55C1040.87,-224.8 1321.85,-214.93 1350,-184 1355.68,-177.75 1355.17,-171.68 1350,-165 1279.82,-74.42 910.43,-27.5 789.42,-14.39"/>
<polygon fill="#63b8ff" stroke="#63b8ff" points="790,-10.93 779.68,-13.35 789.26,-17.89 790,-10.93"/>
</g>
<!-- Node9 -->
<g id="node9" class="node">
<title>Node9</title>
<g id="a_node9"><a xlink:title=" ">
<polygon fill="#e0e0e0" stroke="#999999" points="1485,-184 1435,-184 1435,-165 1485,-165 1485,-184"/>
<text text-anchor="middle" x="1460" y="-172" font-family="Helvetica,sans-Serif" font-size="10.00">fstream</text>
</a>
</g>
</g>
<!-- Node2&#45;&gt;Node9 -->
<g id="edge8" class="edge">
<title>Node2&#45;&gt;Node9</title>
<path fill="none" stroke="#63b8ff" d="M926.19,-226.7C1021.26,-222.68 1239.51,-211.09 1421,-184 1421.99,-183.85 1422.99,-183.69 1424,-183.53"/>
<polygon fill="#63b8ff" stroke="#63b8ff" points="1424.24,-187.04 1433.43,-181.76 1422.95,-180.16 1424.24,-187.04"/>
</g>
<!-- Node10 -->
<g id="node10" class="node">
<title>Node10</title>
<g id="a_node10"><a xlink:title=" ">
<polygon fill="#e0e0e0" stroke="#999999" points="1544.5,-184 1503.5,-184 1503.5,-165 1544.5,-165 1544.5,-184"/>
<text text-anchor="middle" x="1524" y="-172" font-family="Helvetica,sans-Serif" font-size="10.00">string</text>
</a>
</g>
</g>
<!-- Node2&#45;&gt;Node10 -->
<g id="edge9" class="edge">
<title>Node2&#45;&gt;Node10</title>
<path fill="none" stroke="#63b8ff" d="M926.33,-228.35C1028.98,-227.3 1276.26,-221 1491.93,-183.96"/>
<polygon fill="#63b8ff" stroke="#63b8ff" points="1492.41,-187.43 1501.65,-182.26 1491.2,-180.53 1492.41,-187.43"/>
</g>
<!-- Node11 -->
<g id="node11" class="node">
<title>Node11</title>
<g id="a_node11"><a xlink:title=" ">
<polygon fill="#e0e0e0" stroke="#999999" points="1613,-184 1563,-184 1563,-165 1613,-165 1613,-184"/>
<text text-anchor="middle" x="1588" y="-172" font-family="Helvetica,sans-Serif" font-size="10.00">unistd.h</text>
</a>
</g>
</g>
<!-- Node2&#45;&gt;Node11 -->
<g id="edge10" class="edge">
<title>Node2&#45;&gt;Node11</title>
<path fill="none" stroke="#63b8ff" d="M926.27,-228.28C1035.93,-227.15 1312.2,-220.73 1551.83,-184.03"/>
<polygon fill="#63b8ff" stroke="#63b8ff" points="1552.01,-187.55 1561.36,-182.55 1550.94,-180.63 1552.01,-187.55"/>
</g>
<!-- Node12 -->
<g id="node12" class="node">
<title>Node12</title>
<g id="a_node12"><a xlink:title=" ">
<polygon fill="#e0e0e0" stroke="#999999" points="93.5,-184 28.5,-184 28.5,-165 93.5,-165 93.5,-184"/>
<text text-anchor="middle" x="61" y="-172" font-family="Helvetica,sans-Serif" font-size="10.00">sys/types.h</text>
</a>
</g>
</g>
<!-- Node2&#45;&gt;Node12 -->
<g id="edge11" class="edge">
<title>Node2&#45;&gt;Node12</title>
<path fill="none" stroke="#63b8ff" d="M829.71,-228.11C709.13,-226.63 385.03,-219.51 105.13,-184.06"/>
<polygon fill="#63b8ff" stroke="#63b8ff" points="105.81,-180.62 95.44,-182.82 104.92,-187.56 105.81,-180.62"/>
</g>
<!-- Node2&#45;&gt;Node13 -->
<g id="edge12" class="edge">
<title>Node2&#45;&gt;Node13</title>
<path fill="none" stroke="#63b8ff" d="M829.57,-227.08C722.33,-223.44 472.26,-212 447,-184 408.06,-140.83 436.61,-64.69 453.26,-29.41"/>
<polygon fill="#63b8ff" stroke="#63b8ff" points="456.2,-31.37 457.48,-20.85 449.92,-28.27 456.2,-31.37"/>
</g>
<!-- Node14 -->
<g id="node14" class="node">
<title>Node14</title>
<g id="a_node14"><a xlink:title=" ">
<polygon fill="#e0e0e0" stroke="#999999" points="280,-184 222,-184 222,-165 280,-165 280,-184"/>
<text text-anchor="middle" x="251" y="-172" font-family="Helvetica,sans-Serif" font-size="10.00">exception</text>
</a>
</g>
</g>
<!-- Node2&#45;&gt;Node14 -->
<g id="edge13" class="edge">
<title>Node2&#45;&gt;Node14</title>
<path fill="none" stroke="#63b8ff" d="M829.73,-227.12C730.79,-223.8 497.68,-213.46 291.65,-183.99"/>
<polygon fill="#63b8ff" stroke="#63b8ff" points="292.2,-180.54 281.81,-182.56 291.2,-187.46 292.2,-180.54"/>
</g>
<!-- Node15 -->
<g id="node15" class="node">
<title>Node15</title>
<g id="a_node15"><a xlink:href="Window_8hpp.html" target="_top" xlink:title=" ">
<polygon fill="white" stroke="#666666" points="399.5,-184 298.5,-184 298.5,-165 399.5,-165 399.5,-184"/>
<text text-anchor="middle" x="349" y="-172" font-family="Helvetica,sans-Serif" font-size="10.00">Engine/Window.hpp</text>
</a>
</g>
</g>
<!-- Node2&#45;&gt;Node15 -->
<g id="edge14" class="edge">
<title>Node2&#45;&gt;Node15</title>
<path fill="none" stroke="#63b8ff" d="M829.58,-224.85C745.69,-217.98 568.16,-202.27 411.12,-184.68"/>
<polygon fill="#63b8ff" stroke="#63b8ff" points="411.68,-181.22 401.35,-183.57 410.9,-188.17 411.68,-181.22"/>
</g>
<!-- Node16 -->
<g id="node16" class="node">
<title>Node16</title>
<g id="a_node16"><a xlink:href="Event_8hpp.html" target="_top" xlink:title=" ">
<polygon fill="white" stroke="#666666" points="204,-184 112,-184 112,-165 204,-165 204,-184"/>
<text text-anchor="middle" x="158" y="-172" font-family="Helvetica,sans-Serif" font-size="10.00">Engine/Event.hpp</text>
</a>
</g>
</g>
<!-- Node2&#45;&gt;Node16 -->
<g id="edge16" class="edge">
<title>Node2&#45;&gt;Node16</title>
<path fill="none" stroke="#63b8ff" d="M829.8,-226.89C720.66,-222.74 446.76,-210.23 215.66,-185.27"/>
<polygon fill="#63b8ff" stroke="#63b8ff" points="216.17,-181.81 205.85,-184.2 215.41,-188.77 216.17,-181.81"/>
</g>
<!-- Node19 -->
<g id="node19" class="node">
<title>Node19</title>
<g id="a_node19"><a xlink:href="EntitiesManager_8hpp.html" target="_top" xlink:title=" ">
<polygon fill="white" stroke="#666666" points="758,-184 618,-184 618,-165 758,-165 758,-184"/>
<text text-anchor="middle" x="688" y="-172" font-family="Helvetica,sans-Serif" font-size="10.00">Entities/EntitiesManager.hpp</text>
</a>
</g>
</g>
<!-- Node2&#45;&gt;Node19 -->
<g id="edge20" class="edge">
<title>Node2&#45;&gt;Node19</title>
<path fill="none" stroke="#63b8ff" d="M840.55,-219.51C807.23,-210.73 758.91,-197.3 725.56,-187.59"/>
<polygon fill="#63b8ff" stroke="#63b8ff" points="726.9,-184.33 716.32,-184.87 724.92,-191.05 726.9,-184.33"/>
</g>
<!-- Node26 -->
<g id="node26" class="node">
<title>Node26</title>
<g id="a_node26"><a xlink:href="Bullets_8hpp.html" target="_top" xlink:title=" ">
<polygon fill="white" stroke="#666666" points="1753,-184 1631,-184 1631,-165 1753,-165 1753,-184"/>
<text text-anchor="middle" x="1692" y="-172" font-family="Helvetica,sans-Serif" font-size="10.00">Components/Bullets.hpp</text>
</a>
</g>
</g>
<!-- Node2&#45;&gt;Node26 -->
<g id="edge36" class="edge">
<title>Node2&#45;&gt;Node26</title>
<path fill="none" stroke="#63b8ff" d="M926.19,-226.45C1043.82,-221.47 1354.29,-207.42 1613,-184 1615.15,-183.81 1617.33,-183.6 1619.54,-183.38"/>
<polygon fill="#63b8ff" stroke="#63b8ff" points="1619.64,-186.89 1629.22,-182.37 1618.91,-179.93 1619.64,-186.89"/>
</g>
<!-- Node28 -->
<g id="node28" class="node">
<title>Node28</title>
<g id="a_node28"><a xlink:href="Background_8hpp.html" target="_top" xlink:title=" ">
<polygon fill="white" stroke="#666666" points="600,-184 456,-184 456,-165 600,-165 600,-184"/>
<text text-anchor="middle" x="528" y="-172" font-family="Helvetica,sans-Serif" font-size="10.00">Components/Background.hpp</text>
</a>
</g>
</g>
<!-- Node2&#45;&gt;Node28 -->
<g id="edge40" class="edge">
<title>Node2&#45;&gt;Node28</title>
<path fill="none" stroke="#63b8ff" d="M829.74,-221.89C768.25,-212.96 661.95,-196.91 593.29,-186.23"/>
<polygon fill="#63b8ff" stroke="#63b8ff" points="594.1,-182.81 583.68,-184.73 593.02,-189.73 594.1,-182.81"/>
</g>
<!-- Node15&#45;&gt;Node2 -->
<g id="edge15" class="edge">
<title>Node15&#45;&gt;Node2</title>
<path fill="none" stroke="#63b8ff" d="M399.78,-181.2C407.6,-182.18 415.54,-183.15 423,-184 564.79,-200.07 731.39,-215.11 818.41,-222.92"/>
<polygon fill="#63b8ff" stroke="#63b8ff" points="817.86,-226.39 828.14,-223.79 818.49,-219.41 817.86,-226.39"/>
</g>
<!-- Node16&#45;&gt;Node2 -->
<g id="edge17" class="edge">
<title>Node16&#45;&gt;Node2</title>
<path fill="none" stroke="#63b8ff" d="M204.41,-181.74C210.36,-182.58 216.33,-183.37 222,-184 441.32,-208.24 702.9,-221.06 818.36,-226.02"/>
<polygon fill="#63b8ff" stroke="#63b8ff" points="818.08,-229.51 828.22,-226.44 818.38,-222.52 818.08,-229.51"/>
</g>
<!-- Node17 -->
<g id="node17" class="node">
<title>Node17</title>
<g id="a_node17"><a xlink:title=" ">
<polygon fill="#e0e0e0" stroke="#999999" points="199.5,-129 170.5,-129 170.5,-110 199.5,-110 199.5,-129"/>
<text text-anchor="middle" x="185" y="-117" font-family="Helvetica,sans-Serif" font-size="10.00">list</text>
</a>
</g>
</g>
<!-- Node16&#45;&gt;Node17 -->
<g id="edge18" class="edge">
<title>Node16&#45;&gt;Node17</title>
<path fill="none" stroke="#63b8ff" d="M162.46,-164.75C165.95,-157.88 170.95,-148.08 175.35,-139.45"/>
<polygon fill="#63b8ff" stroke="#63b8ff" points="178.34,-141.29 179.76,-130.79 172.1,-138.11 178.34,-141.29"/>
</g>
<!-- Node18 -->
<g id="node18" class="node">
<title>Node18</title>
<g id="a_node18"><a xlink:title=" ">
<polygon fill="#e0e0e0" stroke="#999999" points="152.5,-129 109.5,-129 109.5,-110 152.5,-110 152.5,-129"/>
<text text-anchor="middle" x="131" y="-117" font-family="Helvetica,sans-Serif" font-size="10.00">queue</text>
</a>
</g>
</g>
<!-- Node16&#45;&gt;Node18 -->
<g id="edge19" class="edge">
<title>Node16&#45;&gt;Node18</title>
<path fill="none" stroke="#63b8ff" d="M153.54,-164.75C150.05,-157.88 145.05,-148.08 140.65,-139.45"/>
<polygon fill="#63b8ff" stroke="#63b8ff" points="143.9,-138.11 136.24,-130.79 137.66,-141.29 143.9,-138.11"/>
</g>
<!-- Node19&#45;&gt;Node2 -->
<g id="edge21" class="edge">
<title>Node19&#45;&gt;Node2</title>
<path fill="none" stroke="#63b8ff" d="M725.28,-184.45C758.55,-193.21 806.87,-206.64 840.27,-216.36"/>
<polygon fill="#63b8ff" stroke="#63b8ff" points="838.95,-219.62 849.53,-219.08 840.92,-212.91 838.95,-219.62"/>
</g>
<!-- Node19&#45;&gt;Node20 -->
<g id="edge22" class="edge">
<title>Node19&#45;&gt;Node20</title>
<path fill="none" stroke="#63b8ff" d="M758.22,-165.83C761.53,-165.54 764.8,-165.26 768,-165 1034.47,-143.62 1350.56,-129.67 1500.19,-123.74"/>
<polygon fill="#63b8ff" stroke="#63b8ff" points="1500.17,-127.25 1510.03,-123.36 1499.9,-120.25 1500.17,-127.25"/>
</g>
<!-- Node21 -->
<g id="node21" class="node">
<title>Node21</title>
<g id="a_node21"><a xlink:href="SparseArray_8hpp.html" target="_top" xlink:title=" ">
<polygon fill="white" stroke="#666666" points="730.5,-129 619.5,-129 619.5,-110 730.5,-110 730.5,-129"/>
<text text-anchor="middle" x="675" y="-117" font-family="Helvetica,sans-Serif" font-size="10.00">Utils/SparseArray.hpp</text>
</a>
</g>
</g>
<!-- Node19&#45;&gt;Node21 -->
<g id="edge24" class="edge">
<title>Node19&#45;&gt;Node21</title>
<path fill="none" stroke="#63b8ff" d="M685.85,-164.75C684.24,-158.19 681.98,-148.95 679.93,-140.6"/>
<polygon fill="#63b8ff" stroke="#63b8ff" points="683.34,-139.79 677.55,-130.91 676.54,-141.46 683.34,-139.79"/>
</g>
<!-- Node20&#45;&gt;Node2 -->
<g id="edge23" class="edge">
<title>Node20&#45;&gt;Node2</title>
<path fill="none" stroke="#63b8ff" d="M1548.45,-129.47C1515.52,-137.53 1467.1,-150.33 1426,-165 1406.32,-172.02 1403.23,-178.79 1383,-184 1300.29,-205.29 1052.73,-219.88 937.82,-225.69"/>
<polygon fill="#63b8ff" stroke="#63b8ff" points="937.78,-222.18 927.97,-226.18 938.13,-229.18 937.78,-222.18"/>
</g>
<!-- Node21&#45;&gt;Node8 -->
<g id="edge25" class="edge">
<title>Node21&#45;&gt;Node8</title>
<path fill="none" stroke="#63b8ff" d="M681.22,-109.66C693.63,-92.02 721.71,-52.12 738.21,-28.67"/>
<polygon fill="#63b8ff" stroke="#63b8ff" points="740.93,-30.89 743.82,-20.7 735.21,-26.86 740.93,-30.89"/>
</g>
<!-- Node21&#45;&gt;Node13 -->
<g id="edge28" class="edge">
<title>Node21&#45;&gt;Node13</title>
<path fill="none" stroke="#63b8ff" d="M628.44,-109.51C599.39,-102.6 561.96,-91.27 532,-74 510.71,-61.73 490.54,-41.86 477.57,-27.61"/>
<polygon fill="#63b8ff" stroke="#63b8ff" points="480.39,-25.51 471.15,-20.33 475.14,-30.14 480.39,-25.51"/>
</g>
<!-- Node22 -->
<g id="node22" class="node">
<title>Node22</title>
<g id="a_node22"><a xlink:title=" ">
<polygon fill="#e0e0e0" stroke="#999999" points="701,-19 645,-19 645,0 701,0 701,-19"/>
<text text-anchor="middle" x="673" y="-7" font-family="Helvetica,sans-Serif" font-size="10.00">algorithm</text>
</a>
</g>
</g>
<!-- Node21&#45;&gt;Node22 -->
<g id="edge26" class="edge">
<title>Node21&#45;&gt;Node22</title>
<path fill="none" stroke="#63b8ff" d="M679.25,-109.51C684.52,-97.25 692.41,-74.57 689,-55 687.52,-46.51 684.57,-37.51 681.59,-29.84"/>
<polygon fill="#63b8ff" stroke="#63b8ff" points="684.93,-28.73 677.84,-20.85 678.47,-31.43 684.93,-28.73"/>
</g>
<!-- Node23 -->
<g id="node23" class="node">
<title>Node23</title>
<g id="a_node23"><a xlink:title=" ">
<polygon fill="#e0e0e0" stroke="#999999" points="554,-19 516,-19 516,0 554,0 554,-19"/>
<text text-anchor="middle" x="535" y="-7" font-family="Helvetica,sans-Serif" font-size="10.00">array</text>
</a>
</g>
</g>
<!-- Node21&#45;&gt;Node23 -->
<g id="edge27" class="edge">
<title>Node21&#45;&gt;Node23</title>
<path fill="none" stroke="#63b8ff" d="M619.08,-112.28C593.19,-106.5 564.19,-95.38 546,-74 535.9,-62.13 533.53,-44.37 533.48,-30.64"/>
<polygon fill="#63b8ff" stroke="#63b8ff" points="536.96,-31.11 533.86,-20.98 529.97,-30.83 536.96,-31.11"/>
</g>
<!-- Node24 -->
<g id="node24" class="node">
<title>Node24</title>
<g id="a_node24"><a xlink:title=" ">
<polygon fill="#e0e0e0" stroke="#999999" points="623.5,-19 584.5,-19 584.5,0 623.5,0 623.5,-19"/>
<text text-anchor="middle" x="604" y="-7" font-family="Helvetica,sans-Serif" font-size="10.00">utility</text>
</a>
</g>
</g>
<!-- Node21&#45;&gt;Node24 -->
<g id="edge29" class="edge">
<title>Node21&#45;&gt;Node24</title>
<path fill="none" stroke="#63b8ff" d="M673.96,-109.62C672.1,-96.7 667.3,-72.36 656,-55 648.63,-43.68 637.56,-33.64 627.52,-25.97"/>
<polygon fill="#63b8ff" stroke="#63b8ff" points="629.75,-23.27 619.59,-20.27 625.66,-28.95 629.75,-23.27"/>
</g>
<!-- Node25 -->
<g id="node25" class="node">
<title>Node25</title>
<g id="a_node25"><a xlink:href="Vectors_8hpp.html" target="_top" xlink:title=" ">
<polygon fill="white" stroke="#666666" points="647,-74 555,-74 555,-55 647,-55 647,-74"/>
<text text-anchor="middle" x="601" y="-62" font-family="Helvetica,sans-Serif" font-size="10.00">Utils/Vectors.hpp</text>
</a>
</g>
</g>
<!-- Node21&#45;&gt;Node25 -->
<g id="edge30" class="edge">
<title>Node21&#45;&gt;Node25</title>
<path fill="none" stroke="#63b8ff" d="M662.45,-109.51C651.54,-101.7 635.5,-90.21 622.54,-80.93"/>
<polygon fill="#63b8ff" stroke="#63b8ff" points="624.77,-78.22 614.6,-75.24 620.69,-83.91 624.77,-78.22"/>
</g>
<!-- Node25&#45;&gt;Node8 -->
<g id="edge31" class="edge">
<title>Node25&#45;&gt;Node8</title>
<path fill="none" stroke="#63b8ff" d="M626.45,-54.51C650.76,-45.92 687.66,-32.88 714.99,-23.22"/>
<polygon fill="#63b8ff" stroke="#63b8ff" points="715.99,-26.58 724.25,-19.95 713.66,-19.98 715.99,-26.58"/>
</g>
<!-- Node25&#45;&gt;Node13 -->
<g id="edge34" class="edge">
<title>Node25&#45;&gt;Node13</title>
<path fill="none" stroke="#63b8ff" d="M577.59,-54.51C555.08,-45.87 520.86,-32.72 495.67,-23.05"/>
<polygon fill="#63b8ff" stroke="#63b8ff" points="497.16,-19.87 486.57,-19.55 494.65,-26.4 497.16,-19.87"/>
</g>
<!-- Node25&#45;&gt;Node22 -->
<g id="edge32" class="edge">
<title>Node25&#45;&gt;Node22</title>
<path fill="none" stroke="#63b8ff" d="M613.21,-54.51C623.83,-46.7 639.44,-35.21 652.04,-25.93"/>
<polygon fill="#63b8ff" stroke="#63b8ff" points="653.77,-29 659.75,-20.26 649.62,-23.36 653.77,-29"/>
</g>
<!-- Node25&#45;&gt;Node23 -->
<g id="edge33" class="edge">
<title>Node25&#45;&gt;Node23</title>
<path fill="none" stroke="#63b8ff" d="M589.8,-54.51C580.26,-46.85 566.33,-35.66 554.89,-26.47"/>
<polygon fill="#63b8ff" stroke="#63b8ff" points="557.2,-23.84 547.21,-20.31 552.82,-29.3 557.2,-23.84"/>
</g>
<!-- Node25&#45;&gt;Node24 -->
<g id="edge35" class="edge">
<title>Node25&#45;&gt;Node24</title>
<path fill="none" stroke="#63b8ff" d="M601.5,-54.75C601.86,-48.27 602.38,-39.16 602.85,-30.9"/>
<polygon fill="#63b8ff" stroke="#63b8ff" points="606.34,-31.13 603.41,-20.95 599.35,-30.74 606.34,-31.13"/>
</g>
<!-- Node26&#45;&gt;Node2 -->
<g id="edge37" class="edge">
<title>Node26&#45;&gt;Node2</title>
<path fill="none" stroke="#63b8ff" d="M1630.61,-184.04C1373.56,-207.29 1065.54,-221.31 937.85,-226.36"/>
<polygon fill="#63b8ff" stroke="#63b8ff" points="937.79,-222.86 927.94,-226.74 938.06,-229.85 937.79,-222.86"/>
</g>
<!-- Node26&#45;&gt;Node20 -->
<g id="edge38" class="edge">
<title>Node26&#45;&gt;Node20</title>
<path fill="none" stroke="#63b8ff" d="M1674.19,-164.51C1657.87,-156.27 1633.47,-143.96 1614.63,-134.45"/>
<polygon fill="#63b8ff" stroke="#63b8ff" points="1616.4,-131.42 1605.9,-130.04 1613.25,-137.67 1616.4,-131.42"/>
</g>
<!-- Node26&#45;&gt;Node27 -->
<g id="edge39" class="edge">
<title>Node26&#45;&gt;Node27</title>
<path fill="none" stroke="#63b8ff" d="M1702.69,-164.51C1711.7,-156.93 1724.83,-145.88 1735.68,-136.75"/>
<polygon fill="#63b8ff" stroke="#63b8ff" points="1737.91,-139.45 1743.31,-130.33 1733.41,-134.09 1737.91,-139.45"/>
</g>
<!-- Node28&#45;&gt;Node2 -->
<g id="edge41" class="edge">
<title>Node28&#45;&gt;Node2</title>
<path fill="none" stroke="#63b8ff" d="M592.44,-184.47C657.09,-193.96 755.73,-208.88 818.55,-218.68"/>
<polygon fill="#63b8ff" stroke="#63b8ff" points="817.94,-222.13 828.36,-220.22 819.02,-215.21 817.94,-222.13"/>
</g>
</g>
</svg>
