<?xml version="1.0" encoding="UTF-8" standalone="no"?>
<!DOCTYPE svg PUBLIC "-//W3C//DTD SVG 1.1//EN"
 "http://www.w3.org/Graphics/SVG/1.1/DTD/svg11.dtd">
<!-- Generated by graphviz version 7.0.5 (20221223.1930)
 -->
<!-- Title: /github/workspace/client/include/Components/Centipede.hpp Pages: 1 -->
<!--zoomable 313 -->
<svg id="main" version="1.1" xmlns="http://www.w3.org/2000/svg" xmlns:xlink="http://www.w3.org/1999/xlink" xml:space="preserve" onload="init(evt)">
<style type="text/css"><![CDATA[
.edge:hover path { stroke: red; }
.edge:hover polygon { stroke: red; fill: red; }
]]></style>
<script type="text/javascript"><![CDATA[
var edges = document.getElementsByTagName('g');
if (edges && edges.length) {
  for (var i=0;i<edges.length;i++) {
    if (edges[i].id.substr(0,4)=='edge') {
      edges[i].setAttribute('class','edge');
    }
  }
}
]]></script>
        <defs>
                <circle id="rim" cx="0" cy="0" r="7"/>
                <circle id="rim2" cx="0" cy="0" r="3.5"/>
                <g id="zoomPlus">
                        <use xlink:href="#rim" fill="#404040">
                                <set attributeName="fill" to="#808080" begin="zoomplus.mouseover" end="zoomplus.mouseout"/>
                        </use>
                        <path d="M-4,0h8M0,-4v8" fill="none" stroke="white" stroke-width="1.5" pointer-events="none"/>
                </g>
                <g id="zoomMin">
                        <use xlink:href="#rim" fill="#404040">
                                <set attributeName="fill" to="#808080" begin="zoomminus.mouseover" end="zoomminus.mouseout"/>
                        </use>
                        <path d="M-4,0h8" fill="none" stroke="white" stroke-width="1.5" pointer-events="none"/>
                </g>
                <g id="dirArrow">
                        <path fill="none" stroke="white" stroke-width="1.5" d="M0,-3.0v7 M-2.5,-0.5L0,-3.0L2.5,-0.5"/>
                </g>
               <g id="resetDef">
                       <use xlink:href="#rim2" fill="#404040">
                               <set attributeName="fill" to="#808080" begin="reset.mouseover" end="reset.mouseout"/>
                       </use>
               </g>
        </defs>

<script type="text/javascript">
var viewWidth = 2045;
var viewHeight = 313;
var sectionId = 'dynsection-0';
</script>
<script xlink:href="svgpan.js"/>
<svg id="graph" class="graph">
<g id="viewport">
<title>/github/workspace/client/include/Components/Centipede.hpp</title>
<!-- Node1 -->
<g id="node1" class="node">
<title>Node1</title>
<g id="a_node1"><a xlink:title=" ">
<polygon fill="#999999" stroke="#666666" points="2013.5,-305 1840.5,-305 1840.5,-275 2013.5,-275 2013.5,-305"/>
<text text-anchor="start" x="1848.5" y="-293" font-family="Helvetica,sans-Serif" font-size="10.00">/github/workspace/client</text>
<text text-anchor="middle" x="1927" y="-282" font-family="Helvetica,sans-Serif" font-size="10.00">/include/Components/Centipede.hpp</text>
</a>
</g>
</g>
<!-- Node2 -->
<g id="node2" class="node">
<title>Node2</title>
<g id="a_node2"><a xlink:href="Engine_8hpp.html" target="_top" xlink:title=" ">
<polygon fill="white" stroke="#666666" points="942,-239 846,-239 846,-220 942,-220 942,-239"/>
<text text-anchor="middle" x="894" y="-227" font-family="Helvetica,sans-Serif" font-size="10.00">Engine/Engine.hpp</text>
</a>
</g>
</g>
<!-- Node1&#45;&gt;Node2 -->
<g id="edge1" class="edge">
<title>Node1&#45;&gt;Node2</title>
<path fill="none" stroke="#63b8ff" d="M1840.26,-284.09C1635.88,-272.51 1128.2,-243.76 953.88,-233.89"/>
<polygon fill="#63b8ff" stroke="#63b8ff" points="954.1,-230.4 943.91,-233.33 953.7,-237.39 954.1,-230.4"/>
</g>
<!-- Node13 -->
<g id="node13" class="node">
<title>Node13</title>
<g id="a_node13"><a xlink:title=" ">
<polygon fill="#e0e0e0" stroke="#999999" points="616,-19 572,-19 572,0 616,0 616,-19"/>
<text text-anchor="middle" x="594" y="-7" font-family="Helvetica,sans-Serif" font-size="10.00">vector</text>
</a>
</g>
</g>
<!-- Node1&#45;&gt;Node13 -->
<g id="edge47" class="edge">
<title>Node1&#45;&gt;Node13</title>
<path fill="none" stroke="#63b8ff" d="M1840.14,-288.49C1464.68,-285.74 0,-269 0,-175.5 0,-175.5 0,-175.5 0,-118.5 0,-61.07 435.42,-22.81 560.67,-13"/>
<polygon fill="#63b8ff" stroke="#63b8ff" points="560.59,-16.51 570.29,-12.25 560.05,-9.53 560.59,-16.51"/>
</g>
<!-- Node23 -->
<g id="node23" class="node">
<title>Node23</title>
<g id="a_node23"><a xlink:href="IComponents_8hpp.html" target="_top" xlink:title=" ">
<polygon fill="white" stroke="#666666" points="1809,-129 1651,-129 1651,-110 1809,-110 1809,-129"/>
<text text-anchor="middle" x="1730" y="-117" font-family="Helvetica,sans-Serif" font-size="10.00">../Components/IComponents.hpp</text>
</a>
</g>
</g>
<!-- Node1&#45;&gt;Node23 -->
<g id="edge45" class="edge">
<title>Node1&#45;&gt;Node23</title>
<path fill="none" stroke="#63b8ff" d="M1929.42,-274.62C1932.84,-249.08 1935.87,-195.59 1908,-165 1894.24,-149.9 1849.6,-138.76 1808.47,-131.41"/>
<polygon fill="#63b8ff" stroke="#63b8ff" points="1809.21,-127.98 1798.76,-129.73 1808.02,-134.88 1809.21,-127.98"/>
</g>
<!-- Node30 -->
<g id="node30" class="node">
<title>Node30</title>
<g id="a_node30"><a xlink:title=" ">
<polygon fill="#e0e0e0" stroke="#999999" points="1924,-129 1878,-129 1878,-110 1924,-110 1924,-129"/>
<text text-anchor="middle" x="1901" y="-117" font-family="Helvetica,sans-Serif" font-size="10.00">math.h</text>
</a>
</g>
</g>
<!-- Node1&#45;&gt;Node30 -->
<g id="edge46" class="edge">
<title>Node1&#45;&gt;Node30</title>
<path fill="none" stroke="#63b8ff" d="M1932.8,-274.7C1941.5,-251.04 1955.42,-202.63 1941,-165 1936.89,-154.29 1928.89,-144.54 1921.11,-136.91"/>
<polygon fill="#63b8ff" stroke="#63b8ff" points="1923.53,-134.39 1913.77,-130.28 1918.84,-139.58 1923.53,-134.39"/>
</g>
<!-- Node32 -->
<g id="node32" class="node">
<title>Node32</title>
<g id="a_node32"><a xlink:title=" ">
<polygon fill="#e0e0e0" stroke="#999999" points="2037,-239 1993,-239 1993,-220 2037,-220 2037,-239"/>
<text text-anchor="middle" x="2015" y="-227" font-family="Helvetica,sans-Serif" font-size="10.00">cmath</text>
</a>
</g>
</g>
<!-- Node1&#45;&gt;Node32 -->
<g id="edge48" class="edge">
<title>Node1&#45;&gt;Node32</title>
<path fill="none" stroke="#63b8ff" d="M1948.75,-274.54C1961.97,-265.75 1978.83,-254.54 1992.24,-245.63"/>
<polygon fill="#63b8ff" stroke="#63b8ff" points="1994.04,-248.63 2000.43,-240.18 1990.17,-242.81 1994.04,-248.63"/>
</g>
<!-- Node3 -->
<g id="node3" class="node">
<title>Node3</title>
<g id="a_node3"><a xlink:title=" ">
<polygon fill="#e0e0e0" stroke="#999999" points="1005.5,-184 916.5,-184 916.5,-165 1005.5,-165 1005.5,-184"/>
<text text-anchor="middle" x="961" y="-172" font-family="Helvetica,sans-Serif" font-size="10.00">SFML/Audio.hpp</text>
</a>
</g>
</g>
<!-- Node2&#45;&gt;Node3 -->
<g id="edge2" class="edge">
<title>Node2&#45;&gt;Node3</title>
<path fill="none" stroke="#63b8ff" d="M905.37,-219.51C915.05,-211.85 929.2,-200.66 940.81,-191.47"/>
<polygon fill="#63b8ff" stroke="#63b8ff" points="942.94,-194.25 948.62,-185.3 938.6,-188.76 942.94,-194.25"/>
</g>
<!-- Node4 -->
<g id="node4" class="node">
<title>Node4</title>
<g id="a_node4"><a xlink:title=" ">
<polygon fill="#e0e0e0" stroke="#999999" points="1128,-184 1024,-184 1024,-165 1128,-165 1128,-184"/>
<text text-anchor="middle" x="1076" y="-172" font-family="Helvetica,sans-Serif" font-size="10.00">SFML/Graphics.hpp</text>
</a>
</g>
</g>
<!-- Node2&#45;&gt;Node4 -->
<g id="edge3" class="edge">
<title>Node2&#45;&gt;Node4</title>
<path fill="none" stroke="#63b8ff" d="M924.87,-219.51C955.03,-210.73 1001.14,-197.3 1034.5,-187.59"/>
<polygon fill="#63b8ff" stroke="#63b8ff" points="1035.2,-191.03 1043.83,-184.87 1033.25,-184.31 1035.2,-191.03"/>
</g>
<!-- Node5 -->
<g id="node5" class="node">
<title>Node5</title>
<g id="a_node5"><a xlink:title=" ">
<polygon fill="#e0e0e0" stroke="#999999" points="1247.5,-184 1146.5,-184 1146.5,-165 1247.5,-165 1247.5,-184"/>
<text text-anchor="middle" x="1197" y="-172" font-family="Helvetica,sans-Serif" font-size="10.00">SFML/Network.hpp</text>
</a>
</g>
</g>
<!-- Node2&#45;&gt;Node5 -->
<g id="edge4" class="edge">
<title>Node2&#45;&gt;Node5</title>
<path fill="none" stroke="#63b8ff" d="M942.35,-220.04C994.59,-210.91 1077.98,-196.32 1135.01,-186.34"/>
<polygon fill="#63b8ff" stroke="#63b8ff" points="1135.31,-189.84 1144.55,-184.67 1134.1,-182.95 1135.31,-189.84"/>
</g>
<!-- Node6 -->
<g id="node6" class="node">
<title>Node6</title>
<g id="a_node6"><a xlink:title=" ">
<polygon fill="#e0e0e0" stroke="#999999" points="1364.5,-184 1265.5,-184 1265.5,-165 1364.5,-165 1364.5,-184"/>
<text text-anchor="middle" x="1315" y="-172" font-family="Helvetica,sans-Serif" font-size="10.00">SFML/Window.hpp</text>
</a>
</g>
</g>
<!-- Node2&#45;&gt;Node6 -->
<g id="edge5" class="edge">
<title>Node2&#45;&gt;Node6</title>
<path fill="none" stroke="#63b8ff" d="M942.49,-222.92C1009.96,-215.08 1136.31,-200.11 1253.69,-184.42"/>
<polygon fill="#63b8ff" stroke="#63b8ff" points="1254.08,-187.9 1263.52,-183.1 1253.15,-180.96 1254.08,-187.9"/>
</g>
<!-- Node7 -->
<g id="node7" class="node">
<title>Node7</title>
<g id="a_node7"><a xlink:title=" ">
<polygon fill="#e0e0e0" stroke="#999999" points="1481,-184 1383,-184 1383,-165 1481,-165 1481,-184"/>
<text text-anchor="middle" x="1432" y="-172" font-family="Helvetica,sans-Serif" font-size="10.00">SFML/System.hpp</text>
</a>
</g>
</g>
<!-- Node2&#45;&gt;Node7 -->
<g id="edge6" class="edge">
<title>Node2&#45;&gt;Node7</title>
<path fill="none" stroke="#63b8ff" d="M942.46,-224.86C1027.23,-218.31 1208.16,-203.51 1371.44,-184.25"/>
<polygon fill="#63b8ff" stroke="#63b8ff" points="1371.64,-187.75 1381.16,-183.09 1370.82,-180.8 1371.64,-187.75"/>
</g>
<!-- Node8 -->
<g id="node8" class="node">
<title>Node8</title>
<g id="a_node8"><a xlink:title=" ">
<polygon fill="#e0e0e0" stroke="#999999" points="913,-19 859,-19 859,0 913,0 913,-19"/>
<text text-anchor="middle" x="886" y="-7" font-family="Helvetica,sans-Serif" font-size="10.00">iostream</text>
</a>
</g>
</g>
<!-- Node2&#45;&gt;Node8 -->
<g id="edge7" class="edge">
<title>Node2&#45;&gt;Node8</title>
<path fill="none" stroke="#63b8ff" d="M942.19,-228.57C1077.42,-228.27 1453.03,-223.83 1490,-184 1571.39,-96.3 1069.94,-31.52 924.63,-14.76"/>
<polygon fill="#63b8ff" stroke="#63b8ff" points="925.08,-11.29 914.74,-13.63 924.28,-18.24 925.08,-11.29"/>
</g>
<!-- Node9 -->
<g id="node9" class="node">
<title>Node9</title>
<g id="a_node9"><a xlink:title=" ">
<polygon fill="#e0e0e0" stroke="#999999" points="1625,-184 1575,-184 1575,-165 1625,-165 1625,-184"/>
<text text-anchor="middle" x="1600" y="-172" font-family="Helvetica,sans-Serif" font-size="10.00">fstream</text>
</a>
</g>
</g>
<!-- Node2&#45;&gt;Node9 -->
<g id="edge8" class="edge">
<title>Node2&#45;&gt;Node9</title>
<path fill="none" stroke="#63b8ff" d="M942.38,-227.72C1052.65,-225.41 1330.89,-216.57 1561,-184 1561.82,-183.88 1562.66,-183.76 1563.49,-183.63"/>
<polygon fill="#63b8ff" stroke="#63b8ff" points="1563.8,-187.13 1573.01,-181.89 1562.55,-180.24 1563.8,-187.13"/>
</g>
<!-- Node10 -->
<g id="node10" class="node">
<title>Node10</title>
<g id="a_node10"><a xlink:title=" ">
<polygon fill="#e0e0e0" stroke="#999999" points="1691,-184 1643,-184 1643,-165 1691,-165 1691,-184"/>
<text text-anchor="middle" x="1667" y="-172" font-family="Helvetica,sans-Serif" font-size="10.00">string.h</text>
</a>
</g>
</g>
<!-- Node2&#45;&gt;Node10 -->
<g id="edge9" class="edge">
<title>Node2&#45;&gt;Node10</title>
<path fill="none" stroke="#63b8ff" d="M942.39,-228.79C1059.37,-228.81 1366.72,-224.78 1631.23,-184.12"/>
<polygon fill="#63b8ff" stroke="#63b8ff" points="1631.77,-187.58 1641.11,-182.57 1630.69,-180.66 1631.77,-187.58"/>
</g>
<!-- Node11 -->
<g id="node11" class="node">
<title>Node11</title>
<g id="a_node11"><a xlink:title=" ">
<polygon fill="#e0e0e0" stroke="#999999" points="1759,-184 1709,-184 1709,-165 1759,-165 1759,-184"/>
<text text-anchor="middle" x="1734" y="-172" font-family="Helvetica,sans-Serif" font-size="10.00">unistd.h</text>
</a>
</g>
</g>
<!-- Node2&#45;&gt;Node11 -->
<g id="edge10" class="edge">
<title>Node2&#45;&gt;Node11</title>
<path fill="none" stroke="#63b8ff" d="M942.48,-229.01C1066.68,-229.65 1406.47,-227.12 1697.65,-184.03"/>
<polygon fill="#63b8ff" stroke="#63b8ff" points="1697.99,-187.52 1707.36,-182.58 1696.95,-180.6 1697.99,-187.52"/>
</g>
<!-- Node12 -->
<g id="node12" class="node">
<title>Node12</title>
<g id="a_node12"><a xlink:title=" ">
<polygon fill="#e0e0e0" stroke="#999999" points="93.5,-184 28.5,-184 28.5,-165 93.5,-165 93.5,-184"/>
<text text-anchor="middle" x="61" y="-172" font-family="Helvetica,sans-Serif" font-size="10.00">sys/types.h</text>
</a>
</g>
</g>
<!-- Node2&#45;&gt;Node12 -->
<g id="edge11" class="edge">
<title>Node2&#45;&gt;Node12</title>
<path fill="none" stroke="#63b8ff" d="M845.63,-228.19C723.23,-226.89 391.23,-220.15 104.96,-184.04"/>
<polygon fill="#63b8ff" stroke="#63b8ff" points="105.8,-180.62 95.44,-182.82 104.92,-187.56 105.8,-180.62"/>
</g>
<!-- Node2&#45;&gt;Node13 -->
<g id="edge12" class="edge">
<title>Node2&#45;&gt;Node13</title>
<path fill="none" stroke="#63b8ff" d="M845.67,-228.84C767.78,-228.24 619.87,-221.97 587,-184 549.25,-140.38 571.85,-65.02 585.67,-29.75"/>
<polygon fill="#63b8ff" stroke="#63b8ff" points="588.77,-31.41 589.34,-20.83 582.3,-28.74 588.77,-31.41"/>
</g>
<!-- Node14 -->
<g id="node14" class="node">
<title>Node14</title>
<g id="a_node14"><a xlink:title=" ">
<polygon fill="#e0e0e0" stroke="#999999" points="278,-184 222,-184 222,-165 278,-165 278,-184"/>
<text text-anchor="middle" x="250" y="-172" font-family="Helvetica,sans-Serif" font-size="10.00">stdbool.h</text>
</a>
</g>
</g>
<!-- Node2&#45;&gt;Node14 -->
<g id="edge13" class="edge">
<title>Node2&#45;&gt;Node14</title>
<path fill="none" stroke="#63b8ff" d="M845.82,-227.36C744.64,-224.45 502.57,-214.79 289.24,-183.91"/>
<polygon fill="#63b8ff" stroke="#63b8ff" points="290.04,-180.49 279.63,-182.5 289.02,-187.41 290.04,-180.49"/>
</g>
<!-- Node15 -->
<g id="node15" class="node">
<title>Node15</title>
<g id="a_node15"><a xlink:title=" ">
<polygon fill="#e0e0e0" stroke="#999999" points="343.5,-184 296.5,-184 296.5,-165 343.5,-165 343.5,-184"/>
<text text-anchor="middle" x="320" y="-172" font-family="Helvetica,sans-Serif" font-size="10.00">stdlib.h</text>
</a>
</g>
</g>
<!-- Node2&#45;&gt;Node15 -->
<g id="edge14" class="edge">
<title>Node2&#45;&gt;Node15</title>
<path fill="none" stroke="#63b8ff" d="M845.53,-227.27C752.31,-224.32 541.49,-214.75 354.82,-183.98"/>
<polygon fill="#63b8ff" stroke="#63b8ff" points="355.62,-180.57 345.18,-182.37 354.47,-187.47 355.62,-180.57"/>
</g>
<!-- Node16 -->
<g id="node16" class="node">
<title>Node16</title>
<g id="a_node16"><a xlink:title=" ">
<polygon fill="#e0e0e0" stroke="#999999" points="420,-184 362,-184 362,-165 420,-165 420,-184"/>
<text text-anchor="middle" x="391" y="-172" font-family="Helvetica,sans-Serif" font-size="10.00">exception</text>
</a>
</g>
</g>
<!-- Node2&#45;&gt;Node16 -->
<g id="edge15" class="edge">
<title>Node2&#45;&gt;Node16</title>
<path fill="none" stroke="#63b8ff" d="M845.67,-225.77C763.03,-220.68 589.11,-208.17 431.63,-184.04"/>
<polygon fill="#63b8ff" stroke="#63b8ff" points="432.23,-180.59 421.81,-182.51 431.16,-187.51 432.23,-180.59"/>
</g>
<!-- Node17 -->
<g id="node17" class="node">
<title>Node17</title>
<g id="a_node17"><a xlink:href="Window_8hpp.html" target="_top" xlink:title=" ">
<polygon fill="white" stroke="#666666" points="539.5,-184 438.5,-184 438.5,-165 539.5,-165 539.5,-184"/>
<text text-anchor="middle" x="489" y="-172" font-family="Helvetica,sans-Serif" font-size="10.00">Engine/Window.hpp</text>
</a>
</g>
</g>
<!-- Node2&#45;&gt;Node17 -->
<g id="edge16" class="edge">
<title>Node2&#45;&gt;Node17</title>
<path fill="none" stroke="#63b8ff" d="M845.89,-222.78C772.31,-213.52 632.1,-195.21 551,-184.29"/>
<polygon fill="#63b8ff" stroke="#63b8ff" points="551.84,-180.87 541.46,-183 550.9,-187.81 551.84,-180.87"/>
</g>
<!-- Node18 -->
<g id="node18" class="node">
<title>Node18</title>
<g id="a_node18"><a xlink:href="Event_8hpp.html" target="_top" xlink:title=" ">
<polygon fill="white" stroke="#666666" points="204,-184 112,-184 112,-165 204,-165 204,-184"/>
<text text-anchor="middle" x="158" y="-172" font-family="Helvetica,sans-Serif" font-size="10.00">Engine/Event.hpp</text>
</a>
</g>
</g>
<!-- Node2&#45;&gt;Node18 -->
<g id="edge18" class="edge">
<title>Node2&#45;&gt;Node18</title>
<path fill="none" stroke="#63b8ff" d="M845.59,-226.97C734.45,-222.97 452.93,-210.7 215.62,-185.26"/>
<polygon fill="#63b8ff" stroke="#63b8ff" points="216.17,-181.8 205.86,-184.2 215.42,-188.76 216.17,-181.8"/>
</g>
<!-- Node22 -->
<g id="node22" class="node">
<title>Node22</title>
<g id="a_node22"><a xlink:href="EntitiesManager_8hpp.html" target="_top" xlink:title=" ">
<polygon fill="white" stroke="#666666" points="898,-184 758,-184 758,-165 898,-165 898,-184"/>
<text text-anchor="middle" x="828" y="-172" font-family="Helvetica,sans-Serif" font-size="10.00">Entities/EntitiesManager.hpp</text>
</a>
</g>
</g>
<!-- Node2&#45;&gt;Node22 -->
<g id="edge23" class="edge">
<title>Node2&#45;&gt;Node22</title>
<path fill="none" stroke="#63b8ff" d="M877.59,-219.51C866.67,-212 852.73,-201.1 842.28,-192.03"/>
<polygon fill="#63b8ff" stroke="#63b8ff" points="844.71,-189.51 834.96,-185.38 840.01,-194.69 844.71,-189.51"/>
</g>
<!-- Node29 -->
<g id="node29" class="node">
<title>Node29</title>
<g id="a_node29"><a xlink:href="Bullets_8hpp.html" target="_top" xlink:title=" ">
<polygon fill="white" stroke="#666666" points="1899,-184 1777,-184 1777,-165 1899,-165 1899,-184"/>
<text text-anchor="middle" x="1838" y="-172" font-family="Helvetica,sans-Serif" font-size="10.00">Components/Bullets.hpp</text>
</a>
</g>
</g>
<!-- Node2&#45;&gt;Node29 -->
<g id="edge39" class="edge">
<title>Node2&#45;&gt;Node29</title>
<path fill="none" stroke="#63b8ff" d="M942.43,-227.1C1073.99,-223.21 1448.31,-210.74 1759,-184 1761.15,-183.81 1763.34,-183.62 1765.54,-183.4"/>
<polygon fill="#63b8ff" stroke="#63b8ff" points="1765.63,-186.91 1775.22,-182.41 1764.92,-179.95 1765.63,-186.91"/>
</g>
<!-- Node31 -->
<g id="node31" class="node">
<title>Node31</title>
<g id="a_node31"><a xlink:href="Background_8hpp.html" target="_top" xlink:title=" ">
<polygon fill="white" stroke="#666666" points="740,-184 596,-184 596,-165 740,-165 740,-184"/>
<text text-anchor="middle" x="668" y="-172" font-family="Helvetica,sans-Serif" font-size="10.00">Components/Background.hpp</text>
</a>
</g>
</g>
<!-- Node2&#45;&gt;Node31 -->
<g id="edge43" class="edge">
<title>Node2&#45;&gt;Node31</title>
<path fill="none" stroke="#63b8ff" d="M850.45,-219.51C810.56,-210.59 751.96,-196.89 711.95,-187.15"/>
<polygon fill="#63b8ff" stroke="#63b8ff" points="712.96,-183.79 702.41,-184.81 711.29,-190.59 712.96,-183.79"/>
</g>
<!-- Node17&#45;&gt;Node2 -->
<g id="edge17" class="edge">
<title>Node17&#45;&gt;Node2</title>
<path fill="none" stroke="#63b8ff" d="M539.87,-181.57C614.91,-191.02 754.77,-209.3 834.48,-220.04"/>
<polygon fill="#63b8ff" stroke="#63b8ff" points="833.91,-223.5 844.28,-221.37 834.84,-216.56 833.91,-223.5"/>
</g>
<!-- Node18&#45;&gt;Node2 -->
<g id="edge19" class="edge">
<title>Node18&#45;&gt;Node2</title>
<path fill="none" stroke="#63b8ff" d="M204.41,-181.75C210.36,-182.59 216.33,-183.38 222,-184 447.68,-208.76 717.05,-221.39 834.5,-226.17"/>
<polygon fill="#63b8ff" stroke="#63b8ff" points="834.07,-229.66 844.2,-226.56 834.35,-222.66 834.07,-229.66"/>
</g>
<!-- Node19 -->
<g id="node19" class="node">
<title>Node19</title>
<g id="a_node19"><a xlink:title=" ">
<polygon fill="#e0e0e0" stroke="#999999" points="172.5,-129 143.5,-129 143.5,-110 172.5,-110 172.5,-129"/>
<text text-anchor="middle" x="158" y="-117" font-family="Helvetica,sans-Serif" font-size="10.00">list</text>
</a>
</g>
</g>
<!-- Node18&#45;&gt;Node19 -->
<g id="edge20" class="edge">
<title>Node18&#45;&gt;Node19</title>
<path fill="none" stroke="#63b8ff" d="M158,-164.75C158,-158.27 158,-149.16 158,-140.9"/>
<polygon fill="#63b8ff" stroke="#63b8ff" points="161.5,-140.96 158,-130.96 154.5,-140.96 161.5,-140.96"/>
</g>
<!-- Node20 -->
<g id="node20" class="node">
<title>Node20</title>
<g id="a_node20"><a xlink:title=" ">
<polygon fill="#e0e0e0" stroke="#999999" points="233.5,-129 190.5,-129 190.5,-110 233.5,-110 233.5,-129"/>
<text text-anchor="middle" x="212" y="-117" font-family="Helvetica,sans-Serif" font-size="10.00">queue</text>
</a>
</g>
</g>
<!-- Node18&#45;&gt;Node20 -->
<g id="edge21" class="edge">
<title>Node18&#45;&gt;Node20</title>
<path fill="none" stroke="#63b8ff" d="M166.92,-164.75C174.45,-157.35 185.47,-146.54 194.73,-137.45"/>
<polygon fill="#63b8ff" stroke="#63b8ff" points="197.12,-140 201.81,-130.5 192.22,-135.01 197.12,-140"/>
</g>
<!-- Node21 -->
<g id="node21" class="node">
<title>Node21</title>
<g id="a_node21"><a xlink:title=" ">
<polygon fill="#e0e0e0" stroke="#999999" points="125,-129 63,-129 63,-110 125,-110 125,-129"/>
<text text-anchor="middle" x="94" y="-117" font-family="Helvetica,sans-Serif" font-size="10.00">Skaldi.hpp</text>
</a>
</g>
</g>
<!-- Node18&#45;&gt;Node21 -->
<g id="edge22" class="edge">
<title>Node18&#45;&gt;Node21</title>
<path fill="none" stroke="#63b8ff" d="M147.14,-164.51C137.89,-156.85 124.38,-145.66 113.29,-136.47"/>
<polygon fill="#63b8ff" stroke="#63b8ff" points="115.8,-134.01 105.86,-130.32 111.33,-139.4 115.8,-134.01"/>
</g>
<!-- Node22&#45;&gt;Node2 -->
<g id="edge24" class="edge">
<title>Node22&#45;&gt;Node2</title>
<path fill="none" stroke="#63b8ff" d="M844.34,-184.44C855.31,-191.97 869.33,-202.95 879.82,-212.06"/>
<polygon fill="#63b8ff" stroke="#63b8ff" points="877.4,-214.58 887.15,-218.73 882.11,-209.41 877.4,-214.58"/>
</g>
<!-- Node22&#45;&gt;Node23 -->
<g id="edge25" class="edge">
<title>Node22&#45;&gt;Node23</title>
<path fill="none" stroke="#63b8ff" d="M898.22,-165.83C901.53,-165.54 904.8,-165.26 908,-165 1173.46,-143.73 1487.97,-129.85 1639.49,-123.87"/>
<polygon fill="#63b8ff" stroke="#63b8ff" points="1639.19,-127.38 1649.04,-123.49 1638.92,-120.39 1639.19,-127.38"/>
</g>
<!-- Node24 -->
<g id="node24" class="node">
<title>Node24</title>
<g id="a_node24"><a xlink:href="SparseArray_8hpp.html" target="_top" xlink:title=" ">
<polygon fill="white" stroke="#666666" points="865.5,-129 754.5,-129 754.5,-110 865.5,-110 865.5,-129"/>
<text text-anchor="middle" x="810" y="-117" font-family="Helvetica,sans-Serif" font-size="10.00">Utils/SparseArray.hpp</text>
</a>
</g>
</g>
<!-- Node22&#45;&gt;Node24 -->
<g id="edge27" class="edge">
<title>Node22&#45;&gt;Node24</title>
<path fill="none" stroke="#63b8ff" d="M825.03,-164.75C822.77,-158.11 819.59,-148.73 816.73,-140.31"/>
<polygon fill="#63b8ff" stroke="#63b8ff" points="820.05,-139.22 813.52,-130.88 813.43,-141.47 820.05,-139.22"/>
</g>
<!-- Node23&#45;&gt;Node2 -->
<g id="edge26" class="edge">
<title>Node23&#45;&gt;Node2</title>
<path fill="none" stroke="#63b8ff" d="M1690.39,-129.47C1656.85,-137.48 1607.71,-150.22 1566,-165 1546.31,-171.98 1543.28,-178.97 1523,-184 1416.15,-210.53 1088.91,-222.84 953.56,-226.9"/>
<polygon fill="#63b8ff" stroke="#63b8ff" points="953.63,-223.4 943.74,-227.19 953.84,-230.39 953.63,-223.4"/>
</g>
<!-- Node24&#45;&gt;Node8 -->
<g id="edge28" class="edge">
<title>Node24&#45;&gt;Node8</title>
<path fill="none" stroke="#63b8ff" d="M816.22,-109.66C828.63,-92.02 856.71,-52.12 873.21,-28.67"/>
<polygon fill="#63b8ff" stroke="#63b8ff" points="875.93,-30.89 878.82,-20.7 870.21,-26.86 875.93,-30.89"/>
</g>
<!-- Node24&#45;&gt;Node13 -->
<g id="edge31" class="edge">
<title>Node24&#45;&gt;Node13</title>
<path fill="none" stroke="#63b8ff" d="M764.9,-109.53C735.75,-102.54 697.65,-91.1 667,-74 644.65,-61.53 623.04,-41.41 609.21,-27.16"/>
<polygon fill="#63b8ff" stroke="#63b8ff" points="612.12,-25.14 602.71,-20.27 607.03,-29.95 612.12,-25.14"/>
</g>
<!-- Node25 -->
<g id="node25" class="node">
<title>Node25</title>
<g id="a_node25"><a xlink:title=" ">
<polygon fill="#e0e0e0" stroke="#999999" points="836,-19 780,-19 780,0 836,0 836,-19"/>
<text text-anchor="middle" x="808" y="-7" font-family="Helvetica,sans-Serif" font-size="10.00">algorithm</text>
</a>
</g>
</g>
<!-- Node24&#45;&gt;Node25 -->
<g id="edge29" class="edge">
<title>Node24&#45;&gt;Node25</title>
<path fill="none" stroke="#63b8ff" d="M814.25,-109.51C819.52,-97.25 827.41,-74.57 824,-55 822.52,-46.51 819.57,-37.51 816.59,-29.84"/>
<polygon fill="#63b8ff" stroke="#63b8ff" points="819.93,-28.73 812.84,-20.85 813.47,-31.43 819.93,-28.73"/>
</g>
<!-- Node26 -->
<g id="node26" class="node">
<title>Node26</title>
<g id="a_node26"><a xlink:title=" ">
<polygon fill="#e0e0e0" stroke="#999999" points="689,-19 651,-19 651,0 689,0 689,-19"/>
<text text-anchor="middle" x="670" y="-7" font-family="Helvetica,sans-Serif" font-size="10.00">array</text>
</a>
</g>
</g>
<!-- Node24&#45;&gt;Node26 -->
<g id="edge30" class="edge">
<title>Node24&#45;&gt;Node26</title>
<path fill="none" stroke="#63b8ff" d="M754.08,-112.28C728.19,-106.5 699.19,-95.38 681,-74 670.9,-62.13 668.53,-44.37 668.48,-30.64"/>
<polygon fill="#63b8ff" stroke="#63b8ff" points="671.96,-31.11 668.86,-20.98 664.97,-30.83 671.96,-31.11"/>
</g>
<!-- Node27 -->
<g id="node27" class="node">
<title>Node27</title>
<g id="a_node27"><a xlink:title=" ">
<polygon fill="#e0e0e0" stroke="#999999" points="758.5,-19 719.5,-19 719.5,0 758.5,0 758.5,-19"/>
<text text-anchor="middle" x="739" y="-7" font-family="Helvetica,sans-Serif" font-size="10.00">utility</text>
</a>
</g>
</g>
<!-- Node24&#45;&gt;Node27 -->
<g id="edge32" class="edge">
<title>Node24&#45;&gt;Node27</title>
<path fill="none" stroke="#63b8ff" d="M808.96,-109.62C807.1,-96.7 802.3,-72.36 791,-55 783.63,-43.68 772.56,-33.64 762.52,-25.97"/>
<polygon fill="#63b8ff" stroke="#63b8ff" points="764.75,-23.27 754.59,-20.27 760.66,-28.95 764.75,-23.27"/>
</g>
<!-- Node28 -->
<g id="node28" class="node">
<title>Node28</title>
<g id="a_node28"><a xlink:href="Vectors_8hpp.html" target="_top" xlink:title=" ">
<polygon fill="white" stroke="#666666" points="782,-74 690,-74 690,-55 782,-55 782,-74"/>
<text text-anchor="middle" x="736" y="-62" font-family="Helvetica,sans-Serif" font-size="10.00">Utils/Vectors.hpp</text>
</a>
</g>
</g>
<!-- Node24&#45;&gt;Node28 -->
<g id="edge33" class="edge">
<title>Node24&#45;&gt;Node28</title>
<path fill="none" stroke="#63b8ff" d="M797.45,-109.51C786.54,-101.7 770.5,-90.21 757.54,-80.93"/>
<polygon fill="#63b8ff" stroke="#63b8ff" points="759.77,-78.22 749.6,-75.24 755.69,-83.91 759.77,-78.22"/>
</g>
<!-- Node28&#45;&gt;Node8 -->
<g id="edge34" class="edge">
<title>Node28&#45;&gt;Node8</title>
<path fill="none" stroke="#63b8ff" d="M761.45,-54.51C785.76,-45.92 822.66,-32.88 849.99,-23.22"/>
<polygon fill="#63b8ff" stroke="#63b8ff" points="850.99,-26.58 859.25,-19.95 848.66,-19.98 850.99,-26.58"/>
</g>
<!-- Node28&#45;&gt;Node13 -->
<g id="edge37" class="edge">
<title>Node28&#45;&gt;Node13</title>
<path fill="none" stroke="#63b8ff" d="M711.91,-54.51C688.51,-45.77 652.8,-32.45 626.81,-22.75"/>
<polygon fill="#63b8ff" stroke="#63b8ff" points="628.34,-19.58 617.75,-19.36 625.89,-26.14 628.34,-19.58"/>
</g>
<!-- Node28&#45;&gt;Node25 -->
<g id="edge35" class="edge">
<title>Node28&#45;&gt;Node25</title>
<path fill="none" stroke="#63b8ff" d="M748.21,-54.51C758.83,-46.7 774.44,-35.21 787.04,-25.93"/>
<polygon fill="#63b8ff" stroke="#63b8ff" points="788.77,-29 794.75,-20.26 784.62,-23.36 788.77,-29"/>
</g>
<!-- Node28&#45;&gt;Node26 -->
<g id="edge36" class="edge">
<title>Node28&#45;&gt;Node26</title>
<path fill="none" stroke="#63b8ff" d="M724.8,-54.51C715.26,-46.85 701.33,-35.66 689.89,-26.47"/>
<polygon fill="#63b8ff" stroke="#63b8ff" points="692.2,-23.84 682.21,-20.31 687.82,-29.3 692.2,-23.84"/>
</g>
<!-- Node28&#45;&gt;Node27 -->
<g id="edge38" class="edge">
<title>Node28&#45;&gt;Node27</title>
<path fill="none" stroke="#63b8ff" d="M736.5,-54.75C736.86,-48.27 737.38,-39.16 737.85,-30.9"/>
<polygon fill="#63b8ff" stroke="#63b8ff" points="741.34,-31.13 738.41,-20.95 734.35,-30.74 741.34,-31.13"/>
</g>
<!-- Node29&#45;&gt;Node2 -->
<g id="edge40" class="edge">
<title>Node29&#45;&gt;Node2</title>
<path fill="none" stroke="#63b8ff" d="M1776.53,-184.04C1467.8,-210.59 1096.42,-223.06 953.72,-227.03"/>
<polygon fill="#63b8ff" stroke="#63b8ff" points="953.65,-223.53 943.75,-227.3 953.84,-230.53 953.65,-223.53"/>
</g>
<!-- Node29&#45;&gt;Node23 -->
<g id="edge41" class="edge">
<title>Node29&#45;&gt;Node23</title>
<path fill="none" stroke="#63b8ff" d="M1819.68,-164.51C1802.82,-156.24 1777.57,-143.84 1758.15,-134.31"/>
<polygon fill="#63b8ff" stroke="#63b8ff" points="1759.93,-131.29 1749.41,-130.02 1756.84,-137.57 1759.93,-131.29"/>
</g>
<!-- Node29&#45;&gt;Node30 -->
<g id="edge42" class="edge">
<title>Node29&#45;&gt;Node30</title>
<path fill="none" stroke="#63b8ff" d="M1848.69,-164.51C1857.7,-156.93 1870.83,-145.88 1881.68,-136.75"/>
<polygon fill="#63b8ff" stroke="#63b8ff" points="1883.91,-139.45 1889.31,-130.33 1879.41,-134.09 1883.91,-139.45"/>
</g>
<!-- Node31&#45;&gt;Node2 -->
<g id="edge44" class="edge">
<title>Node31&#45;&gt;Node2</title>
<path fill="none" stroke="#63b8ff" d="M711.36,-184.45C751.18,-193.35 809.78,-207.05 849.85,-216.81"/>
<polygon fill="#63b8ff" stroke="#63b8ff" points="848.86,-220.17 859.41,-219.15 850.53,-213.37 848.86,-220.17"/>
</g>
</g>
</svg>
        <g id="navigator" transform="translate(0 0)" fill="#404254">
                <rect fill="#f2f5e9" fill-opacity="0.5" stroke="#606060" stroke-width=".5" x="0" y="0" width="60" height="60"/>
                <use id="zoomplus" xlink:href="#zoomPlus" x="17" y="9" onmousedown="handleZoom(evt,'in')"/>
                <use id="zoomminus" xlink:href="#zoomMin" x="42" y="9" onmousedown="handleZoom(evt,'out')"/>
                <use id="reset" xlink:href="#resetDef" x="30" y="36" onmousedown="handleReset()"/>
                <g id="arrowUp" xlink:href="#dirArrow" transform="translate(30 24)" onmousedown="handlePan(0,-1)">
                  <use xlink:href="#rim" fill="#404040">
                        <set attributeName="fill" to="#808080" begin="arrowUp.mouseover" end="arrowUp.mouseout"/>
                  </use>
                  <path fill="none" stroke="white" stroke-width="1.5" d="M0,-3.0v7 M-2.5,-0.5L0,-3.0L2.5,-0.5"/>
                </g>
                <g id="arrowRight" xlink:href="#dirArrow" transform="rotate(90) translate(36 -43)" onmousedown="handlePan(1,0)">
                  <use xlink:href="#rim" fill="#404040">
                        <set attributeName="fill" to="#808080" begin="arrowRight.mouseover" end="arrowRight.mouseout"/>
                  </use>
                  <path fill="none" stroke="white" stroke-width="1.5" d="M0,-3.0v7 M-2.5,-0.5L0,-3.0L2.5,-0.5"/>
                </g>
                <g id="arrowDown" xlink:href="#dirArrow" transform="rotate(180) translate(-30 -48)" onmousedown="handlePan(0,1)">
                  <use xlink:href="#rim" fill="#404040">
                        <set attributeName="fill" to="#808080" begin="arrowDown.mouseover" end="arrowDown.mouseout"/>
                  </use>
                  <path fill="none" stroke="white" stroke-width="1.5" d="M0,-3.0v7 M-2.5,-0.5L0,-3.0L2.5,-0.5"/>
                </g>
                <g id="arrowLeft" xlink:href="#dirArrow" transform="rotate(270) translate(-36 17)" onmousedown="handlePan(-1,0)">
                  <use xlink:href="#rim" fill="#404040">
                        <set attributeName="fill" to="#808080" begin="arrowLeft.mouseover" end="arrowLeft.mouseout"/>
                  </use>
                  <path fill="none" stroke="white" stroke-width="1.5" d="M0,-3.0v7 M-2.5,-0.5L0,-3.0L2.5,-0.5"/>
                </g>
        </g>
        <svg viewBox="0 0 15 15" width="100%" height="30px" preserveAspectRatio="xMaxYMin meet">
         <g id="arrow_out" transform="scale(0.3 0.3)">
          <a xlink:href="Centipede_8hpp__incl_org.svg" target="_base">
           <rect id="button" ry="5" rx="5" y="6" x="6" height="38" width="38"
                fill="#f2f5e9" fill-opacity="0.5" stroke="#606060" stroke-width="1.0"/>
           <path id="arrow"
             d="M 11.500037,31.436501 C 11.940474,20.09759 22.043105,11.32322 32.158766,21.979434 L 37.068811,17.246167 C 37.068811,17.246167 37.088388,32 37.088388,32 L 22.160133,31.978069 C 22.160133,31.978069 26.997745,27.140456 26.997745,27.140456 C 18.528582,18.264221 13.291696,25.230495 11.500037,31.436501 z"
             style="fill:#404040;"/>
          </a>
         </g>
        </svg>
</svg>
