<?xml version="1.0" encoding="UTF-8" standalone="no"?>
<!DOCTYPE svg PUBLIC "-//W3C//DTD SVG 1.1//EN"
 "http://www.w3.org/Graphics/SVG/1.1/DTD/svg11.dtd">
<!-- Generated by graphviz version 7.0.5 (20221223.1930)
 -->
<!-- Title: rtype::IGameState Pages: 1 -->
<!--zoomable 544 -->
<svg id="main" version="1.1" xmlns="http://www.w3.org/2000/svg" xmlns:xlink="http://www.w3.org/1999/xlink" xml:space="preserve" onload="init(evt)">
<style type="text/css"><![CDATA[
.edge:hover path { stroke: red; }
.edge:hover polygon { stroke: red; fill: red; }
]]></style>
<script type="text/javascript"><![CDATA[
var edges = document.getElementsByTagName('g');
if (edges && edges.length) {
  for (var i=0;i<edges.length;i++) {
    if (edges[i].id.substr(0,4)=='edge') {
      edges[i].setAttribute('class','edge');
    }
  }
}
]]></script>
        <defs>
                <circle id="rim" cx="0" cy="0" r="7"/>
                <circle id="rim2" cx="0" cy="0" r="3.5"/>
                <g id="zoomPlus">
                        <use xlink:href="#rim" fill="#404040">
                                <set attributeName="fill" to="#808080" begin="zoomplus.mouseover" end="zoomplus.mouseout"/>
                        </use>
                        <path d="M-4,0h8M0,-4v8" fill="none" stroke="white" stroke-width="1.5" pointer-events="none"/>
                </g>
                <g id="zoomMin">
                        <use xlink:href="#rim" fill="#404040">
                                <set attributeName="fill" to="#808080" begin="zoomminus.mouseover" end="zoomminus.mouseout"/>
                        </use>
                        <path d="M-4,0h8" fill="none" stroke="white" stroke-width="1.5" pointer-events="none"/>
                </g>
                <g id="dirArrow">
                        <path fill="none" stroke="white" stroke-width="1.5" d="M0,-3.0v7 M-2.5,-0.5L0,-3.0L2.5,-0.5"/>
                </g>
               <g id="resetDef">
                       <use xlink:href="#rim2" fill="#404040">
                               <set attributeName="fill" to="#808080" begin="reset.mouseover" end="reset.mouseout"/>
                       </use>
               </g>
        </defs>

<script type="text/javascript">
var viewWidth = 445;
var viewHeight = 544;
var sectionId = 'dynsection-1';
</script>
<script xlink:href="svgpan.js"/>
<svg id="graph" class="graph">
<g id="viewport">
<title>rtype::IGameState</title>
<!-- Node1 -->
<g id="node1" class="node">
<title>Node1</title>
<g id="a_node1"><a xlink:title=" ">
<polygon fill="#999999" stroke="#666666" points="258,-107 160,-107 160,0 258,0 258,-107"/>
<text text-anchor="middle" x="209" y="-95" font-family="Helvetica,sans-Serif" font-size="10.00">{rtype::IGameState</text>
<text text-anchor="start" x="168" y="-84" font-family="Helvetica,sans-Serif" font-size="10.00">||+ clear()</text>
<text text-anchor="start" x="168" y="-73" font-family="Helvetica,sans-Serif" font-size="10.00">+ draw()</text>
<text text-anchor="start" x="168" y="-62" font-family="Helvetica,sans-Serif" font-size="10.00">+ handleEvent()</text>
<text text-anchor="start" x="168" y="-51" font-family="Helvetica,sans-Serif" font-size="10.00">+ init()</text>
<text text-anchor="start" x="168" y="-40" font-family="Helvetica,sans-Serif" font-size="10.00">+ pause()</text>
<text text-anchor="start" x="168" y="-29" font-family="Helvetica,sans-Serif" font-size="10.00">+ resume()</text>
<text text-anchor="start" x="168" y="-18" font-family="Helvetica,sans-Serif" font-size="10.00">+ update()</text>
<text text-anchor="middle" x="209" y="-7" font-family="Helvetica,sans-Serif" font-size="10.00">}</text>
</a>
</g>
</g>
<!-- Node2 -->
<g id="node2" class="node">
<title>Node2</title>
<g id="a_node2"><a xlink:href="classrtype_1_1entities_1_1EntitiesManager.html" target="_top" xlink:title=" ">
<polygon fill="white" stroke="#666666" points="265.5,-294 152.5,-294 152.5,-154 265.5,-154 265.5,-294"/>
<text text-anchor="start" x="160.5" y="-282" font-family="Helvetica,sans-Serif" font-size="10.00">{rtype::entities::Entities</text>
<text text-anchor="middle" x="209" y="-271" font-family="Helvetica,sans-Serif" font-size="10.00">Manager</text>
<text text-anchor="start" x="160.5" y="-260" font-family="Helvetica,sans-Serif" font-size="10.00">||+ EntitiesManager()</text>
<text text-anchor="start" x="160.5" y="-249" font-family="Helvetica,sans-Serif" font-size="10.00">+ ~EntitiesManager()</text>
<text text-anchor="start" x="160.5" y="-238" font-family="Helvetica,sans-Serif" font-size="10.00">+ CreateEntitie()</text>
<text text-anchor="start" x="160.5" y="-227" font-family="Helvetica,sans-Serif" font-size="10.00">+ getEntitiesList()</text>
<text text-anchor="start" x="160.5" y="-216" font-family="Helvetica,sans-Serif" font-size="10.00">+ getIDs()</text>
<text text-anchor="start" x="160.5" y="-205" font-family="Helvetica,sans-Serif" font-size="10.00">+ getPId()</text>
<text text-anchor="start" x="160.5" y="-194" font-family="Helvetica,sans-Serif" font-size="10.00">+ getSprite()</text>
<text text-anchor="start" x="160.5" y="-183" font-family="Helvetica,sans-Serif" font-size="10.00">+ NewEntity()</text>
<text text-anchor="start" x="160.5" y="-172" font-family="Helvetica,sans-Serif" font-size="10.00">+ setPId()</text>
<text text-anchor="middle" x="209" y="-161" font-family="Helvetica,sans-Serif" font-size="10.00">}</text>
</a>
</g>
</g>
<!-- Node2&#45;&gt;Node1 -->
<g id="edge1" class="edge">
<title>Node2&#45;&gt;Node1</title>
<path fill="none" stroke="#404040" d="M209,-153.98C209,-142.81 209,-131.27 209,-120.18"/>
<polygon fill="none" stroke="#404040" points="209,-120.32 205,-114.32 209,-108.32 213,-114.32 209,-120.32"/>
<text text-anchor="middle" x="235" y="-128" font-family="Helvetica,sans-Serif" font-size="10.00"> #EManager</text>
</g>
<!-- Node3 -->
<g id="node3" class="node">
<title>Node3</title>
<g id="a_node3"><a xlink:title=" ">
<polygon fill="white" stroke="#666666" points="44,-459 0,-459 0,-429 44,-429 44,-459"/>
<text text-anchor="middle" x="22" y="-447" font-family="Helvetica,sans-Serif" font-size="10.00">{int8_t</text>
<text text-anchor="middle" x="22" y="-436" font-family="Helvetica,sans-Serif" font-size="10.00">||}</text>
</a>
</g>
</g>
<!-- Node3&#45;&gt;Node2 -->
<g id="edge2" class="edge">
<title>Node3&#45;&gt;Node2</title>
<path fill="none" stroke="#404040" d="M16.79,-428.72C10.16,-407.93 1.32,-368.79 17,-341 43.24,-294.49 96.45,-264.53 140.21,-246.73"/>
<polygon fill="none" stroke="#404040" points="140.25,-246.71 144.39,-240.8 151.43,-242.35 147.29,-248.26 140.25,-246.71"/>
<text text-anchor="middle" x="26.5" y="-359" font-family="Helvetica,sans-Serif" font-size="10.00"> &#45;pId</text>
</g>
<!-- Node9 -->
<g id="node9" class="node">
<title>Node9</title>
<g id="a_node9"><a xlink:title=" ">
<polygon fill="white" stroke="#666666" points="136.5,-376.5 45.5,-376.5 45.5,-346.5 136.5,-346.5 136.5,-376.5"/>
<text text-anchor="middle" x="91" y="-364.5" font-family="Helvetica,sans-Serif" font-size="10.00">{std::list&lt; int8_t &gt;</text>
<text text-anchor="middle" x="91" y="-353.5" font-family="Helvetica,sans-Serif" font-size="10.00">||}</text>
</a>
</g>
</g>
<!-- Node3&#45;&gt;Node9 -->
<g id="edge9" class="edge">
<title>Node3&#45;&gt;Node9</title>
<path fill="none" stroke="#404040" d="M29.58,-428.76C34.55,-420.04 41.49,-408.89 49,-400 53.3,-394.9 58.3,-389.86 63.31,-385.2"/>
<polygon fill="none" stroke="#404040" points="63.13,-385.36 64.97,-378.39 72.11,-377.41 70.27,-384.38 63.13,-385.36"/>
<text text-anchor="middle" x="73.5" y="-403" font-family="Helvetica,sans-Serif" font-size="10.00"> +elements</text>
</g>
<!-- Node4 -->
<g id="node4" class="node">
<title>Node4</title>
<g id="a_node4"><a xlink:title=" ">
<polygon fill="white" stroke="#666666" points="263,-382 155,-382 155,-341 263,-341 263,-382"/>
<text text-anchor="start" x="163" y="-370" font-family="Helvetica,sans-Serif" font-size="10.00">{std::array&lt; sf::Sprite,</text>
<text text-anchor="middle" x="209" y="-359" font-family="Helvetica,sans-Serif" font-size="10.00"> 100 &gt;</text>
<text text-anchor="middle" x="209" y="-348" font-family="Helvetica,sans-Serif" font-size="10.00">||}</text>
</a>
</g>
</g>
<!-- Node4&#45;&gt;Node2 -->
<g id="edge3" class="edge">
<title>Node4&#45;&gt;Node2</title>
<path fill="none" stroke="#404040" d="M209,-340.51C209,-331.27 209,-319.63 209,-307.32"/>
<polygon fill="none" stroke="#404040" points="209,-307.21 205,-301.21 209,-295.21 213,-301.21 209,-307.21"/>
<text text-anchor="middle" x="227.5" y="-315" font-family="Helvetica,sans-Serif" font-size="10.00"> &#45;entities</text>
</g>
<!-- Node5 -->
<g id="node5" class="node">
<title>Node5</title>
<g id="a_node5"><a xlink:title=" ">
<polygon fill="white" stroke="#666666" points="212.5,-459 167.5,-459 167.5,-429 212.5,-429 212.5,-459"/>
<text text-anchor="middle" x="190" y="-447" font-family="Helvetica,sans-Serif" font-size="10.00">{Sprite</text>
<text text-anchor="middle" x="190" y="-436" font-family="Helvetica,sans-Serif" font-size="10.00">||}</text>
</a>
</g>
</g>
<!-- Node5&#45;&gt;Node4 -->
<g id="edge4" class="edge">
<title>Node5&#45;&gt;Node4</title>
<path fill="none" stroke="#404040" d="M191.31,-428.54C192.24,-420.13 193.74,-409.38 196,-400 196.44,-398.16 196.94,-396.28 197.48,-394.39"/>
<polygon fill="none" stroke="#404040" points="197.47,-394.43 195.48,-387.5 201.11,-383 203.1,-389.93 197.47,-394.43"/>
<text text-anchor="middle" x="220.5" y="-403" font-family="Helvetica,sans-Serif" font-size="10.00"> +elements</text>
</g>
<!-- Node6 -->
<g id="node6" class="node">
<title>Node6</title>
<g id="a_node6"><a xlink:title=" ">
<polygon fill="white" stroke="#666666" points="311.5,-459 230.5,-459 230.5,-429 311.5,-429 311.5,-459"/>
<text text-anchor="middle" x="271" y="-447" font-family="Helvetica,sans-Serif" font-size="10.00">{std::array&lt; T &gt;</text>
<text text-anchor="middle" x="271" y="-436" font-family="Helvetica,sans-Serif" font-size="10.00">||}</text>
</a>
</g>
</g>
<!-- Node6&#45;&gt;Node4 -->
<g id="edge5" class="edge">
<title>Node6&#45;&gt;Node4</title>
<path fill="none" stroke="orange" d="M257.78,-419.02C253.93,-412.65 249.53,-405.9 245,-400 240.39,-393.99 234.92,-387.88 229.67,-382.39"/>
<polygon fill="orange" stroke="orange" points="254.51,-420.35 262.56,-427.23 260.56,-416.83 254.51,-420.35"/>
<text text-anchor="middle" x="291.5" y="-403" font-family="Helvetica,sans-Serif" font-size="10.00"> &lt; sf::Sprite, 100 &gt;</text>
</g>
<!-- Node7 -->
<g id="node7" class="node">
<title>Node7</title>
<g id="a_node7"><a xlink:title=" ">
<polygon fill="white" stroke="#666666" points="206.5,-536 177.5,-536 177.5,-506 206.5,-506 206.5,-536"/>
<text text-anchor="middle" x="192" y="-524" font-family="Helvetica,sans-Serif" font-size="10.00">{T</text>
<text text-anchor="middle" x="192" y="-513" font-family="Helvetica,sans-Serif" font-size="10.00">||}</text>
</a>
</g>
</g>
<!-- Node7&#45;&gt;Node6 -->
<g id="edge6" class="edge">
<title>Node7&#45;&gt;Node6</title>
<path fill="none" stroke="#404040" d="M206.86,-505.89C218.04,-495.28 233.61,-480.49 246.61,-468.15"/>
<polygon fill="none" stroke="#404040" points="246.58,-468.18 248.18,-461.15 255.29,-459.92 253.69,-466.95 246.58,-468.18"/>
<text text-anchor="middle" x="260.5" y="-480" font-family="Helvetica,sans-Serif" font-size="10.00"> +elements</text>
</g>
<!-- Node10 -->
<g id="node10" class="node">
<title>Node10</title>
<g id="a_node10"><a xlink:title=" ">
<polygon fill="white" stroke="#666666" points="149.5,-459 76.5,-459 76.5,-429 149.5,-429 149.5,-459"/>
<text text-anchor="middle" x="113" y="-447" font-family="Helvetica,sans-Serif" font-size="10.00">{std::list&lt; T &gt;</text>
<text text-anchor="middle" x="113" y="-436" font-family="Helvetica,sans-Serif" font-size="10.00">||}</text>
</a>
</g>
</g>
<!-- Node7&#45;&gt;Node10 -->
<g id="edge11" class="edge">
<title>Node7&#45;&gt;Node10</title>
<path fill="none" stroke="#404040" d="M177.14,-505.89C165.96,-495.28 150.39,-480.49 137.39,-468.15"/>
<polygon fill="none" stroke="#404040" points="137.42,-468.18 130.31,-466.95 128.71,-459.92 135.82,-461.15 137.42,-468.18"/>
<text text-anchor="middle" x="182.5" y="-480" font-family="Helvetica,sans-Serif" font-size="10.00"> +elements</text>
</g>
<!-- Node8 -->
<g id="node8" class="node">
<title>Node8</title>
<g id="a_node8"><a xlink:title=" ">
<polygon fill="white" stroke="#666666" points="333,-376.5 281,-376.5 281,-346.5 333,-346.5 333,-376.5"/>
<text text-anchor="middle" x="307" y="-364.5" font-family="Helvetica,sans-Serif" font-size="10.00">{Texture</text>
<text text-anchor="middle" x="307" y="-353.5" font-family="Helvetica,sans-Serif" font-size="10.00">||}</text>
</a>
</g>
</g>
<!-- Node8&#45;&gt;Node2 -->
<g id="edge7" class="edge">
<title>Node8&#45;&gt;Node2</title>
<path fill="none" stroke="#404040" d="M296.7,-346.26C289.09,-335.73 278.06,-320.48 266.37,-304.33"/>
<polygon fill="none" stroke="#404040" points="266.6,-304.64 259.84,-302.12 259.57,-294.92 266.32,-297.43 266.6,-304.64"/>
<text text-anchor="middle" x="295.5" y="-315" font-family="Helvetica,sans-Serif" font-size="10.00"> &#45;texture</text>
</g>
<!-- Node9&#45;&gt;Node2 -->
<g id="edge8" class="edge">
<title>Node9&#45;&gt;Node2</title>
<path fill="none" stroke="#404040" d="M103.41,-346.26C113.43,-334.74 128.39,-317.57 143.91,-299.74"/>
<polygon fill="none" stroke="#404040" points="143.59,-300.11 144.51,-292.96 151.47,-291.06 150.55,-298.21 143.59,-300.11"/>
<text text-anchor="middle" x="143.5" y="-315" font-family="Helvetica,sans-Serif" font-size="10.00"> &#45;IDs</text>
</g>
<!-- Node10&#45;&gt;Node9 -->
<g id="edge10" class="edge">
<title>Node10&#45;&gt;Node9</title>
<path fill="none" stroke="orange" d="M106.06,-417.61C102.38,-404.13 97.99,-388.07 94.9,-376.77"/>
<polygon fill="orange" stroke="orange" points="102.66,-418.42 108.67,-427.15 109.41,-416.58 102.66,-418.42"/>
<text text-anchor="middle" x="125.5" y="-403" font-family="Helvetica,sans-Serif" font-size="10.00"> &lt; int8_t &gt;</text>
</g>
<!-- Node11 -->
<g id="node11" class="node">
<title>Node11</title>
<g id="a_node11"><a xlink:title=" ">
<polygon fill="white" stroke="#666666" points="436.5,-376.5 351.5,-376.5 351.5,-346.5 436.5,-346.5 436.5,-376.5"/>
<text text-anchor="middle" x="394" y="-364.5" font-family="Helvetica,sans-Serif" font-size="10.00">{RenderWindow</text>
<text text-anchor="middle" x="394" y="-353.5" font-family="Helvetica,sans-Serif" font-size="10.00">||}</text>
</a>
</g>
</g>
<!-- Node11&#45;&gt;Node2 -->
<g id="edge12" class="edge">
<title>Node11&#45;&gt;Node2</title>
<path fill="none" stroke="#404040" d="M374.55,-346.26C351.25,-329.19 310.96,-299.68 275.96,-274.05"/>
<polygon fill="none" stroke="#404040" points="276.18,-274.21 268.98,-273.89 266.5,-267.12 273.71,-267.43 276.18,-274.21"/>
<text text-anchor="middle" x="358.5" y="-315" font-family="Helvetica,sans-Serif" font-size="10.00"> &#45;window</text>
</g>
</g>
</svg>
        <g id="navigator" transform="translate(0 0)" fill="#404254">
                <rect fill="#f2f5e9" fill-opacity="0.5" stroke="#606060" stroke-width=".5" x="0" y="0" width="60" height="60"/>
                <use id="zoomplus" xlink:href="#zoomPlus" x="17" y="9" onmousedown="handleZoom(evt,'in')"/>
                <use id="zoomminus" xlink:href="#zoomMin" x="42" y="9" onmousedown="handleZoom(evt,'out')"/>
                <use id="reset" xlink:href="#resetDef" x="30" y="36" onmousedown="handleReset()"/>
                <g id="arrowUp" xlink:href="#dirArrow" transform="translate(30 24)" onmousedown="handlePan(0,-1)">
                  <use xlink:href="#rim" fill="#404040">
                        <set attributeName="fill" to="#808080" begin="arrowUp.mouseover" end="arrowUp.mouseout"/>
                  </use>
                  <path fill="none" stroke="white" stroke-width="1.5" d="M0,-3.0v7 M-2.5,-0.5L0,-3.0L2.5,-0.5"/>
                </g>
                <g id="arrowRight" xlink:href="#dirArrow" transform="rotate(90) translate(36 -43)" onmousedown="handlePan(1,0)">
                  <use xlink:href="#rim" fill="#404040">
                        <set attributeName="fill" to="#808080" begin="arrowRight.mouseover" end="arrowRight.mouseout"/>
                  </use>
                  <path fill="none" stroke="white" stroke-width="1.5" d="M0,-3.0v7 M-2.5,-0.5L0,-3.0L2.5,-0.5"/>
                </g>
                <g id="arrowDown" xlink:href="#dirArrow" transform="rotate(180) translate(-30 -48)" onmousedown="handlePan(0,1)">
                  <use xlink:href="#rim" fill="#404040">
                        <set attributeName="fill" to="#808080" begin="arrowDown.mouseover" end="arrowDown.mouseout"/>
                  </use>
                  <path fill="none" stroke="white" stroke-width="1.5" d="M0,-3.0v7 M-2.5,-0.5L0,-3.0L2.5,-0.5"/>
                </g>
                <g id="arrowLeft" xlink:href="#dirArrow" transform="rotate(270) translate(-36 17)" onmousedown="handlePan(-1,0)">
                  <use xlink:href="#rim" fill="#404040">
                        <set attributeName="fill" to="#808080" begin="arrowLeft.mouseover" end="arrowLeft.mouseout"/>
                  </use>
                  <path fill="none" stroke="white" stroke-width="1.5" d="M0,-3.0v7 M-2.5,-0.5L0,-3.0L2.5,-0.5"/>
                </g>
        </g>
        <svg viewBox="0 0 15 15" width="100%" height="30px" preserveAspectRatio="xMaxYMin meet">
         <g id="arrow_out" transform="scale(0.3 0.3)">
          <a xlink:href="classrtype_1_1IGameState__coll__graph_org.svg" target="_base">
           <rect id="button" ry="5" rx="5" y="6" x="6" height="38" width="38"
                fill="#f2f5e9" fill-opacity="0.5" stroke="#606060" stroke-width="1.0"/>
           <path id="arrow"
             d="M 11.500037,31.436501 C 11.940474,20.09759 22.043105,11.32322 32.158766,21.979434 L 37.068811,17.246167 C 37.068811,17.246167 37.088388,32 37.088388,32 L 22.160133,31.978069 C 22.160133,31.978069 26.997745,27.140456 26.997745,27.140456 C 18.528582,18.264221 13.291696,25.230495 11.500037,31.436501 z"
             style="fill:#404040;"/>
          </a>
         </g>
        </svg>
</svg>
