<?xml version="1.0" encoding="UTF-8" standalone="no"?>
<!DOCTYPE svg PUBLIC "-//W3C//DTD SVG 1.1//EN"
 "http://www.w3.org/Graphics/SVG/1.1/DTD/svg11.dtd">
<!-- Generated by graphviz version 7.0.5 (20221223.1930)
 -->
<!-- Title: rtype::engine::Text Pages: 1 -->
<svg width="202pt" height="137pt"
 viewBox="0.00 0.00 202.00 137.00" xmlns="http://www.w3.org/2000/svg" xmlns:xlink="http://www.w3.org/1999/xlink">
<g id="graph0" class="graph" transform="scale(1 1) rotate(0) translate(4 133)">
<title>rtype::engine::Text</title>
<!-- Node1 -->
<g id="node1" class="node">
<title>Node1</title>
<g id="a_node1"><a xlink:title="This class is the base class for all the Text.">
<polygon fill="#999999" stroke="#666666" points="149.5,-52 52.5,-52 52.5,0 149.5,0 149.5,-52"/>
<text text-anchor="middle" x="101" y="-40" font-family="Helvetica,sans-Serif" font-size="10.00">{rtype::engine::Text</text>
<text text-anchor="start" x="60.5" y="-29" font-family="Helvetica,sans-Serif" font-size="10.00">||+ Text()</text>
<text text-anchor="start" x="60.5" y="-18" font-family="Helvetica,sans-Serif" font-size="10.00">+ ~Text()</text>
<text text-anchor="middle" x="101" y="-7" font-family="Helvetica,sans-Serif" font-size="10.00">}</text>
</a>
</g>
</g>
<!-- Node2 -->
<g id="node2" class="node">
<title>Node2</title>
<g id="a_node2"><a xlink:title=" ">
<polygon fill="white" stroke="#666666" points="38,-129 0,-129 0,-99 38,-99 38,-129"/>
<text text-anchor="middle" x="19" y="-117" font-family="Helvetica,sans-Serif" font-size="10.00">{Text</text>
<text text-anchor="middle" x="19" y="-106" font-family="Helvetica,sans-Serif" font-size="10.00">||}</text>
</a>
</g>
</g>
<!-- Node2&#45;&gt;Node1 -->
<g id="edge1" class="edge">
<title>Node2&#45;&gt;Node1</title>
<path fill="none" stroke="#404040" d="M23.07,-98.74C26.13,-89.79 31.01,-78.41 38,-70 40.8,-66.64 43.92,-63.43 47.23,-60.39"/>
<polygon fill="none" stroke="#404040" points="47.07,-60.53 49.13,-53.62 56.3,-52.86 54.24,-59.77 47.07,-60.53"/>
<text text-anchor="middle" x="67.5" y="-73" font-family="Helvetica,sans-Serif" font-size="10.00"> &#45;text_content</text>
</g>
<!-- Node3 -->
<g id="node3" class="node">
<title>Node3</title>
<g id="a_node3"><a xlink:title=" ">
<polygon fill="white" stroke="#666666" points="129,-129 73,-129 73,-99 129,-99 129,-129"/>
<text text-anchor="middle" x="101" y="-117" font-family="Helvetica,sans-Serif" font-size="10.00">{Vector2f</text>
<text text-anchor="middle" x="101" y="-106" font-family="Helvetica,sans-Serif" font-size="10.00">||}</text>
</a>
</g>
</g>
<!-- Node3&#45;&gt;Node1 -->
<g id="edge2" class="edge">
<title>Node3&#45;&gt;Node1</title>
<path fill="none" stroke="#404040" d="M101,-98.8C101,-89.65 101,-77.28 101,-65.38"/>
<polygon fill="none" stroke="#404040" points="101,-65.25 97,-59.25 101,-53.25 105,-59.25 101,-65.25"/>
<text text-anchor="middle" x="122.5" y="-73" font-family="Helvetica,sans-Serif" font-size="10.00"> &#45;text_pos</text>
</g>
<!-- Node4 -->
<g id="node4" class="node">
<title>Node4</title>
<g id="a_node4"><a xlink:title=" ">
<polygon fill="white" stroke="#666666" points="186.5,-129 147.5,-129 147.5,-99 186.5,-99 186.5,-129"/>
<text text-anchor="middle" x="167" y="-117" font-family="Helvetica,sans-Serif" font-size="10.00">{Font</text>
<text text-anchor="middle" x="167" y="-106" font-family="Helvetica,sans-Serif" font-size="10.00">||}</text>
</a>
</g>
</g>
<!-- Node4&#45;&gt;Node1 -->
<g id="edge3" class="edge">
<title>Node4&#45;&gt;Node1</title>
<path fill="none" stroke="#404040" d="M161.14,-98.78C157.21,-90.07 151.56,-78.91 145,-70 142.93,-67.19 140.68,-64.41 138.32,-61.67"/>
<polygon fill="none" stroke="#404040" points="138.22,-61.57 131.21,-59.89 130.06,-52.77 137.07,-54.45 138.22,-61.57"/>
<text text-anchor="middle" x="172.5" y="-73" font-family="Helvetica,sans-Serif" font-size="10.00"> &#45;text_font</text>
</g>
</g>
</svg>
