<?xml version="1.0" encoding="UTF-8" standalone="no"?>
<!DOCTYPE svg PUBLIC "-//W3C//DTD SVG 1.1//EN"
 "http://www.w3.org/Graphics/SVG/1.1/DTD/svg11.dtd">
<!-- Generated by graphviz version 7.0.5 (20221223.1930)
 -->
<!-- Title: rtype::engine::Window Pages: 1 -->
<svg width="494pt" height="347pt"
 viewBox="0.00 0.00 493.50 347.00" xmlns="http://www.w3.org/2000/svg" xmlns:xlink="http://www.w3.org/1999/xlink">
<g id="graph0" class="graph" transform="scale(1 1) rotate(0) translate(4 343)">
<title>rtype::engine::Window</title>
<!-- Node1 -->
<g id="node1" class="node">
<title>Node1</title>
<g id="a_node1"><a xlink:title="This class is the base class for all the Window.">
<polygon fill="#999999" stroke="#666666" points="331.5,-184 218.5,-184 218.5,0 331.5,0 331.5,-184"/>
<text text-anchor="middle" x="275" y="-172" font-family="Helvetica,sans-Serif" font-size="10.00">{rtype::engine::Window</text>
<text text-anchor="start" x="226.5" y="-161" font-family="Helvetica,sans-Serif" font-size="10.00">||+ Window()</text>
<text text-anchor="start" x="226.5" y="-150" font-family="Helvetica,sans-Serif" font-size="10.00">+ ~Window()</text>
<text text-anchor="start" x="226.5" y="-139" font-family="Helvetica,sans-Serif" font-size="10.00">+ clear()</text>
<text text-anchor="start" x="226.5" y="-128" font-family="Helvetica,sans-Serif" font-size="10.00">+ close()</text>
<text text-anchor="start" x="226.5" y="-117" font-family="Helvetica,sans-Serif" font-size="10.00">+ DisplayWindow()</text>
<text text-anchor="start" x="226.5" y="-106" font-family="Helvetica,sans-Serif" font-size="10.00">+ Draw()</text>
<text text-anchor="start" x="226.5" y="-95" font-family="Helvetica,sans-Serif" font-size="10.00">+ DrawWindow()</text>
<text text-anchor="start" x="226.5" y="-84" font-family="Helvetica,sans-Serif" font-size="10.00">+ getWindow()</text>
<text text-anchor="start" x="226.5" y="-73" font-family="Helvetica,sans-Serif" font-size="10.00">+ HandleEvent()</text>
<text text-anchor="start" x="226.5" y="-62" font-family="Helvetica,sans-Serif" font-size="10.00">+ IsClosed()</text>
<text text-anchor="start" x="226.5" y="-51" font-family="Helvetica,sans-Serif" font-size="10.00">+ IsOpen()</text>
<text text-anchor="start" x="226.5" y="-40" font-family="Helvetica,sans-Serif" font-size="10.00">+ nWindow()</text>
<text text-anchor="start" x="226.5" y="-29" font-family="Helvetica,sans-Serif" font-size="10.00">+ t_clock()</text>
<text text-anchor="start" x="226.5" y="-18" font-family="Helvetica,sans-Serif" font-size="10.00">+ UpdateEvent()</text>
<text text-anchor="middle" x="275" y="-7" font-family="Helvetica,sans-Serif" font-size="10.00">}</text>
</a>
</g>
</g>
<!-- Node2 -->
<g id="node2" class="node">
<title>Node2</title>
<g id="a_node2"><a xlink:title=" ">
<polygon fill="white" stroke="#666666" points="79,-261 17,-261 17,-231 79,-231 79,-261"/>
<text text-anchor="middle" x="48" y="-249" font-family="Helvetica,sans-Serif" font-size="10.00">{std::string</text>
<text text-anchor="middle" x="48" y="-238" font-family="Helvetica,sans-Serif" font-size="10.00">||}</text>
</a>
</g>
</g>
<!-- Node2&#45;&gt;Node1 -->
<g id="edge1" class="edge">
<title>Node2&#45;&gt;Node1</title>
<path fill="none" stroke="#404040" d="M56.49,-230.62C62.3,-221.62 70.63,-210.23 80,-202 117.59,-169.01 166.8,-141.59 206.37,-122.51"/>
<polygon fill="none" stroke="#404040" points="206.39,-122.5 210.11,-116.32 217.24,-117.37 213.53,-123.55 206.39,-122.5"/>
<text text-anchor="middle" x="114" y="-205" font-family="Helvetica,sans-Serif" font-size="10.00"> &#45;window_name</text>
</g>
<!-- Node3 -->
<g id="node3" class="node">
<title>Node3</title>
<g id="a_node3"><a xlink:title=" ">
<polygon fill="white" stroke="#666666" points="96,-339 0,-339 0,-298 96,-298 96,-339"/>
<text text-anchor="start" x="8" y="-327" font-family="Helvetica,sans-Serif" font-size="10.00">{std::basic_string&lt;</text>
<text text-anchor="middle" x="48" y="-316" font-family="Helvetica,sans-Serif" font-size="10.00"> Char &gt;</text>
<text text-anchor="middle" x="48" y="-305" font-family="Helvetica,sans-Serif" font-size="10.00">||}</text>
</a>
</g>
</g>
<!-- Node3&#45;&gt;Node2 -->
<g id="edge2" class="edge">
<title>Node3&#45;&gt;Node2</title>
<path fill="none" stroke="#63b8ff" d="M48,-286.39C48,-277.68 48,-268.62 48,-261.39"/>
<polygon fill="none" stroke="#63b8ff" points="44.5,-286.35 48,-296.35 51.5,-286.35 44.5,-286.35"/>
</g>
<!-- Node4 -->
<g id="node4" class="node">
<title>Node4</title>
<g id="a_node4"><a xlink:title=" ">
<polygon fill="white" stroke="#666666" points="173,-261 105,-261 105,-231 173,-231 173,-261"/>
<text text-anchor="middle" x="139" y="-249" font-family="Helvetica,sans-Serif" font-size="10.00">{VideoMode</text>
<text text-anchor="middle" x="139" y="-238" font-family="Helvetica,sans-Serif" font-size="10.00">||}</text>
</a>
</g>
</g>
<!-- Node4&#45;&gt;Node1 -->
<g id="edge3" class="edge">
<title>Node4&#45;&gt;Node1</title>
<path fill="none" stroke="#404040" d="M144.05,-230.71C147.51,-221.96 152.63,-210.81 159,-202 173.2,-182.36 191.29,-163.38 208.93,-146.92"/>
<polygon fill="none" stroke="#404040" points="208.57,-147.25 210.3,-140.25 217.43,-139.15 215.7,-146.15 208.57,-147.25"/>
<text text-anchor="middle" x="193" y="-205" font-family="Helvetica,sans-Serif" font-size="10.00"> &#45;window_mode</text>
</g>
<!-- Node5 -->
<g id="node5" class="node">
<title>Node5</title>
<g id="a_node5"><a xlink:title=" ">
<polygon fill="white" stroke="#666666" points="252,-261 208,-261 208,-231 252,-231 252,-261"/>
<text text-anchor="middle" x="230" y="-249" font-family="Helvetica,sans-Serif" font-size="10.00">{Event</text>
<text text-anchor="middle" x="230" y="-238" font-family="Helvetica,sans-Serif" font-size="10.00">||}</text>
</a>
</g>
</g>
<!-- Node5&#45;&gt;Node1 -->
<g id="edge4" class="edge">
<title>Node5&#45;&gt;Node1</title>
<path fill="none" stroke="#404040" d="M229.94,-230.51C230.17,-222.1 230.92,-211.35 233,-202 233.39,-200.27 233.79,-198.52 234.22,-196.77"/>
<polygon fill="none" stroke="#404040" points="234.23,-196.73 231.93,-189.9 237.36,-185.15 239.66,-191.98 234.23,-196.73"/>
<text text-anchor="middle" x="267" y="-205" font-family="Helvetica,sans-Serif" font-size="10.00"> &#45;window_event</text>
</g>
<!-- Node6 -->
<g id="node6" class="node">
<title>Node6</title>
<g id="a_node6"><a xlink:title=" ">
<polygon fill="white" stroke="#666666" points="359.5,-261 274.5,-261 274.5,-231 359.5,-231 359.5,-261"/>
<text text-anchor="middle" x="317" y="-249" font-family="Helvetica,sans-Serif" font-size="10.00">{RenderWindow</text>
<text text-anchor="middle" x="317" y="-238" font-family="Helvetica,sans-Serif" font-size="10.00">||}</text>
</a>
</g>
</g>
<!-- Node6&#45;&gt;Node1 -->
<g id="edge5" class="edge">
<title>Node6&#45;&gt;Node1</title>
<path fill="none" stroke="#404040" d="M313.05,-230.7C310.66,-222.04 307.37,-210.14 303.72,-196.93"/>
<polygon fill="none" stroke="#404040" points="303.71,-196.92 298.26,-192.2 300.52,-185.35 305.97,-190.07 303.71,-196.92"/>
<text text-anchor="middle" x="326.5" y="-205" font-family="Helvetica,sans-Serif" font-size="10.00"> &#45;window</text>
</g>
<!-- Node7 -->
<g id="node7" class="node">
<title>Node7</title>
<g id="a_node7"><a xlink:title=" ">
<polygon fill="white" stroke="#666666" points="422,-261 378,-261 378,-231 422,-231 422,-261"/>
<text text-anchor="middle" x="400" y="-249" font-family="Helvetica,sans-Serif" font-size="10.00">{Clock</text>
<text text-anchor="middle" x="400" y="-238" font-family="Helvetica,sans-Serif" font-size="10.00">||}</text>
</a>
</g>
</g>
<!-- Node7&#45;&gt;Node1 -->
<g id="edge6" class="edge">
<title>Node7&#45;&gt;Node1</title>
<path fill="none" stroke="#404040" d="M388.24,-230.7C376.86,-216.86 358.65,-194.72 340.13,-172.2"/>
<polygon fill="none" stroke="#404040" points="340.11,-172.17 333.21,-170.08 332.49,-162.91 339.39,-165 340.11,-172.17"/>
<text text-anchor="middle" x="396" y="-205" font-family="Helvetica,sans-Serif" font-size="10.00"> &#45;winClock</text>
</g>
<!-- Node8 -->
<g id="node8" class="node">
<title>Node8</title>
<g id="a_node8"><a xlink:title=" ">
<polygon fill="white" stroke="#666666" points="485.5,-261 444.5,-261 444.5,-231 485.5,-231 485.5,-261"/>
<text text-anchor="middle" x="465" y="-249" font-family="Helvetica,sans-Serif" font-size="10.00">{Time</text>
<text text-anchor="middle" x="465" y="-238" font-family="Helvetica,sans-Serif" font-size="10.00">||}</text>
</a>
</g>
</g>
<!-- Node8&#45;&gt;Node1 -->
<g id="edge7" class="edge">
<title>Node8&#45;&gt;Node1</title>
<path fill="none" stroke="#404040" d="M452.3,-230.87C444.23,-222.19 433.39,-211.04 423,-202 397.71,-180 368.26,-157.71 342.32,-139.06"/>
<polygon fill="none" stroke="#404040" points="342.33,-139.06 335.12,-138.84 332.56,-132.1 339.76,-132.32 342.33,-139.06"/>
<text text-anchor="middle" x="456" y="-205" font-family="Helvetica,sans-Serif" font-size="10.00"> &#45;winTimer</text>
</g>
</g>
</svg>
