<?xml version="1.0" encoding="UTF-8" standalone="no"?>
<!DOCTYPE svg PUBLIC "-//W3C//DTD SVG 1.1//EN"
 "http://www.w3.org/Graphics/SVG/1.1/DTD/svg11.dtd">
<!-- Generated by graphviz version 7.0.5 (20221223.1930)
 -->
<!-- Title: rtype::entities::Entity Pages: 1 -->
<svg width="689pt" height="1193pt"
 viewBox="0.00 0.00 689.00 1193.00" xmlns="http://www.w3.org/2000/svg" xmlns:xlink="http://www.w3.org/1999/xlink">
<g id="graph0" class="graph" transform="scale(1 1) rotate(0) translate(4 1189)">
<title>rtype::entities::Entity</title>
<!-- Node1 -->
<g id="node1" class="node">
<title>Node1</title>
<g id="a_node1"><a xlink:title=" ">
<polygon fill="#999999" stroke="#666666" points="513.5,-239 408.5,-239 408.5,0 513.5,0 513.5,-239"/>
<text text-anchor="middle" x="461" y="-227" font-family="Helvetica,sans-Serif" font-size="10.00">{rtype::entities::Entity</text>
<text text-anchor="start" x="416.5" y="-216" font-family="Helvetica,sans-Serif" font-size="10.00">||+ Entity()</text>
<text text-anchor="start" x="416.5" y="-205" font-family="Helvetica,sans-Serif" font-size="10.00">+ Entity()</text>
<text text-anchor="start" x="416.5" y="-194" font-family="Helvetica,sans-Serif" font-size="10.00">+ Entity()</text>
<text text-anchor="start" x="416.5" y="-183" font-family="Helvetica,sans-Serif" font-size="10.00">+ Entity()</text>
<text text-anchor="start" x="416.5" y="-172" font-family="Helvetica,sans-Serif" font-size="10.00">+ ~Entity()</text>
<text text-anchor="start" x="416.5" y="-161" font-family="Helvetica,sans-Serif" font-size="10.00">+ ~Entity()</text>
<text text-anchor="start" x="416.5" y="-150" font-family="Helvetica,sans-Serif" font-size="10.00">+ addComponent()</text>
<text text-anchor="start" x="416.5" y="-139" font-family="Helvetica,sans-Serif" font-size="10.00">+ draw()</text>
<text text-anchor="start" x="416.5" y="-128" font-family="Helvetica,sans-Serif" font-size="10.00">+ getEntityId()</text>
<text text-anchor="start" x="416.5" y="-117" font-family="Helvetica,sans-Serif" font-size="10.00">+ getIndex()</text>
<text text-anchor="start" x="416.5" y="-106" font-family="Helvetica,sans-Serif" font-size="10.00">+ getPos()</text>
<text text-anchor="start" x="416.5" y="-95" font-family="Helvetica,sans-Serif" font-size="10.00">+ getVelocity()</text>
<text text-anchor="start" x="416.5" y="-84" font-family="Helvetica,sans-Serif" font-size="10.00">+ getX()</text>
<text text-anchor="start" x="416.5" y="-73" font-family="Helvetica,sans-Serif" font-size="10.00">+ getY()</text>
<text text-anchor="start" x="416.5" y="-62" font-family="Helvetica,sans-Serif" font-size="10.00">+ handleEvent()</text>
<text text-anchor="start" x="416.5" y="-51" font-family="Helvetica,sans-Serif" font-size="10.00">+ removeComp()</text>
<text text-anchor="start" x="416.5" y="-40" font-family="Helvetica,sans-Serif" font-size="10.00">+ setPosition()</text>
<text text-anchor="start" x="416.5" y="-29" font-family="Helvetica,sans-Serif" font-size="10.00">+ setVelocity()</text>
<text text-anchor="start" x="416.5" y="-18" font-family="Helvetica,sans-Serif" font-size="10.00">+ updates()</text>
<text text-anchor="middle" x="461" y="-7" font-family="Helvetica,sans-Serif" font-size="10.00">}</text>
</a>
</g>
</g>
<!-- Node2 -->
<g id="node2" class="node">
<title>Node2</title>
<g id="a_node2"><a xlink:title=" ">
<polygon fill="white" stroke="#666666" points="453,-1053 409,-1053 409,-1023 453,-1023 453,-1053"/>
<text text-anchor="middle" x="431" y="-1041" font-family="Helvetica,sans-Serif" font-size="10.00">{int8_t</text>
<text text-anchor="middle" x="431" y="-1030" font-family="Helvetica,sans-Serif" font-size="10.00">||}</text>
</a>
</g>
</g>
<!-- Node2&#45;&gt;Node1 -->
<g id="edge1" class="edge">
<title>Node2&#45;&gt;Node1</title>
<path fill="none" stroke="#404040" d="M430.17,-1022.84C428.32,-989.95 424,-905.86 424,-835.5 424,-835.5 424,-835.5 424,-377 424,-336.2 428.64,-292.12 434.64,-252.2"/>
<polygon fill="none" stroke="#404040" points="434.65,-252.14 431.62,-245.6 436.49,-240.29 439.52,-246.83 434.65,-252.14"/>
<text text-anchor="middle" x="432" y="-612" font-family="Helvetica,sans-Serif" font-size="10.00"> #Id</text>
</g>
<!-- Node9 -->
<g id="node9" class="node">
<title>Node9</title>
<g id="a_node9"><a xlink:href="classrtype_1_1components_1_1Component.html" target="_top" xlink:title=" ">
<polygon fill="white" stroke="#666666" points="565.5,-921 462.5,-921 462.5,-748 565.5,-748 565.5,-921"/>
<text text-anchor="start" x="470.5" y="-909" font-family="Helvetica,sans-Serif" font-size="10.00">{rtype::components::</text>
<text text-anchor="middle" x="514" y="-898" font-family="Helvetica,sans-Serif" font-size="10.00">Component</text>
<text text-anchor="start" x="470.5" y="-887" font-family="Helvetica,sans-Serif" font-size="10.00">||+ Component()</text>
<text text-anchor="start" x="470.5" y="-876" font-family="Helvetica,sans-Serif" font-size="10.00">+ Component()</text>
<text text-anchor="start" x="470.5" y="-865" font-family="Helvetica,sans-Serif" font-size="10.00">+ ~Component()</text>
<text text-anchor="start" x="470.5" y="-854" font-family="Helvetica,sans-Serif" font-size="10.00">+ draw()</text>
<text text-anchor="start" x="470.5" y="-843" font-family="Helvetica,sans-Serif" font-size="10.00">+ getId()</text>
<text text-anchor="start" x="470.5" y="-832" font-family="Helvetica,sans-Serif" font-size="10.00">+ getOwnerId()</text>
<text text-anchor="start" x="470.5" y="-821" font-family="Helvetica,sans-Serif" font-size="10.00">+ handleEvent()</text>
<text text-anchor="start" x="470.5" y="-810" font-family="Helvetica,sans-Serif" font-size="10.00">+ handleEvent()</text>
<text text-anchor="start" x="470.5" y="-799" font-family="Helvetica,sans-Serif" font-size="10.00">+ init()</text>
<text text-anchor="start" x="470.5" y="-788" font-family="Helvetica,sans-Serif" font-size="10.00">+ pName()</text>
<text text-anchor="start" x="470.5" y="-777" font-family="Helvetica,sans-Serif" font-size="10.00">+ printSMthing()</text>
<text text-anchor="start" x="470.5" y="-766" font-family="Helvetica,sans-Serif" font-size="10.00">+ update()</text>
<text text-anchor="middle" x="514" y="-755" font-family="Helvetica,sans-Serif" font-size="10.00">}</text>
</a>
</g>
</g>
<!-- Node2&#45;&gt;Node9 -->
<g id="edge10" class="edge">
<title>Node2&#45;&gt;Node9</title>
<path fill="none" stroke="#404040" d="M436.14,-1022.62C443.06,-1003.43 455.91,-968.44 468,-939 468.77,-937.12 469.56,-935.22 470.35,-933.31"/>
<polygon fill="none" stroke="#404040" points="470.33,-933.35 468.98,-926.27 475,-922.3 476.35,-929.38 470.33,-933.35"/>
<text text-anchor="middle" x="489.5" y="-953" font-family="Helvetica,sans-Serif" font-size="10.00"> +Id</text>
<text text-anchor="middle" x="489.5" y="-942" font-family="Helvetica,sans-Serif" font-size="10.00">+OwnerId</text>
</g>
<!-- Node3 -->
<g id="node3" class="node">
<title>Node3</title>
<g id="a_node3"><a xlink:href="classUtils_1_1SparseArray.html" target="_top" xlink:title=" ">
<polygon fill="white" stroke="#666666" points="311,-470 205,-470 205,-286 311,-286 311,-470"/>
<text text-anchor="start" x="213" y="-458" font-family="Helvetica,sans-Serif" font-size="10.00">{Utils::SparseArray</text>
<text text-anchor="start" x="213" y="-447" font-family="Helvetica,sans-Serif" font-size="10.00">&lt; rtype::components</text>
<text text-anchor="middle" x="258" y="-436" font-family="Helvetica,sans-Serif" font-size="10.00">::Component *, 100 &gt;</text>
<text text-anchor="start" x="213" y="-425" font-family="Helvetica,sans-Serif" font-size="10.00">||+ SparseArray()</text>
<text text-anchor="start" x="213" y="-414" font-family="Helvetica,sans-Serif" font-size="10.00">+ ~SparseArray()</text>
<text text-anchor="start" x="213" y="-403" font-family="Helvetica,sans-Serif" font-size="10.00">+ addElement()</text>
<text text-anchor="start" x="213" y="-392" font-family="Helvetica,sans-Serif" font-size="10.00">+ back()</text>
<text text-anchor="start" x="213" y="-381" font-family="Helvetica,sans-Serif" font-size="10.00">+ front()</text>
<text text-anchor="start" x="213" y="-370" font-family="Helvetica,sans-Serif" font-size="10.00">+ getElemAt()</text>
<text text-anchor="start" x="213" y="-359" font-family="Helvetica,sans-Serif" font-size="10.00">+ getList()</text>
<text text-anchor="start" x="213" y="-348" font-family="Helvetica,sans-Serif" font-size="10.00">+ getShortList()</text>
<text text-anchor="start" x="213" y="-337" font-family="Helvetica,sans-Serif" font-size="10.00">+ getUsedId()</text>
<text text-anchor="start" x="213" y="-326" font-family="Helvetica,sans-Serif" font-size="10.00">+ insertAt()</text>
<text text-anchor="start" x="213" y="-315" font-family="Helvetica,sans-Serif" font-size="10.00">+ removeElem()</text>
<text text-anchor="start" x="213" y="-304" font-family="Helvetica,sans-Serif" font-size="10.00">+ updateElem()</text>
<text text-anchor="middle" x="258" y="-293" font-family="Helvetica,sans-Serif" font-size="10.00">}</text>
</a>
</g>
</g>
<!-- Node3&#45;&gt;Node1 -->
<g id="edge2" class="edge">
<title>Node3&#45;&gt;Node1</title>
<path fill="none" stroke="#404040" d="M311.34,-309.61C338.61,-275.15 371.92,-233.05 400.19,-197.34"/>
<polygon fill="none" stroke="#404040" points="400.01,-197.56 400.6,-190.37 407.46,-188.15 406.87,-195.34 400.01,-197.56"/>
<text text-anchor="middle" x="366.5" y="-260" font-family="Helvetica,sans-Serif" font-size="10.00"> #comps</text>
</g>
<!-- Node4 -->
<g id="node4" class="node">
<title>Node4</title>
<g id="a_node4"><a xlink:title=" ">
<polygon fill="white" stroke="#666666" points="142,-849.5 50,-849.5 50,-819.5 142,-819.5 142,-849.5"/>
<text text-anchor="middle" x="96" y="-837.5" font-family="Helvetica,sans-Serif" font-size="10.00">{std::vector&lt; int &gt;</text>
<text text-anchor="middle" x="96" y="-826.5" font-family="Helvetica,sans-Serif" font-size="10.00">||}</text>
</a>
</g>
</g>
<!-- Node4&#45;&gt;Node3 -->
<g id="edge3" class="edge">
<title>Node4&#45;&gt;Node3</title>
<path fill="none" stroke="#404040" d="M92.83,-819.3C83.49,-774.25 59.53,-631.47 105,-528 123.86,-485.09 161.4,-448.22 194.58,-421.89"/>
<polygon fill="none" stroke="#404040" points="194.5,-421.96 196.8,-415.12 204,-414.62 201.69,-421.45 194.5,-421.96"/>
<text text-anchor="middle" x="122" y="-612" font-family="Helvetica,sans-Serif" font-size="10.00"> #inUse</text>
</g>
<!-- Node14 -->
<g id="node14" class="node">
<title>Node14</title>
<g id="a_node14"><a xlink:href="classUtils_1_1SparseArray.html" target="_top" xlink:title=" ">
<polygon fill="white" stroke="#666666" points="246,-701 148,-701 148,-528 246,-528 246,-701"/>
<text text-anchor="start" x="156" y="-689" font-family="Helvetica,sans-Serif" font-size="10.00">{Utils::SparseArray</text>
<text text-anchor="middle" x="197" y="-678" font-family="Helvetica,sans-Serif" font-size="10.00">&lt; T, N &gt;</text>
<text text-anchor="start" x="156" y="-667" font-family="Helvetica,sans-Serif" font-size="10.00">||+ SparseArray()</text>
<text text-anchor="start" x="156" y="-656" font-family="Helvetica,sans-Serif" font-size="10.00">+ ~SparseArray()</text>
<text text-anchor="start" x="156" y="-645" font-family="Helvetica,sans-Serif" font-size="10.00">+ addElement()</text>
<text text-anchor="start" x="156" y="-634" font-family="Helvetica,sans-Serif" font-size="10.00">+ back()</text>
<text text-anchor="start" x="156" y="-623" font-family="Helvetica,sans-Serif" font-size="10.00">+ front()</text>
<text text-anchor="start" x="156" y="-612" font-family="Helvetica,sans-Serif" font-size="10.00">+ getElemAt()</text>
<text text-anchor="start" x="156" y="-601" font-family="Helvetica,sans-Serif" font-size="10.00">+ getList()</text>
<text text-anchor="start" x="156" y="-590" font-family="Helvetica,sans-Serif" font-size="10.00">+ getShortList()</text>
<text text-anchor="start" x="156" y="-579" font-family="Helvetica,sans-Serif" font-size="10.00">+ getUsedId()</text>
<text text-anchor="start" x="156" y="-568" font-family="Helvetica,sans-Serif" font-size="10.00">+ insertAt()</text>
<text text-anchor="start" x="156" y="-557" font-family="Helvetica,sans-Serif" font-size="10.00">+ removeElem()</text>
<text text-anchor="start" x="156" y="-546" font-family="Helvetica,sans-Serif" font-size="10.00">+ updateElem()</text>
<text text-anchor="middle" x="197" y="-535" font-family="Helvetica,sans-Serif" font-size="10.00">}</text>
</a>
</g>
</g>
<!-- Node4&#45;&gt;Node14 -->
<g id="edge16" class="edge">
<title>Node4&#45;&gt;Node14</title>
<path fill="none" stroke="#404040" d="M102.63,-819.2C112.71,-797.42 132.76,-754.15 151.8,-713.06"/>
<polygon fill="none" stroke="#404040" points="151.84,-712.97 150.73,-705.85 156.88,-702.09 157.99,-709.21 151.84,-712.97"/>
<text text-anchor="middle" x="164" y="-722" font-family="Helvetica,sans-Serif" font-size="10.00"> #inUse</text>
</g>
<!-- Node5 -->
<g id="node5" class="node">
<title>Node5</title>
<g id="a_node5"><a xlink:title=" ">
<polygon fill="white" stroke="#666666" points="39,-1053 9,-1053 9,-1023 39,-1023 39,-1053"/>
<text text-anchor="middle" x="24" y="-1041" font-family="Helvetica,sans-Serif" font-size="10.00">{int</text>
<text text-anchor="middle" x="24" y="-1030" font-family="Helvetica,sans-Serif" font-size="10.00">||}</text>
</a>
</g>
</g>
<!-- Node5&#45;&gt;Node1 -->
<g id="edge23" class="edge">
<title>Node5&#45;&gt;Node1</title>
<path fill="none" stroke="#404040" d="M21.15,-1022.9C14.8,-990.15 0,-906.31 0,-835.5 0,-835.5 0,-835.5 0,-377 0,-198.13 268.28,-142.9 395.52,-126.76"/>
<polygon fill="none" stroke="#404040" points="395.31,-126.78 400.78,-122.09 407.22,-125.34 401.75,-130.03 395.31,-126.78"/>
<text text-anchor="middle" x="30" y="-617.5" font-family="Helvetica,sans-Serif" font-size="10.00"> &#45;e_health</text>
<text text-anchor="middle" x="30" y="-606.5" font-family="Helvetica,sans-Serif" font-size="10.00">&#45;e_maxBonus</text>
</g>
<!-- Node5&#45;&gt;Node4 -->
<g id="edge4" class="edge">
<title>Node5&#45;&gt;Node4</title>
<path fill="none" stroke="#404040" d="M27.98,-1022.59C33.39,-1003.36 43.58,-968.34 54,-939 63.47,-912.34 75.78,-882.45 84.63,-861.68"/>
<polygon fill="none" stroke="#404040" points="84.66,-861.6 83.35,-854.51 89.4,-850.57 90.7,-857.67 84.66,-861.6"/>
<text text-anchor="middle" x="78.5" y="-947.5" font-family="Helvetica,sans-Serif" font-size="10.00"> +elements</text>
</g>
<!-- Node6 -->
<g id="node6" class="node">
<title>Node6</title>
<g id="a_node6"><a xlink:title=" ">
<polygon fill="white" stroke="#666666" points="158.5,-1053 71.5,-1053 71.5,-1023 158.5,-1023 158.5,-1053"/>
<text text-anchor="middle" x="115" y="-1041" font-family="Helvetica,sans-Serif" font-size="10.00">{std::vector&lt; T &gt;</text>
<text text-anchor="middle" x="115" y="-1030" font-family="Helvetica,sans-Serif" font-size="10.00">||}</text>
</a>
</g>
</g>
<!-- Node6&#45;&gt;Node4 -->
<g id="edge5" class="edge">
<title>Node6&#45;&gt;Node4</title>
<path fill="none" stroke="orange" d="M112.56,-1011.09C108.51,-968.14 100.53,-883.57 97.35,-849.86"/>
<polygon fill="orange" stroke="orange" points="109.07,-1011.37 113.49,-1021 116.04,-1010.72 109.07,-1011.37"/>
<text text-anchor="middle" x="123" y="-947.5" font-family="Helvetica,sans-Serif" font-size="10.00"> &lt; int &gt;</text>
</g>
<!-- Node7 -->
<g id="node7" class="node">
<title>Node7</title>
<g id="a_node7"><a xlink:title=" ">
<polygon fill="white" stroke="#666666" points="210.5,-1179.5 181.5,-1179.5 181.5,-1149.5 210.5,-1149.5 210.5,-1179.5"/>
<text text-anchor="middle" x="196" y="-1167.5" font-family="Helvetica,sans-Serif" font-size="10.00">{T</text>
<text text-anchor="middle" x="196" y="-1156.5" font-family="Helvetica,sans-Serif" font-size="10.00">||}</text>
</a>
</g>
</g>
<!-- Node7&#45;&gt;Node6 -->
<g id="edge6" class="edge">
<title>Node7&#45;&gt;Node6</title>
<path fill="none" stroke="#404040" d="M181.05,-1158.63C166.47,-1153.09 144.82,-1142.59 133,-1126 120.65,-1108.67 116.39,-1084.74 115.08,-1066.37"/>
<polygon fill="none" stroke="#404040" points="115.07,-1066.22 110.84,-1060.39 114.6,-1054.23 118.83,-1060.07 115.07,-1066.22"/>
<text text-anchor="middle" x="157.5" y="-1118" font-family="Helvetica,sans-Serif" font-size="10.00"> +elements</text>
</g>
<!-- Node13 -->
<g id="node13" class="node">
<title>Node13</title>
<g id="a_node13"><a xlink:title=" ">
<polygon fill="white" stroke="#666666" points="344.5,-1053 263.5,-1053 263.5,-1023 344.5,-1023 344.5,-1053"/>
<text text-anchor="middle" x="304" y="-1041" font-family="Helvetica,sans-Serif" font-size="10.00">{std::array&lt; T &gt;</text>
<text text-anchor="middle" x="304" y="-1030" font-family="Helvetica,sans-Serif" font-size="10.00">||}</text>
</a>
</g>
</g>
<!-- Node7&#45;&gt;Node13 -->
<g id="edge14" class="edge">
<title>Node7&#45;&gt;Node13</title>
<path fill="none" stroke="#404040" d="M208.39,-1149.22C226.6,-1128.22 260.84,-1088.76 283.02,-1063.19"/>
<polygon fill="none" stroke="#404040" points="282.97,-1063.24 283.88,-1056.09 290.83,-1054.18 289.92,-1061.33 282.97,-1063.24"/>
<text text-anchor="middle" x="262.5" y="-1118" font-family="Helvetica,sans-Serif" font-size="10.00"> +elements</text>
</g>
<!-- Node15 -->
<g id="node15" class="node">
<title>Node15</title>
<g id="a_node15"><a xlink:title=" ">
<polygon fill="white" stroke="#666666" points="254,-849.5 160,-849.5 160,-819.5 254,-819.5 254,-849.5"/>
<text text-anchor="middle" x="207" y="-837.5" font-family="Helvetica,sans-Serif" font-size="10.00">{std::array&lt; T, N &gt;</text>
<text text-anchor="middle" x="207" y="-826.5" font-family="Helvetica,sans-Serif" font-size="10.00">||}</text>
</a>
</g>
</g>
<!-- Node7&#45;&gt;Node15 -->
<g id="edge18" class="edge">
<title>Node7&#45;&gt;Node15</title>
<path fill="none" stroke="#404040" d="M196.47,-1149.41C198.15,-1099.37 203.84,-929.7 206.08,-862.87"/>
<polygon fill="none" stroke="#404040" points="206.08,-862.8 202.29,-856.67 206.49,-850.81 210.28,-856.94 206.08,-862.8"/>
<text text-anchor="middle" x="227.5" y="-1035.5" font-family="Helvetica,sans-Serif" font-size="10.00"> +elements</text>
</g>
<!-- Node8 -->
<g id="node8" class="node">
<title>Node8</title>
<g id="a_node8"><a xlink:title=" ">
<polygon fill="white" stroke="#666666" points="388,-640.5 264,-640.5 264,-588.5 388,-588.5 388,-640.5"/>
<text text-anchor="start" x="272" y="-628.5" font-family="Helvetica,sans-Serif" font-size="10.00">{std::array&lt; rtype::</text>
<text text-anchor="start" x="272" y="-617.5" font-family="Helvetica,sans-Serif" font-size="10.00">components::Component</text>
<text text-anchor="middle" x="326" y="-606.5" font-family="Helvetica,sans-Serif" font-size="10.00"> *, N &gt;</text>
<text text-anchor="middle" x="326" y="-595.5" font-family="Helvetica,sans-Serif" font-size="10.00">||}</text>
</a>
</g>
</g>
<!-- Node8&#45;&gt;Node3 -->
<g id="edge7" class="edge">
<title>Node8&#45;&gt;Node3</title>
<path fill="none" stroke="#404040" d="M320.76,-588.3C315.28,-562.82 306.08,-522.4 296,-488 295.5,-486.29 294.99,-484.56 294.46,-482.83"/>
<polygon fill="none" stroke="#404040" points="294.42,-482.69 288.83,-478.15 290.87,-471.23 296.47,-475.78 294.42,-482.69"/>
<text text-anchor="middle" x="319" y="-496.5" font-family="Helvetica,sans-Serif" font-size="10.00"> #elems</text>
</g>
<!-- Node9&#45;&gt;Node8 -->
<g id="edge8" class="edge">
<title>Node9&#45;&gt;Node8</title>
<path fill="none" stroke="#404040" d="M462.13,-773.35C428.05,-733.84 384.66,-683.52 356.14,-650.45"/>
<polygon fill="none" stroke="#404040" points="356.22,-650.54 349.27,-648.61 348.38,-641.45 355.33,-643.38 356.22,-650.54"/>
<text text-anchor="middle" x="444.5" y="-722" font-family="Helvetica,sans-Serif" font-size="10.00"> +elements</text>
</g>
<!-- Node10 -->
<g id="node10" class="node">
<title>Node10</title>
<g id="a_node10"><a xlink:href="classrtype_1_1components_1_1IComponents.html" target="_top" xlink:title=" ">
<polygon fill="white" stroke="#666666" points="668.5,-1097 565.5,-1097 565.5,-979 668.5,-979 668.5,-1097"/>
<text text-anchor="start" x="573.5" y="-1085" font-family="Helvetica,sans-Serif" font-size="10.00">{rtype::components::</text>
<text text-anchor="middle" x="617" y="-1074" font-family="Helvetica,sans-Serif" font-size="10.00">IComponents</text>
<text text-anchor="start" x="573.5" y="-1063" font-family="Helvetica,sans-Serif" font-size="10.00">||+ draw()</text>
<text text-anchor="start" x="573.5" y="-1052" font-family="Helvetica,sans-Serif" font-size="10.00">+ getId()</text>
<text text-anchor="start" x="573.5" y="-1041" font-family="Helvetica,sans-Serif" font-size="10.00">+ getOwnerId()</text>
<text text-anchor="start" x="573.5" y="-1030" font-family="Helvetica,sans-Serif" font-size="10.00">+ handleEvent()</text>
<text text-anchor="start" x="573.5" y="-1019" font-family="Helvetica,sans-Serif" font-size="10.00">+ handleEvent()</text>
<text text-anchor="start" x="573.5" y="-1008" font-family="Helvetica,sans-Serif" font-size="10.00">+ init()</text>
<text text-anchor="start" x="573.5" y="-997" font-family="Helvetica,sans-Serif" font-size="10.00">+ update()</text>
<text text-anchor="middle" x="617" y="-986" font-family="Helvetica,sans-Serif" font-size="10.00">}</text>
</a>
</g>
</g>
<!-- Node10&#45;&gt;Node9 -->
<g id="edge9" class="edge">
<title>Node10&#45;&gt;Node9</title>
<path fill="none" stroke="#63b8ff" d="M582.18,-968.87C574.38,-953.62 566.01,-937.25 557.9,-921.39"/>
<polygon fill="none" stroke="#63b8ff" points="578.85,-970.06 586.52,-977.37 585.08,-966.87 578.85,-970.06"/>
</g>
<!-- Node11 -->
<g id="node11" class="node">
<title>Node11</title>
<g id="a_node11"><a xlink:title=" ">
<polygon fill="white" stroke="#666666" points="547,-1053 485,-1053 485,-1023 547,-1023 547,-1053"/>
<text text-anchor="middle" x="516" y="-1041" font-family="Helvetica,sans-Serif" font-size="10.00">{std::string</text>
<text text-anchor="middle" x="516" y="-1030" font-family="Helvetica,sans-Serif" font-size="10.00">||}</text>
</a>
</g>
</g>
<!-- Node11&#45;&gt;Node9 -->
<g id="edge11" class="edge">
<title>Node11&#45;&gt;Node9</title>
<path fill="none" stroke="#404040" d="M515.86,-1022.51C515.67,-1003.54 515.32,-968.63 514.98,-934.06"/>
<polygon fill="none" stroke="#404040" points="514.98,-934.27 510.92,-928.31 514.86,-922.28 518.92,-928.24 514.98,-934.27"/>
<text text-anchor="middle" x="531.5" y="-947.5" font-family="Helvetica,sans-Serif" font-size="10.00"> +name</text>
</g>
<!-- Node12 -->
<g id="node12" class="node">
<title>Node12</title>
<g id="a_node12"><a xlink:title=" ">
<polygon fill="white" stroke="#666666" points="564,-1185 468,-1185 468,-1144 564,-1144 564,-1185"/>
<text text-anchor="start" x="476" y="-1173" font-family="Helvetica,sans-Serif" font-size="10.00">{std::basic_string&lt;</text>
<text text-anchor="middle" x="516" y="-1162" font-family="Helvetica,sans-Serif" font-size="10.00"> Char &gt;</text>
<text text-anchor="middle" x="516" y="-1151" font-family="Helvetica,sans-Serif" font-size="10.00">||}</text>
</a>
</g>
</g>
<!-- Node12&#45;&gt;Node11 -->
<g id="edge12" class="edge">
<title>Node12&#45;&gt;Node11</title>
<path fill="none" stroke="#63b8ff" d="M516,-1132.52C516,-1107.15 516,-1072.41 516,-1053.21"/>
<polygon fill="none" stroke="#63b8ff" points="512.5,-1132.26 516,-1142.26 519.5,-1132.26 512.5,-1132.26"/>
</g>
<!-- Node13&#45;&gt;Node8 -->
<g id="edge13" class="edge">
<title>Node13&#45;&gt;Node8</title>
<path fill="none" stroke="orange" d="M305.31,-1011.89C309.21,-937.09 320.74,-716.26 324.67,-640.98"/>
<polygon fill="orange" stroke="orange" points="301.84,-1011.3 304.81,-1021.46 308.83,-1011.66 301.84,-1011.3"/>
<text text-anchor="start" x="319" y="-837.5" font-family="Helvetica,sans-Serif" font-size="10.00"> &lt; rtype::components</text>
<text text-anchor="middle" x="364" y="-826.5" font-family="Helvetica,sans-Serif" font-size="10.00">::Component *, N &gt;</text>
</g>
<!-- Node13&#45;&gt;Node15 -->
<g id="edge19" class="edge">
<title>Node13&#45;&gt;Node15</title>
<path fill="none" stroke="orange" d="M285.79,-1013.76C274.97,-999.19 261.54,-979.69 252,-961 232.42,-922.66 217.54,-873.78 210.86,-849.92"/>
<polygon fill="orange" stroke="orange" points="282.71,-1015.5 291.54,-1021.36 288.3,-1011.27 282.71,-1015.5"/>
<text text-anchor="middle" x="271" y="-947.5" font-family="Helvetica,sans-Serif" font-size="10.00"> &lt; T, N &gt;</text>
</g>
<!-- Node14&#45;&gt;Node3 -->
<g id="edge15" class="edge">
<title>Node14&#45;&gt;Node3</title>
<path fill="none" stroke="orange" d="M200.33,-516.38C201.74,-506.71 203.59,-497.11 206,-488 207.55,-482.12 209.42,-476.18 211.52,-470.25"/>
<polygon fill="orange" stroke="orange" points="196.86,-515.87 199.05,-526.23 203.81,-516.76 196.86,-515.87"/>
<text text-anchor="start" x="206" y="-502" font-family="Helvetica,sans-Serif" font-size="10.00"> &lt; rtype::components</text>
<text text-anchor="middle" x="251" y="-491" font-family="Helvetica,sans-Serif" font-size="10.00">::Component *, 100 &gt;</text>
</g>
<!-- Node15&#45;&gt;Node14 -->
<g id="edge17" class="edge">
<title>Node15&#45;&gt;Node14</title>
<path fill="none" stroke="#404040" d="M206.34,-819.2C205.35,-797.61 203.39,-754.89 201.52,-714.12"/>
<polygon fill="none" stroke="#404040" points="201.53,-714.16 197.25,-708.35 200.98,-702.17 205.25,-707.98 201.53,-714.16"/>
<text text-anchor="middle" x="219" y="-722" font-family="Helvetica,sans-Serif" font-size="10.00"> #elems</text>
</g>
<!-- Node16 -->
<g id="node16" class="node">
<title>Node16</title>
<g id="a_node16"><a xlink:title=" ">
<polygon fill="white" stroke="#666666" points="543.5,-393 452.5,-393 452.5,-363 543.5,-363 543.5,-393"/>
<text text-anchor="middle" x="498" y="-381" font-family="Helvetica,sans-Serif" font-size="10.00">{RectangleShape</text>
<text text-anchor="middle" x="498" y="-370" font-family="Helvetica,sans-Serif" font-size="10.00">||}</text>
</a>
</g>
</g>
<!-- Node16&#45;&gt;Node1 -->
<g id="edge20" class="edge">
<title>Node16&#45;&gt;Node1</title>
<path fill="none" stroke="#404040" d="M495.96,-362.84C492.81,-341 486.45,-296.92 480.01,-252.27"/>
<polygon fill="none" stroke="#404040" points="479.99,-252.14 475.17,-246.77 478.28,-240.26 483.09,-245.63 479.99,-252.14"/>
<text text-anchor="middle" x="497.5" y="-260" font-family="Helvetica,sans-Serif" font-size="10.00"> &#45;e_rect</text>
</g>
<!-- Node17 -->
<g id="node17" class="node">
<title>Node17</title>
<g id="a_node17"><a xlink:title=" ">
<polygon fill="white" stroke="#666666" points="606.5,-393 561.5,-393 561.5,-363 606.5,-363 606.5,-393"/>
<text text-anchor="middle" x="584" y="-381" font-family="Helvetica,sans-Serif" font-size="10.00">{Sprite</text>
<text text-anchor="middle" x="584" y="-370" font-family="Helvetica,sans-Serif" font-size="10.00">||}</text>
</a>
</g>
</g>
<!-- Node17&#45;&gt;Node1 -->
<g id="edge21" class="edge">
<title>Node17&#45;&gt;Node1</title>
<path fill="none" stroke="#404040" d="M579.94,-362.51C574.64,-344.3 564.65,-312.24 553,-286 543.33,-264.22 531.76,-241.51 520.15,-220.14"/>
<polygon fill="none" stroke="#404040" points="520.11,-220.07 513.71,-216.74 514.32,-209.55 520.72,-212.88 520.11,-220.07"/>
<text text-anchor="middle" x="564" y="-260" font-family="Helvetica,sans-Serif" font-size="10.00"> &#45;e_asset</text>
</g>
<!-- Node18 -->
<g id="node18" class="node">
<title>Node18</title>
<g id="a_node18"><a xlink:title=" ">
<polygon fill="white" stroke="#666666" points="681,-393 625,-393 625,-363 681,-363 681,-393"/>
<text text-anchor="middle" x="653" y="-381" font-family="Helvetica,sans-Serif" font-size="10.00">{Vector2f</text>
<text text-anchor="middle" x="653" y="-370" font-family="Helvetica,sans-Serif" font-size="10.00">||}</text>
</a>
</g>
</g>
<!-- Node18&#45;&gt;Node1 -->
<g id="edge22" class="edge">
<title>Node18&#45;&gt;Node1</title>
<path fill="none" stroke="#404040" d="M648.97,-362.66C643.34,-344.05 632,-310.99 616,-286 590.12,-245.56 553.71,-206.09 522.69,-175.85"/>
<polygon fill="none" stroke="#404040" points="522.97,-176.11 515.87,-174.83 514.33,-167.79 521.42,-169.07 522.97,-176.11"/>
<text text-anchor="middle" x="627" y="-260" font-family="Helvetica,sans-Serif" font-size="10.00"> &#45;e_position</text>
</g>
</g>
</svg>
