<?xml version="1.0" encoding="UTF-8" standalone="no"?>
<!DOCTYPE svg PUBLIC "-//W3C//DTD SVG 1.1//EN"
 "http://www.w3.org/Graphics/SVG/1.1/DTD/svg11.dtd">
<!-- Generated by graphviz version 7.0.5 (20221223.1930)
 -->
<!-- Title: rtype::entities::Entity Pages: 1 -->
<svg width="325pt" height="214pt"
 viewBox="0.00 0.00 324.50 214.00" xmlns="http://www.w3.org/2000/svg" xmlns:xlink="http://www.w3.org/1999/xlink">
<g id="graph0" class="graph" transform="scale(1 1) rotate(0) translate(4 210)">
<title>rtype::entities::Entity</title>
<!-- Node1 -->
<g id="node1" class="node">
<title>Node1</title>
<g id="a_node1"><a xlink:title=" ">
<polygon fill="#999999" stroke="#666666" points="217,-118 112,-118 112,0 217,0 217,-118"/>
<text text-anchor="middle" x="164.5" y="-106" font-family="Helvetica,sans-Serif" font-size="10.00">{rtype::entities::Entity</text>
<text text-anchor="start" x="120" y="-95" font-family="Helvetica,sans-Serif" font-size="10.00">||+ Entity()</text>
<text text-anchor="start" x="120" y="-84" font-family="Helvetica,sans-Serif" font-size="10.00">+ ~Entity()</text>
<text text-anchor="start" x="120" y="-73" font-family="Helvetica,sans-Serif" font-size="10.00">+ getPos()</text>
<text text-anchor="start" x="120" y="-62" font-family="Helvetica,sans-Serif" font-size="10.00">+ getVelocity()</text>
<text text-anchor="start" x="120" y="-51" font-family="Helvetica,sans-Serif" font-size="10.00">+ getX()</text>
<text text-anchor="start" x="120" y="-40" font-family="Helvetica,sans-Serif" font-size="10.00">+ getY()</text>
<text text-anchor="start" x="120" y="-29" font-family="Helvetica,sans-Serif" font-size="10.00">+ setPosition()</text>
<text text-anchor="start" x="120" y="-18" font-family="Helvetica,sans-Serif" font-size="10.00">+ setVelocity()</text>
<text text-anchor="middle" x="164.5" y="-7" font-family="Helvetica,sans-Serif" font-size="10.00">}</text>
</a>
</g>
</g>
<!-- Node2 -->
<g id="node2" class="node">
<title>Node2</title>
<g id="a_node2"><a xlink:title=" ">
<polygon fill="white" stroke="#666666" points="91,-206 0,-206 0,-176 91,-176 91,-206"/>
<text text-anchor="middle" x="45.5" y="-194" font-family="Helvetica,sans-Serif" font-size="10.00">{RectangleShape</text>
<text text-anchor="middle" x="45.5" y="-183" font-family="Helvetica,sans-Serif" font-size="10.00">||}</text>
</a>
</g>
</g>
<!-- Node2&#45;&gt;Node1 -->
<g id="edge1" class="edge">
<title>Node2&#45;&gt;Node1</title>
<path fill="none" stroke="#404040" d="M58.37,-175.76C68.23,-164.86 82.2,-149.45 94.5,-136 97.28,-132.95 100.13,-129.84 103.01,-126.7"/>
<polygon fill="none" stroke="#404040" points="102.99,-126.73 104.09,-119.61 111.1,-117.89 109.99,-125.02 102.99,-126.73"/>
<text text-anchor="middle" x="111" y="-144.5" font-family="Helvetica,sans-Serif" font-size="10.00"> &#45;e_rect</text>
</g>
<!-- Node3 -->
<g id="node3" class="node">
<title>Node3</title>
<g id="a_node3"><a xlink:title=" ">
<polygon fill="white" stroke="#666666" points="154,-206 109,-206 109,-176 154,-176 154,-206"/>
<text text-anchor="middle" x="131.5" y="-194" font-family="Helvetica,sans-Serif" font-size="10.00">{Sprite</text>
<text text-anchor="middle" x="131.5" y="-183" font-family="Helvetica,sans-Serif" font-size="10.00">||}</text>
</a>
</g>
</g>
<!-- Node3&#45;&gt;Node1 -->
<g id="edge2" class="edge">
<title>Node3&#45;&gt;Node1</title>
<path fill="none" stroke="#404040" d="M131.44,-175.62C131.66,-164.65 132.56,-149.21 135.5,-136 135.88,-134.28 136.3,-132.55 136.74,-130.81"/>
<polygon fill="none" stroke="#404040" points="136.74,-130.8 134.55,-123.93 140.04,-119.26 142.24,-126.13 136.74,-130.8"/>
<text text-anchor="middle" x="155.5" y="-144.5" font-family="Helvetica,sans-Serif" font-size="10.00"> &#45;e_asset</text>
</g>
<!-- Node4 -->
<g id="node4" class="node">
<title>Node4</title>
<g id="a_node4"><a xlink:title=" ">
<polygon fill="white" stroke="#666666" points="228.5,-206 172.5,-206 172.5,-176 228.5,-176 228.5,-206"/>
<text text-anchor="middle" x="200.5" y="-194" font-family="Helvetica,sans-Serif" font-size="10.00">{Vector2f</text>
<text text-anchor="middle" x="200.5" y="-183" font-family="Helvetica,sans-Serif" font-size="10.00">||}</text>
</a>
</g>
</g>
<!-- Node4&#45;&gt;Node1 -->
<g id="edge3" class="edge">
<title>Node4&#45;&gt;Node1</title>
<path fill="none" stroke="#404040" d="M196.51,-175.59C193.4,-164.37 188.83,-147.88 184.12,-130.84"/>
<polygon fill="none" stroke="#404040" points="184.12,-130.85 178.66,-126.13 180.92,-119.28 186.37,-124 184.12,-130.85"/>
<text text-anchor="middle" x="215.5" y="-144.5" font-family="Helvetica,sans-Serif" font-size="10.00"> &#45;e_position</text>
</g>
<!-- Node5 -->
<g id="node5" class="node">
<title>Node5</title>
<g id="a_node5"><a xlink:title=" ">
<polygon fill="white" stroke="#666666" points="285.5,-206 255.5,-206 255.5,-176 285.5,-176 285.5,-206"/>
<text text-anchor="middle" x="270.5" y="-194" font-family="Helvetica,sans-Serif" font-size="10.00">{int</text>
<text text-anchor="middle" x="270.5" y="-183" font-family="Helvetica,sans-Serif" font-size="10.00">||}</text>
</a>
</g>
</g>
<!-- Node5&#45;&gt;Node1 -->
<g id="edge4" class="edge">
<title>Node5&#45;&gt;Node1</title>
<path fill="none" stroke="#404040" d="M265.37,-175.92C260.84,-164.55 253.57,-148.44 244.5,-136 239.07,-128.55 232.85,-121.21 226.34,-114.22"/>
<polygon fill="none" stroke="#404040" points="226.29,-114.17 219.24,-112.64 217.94,-105.55 224.99,-107.07 226.29,-114.17"/>
<text text-anchor="middle" x="286.5" y="-150" font-family="Helvetica,sans-Serif" font-size="10.00"> &#45;e_health</text>
<text text-anchor="middle" x="286.5" y="-139" font-family="Helvetica,sans-Serif" font-size="10.00">&#45;e_maxBonus</text>
</g>
</g>
</svg>
