<?xml version="1.0" encoding="UTF-8" standalone="no"?>
<!DOCTYPE svg PUBLIC "-//W3C//DTD SVG 1.1//EN"
 "http://www.w3.org/Graphics/SVG/1.1/DTD/svg11.dtd">
<!-- Generated by graphviz version 7.0.5 (20221223.1930)
 -->
<!-- Title: rtype::components::Bullets Pages: 1 -->
<svg width="504pt" height="390pt"
 viewBox="0.00 0.00 504.00 390.00" xmlns="http://www.w3.org/2000/svg" xmlns:xlink="http://www.w3.org/1999/xlink">
<g id="graph0" class="graph" transform="scale(1 1) rotate(0) translate(4 386)">
<title>rtype::components::Bullets</title>
<!-- Node1 -->
<g id="node1" class="node">
<title>Node1</title>
<g id="a_node1"><a xlink:title=" ">
<polygon fill="#999999" stroke="#666666" points="247,-140 137,-140 137,0 247,0 247,-140"/>
<text text-anchor="start" x="145" y="-128" font-family="Helvetica,sans-Serif" font-size="10.00">{rtype::components::</text>
<text text-anchor="middle" x="192" y="-117" font-family="Helvetica,sans-Serif" font-size="10.00">Bullets</text>
<text text-anchor="start" x="145" y="-106" font-family="Helvetica,sans-Serif" font-size="10.00">||+ Bullets()</text>
<text text-anchor="start" x="145" y="-95" font-family="Helvetica,sans-Serif" font-size="10.00">+ ~Bullets()</text>
<text text-anchor="start" x="145" y="-84" font-family="Helvetica,sans-Serif" font-size="10.00">+ collided()</text>
<text text-anchor="start" x="145" y="-73" font-family="Helvetica,sans-Serif" font-size="10.00">+ CreateBullet()</text>
<text text-anchor="start" x="145" y="-62" font-family="Helvetica,sans-Serif" font-size="10.00">+ drawBullets()</text>
<text text-anchor="start" x="145" y="-51" font-family="Helvetica,sans-Serif" font-size="10.00">+ getBulletList()</text>
<text text-anchor="start" x="145" y="-40" font-family="Helvetica,sans-Serif" font-size="10.00">+ ServerShootBullet()</text>
<text text-anchor="start" x="145" y="-29" font-family="Helvetica,sans-Serif" font-size="10.00">+ ShootBullet()</text>
<text text-anchor="start" x="145" y="-18" font-family="Helvetica,sans-Serif" font-size="10.00">+ update()</text>
<text text-anchor="middle" x="192" y="-7" font-family="Helvetica,sans-Serif" font-size="10.00">}</text>
</a>
</g>
</g>
<!-- Node2 -->
<g id="node2" class="node">
<title>Node2</title>
<g id="a_node2"><a xlink:title=" ">
<polygon fill="white" stroke="#666666" points="44,-228 0,-228 0,-198 44,-198 44,-228"/>
<text text-anchor="middle" x="22" y="-216" font-family="Helvetica,sans-Serif" font-size="10.00">{Clock</text>
<text text-anchor="middle" x="22" y="-205" font-family="Helvetica,sans-Serif" font-size="10.00">||}</text>
</a>
</g>
</g>
<!-- Node2&#45;&gt;Node1 -->
<g id="edge1" class="edge">
<title>Node2&#45;&gt;Node1</title>
<path fill="none" stroke="#404040" d="M29.78,-197.56C36.49,-185.98 46.98,-169.77 59,-158 78.66,-138.76 103.17,-121.31 125.78,-107.18"/>
<polygon fill="none" stroke="#404040" points="125.69,-107.24 128.72,-100.7 135.93,-100.98 132.89,-107.52 125.69,-107.24"/>
<text text-anchor="middle" x="82" y="-166.5" font-family="Helvetica,sans-Serif" font-size="10.00"> &#45;selfClock</text>
</g>
<!-- Node3 -->
<g id="node3" class="node">
<title>Node3</title>
<g id="a_node3"><a xlink:title=" ">
<polygon fill="white" stroke="#666666" points="108.5,-228 67.5,-228 67.5,-198 108.5,-198 108.5,-228"/>
<text text-anchor="middle" x="88" y="-216" font-family="Helvetica,sans-Serif" font-size="10.00">{Time</text>
<text text-anchor="middle" x="88" y="-205" font-family="Helvetica,sans-Serif" font-size="10.00">||}</text>
</a>
</g>
</g>
<!-- Node3&#45;&gt;Node1 -->
<g id="edge2" class="edge">
<title>Node3&#45;&gt;Node1</title>
<path fill="none" stroke="#404040" d="M96.85,-197.54C103.71,-186.52 113.62,-171.07 123,-158 124.99,-155.23 127.03,-152.43 129.11,-149.62"/>
<polygon fill="none" stroke="#404040" points="129.03,-149.72 129.43,-142.52 136.23,-140.12 135.83,-147.32 129.03,-149.72"/>
<text text-anchor="middle" x="139.5" y="-166.5" font-family="Helvetica,sans-Serif" font-size="10.00"> &#45;mtime</text>
</g>
<!-- Node4 -->
<g id="node4" class="node">
<title>Node4</title>
<g id="a_node4"><a xlink:title=" ">
<polygon fill="white" stroke="#666666" points="171,-228 127,-228 127,-198 171,-198 171,-228"/>
<text text-anchor="middle" x="149" y="-216" font-family="Helvetica,sans-Serif" font-size="10.00">{int8_t</text>
<text text-anchor="middle" x="149" y="-205" font-family="Helvetica,sans-Serif" font-size="10.00">||}</text>
</a>
</g>
</g>
<!-- Node4&#45;&gt;Node1 -->
<g id="edge3" class="edge">
<title>Node4&#45;&gt;Node1</title>
<path fill="none" stroke="#404040" d="M153.36,-197.7C156.76,-186.55 161.79,-170.07 167.1,-152.67"/>
<polygon fill="none" stroke="#404040" points="167.13,-152.54 165.06,-145.64 170.63,-141.07 172.71,-147.97 167.13,-152.54"/>
<text text-anchor="middle" x="187" y="-166.5" font-family="Helvetica,sans-Serif" font-size="10.00"> &#45;ownerID</text>
</g>
<!-- Node5 -->
<g id="node5" class="node">
<title>Node5</title>
<g id="a_node5"><a xlink:title=" ">
<polygon fill="white" stroke="#666666" points="321,-228 189,-228 189,-198 321,-198 321,-228"/>
<text text-anchor="middle" x="255" y="-216" font-family="Helvetica,sans-Serif" font-size="10.00">{std::list&lt; sf::CircleShape &gt;</text>
<text text-anchor="middle" x="255" y="-205" font-family="Helvetica,sans-Serif" font-size="10.00">||}</text>
</a>
</g>
</g>
<!-- Node5&#45;&gt;Node1 -->
<g id="edge4" class="edge">
<title>Node5&#45;&gt;Node1</title>
<path fill="none" stroke="#404040" d="M248.61,-197.7C243.56,-186.39 236.05,-169.6 228.15,-151.91"/>
<polygon fill="none" stroke="#404040" points="228.18,-151.98 222.08,-148.14 223.29,-141.03 229.39,-144.87 228.18,-151.98"/>
<text text-anchor="middle" x="266" y="-166.5" font-family="Helvetica,sans-Serif" font-size="10.00"> &#45;bullets_list</text>
</g>
<!-- Node6 -->
<g id="node6" class="node">
<title>Node6</title>
<g id="a_node6"><a xlink:title=" ">
<polygon fill="white" stroke="#666666" points="250,-305 178,-305 178,-275 250,-275 250,-305"/>
<text text-anchor="middle" x="214" y="-293" font-family="Helvetica,sans-Serif" font-size="10.00">{CircleShape</text>
<text text-anchor="middle" x="214" y="-282" font-family="Helvetica,sans-Serif" font-size="10.00">||}</text>
</a>
</g>
</g>
<!-- Node6&#45;&gt;Node5 -->
<g id="edge5" class="edge">
<title>Node6&#45;&gt;Node5</title>
<path fill="none" stroke="#404040" d="M215.36,-274.76C216.65,-266.04 219.16,-254.88 224,-246 225.55,-243.15 227.43,-240.37 229.49,-237.72"/>
<polygon fill="none" stroke="#404040" points="229.37,-237.85 230.39,-230.71 237.37,-228.91 236.35,-236.04 229.37,-237.85"/>
<text text-anchor="middle" x="248.5" y="-249" font-family="Helvetica,sans-Serif" font-size="10.00"> +elements</text>
</g>
<!-- Node7 -->
<g id="node7" class="node">
<title>Node7</title>
<g id="a_node7"><a xlink:title=" ">
<polygon fill="white" stroke="#666666" points="341.5,-305 268.5,-305 268.5,-275 341.5,-275 341.5,-305"/>
<text text-anchor="middle" x="305" y="-293" font-family="Helvetica,sans-Serif" font-size="10.00">{std::list&lt; T &gt;</text>
<text text-anchor="middle" x="305" y="-282" font-family="Helvetica,sans-Serif" font-size="10.00">||}</text>
</a>
</g>
</g>
<!-- Node7&#45;&gt;Node5 -->
<g id="edge6" class="edge">
<title>Node7&#45;&gt;Node5</title>
<path fill="none" stroke="orange" d="M289.03,-265.05C281,-253 271.52,-238.78 264.61,-228.42"/>
<polygon fill="orange" stroke="orange" points="286.06,-266.9 294.52,-273.28 291.89,-263.02 286.06,-266.9"/>
<text text-anchor="middle" x="325.5" y="-249" font-family="Helvetica,sans-Serif" font-size="10.00"> &lt; sf::CircleShape &gt;</text>
</g>
<!-- Node8 -->
<g id="node8" class="node">
<title>Node8</title>
<g id="a_node8"><a xlink:title=" ">
<polygon fill="white" stroke="#666666" points="319.5,-382 290.5,-382 290.5,-352 319.5,-352 319.5,-382"/>
<text text-anchor="middle" x="305" y="-370" font-family="Helvetica,sans-Serif" font-size="10.00">{T</text>
<text text-anchor="middle" x="305" y="-359" font-family="Helvetica,sans-Serif" font-size="10.00">||}</text>
</a>
</g>
</g>
<!-- Node8&#45;&gt;Node7 -->
<g id="edge7" class="edge">
<title>Node8&#45;&gt;Node7</title>
<path fill="none" stroke="#404040" d="M305,-351.54C305,-342.1 305,-329.47 305,-318.2"/>
<polygon fill="none" stroke="#404040" points="305,-318.32 301,-312.32 305,-306.32 309,-312.32 305,-318.32"/>
<text text-anchor="middle" x="329.5" y="-326" font-family="Helvetica,sans-Serif" font-size="10.00"> +elements</text>
</g>
<!-- Node9 -->
<g id="node9" class="node">
<title>Node9</title>
<g id="a_node9"><a xlink:title=" ">
<polygon fill="white" stroke="#666666" points="395,-228 339,-228 339,-198 395,-198 395,-228"/>
<text text-anchor="middle" x="367" y="-216" font-family="Helvetica,sans-Serif" font-size="10.00">{Vector2f</text>
<text text-anchor="middle" x="367" y="-205" font-family="Helvetica,sans-Serif" font-size="10.00">||}</text>
</a>
</g>
</g>
<!-- Node9&#45;&gt;Node1 -->
<g id="edge8" class="edge">
<title>Node9&#45;&gt;Node1</title>
<path fill="none" stroke="#404040" d="M349.26,-197.7C327.76,-180.38 290.32,-150.22 257.36,-123.66"/>
<polygon fill="none" stroke="#404040" points="257.35,-123.65 250.17,-123 248,-116.12 255.18,-116.77 257.35,-123.65"/>
<text text-anchor="middle" x="356.5" y="-172" font-family="Helvetica,sans-Serif" font-size="10.00"> &#45;bullet_pos</text>
<text text-anchor="middle" x="356.5" y="-161" font-family="Helvetica,sans-Serif" font-size="10.00">&#45;bullet_velocity</text>
</g>
<!-- Node10 -->
<g id="node10" class="node">
<title>Node10</title>
<g id="a_node10"><a xlink:title=" ">
<polygon fill="white" stroke="#666666" points="462,-228 424,-228 424,-198 462,-198 462,-228"/>
<text text-anchor="middle" x="443" y="-216" font-family="Helvetica,sans-Serif" font-size="10.00">{float</text>
<text text-anchor="middle" x="443" y="-205" font-family="Helvetica,sans-Serif" font-size="10.00">||}</text>
</a>
</g>
</g>
<!-- Node10&#45;&gt;Node1 -->
<g id="edge9" class="edge">
<title>Node10&#45;&gt;Node1</title>
<path fill="none" stroke="#404040" d="M432.43,-197.59C423.12,-185.71 408.64,-169.08 393,-158 352.22,-129.12 300.35,-106.97 259.51,-92.24"/>
<polygon fill="none" stroke="#404040" points="259.39,-92.2 252.4,-93.98 248.07,-88.21 255.06,-86.43 259.39,-92.2"/>
<text text-anchor="middle" x="456" y="-166.5" font-family="Helvetica,sans-Serif" font-size="10.00"> &#45;bullet_maxSpeed</text>
</g>
</g>
</svg>
