<?xml version="1.0" encoding="UTF-8" standalone="no"?>
<!DOCTYPE svg PUBLIC "-//W3C//DTD SVG 1.1//EN"
 "http://www.w3.org/Graphics/SVG/1.1/DTD/svg11.dtd">
<!-- Generated by graphviz version 7.0.5 (20221223.1930)
 -->
<!-- Title: rtype::engine::Window Pages: 1 -->
<svg width="494pt" height="336pt"
 viewBox="0.00 0.00 493.50 336.00" xmlns="http://www.w3.org/2000/svg" xmlns:xlink="http://www.w3.org/1999/xlink">
<g id="graph0" class="graph" transform="scale(1 1) rotate(0) translate(4 332)">
<title>rtype::engine::Window</title>
<!-- Node1 -->
<g id="node1" class="node">
<title>Node1</title>
<g id="a_node1"><a xlink:title=" ">
<polygon fill="#999999" stroke="#666666" points="331.5,-173 218.5,-173 218.5,0 331.5,0 331.5,-173"/>
<text text-anchor="middle" x="275" y="-161" font-family="Helvetica,sans-Serif" font-size="10.00">{rtype::engine::Window</text>
<text text-anchor="start" x="226.5" y="-150" font-family="Helvetica,sans-Serif" font-size="10.00">||+ Window()</text>
<text text-anchor="start" x="226.5" y="-139" font-family="Helvetica,sans-Serif" font-size="10.00">+ ~Window()</text>
<text text-anchor="start" x="226.5" y="-128" font-family="Helvetica,sans-Serif" font-size="10.00">+ clear()</text>
<text text-anchor="start" x="226.5" y="-117" font-family="Helvetica,sans-Serif" font-size="10.00">+ close()</text>
<text text-anchor="start" x="226.5" y="-106" font-family="Helvetica,sans-Serif" font-size="10.00">+ CreateWindow()</text>
<text text-anchor="start" x="226.5" y="-95" font-family="Helvetica,sans-Serif" font-size="10.00">+ DisplayWindow()</text>
<text text-anchor="start" x="226.5" y="-84" font-family="Helvetica,sans-Serif" font-size="10.00">+ Draw()</text>
<text text-anchor="start" x="226.5" y="-73" font-family="Helvetica,sans-Serif" font-size="10.00">+ DrawWindow()</text>
<text text-anchor="start" x="226.5" y="-62" font-family="Helvetica,sans-Serif" font-size="10.00">+ HandleEvent()</text>
<text text-anchor="start" x="226.5" y="-51" font-family="Helvetica,sans-Serif" font-size="10.00">+ IsClosed()</text>
<text text-anchor="start" x="226.5" y="-40" font-family="Helvetica,sans-Serif" font-size="10.00">+ IsOpen()</text>
<text text-anchor="start" x="226.5" y="-29" font-family="Helvetica,sans-Serif" font-size="10.00">+ t_clock()</text>
<text text-anchor="start" x="226.5" y="-18" font-family="Helvetica,sans-Serif" font-size="10.00">+ UpdateEvent()</text>
<text text-anchor="middle" x="275" y="-7" font-family="Helvetica,sans-Serif" font-size="10.00">}</text>
</a>
</g>
</g>
<!-- Node2 -->
<g id="node2" class="node">
<title>Node2</title>
<g id="a_node2"><a xlink:title=" ">
<polygon fill="white" stroke="#666666" points="79,-250 17,-250 17,-220 79,-220 79,-250"/>
<text text-anchor="middle" x="48" y="-238" font-family="Helvetica,sans-Serif" font-size="10.00">{std::string</text>
<text text-anchor="middle" x="48" y="-227" font-family="Helvetica,sans-Serif" font-size="10.00">||}</text>
</a>
</g>
</g>
<!-- Node2&#45;&gt;Node1 -->
<g id="edge1" class="edge">
<title>Node2&#45;&gt;Node1</title>
<path fill="none" stroke="#404040" d="M56.43,-219.55C62.22,-210.52 70.54,-199.12 80,-191 117.63,-158.69 167.05,-132.59 206.72,-114.69"/>
<polygon fill="none" stroke="#404040" points="206.63,-114.73 210.5,-108.64 217.61,-109.88 213.74,-115.96 206.63,-114.73"/>
<text text-anchor="middle" x="114" y="-194" font-family="Helvetica,sans-Serif" font-size="10.00"> &#45;window_name</text>
</g>
<!-- Node3 -->
<g id="node3" class="node">
<title>Node3</title>
<g id="a_node3"><a xlink:title=" ">
<polygon fill="white" stroke="#666666" points="96,-328 0,-328 0,-287 96,-287 96,-328"/>
<text text-anchor="start" x="8" y="-316" font-family="Helvetica,sans-Serif" font-size="10.00">{std::basic_string&lt;</text>
<text text-anchor="middle" x="48" y="-305" font-family="Helvetica,sans-Serif" font-size="10.00"> Char &gt;</text>
<text text-anchor="middle" x="48" y="-294" font-family="Helvetica,sans-Serif" font-size="10.00">||}</text>
</a>
</g>
</g>
<!-- Node3&#45;&gt;Node2 -->
<g id="edge2" class="edge">
<title>Node3&#45;&gt;Node2</title>
<path fill="none" stroke="#63b8ff" d="M48,-275.39C48,-266.68 48,-257.62 48,-250.39"/>
<polygon fill="none" stroke="#63b8ff" points="44.5,-275.35 48,-285.35 51.5,-275.35 44.5,-275.35"/>
</g>
<!-- Node4 -->
<g id="node4" class="node">
<title>Node4</title>
<g id="a_node4"><a xlink:title=" ">
<polygon fill="white" stroke="#666666" points="173,-250 105,-250 105,-220 173,-220 173,-250"/>
<text text-anchor="middle" x="139" y="-238" font-family="Helvetica,sans-Serif" font-size="10.00">{VideoMode</text>
<text text-anchor="middle" x="139" y="-227" font-family="Helvetica,sans-Serif" font-size="10.00">||}</text>
</a>
</g>
</g>
<!-- Node4&#45;&gt;Node1 -->
<g id="edge3" class="edge">
<title>Node4&#45;&gt;Node1</title>
<path fill="none" stroke="#404040" d="M143.97,-219.65C147.41,-210.88 152.52,-199.72 159,-191 173.05,-172.08 191.02,-154.02 208.59,-138.44"/>
<polygon fill="none" stroke="#404040" points="208.53,-138.5 210.45,-131.54 217.6,-130.64 215.68,-137.59 208.53,-138.5"/>
<text text-anchor="middle" x="193" y="-194" font-family="Helvetica,sans-Serif" font-size="10.00"> &#45;window_mode</text>
</g>
<!-- Node5 -->
<g id="node5" class="node">
<title>Node5</title>
<g id="a_node5"><a xlink:title=" ">
<polygon fill="white" stroke="#666666" points="252,-250 208,-250 208,-220 252,-220 252,-250"/>
<text text-anchor="middle" x="230" y="-238" font-family="Helvetica,sans-Serif" font-size="10.00">{Event</text>
<text text-anchor="middle" x="230" y="-227" font-family="Helvetica,sans-Serif" font-size="10.00">||}</text>
</a>
</g>
</g>
<!-- Node5&#45;&gt;Node1 -->
<g id="edge4" class="edge">
<title>Node5&#45;&gt;Node1</title>
<path fill="none" stroke="#404040" d="M229.87,-219.89C230.07,-211.42 230.81,-200.48 233,-191 233.4,-189.26 233.83,-187.51 234.28,-185.76"/>
<polygon fill="none" stroke="#404040" points="234.31,-185.65 232.11,-178.79 237.59,-174.11 239.8,-180.97 234.31,-185.65"/>
<text text-anchor="middle" x="267" y="-194" font-family="Helvetica,sans-Serif" font-size="10.00"> &#45;window_event</text>
</g>
<!-- Node6 -->
<g id="node6" class="node">
<title>Node6</title>
<g id="a_node6"><a xlink:title=" ">
<polygon fill="white" stroke="#666666" points="359.5,-250 274.5,-250 274.5,-220 359.5,-220 359.5,-250"/>
<text text-anchor="middle" x="317" y="-238" font-family="Helvetica,sans-Serif" font-size="10.00">{RenderWindow</text>
<text text-anchor="middle" x="317" y="-227" font-family="Helvetica,sans-Serif" font-size="10.00">||}</text>
</a>
</g>
</g>
<!-- Node6&#45;&gt;Node1 -->
<g id="edge5" class="edge">
<title>Node6&#45;&gt;Node1</title>
<path fill="none" stroke="#404040" d="M312.9,-219.69C310.4,-210.98 306.97,-199 303.18,-185.8"/>
<polygon fill="none" stroke="#404040" points="303.18,-185.78 297.68,-181.11 299.87,-174.24 305.37,-178.91 303.18,-185.78"/>
<text text-anchor="middle" x="325.5" y="-194" font-family="Helvetica,sans-Serif" font-size="10.00"> &#45;window</text>
</g>
<!-- Node7 -->
<g id="node7" class="node">
<title>Node7</title>
<g id="a_node7"><a xlink:title=" ">
<polygon fill="white" stroke="#666666" points="422,-250 378,-250 378,-220 422,-220 422,-250"/>
<text text-anchor="middle" x="400" y="-238" font-family="Helvetica,sans-Serif" font-size="10.00">{Clock</text>
<text text-anchor="middle" x="400" y="-227" font-family="Helvetica,sans-Serif" font-size="10.00">||}</text>
</a>
</g>
</g>
<!-- Node7&#45;&gt;Node1 -->
<g id="edge6" class="edge">
<title>Node7&#45;&gt;Node1</title>
<path fill="none" stroke="#404040" d="M387.79,-219.69C376.39,-206.32 358.43,-185.28 340.17,-163.88"/>
<polygon fill="none" stroke="#404040" points="340.16,-163.87 333.22,-161.9 332.37,-154.74 339.31,-156.71 340.16,-163.87"/>
<text text-anchor="middle" x="392" y="-194" font-family="Helvetica,sans-Serif" font-size="10.00"> &#45;winClock</text>
</g>
<!-- Node8 -->
<g id="node8" class="node">
<title>Node8</title>
<g id="a_node8"><a xlink:title=" ">
<polygon fill="white" stroke="#666666" points="485.5,-250 444.5,-250 444.5,-220 485.5,-220 485.5,-250"/>
<text text-anchor="middle" x="465" y="-238" font-family="Helvetica,sans-Serif" font-size="10.00">{Time</text>
<text text-anchor="middle" x="465" y="-227" font-family="Helvetica,sans-Serif" font-size="10.00">||}</text>
</a>
</g>
</g>
<!-- Node8&#45;&gt;Node1 -->
<g id="edge7" class="edge">
<title>Node8&#45;&gt;Node1</title>
<path fill="none" stroke="#404040" d="M450.52,-219.56C441.67,-210.97 429.98,-200.02 419,-191 394.85,-171.17 367.22,-150.8 342.66,-133.43"/>
<polygon fill="none" stroke="#404040" points="342.54,-133.35 335.33,-133.17 332.72,-126.45 339.93,-126.62 342.54,-133.35"/>
<text text-anchor="middle" x="453" y="-194" font-family="Helvetica,sans-Serif" font-size="10.00"> &#45;winTimer</text>
</g>
</g>
</svg>
