<?xml version="1.0" encoding="UTF-8" standalone="no"?>
<!DOCTYPE svg PUBLIC "-//W3C//DTD SVG 1.1//EN"
 "http://www.w3.org/Graphics/SVG/1.1/DTD/svg11.dtd">
<!-- Generated by graphviz version 7.0.5 (20221223.1930)
 -->
<!-- Title: ChangeBits Pages: 1 -->
<svg width="168pt" height="281pt"
 viewBox="0.00 0.00 168.00 281.00" xmlns="http://www.w3.org/2000/svg" xmlns:xlink="http://www.w3.org/1999/xlink">
<g id="graph0" class="graph" transform="scale(1 1) rotate(0) translate(4 277)">
<title>ChangeBits</title>
<!-- Node1 -->
<g id="node1" class="node">
<title>Node1</title>
<g id="a_node1"><a xlink:title=" ">
<polygon fill="#999999" stroke="#666666" points="131.5,-85 40.5,-85 40.5,0 131.5,0 131.5,-85"/>
<text text-anchor="middle" x="86" y="-73" font-family="Helvetica,sans-Serif" font-size="10.00">{ChangeBits</text>
<text text-anchor="start" x="48.5" y="-62" font-family="Helvetica,sans-Serif" font-size="10.00">||+ ChangeBits()</text>
<text text-anchor="start" x="48.5" y="-51" font-family="Helvetica,sans-Serif" font-size="10.00">+ ~ChangeBits()</text>
<text text-anchor="start" x="48.5" y="-40" font-family="Helvetica,sans-Serif" font-size="10.00">+ game_paquet()</text>
<text text-anchor="start" x="48.5" y="-29" font-family="Helvetica,sans-Serif" font-size="10.00">+ mob_paquet()</text>
<text text-anchor="start" x="48.5" y="-18" font-family="Helvetica,sans-Serif" font-size="10.00">+ player_paquet()</text>
<text text-anchor="middle" x="86" y="-7" font-family="Helvetica,sans-Serif" font-size="10.00">}</text>
</a>
</g>
</g>
<!-- Node2 -->
<g id="node2" class="node">
<title>Node2</title>
<g id="a_node2"><a xlink:title=" ">
<polygon fill="white" stroke="#666666" points="79,-195 17,-195 17,-165 79,-165 79,-195"/>
<text text-anchor="middle" x="48" y="-183" font-family="Helvetica,sans-Serif" font-size="10.00">{std::string</text>
<text text-anchor="middle" x="48" y="-172" font-family="Helvetica,sans-Serif" font-size="10.00">||}</text>
</a>
</g>
</g>
<!-- Node2&#45;&gt;Node1 -->
<g id="edge1" class="edge">
<title>Node2&#45;&gt;Node1</title>
<path fill="none" stroke="#404040" d="M45.94,-164.66C44.22,-149.12 42.92,-123.77 49,-103 49.57,-101.05 50.23,-99.09 50.95,-97.15"/>
<polygon fill="none" stroke="#404040" points="50.93,-97.19 49.71,-90.08 55.81,-86.23 57.03,-93.33 50.93,-97.19"/>
<text text-anchor="middle" x="76" y="-122.5" font-family="Helvetica,sans-Serif" font-size="10.00"> +move_bits</text>
</g>
<!-- Node3 -->
<g id="node3" class="node">
<title>Node3</title>
<g id="a_node3"><a xlink:title=" ">
<polygon fill="white" stroke="#666666" points="96,-273 0,-273 0,-232 96,-232 96,-273"/>
<text text-anchor="start" x="8" y="-261" font-family="Helvetica,sans-Serif" font-size="10.00">{std::basic_string&lt;</text>
<text text-anchor="middle" x="48" y="-250" font-family="Helvetica,sans-Serif" font-size="10.00"> Char &gt;</text>
<text text-anchor="middle" x="48" y="-239" font-family="Helvetica,sans-Serif" font-size="10.00">||}</text>
</a>
</g>
</g>
<!-- Node3&#45;&gt;Node2 -->
<g id="edge2" class="edge">
<title>Node3&#45;&gt;Node2</title>
<path fill="none" stroke="#63b8ff" d="M48,-220.39C48,-211.68 48,-202.62 48,-195.39"/>
<polygon fill="none" stroke="#63b8ff" points="44.5,-220.35 48,-230.35 51.5,-220.35 44.5,-220.35"/>
</g>
<!-- Node4 -->
<g id="node4" class="node">
<title>Node4</title>
<g id="a_node4"><a xlink:title=" ">
<polygon fill="white" stroke="#666666" points="140,-195 110,-195 110,-165 140,-165 140,-195"/>
<text text-anchor="middle" x="125" y="-183" font-family="Helvetica,sans-Serif" font-size="10.00">{int</text>
<text text-anchor="middle" x="125" y="-172" font-family="Helvetica,sans-Serif" font-size="10.00">||}</text>
</a>
</g>
</g>
<!-- Node4&#45;&gt;Node1 -->
<g id="edge3" class="edge">
<title>Node4&#45;&gt;Node1</title>
<path fill="none" stroke="#404040" d="M120.9,-164.76C116.32,-148.84 108.63,-122.12 101.63,-97.81"/>
<polygon fill="none" stroke="#404040" points="101.62,-97.78 96.12,-93.12 98.3,-86.25 103.81,-90.91 101.62,-97.78"/>
<text text-anchor="middle" x="137.5" y="-139" font-family="Helvetica,sans-Serif" font-size="10.00"> +idenemy</text>
<text text-anchor="middle" x="137.5" y="-128" font-family="Helvetica,sans-Serif" font-size="10.00">+paquet</text>
<text text-anchor="middle" x="137.5" y="-117" font-family="Helvetica,sans-Serif" font-size="10.00">+paquet2</text>
<text text-anchor="middle" x="137.5" y="-106" font-family="Helvetica,sans-Serif" font-size="10.00">+paquet3</text>
</g>
</g>
</svg>
