<?xml version="1.0" encoding="UTF-8" standalone="no"?>
<!DOCTYPE svg PUBLIC "-//W3C//DTD SVG 1.1//EN"
 "http://www.w3.org/Graphics/SVG/1.1/DTD/svg11.dtd">
<!-- Generated by graphviz version 7.0.5 (20221223.1930)
 -->
<!-- Title: rtype::game::SGamePlay Pages: 1 -->
<!--zoomable 963 -->
<svg id="main" version="1.1" xmlns="http://www.w3.org/2000/svg" xmlns:xlink="http://www.w3.org/1999/xlink" xml:space="preserve" onload="init(evt)">
<style type="text/css"><![CDATA[
.edge:hover path { stroke: red; }
.edge:hover polygon { stroke: red; fill: red; }
]]></style>
<script type="text/javascript"><![CDATA[
var edges = document.getElementsByTagName('g');
if (edges && edges.length) {
  for (var i=0;i<edges.length;i++) {
    if (edges[i].id.substr(0,4)=='edge') {
      edges[i].setAttribute('class','edge');
    }
  }
}
]]></script>
        <defs>
                <circle id="rim" cx="0" cy="0" r="7"/>
                <circle id="rim2" cx="0" cy="0" r="3.5"/>
                <g id="zoomPlus">
                        <use xlink:href="#rim" fill="#404040">
                                <set attributeName="fill" to="#808080" begin="zoomplus.mouseover" end="zoomplus.mouseout"/>
                        </use>
                        <path d="M-4,0h8M0,-4v8" fill="none" stroke="white" stroke-width="1.5" pointer-events="none"/>
                </g>
                <g id="zoomMin">
                        <use xlink:href="#rim" fill="#404040">
                                <set attributeName="fill" to="#808080" begin="zoomminus.mouseover" end="zoomminus.mouseout"/>
                        </use>
                        <path d="M-4,0h8" fill="none" stroke="white" stroke-width="1.5" pointer-events="none"/>
                </g>
                <g id="dirArrow">
                        <path fill="none" stroke="white" stroke-width="1.5" d="M0,-3.0v7 M-2.5,-0.5L0,-3.0L2.5,-0.5"/>
                </g>
               <g id="resetDef">
                       <use xlink:href="#rim2" fill="#404040">
                               <set attributeName="fill" to="#808080" begin="reset.mouseover" end="reset.mouseout"/>
                       </use>
               </g>
        </defs>

<script type="text/javascript">
var viewWidth = 1215;
var viewHeight = 963;
var sectionId = 'dynsection-1';
</script>
<script xlink:href="svgpan.js"/>
<svg id="graph" class="graph">
<g id="viewport">
<title>rtype::game::SGamePlay</title>
<!-- Node1 -->
<g id="node1" class="node">
<title>Node1</title>
<g id="a_node1"><a xlink:title=" ">
<polygon fill="#999999" stroke="#666666" points="743.5,-184 618.5,-184 618.5,0 743.5,0 743.5,-184"/>
<text text-anchor="middle" x="681" y="-172" font-family="Helvetica,sans-Serif" font-size="10.00">{rtype::game::SGamePlay</text>
<text text-anchor="start" x="626.5" y="-161" font-family="Helvetica,sans-Serif" font-size="10.00">||+ SGamePlay()</text>
<text text-anchor="start" x="626.5" y="-150" font-family="Helvetica,sans-Serif" font-size="10.00">+ ~SGamePlay()</text>
<text text-anchor="start" x="626.5" y="-139" font-family="Helvetica,sans-Serif" font-size="10.00">+ clear()</text>
<text text-anchor="start" x="626.5" y="-128" font-family="Helvetica,sans-Serif" font-size="10.00">+ draw()</text>
<text text-anchor="start" x="626.5" y="-117" font-family="Helvetica,sans-Serif" font-size="10.00">+ getLocalPlayerID()</text>
<text text-anchor="start" x="626.5" y="-106" font-family="Helvetica,sans-Serif" font-size="10.00">+ handleEvent()</text>
<text text-anchor="start" x="626.5" y="-95" font-family="Helvetica,sans-Serif" font-size="10.00">+ init()</text>
<text text-anchor="start" x="626.5" y="-84" font-family="Helvetica,sans-Serif" font-size="10.00">+ init()</text>
<text text-anchor="start" x="626.5" y="-73" font-family="Helvetica,sans-Serif" font-size="10.00">+ init_base()</text>
<text text-anchor="start" x="626.5" y="-62" font-family="Helvetica,sans-Serif" font-size="10.00">+ pause()</text>
<text text-anchor="start" x="626.5" y="-51" font-family="Helvetica,sans-Serif" font-size="10.00">+ playerEvent()</text>
<text text-anchor="start" x="626.5" y="-40" font-family="Helvetica,sans-Serif" font-size="10.00">+ resume()</text>
<text text-anchor="start" x="626.5" y="-29" font-family="Helvetica,sans-Serif" font-size="10.00">+ serverEvents()</text>
<text text-anchor="start" x="626.5" y="-18" font-family="Helvetica,sans-Serif" font-size="10.00">+ update()</text>
<text text-anchor="middle" x="681" y="-7" font-family="Helvetica,sans-Serif" font-size="10.00">}</text>
</a>
</g>
</g>
<!-- Node2 -->
<g id="node2" class="node">
<title>Node2</title>
<g id="a_node2"><a xlink:href="classrtype_1_1GameState.html" target="_top" xlink:title=" ">
<polygon fill="white" stroke="#666666" points="748.5,-350 653.5,-350 653.5,-221 748.5,-221 748.5,-350"/>
<text text-anchor="middle" x="701" y="-338" font-family="Helvetica,sans-Serif" font-size="10.00">{rtype::GameState</text>
<text text-anchor="start" x="661.5" y="-327" font-family="Helvetica,sans-Serif" font-size="10.00">||+ GameState()</text>
<text text-anchor="start" x="661.5" y="-316" font-family="Helvetica,sans-Serif" font-size="10.00">+ ~GameState()</text>
<text text-anchor="start" x="661.5" y="-305" font-family="Helvetica,sans-Serif" font-size="10.00">+ clear()</text>
<text text-anchor="start" x="661.5" y="-294" font-family="Helvetica,sans-Serif" font-size="10.00">+ draw()</text>
<text text-anchor="start" x="661.5" y="-283" font-family="Helvetica,sans-Serif" font-size="10.00">+ handleEvent()</text>
<text text-anchor="start" x="661.5" y="-272" font-family="Helvetica,sans-Serif" font-size="10.00">+ init()</text>
<text text-anchor="start" x="661.5" y="-261" font-family="Helvetica,sans-Serif" font-size="10.00">+ pause()</text>
<text text-anchor="start" x="661.5" y="-250" font-family="Helvetica,sans-Serif" font-size="10.00">+ resume()</text>
<text text-anchor="start" x="661.5" y="-239" font-family="Helvetica,sans-Serif" font-size="10.00">+ update()</text>
<text text-anchor="middle" x="701" y="-228" font-family="Helvetica,sans-Serif" font-size="10.00">}</text>
</a>
</g>
</g>
<!-- Node2&#45;&gt;Node1 -->
<g id="edge1" class="edge">
<title>Node2&#45;&gt;Node1</title>
<path fill="none" stroke="#63b8ff" d="M693.15,-209.35C692.3,-201.19 691.42,-192.81 690.55,-184.48"/>
<polygon fill="none" stroke="#63b8ff" points="689.66,-209.65 694.18,-219.23 696.63,-208.92 689.66,-209.65"/>
</g>
<!-- Node3 -->
<g id="node3" class="node">
<title>Node3</title>
<g id="a_node3"><a xlink:href="classrtype_1_1IGameState.html" target="_top" xlink:title=" ">
<polygon fill="white" stroke="#666666" points="759,-515 661,-515 661,-408 759,-408 759,-515"/>
<text text-anchor="middle" x="710" y="-503" font-family="Helvetica,sans-Serif" font-size="10.00">{rtype::IGameState</text>
<text text-anchor="start" x="669" y="-492" font-family="Helvetica,sans-Serif" font-size="10.00">||+ clear()</text>
<text text-anchor="start" x="669" y="-481" font-family="Helvetica,sans-Serif" font-size="10.00">+ draw()</text>
<text text-anchor="start" x="669" y="-470" font-family="Helvetica,sans-Serif" font-size="10.00">+ handleEvent()</text>
<text text-anchor="start" x="669" y="-459" font-family="Helvetica,sans-Serif" font-size="10.00">+ init()</text>
<text text-anchor="start" x="669" y="-448" font-family="Helvetica,sans-Serif" font-size="10.00">+ pause()</text>
<text text-anchor="start" x="669" y="-437" font-family="Helvetica,sans-Serif" font-size="10.00">+ resume()</text>
<text text-anchor="start" x="669" y="-426" font-family="Helvetica,sans-Serif" font-size="10.00">+ update()</text>
<text text-anchor="middle" x="710" y="-415" font-family="Helvetica,sans-Serif" font-size="10.00">}</text>
</a>
</g>
</g>
<!-- Node3&#45;&gt;Node2 -->
<g id="edge2" class="edge">
<title>Node3&#45;&gt;Node2</title>
<path fill="none" stroke="#63b8ff" d="M706.69,-396.53C705.91,-381.47 705.08,-365.41 704.3,-350.36"/>
<polygon fill="none" stroke="#63b8ff" points="703.19,-396.5 707.2,-406.31 710.18,-396.14 703.19,-396.5"/>
</g>
<!-- Node4 -->
<g id="node4" class="node">
<title>Node4</title>
<g id="a_node4"><a xlink:href="classrtype_1_1entities_1_1EntitiesManager.html" target="_top" xlink:title=" ">
<polygon fill="white" stroke="#666666" points="780.5,-702 667.5,-702 667.5,-562 780.5,-562 780.5,-702"/>
<text text-anchor="start" x="675.5" y="-690" font-family="Helvetica,sans-Serif" font-size="10.00">{rtype::entities::Entities</text>
<text text-anchor="middle" x="724" y="-679" font-family="Helvetica,sans-Serif" font-size="10.00">Manager</text>
<text text-anchor="start" x="675.5" y="-668" font-family="Helvetica,sans-Serif" font-size="10.00">||+ EntitiesManager()</text>
<text text-anchor="start" x="675.5" y="-657" font-family="Helvetica,sans-Serif" font-size="10.00">+ ~EntitiesManager()</text>
<text text-anchor="start" x="675.5" y="-646" font-family="Helvetica,sans-Serif" font-size="10.00">+ CreateEntitie()</text>
<text text-anchor="start" x="675.5" y="-635" font-family="Helvetica,sans-Serif" font-size="10.00">+ getEntitiesList()</text>
<text text-anchor="start" x="675.5" y="-624" font-family="Helvetica,sans-Serif" font-size="10.00">+ getIDs()</text>
<text text-anchor="start" x="675.5" y="-613" font-family="Helvetica,sans-Serif" font-size="10.00">+ getPId()</text>
<text text-anchor="start" x="675.5" y="-602" font-family="Helvetica,sans-Serif" font-size="10.00">+ getSprite()</text>
<text text-anchor="start" x="675.5" y="-591" font-family="Helvetica,sans-Serif" font-size="10.00">+ NewEntity()</text>
<text text-anchor="start" x="675.5" y="-580" font-family="Helvetica,sans-Serif" font-size="10.00">+ setPId()</text>
<text text-anchor="middle" x="724" y="-569" font-family="Helvetica,sans-Serif" font-size="10.00">}</text>
</a>
</g>
</g>
<!-- Node4&#45;&gt;Node3 -->
<g id="edge3" class="edge">
<title>Node4&#45;&gt;Node3</title>
<path fill="none" stroke="#404040" d="M718.27,-561.98C717.34,-550.81 716.38,-539.27 715.46,-528.18"/>
<polygon fill="none" stroke="#404040" points="715.47,-528.28 710.98,-522.63 714.47,-516.32 718.95,-521.97 715.47,-528.28"/>
<text text-anchor="middle" x="742" y="-536" font-family="Helvetica,sans-Serif" font-size="10.00"> #EManager</text>
</g>
<!-- Node5 -->
<g id="node5" class="node">
<title>Node5</title>
<g id="a_node5"><a xlink:title=" ">
<polygon fill="white" stroke="#666666" points="623,-878 579,-878 579,-848 623,-848 623,-878"/>
<text text-anchor="middle" x="601" y="-866" font-family="Helvetica,sans-Serif" font-size="10.00">{int8_t</text>
<text text-anchor="middle" x="601" y="-855" font-family="Helvetica,sans-Serif" font-size="10.00">||}</text>
</a>
</g>
</g>
<!-- Node5&#45;&gt;Node1 -->
<g id="edge15" class="edge">
<title>Node5&#45;&gt;Node1</title>
<path fill="none" stroke="#404040" d="M607.36,-847.78C613.86,-831.94 623,-805.41 623,-781.5 623,-781.5 623,-781.5 623,-284.5 623,-255.3 629.25,-224.63 637.65,-196.6"/>
<polygon fill="none" stroke="#404040" points="637.64,-196.65 635.62,-189.73 641.24,-185.2 643.25,-192.13 637.64,-196.65"/>
<text text-anchor="middle" x="633.5" y="-536" font-family="Helvetica,sans-Serif" font-size="10.00"> &#45;pID</text>
</g>
<!-- Node5&#45;&gt;Node4 -->
<g id="edge4" class="edge">
<title>Node5&#45;&gt;Node4</title>
<path fill="none" stroke="#404040" d="M623.48,-855.82C648.98,-847.6 689.86,-830.57 712,-801 730.09,-776.84 735.54,-744.84 735.61,-715.27"/>
<polygon fill="none" stroke="#404040" points="735.6,-715.22 731.47,-709.32 735.33,-703.23 739.46,-709.13 735.6,-715.22"/>
<text text-anchor="middle" x="739.5" y="-778" font-family="Helvetica,sans-Serif" font-size="10.00"> &#45;pId</text>
</g>
<!-- Node11 -->
<g id="node11" class="node">
<title>Node11</title>
<g id="a_node11"><a xlink:title=" ">
<polygon fill="white" stroke="#666666" points="516.5,-795.5 425.5,-795.5 425.5,-765.5 516.5,-765.5 516.5,-795.5"/>
<text text-anchor="middle" x="471" y="-783.5" font-family="Helvetica,sans-Serif" font-size="10.00">{std::list&lt; int8_t &gt;</text>
<text text-anchor="middle" x="471" y="-772.5" font-family="Helvetica,sans-Serif" font-size="10.00">||}</text>
</a>
</g>
</g>
<!-- Node5&#45;&gt;Node11 -->
<g id="edge11" class="edge">
<title>Node5&#45;&gt;Node11</title>
<path fill="none" stroke="#404040" d="M578.72,-856.67C560.76,-851.67 535.37,-843.01 516,-830 506.24,-823.44 497.09,-814.37 489.62,-805.85"/>
<polygon fill="none" stroke="#404040" points="489.64,-805.87 482.73,-803.8 481.99,-796.63 488.9,-798.7 489.64,-805.87"/>
<text text-anchor="middle" x="540.5" y="-822" font-family="Helvetica,sans-Serif" font-size="10.00"> +elements</text>
</g>
<!-- Node17 -->
<g id="node17" class="node">
<title>Node17</title>
<g id="a_node17"><a xlink:href="classrtype_1_1components_1_1Bullets.html" target="_top" xlink:title=" ">
<polygon fill="white" stroke="#666666" points="293,-702 183,-702 183,-562 293,-562 293,-702"/>
<text text-anchor="start" x="191" y="-690" font-family="Helvetica,sans-Serif" font-size="10.00">{rtype::components::</text>
<text text-anchor="middle" x="238" y="-679" font-family="Helvetica,sans-Serif" font-size="10.00">Bullets</text>
<text text-anchor="start" x="191" y="-668" font-family="Helvetica,sans-Serif" font-size="10.00">||+ Bullets()</text>
<text text-anchor="start" x="191" y="-657" font-family="Helvetica,sans-Serif" font-size="10.00">+ ~Bullets()</text>
<text text-anchor="start" x="191" y="-646" font-family="Helvetica,sans-Serif" font-size="10.00">+ collided()</text>
<text text-anchor="start" x="191" y="-635" font-family="Helvetica,sans-Serif" font-size="10.00">+ CreateBullet()</text>
<text text-anchor="start" x="191" y="-624" font-family="Helvetica,sans-Serif" font-size="10.00">+ drawBullets()</text>
<text text-anchor="start" x="191" y="-613" font-family="Helvetica,sans-Serif" font-size="10.00">+ getBulletList()</text>
<text text-anchor="start" x="191" y="-602" font-family="Helvetica,sans-Serif" font-size="10.00">+ ServerShootBullet()</text>
<text text-anchor="start" x="191" y="-591" font-family="Helvetica,sans-Serif" font-size="10.00">+ ShootBullet()</text>
<text text-anchor="start" x="191" y="-580" font-family="Helvetica,sans-Serif" font-size="10.00">+ update()</text>
<text text-anchor="middle" x="238" y="-569" font-family="Helvetica,sans-Serif" font-size="10.00">}</text>
</a>
</g>
</g>
<!-- Node5&#45;&gt;Node17 -->
<g id="edge23" class="edge">
<title>Node5&#45;&gt;Node17</title>
<path fill="none" stroke="#404040" d="M592.16,-847.82C584.82,-835.69 574.43,-817.6 567,-801 551.45,-766.23 566.62,-746.23 539,-720 475.77,-659.94 373.7,-640.99 306.22,-635.21"/>
<polygon fill="none" stroke="#404040" points="306.07,-635.2 299.79,-638.73 294.11,-634.29 300.39,-630.75 306.07,-635.2"/>
<text text-anchor="middle" x="588" y="-778" font-family="Helvetica,sans-Serif" font-size="10.00"> &#45;ownerID</text>
</g>
<!-- Node6 -->
<g id="node6" class="node">
<title>Node6</title>
<g id="a_node6"><a xlink:title=" ">
<polygon fill="white" stroke="#666666" points="988,-801 880,-801 880,-760 988,-760 988,-801"/>
<text text-anchor="start" x="888" y="-789" font-family="Helvetica,sans-Serif" font-size="10.00">{std::array&lt; sf::Sprite,</text>
<text text-anchor="middle" x="934" y="-778" font-family="Helvetica,sans-Serif" font-size="10.00"> 100 &gt;</text>
<text text-anchor="middle" x="934" y="-767" font-family="Helvetica,sans-Serif" font-size="10.00">||}</text>
</a>
</g>
</g>
<!-- Node6&#45;&gt;Node4 -->
<g id="edge5" class="edge">
<title>Node6&#45;&gt;Node4</title>
<path fill="none" stroke="#404040" d="M905.68,-759.74C876.51,-739.4 829.99,-706.94 791.33,-679.97"/>
<polygon fill="none" stroke="#404040" points="791.23,-679.9 784.03,-679.75 781.39,-673.04 788.6,-673.19 791.23,-679.9"/>
<text text-anchor="middle" x="895.5" y="-728.5" font-family="Helvetica,sans-Serif" font-size="10.00"> &#45;entities</text>
</g>
<!-- Node7 -->
<g id="node7" class="node">
<title>Node7</title>
<g id="a_node7"><a xlink:title=" ">
<polygon fill="white" stroke="#666666" points="956.5,-878 911.5,-878 911.5,-848 956.5,-848 956.5,-878"/>
<text text-anchor="middle" x="934" y="-866" font-family="Helvetica,sans-Serif" font-size="10.00">{Sprite</text>
<text text-anchor="middle" x="934" y="-855" font-family="Helvetica,sans-Serif" font-size="10.00">||}</text>
</a>
</g>
</g>
<!-- Node7&#45;&gt;Node6 -->
<g id="edge6" class="edge">
<title>Node7&#45;&gt;Node6</title>
<path fill="none" stroke="#404040" d="M934,-847.61C934,-838.31 934,-825.82 934,-814.21"/>
<polygon fill="none" stroke="#404040" points="934,-814.11 930,-808.11 934,-802.11 938,-808.11 934,-814.11"/>
<text text-anchor="middle" x="958.5" y="-822" font-family="Helvetica,sans-Serif" font-size="10.00"> +elements</text>
</g>
<!-- Node8 -->
<g id="node8" class="node">
<title>Node8</title>
<g id="a_node8"><a xlink:title=" ">
<polygon fill="white" stroke="#666666" points="872.5,-878 791.5,-878 791.5,-848 872.5,-848 872.5,-878"/>
<text text-anchor="middle" x="832" y="-866" font-family="Helvetica,sans-Serif" font-size="10.00">{std::array&lt; T &gt;</text>
<text text-anchor="middle" x="832" y="-855" font-family="Helvetica,sans-Serif" font-size="10.00">||}</text>
</a>
</g>
</g>
<!-- Node8&#45;&gt;Node6 -->
<g id="edge7" class="edge">
<title>Node8&#45;&gt;Node6</title>
<path fill="none" stroke="orange" d="M839.36,-837.14C842.19,-830.64 845.99,-824.05 851,-819 859.13,-810.8 869.37,-804.23 879.86,-799.03"/>
<polygon fill="orange" stroke="orange" points="836.16,-835.69 835.98,-846.29 842.73,-838.12 836.16,-835.69"/>
<text text-anchor="middle" x="890.5" y="-822" font-family="Helvetica,sans-Serif" font-size="10.00"> &lt; sf::Sprite, 100 &gt;</text>
</g>
<!-- Node9 -->
<g id="node9" class="node">
<title>Node9</title>
<g id="a_node9"><a xlink:title=" ">
<polygon fill="white" stroke="#666666" points="846.5,-955 817.5,-955 817.5,-925 846.5,-925 846.5,-955"/>
<text text-anchor="middle" x="832" y="-943" font-family="Helvetica,sans-Serif" font-size="10.00">{T</text>
<text text-anchor="middle" x="832" y="-932" font-family="Helvetica,sans-Serif" font-size="10.00">||}</text>
</a>
</g>
</g>
<!-- Node9&#45;&gt;Node8 -->
<g id="edge8" class="edge">
<title>Node9&#45;&gt;Node8</title>
<path fill="none" stroke="#404040" d="M832,-924.54C832,-915.1 832,-902.47 832,-891.2"/>
<polygon fill="none" stroke="#404040" points="832,-891.32 828,-885.32 832,-879.32 836,-885.32 832,-891.32"/>
<text text-anchor="middle" x="856.5" y="-899" font-family="Helvetica,sans-Serif" font-size="10.00"> +elements</text>
</g>
<!-- Node12 -->
<g id="node12" class="node">
<title>Node12</title>
<g id="a_node12"><a xlink:title=" ">
<polygon fill="white" stroke="#666666" points="485.5,-878 412.5,-878 412.5,-848 485.5,-848 485.5,-878"/>
<text text-anchor="middle" x="449" y="-866" font-family="Helvetica,sans-Serif" font-size="10.00">{std::list&lt; T &gt;</text>
<text text-anchor="middle" x="449" y="-855" font-family="Helvetica,sans-Serif" font-size="10.00">||}</text>
</a>
</g>
</g>
<!-- Node9&#45;&gt;Node12 -->
<g id="edge13" class="edge">
<title>Node9&#45;&gt;Node12</title>
<path fill="none" stroke="#404040" d="M817.45,-936.15C765.34,-925.95 586.39,-890.9 498.5,-873.69"/>
<polygon fill="none" stroke="#404040" points="498.38,-873.67 491.72,-876.44 486.6,-871.36 493.26,-868.59 498.38,-873.67"/>
<text text-anchor="middle" x="687.5" y="-899" font-family="Helvetica,sans-Serif" font-size="10.00"> +elements</text>
</g>
<!-- Node16 -->
<g id="node16" class="node">
<title>Node16</title>
<g id="a_node16"><a xlink:title=" ">
<polygon fill="white" stroke="#666666" points="1144,-878 1058,-878 1058,-848 1144,-848 1144,-878"/>
<text text-anchor="middle" x="1101" y="-866" font-family="Helvetica,sans-Serif" font-size="10.00">{std::queue&lt; T &gt;</text>
<text text-anchor="middle" x="1101" y="-855" font-family="Helvetica,sans-Serif" font-size="10.00">||}</text>
</a>
</g>
</g>
<!-- Node9&#45;&gt;Node16 -->
<g id="edge19" class="edge">
<title>Node9&#45;&gt;Node16</title>
<path fill="none" stroke="#404040" d="M846.85,-934.86C883.94,-924.52 982.21,-897.12 1045.12,-879.58"/>
<polygon fill="none" stroke="#404040" points="1045.16,-879.57 1049.86,-874.11 1056.72,-876.35 1052.01,-881.81 1045.16,-879.57"/>
<text text-anchor="middle" x="1006.5" y="-899" font-family="Helvetica,sans-Serif" font-size="10.00"> +elements</text>
</g>
<!-- Node10 -->
<g id="node10" class="node">
<title>Node10</title>
<g id="a_node10"><a xlink:title=" ">
<polygon fill="white" stroke="#666666" points="703,-795.5 651,-795.5 651,-765.5 703,-765.5 703,-795.5"/>
<text text-anchor="middle" x="677" y="-783.5" font-family="Helvetica,sans-Serif" font-size="10.00">{Texture</text>
<text text-anchor="middle" x="677" y="-772.5" font-family="Helvetica,sans-Serif" font-size="10.00">||}</text>
</a>
</g>
</g>
<!-- Node10&#45;&gt;Node4 -->
<g id="edge9" class="edge">
<title>Node10&#45;&gt;Node4</title>
<path fill="none" stroke="#404040" d="M679.48,-765.15C681.73,-753 685.41,-735.18 690,-720 690.54,-718.21 691.11,-716.4 691.69,-714.57"/>
<polygon fill="none" stroke="#404040" points="691.65,-714.7 689.76,-707.74 695.45,-703.32 697.34,-710.28 691.65,-714.7"/>
<text text-anchor="middle" x="707.5" y="-728.5" font-family="Helvetica,sans-Serif" font-size="10.00"> &#45;texture</text>
</g>
<!-- Node11&#45;&gt;Node4 -->
<g id="edge10" class="edge">
<title>Node11&#45;&gt;Node4</title>
<path fill="none" stroke="#404040" d="M495.72,-765.19C532.52,-743.88 603.05,-703.04 656.02,-672.37"/>
<polygon fill="none" stroke="#404040" points="655.87,-672.45 659.06,-665.98 666.26,-666.44 663.07,-672.91 655.87,-672.45"/>
<text text-anchor="middle" x="577.5" y="-728.5" font-family="Helvetica,sans-Serif" font-size="10.00"> &#45;IDs</text>
</g>
<!-- Node12&#45;&gt;Node11 -->
<g id="edge12" class="edge">
<title>Node12&#45;&gt;Node11</title>
<path fill="none" stroke="orange" d="M447.56,-836.51C447.79,-830.68 448.48,-824.56 450,-819 452.24,-810.79 456.65,-802.46 460.85,-795.74"/>
<polygon fill="orange" stroke="orange" points="444.06,-836.32 447.62,-846.3 451.06,-836.27 444.06,-836.32"/>
<text text-anchor="middle" x="471.5" y="-822" font-family="Helvetica,sans-Serif" font-size="10.00"> &lt; int8_t &gt;</text>
</g>
<!-- Node20 -->
<g id="node20" class="node">
<title>Node20</title>
<g id="a_node20"><a xlink:title=" ">
<polygon fill="white" stroke="#666666" points="407,-795.5 275,-795.5 275,-765.5 407,-765.5 407,-795.5"/>
<text text-anchor="middle" x="341" y="-783.5" font-family="Helvetica,sans-Serif" font-size="10.00">{std::list&lt; sf::CircleShape &gt;</text>
<text text-anchor="middle" x="341" y="-772.5" font-family="Helvetica,sans-Serif" font-size="10.00">||}</text>
</a>
</g>
</g>
<!-- Node12&#45;&gt;Node20 -->
<g id="edge26" class="edge">
<title>Node12&#45;&gt;Node20</title>
<path fill="none" stroke="orange" d="M401.4,-853.43C386.27,-848.68 370.5,-841.34 359,-830 349.66,-820.79 345.12,-806.31 342.94,-795.57"/>
<polygon fill="orange" stroke="orange" points="400.2,-856.73 410.77,-856.04 402.08,-849.98 400.2,-856.73"/>
<text text-anchor="middle" x="401.5" y="-822" font-family="Helvetica,sans-Serif" font-size="10.00"> &lt; sf::CircleShape &gt;</text>
</g>
<!-- Node13 -->
<g id="node13" class="node">
<title>Node13</title>
<g id="a_node13"><a xlink:title=" ">
<polygon fill="white" stroke="#666666" points="861.5,-795.5 776.5,-795.5 776.5,-765.5 861.5,-765.5 861.5,-795.5"/>
<text text-anchor="middle" x="819" y="-783.5" font-family="Helvetica,sans-Serif" font-size="10.00">{RenderWindow</text>
<text text-anchor="middle" x="819" y="-772.5" font-family="Helvetica,sans-Serif" font-size="10.00">||}</text>
</a>
</g>
</g>
<!-- Node13&#45;&gt;Node4 -->
<g id="edge14" class="edge">
<title>Node13&#45;&gt;Node4</title>
<path fill="none" stroke="#404040" d="M809.72,-765.19C801.57,-752.61 789,-733.24 775.99,-713.17"/>
<polygon fill="none" stroke="#404040" points="775.97,-713.14 769.35,-710.28 769.44,-703.07 776.06,-705.93 775.97,-713.14"/>
<text text-anchor="middle" x="812.5" y="-728.5" font-family="Helvetica,sans-Serif" font-size="10.00"> &#45;window</text>
</g>
<!-- Node14 -->
<g id="node14" class="node">
<title>Node14</title>
<g id="a_node14"><a xlink:title=" ">
<polygon fill="white" stroke="#666666" points="1110,-801 1006,-801 1006,-760 1110,-760 1110,-801"/>
<text text-anchor="start" x="1014" y="-789" font-family="Helvetica,sans-Serif" font-size="10.00">{std::queue&lt; rtype::</text>
<text text-anchor="middle" x="1058" y="-778" font-family="Helvetica,sans-Serif" font-size="10.00">engine::EventType &gt;</text>
<text text-anchor="middle" x="1058" y="-767" font-family="Helvetica,sans-Serif" font-size="10.00">||}</text>
</a>
</g>
</g>
<!-- Node14&#45;&gt;Node1 -->
<g id="edge16" class="edge">
<title>Node14&#45;&gt;Node1</title>
<path fill="none" stroke="#404040" d="M1046.65,-759.85C1031.9,-732.39 1008,-680.57 1008,-633 1008,-633 1008,-633 1008,-284.5 1008,-168.49 852.86,-121.44 756.29,-103.39"/>
<polygon fill="none" stroke="#404040" points="756.36,-103.4 749.75,-106.28 744.55,-101.29 751.16,-98.41 756.36,-103.4"/>
<text text-anchor="middle" x="1038.5" y="-459" font-family="Helvetica,sans-Serif" font-size="10.00"> &#45;event_queue</text>
</g>
<!-- Node15 -->
<g id="node15" class="node">
<title>Node15</title>
<g id="a_node15"><a xlink:title=" ">
<polygon fill="white" stroke="#666666" points="1039.5,-878 974.5,-878 974.5,-848 1039.5,-848 1039.5,-878"/>
<text text-anchor="middle" x="1007" y="-866" font-family="Helvetica,sans-Serif" font-size="10.00">{EventType</text>
<text text-anchor="middle" x="1007" y="-855" font-family="Helvetica,sans-Serif" font-size="10.00">||}</text>
</a>
</g>
</g>
<!-- Node15&#45;&gt;Node14 -->
<g id="edge17" class="edge">
<title>Node15&#45;&gt;Node14</title>
<path fill="none" stroke="#404040" d="M1011.59,-847.88C1014.73,-839.21 1019.33,-828.06 1025,-819 1026.63,-816.39 1028.44,-813.79 1030.35,-811.24"/>
<polygon fill="none" stroke="#404040" points="1030.41,-811.17 1031.1,-804 1037.99,-801.87 1037.3,-809.05 1030.41,-811.17"/>
<text text-anchor="middle" x="1049.5" y="-822" font-family="Helvetica,sans-Serif" font-size="10.00"> +elements</text>
</g>
<!-- Node16&#45;&gt;Node14 -->
<g id="edge18" class="edge">
<title>Node16&#45;&gt;Node14</title>
<path fill="none" stroke="orange" d="M1087.99,-837.64C1081.76,-825.98 1074.4,-812.2 1068.53,-801.21"/>
<polygon fill="orange" stroke="orange" points="1084.8,-839.1 1092.6,-846.27 1090.97,-835.8 1084.8,-839.1"/>
<text text-anchor="middle" x="1145" y="-822" font-family="Helvetica,sans-Serif" font-size="10.00"> &lt; rtype::engine::EventType &gt;</text>
</g>
<!-- Node17&#45;&gt;Node1 -->
<g id="edge20" class="edge">
<title>Node17&#45;&gt;Node1</title>
<path fill="none" stroke="#404040" d="M293.43,-563.68C373.58,-466.34 521.85,-286.28 609.93,-179.3"/>
<polygon fill="none" stroke="#404040" points="609.8,-179.46 610.53,-172.29 617.43,-170.2 616.71,-177.37 609.8,-179.46"/>
<text text-anchor="middle" x="492" y="-382" font-family="Helvetica,sans-Serif" font-size="10.00"> &#45;playerProjectile</text>
<text text-anchor="middle" x="492" y="-371" font-family="Helvetica,sans-Serif" font-size="10.00">&#45;serverProjectiles</text>
</g>
<!-- Node18 -->
<g id="node18" class="node">
<title>Node18</title>
<g id="a_node18"><a xlink:title=" ">
<polygon fill="white" stroke="#666666" points="44,-795.5 0,-795.5 0,-765.5 44,-765.5 44,-795.5"/>
<text text-anchor="middle" x="22" y="-783.5" font-family="Helvetica,sans-Serif" font-size="10.00">{Clock</text>
<text text-anchor="middle" x="22" y="-772.5" font-family="Helvetica,sans-Serif" font-size="10.00">||}</text>
</a>
</g>
</g>
<!-- Node18&#45;&gt;Node17 -->
<g id="edge21" class="edge">
<title>Node18&#45;&gt;Node17</title>
<path fill="none" stroke="#404040" d="M28.07,-765.17C34.25,-752.02 44.9,-732.7 59,-720 91.17,-691.01 134.75,-669.55 170.85,-655.2"/>
<polygon fill="none" stroke="#404040" points="170.74,-655.24 174.9,-649.35 181.93,-650.93 177.77,-656.82 170.74,-655.24"/>
<text text-anchor="middle" x="82" y="-728.5" font-family="Helvetica,sans-Serif" font-size="10.00"> &#45;selfClock</text>
</g>
<!-- Node19 -->
<g id="node19" class="node">
<title>Node19</title>
<g id="a_node19"><a xlink:title=" ">
<polygon fill="white" stroke="#666666" points="107.5,-795.5 66.5,-795.5 66.5,-765.5 107.5,-765.5 107.5,-795.5"/>
<text text-anchor="middle" x="87" y="-783.5" font-family="Helvetica,sans-Serif" font-size="10.00">{Time</text>
<text text-anchor="middle" x="87" y="-772.5" font-family="Helvetica,sans-Serif" font-size="10.00">||}</text>
</a>
</g>
</g>
<!-- Node19&#45;&gt;Node17 -->
<g id="edge22" class="edge">
<title>Node19&#45;&gt;Node17</title>
<path fill="none" stroke="#404040" d="M94.22,-765.32C101.09,-752.62 112.25,-733.92 125,-720 139.06,-704.65 156.06,-690 172.57,-677.25"/>
<polygon fill="none" stroke="#404040" points="172.45,-677.34 174.83,-670.53 182.03,-670.11 179.65,-676.92 172.45,-677.34"/>
<text text-anchor="middle" x="141.5" y="-728.5" font-family="Helvetica,sans-Serif" font-size="10.00"> &#45;mtime</text>
</g>
<!-- Node20&#45;&gt;Node17 -->
<g id="edge24" class="edge">
<title>Node20&#45;&gt;Node17</title>
<path fill="none" stroke="#404040" d="M337.4,-765.08C333.89,-752.56 327.78,-734.25 319,-720 313.96,-711.81 308.07,-703.73 301.81,-695.97"/>
<polygon fill="none" stroke="#404040" points="301.71,-695.86 294.79,-693.85 293.99,-686.68 300.91,-688.69 301.71,-695.86"/>
<text text-anchor="middle" x="356" y="-728.5" font-family="Helvetica,sans-Serif" font-size="10.00"> &#45;bullets_list</text>
</g>
<!-- Node21 -->
<g id="node21" class="node">
<title>Node21</title>
<g id="a_node21"><a xlink:title=" ">
<polygon fill="white" stroke="#666666" points="305,-878 233,-878 233,-848 305,-848 305,-878"/>
<text text-anchor="middle" x="269" y="-866" font-family="Helvetica,sans-Serif" font-size="10.00">{CircleShape</text>
<text text-anchor="middle" x="269" y="-855" font-family="Helvetica,sans-Serif" font-size="10.00">||}</text>
</a>
</g>
</g>
<!-- Node21&#45;&gt;Node20 -->
<g id="edge25" class="edge">
<title>Node21&#45;&gt;Node20</title>
<path fill="none" stroke="#404040" d="M265.88,-847.81C264.71,-838.89 264.74,-827.51 270,-819 273.99,-812.54 279.5,-807.14 285.7,-802.63"/>
<polygon fill="none" stroke="#404040" points="285.66,-802.65 288.66,-796.09 295.86,-796.33 292.87,-802.89 285.66,-802.65"/>
<text text-anchor="middle" x="294.5" y="-822" font-family="Helvetica,sans-Serif" font-size="10.00"> +elements</text>
</g>
<!-- Node22 -->
<g id="node22" class="node">
<title>Node22</title>
<g id="a_node22"><a xlink:title=" ">
<polygon fill="white" stroke="#666666" points="182,-795.5 126,-795.5 126,-765.5 182,-765.5 182,-795.5"/>
<text text-anchor="middle" x="154" y="-783.5" font-family="Helvetica,sans-Serif" font-size="10.00">{Vector2f</text>
<text text-anchor="middle" x="154" y="-772.5" font-family="Helvetica,sans-Serif" font-size="10.00">||}</text>
</a>
</g>
</g>
<!-- Node22&#45;&gt;Node17 -->
<g id="edge27" class="edge">
<title>Node22&#45;&gt;Node17</title>
<path fill="none" stroke="#404040" d="M155.87,-765.21C157.89,-752.77 161.83,-734.52 169,-720 171.09,-715.78 173.4,-711.57 175.89,-707.4"/>
<polygon fill="none" stroke="#404040" points="175.88,-707.41 175.73,-700.2 182.33,-697.29 182.48,-704.5 175.88,-707.41"/>
<text text-anchor="middle" x="201.5" y="-734" font-family="Helvetica,sans-Serif" font-size="10.00"> &#45;bullet_pos</text>
<text text-anchor="middle" x="201.5" y="-723" font-family="Helvetica,sans-Serif" font-size="10.00">&#45;bullet_velocity</text>
</g>
<!-- Node23 -->
<g id="node23" class="node">
<title>Node23</title>
<g id="a_node23"><a xlink:title=" ">
<polygon fill="white" stroke="#666666" points="257,-795.5 219,-795.5 219,-765.5 257,-765.5 257,-795.5"/>
<text text-anchor="middle" x="238" y="-783.5" font-family="Helvetica,sans-Serif" font-size="10.00">{float</text>
<text text-anchor="middle" x="238" y="-772.5" font-family="Helvetica,sans-Serif" font-size="10.00">||}</text>
</a>
</g>
</g>
<!-- Node23&#45;&gt;Node17 -->
<g id="edge28" class="edge">
<title>Node23&#45;&gt;Node17</title>
<path fill="none" stroke="#404040" d="M238,-765.19C238,-753.02 238,-734.48 238,-715.11"/>
<polygon fill="none" stroke="#404040" points="238,-715.22 234,-709.22 238,-703.22 242,-709.22 238,-715.22"/>
<text text-anchor="middle" x="278" y="-728.5" font-family="Helvetica,sans-Serif" font-size="10.00"> &#45;bullet_maxSpeed</text>
</g>
</g>
</svg>
        <g id="navigator" transform="translate(0 0)" fill="#404254">
                <rect fill="#f2f5e9" fill-opacity="0.5" stroke="#606060" stroke-width=".5" x="0" y="0" width="60" height="60"/>
                <use id="zoomplus" xlink:href="#zoomPlus" x="17" y="9" onmousedown="handleZoom(evt,'in')"/>
                <use id="zoomminus" xlink:href="#zoomMin" x="42" y="9" onmousedown="handleZoom(evt,'out')"/>
                <use id="reset" xlink:href="#resetDef" x="30" y="36" onmousedown="handleReset()"/>
                <g id="arrowUp" xlink:href="#dirArrow" transform="translate(30 24)" onmousedown="handlePan(0,-1)">
                  <use xlink:href="#rim" fill="#404040">
                        <set attributeName="fill" to="#808080" begin="arrowUp.mouseover" end="arrowUp.mouseout"/>
                  </use>
                  <path fill="none" stroke="white" stroke-width="1.5" d="M0,-3.0v7 M-2.5,-0.5L0,-3.0L2.5,-0.5"/>
                </g>
                <g id="arrowRight" xlink:href="#dirArrow" transform="rotate(90) translate(36 -43)" onmousedown="handlePan(1,0)">
                  <use xlink:href="#rim" fill="#404040">
                        <set attributeName="fill" to="#808080" begin="arrowRight.mouseover" end="arrowRight.mouseout"/>
                  </use>
                  <path fill="none" stroke="white" stroke-width="1.5" d="M0,-3.0v7 M-2.5,-0.5L0,-3.0L2.5,-0.5"/>
                </g>
                <g id="arrowDown" xlink:href="#dirArrow" transform="rotate(180) translate(-30 -48)" onmousedown="handlePan(0,1)">
                  <use xlink:href="#rim" fill="#404040">
                        <set attributeName="fill" to="#808080" begin="arrowDown.mouseover" end="arrowDown.mouseout"/>
                  </use>
                  <path fill="none" stroke="white" stroke-width="1.5" d="M0,-3.0v7 M-2.5,-0.5L0,-3.0L2.5,-0.5"/>
                </g>
                <g id="arrowLeft" xlink:href="#dirArrow" transform="rotate(270) translate(-36 17)" onmousedown="handlePan(-1,0)">
                  <use xlink:href="#rim" fill="#404040">
                        <set attributeName="fill" to="#808080" begin="arrowLeft.mouseover" end="arrowLeft.mouseout"/>
                  </use>
                  <path fill="none" stroke="white" stroke-width="1.5" d="M0,-3.0v7 M-2.5,-0.5L0,-3.0L2.5,-0.5"/>
                </g>
        </g>
        <svg viewBox="0 0 15 15" width="100%" height="30px" preserveAspectRatio="xMaxYMin meet">
         <g id="arrow_out" transform="scale(0.3 0.3)">
          <a xlink:href="classrtype_1_1game_1_1SGamePlay__coll__graph_org.svg" target="_base">
           <rect id="button" ry="5" rx="5" y="6" x="6" height="38" width="38"
                fill="#f2f5e9" fill-opacity="0.5" stroke="#606060" stroke-width="1.0"/>
           <path id="arrow"
             d="M 11.500037,31.436501 C 11.940474,20.09759 22.043105,11.32322 32.158766,21.979434 L 37.068811,17.246167 C 37.068811,17.246167 37.088388,32 37.088388,32 L 22.160133,31.978069 C 22.160133,31.978069 26.997745,27.140456 26.997745,27.140456 C 18.528582,18.264221 13.291696,25.230495 11.500037,31.436501 z"
             style="fill:#404040;"/>
          </a>
         </g>
        </svg>
</svg>
