<?xml version="1.0" encoding="UTF-8" standalone="no"?>
<!DOCTYPE svg PUBLIC "-//W3C//DTD SVG 1.1//EN"
 "http://www.w3.org/Graphics/SVG/1.1/DTD/svg11.dtd">
<!-- Generated by graphviz version 7.0.5 (20221223.1930)
 -->
<!-- Title: rtype::components::Background Pages: 1 -->
<svg width="188pt" height="192pt"
 viewBox="0.00 0.00 188.00 192.00" xmlns="http://www.w3.org/2000/svg" xmlns:xlink="http://www.w3.org/1999/xlink">
<g id="graph0" class="graph" transform="scale(1 1) rotate(0) translate(4 188)">
<title>rtype::components::Background</title>
<!-- Node1 -->
<g id="node1" class="node">
<title>Node1</title>
<g id="a_node1"><a xlink:title="This class is used to create background.">
<polygon fill="#999999" stroke="#666666" points="144.5,-107 41.5,-107 41.5,0 144.5,0 144.5,-107"/>
<text text-anchor="start" x="49.5" y="-95" font-family="Helvetica,sans-Serif" font-size="10.00">{rtype::components::</text>
<text text-anchor="middle" x="93" y="-84" font-family="Helvetica,sans-Serif" font-size="10.00">Background</text>
<text text-anchor="start" x="49.5" y="-73" font-family="Helvetica,sans-Serif" font-size="10.00">||+ Background()</text>
<text text-anchor="start" x="49.5" y="-62" font-family="Helvetica,sans-Serif" font-size="10.00">+ ~Background()</text>
<text text-anchor="start" x="49.5" y="-51" font-family="Helvetica,sans-Serif" font-size="10.00">+ CreateSound()</text>
<text text-anchor="start" x="49.5" y="-40" font-family="Helvetica,sans-Serif" font-size="10.00">+ draw()</text>
<text text-anchor="start" x="49.5" y="-29" font-family="Helvetica,sans-Serif" font-size="10.00">+ getSprite()</text>
<text text-anchor="start" x="49.5" y="-18" font-family="Helvetica,sans-Serif" font-size="10.00">+ initBackground()</text>
<text text-anchor="middle" x="93" y="-7" font-family="Helvetica,sans-Serif" font-size="10.00">}</text>
</a>
</g>
</g>
<!-- Node2 -->
<g id="node2" class="node">
<title>Node2</title>
<g id="a_node2"><a xlink:title=" ">
<polygon fill="white" stroke="#666666" points="52,-184 0,-184 0,-154 52,-154 52,-184"/>
<text text-anchor="middle" x="26" y="-172" font-family="Helvetica,sans-Serif" font-size="10.00">{Texture</text>
<text text-anchor="middle" x="26" y="-161" font-family="Helvetica,sans-Serif" font-size="10.00">||}</text>
</a>
</g>
</g>
<!-- Node2&#45;&gt;Node1 -->
<g id="edge1" class="edge">
<title>Node2&#45;&gt;Node1</title>
<path fill="none" stroke="#404040" d="M34.49,-153.63C39.93,-144.4 47.43,-131.7 55.24,-118.47"/>
<polygon fill="none" stroke="#404040" points="55.28,-118.4 54.88,-111.2 61.38,-108.07 61.77,-115.27 55.28,-118.4"/>
<text text-anchor="middle" x="66.5" y="-128" font-family="Helvetica,sans-Serif" font-size="10.00"> &#45;texture</text>
</g>
<!-- Node3 -->
<g id="node3" class="node">
<title>Node3</title>
<g id="a_node3"><a xlink:title=" ">
<polygon fill="white" stroke="#666666" points="115.5,-184 70.5,-184 70.5,-154 115.5,-154 115.5,-184"/>
<text text-anchor="middle" x="93" y="-172" font-family="Helvetica,sans-Serif" font-size="10.00">{Sprite</text>
<text text-anchor="middle" x="93" y="-161" font-family="Helvetica,sans-Serif" font-size="10.00">||}</text>
</a>
</g>
</g>
<!-- Node3&#45;&gt;Node1 -->
<g id="edge2" class="edge">
<title>Node3&#45;&gt;Node1</title>
<path fill="none" stroke="#404040" d="M93,-153.63C93,-144.77 93,-132.71 93,-120.05"/>
<polygon fill="none" stroke="#404040" points="93,-120.19 89,-114.19 93,-108.19 97,-114.19 93,-120.19"/>
<text text-anchor="middle" x="108" y="-128" font-family="Helvetica,sans-Serif" font-size="10.00"> &#45;asset</text>
</g>
<!-- Node4 -->
<g id="node4" class="node">
<title>Node4</title>
<g id="a_node4"><a xlink:title=" ">
<polygon fill="white" stroke="#666666" points="180,-184 134,-184 134,-154 180,-154 180,-184"/>
<text text-anchor="middle" x="157" y="-172" font-family="Helvetica,sans-Serif" font-size="10.00">{Music</text>
<text text-anchor="middle" x="157" y="-161" font-family="Helvetica,sans-Serif" font-size="10.00">||}</text>
</a>
</g>
</g>
<!-- Node4&#45;&gt;Node1 -->
<g id="edge3" class="edge">
<title>Node4&#45;&gt;Node1</title>
<path fill="none" stroke="#404040" d="M148.89,-153.63C143.69,-144.4 136.53,-131.7 129.07,-118.47"/>
<polygon fill="none" stroke="#404040" points="129.1,-118.53 122.67,-115.27 123.21,-108.08 129.64,-111.34 129.1,-118.53"/>
<text text-anchor="middle" x="154" y="-128" font-family="Helvetica,sans-Serif" font-size="10.00"> &#45;music</text>
</g>
</g>
</svg>
