<?xml version="1.0" encoding="UTF-8" standalone="no"?>
<!DOCTYPE svg PUBLIC "-//W3C//DTD SVG 1.1//EN"
 "http://www.w3.org/Graphics/SVG/1.1/DTD/svg11.dtd">
<!-- Generated by graphviz version 7.0.5 (20221223.1930)
 -->
<!-- Title: rtype::engine::Event Pages: 1 -->
<svg width="368pt" height="445pt"
 viewBox="0.00 0.00 367.50 445.00" xmlns="http://www.w3.org/2000/svg" xmlns:xlink="http://www.w3.org/1999/xlink">
<g id="graph0" class="graph" transform="scale(1 1) rotate(0) translate(4 441)">
<title>rtype::engine::Event</title>
<!-- Node1 -->
<g id="node1" class="node">
<title>Node1</title>
<g id="a_node1"><a xlink:title=" ">
<polygon fill="#999999" stroke="#666666" points="261.5,-184 124.5,-184 124.5,0 261.5,0 261.5,-184"/>
<text text-anchor="middle" x="193" y="-172" font-family="Helvetica,sans-Serif" font-size="10.00">{rtype::engine::Event</text>
<text text-anchor="start" x="132.5" y="-161" font-family="Helvetica,sans-Serif" font-size="10.00">||+ Event()</text>
<text text-anchor="start" x="132.5" y="-150" font-family="Helvetica,sans-Serif" font-size="10.00">+ ~Event()</text>
<text text-anchor="start" x="132.5" y="-139" font-family="Helvetica,sans-Serif" font-size="10.00">+ getClientBuffer()</text>
<text text-anchor="start" x="132.5" y="-128" font-family="Helvetica,sans-Serif" font-size="10.00">+ GetMousePos()</text>
<text text-anchor="start" x="132.5" y="-117" font-family="Helvetica,sans-Serif" font-size="10.00">+ GetMousePressed()</text>
<text text-anchor="start" x="132.5" y="-106" font-family="Helvetica,sans-Serif" font-size="10.00">+ handleEvent()</text>
<text text-anchor="start" x="132.5" y="-95" font-family="Helvetica,sans-Serif" font-size="10.00">+ handleInput()</text>
<text text-anchor="start" x="132.5" y="-84" font-family="Helvetica,sans-Serif" font-size="10.00">+ MakeObjectClickable()</text>
<text text-anchor="start" x="132.5" y="-73" font-family="Helvetica,sans-Serif" font-size="10.00">+ MakeObjectMovable()</text>
<text text-anchor="start" x="132.5" y="-62" font-family="Helvetica,sans-Serif" font-size="10.00">+ MakeSpriteMovable()</text>
<text text-anchor="start" x="132.5" y="-51" font-family="Helvetica,sans-Serif" font-size="10.00">+ MakeSpriteMovable_Bis()</text>
<text text-anchor="start" x="132.5" y="-40" font-family="Helvetica,sans-Serif" font-size="10.00">+ sendMessage()</text>
<text text-anchor="start" x="132.5" y="-29" font-family="Helvetica,sans-Serif" font-size="10.00">+ ServerPlayerAction()</text>
<text text-anchor="start" x="132.5" y="-18" font-family="Helvetica,sans-Serif" font-size="10.00">+ update()</text>
<text text-anchor="middle" x="193" y="-7" font-family="Helvetica,sans-Serif" font-size="10.00">}</text>
</a>
</g>
</g>
<!-- Node2 -->
<g id="node2" class="node">
<title>Node2</title>
<g id="a_node2"><a xlink:title=" ">
<polygon fill="white" stroke="#666666" points="155,-266.5 33,-266.5 33,-236.5 155,-236.5 155,-266.5"/>
<text text-anchor="middle" x="94" y="-254.5" font-family="Helvetica,sans-Serif" font-size="10.00">{std::queue&lt; std::string &gt;</text>
<text text-anchor="middle" x="94" y="-243.5" font-family="Helvetica,sans-Serif" font-size="10.00">||}</text>
</a>
</g>
</g>
<!-- Node2&#45;&gt;Node1 -->
<g id="edge1" class="edge">
<title>Node2&#45;&gt;Node1</title>
<path fill="none" stroke="#404040" d="M98.55,-236.05C101.93,-226.17 106.98,-212.93 113,-202 114.46,-199.35 115.97,-196.7 117.53,-194.04"/>
<polygon fill="none" stroke="#404040" points="117.46,-194.15 117.17,-186.94 123.7,-183.9 124,-191.1 117.46,-194.15"/>
<text text-anchor="middle" x="151" y="-205" font-family="Helvetica,sans-Serif" font-size="10.00"> +server_updates</text>
</g>
<!-- Node3 -->
<g id="node3" class="node">
<title>Node3</title>
<g id="a_node3"><a xlink:title=" ">
<polygon fill="white" stroke="#666666" points="79,-349 17,-349 17,-319 79,-319 79,-349"/>
<text text-anchor="middle" x="48" y="-337" font-family="Helvetica,sans-Serif" font-size="10.00">{std::string</text>
<text text-anchor="middle" x="48" y="-326" font-family="Helvetica,sans-Serif" font-size="10.00">||}</text>
</a>
</g>
</g>
<!-- Node3&#45;&gt;Node2 -->
<g id="edge2" class="edge">
<title>Node3&#45;&gt;Node2</title>
<path fill="none" stroke="#404040" d="M52.1,-318.55C54.85,-309.96 58.9,-299.01 64,-290 66.56,-285.48 69.66,-280.93 72.87,-276.65"/>
<polygon fill="none" stroke="#404040" points="72.8,-276.74 73.43,-269.56 80.31,-267.38 79.67,-274.57 72.8,-276.74"/>
<text text-anchor="middle" x="88.5" y="-293" font-family="Helvetica,sans-Serif" font-size="10.00"> +elements</text>
</g>
<!-- Node4 -->
<g id="node4" class="node">
<title>Node4</title>
<g id="a_node4"><a xlink:title=" ">
<polygon fill="white" stroke="#666666" points="96,-437 0,-437 0,-396 96,-396 96,-437"/>
<text text-anchor="start" x="8" y="-425" font-family="Helvetica,sans-Serif" font-size="10.00">{std::basic_string&lt;</text>
<text text-anchor="middle" x="48" y="-414" font-family="Helvetica,sans-Serif" font-size="10.00"> Char &gt;</text>
<text text-anchor="middle" x="48" y="-403" font-family="Helvetica,sans-Serif" font-size="10.00">||}</text>
</a>
</g>
</g>
<!-- Node4&#45;&gt;Node3 -->
<g id="edge3" class="edge">
<title>Node4&#45;&gt;Node3</title>
<path fill="none" stroke="#63b8ff" d="M48,-384.14C48,-372.14 48,-359.02 48,-349.37"/>
<polygon fill="none" stroke="#63b8ff" points="44.5,-384.09 48,-394.09 51.5,-384.09 44.5,-384.09"/>
</g>
<!-- Node5 -->
<g id="node5" class="node">
<title>Node5</title>
<g id="a_node5"><a xlink:title=" ">
<polygon fill="white" stroke="#666666" points="183,-349 97,-349 97,-319 183,-319 183,-349"/>
<text text-anchor="middle" x="140" y="-337" font-family="Helvetica,sans-Serif" font-size="10.00">{std::queue&lt; T &gt;</text>
<text text-anchor="middle" x="140" y="-326" font-family="Helvetica,sans-Serif" font-size="10.00">||}</text>
</a>
</g>
</g>
<!-- Node5&#45;&gt;Node2 -->
<g id="edge4" class="edge">
<title>Node5&#45;&gt;Node2</title>
<path fill="none" stroke="orange" d="M126.19,-308.83C118.35,-295.11 108.8,-278.41 102.15,-266.77"/>
<polygon fill="orange" stroke="orange" points="123.02,-310.35 131.03,-317.29 129.1,-306.88 123.02,-310.35"/>
<text text-anchor="middle" x="152.5" y="-293" font-family="Helvetica,sans-Serif" font-size="10.00"> &lt; std::string &gt;</text>
</g>
<!-- Node6 -->
<g id="node6" class="node">
<title>Node6</title>
<g id="a_node6"><a xlink:title=" ">
<polygon fill="white" stroke="#666666" points="154.5,-431.5 125.5,-431.5 125.5,-401.5 154.5,-401.5 154.5,-431.5"/>
<text text-anchor="middle" x="140" y="-419.5" font-family="Helvetica,sans-Serif" font-size="10.00">{T</text>
<text text-anchor="middle" x="140" y="-408.5" font-family="Helvetica,sans-Serif" font-size="10.00">||}</text>
</a>
</g>
</g>
<!-- Node6&#45;&gt;Node5 -->
<g id="edge5" class="edge">
<title>Node6&#45;&gt;Node5</title>
<path fill="none" stroke="#404040" d="M140,-401.11C140,-390.35 140,-375.31 140,-362.3"/>
<polygon fill="none" stroke="#404040" points="140,-362.17 136,-356.17 140,-350.17 144,-356.17 140,-362.17"/>
<text text-anchor="middle" x="164.5" y="-370" font-family="Helvetica,sans-Serif" font-size="10.00"> +elements</text>
</g>
<!-- Node7 -->
<g id="node7" class="node">
<title>Node7</title>
<g id="a_node7"><a xlink:title=" ">
<polygon fill="white" stroke="#666666" points="212,-266.5 174,-266.5 174,-236.5 212,-236.5 212,-266.5"/>
<text text-anchor="middle" x="193" y="-254.5" font-family="Helvetica,sans-Serif" font-size="10.00">{float</text>
<text text-anchor="middle" x="193" y="-243.5" font-family="Helvetica,sans-Serif" font-size="10.00">||}</text>
</a>
</g>
</g>
<!-- Node7&#45;&gt;Node1 -->
<g id="edge6" class="edge">
<title>Node7&#45;&gt;Node1</title>
<path fill="none" stroke="#404040" d="M193,-236.25C193,-226.45 193,-212.45 193,-197"/>
<polygon fill="none" stroke="#404040" points="193,-197.26 189,-191.26 193,-185.26 197,-191.26 193,-197.26"/>
<text text-anchor="middle" x="212.5" y="-205" font-family="Helvetica,sans-Serif" font-size="10.00"> &#45;velocity</text>
</g>
<!-- Node8 -->
<g id="node8" class="node">
<title>Node8</title>
<g id="a_node8"><a xlink:title=" ">
<polygon fill="white" stroke="#666666" points="359.5,-272 230.5,-272 230.5,-231 359.5,-231 359.5,-272"/>
<text text-anchor="start" x="238.5" y="-260" font-family="Helvetica,sans-Serif" font-size="10.00">{Skaldi&lt; sk::client</text>
<text text-anchor="middle" x="295" y="-249" font-family="Helvetica,sans-Serif" font-size="10.00">::UDP, sk::server::UDP &gt; *</text>
<text text-anchor="middle" x="295" y="-238" font-family="Helvetica,sans-Serif" font-size="10.00">||}</text>
</a>
</g>
</g>
<!-- Node8&#45;&gt;Node1 -->
<g id="edge7" class="edge">
<title>Node8&#45;&gt;Node1</title>
<path fill="none" stroke="#404040" d="M282.08,-230.55C275.86,-220.95 267.89,-208.64 259.28,-195.34"/>
<polygon fill="none" stroke="#404040" points="259.27,-195.32 252.65,-192.46 252.74,-185.25 259.36,-188.11 259.27,-195.32"/>
<text text-anchor="middle" x="278" y="-205" font-family="Helvetica,sans-Serif" font-size="10.00"> &#45;clt</text>
</g>
</g>
</svg>
