<?xml version="1.0" encoding="UTF-8" standalone="no"?>
<!DOCTYPE svg PUBLIC "-//W3C//DTD SVG 1.1//EN"
 "http://www.w3.org/Graphics/SVG/1.1/DTD/svg11.dtd">
<!-- Generated by graphviz version 7.0.5 (20221223.1930)
 -->
<!-- Title: rtype::entities::EntitiesManager Pages: 1 -->
<svg width="445pt" height="390pt"
 viewBox="0.00 0.00 444.50 390.00" xmlns="http://www.w3.org/2000/svg" xmlns:xlink="http://www.w3.org/1999/xlink">
<g id="graph0" class="graph" transform="scale(1 1) rotate(0) translate(4 386)">
<title>rtype::entities::EntitiesManager</title>
<!-- Node1 -->
<g id="node1" class="node">
<title>Node1</title>
<g id="a_node1"><a xlink:title=" ">
<polygon fill="#999999" stroke="#666666" points="265.5,-140 152.5,-140 152.5,0 265.5,0 265.5,-140"/>
<text text-anchor="start" x="160.5" y="-128" font-family="Helvetica,sans-Serif" font-size="10.00">{rtype::entities::Entities</text>
<text text-anchor="middle" x="209" y="-117" font-family="Helvetica,sans-Serif" font-size="10.00">Manager</text>
<text text-anchor="start" x="160.5" y="-106" font-family="Helvetica,sans-Serif" font-size="10.00">||+ EntitiesManager()</text>
<text text-anchor="start" x="160.5" y="-95" font-family="Helvetica,sans-Serif" font-size="10.00">+ ~EntitiesManager()</text>
<text text-anchor="start" x="160.5" y="-84" font-family="Helvetica,sans-Serif" font-size="10.00">+ CreateEntitie()</text>
<text text-anchor="start" x="160.5" y="-73" font-family="Helvetica,sans-Serif" font-size="10.00">+ getEntitiesList()</text>
<text text-anchor="start" x="160.5" y="-62" font-family="Helvetica,sans-Serif" font-size="10.00">+ getIDs()</text>
<text text-anchor="start" x="160.5" y="-51" font-family="Helvetica,sans-Serif" font-size="10.00">+ getPId()</text>
<text text-anchor="start" x="160.5" y="-40" font-family="Helvetica,sans-Serif" font-size="10.00">+ getSprite()</text>
<text text-anchor="start" x="160.5" y="-29" font-family="Helvetica,sans-Serif" font-size="10.00">+ NewEntity()</text>
<text text-anchor="start" x="160.5" y="-18" font-family="Helvetica,sans-Serif" font-size="10.00">+ setPId()</text>
<text text-anchor="middle" x="209" y="-7" font-family="Helvetica,sans-Serif" font-size="10.00">}</text>
</a>
</g>
</g>
<!-- Node2 -->
<g id="node2" class="node">
<title>Node2</title>
<g id="a_node2"><a xlink:title=" ">
<polygon fill="white" stroke="#666666" points="44,-305 0,-305 0,-275 44,-275 44,-305"/>
<text text-anchor="middle" x="22" y="-293" font-family="Helvetica,sans-Serif" font-size="10.00">{int8_t</text>
<text text-anchor="middle" x="22" y="-282" font-family="Helvetica,sans-Serif" font-size="10.00">||}</text>
</a>
</g>
</g>
<!-- Node2&#45;&gt;Node1 -->
<g id="edge1" class="edge">
<title>Node2&#45;&gt;Node1</title>
<path fill="none" stroke="#404040" d="M16.79,-274.72C10.16,-253.93 1.32,-214.79 17,-187 43.24,-140.49 96.45,-110.53 140.21,-92.73"/>
<polygon fill="none" stroke="#404040" points="140.25,-92.71 144.39,-86.8 151.43,-88.35 147.29,-94.26 140.25,-92.71"/>
<text text-anchor="middle" x="26.5" y="-205" font-family="Helvetica,sans-Serif" font-size="10.00"> &#45;pId</text>
</g>
<!-- Node8 -->
<g id="node8" class="node">
<title>Node8</title>
<g id="a_node8"><a xlink:title=" ">
<polygon fill="white" stroke="#666666" points="136.5,-222.5 45.5,-222.5 45.5,-192.5 136.5,-192.5 136.5,-222.5"/>
<text text-anchor="middle" x="91" y="-210.5" font-family="Helvetica,sans-Serif" font-size="10.00">{std::list&lt; int8_t &gt;</text>
<text text-anchor="middle" x="91" y="-199.5" font-family="Helvetica,sans-Serif" font-size="10.00">||}</text>
</a>
</g>
</g>
<!-- Node2&#45;&gt;Node8 -->
<g id="edge8" class="edge">
<title>Node2&#45;&gt;Node8</title>
<path fill="none" stroke="#404040" d="M29.58,-274.76C34.55,-266.04 41.49,-254.89 49,-246 53.3,-240.9 58.3,-235.86 63.31,-231.2"/>
<polygon fill="none" stroke="#404040" points="63.13,-231.36 64.97,-224.39 72.11,-223.41 70.27,-230.38 63.13,-231.36"/>
<text text-anchor="middle" x="73.5" y="-249" font-family="Helvetica,sans-Serif" font-size="10.00"> +elements</text>
</g>
<!-- Node3 -->
<g id="node3" class="node">
<title>Node3</title>
<g id="a_node3"><a xlink:title=" ">
<polygon fill="white" stroke="#666666" points="263,-228 155,-228 155,-187 263,-187 263,-228"/>
<text text-anchor="start" x="163" y="-216" font-family="Helvetica,sans-Serif" font-size="10.00">{std::array&lt; sf::Sprite,</text>
<text text-anchor="middle" x="209" y="-205" font-family="Helvetica,sans-Serif" font-size="10.00"> 100 &gt;</text>
<text text-anchor="middle" x="209" y="-194" font-family="Helvetica,sans-Serif" font-size="10.00">||}</text>
</a>
</g>
</g>
<!-- Node3&#45;&gt;Node1 -->
<g id="edge2" class="edge">
<title>Node3&#45;&gt;Node1</title>
<path fill="none" stroke="#404040" d="M209,-186.51C209,-177.27 209,-165.63 209,-153.32"/>
<polygon fill="none" stroke="#404040" points="209,-153.21 205,-147.21 209,-141.21 213,-147.21 209,-153.21"/>
<text text-anchor="middle" x="227.5" y="-161" font-family="Helvetica,sans-Serif" font-size="10.00"> &#45;entities</text>
</g>
<!-- Node4 -->
<g id="node4" class="node">
<title>Node4</title>
<g id="a_node4"><a xlink:title=" ">
<polygon fill="white" stroke="#666666" points="212.5,-305 167.5,-305 167.5,-275 212.5,-275 212.5,-305"/>
<text text-anchor="middle" x="190" y="-293" font-family="Helvetica,sans-Serif" font-size="10.00">{Sprite</text>
<text text-anchor="middle" x="190" y="-282" font-family="Helvetica,sans-Serif" font-size="10.00">||}</text>
</a>
</g>
</g>
<!-- Node4&#45;&gt;Node3 -->
<g id="edge3" class="edge">
<title>Node4&#45;&gt;Node3</title>
<path fill="none" stroke="#404040" d="M191.31,-274.54C192.24,-266.13 193.74,-255.38 196,-246 196.44,-244.16 196.94,-242.28 197.48,-240.39"/>
<polygon fill="none" stroke="#404040" points="197.47,-240.43 195.48,-233.5 201.11,-229 203.1,-235.93 197.47,-240.43"/>
<text text-anchor="middle" x="220.5" y="-249" font-family="Helvetica,sans-Serif" font-size="10.00"> +elements</text>
</g>
<!-- Node5 -->
<g id="node5" class="node">
<title>Node5</title>
<g id="a_node5"><a xlink:title=" ">
<polygon fill="white" stroke="#666666" points="311.5,-305 230.5,-305 230.5,-275 311.5,-275 311.5,-305"/>
<text text-anchor="middle" x="271" y="-293" font-family="Helvetica,sans-Serif" font-size="10.00">{std::array&lt; T &gt;</text>
<text text-anchor="middle" x="271" y="-282" font-family="Helvetica,sans-Serif" font-size="10.00">||}</text>
</a>
</g>
</g>
<!-- Node5&#45;&gt;Node3 -->
<g id="edge4" class="edge">
<title>Node5&#45;&gt;Node3</title>
<path fill="none" stroke="orange" d="M257.78,-265.02C253.93,-258.65 249.53,-251.9 245,-246 240.39,-239.99 234.92,-233.88 229.67,-228.39"/>
<polygon fill="orange" stroke="orange" points="254.51,-266.35 262.56,-273.23 260.56,-262.83 254.51,-266.35"/>
<text text-anchor="middle" x="291.5" y="-249" font-family="Helvetica,sans-Serif" font-size="10.00"> &lt; sf::Sprite, 100 &gt;</text>
</g>
<!-- Node6 -->
<g id="node6" class="node">
<title>Node6</title>
<g id="a_node6"><a xlink:title=" ">
<polygon fill="white" stroke="#666666" points="206.5,-382 177.5,-382 177.5,-352 206.5,-352 206.5,-382"/>
<text text-anchor="middle" x="192" y="-370" font-family="Helvetica,sans-Serif" font-size="10.00">{T</text>
<text text-anchor="middle" x="192" y="-359" font-family="Helvetica,sans-Serif" font-size="10.00">||}</text>
</a>
</g>
</g>
<!-- Node6&#45;&gt;Node5 -->
<g id="edge5" class="edge">
<title>Node6&#45;&gt;Node5</title>
<path fill="none" stroke="#404040" d="M206.86,-351.89C218.04,-341.28 233.61,-326.49 246.61,-314.15"/>
<polygon fill="none" stroke="#404040" points="246.58,-314.18 248.18,-307.15 255.29,-305.92 253.69,-312.95 246.58,-314.18"/>
<text text-anchor="middle" x="260.5" y="-326" font-family="Helvetica,sans-Serif" font-size="10.00"> +elements</text>
</g>
<!-- Node9 -->
<g id="node9" class="node">
<title>Node9</title>
<g id="a_node9"><a xlink:title=" ">
<polygon fill="white" stroke="#666666" points="149.5,-305 76.5,-305 76.5,-275 149.5,-275 149.5,-305"/>
<text text-anchor="middle" x="113" y="-293" font-family="Helvetica,sans-Serif" font-size="10.00">{std::list&lt; T &gt;</text>
<text text-anchor="middle" x="113" y="-282" font-family="Helvetica,sans-Serif" font-size="10.00">||}</text>
</a>
</g>
</g>
<!-- Node6&#45;&gt;Node9 -->
<g id="edge10" class="edge">
<title>Node6&#45;&gt;Node9</title>
<path fill="none" stroke="#404040" d="M177.14,-351.89C165.96,-341.28 150.39,-326.49 137.39,-314.15"/>
<polygon fill="none" stroke="#404040" points="137.42,-314.18 130.31,-312.95 128.71,-305.92 135.82,-307.15 137.42,-314.18"/>
<text text-anchor="middle" x="182.5" y="-326" font-family="Helvetica,sans-Serif" font-size="10.00"> +elements</text>
</g>
<!-- Node7 -->
<g id="node7" class="node">
<title>Node7</title>
<g id="a_node7"><a xlink:title=" ">
<polygon fill="white" stroke="#666666" points="333,-222.5 281,-222.5 281,-192.5 333,-192.5 333,-222.5"/>
<text text-anchor="middle" x="307" y="-210.5" font-family="Helvetica,sans-Serif" font-size="10.00">{Texture</text>
<text text-anchor="middle" x="307" y="-199.5" font-family="Helvetica,sans-Serif" font-size="10.00">||}</text>
</a>
</g>
</g>
<!-- Node7&#45;&gt;Node1 -->
<g id="edge6" class="edge">
<title>Node7&#45;&gt;Node1</title>
<path fill="none" stroke="#404040" d="M296.7,-192.26C289.09,-181.73 278.06,-166.48 266.37,-150.33"/>
<polygon fill="none" stroke="#404040" points="266.6,-150.64 259.84,-148.12 259.57,-140.92 266.32,-143.43 266.6,-150.64"/>
<text text-anchor="middle" x="295.5" y="-161" font-family="Helvetica,sans-Serif" font-size="10.00"> &#45;texture</text>
</g>
<!-- Node8&#45;&gt;Node1 -->
<g id="edge7" class="edge">
<title>Node8&#45;&gt;Node1</title>
<path fill="none" stroke="#404040" d="M103.41,-192.26C113.43,-180.74 128.39,-163.57 143.91,-145.74"/>
<polygon fill="none" stroke="#404040" points="143.59,-146.11 144.51,-138.96 151.47,-137.06 150.55,-144.21 143.59,-146.11"/>
<text text-anchor="middle" x="143.5" y="-161" font-family="Helvetica,sans-Serif" font-size="10.00"> &#45;IDs</text>
</g>
<!-- Node9&#45;&gt;Node8 -->
<g id="edge9" class="edge">
<title>Node9&#45;&gt;Node8</title>
<path fill="none" stroke="orange" d="M106.06,-263.61C102.38,-250.13 97.99,-234.07 94.9,-222.77"/>
<polygon fill="orange" stroke="orange" points="102.66,-264.42 108.67,-273.15 109.41,-262.58 102.66,-264.42"/>
<text text-anchor="middle" x="125.5" y="-249" font-family="Helvetica,sans-Serif" font-size="10.00"> &lt; int8_t &gt;</text>
</g>
<!-- Node10 -->
<g id="node10" class="node">
<title>Node10</title>
<g id="a_node10"><a xlink:title=" ">
<polygon fill="white" stroke="#666666" points="436.5,-222.5 351.5,-222.5 351.5,-192.5 436.5,-192.5 436.5,-222.5"/>
<text text-anchor="middle" x="394" y="-210.5" font-family="Helvetica,sans-Serif" font-size="10.00">{RenderWindow</text>
<text text-anchor="middle" x="394" y="-199.5" font-family="Helvetica,sans-Serif" font-size="10.00">||}</text>
</a>
</g>
</g>
<!-- Node10&#45;&gt;Node1 -->
<g id="edge11" class="edge">
<title>Node10&#45;&gt;Node1</title>
<path fill="none" stroke="#404040" d="M374.55,-192.26C351.25,-175.19 310.96,-145.68 275.96,-120.05"/>
<polygon fill="none" stroke="#404040" points="276.18,-120.21 268.98,-119.89 266.5,-113.12 273.71,-113.43 276.18,-120.21"/>
<text text-anchor="middle" x="358.5" y="-161" font-family="Helvetica,sans-Serif" font-size="10.00"> &#45;window</text>
</g>
</g>
</svg>
