<?xml version="1.0" encoding="UTF-8" standalone="no"?>
<!DOCTYPE svg PUBLIC "-//W3C//DTD SVG 1.1//EN"
 "http://www.w3.org/Graphics/SVG/1.1/DTD/svg11.dtd">
<!-- Generated by graphviz version 7.0.5 (20221223.1930)
 -->
<!-- Title: rtype::entities::EntitiesManager Pages: 1 -->
<svg width="1172pt" height="1721pt"
 viewBox="0.00 0.00 1172.00 1721.00" xmlns="http://www.w3.org/2000/svg" xmlns:xlink="http://www.w3.org/1999/xlink">
<g id="graph0" class="graph" transform="scale(1 1) rotate(0) translate(4 1717)">
<title>rtype::entities::EntitiesManager</title>
<!-- Node1 -->
<g id="node1" class="node">
<title>Node1</title>
<g id="a_node1"><a xlink:title="This class create an entity and set it a sprite, set up the position of the entity and his scale.">
<polygon fill="#999999" stroke="#666666" points="922.5,-371 809.5,-371 809.5,0 922.5,0 922.5,-371"/>
<text text-anchor="start" x="817.5" y="-359" font-family="Helvetica,sans-Serif" font-size="10.00">{rtype::entities::Entities</text>
<text text-anchor="middle" x="866" y="-348" font-family="Helvetica,sans-Serif" font-size="10.00">Manager</text>
<text text-anchor="start" x="817.5" y="-337" font-family="Helvetica,sans-Serif" font-size="10.00">||+ EntitiesManager()</text>
<text text-anchor="start" x="817.5" y="-326" font-family="Helvetica,sans-Serif" font-size="10.00">+ EntitiesManager()</text>
<text text-anchor="start" x="817.5" y="-315" font-family="Helvetica,sans-Serif" font-size="10.00">+ ~EntitiesManager()</text>
<text text-anchor="start" x="817.5" y="-304" font-family="Helvetica,sans-Serif" font-size="10.00">+ ~EntitiesManager()</text>
<text text-anchor="start" x="817.5" y="-293" font-family="Helvetica,sans-Serif" font-size="10.00">+ CreateEntitie()</text>
<text text-anchor="start" x="817.5" y="-282" font-family="Helvetica,sans-Serif" font-size="10.00">+ CreateEntitie()</text>
<text text-anchor="start" x="817.5" y="-271" font-family="Helvetica,sans-Serif" font-size="10.00">+ CreateMobs()</text>
<text text-anchor="start" x="817.5" y="-260" font-family="Helvetica,sans-Serif" font-size="10.00">+ CreateMobs()</text>
<text text-anchor="start" x="817.5" y="-249" font-family="Helvetica,sans-Serif" font-size="10.00">+ Draw()</text>
<text text-anchor="start" x="817.5" y="-238" font-family="Helvetica,sans-Serif" font-size="10.00">+ draw()</text>
<text text-anchor="start" x="817.5" y="-227" font-family="Helvetica,sans-Serif" font-size="10.00">+ getEntitiesList()</text>
<text text-anchor="start" x="817.5" y="-216" font-family="Helvetica,sans-Serif" font-size="10.00">+ getEntity()</text>
<text text-anchor="start" x="817.5" y="-205" font-family="Helvetica,sans-Serif" font-size="10.00">+ getIDs()</text>
<text text-anchor="start" x="817.5" y="-194" font-family="Helvetica,sans-Serif" font-size="10.00">+ getIDsMobs()</text>
<text text-anchor="start" x="817.5" y="-183" font-family="Helvetica,sans-Serif" font-size="10.00">+ getMobsLists()</text>
<text text-anchor="start" x="817.5" y="-172" font-family="Helvetica,sans-Serif" font-size="10.00">+ getPId()</text>
<text text-anchor="start" x="817.5" y="-161" font-family="Helvetica,sans-Serif" font-size="10.00">+ getPId()</text>
<text text-anchor="start" x="817.5" y="-150" font-family="Helvetica,sans-Serif" font-size="10.00">+ getSprite()</text>
<text text-anchor="start" x="817.5" y="-139" font-family="Helvetica,sans-Serif" font-size="10.00">+ getSpriteMobs()</text>
<text text-anchor="start" x="817.5" y="-128" font-family="Helvetica,sans-Serif" font-size="10.00">+ getTextureVector()</text>
<text text-anchor="start" x="817.5" y="-117" font-family="Helvetica,sans-Serif" font-size="10.00">+ handleEvent()</text>
<text text-anchor="start" x="817.5" y="-106" font-family="Helvetica,sans-Serif" font-size="10.00">+ NewEntity()</text>
<text text-anchor="start" x="817.5" y="-95" font-family="Helvetica,sans-Serif" font-size="10.00">+ NewEntity()</text>
<text text-anchor="start" x="817.5" y="-84" font-family="Helvetica,sans-Serif" font-size="10.00">+ NewEntity()</text>
<text text-anchor="start" x="817.5" y="-73" font-family="Helvetica,sans-Serif" font-size="10.00">+ NewEntity()</text>
<text text-anchor="start" x="817.5" y="-62" font-family="Helvetica,sans-Serif" font-size="10.00">+ NewMobs()</text>
<text text-anchor="start" x="817.5" y="-51" font-family="Helvetica,sans-Serif" font-size="10.00">+ NewMobs()</text>
<text text-anchor="start" x="817.5" y="-40" font-family="Helvetica,sans-Serif" font-size="10.00">+ setPId()</text>
<text text-anchor="start" x="817.5" y="-29" font-family="Helvetica,sans-Serif" font-size="10.00">+ setPId()</text>
<text text-anchor="start" x="817.5" y="-18" font-family="Helvetica,sans-Serif" font-size="10.00">+ update()</text>
<text text-anchor="middle" x="866" y="-7" font-family="Helvetica,sans-Serif" font-size="10.00">}</text>
</a>
</g>
</g>
<!-- Node2 -->
<g id="node2" class="node">
<title>Node2</title>
<g id="a_node2"><a xlink:title=" ">
<polygon fill="white" stroke="#666666" points="995.5,-1377.5 890.5,-1377.5 890.5,-1347.5 995.5,-1347.5 995.5,-1377.5"/>
<text text-anchor="middle" x="943" y="-1365.5" font-family="Helvetica,sans-Serif" font-size="10.00">{std::vector&lt; int8_t &gt;</text>
<text text-anchor="middle" x="943" y="-1354.5" font-family="Helvetica,sans-Serif" font-size="10.00">||}</text>
</a>
</g>
</g>
<!-- Node2&#45;&gt;Node1 -->
<g id="edge1" class="edge">
<title>Node2&#45;&gt;Node1</title>
<path fill="none" stroke="#404040" d="M948.19,-1347.18C960.22,-1312.64 989,-1221.83 989,-1143.5 989,-1143.5 989,-1143.5 989,-448.5 989,-385.78 959.76,-321.94 929.8,-272.98"/>
<polygon fill="none" stroke="#404040" points="929.85,-273.07 923.28,-270.11 923.48,-262.9 930.05,-265.86 929.85,-273.07"/>
<text text-anchor="middle" x="1015.5" y="-782.5" font-family="Helvetica,sans-Serif" font-size="10.00"> &#45;pServerIds</text>
</g>
<!-- Node3 -->
<g id="node3" class="node">
<title>Node3</title>
<g id="a_node3"><a xlink:title=" ">
<polygon fill="white" stroke="#666666" points="965,-1581 921,-1581 921,-1551 965,-1551 965,-1581"/>
<text text-anchor="middle" x="943" y="-1569" font-family="Helvetica,sans-Serif" font-size="10.00">{int8_t</text>
<text text-anchor="middle" x="943" y="-1558" font-family="Helvetica,sans-Serif" font-size="10.00">||}</text>
</a>
</g>
</g>
<!-- Node3&#45;&gt;Node1 -->
<g id="edge5" class="edge">
<title>Node3&#45;&gt;Node1</title>
<path fill="none" stroke="#404040" d="M954.82,-1550.57C966.76,-1537.04 986.47,-1517.38 1008,-1507 1050.65,-1486.44 1078.21,-1521.12 1113,-1489 1155.3,-1449.95 1145,-1421.06 1145,-1363.5 1145,-1363.5 1145,-1363.5 1145,-448.5 1145,-333.28 1016.98,-253.94 934.38,-214.74"/>
<polygon fill="none" stroke="#404040" points="934.5,-214.79 927.37,-215.89 923.61,-209.74 930.74,-208.64 934.5,-214.79"/>
<text text-anchor="middle" x="1154.5" y="-903.5" font-family="Helvetica,sans-Serif" font-size="10.00"> &#45;pId</text>
</g>
<!-- Node3&#45;&gt;Node2 -->
<g id="edge2" class="edge">
<title>Node3&#45;&gt;Node2</title>
<path fill="none" stroke="#404040" d="M943,-1550.51C943,-1517.03 943,-1433.9 943,-1390.63"/>
<polygon fill="none" stroke="#404040" points="943,-1390.76 939,-1384.76 943,-1378.76 947,-1384.76 943,-1390.76"/>
<text text-anchor="middle" x="967.5" y="-1475.5" font-family="Helvetica,sans-Serif" font-size="10.00"> +elements</text>
</g>
<!-- Node8 -->
<g id="node8" class="node">
<title>Node8</title>
<g id="a_node8"><a xlink:href="classrtype_1_1entities_1_1Entity.html" target="_top" xlink:title=" ">
<polygon fill="white" stroke="#666666" points="587.5,-756 482.5,-756 482.5,-517 587.5,-517 587.5,-756"/>
<text text-anchor="middle" x="535" y="-744" font-family="Helvetica,sans-Serif" font-size="10.00">{rtype::entities::Entity</text>
<text text-anchor="start" x="490.5" y="-733" font-family="Helvetica,sans-Serif" font-size="10.00">||+ Entity()</text>
<text text-anchor="start" x="490.5" y="-722" font-family="Helvetica,sans-Serif" font-size="10.00">+ Entity()</text>
<text text-anchor="start" x="490.5" y="-711" font-family="Helvetica,sans-Serif" font-size="10.00">+ Entity()</text>
<text text-anchor="start" x="490.5" y="-700" font-family="Helvetica,sans-Serif" font-size="10.00">+ Entity()</text>
<text text-anchor="start" x="490.5" y="-689" font-family="Helvetica,sans-Serif" font-size="10.00">+ ~Entity()</text>
<text text-anchor="start" x="490.5" y="-678" font-family="Helvetica,sans-Serif" font-size="10.00">+ ~Entity()</text>
<text text-anchor="start" x="490.5" y="-667" font-family="Helvetica,sans-Serif" font-size="10.00">+ addComponent()</text>
<text text-anchor="start" x="490.5" y="-656" font-family="Helvetica,sans-Serif" font-size="10.00">+ draw()</text>
<text text-anchor="start" x="490.5" y="-645" font-family="Helvetica,sans-Serif" font-size="10.00">+ getEntityId()</text>
<text text-anchor="start" x="490.5" y="-634" font-family="Helvetica,sans-Serif" font-size="10.00">+ getIndex()</text>
<text text-anchor="start" x="490.5" y="-623" font-family="Helvetica,sans-Serif" font-size="10.00">+ getPos()</text>
<text text-anchor="start" x="490.5" y="-612" font-family="Helvetica,sans-Serif" font-size="10.00">+ getVelocity()</text>
<text text-anchor="start" x="490.5" y="-601" font-family="Helvetica,sans-Serif" font-size="10.00">+ getX()</text>
<text text-anchor="start" x="490.5" y="-590" font-family="Helvetica,sans-Serif" font-size="10.00">+ getY()</text>
<text text-anchor="start" x="490.5" y="-579" font-family="Helvetica,sans-Serif" font-size="10.00">+ handleEvent()</text>
<text text-anchor="start" x="490.5" y="-568" font-family="Helvetica,sans-Serif" font-size="10.00">+ removeComp()</text>
<text text-anchor="start" x="490.5" y="-557" font-family="Helvetica,sans-Serif" font-size="10.00">+ setPosition()</text>
<text text-anchor="start" x="490.5" y="-546" font-family="Helvetica,sans-Serif" font-size="10.00">+ setVelocity()</text>
<text text-anchor="start" x="490.5" y="-535" font-family="Helvetica,sans-Serif" font-size="10.00">+ updates()</text>
<text text-anchor="middle" x="535" y="-524" font-family="Helvetica,sans-Serif" font-size="10.00">}</text>
</a>
</g>
</g>
<!-- Node3&#45;&gt;Node8 -->
<g id="edge9" class="edge">
<title>Node3&#45;&gt;Node8</title>
<path fill="none" stroke="#404040" d="M921.21,-1550.58C902.04,-1536.85 874.66,-1514.53 858,-1489 742.79,-1312.44 759.2,-1243.24 711,-1038 687.99,-940.04 713.57,-908.13 678,-814 660.81,-768.5 626.99,-725.88 596.56,-693.92"/>
<polygon fill="none" stroke="#404040" points="596.66,-694.03 589.61,-692.51 588.3,-685.42 595.35,-686.94 596.66,-694.03"/>
<text text-anchor="middle" x="756" y="-1140" font-family="Helvetica,sans-Serif" font-size="10.00"> #Id</text>
</g>
<!-- Node13 -->
<g id="node13" class="node">
<title>Node13</title>
<g id="a_node13"><a xlink:href="classrtype_1_1components_1_1Component.html" target="_top" xlink:title=" ">
<polygon fill="white" stroke="#666666" points="146.5,-1449 43.5,-1449 43.5,-1276 146.5,-1276 146.5,-1449"/>
<text text-anchor="start" x="51.5" y="-1437" font-family="Helvetica,sans-Serif" font-size="10.00">{rtype::components::</text>
<text text-anchor="middle" x="95" y="-1426" font-family="Helvetica,sans-Serif" font-size="10.00">Component</text>
<text text-anchor="start" x="51.5" y="-1415" font-family="Helvetica,sans-Serif" font-size="10.00">||+ Component()</text>
<text text-anchor="start" x="51.5" y="-1404" font-family="Helvetica,sans-Serif" font-size="10.00">+ Component()</text>
<text text-anchor="start" x="51.5" y="-1393" font-family="Helvetica,sans-Serif" font-size="10.00">+ ~Component()</text>
<text text-anchor="start" x="51.5" y="-1382" font-family="Helvetica,sans-Serif" font-size="10.00">+ draw()</text>
<text text-anchor="start" x="51.5" y="-1371" font-family="Helvetica,sans-Serif" font-size="10.00">+ getId()</text>
<text text-anchor="start" x="51.5" y="-1360" font-family="Helvetica,sans-Serif" font-size="10.00">+ getOwnerId()</text>
<text text-anchor="start" x="51.5" y="-1349" font-family="Helvetica,sans-Serif" font-size="10.00">+ handleEvent()</text>
<text text-anchor="start" x="51.5" y="-1338" font-family="Helvetica,sans-Serif" font-size="10.00">+ handleEvent()</text>
<text text-anchor="start" x="51.5" y="-1327" font-family="Helvetica,sans-Serif" font-size="10.00">+ init()</text>
<text text-anchor="start" x="51.5" y="-1316" font-family="Helvetica,sans-Serif" font-size="10.00">+ pName()</text>
<text text-anchor="start" x="51.5" y="-1305" font-family="Helvetica,sans-Serif" font-size="10.00">+ printSMthing()</text>
<text text-anchor="start" x="51.5" y="-1294" font-family="Helvetica,sans-Serif" font-size="10.00">+ update()</text>
<text text-anchor="middle" x="95" y="-1283" font-family="Helvetica,sans-Serif" font-size="10.00">}</text>
</a>
</g>
</g>
<!-- Node3&#45;&gt;Node13 -->
<g id="edge17" class="edge">
<title>Node3&#45;&gt;Node13</title>
<path fill="none" stroke="#404040" d="M920.73,-1553.47C893.5,-1539.94 845.64,-1517.96 802,-1507 725.74,-1487.85 701.6,-1510.6 626,-1489 604.59,-1482.88 602.56,-1472.53 581,-1467 499.33,-1446.05 280.89,-1478.77 202,-1449 186.22,-1443.05 170.97,-1433.83 157.17,-1423.61"/>
<polygon fill="none" stroke="#404040" points="157.1,-1423.56 149.91,-1423.04 147.63,-1416.2 154.82,-1416.72 157.1,-1423.56"/>
<text text-anchor="middle" x="647.5" y="-1481" font-family="Helvetica,sans-Serif" font-size="10.00"> +Id</text>
<text text-anchor="middle" x="647.5" y="-1470" font-family="Helvetica,sans-Serif" font-size="10.00">+OwnerId</text>
</g>
<!-- Node26 -->
<g id="node26" class="node">
<title>Node26</title>
<g id="a_node26"><a xlink:title=" ">
<polygon fill="white" stroke="#666666" points="1110.5,-1377.5 1019.5,-1377.5 1019.5,-1347.5 1110.5,-1347.5 1110.5,-1377.5"/>
<text text-anchor="middle" x="1065" y="-1365.5" font-family="Helvetica,sans-Serif" font-size="10.00">{std::list&lt; int8_t &gt;</text>
<text text-anchor="middle" x="1065" y="-1354.5" font-family="Helvetica,sans-Serif" font-size="10.00">||}</text>
</a>
</g>
</g>
<!-- Node3&#45;&gt;Node26 -->
<g id="edge41" class="edge">
<title>Node3&#45;&gt;Node26</title>
<path fill="none" stroke="#404040" d="M952.85,-1550.6C963.13,-1535.44 979.6,-1510.79 993,-1489 1013.92,-1454.98 1036.63,-1414.81 1050.83,-1389.25"/>
<polygon fill="none" stroke="#404040" points="1050.83,-1389.26 1050.23,-1382.07 1056.64,-1378.76 1057.23,-1385.95 1050.83,-1389.26"/>
<text text-anchor="middle" x="1029.5" y="-1475.5" font-family="Helvetica,sans-Serif" font-size="10.00"> +elements</text>
</g>
<!-- Node4 -->
<g id="node4" class="node">
<title>Node4</title>
<g id="a_node4"><a xlink:title=" ">
<polygon fill="white" stroke="#666666" points="792.5,-1581 705.5,-1581 705.5,-1551 792.5,-1551 792.5,-1581"/>
<text text-anchor="middle" x="749" y="-1569" font-family="Helvetica,sans-Serif" font-size="10.00">{std::vector&lt; T &gt;</text>
<text text-anchor="middle" x="749" y="-1558" font-family="Helvetica,sans-Serif" font-size="10.00">||}</text>
</a>
</g>
</g>
<!-- Node4&#45;&gt;Node1 -->
<g id="edge32" class="edge">
<title>Node4&#45;&gt;Node1</title>
<path fill="none" stroke="#404040" d="M754.5,-1550.52C762.62,-1528.74 777.96,-1486.12 788,-1449 902.59,-1025.29 900.65,-908.59 918,-470 918.72,-451.79 919.92,-447.12 918,-429 916.44,-414.28 914.36,-399.14 911.93,-383.96"/>
<polygon fill="none" stroke="#404040" points="911.93,-383.94 907,-378.67 909.96,-372.1 914.89,-377.36 911.93,-383.94"/>
<text text-anchor="middle" x="920.5" y="-903.5" font-family="Helvetica,sans-Serif" font-size="10.00"> &#45;entities</text>
</g>
<!-- Node4&#45;&gt;Node2 -->
<g id="edge3" class="edge">
<title>Node4&#45;&gt;Node2</title>
<path fill="none" stroke="orange" d="M770.83,-1542.33C811.07,-1500.53 895.89,-1412.43 929.17,-1377.86"/>
<polygon fill="orange" stroke="orange" points="768.42,-1539.79 764,-1549.42 773.46,-1544.64 768.42,-1539.79"/>
<text text-anchor="middle" x="861.5" y="-1475.5" font-family="Helvetica,sans-Serif" font-size="10.00"> &lt; int8_t &gt;</text>
</g>
<!-- Node7 -->
<g id="node7" class="node">
<title>Node7</title>
<g id="a_node7"><a xlink:title=" ">
<polygon fill="white" stroke="#666666" points="582,-470 488,-470 488,-429 582,-429 582,-470"/>
<text text-anchor="start" x="496" y="-458" font-family="Helvetica,sans-Serif" font-size="10.00">{std::vector&lt; rtype</text>
<text text-anchor="middle" x="535" y="-447" font-family="Helvetica,sans-Serif" font-size="10.00">::entities::Entity &gt;</text>
<text text-anchor="middle" x="535" y="-436" font-family="Helvetica,sans-Serif" font-size="10.00">||}</text>
</a>
</g>
</g>
<!-- Node4&#45;&gt;Node7 -->
<g id="edge31" class="edge">
<title>Node4&#45;&gt;Node7</title>
<path fill="none" stroke="orange" d="M748.69,-1539.26C747.09,-1439.7 737.26,-1070.6 678,-774 651.89,-643.33 666.5,-595.68 588,-488 583.15,-481.35 576.76,-475.44 570.1,-470.4"/>
<polygon fill="orange" stroke="orange" points="745.19,-1539.07 748.84,-1549.02 752.19,-1538.97 745.19,-1539.07"/>
<text text-anchor="start" x="717" y="-1030" font-family="Helvetica,sans-Serif" font-size="10.00"> &lt; rtype::entities::</text>
<text text-anchor="middle" x="753.5" y="-1019" font-family="Helvetica,sans-Serif" font-size="10.00">Entity &gt;</text>
</g>
<!-- Node10 -->
<g id="node10" class="node">
<title>Node10</title>
<g id="a_node10"><a xlink:title=" ">
<polygon fill="white" stroke="#666666" points="662,-1377.5 570,-1377.5 570,-1347.5 662,-1347.5 662,-1377.5"/>
<text text-anchor="middle" x="616" y="-1365.5" font-family="Helvetica,sans-Serif" font-size="10.00">{std::vector&lt; int &gt;</text>
<text text-anchor="middle" x="616" y="-1354.5" font-family="Helvetica,sans-Serif" font-size="10.00">||}</text>
</a>
</g>
</g>
<!-- Node4&#45;&gt;Node10 -->
<g id="edge13" class="edge">
<title>Node4&#45;&gt;Node10</title>
<path fill="none" stroke="orange" d="M728.36,-1542.36C715.46,-1527.68 698.91,-1507.85 686,-1489 659.78,-1450.71 634.71,-1401.81 622.96,-1377.93"/>
<polygon fill="orange" stroke="orange" points="725.58,-1544.5 734.85,-1549.64 730.81,-1539.85 725.58,-1544.5"/>
<text text-anchor="middle" x="701" y="-1475.5" font-family="Helvetica,sans-Serif" font-size="10.00"> &lt; int &gt;</text>
</g>
<!-- Node25 -->
<g id="node25" class="node">
<title>Node25</title>
<g id="a_node25"><a xlink:title=" ">
<polygon fill="white" stroke="#666666" points="726,-464.5 600,-464.5 600,-434.5 726,-434.5 726,-464.5"/>
<text text-anchor="middle" x="663" y="-452.5" font-family="Helvetica,sans-Serif" font-size="10.00">{std::vector&lt; sf::Texture &gt;</text>
<text text-anchor="middle" x="663" y="-441.5" font-family="Helvetica,sans-Serif" font-size="10.00">||}</text>
</a>
</g>
</g>
<!-- Node4&#45;&gt;Node25 -->
<g id="edge39" class="edge">
<title>Node4&#45;&gt;Node25</title>
<path fill="none" stroke="orange" d="M752.6,-1539.59C763.16,-1463.64 793.92,-1231.62 804,-1038 810.38,-915.33 821.53,-587.13 749,-488 741.5,-477.75 730.58,-470.26 719.03,-464.81"/>
<polygon fill="orange" stroke="orange" points="749.16,-1538.9 751.24,-1549.29 756.1,-1539.87 749.16,-1538.9"/>
<text text-anchor="middle" x="837" y="-1024.5" font-family="Helvetica,sans-Serif" font-size="10.00"> &lt; sf::Texture &gt;</text>
</g>
<!-- Node5 -->
<g id="node5" class="node">
<title>Node5</title>
<g id="a_node5"><a xlink:title=" ">
<polygon fill="white" stroke="#666666" points="518.5,-1707.5 489.5,-1707.5 489.5,-1677.5 518.5,-1677.5 518.5,-1707.5"/>
<text text-anchor="middle" x="504" y="-1695.5" font-family="Helvetica,sans-Serif" font-size="10.00">{T</text>
<text text-anchor="middle" x="504" y="-1684.5" font-family="Helvetica,sans-Serif" font-size="10.00">||}</text>
</a>
</g>
</g>
<!-- Node5&#45;&gt;Node4 -->
<g id="edge4" class="edge">
<title>Node5&#45;&gt;Node4</title>
<path fill="none" stroke="#404040" d="M518.96,-1683.9C556.12,-1665.01 653.66,-1615.45 709.06,-1587.29"/>
<polygon fill="none" stroke="#404040" points="709.03,-1587.31 712.57,-1581.02 719.73,-1581.87 716.2,-1588.16 709.03,-1587.31"/>
<text text-anchor="middle" x="622.5" y="-1646" font-family="Helvetica,sans-Serif" font-size="10.00"> +elements</text>
</g>
<!-- Node17 -->
<g id="node17" class="node">
<title>Node17</title>
<g id="a_node17"><a xlink:title=" ">
<polygon fill="white" stroke="#666666" points="320.5,-1581 239.5,-1581 239.5,-1551 320.5,-1551 320.5,-1581"/>
<text text-anchor="middle" x="280" y="-1569" font-family="Helvetica,sans-Serif" font-size="10.00">{std::array&lt; T &gt;</text>
<text text-anchor="middle" x="280" y="-1558" font-family="Helvetica,sans-Serif" font-size="10.00">||}</text>
</a>
</g>
</g>
<!-- Node5&#45;&gt;Node17 -->
<g id="edge21" class="edge">
<title>Node5&#45;&gt;Node17</title>
<path fill="none" stroke="#404040" d="M489,-1691.58C458.34,-1691.04 387.38,-1686.13 340,-1654 317.72,-1638.89 301.27,-1612.53 291.29,-1592.77"/>
<polygon fill="none" stroke="#404040" points="291.33,-1592.85 285.14,-1589.15 286.18,-1582.02 292.36,-1585.72 291.33,-1592.85"/>
<text text-anchor="middle" x="364.5" y="-1646" font-family="Helvetica,sans-Serif" font-size="10.00"> +elements</text>
</g>
<!-- Node19 -->
<g id="node19" class="node">
<title>Node19</title>
<g id="a_node19"><a xlink:title=" ">
<polygon fill="white" stroke="#666666" points="426,-1377.5 332,-1377.5 332,-1347.5 426,-1347.5 426,-1377.5"/>
<text text-anchor="middle" x="379" y="-1365.5" font-family="Helvetica,sans-Serif" font-size="10.00">{std::array&lt; T, N &gt;</text>
<text text-anchor="middle" x="379" y="-1354.5" font-family="Helvetica,sans-Serif" font-size="10.00">||}</text>
</a>
</g>
</g>
<!-- Node5&#45;&gt;Node19 -->
<g id="edge25" class="edge">
<title>Node5&#45;&gt;Node19</title>
<path fill="none" stroke="#404040" d="M489.15,-1683.59C470.67,-1672.91 439.63,-1652.06 424,-1625 379.97,-1548.78 376.6,-1440.65 377.72,-1390.71"/>
<polygon fill="none" stroke="#404040" points="377.71,-1390.87 373.91,-1384.74 378.11,-1378.88 381.91,-1385.01 377.71,-1390.87"/>
<text text-anchor="middle" x="448.5" y="-1563.5" font-family="Helvetica,sans-Serif" font-size="10.00"> +elements</text>
</g>
<!-- Node27 -->
<g id="node27" class="node">
<title>Node27</title>
<g id="a_node27"><a xlink:title=" ">
<polygon fill="white" stroke="#666666" points="1089.5,-1581 1016.5,-1581 1016.5,-1551 1089.5,-1551 1089.5,-1581"/>
<text text-anchor="middle" x="1053" y="-1569" font-family="Helvetica,sans-Serif" font-size="10.00">{std::list&lt; T &gt;</text>
<text text-anchor="middle" x="1053" y="-1558" font-family="Helvetica,sans-Serif" font-size="10.00">||}</text>
</a>
</g>
</g>
<!-- Node5&#45;&gt;Node27 -->
<g id="edge43" class="edge">
<title>Node5&#45;&gt;Node27</title>
<path fill="none" stroke="#404040" d="M518.9,-1691.97C578.64,-1693.35 805.72,-1693.57 974,-1625 994.16,-1616.79 1013.9,-1602.29 1028.61,-1589.85"/>
<polygon fill="none" stroke="#404040" points="1028.67,-1589.8 1030.54,-1582.83 1037.68,-1581.87 1035.82,-1588.84 1028.67,-1589.8"/>
<text text-anchor="middle" x="937.5" y="-1646" font-family="Helvetica,sans-Serif" font-size="10.00"> +elements</text>
</g>
<!-- Node6 -->
<g id="node6" class="node">
<title>Node6</title>
<g id="a_node6"><a xlink:title=" ">
<polygon fill="white" stroke="#666666" points="829.5,-464.5 744.5,-464.5 744.5,-434.5 829.5,-434.5 829.5,-464.5"/>
<text text-anchor="middle" x="787" y="-452.5" font-family="Helvetica,sans-Serif" font-size="10.00">{RenderWindow</text>
<text text-anchor="middle" x="787" y="-441.5" font-family="Helvetica,sans-Serif" font-size="10.00">||}</text>
</a>
</g>
</g>
<!-- Node6&#45;&gt;Node1 -->
<g id="edge6" class="edge">
<title>Node6&#45;&gt;Node1</title>
<path fill="none" stroke="#404040" d="M791.36,-434.04C794.88,-422.37 800.27,-404.49 806.58,-383.57"/>
<polygon fill="none" stroke="#404040" points="806.56,-383.63 804.46,-376.74 810.02,-372.15 812.12,-379.05 806.56,-383.63"/>
<text text-anchor="middle" x="823.5" y="-397.5" font-family="Helvetica,sans-Serif" font-size="10.00"> &#45;window</text>
</g>
<!-- Node7&#45;&gt;Node1 -->
<g id="edge7" class="edge">
<title>Node7&#45;&gt;Node1</title>
<path fill="none" stroke="#404040" d="M560.15,-428.59C610.51,-388.73 725.2,-297.95 798.94,-239.58"/>
<polygon fill="none" stroke="#404040" points="798.95,-239.57 801.17,-232.71 808.36,-232.13 806.14,-238.99 798.95,-239.57"/>
<text text-anchor="middle" x="625.5" y="-397.5" font-family="Helvetica,sans-Serif" font-size="10.00"> &#45;entities</text>
</g>
<!-- Node8&#45;&gt;Node7 -->
<g id="edge8" class="edge">
<title>Node8&#45;&gt;Node7</title>
<path fill="none" stroke="#404040" d="M535,-516.51C535,-504.4 535,-492.95 535,-483.09"/>
<polygon fill="none" stroke="#404040" points="535,-483.22 531,-477.22 535,-471.22 539,-477.22 535,-483.22"/>
<text text-anchor="middle" x="559.5" y="-491" font-family="Helvetica,sans-Serif" font-size="10.00"> +elements</text>
</g>
<!-- Node9 -->
<g id="node9" class="node">
<title>Node9</title>
<g id="a_node9"><a xlink:href="classUtils_1_1SparseArray.html" target="_top" xlink:title=" ">
<polygon fill="white" stroke="#666666" points="485,-998 379,-998 379,-814 485,-814 485,-998"/>
<text text-anchor="start" x="387" y="-986" font-family="Helvetica,sans-Serif" font-size="10.00">{Utils::SparseArray</text>
<text text-anchor="start" x="387" y="-975" font-family="Helvetica,sans-Serif" font-size="10.00">&lt; rtype::components</text>
<text text-anchor="middle" x="432" y="-964" font-family="Helvetica,sans-Serif" font-size="10.00">::Component *, 100 &gt;</text>
<text text-anchor="start" x="387" y="-953" font-family="Helvetica,sans-Serif" font-size="10.00">||+ SparseArray()</text>
<text text-anchor="start" x="387" y="-942" font-family="Helvetica,sans-Serif" font-size="10.00">+ ~SparseArray()</text>
<text text-anchor="start" x="387" y="-931" font-family="Helvetica,sans-Serif" font-size="10.00">+ addElement()</text>
<text text-anchor="start" x="387" y="-920" font-family="Helvetica,sans-Serif" font-size="10.00">+ back()</text>
<text text-anchor="start" x="387" y="-909" font-family="Helvetica,sans-Serif" font-size="10.00">+ front()</text>
<text text-anchor="start" x="387" y="-898" font-family="Helvetica,sans-Serif" font-size="10.00">+ getElemAt()</text>
<text text-anchor="start" x="387" y="-887" font-family="Helvetica,sans-Serif" font-size="10.00">+ getList()</text>
<text text-anchor="start" x="387" y="-876" font-family="Helvetica,sans-Serif" font-size="10.00">+ getShortList()</text>
<text text-anchor="start" x="387" y="-865" font-family="Helvetica,sans-Serif" font-size="10.00">+ getUsedId()</text>
<text text-anchor="start" x="387" y="-854" font-family="Helvetica,sans-Serif" font-size="10.00">+ insertAt()</text>
<text text-anchor="start" x="387" y="-843" font-family="Helvetica,sans-Serif" font-size="10.00">+ removeElem()</text>
<text text-anchor="start" x="387" y="-832" font-family="Helvetica,sans-Serif" font-size="10.00">+ updateElem()</text>
<text text-anchor="middle" x="432" y="-821" font-family="Helvetica,sans-Serif" font-size="10.00">}</text>
</a>
</g>
</g>
<!-- Node9&#45;&gt;Node8 -->
<g id="edge10" class="edge">
<title>Node9&#45;&gt;Node8</title>
<path fill="none" stroke="#404040" d="M467.16,-813.69C472.82,-798.98 478.78,-783.5 484.72,-768.07"/>
<polygon fill="none" stroke="#404040" points="484.62,-768.34 483.04,-761.31 488.93,-757.15 490.51,-764.18 484.62,-768.34"/>
<text text-anchor="middle" x="499.5" y="-782.5" font-family="Helvetica,sans-Serif" font-size="10.00"> #comps</text>
</g>
<!-- Node10&#45;&gt;Node9 -->
<g id="edge11" class="edge">
<title>Node10&#45;&gt;Node9</title>
<path fill="none" stroke="#404040" d="M618.88,-1347.09C627.16,-1302.61 648.56,-1163.92 617,-1056 611.24,-1036.32 610.77,-1027.81 594,-1016 560.11,-992.13 536.1,-1017.62 496.27,-997.92"/>
<polygon fill="none" stroke="#404040" points="496.35,-997.97 489.15,-998.41 485.97,-991.94 493.17,-991.5 496.35,-997.97"/>
<text text-anchor="middle" x="650" y="-1140" font-family="Helvetica,sans-Serif" font-size="10.00"> #inUse</text>
</g>
<!-- Node18 -->
<g id="node18" class="node">
<title>Node18</title>
<g id="a_node18"><a xlink:href="classUtils_1_1SparseArray.html" target="_top" xlink:title=" ">
<polygon fill="white" stroke="#666666" points="608,-1229 510,-1229 510,-1056 608,-1056 608,-1229"/>
<text text-anchor="start" x="518" y="-1217" font-family="Helvetica,sans-Serif" font-size="10.00">{Utils::SparseArray</text>
<text text-anchor="middle" x="559" y="-1206" font-family="Helvetica,sans-Serif" font-size="10.00">&lt; T, N &gt;</text>
<text text-anchor="start" x="518" y="-1195" font-family="Helvetica,sans-Serif" font-size="10.00">||+ SparseArray()</text>
<text text-anchor="start" x="518" y="-1184" font-family="Helvetica,sans-Serif" font-size="10.00">+ ~SparseArray()</text>
<text text-anchor="start" x="518" y="-1173" font-family="Helvetica,sans-Serif" font-size="10.00">+ addElement()</text>
<text text-anchor="start" x="518" y="-1162" font-family="Helvetica,sans-Serif" font-size="10.00">+ back()</text>
<text text-anchor="start" x="518" y="-1151" font-family="Helvetica,sans-Serif" font-size="10.00">+ front()</text>
<text text-anchor="start" x="518" y="-1140" font-family="Helvetica,sans-Serif" font-size="10.00">+ getElemAt()</text>
<text text-anchor="start" x="518" y="-1129" font-family="Helvetica,sans-Serif" font-size="10.00">+ getList()</text>
<text text-anchor="start" x="518" y="-1118" font-family="Helvetica,sans-Serif" font-size="10.00">+ getShortList()</text>
<text text-anchor="start" x="518" y="-1107" font-family="Helvetica,sans-Serif" font-size="10.00">+ getUsedId()</text>
<text text-anchor="start" x="518" y="-1096" font-family="Helvetica,sans-Serif" font-size="10.00">+ insertAt()</text>
<text text-anchor="start" x="518" y="-1085" font-family="Helvetica,sans-Serif" font-size="10.00">+ removeElem()</text>
<text text-anchor="start" x="518" y="-1074" font-family="Helvetica,sans-Serif" font-size="10.00">+ updateElem()</text>
<text text-anchor="middle" x="559" y="-1063" font-family="Helvetica,sans-Serif" font-size="10.00">}</text>
</a>
</g>
</g>
<!-- Node10&#45;&gt;Node18 -->
<g id="edge23" class="edge">
<title>Node10&#45;&gt;Node18</title>
<path fill="none" stroke="#404040" d="M612.26,-1347.2C606.6,-1325.56 595.4,-1282.7 584.72,-1241.85"/>
<polygon fill="none" stroke="#404040" points="584.69,-1241.75 579.3,-1236.96 581.65,-1230.14 587.04,-1234.93 584.69,-1241.75"/>
<text text-anchor="middle" x="605" y="-1250" font-family="Helvetica,sans-Serif" font-size="10.00"> #inUse</text>
</g>
<!-- Node11 -->
<g id="node11" class="node">
<title>Node11</title>
<g id="a_node11"><a xlink:title=" ">
<polygon fill="white" stroke="#666666" points="512,-1581 482,-1581 482,-1551 512,-1551 512,-1581"/>
<text text-anchor="middle" x="497" y="-1569" font-family="Helvetica,sans-Serif" font-size="10.00">{int</text>
<text text-anchor="middle" x="497" y="-1558" font-family="Helvetica,sans-Serif" font-size="10.00">||}</text>
</a>
</g>
</g>
<!-- Node11&#45;&gt;Node8 -->
<g id="edge30" class="edge">
<title>Node11&#45;&gt;Node8</title>
<path fill="none" stroke="#404040" d="M494.57,-1550.65C480.72,-1469.04 412.17,-1066.73 405,-1056 396.78,-1043.7 385.19,-1050.32 377,-1038 367.01,-1022.97 371.56,-1015.98 370,-998 362.93,-916.53 339.98,-890.07 370,-814 390.64,-761.71 434.89,-715.79 472.37,-683.91"/>
<polygon fill="none" stroke="#404040" points="472.32,-683.95 474.38,-677.04 481.55,-676.28 479.49,-683.19 472.32,-683.95"/>
<text text-anchor="middle" x="469" y="-1145.5" font-family="Helvetica,sans-Serif" font-size="10.00"> &#45;e_health</text>
<text text-anchor="middle" x="469" y="-1134.5" font-family="Helvetica,sans-Serif" font-size="10.00">&#45;e_maxBonus</text>
</g>
<!-- Node11&#45;&gt;Node10 -->
<g id="edge12" class="edge">
<title>Node11&#45;&gt;Node10</title>
<path fill="none" stroke="#404040" d="M500.46,-1550.72C505.59,-1531.05 516.32,-1494.87 532,-1467 548.81,-1437.11 574.3,-1407.15 592.79,-1387.21"/>
<polygon fill="none" stroke="#404040" points="592.88,-1387.12 594.09,-1380.02 601.12,-1378.41 599.91,-1385.51 592.88,-1387.12"/>
<text text-anchor="middle" x="556.5" y="-1475.5" font-family="Helvetica,sans-Serif" font-size="10.00"> +elements</text>
</g>
<!-- Node12 -->
<g id="node12" class="node">
<title>Node12</title>
<g id="a_node12"><a xlink:title=" ">
<polygon fill="white" stroke="#666666" points="396,-1168.5 272,-1168.5 272,-1116.5 396,-1116.5 396,-1168.5"/>
<text text-anchor="start" x="280" y="-1156.5" font-family="Helvetica,sans-Serif" font-size="10.00">{std::array&lt; rtype::</text>
<text text-anchor="start" x="280" y="-1145.5" font-family="Helvetica,sans-Serif" font-size="10.00">components::Component</text>
<text text-anchor="middle" x="334" y="-1134.5" font-family="Helvetica,sans-Serif" font-size="10.00"> *, N &gt;</text>
<text text-anchor="middle" x="334" y="-1123.5" font-family="Helvetica,sans-Serif" font-size="10.00">||}</text>
</a>
</g>
</g>
<!-- Node12&#45;&gt;Node9 -->
<g id="edge14" class="edge">
<title>Node12&#45;&gt;Node9</title>
<path fill="none" stroke="#404040" d="M344.49,-1116.4C355.18,-1090.81 372.49,-1049.39 388.9,-1010.12"/>
<polygon fill="none" stroke="#404040" points="388.87,-1010.2 387.49,-1003.12 393.5,-999.13 394.87,-1006.21 388.87,-1010.2"/>
<text text-anchor="middle" x="403" y="-1024.5" font-family="Helvetica,sans-Serif" font-size="10.00"> #elems</text>
</g>
<!-- Node13&#45;&gt;Node12 -->
<g id="edge15" class="edge">
<title>Node13&#45;&gt;Node12</title>
<path fill="none" stroke="#404040" d="M132.87,-1275.76C140.81,-1264.77 150.14,-1254.69 161,-1247 196.8,-1221.68 219.81,-1250.55 258,-1229 279.05,-1217.12 297.27,-1197.2 310.59,-1179.58"/>
<polygon fill="none" stroke="#404040" points="310.68,-1179.46 310.94,-1172.25 317.7,-1169.73 317.43,-1176.93 310.68,-1179.46"/>
<text text-anchor="middle" x="185.5" y="-1250" font-family="Helvetica,sans-Serif" font-size="10.00"> +elements</text>
</g>
<!-- Node14 -->
<g id="node14" class="node">
<title>Node14</title>
<g id="a_node14"><a xlink:href="classrtype_1_1components_1_1IComponents.html" target="_top" xlink:title=" ">
<polygon fill="white" stroke="#666666" points="200.5,-1625 97.5,-1625 97.5,-1507 200.5,-1507 200.5,-1625"/>
<text text-anchor="start" x="105.5" y="-1613" font-family="Helvetica,sans-Serif" font-size="10.00">{rtype::components::</text>
<text text-anchor="middle" x="149" y="-1602" font-family="Helvetica,sans-Serif" font-size="10.00">IComponents</text>
<text text-anchor="start" x="105.5" y="-1591" font-family="Helvetica,sans-Serif" font-size="10.00">||+ draw()</text>
<text text-anchor="start" x="105.5" y="-1580" font-family="Helvetica,sans-Serif" font-size="10.00">+ getId()</text>
<text text-anchor="start" x="105.5" y="-1569" font-family="Helvetica,sans-Serif" font-size="10.00">+ getOwnerId()</text>
<text text-anchor="start" x="105.5" y="-1558" font-family="Helvetica,sans-Serif" font-size="10.00">+ handleEvent()</text>
<text text-anchor="start" x="105.5" y="-1547" font-family="Helvetica,sans-Serif" font-size="10.00">+ handleEvent()</text>
<text text-anchor="start" x="105.5" y="-1536" font-family="Helvetica,sans-Serif" font-size="10.00">+ init()</text>
<text text-anchor="start" x="105.5" y="-1525" font-family="Helvetica,sans-Serif" font-size="10.00">+ update()</text>
<text text-anchor="middle" x="149" y="-1514" font-family="Helvetica,sans-Serif" font-size="10.00">}</text>
</a>
</g>
</g>
<!-- Node14&#45;&gt;Node13 -->
<g id="edge16" class="edge">
<title>Node14&#45;&gt;Node13</title>
<path fill="none" stroke="#63b8ff" d="M130.51,-1496C126.49,-1481 122.19,-1464.95 118.02,-1449.39"/>
<polygon fill="none" stroke="#63b8ff" points="127.02,-1496.5 132.99,-1505.26 133.78,-1494.69 127.02,-1496.5"/>
</g>
<!-- Node15 -->
<g id="node15" class="node">
<title>Node15</title>
<g id="a_node15"><a xlink:title=" ">
<polygon fill="white" stroke="#666666" points="79,-1581 17,-1581 17,-1551 79,-1551 79,-1581"/>
<text text-anchor="middle" x="48" y="-1569" font-family="Helvetica,sans-Serif" font-size="10.00">{std::string</text>
<text text-anchor="middle" x="48" y="-1558" font-family="Helvetica,sans-Serif" font-size="10.00">||}</text>
</a>
</g>
</g>
<!-- Node15&#45;&gt;Node13 -->
<g id="edge18" class="edge">
<title>Node15&#45;&gt;Node13</title>
<path fill="none" stroke="#404040" d="M51.38,-1550.51C55.8,-1531.54 63.95,-1496.63 72.01,-1462.06"/>
<polygon fill="none" stroke="#404040" points="72.04,-1461.94 69.51,-1455.19 74.77,-1450.25 77.3,-1457 72.04,-1461.94"/>
<text text-anchor="middle" x="87.5" y="-1475.5" font-family="Helvetica,sans-Serif" font-size="10.00"> +name</text>
</g>
<!-- Node16 -->
<g id="node16" class="node">
<title>Node16</title>
<g id="a_node16"><a xlink:title=" ">
<polygon fill="white" stroke="#666666" points="96,-1713 0,-1713 0,-1672 96,-1672 96,-1713"/>
<text text-anchor="start" x="8" y="-1701" font-family="Helvetica,sans-Serif" font-size="10.00">{std::basic_string&lt;</text>
<text text-anchor="middle" x="48" y="-1690" font-family="Helvetica,sans-Serif" font-size="10.00"> Char &gt;</text>
<text text-anchor="middle" x="48" y="-1679" font-family="Helvetica,sans-Serif" font-size="10.00">||}</text>
</a>
</g>
</g>
<!-- Node16&#45;&gt;Node15 -->
<g id="edge19" class="edge">
<title>Node16&#45;&gt;Node15</title>
<path fill="none" stroke="#63b8ff" d="M48,-1660.52C48,-1635.15 48,-1600.41 48,-1581.21"/>
<polygon fill="none" stroke="#63b8ff" points="44.5,-1660.26 48,-1670.26 51.5,-1660.26 44.5,-1660.26"/>
</g>
<!-- Node17&#45;&gt;Node12 -->
<g id="edge20" class="edge">
<title>Node17&#45;&gt;Node12</title>
<path fill="none" stroke="orange" d="M266.76,-1540.38C255.25,-1517.47 239.43,-1481.99 233,-1449 218.29,-1373.53 208.4,-1348.85 233,-1276 241,-1252.3 284.32,-1200.12 311.56,-1168.78"/>
<polygon fill="orange" stroke="orange" points="263.62,-1541.92 271.32,-1549.2 269.84,-1538.71 263.62,-1541.92"/>
<text text-anchor="start" x="233" y="-1365.5" font-family="Helvetica,sans-Serif" font-size="10.00"> &lt; rtype::components</text>
<text text-anchor="middle" x="278" y="-1354.5" font-family="Helvetica,sans-Serif" font-size="10.00">::Component *, N &gt;</text>
</g>
<!-- Node17&#45;&gt;Node19 -->
<g id="edge26" class="edge">
<title>Node17&#45;&gt;Node19</title>
<path fill="none" stroke="orange" d="M292.19,-1540.19C313.12,-1497.59 355.24,-1411.86 371.94,-1377.86"/>
<polygon fill="orange" stroke="orange" points="289.06,-1538.63 287.79,-1549.15 295.34,-1541.72 289.06,-1538.63"/>
<text text-anchor="middle" x="346" y="-1475.5" font-family="Helvetica,sans-Serif" font-size="10.00"> &lt; T, N &gt;</text>
</g>
<!-- Node23 -->
<g id="node23" class="node">
<title>Node23</title>
<g id="a_node23"><a xlink:title=" ">
<polygon fill="white" stroke="#666666" points="278,-657 170,-657 170,-616 278,-616 278,-657"/>
<text text-anchor="start" x="178" y="-645" font-family="Helvetica,sans-Serif" font-size="10.00">{std::array&lt; sf::Sprite,</text>
<text text-anchor="middle" x="224" y="-634" font-family="Helvetica,sans-Serif" font-size="10.00"> 100 &gt;</text>
<text text-anchor="middle" x="224" y="-623" font-family="Helvetica,sans-Serif" font-size="10.00">||}</text>
</a>
</g>
</g>
<!-- Node17&#45;&gt;Node23 -->
<g id="edge35" class="edge">
<title>Node17&#45;&gt;Node23</title>
<path fill="none" stroke="orange" d="M258.63,-1542.08C227.93,-1506.66 175,-1435.2 175,-1363.5 175,-1363.5 175,-1363.5 175,-905 175,-811.04 204.61,-701.52 217.79,-657.41"/>
<polygon fill="orange" stroke="orange" points="256.01,-1544.4 265.27,-1549.55 261.24,-1539.75 256.01,-1544.4"/>
<text text-anchor="middle" x="214.5" y="-1140" font-family="Helvetica,sans-Serif" font-size="10.00"> &lt; sf::Sprite, 100 &gt;</text>
</g>
<!-- Node18&#45;&gt;Node9 -->
<g id="edge22" class="edge">
<title>Node18&#45;&gt;Node9</title>
<path fill="none" stroke="orange" d="M506.96,-1045.41C498.56,-1029.9 489.89,-1013.89 481.55,-998.5"/>
<polygon fill="orange" stroke="orange" points="503.87,-1047.06 511.71,-1054.18 510.03,-1043.72 503.87,-1047.06"/>
<text text-anchor="start" x="500" y="-1030" font-family="Helvetica,sans-Serif" font-size="10.00"> &lt; rtype::components</text>
<text text-anchor="middle" x="545" y="-1019" font-family="Helvetica,sans-Serif" font-size="10.00">::Component *, 100 &gt;</text>
</g>
<!-- Node19&#45;&gt;Node18 -->
<g id="edge24" class="edge">
<title>Node19&#45;&gt;Node18</title>
<path fill="none" stroke="#404040" d="M392.42,-1347.16C414.63,-1323.23 460.14,-1273.41 496,-1229 497.91,-1226.64 499.83,-1224.23 501.75,-1221.79"/>
<polygon fill="none" stroke="#404040" points="501.76,-1221.78 502.28,-1214.58 509.12,-1212.3 508.6,-1219.49 501.76,-1221.78"/>
<text text-anchor="middle" x="498" y="-1250" font-family="Helvetica,sans-Serif" font-size="10.00"> #elems</text>
</g>
<!-- Node20 -->
<g id="node20" class="node">
<title>Node20</title>
<g id="a_node20"><a xlink:title=" ">
<polygon fill="white" stroke="#666666" points="594.5,-921 503.5,-921 503.5,-891 594.5,-891 594.5,-921"/>
<text text-anchor="middle" x="549" y="-909" font-family="Helvetica,sans-Serif" font-size="10.00">{RectangleShape</text>
<text text-anchor="middle" x="549" y="-898" font-family="Helvetica,sans-Serif" font-size="10.00">||}</text>
</a>
</g>
</g>
<!-- Node20&#45;&gt;Node8 -->
<g id="edge27" class="edge">
<title>Node20&#45;&gt;Node8</title>
<path fill="none" stroke="#404040" d="M548.25,-890.62C547.01,-867.01 544.43,-817.76 541.88,-768.92"/>
<polygon fill="none" stroke="#404040" points="541.89,-769.08 537.58,-763.3 541.26,-757.1 545.57,-762.88 541.89,-769.08"/>
<text text-anchor="middle" x="560.5" y="-782.5" font-family="Helvetica,sans-Serif" font-size="10.00"> &#45;e_rect</text>
</g>
<!-- Node21 -->
<g id="node21" class="node">
<title>Node21</title>
<g id="a_node21"><a xlink:title=" ">
<polygon fill="white" stroke="#666666" points="275.5,-921 230.5,-921 230.5,-891 275.5,-891 275.5,-921"/>
<text text-anchor="middle" x="253" y="-909" font-family="Helvetica,sans-Serif" font-size="10.00">{Sprite</text>
<text text-anchor="middle" x="253" y="-898" font-family="Helvetica,sans-Serif" font-size="10.00">||}</text>
</a>
</g>
</g>
<!-- Node21&#45;&gt;Node8 -->
<g id="edge28" class="edge">
<title>Node21&#45;&gt;Node8</title>
<path fill="none" stroke="#404040" d="M254.45,-890.8C257.75,-864.91 267.94,-809.43 297,-774 342.41,-718.65 416.53,-681.25 470,-659.79"/>
<polygon fill="none" stroke="#404040" points="470.08,-659.76 474.21,-653.85 481.26,-655.39 477.12,-661.3 470.08,-659.76"/>
<text text-anchor="middle" x="317" y="-782.5" font-family="Helvetica,sans-Serif" font-size="10.00"> &#45;e_asset</text>
</g>
<!-- Node21&#45;&gt;Node23 -->
<g id="edge34" class="edge">
<title>Node21&#45;&gt;Node23</title>
<path fill="none" stroke="#404040" d="M248.14,-890.76C241.39,-870.15 229.49,-830.68 225,-796 219.39,-752.74 220.35,-702.27 221.89,-670.11"/>
<polygon fill="none" stroke="#404040" points="221.89,-670.01 218.22,-663.8 222.54,-658.02 226.21,-664.23 221.89,-670.01"/>
<text text-anchor="middle" x="249.5" y="-782.5" font-family="Helvetica,sans-Serif" font-size="10.00"> +elements</text>
</g>
<!-- Node22 -->
<g id="node22" class="node">
<title>Node22</title>
<g id="a_node22"><a xlink:title=" ">
<polygon fill="white" stroke="#666666" points="669,-921 613,-921 613,-891 669,-891 669,-921"/>
<text text-anchor="middle" x="641" y="-909" font-family="Helvetica,sans-Serif" font-size="10.00">{Vector2f</text>
<text text-anchor="middle" x="641" y="-898" font-family="Helvetica,sans-Serif" font-size="10.00">||}</text>
</a>
</g>
</g>
<!-- Node22&#45;&gt;Node8 -->
<g id="edge29" class="edge">
<title>Node22&#45;&gt;Node8</title>
<path fill="none" stroke="#404040" d="M635.3,-890.62C625.91,-866.91 606.26,-817.34 586.83,-768.3"/>
<polygon fill="none" stroke="#404040" points="586.79,-768.19 580.86,-764.09 582.37,-757.04 588.3,-761.14 586.79,-768.19"/>
<text text-anchor="middle" x="623" y="-782.5" font-family="Helvetica,sans-Serif" font-size="10.00"> &#45;e_position</text>
</g>
<!-- Node23&#45;&gt;Node1 -->
<g id="edge33" class="edge">
<title>Node23&#45;&gt;Node1</title>
<path fill="none" stroke="#404040" d="M242.62,-615.76C279.67,-577.13 366.17,-489.98 449,-429 564.78,-343.76 712.8,-263.79 797.76,-220.35"/>
<polygon fill="none" stroke="#404040" points="797.82,-220.32 801.35,-214.04 808.51,-214.88 804.98,-221.17 797.82,-220.32"/>
<text text-anchor="middle" x="464" y="-447" font-family="Helvetica,sans-Serif" font-size="10.00"> &#45;mobs</text>
</g>
<!-- Node24 -->
<g id="node24" class="node">
<title>Node24</title>
<g id="a_node24"><a xlink:title=" ">
<polygon fill="white" stroke="#666666" points="876,-651.5 824,-651.5 824,-621.5 876,-621.5 876,-651.5"/>
<text text-anchor="middle" x="850" y="-639.5" font-family="Helvetica,sans-Serif" font-size="10.00">{Texture</text>
<text text-anchor="middle" x="850" y="-628.5" font-family="Helvetica,sans-Serif" font-size="10.00">||}</text>
</a>
</g>
</g>
<!-- Node24&#45;&gt;Node1 -->
<g id="edge36" class="edge">
<title>Node24&#45;&gt;Node1</title>
<path fill="none" stroke="#404040" d="M850.51,-621.07C851.84,-583.86 855.51,-480.83 858.95,-384.43"/>
<polygon fill="none" stroke="#404040" points="858.95,-384.38 855.16,-378.24 859.38,-372.39 863.16,-378.53 858.95,-384.38"/>
<text text-anchor="middle" x="885.5" y="-452.5" font-family="Helvetica,sans-Serif" font-size="10.00"> &#45;texture</text>
<text text-anchor="middle" x="885.5" y="-441.5" font-family="Helvetica,sans-Serif" font-size="10.00">&#45;textureMobs</text>
</g>
<!-- Node24&#45;&gt;Node25 -->
<g id="edge38" class="edge">
<title>Node24&#45;&gt;Node25</title>
<path fill="none" stroke="#404040" d="M847.79,-621.37C842.29,-591.39 825.06,-521.45 780,-488 775.05,-484.33 750.72,-476.32 725.52,-468.65"/>
<polygon fill="none" stroke="#404040" points="725.51,-468.65 718.61,-470.75 714.02,-465.19 720.92,-463.09 725.51,-468.65"/>
<text text-anchor="middle" x="813.5" y="-491" font-family="Helvetica,sans-Serif" font-size="10.00"> +elements</text>
</g>
<!-- Node25&#45;&gt;Node1 -->
<g id="edge37" class="edge">
<title>Node25&#45;&gt;Node1</title>
<path fill="none" stroke="#404040" d="M674.2,-434.04C698.05,-403.26 755.4,-329.25 801.21,-270.12"/>
<polygon fill="none" stroke="#404040" points="801.13,-270.22 801.65,-263.03 808.48,-260.73 807.97,-267.93 801.13,-270.22"/>
<text text-anchor="middle" x="737" y="-403" font-family="Helvetica,sans-Serif" font-size="10.00"> &#45;textures</text>
<text text-anchor="middle" x="737" y="-392" font-family="Helvetica,sans-Serif" font-size="10.00">&#45;texturesMobs</text>
</g>
<!-- Node26&#45;&gt;Node1 -->
<g id="edge40" class="edge">
<title>Node26&#45;&gt;Node1</title>
<path fill="none" stroke="#404040" d="M1065,-1347.22C1065,-1312.39 1065,-1220.33 1065,-1143.5 1065,-1143.5 1065,-1143.5 1065,-448.5 1065,-359 990.45,-280.91 932.61,-233.79"/>
<polygon fill="none" stroke="#404040" points="932.84,-233.98 925.66,-233.36 923.46,-226.49 930.65,-227.11 932.84,-233.98"/>
<text text-anchor="middle" x="1086.5" y="-788" font-family="Helvetica,sans-Serif" font-size="10.00"> &#45;IDs</text>
<text text-anchor="middle" x="1086.5" y="-777" font-family="Helvetica,sans-Serif" font-size="10.00">&#45;IDsMobs</text>
</g>
<!-- Node27&#45;&gt;Node26 -->
<g id="edge42" class="edge">
<title>Node27&#45;&gt;Node26</title>
<path fill="none" stroke="orange" d="M1058.09,-1539.29C1060.73,-1524.62 1063.68,-1505.85 1065,-1489 1068.15,-1448.82 1066.75,-1401.17 1065.73,-1377.83"/>
<polygon fill="orange" stroke="orange" points="1054.66,-1538.55 1056.26,-1549.02 1061.54,-1539.84 1054.66,-1538.55"/>
<text text-anchor="middle" x="1087.5" y="-1475.5" font-family="Helvetica,sans-Serif" font-size="10.00"> &lt; int8_t &gt;</text>
</g>
</g>
</svg>
