<?xml version="1.0" encoding="UTF-8" standalone="no"?>
<!DOCTYPE svg PUBLIC "-//W3C//DTD SVG 1.1//EN"
 "http://www.w3.org/Graphics/SVG/1.1/DTD/svg11.dtd">
<!-- Generated by graphviz version 7.0.5 (20221223.1930)
 -->
<!-- Title: rtype::components::Bullets Pages: 1 -->
<!--zoomable 643 -->
<svg id="main" version="1.1" xmlns="http://www.w3.org/2000/svg" xmlns:xlink="http://www.w3.org/1999/xlink" xml:space="preserve" onload="init(evt)">
<style type="text/css"><![CDATA[
.edge:hover path { stroke: red; }
.edge:hover polygon { stroke: red; fill: red; }
]]></style>
<script type="text/javascript"><![CDATA[
var edges = document.getElementsByTagName('g');
if (edges && edges.length) {
  for (var i=0;i<edges.length;i++) {
    if (edges[i].id.substr(0,4)=='edge') {
      edges[i].setAttribute('class','edge');
    }
  }
}
]]></script>
        <defs>
                <circle id="rim" cx="0" cy="0" r="7"/>
                <circle id="rim2" cx="0" cy="0" r="3.5"/>
                <g id="zoomPlus">
                        <use xlink:href="#rim" fill="#404040">
                                <set attributeName="fill" to="#808080" begin="zoomplus.mouseover" end="zoomplus.mouseout"/>
                        </use>
                        <path d="M-4,0h8M0,-4v8" fill="none" stroke="white" stroke-width="1.5" pointer-events="none"/>
                </g>
                <g id="zoomMin">
                        <use xlink:href="#rim" fill="#404040">
                                <set attributeName="fill" to="#808080" begin="zoomminus.mouseover" end="zoomminus.mouseout"/>
                        </use>
                        <path d="M-4,0h8" fill="none" stroke="white" stroke-width="1.5" pointer-events="none"/>
                </g>
                <g id="dirArrow">
                        <path fill="none" stroke="white" stroke-width="1.5" d="M0,-3.0v7 M-2.5,-0.5L0,-3.0L2.5,-0.5"/>
                </g>
               <g id="resetDef">
                       <use xlink:href="#rim2" fill="#404040">
                               <set attributeName="fill" to="#808080" begin="reset.mouseover" end="reset.mouseout"/>
                       </use>
               </g>
        </defs>

<script type="text/javascript">
var viewWidth = 718;
var viewHeight = 643;
var sectionId = 'dynsection-1';
</script>
<script xlink:href="svgpan.js"/>
<svg id="graph" class="graph">
<g id="viewport">
<title>rtype::components::Bullets</title>
<!-- Node1 -->
<g id="node1" class="node">
<title>Node1</title>
<g id="a_node1"><a xlink:title="This class is the base class for all the bullets.">
<polygon fill="#999999" stroke="#666666" points="446,-140 336,-140 336,0 446,0 446,-140"/>
<text text-anchor="start" x="344" y="-128" font-family="Helvetica,sans-Serif" font-size="10.00">{rtype::components::</text>
<text text-anchor="middle" x="391" y="-117" font-family="Helvetica,sans-Serif" font-size="10.00">Bullets</text>
<text text-anchor="start" x="344" y="-106" font-family="Helvetica,sans-Serif" font-size="10.00">||+ Bullets()</text>
<text text-anchor="start" x="344" y="-95" font-family="Helvetica,sans-Serif" font-size="10.00">+ ~Bullets()</text>
<text text-anchor="start" x="344" y="-84" font-family="Helvetica,sans-Serif" font-size="10.00">+ collided()</text>
<text text-anchor="start" x="344" y="-73" font-family="Helvetica,sans-Serif" font-size="10.00">+ CreateBullet()</text>
<text text-anchor="start" x="344" y="-62" font-family="Helvetica,sans-Serif" font-size="10.00">+ draw()</text>
<text text-anchor="start" x="344" y="-51" font-family="Helvetica,sans-Serif" font-size="10.00">+ getBulletList()</text>
<text text-anchor="start" x="344" y="-40" font-family="Helvetica,sans-Serif" font-size="10.00">+ ServerShootBullet()</text>
<text text-anchor="start" x="344" y="-29" font-family="Helvetica,sans-Serif" font-size="10.00">+ ShootBullet()</text>
<text text-anchor="start" x="344" y="-18" font-family="Helvetica,sans-Serif" font-size="10.00">+ update()</text>
<text text-anchor="middle" x="391" y="-7" font-family="Helvetica,sans-Serif" font-size="10.00">}</text>
</a>
</g>
</g>
<!-- Node2 -->
<g id="node2" class="node">
<title>Node2</title>
<g id="a_node2"><a xlink:href="classrtype_1_1components_1_1Component.html" target="_top" xlink:title=" ">
<polygon fill="white" stroke="#666666" points="202.5,-371 99.5,-371 99.5,-198 202.5,-198 202.5,-371"/>
<text text-anchor="start" x="107.5" y="-359" font-family="Helvetica,sans-Serif" font-size="10.00">{rtype::components::</text>
<text text-anchor="middle" x="151" y="-348" font-family="Helvetica,sans-Serif" font-size="10.00">Component</text>
<text text-anchor="start" x="107.5" y="-337" font-family="Helvetica,sans-Serif" font-size="10.00">||+ Component()</text>
<text text-anchor="start" x="107.5" y="-326" font-family="Helvetica,sans-Serif" font-size="10.00">+ Component()</text>
<text text-anchor="start" x="107.5" y="-315" font-family="Helvetica,sans-Serif" font-size="10.00">+ ~Component()</text>
<text text-anchor="start" x="107.5" y="-304" font-family="Helvetica,sans-Serif" font-size="10.00">+ draw()</text>
<text text-anchor="start" x="107.5" y="-293" font-family="Helvetica,sans-Serif" font-size="10.00">+ getId()</text>
<text text-anchor="start" x="107.5" y="-282" font-family="Helvetica,sans-Serif" font-size="10.00">+ getOwnerId()</text>
<text text-anchor="start" x="107.5" y="-271" font-family="Helvetica,sans-Serif" font-size="10.00">+ handleEvent()</text>
<text text-anchor="start" x="107.5" y="-260" font-family="Helvetica,sans-Serif" font-size="10.00">+ handleEvent()</text>
<text text-anchor="start" x="107.5" y="-249" font-family="Helvetica,sans-Serif" font-size="10.00">+ init()</text>
<text text-anchor="start" x="107.5" y="-238" font-family="Helvetica,sans-Serif" font-size="10.00">+ pName()</text>
<text text-anchor="start" x="107.5" y="-227" font-family="Helvetica,sans-Serif" font-size="10.00">+ printSMthing()</text>
<text text-anchor="start" x="107.5" y="-216" font-family="Helvetica,sans-Serif" font-size="10.00">+ update()</text>
<text text-anchor="middle" x="151" y="-205" font-family="Helvetica,sans-Serif" font-size="10.00">}</text>
</a>
</g>
</g>
<!-- Node2&#45;&gt;Node1 -->
<g id="edge1" class="edge">
<title>Node2&#45;&gt;Node1</title>
<path fill="none" stroke="#63b8ff" d="M199.93,-188.45C207.79,-177.47 216.5,-167 226,-158 257.49,-128.15 301.22,-105.71 335.75,-91.1"/>
<polygon fill="none" stroke="#63b8ff" points="197.16,-186.3 194.38,-196.52 202.93,-190.26 197.16,-186.3"/>
</g>
<!-- Node3 -->
<g id="node3" class="node">
<title>Node3</title>
<g id="a_node3"><a xlink:href="classrtype_1_1components_1_1IComponents.html" target="_top" xlink:title=" ">
<polygon fill="white" stroke="#666666" points="200.5,-547 97.5,-547 97.5,-429 200.5,-429 200.5,-547"/>
<text text-anchor="start" x="105.5" y="-535" font-family="Helvetica,sans-Serif" font-size="10.00">{rtype::components::</text>
<text text-anchor="middle" x="149" y="-524" font-family="Helvetica,sans-Serif" font-size="10.00">IComponents</text>
<text text-anchor="start" x="105.5" y="-513" font-family="Helvetica,sans-Serif" font-size="10.00">||+ draw()</text>
<text text-anchor="start" x="105.5" y="-502" font-family="Helvetica,sans-Serif" font-size="10.00">+ getId()</text>
<text text-anchor="start" x="105.5" y="-491" font-family="Helvetica,sans-Serif" font-size="10.00">+ getOwnerId()</text>
<text text-anchor="start" x="105.5" y="-480" font-family="Helvetica,sans-Serif" font-size="10.00">+ handleEvent()</text>
<text text-anchor="start" x="105.5" y="-469" font-family="Helvetica,sans-Serif" font-size="10.00">+ handleEvent()</text>
<text text-anchor="start" x="105.5" y="-458" font-family="Helvetica,sans-Serif" font-size="10.00">+ init()</text>
<text text-anchor="start" x="105.5" y="-447" font-family="Helvetica,sans-Serif" font-size="10.00">+ update()</text>
<text text-anchor="middle" x="149" y="-436" font-family="Helvetica,sans-Serif" font-size="10.00">}</text>
</a>
</g>
</g>
<!-- Node3&#45;&gt;Node2 -->
<g id="edge2" class="edge">
<title>Node3&#45;&gt;Node2</title>
<path fill="none" stroke="#63b8ff" d="M149.69,-417.56C149.84,-402.69 149.99,-386.8 150.15,-371.39"/>
<polygon fill="none" stroke="#63b8ff" points="146.19,-417.17 149.59,-427.2 153.19,-417.24 146.19,-417.17"/>
</g>
<!-- Node4 -->
<g id="node4" class="node">
<title>Node4</title>
<g id="a_node4"><a xlink:title=" ">
<polygon fill="white" stroke="#666666" points="263,-503 219,-503 219,-473 263,-473 263,-503"/>
<text text-anchor="middle" x="241" y="-491" font-family="Helvetica,sans-Serif" font-size="10.00">{int8_t</text>
<text text-anchor="middle" x="241" y="-480" font-family="Helvetica,sans-Serif" font-size="10.00">||}</text>
</a>
</g>
</g>
<!-- Node4&#45;&gt;Node1 -->
<g id="edge8" class="edge">
<title>Node4&#45;&gt;Node1</title>
<path fill="none" stroke="#404040" d="M239.93,-472.72C236.32,-421.5 226.03,-247.52 249,-198 265.24,-163 296.17,-133.52 325.03,-111.8"/>
<polygon fill="none" stroke="#404040" points="325.11,-111.75 327.6,-104.98 334.81,-104.69 332.31,-111.45 325.11,-111.75"/>
<text text-anchor="middle" x="270" y="-282" font-family="Helvetica,sans-Serif" font-size="10.00"> &#45;ownerID</text>
</g>
<!-- Node4&#45;&gt;Node2 -->
<g id="edge3" class="edge">
<title>Node4&#45;&gt;Node2</title>
<path fill="none" stroke="#404040" d="M235.46,-472.97C230.04,-460.46 220.87,-442.14 209,-429 199.58,-418.57 191.02,-422.54 183,-411 177.16,-402.6 172.39,-393.22 168.48,-383.48"/>
<polygon fill="none" stroke="#404040" points="168.52,-383.59 162.72,-379.3 164.45,-372.3 170.25,-376.58 168.52,-383.59"/>
<text text-anchor="middle" x="204.5" y="-403" font-family="Helvetica,sans-Serif" font-size="10.00"> +Id</text>
<text text-anchor="middle" x="204.5" y="-392" font-family="Helvetica,sans-Serif" font-size="10.00">+OwnerId</text>
</g>
<!-- Node5 -->
<g id="node5" class="node">
<title>Node5</title>
<g id="a_node5"><a xlink:title=" ">
<polygon fill="white" stroke="#666666" points="79,-503 17,-503 17,-473 79,-473 79,-503"/>
<text text-anchor="middle" x="48" y="-491" font-family="Helvetica,sans-Serif" font-size="10.00">{std::string</text>
<text text-anchor="middle" x="48" y="-480" font-family="Helvetica,sans-Serif" font-size="10.00">||}</text>
</a>
</g>
</g>
<!-- Node5&#45;&gt;Node2 -->
<g id="edge4" class="edge">
<title>Node5&#45;&gt;Node2</title>
<path fill="none" stroke="#404040" d="M55.41,-472.51C65.23,-453.29 83.42,-417.71 101.31,-382.7"/>
<polygon fill="none" stroke="#404040" points="101.23,-382.86 100.4,-375.7 106.69,-372.18 107.52,-379.34 101.23,-382.86"/>
<text text-anchor="middle" x="113.5" y="-397.5" font-family="Helvetica,sans-Serif" font-size="10.00"> +name</text>
</g>
<!-- Node6 -->
<g id="node6" class="node">
<title>Node6</title>
<g id="a_node6"><a xlink:title=" ">
<polygon fill="white" stroke="#666666" points="96,-635 0,-635 0,-594 96,-594 96,-635"/>
<text text-anchor="start" x="8" y="-623" font-family="Helvetica,sans-Serif" font-size="10.00">{std::basic_string&lt;</text>
<text text-anchor="middle" x="48" y="-612" font-family="Helvetica,sans-Serif" font-size="10.00"> Char &gt;</text>
<text text-anchor="middle" x="48" y="-601" font-family="Helvetica,sans-Serif" font-size="10.00">||}</text>
</a>
</g>
</g>
<!-- Node6&#45;&gt;Node5 -->
<g id="edge5" class="edge">
<title>Node6&#45;&gt;Node5</title>
<path fill="none" stroke="#63b8ff" d="M48,-582.52C48,-557.15 48,-522.41 48,-503.21"/>
<polygon fill="none" stroke="#63b8ff" points="44.5,-582.26 48,-592.26 51.5,-582.26 44.5,-582.26"/>
</g>
<!-- Node7 -->
<g id="node7" class="node">
<title>Node7</title>
<g id="a_node7"><a xlink:title=" ">
<polygon fill="white" stroke="#666666" points="344,-299.5 300,-299.5 300,-269.5 344,-269.5 344,-299.5"/>
<text text-anchor="middle" x="322" y="-287.5" font-family="Helvetica,sans-Serif" font-size="10.00">{Clock</text>
<text text-anchor="middle" x="322" y="-276.5" font-family="Helvetica,sans-Serif" font-size="10.00">||}</text>
</a>
</g>
</g>
<!-- Node7&#45;&gt;Node1 -->
<g id="edge6" class="edge">
<title>Node7&#45;&gt;Node1</title>
<path fill="none" stroke="#404040" d="M321.72,-269.12C321.7,-245.31 323.5,-196.52 337,-158 337.68,-156.07 338.4,-154.14 339.17,-152.22"/>
<polygon fill="none" stroke="#404040" points="339.15,-152.24 337.91,-145.14 343.99,-141.26 345.23,-148.37 339.15,-152.24"/>
<text text-anchor="middle" x="360" y="-166.5" font-family="Helvetica,sans-Serif" font-size="10.00"> &#45;selfClock</text>
</g>
<!-- Node8 -->
<g id="node8" class="node">
<title>Node8</title>
<g id="a_node8"><a xlink:title=" ">
<polygon fill="white" stroke="#666666" points="403.5,-299.5 362.5,-299.5 362.5,-269.5 403.5,-269.5 403.5,-299.5"/>
<text text-anchor="middle" x="383" y="-287.5" font-family="Helvetica,sans-Serif" font-size="10.00">{Time</text>
<text text-anchor="middle" x="383" y="-276.5" font-family="Helvetica,sans-Serif" font-size="10.00">||}</text>
</a>
</g>
</g>
<!-- Node8&#45;&gt;Node1 -->
<g id="edge7" class="edge">
<title>Node8&#45;&gt;Node1</title>
<path fill="none" stroke="#404040" d="M383.54,-269.23C384.43,-245.56 386.28,-196.51 387.91,-153.12"/>
<polygon fill="none" stroke="#404040" points="387.91,-153.06 384.14,-146.91 388.36,-141.07 392.13,-147.21 387.91,-153.06"/>
<text text-anchor="middle" x="403.5" y="-166.5" font-family="Helvetica,sans-Serif" font-size="10.00"> &#45;mtime</text>
</g>
<!-- Node9 -->
<g id="node9" class="node">
<title>Node9</title>
<g id="a_node9"><a xlink:title=" ">
<polygon fill="white" stroke="#666666" points="554,-299.5 422,-299.5 422,-269.5 554,-269.5 554,-299.5"/>
<text text-anchor="middle" x="488" y="-287.5" font-family="Helvetica,sans-Serif" font-size="10.00">{std::list&lt; sf::CircleShape &gt;</text>
<text text-anchor="middle" x="488" y="-276.5" font-family="Helvetica,sans-Serif" font-size="10.00">||}</text>
</a>
</g>
</g>
<!-- Node9&#45;&gt;Node1 -->
<g id="edge9" class="edge">
<title>Node9&#45;&gt;Node1</title>
<path fill="none" stroke="#404040" d="M481.48,-269.23C470.59,-245.36 447.9,-195.66 427.97,-152"/>
<polygon fill="none" stroke="#404040" points="427.93,-151.9 421.8,-148.11 422.95,-140.99 429.08,-144.78 427.93,-151.9"/>
<text text-anchor="middle" x="465" y="-166.5" font-family="Helvetica,sans-Serif" font-size="10.00"> &#45;bullets_list</text>
</g>
<!-- Node10 -->
<g id="node10" class="node">
<title>Node10</title>
<g id="a_node10"><a xlink:title=" ">
<polygon fill="white" stroke="#666666" points="483,-503 411,-503 411,-473 483,-473 483,-503"/>
<text text-anchor="middle" x="447" y="-491" font-family="Helvetica,sans-Serif" font-size="10.00">{CircleShape</text>
<text text-anchor="middle" x="447" y="-480" font-family="Helvetica,sans-Serif" font-size="10.00">||}</text>
</a>
</g>
</g>
<!-- Node10&#45;&gt;Node9 -->
<g id="edge10" class="edge">
<title>Node10&#45;&gt;Node9</title>
<path fill="none" stroke="#404040" d="M447.85,-472.6C449.15,-453.39 452.14,-418.38 458,-389 463.32,-362.36 472.25,-332.65 478.99,-311.91"/>
<polygon fill="none" stroke="#404040" points="478.98,-311.95 477.07,-305 482.76,-300.56 484.67,-307.52 478.98,-311.95"/>
<text text-anchor="middle" x="482.5" y="-397.5" font-family="Helvetica,sans-Serif" font-size="10.00"> +elements</text>
</g>
<!-- Node11 -->
<g id="node11" class="node">
<title>Node11</title>
<g id="a_node11"><a xlink:title=" ">
<polygon fill="white" stroke="#666666" points="574.5,-503 501.5,-503 501.5,-473 574.5,-473 574.5,-503"/>
<text text-anchor="middle" x="538" y="-491" font-family="Helvetica,sans-Serif" font-size="10.00">{std::list&lt; T &gt;</text>
<text text-anchor="middle" x="538" y="-480" font-family="Helvetica,sans-Serif" font-size="10.00">||}</text>
</a>
</g>
</g>
<!-- Node11&#45;&gt;Node9 -->
<g id="edge11" class="edge">
<title>Node11&#45;&gt;Node9</title>
<path fill="none" stroke="orange" d="M531.64,-461.37C521,-418.5 499.95,-333.64 491.56,-299.86"/>
<polygon fill="orange" stroke="orange" points="528.23,-462.18 534.04,-471.04 535.03,-460.49 528.23,-462.18"/>
<text text-anchor="middle" x="560.5" y="-397.5" font-family="Helvetica,sans-Serif" font-size="10.00"> &lt; sf::CircleShape &gt;</text>
</g>
<!-- Node12 -->
<g id="node12" class="node">
<title>Node12</title>
<g id="a_node12"><a xlink:title=" ">
<polygon fill="white" stroke="#666666" points="552.5,-629.5 523.5,-629.5 523.5,-599.5 552.5,-599.5 552.5,-629.5"/>
<text text-anchor="middle" x="538" y="-617.5" font-family="Helvetica,sans-Serif" font-size="10.00">{T</text>
<text text-anchor="middle" x="538" y="-606.5" font-family="Helvetica,sans-Serif" font-size="10.00">||}</text>
</a>
</g>
</g>
<!-- Node12&#45;&gt;Node11 -->
<g id="edge12" class="edge">
<title>Node12&#45;&gt;Node11</title>
<path fill="none" stroke="#404040" d="M538,-599.22C538,-579.06 538,-541.88 538,-516.32"/>
<polygon fill="none" stroke="#404040" points="538,-516.4 534,-510.4 538,-504.4 542,-510.4 538,-516.4"/>
<text text-anchor="middle" x="562.5" y="-568" font-family="Helvetica,sans-Serif" font-size="10.00"> +elements</text>
</g>
<!-- Node13 -->
<g id="node13" class="node">
<title>Node13</title>
<g id="a_node13"><a xlink:title=" ">
<polygon fill="white" stroke="#666666" points="628,-299.5 572,-299.5 572,-269.5 628,-269.5 628,-299.5"/>
<text text-anchor="middle" x="600" y="-287.5" font-family="Helvetica,sans-Serif" font-size="10.00">{Vector2f</text>
<text text-anchor="middle" x="600" y="-276.5" font-family="Helvetica,sans-Serif" font-size="10.00">||}</text>
</a>
</g>
</g>
<!-- Node13&#45;&gt;Node1 -->
<g id="edge13" class="edge">
<title>Node13&#45;&gt;Node1</title>
<path fill="none" stroke="#404040" d="M596.34,-269.27C591.19,-251.25 580.41,-219.9 563,-198 534.01,-161.53 492.1,-130.29 456.91,-107.92"/>
<polygon fill="none" stroke="#404040" points="457.18,-108.09 449.97,-108.31 446.99,-101.75 454.2,-101.52 457.18,-108.09"/>
<text text-anchor="middle" x="575.5" y="-172" font-family="Helvetica,sans-Serif" font-size="10.00"> &#45;bullet_pos</text>
<text text-anchor="middle" x="575.5" y="-161" font-family="Helvetica,sans-Serif" font-size="10.00">&#45;bullet_velocity</text>
</g>
<!-- Node14 -->
<g id="node14" class="node">
<title>Node14</title>
<g id="a_node14"><a xlink:title=" ">
<polygon fill="white" stroke="#666666" points="695,-299.5 657,-299.5 657,-269.5 695,-269.5 695,-299.5"/>
<text text-anchor="middle" x="676" y="-287.5" font-family="Helvetica,sans-Serif" font-size="10.00">{float</text>
<text text-anchor="middle" x="676" y="-276.5" font-family="Helvetica,sans-Serif" font-size="10.00">||}</text>
</a>
</g>
</g>
<!-- Node14&#45;&gt;Node1 -->
<g id="edge14" class="edge">
<title>Node14&#45;&gt;Node1</title>
<path fill="none" stroke="#404040" d="M672.66,-269.11C665.87,-243.03 647.92,-187.87 612,-158 567.71,-121.17 505.95,-98.63 458.97,-85.75"/>
<polygon fill="none" stroke="#404040" points="458.93,-85.74 452.1,-88.08 447.32,-82.68 454.14,-80.34 458.93,-85.74"/>
<text text-anchor="middle" x="670" y="-166.5" font-family="Helvetica,sans-Serif" font-size="10.00"> &#45;bullet_maxSpeed</text>
</g>
</g>
</svg>
        <g id="navigator" transform="translate(0 0)" fill="#404254">
                <rect fill="#f2f5e9" fill-opacity="0.5" stroke="#606060" stroke-width=".5" x="0" y="0" width="60" height="60"/>
                <use id="zoomplus" xlink:href="#zoomPlus" x="17" y="9" onmousedown="handleZoom(evt,'in')"/>
                <use id="zoomminus" xlink:href="#zoomMin" x="42" y="9" onmousedown="handleZoom(evt,'out')"/>
                <use id="reset" xlink:href="#resetDef" x="30" y="36" onmousedown="handleReset()"/>
                <g id="arrowUp" xlink:href="#dirArrow" transform="translate(30 24)" onmousedown="handlePan(0,-1)">
                  <use xlink:href="#rim" fill="#404040">
                        <set attributeName="fill" to="#808080" begin="arrowUp.mouseover" end="arrowUp.mouseout"/>
                  </use>
                  <path fill="none" stroke="white" stroke-width="1.5" d="M0,-3.0v7 M-2.5,-0.5L0,-3.0L2.5,-0.5"/>
                </g>
                <g id="arrowRight" xlink:href="#dirArrow" transform="rotate(90) translate(36 -43)" onmousedown="handlePan(1,0)">
                  <use xlink:href="#rim" fill="#404040">
                        <set attributeName="fill" to="#808080" begin="arrowRight.mouseover" end="arrowRight.mouseout"/>
                  </use>
                  <path fill="none" stroke="white" stroke-width="1.5" d="M0,-3.0v7 M-2.5,-0.5L0,-3.0L2.5,-0.5"/>
                </g>
                <g id="arrowDown" xlink:href="#dirArrow" transform="rotate(180) translate(-30 -48)" onmousedown="handlePan(0,1)">
                  <use xlink:href="#rim" fill="#404040">
                        <set attributeName="fill" to="#808080" begin="arrowDown.mouseover" end="arrowDown.mouseout"/>
                  </use>
                  <path fill="none" stroke="white" stroke-width="1.5" d="M0,-3.0v7 M-2.5,-0.5L0,-3.0L2.5,-0.5"/>
                </g>
                <g id="arrowLeft" xlink:href="#dirArrow" transform="rotate(270) translate(-36 17)" onmousedown="handlePan(-1,0)">
                  <use xlink:href="#rim" fill="#404040">
                        <set attributeName="fill" to="#808080" begin="arrowLeft.mouseover" end="arrowLeft.mouseout"/>
                  </use>
                  <path fill="none" stroke="white" stroke-width="1.5" d="M0,-3.0v7 M-2.5,-0.5L0,-3.0L2.5,-0.5"/>
                </g>
        </g>
        <svg viewBox="0 0 15 15" width="100%" height="30px" preserveAspectRatio="xMaxYMin meet">
         <g id="arrow_out" transform="scale(0.3 0.3)">
          <a xlink:href="classrtype_1_1components_1_1Bullets__coll__graph_org.svg" target="_base">
           <rect id="button" ry="5" rx="5" y="6" x="6" height="38" width="38"
                fill="#f2f5e9" fill-opacity="0.5" stroke="#606060" stroke-width="1.0"/>
           <path id="arrow"
             d="M 11.500037,31.436501 C 11.940474,20.09759 22.043105,11.32322 32.158766,21.979434 L 37.068811,17.246167 C 37.068811,17.246167 37.088388,32 37.088388,32 L 22.160133,31.978069 C 22.160133,31.978069 26.997745,27.140456 26.997745,27.140456 C 18.528582,18.264221 13.291696,25.230495 11.500037,31.436501 z"
             style="fill:#404040;"/>
          </a>
         </g>
        </svg>
</svg>
