<?xml version="1.0" encoding="UTF-8" standalone="no"?>
<!DOCTYPE svg PUBLIC "-//W3C//DTD SVG 1.1//EN"
 "http://www.w3.org/Graphics/SVG/1.1/DTD/svg11.dtd">
<!-- Generated by graphviz version 7.0.5 (20221223.1930)
 -->
<!-- Title: rtype::engine::Map Pages: 1 -->
<svg width="112pt" height="148pt"
 viewBox="0.00 0.00 111.50 148.00" xmlns="http://www.w3.org/2000/svg" xmlns:xlink="http://www.w3.org/1999/xlink">
<g id="graph0" class="graph" transform="scale(1 1) rotate(0) translate(4 144)">
<title>rtype::engine::Map</title>
<!-- Node1 -->
<g id="node1" class="node">
<title>Node1</title>
<g id="a_node1"><a xlink:title="This class is the base class for all the Map.">
<polygon fill="#999999" stroke="#666666" points="97,-52 0,-52 0,0 97,0 97,-52"/>
<text text-anchor="middle" x="48.5" y="-40" font-family="Helvetica,sans-Serif" font-size="10.00">{rtype::engine::Map</text>
<text text-anchor="start" x="8" y="-29" font-family="Helvetica,sans-Serif" font-size="10.00">||+ Map()</text>
<text text-anchor="start" x="8" y="-18" font-family="Helvetica,sans-Serif" font-size="10.00">+ ~Map()</text>
<text text-anchor="middle" x="48.5" y="-7" font-family="Helvetica,sans-Serif" font-size="10.00">}</text>
</a>
</g>
</g>
<!-- Node2 -->
<g id="node2" class="node">
<title>Node2</title>
<g id="a_node2"><a xlink:title=" ">
<polygon fill="white" stroke="#666666" points="76.5,-140 20.5,-140 20.5,-110 76.5,-110 76.5,-140"/>
<text text-anchor="middle" x="48.5" y="-128" font-family="Helvetica,sans-Serif" font-size="10.00">{Vector2f</text>
<text text-anchor="middle" x="48.5" y="-117" font-family="Helvetica,sans-Serif" font-size="10.00">||}</text>
</a>
</g>
</g>
<!-- Node2&#45;&gt;Node1 -->
<g id="edge1" class="edge">
<title>Node2&#45;&gt;Node1</title>
<path fill="none" stroke="#404040" d="M48.5,-109.69C48.5,-97.91 48.5,-80.67 48.5,-64.97"/>
<polygon fill="none" stroke="#404040" points="48.5,-65.2 44.5,-59.2 48.5,-53.2 52.5,-59.2 48.5,-65.2"/>
<text text-anchor="middle" x="76" y="-84" font-family="Helvetica,sans-Serif" font-size="10.00"> &#45;m_collision</text>
<text text-anchor="middle" x="76" y="-73" font-family="Helvetica,sans-Serif" font-size="10.00">&#45;m_map</text>
</g>
</g>
</svg>
