<?xml version="1.0" encoding="UTF-8" standalone="no"?>
<!DOCTYPE svg PUBLIC "-//W3C//DTD SVG 1.1//EN"
 "http://www.w3.org/Graphics/SVG/1.1/DTD/svg11.dtd">
<!-- Generated by graphviz version 7.0.5 (20221223.1930)
 -->
<!-- Title: rtype::engine::Event Pages: 1 -->
<svg width="227pt" height="423pt"
 viewBox="0.00 0.00 227.00 423.00" xmlns="http://www.w3.org/2000/svg" xmlns:xlink="http://www.w3.org/1999/xlink">
<g id="graph0" class="graph" transform="scale(1 1) rotate(0) translate(4 419)">
<title>rtype::engine::Event</title>
<!-- Node1 -->
<g id="node1" class="node">
<title>Node1</title>
<g id="a_node1"><a xlink:title="This class is the base class for all the Event.">
<polygon fill="#999999" stroke="#666666" points="211.5,-173 74.5,-173 74.5,0 211.5,0 211.5,-173"/>
<text text-anchor="middle" x="143" y="-161" font-family="Helvetica,sans-Serif" font-size="10.00">{rtype::engine::Event</text>
<text text-anchor="start" x="82.5" y="-150" font-family="Helvetica,sans-Serif" font-size="10.00">||+ Event()</text>
<text text-anchor="start" x="82.5" y="-139" font-family="Helvetica,sans-Serif" font-size="10.00">+ ~Event()</text>
<text text-anchor="start" x="82.5" y="-128" font-family="Helvetica,sans-Serif" font-size="10.00">+ GetMousePos()</text>
<text text-anchor="start" x="82.5" y="-117" font-family="Helvetica,sans-Serif" font-size="10.00">+ GetMousePos()</text>
<text text-anchor="start" x="82.5" y="-106" font-family="Helvetica,sans-Serif" font-size="10.00">+ GetMousePressed()</text>
<text text-anchor="start" x="82.5" y="-95" font-family="Helvetica,sans-Serif" font-size="10.00">+ handleEvent()</text>
<text text-anchor="start" x="82.5" y="-84" font-family="Helvetica,sans-Serif" font-size="10.00">+ handleInput()</text>
<text text-anchor="start" x="82.5" y="-73" font-family="Helvetica,sans-Serif" font-size="10.00">+ MakeObjectClickable()</text>
<text text-anchor="start" x="82.5" y="-62" font-family="Helvetica,sans-Serif" font-size="10.00">+ MakeObjectMovable()</text>
<text text-anchor="start" x="82.5" y="-51" font-family="Helvetica,sans-Serif" font-size="10.00">+ MakeSpriteMovable()</text>
<text text-anchor="start" x="82.5" y="-40" font-family="Helvetica,sans-Serif" font-size="10.00">+ MakeSpriteMovable_Bis()</text>
<text text-anchor="start" x="82.5" y="-29" font-family="Helvetica,sans-Serif" font-size="10.00">+ ServerPlayerAction()</text>
<text text-anchor="start" x="82.5" y="-18" font-family="Helvetica,sans-Serif" font-size="10.00">+ update()</text>
<text text-anchor="middle" x="143" y="-7" font-family="Helvetica,sans-Serif" font-size="10.00">}</text>
</a>
</g>
</g>
<!-- Node2 -->
<g id="node2" class="node">
<title>Node2</title>
<g id="a_node2"><a xlink:title=" ">
<polygon fill="white" stroke="#666666" points="155,-250 33,-250 33,-220 155,-220 155,-250"/>
<text text-anchor="middle" x="94" y="-238" font-family="Helvetica,sans-Serif" font-size="10.00">{std::queue&lt; std::string &gt;</text>
<text text-anchor="middle" x="94" y="-227" font-family="Helvetica,sans-Serif" font-size="10.00">||}</text>
</a>
</g>
</g>
<!-- Node2&#45;&gt;Node1 -->
<g id="edge1" class="edge">
<title>Node2&#45;&gt;Node1</title>
<path fill="none" stroke="#404040" d="M92.89,-219.87C92.58,-211.4 92.8,-200.45 95,-191 95.41,-189.25 95.84,-187.5 96.31,-185.74"/>
<polygon fill="none" stroke="#404040" points="96.35,-185.6 94.25,-178.7 99.81,-174.11 101.91,-181.01 96.35,-185.6"/>
<text text-anchor="middle" x="133" y="-194" font-family="Helvetica,sans-Serif" font-size="10.00"> +server_updates</text>
</g>
<!-- Node3 -->
<g id="node3" class="node">
<title>Node3</title>
<g id="a_node3"><a xlink:title=" ">
<polygon fill="white" stroke="#666666" points="79,-327 17,-327 17,-297 79,-297 79,-327"/>
<text text-anchor="middle" x="48" y="-315" font-family="Helvetica,sans-Serif" font-size="10.00">{std::string</text>
<text text-anchor="middle" x="48" y="-304" font-family="Helvetica,sans-Serif" font-size="10.00">||}</text>
</a>
</g>
</g>
<!-- Node3&#45;&gt;Node2 -->
<g id="edge2" class="edge">
<title>Node3&#45;&gt;Node2</title>
<path fill="none" stroke="#404040" d="M51.73,-296.8C54.38,-288.09 58.46,-276.94 64,-268 65.72,-265.22 67.7,-262.48 69.82,-259.84"/>
<polygon fill="none" stroke="#404040" points="69.75,-259.92 70.74,-252.78 77.72,-250.95 76.72,-258.09 69.75,-259.92"/>
<text text-anchor="middle" x="88.5" y="-271" font-family="Helvetica,sans-Serif" font-size="10.00"> +elements</text>
</g>
<!-- Node4 -->
<g id="node4" class="node">
<title>Node4</title>
<g id="a_node4"><a xlink:title=" ">
<polygon fill="white" stroke="#666666" points="96,-415 0,-415 0,-374 96,-374 96,-415"/>
<text text-anchor="start" x="8" y="-403" font-family="Helvetica,sans-Serif" font-size="10.00">{std::basic_string&lt;</text>
<text text-anchor="middle" x="48" y="-392" font-family="Helvetica,sans-Serif" font-size="10.00"> Char &gt;</text>
<text text-anchor="middle" x="48" y="-381" font-family="Helvetica,sans-Serif" font-size="10.00">||}</text>
</a>
</g>
</g>
<!-- Node4&#45;&gt;Node3 -->
<g id="edge3" class="edge">
<title>Node4&#45;&gt;Node3</title>
<path fill="none" stroke="#63b8ff" d="M48,-362.14C48,-350.14 48,-337.02 48,-327.37"/>
<polygon fill="none" stroke="#63b8ff" points="44.5,-362.09 48,-372.09 51.5,-362.09 44.5,-362.09"/>
</g>
<!-- Node5 -->
<g id="node5" class="node">
<title>Node5</title>
<g id="a_node5"><a xlink:title=" ">
<polygon fill="white" stroke="#666666" points="183,-327 97,-327 97,-297 183,-297 183,-327"/>
<text text-anchor="middle" x="140" y="-315" font-family="Helvetica,sans-Serif" font-size="10.00">{std::queue&lt; T &gt;</text>
<text text-anchor="middle" x="140" y="-304" font-family="Helvetica,sans-Serif" font-size="10.00">||}</text>
</a>
</g>
</g>
<!-- Node5&#45;&gt;Node2 -->
<g id="edge4" class="edge">
<title>Node5&#45;&gt;Node2</title>
<path fill="none" stroke="orange" d="M125.31,-287.05C117.92,-275 109.2,-260.78 102.84,-250.42"/>
<polygon fill="orange" stroke="orange" points="122.13,-288.55 130.34,-295.25 128.09,-284.89 122.13,-288.55"/>
<text text-anchor="middle" x="149.5" y="-271" font-family="Helvetica,sans-Serif" font-size="10.00"> &lt; std::string &gt;</text>
</g>
<!-- Node6 -->
<g id="node6" class="node">
<title>Node6</title>
<g id="a_node6"><a xlink:title=" ">
<polygon fill="white" stroke="#666666" points="154.5,-409.5 125.5,-409.5 125.5,-379.5 154.5,-379.5 154.5,-409.5"/>
<text text-anchor="middle" x="140" y="-397.5" font-family="Helvetica,sans-Serif" font-size="10.00">{T</text>
<text text-anchor="middle" x="140" y="-386.5" font-family="Helvetica,sans-Serif" font-size="10.00">||}</text>
</a>
</g>
</g>
<!-- Node6&#45;&gt;Node5 -->
<g id="edge5" class="edge">
<title>Node6&#45;&gt;Node5</title>
<path fill="none" stroke="#404040" d="M140,-379.11C140,-368.35 140,-353.31 140,-340.3"/>
<polygon fill="none" stroke="#404040" points="140,-340.17 136,-334.17 140,-328.17 144,-334.17 140,-340.17"/>
<text text-anchor="middle" x="164.5" y="-348" font-family="Helvetica,sans-Serif" font-size="10.00"> +elements</text>
</g>
<!-- Node7 -->
<g id="node7" class="node">
<title>Node7</title>
<g id="a_node7"><a xlink:title=" ">
<polygon fill="white" stroke="#666666" points="212,-250 174,-250 174,-220 212,-220 212,-250"/>
<text text-anchor="middle" x="193" y="-238" font-family="Helvetica,sans-Serif" font-size="10.00">{float</text>
<text text-anchor="middle" x="193" y="-227" font-family="Helvetica,sans-Serif" font-size="10.00">||}</text>
</a>
</g>
</g>
<!-- Node7&#45;&gt;Node1 -->
<g id="edge6" class="edge">
<title>Node7&#45;&gt;Node1</title>
<path fill="none" stroke="#404040" d="M188.11,-219.69C185.11,-210.89 180.97,-198.76 176.41,-185.39"/>
<polygon fill="none" stroke="#404040" points="176.48,-185.59 170.75,-181.2 172.6,-174.23 178.32,-178.62 176.48,-185.59"/>
<text text-anchor="middle" x="199.5" y="-194" font-family="Helvetica,sans-Serif" font-size="10.00"> &#45;velocity</text>
</g>
</g>
</svg>
