<?xml version="1.0" encoding="UTF-8" standalone="no"?>
<!DOCTYPE svg PUBLIC "-//W3C//DTD SVG 1.1//EN"
 "http://www.w3.org/Graphics/SVG/1.1/DTD/svg11.dtd">
<!-- Generated by graphviz version 7.0.5 (20221223.1930)
 -->
<!-- Title: rtype::engine::Event Pages: 1 -->
<svg width="330pt" height="456pt"
 viewBox="0.00 0.00 329.50 456.00" xmlns="http://www.w3.org/2000/svg" xmlns:xlink="http://www.w3.org/1999/xlink">
<g id="graph0" class="graph" transform="scale(1 1) rotate(0) translate(4 452)">
<title>rtype::engine::Event</title>
<!-- Node1 -->
<g id="node1" class="node">
<title>Node1</title>
<g id="a_node1"><a xlink:title="This class is the base class for all the Event.">
<polygon fill="#999999" stroke="#666666" points="261.5,-195 124.5,-195 124.5,0 261.5,0 261.5,-195"/>
<text text-anchor="middle" x="193" y="-183" font-family="Helvetica,sans-Serif" font-size="10.00">{rtype::engine::Event</text>
<text text-anchor="start" x="132.5" y="-172" font-family="Helvetica,sans-Serif" font-size="10.00">||+ Event()</text>
<text text-anchor="start" x="132.5" y="-161" font-family="Helvetica,sans-Serif" font-size="10.00">+ ~Event()</text>
<text text-anchor="start" x="132.5" y="-150" font-family="Helvetica,sans-Serif" font-size="10.00">+ getClientBuffer()</text>
<text text-anchor="start" x="132.5" y="-139" font-family="Helvetica,sans-Serif" font-size="10.00">+ GetMousePos()</text>
<text text-anchor="start" x="132.5" y="-128" font-family="Helvetica,sans-Serif" font-size="10.00">+ GetMousePos()</text>
<text text-anchor="start" x="132.5" y="-117" font-family="Helvetica,sans-Serif" font-size="10.00">+ GetMousePressed()</text>
<text text-anchor="start" x="132.5" y="-106" font-family="Helvetica,sans-Serif" font-size="10.00">+ handleEvent()</text>
<text text-anchor="start" x="132.5" y="-95" font-family="Helvetica,sans-Serif" font-size="10.00">+ handleInput()</text>
<text text-anchor="start" x="132.5" y="-84" font-family="Helvetica,sans-Serif" font-size="10.00">+ MakeObjectClickable()</text>
<text text-anchor="start" x="132.5" y="-73" font-family="Helvetica,sans-Serif" font-size="10.00">+ MakeObjectMovable()</text>
<text text-anchor="start" x="132.5" y="-62" font-family="Helvetica,sans-Serif" font-size="10.00">+ MakeSpriteMovable()</text>
<text text-anchor="start" x="132.5" y="-51" font-family="Helvetica,sans-Serif" font-size="10.00">+ MakeSpriteMovable_Bis()</text>
<text text-anchor="start" x="132.5" y="-40" font-family="Helvetica,sans-Serif" font-size="10.00">+ sendMessage()</text>
<text text-anchor="start" x="132.5" y="-29" font-family="Helvetica,sans-Serif" font-size="10.00">+ ServerPlayerAction()</text>
<text text-anchor="start" x="132.5" y="-18" font-family="Helvetica,sans-Serif" font-size="10.00">+ update()</text>
<text text-anchor="middle" x="193" y="-7" font-family="Helvetica,sans-Serif" font-size="10.00">}</text>
</a>
</g>
</g>
<!-- Node2 -->
<g id="node2" class="node">
<title>Node2</title>
<g id="a_node2"><a xlink:title=" ">
<polygon fill="white" stroke="#666666" points="155,-277.5 33,-277.5 33,-247.5 155,-247.5 155,-277.5"/>
<text text-anchor="middle" x="94" y="-265.5" font-family="Helvetica,sans-Serif" font-size="10.00">{std::queue&lt; std::string &gt;</text>
<text text-anchor="middle" x="94" y="-254.5" font-family="Helvetica,sans-Serif" font-size="10.00">||}</text>
</a>
</g>
</g>
<!-- Node2&#45;&gt;Node1 -->
<g id="edge1" class="edge">
<title>Node2&#45;&gt;Node1</title>
<path fill="none" stroke="#404040" d="M98.63,-247.1C102.05,-237.24 107.11,-224 113,-213 114.45,-210.29 115.95,-207.58 117.49,-204.85"/>
<polygon fill="none" stroke="#404040" points="117.54,-204.78 117.12,-197.58 123.61,-194.43 124.02,-201.63 117.54,-204.78"/>
<text text-anchor="middle" x="151" y="-216" font-family="Helvetica,sans-Serif" font-size="10.00"> +server_updates</text>
</g>
<!-- Node3 -->
<g id="node3" class="node">
<title>Node3</title>
<g id="a_node3"><a xlink:title=" ">
<polygon fill="white" stroke="#666666" points="79,-360 17,-360 17,-330 79,-330 79,-360"/>
<text text-anchor="middle" x="48" y="-348" font-family="Helvetica,sans-Serif" font-size="10.00">{std::string</text>
<text text-anchor="middle" x="48" y="-337" font-family="Helvetica,sans-Serif" font-size="10.00">||}</text>
</a>
</g>
</g>
<!-- Node3&#45;&gt;Node2 -->
<g id="edge2" class="edge">
<title>Node3&#45;&gt;Node2</title>
<path fill="none" stroke="#404040" d="M52.1,-329.55C54.85,-320.96 58.9,-310.01 64,-301 66.56,-296.48 69.66,-291.93 72.87,-287.65"/>
<polygon fill="none" stroke="#404040" points="72.8,-287.74 73.43,-280.56 80.31,-278.38 79.67,-285.57 72.8,-287.74"/>
<text text-anchor="middle" x="88.5" y="-304" font-family="Helvetica,sans-Serif" font-size="10.00"> +elements</text>
</g>
<!-- Node4 -->
<g id="node4" class="node">
<title>Node4</title>
<g id="a_node4"><a xlink:title=" ">
<polygon fill="white" stroke="#666666" points="96,-448 0,-448 0,-407 96,-407 96,-448"/>
<text text-anchor="start" x="8" y="-436" font-family="Helvetica,sans-Serif" font-size="10.00">{std::basic_string&lt;</text>
<text text-anchor="middle" x="48" y="-425" font-family="Helvetica,sans-Serif" font-size="10.00"> Char &gt;</text>
<text text-anchor="middle" x="48" y="-414" font-family="Helvetica,sans-Serif" font-size="10.00">||}</text>
</a>
</g>
</g>
<!-- Node4&#45;&gt;Node3 -->
<g id="edge3" class="edge">
<title>Node4&#45;&gt;Node3</title>
<path fill="none" stroke="#63b8ff" d="M48,-395.14C48,-383.14 48,-370.02 48,-360.37"/>
<polygon fill="none" stroke="#63b8ff" points="44.5,-395.09 48,-405.09 51.5,-395.09 44.5,-395.09"/>
</g>
<!-- Node5 -->
<g id="node5" class="node">
<title>Node5</title>
<g id="a_node5"><a xlink:title=" ">
<polygon fill="white" stroke="#666666" points="183,-360 97,-360 97,-330 183,-330 183,-360"/>
<text text-anchor="middle" x="140" y="-348" font-family="Helvetica,sans-Serif" font-size="10.00">{std::queue&lt; T &gt;</text>
<text text-anchor="middle" x="140" y="-337" font-family="Helvetica,sans-Serif" font-size="10.00">||}</text>
</a>
</g>
</g>
<!-- Node5&#45;&gt;Node2 -->
<g id="edge4" class="edge">
<title>Node5&#45;&gt;Node2</title>
<path fill="none" stroke="orange" d="M126.19,-319.83C118.35,-306.11 108.8,-289.41 102.15,-277.77"/>
<polygon fill="orange" stroke="orange" points="123.02,-321.35 131.03,-328.29 129.1,-317.88 123.02,-321.35"/>
<text text-anchor="middle" x="151.5" y="-304" font-family="Helvetica,sans-Serif" font-size="10.00"> &lt; std::string &gt;</text>
</g>
<!-- Node6 -->
<g id="node6" class="node">
<title>Node6</title>
<g id="a_node6"><a xlink:title=" ">
<polygon fill="white" stroke="#666666" points="154.5,-442.5 125.5,-442.5 125.5,-412.5 154.5,-412.5 154.5,-442.5"/>
<text text-anchor="middle" x="140" y="-430.5" font-family="Helvetica,sans-Serif" font-size="10.00">{T</text>
<text text-anchor="middle" x="140" y="-419.5" font-family="Helvetica,sans-Serif" font-size="10.00">||}</text>
</a>
</g>
</g>
<!-- Node6&#45;&gt;Node5 -->
<g id="edge5" class="edge">
<title>Node6&#45;&gt;Node5</title>
<path fill="none" stroke="#404040" d="M140,-412.11C140,-401.35 140,-386.31 140,-373.3"/>
<polygon fill="none" stroke="#404040" points="140,-373.17 136,-367.17 140,-361.17 144,-367.17 140,-373.17"/>
<text text-anchor="middle" x="164.5" y="-381" font-family="Helvetica,sans-Serif" font-size="10.00"> +elements</text>
</g>
<!-- Node7 -->
<g id="node7" class="node">
<title>Node7</title>
<g id="a_node7"><a xlink:title=" ">
<polygon fill="white" stroke="#666666" points="212,-277.5 174,-277.5 174,-247.5 212,-247.5 212,-277.5"/>
<text text-anchor="middle" x="193" y="-265.5" font-family="Helvetica,sans-Serif" font-size="10.00">{float</text>
<text text-anchor="middle" x="193" y="-254.5" font-family="Helvetica,sans-Serif" font-size="10.00">||}</text>
</a>
</g>
</g>
<!-- Node7&#45;&gt;Node1 -->
<g id="edge6" class="edge">
<title>Node7&#45;&gt;Node1</title>
<path fill="none" stroke="#404040" d="M193,-247.03C193,-237.26 193,-223.36 193,-207.93"/>
<polygon fill="none" stroke="#404040" points="193,-208.19 189,-202.19 193,-196.19 197,-202.19 193,-208.19"/>
<text text-anchor="middle" x="212.5" y="-216" font-family="Helvetica,sans-Serif" font-size="10.00"> &#45;velocity</text>
</g>
<!-- Node8 -->
<g id="node8" class="node">
<title>Node8</title>
<g id="a_node8"><a xlink:title=" ">
<polygon fill="white" stroke="#666666" points="321.5,-283 230.5,-283 230.5,-242 321.5,-242 321.5,-283"/>
<text text-anchor="start" x="238.5" y="-271" font-family="Helvetica,sans-Serif" font-size="10.00">{Client&lt; sk::client</text>
<text text-anchor="middle" x="276" y="-260" font-family="Helvetica,sans-Serif" font-size="10.00">::UDP &gt; *</text>
<text text-anchor="middle" x="276" y="-249" font-family="Helvetica,sans-Serif" font-size="10.00">||}</text>
</a>
</g>
</g>
<!-- Node8&#45;&gt;Node1 -->
<g id="edge7" class="edge">
<title>Node8&#45;&gt;Node1</title>
<path fill="none" stroke="#404040" d="M265.82,-241.51C260.99,-232.02 254.79,-219.85 248.07,-206.64"/>
<polygon fill="none" stroke="#404040" points="248.16,-206.83 241.88,-203.3 242.72,-196.14 249,-199.67 248.16,-206.83"/>
<text text-anchor="middle" x="263" y="-216" font-family="Helvetica,sans-Serif" font-size="10.00"> &#45;clt</text>
</g>
</g>
</svg>
