<?xml version="1.0" encoding="UTF-8" standalone="no"?>
<!DOCTYPE svg PUBLIC "-//W3C//DTD SVG 1.1//EN"
 "http://www.w3.org/Graphics/SVG/1.1/DTD/svg11.dtd">
<!-- Generated by graphviz version 7.0.5 (20221223.1930)
 -->
<!-- Title: PlayerProtocol Pages: 1 -->
<svg width="215pt" height="225pt"
 viewBox="0.00 0.00 214.50 225.00" xmlns="http://www.w3.org/2000/svg" xmlns:xlink="http://www.w3.org/1999/xlink">
<g id="graph0" class="graph" transform="scale(1 1) rotate(0) translate(4 221)">
<title>PlayerProtocol</title>
<!-- Node1 -->
<g id="node1" class="node">
<title>Node1</title>
<g id="a_node1"><a xlink:title=" ">
<polygon fill="#999999" stroke="#666666" points="177,-140 76,-140 76,0 177,0 177,-140"/>
<text text-anchor="middle" x="126.5" y="-128" font-family="Helvetica,sans-Serif" font-size="10.00">{PlayerProtocol</text>
<text text-anchor="start" x="84" y="-117" font-family="Helvetica,sans-Serif" font-size="10.00">||+ PlayerProtocol()</text>
<text text-anchor="start" x="84" y="-106" font-family="Helvetica,sans-Serif" font-size="10.00">+ ~PlayerProtocol()</text>
<text text-anchor="start" x="84" y="-95" font-family="Helvetica,sans-Serif" font-size="10.00">+ clearPacket()</text>
<text text-anchor="start" x="84" y="-84" font-family="Helvetica,sans-Serif" font-size="10.00">+ printPacket()</text>
<text text-anchor="start" x="84" y="-73" font-family="Helvetica,sans-Serif" font-size="10.00">+ setPlayerCollide()</text>
<text text-anchor="start" x="84" y="-62" font-family="Helvetica,sans-Serif" font-size="10.00">+ setPlayerId()</text>
<text text-anchor="start" x="84" y="-51" font-family="Helvetica,sans-Serif" font-size="10.00">+ setPlayerId()</text>
<text text-anchor="start" x="84" y="-40" font-family="Helvetica,sans-Serif" font-size="10.00">+ setPlayerMove()</text>
<text text-anchor="start" x="84" y="-29" font-family="Helvetica,sans-Serif" font-size="10.00">+ setPlayerShoot()</text>
<text text-anchor="start" x="84" y="-18" font-family="Helvetica,sans-Serif" font-size="10.00">+ playerIdToString()</text>
<text text-anchor="middle" x="126.5" y="-7" font-family="Helvetica,sans-Serif" font-size="10.00">}</text>
</a>
</g>
</g>
<!-- Node2 -->
<g id="node2" class="node">
<title>Node2</title>
<g id="a_node2"><a xlink:title=" ">
<polygon fill="white" stroke="#666666" points="143,-217 0,-217 0,-187 143,-187 143,-217"/>
<text text-anchor="middle" x="71.5" y="-205" font-family="Helvetica,sans-Serif" font-size="10.00">{sk::proto::BinaryManipulation</text>
<text text-anchor="middle" x="71.5" y="-194" font-family="Helvetica,sans-Serif" font-size="10.00">||}</text>
</a>
</g>
</g>
<!-- Node2&#45;&gt;Node1 -->
<g id="edge1" class="edge">
<title>Node2&#45;&gt;Node1</title>
<path fill="none" stroke="#63b8ff" d="M81.96,-176.28C86.36,-165.87 91.73,-153.19 97.19,-140.27"/>
<polygon fill="none" stroke="#63b8ff" points="78.86,-174.62 78.19,-185.2 85.31,-177.35 78.86,-174.62"/>
</g>
<!-- Node3 -->
<g id="node3" class="node">
<title>Node3</title>
<g id="a_node3"><a xlink:title=" ">
<polygon fill="white" stroke="#666666" points="204,-217 161,-217 161,-187 204,-187 204,-217"/>
<text text-anchor="middle" x="182.5" y="-205" font-family="Helvetica,sans-Serif" font-size="10.00">{bytes</text>
<text text-anchor="middle" x="182.5" y="-194" font-family="Helvetica,sans-Serif" font-size="10.00">||}</text>
</a>
</g>
</g>
<!-- Node3&#45;&gt;Node1 -->
<g id="edge2" class="edge">
<title>Node3&#45;&gt;Node1</title>
<path fill="none" stroke="#404040" d="M176.29,-186.59C172.44,-177.64 167.14,-165.35 161.44,-152.1"/>
<polygon fill="none" stroke="#404040" points="161.45,-152.12 155.4,-148.2 156.7,-141.1 162.75,-145.03 161.45,-152.12"/>
<text text-anchor="middle" x="186.5" y="-161" font-family="Helvetica,sans-Serif" font-size="10.00"> &#45;_packet</text>
</g>
</g>
</svg>
