<?xml version="1.0" encoding="UTF-8" standalone="no"?>
<!DOCTYPE svg PUBLIC "-//W3C//DTD SVG 1.1//EN"
 "http://www.w3.org/Graphics/SVG/1.1/DTD/svg11.dtd">
<!-- Generated by graphviz version 7.0.5 (20221223.1930)
 -->
<!-- Title: rtype::components::Bonus Pages: 1 -->
<svg width="262pt" height="148pt"
 viewBox="0.00 0.00 261.50 148.00" xmlns="http://www.w3.org/2000/svg" xmlns:xlink="http://www.w3.org/1999/xlink">
<g id="graph0" class="graph" transform="scale(1 1) rotate(0) translate(4 144)">
<title>rtype::components::Bonus</title>
<!-- Node1 -->
<g id="node1" class="node">
<title>Node1</title>
<g id="a_node1"><a xlink:title=" ">
<polygon fill="#999999" stroke="#666666" points="183,-63 80,-63 80,0 183,0 183,-63"/>
<text text-anchor="start" x="88" y="-51" font-family="Helvetica,sans-Serif" font-size="10.00">{rtype::components::</text>
<text text-anchor="middle" x="131.5" y="-40" font-family="Helvetica,sans-Serif" font-size="10.00">Bonus</text>
<text text-anchor="start" x="88" y="-29" font-family="Helvetica,sans-Serif" font-size="10.00">||+ Bonus()</text>
<text text-anchor="start" x="88" y="-18" font-family="Helvetica,sans-Serif" font-size="10.00">+ ~Bonus()</text>
<text text-anchor="middle" x="131.5" y="-7" font-family="Helvetica,sans-Serif" font-size="10.00">}</text>
</a>
</g>
</g>
<!-- Node2 -->
<g id="node2" class="node">
<title>Node2</title>
<g id="a_node2"><a xlink:title=" ">
<polygon fill="white" stroke="#666666" points="91,-140 0,-140 0,-110 91,-110 91,-140"/>
<text text-anchor="middle" x="45.5" y="-128" font-family="Helvetica,sans-Serif" font-size="10.00">{RectangleShape</text>
<text text-anchor="middle" x="45.5" y="-117" font-family="Helvetica,sans-Serif" font-size="10.00">||}</text>
</a>
</g>
</g>
<!-- Node2&#45;&gt;Node1 -->
<g id="edge1" class="edge">
<title>Node2&#45;&gt;Node1</title>
<path fill="none" stroke="#404040" d="M53.35,-109.7C58.49,-100.95 65.7,-89.8 73.5,-81 76.12,-78.05 78.92,-75.13 81.82,-72.26"/>
<polygon fill="none" stroke="#404040" points="81.93,-72.16 83.59,-65.14 90.7,-63.97 89.05,-70.99 81.93,-72.16"/>
<text text-anchor="middle" x="100.5" y="-84" font-family="Helvetica,sans-Serif" font-size="10.00"> &#45;bonus_rect</text>
</g>
<!-- Node3 -->
<g id="node3" class="node">
<title>Node3</title>
<g id="a_node3"><a xlink:title=" ">
<polygon fill="white" stroke="#666666" points="154,-140 109,-140 109,-110 154,-110 154,-140"/>
<text text-anchor="middle" x="131.5" y="-128" font-family="Helvetica,sans-Serif" font-size="10.00">{Sprite</text>
<text text-anchor="middle" x="131.5" y="-117" font-family="Helvetica,sans-Serif" font-size="10.00">||}</text>
</a>
</g>
</g>
<!-- Node3&#45;&gt;Node1 -->
<g id="edge2" class="edge">
<title>Node3&#45;&gt;Node1</title>
<path fill="none" stroke="#404040" d="M131.5,-109.7C131.5,-100.62 131.5,-88.34 131.5,-76.24"/>
<polygon fill="none" stroke="#404040" points="131.5,-76.25 127.5,-70.25 131.5,-64.25 135.5,-70.25 131.5,-76.25"/>
<text text-anchor="middle" x="162" y="-84" font-family="Helvetica,sans-Serif" font-size="10.00"> &#45;bonus_asset</text>
</g>
<!-- Node4 -->
<g id="node4" class="node">
<title>Node4</title>
<g id="a_node4"><a xlink:title=" ">
<polygon fill="white" stroke="#666666" points="243.5,-140 187.5,-140 187.5,-110 243.5,-110 243.5,-140"/>
<text text-anchor="middle" x="215.5" y="-128" font-family="Helvetica,sans-Serif" font-size="10.00">{Vector2f</text>
<text text-anchor="middle" x="215.5" y="-117" font-family="Helvetica,sans-Serif" font-size="10.00">||}</text>
</a>
</g>
</g>
<!-- Node4&#45;&gt;Node1 -->
<g id="edge3" class="edge">
<title>Node4&#45;&gt;Node1</title>
<path fill="none" stroke="#404040" d="M209.97,-109.52C206.17,-100.7 200.55,-89.54 193.5,-81 191.01,-77.99 188.31,-75.04 185.47,-72.19"/>
<polygon fill="none" stroke="#404040" points="185.47,-72.19 178.35,-71.04 176.68,-64.02 183.8,-65.18 185.47,-72.19"/>
<text text-anchor="middle" x="227" y="-84" font-family="Helvetica,sans-Serif" font-size="10.00"> &#45;bonus_pos</text>
</g>
</g>
</svg>
