<?xml version="1.0" encoding="UTF-8" standalone="no"?>
<!DOCTYPE svg PUBLIC "-//W3C//DTD SVG 1.1//EN"
 "http://www.w3.org/Graphics/SVG/1.1/DTD/svg11.dtd">
<!-- Generated by graphviz version 7.0.5 (20221223.1930)
 -->
<!-- Title: rtype::GameState Pages: 1 -->
<svg width="445pt" height="710pt"
 viewBox="0.00 0.00 444.50 710.00" xmlns="http://www.w3.org/2000/svg" xmlns:xlink="http://www.w3.org/1999/xlink">
<g id="graph0" class="graph" transform="scale(1 1) rotate(0) translate(4 706)">
<title>rtype::GameState</title>
<!-- Node1 -->
<g id="node1" class="node">
<title>Node1</title>
<g id="a_node1"><a xlink:title=" ">
<polygon fill="#999999" stroke="#666666" points="256.5,-129 161.5,-129 161.5,0 256.5,0 256.5,-129"/>
<text text-anchor="middle" x="209" y="-117" font-family="Helvetica,sans-Serif" font-size="10.00">{rtype::GameState</text>
<text text-anchor="start" x="169.5" y="-106" font-family="Helvetica,sans-Serif" font-size="10.00">||+ GameState()</text>
<text text-anchor="start" x="169.5" y="-95" font-family="Helvetica,sans-Serif" font-size="10.00">+ ~GameState()</text>
<text text-anchor="start" x="169.5" y="-84" font-family="Helvetica,sans-Serif" font-size="10.00">+ clear()</text>
<text text-anchor="start" x="169.5" y="-73" font-family="Helvetica,sans-Serif" font-size="10.00">+ draw()</text>
<text text-anchor="start" x="169.5" y="-62" font-family="Helvetica,sans-Serif" font-size="10.00">+ handleEvent()</text>
<text text-anchor="start" x="169.5" y="-51" font-family="Helvetica,sans-Serif" font-size="10.00">+ init()</text>
<text text-anchor="start" x="169.5" y="-40" font-family="Helvetica,sans-Serif" font-size="10.00">+ pause()</text>
<text text-anchor="start" x="169.5" y="-29" font-family="Helvetica,sans-Serif" font-size="10.00">+ resume()</text>
<text text-anchor="start" x="169.5" y="-18" font-family="Helvetica,sans-Serif" font-size="10.00">+ update()</text>
<text text-anchor="middle" x="209" y="-7" font-family="Helvetica,sans-Serif" font-size="10.00">}</text>
</a>
</g>
</g>
<!-- Node2 -->
<g id="node2" class="node">
<title>Node2</title>
<g id="a_node2"><a xlink:href="classrtype_1_1IGameState.html" target="_top" xlink:title=" ">
<polygon fill="white" stroke="#666666" points="258,-273 160,-273 160,-166 258,-166 258,-273"/>
<text text-anchor="middle" x="209" y="-261" font-family="Helvetica,sans-Serif" font-size="10.00">{rtype::IGameState</text>
<text text-anchor="start" x="168" y="-250" font-family="Helvetica,sans-Serif" font-size="10.00">||+ clear()</text>
<text text-anchor="start" x="168" y="-239" font-family="Helvetica,sans-Serif" font-size="10.00">+ draw()</text>
<text text-anchor="start" x="168" y="-228" font-family="Helvetica,sans-Serif" font-size="10.00">+ handleEvent()</text>
<text text-anchor="start" x="168" y="-217" font-family="Helvetica,sans-Serif" font-size="10.00">+ init()</text>
<text text-anchor="start" x="168" y="-206" font-family="Helvetica,sans-Serif" font-size="10.00">+ pause()</text>
<text text-anchor="start" x="168" y="-195" font-family="Helvetica,sans-Serif" font-size="10.00">+ resume()</text>
<text text-anchor="start" x="168" y="-184" font-family="Helvetica,sans-Serif" font-size="10.00">+ update()</text>
<text text-anchor="middle" x="209" y="-173" font-family="Helvetica,sans-Serif" font-size="10.00">}</text>
</a>
</g>
</g>
<!-- Node2&#45;&gt;Node1 -->
<g id="edge1" class="edge">
<title>Node2&#45;&gt;Node1</title>
<path fill="none" stroke="#63b8ff" d="M209,-154.33C209,-146.07 209,-137.61 209,-129.35"/>
<polygon fill="none" stroke="#63b8ff" points="205.5,-154.33 209,-164.33 212.5,-154.33 205.5,-154.33"/>
</g>
<!-- Node3 -->
<g id="node3" class="node">
<title>Node3</title>
<g id="a_node3"><a xlink:href="classrtype_1_1entities_1_1EntitiesManager.html" target="_top" xlink:title=" ">
<polygon fill="white" stroke="#666666" points="265.5,-460 152.5,-460 152.5,-320 265.5,-320 265.5,-460"/>
<text text-anchor="start" x="160.5" y="-448" font-family="Helvetica,sans-Serif" font-size="10.00">{rtype::entities::Entities</text>
<text text-anchor="middle" x="209" y="-437" font-family="Helvetica,sans-Serif" font-size="10.00">Manager</text>
<text text-anchor="start" x="160.5" y="-426" font-family="Helvetica,sans-Serif" font-size="10.00">||+ EntitiesManager()</text>
<text text-anchor="start" x="160.5" y="-415" font-family="Helvetica,sans-Serif" font-size="10.00">+ ~EntitiesManager()</text>
<text text-anchor="start" x="160.5" y="-404" font-family="Helvetica,sans-Serif" font-size="10.00">+ CreateEntitie()</text>
<text text-anchor="start" x="160.5" y="-393" font-family="Helvetica,sans-Serif" font-size="10.00">+ getEntitiesList()</text>
<text text-anchor="start" x="160.5" y="-382" font-family="Helvetica,sans-Serif" font-size="10.00">+ getIDs()</text>
<text text-anchor="start" x="160.5" y="-371" font-family="Helvetica,sans-Serif" font-size="10.00">+ getPId()</text>
<text text-anchor="start" x="160.5" y="-360" font-family="Helvetica,sans-Serif" font-size="10.00">+ getSprite()</text>
<text text-anchor="start" x="160.5" y="-349" font-family="Helvetica,sans-Serif" font-size="10.00">+ NewEntity()</text>
<text text-anchor="start" x="160.5" y="-338" font-family="Helvetica,sans-Serif" font-size="10.00">+ setPId()</text>
<text text-anchor="middle" x="209" y="-327" font-family="Helvetica,sans-Serif" font-size="10.00">}</text>
</a>
</g>
</g>
<!-- Node3&#45;&gt;Node2 -->
<g id="edge2" class="edge">
<title>Node3&#45;&gt;Node2</title>
<path fill="none" stroke="#404040" d="M209,-319.98C209,-308.81 209,-297.27 209,-286.18"/>
<polygon fill="none" stroke="#404040" points="209,-286.32 205,-280.32 209,-274.32 213,-280.32 209,-286.32"/>
<text text-anchor="middle" x="235" y="-294" font-family="Helvetica,sans-Serif" font-size="10.00"> #EManager</text>
</g>
<!-- Node4 -->
<g id="node4" class="node">
<title>Node4</title>
<g id="a_node4"><a xlink:title=" ">
<polygon fill="white" stroke="#666666" points="44,-625 0,-625 0,-595 44,-595 44,-625"/>
<text text-anchor="middle" x="22" y="-613" font-family="Helvetica,sans-Serif" font-size="10.00">{int8_t</text>
<text text-anchor="middle" x="22" y="-602" font-family="Helvetica,sans-Serif" font-size="10.00">||}</text>
</a>
</g>
</g>
<!-- Node4&#45;&gt;Node3 -->
<g id="edge3" class="edge">
<title>Node4&#45;&gt;Node3</title>
<path fill="none" stroke="#404040" d="M16.79,-594.72C10.16,-573.93 1.32,-534.79 17,-507 43.24,-460.49 96.45,-430.53 140.21,-412.73"/>
<polygon fill="none" stroke="#404040" points="140.25,-412.71 144.39,-406.8 151.43,-408.35 147.29,-414.26 140.25,-412.71"/>
<text text-anchor="middle" x="26.5" y="-525" font-family="Helvetica,sans-Serif" font-size="10.00"> &#45;pId</text>
</g>
<!-- Node10 -->
<g id="node10" class="node">
<title>Node10</title>
<g id="a_node10"><a xlink:title=" ">
<polygon fill="white" stroke="#666666" points="136.5,-542.5 45.5,-542.5 45.5,-512.5 136.5,-512.5 136.5,-542.5"/>
<text text-anchor="middle" x="91" y="-530.5" font-family="Helvetica,sans-Serif" font-size="10.00">{std::list&lt; int8_t &gt;</text>
<text text-anchor="middle" x="91" y="-519.5" font-family="Helvetica,sans-Serif" font-size="10.00">||}</text>
</a>
</g>
</g>
<!-- Node4&#45;&gt;Node10 -->
<g id="edge10" class="edge">
<title>Node4&#45;&gt;Node10</title>
<path fill="none" stroke="#404040" d="M29.58,-594.76C34.55,-586.04 41.49,-574.89 49,-566 53.3,-560.9 58.3,-555.86 63.31,-551.2"/>
<polygon fill="none" stroke="#404040" points="63.13,-551.36 64.97,-544.39 72.11,-543.41 70.27,-550.38 63.13,-551.36"/>
<text text-anchor="middle" x="73.5" y="-569" font-family="Helvetica,sans-Serif" font-size="10.00"> +elements</text>
</g>
<!-- Node5 -->
<g id="node5" class="node">
<title>Node5</title>
<g id="a_node5"><a xlink:title=" ">
<polygon fill="white" stroke="#666666" points="263,-548 155,-548 155,-507 263,-507 263,-548"/>
<text text-anchor="start" x="163" y="-536" font-family="Helvetica,sans-Serif" font-size="10.00">{std::array&lt; sf::Sprite,</text>
<text text-anchor="middle" x="209" y="-525" font-family="Helvetica,sans-Serif" font-size="10.00"> 100 &gt;</text>
<text text-anchor="middle" x="209" y="-514" font-family="Helvetica,sans-Serif" font-size="10.00">||}</text>
</a>
</g>
</g>
<!-- Node5&#45;&gt;Node3 -->
<g id="edge4" class="edge">
<title>Node5&#45;&gt;Node3</title>
<path fill="none" stroke="#404040" d="M209,-506.51C209,-497.27 209,-485.63 209,-473.32"/>
<polygon fill="none" stroke="#404040" points="209,-473.21 205,-467.21 209,-461.21 213,-467.21 209,-473.21"/>
<text text-anchor="middle" x="227.5" y="-481" font-family="Helvetica,sans-Serif" font-size="10.00"> &#45;entities</text>
</g>
<!-- Node6 -->
<g id="node6" class="node">
<title>Node6</title>
<g id="a_node6"><a xlink:title=" ">
<polygon fill="white" stroke="#666666" points="212.5,-625 167.5,-625 167.5,-595 212.5,-595 212.5,-625"/>
<text text-anchor="middle" x="190" y="-613" font-family="Helvetica,sans-Serif" font-size="10.00">{Sprite</text>
<text text-anchor="middle" x="190" y="-602" font-family="Helvetica,sans-Serif" font-size="10.00">||}</text>
</a>
</g>
</g>
<!-- Node6&#45;&gt;Node5 -->
<g id="edge5" class="edge">
<title>Node6&#45;&gt;Node5</title>
<path fill="none" stroke="#404040" d="M191.31,-594.54C192.24,-586.13 193.74,-575.38 196,-566 196.44,-564.16 196.94,-562.28 197.48,-560.39"/>
<polygon fill="none" stroke="#404040" points="197.47,-560.43 195.48,-553.5 201.11,-549 203.1,-555.93 197.47,-560.43"/>
<text text-anchor="middle" x="220.5" y="-569" font-family="Helvetica,sans-Serif" font-size="10.00"> +elements</text>
</g>
<!-- Node7 -->
<g id="node7" class="node">
<title>Node7</title>
<g id="a_node7"><a xlink:title=" ">
<polygon fill="white" stroke="#666666" points="311.5,-625 230.5,-625 230.5,-595 311.5,-595 311.5,-625"/>
<text text-anchor="middle" x="271" y="-613" font-family="Helvetica,sans-Serif" font-size="10.00">{std::array&lt; T &gt;</text>
<text text-anchor="middle" x="271" y="-602" font-family="Helvetica,sans-Serif" font-size="10.00">||}</text>
</a>
</g>
</g>
<!-- Node7&#45;&gt;Node5 -->
<g id="edge6" class="edge">
<title>Node7&#45;&gt;Node5</title>
<path fill="none" stroke="orange" d="M257.78,-585.02C253.93,-578.65 249.53,-571.9 245,-566 240.39,-559.99 234.92,-553.88 229.67,-548.39"/>
<polygon fill="orange" stroke="orange" points="254.51,-586.35 262.56,-593.23 260.56,-582.83 254.51,-586.35"/>
<text text-anchor="middle" x="291.5" y="-569" font-family="Helvetica,sans-Serif" font-size="10.00"> &lt; sf::Sprite, 100 &gt;</text>
</g>
<!-- Node8 -->
<g id="node8" class="node">
<title>Node8</title>
<g id="a_node8"><a xlink:title=" ">
<polygon fill="white" stroke="#666666" points="206.5,-702 177.5,-702 177.5,-672 206.5,-672 206.5,-702"/>
<text text-anchor="middle" x="192" y="-690" font-family="Helvetica,sans-Serif" font-size="10.00">{T</text>
<text text-anchor="middle" x="192" y="-679" font-family="Helvetica,sans-Serif" font-size="10.00">||}</text>
</a>
</g>
</g>
<!-- Node8&#45;&gt;Node7 -->
<g id="edge7" class="edge">
<title>Node8&#45;&gt;Node7</title>
<path fill="none" stroke="#404040" d="M206.86,-671.89C218.04,-661.28 233.61,-646.49 246.61,-634.15"/>
<polygon fill="none" stroke="#404040" points="246.58,-634.18 248.18,-627.15 255.29,-625.92 253.69,-632.95 246.58,-634.18"/>
<text text-anchor="middle" x="260.5" y="-646" font-family="Helvetica,sans-Serif" font-size="10.00"> +elements</text>
</g>
<!-- Node11 -->
<g id="node11" class="node">
<title>Node11</title>
<g id="a_node11"><a xlink:title=" ">
<polygon fill="white" stroke="#666666" points="149.5,-625 76.5,-625 76.5,-595 149.5,-595 149.5,-625"/>
<text text-anchor="middle" x="113" y="-613" font-family="Helvetica,sans-Serif" font-size="10.00">{std::list&lt; T &gt;</text>
<text text-anchor="middle" x="113" y="-602" font-family="Helvetica,sans-Serif" font-size="10.00">||}</text>
</a>
</g>
</g>
<!-- Node8&#45;&gt;Node11 -->
<g id="edge12" class="edge">
<title>Node8&#45;&gt;Node11</title>
<path fill="none" stroke="#404040" d="M177.14,-671.89C165.96,-661.28 150.39,-646.49 137.39,-634.15"/>
<polygon fill="none" stroke="#404040" points="137.42,-634.18 130.31,-632.95 128.71,-625.92 135.82,-627.15 137.42,-634.18"/>
<text text-anchor="middle" x="182.5" y="-646" font-family="Helvetica,sans-Serif" font-size="10.00"> +elements</text>
</g>
<!-- Node9 -->
<g id="node9" class="node">
<title>Node9</title>
<g id="a_node9"><a xlink:title=" ">
<polygon fill="white" stroke="#666666" points="333,-542.5 281,-542.5 281,-512.5 333,-512.5 333,-542.5"/>
<text text-anchor="middle" x="307" y="-530.5" font-family="Helvetica,sans-Serif" font-size="10.00">{Texture</text>
<text text-anchor="middle" x="307" y="-519.5" font-family="Helvetica,sans-Serif" font-size="10.00">||}</text>
</a>
</g>
</g>
<!-- Node9&#45;&gt;Node3 -->
<g id="edge8" class="edge">
<title>Node9&#45;&gt;Node3</title>
<path fill="none" stroke="#404040" d="M296.7,-512.26C289.09,-501.73 278.06,-486.48 266.37,-470.33"/>
<polygon fill="none" stroke="#404040" points="266.6,-470.64 259.84,-468.12 259.57,-460.92 266.32,-463.43 266.6,-470.64"/>
<text text-anchor="middle" x="295.5" y="-481" font-family="Helvetica,sans-Serif" font-size="10.00"> &#45;texture</text>
</g>
<!-- Node10&#45;&gt;Node3 -->
<g id="edge9" class="edge">
<title>Node10&#45;&gt;Node3</title>
<path fill="none" stroke="#404040" d="M103.41,-512.26C113.43,-500.74 128.39,-483.57 143.91,-465.74"/>
<polygon fill="none" stroke="#404040" points="143.59,-466.11 144.51,-458.96 151.47,-457.06 150.55,-464.21 143.59,-466.11"/>
<text text-anchor="middle" x="143.5" y="-481" font-family="Helvetica,sans-Serif" font-size="10.00"> &#45;IDs</text>
</g>
<!-- Node11&#45;&gt;Node10 -->
<g id="edge11" class="edge">
<title>Node11&#45;&gt;Node10</title>
<path fill="none" stroke="orange" d="M106.06,-583.61C102.38,-570.13 97.99,-554.07 94.9,-542.77"/>
<polygon fill="orange" stroke="orange" points="102.66,-584.42 108.67,-593.15 109.41,-582.58 102.66,-584.42"/>
<text text-anchor="middle" x="125.5" y="-569" font-family="Helvetica,sans-Serif" font-size="10.00"> &lt; int8_t &gt;</text>
</g>
<!-- Node12 -->
<g id="node12" class="node">
<title>Node12</title>
<g id="a_node12"><a xlink:title=" ">
<polygon fill="white" stroke="#666666" points="436.5,-542.5 351.5,-542.5 351.5,-512.5 436.5,-512.5 436.5,-542.5"/>
<text text-anchor="middle" x="394" y="-530.5" font-family="Helvetica,sans-Serif" font-size="10.00">{RenderWindow</text>
<text text-anchor="middle" x="394" y="-519.5" font-family="Helvetica,sans-Serif" font-size="10.00">||}</text>
</a>
</g>
</g>
<!-- Node12&#45;&gt;Node3 -->
<g id="edge13" class="edge">
<title>Node12&#45;&gt;Node3</title>
<path fill="none" stroke="#404040" d="M374.55,-512.26C351.25,-495.19 310.96,-465.68 275.96,-440.05"/>
<polygon fill="none" stroke="#404040" points="276.18,-440.21 268.98,-439.89 266.5,-433.12 273.71,-433.43 276.18,-440.21"/>
<text text-anchor="middle" x="358.5" y="-481" font-family="Helvetica,sans-Serif" font-size="10.00"> &#45;window</text>
</g>
</g>
</svg>
