<?xml version="1.0" encoding="UTF-8" standalone="no"?>
<!DOCTYPE svg PUBLIC "-//W3C//DTD SVG 1.1//EN"
 "http://www.w3.org/Graphics/SVG/1.1/DTD/svg11.dtd">
<!-- Generated by graphviz version 7.0.5 (20221223.1930)
 -->
<!-- Title: rtype::components::DefaultComp Pages: 1 -->
<svg width="648pt" height="611pt"
 viewBox="0.00 0.00 647.50 611.00" xmlns="http://www.w3.org/2000/svg" xmlns:xlink="http://www.w3.org/1999/xlink">
<g id="graph0" class="graph" transform="scale(1 1) rotate(0) translate(4 607)">
<title>rtype::components::DefaultComp</title>
<!-- Node1 -->
<g id="node1" class="node">
<title>Node1</title>
<g id="a_node1"><a xlink:title=" ">
<polygon fill="#999999" stroke="#666666" points="447,-118 344,-118 344,0 447,0 447,-118"/>
<text text-anchor="start" x="352" y="-106" font-family="Helvetica,sans-Serif" font-size="10.00">{rtype::components::</text>
<text text-anchor="middle" x="395.5" y="-95" font-family="Helvetica,sans-Serif" font-size="10.00">DefaultComp</text>
<text text-anchor="start" x="352" y="-84" font-family="Helvetica,sans-Serif" font-size="10.00">||+ DefaultComp()</text>
<text text-anchor="start" x="352" y="-73" font-family="Helvetica,sans-Serif" font-size="10.00">+ DefaultComp()</text>
<text text-anchor="start" x="352" y="-62" font-family="Helvetica,sans-Serif" font-size="10.00">+ DefaultComp()</text>
<text text-anchor="start" x="352" y="-51" font-family="Helvetica,sans-Serif" font-size="10.00">+ ~DefaultComp()</text>
<text text-anchor="start" x="352" y="-40" font-family="Helvetica,sans-Serif" font-size="10.00">+ draw()</text>
<text text-anchor="start" x="352" y="-29" font-family="Helvetica,sans-Serif" font-size="10.00">+ handleEvent()</text>
<text text-anchor="start" x="352" y="-18" font-family="Helvetica,sans-Serif" font-size="10.00">+ handleEvent()</text>
<text text-anchor="middle" x="395.5" y="-7" font-family="Helvetica,sans-Serif" font-size="10.00">}</text>
</a>
</g>
</g>
<!-- Node2 -->
<g id="node2" class="node">
<title>Node2</title>
<g id="a_node2"><a xlink:href="classrtype_1_1components_1_1Component.html" target="_top" xlink:title=" ">
<polygon fill="white" stroke="#666666" points="195,-349 92,-349 92,-176 195,-176 195,-349"/>
<text text-anchor="start" x="100" y="-337" font-family="Helvetica,sans-Serif" font-size="10.00">{rtype::components::</text>
<text text-anchor="middle" x="143.5" y="-326" font-family="Helvetica,sans-Serif" font-size="10.00">Component</text>
<text text-anchor="start" x="100" y="-315" font-family="Helvetica,sans-Serif" font-size="10.00">||+ Component()</text>
<text text-anchor="start" x="100" y="-304" font-family="Helvetica,sans-Serif" font-size="10.00">+ Component()</text>
<text text-anchor="start" x="100" y="-293" font-family="Helvetica,sans-Serif" font-size="10.00">+ ~Component()</text>
<text text-anchor="start" x="100" y="-282" font-family="Helvetica,sans-Serif" font-size="10.00">+ draw()</text>
<text text-anchor="start" x="100" y="-271" font-family="Helvetica,sans-Serif" font-size="10.00">+ getId()</text>
<text text-anchor="start" x="100" y="-260" font-family="Helvetica,sans-Serif" font-size="10.00">+ getOwnerId()</text>
<text text-anchor="start" x="100" y="-249" font-family="Helvetica,sans-Serif" font-size="10.00">+ handleEvent()</text>
<text text-anchor="start" x="100" y="-238" font-family="Helvetica,sans-Serif" font-size="10.00">+ handleEvent()</text>
<text text-anchor="start" x="100" y="-227" font-family="Helvetica,sans-Serif" font-size="10.00">+ init()</text>
<text text-anchor="start" x="100" y="-216" font-family="Helvetica,sans-Serif" font-size="10.00">+ pName()</text>
<text text-anchor="start" x="100" y="-205" font-family="Helvetica,sans-Serif" font-size="10.00">+ printSMthing()</text>
<text text-anchor="start" x="100" y="-194" font-family="Helvetica,sans-Serif" font-size="10.00">+ update()</text>
<text text-anchor="middle" x="143.5" y="-183" font-family="Helvetica,sans-Serif" font-size="10.00">}</text>
</a>
</g>
</g>
<!-- Node2&#45;&gt;Node1 -->
<g id="edge1" class="edge">
<title>Node2&#45;&gt;Node1</title>
<path fill="none" stroke="#63b8ff" d="M203.24,-176.24C203.33,-176.16 203.41,-176.08 203.5,-176 245.48,-136.79 302.83,-104.26 343.89,-83.72"/>
<polygon fill="none" stroke="#63b8ff" points="200.96,-173.57 196.39,-183.13 205.92,-178.51 200.96,-173.57"/>
</g>
<!-- Node3 -->
<g id="node3" class="node">
<title>Node3</title>
<g id="a_node3"><a xlink:href="classrtype_1_1components_1_1IComponents.html" target="_top" xlink:title=" ">
<polygon fill="white" stroke="#666666" points="103,-525 0,-525 0,-407 103,-407 103,-525"/>
<text text-anchor="start" x="8" y="-513" font-family="Helvetica,sans-Serif" font-size="10.00">{rtype::components::</text>
<text text-anchor="middle" x="51.5" y="-502" font-family="Helvetica,sans-Serif" font-size="10.00">IComponents</text>
<text text-anchor="start" x="8" y="-491" font-family="Helvetica,sans-Serif" font-size="10.00">||+ draw()</text>
<text text-anchor="start" x="8" y="-480" font-family="Helvetica,sans-Serif" font-size="10.00">+ getId()</text>
<text text-anchor="start" x="8" y="-469" font-family="Helvetica,sans-Serif" font-size="10.00">+ getOwnerId()</text>
<text text-anchor="start" x="8" y="-458" font-family="Helvetica,sans-Serif" font-size="10.00">+ handleEvent()</text>
<text text-anchor="start" x="8" y="-447" font-family="Helvetica,sans-Serif" font-size="10.00">+ handleEvent()</text>
<text text-anchor="start" x="8" y="-436" font-family="Helvetica,sans-Serif" font-size="10.00">+ init()</text>
<text text-anchor="start" x="8" y="-425" font-family="Helvetica,sans-Serif" font-size="10.00">+ update()</text>
<text text-anchor="middle" x="51.5" y="-414" font-family="Helvetica,sans-Serif" font-size="10.00">}</text>
</a>
</g>
</g>
<!-- Node3&#45;&gt;Node2 -->
<g id="edge2" class="edge">
<title>Node3&#45;&gt;Node2</title>
<path fill="none" stroke="#63b8ff" d="M82.8,-396.44C89.71,-381.31 97.11,-365.1 104.29,-349.39"/>
<polygon fill="none" stroke="#63b8ff" points="79.71,-394.79 78.74,-405.34 86.08,-397.7 79.71,-394.79"/>
</g>
<!-- Node4 -->
<g id="node4" class="node">
<title>Node4</title>
<g id="a_node4"><a xlink:title=" ">
<polygon fill="white" stroke="#666666" points="165.5,-481 121.5,-481 121.5,-451 165.5,-451 165.5,-481"/>
<text text-anchor="middle" x="143.5" y="-469" font-family="Helvetica,sans-Serif" font-size="10.00">{int8_t</text>
<text text-anchor="middle" x="143.5" y="-458" font-family="Helvetica,sans-Serif" font-size="10.00">||}</text>
</a>
</g>
</g>
<!-- Node4&#45;&gt;Node2 -->
<g id="edge3" class="edge">
<title>Node4&#45;&gt;Node2</title>
<path fill="none" stroke="#404040" d="M143.5,-450.51C143.5,-431.54 143.5,-396.63 143.5,-362.06"/>
<polygon fill="none" stroke="#404040" points="143.5,-362.28 139.5,-356.28 143.5,-350.28 147.5,-356.28 143.5,-362.28"/>
<text text-anchor="middle" x="165" y="-381" font-family="Helvetica,sans-Serif" font-size="10.00"> +Id</text>
<text text-anchor="middle" x="165" y="-370" font-family="Helvetica,sans-Serif" font-size="10.00">+OwnerId</text>
</g>
<!-- Node5 -->
<g id="node5" class="node">
<title>Node5</title>
<g id="a_node5"><a xlink:title=" ">
<polygon fill="white" stroke="#666666" points="245.5,-481 183.5,-481 183.5,-451 245.5,-451 245.5,-481"/>
<text text-anchor="middle" x="214.5" y="-469" font-family="Helvetica,sans-Serif" font-size="10.00">{std::string</text>
<text text-anchor="middle" x="214.5" y="-458" font-family="Helvetica,sans-Serif" font-size="10.00">||}</text>
</a>
</g>
</g>
<!-- Node5&#45;&gt;Node2 -->
<g id="edge4" class="edge">
<title>Node5&#45;&gt;Node2</title>
<path fill="none" stroke="#404040" d="M211.67,-450.82C207.65,-431.57 199.63,-396.2 189.5,-367 188.88,-365.2 188.23,-363.39 187.57,-361.57"/>
<polygon fill="none" stroke="#404040" points="187.56,-361.54 181.7,-357.34 183.33,-350.31 189.19,-354.51 187.56,-361.54"/>
<text text-anchor="middle" x="213" y="-375.5" font-family="Helvetica,sans-Serif" font-size="10.00"> +name</text>
</g>
<!-- Node6 -->
<g id="node6" class="node">
<title>Node6</title>
<g id="a_node6"><a xlink:title=" ">
<polygon fill="white" stroke="#666666" points="262.5,-603 166.5,-603 166.5,-562 262.5,-562 262.5,-603"/>
<text text-anchor="start" x="174.5" y="-591" font-family="Helvetica,sans-Serif" font-size="10.00">{std::basic_string&lt;</text>
<text text-anchor="middle" x="214.5" y="-580" font-family="Helvetica,sans-Serif" font-size="10.00"> Char &gt;</text>
<text text-anchor="middle" x="214.5" y="-569" font-family="Helvetica,sans-Serif" font-size="10.00">||}</text>
</a>
</g>
</g>
<!-- Node6&#45;&gt;Node5 -->
<g id="edge5" class="edge">
<title>Node6&#45;&gt;Node5</title>
<path fill="none" stroke="#63b8ff" d="M214.5,-550.2C214.5,-527.71 214.5,-498.45 214.5,-481.29"/>
<polygon fill="none" stroke="#63b8ff" points="211,-550.04 214.5,-560.04 218,-550.04 211,-550.04"/>
</g>
<!-- Node7 -->
<g id="node7" class="node">
<title>Node7</title>
<g id="a_node7"><a xlink:title=" ">
<polygon fill="white" stroke="#666666" points="258,-277.5 213,-277.5 213,-247.5 258,-247.5 258,-277.5"/>
<text text-anchor="middle" x="235.5" y="-265.5" font-family="Helvetica,sans-Serif" font-size="10.00">{Sprite</text>
<text text-anchor="middle" x="235.5" y="-254.5" font-family="Helvetica,sans-Serif" font-size="10.00">||}</text>
</a>
</g>
</g>
<!-- Node7&#45;&gt;Node1 -->
<g id="edge6" class="edge">
<title>Node7&#45;&gt;Node1</title>
<path fill="none" stroke="#404040" d="M238.68,-247.24C243.1,-229.46 252.34,-198.65 267.5,-176 285.31,-149.39 310.52,-124.81 333.87,-105.18"/>
<polygon fill="none" stroke="#404040" points="333.76,-105.27 335.86,-98.37 343.03,-97.65 340.94,-104.55 333.76,-105.27"/>
<text text-anchor="middle" x="317" y="-144.5" font-family="Helvetica,sans-Serif" font-size="10.00"> +asset</text>
</g>
<!-- Node8 -->
<g id="node8" class="node">
<title>Node8</title>
<g id="a_node8"><a xlink:title=" ">
<polygon fill="white" stroke="#666666" points="367,-277.5 276,-277.5 276,-247.5 367,-247.5 367,-277.5"/>
<text text-anchor="middle" x="321.5" y="-265.5" font-family="Helvetica,sans-Serif" font-size="10.00">{RectangleShape</text>
<text text-anchor="middle" x="321.5" y="-254.5" font-family="Helvetica,sans-Serif" font-size="10.00">||}</text>
</a>
</g>
</g>
<!-- Node8&#45;&gt;Node1 -->
<g id="edge7" class="edge">
<title>Node8&#45;&gt;Node1</title>
<path fill="none" stroke="#404040" d="M324.29,-247.25C329.15,-223.62 340.14,-175.08 355.5,-136 356.25,-134.09 357.04,-132.16 357.85,-130.23"/>
<polygon fill="none" stroke="#404040" points="357.91,-130.09 356.71,-122.98 362.81,-119.14 364.01,-126.25 357.91,-130.09"/>
<text text-anchor="middle" x="373" y="-144.5" font-family="Helvetica,sans-Serif" font-size="10.00"> +shape</text>
</g>
<!-- Node9 -->
<g id="node9" class="node">
<title>Node9</title>
<g id="a_node9"><a xlink:title=" ">
<polygon fill="white" stroke="#666666" points="437.5,-277.5 385.5,-277.5 385.5,-247.5 437.5,-247.5 437.5,-277.5"/>
<text text-anchor="middle" x="411.5" y="-265.5" font-family="Helvetica,sans-Serif" font-size="10.00">{Texture</text>
<text text-anchor="middle" x="411.5" y="-254.5" font-family="Helvetica,sans-Serif" font-size="10.00">||}</text>
</a>
</g>
</g>
<!-- Node9&#45;&gt;Node1 -->
<g id="edge8" class="edge">
<title>Node9&#45;&gt;Node1</title>
<path fill="none" stroke="#404040" d="M408.8,-247.17C405.2,-227.25 398.97,-190.04 396.5,-158 395.84,-149.39 395.4,-140.35 395.12,-131.38"/>
<polygon fill="none" stroke="#404040" points="395.11,-131.25 390.98,-125.35 394.84,-119.26 398.97,-125.16 395.11,-131.25"/>
<text text-anchor="middle" x="429" y="-144.5" font-family="Helvetica,sans-Serif" font-size="10.00"> +assetTexture</text>
</g>
<!-- Node10 -->
<g id="node10" class="node">
<title>Node10</title>
<g id="a_node10"><a xlink:title=" ">
<polygon fill="white" stroke="#666666" points="511.5,-277.5 455.5,-277.5 455.5,-247.5 511.5,-247.5 511.5,-277.5"/>
<text text-anchor="middle" x="483.5" y="-265.5" font-family="Helvetica,sans-Serif" font-size="10.00">{Vector2f</text>
<text text-anchor="middle" x="483.5" y="-254.5" font-family="Helvetica,sans-Serif" font-size="10.00">||}</text>
</a>
</g>
</g>
<!-- Node10&#45;&gt;Node1 -->
<g id="edge9" class="edge">
<title>Node10&#45;&gt;Node1</title>
<path fill="none" stroke="#404040" d="M483.44,-247.2C482.82,-223.1 479.28,-173.35 461.5,-136 459.46,-131.72 457.12,-127.5 454.56,-123.37"/>
<polygon fill="none" stroke="#404040" points="454.55,-123.36 447.87,-120.63 447.82,-113.42 454.5,-116.15 454.55,-123.36"/>
<text text-anchor="middle" x="483.5" y="-150" font-family="Helvetica,sans-Serif" font-size="10.00"> +pos</text>
<text text-anchor="middle" x="483.5" y="-139" font-family="Helvetica,sans-Serif" font-size="10.00">+scale</text>
</g>
<!-- Node11 -->
<g id="node11" class="node">
<title>Node11</title>
<g id="a_node11"><a xlink:title=" ">
<polygon fill="white" stroke="#666666" points="581,-277.5 530,-277.5 530,-247.5 581,-247.5 581,-277.5"/>
<text text-anchor="middle" x="555.5" y="-265.5" font-family="Helvetica,sans-Serif" font-size="10.00">{IntRect</text>
<text text-anchor="middle" x="555.5" y="-254.5" font-family="Helvetica,sans-Serif" font-size="10.00">||}</text>
</a>
</g>
</g>
<!-- Node11&#45;&gt;Node1 -->
<g id="edge10" class="edge">
<title>Node11&#45;&gt;Node1</title>
<path fill="none" stroke="#404040" d="M552.34,-247.31C546.25,-222.48 530.89,-170.53 502.5,-136 490.04,-120.84 473.85,-107.28 457.85,-95.95"/>
<polygon fill="none" stroke="#404040" points="458.07,-96.1 450.86,-96.03 448.15,-89.35 455.36,-89.42 458.07,-96.1"/>
<text text-anchor="middle" x="539" y="-144.5" font-family="Helvetica,sans-Serif" font-size="10.00"> +textRect</text>
</g>
<!-- Node12 -->
<g id="node12" class="node">
<title>Node12</title>
<g id="a_node12"><a xlink:title=" ">
<polygon fill="white" stroke="#666666" points="639.5,-277.5 601.5,-277.5 601.5,-247.5 639.5,-247.5 639.5,-277.5"/>
<text text-anchor="middle" x="620.5" y="-265.5" font-family="Helvetica,sans-Serif" font-size="10.00">{bool</text>
<text text-anchor="middle" x="620.5" y="-254.5" font-family="Helvetica,sans-Serif" font-size="10.00">||}</text>
</a>
</g>
</g>
<!-- Node12&#45;&gt;Node1 -->
<g id="edge11" class="edge">
<title>Node12&#45;&gt;Node1</title>
<path fill="none" stroke="#404040" d="M618.29,-247.11C613.52,-221.01 599.77,-165.83 565.5,-136 534.99,-109.44 493.69,-90.68 459.43,-78.45"/>
<polygon fill="none" stroke="#404040" points="459.37,-78.43 452.39,-80.26 448.02,-74.53 454.99,-72.7 459.37,-78.43"/>
<text text-anchor="middle" x="610.5" y="-144.5" font-family="Helvetica,sans-Serif" font-size="10.00"> +localPlayer</text>
</g>
</g>
</svg>
