<?xml version="1.0" encoding="UTF-8" standalone="no"?>
<!DOCTYPE svg PUBLIC "-//W3C//DTD SVG 1.1//EN"
 "http://www.w3.org/Graphics/SVG/1.1/DTD/svg11.dtd">
<!-- Generated by graphviz version 7.0.5 (20221223.1930)
 -->
<!-- Title: rtype::components::Centipede Pages: 1 -->
<svg width="283pt" height="379pt"
 viewBox="0.00 0.00 283.00 379.00" xmlns="http://www.w3.org/2000/svg" xmlns:xlink="http://www.w3.org/1999/xlink">
<g id="graph0" class="graph" transform="scale(1 1) rotate(0) translate(4 375)">
<title>rtype::components::Centipede</title>
<!-- Node1 -->
<g id="node1" class="node">
<title>Node1</title>
<g id="a_node1"><a xlink:title=" ">
<polygon fill="#999999" stroke="#666666" points="201.5,-85 98.5,-85 98.5,0 201.5,0 201.5,-85"/>
<text text-anchor="start" x="106.5" y="-73" font-family="Helvetica,sans-Serif" font-size="10.00">{rtype::components::</text>
<text text-anchor="middle" x="150" y="-62" font-family="Helvetica,sans-Serif" font-size="10.00">Centipede</text>
<text text-anchor="start" x="106.5" y="-51" font-family="Helvetica,sans-Serif" font-size="10.00">||+ Centipede()</text>
<text text-anchor="start" x="106.5" y="-40" font-family="Helvetica,sans-Serif" font-size="10.00">+ Centipedeinit()</text>
<text text-anchor="start" x="106.5" y="-29" font-family="Helvetica,sans-Serif" font-size="10.00">+ draw()</text>
<text text-anchor="start" x="106.5" y="-18" font-family="Helvetica,sans-Serif" font-size="10.00">+ update()</text>
<text text-anchor="middle" x="150" y="-7" font-family="Helvetica,sans-Serif" font-size="10.00">}</text>
</a>
</g>
</g>
<!-- Node2 -->
<g id="node2" class="node">
<title>Node2</title>
<g id="a_node2"><a xlink:title=" ">
<polygon fill="white" stroke="#666666" points="206,-173 94,-173 94,-132 206,-132 206,-173"/>
<text text-anchor="start" x="102" y="-161" font-family="Helvetica,sans-Serif" font-size="10.00">{std::vector&lt; rtype</text>
<text text-anchor="middle" x="150" y="-150" font-family="Helvetica,sans-Serif" font-size="10.00">::components::Block &gt;</text>
<text text-anchor="middle" x="150" y="-139" font-family="Helvetica,sans-Serif" font-size="10.00">||}</text>
</a>
</g>
</g>
<!-- Node2&#45;&gt;Node1 -->
<g id="edge1" class="edge">
<title>Node2&#45;&gt;Node1</title>
<path fill="none" stroke="#404040" d="M150,-131.69C150,-122.12 150,-110.12 150,-98.07"/>
<polygon fill="none" stroke="#404040" points="150,-98.01 146,-92.01 150,-86.01 154,-92.01 150,-98.01"/>
<text text-anchor="middle" x="168.5" y="-106" font-family="Helvetica,sans-Serif" font-size="10.00"> +blocks</text>
</g>
<!-- Node3 -->
<g id="node3" class="node">
<title>Node3</title>
<g id="a_node3"><a xlink:href="classrtype_1_1components_1_1Block.html" target="_top" xlink:title=" ">
<polygon fill="white" stroke="#666666" points="145.5,-294 42.5,-294 42.5,-231 145.5,-231 145.5,-294"/>
<text text-anchor="start" x="50.5" y="-282" font-family="Helvetica,sans-Serif" font-size="10.00">{rtype::components::</text>
<text text-anchor="middle" x="94" y="-271" font-family="Helvetica,sans-Serif" font-size="10.00">Block</text>
<text text-anchor="start" x="50.5" y="-260" font-family="Helvetica,sans-Serif" font-size="10.00">||+ Block()</text>
<text text-anchor="start" x="50.5" y="-249" font-family="Helvetica,sans-Serif" font-size="10.00">+ update()</text>
<text text-anchor="middle" x="94" y="-238" font-family="Helvetica,sans-Serif" font-size="10.00">}</text>
</a>
</g>
</g>
<!-- Node3&#45;&gt;Node2 -->
<g id="edge2" class="edge">
<title>Node3&#45;&gt;Node2</title>
<path fill="none" stroke="#404040" d="M106.15,-230.75C111.46,-218.19 118.06,-203.66 125,-191 126.21,-188.79 127.52,-186.54 128.87,-184.29"/>
<polygon fill="none" stroke="#404040" points="128.91,-184.22 128.76,-177.01 135.36,-174.1 135.51,-181.31 128.91,-184.22"/>
<text text-anchor="middle" x="149.5" y="-199.5" font-family="Helvetica,sans-Serif" font-size="10.00"> +elements</text>
</g>
<!-- Node4 -->
<g id="node4" class="node">
<title>Node4</title>
<g id="a_node4"><a xlink:title=" ">
<polygon fill="white" stroke="#666666" points="72,-371 0,-371 0,-341 72,-341 72,-371"/>
<text text-anchor="middle" x="36" y="-359" font-family="Helvetica,sans-Serif" font-size="10.00">{CircleShape</text>
<text text-anchor="middle" x="36" y="-348" font-family="Helvetica,sans-Serif" font-size="10.00">||}</text>
</a>
</g>
</g>
<!-- Node4&#45;&gt;Node3 -->
<g id="edge3" class="edge">
<title>Node4&#45;&gt;Node3</title>
<path fill="none" stroke="#404040" d="M45.06,-340.7C51.12,-331.14 59.44,-318.02 67.49,-305.31"/>
<polygon fill="none" stroke="#404040" points="67.54,-305.25 67.37,-298.04 73.96,-295.11 74.13,-302.32 67.54,-305.25"/>
<text text-anchor="middle" x="79.5" y="-315" font-family="Helvetica,sans-Serif" font-size="10.00"> +shape</text>
</g>
<!-- Node5 -->
<g id="node5" class="node">
<title>Node5</title>
<g id="a_node5"><a xlink:title=" ">
<polygon fill="white" stroke="#666666" points="146,-371 90,-371 90,-341 146,-341 146,-371"/>
<text text-anchor="middle" x="118" y="-359" font-family="Helvetica,sans-Serif" font-size="10.00">{Vector2f</text>
<text text-anchor="middle" x="118" y="-348" font-family="Helvetica,sans-Serif" font-size="10.00">||}</text>
</a>
</g>
</g>
<!-- Node5&#45;&gt;Node3 -->
<g id="edge4" class="edge">
<title>Node5&#45;&gt;Node3</title>
<path fill="none" stroke="#404040" d="M114.25,-340.7C111.84,-331.53 108.58,-319.08 105.37,-306.86"/>
<polygon fill="none" stroke="#404040" points="105.37,-306.83 99.97,-302.04 102.32,-295.22 107.71,-300.01 105.37,-306.83"/>
<text text-anchor="middle" x="131" y="-315" font-family="Helvetica,sans-Serif" font-size="10.00"> +velocity</text>
</g>
<!-- Node6 -->
<g id="node6" class="node">
<title>Node6</title>
<g id="a_node6"><a xlink:title=" ">
<polygon fill="white" stroke="#666666" points="250.5,-277.5 163.5,-277.5 163.5,-247.5 250.5,-247.5 250.5,-277.5"/>
<text text-anchor="middle" x="207" y="-265.5" font-family="Helvetica,sans-Serif" font-size="10.00">{std::vector&lt; T &gt;</text>
<text text-anchor="middle" x="207" y="-254.5" font-family="Helvetica,sans-Serif" font-size="10.00">||}</text>
</a>
</g>
</g>
<!-- Node6&#45;&gt;Node2 -->
<g id="edge5" class="edge">
<title>Node6&#45;&gt;Node2</title>
<path fill="none" stroke="orange" d="M196.51,-237.04C190.37,-223.29 182.23,-205.94 174,-191 170.79,-185.18 167.03,-179.04 163.45,-173.44"/>
<polygon fill="orange" stroke="orange" points="193.13,-238.05 200.35,-245.8 199.53,-235.23 193.13,-238.05"/>
<text text-anchor="start" x="185" y="-205" font-family="Helvetica,sans-Serif" font-size="10.00"> &lt; rtype::components</text>
<text text-anchor="middle" x="230" y="-194" font-family="Helvetica,sans-Serif" font-size="10.00">::Block &gt;</text>
</g>
<!-- Node7 -->
<g id="node7" class="node">
<title>Node7</title>
<g id="a_node7"><a xlink:title=" ">
<polygon fill="white" stroke="#666666" points="221.5,-371 192.5,-371 192.5,-341 221.5,-341 221.5,-371"/>
<text text-anchor="middle" x="207" y="-359" font-family="Helvetica,sans-Serif" font-size="10.00">{T</text>
<text text-anchor="middle" x="207" y="-348" font-family="Helvetica,sans-Serif" font-size="10.00">||}</text>
</a>
</g>
</g>
<!-- Node7&#45;&gt;Node6 -->
<g id="edge6" class="edge">
<title>Node7&#45;&gt;Node6</title>
<path fill="none" stroke="#404040" d="M207,-340.7C207,-327.35 207,-307.07 207,-290.65"/>
<polygon fill="none" stroke="#404040" points="207,-290.9 203,-284.9 207,-278.9 211,-284.9 207,-290.9"/>
<text text-anchor="middle" x="231.5" y="-315" font-family="Helvetica,sans-Serif" font-size="10.00"> +elements</text>
</g>
</g>
</svg>
