<?xml version="1.0" encoding="UTF-8" standalone="no"?>
<!DOCTYPE svg PUBLIC "-//W3C//DTD SVG 1.1//EN"
 "http://www.w3.org/Graphics/SVG/1.1/DTD/svg11.dtd">
<!-- Generated by graphviz version 7.0.5 (20221223.1930)
 -->
<!-- Title: utilities::Check Pages: 1 -->
<svg width="107pt" height="159pt"
 viewBox="0.00 0.00 106.50 159.00" xmlns="http://www.w3.org/2000/svg" xmlns:xlink="http://www.w3.org/1999/xlink">
<g id="graph0" class="graph" transform="scale(1 1) rotate(0) translate(4 155)">
<title>utilities::Check</title>
<!-- Node1 -->
<g id="node1" class="node">
<title>Node1</title>
<g id="a_node1"><a xlink:title=" ">
<polygon fill="#999999" stroke="#666666" points="83,-63 0,-63 0,0 83,0 83,-63"/>
<text text-anchor="middle" x="41.5" y="-51" font-family="Helvetica,sans-Serif" font-size="10.00">{utilities::Check</text>
<text text-anchor="start" x="8" y="-40" font-family="Helvetica,sans-Serif" font-size="10.00">||+ isAlias()</text>
<text text-anchor="start" x="8" y="-29" font-family="Helvetica,sans-Serif" font-size="10.00">+ isIp()</text>
<text text-anchor="start" x="8" y="-18" font-family="Helvetica,sans-Serif" font-size="10.00">+ isPort()</text>
<text text-anchor="middle" x="41.5" y="-7" font-family="Helvetica,sans-Serif" font-size="10.00">}</text>
</a>
</g>
</g>
<!-- Node2 -->
<g id="node2" class="node">
<title>Node2</title>
<g id="a_node2"><a xlink:title=" ">
<polygon fill="white" stroke="#666666" points="63,-151 20,-151 20,-121 63,-121 63,-151"/>
<text text-anchor="middle" x="41.5" y="-139" font-family="Helvetica,sans-Serif" font-size="10.00">{regex</text>
<text text-anchor="middle" x="41.5" y="-128" font-family="Helvetica,sans-Serif" font-size="10.00">||}</text>
</a>
</g>
</g>
<!-- Node2&#45;&gt;Node1 -->
<g id="edge1" class="edge">
<title>Node2&#45;&gt;Node1</title>
<path fill="none" stroke="#404040" d="M41.5,-120.75C41.5,-109.23 41.5,-92.38 41.5,-76.47"/>
<polygon fill="none" stroke="#404040" points="41.5,-76.38 37.5,-70.38 41.5,-64.38 45.5,-70.38 41.5,-76.38"/>
<text text-anchor="middle" x="70" y="-95" font-family="Helvetica,sans-Serif" font-size="10.00"> &#45;_ipPattern</text>
<text text-anchor="middle" x="70" y="-84" font-family="Helvetica,sans-Serif" font-size="10.00">&#45;_portPattern</text>
</g>
</g>
</svg>
