<?xml version="1.0" encoding="UTF-8" standalone="no"?>
<!DOCTYPE svg PUBLIC "-//W3C//DTD SVG 1.1//EN"
 "http://www.w3.org/Graphics/SVG/1.1/DTD/svg11.dtd">
<!-- Generated by graphviz version 7.0.5 (20221223.1930)
 -->
<!-- Title: Utils::SparseArray&lt; T, N &gt; Pages: 1 -->
<svg width="329pt" height="412pt"
 viewBox="0.00 0.00 328.50 412.00" xmlns="http://www.w3.org/2000/svg" xmlns:xlink="http://www.w3.org/1999/xlink">
<g id="graph0" class="graph" transform="scale(1 1) rotate(0) translate(4 408)">
<title>Utils::SparseArray&lt; T, N &gt;</title>
<!-- Node1 -->
<g id="node1" class="node">
<title>Node1</title>
<g id="a_node1"><a xlink:title=" ">
<polygon fill="#999999" stroke="#666666" points="179,-173 81,-173 81,0 179,0 179,-173"/>
<text text-anchor="start" x="89" y="-161" font-family="Helvetica,sans-Serif" font-size="10.00">{Utils::SparseArray</text>
<text text-anchor="middle" x="130" y="-150" font-family="Helvetica,sans-Serif" font-size="10.00">&lt; T, N &gt;</text>
<text text-anchor="start" x="89" y="-139" font-family="Helvetica,sans-Serif" font-size="10.00">||+ SparseArray()</text>
<text text-anchor="start" x="89" y="-128" font-family="Helvetica,sans-Serif" font-size="10.00">+ ~SparseArray()</text>
<text text-anchor="start" x="89" y="-117" font-family="Helvetica,sans-Serif" font-size="10.00">+ addElement()</text>
<text text-anchor="start" x="89" y="-106" font-family="Helvetica,sans-Serif" font-size="10.00">+ back()</text>
<text text-anchor="start" x="89" y="-95" font-family="Helvetica,sans-Serif" font-size="10.00">+ front()</text>
<text text-anchor="start" x="89" y="-84" font-family="Helvetica,sans-Serif" font-size="10.00">+ getElemAt()</text>
<text text-anchor="start" x="89" y="-73" font-family="Helvetica,sans-Serif" font-size="10.00">+ getList()</text>
<text text-anchor="start" x="89" y="-62" font-family="Helvetica,sans-Serif" font-size="10.00">+ getShortList()</text>
<text text-anchor="start" x="89" y="-51" font-family="Helvetica,sans-Serif" font-size="10.00">+ getUsedId()</text>
<text text-anchor="start" x="89" y="-40" font-family="Helvetica,sans-Serif" font-size="10.00">+ insertAt()</text>
<text text-anchor="start" x="89" y="-29" font-family="Helvetica,sans-Serif" font-size="10.00">+ removeElem()</text>
<text text-anchor="start" x="89" y="-18" font-family="Helvetica,sans-Serif" font-size="10.00">+ updateElem()</text>
<text text-anchor="middle" x="130" y="-7" font-family="Helvetica,sans-Serif" font-size="10.00">}</text>
</a>
</g>
</g>
<!-- Node2 -->
<g id="node2" class="node">
<title>Node2</title>
<g id="a_node2"><a xlink:title=" ">
<polygon fill="white" stroke="#666666" points="121,-250 29,-250 29,-220 121,-220 121,-250"/>
<text text-anchor="middle" x="75" y="-238" font-family="Helvetica,sans-Serif" font-size="10.00">{std::vector&lt; int &gt;</text>
<text text-anchor="middle" x="75" y="-227" font-family="Helvetica,sans-Serif" font-size="10.00">||}</text>
</a>
</g>
</g>
<!-- Node2&#45;&gt;Node1 -->
<g id="edge1" class="edge">
<title>Node2&#45;&gt;Node1</title>
<path fill="none" stroke="#404040" d="M80.37,-219.69C83.68,-210.89 88.23,-198.76 93.25,-185.39"/>
<polygon fill="none" stroke="#404040" points="93.22,-185.46 91.59,-178.43 97.44,-174.22 99.08,-181.24 93.22,-185.46"/>
<text text-anchor="middle" x="107" y="-194" font-family="Helvetica,sans-Serif" font-size="10.00"> #inUse</text>
</g>
<!-- Node3 -->
<g id="node3" class="node">
<title>Node3</title>
<g id="a_node3"><a xlink:title=" ">
<polygon fill="white" stroke="#666666" points="30,-327 0,-327 0,-297 30,-297 30,-327"/>
<text text-anchor="middle" x="15" y="-315" font-family="Helvetica,sans-Serif" font-size="10.00">{int</text>
<text text-anchor="middle" x="15" y="-304" font-family="Helvetica,sans-Serif" font-size="10.00">||}</text>
</a>
</g>
</g>
<!-- Node3&#45;&gt;Node2 -->
<g id="edge2" class="edge">
<title>Node3&#45;&gt;Node2</title>
<path fill="none" stroke="#404040" d="M17.64,-296.78C19.83,-287.86 23.64,-276.47 30,-268 32.67,-264.44 35.85,-261.12 39.27,-258.07"/>
<polygon fill="none" stroke="#404040" points="39.15,-258.17 41.41,-251.32 48.6,-250.77 46.34,-257.62 39.15,-258.17"/>
<text text-anchor="middle" x="54.5" y="-271" font-family="Helvetica,sans-Serif" font-size="10.00"> +elements</text>
</g>
<!-- Node4 -->
<g id="node4" class="node">
<title>Node4</title>
<g id="a_node4"><a xlink:title=" ">
<polygon fill="white" stroke="#666666" points="135.5,-327 48.5,-327 48.5,-297 135.5,-297 135.5,-327"/>
<text text-anchor="middle" x="92" y="-315" font-family="Helvetica,sans-Serif" font-size="10.00">{std::vector&lt; T &gt;</text>
<text text-anchor="middle" x="92" y="-304" font-family="Helvetica,sans-Serif" font-size="10.00">||}</text>
</a>
</g>
</g>
<!-- Node4&#45;&gt;Node2 -->
<g id="edge3" class="edge">
<title>Node4&#45;&gt;Node2</title>
<path fill="none" stroke="orange" d="M86.24,-285.6C83.58,-273.87 80.52,-260.37 78.27,-250.42"/>
<polygon fill="orange" stroke="orange" points="82.76,-286.08 88.39,-295.06 89.59,-284.54 82.76,-286.08"/>
<text text-anchor="middle" x="100" y="-271" font-family="Helvetica,sans-Serif" font-size="10.00"> &lt; int &gt;</text>
</g>
<!-- Node5 -->
<g id="node5" class="node">
<title>Node5</title>
<g id="a_node5"><a xlink:title=" ">
<polygon fill="white" stroke="#666666" points="186.5,-404 157.5,-404 157.5,-374 186.5,-374 186.5,-404"/>
<text text-anchor="middle" x="172" y="-392" font-family="Helvetica,sans-Serif" font-size="10.00">{T</text>
<text text-anchor="middle" x="172" y="-381" font-family="Helvetica,sans-Serif" font-size="10.00">||}</text>
</a>
</g>
</g>
<!-- Node5&#45;&gt;Node4 -->
<g id="edge4" class="edge">
<title>Node5&#45;&gt;Node4</title>
<path fill="none" stroke="#404040" d="M157.11,-383.82C142.99,-379.16 122.05,-370.33 109,-356 104.64,-351.21 101.33,-345.16 98.86,-339.13"/>
<polygon fill="none" stroke="#404040" points="98.95,-339.4 93.25,-334.98 95.14,-328.02 100.84,-332.44 98.95,-339.4"/>
<text text-anchor="middle" x="133.5" y="-348" font-family="Helvetica,sans-Serif" font-size="10.00"> +elements</text>
</g>
<!-- Node6 -->
<g id="node6" class="node">
<title>Node6</title>
<g id="a_node6"><a xlink:title=" ">
<polygon fill="white" stroke="#666666" points="233,-250 139,-250 139,-220 233,-220 233,-250"/>
<text text-anchor="middle" x="186" y="-238" font-family="Helvetica,sans-Serif" font-size="10.00">{std::array&lt; T, N &gt;</text>
<text text-anchor="middle" x="186" y="-227" font-family="Helvetica,sans-Serif" font-size="10.00">||}</text>
</a>
</g>
</g>
<!-- Node5&#45;&gt;Node6 -->
<g id="edge6" class="edge">
<title>Node5&#45;&gt;Node6</title>
<path fill="none" stroke="#404040" d="M173.32,-373.7C175.64,-348.46 180.51,-295.64 183.49,-263.25"/>
<polygon fill="none" stroke="#404040" points="183.49,-263.22 180.06,-256.88 184.59,-251.27 188.03,-257.61 183.49,-263.22"/>
<text text-anchor="middle" x="205.5" y="-309.5" font-family="Helvetica,sans-Serif" font-size="10.00"> +elements</text>
</g>
<!-- Node7 -->
<g id="node7" class="node">
<title>Node7</title>
<g id="a_node7"><a xlink:title=" ">
<polygon fill="white" stroke="#666666" points="320.5,-327 239.5,-327 239.5,-297 320.5,-297 320.5,-327"/>
<text text-anchor="middle" x="280" y="-315" font-family="Helvetica,sans-Serif" font-size="10.00">{std::array&lt; T &gt;</text>
<text text-anchor="middle" x="280" y="-304" font-family="Helvetica,sans-Serif" font-size="10.00">||}</text>
</a>
</g>
</g>
<!-- Node5&#45;&gt;Node7 -->
<g id="edge8" class="edge">
<title>Node5&#45;&gt;Node7</title>
<path fill="none" stroke="#404040" d="M186.57,-377.89C202.48,-366.84 228.43,-348.81 248.95,-334.56"/>
<polygon fill="none" stroke="#404040" points="248.8,-334.67 251.45,-327.96 258.66,-327.82 256.01,-334.53 248.8,-334.67"/>
<text text-anchor="middle" x="256.5" y="-348" font-family="Helvetica,sans-Serif" font-size="10.00"> +elements</text>
</g>
<!-- Node6&#45;&gt;Node1 -->
<g id="edge5" class="edge">
<title>Node6&#45;&gt;Node1</title>
<path fill="none" stroke="#404040" d="M180.53,-219.69C177.17,-210.89 172.53,-198.76 167.42,-185.39"/>
<polygon fill="none" stroke="#404040" points="167.43,-185.43 161.55,-181.25 163.15,-174.22 169.03,-178.4 167.43,-185.43"/>
<text text-anchor="middle" x="190" y="-194" font-family="Helvetica,sans-Serif" font-size="10.00"> #elems</text>
</g>
<!-- Node7&#45;&gt;Node6 -->
<g id="edge7" class="edge">
<title>Node7&#45;&gt;Node6</title>
<path fill="none" stroke="orange" d="M253.12,-289.55C237.39,-277.01 217.97,-261.51 204.07,-250.42"/>
<polygon fill="orange" stroke="orange" points="250.69,-292.09 260.69,-295.6 255.06,-286.62 250.69,-292.09"/>
<text text-anchor="middle" x="257" y="-271" font-family="Helvetica,sans-Serif" font-size="10.00"> &lt; T, N &gt;</text>
</g>
</g>
</svg>
