<?xml version="1.0" encoding="UTF-8" standalone="no"?>
<!DOCTYPE svg PUBLIC "-//W3C//DTD SVG 1.1//EN"
 "http://www.w3.org/Graphics/SVG/1.1/DTD/svg11.dtd">
<!-- Generated by graphviz version 7.0.5 (20221223.1930)
 -->
<!-- Title: rtype::components::Bouton Pages: 1 -->
<svg width="394pt" height="302pt"
 viewBox="0.00 0.00 393.50 302.00" xmlns="http://www.w3.org/2000/svg" xmlns:xlink="http://www.w3.org/1999/xlink">
<g id="graph0" class="graph" transform="scale(1 1) rotate(0) translate(4 298)">
<title>rtype::components::Bouton</title>
<!-- Node1 -->
<g id="node1" class="node">
<title>Node1</title>
<g id="a_node1"><a xlink:title="This class is the base class for all the bonus in the game.">
<polygon fill="#999999" stroke="#666666" points="278,-151 175,-151 175,0 278,0 278,-151"/>
<text text-anchor="start" x="183" y="-139" font-family="Helvetica,sans-Serif" font-size="10.00">{rtype::components::</text>
<text text-anchor="middle" x="226.5" y="-128" font-family="Helvetica,sans-Serif" font-size="10.00">Bouton</text>
<text text-anchor="start" x="183" y="-117" font-family="Helvetica,sans-Serif" font-size="10.00">||+ Bouton()</text>
<text text-anchor="start" x="183" y="-106" font-family="Helvetica,sans-Serif" font-size="10.00">+ Bouton()</text>
<text text-anchor="start" x="183" y="-95" font-family="Helvetica,sans-Serif" font-size="10.00">+ ~Bouton()</text>
<text text-anchor="start" x="183" y="-84" font-family="Helvetica,sans-Serif" font-size="10.00">+ Draw()</text>
<text text-anchor="start" x="183" y="-73" font-family="Helvetica,sans-Serif" font-size="10.00">+ getType()</text>
<text text-anchor="start" x="183" y="-62" font-family="Helvetica,sans-Serif" font-size="10.00">+ isPointInside()</text>
<text text-anchor="start" x="183" y="-51" font-family="Helvetica,sans-Serif" font-size="10.00">+ OnClick()</text>
<text text-anchor="start" x="183" y="-40" font-family="Helvetica,sans-Serif" font-size="10.00">+ OnHover()</text>
<text text-anchor="start" x="183" y="-29" font-family="Helvetica,sans-Serif" font-size="10.00">+ OnLeave()</text>
<text text-anchor="start" x="183" y="-18" font-family="Helvetica,sans-Serif" font-size="10.00">+ setPosition()</text>
<text text-anchor="middle" x="226.5" y="-7" font-family="Helvetica,sans-Serif" font-size="10.00">}</text>
</a>
</g>
</g>
<!-- Node2 -->
<g id="node2" class="node">
<title>Node2</title>
<g id="a_node2"><a xlink:href="classrtype_1_1components_1_1IButton.html" target="_top" xlink:title="This class is the base class for all the button interface.">
<polygon fill="white" stroke="#666666" points="103,-294 0,-294 0,-198 103,-198 103,-294"/>
<text text-anchor="start" x="8" y="-282" font-family="Helvetica,sans-Serif" font-size="10.00">{rtype::components::</text>
<text text-anchor="middle" x="51.5" y="-271" font-family="Helvetica,sans-Serif" font-size="10.00">IButton</text>
<text text-anchor="start" x="8" y="-260" font-family="Helvetica,sans-Serif" font-size="10.00">||+ Draw()</text>
<text text-anchor="start" x="8" y="-249" font-family="Helvetica,sans-Serif" font-size="10.00">+ isPointInside()</text>
<text text-anchor="start" x="8" y="-238" font-family="Helvetica,sans-Serif" font-size="10.00">+ OnClick()</text>
<text text-anchor="start" x="8" y="-227" font-family="Helvetica,sans-Serif" font-size="10.00">+ OnHover()</text>
<text text-anchor="start" x="8" y="-216" font-family="Helvetica,sans-Serif" font-size="10.00">+ OnLeave()</text>
<text text-anchor="middle" x="51.5" y="-205" font-family="Helvetica,sans-Serif" font-size="10.00">}</text>
</a>
</g>
</g>
<!-- Node2&#45;&gt;Node1 -->
<g id="edge1" class="edge">
<title>Node2&#45;&gt;Node1</title>
<path fill="none" stroke="#63b8ff" d="M108.98,-189.65C130.14,-169.28 153.97,-146.34 174.6,-126.47"/>
<polygon fill="none" stroke="#63b8ff" points="106.58,-187.11 101.8,-196.57 111.43,-192.15 106.58,-187.11"/>
</g>
<!-- Node3 -->
<g id="node3" class="node">
<title>Node3</title>
<g id="a_node3"><a xlink:title=" ">
<polygon fill="white" stroke="#666666" points="220,-261 121,-261 121,-231 220,-231 220,-261"/>
<text text-anchor="middle" x="170.5" y="-249" font-family="Helvetica,sans-Serif" font-size="10.00">{STATEBUTTONS</text>
<text text-anchor="middle" x="170.5" y="-238" font-family="Helvetica,sans-Serif" font-size="10.00">||}</text>
</a>
</g>
</g>
<!-- Node3&#45;&gt;Node1 -->
<g id="edge2" class="edge">
<title>Node3&#45;&gt;Node1</title>
<path fill="none" stroke="#404040" d="M175.27,-230.63C180.37,-215.31 188.87,-189.72 197.5,-163.75"/>
<polygon fill="none" stroke="#404040" points="197.53,-163.67 195.63,-156.71 201.32,-152.28 203.22,-159.23 197.53,-163.67"/>
<text text-anchor="middle" x="209" y="-172" font-family="Helvetica,sans-Serif" font-size="10.00"> +type</text>
</g>
<!-- Node4 -->
<g id="node4" class="node">
<title>Node4</title>
<g id="a_node4"><a xlink:title=" ">
<polygon fill="white" stroke="#666666" points="329,-261 238,-261 238,-231 329,-231 329,-261"/>
<text text-anchor="middle" x="283.5" y="-249" font-family="Helvetica,sans-Serif" font-size="10.00">{RectangleShape</text>
<text text-anchor="middle" x="283.5" y="-238" font-family="Helvetica,sans-Serif" font-size="10.00">||}</text>
</a>
</g>
</g>
<!-- Node4&#45;&gt;Node1 -->
<g id="edge3" class="edge">
<title>Node4&#45;&gt;Node1</title>
<path fill="none" stroke="#404040" d="M278.64,-230.63C273.46,-215.31 264.8,-189.72 256.02,-163.75"/>
<polygon fill="none" stroke="#404040" points="255.98,-163.64 250.27,-159.24 252.13,-152.28 257.85,-156.68 255.98,-163.64"/>
<text text-anchor="middle" x="279" y="-172" font-family="Helvetica,sans-Serif" font-size="10.00"> #rShape</text>
</g>
<!-- Node5 -->
<g id="node5" class="node">
<title>Node5</title>
<g id="a_node5"><a xlink:title=" ">
<polygon fill="white" stroke="#666666" points="385.5,-261 347.5,-261 347.5,-231 385.5,-231 385.5,-261"/>
<text text-anchor="middle" x="366.5" y="-249" font-family="Helvetica,sans-Serif" font-size="10.00">{Text</text>
<text text-anchor="middle" x="366.5" y="-238" font-family="Helvetica,sans-Serif" font-size="10.00">||}</text>
</a>
</g>
</g>
<!-- Node5&#45;&gt;Node1 -->
<g id="edge4" class="edge">
<title>Node5&#45;&gt;Node1</title>
<path fill="none" stroke="#404040" d="M358.9,-230.52C353.64,-220.97 346.22,-208.35 338.5,-198 323.02,-177.25 304.53,-156.03 287.08,-137.25"/>
<polygon fill="none" stroke="#404040" points="287.18,-137.35 280.16,-135.72 278.96,-128.61 285.99,-130.24 287.18,-137.35"/>
<text text-anchor="middle" x="333.5" y="-172" font-family="Helvetica,sans-Serif" font-size="10.00"> #text</text>
</g>
</g>
</svg>
