<?xml version="1.0" encoding="UTF-8" standalone="no"?>
<!DOCTYPE svg PUBLIC "-//W3C//DTD SVG 1.1//EN"
 "http://www.w3.org/Graphics/SVG/1.1/DTD/svg11.dtd">
<!-- Generated by graphviz version 7.0.5 (20221223.1930)
 -->
<!-- Title: rtype::components::Component Pages: 1 -->
<svg width="271pt" height="435pt"
 viewBox="0.00 0.00 270.50 435.00" xmlns="http://www.w3.org/2000/svg" xmlns:xlink="http://www.w3.org/1999/xlink">
<g id="graph0" class="graph" transform="scale(1 1) rotate(0) translate(4 431)">
<title>rtype::components::Component</title>
<!-- Node1 -->
<g id="node1" class="node">
<title>Node1</title>
<g id="a_node1"><a xlink:title=" ">
<polygon fill="#999999" stroke="#666666" points="195,-173 92,-173 92,0 195,0 195,-173"/>
<text text-anchor="start" x="100" y="-161" font-family="Helvetica,sans-Serif" font-size="10.00">{rtype::components::</text>
<text text-anchor="middle" x="143.5" y="-150" font-family="Helvetica,sans-Serif" font-size="10.00">Component</text>
<text text-anchor="start" x="100" y="-139" font-family="Helvetica,sans-Serif" font-size="10.00">||+ Component()</text>
<text text-anchor="start" x="100" y="-128" font-family="Helvetica,sans-Serif" font-size="10.00">+ Component()</text>
<text text-anchor="start" x="100" y="-117" font-family="Helvetica,sans-Serif" font-size="10.00">+ ~Component()</text>
<text text-anchor="start" x="100" y="-106" font-family="Helvetica,sans-Serif" font-size="10.00">+ draw()</text>
<text text-anchor="start" x="100" y="-95" font-family="Helvetica,sans-Serif" font-size="10.00">+ getId()</text>
<text text-anchor="start" x="100" y="-84" font-family="Helvetica,sans-Serif" font-size="10.00">+ getOwnerId()</text>
<text text-anchor="start" x="100" y="-73" font-family="Helvetica,sans-Serif" font-size="10.00">+ handleEvent()</text>
<text text-anchor="start" x="100" y="-62" font-family="Helvetica,sans-Serif" font-size="10.00">+ handleEvent()</text>
<text text-anchor="start" x="100" y="-51" font-family="Helvetica,sans-Serif" font-size="10.00">+ init()</text>
<text text-anchor="start" x="100" y="-40" font-family="Helvetica,sans-Serif" font-size="10.00">+ pName()</text>
<text text-anchor="start" x="100" y="-29" font-family="Helvetica,sans-Serif" font-size="10.00">+ printSMthing()</text>
<text text-anchor="start" x="100" y="-18" font-family="Helvetica,sans-Serif" font-size="10.00">+ update()</text>
<text text-anchor="middle" x="143.5" y="-7" font-family="Helvetica,sans-Serif" font-size="10.00">}</text>
</a>
</g>
</g>
<!-- Node2 -->
<g id="node2" class="node">
<title>Node2</title>
<g id="a_node2"><a xlink:href="classrtype_1_1components_1_1IComponents.html" target="_top" xlink:title=" ">
<polygon fill="white" stroke="#666666" points="103,-349 0,-349 0,-231 103,-231 103,-349"/>
<text text-anchor="start" x="8" y="-337" font-family="Helvetica,sans-Serif" font-size="10.00">{rtype::components::</text>
<text text-anchor="middle" x="51.5" y="-326" font-family="Helvetica,sans-Serif" font-size="10.00">IComponents</text>
<text text-anchor="start" x="8" y="-315" font-family="Helvetica,sans-Serif" font-size="10.00">||+ draw()</text>
<text text-anchor="start" x="8" y="-304" font-family="Helvetica,sans-Serif" font-size="10.00">+ getId()</text>
<text text-anchor="start" x="8" y="-293" font-family="Helvetica,sans-Serif" font-size="10.00">+ getOwnerId()</text>
<text text-anchor="start" x="8" y="-282" font-family="Helvetica,sans-Serif" font-size="10.00">+ handleEvent()</text>
<text text-anchor="start" x="8" y="-271" font-family="Helvetica,sans-Serif" font-size="10.00">+ handleEvent()</text>
<text text-anchor="start" x="8" y="-260" font-family="Helvetica,sans-Serif" font-size="10.00">+ init()</text>
<text text-anchor="start" x="8" y="-249" font-family="Helvetica,sans-Serif" font-size="10.00">+ update()</text>
<text text-anchor="middle" x="51.5" y="-238" font-family="Helvetica,sans-Serif" font-size="10.00">}</text>
</a>
</g>
</g>
<!-- Node2&#45;&gt;Node1 -->
<g id="edge1" class="edge">
<title>Node2&#45;&gt;Node1</title>
<path fill="none" stroke="#63b8ff" d="M82.8,-220.44C89.71,-205.31 97.11,-189.1 104.29,-173.39"/>
<polygon fill="none" stroke="#63b8ff" points="79.71,-218.79 78.74,-229.34 86.08,-221.7 79.71,-218.79"/>
</g>
<!-- Node3 -->
<g id="node3" class="node">
<title>Node3</title>
<g id="a_node3"><a xlink:title=" ">
<polygon fill="white" stroke="#666666" points="165.5,-305 121.5,-305 121.5,-275 165.5,-275 165.5,-305"/>
<text text-anchor="middle" x="143.5" y="-293" font-family="Helvetica,sans-Serif" font-size="10.00">{int8_t</text>
<text text-anchor="middle" x="143.5" y="-282" font-family="Helvetica,sans-Serif" font-size="10.00">||}</text>
</a>
</g>
</g>
<!-- Node3&#45;&gt;Node1 -->
<g id="edge2" class="edge">
<title>Node3&#45;&gt;Node1</title>
<path fill="none" stroke="#404040" d="M143.5,-274.51C143.5,-255.54 143.5,-220.63 143.5,-186.06"/>
<polygon fill="none" stroke="#404040" points="143.5,-186.28 139.5,-180.28 143.5,-174.28 147.5,-180.28 143.5,-186.28"/>
<text text-anchor="middle" x="165" y="-205" font-family="Helvetica,sans-Serif" font-size="10.00"> +Id</text>
<text text-anchor="middle" x="165" y="-194" font-family="Helvetica,sans-Serif" font-size="10.00">+OwnerId</text>
</g>
<!-- Node4 -->
<g id="node4" class="node">
<title>Node4</title>
<g id="a_node4"><a xlink:title=" ">
<polygon fill="white" stroke="#666666" points="245.5,-305 183.5,-305 183.5,-275 245.5,-275 245.5,-305"/>
<text text-anchor="middle" x="214.5" y="-293" font-family="Helvetica,sans-Serif" font-size="10.00">{std::string</text>
<text text-anchor="middle" x="214.5" y="-282" font-family="Helvetica,sans-Serif" font-size="10.00">||}</text>
</a>
</g>
</g>
<!-- Node4&#45;&gt;Node1 -->
<g id="edge3" class="edge">
<title>Node4&#45;&gt;Node1</title>
<path fill="none" stroke="#404040" d="M211.67,-274.82C207.65,-255.57 199.63,-220.2 189.5,-191 188.88,-189.2 188.23,-187.39 187.57,-185.57"/>
<polygon fill="none" stroke="#404040" points="187.56,-185.54 181.7,-181.34 183.33,-174.31 189.19,-178.51 187.56,-185.54"/>
<text text-anchor="middle" x="212" y="-199.5" font-family="Helvetica,sans-Serif" font-size="10.00"> +name</text>
</g>
<!-- Node5 -->
<g id="node5" class="node">
<title>Node5</title>
<g id="a_node5"><a xlink:title=" ">
<polygon fill="white" stroke="#666666" points="262.5,-427 166.5,-427 166.5,-386 262.5,-386 262.5,-427"/>
<text text-anchor="start" x="174.5" y="-415" font-family="Helvetica,sans-Serif" font-size="10.00">{std::basic_string&lt;</text>
<text text-anchor="middle" x="214.5" y="-404" font-family="Helvetica,sans-Serif" font-size="10.00"> Char &gt;</text>
<text text-anchor="middle" x="214.5" y="-393" font-family="Helvetica,sans-Serif" font-size="10.00">||}</text>
</a>
</g>
</g>
<!-- Node5&#45;&gt;Node4 -->
<g id="edge4" class="edge">
<title>Node5&#45;&gt;Node4</title>
<path fill="none" stroke="#63b8ff" d="M214.5,-374.2C214.5,-351.71 214.5,-322.45 214.5,-305.29"/>
<polygon fill="none" stroke="#63b8ff" points="211,-374.04 214.5,-384.04 218,-374.04 211,-374.04"/>
</g>
</g>
</svg>
