<?xml version="1.0" encoding="UTF-8" standalone="no"?>
<!DOCTYPE svg PUBLIC "-//W3C//DTD SVG 1.1//EN"
 "http://www.w3.org/Graphics/SVG/1.1/DTD/svg11.dtd">
<!-- Generated by graphviz version 7.0.5 (20221223.1930)
 -->
<!-- Title: Error Pages: 1 -->
<svg width="185pt" height="226pt"
 viewBox="0.00 0.00 184.50 226.00" xmlns="http://www.w3.org/2000/svg" xmlns:xlink="http://www.w3.org/1999/xlink">
<g id="graph0" class="graph" transform="scale(1 1) rotate(0) translate(4 222)">
<title>Error</title>
<!-- Node1 -->
<g id="node1" class="node">
<title>Node1</title>
<g id="a_node1"><a xlink:title=" ">
<polygon fill="#999999" stroke="#666666" points="83.5,-63 27.5,-63 27.5,0 83.5,0 83.5,-63"/>
<text text-anchor="middle" x="55.5" y="-51" font-family="Helvetica,sans-Serif" font-size="10.00">{Error</text>
<text text-anchor="start" x="35.5" y="-40" font-family="Helvetica,sans-Serif" font-size="10.00">||+ Error()</text>
<text text-anchor="start" x="35.5" y="-29" font-family="Helvetica,sans-Serif" font-size="10.00">+ ~Error()</text>
<text text-anchor="start" x="35.5" y="-18" font-family="Helvetica,sans-Serif" font-size="10.00">+ what()</text>
<text text-anchor="middle" x="55.5" y="-7" font-family="Helvetica,sans-Serif" font-size="10.00">}</text>
</a>
</g>
</g>
<!-- Node2 -->
<g id="node2" class="node">
<title>Node2</title>
<g id="a_node2"><a xlink:title=" ">
<polygon fill="white" stroke="#666666" points="79,-140 0,-140 0,-110 79,-110 79,-140"/>
<text text-anchor="middle" x="39.5" y="-128" font-family="Helvetica,sans-Serif" font-size="10.00">{std::exception</text>
<text text-anchor="middle" x="39.5" y="-117" font-family="Helvetica,sans-Serif" font-size="10.00">||}</text>
</a>
</g>
</g>
<!-- Node2&#45;&gt;Node1 -->
<g id="edge1" class="edge">
<title>Node2&#45;&gt;Node1</title>
<path fill="none" stroke="#8b1a1a" d="M43.98,-98.4C45.88,-87.52 48.11,-74.74 50.11,-63.35"/>
<polygon fill="none" stroke="#8b1a1a" points="40.54,-97.76 42.26,-108.21 47.43,-98.96 40.54,-97.76"/>
</g>
<!-- Node3 -->
<g id="node3" class="node">
<title>Node3</title>
<g id="a_node3"><a xlink:title=" ">
<polygon fill="white" stroke="#666666" points="159.5,-140 97.5,-140 97.5,-110 159.5,-110 159.5,-140"/>
<text text-anchor="middle" x="128.5" y="-128" font-family="Helvetica,sans-Serif" font-size="10.00">{std::string</text>
<text text-anchor="middle" x="128.5" y="-117" font-family="Helvetica,sans-Serif" font-size="10.00">||}</text>
</a>
</g>
</g>
<!-- Node3&#45;&gt;Node1 -->
<g id="edge2" class="edge">
<title>Node3&#45;&gt;Node1</title>
<path fill="none" stroke="#404040" d="M117.09,-109.7C109.31,-99.95 98.58,-86.49 88.25,-73.54"/>
<polygon fill="none" stroke="#404040" points="88.16,-73.44 81.29,-71.24 80.67,-64.05 87.54,-66.25 88.16,-73.44"/>
<text text-anchor="middle" x="117.5" y="-84" font-family="Helvetica,sans-Serif" font-size="10.00"> &#45;_msg</text>
</g>
<!-- Node4 -->
<g id="node4" class="node">
<title>Node4</title>
<g id="a_node4"><a xlink:title=" ">
<polygon fill="white" stroke="#666666" points="176.5,-218 80.5,-218 80.5,-177 176.5,-177 176.5,-218"/>
<text text-anchor="start" x="88.5" y="-206" font-family="Helvetica,sans-Serif" font-size="10.00">{std::basic_string&lt;</text>
<text text-anchor="middle" x="128.5" y="-195" font-family="Helvetica,sans-Serif" font-size="10.00"> Char &gt;</text>
<text text-anchor="middle" x="128.5" y="-184" font-family="Helvetica,sans-Serif" font-size="10.00">||}</text>
</a>
</g>
</g>
<!-- Node4&#45;&gt;Node3 -->
<g id="edge3" class="edge">
<title>Node4&#45;&gt;Node3</title>
<path fill="none" stroke="#63b8ff" d="M128.5,-165.39C128.5,-156.68 128.5,-147.62 128.5,-140.39"/>
<polygon fill="none" stroke="#63b8ff" points="125,-165.35 128.5,-175.35 132,-165.35 125,-165.35"/>
</g>
</g>
</svg>
