<?xml version="1.0" encoding="UTF-8" standalone="no"?>
<!DOCTYPE svg PUBLIC "-//W3C//DTD SVG 1.1//EN"
 "http://www.w3.org/Graphics/SVG/1.1/DTD/svg11.dtd">
<!-- Generated by graphviz version 7.0.5 (20221223.1930)
 -->
<!-- Title: /github/workspace/client/src/main.cpp Pages: 1 -->
<svg width="2292pt" height="313pt"
 viewBox="0.00 0.00 2292.28 313.00" xmlns="http://www.w3.org/2000/svg" xmlns:xlink="http://www.w3.org/1999/xlink">
<g id="graph0" class="graph" transform="scale(1 1) rotate(0) translate(4 309)">
<title>/github/workspace/client/src/main.cpp</title>
<!-- Node1 -->
<g id="node1" class="node">
<title>Node1</title>
<g id="a_node1"><a xlink:title=" ">
<polygon fill="#999999" stroke="#666666" points="1953,-305 1831,-305 1831,-275 1953,-275 1953,-305"/>
<text text-anchor="start" x="1839" y="-293" font-family="Helvetica,sans-Serif" font-size="10.00">/github/workspace/client</text>
<text text-anchor="middle" x="1892" y="-282" font-family="Helvetica,sans-Serif" font-size="10.00">/src/main.cpp</text>
</a>
</g>
</g>
<!-- Node2 -->
<g id="node2" class="node">
<title>Node2</title>
<g id="a_node2"><a xlink:href="Engine_8hpp.html" target="_top" xlink:title=" ">
<polygon fill="white" stroke="#666666" points="1153,-184 1057,-184 1057,-165 1153,-165 1153,-184"/>
<text text-anchor="middle" x="1105" y="-172" font-family="Helvetica,sans-Serif" font-size="10.00">Engine/Engine.hpp</text>
</a>
</g>
</g>
<!-- Node1&#45;&gt;Node2 -->
<g id="edge1" class="edge">
<title>Node1&#45;&gt;Node2</title>
<path fill="none" stroke="#63b8ff" d="M1830.57,-280.14C1682.99,-258.86 1309.95,-205.06 1164.43,-184.07"/>
<polygon fill="#63b8ff" stroke="#63b8ff" points="1165.01,-180.62 1154.62,-182.66 1164.01,-187.55 1165.01,-180.62"/>
</g>
<!-- Node28 -->
<g id="node28" class="node">
<title>Node28</title>
<g id="a_node28"><a xlink:href="Error_8hpp.html" target="_top" xlink:title=" ">
<polygon fill="white" stroke="#666666" points="1824.5,-239 1737.5,-239 1737.5,-220 1824.5,-220 1824.5,-239"/>
<text text-anchor="middle" x="1781" y="-227" font-family="Helvetica,sans-Serif" font-size="10.00">Engine/Error.hpp</text>
</a>
</g>
</g>
<!-- Node1&#45;&gt;Node28 -->
<g id="edge35" class="edge">
<title>Node1&#45;&gt;Node28</title>
<path fill="none" stroke="#63b8ff" d="M1864.56,-274.54C1847.23,-265.4 1824.94,-253.66 1807.75,-244.6"/>
<polygon fill="#63b8ff" stroke="#63b8ff" points="1809.6,-241.62 1799.12,-240.05 1806.34,-247.81 1809.6,-241.62"/>
</g>
<!-- Node32 -->
<g id="node32" class="node">
<title>Node32</title>
<g id="a_node32"><a xlink:href="SGamePlay_8hpp.html" target="_top" xlink:title=" ">
<polygon fill="white" stroke="#666666" points="2164,-184 1988,-184 1988,-165 2164,-165 2164,-184"/>
<text text-anchor="middle" x="2076" y="-172" font-family="Helvetica,sans-Serif" font-size="10.00">system/gameStates/SGamePlay.hpp</text>
</a>
</g>
</g>
<!-- Node1&#45;&gt;Node32 -->
<g id="edge45" class="edge">
<title>Node1&#45;&gt;Node32</title>
<path fill="none" stroke="#63b8ff" d="M1915.3,-274.63C1950.51,-252.91 2016.9,-211.96 2052.32,-190.11"/>
<polygon fill="#63b8ff" stroke="#63b8ff" points="2053.89,-193.25 2060.56,-185.02 2050.21,-187.3 2053.89,-193.25"/>
</g>
<!-- Node36 -->
<g id="node36" class="node">
<title>Node36</title>
<g id="a_node36"><a xlink:href="GameEngine_8hpp.html" target="_top" xlink:title=" ">
<polygon fill="white" stroke="#666666" points="2211.5,-239 2086.5,-239 2086.5,-220 2211.5,-220 2211.5,-239"/>
<text text-anchor="middle" x="2149" y="-227" font-family="Helvetica,sans-Serif" font-size="10.00">system/GameEngine.hpp</text>
</a>
</g>
</g>
<!-- Node1&#45;&gt;Node36 -->
<g id="edge53" class="edge">
<title>Node1&#45;&gt;Node36</title>
<path fill="none" stroke="#63b8ff" d="M1953.23,-275.06C1997.7,-264.94 2057.14,-251.41 2098.82,-241.92"/>
<polygon fill="#63b8ff" stroke="#63b8ff" points="2099.36,-245.39 2108.33,-239.76 2097.81,-238.56 2099.36,-245.39"/>
</g>
<!-- Node3 -->
<g id="node3" class="node">
<title>Node3</title>
<g id="a_node3"><a xlink:title=" ">
<polygon fill="#e0e0e0" stroke="#999999" points="229.5,-129 140.5,-129 140.5,-110 229.5,-110 229.5,-129"/>
<text text-anchor="middle" x="185" y="-117" font-family="Helvetica,sans-Serif" font-size="10.00">SFML/Audio.hpp</text>
</a>
</g>
</g>
<!-- Node2&#45;&gt;Node3 -->
<g id="edge2" class="edge">
<title>Node2&#45;&gt;Node3</title>
<path fill="none" stroke="#63b8ff" d="M1056.77,-171.69C902.44,-165.79 420.9,-146.57 241.14,-129.06"/>
<polygon fill="#63b8ff" stroke="#63b8ff" points="241.55,-125.59 231.25,-128.06 240.85,-132.55 241.55,-125.59"/>
</g>
<!-- Node4 -->
<g id="node4" class="node">
<title>Node4</title>
<g id="a_node4"><a xlink:title=" ">
<polygon fill="#e0e0e0" stroke="#999999" points="352,-129 248,-129 248,-110 352,-110 352,-129"/>
<text text-anchor="middle" x="300" y="-117" font-family="Helvetica,sans-Serif" font-size="10.00">SFML/Graphics.hpp</text>
</a>
</g>
</g>
<!-- Node2&#45;&gt;Node4 -->
<g id="edge3" class="edge">
<title>Node2&#45;&gt;Node4</title>
<path fill="none" stroke="#63b8ff" d="M1056.59,-171.92C939.46,-167.83 631.29,-155.37 363.33,-129.15"/>
<polygon fill="#63b8ff" stroke="#63b8ff" points="364.01,-125.7 353.72,-128.2 363.32,-132.67 364.01,-125.7"/>
</g>
<!-- Node5 -->
<g id="node5" class="node">
<title>Node5</title>
<g id="a_node5"><a xlink:title=" ">
<polygon fill="#e0e0e0" stroke="#999999" points="471.5,-129 370.5,-129 370.5,-110 471.5,-110 471.5,-129"/>
<text text-anchor="middle" x="421" y="-117" font-family="Helvetica,sans-Serif" font-size="10.00">SFML/Network.hpp</text>
</a>
</g>
</g>
<!-- Node2&#45;&gt;Node5 -->
<g id="edge4" class="edge">
<title>Node2&#45;&gt;Node5</title>
<path fill="none" stroke="#63b8ff" d="M1056.67,-171.25C953.36,-166.17 703.17,-152.53 483.26,-129.28"/>
<polygon fill="#63b8ff" stroke="#63b8ff" points="483.64,-125.8 473.32,-128.22 482.9,-132.76 483.64,-125.8"/>
</g>
<!-- Node6 -->
<g id="node6" class="node">
<title>Node6</title>
<g id="a_node6"><a xlink:title=" ">
<polygon fill="#e0e0e0" stroke="#999999" points="588.5,-129 489.5,-129 489.5,-110 588.5,-110 588.5,-129"/>
<text text-anchor="middle" x="539" y="-117" font-family="Helvetica,sans-Serif" font-size="10.00">SFML/Window.hpp</text>
</a>
</g>
</g>
<!-- Node2&#45;&gt;Node6 -->
<g id="edge5" class="edge">
<title>Node2&#45;&gt;Node6</title>
<path fill="none" stroke="#63b8ff" d="M1056.67,-170.16C968.3,-163.85 774.45,-149.11 600.06,-129.17"/>
<polygon fill="#63b8ff" stroke="#63b8ff" points="600.71,-125.72 590.37,-128.06 599.91,-132.68 600.71,-125.72"/>
</g>
<!-- Node7 -->
<g id="node7" class="node">
<title>Node7</title>
<g id="a_node7"><a xlink:title=" ">
<polygon fill="#e0e0e0" stroke="#999999" points="705,-129 607,-129 607,-110 705,-110 705,-129"/>
<text text-anchor="middle" x="656" y="-117" font-family="Helvetica,sans-Serif" font-size="10.00">SFML/System.hpp</text>
</a>
</g>
</g>
<!-- Node2&#45;&gt;Node7 -->
<g id="edge6" class="edge">
<title>Node2&#45;&gt;Node7</title>
<path fill="none" stroke="#63b8ff" d="M1056.78,-168.52C985,-160.99 845.49,-145.93 716.59,-129.3"/>
<polygon fill="#63b8ff" stroke="#63b8ff" points="717.21,-125.85 706.85,-128.04 716.31,-132.79 717.21,-125.85"/>
</g>
<!-- Node8 -->
<g id="node8" class="node">
<title>Node8</title>
<g id="a_node8"><a xlink:title=" ">
<polygon fill="#e0e0e0" stroke="#999999" points="54,-129 0,-129 0,-110 54,-110 54,-129"/>
<text text-anchor="middle" x="27" y="-117" font-family="Helvetica,sans-Serif" font-size="10.00">iostream</text>
</a>
</g>
</g>
<!-- Node2&#45;&gt;Node8 -->
<g id="edge7" class="edge">
<title>Node2&#45;&gt;Node8</title>
<path fill="none" stroke="#63b8ff" d="M1056.78,-172.65C881.91,-169.39 280.5,-156.52 65.58,-129.03"/>
<polygon fill="#63b8ff" stroke="#63b8ff" points="66.29,-125.59 55.92,-127.74 65.37,-132.53 66.29,-125.59"/>
</g>
<!-- Node9 -->
<g id="node9" class="node">
<title>Node9</title>
<g id="a_node9"><a xlink:title=" ">
<polygon fill="#e0e0e0" stroke="#999999" points="122,-129 72,-129 72,-110 122,-110 122,-129"/>
<text text-anchor="middle" x="97" y="-117" font-family="Helvetica,sans-Serif" font-size="10.00">fstream</text>
</a>
</g>
</g>
<!-- Node2&#45;&gt;Node9 -->
<g id="edge8" class="edge">
<title>Node2&#45;&gt;Node9</title>
<path fill="none" stroke="#63b8ff" d="M1056.54,-171.85C878.46,-165.73 264.25,-143.91 133.55,-128.86"/>
<polygon fill="#63b8ff" stroke="#63b8ff" points="134.01,-125.39 123.64,-127.57 133.11,-132.33 134.01,-125.39"/>
</g>
<!-- Node10 -->
<g id="node10" class="node">
<title>Node10</title>
<g id="a_node10"><a xlink:title=" ">
<polygon fill="#e0e0e0" stroke="#999999" points="771,-129 723,-129 723,-110 771,-110 771,-129"/>
<text text-anchor="middle" x="747" y="-117" font-family="Helvetica,sans-Serif" font-size="10.00">string.h</text>
</a>
</g>
</g>
<!-- Node2&#45;&gt;Node10 -->
<g id="edge9" class="edge">
<title>Node2&#45;&gt;Node10</title>
<path fill="none" stroke="#63b8ff" d="M1056.53,-168.64C995,-162.08 885.42,-149.09 782.64,-129.32"/>
<polygon fill="#63b8ff" stroke="#63b8ff" points="783.41,-125.9 772.92,-127.42 782.07,-132.77 783.41,-125.9"/>
</g>
<!-- Node11 -->
<g id="node11" class="node">
<title>Node11</title>
<g id="a_node11"><a xlink:title=" ">
<polygon fill="#e0e0e0" stroke="#999999" points="839,-129 789,-129 789,-110 839,-110 839,-129"/>
<text text-anchor="middle" x="814" y="-117" font-family="Helvetica,sans-Serif" font-size="10.00">unistd.h</text>
</a>
</g>
</g>
<!-- Node2&#45;&gt;Node11 -->
<g id="edge10" class="edge">
<title>Node2&#45;&gt;Node11</title>
<path fill="none" stroke="#63b8ff" d="M1056.96,-166.26C1007.5,-158.57 927.98,-145.54 850.17,-129.33"/>
<polygon fill="#63b8ff" stroke="#63b8ff" points="851.19,-125.97 840.68,-127.33 849.75,-132.82 851.19,-125.97"/>
</g>
<!-- Node12 -->
<g id="node12" class="node">
<title>Node12</title>
<g id="a_node12"><a xlink:title=" ">
<polygon fill="#e0e0e0" stroke="#999999" points="922.5,-129 857.5,-129 857.5,-110 922.5,-110 922.5,-129"/>
<text text-anchor="middle" x="890" y="-117" font-family="Helvetica,sans-Serif" font-size="10.00">sys/types.h</text>
</a>
</g>
</g>
<!-- Node2&#45;&gt;Node12 -->
<g id="edge11" class="edge">
<title>Node2&#45;&gt;Node12</title>
<path fill="none" stroke="#63b8ff" d="M1068.53,-164.51C1031.27,-155.32 973.39,-141.06 933.7,-131.27"/>
<polygon fill="#63b8ff" stroke="#63b8ff" points="934.79,-127.94 924.24,-128.94 933.11,-134.73 934.79,-127.94"/>
</g>
<!-- Node13 -->
<g id="node13" class="node">
<title>Node13</title>
<g id="a_node13"><a xlink:title=" ">
<polygon fill="#e0e0e0" stroke="#999999" points="1366,-19 1322,-19 1322,0 1366,0 1366,-19"/>
<text text-anchor="middle" x="1344" y="-7" font-family="Helvetica,sans-Serif" font-size="10.00">vector</text>
</a>
</g>
</g>
<!-- Node2&#45;&gt;Node13 -->
<g id="edge12" class="edge">
<title>Node2&#45;&gt;Node13</title>
<path fill="none" stroke="#63b8ff" d="M1056.79,-171.26C1026.54,-167.05 989.67,-156.19 970,-129 950.35,-101.83 986.9,-66.05 1004,-55 1054.19,-22.57 1234.76,-13.64 1310.35,-11.29"/>
<polygon fill="#63b8ff" stroke="#63b8ff" points="1310.14,-14.8 1320.03,-11.01 1309.93,-7.8 1310.14,-14.8"/>
</g>
<!-- Node14 -->
<g id="node14" class="node">
<title>Node14</title>
<g id="a_node14"><a xlink:title=" ">
<polygon fill="#e0e0e0" stroke="#999999" points="1717,-129 1661,-129 1661,-110 1717,-110 1717,-129"/>
<text text-anchor="middle" x="1689" y="-117" font-family="Helvetica,sans-Serif" font-size="10.00">stdbool.h</text>
</a>
</g>
</g>
<!-- Node2&#45;&gt;Node14 -->
<g id="edge13" class="edge">
<title>Node2&#45;&gt;Node14</title>
<path fill="none" stroke="#63b8ff" d="M1153.2,-171.92C1246.95,-168.34 1460.54,-157.72 1649.54,-129.15"/>
<polygon fill="#63b8ff" stroke="#63b8ff" points="1649.95,-132.63 1659.3,-127.65 1648.89,-125.71 1649.95,-132.63"/>
</g>
<!-- Node15 -->
<g id="node15" class="node">
<title>Node15</title>
<g id="a_node15"><a xlink:title=" ">
<polygon fill="#e0e0e0" stroke="#999999" points="1026.5,-129 979.5,-129 979.5,-110 1026.5,-110 1026.5,-129"/>
<text text-anchor="middle" x="1003" y="-117" font-family="Helvetica,sans-Serif" font-size="10.00">stdlib.h</text>
</a>
</g>
</g>
<!-- Node2&#45;&gt;Node15 -->
<g id="edge14" class="edge">
<title>Node2&#45;&gt;Node15</title>
<path fill="none" stroke="#63b8ff" d="M1087.7,-164.51C1071.92,-156.31 1048.36,-144.07 1030.09,-134.58"/>
<polygon fill="#63b8ff" stroke="#63b8ff" points="1031.88,-131.56 1021.39,-130.06 1028.65,-137.77 1031.88,-131.56"/>
</g>
<!-- Node16 -->
<g id="node16" class="node">
<title>Node16</title>
<g id="a_node16"><a xlink:title=" ">
<polygon fill="#e0e0e0" stroke="#999999" points="1793,-129 1735,-129 1735,-110 1793,-110 1793,-129"/>
<text text-anchor="middle" x="1764" y="-117" font-family="Helvetica,sans-Serif" font-size="10.00">exception</text>
</a>
</g>
</g>
<!-- Node2&#45;&gt;Node16 -->
<g id="edge15" class="edge">
<title>Node2&#45;&gt;Node16</title>
<path fill="none" stroke="#63b8ff" d="M1153.18,-172.48C1256.13,-169.78 1505.28,-160.46 1723.28,-129.18"/>
<polygon fill="#63b8ff" stroke="#63b8ff" points="1723.73,-132.65 1733.12,-127.74 1722.72,-125.72 1723.73,-132.65"/>
</g>
<!-- Node17 -->
<g id="node17" class="node">
<title>Node17</title>
<g id="a_node17"><a xlink:href="Window_8hpp.html" target="_top" xlink:title=" ">
<polygon fill="white" stroke="#666666" points="1114.5,-74 1013.5,-74 1013.5,-55 1114.5,-55 1114.5,-74"/>
<text text-anchor="middle" x="1064" y="-62" font-family="Helvetica,sans-Serif" font-size="10.00">Engine/Window.hpp</text>
</a>
</g>
</g>
<!-- Node2&#45;&gt;Node17 -->
<g id="edge16" class="edge">
<title>Node2&#45;&gt;Node17</title>
<path fill="none" stroke="#63b8ff" d="M1097.73,-164.66C1088.01,-147.5 1073,-109.26 1066.24,-85.6"/>
<polygon fill="#63b8ff" stroke="#63b8ff" points="1069.64,-84.79 1063.83,-75.93 1062.85,-86.48 1069.64,-84.79"/>
</g>
<!-- Node18 -->
<g id="node18" class="node">
<title>Node18</title>
<g id="a_node18"><a xlink:href="Draw_8hpp.html" target="_top" xlink:title=" ">
<polygon fill="white" stroke="#666666" points="1190.5,-129 1101.5,-129 1101.5,-110 1190.5,-110 1190.5,-129"/>
<text text-anchor="middle" x="1146" y="-117" font-family="Helvetica,sans-Serif" font-size="10.00">Engine/Draw.hpp</text>
</a>
</g>
</g>
<!-- Node2&#45;&gt;Node18 -->
<g id="edge18" class="edge">
<title>Node2&#45;&gt;Node18</title>
<path fill="none" stroke="#63b8ff" d="M1106.6,-164.75C1110.69,-157.43 1118.54,-146.76 1126.3,-137.74"/>
<polygon fill="#63b8ff" stroke="#63b8ff" points="1128.69,-140.3 1132.85,-130.56 1123.53,-135.58 1128.69,-140.3"/>
</g>
<!-- Node19 -->
<g id="node19" class="node">
<title>Node19</title>
<g id="a_node19"><a xlink:href="Event_8hpp.html" target="_top" xlink:title=" ">
<polygon fill="white" stroke="#666666" points="1643,-129 1551,-129 1551,-110 1643,-110 1643,-129"/>
<text text-anchor="middle" x="1597" y="-117" font-family="Helvetica,sans-Serif" font-size="10.00">Engine/Event.hpp</text>
</a>
</g>
</g>
<!-- Node2&#45;&gt;Node19 -->
<g id="edge20" class="edge">
<title>Node2&#45;&gt;Node19</title>
<path fill="none" stroke="#63b8ff" d="M1153.49,-168.89C1232.98,-161.65 1395.52,-146.61 1533,-129 1535.03,-128.74 1537.1,-128.46 1539.2,-128.18"/>
<polygon fill="#63b8ff" stroke="#63b8ff" points="1539.66,-131.65 1549.07,-126.78 1538.68,-124.72 1539.66,-131.65"/>
</g>
<!-- Node23 -->
<g id="node23" class="node">
<title>Node23</title>
<g id="a_node23"><a xlink:href="StateManager_8hpp.html" target="_top" xlink:title=" ">
<polygon fill="white" stroke="#666666" points="1337,-129 1209,-129 1209,-110 1337,-110 1337,-129"/>
<text text-anchor="middle" x="1273" y="-117" font-family="Helvetica,sans-Serif" font-size="10.00">Engine/StateManager.hpp</text>
</a>
</g>
</g>
<!-- Node2&#45;&gt;Node23 -->
<g id="edge25" class="edge">
<title>Node2&#45;&gt;Node23</title>
<path fill="none" stroke="#63b8ff" d="M1128.28,-164.51C1154.17,-155.76 1196.29,-142.42 1228.5,-132.71"/>
<polygon fill="#63b8ff" stroke="#63b8ff" points="1229.4,-136.1 1237.98,-129.88 1227.4,-129.39 1229.4,-136.1"/>
</g>
<!-- Node24 -->
<g id="node24" class="node">
<title>Node24</title>
<g id="a_node24"><a xlink:href="EntitiesManager_8hpp.html" target="_top" xlink:title=" ">
<polygon fill="white" stroke="#666666" points="1444,-74 1304,-74 1304,-55 1444,-55 1444,-74"/>
<text text-anchor="middle" x="1374" y="-62" font-family="Helvetica,sans-Serif" font-size="10.00">Entities/EntitiesManager.hpp</text>
</a>
</g>
</g>
<!-- Node2&#45;&gt;Node24 -->
<g id="edge28" class="edge">
<title>Node2&#45;&gt;Node24</title>
<path fill="none" stroke="#63b8ff" d="M1153.4,-169.3C1212.8,-163.55 1308.8,-151.3 1337,-129 1350.59,-118.26 1357.74,-99.56 1363,-85.22"/>
<polygon fill="#63b8ff" stroke="#63b8ff" points="1366.26,-86.49 1366.53,-75.9 1359.72,-84.01 1366.26,-86.49"/>
</g>
<!-- Node26 -->
<g id="node26" class="node">
<title>Node26</title>
<g id="a_node26"><a xlink:href="Bullets_8hpp.html" target="_top" xlink:title=" ">
<polygon fill="white" stroke="#666666" points="1533,-129 1411,-129 1411,-110 1533,-110 1533,-129"/>
<text text-anchor="middle" x="1472" y="-117" font-family="Helvetica,sans-Serif" font-size="10.00">Components/Bullets.hpp</text>
</a>
</g>
</g>
<!-- Node2&#45;&gt;Node26 -->
<g id="edge32" class="edge">
<title>Node2&#45;&gt;Node26</title>
<path fill="none" stroke="#63b8ff" d="M1153.44,-165.79C1216.27,-156.39 1326.25,-140.49 1399.15,-130.24"/>
<polygon fill="#63b8ff" stroke="#63b8ff" points="1399.61,-133.72 1409.02,-128.86 1398.64,-126.78 1399.61,-133.72"/>
</g>
<!-- Node17&#45;&gt;Node2 -->
<g id="edge17" class="edge">
<title>Node17&#45;&gt;Node2</title>
<path fill="none" stroke="#63b8ff" d="M1071.34,-74.46C1081.08,-91.73 1096.08,-129.98 1102.81,-153.57"/>
<polygon fill="#63b8ff" stroke="#63b8ff" points="1099.39,-154.33 1105.19,-163.19 1106.19,-152.64 1099.39,-154.33"/>
</g>
<!-- Node18&#45;&gt;Node2 -->
<g id="edge19" class="edge">
<title>Node18&#45;&gt;Node2</title>
<path fill="none" stroke="#63b8ff" d="M1144.29,-129.44C1140.13,-136.82 1132.25,-147.5 1124.5,-156.5"/>
<polygon fill="#63b8ff" stroke="#63b8ff" points="1122.14,-153.9 1117.96,-163.63 1127.3,-158.63 1122.14,-153.9"/>
</g>
<!-- Node19&#45;&gt;Node2 -->
<g id="edge21" class="edge">
<title>Node19&#45;&gt;Node2</title>
<path fill="none" stroke="#63b8ff" d="M1550.58,-129.05C1413.08,-146.66 1250.63,-161.68 1164.83,-168.9"/>
<polygon fill="#63b8ff" stroke="#63b8ff" points="1164.68,-165.4 1155.01,-169.72 1165.26,-172.38 1164.68,-165.4"/>
</g>
<!-- Node20 -->
<g id="node20" class="node">
<title>Node20</title>
<g id="a_node20"><a xlink:title=" ">
<polygon fill="#e0e0e0" stroke="#999999" points="1611.5,-74 1582.5,-74 1582.5,-55 1611.5,-55 1611.5,-74"/>
<text text-anchor="middle" x="1597" y="-62" font-family="Helvetica,sans-Serif" font-size="10.00">list</text>
</a>
</g>
</g>
<!-- Node19&#45;&gt;Node20 -->
<g id="edge22" class="edge">
<title>Node19&#45;&gt;Node20</title>
<path fill="none" stroke="#63b8ff" d="M1597,-109.75C1597,-103.27 1597,-94.16 1597,-85.9"/>
<polygon fill="#63b8ff" stroke="#63b8ff" points="1600.5,-85.96 1597,-75.96 1593.5,-85.96 1600.5,-85.96"/>
</g>
<!-- Node21 -->
<g id="node21" class="node">
<title>Node21</title>
<g id="a_node21"><a xlink:title=" ">
<polygon fill="#e0e0e0" stroke="#999999" points="1920.5,-74 1877.5,-74 1877.5,-55 1920.5,-55 1920.5,-74"/>
<text text-anchor="middle" x="1899" y="-62" font-family="Helvetica,sans-Serif" font-size="10.00">queue</text>
</a>
</g>
</g>
<!-- Node19&#45;&gt;Node21 -->
<g id="edge23" class="edge">
<title>Node19&#45;&gt;Node21</title>
<path fill="none" stroke="#63b8ff" d="M1643.2,-110.39C1704.64,-99.61 1811.78,-80.81 1865.81,-71.32"/>
<polygon fill="#63b8ff" stroke="#63b8ff" points="1866.39,-74.78 1875.63,-69.6 1865.18,-67.88 1866.39,-74.78"/>
</g>
<!-- Node22 -->
<g id="node22" class="node">
<title>Node22</title>
<g id="a_node22"><a xlink:title=" ">
<polygon fill="#e0e0e0" stroke="#999999" points="2001,-74 1939,-74 1939,-55 2001,-55 2001,-74"/>
<text text-anchor="middle" x="1970" y="-62" font-family="Helvetica,sans-Serif" font-size="10.00">Skaldi.hpp</text>
</a>
</g>
</g>
<!-- Node19&#45;&gt;Node22 -->
<g id="edge24" class="edge">
<title>Node19&#45;&gt;Node22</title>
<path fill="none" stroke="#63b8ff" d="M1643.5,-111.23C1646.37,-110.81 1649.23,-110.39 1652,-110 1771.74,-93 1805.25,-94.84 1927.3,-74.34"/>
<polygon fill="#63b8ff" stroke="#63b8ff" points="1927.84,-77.8 1937.11,-72.68 1926.67,-70.9 1927.84,-77.8"/>
</g>
<!-- Node23&#45;&gt;Node2 -->
<g id="edge26" class="edge">
<title>Node23&#45;&gt;Node2</title>
<path fill="none" stroke="#63b8ff" d="M1249.85,-129.45C1224.02,-138.18 1181.91,-151.52 1149.67,-161.24"/>
<polygon fill="#63b8ff" stroke="#63b8ff" points="1148.75,-157.86 1140.17,-164.08 1150.75,-164.57 1148.75,-157.86"/>
</g>
<!-- Node23&#45;&gt;Node17 -->
<g id="edge27" class="edge">
<title>Node23&#45;&gt;Node17</title>
<path fill="none" stroke="#63b8ff" d="M1237.55,-109.51C1202.46,-100.61 1148.58,-86.95 1110.17,-77.21"/>
<polygon fill="#63b8ff" stroke="#63b8ff" points="1111.3,-73.88 1100.75,-74.82 1109.58,-80.67 1111.3,-73.88"/>
</g>
<!-- Node24&#45;&gt;Node2 -->
<g id="edge29" class="edge">
<title>Node24&#45;&gt;Node2</title>
<path fill="none" stroke="#63b8ff" d="M1378.39,-74.48C1379.25,-88.46 1372.39,-115.25 1355,-129 1326.55,-151.5 1229.08,-163.77 1164.5,-169.45"/>
<polygon fill="#63b8ff" stroke="#63b8ff" points="1164.42,-165.95 1154.75,-170.28 1165.01,-172.92 1164.42,-165.95"/>
</g>
<!-- Node24&#45;&gt;Node13 -->
<g id="edge31" class="edge">
<title>Node24&#45;&gt;Node13</title>
<path fill="none" stroke="#63b8ff" d="M1369.05,-54.75C1365.16,-47.88 1359.61,-38.08 1354.72,-29.45"/>
<polygon fill="#63b8ff" stroke="#63b8ff" points="1357.78,-27.74 1349.81,-20.76 1351.69,-31.19 1357.78,-27.74"/>
</g>
<!-- Node25 -->
<g id="node25" class="node">
<title>Node25</title>
<g id="a_node25"><a xlink:title=" ">
<polygon fill="#e0e0e0" stroke="#999999" points="1422,-19 1384,-19 1384,0 1422,0 1422,-19"/>
<text text-anchor="middle" x="1403" y="-7" font-family="Helvetica,sans-Serif" font-size="10.00">array</text>
</a>
</g>
</g>
<!-- Node24&#45;&gt;Node25 -->
<g id="edge30" class="edge">
<title>Node24&#45;&gt;Node25</title>
<path fill="none" stroke="#63b8ff" d="M1378.79,-54.75C1382.54,-47.88 1387.91,-38.08 1392.63,-29.45"/>
<polygon fill="#63b8ff" stroke="#63b8ff" points="1395.65,-31.22 1397.38,-20.77 1389.51,-27.86 1395.65,-31.22"/>
</g>
<!-- Node26&#45;&gt;Node2 -->
<g id="edge33" class="edge">
<title>Node26&#45;&gt;Node2</title>
<path fill="none" stroke="#63b8ff" d="M1415.2,-129.46C1347.16,-139.59 1233.88,-155.94 1164.62,-165.61"/>
<polygon fill="#63b8ff" stroke="#63b8ff" points="1164.39,-162.11 1154.97,-166.95 1165.36,-169.04 1164.39,-162.11"/>
</g>
<!-- Node27 -->
<g id="node27" class="node">
<title>Node27</title>
<g id="a_node27"><a xlink:title=" ">
<polygon fill="#e0e0e0" stroke="#999999" points="1508,-74 1462,-74 1462,-55 1508,-55 1508,-74"/>
<text text-anchor="middle" x="1485" y="-62" font-family="Helvetica,sans-Serif" font-size="10.00">math.h</text>
</a>
</g>
</g>
<!-- Node26&#45;&gt;Node27 -->
<g id="edge34" class="edge">
<title>Node26&#45;&gt;Node27</title>
<path fill="none" stroke="#63b8ff" d="M1474.15,-109.75C1475.76,-103.19 1478.02,-93.95 1480.07,-85.6"/>
<polygon fill="#63b8ff" stroke="#63b8ff" points="1483.46,-86.46 1482.45,-75.91 1476.66,-84.79 1483.46,-86.46"/>
</g>
<!-- Node28&#45;&gt;Node2 -->
<g id="edge36" class="edge">
<title>Node28&#45;&gt;Node2</title>
<path fill="none" stroke="#63b8ff" d="M1737.17,-225.06C1619.76,-215.86 1298.03,-190.63 1164.41,-180.16"/>
<polygon fill="#63b8ff" stroke="#63b8ff" points="1164.96,-176.69 1154.72,-179.4 1164.42,-183.67 1164.96,-176.69"/>
</g>
<!-- Node28&#45;&gt;Node8 -->
<g id="edge38" class="edge">
<title>Node28&#45;&gt;Node8</title>
<path fill="none" stroke="#63b8ff" d="M1737.22,-228.81C1569.13,-229.64 949.04,-229.25 441,-184 275.53,-169.26 231.64,-161.11 65.58,-129.37"/>
<polygon fill="#63b8ff" stroke="#63b8ff" points="66.43,-125.97 55.95,-127.53 65.12,-132.85 66.43,-125.97"/>
</g>
<!-- Node28&#45;&gt;Node9 -->
<g id="edge41" class="edge">
<title>Node28&#45;&gt;Node9</title>
<path fill="none" stroke="#63b8ff" d="M1737.02,-228.82C1546.35,-229.57 772.32,-226.27 133.43,-129.06"/>
<polygon fill="#63b8ff" stroke="#63b8ff" points="134.06,-125.62 123.64,-127.57 133,-132.54 134.06,-125.62"/>
</g>
<!-- Node28&#45;&gt;Node13 -->
<g id="edge40" class="edge">
<title>Node28&#45;&gt;Node13</title>
<path fill="none" stroke="#63b8ff" d="M1786.58,-219.75C1799.25,-198.62 1827.26,-144.07 1802,-110 1688.65,42.91 1569.54,-54.89 1377.54,-19.19"/>
<polygon fill="#63b8ff" stroke="#63b8ff" points="1378.25,-15.76 1367.76,-17.25 1376.89,-22.63 1378.25,-15.76"/>
</g>
<!-- Node28&#45;&gt;Node14 -->
<g id="edge44" class="edge">
<title>Node28&#45;&gt;Node14</title>
<path fill="none" stroke="#63b8ff" d="M1773.47,-219.66C1758.31,-201.86 1723.85,-161.41 1703.94,-138.04"/>
<polygon fill="#63b8ff" stroke="#63b8ff" points="1706.76,-135.96 1697.61,-130.61 1701.43,-140.49 1706.76,-135.96"/>
</g>
<!-- Node28&#45;&gt;Node16 -->
<g id="edge37" class="edge">
<title>Node28&#45;&gt;Node16</title>
<path fill="none" stroke="#63b8ff" d="M1779.61,-219.66C1776.91,-202.5 1770.89,-164.26 1767.16,-140.6"/>
<polygon fill="#63b8ff" stroke="#63b8ff" points="1770.66,-140.29 1765.65,-130.96 1763.74,-141.38 1770.66,-140.29"/>
</g>
<!-- Node29 -->
<g id="node29" class="node">
<title>Node29</title>
<g id="a_node29"><a xlink:title=" ">
<polygon fill="#e0e0e0" stroke="#999999" points="1890.5,-129 1849.5,-129 1849.5,-110 1890.5,-110 1890.5,-129"/>
<text text-anchor="middle" x="1870" y="-117" font-family="Helvetica,sans-Serif" font-size="10.00">string</text>
</a>
</g>
</g>
<!-- Node28&#45;&gt;Node29 -->
<g id="edge39" class="edge">
<title>Node28&#45;&gt;Node29</title>
<path fill="none" stroke="#63b8ff" d="M1788.28,-219.66C1802.95,-201.86 1836.29,-161.41 1855.54,-138.04"/>
<polygon fill="#63b8ff" stroke="#63b8ff" points="1858,-140.57 1861.65,-130.63 1852.59,-136.12 1858,-140.57"/>
</g>
<!-- Node30 -->
<g id="node30" class="node">
<title>Node30</title>
<g id="a_node30"><a xlink:title=" ">
<polygon fill="#e0e0e0" stroke="#999999" points="1911.5,-184 1866.5,-184 1866.5,-165 1911.5,-165 1911.5,-184"/>
<text text-anchor="middle" x="1889" y="-172" font-family="Helvetica,sans-Serif" font-size="10.00">iosfwd</text>
</a>
</g>
</g>
<!-- Node28&#45;&gt;Node30 -->
<g id="edge42" class="edge">
<title>Node28&#45;&gt;Node30</title>
<path fill="none" stroke="#63b8ff" d="M1799.32,-219.51C1816.18,-211.24 1841.43,-198.84 1860.85,-189.31"/>
<polygon fill="#63b8ff" stroke="#63b8ff" points="1862.16,-192.57 1869.59,-185.02 1859.07,-186.29 1862.16,-192.57"/>
</g>
<!-- Node31 -->
<g id="node31" class="node">
<title>Node31</title>
<g id="a_node31"><a xlink:title=" ">
<polygon fill="#e0e0e0" stroke="#999999" points="1970,-184 1930,-184 1930,-165 1970,-165 1970,-184"/>
<text text-anchor="middle" x="1950" y="-172" font-family="Helvetica,sans-Serif" font-size="10.00">regex</text>
</a>
</g>
</g>
<!-- Node28&#45;&gt;Node31 -->
<g id="edge43" class="edge">
<title>Node28&#45;&gt;Node31</title>
<path fill="none" stroke="#63b8ff" d="M1809.67,-219.51C1840.03,-209.99 1887.8,-195.01 1919.01,-185.22"/>
<polygon fill="#63b8ff" stroke="#63b8ff" points="1919.76,-188.65 1928.26,-182.32 1917.67,-181.97 1919.76,-188.65"/>
</g>
<!-- Node32&#45;&gt;Node21 -->
<g id="edge49" class="edge">
<title>Node32&#45;&gt;Node21</title>
<path fill="none" stroke="#63b8ff" d="M2044.79,-164.56C2021.65,-157.11 1989.94,-145.11 1965,-129 1945.25,-116.24 1926.3,-97.03 1913.81,-83.09"/>
<polygon fill="#63b8ff" stroke="#63b8ff" points="1916.46,-80.8 1907.26,-75.56 1911.18,-85.4 1916.46,-80.8"/>
</g>
<!-- Node32&#45;&gt;Node22 -->
<g id="edge52" class="edge">
<title>Node32&#45;&gt;Node22</title>
<path fill="none" stroke="#63b8ff" d="M2032.88,-164.57C2012.7,-158.11 1990.25,-147.21 1977,-129 1968,-116.63 1966.67,-99.16 1967.35,-85.67"/>
<polygon fill="#63b8ff" stroke="#63b8ff" points="1970.83,-86.05 1968.3,-75.77 1963.86,-85.39 1970.83,-86.05"/>
</g>
<!-- Node32&#45;&gt;Node29 -->
<g id="edge50" class="edge">
<title>Node32&#45;&gt;Node29</title>
<path fill="none" stroke="#63b8ff" d="M2041.05,-164.51C2002.04,-154.47 1939.46,-138.37 1901.78,-128.68"/>
<polygon fill="#63b8ff" stroke="#63b8ff" points="1902.96,-125.37 1892.41,-126.26 1901.22,-132.15 1902.96,-125.37"/>
</g>
<!-- Node33 -->
<g id="node33" class="node">
<title>Node33</title>
<g id="a_node33"><a xlink:href="IGameState_8hpp.html" target="_top" xlink:title=" ">
<polygon fill="white" stroke="#666666" points="2162.5,-129 1985.5,-129 1985.5,-110 2162.5,-110 2162.5,-129"/>
<text text-anchor="middle" x="2074" y="-117" font-family="Helvetica,sans-Serif" font-size="10.00">system/gameStates/IGameState.hpp</text>
</a>
</g>
</g>
<!-- Node32&#45;&gt;Node33 -->
<g id="edge46" class="edge">
<title>Node32&#45;&gt;Node33</title>
<path fill="none" stroke="#63b8ff" d="M2075.67,-164.75C2075.43,-158.27 2075.08,-149.16 2074.77,-140.9"/>
<polygon fill="#63b8ff" stroke="#63b8ff" points="2078.27,-140.82 2074.39,-130.95 2071.27,-141.08 2078.27,-140.82"/>
</g>
<!-- Node35 -->
<g id="node35" class="node">
<title>Node35</title>
<g id="a_node35"><a xlink:title=" ">
<polygon fill="#e0e0e0" stroke="#999999" points="2227,-129 2181,-129 2181,-110 2227,-110 2227,-129"/>
<text text-anchor="middle" x="2204" y="-117" font-family="Helvetica,sans-Serif" font-size="10.00">cstring</text>
</a>
</g>
</g>
<!-- Node32&#45;&gt;Node35 -->
<g id="edge51" class="edge">
<title>Node32&#45;&gt;Node35</title>
<path fill="none" stroke="#63b8ff" d="M2097.71,-164.51C2118.16,-156.04 2149.02,-143.27 2172.23,-133.66"/>
<polygon fill="#63b8ff" stroke="#63b8ff" points="2173.31,-137 2181.21,-129.94 2170.63,-130.53 2173.31,-137"/>
</g>
<!-- Node33&#45;&gt;Node24 -->
<g id="edge47" class="edge">
<title>Node33&#45;&gt;Node24</title>
<path fill="none" stroke="#63b8ff" d="M1985.22,-113.14C1866.92,-105.77 1650.77,-91.52 1455.54,-74.2"/>
<polygon fill="#63b8ff" stroke="#63b8ff" points="1455.98,-70.72 1445.71,-73.32 1455.36,-77.69 1455.98,-70.72"/>
</g>
<!-- Node34 -->
<g id="node34" class="node">
<title>Node34</title>
<g id="a_node34"><a xlink:title=" ">
<polygon fill="#e0e0e0" stroke="#999999" points="2115.5,-74 2032.5,-74 2032.5,-55 2115.5,-55 2115.5,-74"/>
<text text-anchor="middle" x="2074" y="-62" font-family="Helvetica,sans-Serif" font-size="10.00">Utils/String.hpp</text>
</a>
</g>
</g>
<!-- Node33&#45;&gt;Node34 -->
<g id="edge48" class="edge">
<title>Node33&#45;&gt;Node34</title>
<path fill="none" stroke="#63b8ff" d="M2074,-109.75C2074,-103.27 2074,-94.16 2074,-85.9"/>
<polygon fill="#63b8ff" stroke="#63b8ff" points="2077.5,-85.96 2074,-75.96 2070.5,-85.96 2077.5,-85.96"/>
</g>
<!-- Node36&#45;&gt;Node21 -->
<g id="edge56" class="edge">
<title>Node36&#45;&gt;Node21</title>
<path fill="none" stroke="#63b8ff" d="M2164.04,-219.75C2197.01,-199.52 2270.09,-148.33 2236,-110 2192.59,-61.18 2014.64,-84.66 1932.14,-73.77"/>
<polygon fill="#63b8ff" stroke="#63b8ff" points="1932.84,-70.34 1922.41,-72.19 1931.72,-77.25 1932.84,-70.34"/>
</g>
<!-- Node36&#45;&gt;Node22 -->
<g id="edge55" class="edge">
<title>Node36&#45;&gt;Node22</title>
<path fill="none" stroke="#63b8ff" d="M2211.72,-220.13C2233.52,-213.87 2255.8,-202.97 2269,-184 2287.78,-157 2290.5,-134.89 2269,-110 2233.03,-68.36 2078.4,-82.28 2024,-74 2020.34,-73.44 2016.54,-72.86 2012.73,-72.27"/>
<polygon fill="#63b8ff" stroke="#63b8ff" points="2013.32,-68.82 2002.9,-70.73 2012.24,-75.73 2013.32,-68.82"/>
</g>
<!-- Node36&#45;&gt;Node32 -->
<g id="edge54" class="edge">
<title>Node36&#45;&gt;Node32</title>
<path fill="none" stroke="#63b8ff" d="M2136.62,-219.51C2125.85,-211.7 2110.03,-200.21 2097.25,-190.93"/>
<polygon fill="#63b8ff" stroke="#63b8ff" points="2099.57,-188.29 2089.43,-185.25 2095.46,-193.95 2099.57,-188.29"/>
</g>
</g>
</svg>
