<?xml version="1.0" encoding="UTF-8" standalone="no"?>
<!DOCTYPE svg PUBLIC "-//W3C//DTD SVG 1.1//EN"
 "http://www.w3.org/Graphics/SVG/1.1/DTD/svg11.dtd">
<!-- Generated by graphviz version 7.0.5 (20221223.1930)
 -->
<!-- Title: /github/workspace/client/src/main.cpp Pages: 1 -->
<!--zoomable 588 -->
<svg id="main" version="1.1" xmlns="http://www.w3.org/2000/svg" xmlns:xlink="http://www.w3.org/1999/xlink" xml:space="preserve" onload="init(evt)">
<style type="text/css"><![CDATA[
.edge:hover path { stroke: red; }
.edge:hover polygon { stroke: red; fill: red; }
]]></style>
<script type="text/javascript"><![CDATA[
var edges = document.getElementsByTagName('g');
if (edges && edges.length) {
  for (var i=0;i<edges.length;i++) {
    if (edges[i].id.substr(0,4)=='edge') {
      edges[i].setAttribute('class','edge');
    }
  }
}
]]></script>
        <defs>
                <circle id="rim" cx="0" cy="0" r="7"/>
                <circle id="rim2" cx="0" cy="0" r="3.5"/>
                <g id="zoomPlus">
                        <use xlink:href="#rim" fill="#404040">
                                <set attributeName="fill" to="#808080" begin="zoomplus.mouseover" end="zoomplus.mouseout"/>
                        </use>
                        <path d="M-4,0h8M0,-4v8" fill="none" stroke="white" stroke-width="1.5" pointer-events="none"/>
                </g>
                <g id="zoomMin">
                        <use xlink:href="#rim" fill="#404040">
                                <set attributeName="fill" to="#808080" begin="zoomminus.mouseover" end="zoomminus.mouseout"/>
                        </use>
                        <path d="M-4,0h8" fill="none" stroke="white" stroke-width="1.5" pointer-events="none"/>
                </g>
                <g id="dirArrow">
                        <path fill="none" stroke="white" stroke-width="1.5" d="M0,-3.0v7 M-2.5,-0.5L0,-3.0L2.5,-0.5"/>
                </g>
               <g id="resetDef">
                       <use xlink:href="#rim2" fill="#404040">
                               <set attributeName="fill" to="#808080" begin="reset.mouseover" end="reset.mouseout"/>
                       </use>
               </g>
        </defs>

<script type="text/javascript">
var viewWidth = 2309;
var viewHeight = 588;
var sectionId = 'dynsection-0';
</script>
<script xlink:href="svgpan.js"/>
<svg id="graph" class="graph">
<g id="viewport">
<title>/github/workspace/client/src/main.cpp</title>
<!-- Node1 -->
<g id="node1" class="node">
<title>Node1</title>
<g id="a_node1"><a xlink:title=" ">
<polygon fill="#999999" stroke="#666666" points="1256,-580 1134,-580 1134,-550 1256,-550 1256,-580"/>
<text text-anchor="start" x="1142" y="-568" font-family="Helvetica,sans-Serif" font-size="10.00">/github/workspace/client</text>
<text text-anchor="middle" x="1195" y="-557" font-family="Helvetica,sans-Serif" font-size="10.00">/src/main.cpp</text>
</a>
</g>
</g>
<!-- Node2 -->
<g id="node2" class="node">
<title>Node2</title>
<g id="a_node2"><a xlink:href="Engine_8hpp.html" target="_top" xlink:title=" ">
<polygon fill="white" stroke="#666666" points="1243,-239 1147,-239 1147,-220 1243,-220 1243,-239"/>
<text text-anchor="middle" x="1195" y="-227" font-family="Helvetica,sans-Serif" font-size="10.00">Engine/Engine.hpp</text>
</a>
</g>
</g>
<!-- Node1&#45;&gt;Node2 -->
<g id="edge1" class="edge">
<title>Node1&#45;&gt;Node2</title>
<path fill="none" stroke="#63b8ff" d="M1195,-549.67C1195,-528.14 1195,-486.17 1195,-450.5 1195,-450.5 1195,-450.5 1195,-338.5 1195,-307.92 1195,-272.48 1195,-250.77"/>
<polygon fill="#63b8ff" stroke="#63b8ff" points="1198.5,-250.97 1195,-240.97 1191.5,-250.97 1198.5,-250.97"/>
</g>
<!-- Node29 -->
<g id="node29" class="node">
<title>Node29</title>
<g id="a_node29"><a xlink:href="Error_8hpp.html" target="_top" xlink:title=" ">
<polygon fill="white" stroke="#666666" points="289.5,-294 202.5,-294 202.5,-275 289.5,-275 289.5,-294"/>
<text text-anchor="middle" x="246" y="-282" font-family="Helvetica,sans-Serif" font-size="10.00">Engine/Error.hpp</text>
</a>
</g>
</g>
<!-- Node1&#45;&gt;Node29 -->
<g id="edge42" class="edge">
<title>Node1&#45;&gt;Node29</title>
<path fill="none" stroke="#63b8ff" d="M1133.56,-563.4C995.96,-560.39 675,-543.42 675,-450.5 675,-450.5 675,-450.5 675,-393.5 675,-317.3 417.24,-294.34 301.32,-287.87"/>
<polygon fill="#63b8ff" stroke="#63b8ff" points="301.58,-284.38 291.41,-287.34 301.21,-291.37 301.58,-284.38"/>
</g>
<!-- Node32 -->
<g id="node32" class="node">
<title>Node32</title>
<g id="a_node32"><a xlink:href="GameEngine_8hpp.html" target="_top" xlink:title=" ">
<polygon fill="white" stroke="#666666" points="1627.5,-514 1502.5,-514 1502.5,-495 1627.5,-495 1627.5,-514"/>
<text text-anchor="middle" x="1565" y="-502" font-family="Helvetica,sans-Serif" font-size="10.00">system/GameEngine.hpp</text>
</a>
</g>
</g>
<!-- Node1&#45;&gt;Node32 -->
<g id="edge51" class="edge">
<title>Node1&#45;&gt;Node32</title>
<path fill="none" stroke="#63b8ff" d="M1256.1,-554.34C1322.5,-543.84 1428.3,-527.11 1497.21,-516.22"/>
<polygon fill="#63b8ff" stroke="#63b8ff" points="1497.54,-519.71 1506.87,-514.69 1496.45,-512.8 1497.54,-519.71"/>
</g>
<!-- Node3 -->
<g id="node3" class="node">
<title>Node3</title>
<g id="a_node3"><a xlink:title=" ">
<polygon fill="#e0e0e0" stroke="#999999" points="1184.5,-184 1095.5,-184 1095.5,-165 1184.5,-165 1184.5,-184"/>
<text text-anchor="middle" x="1140" y="-172" font-family="Helvetica,sans-Serif" font-size="10.00">SFML/Audio.hpp</text>
</a>
</g>
</g>
<!-- Node2&#45;&gt;Node3 -->
<g id="edge2" class="edge">
<title>Node2&#45;&gt;Node3</title>
<path fill="none" stroke="#63b8ff" d="M1185.92,-219.75C1178.16,-212.27 1166.79,-201.32 1157.3,-192.17"/>
<polygon fill="#63b8ff" stroke="#63b8ff" points="1160,-189.91 1150.37,-185.49 1155.14,-194.95 1160,-189.91"/>
</g>
<!-- Node4 -->
<g id="node4" class="node">
<title>Node4</title>
<g id="a_node4"><a xlink:title=" ">
<polygon fill="#e0e0e0" stroke="#999999" points="454,-184 350,-184 350,-165 454,-165 454,-184"/>
<text text-anchor="middle" x="402" y="-172" font-family="Helvetica,sans-Serif" font-size="10.00">SFML/Graphics.hpp</text>
</a>
</g>
</g>
<!-- Node2&#45;&gt;Node4 -->
<g id="edge3" class="edge">
<title>Node2&#45;&gt;Node4</title>
<path fill="none" stroke="#63b8ff" d="M1146.5,-226.86C1030.67,-222.65 728.57,-210.03 465.52,-184.17"/>
<polygon fill="#63b8ff" stroke="#63b8ff" points="466.01,-180.7 455.72,-183.2 465.32,-187.67 466.01,-180.7"/>
</g>
<!-- Node5 -->
<g id="node5" class="node">
<title>Node5</title>
<g id="a_node5"><a xlink:title=" ">
<polygon fill="#e0e0e0" stroke="#999999" points="573.5,-184 472.5,-184 472.5,-165 573.5,-165 573.5,-184"/>
<text text-anchor="middle" x="523" y="-172" font-family="Helvetica,sans-Serif" font-size="10.00">SFML/Network.hpp</text>
</a>
</g>
</g>
<!-- Node2&#45;&gt;Node5 -->
<g id="edge4" class="edge">
<title>Node2&#45;&gt;Node5</title>
<path fill="none" stroke="#63b8ff" d="M1146.81,-226.16C1045.01,-220.97 800.33,-207.18 585.02,-184.26"/>
<polygon fill="#63b8ff" stroke="#63b8ff" points="585.64,-180.8 575.32,-183.22 584.89,-187.76 585.64,-180.8"/>
</g>
<!-- Node6 -->
<g id="node6" class="node">
<title>Node6</title>
<g id="a_node6"><a xlink:title=" ">
<polygon fill="#e0e0e0" stroke="#999999" points="690.5,-184 591.5,-184 591.5,-165 690.5,-165 690.5,-184"/>
<text text-anchor="middle" x="641" y="-172" font-family="Helvetica,sans-Serif" font-size="10.00">SFML/Window.hpp</text>
</a>
</g>
</g>
<!-- Node2&#45;&gt;Node6 -->
<g id="edge5" class="edge">
<title>Node2&#45;&gt;Node6</title>
<path fill="none" stroke="#63b8ff" d="M1146.78,-225.03C1060.1,-218.59 871.98,-203.78 702.28,-184.2"/>
<polygon fill="#63b8ff" stroke="#63b8ff" points="702.71,-180.73 692.37,-183.05 701.9,-187.68 702.71,-180.73"/>
</g>
<!-- Node7 -->
<g id="node7" class="node">
<title>Node7</title>
<g id="a_node7"><a xlink:title=" ">
<polygon fill="#e0e0e0" stroke="#999999" points="807,-184 709,-184 709,-165 807,-165 807,-184"/>
<text text-anchor="middle" x="758" y="-172" font-family="Helvetica,sans-Serif" font-size="10.00">SFML/System.hpp</text>
</a>
</g>
</g>
<!-- Node2&#45;&gt;Node7 -->
<g id="edge6" class="edge">
<title>Node2&#45;&gt;Node7</title>
<path fill="none" stroke="#63b8ff" d="M1146.78,-223.29C1076.84,-215.62 942.86,-200.58 818.57,-184.31"/>
<polygon fill="#63b8ff" stroke="#63b8ff" points="819.22,-180.86 808.85,-183.03 818.31,-187.8 819.22,-180.86"/>
</g>
<!-- Node8 -->
<g id="node8" class="node">
<title>Node8</title>
<g id="a_node8"><a xlink:title=" ">
<polygon fill="#e0e0e0" stroke="#999999" points="273,-19 219,-19 219,0 273,0 273,-19"/>
<text text-anchor="middle" x="246" y="-7" font-family="Helvetica,sans-Serif" font-size="10.00">iostream</text>
</a>
</g>
</g>
<!-- Node2&#45;&gt;Node8 -->
<g id="edge7" class="edge">
<title>Node2&#45;&gt;Node8</title>
<path fill="none" stroke="#63b8ff" d="M1146.52,-228.17C951.61,-226.6 234,-218.51 201,-184 159.31,-140.4 206.57,-63.34 231.96,-28.5"/>
<polygon fill="#63b8ff" stroke="#63b8ff" points="234.62,-30.79 237.83,-20.7 229.02,-26.58 234.62,-30.79"/>
</g>
<!-- Node9 -->
<g id="node9" class="node">
<title>Node9</title>
<g id="a_node9"><a xlink:title=" ">
<polygon fill="#e0e0e0" stroke="#999999" points="78,-184 28,-184 28,-165 78,-165 78,-184"/>
<text text-anchor="middle" x="53" y="-172" font-family="Helvetica,sans-Serif" font-size="10.00">fstream</text>
</a>
</g>
</g>
<!-- Node2&#45;&gt;Node9 -->
<g id="edge8" class="edge">
<title>Node2&#45;&gt;Node9</title>
<path fill="none" stroke="#63b8ff" d="M1146.61,-227.87C964.29,-225.32 318.09,-214.39 89.36,-183.95"/>
<polygon fill="#63b8ff" stroke="#63b8ff" points="90.02,-180.51 79.64,-182.6 89.06,-187.44 90.02,-180.51"/>
</g>
<!-- Node10 -->
<g id="node10" class="node">
<title>Node10</title>
<g id="a_node10"><a xlink:title=" ">
<polygon fill="#e0e0e0" stroke="#999999" points="1732.5,-184 1691.5,-184 1691.5,-165 1732.5,-165 1732.5,-184"/>
<text text-anchor="middle" x="1712" y="-172" font-family="Helvetica,sans-Serif" font-size="10.00">string</text>
</a>
</g>
</g>
<!-- Node2&#45;&gt;Node10 -->
<g id="edge9" class="edge">
<title>Node2&#45;&gt;Node10</title>
<path fill="none" stroke="#63b8ff" d="M1243.45,-227.04C1329.57,-223.8 1515,-213.93 1680.28,-183.95"/>
<polygon fill="#63b8ff" stroke="#63b8ff" points="1680.45,-187.48 1689.65,-182.22 1679.18,-180.59 1680.45,-187.48"/>
</g>
<!-- Node11 -->
<g id="node11" class="node">
<title>Node11</title>
<g id="a_node11"><a xlink:title=" ">
<polygon fill="#e0e0e0" stroke="#999999" points="875,-184 825,-184 825,-165 875,-165 875,-184"/>
<text text-anchor="middle" x="850" y="-172" font-family="Helvetica,sans-Serif" font-size="10.00">unistd.h</text>
</a>
</g>
</g>
<!-- Node2&#45;&gt;Node11 -->
<g id="edge10" class="edge">
<title>Node2&#45;&gt;Node11</title>
<path fill="none" stroke="#63b8ff" d="M1146.53,-223.13C1087.4,-216.24 984.21,-203.09 886.46,-184.3"/>
<polygon fill="#63b8ff" stroke="#63b8ff" points="887.16,-180.87 876.67,-182.39 885.82,-187.74 887.16,-180.87"/>
</g>
<!-- Node12 -->
<g id="node12" class="node">
<title>Node12</title>
<g id="a_node12"><a xlink:title=" ">
<polygon fill="#e0e0e0" stroke="#999999" points="958.5,-184 893.5,-184 893.5,-165 958.5,-165 958.5,-184"/>
<text text-anchor="middle" x="926" y="-172" font-family="Helvetica,sans-Serif" font-size="10.00">sys/types.h</text>
</a>
</g>
</g>
<!-- Node2&#45;&gt;Node12 -->
<g id="edge11" class="edge">
<title>Node2&#45;&gt;Node12</title>
<path fill="none" stroke="#63b8ff" d="M1148.25,-219.54C1104.57,-211.13 1037.24,-198.08 969.91,-184.57"/>
<polygon fill="#63b8ff" stroke="#63b8ff" points="970.64,-181.15 960.15,-182.61 969.26,-188.01 970.64,-181.15"/>
</g>
<!-- Node13 -->
<g id="node13" class="node">
<title>Node13</title>
<g id="a_node13"><a xlink:title=" ">
<polygon fill="#e0e0e0" stroke="#999999" points="1557,-19 1513,-19 1513,0 1557,0 1557,-19"/>
<text text-anchor="middle" x="1535" y="-7" font-family="Helvetica,sans-Serif" font-size="10.00">vector</text>
</a>
</g>
</g>
<!-- Node2&#45;&gt;Node13 -->
<g id="edge12" class="edge">
<title>Node2&#45;&gt;Node13</title>
<path fill="none" stroke="#63b8ff" d="M1222.32,-219.55C1244.93,-211.63 1277.51,-199.02 1304,-184 1389.27,-135.64 1478.98,-60 1516.65,-26.92"/>
<polygon fill="#63b8ff" stroke="#63b8ff" points="1518.77,-29.72 1523.94,-20.47 1514.13,-24.47 1518.77,-29.72"/>
</g>
<!-- Node14 -->
<g id="node14" class="node">
<title>Node14</title>
<g id="a_node14"><a xlink:title=" ">
<polygon fill="#e0e0e0" stroke="#999999" points="154,-184 96,-184 96,-165 154,-165 154,-184"/>
<text text-anchor="middle" x="125" y="-172" font-family="Helvetica,sans-Serif" font-size="10.00">exception</text>
</a>
</g>
</g>
<!-- Node2&#45;&gt;Node14 -->
<g id="edge13" class="edge">
<title>Node2&#45;&gt;Node14</title>
<path fill="none" stroke="#63b8ff" d="M1146.67,-229C999.28,-229.98 542.78,-228.9 168,-184 167.01,-183.88 166.01,-183.75 164.99,-183.61"/>
<polygon fill="#63b8ff" stroke="#63b8ff" points="165.97,-180.23 155.54,-182.1 164.86,-187.14 165.97,-180.23"/>
</g>
<!-- Node15 -->
<g id="node15" class="node">
<title>Node15</title>
<g id="a_node15"><a xlink:href="Window_8hpp.html" target="_top" xlink:title=" ">
<polygon fill="white" stroke="#666666" points="1077.5,-184 976.5,-184 976.5,-165 1077.5,-165 1077.5,-184"/>
<text text-anchor="middle" x="1027" y="-172" font-family="Helvetica,sans-Serif" font-size="10.00">Engine/Window.hpp</text>
</a>
</g>
</g>
<!-- Node2&#45;&gt;Node15 -->
<g id="edge14" class="edge">
<title>Node2&#45;&gt;Node15</title>
<path fill="none" stroke="#63b8ff" d="M1161.28,-219.51C1131.99,-210.84 1089.97,-197.65 1060.69,-187.97"/>
<polygon fill="#63b8ff" stroke="#63b8ff" points="1062.18,-184.77 1051.59,-184.93 1059.96,-191.41 1062.18,-184.77"/>
</g>
<!-- Node16 -->
<g id="node16" class="node">
<title>Node16</title>
<g id="a_node16"><a xlink:href="Event_8hpp.html" target="_top" xlink:title=" ">
<polygon fill="white" stroke="#666666" points="1295,-184 1203,-184 1203,-165 1295,-165 1295,-184"/>
<text text-anchor="middle" x="1249" y="-172" font-family="Helvetica,sans-Serif" font-size="10.00">Engine/Event.hpp</text>
</a>
</g>
</g>
<!-- Node2&#45;&gt;Node16 -->
<g id="edge16" class="edge">
<title>Node2&#45;&gt;Node16</title>
<path fill="none" stroke="#63b8ff" d="M1198.75,-219.75C1204.82,-212.2 1215.76,-201.09 1226,-191.9"/>
<polygon fill="#63b8ff" stroke="#63b8ff" points="1228.23,-194.6 1233.53,-185.43 1223.67,-189.29 1228.23,-194.6"/>
</g>
<!-- Node19 -->
<g id="node19" class="node">
<title>Node19</title>
<g id="a_node19"><a xlink:href="EntitiesManager_8hpp.html" target="_top" xlink:title=" ">
<polygon fill="white" stroke="#666666" points="1967,-184 1827,-184 1827,-165 1967,-165 1967,-184"/>
<text text-anchor="middle" x="1897" y="-172" font-family="Helvetica,sans-Serif" font-size="10.00">Entities/EntitiesManager.hpp</text>
</a>
</g>
</g>
<!-- Node2&#45;&gt;Node19 -->
<g id="edge20" class="edge">
<title>Node2&#45;&gt;Node19</title>
<path fill="none" stroke="#63b8ff" d="M1243.43,-224.56C1362.16,-215.31 1668.3,-192.18 1815.57,-181.31"/>
<polygon fill="#63b8ff" stroke="#63b8ff" points="1815.53,-184.83 1825.24,-180.6 1815.01,-177.85 1815.53,-184.83"/>
</g>
<!-- Node26 -->
<g id="node26" class="node">
<title>Node26</title>
<g id="a_node26"><a xlink:href="Bullets_8hpp.html" target="_top" xlink:title=" ">
<polygon fill="white" stroke="#666666" points="1511,-184 1389,-184 1389,-165 1511,-165 1511,-184"/>
<text text-anchor="middle" x="1450" y="-172" font-family="Helvetica,sans-Serif" font-size="10.00">Components/Bullets.hpp</text>
</a>
</g>
</g>
<!-- Node2&#45;&gt;Node26 -->
<g id="edge36" class="edge">
<title>Node2&#45;&gt;Node26</title>
<path fill="none" stroke="#63b8ff" d="M1233.04,-219.51C1274.78,-210.44 1342.1,-196.42 1390.74,-186.65"/>
<polygon fill="#63b8ff" stroke="#63b8ff" points="1391.15,-190.14 1400.27,-184.74 1389.77,-183.27 1391.15,-190.14"/>
</g>
<!-- Node28 -->
<g id="node28" class="node">
<title>Node28</title>
<g id="a_node28"><a xlink:href="Background_8hpp.html" target="_top" xlink:title=" ">
<polygon fill="white" stroke="#666666" points="1673,-184 1529,-184 1529,-165 1673,-165 1673,-184"/>
<text text-anchor="middle" x="1601" y="-172" font-family="Helvetica,sans-Serif" font-size="10.00">Components/Background.hpp</text>
</a>
</g>
</g>
<!-- Node2&#45;&gt;Node28 -->
<g id="edge40" class="edge">
<title>Node2&#45;&gt;Node28</title>
<path fill="none" stroke="#63b8ff" d="M1243.35,-221.57C1310.93,-212.43 1434.43,-196.28 1517.16,-185.73"/>
<polygon fill="#63b8ff" stroke="#63b8ff" points="1517.57,-189.21 1527.05,-184.47 1516.69,-182.26 1517.57,-189.21"/>
</g>
<!-- Node15&#45;&gt;Node2 -->
<g id="edge15" class="edge">
<title>Node15&#45;&gt;Node2</title>
<path fill="none" stroke="#63b8ff" d="M1060.57,-184.45C1089.81,-193.1 1131.83,-206.29 1161.16,-215.98"/>
<polygon fill="#63b8ff" stroke="#63b8ff" points="1159.69,-219.18 1170.28,-219.03 1161.91,-212.54 1159.69,-219.18"/>
</g>
<!-- Node16&#45;&gt;Node2 -->
<g id="edge17" class="edge">
<title>Node16&#45;&gt;Node2</title>
<path fill="none" stroke="#63b8ff" d="M1245.16,-184.36C1239.08,-191.9 1228.2,-202.94 1218.02,-212.09"/>
<polygon fill="#63b8ff" stroke="#63b8ff" points="1215.83,-209.35 1210.53,-218.52 1220.39,-214.66 1215.83,-209.35"/>
</g>
<!-- Node17 -->
<g id="node17" class="node">
<title>Node17</title>
<g id="a_node17"><a xlink:title=" ">
<polygon fill="#e0e0e0" stroke="#999999" points="821.5,-129 792.5,-129 792.5,-110 821.5,-110 821.5,-129"/>
<text text-anchor="middle" x="807" y="-117" font-family="Helvetica,sans-Serif" font-size="10.00">list</text>
</a>
</g>
</g>
<!-- Node16&#45;&gt;Node17 -->
<g id="edge18" class="edge">
<title>Node16&#45;&gt;Node17</title>
<path fill="none" stroke="#63b8ff" d="M1202.57,-166.32C1199.33,-165.86 1196.12,-165.42 1193,-165 1057.88,-146.96 895.56,-129.67 833.18,-123.19"/>
<polygon fill="#63b8ff" stroke="#63b8ff" points="833.56,-119.71 823.25,-122.16 832.84,-126.67 833.56,-119.71"/>
</g>
<!-- Node18 -->
<g id="node18" class="node">
<title>Node18</title>
<g id="a_node18"><a xlink:title=" ">
<polygon fill="#e0e0e0" stroke="#999999" points="1582.5,-129 1539.5,-129 1539.5,-110 1582.5,-110 1582.5,-129"/>
<text text-anchor="middle" x="1561" y="-117" font-family="Helvetica,sans-Serif" font-size="10.00">queue</text>
</a>
</g>
</g>
<!-- Node16&#45;&gt;Node18 -->
<g id="edge19" class="edge">
<title>Node16&#45;&gt;Node18</title>
<path fill="none" stroke="#63b8ff" d="M1295.37,-165.62C1359.11,-154.8 1472.2,-135.58 1528,-126.11"/>
<polygon fill="#63b8ff" stroke="#63b8ff" points="1528.55,-129.56 1537.82,-124.44 1527.37,-122.66 1528.55,-129.56"/>
</g>
<!-- Node19&#45;&gt;Node2 -->
<g id="edge21" class="edge">
<title>Node19&#45;&gt;Node2</title>
<path fill="none" stroke="#63b8ff" d="M1826.69,-181.14C1688.37,-191.83 1383.43,-214.84 1254.42,-224.31"/>
<polygon fill="#63b8ff" stroke="#63b8ff" points="1254.45,-220.79 1244.74,-225.01 1254.97,-227.77 1254.45,-220.79"/>
</g>
<!-- Node20 -->
<g id="node20" class="node">
<title>Node20</title>
<g id="a_node20"><a xlink:href="IComponents_8hpp.html" target="_top" xlink:title=" ">
<polygon fill="white" stroke="#666666" points="1751,-129 1601,-129 1601,-110 1751,-110 1751,-129"/>
<text text-anchor="middle" x="1676" y="-117" font-family="Helvetica,sans-Serif" font-size="10.00">Components/IComponents.hpp</text>
</a>
</g>
</g>
<!-- Node19&#45;&gt;Node20 -->
<g id="edge22" class="edge">
<title>Node19&#45;&gt;Node20</title>
<path fill="none" stroke="#63b8ff" d="M1859.51,-164.51C1822.25,-155.57 1764.95,-141.83 1724.3,-132.08"/>
<polygon fill="#63b8ff" stroke="#63b8ff" points="1725.32,-128.73 1714.78,-129.8 1723.68,-135.53 1725.32,-128.73"/>
</g>
<!-- Node21 -->
<g id="node21" class="node">
<title>Node21</title>
<g id="a_node21"><a xlink:href="SparseArray_8hpp.html" target="_top" xlink:title=" ">
<polygon fill="white" stroke="#666666" points="1982.5,-129 1871.5,-129 1871.5,-110 1982.5,-110 1982.5,-129"/>
<text text-anchor="middle" x="1927" y="-117" font-family="Helvetica,sans-Serif" font-size="10.00">Utils/SparseArray.hpp</text>
</a>
</g>
</g>
<!-- Node19&#45;&gt;Node21 -->
<g id="edge24" class="edge">
<title>Node19&#45;&gt;Node21</title>
<path fill="none" stroke="#63b8ff" d="M1901.95,-164.75C1905.84,-157.88 1911.39,-148.08 1916.28,-139.45"/>
<polygon fill="#63b8ff" stroke="#63b8ff" points="1919.31,-141.19 1921.19,-130.76 1913.22,-137.74 1919.31,-141.19"/>
</g>
<!-- Node20&#45;&gt;Node2 -->
<g id="edge23" class="edge">
<title>Node20&#45;&gt;Node2</title>
<path fill="none" stroke="#63b8ff" d="M1600.91,-129.47C1527.22,-138.69 1420.24,-153.31 1380,-165 1359.94,-170.83 1356.56,-176.64 1337,-184 1304.23,-196.33 1266.37,-208.07 1237.98,-216.4"/>
<polygon fill="#63b8ff" stroke="#63b8ff" points="1237.29,-212.95 1228.67,-219.11 1239.25,-219.68 1237.29,-212.95"/>
</g>
<!-- Node21&#45;&gt;Node8 -->
<g id="edge25" class="edge">
<title>Node21&#45;&gt;Node8</title>
<path fill="none" stroke="#63b8ff" d="M1871.15,-113.69C1855.87,-112.43 1839.3,-111.11 1824,-110 1210.13,-65.32 461.04,-22.58 284.53,-12.65"/>
<polygon fill="#63b8ff" stroke="#63b8ff" points="284.97,-9.17 274.79,-12.11 284.58,-16.16 284.97,-9.17"/>
</g>
<!-- Node21&#45;&gt;Node13 -->
<g id="edge28" class="edge">
<title>Node21&#45;&gt;Node13</title>
<path fill="none" stroke="#63b8ff" d="M1908.66,-109.54C1874.6,-92.94 1803.92,-58.76 1792,-55 1714.2,-30.46 1618.63,-18.42 1568.83,-13.44"/>
<polygon fill="#63b8ff" stroke="#63b8ff" points="1569.27,-9.97 1558.98,-12.5 1568.6,-16.94 1569.27,-9.97"/>
</g>
<!-- Node22 -->
<g id="node22" class="node">
<title>Node22</title>
<g id="a_node22"><a xlink:title=" ">
<polygon fill="#e0e0e0" stroke="#999999" points="1994,-19 1938,-19 1938,0 1994,0 1994,-19"/>
<text text-anchor="middle" x="1966" y="-7" font-family="Helvetica,sans-Serif" font-size="10.00">algorithm</text>
</a>
</g>
</g>
<!-- Node21&#45;&gt;Node22 -->
<g id="edge26" class="edge">
<title>Node21&#45;&gt;Node22</title>
<path fill="none" stroke="#63b8ff" d="M1936.34,-109.6C1944.43,-101.25 1955.65,-87.98 1961,-74 1966.28,-60.21 1967.41,-43.54 1967.29,-30.73"/>
<polygon fill="#63b8ff" stroke="#63b8ff" points="1970.79,-30.84 1966.91,-20.99 1963.8,-31.11 1970.79,-30.84"/>
</g>
<!-- Node23 -->
<g id="node23" class="node">
<title>Node23</title>
<g id="a_node23"><a xlink:title=" ">
<polygon fill="#e0e0e0" stroke="#999999" points="2059,-19 2021,-19 2021,0 2059,0 2059,-19"/>
<text text-anchor="middle" x="2040" y="-7" font-family="Helvetica,sans-Serif" font-size="10.00">array</text>
</a>
</g>
</g>
<!-- Node21&#45;&gt;Node23 -->
<g id="edge27" class="edge">
<title>Node21&#45;&gt;Node23</title>
<path fill="none" stroke="#63b8ff" d="M1937.77,-109.54C1948.24,-100.72 1964.51,-86.76 1978,-74 1994.19,-58.69 2011.88,-40.41 2024.2,-27.41"/>
<polygon fill="#63b8ff" stroke="#63b8ff" points="2026.45,-30.13 2030.75,-20.45 2021.35,-25.33 2026.45,-30.13"/>
</g>
<!-- Node24 -->
<g id="node24" class="node">
<title>Node24</title>
<g id="a_node24"><a xlink:title=" ">
<polygon fill="#e0e0e0" stroke="#999999" points="1914.5,-19 1875.5,-19 1875.5,0 1914.5,0 1914.5,-19"/>
<text text-anchor="middle" x="1895" y="-7" font-family="Helvetica,sans-Serif" font-size="10.00">utility</text>
</a>
</g>
</g>
<!-- Node21&#45;&gt;Node24 -->
<g id="edge29" class="edge">
<title>Node21&#45;&gt;Node24</title>
<path fill="none" stroke="#63b8ff" d="M1933.32,-109.59C1941.39,-97.04 1953.35,-73.61 1945,-55 1939.66,-43.11 1929.41,-33.1 1919.56,-25.6"/>
<polygon fill="#63b8ff" stroke="#63b8ff" points="1921.87,-22.94 1911.67,-20.07 1917.85,-28.67 1921.87,-22.94"/>
</g>
<!-- Node25 -->
<g id="node25" class="node">
<title>Node25</title>
<g id="a_node25"><a xlink:href="Vectors_8hpp.html" target="_top" xlink:title=" ">
<polygon fill="white" stroke="#666666" points="1936,-74 1844,-74 1844,-55 1936,-55 1936,-74"/>
<text text-anchor="middle" x="1890" y="-62" font-family="Helvetica,sans-Serif" font-size="10.00">Utils/Vectors.hpp</text>
</a>
</g>
</g>
<!-- Node21&#45;&gt;Node25 -->
<g id="edge30" class="edge">
<title>Node21&#45;&gt;Node25</title>
<path fill="none" stroke="#63b8ff" d="M1920.89,-109.75C1915.99,-102.73 1908.95,-92.64 1902.83,-83.87"/>
<polygon fill="#63b8ff" stroke="#63b8ff" points="1905.7,-81.88 1897.11,-75.68 1899.96,-85.89 1905.7,-81.88"/>
</g>
<!-- Node25&#45;&gt;Node8 -->
<g id="edge31" class="edge">
<title>Node25&#45;&gt;Node8</title>
<path fill="none" stroke="#63b8ff" d="M1843.88,-62.01C1604.4,-54.29 505.28,-18.86 284.64,-11.75"/>
<polygon fill="#63b8ff" stroke="#63b8ff" points="284.98,-8.25 274.87,-11.43 284.76,-15.25 284.98,-8.25"/>
</g>
<!-- Node25&#45;&gt;Node13 -->
<g id="edge34" class="edge">
<title>Node25&#45;&gt;Node13</title>
<path fill="none" stroke="#63b8ff" d="M1843.59,-56.57C1771.02,-45.74 1632.41,-25.04 1568.63,-15.52"/>
<polygon fill="#63b8ff" stroke="#63b8ff" points="1569.17,-12.06 1558.77,-14.05 1568.14,-18.99 1569.17,-12.06"/>
</g>
<!-- Node25&#45;&gt;Node22 -->
<g id="edge32" class="edge">
<title>Node25&#45;&gt;Node22</title>
<path fill="none" stroke="#63b8ff" d="M1902.89,-54.51C1914.1,-46.7 1930.57,-35.21 1943.88,-25.93"/>
<polygon fill="#63b8ff" stroke="#63b8ff" points="1945.86,-28.81 1952.06,-20.22 1941.85,-23.07 1945.86,-28.81"/>
</g>
<!-- Node25&#45;&gt;Node23 -->
<g id="edge33" class="edge">
<title>Node25&#45;&gt;Node23</title>
<path fill="none" stroke="#63b8ff" d="M1915.45,-54.51C1941.6,-45.27 1982.3,-30.89 2010.01,-21.1"/>
<polygon fill="#63b8ff" stroke="#63b8ff" points="2010.95,-24.47 2019.22,-17.84 2008.62,-17.87 2010.95,-24.47"/>
</g>
<!-- Node25&#45;&gt;Node24 -->
<g id="edge35" class="edge">
<title>Node25&#45;&gt;Node24</title>
<path fill="none" stroke="#63b8ff" d="M1890.83,-54.75C1891.44,-48.27 1892.3,-39.16 1893.08,-30.9"/>
<polygon fill="#63b8ff" stroke="#63b8ff" points="1896.56,-31.23 1894.01,-20.95 1889.59,-30.58 1896.56,-31.23"/>
</g>
<!-- Node26&#45;&gt;Node2 -->
<g id="edge37" class="edge">
<title>Node26&#45;&gt;Node2</title>
<path fill="none" stroke="#63b8ff" d="M1412.16,-184.45C1370.51,-193.5 1303.2,-207.52 1254.5,-217.3"/>
<polygon fill="#63b8ff" stroke="#63b8ff" points="1254.08,-213.82 1244.96,-219.21 1255.45,-220.68 1254.08,-213.82"/>
</g>
<!-- Node26&#45;&gt;Node20 -->
<g id="edge38" class="edge">
<title>Node26&#45;&gt;Node20</title>
<path fill="none" stroke="#63b8ff" d="M1488.34,-164.51C1526.52,-155.55 1585.29,-141.77 1626.88,-132.02"/>
<polygon fill="#63b8ff" stroke="#63b8ff" points="1627.44,-135.48 1636.38,-129.79 1625.84,-128.67 1627.44,-135.48"/>
</g>
<!-- Node27 -->
<g id="node27" class="node">
<title>Node27</title>
<g id="a_node27"><a xlink:title=" ">
<polygon fill="#e0e0e0" stroke="#999999" points="1815,-129 1769,-129 1769,-110 1815,-110 1815,-129"/>
<text text-anchor="middle" x="1792" y="-117" font-family="Helvetica,sans-Serif" font-size="10.00">math.h</text>
</a>
</g>
</g>
<!-- Node26&#45;&gt;Node27 -->
<g id="edge39" class="edge">
<title>Node26&#45;&gt;Node27</title>
<path fill="none" stroke="#63b8ff" d="M1511.44,-165.55C1583.05,-156.14 1698.23,-140.53 1757.56,-129.24"/>
<polygon fill="#63b8ff" stroke="#63b8ff" points="1758.04,-132.71 1767.17,-127.33 1756.68,-125.84 1758.04,-132.71"/>
</g>
<!-- Node28&#45;&gt;Node2 -->
<g id="edge41" class="edge">
<title>Node28&#45;&gt;Node2</title>
<path fill="none" stroke="#63b8ff" d="M1537.6,-184.46C1460.1,-194.86 1330.09,-211.81 1254.43,-221.37"/>
<polygon fill="#63b8ff" stroke="#63b8ff" points="1254.21,-217.87 1244.72,-222.59 1255.08,-224.81 1254.21,-217.87"/>
</g>
<!-- Node29&#45;&gt;Node2 -->
<g id="edge43" class="edge">
<title>Node29&#45;&gt;Node2</title>
<path fill="none" stroke="#63b8ff" d="M289.87,-281.05C443.71,-272.46 958.88,-243.69 1135.21,-233.84"/>
<polygon fill="#63b8ff" stroke="#63b8ff" points="1135.28,-237.34 1145.06,-233.29 1134.89,-230.35 1135.28,-237.34"/>
</g>
<!-- Node29&#45;&gt;Node8 -->
<g id="edge45" class="edge">
<title>Node29&#45;&gt;Node8</title>
<path fill="none" stroke="#63b8ff" d="M202.02,-283.2C131.26,-280.15 0,-262.72 0,-175.5 0,-175.5 0,-175.5 0,-118.5 0,-28.99 138.23,-12.99 207.45,-10.59"/>
<polygon fill="#63b8ff" stroke="#63b8ff" points="207.31,-14.09 217.22,-10.33 207.13,-7.09 207.31,-14.09"/>
</g>
<!-- Node29&#45;&gt;Node9 -->
<g id="edge48" class="edge">
<title>Node29&#45;&gt;Node9</title>
<path fill="none" stroke="#63b8ff" d="M240.43,-274.79C231.29,-261.18 211.83,-234.89 189,-220 172.41,-209.18 123.71,-194.57 89.35,-185.09"/>
<polygon fill="#63b8ff" stroke="#63b8ff" points="90.34,-181.74 79.77,-182.49 88.5,-188.49 90.34,-181.74"/>
</g>
<!-- Node29&#45;&gt;Node10 -->
<g id="edge46" class="edge">
<title>Node29&#45;&gt;Node10</title>
<path fill="none" stroke="#63b8ff" d="M289.72,-282.86C429.88,-280.54 880.56,-270.91 1252,-239 1440.31,-222.82 1491.31,-222.59 1679.97,-184.13"/>
<polygon fill="#63b8ff" stroke="#63b8ff" points="1680.54,-187.59 1689.63,-182.15 1679.14,-180.73 1680.54,-187.59"/>
</g>
<!-- Node29&#45;&gt;Node13 -->
<g id="edge47" class="edge">
<title>Node29&#45;&gt;Node13</title>
<path fill="none" stroke="#63b8ff" d="M258.21,-274.62C279.69,-257.86 322,-219.29 322,-175.5 322,-175.5 322,-175.5 322,-118.5 322,-57.57 1305.79,-18.79 1501.41,-11.68"/>
<polygon fill="#63b8ff" stroke="#63b8ff" points="1501.27,-15.19 1511.14,-11.33 1501.02,-8.2 1501.27,-15.19"/>
</g>
<!-- Node29&#45;&gt;Node14 -->
<g id="edge44" class="edge">
<title>Node29&#45;&gt;Node14</title>
<path fill="none" stroke="#63b8ff" d="M244.81,-274.58C242.59,-261.16 236.64,-235.68 222,-220 206.82,-203.73 184.53,-192.94 165.15,-186.06"/>
<polygon fill="#63b8ff" stroke="#63b8ff" points="166.48,-182.81 155.88,-183.01 164.29,-189.46 166.48,-182.81"/>
</g>
<!-- Node30 -->
<g id="node30" class="node">
<title>Node30</title>
<g id="a_node30"><a xlink:title=" ">
<polygon fill="#e0e0e0" stroke="#999999" points="121.5,-239 76.5,-239 76.5,-220 121.5,-220 121.5,-239"/>
<text text-anchor="middle" x="99" y="-227" font-family="Helvetica,sans-Serif" font-size="10.00">iosfwd</text>
</a>
</g>
</g>
<!-- Node29&#45;&gt;Node30 -->
<g id="edge49" class="edge">
<title>Node29&#45;&gt;Node30</title>
<path fill="none" stroke="#63b8ff" d="M221.06,-274.51C196.59,-265.68 159.1,-252.17 132.13,-242.44"/>
<polygon fill="#63b8ff" stroke="#63b8ff" points="133.66,-239.28 123.07,-239.18 131.29,-245.86 133.66,-239.28"/>
</g>
<!-- Node31 -->
<g id="node31" class="node">
<title>Node31</title>
<g id="a_node31"><a xlink:title=" ">
<polygon fill="#e0e0e0" stroke="#999999" points="180,-239 140,-239 140,-220 180,-220 180,-239"/>
<text text-anchor="middle" x="160" y="-227" font-family="Helvetica,sans-Serif" font-size="10.00">regex</text>
</a>
</g>
</g>
<!-- Node29&#45;&gt;Node31 -->
<g id="edge50" class="edge">
<title>Node29&#45;&gt;Node31</title>
<path fill="none" stroke="#63b8ff" d="M231.41,-274.51C218.48,-266.54 199.36,-254.75 184.15,-245.38"/>
<polygon fill="#63b8ff" stroke="#63b8ff" points="186.01,-242.42 175.66,-240.15 182.34,-248.38 186.01,-242.42"/>
</g>
<!-- Node32&#45;&gt;Node18 -->
<g id="edge81" class="edge">
<title>Node32&#45;&gt;Node18</title>
<path fill="none" stroke="#63b8ff" d="M1558.7,-494.75C1546.53,-476.98 1521,-434.98 1521,-395.5 1521,-395.5 1521,-395.5 1521,-338.5 1521,-219.02 1685.9,-290.02 1741,-184 1782.93,-103.32 1734.79,-162 1594.17,-129.36"/>
<polygon fill="#63b8ff" stroke="#63b8ff" points="1595.01,-125.96 1584.46,-126.98 1593.34,-132.76 1595.01,-125.96"/>
</g>
<!-- Node33 -->
<g id="node33" class="node">
<title>Node33</title>
<g id="a_node33"><a xlink:href="States_8hpp.html" target="_top" xlink:title=" ">
<polygon fill="white" stroke="#666666" points="1668.5,-459 1549.5,-459 1549.5,-440 1668.5,-440 1668.5,-459"/>
<text text-anchor="middle" x="1609" y="-447" font-family="Helvetica,sans-Serif" font-size="10.00">gameStates/States.hpp</text>
</a>
</g>
</g>
<!-- Node32&#45;&gt;Node33 -->
<g id="edge52" class="edge">
<title>Node32&#45;&gt;Node33</title>
<path fill="none" stroke="#63b8ff" d="M1572.27,-494.75C1578.28,-487.5 1587.01,-476.98 1594.46,-468.02"/>
<polygon fill="#63b8ff" stroke="#63b8ff" points="1596.92,-470.54 1600.61,-460.61 1591.53,-466.07 1596.92,-470.54"/>
</g>
<!-- Node34 -->
<g id="node34" class="node">
<title>Node34</title>
<g id="a_node34"><a xlink:href="IGameState_8hpp.html" target="_top" xlink:title=" ">
<polygon fill="white" stroke="#666666" points="1694.5,-349 1607.5,-349 1607.5,-330 1694.5,-330 1694.5,-349"/>
<text text-anchor="middle" x="1651" y="-337" font-family="Helvetica,sans-Serif" font-size="10.00">IGameState.hpp</text>
</a>
</g>
</g>
<!-- Node33&#45;&gt;Node34 -->
<g id="edge53" class="edge">
<title>Node33&#45;&gt;Node34</title>
<path fill="none" stroke="#63b8ff" d="M1613.79,-439.82C1618.55,-430.98 1625.86,-416.79 1631,-404 1636.81,-389.53 1642.05,-372.68 1645.71,-359.98"/>
<polygon fill="#63b8ff" stroke="#63b8ff" points="1648.97,-361.31 1648.29,-350.73 1642.23,-359.42 1648.97,-361.31"/>
</g>
<!-- Node38 -->
<g id="node38" class="node">
<title>Node38</title>
<g id="a_node38"><a xlink:href="SMenu_8hpp.html" target="_top" xlink:title=" ">
<polygon fill="white" stroke="#666666" points="1622.5,-404 1557.5,-404 1557.5,-385 1622.5,-385 1622.5,-404"/>
<text text-anchor="middle" x="1590" y="-392" font-family="Helvetica,sans-Serif" font-size="10.00">SMenu.hpp</text>
</a>
</g>
</g>
<!-- Node33&#45;&gt;Node38 -->
<g id="edge67" class="edge">
<title>Node33&#45;&gt;Node38</title>
<path fill="none" stroke="#63b8ff" d="M1605.86,-439.75C1603.46,-433.04 1600.04,-423.52 1597,-415.02"/>
<polygon fill="#63b8ff" stroke="#63b8ff" points="1600.39,-414.1 1593.72,-405.87 1593.8,-416.46 1600.39,-414.1"/>
</g>
<!-- Node41 -->
<g id="node41" class="node">
<title>Node41</title>
<g id="a_node41"><a xlink:href="SGamePlay_8hpp.html" target="_top" xlink:title=" ">
<polygon fill="white" stroke="#666666" points="1842,-404 1756,-404 1756,-385 1842,-385 1842,-404"/>
<text text-anchor="middle" x="1799" y="-392" font-family="Helvetica,sans-Serif" font-size="10.00">SGamePlay.hpp</text>
</a>
</g>
</g>
<!-- Node33&#45;&gt;Node41 -->
<g id="edge72" class="edge">
<title>Node33&#45;&gt;Node41</title>
<path fill="none" stroke="#63b8ff" d="M1641.23,-439.51C1672.85,-430.69 1721.27,-417.18 1756.13,-407.46"/>
<polygon fill="#63b8ff" stroke="#63b8ff" points="1756.78,-410.91 1765.47,-404.85 1754.9,-404.17 1756.78,-410.91"/>
</g>
<!-- Node34&#45;&gt;Node19 -->
<g id="edge54" class="edge">
<title>Node34&#45;&gt;Node19</title>
<path fill="none" stroke="#63b8ff" d="M1664.58,-329.5C1704.81,-302.84 1823.75,-224.03 1874.09,-190.68"/>
<polygon fill="#63b8ff" stroke="#63b8ff" points="1875.8,-193.75 1882.2,-185.3 1871.93,-187.91 1875.8,-193.75"/>
</g>
<!-- Node34&#45;&gt;Node28 -->
<g id="edge60" class="edge">
<title>Node34&#45;&gt;Node28</title>
<path fill="none" stroke="#63b8ff" d="M1648.31,-329.74C1640.55,-304.42 1617.94,-230.72 1607.03,-195.16"/>
<polygon fill="#63b8ff" stroke="#63b8ff" points="1610.42,-194.29 1604.15,-185.75 1603.73,-196.34 1610.42,-194.29"/>
</g>
<!-- Node34&#45;&gt;Node32 -->
<g id="edge59" class="edge">
<title>Node34&#45;&gt;Node32</title>
<path fill="none" stroke="#63b8ff" d="M1657.17,-349.39C1670.89,-370.37 1700.89,-423.8 1677,-459 1666.64,-474.27 1650.12,-484.3 1632.92,-490.89"/>
<polygon fill="#63b8ff" stroke="#63b8ff" points="1631.94,-487.52 1623.61,-494.07 1634.2,-494.15 1631.94,-487.52"/>
</g>
<!-- Node35 -->
<g id="node35" class="node">
<title>Node35</title>
<g id="a_node35"><a xlink:href="String_8hpp.html" target="_top" xlink:title=" ">
<polygon fill="white" stroke="#666666" points="293.5,-184 210.5,-184 210.5,-165 293.5,-165 293.5,-184"/>
<text text-anchor="middle" x="252" y="-172" font-family="Helvetica,sans-Serif" font-size="10.00">Utils/String.hpp</text>
</a>
</g>
</g>
<!-- Node34&#45;&gt;Node35 -->
<g id="edge55" class="edge">
<title>Node34&#45;&gt;Node35</title>
<path fill="none" stroke="#63b8ff" d="M1621.13,-329.54C1573.39,-315.59 1476.74,-288.84 1393,-275 1161.49,-236.73 574.69,-205.27 341,-184 329.29,-182.93 316.71,-181.75 304.8,-180.62"/>
<polygon fill="#63b8ff" stroke="#63b8ff" points="305.44,-177.17 295.16,-179.7 304.78,-184.13 305.44,-177.17"/>
</g>
<!-- Node36 -->
<g id="node36" class="node">
<title>Node36</title>
<g id="a_node36"><a xlink:href="Centipede_8hpp.html" target="_top" xlink:title=" ">
<polygon fill="white" stroke="#666666" points="2061,-294 1925,-294 1925,-275 2061,-275 2061,-294"/>
<text text-anchor="middle" x="1993" y="-282" font-family="Helvetica,sans-Serif" font-size="10.00">Components/Centipede.hpp</text>
</a>
</g>
</g>
<!-- Node34&#45;&gt;Node36 -->
<g id="edge61" class="edge">
<title>Node34&#45;&gt;Node36</title>
<path fill="none" stroke="#63b8ff" d="M1694.66,-331.73C1752.57,-322.76 1855.44,-306.82 1923.94,-296.2"/>
<polygon fill="#63b8ff" stroke="#63b8ff" points="1924.2,-299.7 1933.55,-294.71 1923.13,-292.79 1924.2,-299.7"/>
</g>
<!-- Node35&#45;&gt;Node8 -->
<g id="edge56" class="edge">
<title>Node35&#45;&gt;Node8</title>
<path fill="none" stroke="#63b8ff" d="M251.68,-164.74C250.75,-139.53 248.06,-66.36 246.74,-30.62"/>
<polygon fill="#63b8ff" stroke="#63b8ff" points="250.25,-30.68 246.38,-20.82 243.25,-30.94 250.25,-30.68"/>
</g>
<!-- Node35&#45;&gt;Node13 -->
<g id="edge58" class="edge">
<title>Node35&#45;&gt;Node13</title>
<path fill="none" stroke="#63b8ff" d="M254.84,-164.67C263.15,-139.47 288.05,-68.15 308,-55 359.18,-21.26 1309.36,-12.22 1501.35,-10.74"/>
<polygon fill="#63b8ff" stroke="#63b8ff" points="1501.15,-14.24 1511.13,-10.66 1501.1,-7.24 1501.15,-14.24"/>
</g>
<!-- Node35&#45;&gt;Node17 -->
<g id="edge57" class="edge">
<title>Node35&#45;&gt;Node17</title>
<path fill="none" stroke="#63b8ff" d="M293.72,-169.52C402.43,-159.13 692.16,-131.47 780.84,-123"/>
<polygon fill="#63b8ff" stroke="#63b8ff" points="781.07,-126.49 790.69,-122.06 780.41,-119.52 781.07,-126.49"/>
</g>
<!-- Node36&#45;&gt;Node2 -->
<g id="edge62" class="edge">
<title>Node36&#45;&gt;Node2</title>
<path fill="none" stroke="#63b8ff" d="M1924.62,-278.96C1770.81,-268.74 1399.71,-244.1 1254.59,-234.46"/>
<polygon fill="#63b8ff" stroke="#63b8ff" points="1255.02,-230.98 1244.81,-233.81 1254.56,-237.96 1255.02,-230.98"/>
</g>
<!-- Node36&#45;&gt;Node13 -->
<g id="edge65" class="edge">
<title>Node36&#45;&gt;Node13</title>
<path fill="none" stroke="#63b8ff" d="M2004.07,-274.61C2013.26,-266.46 2025.66,-253.49 2031,-239 2037.03,-222.66 2041.02,-180.27 2028,-165 1979.03,-107.55 1933.21,-154.08 1862,-129 1844.19,-122.73 1841.41,-117.31 1824,-110 1733.33,-71.92 1622.49,-36.83 1568.19,-20.36"/>
<polygon fill="#63b8ff" stroke="#63b8ff" points="1569.53,-17.1 1558.94,-17.57 1567.5,-23.81 1569.53,-17.1"/>
</g>
<!-- Node36&#45;&gt;Node20 -->
<g id="edge63" class="edge">
<title>Node36&#45;&gt;Node20</title>
<path fill="none" stroke="#63b8ff" d="M1994.88,-274.54C1998.95,-252.46 2005.91,-195.05 1976,-165 1968.42,-157.39 1848.62,-141.4 1762.74,-130.81"/>
<polygon fill="#63b8ff" stroke="#63b8ff" points="1763.24,-127.34 1752.89,-129.6 1762.39,-134.29 1763.24,-127.34"/>
</g>
<!-- Node36&#45;&gt;Node27 -->
<g id="edge64" class="edge">
<title>Node36&#45;&gt;Node27</title>
<path fill="none" stroke="#63b8ff" d="M1998.21,-274.56C2010,-253.01 2035.72,-197.59 2009,-165 1957.28,-101.91 1908.76,-146.13 1829,-129 1828.18,-128.82 1827.35,-128.64 1826.51,-128.46"/>
<polygon fill="#63b8ff" stroke="#63b8ff" points="1827.47,-125.09 1816.94,-126.33 1825.94,-131.92 1827.47,-125.09"/>
</g>
<!-- Node37 -->
<g id="node37" class="node">
<title>Node37</title>
<g id="a_node37"><a xlink:title=" ">
<polygon fill="#e0e0e0" stroke="#999999" points="1967,-239 1923,-239 1923,-220 1967,-220 1967,-239"/>
<text text-anchor="middle" x="1945" y="-227" font-family="Helvetica,sans-Serif" font-size="10.00">cmath</text>
</a>
</g>
</g>
<!-- Node36&#45;&gt;Node37 -->
<g id="edge66" class="edge">
<title>Node36&#45;&gt;Node37</title>
<path fill="none" stroke="#63b8ff" d="M1985.07,-274.75C1978.44,-267.43 1968.78,-256.76 1960.61,-247.74"/>
<polygon fill="#63b8ff" stroke="#63b8ff" points="1963.42,-245.63 1954.11,-240.56 1958.23,-250.33 1963.42,-245.63"/>
</g>
<!-- Node38&#45;&gt;Node34 -->
<g id="edge68" class="edge">
<title>Node38&#45;&gt;Node34</title>
<path fill="none" stroke="#63b8ff" d="M1600.35,-384.51C1609.08,-376.93 1621.79,-365.88 1632.3,-356.75"/>
<polygon fill="#63b8ff" stroke="#63b8ff" points="1634.41,-359.55 1639.66,-350.35 1629.82,-354.27 1634.41,-359.55"/>
</g>
<!-- Node39 -->
<g id="node39" class="node">
<title>Node39</title>
<g id="a_node39"><a xlink:href="Bouton_8hpp.html" target="_top" xlink:title=" ">
<polygon fill="white" stroke="#666666" points="1416.5,-349 1293.5,-349 1293.5,-330 1416.5,-330 1416.5,-349"/>
<text text-anchor="middle" x="1355" y="-337" font-family="Helvetica,sans-Serif" font-size="10.00">Components/Bouton.hpp</text>
</a>
</g>
</g>
<!-- Node38&#45;&gt;Node39 -->
<g id="edge69" class="edge">
<title>Node38&#45;&gt;Node39</title>
<path fill="none" stroke="#63b8ff" d="M1557.32,-386.13C1518.14,-377.29 1452.02,-362.38 1406.07,-352.02"/>
<polygon fill="#63b8ff" stroke="#63b8ff" points="1406.86,-348.61 1396.33,-349.82 1405.32,-355.44 1406.86,-348.61"/>
</g>
<!-- Node39&#45;&gt;Node2 -->
<g id="edge70" class="edge">
<title>Node39&#45;&gt;Node2</title>
<path fill="none" stroke="#63b8ff" d="M1341.91,-329.66C1314.6,-311.23 1251.3,-268.5 1217.39,-245.62"/>
<polygon fill="#63b8ff" stroke="#63b8ff" points="1219.78,-243 1209.53,-240.31 1215.86,-248.8 1219.78,-243"/>
</g>
<!-- Node40 -->
<g id="node40" class="node">
<title>Node40</title>
<g id="a_node40"><a xlink:title=" ">
<polygon fill="#e0e0e0" stroke="#999999" points="1384.5,-294 1325.5,-294 1325.5,-275 1384.5,-275 1384.5,-294"/>
<text text-anchor="middle" x="1355" y="-282" font-family="Helvetica,sans-Serif" font-size="10.00">functional</text>
</a>
</g>
</g>
<!-- Node39&#45;&gt;Node40 -->
<g id="edge71" class="edge">
<title>Node39&#45;&gt;Node40</title>
<path fill="none" stroke="#63b8ff" d="M1355,-329.75C1355,-323.27 1355,-314.16 1355,-305.9"/>
<polygon fill="#63b8ff" stroke="#63b8ff" points="1358.5,-305.96 1355,-295.96 1351.5,-305.96 1358.5,-305.96"/>
</g>
<!-- Node41&#45;&gt;Node10 -->
<g id="edge76" class="edge">
<title>Node41&#45;&gt;Node10</title>
<path fill="none" stroke="#63b8ff" d="M1795.48,-384.68C1782.58,-352.36 1737.7,-239.9 1719.63,-194.61"/>
<polygon fill="#63b8ff" stroke="#63b8ff" points="1722.99,-193.58 1716.03,-185.59 1716.48,-196.18 1722.99,-193.58"/>
</g>
<!-- Node41&#45;&gt;Node18 -->
<g id="edge74" class="edge">
<title>Node41&#45;&gt;Node18</title>
<path fill="none" stroke="#63b8ff" d="M1799,-384.54C1799,-366.03 1799,-322.25 1799,-285.5 1799,-285.5 1799,-285.5 1799,-228.5 1799,-198.33 1798.04,-184.48 1775,-165 1714.36,-113.73 1676.01,-145.07 1594.01,-129.12"/>
<polygon fill="#63b8ff" stroke="#63b8ff" points="1594.96,-125.74 1584.44,-127.06 1593.48,-132.59 1594.96,-125.74"/>
</g>
<!-- Node41&#45;&gt;Node23 -->
<g id="edge75" class="edge">
<title>Node41&#45;&gt;Node23</title>
<path fill="none" stroke="#63b8ff" d="M1842.43,-387.64C1927.75,-374.9 2109,-341.28 2109,-285.5 2109,-285.5 2109,-285.5 2109,-118.5 2109,-81.29 2079.55,-46.6 2059.13,-27.02"/>
<polygon fill="#63b8ff" stroke="#63b8ff" points="2061.63,-24.57 2051.9,-20.39 2056.9,-29.73 2061.63,-24.57"/>
</g>
<!-- Node41&#45;&gt;Node34 -->
<g id="edge73" class="edge">
<title>Node41&#45;&gt;Node34</title>
<path fill="none" stroke="#63b8ff" d="M1773.89,-384.51C1749.83,-375.89 1713.28,-362.8 1686.29,-353.14"/>
<polygon fill="#63b8ff" stroke="#63b8ff" points="1687.75,-349.94 1677.16,-349.87 1685.39,-356.53 1687.75,-349.94"/>
</g>
<!-- Node42 -->
<g id="node42" class="node">
<title>Node42</title>
<g id="a_node42"><a xlink:title=" ">
<polygon fill="#e0e0e0" stroke="#999999" points="2183,-349 2137,-349 2137,-330 2183,-330 2183,-349"/>
<text text-anchor="middle" x="2160" y="-337" font-family="Helvetica,sans-Serif" font-size="10.00">cstring</text>
</a>
</g>
</g>
<!-- Node41&#45;&gt;Node42 -->
<g id="edge77" class="edge">
<title>Node41&#45;&gt;Node42</title>
<path fill="none" stroke="#63b8ff" d="M1842.43,-388.78C1904.79,-381.73 2023.17,-367.28 2123,-349 2123.83,-348.85 2124.66,-348.69 2125.51,-348.53"/>
<polygon fill="#63b8ff" stroke="#63b8ff" points="2126.02,-352 2135.1,-346.52 2124.59,-345.14 2126.02,-352"/>
</g>
<!-- Node43 -->
<g id="node43" class="node">
<title>Node43</title>
<g id="a_node43"><a xlink:href="Global_8hpp.html" target="_top" xlink:title=" ">
<polygon fill="white" stroke="#666666" points="2263,-349 2201,-349 2201,-330 2263,-330 2263,-349"/>
<text text-anchor="middle" x="2232" y="-337" font-family="Helvetica,sans-Serif" font-size="10.00">Global.hpp</text>
</a>
</g>
</g>
<!-- Node41&#45;&gt;Node43 -->
<g id="edge78" class="edge">
<title>Node41&#45;&gt;Node43</title>
<path fill="none" stroke="#63b8ff" d="M1842.22,-389.98C1912.8,-383.94 2057.41,-370.31 2189.5,-349.26"/>
<polygon fill="#63b8ff" stroke="#63b8ff" points="2189.8,-352.76 2199.12,-347.71 2188.69,-345.85 2189.8,-352.76"/>
</g>
<!-- Node44 -->
<g id="node44" class="node">
<title>Node44</title>
<g id="a_node44"><a xlink:title=" ">
<polygon fill="#e0e0e0" stroke="#999999" points="2231,-294 2169,-294 2169,-275 2231,-275 2231,-294"/>
<text text-anchor="middle" x="2200" y="-282" font-family="Helvetica,sans-Serif" font-size="10.00">Skaldi.hpp</text>
</a>
</g>
</g>
<!-- Node43&#45;&gt;Node44 -->
<g id="edge79" class="edge">
<title>Node43&#45;&gt;Node44</title>
<path fill="none" stroke="#63b8ff" d="M2226.72,-329.75C2222.53,-322.81 2216.52,-312.86 2211.27,-304.16"/>
<polygon fill="#63b8ff" stroke="#63b8ff" points="2214.35,-302.49 2206.18,-295.74 2208.35,-306.11 2214.35,-302.49"/>
</g>
<!-- Node45 -->
<g id="node45" class="node">
<title>Node45</title>
<g id="a_node45"><a xlink:title=" ">
<polygon fill="#e0e0e0" stroke="#999999" points="2300.5,-294 2249.5,-294 2249.5,-275 2300.5,-275 2300.5,-294"/>
<text text-anchor="middle" x="2275" y="-282" font-family="Helvetica,sans-Serif" font-size="10.00">memory</text>
</a>
</g>
</g>
<!-- Node43&#45;&gt;Node45 -->
<g id="edge80" class="edge">
<title>Node43&#45;&gt;Node45</title>
<path fill="none" stroke="#63b8ff" d="M2239.1,-329.75C2244.92,-322.58 2253.33,-312.2 2260.56,-303.3"/>
<polygon fill="#63b8ff" stroke="#63b8ff" points="2263.21,-305.59 2266.79,-295.62 2257.77,-301.18 2263.21,-305.59"/>
</g>
</g>
</svg>
        <g id="navigator" transform="translate(0 0)" fill="#404254">
                <rect fill="#f2f5e9" fill-opacity="0.5" stroke="#606060" stroke-width=".5" x="0" y="0" width="60" height="60"/>
                <use id="zoomplus" xlink:href="#zoomPlus" x="17" y="9" onmousedown="handleZoom(evt,'in')"/>
                <use id="zoomminus" xlink:href="#zoomMin" x="42" y="9" onmousedown="handleZoom(evt,'out')"/>
                <use id="reset" xlink:href="#resetDef" x="30" y="36" onmousedown="handleReset()"/>
                <g id="arrowUp" xlink:href="#dirArrow" transform="translate(30 24)" onmousedown="handlePan(0,-1)">
                  <use xlink:href="#rim" fill="#404040">
                        <set attributeName="fill" to="#808080" begin="arrowUp.mouseover" end="arrowUp.mouseout"/>
                  </use>
                  <path fill="none" stroke="white" stroke-width="1.5" d="M0,-3.0v7 M-2.5,-0.5L0,-3.0L2.5,-0.5"/>
                </g>
                <g id="arrowRight" xlink:href="#dirArrow" transform="rotate(90) translate(36 -43)" onmousedown="handlePan(1,0)">
                  <use xlink:href="#rim" fill="#404040">
                        <set attributeName="fill" to="#808080" begin="arrowRight.mouseover" end="arrowRight.mouseout"/>
                  </use>
                  <path fill="none" stroke="white" stroke-width="1.5" d="M0,-3.0v7 M-2.5,-0.5L0,-3.0L2.5,-0.5"/>
                </g>
                <g id="arrowDown" xlink:href="#dirArrow" transform="rotate(180) translate(-30 -48)" onmousedown="handlePan(0,1)">
                  <use xlink:href="#rim" fill="#404040">
                        <set attributeName="fill" to="#808080" begin="arrowDown.mouseover" end="arrowDown.mouseout"/>
                  </use>
                  <path fill="none" stroke="white" stroke-width="1.5" d="M0,-3.0v7 M-2.5,-0.5L0,-3.0L2.5,-0.5"/>
                </g>
                <g id="arrowLeft" xlink:href="#dirArrow" transform="rotate(270) translate(-36 17)" onmousedown="handlePan(-1,0)">
                  <use xlink:href="#rim" fill="#404040">
                        <set attributeName="fill" to="#808080" begin="arrowLeft.mouseover" end="arrowLeft.mouseout"/>
                  </use>
                  <path fill="none" stroke="white" stroke-width="1.5" d="M0,-3.0v7 M-2.5,-0.5L0,-3.0L2.5,-0.5"/>
                </g>
        </g>
        <svg viewBox="0 0 15 15" width="100%" height="30px" preserveAspectRatio="xMaxYMin meet">
         <g id="arrow_out" transform="scale(0.3 0.3)">
          <a xlink:href="client_2src_2main_8cpp__incl_org.svg" target="_base">
           <rect id="button" ry="5" rx="5" y="6" x="6" height="38" width="38"
                fill="#f2f5e9" fill-opacity="0.5" stroke="#606060" stroke-width="1.0"/>
           <path id="arrow"
             d="M 11.500037,31.436501 C 11.940474,20.09759 22.043105,11.32322 32.158766,21.979434 L 37.068811,17.246167 C 37.068811,17.246167 37.088388,32 37.088388,32 L 22.160133,31.978069 C 22.160133,31.978069 26.997745,27.140456 26.997745,27.140456 C 18.528582,18.264221 13.291696,25.230495 11.500037,31.436501 z"
             style="fill:#404040;"/>
          </a>
         </g>
        </svg>
</svg>
