<?xml version="1.0" encoding="UTF-8" standalone="no"?>
<!DOCTYPE svg PUBLIC "-//W3C//DTD SVG 1.1//EN"
 "http://www.w3.org/Graphics/SVG/1.1/DTD/svg11.dtd">
<!-- Generated by graphviz version 7.0.5 (20221223.1930)
 -->
<!-- Title: /github/workspace/client/include/system/gameStates Pages: 1 -->
<svg width="217pt" height="125pt"
 viewBox="0.00 0.00 216.50 125.00" xmlns="http://www.w3.org/2000/svg" xmlns:xlink="http://www.w3.org/1999/xlink">
<g id="graph0" class="graph" transform="scale(1 1) rotate(0) translate(4 121)">
<title>/github/workspace/client/include/system/gameStates</title>
<g id="clust1" class="cluster">
<title>clusterdir_fd718e888ae0e1c236b0d805e059ea35</title>
<g id="a_clust1"><a xlink:href="dir_fd718e888ae0e1c236b0d805e059ea35.html" target="_top" xlink:title="system">
<polygon fill="#edf0f7" stroke="#7f7f7f" stroke-dasharray="5,2" points="8,-39 8,-109 181,-109 181,-39 8,-39"/>
<text text-anchor="middle" x="94.5" y="-97" font-family="Helvetica,sans-Serif" font-size="10.00">system</text>
</a>
</g>
</g>
<g id="clust2" class="cluster">
<title>clusterdir_bcf74c9ac967782834be6a29191ee616</title>
<g id="a_clust2"><a xlink:href="dir_bcf74c9ac967782834be6a29191ee616.html" target="_top">
<polygon fill="#edf0f7" stroke="#404040" stroke-width="2" points="16,-47 16,-82 173,-82 173,-47 16,-47"/>
</a>
</g>
</g>
<!-- dir_bcf74c9ac967782834be6a29191ee616 -->
<g id="node1" class="node">
<title>dir_bcf74c9ac967782834be6a29191ee616</title>
<text text-anchor="middle" x="130" y="-62" font-family="Helvetica,sans-Serif" font-size="10.00">gameStates</text>
</g>
<!-- dir_4d1be4222857c78a884b513c6db75374 -->
<g id="node3" class="node">
<title>dir_4d1be4222857c78a884b513c6db75374</title>
<g id="a_node3"><a xlink:href="dir_4d1be4222857c78a884b513c6db75374.html" target="_top" xlink:title="Utils">
<polygon fill="#edf0f7" stroke="#7f7f7f" points="208.5,-19 171.5,-19 171.5,0 208.5,0 208.5,-19"/>
<text text-anchor="middle" x="190" y="-7" font-family="Helvetica,sans-Serif" font-size="10.00">Utils</text>
</a>
</g>
</g>
<!-- dir_bcf74c9ac967782834be6a29191ee616&#45;&gt;dir_4d1be4222857c78a884b513c6db75374 -->
<g id="edge1" class="edge">
<title>dir_bcf74c9ac967782834be6a29191ee616&#45;&gt;dir_4d1be4222857c78a884b513c6db75374</title>
<path fill="none" stroke="#63b8ff" d="M139.38,-55.22C147.94,-47.65 160.85,-36.25 171.49,-26.85"/>
<polygon fill="#63b8ff" stroke="#63b8ff" points="173.78,-29.5 178.96,-20.25 169.15,-24.25 173.78,-29.5"/>
<g id="a_edge1&#45;headlabel"><a xlink:href="dir_000006_000016.html" target="_top" xlink:title="1">
<text text-anchor="middle" x="174.1" y="-30.5" font-family="Helvetica,sans-Serif" font-size="10.00" fill="#63b8ff">1</text>
</a>
</g>
</g>
<!-- dir_8cd8a43aeb9f6152ea921227fa7c9e96 -->
<g id="node4" class="node">
<title>dir_8cd8a43aeb9f6152ea921227fa7c9e96</title>
<g id="a_node4"><a xlink:href="dir_8cd8a43aeb9f6152ea921227fa7c9e96.html" target="_top" xlink:title="Components">
<polygon fill="#edf0f7" stroke="#7f7f7f" points="86.5,-19 15.5,-19 15.5,0 86.5,0 86.5,-19"/>
<text text-anchor="middle" x="51" y="-7" font-family="Helvetica,sans-Serif" font-size="10.00">Components</text>
</a>
</g>
</g>
<!-- dir_bcf74c9ac967782834be6a29191ee616&#45;&gt;dir_8cd8a43aeb9f6152ea921227fa7c9e96 -->
<g id="edge2" class="edge">
<title>dir_bcf74c9ac967782834be6a29191ee616&#45;&gt;dir_8cd8a43aeb9f6152ea921227fa7c9e96</title>
<path fill="none" stroke="#63b8ff" d="M117.66,-55.22C105.88,-47.32 87.86,-35.23 73.53,-25.61"/>
<polygon fill="#63b8ff" stroke="#63b8ff" points="75.82,-22.94 65.57,-20.27 71.92,-28.75 75.82,-22.94"/>
<g id="a_edge2&#45;headlabel"><a xlink:href="dir_000006_000002.html" target="_top" xlink:title="4">
<text text-anchor="middle" x="79.13" y="-19.24" font-family="Helvetica,sans-Serif" font-size="10.00" fill="#63b8ff">4</text>
</a>
</g>
</g>
<!-- dir_fb4a49b37bc8ee2e1a68a34a29066d17 -->
<g id="node5" class="node">
<title>dir_fb4a49b37bc8ee2e1a68a34a29066d17</title>
<g id="a_node5"><a xlink:href="dir_fb4a49b37bc8ee2e1a68a34a29066d17.html" target="_top" xlink:title="Entities">
<polygon fill="#edf0f7" stroke="#7f7f7f" points="153.5,-19 104.5,-19 104.5,0 153.5,0 153.5,-19"/>
<text text-anchor="middle" x="129" y="-7" font-family="Helvetica,sans-Serif" font-size="10.00">Entities</text>
</a>
</g>
</g>
<!-- dir_bcf74c9ac967782834be6a29191ee616&#45;&gt;dir_fb4a49b37bc8ee2e1a68a34a29066d17 -->
<g id="edge3" class="edge">
<title>dir_bcf74c9ac967782834be6a29191ee616&#45;&gt;dir_fb4a49b37bc8ee2e1a68a34a29066d17</title>
<path fill="none" stroke="#63b8ff" d="M129.84,-55.22C129.72,-48.65 129.54,-39.18 129.38,-30.64"/>
<polygon fill="#63b8ff" stroke="#63b8ff" points="132.88,-30.7 129.19,-20.77 125.88,-30.83 132.88,-30.7"/>
<g id="a_edge3&#45;headlabel"><a xlink:href="dir_000006_000004.html" target="_top" xlink:title="1">
<text text-anchor="middle" x="135.76" y="-30.22" font-family="Helvetica,sans-Serif" font-size="10.00" fill="#63b8ff">1</text>
</a>
</g>
</g>
<!-- dir_f9b0fff39c3490937c727f25c1d00380 -->
<g id="node2" class="node">
<title>dir_f9b0fff39c3490937c727f25c1d00380</title>
<g id="a_node2"><a xlink:href="dir_f9b0fff39c3490937c727f25c1d00380.html" target="_top" xlink:title="Example">
<polygon fill="#a2b4d6" stroke="#404040" points="77.5,-74 24.5,-74 24.5,-55 77.5,-55 77.5,-74"/>
<text text-anchor="middle" x="51" y="-62" font-family="Helvetica,sans-Serif" font-size="10.00">Example</text>
</a>
</g>
</g>
<!-- dir_f9b0fff39c3490937c727f25c1d00380&#45;&gt;dir_8cd8a43aeb9f6152ea921227fa7c9e96 -->
<g id="edge4" class="edge">
<title>dir_f9b0fff39c3490937c727f25c1d00380&#45;&gt;dir_8cd8a43aeb9f6152ea921227fa7c9e96</title>
<path fill="none" stroke="#63b8ff" d="M51,-54.75C51,-48.27 51,-39.16 51,-30.9"/>
<polygon fill="#63b8ff" stroke="#63b8ff" points="54.5,-30.96 51,-20.96 47.5,-30.96 54.5,-30.96"/>
<g id="a_edge4&#45;headlabel"><a xlink:href="dir_000005_000002.html" target="_top" xlink:title="1">
<text text-anchor="middle" x="57.34" y="-30.54" font-family="Helvetica,sans-Serif" font-size="10.00" fill="#63b8ff">1</text>
</a>
</g>
</g>
</g>
</svg>
