<?xml version="1.0" encoding="UTF-8" standalone="no"?>
<!DOCTYPE svg PUBLIC "-//W3C//DTD SVG 1.1//EN"
 "http://www.w3.org/Graphics/SVG/1.1/DTD/svg11.dtd">
<!-- Generated by graphviz version 7.0.5 (20221223.1930)
 -->
<!-- Title: /github/workspace/client/include/system Pages: 1 -->
<svg width="234pt" height="196pt"
 viewBox="0.00 0.00 234.00 196.00" xmlns="http://www.w3.org/2000/svg" xmlns:xlink="http://www.w3.org/1999/xlink">
<g id="graph0" class="graph" transform="scale(1 1) rotate(0) translate(4 192)">
<title>/github/workspace/client/include/system</title>
<g id="clust1" class="cluster">
<title>clusterdir_5c23080e296bbe846f4ed2d01d7b595d</title>
<g id="a_clust1"><a xlink:href="dir_5c23080e296bbe846f4ed2d01d7b595d.html" target="_top" xlink:title="include">
<polygon fill="#edf0f7" stroke="#7f7f7f" stroke-dasharray="5,2" points="8,-8 8,-180 218,-180 218,-8 8,-8"/>
<text text-anchor="middle" x="113" y="-168" font-family="Helvetica,sans-Serif" font-size="10.00">include</text>
</a>
</g>
</g>
<g id="clust2" class="cluster">
<title>clusterdir_fd718e888ae0e1c236b0d805e059ea35</title>
<g id="a_clust2"><a xlink:href="dir_fd718e888ae0e1c236b0d805e059ea35.html" target="_top">
<polygon fill="#edf0f7" stroke="#404040" stroke-width="2" points="64,-63 64,-153 150,-153 150,-63 64,-63"/>
</a>
</g>
</g>
<!-- dir_4d1be4222857c78a884b513c6db75374 -->
<g id="node1" class="node">
<title>dir_4d1be4222857c78a884b513c6db75374</title>
<g id="a_node1"><a xlink:href="dir_4d1be4222857c78a884b513c6db75374.html" target="_top" xlink:title="Utils">
<polygon fill="#a2b4d6" stroke="#404040" points="53.5,-35 16.5,-35 16.5,-16 53.5,-16 53.5,-35"/>
<text text-anchor="middle" x="35" y="-23" font-family="Helvetica,sans-Serif" font-size="10.00">Utils</text>
</a>
</g>
</g>
<!-- dir_8cd8a43aeb9f6152ea921227fa7c9e96 -->
<g id="node2" class="node">
<title>dir_8cd8a43aeb9f6152ea921227fa7c9e96</title>
<g id="a_node2"><a xlink:href="dir_8cd8a43aeb9f6152ea921227fa7c9e96.html" target="_top" xlink:title="Components">
<polygon fill="#a2b4d6" stroke="#404040" points="142.5,-35 71.5,-35 71.5,-16 142.5,-16 142.5,-35"/>
<text text-anchor="middle" x="107" y="-23" font-family="Helvetica,sans-Serif" font-size="10.00">Components</text>
</a>
</g>
</g>
<!-- dir_fb4a49b37bc8ee2e1a68a34a29066d17 -->
<g id="node3" class="node">
<title>dir_fb4a49b37bc8ee2e1a68a34a29066d17</title>
<g id="a_node3"><a xlink:href="dir_fb4a49b37bc8ee2e1a68a34a29066d17.html" target="_top" xlink:title="Entities">
<polygon fill="#a2b4d6" stroke="#404040" points="209.5,-35 160.5,-35 160.5,-16 209.5,-16 209.5,-35"/>
<text text-anchor="middle" x="185" y="-23" font-family="Helvetica,sans-Serif" font-size="10.00">Entities</text>
</a>
</g>
</g>
<!-- dir_fd718e888ae0e1c236b0d805e059ea35 -->
<g id="node4" class="node">
<title>dir_fd718e888ae0e1c236b0d805e059ea35</title>
<text text-anchor="middle" x="107" y="-133" font-family="Helvetica,sans-Serif" font-size="10.00">system</text>
</g>
<!-- dir_bcf74c9ac967782834be6a29191ee616 -->
<g id="node5" class="node">
<title>dir_bcf74c9ac967782834be6a29191ee616</title>
<g id="a_node5"><a xlink:href="dir_bcf74c9ac967782834be6a29191ee616.html" target="_top" xlink:title="gameStates">
<polygon fill="#a2b4d6" stroke="#404040" points="141.5,-90 72.5,-90 72.5,-71 141.5,-71 141.5,-90"/>
<text text-anchor="middle" x="107" y="-78" font-family="Helvetica,sans-Serif" font-size="10.00">gameStates</text>
</a>
</g>
</g>
<!-- dir_fd718e888ae0e1c236b0d805e059ea35&#45;&gt;dir_bcf74c9ac967782834be6a29191ee616 -->
<g id="edge1" class="edge">
<title>dir_fd718e888ae0e1c236b0d805e059ea35&#45;&gt;dir_bcf74c9ac967782834be6a29191ee616</title>
<path fill="none" stroke="#63b8ff" d="M107,-126.22C107,-119.65 107,-110.18 107,-101.64"/>
<polygon fill="#63b8ff" stroke="#63b8ff" points="110.5,-101.77 107,-91.77 103.5,-101.77 110.5,-101.77"/>
<g id="a_edge1&#45;headlabel"><a xlink:href="dir_000013_000006.html" target="_top" xlink:title="1">
<text text-anchor="middle" x="113.34" y="-101.35" font-family="Helvetica,sans-Serif" font-size="10.00" fill="#63b8ff">1</text>
</a>
</g>
</g>
<!-- dir_bcf74c9ac967782834be6a29191ee616&#45;&gt;dir_4d1be4222857c78a884b513c6db75374 -->
<g id="edge2" class="edge">
<title>dir_bcf74c9ac967782834be6a29191ee616&#45;&gt;dir_4d1be4222857c78a884b513c6db75374</title>
<path fill="none" stroke="#63b8ff" d="M94.79,-70.51C84.17,-62.7 68.56,-51.21 55.96,-41.93"/>
<polygon fill="#63b8ff" stroke="#63b8ff" points="58.38,-39.36 48.25,-36.26 54.23,-45 58.38,-39.36"/>
<g id="a_edge2&#45;headlabel"><a xlink:href="dir_000006_000016.html" target="_top" xlink:title="1">
<text text-anchor="middle" x="61.74" y="-35.81" font-family="Helvetica,sans-Serif" font-size="10.00" fill="#63b8ff">1</text>
</a>
</g>
</g>
<!-- dir_bcf74c9ac967782834be6a29191ee616&#45;&gt;dir_8cd8a43aeb9f6152ea921227fa7c9e96 -->
<g id="edge3" class="edge">
<title>dir_bcf74c9ac967782834be6a29191ee616&#45;&gt;dir_8cd8a43aeb9f6152ea921227fa7c9e96</title>
<path fill="none" stroke="#63b8ff" d="M107,-70.75C107,-64.27 107,-55.16 107,-46.9"/>
<polygon fill="#63b8ff" stroke="#63b8ff" points="110.5,-46.96 107,-36.96 103.5,-46.96 110.5,-46.96"/>
<g id="a_edge3&#45;headlabel"><a xlink:href="dir_000006_000002.html" target="_top" xlink:title="4">
<text text-anchor="middle" x="113.34" y="-46.54" font-family="Helvetica,sans-Serif" font-size="10.00" fill="#63b8ff">4</text>
</a>
</g>
</g>
<!-- dir_bcf74c9ac967782834be6a29191ee616&#45;&gt;dir_fb4a49b37bc8ee2e1a68a34a29066d17 -->
<g id="edge4" class="edge">
<title>dir_bcf74c9ac967782834be6a29191ee616&#45;&gt;dir_fb4a49b37bc8ee2e1a68a34a29066d17</title>
<path fill="none" stroke="#63b8ff" d="M120.23,-70.51C131.84,-62.62 148.97,-50.98 162.7,-41.65"/>
<polygon fill="#63b8ff" stroke="#63b8ff" points="164.41,-44.72 170.71,-36.21 160.47,-38.93 164.41,-44.72"/>
<g id="a_edge4&#45;headlabel"><a xlink:href="dir_000006_000004.html" target="_top" xlink:title="1">
<text text-anchor="middle" x="164.28" y="-45.74" font-family="Helvetica,sans-Serif" font-size="10.00" fill="#63b8ff">1</text>
</a>
</g>
</g>
</g>
</svg>
