<?xml version="1.0" encoding="UTF-8" standalone="no"?>
<!DOCTYPE svg PUBLIC "-//W3C//DTD SVG 1.1//EN"
 "http://www.w3.org/Graphics/SVG/1.1/DTD/svg11.dtd">
<!-- Generated by graphviz version 7.0.5 (20221223.1930)
 -->
<!-- Title: /github/workspace/client/include Pages: 1 -->
<svg width="241pt" height="314pt"
 viewBox="0.00 0.00 241.00 314.00" xmlns="http://www.w3.org/2000/svg" xmlns:xlink="http://www.w3.org/1999/xlink">
<g id="graph0" class="graph" transform="scale(1 1) rotate(0) translate(4 310)">
<title>/github/workspace/client/include</title>
<g id="clust1" class="cluster">
<title>clusterdir_db3a54907829b36871118d03417739cd</title>
<g id="a_clust1"><a xlink:href="dir_db3a54907829b36871118d03417739cd.html" target="_top" xlink:title="client">
<polygon fill="#edf0f7" stroke="#404040" stroke-dasharray="5,2" points="8,-8 8,-298 225,-298 225,-8 8,-8"/>
<text text-anchor="middle" x="116.5" y="-286" font-family="Helvetica,sans-Serif" font-size="10.00">client</text>
</a>
</g>
</g>
<g id="clust2" class="cluster">
<title>clusterdir_5c23080e296bbe846f4ed2d01d7b595d</title>
<g id="a_clust2"><a xlink:href="dir_5c23080e296bbe846f4ed2d01d7b595d.html" target="_top">
<polygon fill="#edf0f7" stroke="#404040" stroke-width="2" points="16,-16 16,-271 217,-271 217,-16 16,-16"/>
</a>
</g>
</g>
<!-- dir_5c23080e296bbe846f4ed2d01d7b595d -->
<g id="node1" class="node">
<title>dir_5c23080e296bbe846f4ed2d01d7b595d</title>
<text text-anchor="middle" x="185" y="-251" font-family="Helvetica,sans-Serif" font-size="10.00">include</text>
</g>
<!-- dir_8cd8a43aeb9f6152ea921227fa7c9e96 -->
<g id="node2" class="node">
<title>dir_8cd8a43aeb9f6152ea921227fa7c9e96</title>
<g id="a_node2"><a xlink:href="dir_8cd8a43aeb9f6152ea921227fa7c9e96.html" target="_top" xlink:title="Components">
<polygon fill="#a2b4d6" stroke="#404040" points="151.5,-208 80.5,-208 80.5,-189 151.5,-189 151.5,-208"/>
<text text-anchor="middle" x="116" y="-196" font-family="Helvetica,sans-Serif" font-size="10.00">Components</text>
</a>
</g>
</g>
<!-- dir_5c23080e296bbe846f4ed2d01d7b595d&#45;&gt;dir_8cd8a43aeb9f6152ea921227fa7c9e96 -->
<g id="edge1" class="edge">
<title>dir_5c23080e296bbe846f4ed2d01d7b595d&#45;&gt;dir_8cd8a43aeb9f6152ea921227fa7c9e96</title>
<path fill="none" stroke="#63b8ff" d="M174.22,-244.22C164.07,-236.42 148.61,-224.55 136.18,-215"/>
<polygon fill="#63b8ff" stroke="#63b8ff" points="138.66,-212.49 128.59,-209.17 134.39,-218.04 138.66,-212.49"/>
<g id="a_edge1&#45;headlabel"><a xlink:href="dir_000007_000002.html" target="_top" xlink:title="10">
<text text-anchor="middle" x="142.04" y="-209.01" font-family="Helvetica,sans-Serif" font-size="10.00" fill="#63b8ff">10</text>
</a>
</g>
</g>
<!-- dir_e444edeeb17b02c30347d65e329a3788 -->
<g id="node3" class="node">
<title>dir_e444edeeb17b02c30347d65e329a3788</title>
<g id="a_node3"><a xlink:href="dir_e444edeeb17b02c30347d65e329a3788.html" target="_top" xlink:title="Engine">
<polygon fill="#a2b4d6" stroke="#404040" points="161,-153 115,-153 115,-134 161,-134 161,-153"/>
<text text-anchor="middle" x="138" y="-141" font-family="Helvetica,sans-Serif" font-size="10.00">Engine</text>
</a>
</g>
</g>
<!-- dir_5c23080e296bbe846f4ed2d01d7b595d&#45;&gt;dir_e444edeeb17b02c30347d65e329a3788 -->
<g id="edge2" class="edge">
<title>dir_5c23080e296bbe846f4ed2d01d7b595d&#45;&gt;dir_e444edeeb17b02c30347d65e329a3788</title>
<path fill="none" stroke="#63b8ff" d="M182.19,-244.16C177.99,-231.9 169.63,-208.38 161,-189 157.15,-180.36 152.42,-171.03 148.25,-163.16"/>
<polygon fill="#63b8ff" stroke="#63b8ff" points="151.44,-161.69 143.61,-154.55 145.28,-165.01 151.44,-161.69"/>
<g id="a_edge2&#45;headlabel"><a xlink:href="dir_000007_000003.html" target="_top" xlink:title="11">
<text text-anchor="middle" x="154.92" y="-159.67" font-family="Helvetica,sans-Serif" font-size="10.00" fill="#63b8ff">11</text>
</a>
</g>
</g>
<!-- dir_fb4a49b37bc8ee2e1a68a34a29066d17 -->
<g id="node4" class="node">
<title>dir_fb4a49b37bc8ee2e1a68a34a29066d17</title>
<g id="a_node4"><a xlink:href="dir_fb4a49b37bc8ee2e1a68a34a29066d17.html" target="_top" xlink:title="Entities">
<polygon fill="#a2b4d6" stroke="#404040" points="120.5,-98 71.5,-98 71.5,-79 120.5,-79 120.5,-98"/>
<text text-anchor="middle" x="96" y="-86" font-family="Helvetica,sans-Serif" font-size="10.00">Entities</text>
</a>
</g>
</g>
<!-- dir_5c23080e296bbe846f4ed2d01d7b595d&#45;&gt;dir_fb4a49b37bc8ee2e1a68a34a29066d17 -->
<g id="edge3" class="edge">
<title>dir_5c23080e296bbe846f4ed2d01d7b595d&#45;&gt;dir_fb4a49b37bc8ee2e1a68a34a29066d17</title>
<path fill="none" stroke="#63b8ff" d="M186.25,-244.21C188.91,-223.65 193.1,-169.44 170,-134 160.78,-119.85 145.34,-109.54 130.95,-102.42"/>
<polygon fill="#63b8ff" stroke="#63b8ff" points="132.68,-99.37 122.13,-98.43 129.79,-105.74 132.68,-99.37"/>
<g id="a_edge3&#45;headlabel"><a xlink:href="dir_000007_000004.html" target="_top" xlink:title="7">
<text text-anchor="middle" x="135.75" y="-95.14" font-family="Helvetica,sans-Serif" font-size="10.00" fill="#63b8ff">7</text>
</a>
</g>
</g>
<!-- dir_8cd8a43aeb9f6152ea921227fa7c9e96&#45;&gt;dir_e444edeeb17b02c30347d65e329a3788 -->
<g id="edge4" class="edge">
<title>dir_8cd8a43aeb9f6152ea921227fa7c9e96&#45;&gt;dir_e444edeeb17b02c30347d65e329a3788</title>
<path fill="none" stroke="#63b8ff" d="M114.47,-188.75C115.84,-181.88 119.46,-172.08 123.64,-163.45"/>
<polygon fill="#63b8ff" stroke="#63b8ff" points="126.65,-165.23 128.36,-154.77 120.5,-161.88 126.65,-165.23"/>
<g id="a_edge4&#45;headlabel"><a xlink:href="dir_000002_000003.html" target="_top" xlink:title="7">
<text text-anchor="middle" x="128.15" y="-165.91" font-family="Helvetica,sans-Serif" font-size="10.00" fill="#63b8ff">7</text>
</a>
</g>
</g>
<!-- dir_8cd8a43aeb9f6152ea921227fa7c9e96&#45;&gt;dir_fb4a49b37bc8ee2e1a68a34a29066d17 -->
<g id="edge5" class="edge">
<title>dir_8cd8a43aeb9f6152ea921227fa7c9e96&#45;&gt;dir_fb4a49b37bc8ee2e1a68a34a29066d17</title>
<path fill="none" stroke="#63b8ff" d="M107.04,-188.67C102.69,-179.72 99.38,-165.44 97,-153 94.24,-138.52 91.66,-122.07 91.05,-109.55"/>
<polygon fill="#63b8ff" stroke="#63b8ff" points="94.55,-109.72 91.19,-99.67 87.55,-109.62 94.55,-109.72"/>
<g id="a_edge5&#45;headlabel"><a xlink:href="dir_000002_000004.html" target="_top" xlink:title="2">
<text text-anchor="middle" x="97.36" y="-109.34" font-family="Helvetica,sans-Serif" font-size="10.00" fill="#63b8ff">2</text>
</a>
</g>
</g>
<!-- dir_e444edeeb17b02c30347d65e329a3788&#45;&gt;dir_8cd8a43aeb9f6152ea921227fa7c9e96 -->
<g id="edge6" class="edge">
<title>dir_e444edeeb17b02c30347d65e329a3788&#45;&gt;dir_8cd8a43aeb9f6152ea921227fa7c9e96</title>
<path fill="none" stroke="#63b8ff" d="M139.49,-153.44C138.08,-160.36 134.43,-170.18 130.25,-178.79"/>
<polygon fill="#63b8ff" stroke="#63b8ff" points="127.26,-176.97 125.53,-187.42 133.4,-180.33 127.26,-176.97"/>
<g id="a_edge6&#45;headlabel"><a xlink:href="dir_000003_000002.html" target="_top" xlink:title="2">
<text text-anchor="middle" x="125.77" y="-171.28" font-family="Helvetica,sans-Serif" font-size="10.00" fill="#63b8ff">2</text>
</a>
</g>
</g>
<!-- dir_e444edeeb17b02c30347d65e329a3788&#45;&gt;dir_fb4a49b37bc8ee2e1a68a34a29066d17 -->
<g id="edge7" class="edge">
<title>dir_e444edeeb17b02c30347d65e329a3788&#45;&gt;dir_fb4a49b37bc8ee2e1a68a34a29066d17</title>
<path fill="none" stroke="#63b8ff" d="M125.9,-133.75C118.83,-126.73 110.41,-116.64 104.1,-107.87"/>
<polygon fill="#63b8ff" stroke="#63b8ff" points="107.14,-106.13 98.71,-99.71 101.3,-109.98 107.14,-106.13"/>
<g id="a_edge7&#45;headlabel"><a xlink:href="dir_000003_000004.html" target="_top" xlink:title="1">
<text text-anchor="middle" x="110.66" y="-103.8" font-family="Helvetica,sans-Serif" font-size="10.00" fill="#63b8ff">1</text>
</a>
</g>
</g>
<!-- dir_fb4a49b37bc8ee2e1a68a34a29066d17&#45;&gt;dir_8cd8a43aeb9f6152ea921227fa7c9e96 -->
<g id="edge9" class="edge">
<title>dir_fb4a49b37bc8ee2e1a68a34a29066d17&#45;&gt;dir_8cd8a43aeb9f6152ea921227fa7c9e96</title>
<path fill="none" stroke="#63b8ff" d="M103.16,-98.16C107.9,-110.41 111.28,-133.49 115,-153 116.52,-160.97 118.43,-169.69 119.59,-177.29"/>
<polygon fill="#63b8ff" stroke="#63b8ff" points="116.1,-177.53 120.5,-187.16 123.07,-176.88 116.1,-177.53"/>
<g id="a_edge9&#45;headlabel"><a xlink:href="dir_000004_000002.html" target="_top" xlink:title="2">
<text text-anchor="middle" x="113.08" y="-173.22" font-family="Helvetica,sans-Serif" font-size="10.00" fill="#63b8ff">2</text>
</a>
</g>
</g>
<!-- dir_fb4a49b37bc8ee2e1a68a34a29066d17&#45;&gt;dir_e444edeeb17b02c30347d65e329a3788 -->
<g id="edge10" class="edge">
<title>dir_fb4a49b37bc8ee2e1a68a34a29066d17&#45;&gt;dir_e444edeeb17b02c30347d65e329a3788</title>
<path fill="none" stroke="#63b8ff" d="M108.29,-98.44C115.38,-105.51 123.8,-115.62 130.07,-124.36"/>
<polygon fill="#63b8ff" stroke="#63b8ff" points="126.99,-126.04 135.4,-132.48 132.84,-122.2 126.99,-126.04"/>
<g id="a_edge10&#45;headlabel"><a xlink:href="dir_000004_000003.html" target="_top" xlink:title="3">
<text text-anchor="middle" x="123.47" y="-123.36" font-family="Helvetica,sans-Serif" font-size="10.00" fill="#63b8ff">3</text>
</a>
</g>
</g>
<!-- dir_4d1be4222857c78a884b513c6db75374 -->
<g id="node7" class="node">
<title>dir_4d1be4222857c78a884b513c6db75374</title>
<g id="a_node7"><a xlink:href="dir_4d1be4222857c78a884b513c6db75374.html" target="_top" xlink:title="Utils">
<polygon fill="#a2b4d6" stroke="#404040" points="84.5,-43 47.5,-43 47.5,-24 84.5,-24 84.5,-43"/>
<text text-anchor="middle" x="66" y="-31" font-family="Helvetica,sans-Serif" font-size="10.00">Utils</text>
</a>
</g>
</g>
<!-- dir_fb4a49b37bc8ee2e1a68a34a29066d17&#45;&gt;dir_4d1be4222857c78a884b513c6db75374 -->
<g id="edge8" class="edge">
<title>dir_fb4a49b37bc8ee2e1a68a34a29066d17&#45;&gt;dir_4d1be4222857c78a884b513c6db75374</title>
<path fill="none" stroke="#63b8ff" d="M91.05,-78.75C87.16,-71.88 81.61,-62.08 76.72,-53.45"/>
<polygon fill="#63b8ff" stroke="#63b8ff" points="79.78,-51.74 71.81,-44.76 73.69,-55.19 79.78,-51.74"/>
<g id="a_edge8&#45;headlabel"><a xlink:href="dir_000004_000016.html" target="_top" xlink:title="1">
<text text-anchor="middle" x="83.28" y="-49.65" font-family="Helvetica,sans-Serif" font-size="10.00" fill="#63b8ff">1</text>
</a>
</g>
</g>
<!-- dir_2829ef38eab859e0788acb22d79963e7 -->
<g id="node5" class="node">
<title>dir_2829ef38eab859e0788acb22d79963e7</title>
<g id="a_node5"><a xlink:href="dir_2829ef38eab859e0788acb22d79963e7.html" target="_top" xlink:title="Protocol">
<polygon fill="#a2b4d6" stroke="#404040" points="143.5,-263 90.5,-263 90.5,-244 143.5,-244 143.5,-263"/>
<text text-anchor="middle" x="117" y="-251" font-family="Helvetica,sans-Serif" font-size="10.00">Protocol</text>
</a>
</g>
</g>
<!-- dir_fd718e888ae0e1c236b0d805e059ea35 -->
<g id="node6" class="node">
<title>dir_fd718e888ae0e1c236b0d805e059ea35</title>
<g id="a_node6"><a xlink:href="dir_fd718e888ae0e1c236b0d805e059ea35.html" target="_top" xlink:title="system">
<polygon fill="#a2b4d6" stroke="#404040" points="72,-263 24,-263 24,-244 72,-244 72,-263"/>
<text text-anchor="middle" x="48" y="-251" font-family="Helvetica,sans-Serif" font-size="10.00">system</text>
</a>
</g>
</g>
<!-- dir_fd718e888ae0e1c236b0d805e059ea35&#45;&gt;dir_8cd8a43aeb9f6152ea921227fa7c9e96 -->
<g id="edge12" class="edge">
<title>dir_fd718e888ae0e1c236b0d805e059ea35&#45;&gt;dir_8cd8a43aeb9f6152ea921227fa7c9e96</title>
<path fill="none" stroke="#63b8ff" d="M59.54,-243.51C69.46,-235.77 84.01,-224.43 95.86,-215.2"/>
<polygon fill="#63b8ff" stroke="#63b8ff" points="97.71,-218.2 103.44,-209.29 93.4,-212.68 97.71,-218.2"/>
<g id="a_edge12&#45;headlabel"><a xlink:href="dir_000013_000002.html" target="_top" xlink:title="4">
<text text-anchor="middle" x="97.81" y="-219.22" font-family="Helvetica,sans-Serif" font-size="10.00" fill="#63b8ff">4</text>
</a>
</g>
</g>
<!-- dir_fd718e888ae0e1c236b0d805e059ea35&#45;&gt;dir_fb4a49b37bc8ee2e1a68a34a29066d17 -->
<g id="edge13" class="edge">
<title>dir_fd718e888ae0e1c236b0d805e059ea35&#45;&gt;dir_fb4a49b37bc8ee2e1a68a34a29066d17</title>
<path fill="none" stroke="#63b8ff" d="M50.58,-243.74C58.04,-218.42 79.74,-144.72 90.21,-109.16"/>
<polygon fill="#63b8ff" stroke="#63b8ff" points="93.51,-110.34 92.98,-99.76 86.8,-108.36 93.51,-110.34"/>
<g id="a_edge13&#45;headlabel"><a xlink:href="dir_000013_000004.html" target="_top" xlink:title="1">
<text text-anchor="middle" x="95.65" y="-110.64" font-family="Helvetica,sans-Serif" font-size="10.00" fill="#63b8ff">1</text>
</a>
</g>
</g>
<!-- dir_fd718e888ae0e1c236b0d805e059ea35&#45;&gt;dir_4d1be4222857c78a884b513c6db75374 -->
<g id="edge11" class="edge">
<title>dir_fd718e888ae0e1c236b0d805e059ea35&#45;&gt;dir_4d1be4222857c78a884b513c6db75374</title>
<path fill="none" stroke="#63b8ff" d="M48.73,-243.68C51.38,-211.57 60.56,-100.33 64.35,-54.49"/>
<polygon fill="#63b8ff" stroke="#63b8ff" points="67.82,-54.95 65.16,-44.7 60.85,-54.37 67.82,-54.95"/>
<g id="a_edge11&#45;headlabel"><a xlink:href="dir_000013_000016.html" target="_top" xlink:title="1">
<text text-anchor="middle" x="70.48" y="-54.76" font-family="Helvetica,sans-Serif" font-size="10.00" fill="#63b8ff">1</text>
</a>
</g>
</g>
</g>
</svg>
