<?xml version="1.0" encoding="UTF-8" standalone="no"?>
<!DOCTYPE svg PUBLIC "-//W3C//DTD SVG 1.1//EN"
 "http://www.w3.org/Graphics/SVG/1.1/DTD/svg11.dtd">
<!-- Generated by graphviz version 7.0.5 (20221223.1930)
 -->
<!-- Title: /github/workspace/client/include Pages: 1 -->
<svg width="208pt" height="259pt"
 viewBox="0.00 0.00 208.00 259.00" xmlns="http://www.w3.org/2000/svg" xmlns:xlink="http://www.w3.org/1999/xlink">
<g id="graph0" class="graph" transform="scale(1 1) rotate(0) translate(4 255)">
<title>/github/workspace/client/include</title>
<g id="clust1" class="cluster">
<title>clusterdir_db3a54907829b36871118d03417739cd</title>
<g id="a_clust1"><a xlink:href="dir_db3a54907829b36871118d03417739cd.html" target="_top" xlink:title="client">
<polygon fill="#edf0f7" stroke="#404040" stroke-dasharray="5,2" points="8,-8 8,-243 192,-243 192,-8 8,-8"/>
<text text-anchor="middle" x="100" y="-231" font-family="Helvetica,sans-Serif" font-size="10.00">client</text>
</a>
</g>
</g>
<g id="clust2" class="cluster">
<title>clusterdir_5c23080e296bbe846f4ed2d01d7b595d</title>
<g id="a_clust2"><a xlink:href="dir_5c23080e296bbe846f4ed2d01d7b595d.html" target="_top">
<polygon fill="#edf0f7" stroke="#404040" stroke-width="2" points="16,-16 16,-216 184,-216 184,-16 16,-16"/>
</a>
</g>
</g>
<!-- dir_5c23080e296bbe846f4ed2d01d7b595d -->
<g id="node1" class="node">
<title>dir_5c23080e296bbe846f4ed2d01d7b595d</title>
<text text-anchor="middle" x="152" y="-196" font-family="Helvetica,sans-Serif" font-size="10.00">include</text>
</g>
<!-- dir_8cd8a43aeb9f6152ea921227fa7c9e96 -->
<g id="node2" class="node">
<title>dir_8cd8a43aeb9f6152ea921227fa7c9e96</title>
<g id="a_node2"><a xlink:href="dir_8cd8a43aeb9f6152ea921227fa7c9e96.html" target="_top" xlink:title="Components">
<polygon fill="#a2b4d6" stroke="#404040" points="133.5,-153 62.5,-153 62.5,-134 133.5,-134 133.5,-153"/>
<text text-anchor="middle" x="98" y="-141" font-family="Helvetica,sans-Serif" font-size="10.00">Components</text>
</a>
</g>
</g>
<!-- dir_5c23080e296bbe846f4ed2d01d7b595d&#45;&gt;dir_8cd8a43aeb9f6152ea921227fa7c9e96 -->
<g id="edge1" class="edge">
<title>dir_5c23080e296bbe846f4ed2d01d7b595d&#45;&gt;dir_8cd8a43aeb9f6152ea921227fa7c9e96</title>
<path fill="none" stroke="#63b8ff" d="M143.56,-189.22C135.93,-181.73 124.47,-170.48 114.95,-161.13"/>
<polygon fill="#63b8ff" stroke="#63b8ff" points="117.59,-158.82 108,-154.31 112.68,-163.81 117.59,-158.82"/>
<g id="a_edge1&#45;headlabel"><a xlink:href="dir_000006_000002.html" target="_top" xlink:title="5">
<text text-anchor="middle" x="121.06" y="-155.75" font-family="Helvetica,sans-Serif" font-size="10.00" fill="#63b8ff">5</text>
</a>
</g>
</g>
<!-- dir_e444edeeb17b02c30347d65e329a3788 -->
<g id="node3" class="node">
<title>dir_e444edeeb17b02c30347d65e329a3788</title>
<g id="a_node3"><a xlink:href="dir_e444edeeb17b02c30347d65e329a3788.html" target="_top" xlink:title="Engine">
<polygon fill="#a2b4d6" stroke="#404040" points="156,-98 110,-98 110,-79 156,-79 156,-98"/>
<text text-anchor="middle" x="133" y="-86" font-family="Helvetica,sans-Serif" font-size="10.00">Engine</text>
</a>
</g>
</g>
<!-- dir_5c23080e296bbe846f4ed2d01d7b595d&#45;&gt;dir_e444edeeb17b02c30347d65e329a3788 -->
<g id="edge2" class="edge">
<title>dir_5c23080e296bbe846f4ed2d01d7b595d&#45;&gt;dir_e444edeeb17b02c30347d65e329a3788</title>
<path fill="none" stroke="#63b8ff" d="M151.04,-189.25C149.59,-177.1 146.61,-153.71 143,-134 141.52,-125.92 139.6,-117.08 137.84,-109.42"/>
<polygon fill="#63b8ff" stroke="#63b8ff" points="141.27,-108.72 135.55,-99.8 134.45,-110.33 141.27,-108.72"/>
<g id="a_edge2&#45;headlabel"><a xlink:href="dir_000006_000003.html" target="_top" xlink:title="5">
<text text-anchor="middle" x="144.51" y="-107.59" font-family="Helvetica,sans-Serif" font-size="10.00" fill="#63b8ff">5</text>
</a>
</g>
</g>
<!-- dir_fb4a49b37bc8ee2e1a68a34a29066d17 -->
<g id="node4" class="node">
<title>dir_fb4a49b37bc8ee2e1a68a34a29066d17</title>
<g id="a_node4"><a xlink:href="dir_fb4a49b37bc8ee2e1a68a34a29066d17.html" target="_top" xlink:title="Entities">
<polygon fill="#a2b4d6" stroke="#404040" points="157.5,-43 108.5,-43 108.5,-24 157.5,-24 157.5,-43"/>
<text text-anchor="middle" x="133" y="-31" font-family="Helvetica,sans-Serif" font-size="10.00">Entities</text>
</a>
</g>
</g>
<!-- dir_5c23080e296bbe846f4ed2d01d7b595d&#45;&gt;dir_fb4a49b37bc8ee2e1a68a34a29066d17 -->
<g id="edge3" class="edge">
<title>dir_5c23080e296bbe846f4ed2d01d7b595d&#45;&gt;dir_fb4a49b37bc8ee2e1a68a34a29066d17</title>
<path fill="none" stroke="#63b8ff" d="M155.2,-189.22C162.32,-169.57 177.82,-118.79 165,-79 161.84,-69.19 155.63,-59.72 149.51,-52.05"/>
<polygon fill="#63b8ff" stroke="#63b8ff" points="152.23,-49.84 143.04,-44.57 146.93,-54.42 152.23,-49.84"/>
<g id="a_edge3&#45;headlabel"><a xlink:href="dir_000006_000004.html" target="_top" xlink:title="8">
<text text-anchor="middle" x="155.74" y="-47.06" font-family="Helvetica,sans-Serif" font-size="10.00" fill="#63b8ff">8</text>
</a>
</g>
</g>
<!-- dir_8cd8a43aeb9f6152ea921227fa7c9e96&#45;&gt;dir_e444edeeb17b02c30347d65e329a3788 -->
<g id="edge4" class="edge">
<title>dir_8cd8a43aeb9f6152ea921227fa7c9e96&#45;&gt;dir_e444edeeb17b02c30347d65e329a3788</title>
<path fill="none" stroke="#63b8ff" d="M98.61,-133.75C101.81,-126.58 108.24,-116.2 114.83,-107.3"/>
<polygon fill="#63b8ff" stroke="#63b8ff" points="117.45,-109.63 120.94,-99.63 111.98,-105.27 117.45,-109.63"/>
<g id="a_edge4&#45;headlabel"><a xlink:href="dir_000002_000003.html" target="_top" xlink:title="2">
<text text-anchor="middle" x="118.37" y="-110.52" font-family="Helvetica,sans-Serif" font-size="10.00" fill="#63b8ff">2</text>
</a>
</g>
</g>
<!-- dir_8cd8a43aeb9f6152ea921227fa7c9e96&#45;&gt;dir_fb4a49b37bc8ee2e1a68a34a29066d17 -->
<g id="edge5" class="edge">
<title>dir_8cd8a43aeb9f6152ea921227fa7c9e96&#45;&gt;dir_fb4a49b37bc8ee2e1a68a34a29066d17</title>
<path fill="none" stroke="#63b8ff" d="M96.87,-133.57C95.61,-121 94.54,-97.55 101,-79 104.39,-69.27 110.64,-59.81 116.72,-52.13"/>
<polygon fill="#63b8ff" stroke="#63b8ff" points="119.3,-54.5 123.12,-44.62 113.97,-49.96 119.3,-54.5"/>
<g id="a_edge5&#45;headlabel"><a xlink:href="dir_000002_000004.html" target="_top" xlink:title="2">
<text text-anchor="middle" x="120.1" y="-55.43" font-family="Helvetica,sans-Serif" font-size="10.00" fill="#63b8ff">2</text>
</a>
</g>
</g>
<!-- dir_e444edeeb17b02c30347d65e329a3788&#45;&gt;dir_8cd8a43aeb9f6152ea921227fa7c9e96 -->
<g id="edge6" class="edge">
<title>dir_e444edeeb17b02c30347d65e329a3788&#45;&gt;dir_8cd8a43aeb9f6152ea921227fa7c9e96</title>
<path fill="none" stroke="#63b8ff" d="M132.3,-98.44C129.05,-105.67 122.59,-116.06 116,-124.93"/>
<polygon fill="#63b8ff" stroke="#63b8ff" points="113.41,-122.57 109.89,-132.57 118.87,-126.94 113.41,-122.57"/>
<g id="a_edge6&#45;headlabel"><a xlink:href="dir_000003_000002.html" target="_top" xlink:title="1">
<text text-anchor="middle" x="112.49" y="-116.67" font-family="Helvetica,sans-Serif" font-size="10.00" fill="#63b8ff">1</text>
</a>
</g>
</g>
<!-- dir_e444edeeb17b02c30347d65e329a3788&#45;&gt;dir_fb4a49b37bc8ee2e1a68a34a29066d17 -->
<g id="edge7" class="edge">
<title>dir_e444edeeb17b02c30347d65e329a3788&#45;&gt;dir_fb4a49b37bc8ee2e1a68a34a29066d17</title>
<path fill="none" stroke="#63b8ff" d="M127.83,-78.75C126.42,-72.19 125.96,-62.95 126.43,-54.6"/>
<polygon fill="#63b8ff" stroke="#63b8ff" points="129.87,-55.3 127.61,-44.94 122.92,-54.45 129.87,-55.3"/>
<g id="a_edge7&#45;headlabel"><a xlink:href="dir_000003_000004.html" target="_top" xlink:title="1">
<text text-anchor="middle" x="132.44" y="-55.21" font-family="Helvetica,sans-Serif" font-size="10.00" fill="#63b8ff">1</text>
</a>
</g>
</g>
<!-- dir_fb4a49b37bc8ee2e1a68a34a29066d17&#45;&gt;dir_e444edeeb17b02c30347d65e329a3788 -->
<g id="edge8" class="edge">
<title>dir_fb4a49b37bc8ee2e1a68a34a29066d17&#45;&gt;dir_e444edeeb17b02c30347d65e329a3788</title>
<path fill="none" stroke="#63b8ff" d="M138.21,-43.44C139.58,-49.97 140.04,-59.1 139.57,-67.35"/>
<polygon fill="#63b8ff" stroke="#63b8ff" points="136.1,-66.89 138.35,-77.25 143.05,-67.75 136.1,-66.89"/>
<g id="a_edge8&#45;headlabel"><a xlink:href="dir_000004_000003.html" target="_top" xlink:title="2">
<text text-anchor="middle" x="133.54" y="-61.98" font-family="Helvetica,sans-Serif" font-size="10.00" fill="#63b8ff">2</text>
</a>
</g>
</g>
<!-- dir_2829ef38eab859e0788acb22d79963e7 -->
<g id="node5" class="node">
<title>dir_2829ef38eab859e0788acb22d79963e7</title>
<g id="a_node5"><a xlink:href="dir_2829ef38eab859e0788acb22d79963e7.html" target="_top" xlink:title="Protocol">
<polygon fill="#a2b4d6" stroke="#404040" points="94.5,-208 41.5,-208 41.5,-189 94.5,-189 94.5,-208"/>
<text text-anchor="middle" x="68" y="-196" font-family="Helvetica,sans-Serif" font-size="10.00">Protocol</text>
</a>
</g>
</g>
<!-- dir_fd718e888ae0e1c236b0d805e059ea35 -->
<g id="node6" class="node">
<title>dir_fd718e888ae0e1c236b0d805e059ea35</title>
<g id="a_node6"><a xlink:href="dir_fd718e888ae0e1c236b0d805e059ea35.html" target="_top" xlink:title="system">
<polygon fill="#a2b4d6" stroke="#404040" points="72,-98 24,-98 24,-79 72,-79 72,-98"/>
<text text-anchor="middle" x="48" y="-86" font-family="Helvetica,sans-Serif" font-size="10.00">system</text>
</a>
</g>
</g>
<!-- dir_fd718e888ae0e1c236b0d805e059ea35&#45;&gt;dir_fb4a49b37bc8ee2e1a68a34a29066d17 -->
<g id="edge9" class="edge">
<title>dir_fd718e888ae0e1c236b0d805e059ea35&#45;&gt;dir_fb4a49b37bc8ee2e1a68a34a29066d17</title>
<path fill="none" stroke="#63b8ff" d="M62.42,-78.51C75.2,-70.54 94.1,-58.75 109.13,-49.38"/>
<polygon fill="#63b8ff" stroke="#63b8ff" points="110.88,-52.42 117.51,-44.16 107.17,-46.48 110.88,-52.42"/>
<g id="a_edge9&#45;headlabel"><a xlink:href="dir_000012_000004.html" target="_top" xlink:title="1">
<text text-anchor="middle" x="110.61" y="-53.43" font-family="Helvetica,sans-Serif" font-size="10.00" fill="#63b8ff">1</text>
</a>
</g>
</g>
</g>
</svg>
