<?xml version="1.0" encoding="UTF-8" standalone="no"?>
<!DOCTYPE svg PUBLIC "-//W3C//DTD SVG 1.1//EN"
 "http://www.w3.org/Graphics/SVG/1.1/DTD/svg11.dtd">
<!-- Generated by graphviz version 7.0.5 (20221223.1930)
 -->
<!-- Title: /github/workspace/client/include/Entities Pages: 1 -->
<svg width="231pt" height="133pt"
 viewBox="0.00 0.00 231.00 133.00" xmlns="http://www.w3.org/2000/svg" xmlns:xlink="http://www.w3.org/1999/xlink">
<g id="graph0" class="graph" transform="scale(1 1) rotate(0) translate(4 129)">
<title>/github/workspace/client/include/Entities</title>
<g id="clust1" class="cluster">
<title>clusterdir_5c23080e296bbe846f4ed2d01d7b595d</title>
<g id="a_clust1"><a xlink:href="dir_5c23080e296bbe846f4ed2d01d7b595d.html" target="_top" xlink:title="include">
<polygon fill="#edf0f7" stroke="#7f7f7f" stroke-dasharray="5,2" points="8,-8 8,-117 215,-117 215,-8 8,-8"/>
<text text-anchor="middle" x="111.5" y="-105" font-family="Helvetica,sans-Serif" font-size="10.00">include</text>
</a>
</g>
</g>
<!-- dir_4d1be4222857c78a884b513c6db75374 -->
<g id="node1" class="node">
<title>dir_4d1be4222857c78a884b513c6db75374</title>
<g id="a_node1"><a xlink:href="dir_4d1be4222857c78a884b513c6db75374.html" target="_top" xlink:title="Utils">
<polygon fill="#a2b4d6" stroke="#404040" points="53.5,-35 16.5,-35 16.5,-16 53.5,-16 53.5,-35"/>
<text text-anchor="middle" x="35" y="-23" font-family="Helvetica,sans-Serif" font-size="10.00">Utils</text>
</a>
</g>
</g>
<!-- dir_8cd8a43aeb9f6152ea921227fa7c9e96 -->
<g id="node2" class="node">
<title>dir_8cd8a43aeb9f6152ea921227fa7c9e96</title>
<g id="a_node2"><a xlink:href="dir_8cd8a43aeb9f6152ea921227fa7c9e96.html" target="_top" xlink:title="Components">
<polygon fill="#a2b4d6" stroke="#404040" points="142.5,-35 71.5,-35 71.5,-16 142.5,-16 142.5,-35"/>
<text text-anchor="middle" x="107" y="-23" font-family="Helvetica,sans-Serif" font-size="10.00">Components</text>
</a>
</g>
</g>
<!-- dir_e444edeeb17b02c30347d65e329a3788 -->
<g id="node3" class="node">
<title>dir_e444edeeb17b02c30347d65e329a3788</title>
<g id="a_node3"><a xlink:href="dir_e444edeeb17b02c30347d65e329a3788.html" target="_top" xlink:title="Engine">
<polygon fill="#a2b4d6" stroke="#404040" points="207,-35 161,-35 161,-16 207,-16 207,-35"/>
<text text-anchor="middle" x="184" y="-23" font-family="Helvetica,sans-Serif" font-size="10.00">Engine</text>
</a>
</g>
</g>
<!-- dir_fb4a49b37bc8ee2e1a68a34a29066d17 -->
<g id="node4" class="node">
<title>dir_fb4a49b37bc8ee2e1a68a34a29066d17</title>
<g id="a_node4"><a xlink:href="dir_fb4a49b37bc8ee2e1a68a34a29066d17.html" target="_top" xlink:title="Entities">
<polygon fill="#edf0f7" stroke="#404040" stroke-width="2" points="131.5,-90 82.5,-90 82.5,-71 131.5,-71 131.5,-90"/>
<text text-anchor="middle" x="107" y="-78" font-family="Helvetica,sans-Serif" font-size="10.00">Entities</text>
</a>
</g>
</g>
<!-- dir_fb4a49b37bc8ee2e1a68a34a29066d17&#45;&gt;dir_4d1be4222857c78a884b513c6db75374 -->
<g id="edge1" class="edge">
<title>dir_fb4a49b37bc8ee2e1a68a34a29066d17&#45;&gt;dir_4d1be4222857c78a884b513c6db75374</title>
<path fill="none" stroke="#63b8ff" d="M94.79,-70.51C84.17,-62.7 68.56,-51.21 55.96,-41.93"/>
<polygon fill="#63b8ff" stroke="#63b8ff" points="58.38,-39.36 48.25,-36.26 54.23,-45 58.38,-39.36"/>
<g id="a_edge1&#45;headlabel"><a xlink:href="dir_000004_000016.html" target="_top" xlink:title="1">
<text text-anchor="middle" x="61.74" y="-35.81" font-family="Helvetica,sans-Serif" font-size="10.00" fill="#63b8ff">1</text>
</a>
</g>
</g>
<!-- dir_fb4a49b37bc8ee2e1a68a34a29066d17&#45;&gt;dir_8cd8a43aeb9f6152ea921227fa7c9e96 -->
<g id="edge2" class="edge">
<title>dir_fb4a49b37bc8ee2e1a68a34a29066d17&#45;&gt;dir_8cd8a43aeb9f6152ea921227fa7c9e96</title>
<path fill="none" stroke="#63b8ff" d="M107,-70.75C107,-64.27 107,-55.16 107,-46.9"/>
<polygon fill="#63b8ff" stroke="#63b8ff" points="110.5,-46.96 107,-36.96 103.5,-46.96 110.5,-46.96"/>
<g id="a_edge2&#45;headlabel"><a xlink:href="dir_000004_000002.html" target="_top" xlink:title="2">
<text text-anchor="middle" x="113.34" y="-46.54" font-family="Helvetica,sans-Serif" font-size="10.00" fill="#63b8ff">2</text>
</a>
</g>
</g>
<!-- dir_fb4a49b37bc8ee2e1a68a34a29066d17&#45;&gt;dir_e444edeeb17b02c30347d65e329a3788 -->
<g id="edge3" class="edge">
<title>dir_fb4a49b37bc8ee2e1a68a34a29066d17&#45;&gt;dir_e444edeeb17b02c30347d65e329a3788</title>
<path fill="none" stroke="#63b8ff" d="M120.06,-70.51C131.52,-62.62 148.43,-50.98 161.98,-41.65"/>
<polygon fill="#63b8ff" stroke="#63b8ff" points="163.63,-44.77 169.88,-36.22 159.66,-39 163.63,-44.77"/>
<g id="a_edge3&#45;headlabel"><a xlink:href="dir_000004_000003.html" target="_top" xlink:title="3">
<text text-anchor="middle" x="163.53" y="-45.79" font-family="Helvetica,sans-Serif" font-size="10.00" fill="#63b8ff">3</text>
</a>
</g>
</g>
</g>
</svg>
