<?xml version="1.0" encoding="UTF-8" standalone="no"?>
<!DOCTYPE svg PUBLIC "-//W3C//DTD SVG 1.1//EN"
 "http://www.w3.org/Graphics/SVG/1.1/DTD/svg11.dtd">
<!-- Generated by graphviz version 7.0.5 (20221223.1930)
 -->
<!-- Title: /github/workspace/client/include/Engine/Draw.hpp Pages: 1 -->
<svg width="1795pt" height="203pt"
 viewBox="0.00 0.00 1794.50 203.00" xmlns="http://www.w3.org/2000/svg" xmlns:xlink="http://www.w3.org/1999/xlink">
<g id="graph0" class="graph" transform="scale(1 1) rotate(0) translate(4 199)">
<title>/github/workspace/client/include/Engine/Draw.hpp</title>
<!-- Node1 -->
<g id="node1" class="node">
<title>Node1</title>
<g id="a_node1"><a xlink:title=" ">
<polygon fill="#999999" stroke="#666666" points="1104.5,-195 978.5,-195 978.5,-165 1104.5,-165 1104.5,-195"/>
<text text-anchor="start" x="986.5" y="-183" font-family="Helvetica,sans-Serif" font-size="10.00">/github/workspace/client</text>
<text text-anchor="middle" x="1041.5" y="-172" font-family="Helvetica,sans-Serif" font-size="10.00">/include/Engine/Draw.hpp</text>
</a>
</g>
</g>
<!-- Node2 -->
<g id="node2" class="node">
<title>Node2</title>
<g id="a_node2"><a xlink:href="Engine_8hpp.html" target="_top" xlink:title=" ">
<polygon fill="white" stroke="#666666" points="1089.5,-129 993.5,-129 993.5,-110 1089.5,-110 1089.5,-129"/>
<text text-anchor="middle" x="1041.5" y="-117" font-family="Helvetica,sans-Serif" font-size="10.00">Engine/Engine.hpp</text>
</a>
</g>
</g>
<!-- Node1&#45;&gt;Node2 -->
<g id="edge1" class="edge">
<title>Node1&#45;&gt;Node2</title>
<path fill="none" stroke="#63b8ff" d="M1035.58,-164.54C1034.69,-157.26 1034.51,-148.31 1035.07,-140.39"/>
<polygon fill="#63b8ff" stroke="#63b8ff" points="1038.51,-141.05 1036.34,-130.68 1031.57,-140.14 1038.51,-141.05"/>
</g>
<!-- Node2&#45;&gt;Node1 -->
<g id="edge18" class="edge">
<title>Node2&#45;&gt;Node1</title>
<path fill="none" stroke="#63b8ff" d="M1046.46,-129.18C1047.84,-135.58 1048.42,-144.65 1048.21,-153.3"/>
<polygon fill="#63b8ff" stroke="#63b8ff" points="1044.73,-152.81 1047.52,-163.03 1051.71,-153.3 1044.73,-152.81"/>
</g>
<!-- Node3 -->
<g id="node3" class="node">
<title>Node3</title>
<g id="a_node3"><a xlink:title=" ">
<polygon fill="#e0e0e0" stroke="#999999" points="89,-74 0,-74 0,-55 89,-55 89,-74"/>
<text text-anchor="middle" x="44.5" y="-62" font-family="Helvetica,sans-Serif" font-size="10.00">SFML/Audio.hpp</text>
</a>
</g>
</g>
<!-- Node2&#45;&gt;Node3 -->
<g id="edge2" class="edge">
<title>Node2&#45;&gt;Node3</title>
<path fill="none" stroke="#63b8ff" d="M993.28,-118.08C855.63,-116.48 448.96,-109 100.57,-74.07"/>
<polygon fill="#63b8ff" stroke="#63b8ff" points="101.05,-70.61 90.75,-73.08 100.34,-77.57 101.05,-70.61"/>
</g>
<!-- Node4 -->
<g id="node4" class="node">
<title>Node4</title>
<g id="a_node4"><a xlink:title=" ">
<polygon fill="#e0e0e0" stroke="#999999" points="211.5,-74 107.5,-74 107.5,-55 211.5,-55 211.5,-74"/>
<text text-anchor="middle" x="159.5" y="-62" font-family="Helvetica,sans-Serif" font-size="10.00">SFML/Graphics.hpp</text>
</a>
</g>
</g>
<!-- Node2&#45;&gt;Node4 -->
<g id="edge3" class="edge">
<title>Node2&#45;&gt;Node4</title>
<path fill="none" stroke="#63b8ff" d="M993.27,-117.31C868,-113.9 521.78,-102.56 222.77,-74.13"/>
<polygon fill="#63b8ff" stroke="#63b8ff" points="223.5,-70.69 213.22,-73.21 222.84,-77.65 223.5,-70.69"/>
</g>
<!-- Node5 -->
<g id="node5" class="node">
<title>Node5</title>
<g id="a_node5"><a xlink:title=" ">
<polygon fill="#e0e0e0" stroke="#999999" points="331,-74 230,-74 230,-55 331,-55 331,-74"/>
<text text-anchor="middle" x="280.5" y="-62" font-family="Helvetica,sans-Serif" font-size="10.00">SFML/Network.hpp</text>
</a>
</g>
</g>
<!-- Node2&#45;&gt;Node5 -->
<g id="edge4" class="edge">
<title>Node2&#45;&gt;Node5</title>
<path fill="none" stroke="#63b8ff" d="M993.3,-116.77C881.03,-112.46 593.16,-99.76 342.47,-74.23"/>
<polygon fill="#63b8ff" stroke="#63b8ff" points="343.13,-70.78 332.82,-73.24 342.41,-77.74 343.13,-70.78"/>
</g>
<!-- Node6 -->
<g id="node6" class="node">
<title>Node6</title>
<g id="a_node6"><a xlink:title=" ">
<polygon fill="#e0e0e0" stroke="#999999" points="448,-74 349,-74 349,-55 448,-55 448,-74"/>
<text text-anchor="middle" x="398.5" y="-62" font-family="Helvetica,sans-Serif" font-size="10.00">SFML/Window.hpp</text>
</a>
</g>
</g>
<!-- Node2&#45;&gt;Node6 -->
<g id="edge5" class="edge">
<title>Node2&#45;&gt;Node6</title>
<path fill="none" stroke="#63b8ff" d="M993.33,-115.93C895.1,-110.44 664.39,-96.34 459.64,-74.16"/>
<polygon fill="#63b8ff" stroke="#63b8ff" points="460.19,-70.7 449.87,-73.09 459.43,-77.65 460.19,-70.7"/>
</g>
<!-- Node7 -->
<g id="node7" class="node">
<title>Node7</title>
<g id="a_node7"><a xlink:title=" ">
<polygon fill="#e0e0e0" stroke="#999999" points="564.5,-74 466.5,-74 466.5,-55 564.5,-55 564.5,-74"/>
<text text-anchor="middle" x="515.5" y="-62" font-family="Helvetica,sans-Serif" font-size="10.00">SFML/System.hpp</text>
</a>
</g>
</g>
<!-- Node2&#45;&gt;Node7 -->
<g id="edge6" class="edge">
<title>Node2&#45;&gt;Node7</title>
<path fill="none" stroke="#63b8ff" d="M993.24,-114.72C910.26,-108.05 734.91,-93.18 576.23,-74.27"/>
<polygon fill="#63b8ff" stroke="#63b8ff" points="576.69,-70.8 566.34,-73.08 575.85,-77.75 576.69,-70.8"/>
</g>
<!-- Node8 -->
<g id="node8" class="node">
<title>Node8</title>
<g id="a_node8"><a xlink:title=" ">
<polygon fill="#e0e0e0" stroke="#999999" points="636.5,-74 582.5,-74 582.5,-55 636.5,-55 636.5,-74"/>
<text text-anchor="middle" x="609.5" y="-62" font-family="Helvetica,sans-Serif" font-size="10.00">iostream</text>
</a>
</g>
</g>
<!-- Node2&#45;&gt;Node8 -->
<g id="edge7" class="edge">
<title>Node2&#45;&gt;Node8</title>
<path fill="none" stroke="#63b8ff" d="M993.08,-114.94C920.31,-109.18 778.24,-96.35 648.28,-74.29"/>
<polygon fill="#63b8ff" stroke="#63b8ff" points="648.89,-70.84 638.44,-72.6 647.7,-77.74 648.89,-70.84"/>
</g>
<!-- Node9 -->
<g id="node9" class="node">
<title>Node9</title>
<g id="a_node9"><a xlink:title=" ">
<polygon fill="#e0e0e0" stroke="#999999" points="704.5,-74 654.5,-74 654.5,-55 704.5,-55 704.5,-74"/>
<text text-anchor="middle" x="679.5" y="-62" font-family="Helvetica,sans-Serif" font-size="10.00">fstream</text>
</a>
</g>
</g>
<!-- Node2&#45;&gt;Node9 -->
<g id="edge8" class="edge">
<title>Node2&#45;&gt;Node9</title>
<path fill="none" stroke="#63b8ff" d="M993.15,-113.63C931.13,-107 820.04,-93.89 715.73,-74.24"/>
<polygon fill="#63b8ff" stroke="#63b8ff" points="716.65,-70.85 706.17,-72.41 715.33,-77.72 716.65,-70.85"/>
</g>
<!-- Node10 -->
<g id="node10" class="node">
<title>Node10</title>
<g id="a_node10"><a xlink:title=" ">
<polygon fill="#e0e0e0" stroke="#999999" points="770.5,-74 722.5,-74 722.5,-55 770.5,-55 770.5,-74"/>
<text text-anchor="middle" x="746.5" y="-62" font-family="Helvetica,sans-Serif" font-size="10.00">string.h</text>
</a>
</g>
</g>
<!-- Node2&#45;&gt;Node10 -->
<g id="edge9" class="edge">
<title>Node2&#45;&gt;Node10</title>
<path fill="none" stroke="#63b8ff" d="M993.46,-111.58C943.11,-104.05 861.47,-91.07 782.13,-74.42"/>
<polygon fill="#63b8ff" stroke="#63b8ff" points="782.94,-71.01 772.43,-72.36 781.49,-77.86 782.94,-71.01"/>
</g>
<!-- Node11 -->
<g id="node11" class="node">
<title>Node11</title>
<g id="a_node11"><a xlink:title=" ">
<polygon fill="#e0e0e0" stroke="#999999" points="838.5,-74 788.5,-74 788.5,-55 838.5,-55 838.5,-74"/>
<text text-anchor="middle" x="813.5" y="-62" font-family="Helvetica,sans-Serif" font-size="10.00">unistd.h</text>
</a>
</g>
</g>
<!-- Node2&#45;&gt;Node11 -->
<g id="edge10" class="edge">
<title>Node2&#45;&gt;Node11</title>
<path fill="none" stroke="#63b8ff" d="M1001.32,-109.52C964.35,-101.21 907.72,-88.34 849.6,-74.47"/>
<polygon fill="#63b8ff" stroke="#63b8ff" points="850.75,-71.15 840.21,-72.22 849.12,-77.95 850.75,-71.15"/>
</g>
<!-- Node12 -->
<g id="node12" class="node">
<title>Node12</title>
<g id="a_node12"><a xlink:title=" ">
<polygon fill="#e0e0e0" stroke="#999999" points="922,-74 857,-74 857,-55 922,-55 922,-74"/>
<text text-anchor="middle" x="889.5" y="-62" font-family="Helvetica,sans-Serif" font-size="10.00">sys/types.h</text>
</a>
</g>
</g>
<!-- Node2&#45;&gt;Node12 -->
<g id="edge11" class="edge">
<title>Node2&#45;&gt;Node12</title>
<path fill="none" stroke="#63b8ff" d="M1015.72,-109.51C991.07,-100.92 953.69,-87.88 925.99,-78.22"/>
<polygon fill="#63b8ff" stroke="#63b8ff" points="927.18,-74.93 916.59,-74.94 924.88,-81.54 927.18,-74.93"/>
</g>
<!-- Node13 -->
<g id="node13" class="node">
<title>Node13</title>
<g id="a_node13"><a xlink:title=" ">
<polygon fill="#e0e0e0" stroke="#999999" points="1100.5,-19 1056.5,-19 1056.5,0 1100.5,0 1100.5,-19"/>
<text text-anchor="middle" x="1078.5" y="-7" font-family="Helvetica,sans-Serif" font-size="10.00">vector</text>
</a>
</g>
</g>
<!-- Node2&#45;&gt;Node13 -->
<g id="edge12" class="edge">
<title>Node2&#45;&gt;Node13</title>
<path fill="none" stroke="#63b8ff" d="M1016.76,-109.58C990.2,-98.56 953.79,-78.38 969.5,-55 986.3,-29.99 1019.9,-19.03 1045.38,-14.23"/>
<polygon fill="#63b8ff" stroke="#63b8ff" points="1045.62,-17.73 1054.93,-12.67 1044.5,-10.82 1045.62,-17.73"/>
</g>
<!-- Node14 -->
<g id="node14" class="node">
<title>Node14</title>
<g id="a_node14"><a xlink:title=" ">
<polygon fill="#e0e0e0" stroke="#999999" points="1034.5,-74 978.5,-74 978.5,-55 1034.5,-55 1034.5,-74"/>
<text text-anchor="middle" x="1006.5" y="-62" font-family="Helvetica,sans-Serif" font-size="10.00">stdbool.h</text>
</a>
</g>
</g>
<!-- Node2&#45;&gt;Node14 -->
<g id="edge13" class="edge">
<title>Node2&#45;&gt;Node14</title>
<path fill="none" stroke="#63b8ff" d="M1035.72,-109.75C1031.09,-102.73 1024.43,-92.64 1018.63,-83.87"/>
<polygon fill="#63b8ff" stroke="#63b8ff" points="1021.67,-82.12 1013.24,-75.71 1015.83,-85.98 1021.67,-82.12"/>
</g>
<!-- Node15 -->
<g id="node15" class="node">
<title>Node15</title>
<g id="a_node15"><a xlink:title=" ">
<polygon fill="#e0e0e0" stroke="#999999" points="1100,-74 1053,-74 1053,-55 1100,-55 1100,-74"/>
<text text-anchor="middle" x="1076.5" y="-62" font-family="Helvetica,sans-Serif" font-size="10.00">stdlib.h</text>
</a>
</g>
</g>
<!-- Node2&#45;&gt;Node15 -->
<g id="edge14" class="edge">
<title>Node2&#45;&gt;Node15</title>
<path fill="none" stroke="#63b8ff" d="M1047.28,-109.75C1051.91,-102.73 1058.57,-92.64 1064.37,-83.87"/>
<polygon fill="#63b8ff" stroke="#63b8ff" points="1067.17,-85.98 1069.76,-75.71 1061.33,-82.12 1067.17,-85.98"/>
</g>
<!-- Node16 -->
<g id="node16" class="node">
<title>Node16</title>
<g id="a_node16"><a xlink:title=" ">
<polygon fill="#e0e0e0" stroke="#999999" points="1176.5,-74 1118.5,-74 1118.5,-55 1176.5,-55 1176.5,-74"/>
<text text-anchor="middle" x="1147.5" y="-62" font-family="Helvetica,sans-Serif" font-size="10.00">exception</text>
</a>
</g>
</g>
<!-- Node2&#45;&gt;Node16 -->
<g id="edge15" class="edge">
<title>Node2&#45;&gt;Node16</title>
<path fill="none" stroke="#63b8ff" d="M1059.48,-109.51C1075.95,-101.27 1100.59,-88.96 1119.61,-79.45"/>
<polygon fill="#63b8ff" stroke="#63b8ff" points="1121.05,-82.64 1128.43,-75.03 1117.92,-76.38 1121.05,-82.64"/>
</g>
<!-- Node17 -->
<g id="node17" class="node">
<title>Node17</title>
<g id="a_node17"><a xlink:href="Window_8hpp.html" target="_top" xlink:title=" ">
<polygon fill="white" stroke="#666666" points="1492,-19 1391,-19 1391,0 1492,0 1492,-19"/>
<text text-anchor="middle" x="1441.5" y="-7" font-family="Helvetica,sans-Serif" font-size="10.00">Engine/Window.hpp</text>
</a>
</g>
</g>
<!-- Node2&#45;&gt;Node17 -->
<g id="edge16" class="edge">
<title>Node2&#45;&gt;Node17</title>
<path fill="none" stroke="#63b8ff" d="M1089.99,-117.14C1198.81,-113.7 1454.43,-102.79 1480.5,-74 1494.38,-58.67 1475.64,-39.57 1459.46,-26.34"/>
<polygon fill="#63b8ff" stroke="#63b8ff" points="1461.72,-23.66 1451.69,-20.24 1457.39,-29.17 1461.72,-23.66"/>
</g>
<!-- Node18 -->
<g id="node18" class="node">
<title>Node18</title>
<g id="a_node18"><a xlink:href="Event_8hpp.html" target="_top" xlink:title=" ">
<polygon fill="white" stroke="#666666" points="1646.5,-74 1554.5,-74 1554.5,-55 1646.5,-55 1646.5,-74"/>
<text text-anchor="middle" x="1600.5" y="-62" font-family="Helvetica,sans-Serif" font-size="10.00">Engine/Event.hpp</text>
</a>
</g>
</g>
<!-- Node2&#45;&gt;Node18 -->
<g id="edge19" class="edge">
<title>Node2&#45;&gt;Node18</title>
<path fill="none" stroke="#63b8ff" d="M1089.65,-114.63C1177.63,-107.83 1369.71,-92.66 1531.5,-74 1535.27,-73.56 1539.17,-73.08 1543.12,-72.58"/>
<polygon fill="#63b8ff" stroke="#63b8ff" points="1543.32,-76.08 1552.77,-71.3 1542.4,-69.14 1543.32,-76.08"/>
</g>
<!-- Node22 -->
<g id="node22" class="node">
<title>Node22</title>
<g id="a_node22"><a xlink:href="StateManager_8hpp.html" target="_top" xlink:title=" ">
<polygon fill="white" stroke="#666666" points="1480.5,-74 1352.5,-74 1352.5,-55 1480.5,-55 1480.5,-74"/>
<text text-anchor="middle" x="1416.5" y="-62" font-family="Helvetica,sans-Serif" font-size="10.00">Engine/StateManager.hpp</text>
</a>
</g>
</g>
<!-- Node2&#45;&gt;Node22 -->
<g id="edge24" class="edge">
<title>Node2&#45;&gt;Node22</title>
<path fill="none" stroke="#63b8ff" d="M1089.94,-110.96C1153.62,-101.64 1265.95,-85.74 1340.85,-75.43"/>
<polygon fill="#63b8ff" stroke="#63b8ff" points="1341.15,-78.92 1350.58,-74.09 1340.2,-71.98 1341.15,-78.92"/>
</g>
<!-- Node23 -->
<g id="node23" class="node">
<title>Node23</title>
<g id="a_node23"><a xlink:href="EntitiesManager_8hpp.html" target="_top" xlink:title=" ">
<polygon fill="white" stroke="#666666" points="1334.5,-74 1194.5,-74 1194.5,-55 1334.5,-55 1334.5,-74"/>
<text text-anchor="middle" x="1264.5" y="-62" font-family="Helvetica,sans-Serif" font-size="10.00">Entities/EntitiesManager.hpp</text>
</a>
</g>
</g>
<!-- Node2&#45;&gt;Node23 -->
<g id="edge27" class="edge">
<title>Node2&#45;&gt;Node23</title>
<path fill="none" stroke="#63b8ff" d="M1074.11,-109.51C1109.99,-100.54 1168,-86.71 1210.62,-76.96"/>
<polygon fill="#63b8ff" stroke="#63b8ff" points="1211.2,-80.41 1220.17,-74.78 1209.65,-73.59 1211.2,-80.41"/>
</g>
<!-- Node25 -->
<g id="node25" class="node">
<title>Node25</title>
<g id="a_node25"><a xlink:href="Bullets_8hpp.html" target="_top" xlink:title=" ">
<polygon fill="white" stroke="#666666" points="1786.5,-74 1664.5,-74 1664.5,-55 1786.5,-55 1786.5,-74"/>
<text text-anchor="middle" x="1725.5" y="-62" font-family="Helvetica,sans-Serif" font-size="10.00">Components/Bullets.hpp</text>
</a>
</g>
</g>
<!-- Node2&#45;&gt;Node25 -->
<g id="edge31" class="edge">
<title>Node2&#45;&gt;Node25</title>
<path fill="none" stroke="#63b8ff" d="M1089.9,-115.5C1192.66,-109.32 1439.59,-94.05 1646.5,-74 1648.65,-73.79 1650.83,-73.57 1653.04,-73.34"/>
<polygon fill="#63b8ff" stroke="#63b8ff" points="1653.15,-76.85 1662.71,-72.3 1652.4,-69.89 1653.15,-76.85"/>
</g>
<!-- Node17&#45;&gt;Node2 -->
<g id="edge17" class="edge">
<title>Node17&#45;&gt;Node2</title>
<path fill="none" stroke="#63b8ff" d="M1462.35,-19.3C1485.02,-31.92 1515.1,-55.66 1498.5,-74 1472.54,-102.66 1218.97,-113.6 1101.07,-117.09"/>
<polygon fill="#63b8ff" stroke="#63b8ff" points="1101.16,-113.59 1091.27,-117.37 1101.36,-120.59 1101.16,-113.59"/>
</g>
<!-- Node18&#45;&gt;Node2 -->
<g id="edge20" class="edge">
<title>Node18&#45;&gt;Node2</title>
<path fill="none" stroke="#63b8ff" d="M1554.26,-73.44C1552.66,-73.63 1551.07,-73.82 1549.5,-74 1387.97,-92.63 1196.24,-107.78 1101.06,-114.6"/>
<polygon fill="#63b8ff" stroke="#63b8ff" points="1100.9,-111.1 1091.18,-115.3 1101.4,-118.09 1100.9,-111.1"/>
</g>
<!-- Node19 -->
<g id="node19" class="node">
<title>Node19</title>
<g id="a_node19"><a xlink:title=" ">
<polygon fill="#e0e0e0" stroke="#999999" points="1681,-19 1652,-19 1652,0 1681,0 1681,-19"/>
<text text-anchor="middle" x="1666.5" y="-7" font-family="Helvetica,sans-Serif" font-size="10.00">list</text>
</a>
</g>
</g>
<!-- Node18&#45;&gt;Node19 -->
<g id="edge21" class="edge">
<title>Node18&#45;&gt;Node19</title>
<path fill="none" stroke="#63b8ff" d="M1611.7,-54.51C1621.24,-46.85 1635.17,-35.66 1646.61,-26.47"/>
<polygon fill="#63b8ff" stroke="#63b8ff" points="1648.68,-29.3 1654.29,-20.31 1644.3,-23.84 1648.68,-29.3"/>
</g>
<!-- Node20 -->
<g id="node20" class="node">
<title>Node20</title>
<g id="a_node20"><a xlink:title=" ">
<polygon fill="#e0e0e0" stroke="#999999" points="1553,-19 1510,-19 1510,0 1553,0 1553,-19"/>
<text text-anchor="middle" x="1531.5" y="-7" font-family="Helvetica,sans-Serif" font-size="10.00">queue</text>
</a>
</g>
</g>
<!-- Node18&#45;&gt;Node20 -->
<g id="edge22" class="edge">
<title>Node18&#45;&gt;Node20</title>
<path fill="none" stroke="#63b8ff" d="M1588.8,-54.51C1578.72,-46.77 1563.96,-35.43 1551.94,-26.2"/>
<polygon fill="#63b8ff" stroke="#63b8ff" points="1554.29,-23.6 1544.23,-20.28 1550.03,-29.15 1554.29,-23.6"/>
</g>
<!-- Node21 -->
<g id="node21" class="node">
<title>Node21</title>
<g id="a_node21"><a xlink:title=" ">
<polygon fill="#e0e0e0" stroke="#999999" points="1633.5,-19 1571.5,-19 1571.5,0 1633.5,0 1633.5,-19"/>
<text text-anchor="middle" x="1602.5" y="-7" font-family="Helvetica,sans-Serif" font-size="10.00">Skaldi.hpp</text>
</a>
</g>
</g>
<!-- Node18&#45;&gt;Node21 -->
<g id="edge23" class="edge">
<title>Node18&#45;&gt;Node21</title>
<path fill="none" stroke="#63b8ff" d="M1600.83,-54.75C1601.07,-48.27 1601.42,-39.16 1601.73,-30.9"/>
<polygon fill="#63b8ff" stroke="#63b8ff" points="1605.23,-31.08 1602.11,-20.95 1598.23,-30.82 1605.23,-31.08"/>
</g>
<!-- Node22&#45;&gt;Node2 -->
<g id="edge25" class="edge">
<title>Node22&#45;&gt;Node2</title>
<path fill="none" stroke="#63b8ff" d="M1358.26,-74.47C1288.29,-84.66 1171.7,-101.12 1101.12,-110.77"/>
<polygon fill="#63b8ff" stroke="#63b8ff" points="1100.71,-107.29 1091.28,-112.11 1101.66,-114.23 1100.71,-107.29"/>
</g>
<!-- Node22&#45;&gt;Node17 -->
<g id="edge26" class="edge">
<title>Node22&#45;&gt;Node17</title>
<path fill="none" stroke="#63b8ff" d="M1420.63,-54.75C1423.83,-47.96 1428.39,-38.3 1432.43,-29.73"/>
<polygon fill="#63b8ff" stroke="#63b8ff" points="1435.54,-31.35 1436.64,-20.81 1429.2,-28.36 1435.54,-31.35"/>
</g>
<!-- Node23&#45;&gt;Node2 -->
<g id="edge28" class="edge">
<title>Node23&#45;&gt;Node2</title>
<path fill="none" stroke="#63b8ff" d="M1232.07,-74.45C1196.26,-83.4 1138.27,-97.22 1095.59,-106.99"/>
<polygon fill="#63b8ff" stroke="#63b8ff" points="1094.99,-103.54 1086.02,-109.17 1096.55,-110.37 1094.99,-103.54"/>
</g>
<!-- Node23&#45;&gt;Node13 -->
<g id="edge30" class="edge">
<title>Node23&#45;&gt;Node13</title>
<path fill="none" stroke="#63b8ff" d="M1232.95,-54.51C1199.24,-44.9 1146.03,-29.74 1111.7,-19.96"/>
<polygon fill="#63b8ff" stroke="#63b8ff" points="1112.87,-16.66 1102.3,-17.28 1110.95,-23.39 1112.87,-16.66"/>
</g>
<!-- Node24 -->
<g id="node24" class="node">
<title>Node24</title>
<g id="a_node24"><a xlink:title=" ">
<polygon fill="#e0e0e0" stroke="#999999" points="1283.5,-19 1245.5,-19 1245.5,0 1283.5,0 1283.5,-19"/>
<text text-anchor="middle" x="1264.5" y="-7" font-family="Helvetica,sans-Serif" font-size="10.00">array</text>
</a>
</g>
</g>
<!-- Node23&#45;&gt;Node24 -->
<g id="edge29" class="edge">
<title>Node23&#45;&gt;Node24</title>
<path fill="none" stroke="#63b8ff" d="M1264.5,-54.75C1264.5,-48.27 1264.5,-39.16 1264.5,-30.9"/>
<polygon fill="#63b8ff" stroke="#63b8ff" points="1268,-30.96 1264.5,-20.96 1261,-30.96 1268,-30.96"/>
</g>
<!-- Node25&#45;&gt;Node2 -->
<g id="edge32" class="edge">
<title>Node25&#45;&gt;Node2</title>
<path fill="none" stroke="#63b8ff" d="M1664.19,-74.03C1457.99,-94 1212.15,-109.23 1101.05,-115.44"/>
<polygon fill="#63b8ff" stroke="#63b8ff" points="1101.07,-111.94 1091.28,-115.98 1101.46,-118.92 1101.07,-111.94"/>
</g>
<!-- Node26 -->
<g id="node26" class="node">
<title>Node26</title>
<g id="a_node26"><a xlink:title=" ">
<polygon fill="#e0e0e0" stroke="#999999" points="1748.5,-19 1702.5,-19 1702.5,0 1748.5,0 1748.5,-19"/>
<text text-anchor="middle" x="1725.5" y="-7" font-family="Helvetica,sans-Serif" font-size="10.00">math.h</text>
</a>
</g>
</g>
<!-- Node25&#45;&gt;Node26 -->
<g id="edge33" class="edge">
<title>Node25&#45;&gt;Node26</title>
<path fill="none" stroke="#63b8ff" d="M1725.5,-54.75C1725.5,-48.27 1725.5,-39.16 1725.5,-30.9"/>
<polygon fill="#63b8ff" stroke="#63b8ff" points="1729,-30.96 1725.5,-20.96 1722,-30.96 1729,-30.96"/>
</g>
</g>
</svg>
