<?xml version="1.0" encoding="UTF-8" standalone="no"?>
<!DOCTYPE svg PUBLIC "-//W3C//DTD SVG 1.1//EN"
 "http://www.w3.org/Graphics/SVG/1.1/DTD/svg11.dtd">
<!-- Generated by graphviz version 7.0.5 (20221223.1930)
 -->
<!-- Title: /github/workspace/client/include/Engine/Draw.hpp Pages: 1 -->
<svg width="1916pt" height="456pt"
 viewBox="0.00 0.00 1916.23 456.00" xmlns="http://www.w3.org/2000/svg" xmlns:xlink="http://www.w3.org/1999/xlink">
<g id="graph0" class="graph" transform="scale(1 1) rotate(0) translate(4 452)">
<title>/github/workspace/client/include/Engine/Draw.hpp</title>
<!-- Node1 -->
<g id="node1" class="node">
<title>Node1</title>
<g id="a_node1"><a xlink:title=" ">
<polygon fill="#999999" stroke="#666666" points="1019.23,-448 893.23,-448 893.23,-418 1019.23,-418 1019.23,-448"/>
<text text-anchor="start" x="901.23" y="-436" font-family="Helvetica,sans-Serif" font-size="10.00">/github/workspace/client</text>
<text text-anchor="middle" x="956.23" y="-425" font-family="Helvetica,sans-Serif" font-size="10.00">/include/Engine/Draw.hpp</text>
</a>
</g>
</g>
<!-- Node2 -->
<g id="node2" class="node">
<title>Node2</title>
<g id="a_node2"><a xlink:href="Engine_8hpp.html" target="_top" xlink:title=" ">
<polygon fill="white" stroke="#666666" points="1022.73,-382 889.73,-382 889.73,-352 1022.73,-352 1022.73,-382"/>
<text text-anchor="start" x="897.73" y="-370" font-family="Helvetica,sans-Serif" font-size="10.00">/github/workspace/client</text>
<text text-anchor="middle" x="956.23" y="-359" font-family="Helvetica,sans-Serif" font-size="10.00">/include/Engine/Engine.hpp</text>
</a>
</g>
</g>
<!-- Node1&#45;&gt;Node2 -->
<g id="edge1" class="edge">
<title>Node1&#45;&gt;Node2</title>
<path fill="none" stroke="#63b8ff" d="M949.6,-406.39C949.29,-398.13 949.59,-389.28 950.52,-382.16"/>
<polygon fill="#63b8ff" stroke="#63b8ff" points="946.11,-406.6 950.39,-416.29 953.09,-406.04 946.11,-406.6"/>
</g>
<!-- Node30 -->
<g id="node30" class="node">
<title>Node30</title>
<g id="a_node30"><a xlink:href="Draw_8cpp.html" target="_top" xlink:title=" ">
<polygon fill="white" stroke="#666666" points="1163.23,-382 1041.23,-382 1041.23,-352 1163.23,-352 1163.23,-382"/>
<text text-anchor="start" x="1049.23" y="-370" font-family="Helvetica,sans-Serif" font-size="10.00">/github/workspace/client</text>
<text text-anchor="middle" x="1102.23" y="-359" font-family="Helvetica,sans-Serif" font-size="10.00">/src/Draw.cpp</text>
</a>
</g>
</g>
<!-- Node1&#45;&gt;Node30 -->
<g id="edge47" class="edge">
<title>Node1&#45;&gt;Node30</title>
<path fill="none" stroke="#63b8ff" d="M999.26,-413.14C1021.65,-403.32 1048.61,-391.51 1069.33,-382.43"/>
<polygon fill="#63b8ff" stroke="#63b8ff" points="998.14,-409.81 990.38,-417.03 1000.95,-416.22 998.14,-409.81"/>
</g>
<!-- Node2&#45;&gt;Node1 -->
<g id="edge11" class="edge">
<title>Node2&#45;&gt;Node1</title>
<path fill="none" stroke="#63b8ff" d="M962.86,-393.56C963.18,-401.82 962.88,-410.67 961.95,-417.8"/>
<polygon fill="#63b8ff" stroke="#63b8ff" points="966.36,-393.36 962.07,-383.67 959.38,-393.92 966.36,-393.36"/>
</g>
<!-- Node3 -->
<g id="node3" class="node">
<title>Node3</title>
<g id="a_node3"><a xlink:href="Bonus_8hpp.html" target="_top" xlink:title=" ">
<polygon fill="white" stroke="#666666" points="1197.73,-244.5 1040.73,-244.5 1040.73,-214.5 1197.73,-214.5 1197.73,-244.5"/>
<text text-anchor="start" x="1048.73" y="-232.5" font-family="Helvetica,sans-Serif" font-size="10.00">/github/workspace/client</text>
<text text-anchor="middle" x="1119.23" y="-221.5" font-family="Helvetica,sans-Serif" font-size="10.00">/include/Components/Bonus.hpp</text>
</a>
</g>
</g>
<!-- Node2&#45;&gt;Node3 -->
<g id="edge2" class="edge">
<title>Node2&#45;&gt;Node3</title>
<path fill="none" stroke="#63b8ff" d="M1034.04,-351.58C1109.78,-337.46 1213.75,-317.79 1215.23,-316 1238.46,-287.86 1192.86,-260.79 1156.87,-244.9"/>
<polygon fill="#63b8ff" stroke="#63b8ff" points="1033.76,-348.07 1024.57,-353.35 1035.05,-354.96 1033.76,-348.07"/>
</g>
<!-- Node4 -->
<g id="node4" class="node">
<title>Node4</title>
<g id="a_node4"><a xlink:href="include_8hpp.html" target="_top" xlink:title=" ">
<polygon fill="white" stroke="#666666" points="1180.23,-167.5 1058.23,-167.5 1058.23,-137.5 1180.23,-137.5 1180.23,-167.5"/>
<text text-anchor="start" x="1066.23" y="-155.5" font-family="Helvetica,sans-Serif" font-size="10.00">/github/workspace/client</text>
<text text-anchor="middle" x="1119.23" y="-144.5" font-family="Helvetica,sans-Serif" font-size="10.00">/include/include.hpp</text>
</a>
</g>
</g>
<!-- Node2&#45;&gt;Node4 -->
<g id="edge44" class="edge">
<title>Node2&#45;&gt;Node4</title>
<path fill="none" stroke="#63b8ff" d="M933.73,-343.7C903.85,-311.36 858.44,-250.73 891.23,-209 911.62,-183.05 997.51,-167.72 1057.83,-159.96"/>
<polygon fill="#63b8ff" stroke="#63b8ff" points="930.84,-345.73 940.26,-350.57 935.91,-340.91 930.84,-345.73"/>
</g>
<!-- Node5 -->
<g id="node5" class="node">
<title>Node5</title>
<g id="a_node5"><a xlink:href="Bullets_8hpp.html" target="_top" xlink:title=" ">
<polygon fill="white" stroke="#666666" points="843.73,-316 684.73,-316 684.73,-286 843.73,-286 843.73,-316"/>
<text text-anchor="start" x="692.73" y="-304" font-family="Helvetica,sans-Serif" font-size="10.00">/github/workspace/client</text>
<text text-anchor="middle" x="764.23" y="-293" font-family="Helvetica,sans-Serif" font-size="10.00">/include/Components/Bullets.hpp</text>
</a>
</g>
</g>
<!-- Node2&#45;&gt;Node5 -->
<g id="edge4" class="edge">
<title>Node2&#45;&gt;Node5</title>
<path fill="none" stroke="#63b8ff" d="M896.71,-348.2C865.71,-338.18 828.79,-325.83 801.76,-316.43"/>
<polygon fill="#63b8ff" stroke="#63b8ff" points="895.37,-351.45 905.96,-351.17 897.51,-344.78 895.37,-351.45"/>
</g>
<!-- Node7 -->
<g id="node7" class="node">
<title>Node7</title>
<g id="a_node7"><a xlink:href="Audio_8hpp.html" target="_top" xlink:title=" ">
<polygon fill="white" stroke="#666666" points="524.23,-316 396.23,-316 396.23,-286 524.23,-286 524.23,-316"/>
<text text-anchor="start" x="404.23" y="-304" font-family="Helvetica,sans-Serif" font-size="10.00">/github/workspace/client</text>
<text text-anchor="middle" x="460.23" y="-293" font-family="Helvetica,sans-Serif" font-size="10.00">/include/Engine/Audio.hpp</text>
</a>
</g>
</g>
<!-- Node2&#45;&gt;Node7 -->
<g id="edge8" class="edge">
<title>Node2&#45;&gt;Node7</title>
<path fill="none" stroke="#63b8ff" d="M877.99,-358.45C792.91,-349.85 653.06,-334.55 533.23,-316 530.43,-315.57 527.57,-315.1 524.68,-314.62"/>
<polygon fill="#63b8ff" stroke="#63b8ff" points="877.56,-361.93 887.86,-359.44 878.26,-354.96 877.56,-361.93"/>
</g>
<!-- Node8 -->
<g id="node8" class="node">
<title>Node8</title>
<g id="a_node8"><a xlink:href="Destroy_8hpp.html" target="_top" xlink:title=" ">
<polygon fill="white" stroke="#666666" points="174.73,-316 37.73,-316 37.73,-286 174.73,-286 174.73,-316"/>
<text text-anchor="start" x="45.73" y="-304" font-family="Helvetica,sans-Serif" font-size="10.00">/github/workspace/client</text>
<text text-anchor="middle" x="106.23" y="-293" font-family="Helvetica,sans-Serif" font-size="10.00">/include/Engine/Destroy.hpp</text>
</a>
</g>
</g>
<!-- Node2&#45;&gt;Node8 -->
<g id="edge9" class="edge">
<title>Node2&#45;&gt;Node8</title>
<path fill="none" stroke="#63b8ff" d="M878.16,-363.31C739.8,-358 442.62,-344.17 193.23,-316 187.3,-315.33 181.16,-314.54 175.01,-313.68"/>
<polygon fill="#63b8ff" stroke="#63b8ff" points="877.81,-366.8 887.94,-363.68 878.08,-359.81 877.81,-366.8"/>
</g>
<!-- Node10 -->
<g id="node10" class="node">
<title>Node10</title>
<g id="a_node10"><a xlink:href="Error_8hpp.html" target="_top" xlink:title=" ">
<polygon fill="white" stroke="#666666" points="666.23,-316 542.23,-316 542.23,-286 666.23,-286 666.23,-316"/>
<text text-anchor="start" x="550.23" y="-304" font-family="Helvetica,sans-Serif" font-size="10.00">/github/workspace/client</text>
<text text-anchor="middle" x="604.23" y="-293" font-family="Helvetica,sans-Serif" font-size="10.00">/include/Engine/Error.hpp</text>
</a>
</g>
</g>
<!-- Node2&#45;&gt;Node10 -->
<g id="edge12" class="edge">
<title>Node2&#45;&gt;Node10</title>
<path fill="none" stroke="#63b8ff" d="M878.47,-352.56C822.02,-342.71 743.83,-328.87 675.23,-316 672.39,-315.47 669.49,-314.92 666.56,-314.36"/>
<polygon fill="#63b8ff" stroke="#63b8ff" points="877.51,-355.95 887.97,-354.22 878.72,-349.05 877.51,-355.95"/>
</g>
<!-- Node12 -->
<g id="node12" class="node">
<title>Node12</title>
<g id="a_node12"><a xlink:href="client_2src_2main_8cpp.html" target="_top" xlink:title=" ">
<polygon fill="white" stroke="#666666" points="383.23,-30 261.23,-30 261.23,0 383.23,0 383.23,-30"/>
<text text-anchor="start" x="269.23" y="-18" font-family="Helvetica,sans-Serif" font-size="10.00">/github/workspace/client</text>
<text text-anchor="middle" x="322.23" y="-7" font-family="Helvetica,sans-Serif" font-size="10.00">/src/main.cpp</text>
</a>
</g>
</g>
<!-- Node2&#45;&gt;Node12 -->
<g id="edge46" class="edge">
<title>Node2&#45;&gt;Node12</title>
<path fill="none" stroke="#63b8ff" d="M878.06,-364.18C660.51,-358.78 61.73,-341.68 28.23,-316 -3.5,-291.67 0.23,-270.49 0.23,-230.5 0.23,-230.5 0.23,-230.5 0.23,-151.5 0.23,-39.6 167.48,-18.61 260.91,-15.62"/>
<polygon fill="#63b8ff" stroke="#63b8ff" points="877.77,-367.67 887.85,-364.42 877.94,-360.67 877.77,-367.67"/>
</g>
<!-- Node13 -->
<g id="node13" class="node">
<title>Node13</title>
<g id="a_node13"><a xlink:href="Event_8hpp.html" target="_top" xlink:title=" ">
<polygon fill="white" stroke="#666666" points="1066.23,-316 938.23,-316 938.23,-286 1066.23,-286 1066.23,-316"/>
<text text-anchor="start" x="946.23" y="-304" font-family="Helvetica,sans-Serif" font-size="10.00">/github/workspace/client</text>
<text text-anchor="middle" x="1002.23" y="-293" font-family="Helvetica,sans-Serif" font-size="10.00">/include/Engine/Event.hpp</text>
</a>
</g>
</g>
<!-- Node2&#45;&gt;Node13 -->
<g id="edge15" class="edge">
<title>Node2&#45;&gt;Node13</title>
<path fill="none" stroke="#63b8ff" d="M966.85,-342.11C972.7,-333.38 979.87,-323.78 986.34,-316.16"/>
<polygon fill="#63b8ff" stroke="#63b8ff" points="963.92,-340.2 961.53,-350.52 969.84,-343.94 963.92,-340.2"/>
</g>
<!-- Node14 -->
<g id="node14" class="node">
<title>Node14</title>
<g id="a_node14"><a xlink:href="Event_8cpp.html" target="_top" xlink:title=" ">
<polygon fill="white" stroke="#666666" points="1022.23,-244.5 900.23,-244.5 900.23,-214.5 1022.23,-214.5 1022.23,-244.5"/>
<text text-anchor="start" x="908.23" y="-232.5" font-family="Helvetica,sans-Serif" font-size="10.00">/github/workspace/client</text>
<text text-anchor="middle" x="961.23" y="-221.5" font-family="Helvetica,sans-Serif" font-size="10.00">/src/Event.cpp</text>
</a>
</g>
</g>
<!-- Node2&#45;&gt;Node14 -->
<g id="edge45" class="edge">
<title>Node2&#45;&gt;Node14</title>
<path fill="none" stroke="#63b8ff" d="M940.29,-342.22C935.8,-334.23 931.52,-325.04 929.23,-316 925.97,-303.07 925.79,-298.88 929.23,-286 933.32,-270.74 942.72,-255.34 950.28,-244.64"/>
<polygon fill="#63b8ff" stroke="#63b8ff" points="937.21,-343.88 945.38,-350.62 943.19,-340.25 937.21,-343.88"/>
</g>
<!-- Node15 -->
<g id="node15" class="node">
<title>Node15</title>
<g id="a_node15"><a xlink:href="Map_8hpp.html" target="_top" xlink:title=" ">
<polygon fill="white" stroke="#666666" points="1206.23,-316 1084.23,-316 1084.23,-286 1206.23,-286 1206.23,-316"/>
<text text-anchor="start" x="1092.23" y="-304" font-family="Helvetica,sans-Serif" font-size="10.00">/github/workspace/client</text>
<text text-anchor="middle" x="1145.23" y="-293" font-family="Helvetica,sans-Serif" font-size="10.00">/include/Engine/Map.hpp</text>
</a>
</g>
</g>
<!-- Node2&#45;&gt;Node15 -->
<g id="edge18" class="edge">
<title>Node2&#45;&gt;Node15</title>
<path fill="none" stroke="#63b8ff" d="M1009.19,-348.07C1038.7,-338.07 1074.97,-325.79 1102.63,-316.43"/>
<polygon fill="#63b8ff" stroke="#63b8ff" points="1008.43,-344.63 1000.08,-351.15 1010.68,-351.26 1008.43,-344.63"/>
</g>
<!-- Node16 -->
<g id="node16" class="node">
<title>Node16</title>
<g id="a_node16"><a xlink:href="StateManager_8hpp.html" target="_top" xlink:title=" ">
<polygon fill="white" stroke="#666666" points="1908.23,-244.5 1744.23,-244.5 1744.23,-214.5 1908.23,-214.5 1908.23,-244.5"/>
<text text-anchor="start" x="1752.23" y="-232.5" font-family="Helvetica,sans-Serif" font-size="10.00">/github/workspace/client</text>
<text text-anchor="middle" x="1826.23" y="-221.5" font-family="Helvetica,sans-Serif" font-size="10.00">/include/Engine/StateManager.hpp</text>
</a>
</g>
</g>
<!-- Node2&#45;&gt;Node16 -->
<g id="edge19" class="edge">
<title>Node2&#45;&gt;Node16</title>
<path fill="none" stroke="#63b8ff" d="M1034.97,-350.78C1197.11,-335.84 1582.01,-373.99 1722.23,-316 1758.94,-300.82 1790.76,-265.07 1809.66,-244.93"/>
<polygon fill="#63b8ff" stroke="#63b8ff" points="1034.78,-347.28 1025.19,-351.79 1035.5,-354.24 1034.78,-347.28"/>
</g>
<!-- Node18 -->
<g id="node18" class="node">
<title>Node18</title>
<g id="a_node18"><a xlink:href="Text_8hpp.html" target="_top" xlink:title=" ">
<polygon fill="white" stroke="#666666" points="1384.23,-316 1262.23,-316 1262.23,-286 1384.23,-286 1384.23,-316"/>
<text text-anchor="start" x="1270.23" y="-304" font-family="Helvetica,sans-Serif" font-size="10.00">/github/workspace/client</text>
<text text-anchor="middle" x="1323.23" y="-293" font-family="Helvetica,sans-Serif" font-size="10.00">/include/Engine/Text.hpp</text>
</a>
</g>
</g>
<!-- Node2&#45;&gt;Node18 -->
<g id="edge22" class="edge">
<title>Node2&#45;&gt;Node18</title>
<path fill="none" stroke="#63b8ff" d="M1034.04,-351.7C1129.94,-335 1155.86,-332.32 1248.23,-316 1252.67,-315.22 1257.25,-314.39 1261.86,-313.56"/>
<polygon fill="#63b8ff" stroke="#63b8ff" points="1033.69,-348.21 1024.44,-353.38 1034.89,-355.11 1033.69,-348.21"/>
</g>
<!-- Node19 -->
<g id="node19" class="node">
<title>Node19</title>
<g id="a_node19"><a xlink:href="Window_8hpp.html" target="_top" xlink:title=" ">
<polygon fill="white" stroke="#666666" points="1722.23,-316 1584.23,-316 1584.23,-286 1722.23,-286 1722.23,-316"/>
<text text-anchor="start" x="1592.23" y="-304" font-family="Helvetica,sans-Serif" font-size="10.00">/github/workspace/client</text>
<text text-anchor="middle" x="1653.23" y="-293" font-family="Helvetica,sans-Serif" font-size="10.00">/include/Engine/Window.hpp</text>
</a>
</g>
</g>
<!-- Node2&#45;&gt;Node19 -->
<g id="edge23" class="edge">
<title>Node2&#45;&gt;Node19</title>
<path fill="none" stroke="#63b8ff" d="M1034.78,-350.57C1260.01,-323.17 1323.05,-341.77 1554.23,-316 1563.82,-314.93 1573.95,-313.58 1583.94,-312.13"/>
<polygon fill="#63b8ff" stroke="#63b8ff" points="1034.57,-347.07 1025.08,-351.77 1035.43,-354.02 1034.57,-347.07"/>
</g>
<!-- Node21 -->
<g id="node21" class="node">
<title>Node21</title>
<g id="a_node21"><a xlink:href="EntitiesManager_8hpp.html" target="_top" xlink:title=" ">
<polygon fill="white" stroke="#666666" points="378.23,-316 202.23,-316 202.23,-286 378.23,-286 378.23,-316"/>
<text text-anchor="start" x="210.23" y="-304" font-family="Helvetica,sans-Serif" font-size="10.00">/github/workspace/client</text>
<text text-anchor="middle" x="290.23" y="-293" font-family="Helvetica,sans-Serif" font-size="10.00">/include/Entities/EntitiesManager.hpp</text>
</a>
</g>
</g>
<!-- Node2&#45;&gt;Node21 -->
<g id="edge27" class="edge">
<title>Node2&#45;&gt;Node21</title>
<path fill="none" stroke="#63b8ff" d="M878.15,-360.95C766.86,-353.09 556.59,-336.68 378.5,-316.03"/>
<polygon fill="#63b8ff" stroke="#63b8ff" points="877.86,-364.43 888.08,-361.64 878.35,-357.45 877.86,-364.43"/>
</g>
<!-- Node26 -->
<g id="node26" class="node">
<title>Node26</title>
<g id="a_node26"><a xlink:href="Properties_8hpp.html" target="_top" xlink:title=" ">
<polygon fill="white" stroke="#666666" points="1553.73,-316 1402.73,-316 1402.73,-286 1553.73,-286 1553.73,-316"/>
<text text-anchor="start" x="1410.73" y="-304" font-family="Helvetica,sans-Serif" font-size="10.00">/github/workspace/client</text>
<text text-anchor="middle" x="1478.23" y="-293" font-family="Helvetica,sans-Serif" font-size="10.00">/include/Entities/Properties.hpp</text>
</a>
</g>
</g>
<!-- Node2&#45;&gt;Node26 -->
<g id="edge37" class="edge">
<title>Node2&#45;&gt;Node26</title>
<path fill="none" stroke="#63b8ff" d="M1034.11,-351.82C1193.8,-329.71 1236.97,-336.64 1393.23,-316 1396.2,-315.61 1399.22,-315.19 1402.27,-314.76"/>
<polygon fill="#63b8ff" stroke="#63b8ff" points="1033.83,-348.33 1024.41,-353.18 1034.8,-355.26 1033.83,-348.33"/>
</g>
<!-- Node3&#45;&gt;Node4 -->
<g id="edge3" class="edge">
<title>Node3&#45;&gt;Node4</title>
<path fill="none" stroke="#63b8ff" d="M1119.23,-202.73C1119.23,-191.08 1119.23,-177.76 1119.23,-167.92"/>
<polygon fill="#63b8ff" stroke="#63b8ff" points="1115.73,-202.53 1119.23,-212.53 1122.73,-202.53 1115.73,-202.53"/>
</g>
<!-- Node5&#45;&gt;Node2 -->
<g id="edge5" class="edge">
<title>Node5&#45;&gt;Node2</title>
<path fill="none" stroke="#63b8ff" d="M823.96,-319.87C854.99,-329.9 891.9,-342.24 918.89,-351.64"/>
<polygon fill="#63b8ff" stroke="#63b8ff" points="825.29,-316.62 814.7,-316.89 823.15,-323.28 825.29,-316.62"/>
</g>
<!-- Node5&#45;&gt;Node4 -->
<g id="edge6" class="edge">
<title>Node5&#45;&gt;Node4</title>
<path fill="none" stroke="#63b8ff" d="M787.09,-277.57C814.22,-251 856.07,-210.15 858.23,-209 921.2,-175.47 1002.86,-162.19 1057.94,-156.94"/>
<polygon fill="#63b8ff" stroke="#63b8ff" points="784.65,-275.07 779.95,-284.57 789.55,-280.07 784.65,-275.07"/>
</g>
<!-- Node6 -->
<g id="node6" class="node">
<title>Node6</title>
<g id="a_node6"><a xlink:href="Bullets_8cpp.html" target="_top" xlink:title=" ">
<polygon fill="white" stroke="#666666" points="806.23,-244.5 684.23,-244.5 684.23,-214.5 806.23,-214.5 806.23,-244.5"/>
<text text-anchor="start" x="692.23" y="-232.5" font-family="Helvetica,sans-Serif" font-size="10.00">/github/workspace/client</text>
<text text-anchor="middle" x="745.23" y="-221.5" font-family="Helvetica,sans-Serif" font-size="10.00">/src/Bullets.cpp</text>
</a>
</g>
</g>
<!-- Node5&#45;&gt;Node6 -->
<g id="edge7" class="edge">
<title>Node5&#45;&gt;Node6</title>
<path fill="none" stroke="#63b8ff" d="M757.28,-274.58C754.55,-264.58 751.51,-253.45 749.17,-244.88"/>
<polygon fill="#63b8ff" stroke="#63b8ff" points="753.88,-275.42 759.9,-284.14 760.64,-273.57 753.88,-275.42"/>
</g>
<!-- Node9 -->
<g id="node9" class="node">
<title>Node9</title>
<g id="a_node9"><a xlink:href="Destroy_8cpp.html" target="_top" xlink:title=" ">
<polygon fill="white" stroke="#666666" points="150.23,-244.5 28.23,-244.5 28.23,-214.5 150.23,-214.5 150.23,-244.5"/>
<text text-anchor="start" x="36.23" y="-232.5" font-family="Helvetica,sans-Serif" font-size="10.00">/github/workspace/client</text>
<text text-anchor="middle" x="89.23" y="-221.5" font-family="Helvetica,sans-Serif" font-size="10.00">/src/Destroy.cpp</text>
</a>
</g>
</g>
<!-- Node8&#45;&gt;Node9 -->
<g id="edge10" class="edge">
<title>Node8&#45;&gt;Node9</title>
<path fill="none" stroke="#63b8ff" d="M100.02,-274.58C97.57,-264.58 94.85,-253.45 92.75,-244.88"/>
<polygon fill="#63b8ff" stroke="#63b8ff" points="96.58,-275.25 102.35,-284.13 103.37,-273.58 96.58,-275.25"/>
</g>
<!-- Node11 -->
<g id="node11" class="node">
<title>Node11</title>
<g id="a_node11"><a xlink:href="Error_8cpp.html" target="_top" xlink:title=" ">
<polygon fill="white" stroke="#666666" points="666.23,-244.5 544.23,-244.5 544.23,-214.5 666.23,-214.5 666.23,-244.5"/>
<text text-anchor="start" x="552.23" y="-232.5" font-family="Helvetica,sans-Serif" font-size="10.00">/github/workspace/client</text>
<text text-anchor="middle" x="605.23" y="-221.5" font-family="Helvetica,sans-Serif" font-size="10.00">/src/Error.cpp</text>
</a>
</g>
</g>
<!-- Node10&#45;&gt;Node11 -->
<g id="edge13" class="edge">
<title>Node10&#45;&gt;Node11</title>
<path fill="none" stroke="#63b8ff" d="M604.6,-274.26C604.75,-264.33 604.9,-253.36 605.03,-244.88"/>
<polygon fill="#63b8ff" stroke="#63b8ff" points="601.11,-274.04 604.46,-284.09 608.11,-274.14 601.11,-274.04"/>
</g>
<!-- Node10&#45;&gt;Node12 -->
<g id="edge14" class="edge">
<title>Node10&#45;&gt;Node12</title>
<path fill="none" stroke="#63b8ff" d="M567.75,-279.46C556.11,-271.49 543.99,-261.49 535.23,-250 482.29,-180.54 528.75,-126.99 466.23,-66 443.98,-44.28 411.82,-31.97 383.53,-25"/>
<polygon fill="#63b8ff" stroke="#63b8ff" points="565.76,-282.35 576.06,-284.85 569.57,-276.47 565.76,-282.35"/>
</g>
<!-- Node13&#45;&gt;Node2 -->
<g id="edge16" class="edge">
<title>Node13&#45;&gt;Node2</title>
<path fill="none" stroke="#63b8ff" d="M991.65,-325.84C985.81,-334.57 978.63,-344.17 972.16,-351.8"/>
<polygon fill="#63b8ff" stroke="#63b8ff" points="994.57,-327.77 996.96,-317.44 988.66,-324.02 994.57,-327.77"/>
</g>
<!-- Node13&#45;&gt;Node14 -->
<g id="edge17" class="edge">
<title>Node13&#45;&gt;Node14</title>
<path fill="none" stroke="#63b8ff" d="M988.01,-275.88C981.91,-265.55 974.99,-253.82 969.72,-244.88"/>
<polygon fill="#63b8ff" stroke="#63b8ff" points="984.87,-277.46 992.97,-284.3 990.9,-273.9 984.87,-277.46"/>
</g>
<!-- Node16&#45;&gt;Node2 -->
<g id="edge20" class="edge">
<title>Node16&#45;&gt;Node2</title>
<path fill="none" stroke="#63b8ff" d="M1815.04,-254.25C1799.71,-274.72 1771.78,-302.96 1740.23,-316 1596.5,-375.44 1195.71,-333.87 1041.23,-352 1035.37,-352.69 1029.28,-353.55 1023.16,-354.51"/>
<polygon fill="#63b8ff" stroke="#63b8ff" points="1817.81,-256.39 1820.64,-246.18 1812.06,-252.4 1817.81,-256.39"/>
</g>
<!-- Node17 -->
<g id="node17" class="node">
<title>Node17</title>
<g id="a_node17"><a xlink:href="StateManager_8cpp.html" target="_top" xlink:title=" ">
<polygon fill="white" stroke="#666666" points="1162.23,-30 1040.23,-30 1040.23,0 1162.23,0 1162.23,-30"/>
<text text-anchor="start" x="1048.23" y="-18" font-family="Helvetica,sans-Serif" font-size="10.00">/github/workspace/client</text>
<text text-anchor="middle" x="1101.23" y="-7" font-family="Helvetica,sans-Serif" font-size="10.00">/src/StateManager.cpp</text>
</a>
</g>
</g>
<!-- Node16&#45;&gt;Node17 -->
<g id="edge21" class="edge">
<title>Node16&#45;&gt;Node17</title>
<path fill="none" stroke="#63b8ff" d="M1782.91,-209.62C1733.9,-188.74 1651.37,-155.01 1578.23,-132 1431.29,-85.77 1254.06,-46.99 1162.56,-28.19"/>
<polygon fill="#63b8ff" stroke="#63b8ff" points="1781.48,-212.81 1792.05,-213.53 1784.23,-206.38 1781.48,-212.81"/>
</g>
<!-- Node19&#45;&gt;Node2 -->
<g id="edge24" class="edge">
<title>Node19&#45;&gt;Node2</title>
<path fill="none" stroke="#63b8ff" d="M1572.59,-315.96C1572.47,-315.97 1572.35,-315.99 1572.23,-316 1337.15,-342.2 1275.93,-322.53 1041.23,-352 1035.38,-352.74 1029.29,-353.63 1023.17,-354.61"/>
<polygon fill="#63b8ff" stroke="#63b8ff" points="1572.73,-319.47 1582.24,-314.8 1571.89,-312.52 1572.73,-319.47"/>
</g>
<!-- Node19&#45;&gt;Node16 -->
<g id="edge25" class="edge">
<title>Node19&#45;&gt;Node16</title>
<path fill="none" stroke="#63b8ff" d="M1699.61,-281.37C1728.12,-269.91 1764.12,-255.45 1790.43,-244.88"/>
<polygon fill="#63b8ff" stroke="#63b8ff" points="1698.46,-278.06 1690.48,-285.04 1701.07,-284.56 1698.46,-278.06"/>
</g>
<!-- Node20 -->
<g id="node20" class="node">
<title>Node20</title>
<g id="a_node20"><a xlink:href="Window_8cpp.html" target="_top" xlink:title=" ">
<polygon fill="white" stroke="#666666" points="1726.23,-244.5 1604.23,-244.5 1604.23,-214.5 1726.23,-214.5 1726.23,-244.5"/>
<text text-anchor="start" x="1612.23" y="-232.5" font-family="Helvetica,sans-Serif" font-size="10.00">/github/workspace/client</text>
<text text-anchor="middle" x="1665.23" y="-221.5" font-family="Helvetica,sans-Serif" font-size="10.00">/src/Window.cpp</text>
</a>
</g>
</g>
<!-- Node19&#45;&gt;Node20 -->
<g id="edge26" class="edge">
<title>Node19&#45;&gt;Node20</title>
<path fill="none" stroke="#63b8ff" d="M1657.68,-274.26C1659.39,-264.33 1661.29,-253.36 1662.75,-244.88"/>
<polygon fill="#63b8ff" stroke="#63b8ff" points="1654.23,-273.66 1655.98,-284.11 1661.13,-274.85 1654.23,-273.66"/>
</g>
<!-- Node21&#45;&gt;Node2 -->
<g id="edge28" class="edge">
<title>Node21&#45;&gt;Node2</title>
<path fill="none" stroke="#63b8ff" d="M389.97,-315.26C392.08,-315.51 394.17,-315.76 396.23,-316 574.28,-336.66 784.56,-353.07 889.63,-360.93"/>
<polygon fill="#63b8ff" stroke="#63b8ff" points="390.43,-311.79 380.07,-314.01 389.56,-318.73 390.43,-311.79"/>
</g>
<!-- Node21&#45;&gt;Node4 -->
<g id="edge29" class="edge">
<title>Node21&#45;&gt;Node4</title>
<path fill="none" stroke="#63b8ff" d="M360.98,-282.59C391.68,-274.14 427.74,-262.99 459.23,-250 494.71,-235.37 498.51,-220.15 535.23,-209 631.71,-179.71 928.3,-162.53 1057.74,-156.25"/>
<polygon fill="#63b8ff" stroke="#63b8ff" points="360.13,-279.19 351.39,-285.18 361.96,-285.95 360.13,-279.19"/>
</g>
<!-- Node22 -->
<g id="node22" class="node">
<title>Node22</title>
<g id="a_node22"><a xlink:href="IGameState_8hpp.html" target="_top" xlink:title=" ">
<polygon fill="white" stroke="#666666" points="308.23,-250 168.23,-250 168.23,-209 308.23,-209 308.23,-250"/>
<text text-anchor="start" x="176.23" y="-238" font-family="Helvetica,sans-Serif" font-size="10.00">/github/workspace/client</text>
<text text-anchor="start" x="176.23" y="-227" font-family="Helvetica,sans-Serif" font-size="10.00">/include/system/gameStates</text>
<text text-anchor="middle" x="238.23" y="-216" font-family="Helvetica,sans-Serif" font-size="10.00">/IGameState.hpp</text>
</a>
</g>
</g>
<!-- Node21&#45;&gt;Node22 -->
<g id="edge30" class="edge">
<title>Node21&#45;&gt;Node22</title>
<path fill="none" stroke="#63b8ff" d="M272.7,-276.57C266.35,-268.08 259.24,-258.58 253.13,-250.42"/>
<polygon fill="#63b8ff" stroke="#63b8ff" points="269.76,-278.48 278.55,-284.39 275.36,-274.28 269.76,-278.48"/>
</g>
<!-- Node25 -->
<g id="node25" class="node">
<title>Node25</title>
<g id="a_node25"><a xlink:href="EntitiesManager_8cpp.html" target="_top" xlink:title=" ">
<polygon fill="white" stroke="#666666" points="450.23,-244.5 326.23,-244.5 326.23,-214.5 450.23,-214.5 450.23,-244.5"/>
<text text-anchor="start" x="334.23" y="-232.5" font-family="Helvetica,sans-Serif" font-size="10.00">/github/workspace/client</text>
<text text-anchor="middle" x="388.23" y="-221.5" font-family="Helvetica,sans-Serif" font-size="10.00">/src/EntitiesManager.cpp</text>
</a>
</g>
</g>
<!-- Node21&#45;&gt;Node25 -->
<g id="edge36" class="edge">
<title>Node21&#45;&gt;Node25</title>
<path fill="none" stroke="#63b8ff" d="M319.76,-279.06C335.33,-268.02 354.03,-254.76 367.95,-244.88"/>
<polygon fill="#63b8ff" stroke="#63b8ff" points="317.91,-276.08 311.77,-284.72 321.96,-281.79 317.91,-276.08"/>
</g>
<!-- Node23 -->
<g id="node23" class="node">
<title>Node23</title>
<g id="a_node23"><a xlink:href="SGamePlay_8hpp.html" target="_top" xlink:title=" ">
<polygon fill="white" stroke="#666666" points="338.23,-173 198.23,-173 198.23,-132 338.23,-132 338.23,-173"/>
<text text-anchor="start" x="206.23" y="-161" font-family="Helvetica,sans-Serif" font-size="10.00">/github/workspace/client</text>
<text text-anchor="start" x="206.23" y="-150" font-family="Helvetica,sans-Serif" font-size="10.00">/include/system/gameStates</text>
<text text-anchor="middle" x="268.23" y="-139" font-family="Helvetica,sans-Serif" font-size="10.00">/SGamePlay.hpp</text>
</a>
</g>
</g>
<!-- Node22&#45;&gt;Node23 -->
<g id="edge31" class="edge">
<title>Node22&#45;&gt;Node23</title>
<path fill="none" stroke="#63b8ff" d="M250.35,-198.21C253.7,-189.83 257.25,-180.95 260.3,-173.33"/>
<polygon fill="#63b8ff" stroke="#63b8ff" points="247.14,-196.8 246.68,-207.39 253.64,-199.4 247.14,-196.8"/>
</g>
<!-- Node23&#45;&gt;Node12 -->
<g id="edge35" class="edge">
<title>Node23&#45;&gt;Node12</title>
<path fill="none" stroke="#63b8ff" d="M272.12,-120.48C274.95,-103.83 279.64,-83.25 287.23,-66 292.95,-53 302.28,-39.91 309.86,-30.39"/>
<polygon fill="#63b8ff" stroke="#63b8ff" points="268.67,-119.89 270.61,-130.31 275.59,-120.95 268.67,-119.89"/>
</g>
<!-- Node24 -->
<g id="node24" class="node">
<title>Node24</title>
<g id="a_node24"><a xlink:href="GameEngine_8hpp.html" target="_top" xlink:title=" ">
<polygon fill="white" stroke="#666666" points="457.73,-96 296.73,-96 296.73,-66 457.73,-66 457.73,-96"/>
<text text-anchor="start" x="304.73" y="-84" font-family="Helvetica,sans-Serif" font-size="10.00">/github/workspace/client</text>
<text text-anchor="middle" x="377.23" y="-73" font-family="Helvetica,sans-Serif" font-size="10.00">/include/system/GameEngine.hpp</text>
</a>
</g>
</g>
<!-- Node23&#45;&gt;Node24 -->
<g id="edge32" class="edge">
<title>Node23&#45;&gt;Node24</title>
<path fill="none" stroke="#63b8ff" d="M308.86,-125.6C324.34,-115.72 341.43,-104.83 354.65,-96.4"/>
<polygon fill="#63b8ff" stroke="#63b8ff" points="307.29,-122.44 300.74,-130.77 311.06,-128.35 307.29,-122.44"/>
</g>
<!-- Node24&#45;&gt;Node12 -->
<g id="edge34" class="edge">
<title>Node24&#45;&gt;Node12</title>
<path fill="none" stroke="#63b8ff" d="M357.68,-57.24C349.92,-48.21 341.24,-38.11 334.41,-30.16"/>
<polygon fill="#63b8ff" stroke="#63b8ff" points="354.87,-59.35 364.04,-64.65 360.18,-54.78 354.87,-59.35"/>
</g>
<!-- Node24&#45;&gt;Node17 -->
<g id="edge33" class="edge">
<title>Node24&#45;&gt;Node17</title>
<path fill="none" stroke="#63b8ff" d="M469.62,-71.83C619.88,-58.55 913.15,-32.63 1040.16,-21.4"/>
<polygon fill="#63b8ff" stroke="#63b8ff" points="469.34,-68.34 459.69,-72.71 469.95,-75.32 469.34,-68.34"/>
</g>
<!-- Node26&#45;&gt;Node4 -->
<g id="edge43" class="edge">
<title>Node26&#45;&gt;Node4</title>
<path fill="none" stroke="#63b8ff" d="M1452.22,-278.18C1442.32,-269.61 1431.06,-259.56 1421.23,-250 1403.43,-232.67 1404.85,-221.24 1383.23,-209 1320.06,-173.23 1236.61,-160.43 1180.59,-155.9"/>
<polygon fill="#63b8ff" stroke="#63b8ff" points="1449.84,-280.74 1459.71,-284.59 1454.39,-275.42 1449.84,-280.74"/>
</g>
<!-- Node27 -->
<g id="node27" class="node">
<title>Node27</title>
<g id="a_node27"><a xlink:href="Enemy_8hpp.html" target="_top" xlink:title=" ">
<polygon fill="white" stroke="#666666" points="1374.23,-244.5 1216.23,-244.5 1216.23,-214.5 1374.23,-214.5 1374.23,-244.5"/>
<text text-anchor="start" x="1224.23" y="-232.5" font-family="Helvetica,sans-Serif" font-size="10.00">/github/workspace/client</text>
<text text-anchor="middle" x="1295.23" y="-221.5" font-family="Helvetica,sans-Serif" font-size="10.00">/include/Components/Enemy.hpp</text>
</a>
</g>
</g>
<!-- Node26&#45;&gt;Node27 -->
<g id="edge38" class="edge">
<title>Node26&#45;&gt;Node27</title>
<path fill="none" stroke="#63b8ff" d="M1429.58,-281.52C1399.35,-270.04 1361.06,-255.5 1333.1,-244.88"/>
<polygon fill="#63b8ff" stroke="#63b8ff" points="1428.31,-284.78 1438.9,-285.06 1430.79,-278.24 1428.31,-284.78"/>
</g>
<!-- Node28 -->
<g id="node28" class="node">
<title>Node28</title>
<g id="a_node28"><a xlink:href="Player_8hpp.html" target="_top" xlink:title=" ">
<polygon fill="white" stroke="#666666" points="1586.23,-244.5 1430.23,-244.5 1430.23,-214.5 1586.23,-214.5 1586.23,-244.5"/>
<text text-anchor="start" x="1438.23" y="-232.5" font-family="Helvetica,sans-Serif" font-size="10.00">/github/workspace/client</text>
<text text-anchor="middle" x="1508.23" y="-221.5" font-family="Helvetica,sans-Serif" font-size="10.00">/include/Components/Player.hpp</text>
</a>
</g>
</g>
<!-- Node26&#45;&gt;Node28 -->
<g id="edge40" class="edge">
<title>Node26&#45;&gt;Node28</title>
<path fill="none" stroke="#63b8ff" d="M1488.92,-275.23C1493.32,-265.06 1498.25,-253.64 1502.03,-244.88"/>
<polygon fill="#63b8ff" stroke="#63b8ff" points="1485.8,-273.64 1485.05,-284.21 1492.23,-276.42 1485.8,-273.64"/>
</g>
<!-- Node27&#45;&gt;Node4 -->
<g id="edge39" class="edge">
<title>Node27&#45;&gt;Node4</title>
<path fill="none" stroke="#63b8ff" d="M1250.98,-209.64C1220.61,-196.7 1180.91,-179.78 1153.06,-167.92"/>
<polygon fill="#63b8ff" stroke="#63b8ff" points="1249.33,-212.75 1259.91,-213.45 1252.08,-206.31 1249.33,-212.75"/>
</g>
<!-- Node28&#45;&gt;Node4 -->
<g id="edge41" class="edge">
<title>Node28&#45;&gt;Node4</title>
<path fill="none" stroke="#63b8ff" d="M1430.03,-211.79C1425.36,-210.83 1420.74,-209.9 1416.23,-209 1334.83,-192.77 1240.57,-175.4 1180.46,-164.5"/>
<polygon fill="#63b8ff" stroke="#63b8ff" points="1428.96,-215.14 1439.46,-213.74 1430.37,-208.29 1428.96,-215.14"/>
</g>
<!-- Node29 -->
<g id="node29" class="node">
<title>Node29</title>
<g id="a_node29"><a xlink:href="Player_8cpp.html" target="_top" xlink:title=" ">
<polygon fill="white" stroke="#666666" points="1569.23,-167.5 1447.23,-167.5 1447.23,-137.5 1569.23,-137.5 1569.23,-167.5"/>
<text text-anchor="start" x="1455.23" y="-155.5" font-family="Helvetica,sans-Serif" font-size="10.00">/github/workspace/client</text>
<text text-anchor="middle" x="1508.23" y="-144.5" font-family="Helvetica,sans-Serif" font-size="10.00">/src/Player.cpp</text>
</a>
</g>
</g>
<!-- Node28&#45;&gt;Node29 -->
<g id="edge42" class="edge">
<title>Node28&#45;&gt;Node29</title>
<path fill="none" stroke="#63b8ff" d="M1508.23,-202.73C1508.23,-191.08 1508.23,-177.76 1508.23,-167.92"/>
<polygon fill="#63b8ff" stroke="#63b8ff" points="1504.73,-202.53 1508.23,-212.53 1511.73,-202.53 1504.73,-202.53"/>
</g>
</g>
</svg>
