<?xml version="1.0" encoding="UTF-8" standalone="no"?>
<!DOCTYPE svg PUBLIC "-//W3C//DTD SVG 1.1//EN"
 "http://www.w3.org/Graphics/SVG/1.1/DTD/svg11.dtd">
<!-- Generated by graphviz version 7.0.5 (20221223.1930)
 -->
<!-- Title: /github/workspace/client/include/Components/Enemy.hpp Pages: 1 -->
<svg width="1903pt" height="258pt"
 viewBox="0.00 0.00 1902.50 258.00" xmlns="http://www.w3.org/2000/svg" xmlns:xlink="http://www.w3.org/1999/xlink">
<g id="graph0" class="graph" transform="scale(1 1) rotate(0) translate(4 254)">
<title>/github/workspace/client/include/Components/Enemy.hpp</title>
<!-- Node1 -->
<g id="node1" class="node">
<title>Node1</title>
<g id="a_node1"><a xlink:title=" ">
<polygon fill="#999999" stroke="#666666" points="1185.5,-250 1027.5,-250 1027.5,-220 1185.5,-220 1185.5,-250"/>
<text text-anchor="start" x="1035.5" y="-238" font-family="Helvetica,sans-Serif" font-size="10.00">/github/workspace/client</text>
<text text-anchor="middle" x="1106.5" y="-227" font-family="Helvetica,sans-Serif" font-size="10.00">/include/Components/Enemy.hpp</text>
</a>
</g>
</g>
<!-- Node2 -->
<g id="node2" class="node">
<title>Node2</title>
<g id="a_node2"><a xlink:href="Properties_8hpp.html" target="_top" xlink:title=" ">
<polygon fill="white" stroke="#666666" points="1163.5,-184 1049.5,-184 1049.5,-165 1163.5,-165 1163.5,-184"/>
<text text-anchor="middle" x="1106.5" y="-172" font-family="Helvetica,sans-Serif" font-size="10.00">Entities/Properties.hpp</text>
</a>
</g>
</g>
<!-- Node1&#45;&gt;Node2 -->
<g id="edge1" class="edge">
<title>Node1&#45;&gt;Node2</title>
<path fill="none" stroke="#63b8ff" d="M1106.5,-219.54C1106.5,-212.34 1106.5,-203.53 1106.5,-195.68"/>
<polygon fill="#63b8ff" stroke="#63b8ff" points="1110,-195.69 1106.5,-185.69 1103,-195.69 1110,-195.69"/>
</g>
<!-- Node3 -->
<g id="node3" class="node">
<title>Node3</title>
<g id="a_node3"><a xlink:href="Engine_8hpp.html" target="_top" xlink:title=" ">
<polygon fill="white" stroke="#666666" points="1154.5,-129 1058.5,-129 1058.5,-110 1154.5,-110 1154.5,-129"/>
<text text-anchor="middle" x="1106.5" y="-117" font-family="Helvetica,sans-Serif" font-size="10.00">Engine/Engine.hpp</text>
</a>
</g>
</g>
<!-- Node2&#45;&gt;Node3 -->
<g id="edge2" class="edge">
<title>Node2&#45;&gt;Node3</title>
<path fill="none" stroke="#63b8ff" d="M1106.5,-164.75C1106.5,-158.27 1106.5,-149.16 1106.5,-140.9"/>
<polygon fill="#63b8ff" stroke="#63b8ff" points="1110,-140.96 1106.5,-130.96 1103,-140.96 1110,-140.96"/>
</g>
<!-- Node4 -->
<g id="node4" class="node">
<title>Node4</title>
<g id="a_node4"><a xlink:title=" ">
<polygon fill="#e0e0e0" stroke="#999999" points="89,-74 0,-74 0,-55 89,-55 89,-74"/>
<text text-anchor="middle" x="44.5" y="-62" font-family="Helvetica,sans-Serif" font-size="10.00">SFML/Audio.hpp</text>
</a>
</g>
</g>
<!-- Node3&#45;&gt;Node4 -->
<g id="edge3" class="edge">
<title>Node3&#45;&gt;Node4</title>
<path fill="none" stroke="#63b8ff" d="M1058.1,-118.28C914.02,-117.23 475.16,-111.07 100.58,-74.07"/>
<polygon fill="#63b8ff" stroke="#63b8ff" points="101.04,-70.6 90.75,-73.09 100.35,-77.56 101.04,-70.6"/>
</g>
<!-- Node5 -->
<g id="node5" class="node">
<title>Node5</title>
<g id="a_node5"><a xlink:title=" ">
<polygon fill="#e0e0e0" stroke="#999999" points="211.5,-74 107.5,-74 107.5,-55 211.5,-55 211.5,-74"/>
<text text-anchor="middle" x="159.5" y="-62" font-family="Helvetica,sans-Serif" font-size="10.00">SFML/Graphics.hpp</text>
</a>
</g>
</g>
<!-- Node3&#45;&gt;Node5 -->
<g id="edge4" class="edge">
<title>Node3&#45;&gt;Node5</title>
<path fill="none" stroke="#63b8ff" d="M1058.37,-117.58C926.49,-114.72 548.05,-104.41 222.77,-74.12"/>
<polygon fill="#63b8ff" stroke="#63b8ff" points="223.5,-70.68 213.21,-73.23 222.84,-77.65 223.5,-70.68"/>
</g>
<!-- Node6 -->
<g id="node6" class="node">
<title>Node6</title>
<g id="a_node6"><a xlink:title=" ">
<polygon fill="#e0e0e0" stroke="#999999" points="331,-74 230,-74 230,-55 331,-55 331,-74"/>
<text text-anchor="middle" x="280.5" y="-62" font-family="Helvetica,sans-Serif" font-size="10.00">SFML/Network.hpp</text>
</a>
</g>
</g>
<!-- Node3&#45;&gt;Node6 -->
<g id="edge5" class="edge">
<title>Node3&#45;&gt;Node6</title>
<path fill="none" stroke="#63b8ff" d="M1058.37,-117.13C938.93,-113.43 619.14,-101.65 342.38,-74.21"/>
<polygon fill="#63b8ff" stroke="#63b8ff" points="343.12,-70.77 332.82,-73.25 342.42,-77.73 343.12,-70.77"/>
</g>
<!-- Node7 -->
<g id="node7" class="node">
<title>Node7</title>
<g id="a_node7"><a xlink:title=" ">
<polygon fill="#e0e0e0" stroke="#999999" points="448,-74 349,-74 349,-55 448,-55 448,-74"/>
<text text-anchor="middle" x="398.5" y="-62" font-family="Helvetica,sans-Serif" font-size="10.00">SFML/Window.hpp</text>
</a>
</g>
</g>
<!-- Node3&#45;&gt;Node7 -->
<g id="edge6" class="edge">
<title>Node3&#45;&gt;Node7</title>
<path fill="none" stroke="#63b8ff" d="M1058.36,-116.43C952.28,-111.6 690.18,-98.23 459.66,-74.14"/>
<polygon fill="#63b8ff" stroke="#63b8ff" points="460.18,-70.68 449.87,-73.11 459.44,-77.64 460.18,-70.68"/>
</g>
<!-- Node8 -->
<g id="node8" class="node">
<title>Node8</title>
<g id="a_node8"><a xlink:title=" ">
<polygon fill="#e0e0e0" stroke="#999999" points="564.5,-74 466.5,-74 466.5,-55 564.5,-55 564.5,-74"/>
<text text-anchor="middle" x="515.5" y="-62" font-family="Helvetica,sans-Serif" font-size="10.00">SFML/System.hpp</text>
</a>
</g>
</g>
<!-- Node3&#45;&gt;Node8 -->
<g id="edge7" class="edge">
<title>Node3&#45;&gt;Node8</title>
<path fill="none" stroke="#63b8ff" d="M1058.26,-115.48C966.5,-109.52 760.25,-95.08 576.09,-74.23"/>
<polygon fill="#63b8ff" stroke="#63b8ff" points="576.67,-70.77 566.34,-73.11 575.88,-77.73 576.67,-70.77"/>
</g>
<!-- Node9 -->
<g id="node9" class="node">
<title>Node9</title>
<g id="a_node9"><a xlink:title=" ">
<polygon fill="#e0e0e0" stroke="#999999" points="636.5,-74 582.5,-74 582.5,-55 636.5,-55 636.5,-74"/>
<text text-anchor="middle" x="609.5" y="-62" font-family="Helvetica,sans-Serif" font-size="10.00">iostream</text>
</a>
</g>
</g>
<!-- Node3&#45;&gt;Node9 -->
<g id="edge8" class="edge">
<title>Node3&#45;&gt;Node9</title>
<path fill="none" stroke="#63b8ff" d="M1058.1,-115.99C975.8,-111.26 803.17,-99.3 648.08,-74.21"/>
<polygon fill="#63b8ff" stroke="#63b8ff" points="648.87,-70.8 638.43,-72.63 647.73,-77.7 648.87,-70.8"/>
</g>
<!-- Node10 -->
<g id="node10" class="node">
<title>Node10</title>
<g id="a_node10"><a xlink:title=" ">
<polygon fill="#e0e0e0" stroke="#999999" points="704.5,-74 654.5,-74 654.5,-55 704.5,-55 704.5,-74"/>
<text text-anchor="middle" x="679.5" y="-62" font-family="Helvetica,sans-Serif" font-size="10.00">fstream</text>
</a>
</g>
</g>
<!-- Node3&#45;&gt;Node10 -->
<g id="edge9" class="edge">
<title>Node3&#45;&gt;Node10</title>
<path fill="none" stroke="#63b8ff" d="M1058.1,-115.09C985.74,-109.54 844.91,-97 715.92,-74.21"/>
<polygon fill="#63b8ff" stroke="#63b8ff" points="716.62,-70.78 706.16,-72.45 715.38,-77.67 716.62,-70.78"/>
</g>
<!-- Node11 -->
<g id="node11" class="node">
<title>Node11</title>
<g id="a_node11"><a xlink:title=" ">
<polygon fill="#e0e0e0" stroke="#999999" points="770.5,-74 722.5,-74 722.5,-55 770.5,-55 770.5,-74"/>
<text text-anchor="middle" x="746.5" y="-62" font-family="Helvetica,sans-Serif" font-size="10.00">string.h</text>
</a>
</g>
</g>
<!-- Node3&#45;&gt;Node11 -->
<g id="edge10" class="edge">
<title>Node3&#45;&gt;Node11</title>
<path fill="none" stroke="#63b8ff" d="M1058.01,-113.69C996.16,-107.17 885.72,-94.2 782.22,-74.33"/>
<polygon fill="#63b8ff" stroke="#63b8ff" points="782.91,-70.9 772.42,-72.42 781.57,-77.77 782.91,-70.9"/>
</g>
<!-- Node12 -->
<g id="node12" class="node">
<title>Node12</title>
<g id="a_node12"><a xlink:title=" ">
<polygon fill="#e0e0e0" stroke="#999999" points="838.5,-74 788.5,-74 788.5,-55 838.5,-55 838.5,-74"/>
<text text-anchor="middle" x="813.5" y="-62" font-family="Helvetica,sans-Serif" font-size="10.00">unistd.h</text>
</a>
</g>
</g>
<!-- Node3&#45;&gt;Node12 -->
<g id="edge11" class="edge">
<title>Node3&#45;&gt;Node12</title>
<path fill="none" stroke="#63b8ff" d="M1058.08,-111.29C1008.24,-103.62 928.1,-90.61 849.74,-74.34"/>
<polygon fill="#63b8ff" stroke="#63b8ff" points="850.69,-70.96 840.18,-72.33 849.25,-77.81 850.69,-70.96"/>
</g>
<!-- Node13 -->
<g id="node13" class="node">
<title>Node13</title>
<g id="a_node13"><a xlink:title=" ">
<polygon fill="#e0e0e0" stroke="#999999" points="922,-74 857,-74 857,-55 922,-55 922,-74"/>
<text text-anchor="middle" x="889.5" y="-62" font-family="Helvetica,sans-Serif" font-size="10.00">sys/types.h</text>
</a>
</g>
</g>
<!-- Node3&#45;&gt;Node13 -->
<g id="edge12" class="edge">
<title>Node3&#45;&gt;Node13</title>
<path fill="none" stroke="#63b8ff" d="M1069.69,-109.51C1031.97,-100.3 973.33,-85.97 933.26,-76.19"/>
<polygon fill="#63b8ff" stroke="#63b8ff" points="934.24,-72.82 923.7,-73.85 932.58,-79.62 934.24,-72.82"/>
</g>
<!-- Node14 -->
<g id="node14" class="node">
<title>Node14</title>
<g id="a_node14"><a xlink:title=" ">
<polygon fill="#e0e0e0" stroke="#999999" points="992.5,-19 948.5,-19 948.5,0 992.5,0 992.5,-19"/>
<text text-anchor="middle" x="970.5" y="-7" font-family="Helvetica,sans-Serif" font-size="10.00">vector</text>
</a>
</g>
</g>
<!-- Node3&#45;&gt;Node14 -->
<g id="edge13" class="edge">
<title>Node3&#45;&gt;Node14</title>
<path fill="none" stroke="#63b8ff" d="M1058.27,-116.56C1027.46,-112.51 989.64,-101.72 969.5,-74 960.47,-61.57 961.57,-43.86 964.44,-30.3"/>
<polygon fill="#63b8ff" stroke="#63b8ff" points="967.79,-31.31 966.96,-20.74 961.02,-29.52 967.79,-31.31"/>
</g>
<!-- Node15 -->
<g id="node15" class="node">
<title>Node15</title>
<g id="a_node15"><a xlink:title=" ">
<polygon fill="#e0e0e0" stroke="#999999" points="1192.5,-74 1136.5,-74 1136.5,-55 1192.5,-55 1192.5,-74"/>
<text text-anchor="middle" x="1164.5" y="-62" font-family="Helvetica,sans-Serif" font-size="10.00">stdbool.h</text>
</a>
</g>
</g>
<!-- Node3&#45;&gt;Node15 -->
<g id="edge14" class="edge">
<title>Node3&#45;&gt;Node15</title>
<path fill="none" stroke="#63b8ff" d="M1116.34,-109.51C1124.55,-102 1136.48,-91.1 1146.41,-82.03"/>
<polygon fill="#63b8ff" stroke="#63b8ff" points="1148.67,-84.71 1153.69,-75.38 1143.95,-79.54 1148.67,-84.71"/>
</g>
<!-- Node16 -->
<g id="node16" class="node">
<title>Node16</title>
<g id="a_node16"><a xlink:title=" ">
<polygon fill="#e0e0e0" stroke="#999999" points="1258,-74 1211,-74 1211,-55 1258,-55 1258,-74"/>
<text text-anchor="middle" x="1234.5" y="-62" font-family="Helvetica,sans-Serif" font-size="10.00">stdlib.h</text>
</a>
</g>
</g>
<!-- Node3&#45;&gt;Node16 -->
<g id="edge15" class="edge">
<title>Node3&#45;&gt;Node16</title>
<path fill="none" stroke="#63b8ff" d="M1128.21,-109.51C1148.66,-101.04 1179.52,-88.27 1202.73,-78.66"/>
<polygon fill="#63b8ff" stroke="#63b8ff" points="1203.81,-82 1211.71,-74.94 1201.13,-75.53 1203.81,-82"/>
</g>
<!-- Node17 -->
<g id="node17" class="node">
<title>Node17</title>
<g id="a_node17"><a xlink:title=" ">
<polygon fill="#e0e0e0" stroke="#999999" points="1334.5,-74 1276.5,-74 1276.5,-55 1334.5,-55 1334.5,-74"/>
<text text-anchor="middle" x="1305.5" y="-62" font-family="Helvetica,sans-Serif" font-size="10.00">exception</text>
</a>
</g>
</g>
<!-- Node3&#45;&gt;Node17 -->
<g id="edge16" class="edge">
<title>Node3&#45;&gt;Node17</title>
<path fill="none" stroke="#63b8ff" d="M1140.26,-109.51C1174.83,-100.3 1228.56,-85.99 1265.31,-76.21"/>
<polygon fill="#63b8ff" stroke="#63b8ff" points="1265.9,-79.67 1274.66,-73.71 1264.1,-72.9 1265.9,-79.67"/>
</g>
<!-- Node18 -->
<g id="node18" class="node">
<title>Node18</title>
<g id="a_node18"><a xlink:href="Window_8hpp.html" target="_top" xlink:title=" ">
<polygon fill="white" stroke="#666666" points="1422,-19 1321,-19 1321,0 1422,0 1422,-19"/>
<text text-anchor="middle" x="1371.5" y="-7" font-family="Helvetica,sans-Serif" font-size="10.00">Engine/Window.hpp</text>
</a>
</g>
</g>
<!-- Node3&#45;&gt;Node18 -->
<g id="edge17" class="edge">
<title>Node3&#45;&gt;Node18</title>
<path fill="none" stroke="#63b8ff" d="M1154.78,-114.11C1213.21,-108.23 1306.91,-95.89 1334.5,-74 1348.07,-63.24 1355.23,-44.54 1360.49,-30.21"/>
<polygon fill="#63b8ff" stroke="#63b8ff" points="1363.75,-31.48 1364.03,-20.89 1357.21,-29 1363.75,-31.48"/>
</g>
<!-- Node19 -->
<g id="node19" class="node">
<title>Node19</title>
<g id="a_node19"><a xlink:href="Draw_8hpp.html" target="_top" xlink:title=" ">
<polygon fill="white" stroke="#666666" points="1644,-74 1555,-74 1555,-55 1644,-55 1644,-74"/>
<text text-anchor="middle" x="1599.5" y="-62" font-family="Helvetica,sans-Serif" font-size="10.00">Engine/Draw.hpp</text>
</a>
</g>
</g>
<!-- Node3&#45;&gt;Node19 -->
<g id="edge19" class="edge">
<title>Node3&#45;&gt;Node19</title>
<path fill="none" stroke="#63b8ff" d="M1154.91,-113.98C1234.68,-106.83 1398.23,-91.88 1536.5,-74 1538.78,-73.71 1541.11,-73.39 1543.47,-73.06"/>
<polygon fill="#63b8ff" stroke="#63b8ff" points="1543.75,-76.56 1553.15,-71.66 1542.75,-69.63 1543.75,-76.56"/>
</g>
<!-- Node20 -->
<g id="node20" class="node">
<title>Node20</title>
<g id="a_node20"><a xlink:href="Event_8hpp.html" target="_top" xlink:title=" ">
<polygon fill="white" stroke="#666666" points="1754.5,-74 1662.5,-74 1662.5,-55 1754.5,-55 1754.5,-74"/>
<text text-anchor="middle" x="1708.5" y="-62" font-family="Helvetica,sans-Serif" font-size="10.00">Engine/Event.hpp</text>
</a>
</g>
</g>
<!-- Node3&#45;&gt;Node20 -->
<g id="edge21" class="edge">
<title>Node3&#45;&gt;Node20</title>
<path fill="none" stroke="#63b8ff" d="M1154.81,-115.37C1249.07,-109.37 1463.54,-94.97 1643.5,-74 1645.83,-73.73 1648.21,-73.43 1650.62,-73.12"/>
<polygon fill="#63b8ff" stroke="#63b8ff" points="1651.08,-76.59 1660.52,-71.78 1650.14,-69.66 1651.08,-76.59"/>
</g>
<!-- Node24 -->
<g id="node24" class="node">
<title>Node24</title>
<g id="a_node24"><a xlink:href="StateManager_8hpp.html" target="_top" xlink:title=" ">
<polygon fill="white" stroke="#666666" points="1536.5,-74 1408.5,-74 1408.5,-55 1536.5,-55 1536.5,-74"/>
<text text-anchor="middle" x="1472.5" y="-62" font-family="Helvetica,sans-Serif" font-size="10.00">Engine/StateManager.hpp</text>
</a>
</g>
</g>
<!-- Node3&#45;&gt;Node24 -->
<g id="edge26" class="edge">
<title>Node3&#45;&gt;Node24</title>
<path fill="none" stroke="#63b8ff" d="M1154.79,-110.79C1216.54,-101.53 1323.96,-85.95 1396.65,-75.69"/>
<polygon fill="#63b8ff" stroke="#63b8ff" points="1397.1,-79.17 1406.51,-74.31 1396.12,-72.23 1397.1,-79.17"/>
</g>
<!-- Node25 -->
<g id="node25" class="node">
<title>Node25</title>
<g id="a_node25"><a xlink:href="EntitiesManager_8hpp.html" target="_top" xlink:title=" ">
<polygon fill="white" stroke="#666666" points="1118.5,-74 978.5,-74 978.5,-55 1118.5,-55 1118.5,-74"/>
<text text-anchor="middle" x="1048.5" y="-62" font-family="Helvetica,sans-Serif" font-size="10.00">Entities/EntitiesManager.hpp</text>
</a>
</g>
</g>
<!-- Node3&#45;&gt;Node25 -->
<g id="edge29" class="edge">
<title>Node3&#45;&gt;Node25</title>
<path fill="none" stroke="#63b8ff" d="M1091.44,-109.51C1081.86,-102.16 1069.87,-91.55 1060.84,-82.59"/>
<polygon fill="#63b8ff" stroke="#63b8ff" points="1063.48,-80.28 1054.05,-75.45 1058.41,-85.11 1063.48,-80.28"/>
</g>
<!-- Node27 -->
<g id="node27" class="node">
<title>Node27</title>
<g id="a_node27"><a xlink:href="Bullets_8hpp.html" target="_top" xlink:title=" ">
<polygon fill="white" stroke="#666666" points="1894.5,-74 1772.5,-74 1772.5,-55 1894.5,-55 1894.5,-74"/>
<text text-anchor="middle" x="1833.5" y="-62" font-family="Helvetica,sans-Serif" font-size="10.00">Components/Bullets.hpp</text>
</a>
</g>
</g>
<!-- Node3&#45;&gt;Node27 -->
<g id="edge33" class="edge">
<title>Node3&#45;&gt;Node27</title>
<path fill="none" stroke="#63b8ff" d="M1154.89,-115.85C1262.77,-110.08 1530.57,-95.16 1754.5,-74 1756.65,-73.8 1758.83,-73.58 1761.04,-73.36"/>
<polygon fill="#63b8ff" stroke="#63b8ff" points="1761.14,-76.87 1770.72,-72.32 1760.4,-69.9 1761.14,-76.87"/>
</g>
<!-- Node18&#45;&gt;Node3 -->
<g id="edge18" class="edge">
<title>Node18&#45;&gt;Node3</title>
<path fill="none" stroke="#63b8ff" d="M1375.88,-19.47C1376.73,-33.45 1369.87,-60.22 1352.5,-74 1324.65,-96.09 1229.47,-108.45 1165.91,-114.27"/>
<polygon fill="#63b8ff" stroke="#63b8ff" points="1165.99,-110.75 1156.34,-115.12 1166.6,-117.73 1165.99,-110.75"/>
</g>
<!-- Node19&#45;&gt;Node3 -->
<g id="edge20" class="edge">
<title>Node19&#45;&gt;Node3</title>
<path fill="none" stroke="#63b8ff" d="M1554.08,-74.05C1415.79,-91.92 1252.34,-106.86 1166.25,-113.99"/>
<polygon fill="#63b8ff" stroke="#63b8ff" points="1166.07,-110.5 1156.39,-114.8 1166.64,-117.47 1166.07,-110.5"/>
</g>
<!-- Node20&#45;&gt;Node3 -->
<g id="edge22" class="edge">
<title>Node20&#45;&gt;Node3</title>
<path fill="none" stroke="#63b8ff" d="M1662.09,-73.93C1661.89,-73.95 1661.7,-73.98 1661.5,-74 1481.85,-94.93 1267.81,-109.32 1165.92,-115.34"/>
<polygon fill="#63b8ff" stroke="#63b8ff" points="1165.93,-111.83 1156.15,-115.91 1166.34,-118.82 1165.93,-111.83"/>
</g>
<!-- Node21 -->
<g id="node21" class="node">
<title>Node21</title>
<g id="a_node21"><a xlink:title=" ">
<polygon fill="#e0e0e0" stroke="#999999" points="1660,-19 1631,-19 1631,0 1660,0 1660,-19"/>
<text text-anchor="middle" x="1645.5" y="-7" font-family="Helvetica,sans-Serif" font-size="10.00">list</text>
</a>
</g>
</g>
<!-- Node20&#45;&gt;Node21 -->
<g id="edge23" class="edge">
<title>Node20&#45;&gt;Node21</title>
<path fill="none" stroke="#63b8ff" d="M1697.81,-54.51C1688.8,-46.93 1675.67,-35.88 1664.82,-26.75"/>
<polygon fill="#63b8ff" stroke="#63b8ff" points="1667.09,-24.09 1657.19,-20.33 1662.59,-29.45 1667.09,-24.09"/>
</g>
<!-- Node22 -->
<g id="node22" class="node">
<title>Node22</title>
<g id="a_node22"><a xlink:title=" ">
<polygon fill="#e0e0e0" stroke="#999999" points="1721,-19 1678,-19 1678,0 1721,0 1721,-19"/>
<text text-anchor="middle" x="1699.5" y="-7" font-family="Helvetica,sans-Serif" font-size="10.00">queue</text>
</a>
</g>
</g>
<!-- Node20&#45;&gt;Node22 -->
<g id="edge24" class="edge">
<title>Node20&#45;&gt;Node22</title>
<path fill="none" stroke="#63b8ff" d="M1707.01,-54.75C1705.9,-48.19 1704.33,-38.95 1702.91,-30.6"/>
<polygon fill="#63b8ff" stroke="#63b8ff" points="1706.4,-30.21 1701.27,-20.93 1699.5,-31.38 1706.4,-30.21"/>
</g>
<!-- Node23 -->
<g id="node23" class="node">
<title>Node23</title>
<g id="a_node23"><a xlink:title=" ">
<polygon fill="#e0e0e0" stroke="#999999" points="1801.5,-19 1739.5,-19 1739.5,0 1801.5,0 1801.5,-19"/>
<text text-anchor="middle" x="1770.5" y="-7" font-family="Helvetica,sans-Serif" font-size="10.00">Skaldi.hpp</text>
</a>
</g>
</g>
<!-- Node20&#45;&gt;Node23 -->
<g id="edge25" class="edge">
<title>Node20&#45;&gt;Node23</title>
<path fill="none" stroke="#63b8ff" d="M1719.02,-54.51C1727.89,-46.93 1740.81,-35.88 1751.49,-26.75"/>
<polygon fill="#63b8ff" stroke="#63b8ff" points="1753.66,-29.5 1758.99,-20.34 1749.11,-24.18 1753.66,-29.5"/>
</g>
<!-- Node24&#45;&gt;Node3 -->
<g id="edge27" class="edge">
<title>Node24&#45;&gt;Node3</title>
<path fill="none" stroke="#63b8ff" d="M1415.87,-74.46C1348.02,-84.59 1235.05,-100.94 1165.97,-110.61"/>
<polygon fill="#63b8ff" stroke="#63b8ff" points="1165.77,-107.1 1156.35,-111.95 1166.74,-114.03 1165.77,-107.1"/>
</g>
<!-- Node24&#45;&gt;Node18 -->
<g id="edge28" class="edge">
<title>Node24&#45;&gt;Node18</title>
<path fill="none" stroke="#63b8ff" d="M1455.37,-54.51C1439.75,-46.31 1416.42,-34.07 1398.33,-24.58"/>
<polygon fill="#63b8ff" stroke="#63b8ff" points="1400.2,-21.61 1389.72,-20.06 1396.95,-27.81 1400.2,-21.61"/>
</g>
<!-- Node25&#45;&gt;Node3 -->
<g id="edge30" class="edge">
<title>Node25&#45;&gt;Node3</title>
<path fill="none" stroke="#63b8ff" d="M1063.49,-74.44C1073.12,-81.82 1085.19,-92.5 1094.24,-101.5"/>
<polygon fill="#63b8ff" stroke="#63b8ff" points="1091.62,-103.82 1101.05,-108.65 1096.69,-98.99 1091.62,-103.82"/>
</g>
<!-- Node25&#45;&gt;Node14 -->
<g id="edge32" class="edge">
<title>Node25&#45;&gt;Node14</title>
<path fill="none" stroke="#63b8ff" d="M1035.27,-54.51C1023.66,-46.62 1006.53,-34.98 992.8,-25.65"/>
<polygon fill="#63b8ff" stroke="#63b8ff" points="995.03,-22.93 984.79,-20.21 991.09,-28.72 995.03,-22.93"/>
</g>
<!-- Node26 -->
<g id="node26" class="node">
<title>Node26</title>
<g id="a_node26"><a xlink:title=" ">
<polygon fill="#e0e0e0" stroke="#999999" points="1067.5,-19 1029.5,-19 1029.5,0 1067.5,0 1067.5,-19"/>
<text text-anchor="middle" x="1048.5" y="-7" font-family="Helvetica,sans-Serif" font-size="10.00">array</text>
</a>
</g>
</g>
<!-- Node25&#45;&gt;Node26 -->
<g id="edge31" class="edge">
<title>Node25&#45;&gt;Node26</title>
<path fill="none" stroke="#63b8ff" d="M1048.5,-54.75C1048.5,-48.27 1048.5,-39.16 1048.5,-30.9"/>
<polygon fill="#63b8ff" stroke="#63b8ff" points="1052,-30.96 1048.5,-20.96 1045,-30.96 1052,-30.96"/>
</g>
<!-- Node27&#45;&gt;Node3 -->
<g id="edge34" class="edge">
<title>Node27&#45;&gt;Node3</title>
<path fill="none" stroke="#63b8ff" d="M1772.16,-74.03C1549.18,-95.1 1282.81,-109.97 1166.09,-115.78"/>
<polygon fill="#63b8ff" stroke="#63b8ff" points="1166.26,-112.27 1156.45,-116.26 1166.61,-119.26 1166.26,-112.27"/>
</g>
<!-- Node28 -->
<g id="node28" class="node">
<title>Node28</title>
<g id="a_node28"><a xlink:title=" ">
<polygon fill="#e0e0e0" stroke="#999999" points="1865.5,-19 1819.5,-19 1819.5,0 1865.5,0 1865.5,-19"/>
<text text-anchor="middle" x="1842.5" y="-7" font-family="Helvetica,sans-Serif" font-size="10.00">math.h</text>
</a>
</g>
</g>
<!-- Node27&#45;&gt;Node28 -->
<g id="edge35" class="edge">
<title>Node27&#45;&gt;Node28</title>
<path fill="none" stroke="#63b8ff" d="M1834.99,-54.75C1836.1,-48.19 1837.67,-38.95 1839.09,-30.6"/>
<polygon fill="#63b8ff" stroke="#63b8ff" points="1842.5,-31.38 1840.73,-20.93 1835.6,-30.21 1842.5,-31.38"/>
</g>
</g>
</svg>
