<?xml version="1.0" encoding="UTF-8" standalone="no"?>
<!DOCTYPE svg PUBLIC "-//W3C//DTD SVG 1.1//EN"
 "http://www.w3.org/Graphics/SVG/1.1/DTD/svg11.dtd">
<!-- Generated by graphviz version 7.0.5 (20221223.1930)
 -->
<!-- Title: /github/workspace/client/include/Engine/Engine.hpp Pages: 1 -->
<svg width="1903pt" height="148pt"
 viewBox="0.00 0.00 1902.50 148.00" xmlns="http://www.w3.org/2000/svg" xmlns:xlink="http://www.w3.org/1999/xlink">
<g id="graph0" class="graph" transform="scale(1 1) rotate(0) translate(4 144)">
<title>/github/workspace/client/include/Engine/Engine.hpp</title>
<!-- Node1 -->
<g id="node1" class="node">
<title>Node1</title>
<g id="a_node1"><a xlink:title=" ">
<polygon fill="#999999" stroke="#666666" points="1173,-140 1040,-140 1040,-110 1173,-110 1173,-140"/>
<text text-anchor="start" x="1048" y="-128" font-family="Helvetica,sans-Serif" font-size="10.00">/github/workspace/client</text>
<text text-anchor="middle" x="1106.5" y="-117" font-family="Helvetica,sans-Serif" font-size="10.00">/include/Engine/Engine.hpp</text>
</a>
</g>
</g>
<!-- Node2 -->
<g id="node2" class="node">
<title>Node2</title>
<g id="a_node2"><a xlink:title=" ">
<polygon fill="#e0e0e0" stroke="#999999" points="89,-74 0,-74 0,-55 89,-55 89,-74"/>
<text text-anchor="middle" x="44.5" y="-62" font-family="Helvetica,sans-Serif" font-size="10.00">SFML/Audio.hpp</text>
</a>
</g>
</g>
<!-- Node1&#45;&gt;Node2 -->
<g id="edge1" class="edge">
<title>Node1&#45;&gt;Node2</title>
<path fill="none" stroke="#63b8ff" d="M1039.67,-123.14C879.48,-120.56 460.78,-110.68 100.68,-74.09"/>
<polygon fill="#63b8ff" stroke="#63b8ff" points="101.05,-70.61 90.75,-73.07 100.34,-77.58 101.05,-70.61"/>
</g>
<!-- Node3 -->
<g id="node3" class="node">
<title>Node3</title>
<g id="a_node3"><a xlink:title=" ">
<polygon fill="#e0e0e0" stroke="#999999" points="211.5,-74 107.5,-74 107.5,-55 211.5,-55 211.5,-74"/>
<text text-anchor="middle" x="159.5" y="-62" font-family="Helvetica,sans-Serif" font-size="10.00">SFML/Graphics.hpp</text>
</a>
</g>
</g>
<!-- Node1&#45;&gt;Node3 -->
<g id="edge2" class="edge">
<title>Node1&#45;&gt;Node3</title>
<path fill="none" stroke="#63b8ff" d="M1039.67,-122.1C893.49,-117.55 534.19,-104.14 222.77,-74.14"/>
<polygon fill="#63b8ff" stroke="#63b8ff" points="223.51,-70.69 213.22,-73.21 222.83,-77.66 223.51,-70.69"/>
</g>
<!-- Node4 -->
<g id="node4" class="node">
<title>Node4</title>
<g id="a_node4"><a xlink:title=" ">
<polygon fill="#e0e0e0" stroke="#999999" points="331,-74 230,-74 230,-55 331,-55 331,-74"/>
<text text-anchor="middle" x="280.5" y="-62" font-family="Helvetica,sans-Serif" font-size="10.00">SFML/Network.hpp</text>
</a>
</g>
</g>
<!-- Node1&#45;&gt;Node4 -->
<g id="edge3" class="edge">
<title>Node1&#45;&gt;Node4</title>
<path fill="none" stroke="#63b8ff" d="M1039.67,-121.4C908.16,-115.9 606.35,-101.39 342.66,-74.25"/>
<polygon fill="#63b8ff" stroke="#63b8ff" points="343.13,-70.79 332.82,-73.23 342.41,-77.75 343.13,-70.79"/>
</g>
<!-- Node5 -->
<g id="node5" class="node">
<title>Node5</title>
<g id="a_node5"><a xlink:title=" ">
<polygon fill="#e0e0e0" stroke="#999999" points="448,-74 349,-74 349,-55 448,-55 448,-74"/>
<text text-anchor="middle" x="398.5" y="-62" font-family="Helvetica,sans-Serif" font-size="10.00">SFML/Window.hpp</text>
</a>
</g>
</g>
<!-- Node1&#45;&gt;Node5 -->
<g id="edge4" class="edge">
<title>Node1&#45;&gt;Node5</title>
<path fill="none" stroke="#63b8ff" d="M1039.56,-120.31C923.71,-113.6 678.09,-97.96 459.73,-74.17"/>
<polygon fill="#63b8ff" stroke="#63b8ff" points="460.19,-70.7 449.87,-73.09 459.43,-77.66 460.19,-70.7"/>
</g>
<!-- Node6 -->
<g id="node6" class="node">
<title>Node6</title>
<g id="a_node6"><a xlink:title=" ">
<polygon fill="#e0e0e0" stroke="#999999" points="564.5,-74 466.5,-74 466.5,-55 564.5,-55 564.5,-74"/>
<text text-anchor="middle" x="515.5" y="-62" font-family="Helvetica,sans-Serif" font-size="10.00">SFML/System.hpp</text>
</a>
</g>
</g>
<!-- Node1&#45;&gt;Node6 -->
<g id="edge5" class="edge">
<title>Node1&#45;&gt;Node6</title>
<path fill="none" stroke="#63b8ff" d="M1039.91,-118.87C941.07,-111.01 749.44,-94.83 576.22,-74.27"/>
<polygon fill="#63b8ff" stroke="#63b8ff" points="576.69,-70.8 566.34,-73.09 575.85,-77.75 576.69,-70.8"/>
</g>
<!-- Node7 -->
<g id="node7" class="node">
<title>Node7</title>
<g id="a_node7"><a xlink:title=" ">
<polygon fill="#e0e0e0" stroke="#999999" points="636.5,-74 582.5,-74 582.5,-55 636.5,-55 636.5,-74"/>
<text text-anchor="middle" x="609.5" y="-62" font-family="Helvetica,sans-Serif" font-size="10.00">iostream</text>
</a>
</g>
</g>
<!-- Node1&#45;&gt;Node7 -->
<g id="edge6" class="edge">
<title>Node1&#45;&gt;Node7</title>
<path fill="none" stroke="#63b8ff" d="M1039.72,-119.37C952.02,-112.7 793.08,-98.63 648.24,-74.27"/>
<polygon fill="#63b8ff" stroke="#63b8ff" points="648.88,-70.83 638.44,-72.6 647.71,-77.74 648.88,-70.83"/>
</g>
<!-- Node8 -->
<g id="node8" class="node">
<title>Node8</title>
<g id="a_node8"><a xlink:title=" ">
<polygon fill="#e0e0e0" stroke="#999999" points="704.5,-74 654.5,-74 654.5,-55 704.5,-55 704.5,-74"/>
<text text-anchor="middle" x="679.5" y="-62" font-family="Helvetica,sans-Serif" font-size="10.00">fstream</text>
</a>
</g>
</g>
<!-- Node1&#45;&gt;Node8 -->
<g id="edge7" class="edge">
<title>Node1&#45;&gt;Node8</title>
<path fill="none" stroke="#63b8ff" d="M1039.72,-117.94C963.6,-110.48 835.29,-96.27 715.84,-74.23"/>
<polygon fill="#63b8ff" stroke="#63b8ff" points="716.64,-70.82 706.17,-72.43 715.35,-77.7 716.64,-70.82"/>
</g>
<!-- Node9 -->
<g id="node9" class="node">
<title>Node9</title>
<g id="a_node9"><a xlink:title=" ">
<polygon fill="#e0e0e0" stroke="#999999" points="770.5,-74 722.5,-74 722.5,-55 770.5,-55 770.5,-74"/>
<text text-anchor="middle" x="746.5" y="-62" font-family="Helvetica,sans-Serif" font-size="10.00">string.h</text>
</a>
</g>
</g>
<!-- Node1&#45;&gt;Node9 -->
<g id="edge8" class="edge">
<title>Node1&#45;&gt;Node9</title>
<path fill="none" stroke="#63b8ff" d="M1039.77,-115.79C975.96,-107.49 876.86,-93.43 782.17,-74.38"/>
<polygon fill="#63b8ff" stroke="#63b8ff" points="782.93,-70.96 772.43,-72.39 781.53,-77.82 782.93,-70.96"/>
</g>
<!-- Node10 -->
<g id="node10" class="node">
<title>Node10</title>
<g id="a_node10"><a xlink:title=" ">
<polygon fill="#e0e0e0" stroke="#999999" points="838.5,-74 788.5,-74 788.5,-55 838.5,-55 838.5,-74"/>
<text text-anchor="middle" x="813.5" y="-62" font-family="Helvetica,sans-Serif" font-size="10.00">unistd.h</text>
</a>
</g>
</g>
<!-- Node1&#45;&gt;Node10 -->
<g id="edge9" class="edge">
<title>Node1&#45;&gt;Node10</title>
<path fill="none" stroke="#63b8ff" d="M1039.76,-112.14C989.89,-103.05 919.81,-89.77 849.54,-74.36"/>
<polygon fill="#63b8ff" stroke="#63b8ff" points="850.71,-71.03 840.19,-72.29 849.2,-77.87 850.71,-71.03"/>
</g>
<!-- Node11 -->
<g id="node11" class="node">
<title>Node11</title>
<g id="a_node11"><a xlink:title=" ">
<polygon fill="#e0e0e0" stroke="#999999" points="922,-74 857,-74 857,-55 922,-55 922,-74"/>
<text text-anchor="middle" x="889.5" y="-62" font-family="Helvetica,sans-Serif" font-size="10.00">sys/types.h</text>
</a>
</g>
</g>
<!-- Node1&#45;&gt;Node11 -->
<g id="edge10" class="edge">
<title>Node1&#45;&gt;Node11</title>
<path fill="none" stroke="#63b8ff" d="M1052.86,-109.54C1015.94,-99.59 967.52,-86.53 933,-77.23"/>
<polygon fill="#63b8ff" stroke="#63b8ff" points="934.34,-73.96 923.78,-74.74 932.52,-80.72 934.34,-73.96"/>
</g>
<!-- Node12 -->
<g id="node12" class="node">
<title>Node12</title>
<g id="a_node12"><a xlink:title=" ">
<polygon fill="#e0e0e0" stroke="#999999" points="992.5,-19 948.5,-19 948.5,0 992.5,0 992.5,-19"/>
<text text-anchor="middle" x="970.5" y="-7" font-family="Helvetica,sans-Serif" font-size="10.00">vector</text>
</a>
</g>
</g>
<!-- Node1&#45;&gt;Node12 -->
<g id="edge11" class="edge">
<title>Node1&#45;&gt;Node12</title>
<path fill="none" stroke="#63b8ff" d="M1039.58,-116.12C1013.25,-109.38 985.54,-96.93 969.5,-74 960.69,-61.41 961.77,-43.71 964.58,-30.2"/>
<polygon fill="#63b8ff" stroke="#63b8ff" points="967.92,-31.25 967.04,-20.69 961.15,-29.5 967.92,-31.25"/>
</g>
<!-- Node13 -->
<g id="node13" class="node">
<title>Node13</title>
<g id="a_node13"><a xlink:title=" ">
<polygon fill="#e0e0e0" stroke="#999999" points="1192.5,-74 1136.5,-74 1136.5,-55 1192.5,-55 1192.5,-74"/>
<text text-anchor="middle" x="1164.5" y="-62" font-family="Helvetica,sans-Serif" font-size="10.00">stdbool.h</text>
</a>
</g>
</g>
<!-- Node1&#45;&gt;Node13 -->
<g id="edge12" class="edge">
<title>Node1&#45;&gt;Node13</title>
<path fill="none" stroke="#63b8ff" d="M1120.84,-109.54C1129,-101.3 1139.27,-90.94 1147.8,-82.34"/>
<polygon fill="#63b8ff" stroke="#63b8ff" points="1150.28,-84.82 1154.83,-75.25 1145.31,-79.89 1150.28,-84.82"/>
</g>
<!-- Node14 -->
<g id="node14" class="node">
<title>Node14</title>
<g id="a_node14"><a xlink:title=" ">
<polygon fill="#e0e0e0" stroke="#999999" points="1258,-74 1211,-74 1211,-55 1258,-55 1258,-74"/>
<text text-anchor="middle" x="1234.5" y="-62" font-family="Helvetica,sans-Serif" font-size="10.00">stdlib.h</text>
</a>
</g>
</g>
<!-- Node1&#45;&gt;Node14 -->
<g id="edge13" class="edge">
<title>Node1&#45;&gt;Node14</title>
<path fill="none" stroke="#63b8ff" d="M1138.14,-109.54C1158.5,-100.23 1184.8,-88.22 1204.77,-79.09"/>
<polygon fill="#63b8ff" stroke="#63b8ff" points="1206.13,-82.32 1213.77,-74.98 1203.22,-75.95 1206.13,-82.32"/>
</g>
<!-- Node15 -->
<g id="node15" class="node">
<title>Node15</title>
<g id="a_node15"><a xlink:title=" ">
<polygon fill="#e0e0e0" stroke="#999999" points="1334.5,-74 1276.5,-74 1276.5,-55 1334.5,-55 1334.5,-74"/>
<text text-anchor="middle" x="1305.5" y="-62" font-family="Helvetica,sans-Serif" font-size="10.00">exception</text>
</a>
</g>
</g>
<!-- Node1&#45;&gt;Node15 -->
<g id="edge14" class="edge">
<title>Node1&#45;&gt;Node15</title>
<path fill="none" stroke="#63b8ff" d="M1155.69,-109.54C1189.42,-99.63 1233.61,-86.63 1265.24,-77.34"/>
<polygon fill="#63b8ff" stroke="#63b8ff" points="1266.22,-80.7 1274.83,-74.52 1264.25,-73.98 1266.22,-80.7"/>
</g>
<!-- Node16 -->
<g id="node16" class="node">
<title>Node16</title>
<g id="a_node16"><a xlink:href="Window_8hpp.html" target="_top" xlink:title=" ">
<polygon fill="white" stroke="#666666" points="1422,-19 1321,-19 1321,0 1422,0 1422,-19"/>
<text text-anchor="middle" x="1371.5" y="-7" font-family="Helvetica,sans-Serif" font-size="10.00">Engine/Window.hpp</text>
</a>
</g>
</g>
<!-- Node1&#45;&gt;Node16 -->
<g id="edge15" class="edge">
<title>Node1&#45;&gt;Node16</title>
<path fill="none" stroke="#63b8ff" d="M1173.23,-115.84C1231.3,-107.9 1309.77,-94.07 1334.5,-74 1347.95,-63.09 1355.12,-44.41 1360.42,-30.12"/>
<polygon fill="#63b8ff" stroke="#63b8ff" points="1363.67,-31.43 1363.99,-20.84 1357.13,-28.92 1363.67,-31.43"/>
</g>
<!-- Node17 -->
<g id="node17" class="node">
<title>Node17</title>
<g id="a_node17"><a xlink:href="Draw_8hpp.html" target="_top" xlink:title=" ">
<polygon fill="white" stroke="#666666" points="1644,-74 1555,-74 1555,-55 1644,-55 1644,-74"/>
<text text-anchor="middle" x="1599.5" y="-62" font-family="Helvetica,sans-Serif" font-size="10.00">Engine/Draw.hpp</text>
</a>
</g>
</g>
<!-- Node1&#45;&gt;Node17 -->
<g id="edge17" class="edge">
<title>Node1&#45;&gt;Node17</title>
<path fill="none" stroke="#63b8ff" d="M1173.22,-116.64C1257.87,-107.63 1408.04,-91.42 1536.5,-74 1538.78,-73.69 1541.11,-73.36 1543.47,-73.03"/>
<polygon fill="#63b8ff" stroke="#63b8ff" points="1543.76,-76.52 1553.14,-71.6 1542.74,-69.6 1543.76,-76.52"/>
</g>
<!-- Node18 -->
<g id="node18" class="node">
<title>Node18</title>
<g id="a_node18"><a xlink:href="Event_8hpp.html" target="_top" xlink:title=" ">
<polygon fill="white" stroke="#666666" points="1754.5,-74 1662.5,-74 1662.5,-55 1754.5,-55 1754.5,-74"/>
<text text-anchor="middle" x="1708.5" y="-62" font-family="Helvetica,sans-Serif" font-size="10.00">Engine/Event.hpp</text>
</a>
</g>
</g>
<!-- Node1&#45;&gt;Node18 -->
<g id="edge19" class="edge">
<title>Node1&#45;&gt;Node18</title>
<path fill="none" stroke="#63b8ff" d="M1173.14,-118.73C1274.81,-110.82 1474.36,-94.56 1643.5,-74 1645.83,-73.72 1648.2,-73.41 1650.61,-73.1"/>
<polygon fill="#63b8ff" stroke="#63b8ff" points="1651.08,-76.56 1660.51,-71.73 1650.13,-69.63 1651.08,-76.56"/>
</g>
<!-- Node22 -->
<g id="node22" class="node">
<title>Node22</title>
<g id="a_node22"><a xlink:href="StateManager_8hpp.html" target="_top" xlink:title=" ">
<polygon fill="white" stroke="#666666" points="1536.5,-74 1408.5,-74 1408.5,-55 1536.5,-55 1536.5,-74"/>
<text text-anchor="middle" x="1472.5" y="-62" font-family="Helvetica,sans-Serif" font-size="10.00">Engine/StateManager.hpp</text>
</a>
</g>
</g>
<!-- Node1&#45;&gt;Node22 -->
<g id="edge24" class="edge">
<title>Node1&#45;&gt;Node22</title>
<path fill="none" stroke="#63b8ff" d="M1173.31,-112.44C1237.47,-101.91 1334.05,-86.48 1400.04,-76.22"/>
<polygon fill="#63b8ff" stroke="#63b8ff" points="1400.33,-79.72 1409.68,-74.73 1399.26,-72.8 1400.33,-79.72"/>
</g>
<!-- Node23 -->
<g id="node23" class="node">
<title>Node23</title>
<g id="a_node23"><a xlink:href="EntitiesManager_8hpp.html" target="_top" xlink:title=" ">
<polygon fill="white" stroke="#666666" points="1118.5,-74 978.5,-74 978.5,-55 1118.5,-55 1118.5,-74"/>
<text text-anchor="middle" x="1048.5" y="-62" font-family="Helvetica,sans-Serif" font-size="10.00">Entities/EntitiesManager.hpp</text>
</a>
</g>
</g>
<!-- Node1&#45;&gt;Node23 -->
<g id="edge27" class="edge">
<title>Node1&#45;&gt;Node23</title>
<path fill="none" stroke="#63b8ff" d="M1086.25,-109.54C1077.26,-101.48 1067.14,-91.38 1059.51,-82.89"/>
<polygon fill="#63b8ff" stroke="#63b8ff" points="1062.25,-80.7 1053.11,-75.33 1056.9,-85.23 1062.25,-80.7"/>
</g>
<!-- Node25 -->
<g id="node25" class="node">
<title>Node25</title>
<g id="a_node25"><a xlink:href="Bullets_8hpp.html" target="_top" xlink:title=" ">
<polygon fill="white" stroke="#666666" points="1894.5,-74 1772.5,-74 1772.5,-55 1894.5,-55 1894.5,-74"/>
<text text-anchor="middle" x="1833.5" y="-62" font-family="Helvetica,sans-Serif" font-size="10.00">Components/Bullets.hpp</text>
</a>
</g>
</g>
<!-- Node1&#45;&gt;Node25 -->
<g id="edge31" class="edge">
<title>Node1&#45;&gt;Node25</title>
<path fill="none" stroke="#63b8ff" d="M1173.49,-119.55C1291.2,-111.87 1542.47,-94.93 1754.5,-74 1756.65,-73.79 1758.83,-73.56 1761.04,-73.33"/>
<polygon fill="#63b8ff" stroke="#63b8ff" points="1761.15,-76.84 1770.71,-72.28 1760.39,-69.88 1761.15,-76.84"/>
</g>
<!-- Node16&#45;&gt;Node1 -->
<g id="edge16" class="edge">
<title>Node16&#45;&gt;Node1</title>
<path fill="none" stroke="#63b8ff" d="M1375.84,-19.43C1376.65,-33.34 1369.71,-60.03 1352.5,-74 1327.41,-94.36 1247.03,-108.3 1184.84,-116.18"/>
<polygon fill="#63b8ff" stroke="#63b8ff" points="1184.46,-112.7 1174.96,-117.4 1185.31,-119.65 1184.46,-112.7"/>
</g>
<!-- Node17&#45;&gt;Node1 -->
<g id="edge18" class="edge">
<title>Node17&#45;&gt;Node1</title>
<path fill="none" stroke="#63b8ff" d="M1554.11,-74.05C1425.11,-91.53 1274.33,-107.79 1184.75,-116.77"/>
<polygon fill="#63b8ff" stroke="#63b8ff" points="1184.44,-113.28 1174.84,-117.75 1185.14,-120.24 1184.44,-113.28"/>
</g>
<!-- Node18&#45;&gt;Node1 -->
<g id="edge20" class="edge">
<title>Node18&#45;&gt;Node1</title>
<path fill="none" stroke="#63b8ff" d="M1662.09,-73.93C1661.89,-73.95 1661.7,-73.98 1661.5,-74 1492.15,-94.59 1292.32,-110.86 1184.59,-118.76"/>
<polygon fill="#63b8ff" stroke="#63b8ff" points="1184.42,-115.26 1174.7,-119.48 1184.93,-122.25 1184.42,-115.26"/>
</g>
<!-- Node19 -->
<g id="node19" class="node">
<title>Node19</title>
<g id="a_node19"><a xlink:title=" ">
<polygon fill="#e0e0e0" stroke="#999999" points="1660,-19 1631,-19 1631,0 1660,0 1660,-19"/>
<text text-anchor="middle" x="1645.5" y="-7" font-family="Helvetica,sans-Serif" font-size="10.00">list</text>
</a>
</g>
</g>
<!-- Node18&#45;&gt;Node19 -->
<g id="edge21" class="edge">
<title>Node18&#45;&gt;Node19</title>
<path fill="none" stroke="#63b8ff" d="M1697.81,-54.51C1688.8,-46.93 1675.67,-35.88 1664.82,-26.75"/>
<polygon fill="#63b8ff" stroke="#63b8ff" points="1667.09,-24.09 1657.19,-20.33 1662.59,-29.45 1667.09,-24.09"/>
</g>
<!-- Node20 -->
<g id="node20" class="node">
<title>Node20</title>
<g id="a_node20"><a xlink:title=" ">
<polygon fill="#e0e0e0" stroke="#999999" points="1721,-19 1678,-19 1678,0 1721,0 1721,-19"/>
<text text-anchor="middle" x="1699.5" y="-7" font-family="Helvetica,sans-Serif" font-size="10.00">queue</text>
</a>
</g>
</g>
<!-- Node18&#45;&gt;Node20 -->
<g id="edge22" class="edge">
<title>Node18&#45;&gt;Node20</title>
<path fill="none" stroke="#63b8ff" d="M1707.01,-54.75C1705.9,-48.19 1704.33,-38.95 1702.91,-30.6"/>
<polygon fill="#63b8ff" stroke="#63b8ff" points="1706.4,-30.21 1701.27,-20.93 1699.5,-31.38 1706.4,-30.21"/>
</g>
<!-- Node21 -->
<g id="node21" class="node">
<title>Node21</title>
<g id="a_node21"><a xlink:title=" ">
<polygon fill="#e0e0e0" stroke="#999999" points="1801.5,-19 1739.5,-19 1739.5,0 1801.5,0 1801.5,-19"/>
<text text-anchor="middle" x="1770.5" y="-7" font-family="Helvetica,sans-Serif" font-size="10.00">Skaldi.hpp</text>
</a>
</g>
</g>
<!-- Node18&#45;&gt;Node21 -->
<g id="edge23" class="edge">
<title>Node18&#45;&gt;Node21</title>
<path fill="none" stroke="#63b8ff" d="M1719.02,-54.51C1727.89,-46.93 1740.81,-35.88 1751.49,-26.75"/>
<polygon fill="#63b8ff" stroke="#63b8ff" points="1753.66,-29.5 1758.99,-20.34 1749.11,-24.18 1753.66,-29.5"/>
</g>
<!-- Node22&#45;&gt;Node1 -->
<g id="edge25" class="edge">
<title>Node22&#45;&gt;Node1</title>
<path fill="none" stroke="#63b8ff" d="M1421.32,-74.48C1359.8,-84.66 1256.08,-101.26 1184.57,-112.4"/>
<polygon fill="#63b8ff" stroke="#63b8ff" points="1184.22,-108.92 1174.87,-113.91 1185.29,-115.83 1184.22,-108.92"/>
</g>
<!-- Node22&#45;&gt;Node16 -->
<g id="edge26" class="edge">
<title>Node22&#45;&gt;Node16</title>
<path fill="none" stroke="#63b8ff" d="M1455.37,-54.51C1439.75,-46.31 1416.42,-34.07 1398.33,-24.58"/>
<polygon fill="#63b8ff" stroke="#63b8ff" points="1400.2,-21.61 1389.72,-20.06 1396.95,-27.81 1400.2,-21.61"/>
</g>
<!-- Node23&#45;&gt;Node1 -->
<g id="edge28" class="edge">
<title>Node23&#45;&gt;Node1</title>
<path fill="none" stroke="#63b8ff" d="M1062.07,-74.18C1070.67,-81.31 1081.56,-91.74 1090.52,-101.22"/>
<polygon fill="#63b8ff" stroke="#63b8ff" points="1087.74,-103.37 1097.06,-108.42 1092.92,-98.67 1087.74,-103.37"/>
</g>
<!-- Node23&#45;&gt;Node12 -->
<g id="edge30" class="edge">
<title>Node23&#45;&gt;Node12</title>
<path fill="none" stroke="#63b8ff" d="M1035.27,-54.51C1023.66,-46.62 1006.53,-34.98 992.8,-25.65"/>
<polygon fill="#63b8ff" stroke="#63b8ff" points="995.03,-22.93 984.79,-20.21 991.09,-28.72 995.03,-22.93"/>
</g>
<!-- Node24 -->
<g id="node24" class="node">
<title>Node24</title>
<g id="a_node24"><a xlink:title=" ">
<polygon fill="#e0e0e0" stroke="#999999" points="1067.5,-19 1029.5,-19 1029.5,0 1067.5,0 1067.5,-19"/>
<text text-anchor="middle" x="1048.5" y="-7" font-family="Helvetica,sans-Serif" font-size="10.00">array</text>
</a>
</g>
</g>
<!-- Node23&#45;&gt;Node24 -->
<g id="edge29" class="edge">
<title>Node23&#45;&gt;Node24</title>
<path fill="none" stroke="#63b8ff" d="M1048.5,-54.75C1048.5,-48.27 1048.5,-39.16 1048.5,-30.9"/>
<polygon fill="#63b8ff" stroke="#63b8ff" points="1052,-30.96 1048.5,-20.96 1045,-30.96 1052,-30.96"/>
</g>
<!-- Node25&#45;&gt;Node1 -->
<g id="edge32" class="edge">
<title>Node25&#45;&gt;Node1</title>
<path fill="none" stroke="#63b8ff" d="M1772.18,-74.03C1560.29,-94.94 1309.3,-111.86 1184.67,-119.54"/>
<polygon fill="#63b8ff" stroke="#63b8ff" points="1184.66,-116.04 1174.89,-120.14 1185.08,-123.02 1184.66,-116.04"/>
</g>
<!-- Node26 -->
<g id="node26" class="node">
<title>Node26</title>
<g id="a_node26"><a xlink:title=" ">
<polygon fill="#e0e0e0" stroke="#999999" points="1865.5,-19 1819.5,-19 1819.5,0 1865.5,0 1865.5,-19"/>
<text text-anchor="middle" x="1842.5" y="-7" font-family="Helvetica,sans-Serif" font-size="10.00">math.h</text>
</a>
</g>
</g>
<!-- Node25&#45;&gt;Node26 -->
<g id="edge33" class="edge">
<title>Node25&#45;&gt;Node26</title>
<path fill="none" stroke="#63b8ff" d="M1834.99,-54.75C1836.1,-48.19 1837.67,-38.95 1839.09,-30.6"/>
<polygon fill="#63b8ff" stroke="#63b8ff" points="1842.5,-31.38 1840.73,-20.93 1835.6,-30.21 1842.5,-31.38"/>
</g>
</g>
</svg>
