<?xml version="1.0" encoding="UTF-8" standalone="no"?>
<!DOCTYPE svg PUBLIC "-//W3C//DTD SVG 1.1//EN"
 "http://www.w3.org/Graphics/SVG/1.1/DTD/svg11.dtd">
<!-- Generated by graphviz version 7.0.5 (20221223.1930)
 -->
<!-- Title: /github/workspace/client/include/Engine/Engine.hpp Pages: 1 -->
<!--zoomable 544 -->
<svg id="main" version="1.1" xmlns="http://www.w3.org/2000/svg" xmlns:xlink="http://www.w3.org/1999/xlink" xml:space="preserve" onload="init(evt)">
<style type="text/css"><![CDATA[
.edge:hover path { stroke: red; }
.edge:hover polygon { stroke: red; fill: red; }
]]></style>
<script type="text/javascript"><![CDATA[
var edges = document.getElementsByTagName('g');
if (edges && edges.length) {
  for (var i=0;i<edges.length;i++) {
    if (edges[i].id.substr(0,4)=='edge') {
      edges[i].setAttribute('class','edge');
    }
  }
}
]]></script>
        <defs>
                <circle id="rim" cx="0" cy="0" r="7"/>
                <circle id="rim2" cx="0" cy="0" r="3.5"/>
                <g id="zoomPlus">
                        <use xlink:href="#rim" fill="#404040">
                                <set attributeName="fill" to="#808080" begin="zoomplus.mouseover" end="zoomplus.mouseout"/>
                        </use>
                        <path d="M-4,0h8M0,-4v8" fill="none" stroke="white" stroke-width="1.5" pointer-events="none"/>
                </g>
                <g id="zoomMin">
                        <use xlink:href="#rim" fill="#404040">
                                <set attributeName="fill" to="#808080" begin="zoomminus.mouseover" end="zoomminus.mouseout"/>
                        </use>
                        <path d="M-4,0h8" fill="none" stroke="white" stroke-width="1.5" pointer-events="none"/>
                </g>
                <g id="dirArrow">
                        <path fill="none" stroke="white" stroke-width="1.5" d="M0,-3.0v7 M-2.5,-0.5L0,-3.0L2.5,-0.5"/>
                </g>
               <g id="resetDef">
                       <use xlink:href="#rim2" fill="#404040">
                               <set attributeName="fill" to="#808080" begin="reset.mouseover" end="reset.mouseout"/>
                       </use>
               </g>
        </defs>

<script type="text/javascript">
var viewWidth = 2753;
var viewHeight = 544;
var sectionId = 'dynsection-1';
</script>
<script xlink:href="svgpan.js"/>
<svg id="graph" class="graph">
<g id="viewport">
<title>/github/workspace/client/include/Engine/Engine.hpp</title>
<!-- Node1 -->
<g id="node1" class="node">
<title>Node1</title>
<g id="a_node1"><a xlink:title=" ">
<polygon fill="#999999" stroke="#666666" points="1248.5,-536 1115.5,-536 1115.5,-506 1248.5,-506 1248.5,-536"/>
<text text-anchor="start" x="1123.5" y="-524" font-family="Helvetica,sans-Serif" font-size="10.00">/github/workspace/client</text>
<text text-anchor="middle" x="1182" y="-513" font-family="Helvetica,sans-Serif" font-size="10.00">/include/Engine/Engine.hpp</text>
</a>
</g>
</g>
<!-- Node2 -->
<g id="node2" class="node">
<title>Node2</title>
<g id="a_node2"><a xlink:href="Background_8hpp.html" target="_top" xlink:title=" ">
<polygon fill="white" stroke="#666666" points="1087.5,-470 906.5,-470 906.5,-440 1087.5,-440 1087.5,-470"/>
<text text-anchor="start" x="914.5" y="-458" font-family="Helvetica,sans-Serif" font-size="10.00">/github/workspace/client</text>
<text text-anchor="middle" x="997" y="-447" font-family="Helvetica,sans-Serif" font-size="10.00">/include/Components/Background.hpp</text>
</a>
</g>
</g>
<!-- Node1&#45;&gt;Node2 -->
<g id="edge1" class="edge">
<title>Node1&#45;&gt;Node2</title>
<path fill="none" stroke="#63b8ff" d="M1124.03,-502.07C1094.21,-492.07 1058.84,-479.79 1032.95,-470.43"/>
<polygon fill="#63b8ff" stroke="#63b8ff" points="1122.71,-505.32 1133.31,-505.16 1124.93,-498.68 1122.71,-505.32"/>
</g>
<!-- Node10 -->
<g id="node10" class="node">
<title>Node10</title>
<g id="a_node10"><a xlink:href="client_2src_2main_8cpp.html" target="_top" xlink:title=" ">
<polygon fill="white" stroke="#666666" points="122,-30 0,-30 0,0 122,0 122,-30"/>
<text text-anchor="start" x="8" y="-18" font-family="Helvetica,sans-Serif" font-size="10.00">/github/workspace/client</text>
<text text-anchor="middle" x="61" y="-7" font-family="Helvetica,sans-Serif" font-size="10.00">/src/main.cpp</text>
</a>
</g>
</g>
<!-- Node1&#45;&gt;Node10 -->
<g id="edge64" class="edge">
<title>Node1&#45;&gt;Node10</title>
<path fill="none" stroke="#63b8ff" d="M1103.78,-520.53C866.76,-521.59 167.32,-520.35 79,-470 39.54,-447.5 23,-429.93 23,-384.5 23,-384.5 23,-384.5 23,-151.5 23,-105.81 43.28,-54.57 54.21,-30.27"/>
<polygon fill="#63b8ff" stroke="#63b8ff" points="1103.55,-524.03 1113.53,-520.49 1103.51,-517.03 1103.55,-524.03"/>
</g>
<!-- Node13 -->
<g id="node13" class="node">
<title>Node13</title>
<g id="a_node13"><a xlink:href="Bonus_8hpp.html" target="_top" xlink:title=" ">
<polygon fill="white" stroke="#666666" points="386.5,-398.5 229.5,-398.5 229.5,-368.5 386.5,-368.5 386.5,-398.5"/>
<text text-anchor="start" x="237.5" y="-386.5" font-family="Helvetica,sans-Serif" font-size="10.00">/github/workspace/client</text>
<text text-anchor="middle" x="308" y="-375.5" font-family="Helvetica,sans-Serif" font-size="10.00">/include/Components/Bonus.hpp</text>
</a>
</g>
</g>
<!-- Node1&#45;&gt;Node13 -->
<g id="edge16" class="edge">
<title>Node1&#45;&gt;Node13</title>
<path fill="none" stroke="#63b8ff" d="M1103.92,-517.95C918.9,-512.67 464.45,-497.1 401,-470 364.9,-454.58 333.81,-418.92 318.38,-398.87"/>
<polygon fill="#63b8ff" stroke="#63b8ff" points="1103.58,-521.44 1113.67,-518.23 1103.77,-514.44 1103.58,-521.44"/>
</g>
<!-- Node14 -->
<g id="node14" class="node">
<title>Node14</title>
<g id="a_node14"><a xlink:href="include_8hpp.html" target="_top" xlink:title=" ">
<polygon fill="white" stroke="#666666" points="476,-321.5 354,-321.5 354,-291.5 476,-291.5 476,-321.5"/>
<text text-anchor="start" x="362" y="-309.5" font-family="Helvetica,sans-Serif" font-size="10.00">/github/workspace/client</text>
<text text-anchor="middle" x="415" y="-298.5" font-family="Helvetica,sans-Serif" font-size="10.00">/include/include.hpp</text>
</a>
</g>
</g>
<!-- Node1&#45;&gt;Node14 -->
<g id="edge62" class="edge">
<title>Node1&#45;&gt;Node14</title>
<path fill="none" stroke="#63b8ff" d="M1103.78,-517.4C961.12,-512.04 664.23,-497.87 565,-470 502.23,-452.37 473.42,-455.93 434,-404 415.52,-379.65 413.59,-342.18 414.11,-321.83"/>
<polygon fill="#63b8ff" stroke="#63b8ff" points="1103.39,-520.89 1113.52,-517.76 1103.65,-513.89 1103.39,-520.89"/>
</g>
<!-- Node15 -->
<g id="node15" class="node">
<title>Node15</title>
<g id="a_node15"><a xlink:href="Bouton_8hpp.html" target="_top" xlink:title=" ">
<polygon fill="white" stroke="#666666" points="1513,-321.5 1353,-321.5 1353,-291.5 1513,-291.5 1513,-321.5"/>
<text text-anchor="start" x="1361" y="-309.5" font-family="Helvetica,sans-Serif" font-size="10.00">/github/workspace/client</text>
<text text-anchor="middle" x="1433" y="-298.5" font-family="Helvetica,sans-Serif" font-size="10.00">/include/Components/Bouton.hpp</text>
</a>
</g>
</g>
<!-- Node1&#45;&gt;Node15 -->
<g id="edge18" class="edge">
<title>Node1&#45;&gt;Node15</title>
<path fill="none" stroke="#63b8ff" d="M1260.13,-512.86C1319.2,-505.75 1393.5,-492.56 1414,-470 1452.01,-428.16 1442.41,-353.18 1436.25,-321.86"/>
<polygon fill="#63b8ff" stroke="#63b8ff" points="1259.95,-509.35 1250.42,-513.98 1260.76,-516.31 1259.95,-509.35"/>
</g>
<!-- Node16 -->
<g id="node16" class="node">
<title>Node16</title>
<g id="a_node16"><a xlink:href="Bullets_8hpp.html" target="_top" xlink:title=" ">
<polygon fill="white" stroke="#666666" points="796.5,-398.5 637.5,-398.5 637.5,-368.5 796.5,-368.5 796.5,-398.5"/>
<text text-anchor="start" x="645.5" y="-386.5" font-family="Helvetica,sans-Serif" font-size="10.00">/github/workspace/client</text>
<text text-anchor="middle" x="717" y="-375.5" font-family="Helvetica,sans-Serif" font-size="10.00">/include/Components/Bullets.hpp</text>
</a>
</g>
</g>
<!-- Node1&#45;&gt;Node16 -->
<g id="edge21" class="edge">
<title>Node1&#45;&gt;Node16</title>
<path fill="none" stroke="#63b8ff" d="M1103.63,-518.93C953.75,-516.05 638.7,-505.71 606,-470 580.41,-442.05 629.47,-414.82 670.4,-398.86"/>
<polygon fill="#63b8ff" stroke="#63b8ff" points="1103.42,-522.43 1113.49,-519.12 1103.55,-515.43 1103.42,-522.43"/>
</g>
<!-- Node18 -->
<g id="node18" class="node">
<title>Node18</title>
<g id="a_node18"><a xlink:href="Centipede_8hpp.html" target="_top" xlink:title=" ">
<polygon fill="white" stroke="#666666" points="1128.5,-398.5 955.5,-398.5 955.5,-368.5 1128.5,-368.5 1128.5,-398.5"/>
<text text-anchor="start" x="963.5" y="-386.5" font-family="Helvetica,sans-Serif" font-size="10.00">/github/workspace/client</text>
<text text-anchor="middle" x="1042" y="-375.5" font-family="Helvetica,sans-Serif" font-size="10.00">/include/Components/Centipede.hpp</text>
</a>
</g>
</g>
<!-- Node1&#45;&gt;Node18 -->
<g id="edge25" class="edge">
<title>Node1&#45;&gt;Node18</title>
<path fill="none" stroke="#63b8ff" d="M1103.78,-517.23C1028.69,-512.72 922.97,-500.92 897,-470 868.71,-436.32 923.8,-412.69 974.01,-398.93"/>
<polygon fill="#63b8ff" stroke="#63b8ff" points="1103.39,-520.71 1113.57,-517.78 1103.79,-513.72 1103.39,-520.71"/>
</g>
<!-- Node19 -->
<g id="node19" class="node">
<title>Node19</title>
<g id="a_node19"><a xlink:href="IComponents_8hpp.html" target="_top" xlink:title=" ">
<polygon fill="white" stroke="#666666" points="811.5,-470 624.5,-470 624.5,-440 811.5,-440 811.5,-470"/>
<text text-anchor="start" x="632.5" y="-458" font-family="Helvetica,sans-Serif" font-size="10.00">/github/workspace/client</text>
<text text-anchor="middle" x="718" y="-447" font-family="Helvetica,sans-Serif" font-size="10.00">/include/Components/IComponents.hpp</text>
</a>
</g>
</g>
<!-- Node1&#45;&gt;Node19 -->
<g id="edge27" class="edge">
<title>Node1&#45;&gt;Node19</title>
<path fill="none" stroke="#63b8ff" d="M1103.97,-509.24C1023.43,-498.13 897.77,-480.8 811.86,-468.95"/>
<polygon fill="#63b8ff" stroke="#63b8ff" points="1103.14,-512.66 1113.53,-510.56 1104.1,-505.72 1103.14,-512.66"/>
</g>
<!-- Node20 -->
<g id="node20" class="node">
<title>Node20</title>
<g id="a_node20"><a xlink:href="EntitiesManager_8hpp.html" target="_top" xlink:title=" ">
<polygon fill="white" stroke="#666666" points="619,-398.5 443,-398.5 443,-368.5 619,-368.5 619,-398.5"/>
<text text-anchor="start" x="451" y="-386.5" font-family="Helvetica,sans-Serif" font-size="10.00">/github/workspace/client</text>
<text text-anchor="middle" x="531" y="-375.5" font-family="Helvetica,sans-Serif" font-size="10.00">/include/Entities/EntitiesManager.hpp</text>
</a>
</g>
</g>
<!-- Node1&#45;&gt;Node20 -->
<g id="edge56" class="edge">
<title>Node1&#45;&gt;Node20</title>
<path fill="none" stroke="#63b8ff" d="M1103.62,-520.48C964.48,-520.27 681.19,-514.35 595,-470 563.93,-454.02 540.62,-418.58 532.48,-398.71"/>
<polygon fill="#63b8ff" stroke="#63b8ff" points="1103.48,-523.98 1113.49,-520.49 1103.49,-516.98 1103.48,-523.98"/>
</g>
<!-- Node22 -->
<g id="node22" class="node">
<title>Node22</title>
<g id="a_node22"><a xlink:href="oold__EntitiesManager_8hpp.html" target="_top" xlink:title=" ">
<polygon fill="white" stroke="#666666" points="937,-404 815,-404 815,-363 937,-363 937,-404"/>
<text text-anchor="start" x="823" y="-392" font-family="Helvetica,sans-Serif" font-size="10.00">/github/workspace/client</text>
<text text-anchor="start" x="823" y="-381" font-family="Helvetica,sans-Serif" font-size="10.00">/include/Entities/oold</text>
<text text-anchor="middle" x="876" y="-370" font-family="Helvetica,sans-Serif" font-size="10.00">_EntitiesManager.hpp</text>
</a>
</g>
</g>
<!-- Node1&#45;&gt;Node22 -->
<g id="edge61" class="edge">
<title>Node1&#45;&gt;Node22</title>
<path fill="none" stroke="#63b8ff" d="M1104.07,-517.15C1026.59,-512.57 915.17,-500.7 886,-470 869.53,-452.67 869.74,-423.6 872.21,-404.24"/>
<polygon fill="#63b8ff" stroke="#63b8ff" points="1103.55,-520.62 1113.73,-517.69 1103.94,-513.63 1103.55,-520.62"/>
</g>
<!-- Node23 -->
<g id="node23" class="node">
<title>Node23</title>
<g id="a_node23"><a xlink:href="Mobs_8hpp.html" target="_top" xlink:title=" ">
<polygon fill="white" stroke="#666666" points="1258.5,-470 1105.5,-470 1105.5,-440 1258.5,-440 1258.5,-470"/>
<text text-anchor="start" x="1113.5" y="-458" font-family="Helvetica,sans-Serif" font-size="10.00">/github/workspace/client</text>
<text text-anchor="middle" x="1182" y="-447" font-family="Helvetica,sans-Serif" font-size="10.00">/include/Components/Mobs.hpp</text>
</a>
</g>
</g>
<!-- Node1&#45;&gt;Node23 -->
<g id="edge36" class="edge">
<title>Node1&#45;&gt;Node23</title>
<path fill="none" stroke="#63b8ff" d="M1182,-494.39C1182,-486.13 1182,-477.28 1182,-470.16"/>
<polygon fill="#63b8ff" stroke="#63b8ff" points="1178.5,-494.28 1182,-504.28 1185.5,-494.28 1178.5,-494.28"/>
</g>
<!-- Node24 -->
<g id="node24" class="node">
<title>Node24</title>
<g id="a_node24"><a xlink:href="Audio_8hpp.html" target="_top" xlink:title=" ">
<polygon fill="white" stroke="#666666" points="1405,-470 1277,-470 1277,-440 1405,-440 1405,-470"/>
<text text-anchor="start" x="1285" y="-458" font-family="Helvetica,sans-Serif" font-size="10.00">/github/workspace/client</text>
<text text-anchor="middle" x="1341" y="-447" font-family="Helvetica,sans-Serif" font-size="10.00">/include/Engine/Audio.hpp</text>
</a>
</g>
</g>
<!-- Node1&#45;&gt;Node24 -->
<g id="edge37" class="edge">
<title>Node1&#45;&gt;Node24</title>
<path fill="none" stroke="#63b8ff" d="M1228.19,-501.41C1252.71,-491.54 1282.4,-479.59 1305.16,-470.43"/>
<polygon fill="#63b8ff" stroke="#63b8ff" points="1227.06,-498.09 1219.09,-505.07 1229.67,-504.58 1227.06,-498.09"/>
</g>
<!-- Node25 -->
<g id="node25" class="node">
<title>Node25</title>
<g id="a_node25"><a xlink:href="Destroy_8hpp.html" target="_top" xlink:title=" ">
<polygon fill="white" stroke="#666666" points="1598.5,-470 1461.5,-470 1461.5,-440 1598.5,-440 1598.5,-470"/>
<text text-anchor="start" x="1469.5" y="-458" font-family="Helvetica,sans-Serif" font-size="10.00">/github/workspace/client</text>
<text text-anchor="middle" x="1530" y="-447" font-family="Helvetica,sans-Serif" font-size="10.00">/include/Engine/Destroy.hpp</text>
</a>
</g>
</g>
<!-- Node1&#45;&gt;Node25 -->
<g id="edge38" class="edge">
<title>Node1&#45;&gt;Node25</title>
<path fill="none" stroke="#63b8ff" d="M1259.69,-505.71C1320.1,-494.6 1403.12,-479.33 1461.16,-468.66"/>
<polygon fill="#63b8ff" stroke="#63b8ff" points="1259.38,-502.21 1250.17,-507.46 1260.64,-509.1 1259.38,-502.21"/>
</g>
<!-- Node27 -->
<g id="node27" class="node">
<title>Node27</title>
<g id="a_node27"><a xlink:href="Draw_8hpp.html" target="_top" xlink:title=" ">
<polygon fill="white" stroke="#666666" points="1743,-470 1617,-470 1617,-440 1743,-440 1743,-470"/>
<text text-anchor="start" x="1625" y="-458" font-family="Helvetica,sans-Serif" font-size="10.00">/github/workspace/client</text>
<text text-anchor="middle" x="1680" y="-447" font-family="Helvetica,sans-Serif" font-size="10.00">/include/Engine/Draw.hpp</text>
</a>
</g>
</g>
<!-- Node1&#45;&gt;Node27 -->
<g id="edge40" class="edge">
<title>Node1&#45;&gt;Node27</title>
<path fill="none" stroke="#63b8ff" d="M1260.25,-512.51C1345.69,-503.93 1486.44,-488.63 1607,-470 1610.19,-469.51 1613.45,-468.98 1616.74,-468.42"/>
<polygon fill="#63b8ff" stroke="#63b8ff" points="1259.93,-509.02 1250.33,-513.5 1260.63,-515.99 1259.93,-509.02"/>
</g>
<!-- Node29 -->
<g id="node29" class="node">
<title>Node29</title>
<g id="a_node29"><a xlink:href="Error_8hpp.html" target="_top" xlink:title=" ">
<polygon fill="white" stroke="#666666" points="212,-470 88,-470 88,-440 212,-440 212,-470"/>
<text text-anchor="start" x="96" y="-458" font-family="Helvetica,sans-Serif" font-size="10.00">/github/workspace/client</text>
<text text-anchor="middle" x="150" y="-447" font-family="Helvetica,sans-Serif" font-size="10.00">/include/Engine/Error.hpp</text>
</a>
</g>
</g>
<!-- Node1&#45;&gt;Node29 -->
<g id="edge42" class="edge">
<title>Node1&#45;&gt;Node29</title>
<path fill="none" stroke="#63b8ff" d="M1103.71,-515.92C953.46,-507.98 614.24,-489.51 329,-470 290.13,-467.34 246.54,-463.94 212.11,-461.16"/>
<polygon fill="#63b8ff" stroke="#63b8ff" points="1103.38,-519.41 1113.55,-516.44 1103.75,-512.42 1103.38,-519.41"/>
</g>
<!-- Node31 -->
<g id="node31" class="node">
<title>Node31</title>
<g id="a_node31"><a xlink:href="Event_8hpp.html" target="_top" xlink:title=" ">
<polygon fill="white" stroke="#666666" points="1889,-470 1761,-470 1761,-440 1889,-440 1889,-470"/>
<text text-anchor="start" x="1769" y="-458" font-family="Helvetica,sans-Serif" font-size="10.00">/github/workspace/client</text>
<text text-anchor="middle" x="1825" y="-447" font-family="Helvetica,sans-Serif" font-size="10.00">/include/Engine/Event.hpp</text>
</a>
</g>
</g>
<!-- Node1&#45;&gt;Node31 -->
<g id="edge45" class="edge">
<title>Node1&#45;&gt;Node31</title>
<path fill="none" stroke="#63b8ff" d="M1260.04,-515.31C1368.68,-508.48 1571.24,-493.94 1743,-470 1748.75,-469.2 1754.74,-468.25 1760.74,-467.22"/>
<polygon fill="#63b8ff" stroke="#63b8ff" points="1260.14,-511.8 1250.38,-515.91 1260.58,-518.78 1260.14,-511.8"/>
</g>
<!-- Node32 -->
<g id="node32" class="node">
<title>Node32</title>
<g id="a_node32"><a xlink:href="Event_8cpp.html" target="_top" xlink:title=" ">
<polygon fill="white" stroke="#666666" points="1932,-398.5 1810,-398.5 1810,-368.5 1932,-368.5 1932,-398.5"/>
<text text-anchor="start" x="1818" y="-386.5" font-family="Helvetica,sans-Serif" font-size="10.00">/github/workspace/client</text>
<text text-anchor="middle" x="1871" y="-375.5" font-family="Helvetica,sans-Serif" font-size="10.00">/src/Event.cpp</text>
</a>
</g>
</g>
<!-- Node1&#45;&gt;Node32 -->
<g id="edge63" class="edge">
<title>Node1&#45;&gt;Node32</title>
<path fill="none" stroke="#63b8ff" d="M1260.16,-520.41C1436.89,-520.52 1855.22,-515.87 1898,-470 1916.58,-450.08 1897.14,-417.44 1882.98,-398.78"/>
<polygon fill="#63b8ff" stroke="#63b8ff" points="1260.4,-516.91 1250.39,-520.4 1260.39,-523.91 1260.4,-516.91"/>
</g>
<!-- Node33 -->
<g id="node33" class="node">
<title>Node33</title>
<g id="a_node33"><a xlink:href="Map_8hpp.html" target="_top" xlink:title=" ">
<polygon fill="white" stroke="#666666" points="2067,-470 1945,-470 1945,-440 2067,-440 2067,-470"/>
<text text-anchor="start" x="1953" y="-458" font-family="Helvetica,sans-Serif" font-size="10.00">/github/workspace/client</text>
<text text-anchor="middle" x="2006" y="-447" font-family="Helvetica,sans-Serif" font-size="10.00">/include/Engine/Map.hpp</text>
</a>
</g>
</g>
<!-- Node1&#45;&gt;Node33 -->
<g id="edge48" class="edge">
<title>Node1&#45;&gt;Node33</title>
<path fill="none" stroke="#63b8ff" d="M1260.03,-517.82C1396.53,-513.33 1687.34,-500.77 1931,-470 1935.47,-469.44 1940.07,-468.77 1944.7,-468.05"/>
<polygon fill="#63b8ff" stroke="#63b8ff" points="1260.28,-514.31 1250.4,-518.13 1260.51,-521.31 1260.28,-514.31"/>
</g>
<!-- Node34 -->
<g id="node34" class="node">
<title>Node34</title>
<g id="a_node34"><a xlink:href="StateManager_8hpp.html" target="_top" xlink:title=" ">
<polygon fill="white" stroke="#666666" points="2177,-398.5 2013,-398.5 2013,-368.5 2177,-368.5 2177,-398.5"/>
<text text-anchor="start" x="2021" y="-386.5" font-family="Helvetica,sans-Serif" font-size="10.00">/github/workspace/client</text>
<text text-anchor="middle" x="2095" y="-375.5" font-family="Helvetica,sans-Serif" font-size="10.00">/include/Engine/StateManager.hpp</text>
</a>
</g>
</g>
<!-- Node1&#45;&gt;Node34 -->
<g id="edge49" class="edge">
<title>Node1&#45;&gt;Node34</title>
<path fill="none" stroke="#63b8ff" d="M1259.98,-518.18C1471.98,-512.88 2045.13,-496.21 2076,-470 2096.52,-452.58 2097.74,-418.38 2096.55,-398.92"/>
<polygon fill="#63b8ff" stroke="#63b8ff" points="1260.08,-514.67 1250.17,-518.42 1260.25,-521.67 1260.08,-514.67"/>
</g>
<!-- Node35 -->
<g id="node35" class="node">
<title>Node35</title>
<g id="a_node35"><a xlink:href="Text_8hpp.html" target="_top" xlink:title=" ">
<polygon fill="white" stroke="#666666" points="2245,-470 2123,-470 2123,-440 2245,-440 2245,-470"/>
<text text-anchor="start" x="2131" y="-458" font-family="Helvetica,sans-Serif" font-size="10.00">/github/workspace/client</text>
<text text-anchor="middle" x="2184" y="-447" font-family="Helvetica,sans-Serif" font-size="10.00">/include/Engine/Text.hpp</text>
</a>
</g>
</g>
<!-- Node1&#45;&gt;Node35 -->
<g id="edge51" class="edge">
<title>Node1&#45;&gt;Node35</title>
<path fill="none" stroke="#63b8ff" d="M1259.99,-519.23C1419.82,-516.89 1795.86,-507.51 2109,-470 2113.47,-469.46 2118.08,-468.82 2122.71,-468.12"/>
<polygon fill="#63b8ff" stroke="#63b8ff" points="1260.33,-515.72 1250.38,-519.36 1260.42,-522.72 1260.33,-515.72"/>
</g>
<!-- Node36 -->
<g id="node36" class="node">
<title>Node36</title>
<g id="a_node36"><a xlink:href="Window_8hpp.html" target="_top" xlink:title=" ">
<polygon fill="white" stroke="#666666" points="2401,-470 2263,-470 2263,-440 2401,-440 2401,-470"/>
<text text-anchor="start" x="2271" y="-458" font-family="Helvetica,sans-Serif" font-size="10.00">/github/workspace/client</text>
<text text-anchor="middle" x="2332" y="-447" font-family="Helvetica,sans-Serif" font-size="10.00">/include/Engine/Window.hpp</text>
</a>
</g>
</g>
<!-- Node1&#45;&gt;Node36 -->
<g id="edge52" class="edge">
<title>Node1&#45;&gt;Node36</title>
<path fill="none" stroke="#63b8ff" d="M1260.4,-519.82C1436.85,-518.62 1878.1,-511.3 2245,-470 2250.74,-469.35 2256.7,-468.54 2262.69,-467.64"/>
<polygon fill="#63b8ff" stroke="#63b8ff" points="1260.4,-516.32 1250.42,-519.88 1260.44,-523.32 1260.4,-516.32"/>
</g>
<!-- Node38 -->
<g id="node38" class="node">
<title>Node38</title>
<g id="a_node38"><a xlink:href="Properties_8hpp.html" target="_top" xlink:title=" ">
<polygon fill="white" stroke="#666666" points="2570.5,-470 2419.5,-470 2419.5,-440 2570.5,-440 2570.5,-470"/>
<text text-anchor="start" x="2427.5" y="-458" font-family="Helvetica,sans-Serif" font-size="10.00">/github/workspace/client</text>
<text text-anchor="middle" x="2495" y="-447" font-family="Helvetica,sans-Serif" font-size="10.00">/include/Entities/Properties.hpp</text>
</a>
</g>
</g>
<!-- Node1&#45;&gt;Node38 -->
<g id="edge57" class="edge">
<title>Node1&#45;&gt;Node38</title>
<path fill="none" stroke="#63b8ff" d="M1260,-520.13C1454.62,-519.75 1977.12,-514.29 2410,-470 2412.98,-469.7 2416.01,-469.35 2419.06,-468.98"/>
<polygon fill="#63b8ff" stroke="#63b8ff" points="1260.27,-516.63 1250.27,-520.15 1260.28,-523.63 1260.27,-516.63"/>
</g>
<!-- Node2&#45;&gt;Node1 -->
<g id="edge2" class="edge">
<title>Node2&#45;&gt;Node1</title>
<path fill="none" stroke="#63b8ff" d="M1055.17,-474C1085.02,-484 1120.38,-496.28 1146.22,-505.64"/>
<polygon fill="#63b8ff" stroke="#63b8ff" points="1056.48,-470.75 1045.88,-470.9 1054.26,-477.39 1056.48,-470.75"/>
</g>
<!-- Node3 -->
<g id="node3" class="node">
<title>Node3</title>
<g id="a_node3"><a xlink:href="IGameState_8hpp.html" target="_top" xlink:title=" ">
<polygon fill="white" stroke="#666666" points="1112,-327 972,-327 972,-286 1112,-286 1112,-327"/>
<text text-anchor="start" x="980" y="-315" font-family="Helvetica,sans-Serif" font-size="10.00">/github/workspace/client</text>
<text text-anchor="start" x="980" y="-304" font-family="Helvetica,sans-Serif" font-size="10.00">/include/system/gameStates</text>
<text text-anchor="middle" x="1042" y="-293" font-family="Helvetica,sans-Serif" font-size="10.00">/IGameState.hpp</text>
</a>
</g>
</g>
<!-- Node2&#45;&gt;Node3 -->
<g id="edge3" class="edge">
<title>Node2&#45;&gt;Node3</title>
<path fill="none" stroke="#63b8ff" d="M1097.93,-435.14C1113.29,-427.88 1127.24,-417.84 1137,-404 1147.5,-389.1 1146.07,-378.8 1137,-363 1128.06,-347.43 1112.88,-335.81 1097.24,-327.34"/>
<polygon fill="#63b8ff" stroke="#63b8ff" points="1096.88,-431.79 1089.06,-438.93 1099.63,-438.22 1096.88,-431.79"/>
</g>
<!-- Node4 -->
<g id="node4" class="node">
<title>Node4</title>
<g id="a_node4"><a xlink:href="SGamePlay__Duck_8hpp.html" target="_top" xlink:title=" ">
<polygon fill="white" stroke="#666666" points="953.5,-250 796.5,-250 796.5,-209 953.5,-209 953.5,-250"/>
<text text-anchor="start" x="804.5" y="-238" font-family="Helvetica,sans-Serif" font-size="10.00">/github/workspace/client</text>
<text text-anchor="start" x="804.5" y="-227" font-family="Helvetica,sans-Serif" font-size="10.00">/include/system/gameStates</text>
<text text-anchor="middle" x="875" y="-216" font-family="Helvetica,sans-Serif" font-size="10.00">/Example/SGamePlay_Duck.hpp</text>
</a>
</g>
</g>
<!-- Node3&#45;&gt;Node4 -->
<g id="edge4" class="edge">
<title>Node3&#45;&gt;Node4</title>
<path fill="none" stroke="#63b8ff" d="M987.19,-280.88C965.25,-271.03 940.31,-259.83 919.52,-250.49"/>
<polygon fill="#63b8ff" stroke="#63b8ff" points="985.75,-284.07 996.3,-284.98 988.62,-277.69 985.75,-284.07"/>
</g>
<!-- Node5 -->
<g id="node5" class="node">
<title>Node5</title>
<g id="a_node5"><a xlink:href="SMenu__Duck_8hpp.html" target="_top" xlink:title=" ">
<polygon fill="white" stroke="#666666" points="1586,-250 1446,-250 1446,-209 1586,-209 1586,-250"/>
<text text-anchor="start" x="1454" y="-238" font-family="Helvetica,sans-Serif" font-size="10.00">/github/workspace/client</text>
<text text-anchor="start" x="1454" y="-227" font-family="Helvetica,sans-Serif" font-size="10.00">/include/system/gameStates</text>
<text text-anchor="middle" x="1516" y="-216" font-family="Helvetica,sans-Serif" font-size="10.00">/Example/SMenu_Duck.hpp</text>
</a>
</g>
</g>
<!-- Node3&#45;&gt;Node5 -->
<g id="edge5" class="edge">
<title>Node3&#45;&gt;Node5</title>
<path fill="none" stroke="#63b8ff" d="M1123.28,-296.55C1203.42,-287.14 1329.2,-270.82 1437,-250 1439.91,-249.44 1442.88,-248.84 1445.87,-248.21"/>
<polygon fill="#63b8ff" stroke="#63b8ff" points="1123.32,-293.02 1113.79,-297.65 1124.13,-299.97 1123.32,-293.02"/>
</g>
<!-- Node6 -->
<g id="node6" class="node">
<title>Node6</title>
<g id="a_node6"><a xlink:href="SGamePlay_8hpp.html" target="_top" xlink:title=" ">
<polygon fill="white" stroke="#666666" points="1270,-250 1130,-250 1130,-209 1270,-209 1270,-250"/>
<text text-anchor="start" x="1138" y="-238" font-family="Helvetica,sans-Serif" font-size="10.00">/github/workspace/client</text>
<text text-anchor="start" x="1138" y="-227" font-family="Helvetica,sans-Serif" font-size="10.00">/include/system/gameStates</text>
<text text-anchor="middle" x="1200" y="-216" font-family="Helvetica,sans-Serif" font-size="10.00">/SGamePlay.hpp</text>
</a>
</g>
</g>
<!-- Node3&#45;&gt;Node6 -->
<g id="edge6" class="edge">
<title>Node3&#45;&gt;Node6</title>
<path fill="none" stroke="#63b8ff" d="M1094.14,-280.75C1114.83,-270.93 1138.3,-259.79 1157.88,-250.49"/>
<polygon fill="#63b8ff" stroke="#63b8ff" points="1092.83,-277.5 1085.29,-284.95 1095.83,-283.82 1092.83,-277.5"/>
</g>
<!-- Node7 -->
<g id="node7" class="node">
<title>Node7</title>
<g id="a_node7"><a xlink:href="States_8hpp.html" target="_top" xlink:title=" ">
<polygon fill="white" stroke="#666666" points="1084,-173 944,-173 944,-132 1084,-132 1084,-173"/>
<text text-anchor="start" x="952" y="-161" font-family="Helvetica,sans-Serif" font-size="10.00">/github/workspace/client</text>
<text text-anchor="start" x="952" y="-150" font-family="Helvetica,sans-Serif" font-size="10.00">/include/system/gameStates</text>
<text text-anchor="middle" x="1014" y="-139" font-family="Helvetica,sans-Serif" font-size="10.00">/States.hpp</text>
</a>
</g>
</g>
<!-- Node3&#45;&gt;Node7 -->
<g id="edge14" class="edge">
<title>Node3&#45;&gt;Node7</title>
<path fill="none" stroke="#63b8ff" d="M960.27,-298.7C894.14,-291.3 808.57,-276.76 787,-250 740.45,-192.23 860.87,-168.46 943.59,-159.12"/>
<polygon fill="#63b8ff" stroke="#63b8ff" points="959.72,-302.16 970.04,-299.75 960.47,-295.2 959.72,-302.16"/>
</g>
<!-- Node11 -->
<g id="node11" class="node">
<title>Node11</title>
<g id="a_node11"><a xlink:href="SMenu_8hpp.html" target="_top" xlink:title=" ">
<polygon fill="white" stroke="#666666" points="1428,-250 1288,-250 1288,-209 1428,-209 1428,-250"/>
<text text-anchor="start" x="1296" y="-238" font-family="Helvetica,sans-Serif" font-size="10.00">/github/workspace/client</text>
<text text-anchor="start" x="1296" y="-227" font-family="Helvetica,sans-Serif" font-size="10.00">/include/system/gameStates</text>
<text text-anchor="middle" x="1358" y="-216" font-family="Helvetica,sans-Serif" font-size="10.00">/SMenu.hpp</text>
</a>
</g>
</g>
<!-- Node3&#45;&gt;Node11 -->
<g id="edge12" class="edge">
<title>Node3&#45;&gt;Node11</title>
<path fill="none" stroke="#63b8ff" d="M1123.37,-286.7C1169.13,-276.06 1227.28,-262.44 1279,-250 1281.88,-249.31 1284.83,-248.6 1287.8,-247.87"/>
<polygon fill="#63b8ff" stroke="#63b8ff" points="1122.73,-283.25 1113.79,-288.92 1124.32,-290.07 1122.73,-283.25"/>
</g>
<!-- Node12 -->
<g id="node12" class="node">
<title>Node12</title>
<g id="a_node12"><a xlink:href="old__SGamePlay_01copy_8hpp.html" target="_top" xlink:title=" ">
<polygon fill="white" stroke="#666666" points="1112,-250 972,-250 972,-209 1112,-209 1112,-250"/>
<text text-anchor="start" x="980" y="-238" font-family="Helvetica,sans-Serif" font-size="10.00">/github/workspace/client</text>
<text text-anchor="start" x="980" y="-227" font-family="Helvetica,sans-Serif" font-size="10.00">/include/system/gameStates</text>
<text text-anchor="middle" x="1042" y="-216" font-family="Helvetica,sans-Serif" font-size="10.00">/old_SGamePlay copy.hpp</text>
</a>
</g>
</g>
<!-- Node3&#45;&gt;Node12 -->
<g id="edge15" class="edge">
<title>Node3&#45;&gt;Node12</title>
<path fill="none" stroke="#63b8ff" d="M1042,-274.36C1042,-266.24 1042,-257.7 1042,-250.33"/>
<polygon fill="#63b8ff" stroke="#63b8ff" points="1038.5,-274.28 1042,-284.28 1045.5,-274.28 1038.5,-274.28"/>
</g>
<!-- Node6&#45;&gt;Node7 -->
<g id="edge7" class="edge">
<title>Node6&#45;&gt;Node7</title>
<path fill="none" stroke="#63b8ff" d="M1140.28,-204.42C1115.53,-194.44 1087.16,-183 1063.59,-173.49"/>
<polygon fill="#63b8ff" stroke="#63b8ff" points="1138.66,-207.54 1149.24,-208.03 1141.27,-201.05 1138.66,-207.54"/>
</g>
<!-- Node8 -->
<g id="node8" class="node">
<title>Node8</title>
<g id="a_node8"><a xlink:href="GameEngine_8hpp.html" target="_top" xlink:title=" ">
<polygon fill="white" stroke="#666666" points="952.5,-96 791.5,-96 791.5,-66 952.5,-66 952.5,-96"/>
<text text-anchor="start" x="799.5" y="-84" font-family="Helvetica,sans-Serif" font-size="10.00">/github/workspace/client</text>
<text text-anchor="middle" x="872" y="-73" font-family="Helvetica,sans-Serif" font-size="10.00">/include/system/GameEngine.hpp</text>
</a>
</g>
</g>
<!-- Node7&#45;&gt;Node8 -->
<g id="edge8" class="edge">
<title>Node7&#45;&gt;Node8</title>
<path fill="none" stroke="#63b8ff" d="M963.07,-126.57C942.38,-116.45 919.21,-105.11 901.42,-96.4"/>
<polygon fill="#63b8ff" stroke="#63b8ff" points="961.43,-129.67 971.95,-130.92 964.51,-123.38 961.43,-129.67"/>
</g>
<!-- Node8&#45;&gt;Node3 -->
<g id="edge9" class="edge">
<title>Node8&#45;&gt;Node3</title>
<path fill="none" stroke="#63b8ff" d="M843,-103.39C801.38,-136.65 733.84,-201.93 773,-250 797.62,-280.22 900.52,-294.48 971.66,-300.84"/>
<polygon fill="#63b8ff" stroke="#63b8ff" points="845.01,-106.26 850.74,-97.35 840.71,-100.74 845.01,-106.26"/>
</g>
<!-- Node9 -->
<g id="node9" class="node">
<title>Node9</title>
<g id="a_node9"><a xlink:href="StateManager_8cpp.html" target="_top" xlink:title=" ">
<polygon fill="white" stroke="#666666" points="1495,-30 1373,-30 1373,0 1495,0 1495,-30"/>
<text text-anchor="start" x="1381" y="-18" font-family="Helvetica,sans-Serif" font-size="10.00">/github/workspace/client</text>
<text text-anchor="middle" x="1434" y="-7" font-family="Helvetica,sans-Serif" font-size="10.00">/src/StateManager.cpp</text>
</a>
</g>
</g>
<!-- Node8&#45;&gt;Node9 -->
<g id="edge10" class="edge">
<title>Node8&#45;&gt;Node9</title>
<path fill="none" stroke="#63b8ff" d="M964.08,-69.51C1079.49,-56.37 1274.09,-34.21 1372.73,-22.98"/>
<polygon fill="#63b8ff" stroke="#63b8ff" points="963.86,-66.02 954.32,-70.63 964.66,-72.97 963.86,-66.02"/>
</g>
<!-- Node8&#45;&gt;Node10 -->
<g id="edge11" class="edge">
<title>Node8&#45;&gt;Node10</title>
<path fill="none" stroke="#63b8ff" d="M779.8,-72.72C612.6,-59.53 263.64,-31.99 122.36,-20.84"/>
<polygon fill="#63b8ff" stroke="#63b8ff" points="779.52,-76.21 789.76,-73.51 780.07,-69.23 779.52,-76.21"/>
</g>
<!-- Node11&#45;&gt;Node7 -->
<g id="edge13" class="edge">
<title>Node11&#45;&gt;Node7</title>
<path fill="none" stroke="#63b8ff" d="M1276.89,-208.55C1205.93,-192.49 1135.32,-177.85 1084.45,-167.54"/>
<polygon fill="#63b8ff" stroke="#63b8ff" points="1275.82,-211.9 1286.34,-210.7 1277.37,-205.07 1275.82,-211.9"/>
</g>
<!-- Node13&#45;&gt;Node14 -->
<g id="edge17" class="edge">
<title>Node13&#45;&gt;Node14</title>
<path fill="none" stroke="#63b8ff" d="M337.6,-361.75C355.67,-349.09 378.31,-333.21 394.43,-321.92"/>
<polygon fill="#63b8ff" stroke="#63b8ff" points="336.05,-358.56 329.87,-367.17 340.07,-364.3 336.05,-358.56"/>
</g>
<!-- Node15&#45;&gt;Node5 -->
<g id="edge19" class="edge">
<title>Node15&#45;&gt;Node5</title>
<path fill="none" stroke="#63b8ff" d="M1457.39,-283.46C1469.01,-272.96 1482.8,-260.5 1494.08,-250.3"/>
<polygon fill="#63b8ff" stroke="#63b8ff" points="1455.2,-280.72 1450.13,-290.02 1459.89,-285.92 1455.2,-280.72"/>
</g>
<!-- Node15&#45;&gt;Node11 -->
<g id="edge20" class="edge">
<title>Node15&#45;&gt;Node11</title>
<path fill="none" stroke="#63b8ff" d="M1410.65,-283.15C1400.22,-272.72 1387.9,-260.4 1377.8,-250.3"/>
<polygon fill="#63b8ff" stroke="#63b8ff" points="1407.92,-285.37 1417.47,-289.97 1412.87,-280.42 1407.92,-285.37"/>
</g>
<!-- Node16&#45;&gt;Node1 -->
<g id="edge22" class="edge">
<title>Node16&#45;&gt;Node1</title>
<path fill="none" stroke="#63b8ff" d="M673.22,-403.64C638.92,-419.93 600.81,-444.67 624,-470 656.83,-505.85 974.11,-516.13 1115.13,-518.97"/>
<polygon fill="#63b8ff" stroke="#63b8ff" points="674.65,-406.83 682.29,-399.49 671.74,-400.47 674.65,-406.83"/>
</g>
<!-- Node16&#45;&gt;Node14 -->
<g id="edge23" class="edge">
<title>Node16&#45;&gt;Node14</title>
<path fill="none" stroke="#63b8ff" d="M642.84,-365.49C597.21,-354.85 537.6,-340.61 485,-327 478.89,-325.42 472.5,-323.71 466.17,-321.99"/>
<polygon fill="#63b8ff" stroke="#63b8ff" points="641.82,-368.85 652.35,-367.71 643.4,-362.03 641.82,-368.85"/>
</g>
<!-- Node17 -->
<g id="node17" class="node">
<title>Node17</title>
<g id="a_node17"><a xlink:href="Bullets_8cpp.html" target="_top" xlink:title=" ">
<polygon fill="white" stroke="#666666" points="778,-321.5 656,-321.5 656,-291.5 778,-291.5 778,-321.5"/>
<text text-anchor="start" x="664" y="-309.5" font-family="Helvetica,sans-Serif" font-size="10.00">/github/workspace/client</text>
<text text-anchor="middle" x="717" y="-298.5" font-family="Helvetica,sans-Serif" font-size="10.00">/src/Bullets.cpp</text>
</a>
</g>
</g>
<!-- Node16&#45;&gt;Node17 -->
<g id="edge24" class="edge">
<title>Node16&#45;&gt;Node17</title>
<path fill="none" stroke="#63b8ff" d="M717,-356.73C717,-345.08 717,-331.76 717,-321.92"/>
<polygon fill="#63b8ff" stroke="#63b8ff" points="713.5,-356.53 717,-366.53 720.5,-356.53 713.5,-356.53"/>
</g>
<!-- Node18&#45;&gt;Node3 -->
<g id="edge26" class="edge">
<title>Node18&#45;&gt;Node3</title>
<path fill="none" stroke="#63b8ff" d="M1042,-356.68C1042,-347.06 1042,-336.3 1042,-327.3"/>
<polygon fill="#63b8ff" stroke="#63b8ff" points="1038.5,-356.53 1042,-366.53 1045.5,-356.53 1038.5,-356.53"/>
</g>
<!-- Node19&#45;&gt;Node16 -->
<g id="edge28" class="edge">
<title>Node19&#45;&gt;Node16</title>
<path fill="none" stroke="#63b8ff" d="M717.63,-428.26C717.49,-418.33 717.33,-407.36 717.21,-398.88"/>
<polygon fill="#63b8ff" stroke="#63b8ff" points="714.13,-428.14 717.77,-438.09 721.13,-428.04 714.13,-428.14"/>
</g>
<!-- Node19&#45;&gt;Node18 -->
<g id="edge29" class="edge">
<title>Node19&#45;&gt;Node18</title>
<path fill="none" stroke="#63b8ff" d="M796.52,-437.16C850.96,-425.48 922.7,-410.09 974.56,-398.97"/>
<polygon fill="#63b8ff" stroke="#63b8ff" points="796.05,-433.68 787.01,-439.2 797.52,-440.52 796.05,-433.68"/>
</g>
<!-- Node19&#45;&gt;Node20 -->
<g id="edge30" class="edge">
<title>Node19&#45;&gt;Node20</title>
<path fill="none" stroke="#63b8ff" d="M668.69,-435.67C637.73,-424.17 598.39,-409.55 569.7,-398.88"/>
<polygon fill="#63b8ff" stroke="#63b8ff" points="667.24,-438.87 677.83,-439.07 669.68,-432.31 667.24,-438.87"/>
</g>
<!-- Node19&#45;&gt;Node22 -->
<g id="edge35" class="edge">
<title>Node19&#45;&gt;Node22</title>
<path fill="none" stroke="#63b8ff" d="M761.24,-434.98C782.81,-425.49 808.88,-414.02 830.72,-404.42"/>
<polygon fill="#63b8ff" stroke="#63b8ff" points="759.87,-431.76 752.12,-438.99 762.69,-438.17 759.87,-431.76"/>
</g>
<!-- Node20&#45;&gt;Node1 -->
<g id="edge31" class="edge">
<title>Node20&#45;&gt;Node1</title>
<path fill="none" stroke="#63b8ff" d="M550.89,-407.92C565.33,-428.16 586.3,-456.26 613,-470 699.43,-514.47 984.06,-520.31 1115.06,-520.49"/>
<polygon fill="#63b8ff" stroke="#63b8ff" points="553.86,-406.06 545.21,-399.95 548.16,-410.12 553.86,-406.06"/>
</g>
<!-- Node20&#45;&gt;Node3 -->
<g id="edge33" class="edge">
<title>Node20&#45;&gt;Node3</title>
<path fill="none" stroke="#63b8ff" d="M611.06,-365.98C616.79,-364.93 622.48,-363.92 628,-363 748.34,-342.86 889.32,-325.22 971.84,-315.49"/>
<polygon fill="#63b8ff" stroke="#63b8ff" points="610.72,-362.48 601.54,-367.77 612.01,-369.36 610.72,-362.48"/>
</g>
<!-- Node20&#45;&gt;Node14 -->
<g id="edge32" class="edge">
<title>Node20&#45;&gt;Node14</title>
<path fill="none" stroke="#63b8ff" d="M499.18,-361.92C479.55,-349.23 454.85,-333.27 437.3,-321.92"/>
<polygon fill="#63b8ff" stroke="#63b8ff" points="497.07,-364.73 507.36,-367.22 500.87,-358.85 497.07,-364.73"/>
</g>
<!-- Node21 -->
<g id="node21" class="node">
<title>Node21</title>
<g id="a_node21"><a xlink:href="EntitiesManager_8cpp.html" target="_top" xlink:title=" ">
<polygon fill="white" stroke="#666666" points="618,-321.5 494,-321.5 494,-291.5 618,-291.5 618,-321.5"/>
<text text-anchor="start" x="502" y="-309.5" font-family="Helvetica,sans-Serif" font-size="10.00">/github/workspace/client</text>
<text text-anchor="middle" x="556" y="-298.5" font-family="Helvetica,sans-Serif" font-size="10.00">/src/EntitiesManager.cpp</text>
</a>
</g>
</g>
<!-- Node20&#45;&gt;Node21 -->
<g id="edge34" class="edge">
<title>Node20&#45;&gt;Node21</title>
<path fill="none" stroke="#63b8ff" d="M539.35,-357.46C543.28,-345.65 547.84,-331.97 551.19,-321.92"/>
<polygon fill="#63b8ff" stroke="#63b8ff" points="536.14,-356.01 536.3,-366.6 542.78,-358.22 536.14,-356.01"/>
</g>
<!-- Node26 -->
<g id="node26" class="node">
<title>Node26</title>
<g id="a_node26"><a xlink:href="Destroy_8cpp.html" target="_top" xlink:title=" ">
<polygon fill="white" stroke="#666666" points="1591,-398.5 1469,-398.5 1469,-368.5 1591,-368.5 1591,-398.5"/>
<text text-anchor="start" x="1477" y="-386.5" font-family="Helvetica,sans-Serif" font-size="10.00">/github/workspace/client</text>
<text text-anchor="middle" x="1530" y="-375.5" font-family="Helvetica,sans-Serif" font-size="10.00">/src/Destroy.cpp</text>
</a>
</g>
</g>
<!-- Node25&#45;&gt;Node26 -->
<g id="edge39" class="edge">
<title>Node25&#45;&gt;Node26</title>
<path fill="none" stroke="#63b8ff" d="M1530,-428.26C1530,-418.33 1530,-407.36 1530,-398.88"/>
<polygon fill="#63b8ff" stroke="#63b8ff" points="1526.5,-428.09 1530,-438.09 1533.5,-428.09 1526.5,-428.09"/>
</g>
<!-- Node28 -->
<g id="node28" class="node">
<title>Node28</title>
<g id="a_node28"><a xlink:href="Draw_8cpp.html" target="_top" xlink:title=" ">
<polygon fill="white" stroke="#666666" points="1741,-398.5 1619,-398.5 1619,-368.5 1741,-368.5 1741,-398.5"/>
<text text-anchor="start" x="1627" y="-386.5" font-family="Helvetica,sans-Serif" font-size="10.00">/github/workspace/client</text>
<text text-anchor="middle" x="1680" y="-375.5" font-family="Helvetica,sans-Serif" font-size="10.00">/src/Draw.cpp</text>
</a>
</g>
</g>
<!-- Node27&#45;&gt;Node28 -->
<g id="edge41" class="edge">
<title>Node27&#45;&gt;Node28</title>
<path fill="none" stroke="#63b8ff" d="M1680,-428.26C1680,-418.33 1680,-407.36 1680,-398.88"/>
<polygon fill="#63b8ff" stroke="#63b8ff" points="1676.5,-428.09 1680,-438.09 1683.5,-428.09 1676.5,-428.09"/>
</g>
<!-- Node29&#45;&gt;Node10 -->
<g id="edge44" class="edge">
<title>Node29&#45;&gt;Node10</title>
<path fill="none" stroke="#63b8ff" d="M110.71,-433.58C99.19,-425.79 87.65,-415.87 80,-404 56.32,-367.26 61,-351.21 61,-307.5 61,-307.5 61,-307.5 61,-151.5 61,-107.27 61,-54.93 61,-30.24"/>
<polygon fill="#63b8ff" stroke="#63b8ff" points="108.69,-436.44 119.02,-438.82 112.43,-430.52 108.69,-436.44"/>
</g>
<!-- Node30 -->
<g id="node30" class="node">
<title>Node30</title>
<g id="a_node30"><a xlink:href="Error_8cpp.html" target="_top" xlink:title=" ">
<polygon fill="white" stroke="#666666" points="211,-398.5 89,-398.5 89,-368.5 211,-368.5 211,-398.5"/>
<text text-anchor="start" x="97" y="-386.5" font-family="Helvetica,sans-Serif" font-size="10.00">/github/workspace/client</text>
<text text-anchor="middle" x="150" y="-375.5" font-family="Helvetica,sans-Serif" font-size="10.00">/src/Error.cpp</text>
</a>
</g>
</g>
<!-- Node29&#45;&gt;Node30 -->
<g id="edge43" class="edge">
<title>Node29&#45;&gt;Node30</title>
<path fill="none" stroke="#63b8ff" d="M150,-428.26C150,-418.33 150,-407.36 150,-398.88"/>
<polygon fill="#63b8ff" stroke="#63b8ff" points="146.5,-428.09 150,-438.09 153.5,-428.09 146.5,-428.09"/>
</g>
<!-- Node31&#45;&gt;Node1 -->
<g id="edge46" class="edge">
<title>Node31&#45;&gt;Node1</title>
<path fill="none" stroke="#63b8ff" d="M1749.36,-471.6C1567.6,-496.3 1354.82,-510.67 1248.86,-516.67"/>
<polygon fill="#63b8ff" stroke="#63b8ff" points="1749.8,-475.07 1759.23,-470.24 1748.85,-468.14 1749.8,-475.07"/>
</g>
<!-- Node31&#45;&gt;Node32 -->
<g id="edge47" class="edge">
<title>Node31&#45;&gt;Node32</title>
<path fill="none" stroke="#63b8ff" d="M1840.75,-430.2C1847.64,-419.79 1855.5,-407.92 1861.48,-398.88"/>
<polygon fill="#63b8ff" stroke="#63b8ff" points="1837.97,-428.07 1835.37,-438.34 1843.8,-431.93 1837.97,-428.07"/>
</g>
<!-- Node34&#45;&gt;Node9 -->
<g id="edge50" class="edge">
<title>Node34&#45;&gt;Node9</title>
<path fill="none" stroke="#63b8ff" d="M2008.79,-365.08C1939.62,-345.48 1854,-305.98 1854,-230.5 1854,-230.5 1854,-230.5 1854,-151.5 1854,-76.99 1611.56,-37.48 1495.07,-22.8"/>
<polygon fill="#63b8ff" stroke="#63b8ff" points="2007.71,-368.41 2018.28,-367.66 2009.55,-361.66 2007.71,-368.41"/>
</g>
<!-- Node36&#45;&gt;Node1 -->
<g id="edge53" class="edge">
<title>Node36&#45;&gt;Node1</title>
<path fill="none" stroke="#63b8ff" d="M2251.51,-471.28C1871.92,-513.11 1417.05,-519.17 1248.75,-519.94"/>
<polygon fill="#63b8ff" stroke="#63b8ff" points="2251.66,-474.78 2261.22,-470.2 2250.89,-467.83 2251.66,-474.78"/>
</g>
<!-- Node36&#45;&gt;Node34 -->
<g id="edge54" class="edge">
<title>Node36&#45;&gt;Node34</title>
<path fill="none" stroke="#63b8ff" d="M2271.8,-436.35C2232.34,-424.77 2181.39,-409.83 2144.33,-398.97"/>
<polygon fill="#63b8ff" stroke="#63b8ff" points="2270.57,-439.63 2281.15,-439.09 2272.54,-432.92 2270.57,-439.63"/>
</g>
<!-- Node37 -->
<g id="node37" class="node">
<title>Node37</title>
<g id="a_node37"><a xlink:href="Window_8cpp.html" target="_top" xlink:title=" ">
<polygon fill="white" stroke="#666666" points="2393,-398.5 2271,-398.5 2271,-368.5 2393,-368.5 2393,-398.5"/>
<text text-anchor="start" x="2279" y="-386.5" font-family="Helvetica,sans-Serif" font-size="10.00">/github/workspace/client</text>
<text text-anchor="middle" x="2332" y="-375.5" font-family="Helvetica,sans-Serif" font-size="10.00">/src/Window.cpp</text>
</a>
</g>
</g>
<!-- Node36&#45;&gt;Node37 -->
<g id="edge55" class="edge">
<title>Node36&#45;&gt;Node37</title>
<path fill="none" stroke="#63b8ff" d="M2332,-428.26C2332,-418.33 2332,-407.36 2332,-398.88"/>
<polygon fill="#63b8ff" stroke="#63b8ff" points="2328.5,-428.09 2332,-438.09 2335.5,-428.09 2328.5,-428.09"/>
</g>
<!-- Node39 -->
<g id="node39" class="node">
<title>Node39</title>
<g id="a_node39"><a xlink:href="Enemy_8hpp.html" target="_top" xlink:title=" ">
<polygon fill="white" stroke="#666666" points="2571,-398.5 2413,-398.5 2413,-368.5 2571,-368.5 2571,-398.5"/>
<text text-anchor="start" x="2421" y="-386.5" font-family="Helvetica,sans-Serif" font-size="10.00">/github/workspace/client</text>
<text text-anchor="middle" x="2492" y="-375.5" font-family="Helvetica,sans-Serif" font-size="10.00">/include/Components/Enemy.hpp</text>
</a>
</g>
</g>
<!-- Node38&#45;&gt;Node39 -->
<g id="edge58" class="edge">
<title>Node38&#45;&gt;Node39</title>
<path fill="none" stroke="#63b8ff" d="M2493.89,-428.26C2493.46,-418.33 2492.99,-407.36 2492.62,-398.88"/>
<polygon fill="#63b8ff" stroke="#63b8ff" points="2490.39,-428.25 2494.31,-438.09 2497.38,-427.95 2490.39,-428.25"/>
</g>
<!-- Node40 -->
<g id="node40" class="node">
<title>Node40</title>
<g id="a_node40"><a xlink:href="Player_8hpp.html" target="_top" xlink:title=" ">
<polygon fill="white" stroke="#666666" points="2745,-398.5 2589,-398.5 2589,-368.5 2745,-368.5 2745,-398.5"/>
<text text-anchor="start" x="2597" y="-386.5" font-family="Helvetica,sans-Serif" font-size="10.00">/github/workspace/client</text>
<text text-anchor="middle" x="2667" y="-375.5" font-family="Helvetica,sans-Serif" font-size="10.00">/include/Components/Player.hpp</text>
</a>
</g>
</g>
<!-- Node38&#45;&gt;Node40 -->
<g id="edge59" class="edge">
<title>Node38&#45;&gt;Node40</title>
<path fill="none" stroke="#63b8ff" d="M2541.11,-435.37C2569.46,-423.91 2605.24,-409.45 2631.41,-398.88"/>
<polygon fill="#63b8ff" stroke="#63b8ff" points="2540,-432.04 2532.04,-439.03 2542.62,-438.53 2540,-432.04"/>
</g>
<!-- Node41 -->
<g id="node41" class="node">
<title>Node41</title>
<g id="a_node41"><a xlink:href="Player_8cpp.html" target="_top" xlink:title=" ">
<polygon fill="white" stroke="#666666" points="2728,-321.5 2606,-321.5 2606,-291.5 2728,-291.5 2728,-321.5"/>
<text text-anchor="start" x="2614" y="-309.5" font-family="Helvetica,sans-Serif" font-size="10.00">/github/workspace/client</text>
<text text-anchor="middle" x="2667" y="-298.5" font-family="Helvetica,sans-Serif" font-size="10.00">/src/Player.cpp</text>
</a>
</g>
</g>
<!-- Node40&#45;&gt;Node41 -->
<g id="edge60" class="edge">
<title>Node40&#45;&gt;Node41</title>
<path fill="none" stroke="#63b8ff" d="M2667,-356.73C2667,-345.08 2667,-331.76 2667,-321.92"/>
<polygon fill="#63b8ff" stroke="#63b8ff" points="2663.5,-356.53 2667,-366.53 2670.5,-356.53 2663.5,-356.53"/>
</g>
</g>
</svg>
        <g id="navigator" transform="translate(0 0)" fill="#404254">
                <rect fill="#f2f5e9" fill-opacity="0.5" stroke="#606060" stroke-width=".5" x="0" y="0" width="60" height="60"/>
                <use id="zoomplus" xlink:href="#zoomPlus" x="17" y="9" onmousedown="handleZoom(evt,'in')"/>
                <use id="zoomminus" xlink:href="#zoomMin" x="42" y="9" onmousedown="handleZoom(evt,'out')"/>
                <use id="reset" xlink:href="#resetDef" x="30" y="36" onmousedown="handleReset()"/>
                <g id="arrowUp" xlink:href="#dirArrow" transform="translate(30 24)" onmousedown="handlePan(0,-1)">
                  <use xlink:href="#rim" fill="#404040">
                        <set attributeName="fill" to="#808080" begin="arrowUp.mouseover" end="arrowUp.mouseout"/>
                  </use>
                  <path fill="none" stroke="white" stroke-width="1.5" d="M0,-3.0v7 M-2.5,-0.5L0,-3.0L2.5,-0.5"/>
                </g>
                <g id="arrowRight" xlink:href="#dirArrow" transform="rotate(90) translate(36 -43)" onmousedown="handlePan(1,0)">
                  <use xlink:href="#rim" fill="#404040">
                        <set attributeName="fill" to="#808080" begin="arrowRight.mouseover" end="arrowRight.mouseout"/>
                  </use>
                  <path fill="none" stroke="white" stroke-width="1.5" d="M0,-3.0v7 M-2.5,-0.5L0,-3.0L2.5,-0.5"/>
                </g>
                <g id="arrowDown" xlink:href="#dirArrow" transform="rotate(180) translate(-30 -48)" onmousedown="handlePan(0,1)">
                  <use xlink:href="#rim" fill="#404040">
                        <set attributeName="fill" to="#808080" begin="arrowDown.mouseover" end="arrowDown.mouseout"/>
                  </use>
                  <path fill="none" stroke="white" stroke-width="1.5" d="M0,-3.0v7 M-2.5,-0.5L0,-3.0L2.5,-0.5"/>
                </g>
                <g id="arrowLeft" xlink:href="#dirArrow" transform="rotate(270) translate(-36 17)" onmousedown="handlePan(-1,0)">
                  <use xlink:href="#rim" fill="#404040">
                        <set attributeName="fill" to="#808080" begin="arrowLeft.mouseover" end="arrowLeft.mouseout"/>
                  </use>
                  <path fill="none" stroke="white" stroke-width="1.5" d="M0,-3.0v7 M-2.5,-0.5L0,-3.0L2.5,-0.5"/>
                </g>
        </g>
        <svg viewBox="0 0 15 15" width="100%" height="30px" preserveAspectRatio="xMaxYMin meet">
         <g id="arrow_out" transform="scale(0.3 0.3)">
          <a xlink:href="Engine_8hpp__dep__incl_org.svg" target="_base">
           <rect id="button" ry="5" rx="5" y="6" x="6" height="38" width="38"
                fill="#f2f5e9" fill-opacity="0.5" stroke="#606060" stroke-width="1.0"/>
           <path id="arrow"
             d="M 11.500037,31.436501 C 11.940474,20.09759 22.043105,11.32322 32.158766,21.979434 L 37.068811,17.246167 C 37.068811,17.246167 37.088388,32 37.088388,32 L 22.160133,31.978069 C 22.160133,31.978069 26.997745,27.140456 26.997745,27.140456 C 18.528582,18.264221 13.291696,25.230495 11.500037,31.436501 z"
             style="fill:#404040;"/>
          </a>
         </g>
        </svg>
</svg>
