<?xml version="1.0" encoding="UTF-8" standalone="no"?>
<!DOCTYPE svg PUBLIC "-//W3C//DTD SVG 1.1//EN"
 "http://www.w3.org/Graphics/SVG/1.1/DTD/svg11.dtd">
<!-- Generated by graphviz version 7.0.5 (20221223.1930)
 -->
<!-- Title: /github/workspace/client/include/Engine/Engine.hpp Pages: 1 -->
<svg width="1733pt" height="258pt"
 viewBox="0.00 0.00 1732.50 258.00" xmlns="http://www.w3.org/2000/svg" xmlns:xlink="http://www.w3.org/1999/xlink">
<g id="graph0" class="graph" transform="scale(1 1) rotate(0) translate(4 254)">
<title>/github/workspace/client/include/Engine/Engine.hpp</title>
<!-- Node1 -->
<g id="node1" class="node">
<title>Node1</title>
<g id="a_node1"><a xlink:title=" ">
<polygon fill="#999999" stroke="#666666" points="982,-250 849,-250 849,-220 982,-220 982,-250"/>
<text text-anchor="start" x="857" y="-238" font-family="Helvetica,sans-Serif" font-size="10.00">/github/workspace/client</text>
<text text-anchor="middle" x="915.5" y="-227" font-family="Helvetica,sans-Serif" font-size="10.00">/include/Engine/Engine.hpp</text>
</a>
</g>
</g>
<!-- Node2 -->
<g id="node2" class="node">
<title>Node2</title>
<g id="a_node2"><a xlink:title=" ">
<polygon fill="#e0e0e0" stroke="#999999" points="89,-184 0,-184 0,-165 89,-165 89,-184"/>
<text text-anchor="middle" x="44.5" y="-172" font-family="Helvetica,sans-Serif" font-size="10.00">SFML/Audio.hpp</text>
</a>
</g>
</g>
<!-- Node1&#45;&gt;Node2 -->
<g id="edge1" class="edge">
<title>Node1&#45;&gt;Node2</title>
<path fill="none" stroke="#63b8ff" d="M848.6,-232.06C710.74,-227.59 384.83,-214.62 100.61,-184.11"/>
<polygon fill="#63b8ff" stroke="#63b8ff" points="101.07,-180.64 90.75,-183.04 100.31,-187.6 101.07,-180.64"/>
</g>
<!-- Node3 -->
<g id="node3" class="node">
<title>Node3</title>
<g id="a_node3"><a xlink:title=" ">
<polygon fill="#e0e0e0" stroke="#999999" points="211.5,-184 107.5,-184 107.5,-165 211.5,-165 211.5,-184"/>
<text text-anchor="middle" x="159.5" y="-172" font-family="Helvetica,sans-Serif" font-size="10.00">SFML/Graphics.hpp</text>
</a>
</g>
</g>
<!-- Node1&#45;&gt;Node3 -->
<g id="edge2" class="edge">
<title>Node1&#45;&gt;Node3</title>
<path fill="none" stroke="#63b8ff" d="M848.76,-230.68C726.71,-224.29 459.11,-208.77 222.94,-184.19"/>
<polygon fill="#63b8ff" stroke="#63b8ff" points="223.53,-180.73 213.22,-183.17 222.8,-187.69 223.53,-180.73"/>
</g>
<!-- Node4 -->
<g id="node4" class="node">
<title>Node4</title>
<g id="a_node4"><a xlink:title=" ">
<polygon fill="#e0e0e0" stroke="#999999" points="331,-184 230,-184 230,-165 331,-165 331,-184"/>
<text text-anchor="middle" x="280.5" y="-172" font-family="Helvetica,sans-Serif" font-size="10.00">SFML/Network.hpp</text>
</a>
</g>
</g>
<!-- Node1&#45;&gt;Node4 -->
<g id="edge3" class="edge">
<title>Node1&#45;&gt;Node4</title>
<path fill="none" stroke="#63b8ff" d="M848.86,-229.44C743.55,-221.97 531.95,-205.87 342.61,-184.3"/>
<polygon fill="#63b8ff" stroke="#63b8ff" points="343.16,-180.84 332.83,-183.18 342.36,-187.8 343.16,-180.84"/>
</g>
<!-- Node5 -->
<g id="node5" class="node">
<title>Node5</title>
<g id="a_node5"><a xlink:title=" ">
<polygon fill="#e0e0e0" stroke="#999999" points="448,-184 349,-184 349,-165 448,-165 448,-184"/>
<text text-anchor="middle" x="398.5" y="-172" font-family="Helvetica,sans-Serif" font-size="10.00">SFML/Window.hpp</text>
</a>
</g>
</g>
<!-- Node1&#45;&gt;Node5 -->
<g id="edge4" class="edge">
<title>Node1&#45;&gt;Node5</title>
<path fill="none" stroke="#63b8ff" d="M848.67,-227.43C761.67,-218.72 604.6,-202.43 459.68,-184.23"/>
<polygon fill="#63b8ff" stroke="#63b8ff" points="460.24,-180.78 449.88,-183 459.36,-187.72 460.24,-180.78"/>
</g>
<!-- Node6 -->
<g id="node6" class="node">
<title>Node6</title>
<g id="a_node6"><a xlink:title=" ">
<polygon fill="#e0e0e0" stroke="#999999" points="564.5,-184 466.5,-184 466.5,-165 564.5,-165 564.5,-184"/>
<text text-anchor="middle" x="515.5" y="-172" font-family="Helvetica,sans-Serif" font-size="10.00">SFML/System.hpp</text>
</a>
</g>
</g>
<!-- Node1&#45;&gt;Node6 -->
<g id="edge5" class="edge">
<title>Node1&#45;&gt;Node6</title>
<path fill="none" stroke="#63b8ff" d="M848.55,-224.21C772.55,-213.09 649.64,-195.12 576.29,-184.39"/>
<polygon fill="#63b8ff" stroke="#63b8ff" points="576.86,-180.94 566.46,-182.95 575.85,-187.86 576.86,-180.94"/>
</g>
<!-- Node7 -->
<g id="node7" class="node">
<title>Node7</title>
<g id="a_node7"><a xlink:title=" ">
<polygon fill="#e0e0e0" stroke="#999999" points="669.5,-19 615.5,-19 615.5,0 669.5,0 669.5,-19"/>
<text text-anchor="middle" x="642.5" y="-7" font-family="Helvetica,sans-Serif" font-size="10.00">iostream</text>
</a>
</g>
</g>
<!-- Node1&#45;&gt;Node7 -->
<g id="edge6" class="edge">
<title>Node1&#45;&gt;Node7</title>
<path fill="none" stroke="#63b8ff" d="M848.53,-231.53C774.59,-227.23 662.42,-215.56 635.5,-184 598.07,-140.11 620.51,-64.88 634.23,-29.7"/>
<polygon fill="#63b8ff" stroke="#63b8ff" points="637.32,-31.39 637.87,-20.81 630.84,-28.73 637.32,-31.39"/>
</g>
<!-- Node8 -->
<g id="node8" class="node">
<title>Node8</title>
<g id="a_node8"><a xlink:title=" ">
<polygon fill="#e0e0e0" stroke="#999999" points="1044.5,-184 994.5,-184 994.5,-165 1044.5,-165 1044.5,-184"/>
<text text-anchor="middle" x="1019.5" y="-172" font-family="Helvetica,sans-Serif" font-size="10.00">fstream</text>
</a>
</g>
</g>
<!-- Node1&#45;&gt;Node8 -->
<g id="edge7" class="edge">
<title>Node1&#45;&gt;Node8</title>
<path fill="none" stroke="#63b8ff" d="M941.21,-219.54C957.29,-210.49 977.93,-198.88 993.98,-189.85"/>
<polygon fill="#63b8ff" stroke="#63b8ff" points="995.45,-193.04 1002.45,-185.09 992.02,-186.94 995.45,-193.04"/>
</g>
<!-- Node9 -->
<g id="node9" class="node">
<title>Node9</title>
<g id="a_node9"><a xlink:title=" ">
<polygon fill="#e0e0e0" stroke="#999999" points="1104,-184 1063,-184 1063,-165 1104,-165 1104,-184"/>
<text text-anchor="middle" x="1083.5" y="-172" font-family="Helvetica,sans-Serif" font-size="10.00">string</text>
</a>
</g>
</g>
<!-- Node1&#45;&gt;Node9 -->
<g id="edge8" class="edge">
<title>Node1&#45;&gt;Node9</title>
<path fill="none" stroke="#63b8ff" d="M957.03,-219.54C986.45,-209.3 1025.29,-195.77 1052.13,-186.42"/>
<polygon fill="#63b8ff" stroke="#63b8ff" points="1053.12,-189.79 1061.41,-183.19 1050.82,-183.18 1053.12,-189.79"/>
</g>
<!-- Node10 -->
<g id="node10" class="node">
<title>Node10</title>
<g id="a_node10"><a xlink:title=" ">
<polygon fill="#e0e0e0" stroke="#999999" points="1172.5,-184 1122.5,-184 1122.5,-165 1172.5,-165 1172.5,-184"/>
<text text-anchor="middle" x="1147.5" y="-172" font-family="Helvetica,sans-Serif" font-size="10.00">unistd.h</text>
</a>
</g>
</g>
<!-- Node1&#45;&gt;Node10 -->
<g id="edge9" class="edge">
<title>Node1&#45;&gt;Node10</title>
<path fill="none" stroke="#63b8ff" d="M972.85,-219.54C1016.14,-208.62 1074.22,-193.98 1111.26,-184.64"/>
<polygon fill="#63b8ff" stroke="#63b8ff" points="1111.73,-188.13 1120.58,-182.29 1110.02,-181.34 1111.73,-188.13"/>
</g>
<!-- Node11 -->
<g id="node11" class="node">
<title>Node11</title>
<g id="a_node11"><a xlink:title=" ">
<polygon fill="#e0e0e0" stroke="#999999" points="1256,-184 1191,-184 1191,-165 1256,-165 1256,-184"/>
<text text-anchor="middle" x="1223.5" y="-172" font-family="Helvetica,sans-Serif" font-size="10.00">sys/types.h</text>
</a>
</g>
</g>
<!-- Node1&#45;&gt;Node11 -->
<g id="edge10" class="edge">
<title>Node1&#45;&gt;Node11</title>
<path fill="none" stroke="#63b8ff" d="M982.23,-221.72C1033.54,-212.22 1106.48,-198.58 1180.09,-184.25"/>
<polygon fill="#63b8ff" stroke="#63b8ff" points="1180.32,-187.77 1189.46,-182.42 1178.98,-180.9 1180.32,-187.77"/>
</g>
<!-- Node12 -->
<g id="node12" class="node">
<title>Node12</title>
<g id="a_node12"><a xlink:title=" ">
<polygon fill="#e0e0e0" stroke="#999999" points="731.5,-19 687.5,-19 687.5,0 731.5,0 731.5,-19"/>
<text text-anchor="middle" x="709.5" y="-7" font-family="Helvetica,sans-Serif" font-size="10.00">vector</text>
</a>
</g>
</g>
<!-- Node1&#45;&gt;Node12 -->
<g id="edge11" class="edge">
<title>Node1&#45;&gt;Node12</title>
<path fill="none" stroke="#63b8ff" d="M848.58,-230.89C778.23,-226.06 674.33,-213.93 649.5,-184 609.88,-136.24 665.23,-60.77 694.01,-27.37"/>
<polygon fill="#63b8ff" stroke="#63b8ff" points="696.3,-30.06 700.32,-20.25 691.07,-25.41 696.3,-30.06"/>
</g>
<!-- Node13 -->
<g id="node13" class="node">
<title>Node13</title>
<g id="a_node13"><a xlink:title=" ">
<polygon fill="#e0e0e0" stroke="#999999" points="1332.5,-184 1274.5,-184 1274.5,-165 1332.5,-165 1332.5,-184"/>
<text text-anchor="middle" x="1303.5" y="-172" font-family="Helvetica,sans-Serif" font-size="10.00">exception</text>
</a>
</g>
</g>
<!-- Node1&#45;&gt;Node13 -->
<g id="edge12" class="edge">
<title>Node1&#45;&gt;Node13</title>
<path fill="none" stroke="#63b8ff" d="M982.31,-225.89C1050.32,-217.3 1159.02,-202.67 1263.12,-184.12"/>
<polygon fill="#63b8ff" stroke="#63b8ff" points="1263.45,-187.62 1272.67,-182.4 1262.21,-180.73 1263.45,-187.62"/>
</g>
<!-- Node14 -->
<g id="node14" class="node">
<title>Node14</title>
<g id="a_node14"><a xlink:href="Window_8hpp.html" target="_top" xlink:title=" ">
<polygon fill="white" stroke="#666666" points="1452,-184 1351,-184 1351,-165 1452,-165 1452,-184"/>
<text text-anchor="middle" x="1401.5" y="-172" font-family="Helvetica,sans-Serif" font-size="10.00">Engine/Window.hpp</text>
</a>
</g>
</g>
<!-- Node1&#45;&gt;Node14 -->
<g id="edge13" class="edge">
<title>Node1&#45;&gt;Node14</title>
<path fill="none" stroke="#63b8ff" d="M982.21,-225.95C1064.6,-216.48 1208.8,-200.02 1332.5,-184 1334.78,-183.7 1337.11,-183.4 1339.47,-183.08"/>
<polygon fill="#63b8ff" stroke="#63b8ff" points="1339.71,-186.58 1349.15,-181.77 1338.77,-179.65 1339.71,-186.58"/>
</g>
<!-- Node15 -->
<g id="node15" class="node">
<title>Node15</title>
<g id="a_node15"><a xlink:href="Event_8hpp.html" target="_top" xlink:title=" ">
<polygon fill="white" stroke="#666666" points="1562.5,-184 1470.5,-184 1470.5,-165 1562.5,-165 1562.5,-184"/>
<text text-anchor="middle" x="1516.5" y="-172" font-family="Helvetica,sans-Serif" font-size="10.00">Engine/Event.hpp</text>
</a>
</g>
</g>
<!-- Node1&#45;&gt;Node15 -->
<g id="edge15" class="edge">
<title>Node1&#45;&gt;Node15</title>
<path fill="none" stroke="#63b8ff" d="M982.44,-228.69C1084.04,-220.76 1282.9,-204.51 1451.5,-184 1453.83,-183.72 1456.2,-183.41 1458.61,-183.09"/>
<polygon fill="#63b8ff" stroke="#63b8ff" points="1459.08,-186.56 1468.51,-181.73 1458.13,-179.63 1459.08,-186.56"/>
</g>
<!-- Node18 -->
<g id="node18" class="node">
<title>Node18</title>
<g id="a_node18"><a xlink:href="EntitiesManager_8hpp.html" target="_top" xlink:title=" ">
<polygon fill="white" stroke="#666666" points="798.5,-184 658.5,-184 658.5,-165 798.5,-165 798.5,-184"/>
<text text-anchor="middle" x="728.5" y="-172" font-family="Helvetica,sans-Serif" font-size="10.00">Entities/EntitiesManager.hpp</text>
</a>
</g>
</g>
<!-- Node1&#45;&gt;Node18 -->
<g id="edge19" class="edge">
<title>Node1&#45;&gt;Node18</title>
<path fill="none" stroke="#63b8ff" d="M863.36,-219.54C831.27,-209.87 791.12,-197.29 762.94,-188.04"/>
<polygon fill="#63b8ff" stroke="#63b8ff" points="764.06,-184.73 753.47,-184.91 761.86,-191.37 764.06,-184.73"/>
</g>
<!-- Node25 -->
<g id="node25" class="node">
<title>Node25</title>
<g id="a_node25"><a xlink:href="Bullets_8hpp.html" target="_top" xlink:title=" ">
<polygon fill="white" stroke="#666666" points="976.5,-184 854.5,-184 854.5,-165 976.5,-165 976.5,-184"/>
<text text-anchor="middle" x="915.5" y="-172" font-family="Helvetica,sans-Serif" font-size="10.00">Components/Bullets.hpp</text>
</a>
</g>
</g>
<!-- Node1&#45;&gt;Node25 -->
<g id="edge35" class="edge">
<title>Node1&#45;&gt;Node25</title>
<path fill="none" stroke="#63b8ff" d="M909.58,-219.54C908.69,-212.26 908.51,-203.31 909.07,-195.39"/>
<polygon fill="#63b8ff" stroke="#63b8ff" points="912.51,-196.05 910.34,-185.68 905.57,-195.14 912.51,-196.05"/>
</g>
<!-- Node27 -->
<g id="node27" class="node">
<title>Node27</title>
<g id="a_node27"><a xlink:href="Background_8hpp.html" target="_top" xlink:title=" ">
<polygon fill="white" stroke="#666666" points="1724.5,-184 1580.5,-184 1580.5,-165 1724.5,-165 1724.5,-184"/>
<text text-anchor="middle" x="1652.5" y="-172" font-family="Helvetica,sans-Serif" font-size="10.00">Components/Background.hpp</text>
</a>
</g>
</g>
<!-- Node1&#45;&gt;Node27 -->
<g id="edge39" class="edge">
<title>Node1&#45;&gt;Node27</title>
<path fill="none" stroke="#63b8ff" d="M982.34,-229.16C1099.82,-220.92 1350.63,-203.19 1562.5,-184 1564.67,-183.8 1566.86,-183.6 1569.08,-183.39"/>
<polygon fill="#63b8ff" stroke="#63b8ff" points="1569.2,-186.9 1578.81,-182.45 1568.53,-179.93 1569.2,-186.9"/>
</g>
<!-- Node14&#45;&gt;Node1 -->
<g id="edge14" class="edge">
<title>Node14&#45;&gt;Node1</title>
<path fill="none" stroke="#63b8ff" d="M1350.12,-184.05C1225.81,-200.14 1080.89,-216.68 993.69,-226.11"/>
<polygon fill="#63b8ff" stroke="#63b8ff" points="993.37,-222.62 983.81,-227.17 994.12,-229.58 993.37,-222.62"/>
</g>
<!-- Node15&#45;&gt;Node1 -->
<g id="edge16" class="edge">
<title>Node15&#45;&gt;Node1</title>
<path fill="none" stroke="#63b8ff" d="M1470.09,-183.93C1469.89,-183.95 1469.7,-183.98 1469.5,-184 1300.46,-204.56 1100.99,-220.84 993.46,-228.75"/>
<polygon fill="#63b8ff" stroke="#63b8ff" points="993.31,-225.26 983.59,-229.48 993.82,-232.24 993.31,-225.26"/>
</g>
<!-- Node16 -->
<g id="node16" class="node">
<title>Node16</title>
<g id="a_node16"><a xlink:title=" ">
<polygon fill="#e0e0e0" stroke="#999999" points="1558,-129 1529,-129 1529,-110 1558,-110 1558,-129"/>
<text text-anchor="middle" x="1543.5" y="-117" font-family="Helvetica,sans-Serif" font-size="10.00">list</text>
</a>
</g>
</g>
<!-- Node15&#45;&gt;Node16 -->
<g id="edge17" class="edge">
<title>Node15&#45;&gt;Node16</title>
<path fill="none" stroke="#63b8ff" d="M1520.96,-164.75C1524.45,-157.88 1529.45,-148.08 1533.85,-139.45"/>
<polygon fill="#63b8ff" stroke="#63b8ff" points="1536.84,-141.29 1538.26,-130.79 1530.6,-138.11 1536.84,-141.29"/>
</g>
<!-- Node17 -->
<g id="node17" class="node">
<title>Node17</title>
<g id="a_node17"><a xlink:title=" ">
<polygon fill="#e0e0e0" stroke="#999999" points="1511,-129 1468,-129 1468,-110 1511,-110 1511,-129"/>
<text text-anchor="middle" x="1489.5" y="-117" font-family="Helvetica,sans-Serif" font-size="10.00">queue</text>
</a>
</g>
</g>
<!-- Node15&#45;&gt;Node17 -->
<g id="edge18" class="edge">
<title>Node15&#45;&gt;Node17</title>
<path fill="none" stroke="#63b8ff" d="M1512.04,-164.75C1508.55,-157.88 1503.55,-148.08 1499.15,-139.45"/>
<polygon fill="#63b8ff" stroke="#63b8ff" points="1502.4,-138.11 1494.74,-130.79 1496.16,-141.29 1502.4,-138.11"/>
</g>
<!-- Node18&#45;&gt;Node1 -->
<g id="edge20" class="edge">
<title>Node18&#45;&gt;Node1</title>
<path fill="none" stroke="#63b8ff" d="M762.07,-184.43C790.62,-192.81 831.9,-205.6 864.5,-216.08"/>
<polygon fill="#63b8ff" stroke="#63b8ff" points="863.16,-219.33 873.75,-219.07 865.31,-212.67 863.16,-219.33"/>
</g>
<!-- Node19 -->
<g id="node19" class="node">
<title>Node19</title>
<g id="a_node19"><a xlink:href="IComponents_8hpp.html" target="_top" xlink:title=" ">
<polygon fill="white" stroke="#666666" points="952.5,-129 802.5,-129 802.5,-110 952.5,-110 952.5,-129"/>
<text text-anchor="middle" x="877.5" y="-117" font-family="Helvetica,sans-Serif" font-size="10.00">Components/IComponents.hpp</text>
</a>
</g>
</g>
<!-- Node18&#45;&gt;Node19 -->
<g id="edge21" class="edge">
<title>Node18&#45;&gt;Node19</title>
<path fill="none" stroke="#63b8ff" d="M753.78,-164.51C778,-155.89 814.8,-142.8 841.97,-133.14"/>
<polygon fill="#63b8ff" stroke="#63b8ff" points="842.92,-136.51 851.17,-129.87 840.58,-129.92 842.92,-136.51"/>
</g>
<!-- Node20 -->
<g id="node20" class="node">
<title>Node20</title>
<g id="a_node20"><a xlink:href="SparseArray_8hpp.html" target="_top" xlink:title=" ">
<polygon fill="white" stroke="#666666" points="784,-129 673,-129 673,-110 784,-110 784,-129"/>
<text text-anchor="middle" x="728.5" y="-117" font-family="Helvetica,sans-Serif" font-size="10.00">Utils/SparseArray.hpp</text>
</a>
</g>
</g>
<!-- Node18&#45;&gt;Node20 -->
<g id="edge23" class="edge">
<title>Node18&#45;&gt;Node20</title>
<path fill="none" stroke="#63b8ff" d="M728.5,-164.75C728.5,-158.27 728.5,-149.16 728.5,-140.9"/>
<polygon fill="#63b8ff" stroke="#63b8ff" points="732,-140.96 728.5,-130.96 725,-140.96 732,-140.96"/>
</g>
<!-- Node19&#45;&gt;Node1 -->
<g id="edge22" class="edge">
<title>Node19&#45;&gt;Node1</title>
<path fill="none" stroke="#63b8ff" d="M867.6,-129.15C854.84,-141.39 835.45,-164.46 845.5,-184 851.75,-196.14 862.46,-205.98 873.65,-213.62"/>
<polygon fill="#63b8ff" stroke="#63b8ff" points="871.46,-216.38 881.79,-218.72 875.17,-210.45 871.46,-216.38"/>
</g>
<!-- Node20&#45;&gt;Node7 -->
<g id="edge24" class="edge">
<title>Node20&#45;&gt;Node7</title>
<path fill="none" stroke="#63b8ff" d="M721.46,-109.66C707.35,-91.94 675.36,-51.77 656.72,-28.35"/>
<polygon fill="#63b8ff" stroke="#63b8ff" points="659.55,-26.29 650.58,-20.64 654.07,-30.65 659.55,-26.29"/>
</g>
<!-- Node20&#45;&gt;Node12 -->
<g id="edge27" class="edge">
<title>Node20&#45;&gt;Node12</title>
<path fill="none" stroke="#63b8ff" d="M726.95,-109.66C723.93,-92.5 717.2,-54.26 713.04,-30.6"/>
<polygon fill="#63b8ff" stroke="#63b8ff" points="716.52,-30.19 711.34,-20.95 709.62,-31.41 716.52,-30.19"/>
</g>
<!-- Node21 -->
<g id="node21" class="node">
<title>Node21</title>
<g id="a_node21"><a xlink:title=" ">
<polygon fill="#e0e0e0" stroke="#999999" points="811.5,-19 755.5,-19 755.5,0 811.5,0 811.5,-19"/>
<text text-anchor="middle" x="783.5" y="-7" font-family="Helvetica,sans-Serif" font-size="10.00">algorithm</text>
</a>
</g>
</g>
<!-- Node20&#45;&gt;Node21 -->
<g id="edge25" class="edge">
<title>Node20&#45;&gt;Node21</title>
<path fill="none" stroke="#63b8ff" d="M781.23,-109.55C801.74,-103.21 823.22,-92.41 835.5,-74 847.23,-56.42 827.91,-37.89 809.58,-25.42"/>
<polygon fill="#63b8ff" stroke="#63b8ff" points="811.57,-22.54 801.26,-20.13 807.82,-28.45 811.57,-22.54"/>
</g>
<!-- Node22 -->
<g id="node22" class="node">
<title>Node22</title>
<g id="a_node22"><a xlink:title=" ">
<polygon fill="#e0e0e0" stroke="#999999" points="881.5,-19 843.5,-19 843.5,0 881.5,0 881.5,-19"/>
<text text-anchor="middle" x="862.5" y="-7" font-family="Helvetica,sans-Serif" font-size="10.00">array</text>
</a>
</g>
</g>
<!-- Node20&#45;&gt;Node22 -->
<g id="edge26" class="edge">
<title>Node20&#45;&gt;Node22</title>
<path fill="none" stroke="#63b8ff" d="M784.38,-111.01C808.43,-104.93 834.8,-93.93 851.5,-74 861.51,-62.05 863.89,-44.3 863.97,-30.6"/>
<polygon fill="#63b8ff" stroke="#63b8ff" points="867.48,-30.81 863.61,-20.95 860.48,-31.07 867.48,-30.81"/>
</g>
<!-- Node23 -->
<g id="node23" class="node">
<title>Node23</title>
<g id="a_node23"><a xlink:title=" ">
<polygon fill="#e0e0e0" stroke="#999999" points="946,-19 907,-19 907,0 946,0 946,-19"/>
<text text-anchor="middle" x="926.5" y="-7" font-family="Helvetica,sans-Serif" font-size="10.00">utility</text>
</a>
</g>
</g>
<!-- Node20&#45;&gt;Node23 -->
<g id="edge28" class="edge">
<title>Node20&#45;&gt;Node23</title>
<path fill="none" stroke="#63b8ff" d="M779.71,-109.52C808.1,-102.87 843.09,-91.8 870.5,-74 888.75,-62.15 904.62,-42.76 914.76,-28.53"/>
<polygon fill="#63b8ff" stroke="#63b8ff" points="917.49,-30.73 920.23,-20.5 911.71,-26.79 917.49,-30.73"/>
</g>
<!-- Node24 -->
<g id="node24" class="node">
<title>Node24</title>
<g id="a_node24"><a xlink:href="Vectors_8hpp.html" target="_top" xlink:title=" ">
<polygon fill="white" stroke="#666666" points="826.5,-74 734.5,-74 734.5,-55 826.5,-55 826.5,-74"/>
<text text-anchor="middle" x="780.5" y="-62" font-family="Helvetica,sans-Serif" font-size="10.00">Utils/Vectors.hpp</text>
</a>
</g>
</g>
<!-- Node20&#45;&gt;Node24 -->
<g id="edge29" class="edge">
<title>Node20&#45;&gt;Node24</title>
<path fill="none" stroke="#63b8ff" d="M737.09,-109.75C744.34,-102.35 754.95,-91.54 763.87,-82.45"/>
<polygon fill="#63b8ff" stroke="#63b8ff" points="766.16,-85.11 770.67,-75.52 761.16,-80.21 766.16,-85.11"/>
</g>
<!-- Node24&#45;&gt;Node7 -->
<g id="edge30" class="edge">
<title>Node24&#45;&gt;Node7</title>
<path fill="none" stroke="#63b8ff" d="M757.09,-54.51C734.85,-45.97 701.17,-33.03 676.08,-23.4"/>
<polygon fill="#63b8ff" stroke="#63b8ff" points="677.57,-20.22 666.98,-19.9 675.06,-26.75 677.57,-20.22"/>
</g>
<!-- Node24&#45;&gt;Node12 -->
<g id="edge33" class="edge">
<title>Node24&#45;&gt;Node12</title>
<path fill="none" stroke="#63b8ff" d="M768.46,-54.51C758.09,-46.77 742.9,-35.43 730.53,-26.2"/>
<polygon fill="#63b8ff" stroke="#63b8ff" points="732.69,-23.44 722.58,-20.26 728.5,-29.05 732.69,-23.44"/>
</g>
<!-- Node24&#45;&gt;Node21 -->
<g id="edge31" class="edge">
<title>Node24&#45;&gt;Node21</title>
<path fill="none" stroke="#63b8ff" d="M781,-54.75C781.36,-48.27 781.88,-39.16 782.35,-30.9"/>
<polygon fill="#63b8ff" stroke="#63b8ff" points="785.84,-31.13 782.91,-20.95 778.85,-30.74 785.84,-31.13"/>
</g>
<!-- Node24&#45;&gt;Node22 -->
<g id="edge32" class="edge">
<title>Node24&#45;&gt;Node22</title>
<path fill="none" stroke="#63b8ff" d="M794.41,-54.51C806.74,-46.54 824.97,-34.75 839.47,-25.38"/>
<polygon fill="#63b8ff" stroke="#63b8ff" points="841.03,-28.55 847.52,-20.18 837.23,-22.67 841.03,-28.55"/>
</g>
<!-- Node24&#45;&gt;Node23 -->
<g id="edge34" class="edge">
<title>Node24&#45;&gt;Node23</title>
<path fill="none" stroke="#63b8ff" d="M805.27,-54.51C830.32,-45.41 869.11,-31.33 896.03,-21.56"/>
<polygon fill="#63b8ff" stroke="#63b8ff" points="897.14,-24.88 905.35,-18.18 894.76,-18.3 897.14,-24.88"/>
</g>
<!-- Node25&#45;&gt;Node1 -->
<g id="edge36" class="edge">
<title>Node25&#45;&gt;Node1</title>
<path fill="none" stroke="#63b8ff" d="M920.46,-184.18C921.84,-190.58 922.42,-199.65 922.21,-208.3"/>
<polygon fill="#63b8ff" stroke="#63b8ff" points="918.73,-207.81 921.52,-218.03 925.71,-208.3 918.73,-207.81"/>
</g>
<!-- Node25&#45;&gt;Node19 -->
<g id="edge37" class="edge">
<title>Node25&#45;&gt;Node19</title>
<path fill="none" stroke="#63b8ff" d="M909.23,-164.75C904.14,-157.66 896.8,-147.42 890.47,-138.59"/>
<polygon fill="#63b8ff" stroke="#63b8ff" points="893.46,-136.76 884.79,-130.67 887.78,-140.84 893.46,-136.76"/>
</g>
<!-- Node26 -->
<g id="node26" class="node">
<title>Node26</title>
<g id="a_node26"><a xlink:title=" ">
<polygon fill="#e0e0e0" stroke="#999999" points="1016.5,-129 970.5,-129 970.5,-110 1016.5,-110 1016.5,-129"/>
<text text-anchor="middle" x="993.5" y="-117" font-family="Helvetica,sans-Serif" font-size="10.00">math.h</text>
</a>
</g>
</g>
<!-- Node25&#45;&gt;Node26 -->
<g id="edge38" class="edge">
<title>Node25&#45;&gt;Node26</title>
<path fill="none" stroke="#63b8ff" d="M928.73,-164.51C940.34,-156.62 957.47,-144.98 971.2,-135.65"/>
<polygon fill="#63b8ff" stroke="#63b8ff" points="972.91,-138.72 979.21,-130.21 968.97,-132.93 972.91,-138.72"/>
</g>
<!-- Node27&#45;&gt;Node1 -->
<g id="edge40" class="edge">
<title>Node27&#45;&gt;Node1</title>
<path fill="none" stroke="#63b8ff" d="M1580.18,-184.03C1368.45,-203.2 1117.92,-220.91 993.53,-229.15"/>
<polygon fill="#63b8ff" stroke="#63b8ff" points="993.51,-225.65 983.76,-229.8 993.97,-232.63 993.51,-225.65"/>
</g>
</g>
</svg>
