<?xml version="1.0" encoding="UTF-8" standalone="no"?>
<!DOCTYPE svg PUBLIC "-//W3C//DTD SVG 1.1//EN"
 "http://www.w3.org/Graphics/SVG/1.1/DTD/svg11.dtd">
<!-- Generated by graphviz version 7.0.5 (20221223.1930)
 -->
<!-- Title: /github/workspace/client/include/Engine/Engine.hpp Pages: 1 -->
<svg width="1879pt" height="258pt"
 viewBox="0.00 0.00 1878.50 258.00" xmlns="http://www.w3.org/2000/svg" xmlns:xlink="http://www.w3.org/1999/xlink">
<g id="graph0" class="graph" transform="scale(1 1) rotate(0) translate(4 254)">
<title>/github/workspace/client/include/Engine/Engine.hpp</title>
<!-- Node1 -->
<g id="node1" class="node">
<title>Node1</title>
<g id="a_node1"><a xlink:title=" ">
<polygon fill="#999999" stroke="#666666" points="1086,-250 953,-250 953,-220 1086,-220 1086,-250"/>
<text text-anchor="start" x="961" y="-238" font-family="Helvetica,sans-Serif" font-size="10.00">/github/workspace/client</text>
<text text-anchor="middle" x="1019.5" y="-227" font-family="Helvetica,sans-Serif" font-size="10.00">/include/Engine/Engine.hpp</text>
</a>
</g>
</g>
<!-- Node2 -->
<g id="node2" class="node">
<title>Node2</title>
<g id="a_node2"><a xlink:title=" ">
<polygon fill="#e0e0e0" stroke="#999999" points="89,-184 0,-184 0,-165 89,-165 89,-184"/>
<text text-anchor="middle" x="44.5" y="-172" font-family="Helvetica,sans-Serif" font-size="10.00">SFML/Audio.hpp</text>
</a>
</g>
</g>
<!-- Node1&#45;&gt;Node2 -->
<g id="edge1" class="edge">
<title>Node1&#45;&gt;Node2</title>
<path fill="none" stroke="#63b8ff" d="M952.57,-232.7C802.16,-229.28 425.77,-217.9 100.31,-184.06"/>
<polygon fill="#63b8ff" stroke="#63b8ff" points="101.06,-180.62 90.75,-183.06 100.33,-187.59 101.06,-180.62"/>
</g>
<!-- Node3 -->
<g id="node3" class="node">
<title>Node3</title>
<g id="a_node3"><a xlink:title=" ">
<polygon fill="#e0e0e0" stroke="#999999" points="211.5,-184 107.5,-184 107.5,-165 211.5,-165 211.5,-184"/>
<text text-anchor="middle" x="159.5" y="-172" font-family="Helvetica,sans-Serif" font-size="10.00">SFML/Graphics.hpp</text>
</a>
</g>
</g>
<!-- Node1&#45;&gt;Node3 -->
<g id="edge2" class="edge">
<title>Node1&#45;&gt;Node3</title>
<path fill="none" stroke="#63b8ff" d="M952.54,-231.53C816.89,-226.15 499.7,-211.68 222.79,-184.15"/>
<polygon fill="#63b8ff" stroke="#63b8ff" points="223.52,-180.71 213.22,-183.19 222.82,-187.67 223.52,-180.71"/>
</g>
<!-- Node4 -->
<g id="node4" class="node">
<title>Node4</title>
<g id="a_node4"><a xlink:title=" ">
<polygon fill="#e0e0e0" stroke="#999999" points="331,-184 230,-184 230,-165 331,-165 331,-184"/>
<text text-anchor="middle" x="280.5" y="-172" font-family="Helvetica,sans-Serif" font-size="10.00">SFML/Network.hpp</text>
</a>
</g>
</g>
<!-- Node1&#45;&gt;Node4 -->
<g id="edge3" class="edge">
<title>Node1&#45;&gt;Node4</title>
<path fill="none" stroke="#63b8ff" d="M952.76,-230.64C832.73,-224.26 572.25,-208.87 342.58,-184.27"/>
<polygon fill="#63b8ff" stroke="#63b8ff" points="343.14,-180.81 332.83,-183.21 342.39,-187.77 343.14,-180.81"/>
</g>
<!-- Node5 -->
<g id="node5" class="node">
<title>Node5</title>
<g id="a_node5"><a xlink:title=" ">
<polygon fill="#e0e0e0" stroke="#999999" points="448,-184 349,-184 349,-165 448,-165 448,-184"/>
<text text-anchor="middle" x="398.5" y="-172" font-family="Helvetica,sans-Serif" font-size="10.00">SFML/Window.hpp</text>
</a>
</g>
</g>
<!-- Node1&#45;&gt;Node5 -->
<g id="edge4" class="edge">
<title>Node1&#45;&gt;Node5</title>
<path fill="none" stroke="#63b8ff" d="M952.77,-229.24C849.49,-221.62 644.46,-205.45 459.67,-184.19"/>
<polygon fill="#63b8ff" stroke="#63b8ff" points="460.21,-180.73 449.87,-183.05 459.4,-187.68 460.21,-180.73"/>
</g>
<!-- Node6 -->
<g id="node6" class="node">
<title>Node6</title>
<g id="a_node6"><a xlink:title=" ">
<polygon fill="#e0e0e0" stroke="#999999" points="564.5,-184 466.5,-184 466.5,-165 564.5,-165 564.5,-184"/>
<text text-anchor="middle" x="515.5" y="-172" font-family="Helvetica,sans-Serif" font-size="10.00">SFML/System.hpp</text>
</a>
</g>
</g>
<!-- Node1&#45;&gt;Node6 -->
<g id="edge5" class="edge">
<title>Node1&#45;&gt;Node6</title>
<path fill="none" stroke="#63b8ff" d="M952.58,-226.86C866.12,-217.53 710.98,-200.45 578.5,-184 577.66,-183.9 576.81,-183.79 575.96,-183.68"/>
<polygon fill="#63b8ff" stroke="#63b8ff" points="576.53,-180.23 566.17,-182.43 575.64,-187.17 576.53,-180.23"/>
</g>
<!-- Node7 -->
<g id="node7" class="node">
<title>Node7</title>
<g id="a_node7"><a xlink:title=" ">
<polygon fill="#e0e0e0" stroke="#999999" points="669.5,-19 615.5,-19 615.5,0 669.5,0 669.5,-19"/>
<text text-anchor="middle" x="642.5" y="-7" font-family="Helvetica,sans-Serif" font-size="10.00">iostream</text>
</a>
</g>
</g>
<!-- Node1&#45;&gt;Node7 -->
<g id="edge6" class="edge">
<title>Node1&#45;&gt;Node7</title>
<path fill="none" stroke="#63b8ff" d="M952.53,-229.93C848.17,-222.9 656.47,-207.02 635.5,-184 596.47,-141.15 620.01,-64.8 634.16,-29.44"/>
<polygon fill="#63b8ff" stroke="#63b8ff" points="637.26,-31.1 637.9,-20.52 630.8,-28.39 637.26,-31.1"/>
</g>
<!-- Node8 -->
<g id="node8" class="node">
<title>Node8</title>
<g id="a_node8"><a xlink:title=" ">
<polygon fill="#e0e0e0" stroke="#999999" points="1044.5,-184 994.5,-184 994.5,-165 1044.5,-165 1044.5,-184"/>
<text text-anchor="middle" x="1019.5" y="-172" font-family="Helvetica,sans-Serif" font-size="10.00">fstream</text>
</a>
</g>
</g>
<!-- Node1&#45;&gt;Node8 -->
<g id="edge7" class="edge">
<title>Node1&#45;&gt;Node8</title>
<path fill="none" stroke="#63b8ff" d="M1019.5,-219.54C1019.5,-212.34 1019.5,-203.53 1019.5,-195.68"/>
<polygon fill="#63b8ff" stroke="#63b8ff" points="1023,-195.69 1019.5,-185.69 1016,-195.69 1023,-195.69"/>
</g>
<!-- Node9 -->
<g id="node9" class="node">
<title>Node9</title>
<g id="a_node9"><a xlink:title=" ">
<polygon fill="#e0e0e0" stroke="#999999" points="1110.5,-184 1062.5,-184 1062.5,-165 1110.5,-165 1110.5,-184"/>
<text text-anchor="middle" x="1086.5" y="-172" font-family="Helvetica,sans-Serif" font-size="10.00">string.h</text>
</a>
</g>
</g>
<!-- Node1&#45;&gt;Node9 -->
<g id="edge8" class="edge">
<title>Node1&#45;&gt;Node9</title>
<path fill="none" stroke="#63b8ff" d="M1036.06,-219.54C1045.79,-211.04 1058.11,-200.29 1068.14,-191.53"/>
<polygon fill="#63b8ff" stroke="#63b8ff" points="1070.19,-194.38 1075.42,-185.17 1065.59,-189.11 1070.19,-194.38"/>
</g>
<!-- Node10 -->
<g id="node10" class="node">
<title>Node10</title>
<g id="a_node10"><a xlink:title=" ">
<polygon fill="#e0e0e0" stroke="#999999" points="1178.5,-184 1128.5,-184 1128.5,-165 1178.5,-165 1178.5,-184"/>
<text text-anchor="middle" x="1153.5" y="-172" font-family="Helvetica,sans-Serif" font-size="10.00">unistd.h</text>
</a>
</g>
</g>
<!-- Node1&#45;&gt;Node10 -->
<g id="edge9" class="edge">
<title>Node1&#45;&gt;Node10</title>
<path fill="none" stroke="#63b8ff" d="M1052.62,-219.54C1074.14,-210.15 1101.98,-197.99 1122.96,-188.83"/>
<polygon fill="#63b8ff" stroke="#63b8ff" points="1124.09,-192.16 1131.85,-184.95 1121.28,-185.75 1124.09,-192.16"/>
</g>
<!-- Node11 -->
<g id="node11" class="node">
<title>Node11</title>
<g id="a_node11"><a xlink:title=" ">
<polygon fill="#e0e0e0" stroke="#999999" points="1262,-184 1197,-184 1197,-165 1262,-165 1262,-184"/>
<text text-anchor="middle" x="1229.5" y="-172" font-family="Helvetica,sans-Serif" font-size="10.00">sys/types.h</text>
</a>
</g>
</g>
<!-- Node1&#45;&gt;Node11 -->
<g id="edge10" class="edge">
<title>Node1&#45;&gt;Node11</title>
<path fill="none" stroke="#63b8ff" d="M1071.41,-219.54C1106.88,-209.66 1153.31,-196.73 1186.66,-187.43"/>
<polygon fill="#63b8ff" stroke="#63b8ff" points="1187.28,-190.89 1195.98,-184.84 1185.41,-184.15 1187.28,-190.89"/>
</g>
<!-- Node12 -->
<g id="node12" class="node">
<title>Node12</title>
<g id="a_node12"><a xlink:title=" ">
<polygon fill="#e0e0e0" stroke="#999999" points="731.5,-19 687.5,-19 687.5,0 731.5,0 731.5,-19"/>
<text text-anchor="middle" x="709.5" y="-7" font-family="Helvetica,sans-Serif" font-size="10.00">vector</text>
</a>
</g>
</g>
<!-- Node1&#45;&gt;Node12 -->
<g id="edge11" class="edge">
<title>Node1&#45;&gt;Node12</title>
<path fill="none" stroke="#63b8ff" d="M952.82,-229.69C851.68,-222.46 669.12,-206.45 649.5,-184 608.67,-137.28 664.65,-61.27 693.8,-27.55"/>
<polygon fill="#63b8ff" stroke="#63b8ff" points="696.17,-30.14 700.2,-20.35 690.94,-25.49 696.17,-30.14"/>
</g>
<!-- Node13 -->
<g id="node13" class="node">
<title>Node13</title>
<g id="a_node13"><a xlink:title=" ">
<polygon fill="#e0e0e0" stroke="#999999" points="1336.5,-184 1280.5,-184 1280.5,-165 1336.5,-165 1336.5,-184"/>
<text text-anchor="middle" x="1308.5" y="-172" font-family="Helvetica,sans-Serif" font-size="10.00">stdbool.h</text>
</a>
</g>
</g>
<!-- Node1&#45;&gt;Node13 -->
<g id="edge12" class="edge">
<title>Node1&#45;&gt;Node13</title>
<path fill="none" stroke="#63b8ff" d="M1086.44,-221.11C1134.48,-211.75 1201.05,-198.59 1269.32,-184.2"/>
<polygon fill="#63b8ff" stroke="#63b8ff" points="1269.75,-187.69 1278.81,-182.2 1268.31,-180.84 1269.75,-187.69"/>
</g>
<!-- Node14 -->
<g id="node14" class="node">
<title>Node14</title>
<g id="a_node14"><a xlink:title=" ">
<polygon fill="#e0e0e0" stroke="#999999" points="1402,-184 1355,-184 1355,-165 1402,-165 1402,-184"/>
<text text-anchor="middle" x="1378.5" y="-172" font-family="Helvetica,sans-Serif" font-size="10.00">stdlib.h</text>
</a>
</g>
</g>
<!-- Node1&#45;&gt;Node14 -->
<g id="edge13" class="edge">
<title>Node1&#45;&gt;Node14</title>
<path fill="none" stroke="#63b8ff" d="M1086.34,-225.74C1149.96,-217.42 1248.59,-203.37 1343.52,-184.21"/>
<polygon fill="#63b8ff" stroke="#63b8ff" points="1344.19,-187.65 1353.29,-182.22 1342.79,-180.79 1344.19,-187.65"/>
</g>
<!-- Node15 -->
<g id="node15" class="node">
<title>Node15</title>
<g id="a_node15"><a xlink:title=" ">
<polygon fill="#e0e0e0" stroke="#999999" points="1478.5,-184 1420.5,-184 1420.5,-165 1478.5,-165 1478.5,-184"/>
<text text-anchor="middle" x="1449.5" y="-172" font-family="Helvetica,sans-Serif" font-size="10.00">exception</text>
</a>
</g>
</g>
<!-- Node1&#45;&gt;Node15 -->
<g id="edge14" class="edge">
<title>Node1&#45;&gt;Node15</title>
<path fill="none" stroke="#63b8ff" d="M1086.18,-227.27C1161.86,-219.23 1289.2,-204.48 1408.97,-184.11"/>
<polygon fill="#63b8ff" stroke="#63b8ff" points="1409.41,-187.58 1418.67,-182.44 1408.23,-180.68 1409.41,-187.58"/>
</g>
<!-- Node16 -->
<g id="node16" class="node">
<title>Node16</title>
<g id="a_node16"><a xlink:href="Window_8hpp.html" target="_top" xlink:title=" ">
<polygon fill="white" stroke="#666666" points="1598,-184 1497,-184 1497,-165 1598,-165 1598,-184"/>
<text text-anchor="middle" x="1547.5" y="-172" font-family="Helvetica,sans-Serif" font-size="10.00">Engine/Window.hpp</text>
</a>
</g>
</g>
<!-- Node1&#45;&gt;Node16 -->
<g id="edge15" class="edge">
<title>Node1&#45;&gt;Node16</title>
<path fill="none" stroke="#63b8ff" d="M1086.28,-226.98C1175.71,-217.94 1339.03,-201.32 1478.5,-184 1480.78,-183.72 1483.12,-183.42 1485.48,-183.11"/>
<polygon fill="#63b8ff" stroke="#63b8ff" points="1485.7,-186.61 1495.16,-181.83 1484.78,-179.67 1485.7,-186.61"/>
</g>
<!-- Node17 -->
<g id="node17" class="node">
<title>Node17</title>
<g id="a_node17"><a xlink:href="Event_8hpp.html" target="_top" xlink:title=" ">
<polygon fill="white" stroke="#666666" points="1708.5,-184 1616.5,-184 1616.5,-165 1708.5,-165 1708.5,-184"/>
<text text-anchor="middle" x="1662.5" y="-172" font-family="Helvetica,sans-Serif" font-size="10.00">Engine/Event.hpp</text>
</a>
</g>
</g>
<!-- Node1&#45;&gt;Node17 -->
<g id="edge17" class="edge">
<title>Node1&#45;&gt;Node17</title>
<path fill="none" stroke="#63b8ff" d="M1086.31,-229.43C1194.27,-222.08 1413.36,-206.15 1598.5,-184 1600.53,-183.76 1602.61,-183.5 1604.71,-183.22"/>
<polygon fill="#63b8ff" stroke="#63b8ff" points="1605.16,-186.69 1614.58,-181.86 1604.2,-179.76 1605.16,-186.69"/>
</g>
<!-- Node21 -->
<g id="node21" class="node">
<title>Node21</title>
<g id="a_node21"><a xlink:href="EntitiesManager_8hpp.html" target="_top" xlink:title=" ">
<polygon fill="white" stroke="#666666" points="798.5,-184 658.5,-184 658.5,-165 798.5,-165 798.5,-184"/>
<text text-anchor="middle" x="728.5" y="-172" font-family="Helvetica,sans-Serif" font-size="10.00">Entities/EntitiesManager.hpp</text>
</a>
</g>
</g>
<!-- Node1&#45;&gt;Node21 -->
<g id="edge22" class="edge">
<title>Node1&#45;&gt;Node21</title>
<path fill="none" stroke="#63b8ff" d="M952.52,-221.67C899.71,-211.36 827.29,-196.79 779.21,-186.79"/>
<polygon fill="#63b8ff" stroke="#63b8ff" points="780.12,-183.41 769.62,-184.79 778.69,-190.26 780.12,-183.41"/>
</g>
<!-- Node28 -->
<g id="node28" class="node">
<title>Node28</title>
<g id="a_node28"><a xlink:href="Bullets_8hpp.html" target="_top" xlink:title=" ">
<polygon fill="white" stroke="#666666" points="976.5,-184 854.5,-184 854.5,-165 976.5,-165 976.5,-184"/>
<text text-anchor="middle" x="915.5" y="-172" font-family="Helvetica,sans-Serif" font-size="10.00">Components/Bullets.hpp</text>
</a>
</g>
</g>
<!-- Node1&#45;&gt;Node28 -->
<g id="edge38" class="edge">
<title>Node1&#45;&gt;Node28</title>
<path fill="none" stroke="#63b8ff" d="M987.88,-219.54C971,-210.66 950.82,-199.32 935.97,-190.37"/>
<polygon fill="#63b8ff" stroke="#63b8ff" points="937.86,-187.42 927.51,-185.14 934.18,-193.38 937.86,-187.42"/>
</g>
<!-- Node30 -->
<g id="node30" class="node">
<title>Node30</title>
<g id="a_node30"><a xlink:href="Background_8hpp.html" target="_top" xlink:title=" ">
<polygon fill="white" stroke="#666666" points="1870.5,-184 1726.5,-184 1726.5,-165 1870.5,-165 1870.5,-184"/>
<text text-anchor="middle" x="1798.5" y="-172" font-family="Helvetica,sans-Serif" font-size="10.00">Components/Background.hpp</text>
</a>
</g>
</g>
<!-- Node1&#45;&gt;Node30 -->
<g id="edge42" class="edge">
<title>Node1&#45;&gt;Node30</title>
<path fill="none" stroke="#63b8ff" d="M1086.01,-229.64C1209.04,-221.77 1480.07,-204.16 1708.5,-184 1710.67,-183.81 1712.86,-183.61 1715.08,-183.41"/>
<polygon fill="#63b8ff" stroke="#63b8ff" points="1715.19,-186.91 1724.82,-182.48 1714.53,-179.94 1715.19,-186.91"/>
</g>
<!-- Node16&#45;&gt;Node1 -->
<g id="edge16" class="edge">
<title>Node16&#45;&gt;Node1</title>
<path fill="none" stroke="#63b8ff" d="M1496.07,-184.05C1356.1,-201.43 1192.21,-218.09 1097.6,-227.09"/>
<polygon fill="#63b8ff" stroke="#63b8ff" points="1097.55,-223.58 1087.92,-228.01 1098.21,-230.55 1097.55,-223.58"/>
</g>
<!-- Node17&#45;&gt;Node1 -->
<g id="edge18" class="edge">
<title>Node17&#45;&gt;Node1</title>
<path fill="none" stroke="#63b8ff" d="M1616.22,-184.03C1431.13,-206.17 1212.21,-222.08 1097.84,-229.43"/>
<polygon fill="#63b8ff" stroke="#63b8ff" points="1097.7,-225.94 1087.95,-230.07 1098.15,-232.92 1097.7,-225.94"/>
</g>
<!-- Node18 -->
<g id="node18" class="node">
<title>Node18</title>
<g id="a_node18"><a xlink:title=" ">
<polygon fill="#e0e0e0" stroke="#999999" points="1623,-129 1594,-129 1594,-110 1623,-110 1623,-129"/>
<text text-anchor="middle" x="1608.5" y="-117" font-family="Helvetica,sans-Serif" font-size="10.00">list</text>
</a>
</g>
</g>
<!-- Node17&#45;&gt;Node18 -->
<g id="edge19" class="edge">
<title>Node17&#45;&gt;Node18</title>
<path fill="none" stroke="#63b8ff" d="M1653.58,-164.75C1646.05,-157.35 1635.03,-146.54 1625.77,-137.45"/>
<polygon fill="#63b8ff" stroke="#63b8ff" points="1628.28,-135.01 1618.69,-130.5 1623.38,-140 1628.28,-135.01"/>
</g>
<!-- Node19 -->
<g id="node19" class="node">
<title>Node19</title>
<g id="a_node19"><a xlink:title=" ">
<polygon fill="#e0e0e0" stroke="#999999" points="1684,-129 1641,-129 1641,-110 1684,-110 1684,-129"/>
<text text-anchor="middle" x="1662.5" y="-117" font-family="Helvetica,sans-Serif" font-size="10.00">queue</text>
</a>
</g>
</g>
<!-- Node17&#45;&gt;Node19 -->
<g id="edge20" class="edge">
<title>Node17&#45;&gt;Node19</title>
<path fill="none" stroke="#63b8ff" d="M1662.5,-164.75C1662.5,-158.27 1662.5,-149.16 1662.5,-140.9"/>
<polygon fill="#63b8ff" stroke="#63b8ff" points="1666,-140.96 1662.5,-130.96 1659,-140.96 1666,-140.96"/>
</g>
<!-- Node20 -->
<g id="node20" class="node">
<title>Node20</title>
<g id="a_node20"><a xlink:title=" ">
<polygon fill="#e0e0e0" stroke="#999999" points="1764.5,-129 1702.5,-129 1702.5,-110 1764.5,-110 1764.5,-129"/>
<text text-anchor="middle" x="1733.5" y="-117" font-family="Helvetica,sans-Serif" font-size="10.00">Skaldi.hpp</text>
</a>
</g>
</g>
<!-- Node17&#45;&gt;Node20 -->
<g id="edge21" class="edge">
<title>Node17&#45;&gt;Node20</title>
<path fill="none" stroke="#63b8ff" d="M1674.54,-164.51C1684.91,-156.77 1700.1,-145.43 1712.47,-136.2"/>
<polygon fill="#63b8ff" stroke="#63b8ff" points="1714.5,-139.05 1720.42,-130.26 1710.31,-133.44 1714.5,-139.05"/>
</g>
<!-- Node21&#45;&gt;Node1 -->
<g id="edge23" class="edge">
<title>Node21&#45;&gt;Node1</title>
<path fill="none" stroke="#63b8ff" d="M777.95,-184.43C823.01,-193.12 890.17,-206.55 942.27,-217.23"/>
<polygon fill="#63b8ff" stroke="#63b8ff" points="941.5,-220.65 952,-219.23 942.91,-213.79 941.5,-220.65"/>
</g>
<!-- Node22 -->
<g id="node22" class="node">
<title>Node22</title>
<g id="a_node22"><a xlink:href="IComponents_8hpp.html" target="_top" xlink:title=" ">
<polygon fill="white" stroke="#666666" points="960.5,-129 802.5,-129 802.5,-110 960.5,-110 960.5,-129"/>
<text text-anchor="middle" x="881.5" y="-117" font-family="Helvetica,sans-Serif" font-size="10.00">../Components/IComponents.hpp</text>
</a>
</g>
</g>
<!-- Node21&#45;&gt;Node22 -->
<g id="edge24" class="edge">
<title>Node21&#45;&gt;Node22</title>
<path fill="none" stroke="#63b8ff" d="M754.45,-164.51C779.37,-155.88 817.23,-142.76 845.14,-133.1"/>
<polygon fill="#63b8ff" stroke="#63b8ff" points="845.94,-136.52 854.24,-129.94 843.65,-129.91 845.94,-136.52"/>
</g>
<!-- Node23 -->
<g id="node23" class="node">
<title>Node23</title>
<g id="a_node23"><a xlink:href="SparseArray_8hpp.html" target="_top" xlink:title=" ">
<polygon fill="white" stroke="#666666" points="784,-129 673,-129 673,-110 784,-110 784,-129"/>
<text text-anchor="middle" x="728.5" y="-117" font-family="Helvetica,sans-Serif" font-size="10.00">Utils/SparseArray.hpp</text>
</a>
</g>
</g>
<!-- Node21&#45;&gt;Node23 -->
<g id="edge26" class="edge">
<title>Node21&#45;&gt;Node23</title>
<path fill="none" stroke="#63b8ff" d="M728.5,-164.75C728.5,-158.27 728.5,-149.16 728.5,-140.9"/>
<polygon fill="#63b8ff" stroke="#63b8ff" points="732,-140.96 728.5,-130.96 725,-140.96 732,-140.96"/>
</g>
<!-- Node22&#45;&gt;Node1 -->
<g id="edge25" class="edge">
<title>Node22&#45;&gt;Node1</title>
<path fill="none" stroke="#63b8ff" d="M869.98,-129.36C854.89,-142.05 831.85,-165.88 845.5,-184 857.62,-200.1 901.27,-212.62 941.81,-221.1"/>
<polygon fill="#63b8ff" stroke="#63b8ff" points="940.87,-224.48 951.37,-223.03 942.26,-217.62 940.87,-224.48"/>
</g>
<!-- Node23&#45;&gt;Node7 -->
<g id="edge27" class="edge">
<title>Node23&#45;&gt;Node7</title>
<path fill="none" stroke="#63b8ff" d="M721.46,-109.66C707.35,-91.94 675.36,-51.77 656.72,-28.35"/>
<polygon fill="#63b8ff" stroke="#63b8ff" points="659.55,-26.29 650.58,-20.64 654.07,-30.65 659.55,-26.29"/>
</g>
<!-- Node23&#45;&gt;Node12 -->
<g id="edge30" class="edge">
<title>Node23&#45;&gt;Node12</title>
<path fill="none" stroke="#63b8ff" d="M726.95,-109.66C723.93,-92.5 717.2,-54.26 713.04,-30.6"/>
<polygon fill="#63b8ff" stroke="#63b8ff" points="716.52,-30.19 711.34,-20.95 709.62,-31.41 716.52,-30.19"/>
</g>
<!-- Node24 -->
<g id="node24" class="node">
<title>Node24</title>
<g id="a_node24"><a xlink:title=" ">
<polygon fill="#e0e0e0" stroke="#999999" points="811.5,-19 755.5,-19 755.5,0 811.5,0 811.5,-19"/>
<text text-anchor="middle" x="783.5" y="-7" font-family="Helvetica,sans-Serif" font-size="10.00">algorithm</text>
</a>
</g>
</g>
<!-- Node23&#45;&gt;Node24 -->
<g id="edge28" class="edge">
<title>Node23&#45;&gt;Node24</title>
<path fill="none" stroke="#63b8ff" d="M781.23,-109.55C801.74,-103.21 823.22,-92.41 835.5,-74 847.23,-56.42 827.91,-37.89 809.58,-25.42"/>
<polygon fill="#63b8ff" stroke="#63b8ff" points="811.57,-22.54 801.26,-20.13 807.82,-28.45 811.57,-22.54"/>
</g>
<!-- Node25 -->
<g id="node25" class="node">
<title>Node25</title>
<g id="a_node25"><a xlink:title=" ">
<polygon fill="#e0e0e0" stroke="#999999" points="881.5,-19 843.5,-19 843.5,0 881.5,0 881.5,-19"/>
<text text-anchor="middle" x="862.5" y="-7" font-family="Helvetica,sans-Serif" font-size="10.00">array</text>
</a>
</g>
</g>
<!-- Node23&#45;&gt;Node25 -->
<g id="edge29" class="edge">
<title>Node23&#45;&gt;Node25</title>
<path fill="none" stroke="#63b8ff" d="M784.38,-111.01C808.43,-104.93 834.8,-93.93 851.5,-74 861.51,-62.05 863.89,-44.3 863.97,-30.6"/>
<polygon fill="#63b8ff" stroke="#63b8ff" points="867.48,-30.81 863.61,-20.95 860.48,-31.07 867.48,-30.81"/>
</g>
<!-- Node26 -->
<g id="node26" class="node">
<title>Node26</title>
<g id="a_node26"><a xlink:title=" ">
<polygon fill="#e0e0e0" stroke="#999999" points="946,-19 907,-19 907,0 946,0 946,-19"/>
<text text-anchor="middle" x="926.5" y="-7" font-family="Helvetica,sans-Serif" font-size="10.00">utility</text>
</a>
</g>
</g>
<!-- Node23&#45;&gt;Node26 -->
<g id="edge31" class="edge">
<title>Node23&#45;&gt;Node26</title>
<path fill="none" stroke="#63b8ff" d="M779.71,-109.52C808.1,-102.87 843.09,-91.8 870.5,-74 888.75,-62.15 904.62,-42.76 914.76,-28.53"/>
<polygon fill="#63b8ff" stroke="#63b8ff" points="917.49,-30.73 920.23,-20.5 911.71,-26.79 917.49,-30.73"/>
</g>
<!-- Node27 -->
<g id="node27" class="node">
<title>Node27</title>
<g id="a_node27"><a xlink:href="Vectors_8hpp.html" target="_top" xlink:title=" ">
<polygon fill="white" stroke="#666666" points="826.5,-74 734.5,-74 734.5,-55 826.5,-55 826.5,-74"/>
<text text-anchor="middle" x="780.5" y="-62" font-family="Helvetica,sans-Serif" font-size="10.00">Utils/Vectors.hpp</text>
</a>
</g>
</g>
<!-- Node23&#45;&gt;Node27 -->
<g id="edge32" class="edge">
<title>Node23&#45;&gt;Node27</title>
<path fill="none" stroke="#63b8ff" d="M737.09,-109.75C744.34,-102.35 754.95,-91.54 763.87,-82.45"/>
<polygon fill="#63b8ff" stroke="#63b8ff" points="766.16,-85.11 770.67,-75.52 761.16,-80.21 766.16,-85.11"/>
</g>
<!-- Node27&#45;&gt;Node7 -->
<g id="edge33" class="edge">
<title>Node27&#45;&gt;Node7</title>
<path fill="none" stroke="#63b8ff" d="M757.09,-54.51C734.85,-45.97 701.17,-33.03 676.08,-23.4"/>
<polygon fill="#63b8ff" stroke="#63b8ff" points="677.57,-20.22 666.98,-19.9 675.06,-26.75 677.57,-20.22"/>
</g>
<!-- Node27&#45;&gt;Node12 -->
<g id="edge36" class="edge">
<title>Node27&#45;&gt;Node12</title>
<path fill="none" stroke="#63b8ff" d="M768.46,-54.51C758.09,-46.77 742.9,-35.43 730.53,-26.2"/>
<polygon fill="#63b8ff" stroke="#63b8ff" points="732.69,-23.44 722.58,-20.26 728.5,-29.05 732.69,-23.44"/>
</g>
<!-- Node27&#45;&gt;Node24 -->
<g id="edge34" class="edge">
<title>Node27&#45;&gt;Node24</title>
<path fill="none" stroke="#63b8ff" d="M781,-54.75C781.36,-48.27 781.88,-39.16 782.35,-30.9"/>
<polygon fill="#63b8ff" stroke="#63b8ff" points="785.84,-31.13 782.91,-20.95 778.85,-30.74 785.84,-31.13"/>
</g>
<!-- Node27&#45;&gt;Node25 -->
<g id="edge35" class="edge">
<title>Node27&#45;&gt;Node25</title>
<path fill="none" stroke="#63b8ff" d="M794.41,-54.51C806.74,-46.54 824.97,-34.75 839.47,-25.38"/>
<polygon fill="#63b8ff" stroke="#63b8ff" points="841.03,-28.55 847.52,-20.18 837.23,-22.67 841.03,-28.55"/>
</g>
<!-- Node27&#45;&gt;Node26 -->
<g id="edge37" class="edge">
<title>Node27&#45;&gt;Node26</title>
<path fill="none" stroke="#63b8ff" d="M805.27,-54.51C830.32,-45.41 869.11,-31.33 896.03,-21.56"/>
<polygon fill="#63b8ff" stroke="#63b8ff" points="897.14,-24.88 905.35,-18.18 894.76,-18.3 897.14,-24.88"/>
</g>
<!-- Node28&#45;&gt;Node1 -->
<g id="edge39" class="edge">
<title>Node28&#45;&gt;Node1</title>
<path fill="none" stroke="#63b8ff" d="M936.23,-184.35C951.73,-192.14 972.92,-203.79 990.12,-213.84"/>
<polygon fill="#63b8ff" stroke="#63b8ff" points="988.02,-216.67 998.41,-218.77 991.6,-210.65 988.02,-216.67"/>
</g>
<!-- Node28&#45;&gt;Node22 -->
<g id="edge40" class="edge">
<title>Node28&#45;&gt;Node22</title>
<path fill="none" stroke="#63b8ff" d="M909.89,-164.75C905.38,-157.73 898.91,-147.64 893.29,-138.87"/>
<polygon fill="#63b8ff" stroke="#63b8ff" points="896.4,-137.24 888.05,-130.72 890.51,-141.02 896.4,-137.24"/>
</g>
<!-- Node29 -->
<g id="node29" class="node">
<title>Node29</title>
<g id="a_node29"><a xlink:title=" ">
<polygon fill="#e0e0e0" stroke="#999999" points="1024.5,-129 978.5,-129 978.5,-110 1024.5,-110 1024.5,-129"/>
<text text-anchor="middle" x="1001.5" y="-117" font-family="Helvetica,sans-Serif" font-size="10.00">math.h</text>
</a>
</g>
</g>
<!-- Node28&#45;&gt;Node29 -->
<g id="edge41" class="edge">
<title>Node28&#45;&gt;Node29</title>
<path fill="none" stroke="#63b8ff" d="M930.09,-164.51C943.02,-156.54 962.14,-144.75 977.35,-135.38"/>
<polygon fill="#63b8ff" stroke="#63b8ff" points="979.16,-138.38 985.84,-130.15 975.49,-132.42 979.16,-138.38"/>
</g>
<!-- Node30&#45;&gt;Node1 -->
<g id="edge43" class="edge">
<title>Node30&#45;&gt;Node1</title>
<path fill="none" stroke="#63b8ff" d="M1726.16,-184.03C1498.32,-204.13 1228.21,-221.7 1097.69,-229.58"/>
<polygon fill="#63b8ff" stroke="#63b8ff" points="1097.55,-226.08 1087.77,-230.18 1097.97,-233.07 1097.55,-226.08"/>
</g>
</g>
</svg>
