<?xml version="1.0" encoding="UTF-8" standalone="no"?>
<!DOCTYPE svg PUBLIC "-//W3C//DTD SVG 1.1//EN"
 "http://www.w3.org/Graphics/SVG/1.1/DTD/svg11.dtd">
<!-- Generated by graphviz version 7.0.5 (20221223.1930)
 -->
<!-- Title: /github/workspace/client/include/Engine/Engine.hpp Pages: 1 -->
<svg width="2337pt" height="390pt"
 viewBox="0.00 0.00 2337.50 390.00" xmlns="http://www.w3.org/2000/svg" xmlns:xlink="http://www.w3.org/1999/xlink">
<g id="graph0" class="graph" transform="scale(1 1) rotate(0) translate(4 386)">
<title>/github/workspace/client/include/Engine/Engine.hpp</title>
<!-- Node1 -->
<g id="node1" class="node">
<title>Node1</title>
<g id="a_node1"><a xlink:title=" ">
<polygon fill="#999999" stroke="#666666" points="1364,-382 1231,-382 1231,-352 1364,-352 1364,-382"/>
<text text-anchor="start" x="1239" y="-370" font-family="Helvetica,sans-Serif" font-size="10.00">/github/workspace/client</text>
<text text-anchor="middle" x="1297.5" y="-359" font-family="Helvetica,sans-Serif" font-size="10.00">/include/Engine/Engine.hpp</text>
</a>
</g>
</g>
<!-- Node2 -->
<g id="node2" class="node">
<title>Node2</title>
<g id="a_node2"><a xlink:href="Bonus_8hpp.html" target="_top" xlink:title=" ">
<polygon fill="white" stroke="#666666" points="175,-244.5 18,-244.5 18,-214.5 175,-214.5 175,-244.5"/>
<text text-anchor="start" x="26" y="-232.5" font-family="Helvetica,sans-Serif" font-size="10.00">/github/workspace/client</text>
<text text-anchor="middle" x="96.5" y="-221.5" font-family="Helvetica,sans-Serif" font-size="10.00">/include/Components/Bonus.hpp</text>
</a>
</g>
</g>
<!-- Node1&#45;&gt;Node2 -->
<g id="edge1" class="edge">
<title>Node1&#45;&gt;Node2</title>
<path fill="none" stroke="#63b8ff" d="M1219.37,-364.34C992.13,-359.21 341.75,-342.39 249.5,-316 197.13,-301.02 143.19,-265.19 115.48,-244.99"/>
<polygon fill="#63b8ff" stroke="#63b8ff" points="1219.24,-367.84 1229.32,-364.56 1219.4,-360.84 1219.24,-367.84"/>
</g>
<!-- Node3 -->
<g id="node3" class="node">
<title>Node3</title>
<g id="a_node3"><a xlink:href="include_8hpp.html" target="_top" xlink:title=" ">
<polygon fill="white" stroke="#666666" points="511.5,-167.5 389.5,-167.5 389.5,-137.5 511.5,-137.5 511.5,-167.5"/>
<text text-anchor="start" x="397.5" y="-155.5" font-family="Helvetica,sans-Serif" font-size="10.00">/github/workspace/client</text>
<text text-anchor="middle" x="450.5" y="-144.5" font-family="Helvetica,sans-Serif" font-size="10.00">/include/include.hpp</text>
</a>
</g>
</g>
<!-- Node1&#45;&gt;Node3 -->
<g id="edge45" class="edge">
<title>Node1&#45;&gt;Node3</title>
<path fill="none" stroke="#63b8ff" d="M1219.18,-365.78C999.15,-364.63 378.46,-357.68 179.5,-316 99.76,-299.3 54.58,-317.18 8.5,-250 -1.81,-234.97 -3.56,-222.66 8.5,-209 33.28,-180.91 273.73,-163.55 389.2,-156.77"/>
<polygon fill="#63b8ff" stroke="#63b8ff" points="1219.07,-369.28 1229.09,-365.83 1219.11,-362.28 1219.07,-369.28"/>
</g>
<!-- Node4 -->
<g id="node4" class="node">
<title>Node4</title>
<g id="a_node4"><a xlink:href="Bullets_8hpp.html" target="_top" xlink:title=" ">
<polygon fill="white" stroke="#666666" points="418,-316 259,-316 259,-286 418,-286 418,-316"/>
<text text-anchor="start" x="267" y="-304" font-family="Helvetica,sans-Serif" font-size="10.00">/github/workspace/client</text>
<text text-anchor="middle" x="338.5" y="-293" font-family="Helvetica,sans-Serif" font-size="10.00">/include/Components/Bullets.hpp</text>
</a>
</g>
</g>
<!-- Node1&#45;&gt;Node4 -->
<g id="edge3" class="edge">
<title>Node1&#45;&gt;Node4</title>
<path fill="none" stroke="#63b8ff" d="M1219.05,-361.5C1078.14,-353.03 773.22,-333.92 516.5,-316 484.34,-313.76 449.09,-311.15 418.47,-308.81"/>
<polygon fill="#63b8ff" stroke="#63b8ff" points="1218.84,-365 1229.03,-362.1 1219.26,-358.01 1218.84,-365"/>
</g>
<!-- Node6 -->
<g id="node6" class="node">
<title>Node6</title>
<g id="a_node6"><a xlink:href="Audio_8hpp.html" target="_top" xlink:title=" ">
<polygon fill="white" stroke="#666666" points="1565.5,-316 1437.5,-316 1437.5,-286 1565.5,-286 1565.5,-316"/>
<text text-anchor="start" x="1445.5" y="-304" font-family="Helvetica,sans-Serif" font-size="10.00">/github/workspace/client</text>
<text text-anchor="middle" x="1501.5" y="-293" font-family="Helvetica,sans-Serif" font-size="10.00">/include/Engine/Audio.hpp</text>
</a>
</g>
</g>
<!-- Node1&#45;&gt;Node6 -->
<g id="edge7" class="edge">
<title>Node1&#45;&gt;Node6</title>
<path fill="none" stroke="#63b8ff" d="M1354.49,-348.12C1386.42,-338.1 1425.7,-325.78 1455.63,-316.39"/>
<polygon fill="#63b8ff" stroke="#63b8ff" points="1353.47,-344.77 1344.98,-351.1 1355.56,-351.45 1353.47,-344.77"/>
</g>
<!-- Node7 -->
<g id="node7" class="node">
<title>Node7</title>
<g id="a_node7"><a xlink:href="Destroy_8hpp.html" target="_top" xlink:title=" ">
<polygon fill="white" stroke="#666666" points="1721,-316 1584,-316 1584,-286 1721,-286 1721,-316"/>
<text text-anchor="start" x="1592" y="-304" font-family="Helvetica,sans-Serif" font-size="10.00">/github/workspace/client</text>
<text text-anchor="middle" x="1652.5" y="-293" font-family="Helvetica,sans-Serif" font-size="10.00">/include/Engine/Destroy.hpp</text>
</a>
</g>
</g>
<!-- Node1&#45;&gt;Node7 -->
<g id="edge8" class="edge">
<title>Node1&#45;&gt;Node7</title>
<path fill="none" stroke="#63b8ff" d="M1375.59,-351.92C1437.77,-340.71 1523.97,-325.17 1583.6,-314.42"/>
<polygon fill="#63b8ff" stroke="#63b8ff" points="1374.98,-348.47 1365.76,-353.69 1376.22,-355.36 1374.98,-348.47"/>
</g>
<!-- Node9 -->
<g id="node9" class="node">
<title>Node9</title>
<g id="a_node9"><a xlink:href="Draw_8hpp.html" target="_top" xlink:title=" ">
<polygon fill="white" stroke="#666666" points="1865.5,-316 1739.5,-316 1739.5,-286 1865.5,-286 1865.5,-316"/>
<text text-anchor="start" x="1747.5" y="-304" font-family="Helvetica,sans-Serif" font-size="10.00">/github/workspace/client</text>
<text text-anchor="middle" x="1802.5" y="-293" font-family="Helvetica,sans-Serif" font-size="10.00">/include/Engine/Draw.hpp</text>
</a>
</g>
</g>
<!-- Node1&#45;&gt;Node9 -->
<g id="edge10" class="edge">
<title>Node1&#45;&gt;Node9</title>
<path fill="none" stroke="#63b8ff" d="M1375.64,-358.05C1460.71,-349.44 1600.45,-334.43 1720.5,-316 1726.49,-315.08 1732.74,-314.03 1739.02,-312.92"/>
<polygon fill="#63b8ff" stroke="#63b8ff" points="1375.37,-354.56 1365.77,-359.05 1376.08,-361.53 1375.37,-354.56"/>
</g>
<!-- Node11 -->
<g id="node11" class="node">
<title>Node11</title>
<g id="a_node11"><a xlink:href="Error_8hpp.html" target="_top" xlink:title=" ">
<polygon fill="white" stroke="#666666" points="1207.5,-316 1083.5,-316 1083.5,-286 1207.5,-286 1207.5,-316"/>
<text text-anchor="start" x="1091.5" y="-304" font-family="Helvetica,sans-Serif" font-size="10.00">/github/workspace/client</text>
<text text-anchor="middle" x="1145.5" y="-293" font-family="Helvetica,sans-Serif" font-size="10.00">/include/Engine/Error.hpp</text>
</a>
</g>
</g>
<!-- Node1&#45;&gt;Node11 -->
<g id="edge13" class="edge">
<title>Node1&#45;&gt;Node11</title>
<path fill="none" stroke="#63b8ff" d="M1253.02,-347.27C1229.64,-337.43 1201.42,-325.55 1179.76,-316.43"/>
<polygon fill="#63b8ff" stroke="#63b8ff" points="1251.41,-350.39 1261.99,-351.05 1254.13,-343.94 1251.41,-350.39"/>
</g>
<!-- Node13 -->
<g id="node13" class="node">
<title>Node13</title>
<g id="a_node13"><a xlink:href="client_2src_2main_8cpp.html" target="_top" xlink:title=" ">
<polygon fill="white" stroke="#666666" points="1042.5,-30 920.5,-30 920.5,0 1042.5,0 1042.5,-30"/>
<text text-anchor="start" x="928.5" y="-18" font-family="Helvetica,sans-Serif" font-size="10.00">/github/workspace/client</text>
<text text-anchor="middle" x="981.5" y="-7" font-family="Helvetica,sans-Serif" font-size="10.00">/src/main.cpp</text>
</a>
</g>
</g>
<!-- Node1&#45;&gt;Node13 -->
<g id="edge47" class="edge">
<title>Node1&#45;&gt;Node13</title>
<path fill="none" stroke="#63b8ff" d="M1219.4,-361.29C1116.22,-354.27 940.51,-339.33 880.5,-316 822.46,-293.43 769.5,-292.77 769.5,-230.5 769.5,-230.5 769.5,-230.5 769.5,-151.5 769.5,-79.43 857.56,-43.97 920.18,-27.87"/>
<polygon fill="#63b8ff" stroke="#63b8ff" points="1218.97,-364.77 1229.18,-361.95 1219.44,-357.79 1218.97,-364.77"/>
</g>
<!-- Node14 -->
<g id="node14" class="node">
<title>Node14</title>
<g id="a_node14"><a xlink:href="Event_8hpp.html" target="_top" xlink:title=" ">
<polygon fill="white" stroke="#666666" points="2049.5,-316 1921.5,-316 1921.5,-286 2049.5,-286 2049.5,-316"/>
<text text-anchor="start" x="1929.5" y="-304" font-family="Helvetica,sans-Serif" font-size="10.00">/github/workspace/client</text>
<text text-anchor="middle" x="1985.5" y="-293" font-family="Helvetica,sans-Serif" font-size="10.00">/include/Engine/Event.hpp</text>
</a>
</g>
</g>
<!-- Node1&#45;&gt;Node14 -->
<g id="edge16" class="edge">
<title>Node1&#45;&gt;Node14</title>
<path fill="none" stroke="#63b8ff" d="M1375.81,-361.65C1490.77,-354.98 1711.57,-340.38 1898.5,-316 1905.86,-315.04 1913.59,-313.86 1921.29,-312.6"/>
<polygon fill="#63b8ff" stroke="#63b8ff" points="1375.64,-358.15 1365.86,-362.22 1376.05,-365.14 1375.64,-358.15"/>
</g>
<!-- Node15 -->
<g id="node15" class="node">
<title>Node15</title>
<g id="a_node15"><a xlink:href="Event_8cpp.html" target="_top" xlink:title=" ">
<polygon fill="white" stroke="#666666" points="2042.5,-244.5 1920.5,-244.5 1920.5,-214.5 2042.5,-214.5 2042.5,-244.5"/>
<text text-anchor="start" x="1928.5" y="-232.5" font-family="Helvetica,sans-Serif" font-size="10.00">/github/workspace/client</text>
<text text-anchor="middle" x="1981.5" y="-221.5" font-family="Helvetica,sans-Serif" font-size="10.00">/src/Event.cpp</text>
</a>
</g>
</g>
<!-- Node1&#45;&gt;Node15 -->
<g id="edge46" class="edge">
<title>Node1&#45;&gt;Node15</title>
<path fill="none" stroke="#63b8ff" d="M1375.54,-364.8C1511.53,-361.8 1785.9,-351.42 1874.5,-316 1875.8,-315.48 1933.5,-269.12 1963.61,-244.9"/>
<polygon fill="#63b8ff" stroke="#63b8ff" points="1375.84,-361.3 1365.92,-365.01 1375.99,-368.3 1375.84,-361.3"/>
</g>
<!-- Node16 -->
<g id="node16" class="node">
<title>Node16</title>
<g id="a_node16"><a xlink:href="Map_8hpp.html" target="_top" xlink:title=" ">
<polygon fill="white" stroke="#666666" points="2189.5,-316 2067.5,-316 2067.5,-286 2189.5,-286 2189.5,-316"/>
<text text-anchor="start" x="2075.5" y="-304" font-family="Helvetica,sans-Serif" font-size="10.00">/github/workspace/client</text>
<text text-anchor="middle" x="2128.5" y="-293" font-family="Helvetica,sans-Serif" font-size="10.00">/include/Engine/Map.hpp</text>
</a>
</g>
</g>
<!-- Node1&#45;&gt;Node16 -->
<g id="edge19" class="edge">
<title>Node1&#45;&gt;Node16</title>
<path fill="none" stroke="#63b8ff" d="M1375.75,-364.26C1514.04,-360.42 1810.5,-348.8 2058.5,-316 2061.32,-315.63 2064.2,-315.21 2067.11,-314.75"/>
<polygon fill="#63b8ff" stroke="#63b8ff" points="1375.88,-360.75 1365.97,-364.52 1376.07,-367.75 1375.88,-360.75"/>
</g>
<!-- Node17 -->
<g id="node17" class="node">
<title>Node17</title>
<g id="a_node17"><a xlink:href="StateManager_8hpp.html" target="_top" xlink:title=" ">
<polygon fill="white" stroke="#666666" points="1477.5,-244.5 1313.5,-244.5 1313.5,-214.5 1477.5,-214.5 1477.5,-244.5"/>
<text text-anchor="start" x="1321.5" y="-232.5" font-family="Helvetica,sans-Serif" font-size="10.00">/github/workspace/client</text>
<text text-anchor="middle" x="1395.5" y="-221.5" font-family="Helvetica,sans-Serif" font-size="10.00">/include/Engine/StateManager.hpp</text>
</a>
</g>
</g>
<!-- Node1&#45;&gt;Node17 -->
<g id="edge20" class="edge">
<title>Node1&#45;&gt;Node17</title>
<path fill="none" stroke="#63b8ff" d="M1273.05,-343.07C1261.28,-326.26 1252.24,-303.43 1263.5,-286 1276.4,-266.03 1298.4,-253.17 1320.83,-244.92"/>
<polygon fill="#63b8ff" stroke="#63b8ff" points="1269.94,-344.77 1278.83,-350.52 1275.47,-340.48 1269.94,-344.77"/>
</g>
<!-- Node19 -->
<g id="node19" class="node">
<title>Node19</title>
<g id="a_node19"><a xlink:href="Text_8hpp.html" target="_top" xlink:title=" ">
<polygon fill="white" stroke="#666666" points="2329.5,-316 2207.5,-316 2207.5,-286 2329.5,-286 2329.5,-316"/>
<text text-anchor="start" x="2215.5" y="-304" font-family="Helvetica,sans-Serif" font-size="10.00">/github/workspace/client</text>
<text text-anchor="middle" x="2268.5" y="-293" font-family="Helvetica,sans-Serif" font-size="10.00">/include/Engine/Text.hpp</text>
</a>
</g>
</g>
<!-- Node1&#45;&gt;Node19 -->
<g id="edge23" class="edge">
<title>Node1&#45;&gt;Node19</title>
<path fill="none" stroke="#63b8ff" d="M1375.86,-365.39C1532.68,-363.33 1896.01,-354.44 2198.5,-316 2201.32,-315.64 2204.21,-315.23 2207.12,-314.79"/>
<polygon fill="#63b8ff" stroke="#63b8ff" points="1375.95,-361.88 1365.99,-365.51 1376.03,-368.88 1375.95,-361.88"/>
</g>
<!-- Node20 -->
<g id="node20" class="node">
<title>Node20</title>
<g id="a_node20"><a xlink:href="Window_8hpp.html" target="_top" xlink:title=" ">
<polygon fill="white" stroke="#666666" points="1419.5,-316 1281.5,-316 1281.5,-286 1419.5,-286 1419.5,-316"/>
<text text-anchor="start" x="1289.5" y="-304" font-family="Helvetica,sans-Serif" font-size="10.00">/github/workspace/client</text>
<text text-anchor="middle" x="1350.5" y="-293" font-family="Helvetica,sans-Serif" font-size="10.00">/include/Engine/Window.hpp</text>
</a>
</g>
</g>
<!-- Node1&#45;&gt;Node20 -->
<g id="edge24" class="edge">
<title>Node1&#45;&gt;Node20</title>
<path fill="none" stroke="#63b8ff" d="M1310.28,-342.68C1317.17,-333.79 1325.59,-323.95 1333.05,-316.16"/>
<polygon fill="#63b8ff" stroke="#63b8ff" points="1307.57,-340.46 1304.44,-350.58 1313.2,-344.62 1307.57,-340.46"/>
</g>
<!-- Node22 -->
<g id="node22" class="node">
<title>Node22</title>
<g id="a_node22"><a xlink:href="EntitiesManager_8hpp.html" target="_top" xlink:title=" ">
<polygon fill="white" stroke="#666666" points="1065.5,-316 889.5,-316 889.5,-286 1065.5,-286 1065.5,-316"/>
<text text-anchor="start" x="897.5" y="-304" font-family="Helvetica,sans-Serif" font-size="10.00">/github/workspace/client</text>
<text text-anchor="middle" x="977.5" y="-293" font-family="Helvetica,sans-Serif" font-size="10.00">/include/Entities/EntitiesManager.hpp</text>
</a>
</g>
</g>
<!-- Node1&#45;&gt;Node22 -->
<g id="edge28" class="edge">
<title>Node1&#45;&gt;Node22</title>
<path fill="none" stroke="#63b8ff" d="M1219.53,-351.56C1165.78,-341.07 1095.16,-326.95 1044.05,-316.46"/>
<polygon fill="#63b8ff" stroke="#63b8ff" points="1218.76,-354.97 1229.24,-353.45 1220.1,-348.1 1218.76,-354.97"/>
</g>
<!-- Node27 -->
<g id="node27" class="node">
<title>Node27</title>
<g id="a_node27"><a xlink:href="Properties_8hpp.html" target="_top" xlink:title=" ">
<polygon fill="white" stroke="#666666" points="686,-316 535,-316 535,-286 686,-286 686,-316"/>
<text text-anchor="start" x="543" y="-304" font-family="Helvetica,sans-Serif" font-size="10.00">/github/workspace/client</text>
<text text-anchor="middle" x="610.5" y="-293" font-family="Helvetica,sans-Serif" font-size="10.00">/include/Entities/Properties.hpp</text>
</a>
</g>
</g>
<!-- Node1&#45;&gt;Node27 -->
<g id="edge38" class="edge">
<title>Node1&#45;&gt;Node27</title>
<path fill="none" stroke="#63b8ff" d="M1219.58,-358.92C1114.28,-349.32 920.7,-331.6 755.5,-316 732.96,-313.87 708.46,-311.52 686.12,-309.36"/>
<polygon fill="#63b8ff" stroke="#63b8ff" points="1218.95,-362.37 1229.23,-359.8 1219.59,-355.4 1218.95,-362.37"/>
</g>
<!-- Node2&#45;&gt;Node3 -->
<g id="edge2" class="edge">
<title>Node2&#45;&gt;Node3</title>
<path fill="none" stroke="#63b8ff" d="M175.69,-211.72C240.25,-198.04 330.1,-179.01 389.25,-166.48"/>
<polygon fill="#63b8ff" stroke="#63b8ff" points="175.29,-208.23 166.23,-213.73 176.74,-215.08 175.29,-208.23"/>
</g>
<!-- Node4&#45;&gt;Node1 -->
<g id="edge4" class="edge">
<title>Node4&#45;&gt;Node1</title>
<path fill="none" stroke="#63b8ff" d="M429.18,-308.34C462.4,-310.81 500.21,-313.61 534.5,-316 791.91,-333.97 1097.77,-353.13 1230.57,-361.57"/>
<polygon fill="#63b8ff" stroke="#63b8ff" points="429.84,-304.88 419.61,-307.63 429.32,-311.86 429.84,-304.88"/>
</g>
<!-- Node4&#45;&gt;Node3 -->
<g id="edge5" class="edge">
<title>Node4&#45;&gt;Node3</title>
<path fill="none" stroke="#63b8ff" d="M260.18,-281.01C245.29,-273.76 231.55,-263.77 222.5,-250 212.48,-234.78 211.24,-223.33 222.5,-209 242.88,-183.05 328.77,-167.72 389.1,-159.96"/>
<polygon fill="#63b8ff" stroke="#63b8ff" points="258.68,-284.18 269.24,-284.99 261.5,-277.77 258.68,-284.18"/>
</g>
<!-- Node5 -->
<g id="node5" class="node">
<title>Node5</title>
<g id="a_node5"><a xlink:href="Bullets_8cpp.html" target="_top" xlink:title=" ">
<polygon fill="white" stroke="#666666" points="353.5,-244.5 231.5,-244.5 231.5,-214.5 353.5,-214.5 353.5,-244.5"/>
<text text-anchor="start" x="239.5" y="-232.5" font-family="Helvetica,sans-Serif" font-size="10.00">/github/workspace/client</text>
<text text-anchor="middle" x="292.5" y="-221.5" font-family="Helvetica,sans-Serif" font-size="10.00">/src/Bullets.cpp</text>
</a>
</g>
</g>
<!-- Node4&#45;&gt;Node5 -->
<g id="edge6" class="edge">
<title>Node4&#45;&gt;Node5</title>
<path fill="none" stroke="#63b8ff" d="M322.75,-276.2C315.85,-265.79 307.99,-253.92 302.01,-244.88"/>
<polygon fill="#63b8ff" stroke="#63b8ff" points="319.69,-277.93 328.13,-284.34 325.53,-274.07 319.69,-277.93"/>
</g>
<!-- Node8 -->
<g id="node8" class="node">
<title>Node8</title>
<g id="a_node8"><a xlink:href="Destroy_8cpp.html" target="_top" xlink:title=" ">
<polygon fill="white" stroke="#666666" points="1757.5,-244.5 1635.5,-244.5 1635.5,-214.5 1757.5,-214.5 1757.5,-244.5"/>
<text text-anchor="start" x="1643.5" y="-232.5" font-family="Helvetica,sans-Serif" font-size="10.00">/github/workspace/client</text>
<text text-anchor="middle" x="1696.5" y="-221.5" font-family="Helvetica,sans-Serif" font-size="10.00">/src/Destroy.cpp</text>
</a>
</g>
</g>
<!-- Node7&#45;&gt;Node8 -->
<g id="edge9" class="edge">
<title>Node7&#45;&gt;Node8</title>
<path fill="none" stroke="#63b8ff" d="M1667.76,-275.88C1674.31,-265.55 1681.73,-253.82 1687.39,-244.88"/>
<polygon fill="#63b8ff" stroke="#63b8ff" points="1664.81,-274 1662.42,-284.32 1670.73,-277.74 1664.81,-274"/>
</g>
<!-- Node9&#45;&gt;Node1 -->
<g id="edge11" class="edge">
<title>Node9&#45;&gt;Node1</title>
<path fill="none" stroke="#63b8ff" d="M1727.94,-317.6C1597.83,-337.16 1448.44,-352.6 1364.18,-360.41"/>
<polygon fill="#63b8ff" stroke="#63b8ff" points="1728.4,-321.07 1737.77,-316.11 1727.35,-314.15 1728.4,-321.07"/>
</g>
<!-- Node10 -->
<g id="node10" class="node">
<title>Node10</title>
<g id="a_node10"><a xlink:href="Draw_8cpp.html" target="_top" xlink:title=" ">
<polygon fill="white" stroke="#666666" points="1897.5,-244.5 1775.5,-244.5 1775.5,-214.5 1897.5,-214.5 1897.5,-244.5"/>
<text text-anchor="start" x="1783.5" y="-232.5" font-family="Helvetica,sans-Serif" font-size="10.00">/github/workspace/client</text>
<text text-anchor="middle" x="1836.5" y="-221.5" font-family="Helvetica,sans-Serif" font-size="10.00">/src/Draw.cpp</text>
</a>
</g>
</g>
<!-- Node9&#45;&gt;Node10 -->
<g id="edge12" class="edge">
<title>Node9&#45;&gt;Node10</title>
<path fill="none" stroke="#63b8ff" d="M1814.45,-275.56C1819.47,-265.3 1825.13,-253.73 1829.46,-244.88"/>
<polygon fill="#63b8ff" stroke="#63b8ff" points="1811.46,-273.72 1810.21,-284.24 1817.74,-276.8 1811.46,-273.72"/>
</g>
<!-- Node12 -->
<g id="node12" class="node">
<title>Node12</title>
<g id="a_node12"><a xlink:href="Error_8cpp.html" target="_top" xlink:title=" ">
<polygon fill="white" stroke="#666666" points="1295.5,-244.5 1173.5,-244.5 1173.5,-214.5 1295.5,-214.5 1295.5,-244.5"/>
<text text-anchor="start" x="1181.5" y="-232.5" font-family="Helvetica,sans-Serif" font-size="10.00">/github/workspace/client</text>
<text text-anchor="middle" x="1234.5" y="-221.5" font-family="Helvetica,sans-Serif" font-size="10.00">/src/Error.cpp</text>
</a>
</g>
</g>
<!-- Node11&#45;&gt;Node12 -->
<g id="edge14" class="edge">
<title>Node11&#45;&gt;Node12</title>
<path fill="none" stroke="#63b8ff" d="M1172.71,-278.75C1186.77,-267.77 1203.55,-254.66 1216.08,-244.88"/>
<polygon fill="#63b8ff" stroke="#63b8ff" points="1170.86,-275.75 1165.13,-284.67 1175.16,-281.27 1170.86,-275.75"/>
</g>
<!-- Node11&#45;&gt;Node13 -->
<g id="edge15" class="edge">
<title>Node11&#45;&gt;Node13</title>
<path fill="none" stroke="#63b8ff" d="M1151.47,-274.58C1160.85,-227.89 1173.4,-127.61 1125.5,-66 1105.76,-40.62 1072.32,-28.07 1042.63,-21.88"/>
<polygon fill="#63b8ff" stroke="#63b8ff" points="1148.07,-273.76 1149.39,-284.27 1154.91,-275.23 1148.07,-273.76"/>
</g>
<!-- Node14&#45;&gt;Node1 -->
<g id="edge17" class="edge">
<title>Node14&#45;&gt;Node1</title>
<path fill="none" stroke="#63b8ff" d="M1909.62,-316.86C1707.75,-342.62 1475.77,-357.08 1364.08,-362.93"/>
<polygon fill="#63b8ff" stroke="#63b8ff" points="1910.07,-320.33 1919.54,-315.58 1909.17,-313.39 1910.07,-320.33"/>
</g>
<!-- Node14&#45;&gt;Node15 -->
<g id="edge18" class="edge">
<title>Node14&#45;&gt;Node15</title>
<path fill="none" stroke="#63b8ff" d="M1984.01,-274.26C1983.44,-264.33 1982.81,-253.36 1982.32,-244.88"/>
<polygon fill="#63b8ff" stroke="#63b8ff" points="1980.51,-274.31 1984.58,-284.09 1987.5,-273.9 1980.51,-274.31"/>
</g>
<!-- Node17&#45;&gt;Node1 -->
<g id="edge21" class="edge">
<title>Node17&#45;&gt;Node1</title>
<path fill="none" stroke="#63b8ff" d="M1327.21,-249.36C1309.43,-257.58 1292.28,-269.3 1281.5,-286 1268.15,-306.66 1283.32,-334.91 1292.58,-351.72"/>
<polygon fill="#63b8ff" stroke="#63b8ff" points="1328.47,-252.63 1336.31,-245.51 1325.74,-246.18 1328.47,-252.63"/>
</g>
<!-- Node18 -->
<g id="node18" class="node">
<title>Node18</title>
<g id="a_node18"><a xlink:href="StateManager_8cpp.html" target="_top" xlink:title=" ">
<polygon fill="white" stroke="#666666" points="1266.5,-30 1144.5,-30 1144.5,0 1266.5,0 1266.5,-30"/>
<text text-anchor="start" x="1152.5" y="-18" font-family="Helvetica,sans-Serif" font-size="10.00">/github/workspace/client</text>
<text text-anchor="middle" x="1205.5" y="-7" font-family="Helvetica,sans-Serif" font-size="10.00">/src/StateManager.cpp</text>
</a>
</g>
</g>
<!-- Node17&#45;&gt;Node18 -->
<g id="edge22" class="edge">
<title>Node17&#45;&gt;Node18</title>
<path fill="none" stroke="#63b8ff" d="M1375.09,-205.68C1335.85,-161.79 1250.9,-66.78 1218.45,-30.49"/>
<polygon fill="#63b8ff" stroke="#63b8ff" points="1372.45,-207.98 1381.73,-213.1 1377.67,-203.31 1372.45,-207.98"/>
</g>
<!-- Node20&#45;&gt;Node1 -->
<g id="edge25" class="edge">
<title>Node20&#45;&gt;Node1</title>
<path fill="none" stroke="#63b8ff" d="M1337.74,-325.28C1330.86,-334.16 1322.44,-344.01 1314.98,-351.8"/>
<polygon fill="#63b8ff" stroke="#63b8ff" points="1340.45,-327.5 1343.58,-317.38 1334.82,-323.34 1340.45,-327.5"/>
</g>
<!-- Node20&#45;&gt;Node17 -->
<g id="edge26" class="edge">
<title>Node20&#45;&gt;Node17</title>
<path fill="none" stroke="#63b8ff" d="M1365.9,-276.2C1372.64,-265.79 1380.33,-253.92 1386.18,-244.88"/>
<polygon fill="#63b8ff" stroke="#63b8ff" points="1363.14,-274.03 1360.64,-284.33 1369.02,-277.84 1363.14,-274.03"/>
</g>
<!-- Node21 -->
<g id="node21" class="node">
<title>Node21</title>
<g id="a_node21"><a xlink:href="Window_8cpp.html" target="_top" xlink:title=" ">
<polygon fill="white" stroke="#666666" points="1617.5,-244.5 1495.5,-244.5 1495.5,-214.5 1617.5,-214.5 1617.5,-244.5"/>
<text text-anchor="start" x="1503.5" y="-232.5" font-family="Helvetica,sans-Serif" font-size="10.00">/github/workspace/client</text>
<text text-anchor="middle" x="1556.5" y="-221.5" font-family="Helvetica,sans-Serif" font-size="10.00">/src/Window.cpp</text>
</a>
</g>
</g>
<!-- Node20&#45;&gt;Node21 -->
<g id="edge27" class="edge">
<title>Node20&#45;&gt;Node21</title>
<path fill="none" stroke="#63b8ff" d="M1404.14,-281.9C1438.25,-270.39 1481.82,-255.69 1513.62,-244.97"/>
<polygon fill="#63b8ff" stroke="#63b8ff" points="1403.22,-278.52 1394.86,-285.03 1405.46,-285.15 1403.22,-278.52"/>
</g>
<!-- Node22&#45;&gt;Node1 -->
<g id="edge29" class="edge">
<title>Node22&#45;&gt;Node1</title>
<path fill="none" stroke="#63b8ff" d="M1066.73,-318.65C1118.82,-328.85 1183.42,-341.79 1231.03,-351.56"/>
<polygon fill="#63b8ff" stroke="#63b8ff" points="1067.44,-315.22 1056.96,-316.74 1066.1,-322.09 1067.44,-315.22"/>
</g>
<!-- Node22&#45;&gt;Node3 -->
<g id="edge30" class="edge">
<title>Node22&#45;&gt;Node3</title>
<path fill="none" stroke="#63b8ff" d="M971.66,-275.01C965.3,-253.76 952.9,-224.34 930.5,-209 868.35,-166.46 668.26,-182.09 593.5,-173 566.63,-169.73 536.98,-165.75 511.68,-162.24"/>
<polygon fill="#63b8ff" stroke="#63b8ff" points="968.2,-275.63 974.2,-284.36 974.96,-273.8 968.2,-275.63"/>
</g>
<!-- Node23 -->
<g id="node23" class="node">
<title>Node23</title>
<g id="a_node23"><a xlink:href="IGameState_8hpp.html" target="_top" xlink:title=" ">
<polygon fill="white" stroke="#666666" points="1117.5,-250 977.5,-250 977.5,-209 1117.5,-209 1117.5,-250"/>
<text text-anchor="start" x="985.5" y="-238" font-family="Helvetica,sans-Serif" font-size="10.00">/github/workspace/client</text>
<text text-anchor="start" x="985.5" y="-227" font-family="Helvetica,sans-Serif" font-size="10.00">/include/system/gameStates</text>
<text text-anchor="middle" x="1047.5" y="-216" font-family="Helvetica,sans-Serif" font-size="10.00">/IGameState.hpp</text>
</a>
</g>
</g>
<!-- Node22&#45;&gt;Node23 -->
<g id="edge31" class="edge">
<title>Node22&#45;&gt;Node23</title>
<path fill="none" stroke="#63b8ff" d="M1000,-277.66C1008.82,-268.9 1018.86,-258.93 1027.44,-250.42"/>
<polygon fill="#63b8ff" stroke="#63b8ff" points="997.7,-275 993.07,-284.53 1002.64,-279.97 997.7,-275"/>
</g>
<!-- Node26 -->
<g id="node26" class="node">
<title>Node26</title>
<g id="a_node26"><a xlink:href="EntitiesManager_8cpp.html" target="_top" xlink:title=" ">
<polygon fill="white" stroke="#666666" points="921.5,-244.5 797.5,-244.5 797.5,-214.5 921.5,-214.5 921.5,-244.5"/>
<text text-anchor="start" x="805.5" y="-232.5" font-family="Helvetica,sans-Serif" font-size="10.00">/github/workspace/client</text>
<text text-anchor="middle" x="859.5" y="-221.5" font-family="Helvetica,sans-Serif" font-size="10.00">/src/EntitiesManager.cpp</text>
</a>
</g>
</g>
<!-- Node22&#45;&gt;Node26 -->
<g id="edge37" class="edge">
<title>Node22&#45;&gt;Node26</title>
<path fill="none" stroke="#63b8ff" d="M943.27,-279.84C924.26,-268.65 901.07,-254.99 883.91,-244.88"/>
<polygon fill="#63b8ff" stroke="#63b8ff" points="941.35,-282.77 951.74,-284.83 944.9,-276.74 941.35,-282.77"/>
</g>
<!-- Node24 -->
<g id="node24" class="node">
<title>Node24</title>
<g id="a_node24"><a xlink:href="SGamePlay_8hpp.html" target="_top" xlink:title=" ">
<polygon fill="white" stroke="#666666" points="1106.5,-173 966.5,-173 966.5,-132 1106.5,-132 1106.5,-173"/>
<text text-anchor="start" x="974.5" y="-161" font-family="Helvetica,sans-Serif" font-size="10.00">/github/workspace/client</text>
<text text-anchor="start" x="974.5" y="-150" font-family="Helvetica,sans-Serif" font-size="10.00">/include/system/gameStates</text>
<text text-anchor="middle" x="1036.5" y="-139" font-family="Helvetica,sans-Serif" font-size="10.00">/SGamePlay.hpp</text>
</a>
</g>
</g>
<!-- Node23&#45;&gt;Node24 -->
<g id="edge32" class="edge">
<title>Node23&#45;&gt;Node24</title>
<path fill="none" stroke="#63b8ff" d="M1042.97,-197.65C1041.77,-189.43 1040.5,-180.78 1039.4,-173.33"/>
<polygon fill="#63b8ff" stroke="#63b8ff" points="1039.47,-197.91 1044.39,-207.3 1046.4,-196.9 1039.47,-197.91"/>
</g>
<!-- Node24&#45;&gt;Node13 -->
<g id="edge36" class="edge">
<title>Node24&#45;&gt;Node13</title>
<path fill="none" stroke="#63b8ff" d="M975.55,-125.76C963.92,-117.96 953.27,-108.14 946.5,-96 934.16,-73.89 952.81,-46.58 967.27,-30.27"/>
<polygon fill="#63b8ff" stroke="#63b8ff" points="973.4,-128.54 983.75,-130.8 977.06,-122.58 973.4,-128.54"/>
</g>
<!-- Node25 -->
<g id="node25" class="node">
<title>Node25</title>
<g id="a_node25"><a xlink:href="GameEngine_8hpp.html" target="_top" xlink:title=" ">
<polygon fill="white" stroke="#666666" points="1117,-96 956,-96 956,-66 1117,-66 1117,-96"/>
<text text-anchor="start" x="964" y="-84" font-family="Helvetica,sans-Serif" font-size="10.00">/github/workspace/client</text>
<text text-anchor="middle" x="1036.5" y="-73" font-family="Helvetica,sans-Serif" font-size="10.00">/include/system/GameEngine.hpp</text>
</a>
</g>
</g>
<!-- Node24&#45;&gt;Node25 -->
<g id="edge33" class="edge">
<title>Node24&#45;&gt;Node25</title>
<path fill="none" stroke="#63b8ff" d="M1036.5,-120.38C1036.5,-112.04 1036.5,-103.43 1036.5,-96.47"/>
<polygon fill="#63b8ff" stroke="#63b8ff" points="1033,-120.26 1036.5,-130.26 1040,-120.26 1033,-120.26"/>
</g>
<!-- Node25&#45;&gt;Node13 -->
<g id="edge35" class="edge">
<title>Node25&#45;&gt;Node13</title>
<path fill="none" stroke="#63b8ff" d="M1016.94,-57.24C1009.18,-48.21 1000.5,-38.11 993.67,-30.16"/>
<polygon fill="#63b8ff" stroke="#63b8ff" points="1014.13,-59.35 1023.3,-64.65 1019.44,-54.78 1014.13,-59.35"/>
</g>
<!-- Node25&#45;&gt;Node18 -->
<g id="edge34" class="edge">
<title>Node25&#45;&gt;Node18</title>
<path fill="none" stroke="#63b8ff" d="M1084.89,-61.67C1111.09,-51.75 1142.99,-39.67 1167.4,-30.43"/>
<polygon fill="#63b8ff" stroke="#63b8ff" points="1083.95,-58.29 1075.84,-65.1 1086.43,-64.83 1083.95,-58.29"/>
</g>
<!-- Node27&#45;&gt;Node3 -->
<g id="edge44" class="edge">
<title>Node27&#45;&gt;Node3</title>
<path fill="none" stroke="#63b8ff" d="M594.98,-276.12C581.56,-256.61 560.83,-229.07 538.5,-209 520.22,-192.58 496.53,-177.94 478.33,-167.83"/>
<polygon fill="#63b8ff" stroke="#63b8ff" points="591.97,-277.92 600.46,-284.26 597.78,-274.01 591.97,-277.92"/>
</g>
<!-- Node28 -->
<g id="node28" class="node">
<title>Node28</title>
<g id="a_node28"><a xlink:href="Enemy_8hpp.html" target="_top" xlink:title=" ">
<polygon fill="white" stroke="#666666" points="529.5,-244.5 371.5,-244.5 371.5,-214.5 529.5,-214.5 529.5,-244.5"/>
<text text-anchor="start" x="379.5" y="-232.5" font-family="Helvetica,sans-Serif" font-size="10.00">/github/workspace/client</text>
<text text-anchor="middle" x="450.5" y="-221.5" font-family="Helvetica,sans-Serif" font-size="10.00">/include/Components/Enemy.hpp</text>
</a>
</g>
</g>
<!-- Node27&#45;&gt;Node28 -->
<g id="edge39" class="edge">
<title>Node27&#45;&gt;Node28</title>
<path fill="none" stroke="#63b8ff" d="M566.91,-281.07C540.65,-269.66 507.73,-255.36 483.61,-244.88"/>
<polygon fill="#63b8ff" stroke="#63b8ff" points="565.39,-284.22 575.96,-285 568.18,-277.8 565.39,-284.22"/>
</g>
<!-- Node29 -->
<g id="node29" class="node">
<title>Node29</title>
<g id="a_node29"><a xlink:href="Player_8hpp.html" target="_top" xlink:title=" ">
<polygon fill="white" stroke="#666666" points="741.5,-244.5 585.5,-244.5 585.5,-214.5 741.5,-214.5 741.5,-244.5"/>
<text text-anchor="start" x="593.5" y="-232.5" font-family="Helvetica,sans-Serif" font-size="10.00">/github/workspace/client</text>
<text text-anchor="middle" x="663.5" y="-221.5" font-family="Helvetica,sans-Serif" font-size="10.00">/include/Components/Player.hpp</text>
</a>
</g>
</g>
<!-- Node27&#45;&gt;Node29 -->
<g id="edge41" class="edge">
<title>Node27&#45;&gt;Node29</title>
<path fill="none" stroke="#63b8ff" d="M628.4,-276.53C636.4,-266.04 645.57,-254.01 652.53,-244.88"/>
<polygon fill="#63b8ff" stroke="#63b8ff" points="625.68,-274.32 622.39,-284.4 631.24,-278.57 625.68,-274.32"/>
</g>
<!-- Node28&#45;&gt;Node3 -->
<g id="edge40" class="edge">
<title>Node28&#45;&gt;Node3</title>
<path fill="none" stroke="#63b8ff" d="M450.5,-202.73C450.5,-191.08 450.5,-177.76 450.5,-167.92"/>
<polygon fill="#63b8ff" stroke="#63b8ff" points="447,-202.53 450.5,-212.53 454,-202.53 447,-202.53"/>
</g>
<!-- Node29&#45;&gt;Node3 -->
<g id="edge42" class="edge">
<title>Node29&#45;&gt;Node3</title>
<path fill="none" stroke="#63b8ff" d="M611.85,-210.32C574.86,-197.29 525.73,-179.99 491.44,-167.92"/>
<polygon fill="#63b8ff" stroke="#63b8ff" points="610.4,-213.52 621,-213.54 612.73,-206.91 610.4,-213.52"/>
</g>
<!-- Node30 -->
<g id="node30" class="node">
<title>Node30</title>
<g id="a_node30"><a xlink:href="Player_8cpp.html" target="_top" xlink:title=" ">
<polygon fill="white" stroke="#666666" points="724.5,-167.5 602.5,-167.5 602.5,-137.5 724.5,-137.5 724.5,-167.5"/>
<text text-anchor="start" x="610.5" y="-155.5" font-family="Helvetica,sans-Serif" font-size="10.00">/github/workspace/client</text>
<text text-anchor="middle" x="663.5" y="-144.5" font-family="Helvetica,sans-Serif" font-size="10.00">/src/Player.cpp</text>
</a>
</g>
</g>
<!-- Node29&#45;&gt;Node30 -->
<g id="edge43" class="edge">
<title>Node29&#45;&gt;Node30</title>
<path fill="none" stroke="#63b8ff" d="M663.5,-202.73C663.5,-191.08 663.5,-177.76 663.5,-167.92"/>
<polygon fill="#63b8ff" stroke="#63b8ff" points="660,-202.53 663.5,-212.53 667,-202.53 660,-202.53"/>
</g>
</g>
</svg>
