<?xml version="1.0" encoding="UTF-8" standalone="no"?>
<!DOCTYPE svg PUBLIC "-//W3C//DTD SVG 1.1//EN"
 "http://www.w3.org/Graphics/SVG/1.1/DTD/svg11.dtd">
<!-- Generated by graphviz version 7.0.5 (20221223.1930)
 -->
<!-- Title: /github/workspace/client/include/Entities/EntitiesManager.hpp Pages: 1 -->
<svg width="2131pt" height="324pt"
 viewBox="0.00 0.00 2131.36 324.00" xmlns="http://www.w3.org/2000/svg" xmlns:xlink="http://www.w3.org/1999/xlink">
<g id="graph0" class="graph" transform="scale(1 1) rotate(0) translate(4 320)">
<title>/github/workspace/client/include/Entities/EntitiesManager.hpp</title>
<!-- Node1 -->
<g id="node1" class="node">
<title>Node1</title>
<g id="a_node1"><a xlink:title=" ">
<polygon fill="#999999" stroke="#666666" points="1101.86,-316 925.86,-316 925.86,-286 1101.86,-286 1101.86,-316"/>
<text text-anchor="start" x="933.86" y="-304" font-family="Helvetica,sans-Serif" font-size="10.00">/github/workspace/client</text>
<text text-anchor="middle" x="1013.86" y="-293" font-family="Helvetica,sans-Serif" font-size="10.00">/include/Entities/EntitiesManager.hpp</text>
</a>
</g>
</g>
<!-- Node2 -->
<g id="node2" class="node">
<title>Node2</title>
<g id="a_node2"><a xlink:href="Engine_8hpp.html" target="_top" xlink:title=" ">
<polygon fill="white" stroke="#666666" points="1080.36,-244.5 947.36,-244.5 947.36,-214.5 1080.36,-214.5 1080.36,-244.5"/>
<text text-anchor="start" x="955.36" y="-232.5" font-family="Helvetica,sans-Serif" font-size="10.00">/github/workspace/client</text>
<text text-anchor="middle" x="1013.86" y="-221.5" font-family="Helvetica,sans-Serif" font-size="10.00">/include/Engine/Engine.hpp</text>
</a>
</g>
</g>
<!-- Node1&#45;&gt;Node2 -->
<g id="edge1" class="edge">
<title>Node1&#45;&gt;Node2</title>
<path fill="none" stroke="#63b8ff" d="M1007.31,-274.26C1006.85,-264.33 1007.17,-253.36 1008.27,-244.88"/>
<polygon fill="#63b8ff" stroke="#63b8ff" points="1003.81,-274.42 1008.14,-284.09 1010.79,-273.83 1003.81,-274.42"/>
</g>
<!-- Node4 -->
<g id="node4" class="node">
<title>Node4</title>
<g id="a_node4"><a xlink:href="include_8hpp.html" target="_top" xlink:title=" ">
<polygon fill="white" stroke="#666666" points="268.86,-30 146.86,-30 146.86,0 268.86,0 268.86,-30"/>
<text text-anchor="start" x="154.86" y="-18" font-family="Helvetica,sans-Serif" font-size="10.00">/github/workspace/client</text>
<text text-anchor="middle" x="207.86" y="-7" font-family="Helvetica,sans-Serif" font-size="10.00">/include/include.hpp</text>
</a>
</g>
</g>
<!-- Node1&#45;&gt;Node4 -->
<g id="edge40" class="edge">
<title>Node1&#45;&gt;Node4</title>
<path fill="none" stroke="#63b8ff" d="M914.07,-300.44C692.25,-299.35 167.59,-284.72 37.86,-173 1.07,-141.32 -13.83,-104.41 15.86,-66 31.87,-45.29 96.55,-31.54 146.47,-23.8"/>
<polygon fill="#63b8ff" stroke="#63b8ff" points="913.83,-303.94 923.85,-300.48 913.86,-296.94 913.83,-303.94"/>
</g>
<!-- Node27 -->
<g id="node27" class="node">
<title>Node27</title>
<g id="a_node27"><a xlink:href="IGameState_8hpp.html" target="_top" xlink:title=" ">
<polygon fill="white" stroke="#666666" points="1238.86,-250 1098.86,-250 1098.86,-209 1238.86,-209 1238.86,-250"/>
<text text-anchor="start" x="1106.86" y="-238" font-family="Helvetica,sans-Serif" font-size="10.00">/github/workspace/client</text>
<text text-anchor="start" x="1106.86" y="-227" font-family="Helvetica,sans-Serif" font-size="10.00">/include/system/gameStates</text>
<text text-anchor="middle" x="1168.86" y="-216" font-family="Helvetica,sans-Serif" font-size="10.00">/IGameState.hpp</text>
</a>
</g>
</g>
<!-- Node1&#45;&gt;Node27 -->
<g id="edge41" class="edge">
<title>Node1&#45;&gt;Node27</title>
<path fill="none" stroke="#63b8ff" d="M1056.28,-280.98C1077.44,-271.49 1103.01,-260.02 1124.44,-250.42"/>
<polygon fill="#63b8ff" stroke="#63b8ff" points="1055.05,-277.7 1047.35,-284.98 1057.91,-284.08 1055.05,-277.7"/>
</g>
<!-- Node30 -->
<g id="node30" class="node">
<title>Node30</title>
<g id="a_node30"><a xlink:href="EntitiesManager_8cpp.html" target="_top" xlink:title=" ">
<polygon fill="white" stroke="#666666" points="1380.86,-244.5 1256.86,-244.5 1256.86,-214.5 1380.86,-214.5 1380.86,-244.5"/>
<text text-anchor="start" x="1264.86" y="-232.5" font-family="Helvetica,sans-Serif" font-size="10.00">/github/workspace/client</text>
<text text-anchor="middle" x="1318.86" y="-221.5" font-family="Helvetica,sans-Serif" font-size="10.00">/src/EntitiesManager.cpp</text>
</a>
</g>
</g>
<!-- Node1&#45;&gt;Node30 -->
<g id="edge47" class="edge">
<title>Node1&#45;&gt;Node30</title>
<path fill="none" stroke="#63b8ff" d="M1097.94,-283.25C1142.61,-274.05 1198.37,-262.07 1247.86,-250 1254.31,-248.42 1261.08,-246.68 1267.76,-244.91"/>
<polygon fill="#63b8ff" stroke="#63b8ff" points="1097.41,-279.79 1088.31,-285.23 1098.81,-286.65 1097.41,-279.79"/>
</g>
<!-- Node2&#45;&gt;Node1 -->
<g id="edge29" class="edge">
<title>Node2&#45;&gt;Node1</title>
<path fill="none" stroke="#63b8ff" d="M1020.4,-256.22C1020.86,-266.14 1020.55,-277.12 1019.45,-285.6"/>
<polygon fill="#63b8ff" stroke="#63b8ff" points="1023.9,-256.06 1019.57,-246.39 1016.92,-256.65 1023.9,-256.06"/>
</g>
<!-- Node3 -->
<g id="node3" class="node">
<title>Node3</title>
<g id="a_node3"><a xlink:href="Bonus_8hpp.html" target="_top" xlink:title=" ">
<polygon fill="white" stroke="#666666" points="1042.36,-96 885.36,-96 885.36,-66 1042.36,-66 1042.36,-96"/>
<text text-anchor="start" x="893.36" y="-84" font-family="Helvetica,sans-Serif" font-size="10.00">/github/workspace/client</text>
<text text-anchor="middle" x="963.86" y="-73" font-family="Helvetica,sans-Serif" font-size="10.00">/include/Components/Bonus.hpp</text>
</a>
</g>
</g>
<!-- Node2&#45;&gt;Node3 -->
<g id="edge2" class="edge">
<title>Node2&#45;&gt;Node3</title>
<path fill="none" stroke="#63b8ff" d="M981.49,-207.11C970.59,-198.02 959.72,-186.41 953.86,-173 942.78,-147.66 951.38,-114.73 958.03,-96.23"/>
<polygon fill="#63b8ff" stroke="#63b8ff" points="979.3,-209.84 989.35,-213.2 983.59,-204.31 979.3,-209.84"/>
</g>
<!-- Node2&#45;&gt;Node4 -->
<g id="edge37" class="edge">
<title>Node2&#45;&gt;Node4</title>
<path fill="none" stroke="#63b8ff" d="M935.93,-226.58C731.69,-221.12 191.43,-203.93 116.86,-173 60.24,-149.52 -7.16,-114.85 29.86,-66 44.15,-47.13 101.07,-33.41 146.74,-25.16"/>
<polygon fill="#63b8ff" stroke="#63b8ff" points="935.55,-230.07 945.64,-226.83 935.74,-223.07 935.55,-230.07"/>
</g>
<!-- Node5 -->
<g id="node5" class="node">
<title>Node5</title>
<g id="a_node5"><a xlink:href="Bullets_8hpp.html" target="_top" xlink:title=" ">
<polygon fill="white" stroke="#666666" points="901.36,-167.5 742.36,-167.5 742.36,-137.5 901.36,-137.5 901.36,-167.5"/>
<text text-anchor="start" x="750.36" y="-155.5" font-family="Helvetica,sans-Serif" font-size="10.00">/github/workspace/client</text>
<text text-anchor="middle" x="821.86" y="-144.5" font-family="Helvetica,sans-Serif" font-size="10.00">/include/Components/Bullets.hpp</text>
</a>
</g>
</g>
<!-- Node2&#45;&gt;Node5 -->
<g id="edge4" class="edge">
<title>Node2&#45;&gt;Node5</title>
<path fill="none" stroke="#63b8ff" d="M960.98,-210.15C926.42,-197.14 882.52,-179.94 853.31,-167.92"/>
<polygon fill="#63b8ff" stroke="#63b8ff" points="959.37,-213.28 969.96,-213.51 961.82,-206.73 959.37,-213.28"/>
</g>
<!-- Node7 -->
<g id="node7" class="node">
<title>Node7</title>
<g id="a_node7"><a xlink:href="Audio_8hpp.html" target="_top" xlink:title=" ">
<polygon fill="white" stroke="#666666" points="423.86,-167.5 295.86,-167.5 295.86,-137.5 423.86,-137.5 423.86,-167.5"/>
<text text-anchor="start" x="303.86" y="-155.5" font-family="Helvetica,sans-Serif" font-size="10.00">/github/workspace/client</text>
<text text-anchor="middle" x="359.86" y="-144.5" font-family="Helvetica,sans-Serif" font-size="10.00">/include/Engine/Audio.hpp</text>
</a>
</g>
</g>
<!-- Node2&#45;&gt;Node7 -->
<g id="edge8" class="edge">
<title>Node2&#45;&gt;Node7</title>
<path fill="none" stroke="#63b8ff" d="M935.97,-225.17C823.96,-219.44 611.22,-205.11 432.86,-173 425.24,-171.63 417.26,-169.85 409.48,-167.93"/>
<polygon fill="#63b8ff" stroke="#63b8ff" points="935.47,-228.65 945.64,-225.65 935.82,-221.65 935.47,-228.65"/>
</g>
<!-- Node8 -->
<g id="node8" class="node">
<title>Node8</title>
<g id="a_node8"><a xlink:href="Destroy_8hpp.html" target="_top" xlink:title=" ">
<polygon fill="white" stroke="#666666" points="579.36,-167.5 442.36,-167.5 442.36,-137.5 579.36,-137.5 579.36,-167.5"/>
<text text-anchor="start" x="450.36" y="-155.5" font-family="Helvetica,sans-Serif" font-size="10.00">/github/workspace/client</text>
<text text-anchor="middle" x="510.86" y="-144.5" font-family="Helvetica,sans-Serif" font-size="10.00">/include/Engine/Destroy.hpp</text>
</a>
</g>
</g>
<!-- Node2&#45;&gt;Node8 -->
<g id="edge9" class="edge">
<title>Node2&#45;&gt;Node8</title>
<path fill="none" stroke="#63b8ff" d="M935.41,-220.99C849.8,-212.16 708.9,-195.77 588.86,-173 581.18,-171.54 573.12,-169.79 565.23,-167.94"/>
<polygon fill="#63b8ff" stroke="#63b8ff" points="935.05,-224.47 945.36,-222.01 935.76,-217.51 935.05,-224.47"/>
</g>
<!-- Node10 -->
<g id="node10" class="node">
<title>Node10</title>
<g id="a_node10"><a xlink:href="Draw_8hpp.html" target="_top" xlink:title=" ">
<polygon fill="white" stroke="#666666" points="723.86,-167.5 597.86,-167.5 597.86,-137.5 723.86,-137.5 723.86,-167.5"/>
<text text-anchor="start" x="605.86" y="-155.5" font-family="Helvetica,sans-Serif" font-size="10.00">/github/workspace/client</text>
<text text-anchor="middle" x="660.86" y="-144.5" font-family="Helvetica,sans-Serif" font-size="10.00">/include/Engine/Draw.hpp</text>
</a>
</g>
</g>
<!-- Node2&#45;&gt;Node10 -->
<g id="edge11" class="edge">
<title>Node2&#45;&gt;Node10</title>
<path fill="none" stroke="#63b8ff" d="M935.86,-215.94C877.15,-205.48 795.05,-189.65 723.86,-173 717.3,-171.47 710.44,-169.75 703.74,-167.99"/>
<polygon fill="#63b8ff" stroke="#63b8ff" points="934.96,-219.34 945.41,-217.63 936.18,-212.44 934.96,-219.34"/>
</g>
<!-- Node12 -->
<g id="node12" class="node">
<title>Node12</title>
<g id="a_node12"><a xlink:href="Error_8hpp.html" target="_top" xlink:title=" ">
<polygon fill="white" stroke="#666666" points="1545.86,-167.5 1421.86,-167.5 1421.86,-137.5 1545.86,-137.5 1545.86,-167.5"/>
<text text-anchor="start" x="1429.86" y="-155.5" font-family="Helvetica,sans-Serif" font-size="10.00">/github/workspace/client</text>
<text text-anchor="middle" x="1483.86" y="-144.5" font-family="Helvetica,sans-Serif" font-size="10.00">/include/Engine/Error.hpp</text>
</a>
</g>
</g>
<!-- Node2&#45;&gt;Node12 -->
<g id="edge14" class="edge">
<title>Node2&#45;&gt;Node12</title>
<path fill="none" stroke="#63b8ff" d="M1077.46,-211.49C1081.64,-210.58 1085.8,-209.74 1089.86,-209 1231.94,-182.99 1271,-200.21 1412.86,-173 1420.14,-171.6 1427.76,-169.84 1435.21,-167.94"/>
<polygon fill="#63b8ff" stroke="#63b8ff" points="1076.84,-208.04 1067.86,-213.67 1078.39,-214.86 1076.84,-208.04"/>
</g>
<!-- Node14 -->
<g id="node14" class="node">
<title>Node14</title>
<g id="a_node14"><a xlink:href="client_2src_2main_8cpp.html" target="_top" xlink:title=" ">
<polygon fill="white" stroke="#666666" points="1689.86,-30 1567.86,-30 1567.86,0 1689.86,0 1689.86,-30"/>
<text text-anchor="start" x="1575.86" y="-18" font-family="Helvetica,sans-Serif" font-size="10.00">/github/workspace/client</text>
<text text-anchor="middle" x="1628.86" y="-7" font-family="Helvetica,sans-Serif" font-size="10.00">/src/main.cpp</text>
</a>
</g>
</g>
<!-- Node2&#45;&gt;Node14 -->
<g id="edge39" class="edge">
<title>Node2&#45;&gt;Node14</title>
<path fill="none" stroke="#63b8ff" d="M1075.99,-211.63C1080.66,-210.64 1085.32,-209.75 1089.86,-209 1192.11,-192.06 1472.56,-236 1554.86,-173 1594.93,-142.32 1569.44,-110.7 1592.86,-66 1599.61,-53.11 1609.35,-39.81 1616.99,-30.17"/>
<polygon fill="#63b8ff" stroke="#63b8ff" points="1075.58,-208.13 1066.59,-213.73 1077.11,-214.96 1075.58,-208.13"/>
</g>
<!-- Node15 -->
<g id="node15" class="node">
<title>Node15</title>
<g id="a_node15"><a xlink:href="Event_8hpp.html" target="_top" xlink:title=" ">
<polygon fill="white" stroke="#666666" points="1123.86,-167.5 995.86,-167.5 995.86,-137.5 1123.86,-137.5 1123.86,-167.5"/>
<text text-anchor="start" x="1003.86" y="-155.5" font-family="Helvetica,sans-Serif" font-size="10.00">/github/workspace/client</text>
<text text-anchor="middle" x="1059.86" y="-144.5" font-family="Helvetica,sans-Serif" font-size="10.00">/include/Engine/Event.hpp</text>
</a>
</g>
</g>
<!-- Node2&#45;&gt;Node15 -->
<g id="edge17" class="edge">
<title>Node2&#45;&gt;Node15</title>
<path fill="none" stroke="#63b8ff" d="M1022.4,-204.19C1029.02,-192.21 1037.93,-178.18 1045.56,-167.92"/>
<polygon fill="#63b8ff" stroke="#63b8ff" points="1019.49,-202.21 1017.97,-212.7 1025.69,-205.45 1019.49,-202.21"/>
</g>
<!-- Node16 -->
<g id="node16" class="node">
<title>Node16</title>
<g id="a_node16"><a xlink:href="Event_8cpp.html" target="_top" xlink:title=" ">
<polygon fill="white" stroke="#666666" points="1182.86,-96 1060.86,-96 1060.86,-66 1182.86,-66 1182.86,-96"/>
<text text-anchor="start" x="1068.86" y="-84" font-family="Helvetica,sans-Serif" font-size="10.00">/github/workspace/client</text>
<text text-anchor="middle" x="1121.86" y="-73" font-family="Helvetica,sans-Serif" font-size="10.00">/src/Event.cpp</text>
</a>
</g>
</g>
<!-- Node2&#45;&gt;Node16 -->
<g id="edge38" class="edge">
<title>Node2&#45;&gt;Node16</title>
<path fill="none" stroke="#63b8ff" d="M996.7,-204.52C984.15,-183.76 971.72,-153.74 986.86,-132 996.24,-118.51 1031.61,-105.69 1063.79,-96.4"/>
<polygon fill="#63b8ff" stroke="#63b8ff" points="993.74,-206.4 1002.12,-212.89 999.62,-202.59 993.74,-206.4"/>
</g>
<!-- Node17 -->
<g id="node17" class="node">
<title>Node17</title>
<g id="a_node17"><a xlink:href="Map_8hpp.html" target="_top" xlink:title=" ">
<polygon fill="white" stroke="#666666" points="1263.86,-167.5 1141.86,-167.5 1141.86,-137.5 1263.86,-137.5 1263.86,-167.5"/>
<text text-anchor="start" x="1149.86" y="-155.5" font-family="Helvetica,sans-Serif" font-size="10.00">/github/workspace/client</text>
<text text-anchor="middle" x="1202.86" y="-144.5" font-family="Helvetica,sans-Serif" font-size="10.00">/include/Engine/Map.hpp</text>
</a>
</g>
</g>
<!-- Node2&#45;&gt;Node17 -->
<g id="edge20" class="edge">
<title>Node2&#45;&gt;Node17</title>
<path fill="none" stroke="#63b8ff" d="M1060.95,-209.81C1093.62,-196.85 1136.49,-179.84 1166.53,-167.92"/>
<polygon fill="#63b8ff" stroke="#63b8ff" points="1059.71,-206.54 1051.71,-213.48 1062.29,-213.05 1059.71,-206.54"/>
</g>
<!-- Node18 -->
<g id="node18" class="node">
<title>Node18</title>
<g id="a_node18"><a xlink:href="StateManager_8hpp.html" target="_top" xlink:title=" ">
<polygon fill="white" stroke="#666666" points="1905.86,-96 1741.86,-96 1741.86,-66 1905.86,-66 1905.86,-96"/>
<text text-anchor="start" x="1749.86" y="-84" font-family="Helvetica,sans-Serif" font-size="10.00">/github/workspace/client</text>
<text text-anchor="middle" x="1823.86" y="-73" font-family="Helvetica,sans-Serif" font-size="10.00">/include/Engine/StateManager.hpp</text>
</a>
</g>
</g>
<!-- Node2&#45;&gt;Node18 -->
<g id="edge21" class="edge">
<title>Node2&#45;&gt;Node18</title>
<path fill="none" stroke="#63b8ff" d="M1066.52,-211.61C1071.34,-210.61 1076.16,-209.72 1080.86,-209 1225.81,-186.67 1608.97,-239.16 1739.86,-173 1773.11,-156.19 1796.99,-117.29 1811.25,-96.2"/>
<polygon fill="#63b8ff" stroke="#63b8ff" points="1065.86,-208.17 1056.87,-213.76 1067.39,-215 1065.86,-208.17"/>
</g>
<!-- Node20 -->
<g id="node20" class="node">
<title>Node20</title>
<g id="a_node20"><a xlink:href="Text_8hpp.html" target="_top" xlink:title=" ">
<polygon fill="white" stroke="#666666" points="1403.86,-167.5 1281.86,-167.5 1281.86,-137.5 1403.86,-137.5 1403.86,-167.5"/>
<text text-anchor="start" x="1289.86" y="-155.5" font-family="Helvetica,sans-Serif" font-size="10.00">/github/workspace/client</text>
<text text-anchor="middle" x="1342.86" y="-144.5" font-family="Helvetica,sans-Serif" font-size="10.00">/include/Engine/Text.hpp</text>
</a>
</g>
</g>
<!-- Node2&#45;&gt;Node20 -->
<g id="edge24" class="edge">
<title>Node2&#45;&gt;Node20</title>
<path fill="none" stroke="#63b8ff" d="M1079.63,-211.38C1083.09,-210.56 1086.51,-209.76 1089.86,-209 1170.7,-190.69 1192.2,-192.14 1272.86,-173 1279.36,-171.46 1286.17,-169.72 1292.89,-167.93"/>
<polygon fill="#63b8ff" stroke="#63b8ff" points="1078.92,-207.95 1070.03,-213.71 1080.58,-214.75 1078.92,-207.95"/>
</g>
<!-- Node21 -->
<g id="node21" class="node">
<title>Node21</title>
<g id="a_node21"><a xlink:href="Window_8hpp.html" target="_top" xlink:title=" ">
<polygon fill="white" stroke="#666666" points="1739.86,-167.5 1601.86,-167.5 1601.86,-137.5 1739.86,-137.5 1739.86,-167.5"/>
<text text-anchor="start" x="1609.86" y="-155.5" font-family="Helvetica,sans-Serif" font-size="10.00">/github/workspace/client</text>
<text text-anchor="middle" x="1670.86" y="-144.5" font-family="Helvetica,sans-Serif" font-size="10.00">/include/Engine/Window.hpp</text>
</a>
</g>
</g>
<!-- Node2&#45;&gt;Node21 -->
<g id="edge25" class="edge">
<title>Node2&#45;&gt;Node21</title>
<path fill="none" stroke="#63b8ff" d="M1067.39,-211.52C1071.92,-210.57 1076.45,-209.72 1080.86,-209 1299.87,-173.28 1359.49,-206.48 1578.86,-173 1587.64,-171.66 1596.86,-169.88 1605.95,-167.93"/>
<polygon fill="#63b8ff" stroke="#63b8ff" points="1066.69,-208.09 1057.7,-213.69 1068.22,-214.92 1066.69,-208.09"/>
</g>
<!-- Node23 -->
<g id="node23" class="node">
<title>Node23</title>
<g id="a_node23"><a xlink:href="Properties_8hpp.html" target="_top" xlink:title=" ">
<polygon fill="white" stroke="#666666" points="277.36,-167.5 126.36,-167.5 126.36,-137.5 277.36,-137.5 277.36,-167.5"/>
<text text-anchor="start" x="134.36" y="-155.5" font-family="Helvetica,sans-Serif" font-size="10.00">/github/workspace/client</text>
<text text-anchor="middle" x="201.86" y="-144.5" font-family="Helvetica,sans-Serif" font-size="10.00">/include/Entities/Properties.hpp</text>
</a>
</g>
</g>
<!-- Node2&#45;&gt;Node23 -->
<g id="edge30" class="edge">
<title>Node2&#45;&gt;Node23</title>
<path fill="none" stroke="#63b8ff" d="M935.77,-226.36C802.16,-221.85 521.39,-208.65 286.86,-173 278.03,-171.66 268.75,-169.9 259.7,-167.99"/>
<polygon fill="#63b8ff" stroke="#63b8ff" points="935.45,-229.85 945.56,-226.68 935.68,-222.86 935.45,-229.85"/>
</g>
<!-- Node3&#45;&gt;Node4 -->
<g id="edge3" class="edge">
<title>Node3&#45;&gt;Node4</title>
<path fill="none" stroke="#63b8ff" d="M873.91,-66.33C872.89,-66.22 871.87,-66.11 870.86,-66 608.27,-38.32 539.7,-63.97 277.86,-30 275.03,-29.63 272.15,-29.22 269.24,-28.77"/>
<polygon fill="#63b8ff" stroke="#63b8ff" points="873.18,-69.77 883.52,-67.46 874,-62.82 873.18,-69.77"/>
</g>
<!-- Node5&#45;&gt;Node2 -->
<g id="edge5" class="edge">
<title>Node5&#45;&gt;Node2</title>
<path fill="none" stroke="#63b8ff" d="M874.61,-171.8C909.15,-184.8 953.05,-202 982.3,-214.04"/>
<polygon fill="#63b8ff" stroke="#63b8ff" points="876.23,-168.67 865.63,-168.45 873.77,-175.23 876.23,-168.67"/>
</g>
<!-- Node5&#45;&gt;Node4 -->
<g id="edge6" class="edge">
<title>Node5&#45;&gt;Node4</title>
<path fill="none" stroke="#63b8ff" d="M836.35,-126.99C845.52,-107.97 853.04,-82.19 837.86,-66 795.21,-20.52 339.68,-38.13 277.86,-30 275.03,-29.63 272.15,-29.21 269.24,-28.76"/>
<polygon fill="#63b8ff" stroke="#63b8ff" points="833.34,-125.21 831.78,-135.69 839.53,-128.47 833.34,-125.21"/>
</g>
<!-- Node6 -->
<g id="node6" class="node">
<title>Node6</title>
<g id="a_node6"><a xlink:href="Bullets_8cpp.html" target="_top" xlink:title=" ">
<polygon fill="white" stroke="#666666" points="828.86,-96 706.86,-96 706.86,-66 828.86,-66 828.86,-96"/>
<text text-anchor="start" x="714.86" y="-84" font-family="Helvetica,sans-Serif" font-size="10.00">/github/workspace/client</text>
<text text-anchor="middle" x="767.86" y="-73" font-family="Helvetica,sans-Serif" font-size="10.00">/src/Bullets.cpp</text>
</a>
</g>
</g>
<!-- Node5&#45;&gt;Node6 -->
<g id="edge7" class="edge">
<title>Node5&#45;&gt;Node6</title>
<path fill="none" stroke="#63b8ff" d="M803.62,-128.03C795.47,-117.54 786.12,-105.51 779.03,-96.38"/>
<polygon fill="#63b8ff" stroke="#63b8ff" points="800.84,-130.16 809.74,-135.9 806.37,-125.86 800.84,-130.16"/>
</g>
<!-- Node9 -->
<g id="node9" class="node">
<title>Node9</title>
<g id="a_node9"><a xlink:href="Destroy_8cpp.html" target="_top" xlink:title=" ">
<polygon fill="white" stroke="#666666" points="548.86,-96 426.86,-96 426.86,-66 548.86,-66 548.86,-96"/>
<text text-anchor="start" x="434.86" y="-84" font-family="Helvetica,sans-Serif" font-size="10.00">/github/workspace/client</text>
<text text-anchor="middle" x="487.86" y="-73" font-family="Helvetica,sans-Serif" font-size="10.00">/src/Destroy.cpp</text>
</a>
</g>
</g>
<!-- Node8&#45;&gt;Node9 -->
<g id="edge10" class="edge">
<title>Node8&#45;&gt;Node9</title>
<path fill="none" stroke="#63b8ff" d="M502.55,-126.41C499.21,-116.32 495.48,-105.04 492.62,-96.38"/>
<polygon fill="#63b8ff" stroke="#63b8ff" points="499.15,-127.27 505.62,-135.66 505.8,-125.07 499.15,-127.27"/>
</g>
<!-- Node10&#45;&gt;Node2 -->
<g id="edge12" class="edge">
<title>Node10&#45;&gt;Node2</title>
<path fill="none" stroke="#63b8ff" d="M732.47,-170.74C735.64,-171.52 738.78,-172.28 741.86,-173 811.58,-189.31 891.78,-204.83 947,-215.29"/>
<polygon fill="#63b8ff" stroke="#63b8ff" points="733.6,-167.42 723.05,-168.36 731.89,-174.2 733.6,-167.42"/>
</g>
<!-- Node11 -->
<g id="node11" class="node">
<title>Node11</title>
<g id="a_node11"><a xlink:href="Draw_8cpp.html" target="_top" xlink:title=" ">
<polygon fill="white" stroke="#666666" points="688.86,-96 566.86,-96 566.86,-66 688.86,-66 688.86,-96"/>
<text text-anchor="start" x="574.86" y="-84" font-family="Helvetica,sans-Serif" font-size="10.00">/github/workspace/client</text>
<text text-anchor="middle" x="627.86" y="-73" font-family="Helvetica,sans-Serif" font-size="10.00">/src/Draw.cpp</text>
</a>
</g>
</g>
<!-- Node10&#45;&gt;Node11 -->
<g id="edge13" class="edge">
<title>Node10&#45;&gt;Node11</title>
<path fill="none" stroke="#63b8ff" d="M649.1,-126.73C644.27,-116.56 638.84,-105.14 634.69,-96.38"/>
<polygon fill="#63b8ff" stroke="#63b8ff" points="645.92,-128.2 653.37,-135.73 652.24,-125.2 645.92,-128.2"/>
</g>
<!-- Node13 -->
<g id="node13" class="node">
<title>Node13</title>
<g id="a_node13"><a xlink:href="Error_8cpp.html" target="_top" xlink:title=" ">
<polygon fill="white" stroke="#666666" points="1507.86,-96 1385.86,-96 1385.86,-66 1507.86,-66 1507.86,-96"/>
<text text-anchor="start" x="1393.86" y="-84" font-family="Helvetica,sans-Serif" font-size="10.00">/github/workspace/client</text>
<text text-anchor="middle" x="1446.86" y="-73" font-family="Helvetica,sans-Serif" font-size="10.00">/src/Error.cpp</text>
</a>
</g>
</g>
<!-- Node12&#45;&gt;Node13 -->
<g id="edge15" class="edge">
<title>Node12&#45;&gt;Node13</title>
<path fill="none" stroke="#63b8ff" d="M1470.85,-127.06C1465.39,-116.8 1459.22,-105.23 1454.51,-96.38"/>
<polygon fill="#63b8ff" stroke="#63b8ff" points="1467.69,-128.58 1475.48,-135.76 1473.87,-125.29 1467.69,-128.58"/>
</g>
<!-- Node12&#45;&gt;Node14 -->
<g id="edge16" class="edge">
<title>Node12&#45;&gt;Node14</title>
<path fill="none" stroke="#63b8ff" d="M1502.1,-128.34C1516.78,-110.4 1538.42,-85.41 1559.86,-66 1574.44,-52.8 1592.5,-39.82 1606.48,-30.39"/>
<polygon fill="#63b8ff" stroke="#63b8ff" points="1499.61,-125.86 1496.05,-135.84 1505.06,-130.26 1499.61,-125.86"/>
</g>
<!-- Node15&#45;&gt;Node2 -->
<g id="edge18" class="edge">
<title>Node15&#45;&gt;Node2</title>
<path fill="none" stroke="#63b8ff" d="M1051.14,-178.12C1044.55,-190.01 1035.74,-203.87 1028.18,-214.04"/>
<polygon fill="#63b8ff" stroke="#63b8ff" points="1054.24,-179.74 1055.77,-169.26 1048.04,-176.5 1054.24,-179.74"/>
</g>
<!-- Node15&#45;&gt;Node16 -->
<g id="edge19" class="edge">
<title>Node15&#45;&gt;Node16</title>
<path fill="none" stroke="#63b8ff" d="M1080.23,-128.67C1089.72,-118.03 1100.72,-105.7 1109.03,-96.38"/>
<polygon fill="#63b8ff" stroke="#63b8ff" points="1077.76,-126.18 1073.71,-135.97 1082.98,-130.84 1077.76,-126.18"/>
</g>
<!-- Node18&#45;&gt;Node2 -->
<g id="edge22" class="edge">
<title>Node18&#45;&gt;Node2</title>
<path fill="none" stroke="#63b8ff" d="M1818.27,-106.64C1807.69,-128.35 1786.17,-158.69 1757.86,-173 1626.97,-239.16 1243.81,-186.67 1098.86,-209 1090.51,-210.29 1081.75,-212.09 1073.13,-214.09"/>
<polygon fill="#63b8ff" stroke="#63b8ff" points="1821.43,-108.16 1822.18,-97.59 1815,-105.38 1821.43,-108.16"/>
</g>
<!-- Node19 -->
<g id="node19" class="node">
<title>Node19</title>
<g id="a_node19"><a xlink:href="StateManager_8cpp.html" target="_top" xlink:title=" ">
<polygon fill="white" stroke="#666666" points="1993.86,-30 1871.86,-30 1871.86,0 1993.86,0 1993.86,-30"/>
<text text-anchor="start" x="1879.86" y="-18" font-family="Helvetica,sans-Serif" font-size="10.00">/github/workspace/client</text>
<text text-anchor="middle" x="1932.86" y="-7" font-family="Helvetica,sans-Serif" font-size="10.00">/src/StateManager.cpp</text>
</a>
</g>
</g>
<!-- Node18&#45;&gt;Node19 -->
<g id="edge23" class="edge">
<title>Node18&#45;&gt;Node19</title>
<path fill="none" stroke="#63b8ff" d="M1858.07,-59.91C1874.43,-50.31 1893.63,-39.03 1908.48,-30.31"/>
<polygon fill="#63b8ff" stroke="#63b8ff" points="1856.48,-56.79 1849.62,-64.87 1860.02,-62.83 1856.48,-56.79"/>
</g>
<!-- Node21&#45;&gt;Node2 -->
<g id="edge26" class="edge">
<title>Node21&#45;&gt;Node2</title>
<path fill="none" stroke="#63b8ff" d="M1612.8,-170.2C1607.44,-171.25 1602.07,-172.2 1596.86,-173 1377.49,-206.48 1317.87,-173.28 1098.86,-209 1090.79,-210.32 1082.33,-212.09 1073.99,-214.02"/>
<polygon fill="#63b8ff" stroke="#63b8ff" points="1613.16,-173.7 1622.24,-168.24 1611.74,-166.85 1613.16,-173.7"/>
</g>
<!-- Node21&#45;&gt;Node18 -->
<g id="edge27" class="edge">
<title>Node21&#45;&gt;Node18</title>
<path fill="none" stroke="#63b8ff" d="M1712.87,-132.41C1737.93,-121.03 1769.23,-106.81 1792.2,-96.38"/>
<polygon fill="#63b8ff" stroke="#63b8ff" points="1711.59,-129.15 1703.94,-136.47 1714.49,-135.52 1711.59,-129.15"/>
</g>
<!-- Node22 -->
<g id="node22" class="node">
<title>Node22</title>
<g id="a_node22"><a xlink:href="Window_8cpp.html" target="_top" xlink:title=" ">
<polygon fill="white" stroke="#666666" points="1723.86,-96 1601.86,-96 1601.86,-66 1723.86,-66 1723.86,-96"/>
<text text-anchor="start" x="1609.86" y="-84" font-family="Helvetica,sans-Serif" font-size="10.00">/github/workspace/client</text>
<text text-anchor="middle" x="1662.86" y="-73" font-family="Helvetica,sans-Serif" font-size="10.00">/src/Window.cpp</text>
</a>
</g>
</g>
<!-- Node21&#45;&gt;Node22 -->
<g id="edge28" class="edge">
<title>Node21&#45;&gt;Node22</title>
<path fill="none" stroke="#63b8ff" d="M1667.89,-125.76C1666.75,-115.83 1665.49,-104.86 1664.51,-96.38"/>
<polygon fill="#63b8ff" stroke="#63b8ff" points="1664.41,-126.06 1669.03,-135.6 1671.36,-125.26 1664.41,-126.06"/>
</g>
<!-- Node23&#45;&gt;Node4 -->
<g id="edge36" class="edge">
<title>Node23&#45;&gt;Node4</title>
<path fill="none" stroke="#63b8ff" d="M203.95,-125.96C204.65,-116.55 205.38,-105.8 205.86,-96 206.97,-73.1 207.48,-46.49 207.7,-30.46"/>
<polygon fill="#63b8ff" stroke="#63b8ff" points="200.47,-125.62 203.18,-135.86 207.44,-126.16 200.47,-125.62"/>
</g>
<!-- Node24 -->
<g id="node24" class="node">
<title>Node24</title>
<g id="a_node24"><a xlink:href="Enemy_8hpp.html" target="_top" xlink:title=" ">
<polygon fill="white" stroke="#666666" points="196.86,-96 38.86,-96 38.86,-66 196.86,-66 196.86,-96"/>
<text text-anchor="start" x="46.86" y="-84" font-family="Helvetica,sans-Serif" font-size="10.00">/github/workspace/client</text>
<text text-anchor="middle" x="117.86" y="-73" font-family="Helvetica,sans-Serif" font-size="10.00">/include/Components/Enemy.hpp</text>
</a>
</g>
</g>
<!-- Node23&#45;&gt;Node24 -->
<g id="edge31" class="edge">
<title>Node23&#45;&gt;Node24</title>
<path fill="none" stroke="#63b8ff" d="M175.79,-129.93C162.6,-119.02 146.95,-106.07 135.24,-96.38"/>
<polygon fill="#63b8ff" stroke="#63b8ff" points="173.35,-132.46 183.29,-136.13 177.81,-127.06 173.35,-132.46"/>
</g>
<!-- Node25 -->
<g id="node25" class="node">
<title>Node25</title>
<g id="a_node25"><a xlink:href="Player_8hpp.html" target="_top" xlink:title=" ">
<polygon fill="white" stroke="#666666" points="408.86,-96 252.86,-96 252.86,-66 408.86,-66 408.86,-96"/>
<text text-anchor="start" x="260.86" y="-84" font-family="Helvetica,sans-Serif" font-size="10.00">/github/workspace/client</text>
<text text-anchor="middle" x="330.86" y="-73" font-family="Helvetica,sans-Serif" font-size="10.00">/include/Components/Player.hpp</text>
</a>
</g>
</g>
<!-- Node23&#45;&gt;Node25 -->
<g id="edge33" class="edge">
<title>Node23&#45;&gt;Node25</title>
<path fill="none" stroke="#63b8ff" d="M238.7,-131.65C259.58,-120.4 285.23,-106.58 304.16,-96.38"/>
<polygon fill="#63b8ff" stroke="#63b8ff" points="237.06,-128.56 229.92,-136.38 240.38,-134.72 237.06,-128.56"/>
</g>
<!-- Node24&#45;&gt;Node4 -->
<g id="edge32" class="edge">
<title>Node24&#45;&gt;Node4</title>
<path fill="none" stroke="#63b8ff" d="M147.04,-59.25C160.3,-49.82 175.66,-38.9 187.63,-30.39"/>
<polygon fill="#63b8ff" stroke="#63b8ff" points="145.19,-56.27 139.06,-64.92 149.24,-61.98 145.19,-56.27"/>
</g>
<!-- Node25&#45;&gt;Node4 -->
<g id="edge34" class="edge">
<title>Node25&#45;&gt;Node4</title>
<path fill="none" stroke="#63b8ff" d="M293.29,-60.45C274.61,-50.73 252.44,-39.2 235.37,-30.31"/>
<polygon fill="#63b8ff" stroke="#63b8ff" points="291.42,-63.43 301.91,-64.94 294.66,-57.22 291.42,-63.43"/>
</g>
<!-- Node26 -->
<g id="node26" class="node">
<title>Node26</title>
<g id="a_node26"><a xlink:href="Player_8cpp.html" target="_top" xlink:title=" ">
<polygon fill="white" stroke="#666666" points="408.86,-30 286.86,-30 286.86,0 408.86,0 408.86,-30"/>
<text text-anchor="start" x="294.86" y="-18" font-family="Helvetica,sans-Serif" font-size="10.00">/github/workspace/client</text>
<text text-anchor="middle" x="347.86" y="-7" font-family="Helvetica,sans-Serif" font-size="10.00">/src/Player.cpp</text>
</a>
</g>
</g>
<!-- Node25&#45;&gt;Node26 -->
<g id="edge35" class="edge">
<title>Node25&#45;&gt;Node26</title>
<path fill="none" stroke="#63b8ff" d="M337.58,-54.68C339.8,-46.34 342.18,-37.37 344.09,-30.16"/>
<polygon fill="#63b8ff" stroke="#63b8ff" points="334.2,-53.77 335.02,-64.33 340.97,-55.57 334.2,-53.77"/>
</g>
<!-- Node28 -->
<g id="node28" class="node">
<title>Node28</title>
<g id="a_node28"><a xlink:href="SGamePlay_8hpp.html" target="_top" xlink:title=" ">
<polygon fill="white" stroke="#666666" points="2003.86,-173 1863.86,-173 1863.86,-132 2003.86,-132 2003.86,-173"/>
<text text-anchor="start" x="1871.86" y="-161" font-family="Helvetica,sans-Serif" font-size="10.00">/github/workspace/client</text>
<text text-anchor="start" x="1871.86" y="-150" font-family="Helvetica,sans-Serif" font-size="10.00">/include/system/gameStates</text>
<text text-anchor="middle" x="1933.86" y="-139" font-family="Helvetica,sans-Serif" font-size="10.00">/SGamePlay.hpp</text>
</a>
</g>
</g>
<!-- Node27&#45;&gt;Node28 -->
<g id="edge42" class="edge">
<title>Node27&#45;&gt;Node28</title>
<path fill="none" stroke="#63b8ff" d="M1249.97,-208.84C1503.35,-171.04 1572.78,-203 1823.86,-173 1836.76,-171.46 1850.44,-169.39 1863.62,-167.17"/>
<polygon fill="#63b8ff" stroke="#63b8ff" points="1249.8,-205.32 1240.43,-210.28 1250.84,-212.24 1249.8,-205.32"/>
</g>
<!-- Node28&#45;&gt;Node14 -->
<g id="edge46" class="edge">
<title>Node28&#45;&gt;Node14</title>
<path fill="none" stroke="#63b8ff" d="M1935,-120.2C1933.92,-101.91 1929.29,-79.79 1914.86,-66 1883.42,-35.97 1764.49,-23.71 1690.26,-18.9"/>
<polygon fill="#63b8ff" stroke="#63b8ff" points="1931.5,-120.11 1935.23,-130.02 1938.49,-119.94 1931.5,-120.11"/>
</g>
<!-- Node29 -->
<g id="node29" class="node">
<title>Node29</title>
<g id="a_node29"><a xlink:href="GameEngine_8hpp.html" target="_top" xlink:title=" ">
<polygon fill="white" stroke="#666666" points="2123.36,-96 1962.36,-96 1962.36,-66 2123.36,-66 2123.36,-96"/>
<text text-anchor="start" x="1970.36" y="-84" font-family="Helvetica,sans-Serif" font-size="10.00">/github/workspace/client</text>
<text text-anchor="middle" x="2042.86" y="-73" font-family="Helvetica,sans-Serif" font-size="10.00">/include/system/GameEngine.hpp</text>
</a>
</g>
</g>
<!-- Node28&#45;&gt;Node29 -->
<g id="edge43" class="edge">
<title>Node28&#45;&gt;Node29</title>
<path fill="none" stroke="#63b8ff" d="M1974.48,-125.6C1989.97,-115.72 2007.06,-104.83 2020.28,-96.4"/>
<polygon fill="#63b8ff" stroke="#63b8ff" points="1972.92,-122.44 1966.37,-130.77 1976.68,-128.35 1972.92,-122.44"/>
</g>
<!-- Node29&#45;&gt;Node14 -->
<g id="edge45" class="edge">
<title>Node29&#45;&gt;Node14</title>
<path fill="none" stroke="#63b8ff" d="M1951.08,-65.81C1871.71,-53.54 1759.19,-36.15 1690.27,-25.49"/>
<polygon fill="#63b8ff" stroke="#63b8ff" points="1950.14,-69.21 1960.56,-67.28 1951.21,-62.29 1950.14,-69.21"/>
</g>
<!-- Node29&#45;&gt;Node19 -->
<g id="edge44" class="edge">
<title>Node29&#45;&gt;Node19</title>
<path fill="none" stroke="#63b8ff" d="M2008.33,-59.91C1991.82,-50.31 1972.45,-39.03 1957.46,-30.31"/>
<polygon fill="#63b8ff" stroke="#63b8ff" points="2006.46,-62.87 2016.86,-64.88 2009.98,-56.82 2006.46,-62.87"/>
</g>
</g>
</svg>
