<?xml version="1.0" encoding="UTF-8" standalone="no"?>
<!DOCTYPE svg PUBLIC "-//W3C//DTD SVG 1.1//EN"
 "http://www.w3.org/Graphics/SVG/1.1/DTD/svg11.dtd">
<!-- Generated by graphviz version 7.0.5 (20221223.1930)
 -->
<!-- Title: /github/workspace/client/src/EntitiesManager.cpp Pages: 1 -->
<!--zoomable 258 -->
<svg id="main" version="1.1" xmlns="http://www.w3.org/2000/svg" xmlns:xlink="http://www.w3.org/1999/xlink" xml:space="preserve" onload="init(evt)">
<style type="text/css"><![CDATA[
.edge:hover path { stroke: red; }
.edge:hover polygon { stroke: red; fill: red; }
]]></style>
<script type="text/javascript"><![CDATA[
var edges = document.getElementsByTagName('g');
if (edges && edges.length) {
  for (var i=0;i<edges.length;i++) {
    if (edges[i].id.substr(0,4)=='edge') {
      edges[i].setAttribute('class','edge');
    }
  }
}
]]></script>
        <defs>
                <circle id="rim" cx="0" cy="0" r="7"/>
                <circle id="rim2" cx="0" cy="0" r="3.5"/>
                <g id="zoomPlus">
                        <use xlink:href="#rim" fill="#404040">
                                <set attributeName="fill" to="#808080" begin="zoomplus.mouseover" end="zoomplus.mouseout"/>
                        </use>
                        <path d="M-4,0h8M0,-4v8" fill="none" stroke="white" stroke-width="1.5" pointer-events="none"/>
                </g>
                <g id="zoomMin">
                        <use xlink:href="#rim" fill="#404040">
                                <set attributeName="fill" to="#808080" begin="zoomminus.mouseover" end="zoomminus.mouseout"/>
                        </use>
                        <path d="M-4,0h8" fill="none" stroke="white" stroke-width="1.5" pointer-events="none"/>
                </g>
                <g id="dirArrow">
                        <path fill="none" stroke="white" stroke-width="1.5" d="M0,-3.0v7 M-2.5,-0.5L0,-3.0L2.5,-0.5"/>
                </g>
               <g id="resetDef">
                       <use xlink:href="#rim2" fill="#404040">
                               <set attributeName="fill" to="#808080" begin="reset.mouseover" end="reset.mouseout"/>
                       </use>
               </g>
        </defs>

<script type="text/javascript">
var viewWidth = 1898;
var viewHeight = 258;
var sectionId = 'dynsection-0';
</script>
<script xlink:href="svgpan.js"/>
<svg id="graph" class="graph">
<g id="viewport">
<title>/github/workspace/client/src/EntitiesManager.cpp</title>
<!-- Node1 -->
<g id="node1" class="node">
<title>Node1</title>
<g id="a_node1"><a xlink:title=" ">
<polygon fill="#999999" stroke="#666666" points="778.68,-250 654.68,-250 654.68,-220 778.68,-220 778.68,-250"/>
<text text-anchor="start" x="662.68" y="-238" font-family="Helvetica,sans-Serif" font-size="10.00">/github/workspace/client</text>
<text text-anchor="middle" x="716.68" y="-227" font-family="Helvetica,sans-Serif" font-size="10.00">/src/EntitiesManager.cpp</text>
</a>
</g>
</g>
<!-- Node2 -->
<g id="node2" class="node">
<title>Node2</title>
<g id="a_node2"><a xlink:href="EntitiesManager_8hpp.html" target="_top" xlink:title=" ">
<polygon fill="white" stroke="#666666" points="786.68,-184 646.68,-184 646.68,-165 786.68,-165 786.68,-184"/>
<text text-anchor="middle" x="716.68" y="-172" font-family="Helvetica,sans-Serif" font-size="10.00">Entities/EntitiesManager.hpp</text>
</a>
</g>
</g>
<!-- Node1&#45;&gt;Node2 -->
<g id="edge1" class="edge">
<title>Node1&#45;&gt;Node2</title>
<path fill="none" stroke="#63b8ff" d="M716.68,-219.54C716.68,-212.34 716.68,-203.53 716.68,-195.68"/>
<polygon fill="#63b8ff" stroke="#63b8ff" points="720.18,-195.69 716.68,-185.69 713.18,-195.69 720.18,-195.69"/>
</g>
<!-- Node3 -->
<g id="node3" class="node">
<title>Node3</title>
<g id="a_node3"><a xlink:href="Engine_8hpp.html" target="_top" xlink:title=" ">
<polygon fill="white" stroke="#666666" points="764.68,-129 668.68,-129 668.68,-110 764.68,-110 764.68,-129"/>
<text text-anchor="middle" x="716.68" y="-117" font-family="Helvetica,sans-Serif" font-size="10.00">Engine/Engine.hpp</text>
</a>
</g>
</g>
<!-- Node2&#45;&gt;Node3 -->
<g id="edge2" class="edge">
<title>Node2&#45;&gt;Node3</title>
<path fill="none" stroke="#63b8ff" d="M711.51,-164.75C710.1,-158.19 709.63,-148.95 710.11,-140.6"/>
<polygon fill="#63b8ff" stroke="#63b8ff" points="713.55,-141.3 711.29,-130.94 706.6,-140.45 713.55,-141.3"/>
</g>
<!-- Node21 -->
<g id="node21" class="node">
<title>Node21</title>
<g id="a_node21"><a xlink:href="IComponents_8hpp.html" target="_top" xlink:title=" ">
<polygon fill="white" stroke="#666666" points="200.68,-19 108.68,-19 108.68,0 200.68,0 200.68,-19"/>
<text text-anchor="middle" x="154.68" y="-7" font-family="Helvetica,sans-Serif" font-size="10.00">IComponents.hpp</text>
</a>
</g>
</g>
<!-- Node2&#45;&gt;Node21 -->
<g id="edge29" class="edge">
<title>Node2&#45;&gt;Node21</title>
<path fill="none" stroke="#63b8ff" d="M646.27,-168.8C475.32,-156.66 49.3,-121.87 7.68,-74 -21.72,-40.19 44.17,-23.78 97.01,-16.27"/>
<polygon fill="#63b8ff" stroke="#63b8ff" points="97.44,-19.74 106.89,-14.95 96.52,-12.8 97.44,-19.74"/>
</g>
<!-- Node24 -->
<g id="node24" class="node">
<title>Node24</title>
<g id="a_node24"><a xlink:href="SparseArray_8hpp.html" target="_top" xlink:title=" ">
<polygon fill="white" stroke="#666666" points="1743.18,-129 1632.18,-129 1632.18,-110 1743.18,-110 1743.18,-129"/>
<text text-anchor="middle" x="1687.68" y="-117" font-family="Helvetica,sans-Serif" font-size="10.00">Utils/SparseArray.hpp</text>
</a>
</g>
</g>
<!-- Node2&#45;&gt;Node24 -->
<g id="edge30" class="edge">
<title>Node2&#45;&gt;Node24</title>
<path fill="none" stroke="#63b8ff" d="M786.9,-169.67C967.02,-159.84 1443.65,-133.82 1620.44,-124.17"/>
<polygon fill="#63b8ff" stroke="#63b8ff" points="1620.59,-127.67 1630.38,-123.63 1620.21,-120.68 1620.59,-127.67"/>
</g>
<!-- Node3&#45;&gt;Node2 -->
<g id="edge21" class="edge">
<title>Node3&#45;&gt;Node2</title>
<path fill="none" stroke="#63b8ff" d="M721.89,-129.44C723.26,-135.97 723.72,-145.1 723.25,-153.35"/>
<polygon fill="#63b8ff" stroke="#63b8ff" points="719.78,-152.89 722.03,-163.25 726.73,-153.75 719.78,-152.89"/>
</g>
<!-- Node4 -->
<g id="node4" class="node">
<title>Node4</title>
<g id="a_node4"><a xlink:title=" ">
<polygon fill="#e0e0e0" stroke="#999999" points="1070.18,-74 981.18,-74 981.18,-55 1070.18,-55 1070.18,-74"/>
<text text-anchor="middle" x="1025.68" y="-62" font-family="Helvetica,sans-Serif" font-size="10.00">SFML/Audio.hpp</text>
</a>
</g>
</g>
<!-- Node3&#45;&gt;Node4 -->
<g id="edge3" class="edge">
<title>Node3&#45;&gt;Node4</title>
<path fill="none" stroke="#63b8ff" d="M764.96,-110.22C820.34,-100.72 911,-85.17 969.5,-75.14"/>
<polygon fill="#63b8ff" stroke="#63b8ff" points="969.99,-78.6 979.26,-73.46 968.81,-71.7 969.99,-78.6"/>
</g>
<!-- Node5 -->
<g id="node5" class="node">
<title>Node5</title>
<g id="a_node5"><a xlink:title=" ">
<polygon fill="#e0e0e0" stroke="#999999" points="1192.68,-74 1088.68,-74 1088.68,-55 1192.68,-55 1192.68,-74"/>
<text text-anchor="middle" x="1140.68" y="-62" font-family="Helvetica,sans-Serif" font-size="10.00">SFML/Graphics.hpp</text>
</a>
</g>
</g>
<!-- Node3&#45;&gt;Node5 -->
<g id="edge4" class="edge">
<title>Node3&#45;&gt;Node5</title>
<path fill="none" stroke="#63b8ff" d="M765.15,-112.82C832.61,-104.85 958.94,-89.72 1077.04,-74.33"/>
<polygon fill="#63b8ff" stroke="#63b8ff" points="1077.48,-77.8 1086.94,-73.03 1076.57,-70.86 1077.48,-77.8"/>
</g>
<!-- Node6 -->
<g id="node6" class="node">
<title>Node6</title>
<g id="a_node6"><a xlink:title=" ">
<polygon fill="#e0e0e0" stroke="#999999" points="1312.18,-74 1211.18,-74 1211.18,-55 1312.18,-55 1312.18,-74"/>
<text text-anchor="middle" x="1261.68" y="-62" font-family="Helvetica,sans-Serif" font-size="10.00">SFML/Network.hpp</text>
</a>
</g>
</g>
<!-- Node3&#45;&gt;Node6 -->
<g id="edge5" class="edge">
<title>Node3&#45;&gt;Node6</title>
<path fill="none" stroke="#63b8ff" d="M764.95,-114.86C850.28,-108.26 1033.63,-93.3 1199.55,-74.19"/>
<polygon fill="#63b8ff" stroke="#63b8ff" points="1199.93,-77.67 1209.46,-73.04 1199.12,-70.71 1199.93,-77.67"/>
</g>
<!-- Node7 -->
<g id="node7" class="node">
<title>Node7</title>
<g id="a_node7"><a xlink:title=" ">
<polygon fill="#e0e0e0" stroke="#999999" points="1429.18,-74 1330.18,-74 1330.18,-55 1429.18,-55 1429.18,-74"/>
<text text-anchor="middle" x="1379.68" y="-62" font-family="Helvetica,sans-Serif" font-size="10.00">SFML/Window.hpp</text>
</a>
</g>
</g>
<!-- Node3&#45;&gt;Node7 -->
<g id="edge6" class="edge">
<title>Node3&#45;&gt;Node7</title>
<path fill="none" stroke="#63b8ff" d="M765.02,-116.13C865.92,-110.93 1106.53,-97.19 1318.38,-74.29"/>
<polygon fill="#63b8ff" stroke="#63b8ff" points="1318.66,-77.78 1328.22,-73.22 1317.9,-70.82 1318.66,-77.78"/>
</g>
<!-- Node8 -->
<g id="node8" class="node">
<title>Node8</title>
<g id="a_node8"><a xlink:title=" ">
<polygon fill="#e0e0e0" stroke="#999999" points="1545.68,-74 1447.68,-74 1447.68,-55 1545.68,-55 1545.68,-74"/>
<text text-anchor="middle" x="1496.68" y="-62" font-family="Helvetica,sans-Serif" font-size="10.00">SFML/System.hpp</text>
</a>
</g>
</g>
<!-- Node3&#45;&gt;Node8 -->
<g id="edge7" class="edge">
<title>Node3&#45;&gt;Node8</title>
<path fill="none" stroke="#63b8ff" d="M764.96,-116.93C879.55,-112.89 1177.14,-100.64 1436.21,-74.17"/>
<polygon fill="#63b8ff" stroke="#63b8ff" points="1436.26,-77.68 1445.85,-73.17 1435.54,-70.72 1436.26,-77.68"/>
</g>
<!-- Node9 -->
<g id="node9" class="node">
<title>Node9</title>
<g id="a_node9"><a xlink:title=" ">
<polygon fill="#e0e0e0" stroke="#999999" points="1611.68,-19 1557.68,-19 1557.68,0 1611.68,0 1611.68,-19"/>
<text text-anchor="middle" x="1584.68" y="-7" font-family="Helvetica,sans-Serif" font-size="10.00">iostream</text>
</a>
</g>
</g>
<!-- Node3&#45;&gt;Node9 -->
<g id="edge8" class="edge">
<title>Node3&#45;&gt;Node9</title>
<path fill="none" stroke="#63b8ff" d="M727.88,-109.71C748.48,-93.74 791.91,-61.05 809.68,-55 948.21,-7.83 1409.43,-8.66 1546.16,-10"/>
<polygon fill="#63b8ff" stroke="#63b8ff" points="1545.72,-13.5 1555.76,-10.11 1545.8,-6.5 1545.72,-13.5"/>
</g>
<!-- Node10 -->
<g id="node10" class="node">
<title>Node10</title>
<g id="a_node10"><a xlink:title=" ">
<polygon fill="#e0e0e0" stroke="#999999" points="66.68,-74 16.68,-74 16.68,-55 66.68,-55 66.68,-74"/>
<text text-anchor="middle" x="41.68" y="-62" font-family="Helvetica,sans-Serif" font-size="10.00">fstream</text>
</a>
</g>
</g>
<!-- Node3&#45;&gt;Node10 -->
<g id="edge9" class="edge">
<title>Node3&#45;&gt;Node10</title>
<path fill="none" stroke="#63b8ff" d="M668.51,-118.04C563.04,-116.41 303.74,-109.03 77.9,-74.05"/>
<polygon fill="#63b8ff" stroke="#63b8ff" points="78.75,-70.64 68.32,-72.55 77.66,-77.56 78.75,-70.64"/>
</g>
<!-- Node11 -->
<g id="node11" class="node">
<title>Node11</title>
<g id="a_node11"><a xlink:title=" ">
<polygon fill="#e0e0e0" stroke="#999999" points="126.18,-74 85.18,-74 85.18,-55 126.18,-55 126.18,-74"/>
<text text-anchor="middle" x="105.68" y="-62" font-family="Helvetica,sans-Serif" font-size="10.00">string</text>
</a>
</g>
</g>
<!-- Node3&#45;&gt;Node11 -->
<g id="edge10" class="edge">
<title>Node3&#45;&gt;Node11</title>
<path fill="none" stroke="#63b8ff" d="M668.2,-117.39C568.73,-114.53 334.58,-104.83 140.68,-74 139.68,-73.84 138.67,-73.67 137.64,-73.48"/>
<polygon fill="#63b8ff" stroke="#63b8ff" points="138.65,-70.12 128.15,-71.49 137.21,-76.97 138.65,-70.12"/>
</g>
<!-- Node12 -->
<g id="node12" class="node">
<title>Node12</title>
<g id="a_node12"><a xlink:title=" ">
<polygon fill="#e0e0e0" stroke="#999999" points="232.68,-74 182.68,-74 182.68,-55 232.68,-55 232.68,-74"/>
<text text-anchor="middle" x="207.68" y="-62" font-family="Helvetica,sans-Serif" font-size="10.00">unistd.h</text>
</a>
</g>
</g>
<!-- Node3&#45;&gt;Node12 -->
<g id="edge11" class="edge">
<title>Node3&#45;&gt;Node12</title>
<path fill="none" stroke="#63b8ff" d="M668.27,-116.27C584.11,-111.89 405.22,-100.37 243.91,-73.91"/>
<polygon fill="#63b8ff" stroke="#63b8ff" points="244.76,-70.51 234.32,-72.32 243.61,-77.41 244.76,-70.51"/>
</g>
<!-- Node13 -->
<g id="node13" class="node">
<title>Node13</title>
<g id="a_node13"><a xlink:title=" ">
<polygon fill="#e0e0e0" stroke="#999999" points="316.18,-74 251.18,-74 251.18,-55 316.18,-55 316.18,-74"/>
<text text-anchor="middle" x="283.68" y="-62" font-family="Helvetica,sans-Serif" font-size="10.00">sys/types.h</text>
</a>
</g>
</g>
<!-- Node3&#45;&gt;Node13 -->
<g id="edge12" class="edge">
<title>Node3&#45;&gt;Node13</title>
<path fill="none" stroke="#63b8ff" d="M668.34,-114.35C596.41,-107.88 456.7,-94.19 327.88,-74.21"/>
<polygon fill="#63b8ff" stroke="#63b8ff" points="328.56,-70.78 318.14,-72.69 327.48,-77.69 328.56,-70.78"/>
</g>
<!-- Node14 -->
<g id="node14" class="node">
<title>Node14</title>
<g id="a_node14"><a xlink:title=" ">
<polygon fill="#e0e0e0" stroke="#999999" points="1673.68,-19 1629.68,-19 1629.68,0 1673.68,0 1673.68,-19"/>
<text text-anchor="middle" x="1651.68" y="-7" font-family="Helvetica,sans-Serif" font-size="10.00">vector</text>
</a>
</g>
</g>
<!-- Node3&#45;&gt;Node14 -->
<g id="edge13" class="edge">
<title>Node3&#45;&gt;Node14</title>
<path fill="none" stroke="#63b8ff" d="M765.02,-117.4C932.2,-113.4 1479.74,-98.53 1554.68,-74 1585.14,-64.03 1615.24,-41.89 1633.64,-26.58"/>
<polygon fill="#63b8ff" stroke="#63b8ff" points="1635.67,-29.45 1640.98,-20.29 1631.11,-24.14 1635.67,-29.45"/>
</g>
<!-- Node15 -->
<g id="node15" class="node">
<title>Node15</title>
<g id="a_node15"><a xlink:title=" ">
<polygon fill="#e0e0e0" stroke="#999999" points="532.68,-74 474.68,-74 474.68,-55 532.68,-55 532.68,-74"/>
<text text-anchor="middle" x="503.68" y="-62" font-family="Helvetica,sans-Serif" font-size="10.00">exception</text>
</a>
</g>
</g>
<!-- Node3&#45;&gt;Node15 -->
<g id="edge14" class="edge">
<title>Node3&#45;&gt;Node15</title>
<path fill="none" stroke="#63b8ff" d="M680.55,-109.51C642.74,-100.1 583.51,-85.36 544.15,-75.57"/>
<polygon fill="#63b8ff" stroke="#63b8ff" points="545.13,-72.21 534.59,-73.19 543.44,-79 545.13,-72.21"/>
</g>
<!-- Node16 -->
<g id="node16" class="node">
<title>Node16</title>
<g id="a_node16"><a xlink:href="Window_8hpp.html" target="_top" xlink:title=" ">
<polygon fill="white" stroke="#666666" points="652.18,-74 551.18,-74 551.18,-55 652.18,-55 652.18,-74"/>
<text text-anchor="middle" x="601.68" y="-62" font-family="Helvetica,sans-Serif" font-size="10.00">Engine/Window.hpp</text>
</a>
</g>
</g>
<!-- Node3&#45;&gt;Node16 -->
<g id="edge15" class="edge">
<title>Node3&#45;&gt;Node16</title>
<path fill="none" stroke="#63b8ff" d="M691.95,-109.51C672.36,-101.27 645.36,-88.96 625.91,-79.45"/>
<polygon fill="#63b8ff" stroke="#63b8ff" points="627.58,-76.36 617.06,-75.03 624.45,-82.63 627.58,-76.36"/>
</g>
<!-- Node17 -->
<g id="node17" class="node">
<title>Node17</title>
<g id="a_node17"><a xlink:href="Event_8hpp.html" target="_top" xlink:title=" ">
<polygon fill="white" stroke="#666666" points="762.68,-74 670.68,-74 670.68,-55 762.68,-55 762.68,-74"/>
<text text-anchor="middle" x="716.68" y="-62" font-family="Helvetica,sans-Serif" font-size="10.00">Engine/Event.hpp</text>
</a>
</g>
</g>
<!-- Node3&#45;&gt;Node17 -->
<g id="edge17" class="edge">
<title>Node3&#45;&gt;Node17</title>
<path fill="none" stroke="#63b8ff" d="M711.51,-109.75C710.1,-103.19 709.63,-93.95 710.11,-85.6"/>
<polygon fill="#63b8ff" stroke="#63b8ff" points="713.55,-86.3 711.29,-75.94 706.6,-85.45 713.55,-86.3"/>
</g>
<!-- Node20 -->
<g id="node20" class="node">
<title>Node20</title>
<g id="a_node20"><a xlink:href="Bullets_8hpp.html" target="_top" xlink:title=" ">
<polygon fill="white" stroke="#666666" points="456.68,-74 334.68,-74 334.68,-55 456.68,-55 456.68,-74"/>
<text text-anchor="middle" x="395.68" y="-62" font-family="Helvetica,sans-Serif" font-size="10.00">Components/Bullets.hpp</text>
</a>
</g>
</g>
<!-- Node3&#45;&gt;Node20 -->
<g id="edge22" class="edge">
<title>Node3&#45;&gt;Node20</title>
<path fill="none" stroke="#63b8ff" d="M668.25,-111.3C611.4,-102.29 517.26,-86.79 455.8,-76.35"/>
<polygon fill="#63b8ff" stroke="#63b8ff" points="456.66,-72.94 446.22,-74.71 455.49,-79.84 456.66,-72.94"/>
</g>
<!-- Node23 -->
<g id="node23" class="node">
<title>Node23</title>
<g id="a_node23"><a xlink:href="Background_8hpp.html" target="_top" xlink:title=" ">
<polygon fill="white" stroke="#666666" points="962.68,-74 818.68,-74 818.68,-55 962.68,-55 962.68,-74"/>
<text text-anchor="middle" x="890.68" y="-62" font-family="Helvetica,sans-Serif" font-size="10.00">Components/Background.hpp</text>
</a>
</g>
</g>
<!-- Node3&#45;&gt;Node23 -->
<g id="edge27" class="edge">
<title>Node3&#45;&gt;Node23</title>
<path fill="none" stroke="#63b8ff" d="M740.98,-109.51C767.97,-100.73 811.87,-87.3 845.23,-77.59"/>
<polygon fill="#63b8ff" stroke="#63b8ff" points="846.01,-81 854.65,-74.87 844.07,-74.28 846.01,-81"/>
</g>
<!-- Node16&#45;&gt;Node3 -->
<g id="edge16" class="edge">
<title>Node16&#45;&gt;Node3</title>
<path fill="none" stroke="#63b8ff" d="M626.09,-74.36C645.6,-82.55 672.6,-94.86 692.13,-104.4"/>
<polygon fill="#63b8ff" stroke="#63b8ff" points="690.52,-107.51 701.03,-108.83 693.64,-101.24 690.52,-107.51"/>
</g>
<!-- Node17&#45;&gt;Node3 -->
<g id="edge18" class="edge">
<title>Node17&#45;&gt;Node3</title>
<path fill="none" stroke="#63b8ff" d="M721.89,-74.44C723.26,-80.97 723.72,-90.1 723.25,-98.35"/>
<polygon fill="#63b8ff" stroke="#63b8ff" points="719.78,-97.89 722.03,-108.25 726.73,-98.75 719.78,-97.89"/>
</g>
<!-- Node18 -->
<g id="node18" class="node">
<title>Node18</title>
<g id="a_node18"><a xlink:title=" ">
<polygon fill="#e0e0e0" stroke="#999999" points="758.18,-19 729.18,-19 729.18,0 758.18,0 758.18,-19"/>
<text text-anchor="middle" x="743.68" y="-7" font-family="Helvetica,sans-Serif" font-size="10.00">list</text>
</a>
</g>
</g>
<!-- Node17&#45;&gt;Node18 -->
<g id="edge19" class="edge">
<title>Node17&#45;&gt;Node18</title>
<path fill="none" stroke="#63b8ff" d="M721.14,-54.75C724.63,-47.88 729.63,-38.08 734.03,-29.45"/>
<polygon fill="#63b8ff" stroke="#63b8ff" points="737.02,-31.29 738.44,-20.79 730.78,-28.11 737.02,-31.29"/>
</g>
<!-- Node19 -->
<g id="node19" class="node">
<title>Node19</title>
<g id="a_node19"><a xlink:title=" ">
<polygon fill="#e0e0e0" stroke="#999999" points="711.18,-19 668.18,-19 668.18,0 711.18,0 711.18,-19"/>
<text text-anchor="middle" x="689.68" y="-7" font-family="Helvetica,sans-Serif" font-size="10.00">queue</text>
</a>
</g>
</g>
<!-- Node17&#45;&gt;Node19 -->
<g id="edge20" class="edge">
<title>Node17&#45;&gt;Node19</title>
<path fill="none" stroke="#63b8ff" d="M712.22,-54.75C708.72,-47.88 703.73,-38.08 699.33,-29.45"/>
<polygon fill="#63b8ff" stroke="#63b8ff" points="702.58,-28.11 694.92,-20.79 696.34,-31.29 702.58,-28.11"/>
</g>
<!-- Node20&#45;&gt;Node3 -->
<g id="edge23" class="edge">
<title>Node20&#45;&gt;Node3</title>
<path fill="none" stroke="#63b8ff" d="M455.19,-74.47C512.88,-83.67 599.76,-98 657.38,-107.79"/>
<polygon fill="#63b8ff" stroke="#63b8ff" points="656.55,-111.2 667,-109.43 657.73,-104.3 656.55,-111.2"/>
</g>
<!-- Node20&#45;&gt;Node21 -->
<g id="edge24" class="edge">
<title>Node20&#45;&gt;Node21</title>
<path fill="none" stroke="#63b8ff" d="M354.8,-54.51C313.9,-45.52 250.87,-31.65 206.5,-21.9"/>
<polygon fill="#63b8ff" stroke="#63b8ff" points="207.36,-18.5 196.84,-19.77 205.85,-25.34 207.36,-18.5"/>
</g>
<!-- Node22 -->
<g id="node22" class="node">
<title>Node22</title>
<g id="a_node22"><a xlink:title=" ">
<polygon fill="#e0e0e0" stroke="#999999" points="418.68,-19 372.68,-19 372.68,0 418.68,0 418.68,-19"/>
<text text-anchor="middle" x="395.68" y="-7" font-family="Helvetica,sans-Serif" font-size="10.00">math.h</text>
</a>
</g>
</g>
<!-- Node20&#45;&gt;Node22 -->
<g id="edge26" class="edge">
<title>Node20&#45;&gt;Node22</title>
<path fill="none" stroke="#63b8ff" d="M395.68,-54.75C395.68,-48.27 395.68,-39.16 395.68,-30.9"/>
<polygon fill="#63b8ff" stroke="#63b8ff" points="399.18,-30.96 395.68,-20.96 392.18,-30.96 399.18,-30.96"/>
</g>
<!-- Node21&#45;&gt;Node3 -->
<g id="edge25" class="edge">
<title>Node21&#45;&gt;Node3</title>
<path fill="none" stroke="#63b8ff" d="M154.43,-19.12C154.55,-33.11 157.05,-60.53 173.68,-74 210.59,-103.9 523.96,-114.28 657.16,-117.36"/>
<polygon fill="#63b8ff" stroke="#63b8ff" points="656.75,-120.85 666.82,-117.58 656.91,-113.85 656.75,-120.85"/>
</g>
<!-- Node23&#45;&gt;Node3 -->
<g id="edge28" class="edge">
<title>Node23&#45;&gt;Node3</title>
<path fill="none" stroke="#63b8ff" d="M866.52,-74.45C839.58,-83.21 795.69,-96.64 762.3,-106.36"/>
<polygon fill="#63b8ff" stroke="#63b8ff" points="761.5,-102.95 752.87,-109.09 763.44,-109.68 761.5,-102.95"/>
</g>
<!-- Node24&#45;&gt;Node9 -->
<g id="edge31" class="edge">
<title>Node24&#45;&gt;Node9</title>
<path fill="none" stroke="#63b8ff" d="M1679.25,-109.66C1662.2,-91.78 1623.35,-51.05 1601.11,-27.73"/>
<polygon fill="#63b8ff" stroke="#63b8ff" points="1603.7,-25.38 1594.27,-20.56 1598.64,-30.21 1603.7,-25.38"/>
</g>
<!-- Node24&#45;&gt;Node14 -->
<g id="edge34" class="edge">
<title>Node24&#45;&gt;Node14</title>
<path fill="none" stroke="#63b8ff" d="M1684.73,-109.66C1678.98,-92.42 1666.15,-53.9 1658.27,-30.27"/>
<polygon fill="#63b8ff" stroke="#63b8ff" points="1661.63,-29.28 1655.14,-20.9 1654.99,-31.49 1661.63,-29.28"/>
</g>
<!-- Node25 -->
<g id="node25" class="node">
<title>Node25</title>
<g id="a_node25"><a xlink:title=" ">
<polygon fill="#e0e0e0" stroke="#999999" points="1764.68,-19 1708.68,-19 1708.68,0 1764.68,0 1764.68,-19"/>
<text text-anchor="middle" x="1736.68" y="-7" font-family="Helvetica,sans-Serif" font-size="10.00">algorithm</text>
</a>
</g>
</g>
<!-- Node24&#45;&gt;Node25 -->
<g id="edge32" class="edge">
<title>Node24&#45;&gt;Node25</title>
<path fill="none" stroke="#63b8ff" d="M1689.46,-109.56C1692.15,-96.98 1697.92,-73.51 1706.68,-55 1711.06,-45.75 1717.2,-36.24 1722.79,-28.4"/>
<polygon fill="#63b8ff" stroke="#63b8ff" points="1725.56,-30.55 1728.72,-20.44 1719.94,-26.37 1725.56,-30.55"/>
</g>
<!-- Node26 -->
<g id="node26" class="node">
<title>Node26</title>
<g id="a_node26"><a xlink:title=" ">
<polygon fill="#e0e0e0" stroke="#999999" points="1828.68,-19 1790.68,-19 1790.68,0 1828.68,0 1828.68,-19"/>
<text text-anchor="middle" x="1809.68" y="-7" font-family="Helvetica,sans-Serif" font-size="10.00">array</text>
</a>
</g>
</g>
<!-- Node24&#45;&gt;Node26 -->
<g id="edge33" class="edge">
<title>Node24&#45;&gt;Node26</title>
<path fill="none" stroke="#63b8ff" d="M1743.58,-113.9C1770.31,-108.56 1800.04,-97.34 1816.68,-74 1825.74,-61.29 1822.72,-43.36 1818.17,-29.79"/>
<polygon fill="#63b8ff" stroke="#63b8ff" points="1821.49,-28.68 1814.58,-20.64 1814.97,-31.23 1821.49,-28.68"/>
</g>
<!-- Node27 -->
<g id="node27" class="node">
<title>Node27</title>
<g id="a_node27"><a xlink:title=" ">
<polygon fill="#e0e0e0" stroke="#999999" points="1890.18,-19 1851.18,-19 1851.18,0 1890.18,0 1890.18,-19"/>
<text text-anchor="middle" x="1870.68" y="-7" font-family="Helvetica,sans-Serif" font-size="10.00">utility</text>
</a>
</g>
</g>
<!-- Node24&#45;&gt;Node27 -->
<g id="edge35" class="edge">
<title>Node24&#45;&gt;Node27</title>
<path fill="none" stroke="#63b8ff" d="M1743.43,-111.2C1772.43,-105.12 1807.08,-94.06 1832.68,-74 1847.22,-62.61 1857.41,-43.99 1863.55,-29.85"/>
<polygon fill="#63b8ff" stroke="#63b8ff" points="1866.75,-31.27 1867.21,-20.69 1860.25,-28.68 1866.75,-31.27"/>
</g>
<!-- Node28 -->
<g id="node28" class="node">
<title>Node28</title>
<g id="a_node28"><a xlink:href="Vectors_8hpp.html" target="_top" xlink:title=" ">
<polygon fill="white" stroke="#666666" points="1807.68,-74 1715.68,-74 1715.68,-55 1807.68,-55 1807.68,-74"/>
<text text-anchor="middle" x="1761.68" y="-62" font-family="Helvetica,sans-Serif" font-size="10.00">Utils/Vectors.hpp</text>
</a>
</g>
</g>
<!-- Node24&#45;&gt;Node28 -->
<g id="edge36" class="edge">
<title>Node24&#45;&gt;Node28</title>
<path fill="none" stroke="#63b8ff" d="M1700.23,-109.51C1711.14,-101.7 1727.18,-90.21 1740.14,-80.93"/>
<polygon fill="#63b8ff" stroke="#63b8ff" points="1741.99,-83.91 1748.08,-75.24 1737.91,-78.22 1741.99,-83.91"/>
</g>
<!-- Node28&#45;&gt;Node9 -->
<g id="edge37" class="edge">
<title>Node28&#45;&gt;Node9</title>
<path fill="none" stroke="#63b8ff" d="M1731.65,-54.51C1701.66,-45.53 1655.43,-31.69 1622.85,-21.93"/>
<polygon fill="#63b8ff" stroke="#63b8ff" points="1623.97,-18.61 1613.39,-19.1 1621.97,-25.32 1623.97,-18.61"/>
</g>
<!-- Node28&#45;&gt;Node14 -->
<g id="edge40" class="edge">
<title>Node28&#45;&gt;Node14</title>
<path fill="none" stroke="#63b8ff" d="M1743.02,-54.51C1725.85,-46.24 1700.12,-33.84 1680.35,-24.31"/>
<polygon fill="#63b8ff" stroke="#63b8ff" points="1681.95,-21.2 1671.43,-20.01 1678.92,-27.51 1681.95,-21.2"/>
</g>
<!-- Node28&#45;&gt;Node25 -->
<g id="edge38" class="edge">
<title>Node28&#45;&gt;Node25</title>
<path fill="none" stroke="#63b8ff" d="M1757.55,-54.75C1754.35,-47.96 1749.79,-38.3 1745.75,-29.73"/>
<polygon fill="#63b8ff" stroke="#63b8ff" points="1748.97,-28.36 1741.54,-20.81 1742.64,-31.35 1748.97,-28.36"/>
</g>
<!-- Node28&#45;&gt;Node26 -->
<g id="edge39" class="edge">
<title>Node28&#45;&gt;Node26</title>
<path fill="none" stroke="#63b8ff" d="M1769.6,-54.75C1776.23,-47.43 1785.89,-36.76 1794.07,-27.74"/>
<polygon fill="#63b8ff" stroke="#63b8ff" points="1796.45,-30.33 1800.56,-20.56 1791.26,-25.63 1796.45,-30.33"/>
</g>
<!-- Node28&#45;&gt;Node27 -->
<g id="edge41" class="edge">
<title>Node28&#45;&gt;Node27</title>
<path fill="none" stroke="#63b8ff" d="M1780.17,-54.51C1797.18,-46.24 1822.67,-33.84 1842.27,-24.31"/>
<polygon fill="#63b8ff" stroke="#63b8ff" points="1843.64,-27.54 1851.1,-20.02 1840.58,-21.25 1843.64,-27.54"/>
</g>
</g>
</svg>
        <g id="navigator" transform="translate(0 0)" fill="#404254">
                <rect fill="#f2f5e9" fill-opacity="0.5" stroke="#606060" stroke-width=".5" x="0" y="0" width="60" height="60"/>
                <use id="zoomplus" xlink:href="#zoomPlus" x="17" y="9" onmousedown="handleZoom(evt,'in')"/>
                <use id="zoomminus" xlink:href="#zoomMin" x="42" y="9" onmousedown="handleZoom(evt,'out')"/>
                <use id="reset" xlink:href="#resetDef" x="30" y="36" onmousedown="handleReset()"/>
                <g id="arrowUp" xlink:href="#dirArrow" transform="translate(30 24)" onmousedown="handlePan(0,-1)">
                  <use xlink:href="#rim" fill="#404040">
                        <set attributeName="fill" to="#808080" begin="arrowUp.mouseover" end="arrowUp.mouseout"/>
                  </use>
                  <path fill="none" stroke="white" stroke-width="1.5" d="M0,-3.0v7 M-2.5,-0.5L0,-3.0L2.5,-0.5"/>
                </g>
                <g id="arrowRight" xlink:href="#dirArrow" transform="rotate(90) translate(36 -43)" onmousedown="handlePan(1,0)">
                  <use xlink:href="#rim" fill="#404040">
                        <set attributeName="fill" to="#808080" begin="arrowRight.mouseover" end="arrowRight.mouseout"/>
                  </use>
                  <path fill="none" stroke="white" stroke-width="1.5" d="M0,-3.0v7 M-2.5,-0.5L0,-3.0L2.5,-0.5"/>
                </g>
                <g id="arrowDown" xlink:href="#dirArrow" transform="rotate(180) translate(-30 -48)" onmousedown="handlePan(0,1)">
                  <use xlink:href="#rim" fill="#404040">
                        <set attributeName="fill" to="#808080" begin="arrowDown.mouseover" end="arrowDown.mouseout"/>
                  </use>
                  <path fill="none" stroke="white" stroke-width="1.5" d="M0,-3.0v7 M-2.5,-0.5L0,-3.0L2.5,-0.5"/>
                </g>
                <g id="arrowLeft" xlink:href="#dirArrow" transform="rotate(270) translate(-36 17)" onmousedown="handlePan(-1,0)">
                  <use xlink:href="#rim" fill="#404040">
                        <set attributeName="fill" to="#808080" begin="arrowLeft.mouseover" end="arrowLeft.mouseout"/>
                  </use>
                  <path fill="none" stroke="white" stroke-width="1.5" d="M0,-3.0v7 M-2.5,-0.5L0,-3.0L2.5,-0.5"/>
                </g>
        </g>
        <svg viewBox="0 0 15 15" width="100%" height="30px" preserveAspectRatio="xMaxYMin meet">
         <g id="arrow_out" transform="scale(0.3 0.3)">
          <a xlink:href="EntitiesManager_8cpp__incl_org.svg" target="_base">
           <rect id="button" ry="5" rx="5" y="6" x="6" height="38" width="38"
                fill="#f2f5e9" fill-opacity="0.5" stroke="#606060" stroke-width="1.0"/>
           <path id="arrow"
             d="M 11.500037,31.436501 C 11.940474,20.09759 22.043105,11.32322 32.158766,21.979434 L 37.068811,17.246167 C 37.068811,17.246167 37.088388,32 37.088388,32 L 22.160133,31.978069 C 22.160133,31.978069 26.997745,27.140456 26.997745,27.140456 C 18.528582,18.264221 13.291696,25.230495 11.500037,31.436501 z"
             style="fill:#404040;"/>
          </a>
         </g>
        </svg>
</svg>
