<?xml version="1.0" encoding="UTF-8" standalone="no"?>
<!DOCTYPE svg PUBLIC "-//W3C//DTD SVG 1.1//EN"
 "http://www.w3.org/Graphics/SVG/1.1/DTD/svg11.dtd">
<!-- Generated by graphviz version 7.0.5 (20221223.1930)
 -->
<!-- Title: /github/workspace/client/include/Entities/EntitiesManager.hpp Pages: 1 -->
<svg width="1898pt" height="203pt"
 viewBox="0.00 0.00 1898.13 203.00" xmlns="http://www.w3.org/2000/svg" xmlns:xlink="http://www.w3.org/1999/xlink">
<g id="graph0" class="graph" transform="scale(1 1) rotate(0) translate(4 199)">
<title>/github/workspace/client/include/Entities/EntitiesManager.hpp</title>
<!-- Node1 -->
<g id="node1" class="node">
<title>Node1</title>
<g id="a_node1"><a xlink:title=" ">
<polygon fill="#999999" stroke="#666666" points="804.63,-195 628.63,-195 628.63,-165 804.63,-165 804.63,-195"/>
<text text-anchor="start" x="636.63" y="-183" font-family="Helvetica,sans-Serif" font-size="10.00">/github/workspace/client</text>
<text text-anchor="middle" x="716.63" y="-172" font-family="Helvetica,sans-Serif" font-size="10.00">/include/Entities/EntitiesManager.hpp</text>
</a>
</g>
</g>
<!-- Node2 -->
<g id="node2" class="node">
<title>Node2</title>
<g id="a_node2"><a xlink:href="Engine_8hpp.html" target="_top" xlink:title=" ">
<polygon fill="white" stroke="#666666" points="764.63,-129 668.63,-129 668.63,-110 764.63,-110 764.63,-129"/>
<text text-anchor="middle" x="716.63" y="-117" font-family="Helvetica,sans-Serif" font-size="10.00">Engine/Engine.hpp</text>
</a>
</g>
</g>
<!-- Node1&#45;&gt;Node2 -->
<g id="edge1" class="edge">
<title>Node1&#45;&gt;Node2</title>
<path fill="none" stroke="#63b8ff" d="M710.71,-164.54C709.81,-157.26 709.64,-148.31 710.19,-140.39"/>
<polygon fill="#63b8ff" stroke="#63b8ff" points="713.64,-141.05 711.47,-130.68 706.7,-140.14 713.64,-141.05"/>
</g>
<!-- Node20 -->
<g id="node20" class="node">
<title>Node20</title>
<g id="a_node20"><a xlink:href="IComponents_8hpp.html" target="_top" xlink:title=" ">
<polygon fill="white" stroke="#666666" points="200.63,-19 108.63,-19 108.63,0 200.63,0 200.63,-19"/>
<text text-anchor="middle" x="154.63" y="-7" font-family="Helvetica,sans-Serif" font-size="10.00">IComponents.hpp</text>
</a>
</g>
</g>
<!-- Node1&#45;&gt;Node20 -->
<g id="edge28" class="edge">
<title>Node1&#45;&gt;Node20</title>
<path fill="none" stroke="#63b8ff" d="M628.21,-179.6C456.29,-178.68 86.83,-165.8 7.63,-74 -21.64,-40.08 44.21,-23.7 97.01,-16.22"/>
<polygon fill="#63b8ff" stroke="#63b8ff" points="97.43,-19.69 106.88,-14.91 96.51,-12.76 97.43,-19.69"/>
</g>
<!-- Node23 -->
<g id="node23" class="node">
<title>Node23</title>
<g id="a_node23"><a xlink:href="SparseArray_8hpp.html" target="_top" xlink:title=" ">
<polygon fill="white" stroke="#666666" points="1743.13,-129 1632.13,-129 1632.13,-110 1743.13,-110 1743.13,-129"/>
<text text-anchor="middle" x="1687.63" y="-117" font-family="Helvetica,sans-Serif" font-size="10.00">Utils/SparseArray.hpp</text>
</a>
</g>
</g>
<!-- Node1&#45;&gt;Node23 -->
<g id="edge29" class="edge">
<title>Node1&#45;&gt;Node23</title>
<path fill="none" stroke="#63b8ff" d="M804.94,-173.68C996.99,-162.11 1449.12,-134.87 1620.33,-124.55"/>
<polygon fill="#63b8ff" stroke="#63b8ff" points="1620.39,-128.06 1630.17,-123.96 1619.97,-121.07 1620.39,-128.06"/>
</g>
<!-- Node2&#45;&gt;Node1 -->
<g id="edge20" class="edge">
<title>Node2&#45;&gt;Node1</title>
<path fill="none" stroke="#63b8ff" d="M721.59,-129.18C722.97,-135.58 723.55,-144.65 723.33,-153.3"/>
<polygon fill="#63b8ff" stroke="#63b8ff" points="719.86,-152.81 722.65,-163.03 726.84,-153.3 719.86,-152.81"/>
</g>
<!-- Node3 -->
<g id="node3" class="node">
<title>Node3</title>
<g id="a_node3"><a xlink:title=" ">
<polygon fill="#e0e0e0" stroke="#999999" points="1070.13,-74 981.13,-74 981.13,-55 1070.13,-55 1070.13,-74"/>
<text text-anchor="middle" x="1025.63" y="-62" font-family="Helvetica,sans-Serif" font-size="10.00">SFML/Audio.hpp</text>
</a>
</g>
</g>
<!-- Node2&#45;&gt;Node3 -->
<g id="edge2" class="edge">
<title>Node2&#45;&gt;Node3</title>
<path fill="none" stroke="#63b8ff" d="M764.91,-110.22C820.28,-100.72 910.95,-85.17 969.44,-75.14"/>
<polygon fill="#63b8ff" stroke="#63b8ff" points="969.94,-78.6 979.2,-73.46 968.76,-71.7 969.94,-78.6"/>
</g>
<!-- Node4 -->
<g id="node4" class="node">
<title>Node4</title>
<g id="a_node4"><a xlink:title=" ">
<polygon fill="#e0e0e0" stroke="#999999" points="1192.63,-74 1088.63,-74 1088.63,-55 1192.63,-55 1192.63,-74"/>
<text text-anchor="middle" x="1140.63" y="-62" font-family="Helvetica,sans-Serif" font-size="10.00">SFML/Graphics.hpp</text>
</a>
</g>
</g>
<!-- Node2&#45;&gt;Node4 -->
<g id="edge3" class="edge">
<title>Node2&#45;&gt;Node4</title>
<path fill="none" stroke="#63b8ff" d="M765.1,-112.82C832.56,-104.85 958.88,-89.72 1076.99,-74.33"/>
<polygon fill="#63b8ff" stroke="#63b8ff" points="1077.43,-77.8 1086.89,-73.03 1076.52,-70.86 1077.43,-77.8"/>
</g>
<!-- Node5 -->
<g id="node5" class="node">
<title>Node5</title>
<g id="a_node5"><a xlink:title=" ">
<polygon fill="#e0e0e0" stroke="#999999" points="1312.13,-74 1211.13,-74 1211.13,-55 1312.13,-55 1312.13,-74"/>
<text text-anchor="middle" x="1261.63" y="-62" font-family="Helvetica,sans-Serif" font-size="10.00">SFML/Network.hpp</text>
</a>
</g>
</g>
<!-- Node2&#45;&gt;Node5 -->
<g id="edge4" class="edge">
<title>Node2&#45;&gt;Node5</title>
<path fill="none" stroke="#63b8ff" d="M764.89,-114.86C850.23,-108.26 1033.58,-93.3 1199.5,-74.19"/>
<polygon fill="#63b8ff" stroke="#63b8ff" points="1199.88,-77.67 1209.41,-73.04 1199.07,-70.71 1199.88,-77.67"/>
</g>
<!-- Node6 -->
<g id="node6" class="node">
<title>Node6</title>
<g id="a_node6"><a xlink:title=" ">
<polygon fill="#e0e0e0" stroke="#999999" points="1429.13,-74 1330.13,-74 1330.13,-55 1429.13,-55 1429.13,-74"/>
<text text-anchor="middle" x="1379.63" y="-62" font-family="Helvetica,sans-Serif" font-size="10.00">SFML/Window.hpp</text>
</a>
</g>
</g>
<!-- Node2&#45;&gt;Node6 -->
<g id="edge5" class="edge">
<title>Node2&#45;&gt;Node6</title>
<path fill="none" stroke="#63b8ff" d="M764.96,-116.13C865.86,-110.93 1106.47,-97.19 1318.33,-74.29"/>
<polygon fill="#63b8ff" stroke="#63b8ff" points="1318.6,-77.78 1328.16,-73.22 1317.84,-70.82 1318.6,-77.78"/>
</g>
<!-- Node7 -->
<g id="node7" class="node">
<title>Node7</title>
<g id="a_node7"><a xlink:title=" ">
<polygon fill="#e0e0e0" stroke="#999999" points="1545.63,-74 1447.63,-74 1447.63,-55 1545.63,-55 1545.63,-74"/>
<text text-anchor="middle" x="1496.63" y="-62" font-family="Helvetica,sans-Serif" font-size="10.00">SFML/System.hpp</text>
</a>
</g>
</g>
<!-- Node2&#45;&gt;Node7 -->
<g id="edge6" class="edge">
<title>Node2&#45;&gt;Node7</title>
<path fill="none" stroke="#63b8ff" d="M764.9,-116.93C879.5,-112.89 1177.09,-100.64 1436.16,-74.17"/>
<polygon fill="#63b8ff" stroke="#63b8ff" points="1436.21,-77.68 1445.8,-73.17 1435.49,-70.72 1436.21,-77.68"/>
</g>
<!-- Node8 -->
<g id="node8" class="node">
<title>Node8</title>
<g id="a_node8"><a xlink:title=" ">
<polygon fill="#e0e0e0" stroke="#999999" points="1611.63,-19 1557.63,-19 1557.63,0 1611.63,0 1611.63,-19"/>
<text text-anchor="middle" x="1584.63" y="-7" font-family="Helvetica,sans-Serif" font-size="10.00">iostream</text>
</a>
</g>
</g>
<!-- Node2&#45;&gt;Node8 -->
<g id="edge7" class="edge">
<title>Node2&#45;&gt;Node8</title>
<path fill="none" stroke="#63b8ff" d="M727.83,-109.71C748.43,-93.74 791.86,-61.05 809.63,-55 948.15,-7.83 1409.38,-8.66 1546.11,-10"/>
<polygon fill="#63b8ff" stroke="#63b8ff" points="1545.67,-13.5 1555.71,-10.11 1545.74,-6.5 1545.67,-13.5"/>
</g>
<!-- Node9 -->
<g id="node9" class="node">
<title>Node9</title>
<g id="a_node9"><a xlink:title=" ">
<polygon fill="#e0e0e0" stroke="#999999" points="66.63,-74 16.63,-74 16.63,-55 66.63,-55 66.63,-74"/>
<text text-anchor="middle" x="41.63" y="-62" font-family="Helvetica,sans-Serif" font-size="10.00">fstream</text>
</a>
</g>
</g>
<!-- Node2&#45;&gt;Node9 -->
<g id="edge8" class="edge">
<title>Node2&#45;&gt;Node9</title>
<path fill="none" stroke="#63b8ff" d="M668.46,-118.04C562.99,-116.41 303.69,-109.03 77.84,-74.05"/>
<polygon fill="#63b8ff" stroke="#63b8ff" points="78.69,-70.64 68.27,-72.55 77.61,-77.56 78.69,-70.64"/>
</g>
<!-- Node10 -->
<g id="node10" class="node">
<title>Node10</title>
<g id="a_node10"><a xlink:title=" ">
<polygon fill="#e0e0e0" stroke="#999999" points="126.13,-74 85.13,-74 85.13,-55 126.13,-55 126.13,-74"/>
<text text-anchor="middle" x="105.63" y="-62" font-family="Helvetica,sans-Serif" font-size="10.00">string</text>
</a>
</g>
</g>
<!-- Node2&#45;&gt;Node10 -->
<g id="edge9" class="edge">
<title>Node2&#45;&gt;Node10</title>
<path fill="none" stroke="#63b8ff" d="M668.15,-117.39C568.67,-114.53 334.52,-104.83 140.63,-74 139.63,-73.84 138.61,-73.67 137.59,-73.48"/>
<polygon fill="#63b8ff" stroke="#63b8ff" points="138.6,-70.12 128.1,-71.49 137.16,-76.97 138.6,-70.12"/>
</g>
<!-- Node11 -->
<g id="node11" class="node">
<title>Node11</title>
<g id="a_node11"><a xlink:title=" ">
<polygon fill="#e0e0e0" stroke="#999999" points="232.63,-74 182.63,-74 182.63,-55 232.63,-55 232.63,-74"/>
<text text-anchor="middle" x="207.63" y="-62" font-family="Helvetica,sans-Serif" font-size="10.00">unistd.h</text>
</a>
</g>
</g>
<!-- Node2&#45;&gt;Node11 -->
<g id="edge10" class="edge">
<title>Node2&#45;&gt;Node11</title>
<path fill="none" stroke="#63b8ff" d="M668.22,-116.27C584.05,-111.89 405.17,-100.37 243.86,-73.91"/>
<polygon fill="#63b8ff" stroke="#63b8ff" points="244.7,-70.51 234.26,-72.32 243.55,-77.41 244.7,-70.51"/>
</g>
<!-- Node12 -->
<g id="node12" class="node">
<title>Node12</title>
<g id="a_node12"><a xlink:title=" ">
<polygon fill="#e0e0e0" stroke="#999999" points="316.13,-74 251.13,-74 251.13,-55 316.13,-55 316.13,-74"/>
<text text-anchor="middle" x="283.63" y="-62" font-family="Helvetica,sans-Serif" font-size="10.00">sys/types.h</text>
</a>
</g>
</g>
<!-- Node2&#45;&gt;Node12 -->
<g id="edge11" class="edge">
<title>Node2&#45;&gt;Node12</title>
<path fill="none" stroke="#63b8ff" d="M668.29,-114.35C596.35,-107.88 456.65,-94.19 327.83,-74.21"/>
<polygon fill="#63b8ff" stroke="#63b8ff" points="328.51,-70.78 318.09,-72.69 327.42,-77.69 328.51,-70.78"/>
</g>
<!-- Node13 -->
<g id="node13" class="node">
<title>Node13</title>
<g id="a_node13"><a xlink:title=" ">
<polygon fill="#e0e0e0" stroke="#999999" points="1673.63,-19 1629.63,-19 1629.63,0 1673.63,0 1673.63,-19"/>
<text text-anchor="middle" x="1651.63" y="-7" font-family="Helvetica,sans-Serif" font-size="10.00">vector</text>
</a>
</g>
</g>
<!-- Node2&#45;&gt;Node13 -->
<g id="edge12" class="edge">
<title>Node2&#45;&gt;Node13</title>
<path fill="none" stroke="#63b8ff" d="M764.97,-117.4C932.15,-113.4 1479.68,-98.53 1554.63,-74 1585.09,-64.03 1615.19,-41.89 1633.59,-26.58"/>
<polygon fill="#63b8ff" stroke="#63b8ff" points="1635.62,-29.45 1640.93,-20.29 1631.06,-24.14 1635.62,-29.45"/>
</g>
<!-- Node14 -->
<g id="node14" class="node">
<title>Node14</title>
<g id="a_node14"><a xlink:title=" ">
<polygon fill="#e0e0e0" stroke="#999999" points="532.63,-74 474.63,-74 474.63,-55 532.63,-55 532.63,-74"/>
<text text-anchor="middle" x="503.63" y="-62" font-family="Helvetica,sans-Serif" font-size="10.00">exception</text>
</a>
</g>
</g>
<!-- Node2&#45;&gt;Node14 -->
<g id="edge13" class="edge">
<title>Node2&#45;&gt;Node14</title>
<path fill="none" stroke="#63b8ff" d="M680.49,-109.51C642.68,-100.1 583.46,-85.36 544.1,-75.57"/>
<polygon fill="#63b8ff" stroke="#63b8ff" points="545.08,-72.21 534.53,-73.19 543.39,-79 545.08,-72.21"/>
</g>
<!-- Node15 -->
<g id="node15" class="node">
<title>Node15</title>
<g id="a_node15"><a xlink:href="Window_8hpp.html" target="_top" xlink:title=" ">
<polygon fill="white" stroke="#666666" points="652.13,-74 551.13,-74 551.13,-55 652.13,-55 652.13,-74"/>
<text text-anchor="middle" x="601.63" y="-62" font-family="Helvetica,sans-Serif" font-size="10.00">Engine/Window.hpp</text>
</a>
</g>
</g>
<!-- Node2&#45;&gt;Node15 -->
<g id="edge14" class="edge">
<title>Node2&#45;&gt;Node15</title>
<path fill="none" stroke="#63b8ff" d="M691.9,-109.51C672.31,-101.27 645.31,-88.96 625.86,-79.45"/>
<polygon fill="#63b8ff" stroke="#63b8ff" points="627.52,-76.36 617.01,-75.03 624.4,-82.63 627.52,-76.36"/>
</g>
<!-- Node16 -->
<g id="node16" class="node">
<title>Node16</title>
<g id="a_node16"><a xlink:href="Event_8hpp.html" target="_top" xlink:title=" ">
<polygon fill="white" stroke="#666666" points="762.63,-74 670.63,-74 670.63,-55 762.63,-55 762.63,-74"/>
<text text-anchor="middle" x="716.63" y="-62" font-family="Helvetica,sans-Serif" font-size="10.00">Engine/Event.hpp</text>
</a>
</g>
</g>
<!-- Node2&#45;&gt;Node16 -->
<g id="edge16" class="edge">
<title>Node2&#45;&gt;Node16</title>
<path fill="none" stroke="#63b8ff" d="M711.46,-109.75C710.05,-103.19 709.58,-93.95 710.05,-85.6"/>
<polygon fill="#63b8ff" stroke="#63b8ff" points="713.5,-86.3 711.24,-75.94 706.55,-85.45 713.5,-86.3"/>
</g>
<!-- Node19 -->
<g id="node19" class="node">
<title>Node19</title>
<g id="a_node19"><a xlink:href="Bullets_8hpp.html" target="_top" xlink:title=" ">
<polygon fill="white" stroke="#666666" points="456.63,-74 334.63,-74 334.63,-55 456.63,-55 456.63,-74"/>
<text text-anchor="middle" x="395.63" y="-62" font-family="Helvetica,sans-Serif" font-size="10.00">Components/Bullets.hpp</text>
</a>
</g>
</g>
<!-- Node2&#45;&gt;Node19 -->
<g id="edge21" class="edge">
<title>Node2&#45;&gt;Node19</title>
<path fill="none" stroke="#63b8ff" d="M668.2,-111.3C611.34,-102.29 517.21,-86.79 455.75,-76.35"/>
<polygon fill="#63b8ff" stroke="#63b8ff" points="456.61,-72.94 446.16,-74.71 455.43,-79.84 456.61,-72.94"/>
</g>
<!-- Node22 -->
<g id="node22" class="node">
<title>Node22</title>
<g id="a_node22"><a xlink:href="Background_8hpp.html" target="_top" xlink:title=" ">
<polygon fill="white" stroke="#666666" points="962.63,-74 818.63,-74 818.63,-55 962.63,-55 962.63,-74"/>
<text text-anchor="middle" x="890.63" y="-62" font-family="Helvetica,sans-Serif" font-size="10.00">Components/Background.hpp</text>
</a>
</g>
</g>
<!-- Node2&#45;&gt;Node22 -->
<g id="edge26" class="edge">
<title>Node2&#45;&gt;Node22</title>
<path fill="none" stroke="#63b8ff" d="M740.93,-109.51C767.92,-100.73 811.82,-87.3 845.18,-77.59"/>
<polygon fill="#63b8ff" stroke="#63b8ff" points="845.96,-81 854.59,-74.87 844.02,-74.28 845.96,-81"/>
</g>
<!-- Node15&#45;&gt;Node2 -->
<g id="edge15" class="edge">
<title>Node15&#45;&gt;Node2</title>
<path fill="none" stroke="#63b8ff" d="M626.04,-74.36C645.55,-82.55 672.54,-94.86 692.08,-104.4"/>
<polygon fill="#63b8ff" stroke="#63b8ff" points="690.47,-107.51 700.98,-108.83 693.59,-101.24 690.47,-107.51"/>
</g>
<!-- Node16&#45;&gt;Node2 -->
<g id="edge17" class="edge">
<title>Node16&#45;&gt;Node2</title>
<path fill="none" stroke="#63b8ff" d="M721.83,-74.44C723.21,-80.97 723.66,-90.1 723.2,-98.35"/>
<polygon fill="#63b8ff" stroke="#63b8ff" points="719.73,-97.89 721.98,-108.25 726.68,-98.75 719.73,-97.89"/>
</g>
<!-- Node17 -->
<g id="node17" class="node">
<title>Node17</title>
<g id="a_node17"><a xlink:title=" ">
<polygon fill="#e0e0e0" stroke="#999999" points="758.13,-19 729.13,-19 729.13,0 758.13,0 758.13,-19"/>
<text text-anchor="middle" x="743.63" y="-7" font-family="Helvetica,sans-Serif" font-size="10.00">list</text>
</a>
</g>
</g>
<!-- Node16&#45;&gt;Node17 -->
<g id="edge18" class="edge">
<title>Node16&#45;&gt;Node17</title>
<path fill="none" stroke="#63b8ff" d="M721.08,-54.75C724.58,-47.88 729.58,-38.08 733.97,-29.45"/>
<polygon fill="#63b8ff" stroke="#63b8ff" points="736.96,-31.29 738.38,-20.79 730.73,-28.11 736.96,-31.29"/>
</g>
<!-- Node18 -->
<g id="node18" class="node">
<title>Node18</title>
<g id="a_node18"><a xlink:title=" ">
<polygon fill="#e0e0e0" stroke="#999999" points="711.13,-19 668.13,-19 668.13,0 711.13,0 711.13,-19"/>
<text text-anchor="middle" x="689.63" y="-7" font-family="Helvetica,sans-Serif" font-size="10.00">queue</text>
</a>
</g>
</g>
<!-- Node16&#45;&gt;Node18 -->
<g id="edge19" class="edge">
<title>Node16&#45;&gt;Node18</title>
<path fill="none" stroke="#63b8ff" d="M712.17,-54.75C708.67,-47.88 703.68,-38.08 699.28,-29.45"/>
<polygon fill="#63b8ff" stroke="#63b8ff" points="702.53,-28.11 694.87,-20.79 696.29,-31.29 702.53,-28.11"/>
</g>
<!-- Node19&#45;&gt;Node2 -->
<g id="edge22" class="edge">
<title>Node19&#45;&gt;Node2</title>
<path fill="none" stroke="#63b8ff" d="M455.14,-74.47C512.82,-83.67 599.71,-98 657.32,-107.79"/>
<polygon fill="#63b8ff" stroke="#63b8ff" points="656.5,-111.2 666.95,-109.43 657.68,-104.3 656.5,-111.2"/>
</g>
<!-- Node19&#45;&gt;Node20 -->
<g id="edge23" class="edge">
<title>Node19&#45;&gt;Node20</title>
<path fill="none" stroke="#63b8ff" d="M354.74,-54.51C313.85,-45.52 250.82,-31.65 206.44,-21.9"/>
<polygon fill="#63b8ff" stroke="#63b8ff" points="207.3,-18.5 196.78,-19.77 205.8,-25.34 207.3,-18.5"/>
</g>
<!-- Node21 -->
<g id="node21" class="node">
<title>Node21</title>
<g id="a_node21"><a xlink:title=" ">
<polygon fill="#e0e0e0" stroke="#999999" points="418.63,-19 372.63,-19 372.63,0 418.63,0 418.63,-19"/>
<text text-anchor="middle" x="395.63" y="-7" font-family="Helvetica,sans-Serif" font-size="10.00">math.h</text>
</a>
</g>
</g>
<!-- Node19&#45;&gt;Node21 -->
<g id="edge25" class="edge">
<title>Node19&#45;&gt;Node21</title>
<path fill="none" stroke="#63b8ff" d="M395.63,-54.75C395.63,-48.27 395.63,-39.16 395.63,-30.9"/>
<polygon fill="#63b8ff" stroke="#63b8ff" points="399.13,-30.96 395.63,-20.96 392.13,-30.96 399.13,-30.96"/>
</g>
<!-- Node20&#45;&gt;Node2 -->
<g id="edge24" class="edge">
<title>Node20&#45;&gt;Node2</title>
<path fill="none" stroke="#63b8ff" d="M154.38,-19.12C154.5,-33.11 157,-60.53 173.63,-74 210.54,-103.9 523.91,-114.28 657.11,-117.36"/>
<polygon fill="#63b8ff" stroke="#63b8ff" points="656.7,-120.85 666.77,-117.58 656.85,-113.85 656.7,-120.85"/>
</g>
<!-- Node22&#45;&gt;Node2 -->
<g id="edge27" class="edge">
<title>Node22&#45;&gt;Node2</title>
<path fill="none" stroke="#63b8ff" d="M866.46,-74.45C839.53,-83.21 795.64,-96.64 762.24,-106.36"/>
<polygon fill="#63b8ff" stroke="#63b8ff" points="761.45,-102.95 752.81,-109.09 763.39,-109.68 761.45,-102.95"/>
</g>
<!-- Node23&#45;&gt;Node8 -->
<g id="edge30" class="edge">
<title>Node23&#45;&gt;Node8</title>
<path fill="none" stroke="#63b8ff" d="M1679.2,-109.66C1662.15,-91.78 1623.3,-51.05 1601.06,-27.73"/>
<polygon fill="#63b8ff" stroke="#63b8ff" points="1603.65,-25.38 1594.22,-20.56 1598.58,-30.21 1603.65,-25.38"/>
</g>
<!-- Node23&#45;&gt;Node13 -->
<g id="edge33" class="edge">
<title>Node23&#45;&gt;Node13</title>
<path fill="none" stroke="#63b8ff" d="M1684.68,-109.66C1678.93,-92.42 1666.09,-53.9 1658.22,-30.27"/>
<polygon fill="#63b8ff" stroke="#63b8ff" points="1661.57,-29.28 1655.09,-20.9 1654.93,-31.49 1661.57,-29.28"/>
</g>
<!-- Node24 -->
<g id="node24" class="node">
<title>Node24</title>
<g id="a_node24"><a xlink:title=" ">
<polygon fill="#e0e0e0" stroke="#999999" points="1764.63,-19 1708.63,-19 1708.63,0 1764.63,0 1764.63,-19"/>
<text text-anchor="middle" x="1736.63" y="-7" font-family="Helvetica,sans-Serif" font-size="10.00">algorithm</text>
</a>
</g>
</g>
<!-- Node23&#45;&gt;Node24 -->
<g id="edge31" class="edge">
<title>Node23&#45;&gt;Node24</title>
<path fill="none" stroke="#63b8ff" d="M1689.4,-109.56C1692.1,-96.98 1697.87,-73.51 1706.63,-55 1711,-45.75 1717.15,-36.24 1722.74,-28.4"/>
<polygon fill="#63b8ff" stroke="#63b8ff" points="1725.51,-30.55 1728.67,-20.44 1719.89,-26.37 1725.51,-30.55"/>
</g>
<!-- Node25 -->
<g id="node25" class="node">
<title>Node25</title>
<g id="a_node25"><a xlink:title=" ">
<polygon fill="#e0e0e0" stroke="#999999" points="1828.63,-19 1790.63,-19 1790.63,0 1828.63,0 1828.63,-19"/>
<text text-anchor="middle" x="1809.63" y="-7" font-family="Helvetica,sans-Serif" font-size="10.00">array</text>
</a>
</g>
</g>
<!-- Node23&#45;&gt;Node25 -->
<g id="edge32" class="edge">
<title>Node23&#45;&gt;Node25</title>
<path fill="none" stroke="#63b8ff" d="M1743.53,-113.9C1770.26,-108.56 1799.99,-97.34 1816.63,-74 1825.69,-61.29 1822.67,-43.36 1818.11,-29.79"/>
<polygon fill="#63b8ff" stroke="#63b8ff" points="1821.44,-28.68 1814.53,-20.64 1814.92,-31.23 1821.44,-28.68"/>
</g>
<!-- Node26 -->
<g id="node26" class="node">
<title>Node26</title>
<g id="a_node26"><a xlink:title=" ">
<polygon fill="#e0e0e0" stroke="#999999" points="1890.13,-19 1851.13,-19 1851.13,0 1890.13,0 1890.13,-19"/>
<text text-anchor="middle" x="1870.63" y="-7" font-family="Helvetica,sans-Serif" font-size="10.00">utility</text>
</a>
</g>
</g>
<!-- Node23&#45;&gt;Node26 -->
<g id="edge34" class="edge">
<title>Node23&#45;&gt;Node26</title>
<path fill="none" stroke="#63b8ff" d="M1743.38,-111.2C1772.38,-105.12 1807.03,-94.06 1832.63,-74 1847.16,-62.61 1857.36,-43.99 1863.5,-29.85"/>
<polygon fill="#63b8ff" stroke="#63b8ff" points="1866.7,-31.27 1867.15,-20.69 1860.2,-28.68 1866.7,-31.27"/>
</g>
<!-- Node27 -->
<g id="node27" class="node">
<title>Node27</title>
<g id="a_node27"><a xlink:href="Vectors_8hpp.html" target="_top" xlink:title=" ">
<polygon fill="white" stroke="#666666" points="1807.63,-74 1715.63,-74 1715.63,-55 1807.63,-55 1807.63,-74"/>
<text text-anchor="middle" x="1761.63" y="-62" font-family="Helvetica,sans-Serif" font-size="10.00">Utils/Vectors.hpp</text>
</a>
</g>
</g>
<!-- Node23&#45;&gt;Node27 -->
<g id="edge35" class="edge">
<title>Node23&#45;&gt;Node27</title>
<path fill="none" stroke="#63b8ff" d="M1700.18,-109.51C1711.09,-101.7 1727.13,-90.21 1740.09,-80.93"/>
<polygon fill="#63b8ff" stroke="#63b8ff" points="1741.94,-83.91 1748.03,-75.24 1737.86,-78.22 1741.94,-83.91"/>
</g>
<!-- Node27&#45;&gt;Node8 -->
<g id="edge36" class="edge">
<title>Node27&#45;&gt;Node8</title>
<path fill="none" stroke="#63b8ff" d="M1731.6,-54.51C1701.6,-45.53 1655.38,-31.69 1622.8,-21.93"/>
<polygon fill="#63b8ff" stroke="#63b8ff" points="1623.92,-18.61 1613.34,-19.1 1621.91,-25.32 1623.92,-18.61"/>
</g>
<!-- Node27&#45;&gt;Node13 -->
<g id="edge39" class="edge">
<title>Node27&#45;&gt;Node13</title>
<path fill="none" stroke="#63b8ff" d="M1742.97,-54.51C1725.8,-46.24 1700.07,-33.84 1680.29,-24.31"/>
<polygon fill="#63b8ff" stroke="#63b8ff" points="1681.9,-21.2 1671.37,-20.01 1678.86,-27.51 1681.9,-21.2"/>
</g>
<!-- Node27&#45;&gt;Node24 -->
<g id="edge37" class="edge">
<title>Node27&#45;&gt;Node24</title>
<path fill="none" stroke="#63b8ff" d="M1757.5,-54.75C1754.3,-47.96 1749.74,-38.3 1745.7,-29.73"/>
<polygon fill="#63b8ff" stroke="#63b8ff" points="1748.92,-28.36 1741.49,-20.81 1742.59,-31.35 1748.92,-28.36"/>
</g>
<!-- Node27&#45;&gt;Node25 -->
<g id="edge38" class="edge">
<title>Node27&#45;&gt;Node25</title>
<path fill="none" stroke="#63b8ff" d="M1769.55,-54.75C1776.18,-47.43 1785.84,-36.76 1794.02,-27.74"/>
<polygon fill="#63b8ff" stroke="#63b8ff" points="1796.39,-30.33 1800.51,-20.56 1791.2,-25.63 1796.39,-30.33"/>
</g>
<!-- Node27&#45;&gt;Node26 -->
<g id="edge40" class="edge">
<title>Node27&#45;&gt;Node26</title>
<path fill="none" stroke="#63b8ff" d="M1780.12,-54.51C1797.13,-46.24 1822.62,-33.84 1842.22,-24.31"/>
<polygon fill="#63b8ff" stroke="#63b8ff" points="1843.59,-27.54 1851.05,-20.02 1840.52,-21.25 1843.59,-27.54"/>
</g>
</g>
</svg>
