<?xml version="1.0" encoding="UTF-8" standalone="no"?>
<!DOCTYPE svg PUBLIC "-//W3C//DTD SVG 1.1//EN"
 "http://www.w3.org/Graphics/SVG/1.1/DTD/svg11.dtd">
<!-- Generated by graphviz version 7.0.5 (20221223.1930)
 -->
<!-- Title: /github/workspace/client/include/Entities/EntitiesManager.hpp Pages: 1 -->
<svg width="2041pt" height="203pt"
 viewBox="0.00 0.00 2040.85 203.00" xmlns="http://www.w3.org/2000/svg" xmlns:xlink="http://www.w3.org/1999/xlink">
<g id="graph0" class="graph" transform="scale(1 1) rotate(0) translate(4 199)">
<title>/github/workspace/client/include/Entities/EntitiesManager.hpp</title>
<!-- Node1 -->
<g id="node1" class="node">
<title>Node1</title>
<g id="a_node1"><a xlink:title=" ">
<polygon fill="#999999" stroke="#666666" points="1246,-195 1070,-195 1070,-165 1246,-165 1246,-195"/>
<text text-anchor="start" x="1078" y="-183" font-family="Helvetica,sans-Serif" font-size="10.00">/github/workspace/client</text>
<text text-anchor="middle" x="1158" y="-172" font-family="Helvetica,sans-Serif" font-size="10.00">/include/Entities/EntitiesManager.hpp</text>
</a>
</g>
</g>
<!-- Node2 -->
<g id="node2" class="node">
<title>Node2</title>
<g id="a_node2"><a xlink:href="Engine_8hpp.html" target="_top" xlink:title=" ">
<polygon fill="white" stroke="#666666" points="1210,-129 1106,-129 1106,-110 1210,-110 1210,-129"/>
<text text-anchor="middle" x="1158" y="-117" font-family="Helvetica,sans-Serif" font-size="10.00">../Engine/Engine.hpp</text>
</a>
</g>
</g>
<!-- Node1&#45;&gt;Node2 -->
<g id="edge1" class="edge">
<title>Node1&#45;&gt;Node2</title>
<path fill="none" stroke="#63b8ff" d="M1152.08,-164.54C1151.19,-157.26 1151.01,-148.31 1151.57,-140.39"/>
<polygon fill="#63b8ff" stroke="#63b8ff" points="1155.01,-141.05 1152.84,-130.68 1148.07,-140.14 1155.01,-141.05"/>
</g>
<!-- Node23 -->
<g id="node23" class="node">
<title>Node23</title>
<g id="a_node23"><a xlink:href="IComponents_8hpp.html" target="_top" xlink:title=" ">
<polygon fill="white" stroke="#666666" points="1662,-19 1570,-19 1570,0 1662,0 1662,-19"/>
<text text-anchor="middle" x="1616" y="-7" font-family="Helvetica,sans-Serif" font-size="10.00">IComponents.hpp</text>
</a>
</g>
</g>
<!-- Node1&#45;&gt;Node23 -->
<g id="edge31" class="edge">
<title>Node1&#45;&gt;Node23</title>
<path fill="none" stroke="#63b8ff" d="M1246.18,-174.86C1456.84,-164.08 1975.72,-131.85 2027,-74 2074.85,-20.02 1797.64,-11.62 1673.64,-10.53"/>
<polygon fill="#63b8ff" stroke="#63b8ff" points="1673.67,-7.03 1663.64,-10.46 1673.62,-14.03 1673.67,-7.03"/>
</g>
<!-- Node26 -->
<g id="node26" class="node">
<title>Node26</title>
<g id="a_node26"><a xlink:href="SparseArray_8hpp.html" target="_top" xlink:title=" ">
<polygon fill="white" stroke="#666666" points="220.5,-129 109.5,-129 109.5,-110 220.5,-110 220.5,-129"/>
<text text-anchor="middle" x="165" y="-117" font-family="Helvetica,sans-Serif" font-size="10.00">Utils/SparseArray.hpp</text>
</a>
</g>
</g>
<!-- Node1&#45;&gt;Node26 -->
<g id="edge32" class="edge">
<title>Node1&#45;&gt;Node26</title>
<path fill="none" stroke="#63b8ff" d="M1069.88,-173.81C874.09,-162.27 406.46,-134.73 232.08,-124.45"/>
<polygon fill="#63b8ff" stroke="#63b8ff" points="232.47,-120.97 222.29,-123.87 232.06,-127.96 232.47,-120.97"/>
</g>
<!-- Node2&#45;&gt;Node1 -->
<g id="edge23" class="edge">
<title>Node2&#45;&gt;Node1</title>
<path fill="none" stroke="#63b8ff" d="M1162.96,-129.18C1164.34,-135.58 1164.92,-144.65 1164.71,-153.3"/>
<polygon fill="#63b8ff" stroke="#63b8ff" points="1161.23,-152.81 1164.02,-163.03 1168.21,-153.3 1161.23,-152.81"/>
</g>
<!-- Node3 -->
<g id="node3" class="node">
<title>Node3</title>
<g id="a_node3"><a xlink:title=" ">
<polygon fill="#e0e0e0" stroke="#999999" points="1895.5,-74 1806.5,-74 1806.5,-55 1895.5,-55 1895.5,-74"/>
<text text-anchor="middle" x="1851" y="-62" font-family="Helvetica,sans-Serif" font-size="10.00">SFML/Audio.hpp</text>
</a>
</g>
</g>
<!-- Node2&#45;&gt;Node3 -->
<g id="edge2" class="edge">
<title>Node2&#45;&gt;Node3</title>
<path fill="none" stroke="#63b8ff" d="M1210.32,-116.39C1317.77,-111.73 1571.27,-99.03 1794.95,-74.12"/>
<polygon fill="#63b8ff" stroke="#63b8ff" points="1795.2,-77.62 1804.75,-73.02 1794.42,-70.66 1795.2,-77.62"/>
</g>
<!-- Node4 -->
<g id="node4" class="node">
<title>Node4</title>
<g id="a_node4"><a xlink:title=" ">
<polygon fill="#e0e0e0" stroke="#999999" points="2018,-74 1914,-74 1914,-55 2018,-55 2018,-74"/>
<text text-anchor="middle" x="1966" y="-62" font-family="Helvetica,sans-Serif" font-size="10.00">SFML/Graphics.hpp</text>
</a>
</g>
</g>
<!-- Node2&#45;&gt;Node4 -->
<g id="edge3" class="edge">
<title>Node2&#45;&gt;Node4</title>
<path fill="none" stroke="#63b8ff" d="M1210.19,-116.81C1330.34,-112.61 1636,-100.19 1902.34,-74.18"/>
<polygon fill="#63b8ff" stroke="#63b8ff" points="1902.67,-77.66 1912.28,-73.2 1901.99,-70.7 1902.67,-77.66"/>
</g>
<!-- Node5 -->
<g id="node5" class="node">
<title>Node5</title>
<g id="a_node5"><a xlink:title=" ">
<polygon fill="#e0e0e0" stroke="#999999" points="444.5,-74 343.5,-74 343.5,-55 444.5,-55 444.5,-74"/>
<text text-anchor="middle" x="394" y="-62" font-family="Helvetica,sans-Serif" font-size="10.00">SFML/Network.hpp</text>
</a>
</g>
</g>
<!-- Node2&#45;&gt;Node5 -->
<g id="edge4" class="edge">
<title>Node2&#45;&gt;Node5</title>
<path fill="none" stroke="#63b8ff" d="M1105.7,-116.63C990.35,-112.2 705.17,-99.56 456.27,-74.26"/>
<polygon fill="#63b8ff" stroke="#63b8ff" points="456.63,-70.78 446.32,-73.24 455.91,-77.74 456.63,-70.78"/>
</g>
<!-- Node6 -->
<g id="node6" class="node">
<title>Node6</title>
<g id="a_node6"><a xlink:title=" ">
<polygon fill="#e0e0e0" stroke="#999999" points="561.5,-74 462.5,-74 462.5,-55 561.5,-55 561.5,-74"/>
<text text-anchor="middle" x="512" y="-62" font-family="Helvetica,sans-Serif" font-size="10.00">SFML/Window.hpp</text>
</a>
</g>
</g>
<!-- Node2&#45;&gt;Node6 -->
<g id="edge5" class="edge">
<title>Node2&#45;&gt;Node6</title>
<path fill="none" stroke="#63b8ff" d="M1105.67,-115.72C1004.82,-110.1 776.29,-96.13 573.05,-74.15"/>
<polygon fill="#63b8ff" stroke="#63b8ff" points="573.69,-70.69 563.37,-73.09 572.93,-77.65 573.69,-70.69"/>
</g>
<!-- Node7 -->
<g id="node7" class="node">
<title>Node7</title>
<g id="a_node7"><a xlink:title=" ">
<polygon fill="#e0e0e0" stroke="#999999" points="678,-74 580,-74 580,-55 678,-55 678,-74"/>
<text text-anchor="middle" x="629" y="-62" font-family="Helvetica,sans-Serif" font-size="10.00">SFML/System.hpp</text>
</a>
</g>
</g>
<!-- Node2&#45;&gt;Node7 -->
<g id="edge6" class="edge">
<title>Node2&#45;&gt;Node7</title>
<path fill="none" stroke="#63b8ff" d="M1105.52,-114.16C1019.17,-106.86 841.77,-91.25 692,-74 691.18,-73.91 690.35,-73.81 689.52,-73.71"/>
<polygon fill="#63b8ff" stroke="#63b8ff" points="690.35,-70.29 680,-72.55 689.5,-77.24 690.35,-70.29"/>
</g>
<!-- Node8 -->
<g id="node8" class="node">
<title>Node8</title>
<g id="a_node8"><a xlink:title=" ">
<polygon fill="#e0e0e0" stroke="#999999" points="259,-19 205,-19 205,0 259,0 259,-19"/>
<text text-anchor="middle" x="232" y="-7" font-family="Helvetica,sans-Serif" font-size="10.00">iostream</text>
</a>
</g>
</g>
<!-- Node2&#45;&gt;Node8 -->
<g id="edge7" class="edge">
<title>Node2&#45;&gt;Node8</title>
<path fill="none" stroke="#63b8ff" d="M1105.62,-119.06C947.77,-120.21 478.66,-119.61 334,-74 302.17,-63.97 270.29,-41.68 250.85,-26.37"/>
<polygon fill="#63b8ff" stroke="#63b8ff" points="253.28,-23.82 243.3,-20.25 248.87,-29.26 253.28,-23.82"/>
</g>
<!-- Node9 -->
<g id="node9" class="node">
<title>Node9</title>
<g id="a_node9"><a xlink:title=" ">
<polygon fill="#e0e0e0" stroke="#999999" points="894,-74 844,-74 844,-55 894,-55 894,-74"/>
<text text-anchor="middle" x="869" y="-62" font-family="Helvetica,sans-Serif" font-size="10.00">fstream</text>
</a>
</g>
</g>
<!-- Node2&#45;&gt;Node9 -->
<g id="edge8" class="edge">
<title>Node2&#45;&gt;Node9</title>
<path fill="none" stroke="#63b8ff" d="M1105.53,-110.48C1056.25,-102.69 980.22,-90.03 905.25,-74.35"/>
<polygon fill="#63b8ff" stroke="#63b8ff" points="906.19,-70.97 895.68,-72.33 904.75,-77.82 906.19,-70.97"/>
</g>
<!-- Node10 -->
<g id="node10" class="node">
<title>Node10</title>
<g id="a_node10"><a xlink:title=" ">
<polygon fill="#e0e0e0" stroke="#999999" points="960,-74 912,-74 912,-55 960,-55 960,-74"/>
<text text-anchor="middle" x="936" y="-62" font-family="Helvetica,sans-Serif" font-size="10.00">string.h</text>
</a>
</g>
</g>
<!-- Node2&#45;&gt;Node10 -->
<g id="edge9" class="edge">
<title>Node2&#45;&gt;Node10</title>
<path fill="none" stroke="#63b8ff" d="M1118.85,-109.53C1082.9,-101.24 1027.88,-88.42 971.42,-74.56"/>
<polygon fill="#63b8ff" stroke="#63b8ff" points="972.51,-71.22 961.96,-72.23 970.84,-78.02 972.51,-71.22"/>
</g>
<!-- Node11 -->
<g id="node11" class="node">
<title>Node11</title>
<g id="a_node11"><a xlink:title=" ">
<polygon fill="#e0e0e0" stroke="#999999" points="1028,-74 978,-74 978,-55 1028,-55 1028,-74"/>
<text text-anchor="middle" x="1003" y="-62" font-family="Helvetica,sans-Serif" font-size="10.00">unistd.h</text>
</a>
</g>
</g>
<!-- Node2&#45;&gt;Node11 -->
<g id="edge10" class="edge">
<title>Node2&#45;&gt;Node11</title>
<path fill="none" stroke="#63b8ff" d="M1131.71,-109.51C1106.24,-100.8 1067.42,-87.53 1039.07,-77.83"/>
<polygon fill="#63b8ff" stroke="#63b8ff" points="1040.42,-74.6 1029.82,-74.67 1038.15,-81.22 1040.42,-74.6"/>
</g>
<!-- Node12 -->
<g id="node12" class="node">
<title>Node12</title>
<g id="a_node12"><a xlink:title=" ">
<polygon fill="#e0e0e0" stroke="#999999" points="1111.5,-74 1046.5,-74 1046.5,-55 1111.5,-55 1111.5,-74"/>
<text text-anchor="middle" x="1079" y="-62" font-family="Helvetica,sans-Serif" font-size="10.00">sys/types.h</text>
</a>
</g>
</g>
<!-- Node2&#45;&gt;Node12 -->
<g id="edge11" class="edge">
<title>Node2&#45;&gt;Node12</title>
<path fill="none" stroke="#63b8ff" d="M1144.6,-109.51C1132.84,-101.62 1115.49,-89.98 1101.59,-80.65"/>
<polygon fill="#63b8ff" stroke="#63b8ff" points="1103.71,-77.87 1093.46,-75.2 1099.81,-83.68 1103.71,-77.87"/>
</g>
<!-- Node13 -->
<g id="node13" class="node">
<title>Node13</title>
<g id="a_node13"><a xlink:title=" ">
<polygon fill="#e0e0e0" stroke="#999999" points="321,-19 277,-19 277,0 321,0 321,-19"/>
<text text-anchor="middle" x="299" y="-7" font-family="Helvetica,sans-Serif" font-size="10.00">vector</text>
</a>
</g>
</g>
<!-- Node2&#45;&gt;Node13 -->
<g id="edge12" class="edge">
<title>Node2&#45;&gt;Node13</title>
<path fill="none" stroke="#63b8ff" d="M1105.52,-119.13C1022.89,-118.8 858.15,-112.73 725,-74 706.87,-68.73 705.1,-60.38 687,-55 560.09,-17.28 401.03,-11.21 332.71,-10.46"/>
<polygon fill="#63b8ff" stroke="#63b8ff" points="332.96,-6.96 322.93,-10.38 332.9,-13.96 332.96,-6.96"/>
</g>
<!-- Node14 -->
<g id="node14" class="node">
<title>Node14</title>
<g id="a_node14"><a xlink:title=" ">
<polygon fill="#e0e0e0" stroke="#999999" points="1186,-74 1130,-74 1130,-55 1186,-55 1186,-74"/>
<text text-anchor="middle" x="1158" y="-62" font-family="Helvetica,sans-Serif" font-size="10.00">stdbool.h</text>
</a>
</g>
</g>
<!-- Node2&#45;&gt;Node14 -->
<g id="edge13" class="edge">
<title>Node2&#45;&gt;Node14</title>
<path fill="none" stroke="#63b8ff" d="M1158,-109.75C1158,-103.27 1158,-94.16 1158,-85.9"/>
<polygon fill="#63b8ff" stroke="#63b8ff" points="1161.5,-85.96 1158,-75.96 1154.5,-85.96 1161.5,-85.96"/>
</g>
<!-- Node15 -->
<g id="node15" class="node">
<title>Node15</title>
<g id="a_node15"><a xlink:title=" ">
<polygon fill="#e0e0e0" stroke="#999999" points="1251.5,-74 1204.5,-74 1204.5,-55 1251.5,-55 1251.5,-74"/>
<text text-anchor="middle" x="1228" y="-62" font-family="Helvetica,sans-Serif" font-size="10.00">stdlib.h</text>
</a>
</g>
</g>
<!-- Node2&#45;&gt;Node15 -->
<g id="edge14" class="edge">
<title>Node2&#45;&gt;Node15</title>
<path fill="none" stroke="#63b8ff" d="M1169.87,-109.51C1180.09,-101.77 1195.07,-90.43 1207.26,-81.2"/>
<polygon fill="#63b8ff" stroke="#63b8ff" points="1209.23,-84.1 1215.09,-75.27 1205.01,-78.52 1209.23,-84.1"/>
</g>
<!-- Node16 -->
<g id="node16" class="node">
<title>Node16</title>
<g id="a_node16"><a xlink:title=" ">
<polygon fill="#e0e0e0" stroke="#999999" points="1468,-74 1410,-74 1410,-55 1468,-55 1468,-74"/>
<text text-anchor="middle" x="1439" y="-62" font-family="Helvetica,sans-Serif" font-size="10.00">exception</text>
</a>
</g>
</g>
<!-- Node2&#45;&gt;Node16 -->
<g id="edge15" class="edge">
<title>Node2&#45;&gt;Node16</title>
<path fill="none" stroke="#63b8ff" d="M1210.26,-109.54C1257.14,-101.36 1328.09,-88.65 1398.7,-74.41"/>
<polygon fill="#63b8ff" stroke="#63b8ff" points="1398.98,-77.92 1408.08,-72.5 1397.59,-71.06 1398.98,-77.92"/>
</g>
<!-- Node17 -->
<g id="node17" class="node">
<title>Node17</title>
<g id="a_node17"><a xlink:href="Window_8hpp.html" target="_top" xlink:title=" ">
<polygon fill="white" stroke="#666666" points="1587.5,-74 1486.5,-74 1486.5,-55 1587.5,-55 1587.5,-74"/>
<text text-anchor="middle" x="1537" y="-62" font-family="Helvetica,sans-Serif" font-size="10.00">Engine/Window.hpp</text>
</a>
</g>
</g>
<!-- Node2&#45;&gt;Node17 -->
<g id="edge16" class="edge">
<title>Node2&#45;&gt;Node17</title>
<path fill="none" stroke="#63b8ff" d="M1210.45,-110.29C1272.13,-101.39 1377.33,-86.75 1468,-74 1470.28,-73.68 1472.61,-73.35 1474.96,-73.02"/>
<polygon fill="#63b8ff" stroke="#63b8ff" points="1475.22,-76.52 1484.64,-71.67 1474.25,-69.59 1475.22,-76.52"/>
</g>
<!-- Node18 -->
<g id="node18" class="node">
<title>Node18</title>
<g id="a_node18"><a xlink:href="Event_8hpp.html" target="_top" xlink:title=" ">
<polygon fill="white" stroke="#666666" points="826,-74 734,-74 734,-55 826,-55 826,-74"/>
<text text-anchor="middle" x="780" y="-62" font-family="Helvetica,sans-Serif" font-size="10.00">Engine/Event.hpp</text>
</a>
</g>
</g>
<!-- Node2&#45;&gt;Node18 -->
<g id="edge18" class="edge">
<title>Node2&#45;&gt;Node18</title>
<path fill="none" stroke="#63b8ff" d="M1105.61,-112.36C1042.51,-104.32 933.38,-89.59 837.6,-75.69"/>
<polygon fill="#63b8ff" stroke="#63b8ff" points="838.19,-72.24 827.79,-74.26 837.18,-79.17 838.19,-72.24"/>
</g>
<!-- Node22 -->
<g id="node22" class="node">
<title>Node22</title>
<g id="a_node22"><a xlink:href="Bullets_8hpp.html" target="_top" xlink:title=" ">
<polygon fill="white" stroke="#666666" points="1392,-74 1270,-74 1270,-55 1392,-55 1392,-74"/>
<text text-anchor="middle" x="1331" y="-62" font-family="Helvetica,sans-Serif" font-size="10.00">Components/Bullets.hpp</text>
</a>
</g>
</g>
<!-- Node2&#45;&gt;Node22 -->
<g id="edge24" class="edge">
<title>Node2&#45;&gt;Node22</title>
<path fill="none" stroke="#63b8ff" d="M1182.13,-109.51C1208.96,-100.73 1252.6,-87.3 1285.78,-77.59"/>
<polygon fill="#63b8ff" stroke="#63b8ff" points="1286.51,-81.02 1295.14,-74.87 1284.56,-74.3 1286.51,-81.02"/>
</g>
<!-- Node25 -->
<g id="node25" class="node">
<title>Node25</title>
<g id="a_node25"><a xlink:href="Background_8hpp.html" target="_top" xlink:title=" ">
<polygon fill="white" stroke="#666666" points="1788,-74 1644,-74 1644,-55 1788,-55 1788,-74"/>
<text text-anchor="middle" x="1716" y="-62" font-family="Helvetica,sans-Serif" font-size="10.00">Components/Background.hpp</text>
</a>
</g>
</g>
<!-- Node2&#45;&gt;Node25 -->
<g id="edge29" class="edge">
<title>Node2&#45;&gt;Node25</title>
<path fill="none" stroke="#63b8ff" d="M1210.37,-113.1C1296.23,-104.82 1471.89,-88.4 1621,-74 1624.77,-73.64 1628.64,-73.26 1632.55,-72.88"/>
<polygon fill="#63b8ff" stroke="#63b8ff" points="1632.54,-76.4 1642.16,-71.95 1631.86,-69.43 1632.54,-76.4"/>
</g>
<!-- Node17&#45;&gt;Node2 -->
<g id="edge17" class="edge">
<title>Node17&#45;&gt;Node2</title>
<path fill="none" stroke="#63b8ff" d="M1485.72,-74.04C1394.04,-86.93 1287.59,-101.75 1221.41,-110.61"/>
<polygon fill="#63b8ff" stroke="#63b8ff" points="1221.29,-107.09 1211.84,-111.88 1222.22,-114.03 1221.29,-107.09"/>
</g>
<!-- Node18&#45;&gt;Node2 -->
<g id="edge19" class="edge">
<title>Node18&#45;&gt;Node2</title>
<path fill="none" stroke="#63b8ff" d="M826.45,-71.39C832.4,-72.28 838.36,-73.18 844,-74 930.92,-86.7 1031.15,-100.36 1094.61,-109.14"/>
<polygon fill="#63b8ff" stroke="#63b8ff" points="1093.75,-112.56 1104.13,-110.46 1094.71,-105.62 1093.75,-112.56"/>
</g>
<!-- Node19 -->
<g id="node19" class="node">
<title>Node19</title>
<g id="a_node19"><a xlink:title=" ">
<polygon fill="#e0e0e0" stroke="#999999" points="740.5,-19 711.5,-19 711.5,0 740.5,0 740.5,-19"/>
<text text-anchor="middle" x="726" y="-7" font-family="Helvetica,sans-Serif" font-size="10.00">list</text>
</a>
</g>
</g>
<!-- Node18&#45;&gt;Node19 -->
<g id="edge20" class="edge">
<title>Node18&#45;&gt;Node19</title>
<path fill="none" stroke="#63b8ff" d="M771.08,-54.75C763.55,-47.35 752.53,-36.54 743.27,-27.45"/>
<polygon fill="#63b8ff" stroke="#63b8ff" points="745.78,-25.01 736.19,-20.5 740.88,-30 745.78,-25.01"/>
</g>
<!-- Node20 -->
<g id="node20" class="node">
<title>Node20</title>
<g id="a_node20"><a xlink:title=" ">
<polygon fill="#e0e0e0" stroke="#999999" points="801.5,-19 758.5,-19 758.5,0 801.5,0 801.5,-19"/>
<text text-anchor="middle" x="780" y="-7" font-family="Helvetica,sans-Serif" font-size="10.00">queue</text>
</a>
</g>
</g>
<!-- Node18&#45;&gt;Node20 -->
<g id="edge21" class="edge">
<title>Node18&#45;&gt;Node20</title>
<path fill="none" stroke="#63b8ff" d="M780,-54.75C780,-48.27 780,-39.16 780,-30.9"/>
<polygon fill="#63b8ff" stroke="#63b8ff" points="783.5,-30.96 780,-20.96 776.5,-30.96 783.5,-30.96"/>
</g>
<!-- Node21 -->
<g id="node21" class="node">
<title>Node21</title>
<g id="a_node21"><a xlink:title=" ">
<polygon fill="#e0e0e0" stroke="#999999" points="882,-19 820,-19 820,0 882,0 882,-19"/>
<text text-anchor="middle" x="851" y="-7" font-family="Helvetica,sans-Serif" font-size="10.00">Skaldi.hpp</text>
</a>
</g>
</g>
<!-- Node18&#45;&gt;Node21 -->
<g id="edge22" class="edge">
<title>Node18&#45;&gt;Node21</title>
<path fill="none" stroke="#63b8ff" d="M792.04,-54.51C802.41,-46.77 817.6,-35.43 829.97,-26.2"/>
<polygon fill="#63b8ff" stroke="#63b8ff" points="832,-29.05 837.92,-20.26 827.81,-23.44 832,-29.05"/>
</g>
<!-- Node22&#45;&gt;Node2 -->
<g id="edge25" class="edge">
<title>Node22&#45;&gt;Node2</title>
<path fill="none" stroke="#63b8ff" d="M1307.01,-74.45C1280.23,-83.21 1236.6,-96.64 1203.39,-106.36"/>
<polygon fill="#63b8ff" stroke="#63b8ff" points="1202.64,-102.94 1194.02,-109.09 1204.6,-109.66 1202.64,-102.94"/>
</g>
<!-- Node22&#45;&gt;Node23 -->
<g id="edge26" class="edge">
<title>Node22&#45;&gt;Node23</title>
<path fill="none" stroke="#63b8ff" d="M1379.35,-54.51C1428.91,-45.29 1505.98,-30.96 1558.61,-21.17"/>
<polygon fill="#63b8ff" stroke="#63b8ff" points="1559.1,-24.64 1568.29,-19.37 1557.82,-17.76 1559.1,-24.64"/>
</g>
<!-- Node24 -->
<g id="node24" class="node">
<title>Node24</title>
<g id="a_node24"><a xlink:title=" ">
<polygon fill="#e0e0e0" stroke="#999999" points="1354,-19 1308,-19 1308,0 1354,0 1354,-19"/>
<text text-anchor="middle" x="1331" y="-7" font-family="Helvetica,sans-Serif" font-size="10.00">math.h</text>
</a>
</g>
</g>
<!-- Node22&#45;&gt;Node24 -->
<g id="edge28" class="edge">
<title>Node22&#45;&gt;Node24</title>
<path fill="none" stroke="#63b8ff" d="M1331,-54.75C1331,-48.27 1331,-39.16 1331,-30.9"/>
<polygon fill="#63b8ff" stroke="#63b8ff" points="1334.5,-30.96 1331,-20.96 1327.5,-30.96 1334.5,-30.96"/>
</g>
<!-- Node23&#45;&gt;Node2 -->
<g id="edge27" class="edge">
<title>Node23&#45;&gt;Node2</title>
<path fill="none" stroke="#63b8ff" d="M1616.22,-19.09C1616.05,-33.02 1613.5,-60.37 1597,-74 1568.7,-97.38 1336.69,-110.7 1221.88,-115.91"/>
<polygon fill="#63b8ff" stroke="#63b8ff" points="1221.82,-112.41 1211.99,-116.35 1222.13,-119.4 1221.82,-112.41"/>
</g>
<!-- Node25&#45;&gt;Node2 -->
<g id="edge30" class="edge">
<title>Node25&#45;&gt;Node2</title>
<path fill="none" stroke="#63b8ff" d="M1643.52,-73.56C1642,-73.71 1640.49,-73.86 1639,-74 1489.72,-88.41 1313.83,-104.85 1221.59,-113.13"/>
<polygon fill="#63b8ff" stroke="#63b8ff" points="1221.38,-109.64 1211.73,-114.01 1222,-116.61 1221.38,-109.64"/>
</g>
<!-- Node26&#45;&gt;Node8 -->
<g id="edge33" class="edge">
<title>Node26&#45;&gt;Node8</title>
<path fill="none" stroke="#63b8ff" d="M181.38,-109.6C193.98,-101.87 210.74,-89.5 220,-74 227.85,-60.86 230.74,-43.7 231.73,-30.53"/>
<polygon fill="#63b8ff" stroke="#63b8ff" points="235.21,-31.03 232.13,-20.9 228.22,-30.74 235.21,-31.03"/>
</g>
<!-- Node26&#45;&gt;Node13 -->
<g id="edge36" class="edge">
<title>Node26&#45;&gt;Node13</title>
<path fill="none" stroke="#63b8ff" d="M182.34,-109.59C197.67,-101.34 220.29,-88.22 238,-74 255.43,-60 272.86,-41.27 284.59,-27.79"/>
<polygon fill="#63b8ff" stroke="#63b8ff" points="286.93,-30.44 290.75,-20.56 281.6,-25.9 286.93,-30.44"/>
</g>
<!-- Node27 -->
<g id="node27" class="node">
<title>Node27</title>
<g id="a_node27"><a xlink:title=" ">
<polygon fill="#e0e0e0" stroke="#999999" points="180,-19 124,-19 124,0 180,0 180,-19"/>
<text text-anchor="middle" x="152" y="-7" font-family="Helvetica,sans-Serif" font-size="10.00">algorithm</text>
</a>
</g>
</g>
<!-- Node26&#45;&gt;Node27 -->
<g id="edge34" class="edge">
<title>Node26&#45;&gt;Node27</title>
<path fill="none" stroke="#63b8ff" d="M147,-109.57C134.07,-102.05 117.62,-89.96 110,-74 101.8,-56.81 116.13,-38.85 130.24,-26.44"/>
<polygon fill="#63b8ff" stroke="#63b8ff" points="132.06,-29.47 137.61,-20.44 127.65,-24.04 132.06,-29.47"/>
</g>
<!-- Node28 -->
<g id="node28" class="node">
<title>Node28</title>
<g id="a_node28"><a xlink:title=" ">
<polygon fill="#e0e0e0" stroke="#999999" points="38,-19 0,-19 0,0 38,0 38,-19"/>
<text text-anchor="middle" x="19" y="-7" font-family="Helvetica,sans-Serif" font-size="10.00">array</text>
</a>
</g>
</g>
<!-- Node26&#45;&gt;Node28 -->
<g id="edge35" class="edge">
<title>Node26&#45;&gt;Node28</title>
<path fill="none" stroke="#63b8ff" d="M148.29,-109.6C132.92,-101.15 109.75,-87.73 91,-74 71.14,-59.46 50.24,-40.57 36.1,-27.18"/>
<polygon fill="#63b8ff" stroke="#63b8ff" points="38.6,-24.73 28.96,-20.33 33.75,-29.78 38.6,-24.73"/>
</g>
<!-- Node29 -->
<g id="node29" class="node">
<title>Node29</title>
<g id="a_node29"><a xlink:title=" ">
<polygon fill="#e0e0e0" stroke="#999999" points="102.5,-19 63.5,-19 63.5,0 102.5,0 102.5,-19"/>
<text text-anchor="middle" x="83" y="-7" font-family="Helvetica,sans-Serif" font-size="10.00">utility</text>
</a>
</g>
</g>
<!-- Node26&#45;&gt;Node29 -->
<g id="edge37" class="edge">
<title>Node26&#45;&gt;Node29</title>
<path fill="none" stroke="#63b8ff" d="M147.42,-109.64C133.78,-101.93 115.35,-89.57 104,-74 94.57,-61.06 89.2,-43.63 86.26,-30.31"/>
<polygon fill="#63b8ff" stroke="#63b8ff" points="89.71,-29.73 84.41,-20.56 82.84,-31.03 89.71,-29.73"/>
</g>
<!-- Node30 -->
<g id="node30" class="node">
<title>Node30</title>
<g id="a_node30"><a xlink:href="Vectors_8hpp.html" target="_top" xlink:title=" ">
<polygon fill="white" stroke="#666666" points="211,-74 119,-74 119,-55 211,-55 211,-74"/>
<text text-anchor="middle" x="165" y="-62" font-family="Helvetica,sans-Serif" font-size="10.00">Utils/Vectors.hpp</text>
</a>
</g>
</g>
<!-- Node26&#45;&gt;Node30 -->
<g id="edge38" class="edge">
<title>Node26&#45;&gt;Node30</title>
<path fill="none" stroke="#63b8ff" d="M165,-109.75C165,-103.27 165,-94.16 165,-85.9"/>
<polygon fill="#63b8ff" stroke="#63b8ff" points="168.5,-85.96 165,-75.96 161.5,-85.96 168.5,-85.96"/>
</g>
<!-- Node30&#45;&gt;Node8 -->
<g id="edge39" class="edge">
<title>Node30&#45;&gt;Node8</title>
<path fill="none" stroke="#63b8ff" d="M176.37,-54.51C186.05,-46.85 200.2,-35.66 211.81,-26.47"/>
<polygon fill="#63b8ff" stroke="#63b8ff" points="213.94,-29.25 219.62,-20.3 209.6,-23.76 213.94,-29.25"/>
</g>
<!-- Node30&#45;&gt;Node13 -->
<g id="edge42" class="edge">
<title>Node30&#45;&gt;Node13</title>
<path fill="none" stroke="#63b8ff" d="M187.73,-54.51C209.23,-46.01 241.73,-33.15 266.07,-23.53"/>
<polygon fill="#63b8ff" stroke="#63b8ff" points="267.19,-26.85 275.2,-19.91 264.61,-20.34 267.19,-26.85"/>
</g>
<!-- Node30&#45;&gt;Node27 -->
<g id="edge40" class="edge">
<title>Node30&#45;&gt;Node27</title>
<path fill="none" stroke="#63b8ff" d="M162.85,-54.75C161.24,-48.19 158.98,-38.95 156.93,-30.6"/>
<polygon fill="#63b8ff" stroke="#63b8ff" points="160.34,-29.79 154.55,-20.91 153.54,-31.46 160.34,-29.79"/>
</g>
<!-- Node30&#45;&gt;Node28 -->
<g id="edge41" class="edge">
<title>Node30&#45;&gt;Node28</title>
<path fill="none" stroke="#63b8ff" d="M140.23,-54.51C115.03,-45.36 75.95,-31.17 49.01,-21.39"/>
<polygon fill="#63b8ff" stroke="#63b8ff" points="50.3,-18.14 39.7,-18.02 47.91,-24.72 50.3,-18.14"/>
</g>
<!-- Node30&#45;&gt;Node29 -->
<g id="edge43" class="edge">
<title>Node30&#45;&gt;Node29</title>
<path fill="none" stroke="#63b8ff" d="M151.09,-54.51C138.76,-46.54 120.53,-34.75 106.03,-25.38"/>
<polygon fill="#63b8ff" stroke="#63b8ff" points="108.27,-22.67 97.98,-20.18 104.47,-28.55 108.27,-22.67"/>
</g>
</g>
</svg>
