<?xml version="1.0" encoding="UTF-8" standalone="no"?>
<!DOCTYPE svg PUBLIC "-//W3C//DTD SVG 1.1//EN"
 "http://www.w3.org/Graphics/SVG/1.1/DTD/svg11.dtd">
<!-- Generated by graphviz version 7.0.5 (20221223.1930)
 -->
<!-- Title: /github/workspace/client/include/Engine/Error.hpp Pages: 1 -->
<svg width="1921pt" height="313pt"
 viewBox="0.00 0.00 1921.00 313.00" xmlns="http://www.w3.org/2000/svg" xmlns:xlink="http://www.w3.org/1999/xlink">
<g id="graph0" class="graph" transform="scale(1 1) rotate(0) translate(4 309)">
<title>/github/workspace/client/include/Engine/Error.hpp</title>
<!-- Node1 -->
<g id="node1" class="node">
<title>Node1</title>
<g id="a_node1"><a xlink:title=" ">
<polygon fill="#999999" stroke="#666666" points="1758,-305 1634,-305 1634,-275 1758,-275 1758,-305"/>
<text text-anchor="start" x="1642" y="-293" font-family="Helvetica,sans-Serif" font-size="10.00">/github/workspace/client</text>
<text text-anchor="middle" x="1696" y="-282" font-family="Helvetica,sans-Serif" font-size="10.00">/include/Engine/Error.hpp</text>
</a>
</g>
</g>
<!-- Node2 -->
<g id="node2" class="node">
<title>Node2</title>
<g id="a_node2"><a xlink:href="Engine_8hpp.html" target="_top" xlink:title=" ">
<polygon fill="white" stroke="#666666" points="997,-239 901,-239 901,-220 997,-220 997,-239"/>
<text text-anchor="middle" x="949" y="-227" font-family="Helvetica,sans-Serif" font-size="10.00">Engine/Engine.hpp</text>
</a>
</g>
</g>
<!-- Node1&#45;&gt;Node2 -->
<g id="edge1" class="edge">
<title>Node1&#45;&gt;Node2</title>
<path fill="none" stroke="#63b8ff" d="M1633.6,-284.11C1491.88,-273.02 1147.35,-246.03 1008.48,-235.16"/>
<polygon fill="#63b8ff" stroke="#63b8ff" points="1009.02,-231.69 998.77,-234.4 1008.47,-238.67 1009.02,-231.69"/>
</g>
<!-- Node8 -->
<g id="node8" class="node">
<title>Node8</title>
<g id="a_node8"><a xlink:title=" ">
<polygon fill="#e0e0e0" stroke="#999999" points="356,-19 302,-19 302,0 356,0 356,-19"/>
<text text-anchor="middle" x="329" y="-7" font-family="Helvetica,sans-Serif" font-size="10.00">iostream</text>
</a>
</g>
</g>
<!-- Node1&#45;&gt;Node8 -->
<g id="edge43" class="edge">
<title>Node1&#45;&gt;Node8</title>
<path fill="none" stroke="#63b8ff" d="M1633.63,-288.15C1327.65,-283.6 0,-259.05 0,-175.5 0,-175.5 0,-175.5 0,-118.5 0,-58.01 203.32,-25.88 290.29,-14.91"/>
<polygon fill="#63b8ff" stroke="#63b8ff" points="290.52,-18.4 300.01,-13.71 289.66,-11.46 290.52,-18.4"/>
</g>
<!-- Node9 -->
<g id="node9" class="node">
<title>Node9</title>
<g id="a_node9"><a xlink:title=" ">
<polygon fill="#e0e0e0" stroke="#999999" points="1616,-184 1566,-184 1566,-165 1616,-165 1616,-184"/>
<text text-anchor="middle" x="1591" y="-172" font-family="Helvetica,sans-Serif" font-size="10.00">fstream</text>
</a>
</g>
</g>
<!-- Node1&#45;&gt;Node9 -->
<g id="edge46" class="edge">
<title>Node1&#45;&gt;Node9</title>
<path fill="none" stroke="#63b8ff" d="M1682.7,-274.63C1663.3,-253.65 1627.31,-214.75 1606.65,-192.42"/>
<polygon fill="#63b8ff" stroke="#63b8ff" points="1609.46,-190.3 1600.1,-185.34 1604.33,-195.06 1609.46,-190.3"/>
</g>
<!-- Node10 -->
<g id="node10" class="node">
<title>Node10</title>
<g id="a_node10"><a xlink:title=" ">
<polygon fill="#e0e0e0" stroke="#999999" points="1675.5,-184 1634.5,-184 1634.5,-165 1675.5,-165 1675.5,-184"/>
<text text-anchor="middle" x="1655" y="-172" font-family="Helvetica,sans-Serif" font-size="10.00">string</text>
</a>
</g>
</g>
<!-- Node1&#45;&gt;Node10 -->
<g id="edge44" class="edge">
<title>Node1&#45;&gt;Node10</title>
<path fill="none" stroke="#63b8ff" d="M1690.81,-274.63C1683.5,-254.4 1670.17,-217.49 1662,-194.86"/>
<polygon fill="#63b8ff" stroke="#63b8ff" points="1665.36,-193.87 1658.67,-185.65 1658.77,-196.25 1665.36,-193.87"/>
</g>
<!-- Node13 -->
<g id="node13" class="node">
<title>Node13</title>
<g id="a_node13"><a xlink:title=" ">
<polygon fill="#e0e0e0" stroke="#999999" points="1674,-19 1630,-19 1630,0 1674,0 1674,-19"/>
<text text-anchor="middle" x="1652" y="-7" font-family="Helvetica,sans-Serif" font-size="10.00">vector</text>
</a>
</g>
</g>
<!-- Node1&#45;&gt;Node13 -->
<g id="edge45" class="edge">
<title>Node1&#45;&gt;Node13</title>
<path fill="none" stroke="#63b8ff" d="M1713.71,-274.58C1740.8,-250.76 1786.81,-202.12 1761,-165 1734.74,-127.25 1692.13,-165.38 1664,-129 1642.04,-100.59 1644.35,-56.19 1648.11,-30.57"/>
<polygon fill="#63b8ff" stroke="#63b8ff" points="1651.53,-31.3 1649.77,-20.86 1644.64,-30.12 1651.53,-31.3"/>
</g>
<!-- Node14 -->
<g id="node14" class="node">
<title>Node14</title>
<g id="a_node14"><a xlink:title=" ">
<polygon fill="#e0e0e0" stroke="#999999" points="1752,-184 1694,-184 1694,-165 1752,-165 1752,-184"/>
<text text-anchor="middle" x="1723" y="-172" font-family="Helvetica,sans-Serif" font-size="10.00">exception</text>
</a>
</g>
</g>
<!-- Node1&#45;&gt;Node14 -->
<g id="edge42" class="edge">
<title>Node1&#45;&gt;Node14</title>
<path fill="none" stroke="#63b8ff" d="M1699.42,-274.63C1704.21,-254.49 1712.93,-217.83 1718.32,-195.18"/>
<polygon fill="#63b8ff" stroke="#63b8ff" points="1721.66,-196.24 1720.57,-185.7 1714.85,-194.62 1721.66,-196.24"/>
</g>
<!-- Node29 -->
<g id="node29" class="node">
<title>Node29</title>
<g id="a_node29"><a xlink:title=" ">
<polygon fill="#e0e0e0" stroke="#999999" points="1853.5,-239 1808.5,-239 1808.5,-220 1853.5,-220 1853.5,-239"/>
<text text-anchor="middle" x="1831" y="-227" font-family="Helvetica,sans-Serif" font-size="10.00">iosfwd</text>
</a>
</g>
</g>
<!-- Node1&#45;&gt;Node29 -->
<g id="edge47" class="edge">
<title>Node1&#45;&gt;Node29</title>
<path fill="none" stroke="#63b8ff" d="M1729.37,-274.54C1751.05,-265.15 1779.09,-252.99 1800.23,-243.83"/>
<polygon fill="#63b8ff" stroke="#63b8ff" points="1801.41,-247.14 1809.2,-239.95 1798.63,-240.71 1801.41,-247.14"/>
</g>
<!-- Node30 -->
<g id="node30" class="node">
<title>Node30</title>
<g id="a_node30"><a xlink:title=" ">
<polygon fill="#e0e0e0" stroke="#999999" points="1912,-239 1872,-239 1872,-220 1912,-220 1912,-239"/>
<text text-anchor="middle" x="1892" y="-227" font-family="Helvetica,sans-Serif" font-size="10.00">regex</text>
</a>
</g>
</g>
<!-- Node1&#45;&gt;Node30 -->
<g id="edge48" class="edge">
<title>Node1&#45;&gt;Node30</title>
<path fill="none" stroke="#63b8ff" d="M1744.45,-274.54C1781,-263.63 1830.02,-249 1861.32,-239.66"/>
<polygon fill="#63b8ff" stroke="#63b8ff" points="1861.96,-243.12 1870.54,-236.9 1859.96,-236.41 1861.96,-243.12"/>
</g>
<!-- Node3 -->
<g id="node3" class="node">
<title>Node3</title>
<g id="a_node3"><a xlink:title=" ">
<polygon fill="#e0e0e0" stroke="#999999" points="698.5,-184 609.5,-184 609.5,-165 698.5,-165 698.5,-184"/>
<text text-anchor="middle" x="654" y="-172" font-family="Helvetica,sans-Serif" font-size="10.00">SFML/Audio.hpp</text>
</a>
</g>
</g>
<!-- Node2&#45;&gt;Node3 -->
<g id="edge2" class="edge">
<title>Node2&#45;&gt;Node3</title>
<path fill="none" stroke="#63b8ff" d="M900.62,-219.81C848.27,-210.4 764.94,-195.43 709.85,-185.53"/>
<polygon fill="#63b8ff" stroke="#63b8ff" points="710.5,-182.09 700.03,-183.77 709.26,-188.98 710.5,-182.09"/>
</g>
<!-- Node4 -->
<g id="node4" class="node">
<title>Node4</title>
<g id="a_node4"><a xlink:title=" ">
<polygon fill="#e0e0e0" stroke="#999999" points="821,-184 717,-184 717,-165 821,-165 821,-184"/>
<text text-anchor="middle" x="769" y="-172" font-family="Helvetica,sans-Serif" font-size="10.00">SFML/Graphics.hpp</text>
</a>
</g>
</g>
<!-- Node2&#45;&gt;Node4 -->
<g id="edge3" class="edge">
<title>Node2&#45;&gt;Node4</title>
<path fill="none" stroke="#63b8ff" d="M918.47,-219.51C888.64,-210.73 843.04,-197.3 810.05,-187.59"/>
<polygon fill="#63b8ff" stroke="#63b8ff" points="811.42,-184.34 800.84,-184.87 809.44,-191.06 811.42,-184.34"/>
</g>
<!-- Node5 -->
<g id="node5" class="node">
<title>Node5</title>
<g id="a_node5"><a xlink:title=" ">
<polygon fill="#e0e0e0" stroke="#999999" points="940.5,-184 839.5,-184 839.5,-165 940.5,-165 940.5,-184"/>
<text text-anchor="middle" x="890" y="-172" font-family="Helvetica,sans-Serif" font-size="10.00">SFML/Network.hpp</text>
</a>
</g>
</g>
<!-- Node2&#45;&gt;Node5 -->
<g id="edge4" class="edge">
<title>Node2&#45;&gt;Node5</title>
<path fill="none" stroke="#63b8ff" d="M938.99,-219.51C930.63,-212 918.5,-201.1 908.4,-192.03"/>
<polygon fill="#63b8ff" stroke="#63b8ff" points="910.76,-189.45 900.99,-185.37 906.09,-194.66 910.76,-189.45"/>
</g>
<!-- Node6 -->
<g id="node6" class="node">
<title>Node6</title>
<g id="a_node6"><a xlink:title=" ">
<polygon fill="#e0e0e0" stroke="#999999" points="1057.5,-184 958.5,-184 958.5,-165 1057.5,-165 1057.5,-184"/>
<text text-anchor="middle" x="1008" y="-172" font-family="Helvetica,sans-Serif" font-size="10.00">SFML/Window.hpp</text>
</a>
</g>
</g>
<!-- Node2&#45;&gt;Node6 -->
<g id="edge5" class="edge">
<title>Node2&#45;&gt;Node6</title>
<path fill="none" stroke="#63b8ff" d="M959.01,-219.51C967.37,-212 979.5,-201.1 989.6,-192.03"/>
<polygon fill="#63b8ff" stroke="#63b8ff" points="991.91,-194.66 997.01,-185.37 987.24,-189.45 991.91,-194.66"/>
</g>
<!-- Node7 -->
<g id="node7" class="node">
<title>Node7</title>
<g id="a_node7"><a xlink:title=" ">
<polygon fill="#e0e0e0" stroke="#999999" points="1174,-184 1076,-184 1076,-165 1174,-165 1174,-184"/>
<text text-anchor="middle" x="1125" y="-172" font-family="Helvetica,sans-Serif" font-size="10.00">SFML/System.hpp</text>
</a>
</g>
</g>
<!-- Node2&#45;&gt;Node7 -->
<g id="edge6" class="edge">
<title>Node2&#45;&gt;Node7</title>
<path fill="none" stroke="#63b8ff" d="M978.86,-219.51C1007.89,-210.76 1052.22,-197.42 1084.44,-187.71"/>
<polygon fill="#63b8ff" stroke="#63b8ff" points="1085.28,-191.12 1093.84,-184.88 1083.26,-184.41 1085.28,-191.12"/>
</g>
<!-- Node2&#45;&gt;Node8 -->
<g id="edge7" class="edge">
<title>Node2&#45;&gt;Node8</title>
<path fill="none" stroke="#63b8ff" d="M900.63,-227.91C718.97,-225.47 86.27,-214.77 57,-184 -21.86,-101.11 198.3,-40.04 290.5,-18.74"/>
<polygon fill="#63b8ff" stroke="#63b8ff" points="291.14,-22.18 300.12,-16.56 289.59,-15.35 291.14,-22.18"/>
</g>
<!-- Node2&#45;&gt;Node9 -->
<g id="edge8" class="edge">
<title>Node2&#45;&gt;Node9</title>
<path fill="none" stroke="#63b8ff" d="M997.4,-227.78C1099.03,-225.65 1342.11,-217.39 1554.78,-184.06"/>
<polygon fill="#63b8ff" stroke="#63b8ff" points="1555.03,-187.57 1564.35,-182.54 1553.93,-180.65 1555.03,-187.57"/>
</g>
<!-- Node2&#45;&gt;Node10 -->
<g id="edge9" class="edge">
<title>Node2&#45;&gt;Node10</title>
<path fill="none" stroke="#63b8ff" d="M997.36,-228.79C1107.18,-228.7 1383.79,-224.3 1623.14,-183.9"/>
<polygon fill="#63b8ff" stroke="#63b8ff" points="1623.39,-187.41 1632.66,-182.27 1622.21,-180.51 1623.39,-187.41"/>
</g>
<!-- Node11 -->
<g id="node11" class="node">
<title>Node11</title>
<g id="a_node11"><a xlink:title=" ">
<polygon fill="#e0e0e0" stroke="#999999" points="116,-184 66,-184 66,-165 116,-165 116,-184"/>
<text text-anchor="middle" x="91" y="-172" font-family="Helvetica,sans-Serif" font-size="10.00">unistd.h</text>
</a>
</g>
</g>
<!-- Node2&#45;&gt;Node11 -->
<g id="edge10" class="edge">
<title>Node2&#45;&gt;Node11</title>
<path fill="none" stroke="#63b8ff" d="M900.84,-229.1C774.97,-229.98 425.85,-228.05 127.19,-184.01"/>
<polygon fill="#63b8ff" stroke="#63b8ff" points="128.05,-180.6 117.64,-182.58 127.01,-187.52 128.05,-180.6"/>
</g>
<!-- Node12 -->
<g id="node12" class="node">
<title>Node12</title>
<g id="a_node12"><a xlink:title=" ">
<polygon fill="#e0e0e0" stroke="#999999" points="199.5,-184 134.5,-184 134.5,-165 199.5,-165 199.5,-184"/>
<text text-anchor="middle" x="167" y="-172" font-family="Helvetica,sans-Serif" font-size="10.00">sys/types.h</text>
</a>
</g>
</g>
<!-- Node2&#45;&gt;Node12 -->
<g id="edge11" class="edge">
<title>Node2&#45;&gt;Node12</title>
<path fill="none" stroke="#63b8ff" d="M900.65,-228.01C783.78,-226.3 476.52,-218.75 211.02,-184.21"/>
<polygon fill="#63b8ff" stroke="#63b8ff" points="211.47,-180.74 201.1,-182.9 210.56,-187.68 211.47,-180.74"/>
</g>
<!-- Node2&#45;&gt;Node13 -->
<g id="edge12" class="edge">
<title>Node2&#45;&gt;Node13</title>
<path fill="none" stroke="#63b8ff" d="M997.11,-228.62C1046.86,-226.72 1125.22,-217.91 1183,-184 1220.01,-162.28 1208.57,-132.67 1245,-110 1367.86,-33.56 1545.53,-15.83 1618.65,-11.73"/>
<polygon fill="#63b8ff" stroke="#63b8ff" points="1618.54,-15.24 1628.35,-11.24 1618.19,-8.25 1618.54,-15.24"/>
</g>
<!-- Node2&#45;&gt;Node14 -->
<g id="edge13" class="edge">
<title>Node2&#45;&gt;Node14</title>
<path fill="none" stroke="#63b8ff" d="M997.49,-228.24C1113.99,-227.04 1418.89,-220.51 1682.3,-184.14"/>
<polygon fill="#63b8ff" stroke="#63b8ff" points="1682.71,-187.62 1692.13,-182.77 1681.74,-180.69 1682.71,-187.62"/>
</g>
<!-- Node15 -->
<g id="node15" class="node">
<title>Node15</title>
<g id="a_node15"><a xlink:href="Window_8hpp.html" target="_top" xlink:title=" ">
<polygon fill="white" stroke="#666666" points="318.5,-184 217.5,-184 217.5,-165 318.5,-165 318.5,-184"/>
<text text-anchor="middle" x="268" y="-172" font-family="Helvetica,sans-Serif" font-size="10.00">Engine/Window.hpp</text>
</a>
</g>
</g>
<!-- Node2&#45;&gt;Node15 -->
<g id="edge14" class="edge">
<title>Node2&#45;&gt;Node15</title>
<path fill="none" stroke="#63b8ff" d="M900.6,-226.41C796.57,-221.41 544.36,-207.53 330.74,-185.24"/>
<polygon fill="#63b8ff" stroke="#63b8ff" points="331.13,-181.76 320.82,-184.19 330.4,-188.72 331.13,-181.76"/>
</g>
<!-- Node16 -->
<g id="node16" class="node">
<title>Node16</title>
<g id="a_node16"><a xlink:href="Event_8hpp.html" target="_top" xlink:title=" ">
<polygon fill="white" stroke="#666666" points="429,-184 337,-184 337,-165 429,-165 429,-184"/>
<text text-anchor="middle" x="383" y="-172" font-family="Helvetica,sans-Serif" font-size="10.00">Engine/Event.hpp</text>
</a>
</g>
</g>
<!-- Node2&#45;&gt;Node16 -->
<g id="edge16" class="edge">
<title>Node2&#45;&gt;Node16</title>
<path fill="none" stroke="#63b8ff" d="M900.84,-225.71C810.73,-219.94 610.87,-205.51 440.44,-185.37"/>
<polygon fill="#63b8ff" stroke="#63b8ff" points="441.1,-181.92 430.76,-184.21 440.27,-188.87 441.1,-181.92"/>
</g>
<!-- Node19 -->
<g id="node19" class="node">
<title>Node19</title>
<g id="a_node19"><a xlink:href="EntitiesManager_8hpp.html" target="_top" xlink:title=" ">
<polygon fill="white" stroke="#666666" points="1548,-184 1408,-184 1408,-165 1548,-165 1548,-184"/>
<text text-anchor="middle" x="1478" y="-172" font-family="Helvetica,sans-Serif" font-size="10.00">Entities/EntitiesManager.hpp</text>
</a>
</g>
</g>
<!-- Node2&#45;&gt;Node19 -->
<g id="edge20" class="edge">
<title>Node2&#45;&gt;Node19</title>
<path fill="none" stroke="#63b8ff" d="M997.38,-223.11C1077.89,-214.76 1244.01,-198.18 1385,-184 1388.65,-183.63 1392.38,-183.26 1396.16,-182.88"/>
<polygon fill="#63b8ff" stroke="#63b8ff" points="1396.49,-186.36 1406.09,-181.88 1395.79,-179.4 1396.49,-186.36"/>
</g>
<!-- Node26 -->
<g id="node26" class="node">
<title>Node26</title>
<g id="a_node26"><a xlink:href="Bullets_8hpp.html" target="_top" xlink:title=" ">
<polygon fill="white" stroke="#666666" points="1352,-184 1230,-184 1230,-165 1352,-165 1352,-184"/>
<text text-anchor="middle" x="1291" y="-172" font-family="Helvetica,sans-Serif" font-size="10.00">Components/Bullets.hpp</text>
</a>
</g>
</g>
<!-- Node2&#45;&gt;Node26 -->
<g id="edge36" class="edge">
<title>Node2&#45;&gt;Node26</title>
<path fill="none" stroke="#63b8ff" d="M997.38,-220.22C1055.04,-210.96 1151.78,-195.94 1218.41,-185.9"/>
<polygon fill="#63b8ff" stroke="#63b8ff" points="1218.79,-189.38 1228.16,-184.43 1217.75,-182.46 1218.79,-189.38"/>
</g>
<!-- Node28 -->
<g id="node28" class="node">
<title>Node28</title>
<g id="a_node28"><a xlink:href="Background_8hpp.html" target="_top" xlink:title=" ">
<polygon fill="white" stroke="#666666" points="591,-184 447,-184 447,-165 591,-165 591,-184"/>
<text text-anchor="middle" x="519" y="-172" font-family="Helvetica,sans-Serif" font-size="10.00">Components/Background.hpp</text>
</a>
</g>
</g>
<!-- Node2&#45;&gt;Node28 -->
<g id="edge40" class="edge">
<title>Node2&#45;&gt;Node28</title>
<path fill="none" stroke="#63b8ff" d="M900.71,-223.08C827.16,-214.36 686.49,-197.07 597.96,-185.91"/>
<polygon fill="#63b8ff" stroke="#63b8ff" points="598.49,-182.45 588.13,-184.67 597.61,-189.39 598.49,-182.45"/>
</g>
<!-- Node15&#45;&gt;Node2 -->
<g id="edge15" class="edge">
<title>Node15&#45;&gt;Node2</title>
<path fill="none" stroke="#63b8ff" d="M318.82,-181.81C324.98,-182.62 331.14,-183.38 337,-184 539.22,-205.54 779.63,-219.46 889.29,-225.32"/>
<polygon fill="#63b8ff" stroke="#63b8ff" points="889.07,-228.81 899.24,-225.85 889.44,-221.82 889.07,-228.81"/>
</g>
<!-- Node16&#45;&gt;Node2 -->
<g id="edge17" class="edge">
<title>Node16&#45;&gt;Node2</title>
<path fill="none" stroke="#63b8ff" d="M429.42,-181.64C435.37,-182.5 441.34,-183.32 447,-184 606.56,-203.26 795.11,-217.48 889.32,-224.19"/>
<polygon fill="#63b8ff" stroke="#63b8ff" points="888.88,-227.67 899.1,-224.89 889.37,-220.69 888.88,-227.67"/>
</g>
<!-- Node17 -->
<g id="node17" class="node">
<title>Node17</title>
<g id="a_node17"><a xlink:title=" ">
<polygon fill="#e0e0e0" stroke="#999999" points="424.5,-129 395.5,-129 395.5,-110 424.5,-110 424.5,-129"/>
<text text-anchor="middle" x="410" y="-117" font-family="Helvetica,sans-Serif" font-size="10.00">list</text>
</a>
</g>
</g>
<!-- Node16&#45;&gt;Node17 -->
<g id="edge18" class="edge">
<title>Node16&#45;&gt;Node17</title>
<path fill="none" stroke="#63b8ff" d="M387.46,-164.75C390.95,-157.88 395.95,-148.08 400.35,-139.45"/>
<polygon fill="#63b8ff" stroke="#63b8ff" points="403.34,-141.29 404.76,-130.79 397.1,-138.11 403.34,-141.29"/>
</g>
<!-- Node18 -->
<g id="node18" class="node">
<title>Node18</title>
<g id="a_node18"><a xlink:title=" ">
<polygon fill="#e0e0e0" stroke="#999999" points="377.5,-129 334.5,-129 334.5,-110 377.5,-110 377.5,-129"/>
<text text-anchor="middle" x="356" y="-117" font-family="Helvetica,sans-Serif" font-size="10.00">queue</text>
</a>
</g>
</g>
<!-- Node16&#45;&gt;Node18 -->
<g id="edge19" class="edge">
<title>Node16&#45;&gt;Node18</title>
<path fill="none" stroke="#63b8ff" d="M378.54,-164.75C375.05,-157.88 370.05,-148.08 365.65,-139.45"/>
<polygon fill="#63b8ff" stroke="#63b8ff" points="368.9,-138.11 361.24,-130.79 362.66,-141.29 368.9,-138.11"/>
</g>
<!-- Node19&#45;&gt;Node2 -->
<g id="edge21" class="edge">
<title>Node19&#45;&gt;Node2</title>
<path fill="none" stroke="#63b8ff" d="M1407.86,-183.51C1406.23,-183.68 1404.6,-183.84 1403,-184 1261.79,-198.21 1095.36,-214.81 1008.44,-223.15"/>
<polygon fill="#63b8ff" stroke="#63b8ff" points="1008.35,-219.64 998.73,-224.08 1009.02,-226.61 1008.35,-219.64"/>
</g>
<!-- Node20 -->
<g id="node20" class="node">
<title>Node20</title>
<g id="a_node20"><a xlink:href="IComponents_8hpp.html" target="_top" xlink:title=" ">
<polygon fill="white" stroke="#666666" points="1468,-129 1318,-129 1318,-110 1468,-110 1468,-129"/>
<text text-anchor="middle" x="1393" y="-117" font-family="Helvetica,sans-Serif" font-size="10.00">Components/IComponents.hpp</text>
</a>
</g>
</g>
<!-- Node19&#45;&gt;Node20 -->
<g id="edge22" class="edge">
<title>Node19&#45;&gt;Node20</title>
<path fill="none" stroke="#63b8ff" d="M1463.58,-164.51C1450.8,-156.54 1431.9,-144.75 1416.87,-135.38"/>
<polygon fill="#63b8ff" stroke="#63b8ff" points="1418.83,-132.48 1408.49,-130.16 1415.12,-138.42 1418.83,-132.48"/>
</g>
<!-- Node21 -->
<g id="node21" class="node">
<title>Node21</title>
<g id="a_node21"><a xlink:href="SparseArray_8hpp.html" target="_top" xlink:title=" ">
<polygon fill="white" stroke="#666666" points="1783.5,-129 1672.5,-129 1672.5,-110 1783.5,-110 1783.5,-129"/>
<text text-anchor="middle" x="1728" y="-117" font-family="Helvetica,sans-Serif" font-size="10.00">Utils/SparseArray.hpp</text>
</a>
</g>
</g>
<!-- Node19&#45;&gt;Node21 -->
<g id="edge24" class="edge">
<title>Node19&#45;&gt;Node21</title>
<path fill="none" stroke="#63b8ff" d="M1520.41,-164.51C1562.92,-155.5 1628.49,-141.6 1674.54,-131.83"/>
<polygon fill="#63b8ff" stroke="#63b8ff" points="1675.26,-135.26 1684.32,-129.76 1673.81,-128.41 1675.26,-135.26"/>
</g>
<!-- Node20&#45;&gt;Node2 -->
<g id="edge23" class="edge">
<title>Node20&#45;&gt;Node2</title>
<path fill="none" stroke="#63b8ff" d="M1391.36,-129.21C1388.22,-143.33 1379.88,-170.93 1361,-184 1305.39,-222.52 1109.16,-228.46 1008.91,-228.9"/>
<polygon fill="#63b8ff" stroke="#63b8ff" points="1008.97,-225.4 998.98,-228.92 1008.99,-232.4 1008.97,-225.4"/>
</g>
<!-- Node21&#45;&gt;Node8 -->
<g id="edge25" class="edge">
<title>Node21&#45;&gt;Node8</title>
<path fill="none" stroke="#63b8ff" d="M1672.29,-114.2C1441.45,-96.38 562.9,-28.56 367.62,-13.48"/>
<polygon fill="#63b8ff" stroke="#63b8ff" points="368.01,-10 357.77,-12.72 367.47,-16.98 368.01,-10"/>
</g>
<!-- Node21&#45;&gt;Node13 -->
<g id="edge28" class="edge">
<title>Node21&#45;&gt;Node13</title>
<path fill="none" stroke="#63b8ff" d="M1721.78,-109.66C1709.37,-92.02 1681.29,-52.12 1664.79,-28.67"/>
<polygon fill="#63b8ff" stroke="#63b8ff" points="1667.79,-26.86 1659.18,-20.7 1662.07,-30.89 1667.79,-26.86"/>
</g>
<!-- Node22 -->
<g id="node22" class="node">
<title>Node22</title>
<g id="a_node22"><a xlink:title=" ">
<polygon fill="#e0e0e0" stroke="#999999" points="1834,-19 1778,-19 1778,0 1834,0 1834,-19"/>
<text text-anchor="middle" x="1806" y="-7" font-family="Helvetica,sans-Serif" font-size="10.00">algorithm</text>
</a>
</g>
</g>
<!-- Node21&#45;&gt;Node22 -->
<g id="edge26" class="edge">
<title>Node21&#45;&gt;Node22</title>
<path fill="none" stroke="#63b8ff" d="M1783.97,-112.16C1808.13,-106.33 1834.21,-95.2 1849,-74 1860.27,-57.84 1844.15,-39.15 1828.53,-26.25"/>
<polygon fill="#63b8ff" stroke="#63b8ff" points="1830.87,-23.63 1820.81,-20.31 1826.6,-29.18 1830.87,-23.63"/>
</g>
<!-- Node23 -->
<g id="node23" class="node">
<title>Node23</title>
<g id="a_node23"><a xlink:title=" ">
<polygon fill="#e0e0e0" stroke="#999999" points="1913,-19 1875,-19 1875,0 1913,0 1913,-19"/>
<text text-anchor="middle" x="1894" y="-7" font-family="Helvetica,sans-Serif" font-size="10.00">array</text>
</a>
</g>
</g>
<!-- Node21&#45;&gt;Node23 -->
<g id="edge27" class="edge">
<title>Node21&#45;&gt;Node23</title>
<path fill="none" stroke="#63b8ff" d="M1783.77,-110.79C1810.62,-104.64 1841.74,-93.64 1864,-74 1877.01,-62.52 1884.83,-44.18 1889.2,-30.16"/>
<polygon fill="#63b8ff" stroke="#63b8ff" points="1892.53,-31.25 1891.81,-20.68 1885.78,-29.4 1892.53,-31.25"/>
</g>
<!-- Node24 -->
<g id="node24" class="node">
<title>Node24</title>
<g id="a_node24"><a xlink:title=" ">
<polygon fill="#e0e0e0" stroke="#999999" points="1749.5,-19 1710.5,-19 1710.5,0 1749.5,0 1749.5,-19"/>
<text text-anchor="middle" x="1730" y="-7" font-family="Helvetica,sans-Serif" font-size="10.00">utility</text>
</a>
</g>
</g>
<!-- Node21&#45;&gt;Node24 -->
<g id="edge29" class="edge">
<title>Node21&#45;&gt;Node24</title>
<path fill="none" stroke="#63b8ff" d="M1728.16,-109.66C1728.48,-92.57 1729.18,-54.61 1729.62,-30.92"/>
<polygon fill="#63b8ff" stroke="#63b8ff" points="1733.12,-31.04 1729.81,-20.97 1726.12,-30.91 1733.12,-31.04"/>
</g>
<!-- Node25 -->
<g id="node25" class="node">
<title>Node25</title>
<g id="a_node25"><a xlink:href="Vectors_8hpp.html" target="_top" xlink:title=" ">
<polygon fill="white" stroke="#666666" points="1840,-74 1748,-74 1748,-55 1840,-55 1840,-74"/>
<text text-anchor="middle" x="1794" y="-62" font-family="Helvetica,sans-Serif" font-size="10.00">Utils/Vectors.hpp</text>
</a>
</g>
</g>
<!-- Node21&#45;&gt;Node25 -->
<g id="edge30" class="edge">
<title>Node21&#45;&gt;Node25</title>
<path fill="none" stroke="#63b8ff" d="M1739.2,-109.51C1748.74,-101.85 1762.67,-90.66 1774.11,-81.47"/>
<polygon fill="#63b8ff" stroke="#63b8ff" points="1776.18,-84.3 1781.79,-75.31 1771.8,-78.84 1776.18,-84.3"/>
</g>
<!-- Node25&#45;&gt;Node8 -->
<g id="edge31" class="edge">
<title>Node25&#45;&gt;Node8</title>
<path fill="none" stroke="#63b8ff" d="M1747.74,-61.83C1525.75,-53.8 572.16,-19.3 367.69,-11.9"/>
<polygon fill="#63b8ff" stroke="#63b8ff" points="368.01,-8.41 357.89,-11.55 367.76,-15.4 368.01,-8.41"/>
</g>
<!-- Node25&#45;&gt;Node13 -->
<g id="edge34" class="edge">
<title>Node25&#45;&gt;Node13</title>
<path fill="none" stroke="#63b8ff" d="M1769.91,-54.51C1746.51,-45.77 1710.8,-32.45 1684.81,-22.75"/>
<polygon fill="#63b8ff" stroke="#63b8ff" points="1686.34,-19.58 1675.75,-19.36 1683.89,-26.14 1686.34,-19.58"/>
</g>
<!-- Node25&#45;&gt;Node22 -->
<g id="edge32" class="edge">
<title>Node25&#45;&gt;Node22</title>
<path fill="none" stroke="#63b8ff" d="M1795.98,-54.75C1797.47,-48.19 1799.56,-38.95 1801.45,-30.6"/>
<polygon fill="#63b8ff" stroke="#63b8ff" points="1804.85,-31.44 1803.64,-20.92 1798.02,-29.9 1804.85,-31.44"/>
</g>
<!-- Node25&#45;&gt;Node23 -->
<g id="edge33" class="edge">
<title>Node25&#45;&gt;Node23</title>
<path fill="none" stroke="#63b8ff" d="M1810.96,-54.51C1826.36,-46.35 1849.31,-34.19 1867.19,-24.71"/>
<polygon fill="#63b8ff" stroke="#63b8ff" points="1868.75,-27.84 1875.95,-20.07 1865.47,-21.66 1868.75,-27.84"/>
</g>
<!-- Node25&#45;&gt;Node24 -->
<g id="edge35" class="edge">
<title>Node25&#45;&gt;Node24</title>
<path fill="none" stroke="#63b8ff" d="M1783.14,-54.51C1773.89,-46.85 1760.38,-35.66 1749.29,-26.47"/>
<polygon fill="#63b8ff" stroke="#63b8ff" points="1751.8,-24.01 1741.86,-20.32 1747.33,-29.4 1751.8,-24.01"/>
</g>
<!-- Node26&#45;&gt;Node2 -->
<g id="edge37" class="edge">
<title>Node26&#45;&gt;Node2</title>
<path fill="none" stroke="#63b8ff" d="M1238.26,-184.48C1176.18,-194.42 1073.52,-210.33 1008.62,-220.05"/>
<polygon fill="#63b8ff" stroke="#63b8ff" points="1008.22,-216.57 998.85,-221.51 1009.25,-223.5 1008.22,-216.57"/>
</g>
<!-- Node26&#45;&gt;Node20 -->
<g id="edge38" class="edge">
<title>Node26&#45;&gt;Node20</title>
<path fill="none" stroke="#63b8ff" d="M1308.3,-164.51C1324.08,-156.31 1347.64,-144.07 1365.91,-134.58"/>
<polygon fill="#63b8ff" stroke="#63b8ff" points="1367.35,-137.77 1374.61,-130.06 1364.12,-131.56 1367.35,-137.77"/>
</g>
<!-- Node27 -->
<g id="node27" class="node">
<title>Node27</title>
<g id="a_node27"><a xlink:title=" ">
<polygon fill="#e0e0e0" stroke="#999999" points="1300,-129 1254,-129 1254,-110 1300,-110 1300,-129"/>
<text text-anchor="middle" x="1277" y="-117" font-family="Helvetica,sans-Serif" font-size="10.00">math.h</text>
</a>
</g>
</g>
<!-- Node26&#45;&gt;Node27 -->
<g id="edge39" class="edge">
<title>Node26&#45;&gt;Node27</title>
<path fill="none" stroke="#63b8ff" d="M1288.69,-164.75C1286.94,-158.11 1284.46,-148.73 1282.23,-140.31"/>
<polygon fill="#63b8ff" stroke="#63b8ff" points="1285.69,-139.68 1279.75,-130.91 1278.92,-141.47 1285.69,-139.68"/>
</g>
<!-- Node28&#45;&gt;Node2 -->
<g id="edge41" class="edge">
<title>Node28&#45;&gt;Node2</title>
<path fill="none" stroke="#63b8ff" d="M591.37,-183.8C675.31,-193.86 811.96,-210.71 889.84,-220.59"/>
<polygon fill="#63b8ff" stroke="#63b8ff" points="889.02,-224.02 899.39,-221.81 889.91,-217.08 889.02,-224.02"/>
</g>
</g>
</svg>
