<?xml version="1.0" encoding="UTF-8" standalone="no"?>
<!DOCTYPE svg PUBLIC "-//W3C//DTD SVG 1.1//EN"
 "http://www.w3.org/Graphics/SVG/1.1/DTD/svg11.dtd">
<!-- Generated by graphviz version 7.0.5 (20221223.1930)
 -->
<!-- Title: /github/workspace/client/src/Error.cpp Pages: 1 -->
<!--zoomable 258 -->
<svg id="main" version="1.1" xmlns="http://www.w3.org/2000/svg" xmlns:xlink="http://www.w3.org/1999/xlink" xml:space="preserve" onload="init(evt)">
<style type="text/css"><![CDATA[
.edge:hover path { stroke: red; }
.edge:hover polygon { stroke: red; fill: red; }
]]></style>
<script type="text/javascript"><![CDATA[
var edges = document.getElementsByTagName('g');
if (edges && edges.length) {
  for (var i=0;i<edges.length;i++) {
    if (edges[i].id.substr(0,4)=='edge') {
      edges[i].setAttribute('class','edge');
    }
  }
}
]]></script>
        <defs>
                <circle id="rim" cx="0" cy="0" r="7"/>
                <circle id="rim2" cx="0" cy="0" r="3.5"/>
                <g id="zoomPlus">
                        <use xlink:href="#rim" fill="#404040">
                                <set attributeName="fill" to="#808080" begin="zoomplus.mouseover" end="zoomplus.mouseout"/>
                        </use>
                        <path d="M-4,0h8M0,-4v8" fill="none" stroke="white" stroke-width="1.5" pointer-events="none"/>
                </g>
                <g id="zoomMin">
                        <use xlink:href="#rim" fill="#404040">
                                <set attributeName="fill" to="#808080" begin="zoomminus.mouseover" end="zoomminus.mouseout"/>
                        </use>
                        <path d="M-4,0h8" fill="none" stroke="white" stroke-width="1.5" pointer-events="none"/>
                </g>
                <g id="dirArrow">
                        <path fill="none" stroke="white" stroke-width="1.5" d="M0,-3.0v7 M-2.5,-0.5L0,-3.0L2.5,-0.5"/>
                </g>
               <g id="resetDef">
                       <use xlink:href="#rim2" fill="#404040">
                               <set attributeName="fill" to="#808080" begin="reset.mouseover" end="reset.mouseout"/>
                       </use>
               </g>
        </defs>

<script type="text/javascript">
var viewWidth = 2113;
var viewHeight = 258;
var sectionId = 'dynsection-0';
</script>
<script xlink:href="svgpan.js"/>
<svg id="graph" class="graph">
<g id="viewport">
<title>/github/workspace/client/src/Error.cpp</title>
<!-- Node1 -->
<g id="node1" class="node">
<title>Node1</title>
<g id="a_node1"><a xlink:title=" ">
<polygon fill="#999999" stroke="#666666" points="1928,-250 1806,-250 1806,-220 1928,-220 1928,-250"/>
<text text-anchor="start" x="1814" y="-238" font-family="Helvetica,sans-Serif" font-size="10.00">/github/workspace/client</text>
<text text-anchor="middle" x="1867" y="-227" font-family="Helvetica,sans-Serif" font-size="10.00">/src/Error.cpp</text>
</a>
</g>
</g>
<!-- Node2 -->
<g id="node2" class="node">
<title>Node2</title>
<g id="a_node2"><a xlink:href="Error_8hpp.html" target="_top" xlink:title=" ">
<polygon fill="white" stroke="#666666" points="1910.5,-184 1823.5,-184 1823.5,-165 1910.5,-165 1910.5,-184"/>
<text text-anchor="middle" x="1867" y="-172" font-family="Helvetica,sans-Serif" font-size="10.00">Engine/Error.hpp</text>
</a>
</g>
</g>
<!-- Node1&#45;&gt;Node2 -->
<g id="edge1" class="edge">
<title>Node1&#45;&gt;Node2</title>
<path fill="none" stroke="#63b8ff" d="M1867,-219.54C1867,-212.34 1867,-203.53 1867,-195.68"/>
<polygon fill="#63b8ff" stroke="#63b8ff" points="1870.5,-195.69 1867,-185.69 1863.5,-195.69 1870.5,-195.69"/>
</g>
<!-- Node3 -->
<g id="node3" class="node">
<title>Node3</title>
<g id="a_node3"><a xlink:href="Engine_8hpp.html" target="_top" xlink:title=" ">
<polygon fill="white" stroke="#666666" points="937,-129 873,-129 873,-110 937,-110 937,-129"/>
<text text-anchor="middle" x="905" y="-117" font-family="Helvetica,sans-Serif" font-size="10.00">Engine.hpp</text>
</a>
</g>
</g>
<!-- Node2&#45;&gt;Node3 -->
<g id="edge2" class="edge">
<title>Node2&#45;&gt;Node3</title>
<path fill="none" stroke="#63b8ff" d="M1823.17,-171.08C1662.69,-162.24 1108.31,-131.7 948.46,-122.89"/>
<polygon fill="#63b8ff" stroke="#63b8ff" points="948.9,-119.41 938.72,-122.36 948.52,-126.4 948.9,-119.41"/>
</g>
<!-- Node9 -->
<g id="node9" class="node">
<title>Node9</title>
<g id="a_node9"><a xlink:title=" ">
<polygon fill="#e0e0e0" stroke="#999999" points="54,-74 0,-74 0,-55 54,-55 54,-74"/>
<text text-anchor="middle" x="27" y="-62" font-family="Helvetica,sans-Serif" font-size="10.00">iostream</text>
</a>
</g>
</g>
<!-- Node2&#45;&gt;Node9 -->
<g id="edge37" class="edge">
<title>Node2&#45;&gt;Node9</title>
<path fill="none" stroke="#63b8ff" d="M1823.33,-172.84C1613.95,-169.56 711.41,-154.21 431,-129 269.83,-114.51 227.21,-105.64 65.31,-74.33"/>
<polygon fill="#63b8ff" stroke="#63b8ff" points="66.44,-70.98 55.95,-72.52 65.11,-77.86 66.44,-70.98"/>
</g>
<!-- Node10 -->
<g id="node10" class="node">
<title>Node10</title>
<g id="a_node10"><a xlink:title=" ">
<polygon fill="#e0e0e0" stroke="#999999" points="122,-74 72,-74 72,-55 122,-55 122,-74"/>
<text text-anchor="middle" x="97" y="-62" font-family="Helvetica,sans-Serif" font-size="10.00">fstream</text>
</a>
</g>
</g>
<!-- Node2&#45;&gt;Node10 -->
<g id="edge40" class="edge">
<title>Node2&#45;&gt;Node10</title>
<path fill="none" stroke="#63b8ff" d="M1823.47,-172.04C1683.91,-167.28 1235.04,-151.15 864,-129 541.55,-109.75 455.45,-125.66 133.22,-74.08"/>
<polygon fill="#63b8ff" stroke="#63b8ff" points="134.08,-70.67 123.65,-72.54 132.96,-77.58 134.08,-70.67"/>
</g>
<!-- Node14 -->
<g id="node14" class="node">
<title>Node14</title>
<g id="a_node14"><a xlink:title=" ">
<polygon fill="#e0e0e0" stroke="#999999" points="1758,-19 1714,-19 1714,0 1758,0 1758,-19"/>
<text text-anchor="middle" x="1736" y="-7" font-family="Helvetica,sans-Serif" font-size="10.00">vector</text>
</a>
</g>
</g>
<!-- Node2&#45;&gt;Node14 -->
<g id="edge39" class="edge">
<title>Node2&#45;&gt;Node14</title>
<path fill="none" stroke="#63b8ff" d="M1874.92,-164.52C1892.58,-143.36 1931.64,-89.57 1905,-55 1888.63,-33.76 1814.27,-20.63 1769.82,-14.54"/>
<polygon fill="#63b8ff" stroke="#63b8ff" points="1770.29,-11.08 1759.92,-13.24 1769.38,-18.02 1770.29,-11.08"/>
</g>
<!-- Node15 -->
<g id="node15" class="node">
<title>Node15</title>
<g id="a_node15"><a xlink:title=" ">
<polygon fill="#e0e0e0" stroke="#999999" points="1820,-74 1764,-74 1764,-55 1820,-55 1820,-74"/>
<text text-anchor="middle" x="1792" y="-62" font-family="Helvetica,sans-Serif" font-size="10.00">stdbool.h</text>
</a>
</g>
</g>
<!-- Node2&#45;&gt;Node15 -->
<g id="edge43" class="edge">
<title>Node2&#45;&gt;Node15</title>
<path fill="none" stroke="#63b8ff" d="M1860.86,-164.66C1848.61,-147.02 1820.91,-107.12 1804.62,-83.67"/>
<polygon fill="#63b8ff" stroke="#63b8ff" points="1807.66,-81.92 1799.09,-75.7 1801.91,-85.91 1807.66,-81.92"/>
</g>
<!-- Node17 -->
<g id="node17" class="node">
<title>Node17</title>
<g id="a_node17"><a xlink:title=" ">
<polygon fill="#e0e0e0" stroke="#999999" points="1896,-74 1838,-74 1838,-55 1896,-55 1896,-74"/>
<text text-anchor="middle" x="1867" y="-62" font-family="Helvetica,sans-Serif" font-size="10.00">exception</text>
</a>
</g>
</g>
<!-- Node2&#45;&gt;Node17 -->
<g id="edge36" class="edge">
<title>Node2&#45;&gt;Node17</title>
<path fill="none" stroke="#63b8ff" d="M1867,-164.66C1867,-147.57 1867,-109.61 1867,-85.92"/>
<polygon fill="#63b8ff" stroke="#63b8ff" points="1870.5,-85.97 1867,-75.97 1863.5,-85.97 1870.5,-85.97"/>
</g>
<!-- Node29 -->
<g id="node29" class="node">
<title>Node29</title>
<g id="a_node29"><a xlink:title=" ">
<polygon fill="#e0e0e0" stroke="#999999" points="1983.5,-129 1942.5,-129 1942.5,-110 1983.5,-110 1983.5,-129"/>
<text text-anchor="middle" x="1963" y="-117" font-family="Helvetica,sans-Serif" font-size="10.00">string</text>
</a>
</g>
</g>
<!-- Node2&#45;&gt;Node29 -->
<g id="edge38" class="edge">
<title>Node2&#45;&gt;Node29</title>
<path fill="none" stroke="#63b8ff" d="M1883.29,-164.51C1897.99,-156.39 1919.89,-144.3 1937.02,-134.85"/>
<polygon fill="#63b8ff" stroke="#63b8ff" points="1938.57,-137.99 1945.63,-130.09 1935.18,-131.86 1938.57,-137.99"/>
</g>
<!-- Node30 -->
<g id="node30" class="node">
<title>Node30</title>
<g id="a_node30"><a xlink:title=" ">
<polygon fill="#e0e0e0" stroke="#999999" points="2046.5,-129 2001.5,-129 2001.5,-110 2046.5,-110 2046.5,-129"/>
<text text-anchor="middle" x="2024" y="-117" font-family="Helvetica,sans-Serif" font-size="10.00">iosfwd</text>
</a>
</g>
</g>
<!-- Node2&#45;&gt;Node30 -->
<g id="edge41" class="edge">
<title>Node2&#45;&gt;Node30</title>
<path fill="none" stroke="#63b8ff" d="M1893.63,-164.51C1920.36,-155.49 1961.59,-141.57 1990.52,-131.8"/>
<polygon fill="#63b8ff" stroke="#63b8ff" points="1991.53,-135.16 1999.89,-128.64 1989.29,-128.52 1991.53,-135.16"/>
</g>
<!-- Node31 -->
<g id="node31" class="node">
<title>Node31</title>
<g id="a_node31"><a xlink:title=" ">
<polygon fill="#e0e0e0" stroke="#999999" points="2105,-129 2065,-129 2065,-110 2105,-110 2105,-129"/>
<text text-anchor="middle" x="2085" y="-117" font-family="Helvetica,sans-Serif" font-size="10.00">regex</text>
</a>
</g>
</g>
<!-- Node2&#45;&gt;Node31 -->
<g id="edge42" class="edge">
<title>Node2&#45;&gt;Node31</title>
<path fill="none" stroke="#63b8ff" d="M1907.71,-164.58C1943.77,-156.53 1998.08,-144.05 2053.94,-129.44"/>
<polygon fill="#63b8ff" stroke="#63b8ff" points="2054.52,-132.9 2063.29,-126.97 2052.73,-126.14 2054.52,-132.9"/>
</g>
<!-- Node4 -->
<g id="node4" class="node">
<title>Node4</title>
<g id="a_node4"><a xlink:title=" ">
<polygon fill="#e0e0e0" stroke="#999999" points="1465.5,-74 1376.5,-74 1376.5,-55 1465.5,-55 1465.5,-74"/>
<text text-anchor="middle" x="1421" y="-62" font-family="Helvetica,sans-Serif" font-size="10.00">SFML/Audio.hpp</text>
</a>
</g>
</g>
<!-- Node3&#45;&gt;Node4 -->
<g id="edge3" class="edge">
<title>Node3&#45;&gt;Node4</title>
<path fill="none" stroke="#63b8ff" d="M937.28,-116.06C1011.01,-110.35 1197.68,-95.08 1364.99,-74.18"/>
<polygon fill="#63b8ff" stroke="#63b8ff" points="1365.25,-77.67 1374.74,-72.95 1364.38,-70.73 1365.25,-77.67"/>
</g>
<!-- Node5 -->
<g id="node5" class="node">
<title>Node5</title>
<g id="a_node5"><a xlink:title=" ">
<polygon fill="#e0e0e0" stroke="#999999" points="1588,-74 1484,-74 1484,-55 1588,-55 1588,-74"/>
<text text-anchor="middle" x="1536" y="-62" font-family="Helvetica,sans-Serif" font-size="10.00">SFML/Graphics.hpp</text>
</a>
</g>
</g>
<!-- Node3&#45;&gt;Node5 -->
<g id="edge4" class="edge">
<title>Node3&#45;&gt;Node5</title>
<path fill="none" stroke="#63b8ff" d="M937.2,-116.67C1022.6,-111.68 1262.11,-96.72 1472.52,-74.2"/>
<polygon fill="#63b8ff" stroke="#63b8ff" points="1472.71,-77.7 1482.28,-73.15 1471.96,-70.74 1472.71,-77.7"/>
</g>
<!-- Node6 -->
<g id="node6" class="node">
<title>Node6</title>
<g id="a_node6"><a xlink:title=" ">
<polygon fill="#e0e0e0" stroke="#999999" points="1707.5,-74 1606.5,-74 1606.5,-55 1707.5,-55 1707.5,-74"/>
<text text-anchor="middle" x="1657" y="-62" font-family="Helvetica,sans-Serif" font-size="10.00">SFML/Network.hpp</text>
</a>
</g>
</g>
<!-- Node3&#45;&gt;Node6 -->
<g id="edge5" class="edge">
<title>Node3&#45;&gt;Node6</title>
<path fill="none" stroke="#63b8ff" d="M937.5,-117.29C1035.21,-113.48 1335.06,-100.42 1595.11,-74.1"/>
<polygon fill="#63b8ff" stroke="#63b8ff" points="1595.2,-77.61 1604.79,-73.12 1594.48,-70.65 1595.2,-77.61"/>
</g>
<!-- Node7 -->
<g id="node7" class="node">
<title>Node7</title>
<g id="a_node7"><a xlink:title=" ">
<polygon fill="#e0e0e0" stroke="#999999" points="239.5,-74 140.5,-74 140.5,-55 239.5,-55 239.5,-74"/>
<text text-anchor="middle" x="190" y="-62" font-family="Helvetica,sans-Serif" font-size="10.00">SFML/Window.hpp</text>
</a>
</g>
</g>
<!-- Node3&#45;&gt;Node7 -->
<g id="edge6" class="edge">
<title>Node3&#45;&gt;Node7</title>
<path fill="none" stroke="#63b8ff" d="M872.5,-117.16C778.24,-113.1 496.38,-99.67 251.14,-74.14"/>
<polygon fill="#63b8ff" stroke="#63b8ff" points="251.68,-70.68 241.37,-73.11 250.94,-77.64 251.68,-70.68"/>
</g>
<!-- Node8 -->
<g id="node8" class="node">
<title>Node8</title>
<g id="a_node8"><a xlink:title=" ">
<polygon fill="#e0e0e0" stroke="#999999" points="356,-74 258,-74 258,-55 356,-55 356,-74"/>
<text text-anchor="middle" x="307" y="-62" font-family="Helvetica,sans-Serif" font-size="10.00">SFML/System.hpp</text>
</a>
</g>
</g>
<!-- Node3&#45;&gt;Node8 -->
<g id="edge7" class="edge">
<title>Node3&#45;&gt;Node8</title>
<path fill="none" stroke="#63b8ff" d="M872.67,-116.55C790.3,-111.44 565.6,-96.53 367.54,-74.22"/>
<polygon fill="#63b8ff" stroke="#63b8ff" points="368.17,-70.77 357.84,-73.12 367.38,-77.72 368.17,-70.77"/>
</g>
<!-- Node3&#45;&gt;Node9 -->
<g id="edge8" class="edge">
<title>Node3&#45;&gt;Node9</title>
<path fill="none" stroke="#63b8ff" d="M872.68,-118.87C761.56,-119.69 384.96,-118.87 65.75,-74.12"/>
<polygon fill="#63b8ff" stroke="#63b8ff" points="66.31,-70.66 55.92,-72.72 65.33,-77.59 66.31,-70.66"/>
</g>
<!-- Node3&#45;&gt;Node10 -->
<g id="edge9" class="edge">
<title>Node3&#45;&gt;Node10</title>
<path fill="none" stroke="#63b8ff" d="M872.51,-117.45C747.71,-113.27 298.35,-97.08 133.08,-73.95"/>
<polygon fill="#63b8ff" stroke="#63b8ff" points="134.04,-70.55 123.64,-72.56 133.03,-77.48 134.04,-70.55"/>
</g>
<!-- Node11 -->
<g id="node11" class="node">
<title>Node11</title>
<g id="a_node11"><a xlink:title=" ">
<polygon fill="#e0e0e0" stroke="#999999" points="422,-74 374,-74 374,-55 422,-55 422,-74"/>
<text text-anchor="middle" x="398" y="-62" font-family="Helvetica,sans-Serif" font-size="10.00">string.h</text>
</a>
</g>
</g>
<!-- Node3&#45;&gt;Node11 -->
<g id="edge10" class="edge">
<title>Node3&#45;&gt;Node11</title>
<path fill="none" stroke="#63b8ff" d="M872.58,-117.23C797.16,-113.89 604.01,-103.19 433.6,-74.19"/>
<polygon fill="#63b8ff" stroke="#63b8ff" points="434.36,-70.76 423.91,-72.51 433.16,-77.66 434.36,-70.76"/>
</g>
<!-- Node12 -->
<g id="node12" class="node">
<title>Node12</title>
<g id="a_node12"><a xlink:title=" ">
<polygon fill="#e0e0e0" stroke="#999999" points="490,-74 440,-74 440,-55 490,-55 490,-74"/>
<text text-anchor="middle" x="465" y="-62" font-family="Helvetica,sans-Serif" font-size="10.00">unistd.h</text>
</a>
</g>
</g>
<!-- Node3&#45;&gt;Node12 -->
<g id="edge11" class="edge">
<title>Node3&#45;&gt;Node12</title>
<path fill="none" stroke="#63b8ff" d="M872.68,-116.46C805.4,-111.88 645.26,-99.33 501.38,-74.19"/>
<polygon fill="#63b8ff" stroke="#63b8ff" points="502.12,-70.76 491.66,-72.46 500.89,-77.66 502.12,-70.76"/>
</g>
<!-- Node13 -->
<g id="node13" class="node">
<title>Node13</title>
<g id="a_node13"><a xlink:title=" ">
<polygon fill="#e0e0e0" stroke="#999999" points="573.5,-74 508.5,-74 508.5,-55 573.5,-55 573.5,-74"/>
<text text-anchor="middle" x="541" y="-62" font-family="Helvetica,sans-Serif" font-size="10.00">sys/types.h</text>
</a>
</g>
</g>
<!-- Node3&#45;&gt;Node13 -->
<g id="edge12" class="edge">
<title>Node3&#45;&gt;Node13</title>
<path fill="none" stroke="#63b8ff" d="M872.54,-114.37C815.07,-106.97 691.71,-90.65 588,-74 587,-73.84 585.98,-73.67 584.96,-73.51"/>
<polygon fill="#63b8ff" stroke="#63b8ff" points="585.78,-70.09 575.33,-71.86 584.6,-77 585.78,-70.09"/>
</g>
<!-- Node3&#45;&gt;Node14 -->
<g id="edge13" class="edge">
<title>Node3&#45;&gt;Node14</title>
<path fill="none" stroke="#63b8ff" d="M937.46,-118.89C1081.07,-120.31 1654.97,-122.88 1717,-74 1730,-63.75 1734.39,-44.97 1735.74,-30.48"/>
<polygon fill="#63b8ff" stroke="#63b8ff" points="1739.23,-30.84 1736.21,-20.69 1732.24,-30.51 1739.23,-30.84"/>
</g>
<!-- Node3&#45;&gt;Node15 -->
<g id="edge14" class="edge">
<title>Node3&#45;&gt;Node15</title>
<path fill="none" stroke="#63b8ff" d="M937.39,-118.5C1050.06,-118.16 1435.21,-113.92 1750,-74 1750.83,-73.89 1751.67,-73.78 1752.51,-73.66"/>
<polygon fill="#63b8ff" stroke="#63b8ff" points="1752.84,-77.16 1762.13,-72.08 1751.7,-70.25 1752.84,-77.16"/>
</g>
<!-- Node16 -->
<g id="node16" class="node">
<title>Node16</title>
<g id="a_node16"><a xlink:title=" ">
<polygon fill="#e0e0e0" stroke="#999999" points="695.5,-74 648.5,-74 648.5,-55 695.5,-55 695.5,-74"/>
<text text-anchor="middle" x="672" y="-62" font-family="Helvetica,sans-Serif" font-size="10.00">stdlib.h</text>
</a>
</g>
</g>
<!-- Node3&#45;&gt;Node16 -->
<g id="edge15" class="edge">
<title>Node3&#45;&gt;Node16</title>
<path fill="none" stroke="#63b8ff" d="M872.71,-111.66C835.27,-103.66 771.45,-89.78 706.96,-74.4"/>
<polygon fill="#63b8ff" stroke="#63b8ff" points="707.78,-71 697.24,-72.08 706.15,-77.81 707.78,-71"/>
</g>
<!-- Node3&#45;&gt;Node17 -->
<g id="edge16" class="edge">
<title>Node3&#45;&gt;Node17</title>
<path fill="none" stroke="#63b8ff" d="M937.1,-118.94C1054.7,-120.15 1473.12,-120.79 1826.41,-74.1"/>
<polygon fill="#63b8ff" stroke="#63b8ff" points="1826.68,-77.59 1836.13,-72.79 1825.76,-70.65 1826.68,-77.59"/>
</g>
<!-- Node18 -->
<g id="node18" class="node">
<title>Node18</title>
<g id="a_node18"><a xlink:href="Window_8hpp.html" target="_top" xlink:title=" ">
<polygon fill="white" stroke="#666666" points="661.5,-19 560.5,-19 560.5,0 661.5,0 661.5,-19"/>
<text text-anchor="middle" x="611" y="-7" font-family="Helvetica,sans-Serif" font-size="10.00">Engine/Window.hpp</text>
</a>
</g>
</g>
<!-- Node3&#45;&gt;Node18 -->
<g id="edge17" class="edge">
<title>Node3&#45;&gt;Node18</title>
<path fill="none" stroke="#63b8ff" d="M872.98,-117.17C808.53,-113.73 666.97,-102.73 630,-74 616.31,-63.36 609.17,-44.63 607.13,-30.26"/>
<polygon fill="#63b8ff" stroke="#63b8ff" points="610.64,-30.4 606.69,-20.57 603.65,-30.72 610.64,-30.4"/>
</g>
<!-- Node19 -->
<g id="node19" class="node">
<title>Node19</title>
<g id="a_node19"><a xlink:href="Draw_8hpp.html" target="_top" xlink:title=" ">
<polygon fill="white" stroke="#666666" points="949.5,-74 860.5,-74 860.5,-55 949.5,-55 949.5,-74"/>
<text text-anchor="middle" x="905" y="-62" font-family="Helvetica,sans-Serif" font-size="10.00">Engine/Draw.hpp</text>
</a>
</g>
</g>
<!-- Node3&#45;&gt;Node19 -->
<g id="edge19" class="edge">
<title>Node3&#45;&gt;Node19</title>
<path fill="none" stroke="#63b8ff" d="M899.83,-109.75C898.42,-103.19 897.96,-93.95 898.43,-85.6"/>
<polygon fill="#63b8ff" stroke="#63b8ff" points="901.87,-86.3 899.61,-75.94 894.92,-85.45 901.87,-86.3"/>
</g>
<!-- Node20 -->
<g id="node20" class="node">
<title>Node20</title>
<g id="a_node20"><a xlink:href="Event_8hpp.html" target="_top" xlink:title=" ">
<polygon fill="white" stroke="#666666" points="1200,-74 1108,-74 1108,-55 1200,-55 1200,-74"/>
<text text-anchor="middle" x="1154" y="-62" font-family="Helvetica,sans-Serif" font-size="10.00">Engine/Event.hpp</text>
</a>
</g>
</g>
<!-- Node3&#45;&gt;Node20 -->
<g id="edge21" class="edge">
<title>Node3&#45;&gt;Node20</title>
<path fill="none" stroke="#63b8ff" d="M937.3,-110.57C977.59,-101.54 1046.94,-86.73 1096.39,-76.57"/>
<polygon fill="#63b8ff" stroke="#63b8ff" points="1096.98,-80.02 1106.07,-74.59 1095.57,-73.16 1096.98,-80.02"/>
</g>
<!-- Node24 -->
<g id="node24" class="node">
<title>Node24</title>
<g id="a_node24"><a xlink:href="StateManager_8hpp.html" target="_top" xlink:title=" ">
<polygon fill="white" stroke="#666666" points="842,-74 714,-74 714,-55 842,-55 842,-74"/>
<text text-anchor="middle" x="778" y="-62" font-family="Helvetica,sans-Serif" font-size="10.00">Engine/StateManager.hpp</text>
</a>
</g>
</g>
<!-- Node3&#45;&gt;Node24 -->
<g id="edge26" class="edge">
<title>Node3&#45;&gt;Node24</title>
<path fill="none" stroke="#63b8ff" d="M878.24,-109.51C856.48,-101.16 826.16,-88.61 804.49,-79.05"/>
<polygon fill="#63b8ff" stroke="#63b8ff" points="805.97,-75.88 795.42,-74.98 803.11,-82.26 805.97,-75.88"/>
</g>
<!-- Node25 -->
<g id="node25" class="node">
<title>Node25</title>
<g id="a_node25"><a xlink:href="EntitiesManager_8hpp.html" target="_top" xlink:title=" ">
<polygon fill="white" stroke="#666666" points="1358,-74 1218,-74 1218,-55 1358,-55 1358,-74"/>
<text text-anchor="middle" x="1288" y="-62" font-family="Helvetica,sans-Serif" font-size="10.00">Entities/EntitiesManager.hpp</text>
</a>
</g>
</g>
<!-- Node3&#45;&gt;Node25 -->
<g id="edge29" class="edge">
<title>Node3&#45;&gt;Node25</title>
<path fill="none" stroke="#63b8ff" d="M937.21,-113.47C996.15,-104.91 1122.62,-87.34 1206.54,-76.01"/>
<polygon fill="#63b8ff" stroke="#63b8ff" points="1206.88,-79.5 1216.33,-74.69 1205.95,-72.56 1206.88,-79.5"/>
</g>
<!-- Node27 -->
<g id="node27" class="node">
<title>Node27</title>
<g id="a_node27"><a xlink:href="Bullets_8hpp.html" target="_top" xlink:title=" ">
<polygon fill="white" stroke="#666666" points="1090,-74 968,-74 968,-55 1090,-55 1090,-74"/>
<text text-anchor="middle" x="1029" y="-62" font-family="Helvetica,sans-Serif" font-size="10.00">Components/Bullets.hpp</text>
</a>
</g>
</g>
<!-- Node3&#45;&gt;Node27 -->
<g id="edge33" class="edge">
<title>Node3&#45;&gt;Node27</title>
<path fill="none" stroke="#63b8ff" d="M920.82,-109.51C938.93,-101.01 968.78,-88.15 992.62,-78.53"/>
<polygon fill="#63b8ff" stroke="#63b8ff" points="993.68,-81.87 1001.68,-74.92 991.1,-75.37 993.68,-81.87"/>
</g>
<!-- Node18&#45;&gt;Node3 -->
<g id="edge18" class="edge">
<title>Node18&#45;&gt;Node3</title>
<path fill="none" stroke="#63b8ff" d="M617.71,-19.06C623.54,-32.96 630.3,-60.25 648,-74 680.98,-99.63 797.17,-111.15 861.53,-115.78"/>
<polygon fill="#63b8ff" stroke="#63b8ff" points="861.19,-119.26 871.41,-116.46 861.67,-112.28 861.19,-119.26"/>
</g>
<!-- Node19&#45;&gt;Node3 -->
<g id="edge20" class="edge">
<title>Node19&#45;&gt;Node3</title>
<path fill="none" stroke="#63b8ff" d="M910.21,-74.44C911.58,-80.97 912.04,-90.1 911.57,-98.35"/>
<polygon fill="#63b8ff" stroke="#63b8ff" points="908.1,-97.89 910.35,-108.25 915.05,-98.75 908.1,-97.89"/>
</g>
<!-- Node20&#45;&gt;Node3 -->
<g id="edge22" class="edge">
<title>Node20&#45;&gt;Node3</title>
<path fill="none" stroke="#63b8ff" d="M1117.06,-74.47C1072.03,-84.5 996.3,-100.61 948.51,-110.31"/>
<polygon fill="#63b8ff" stroke="#63b8ff" points="947.88,-106.87 938.77,-112.28 949.26,-113.73 947.88,-106.87"/>
</g>
<!-- Node21 -->
<g id="node21" class="node">
<title>Node21</title>
<g id="a_node21"><a xlink:title=" ">
<polygon fill="#e0e0e0" stroke="#999999" points="1111.5,-19 1082.5,-19 1082.5,0 1111.5,0 1111.5,-19"/>
<text text-anchor="middle" x="1097" y="-7" font-family="Helvetica,sans-Serif" font-size="10.00">list</text>
</a>
</g>
</g>
<!-- Node20&#45;&gt;Node21 -->
<g id="edge23" class="edge">
<title>Node20&#45;&gt;Node21</title>
<path fill="none" stroke="#63b8ff" d="M1144.33,-54.51C1136.26,-47 1124.53,-36.1 1114.78,-27.03"/>
<polygon fill="#63b8ff" stroke="#63b8ff" points="1117.34,-24.63 1107.63,-20.39 1112.57,-29.76 1117.34,-24.63"/>
</g>
<!-- Node22 -->
<g id="node22" class="node">
<title>Node22</title>
<g id="a_node22"><a xlink:title=" ">
<polygon fill="#e0e0e0" stroke="#999999" points="1172.5,-19 1129.5,-19 1129.5,0 1172.5,0 1172.5,-19"/>
<text text-anchor="middle" x="1151" y="-7" font-family="Helvetica,sans-Serif" font-size="10.00">queue</text>
</a>
</g>
</g>
<!-- Node20&#45;&gt;Node22 -->
<g id="edge24" class="edge">
<title>Node20&#45;&gt;Node22</title>
<path fill="none" stroke="#63b8ff" d="M1153.5,-54.75C1153.14,-48.27 1152.62,-39.16 1152.15,-30.9"/>
<polygon fill="#63b8ff" stroke="#63b8ff" points="1155.65,-30.74 1151.59,-20.95 1148.66,-31.13 1155.65,-30.74"/>
</g>
<!-- Node23 -->
<g id="node23" class="node">
<title>Node23</title>
<g id="a_node23"><a xlink:title=" ">
<polygon fill="#e0e0e0" stroke="#999999" points="1253,-19 1191,-19 1191,0 1253,0 1253,-19"/>
<text text-anchor="middle" x="1222" y="-7" font-family="Helvetica,sans-Serif" font-size="10.00">Skaldi.hpp</text>
</a>
</g>
</g>
<!-- Node20&#45;&gt;Node23 -->
<g id="edge25" class="edge">
<title>Node20&#45;&gt;Node23</title>
<path fill="none" stroke="#63b8ff" d="M1165.54,-54.51C1175.46,-46.77 1190.01,-35.43 1201.86,-26.2"/>
<polygon fill="#63b8ff" stroke="#63b8ff" points="1203.71,-29.2 1209.44,-20.29 1199.4,-23.68 1203.71,-29.2"/>
</g>
<!-- Node24&#45;&gt;Node3 -->
<g id="edge27" class="edge">
<title>Node24&#45;&gt;Node3</title>
<path fill="none" stroke="#63b8ff" d="M804.41,-74.36C826.18,-82.7 856.68,-95.32 878.46,-104.93"/>
<polygon fill="#63b8ff" stroke="#63b8ff" points="876.74,-107.99 887.29,-108.89 879.6,-101.6 876.74,-107.99"/>
</g>
<!-- Node24&#45;&gt;Node18 -->
<g id="edge28" class="edge">
<title>Node24&#45;&gt;Node18</title>
<path fill="none" stroke="#63b8ff" d="M749.67,-54.51C722.24,-45.8 680.42,-32.53 649.88,-22.84"/>
<polygon fill="#63b8ff" stroke="#63b8ff" points="651.22,-19.59 640.63,-19.9 649.1,-26.27 651.22,-19.59"/>
</g>
<!-- Node25&#45;&gt;Node3 -->
<g id="edge30" class="edge">
<title>Node25&#45;&gt;Node3</title>
<path fill="none" stroke="#63b8ff" d="M1228.5,-74.45C1150.93,-85.51 1017.25,-103.97 948.49,-113.08"/>
<polygon fill="#63b8ff" stroke="#63b8ff" points="948.19,-109.59 938.73,-114.36 949.1,-116.53 948.19,-109.59"/>
</g>
<!-- Node25&#45;&gt;Node14 -->
<g id="edge32" class="edge">
<title>Node25&#45;&gt;Node14</title>
<path fill="none" stroke="#63b8ff" d="M1358.49,-55.16C1456.53,-43.56 1630.15,-23.02 1702.69,-14.44"/>
<polygon fill="#63b8ff" stroke="#63b8ff" points="1702.82,-17.95 1712.34,-13.3 1701.99,-11 1702.82,-17.95"/>
</g>
<!-- Node26 -->
<g id="node26" class="node">
<title>Node26</title>
<g id="a_node26"><a xlink:title=" ">
<polygon fill="#e0e0e0" stroke="#999999" points="1309,-19 1271,-19 1271,0 1309,0 1309,-19"/>
<text text-anchor="middle" x="1290" y="-7" font-family="Helvetica,sans-Serif" font-size="10.00">array</text>
</a>
</g>
</g>
<!-- Node25&#45;&gt;Node26 -->
<g id="edge31" class="edge">
<title>Node25&#45;&gt;Node26</title>
<path fill="none" stroke="#63b8ff" d="M1288.33,-54.75C1288.57,-48.27 1288.92,-39.16 1289.23,-30.9"/>
<polygon fill="#63b8ff" stroke="#63b8ff" points="1292.73,-31.08 1289.61,-20.95 1285.73,-30.82 1292.73,-31.08"/>
</g>
<!-- Node27&#45;&gt;Node3 -->
<g id="edge34" class="edge">
<title>Node27&#45;&gt;Node3</title>
<path fill="none" stroke="#63b8ff" d="M1013.46,-74.36C995.47,-82.82 965.66,-95.67 941.75,-105.32"/>
<polygon fill="#63b8ff" stroke="#63b8ff" points="940.65,-102 932.66,-108.95 943.24,-108.5 940.65,-102"/>
</g>
<!-- Node28 -->
<g id="node28" class="node">
<title>Node28</title>
<g id="a_node28"><a xlink:title=" ">
<polygon fill="#e0e0e0" stroke="#999999" points="1052,-19 1006,-19 1006,0 1052,0 1052,-19"/>
<text text-anchor="middle" x="1029" y="-7" font-family="Helvetica,sans-Serif" font-size="10.00">math.h</text>
</a>
</g>
</g>
<!-- Node27&#45;&gt;Node28 -->
<g id="edge35" class="edge">
<title>Node27&#45;&gt;Node28</title>
<path fill="none" stroke="#63b8ff" d="M1029,-54.75C1029,-48.27 1029,-39.16 1029,-30.9"/>
<polygon fill="#63b8ff" stroke="#63b8ff" points="1032.5,-30.96 1029,-20.96 1025.5,-30.96 1032.5,-30.96"/>
</g>
</g>
</svg>
        <g id="navigator" transform="translate(0 0)" fill="#404254">
                <rect fill="#f2f5e9" fill-opacity="0.5" stroke="#606060" stroke-width=".5" x="0" y="0" width="60" height="60"/>
                <use id="zoomplus" xlink:href="#zoomPlus" x="17" y="9" onmousedown="handleZoom(evt,'in')"/>
                <use id="zoomminus" xlink:href="#zoomMin" x="42" y="9" onmousedown="handleZoom(evt,'out')"/>
                <use id="reset" xlink:href="#resetDef" x="30" y="36" onmousedown="handleReset()"/>
                <g id="arrowUp" xlink:href="#dirArrow" transform="translate(30 24)" onmousedown="handlePan(0,-1)">
                  <use xlink:href="#rim" fill="#404040">
                        <set attributeName="fill" to="#808080" begin="arrowUp.mouseover" end="arrowUp.mouseout"/>
                  </use>
                  <path fill="none" stroke="white" stroke-width="1.5" d="M0,-3.0v7 M-2.5,-0.5L0,-3.0L2.5,-0.5"/>
                </g>
                <g id="arrowRight" xlink:href="#dirArrow" transform="rotate(90) translate(36 -43)" onmousedown="handlePan(1,0)">
                  <use xlink:href="#rim" fill="#404040">
                        <set attributeName="fill" to="#808080" begin="arrowRight.mouseover" end="arrowRight.mouseout"/>
                  </use>
                  <path fill="none" stroke="white" stroke-width="1.5" d="M0,-3.0v7 M-2.5,-0.5L0,-3.0L2.5,-0.5"/>
                </g>
                <g id="arrowDown" xlink:href="#dirArrow" transform="rotate(180) translate(-30 -48)" onmousedown="handlePan(0,1)">
                  <use xlink:href="#rim" fill="#404040">
                        <set attributeName="fill" to="#808080" begin="arrowDown.mouseover" end="arrowDown.mouseout"/>
                  </use>
                  <path fill="none" stroke="white" stroke-width="1.5" d="M0,-3.0v7 M-2.5,-0.5L0,-3.0L2.5,-0.5"/>
                </g>
                <g id="arrowLeft" xlink:href="#dirArrow" transform="rotate(270) translate(-36 17)" onmousedown="handlePan(-1,0)">
                  <use xlink:href="#rim" fill="#404040">
                        <set attributeName="fill" to="#808080" begin="arrowLeft.mouseover" end="arrowLeft.mouseout"/>
                  </use>
                  <path fill="none" stroke="white" stroke-width="1.5" d="M0,-3.0v7 M-2.5,-0.5L0,-3.0L2.5,-0.5"/>
                </g>
        </g>
        <svg viewBox="0 0 15 15" width="100%" height="30px" preserveAspectRatio="xMaxYMin meet">
         <g id="arrow_out" transform="scale(0.3 0.3)">
          <a xlink:href="Error_8cpp__incl_org.svg" target="_base">
           <rect id="button" ry="5" rx="5" y="6" x="6" height="38" width="38"
                fill="#f2f5e9" fill-opacity="0.5" stroke="#606060" stroke-width="1.0"/>
           <path id="arrow"
             d="M 11.500037,31.436501 C 11.940474,20.09759 22.043105,11.32322 32.158766,21.979434 L 37.068811,17.246167 C 37.068811,17.246167 37.088388,32 37.088388,32 L 22.160133,31.978069 C 22.160133,31.978069 26.997745,27.140456 26.997745,27.140456 C 18.528582,18.264221 13.291696,25.230495 11.500037,31.436501 z"
             style="fill:#404040;"/>
          </a>
         </g>
        </svg>
</svg>
