<?xml version="1.0" encoding="UTF-8" standalone="no"?>
<!DOCTYPE svg PUBLIC "-//W3C//DTD SVG 1.1//EN"
 "http://www.w3.org/Graphics/SVG/1.1/DTD/svg11.dtd">
<!-- Generated by graphviz version 7.0.5 (20221223.1930)
 -->
<!-- Title: /github/workspace/client/src/Error.cpp Pages: 1 -->
<!--zoomable 368 -->
<svg id="main" version="1.1" xmlns="http://www.w3.org/2000/svg" xmlns:xlink="http://www.w3.org/1999/xlink" xml:space="preserve" onload="init(evt)">
<style type="text/css"><![CDATA[
.edge:hover path { stroke: red; }
.edge:hover polygon { stroke: red; fill: red; }
]]></style>
<script type="text/javascript"><![CDATA[
var edges = document.getElementsByTagName('g');
if (edges && edges.length) {
  for (var i=0;i<edges.length;i++) {
    if (edges[i].id.substr(0,4)=='edge') {
      edges[i].setAttribute('class','edge');
    }
  }
}
]]></script>
        <defs>
                <circle id="rim" cx="0" cy="0" r="7"/>
                <circle id="rim2" cx="0" cy="0" r="3.5"/>
                <g id="zoomPlus">
                        <use xlink:href="#rim" fill="#404040">
                                <set attributeName="fill" to="#808080" begin="zoomplus.mouseover" end="zoomplus.mouseout"/>
                        </use>
                        <path d="M-4,0h8M0,-4v8" fill="none" stroke="white" stroke-width="1.5" pointer-events="none"/>
                </g>
                <g id="zoomMin">
                        <use xlink:href="#rim" fill="#404040">
                                <set attributeName="fill" to="#808080" begin="zoomminus.mouseover" end="zoomminus.mouseout"/>
                        </use>
                        <path d="M-4,0h8" fill="none" stroke="white" stroke-width="1.5" pointer-events="none"/>
                </g>
                <g id="dirArrow">
                        <path fill="none" stroke="white" stroke-width="1.5" d="M0,-3.0v7 M-2.5,-0.5L0,-3.0L2.5,-0.5"/>
                </g>
               <g id="resetDef">
                       <use xlink:href="#rim2" fill="#404040">
                               <set attributeName="fill" to="#808080" begin="reset.mouseover" end="reset.mouseout"/>
                       </use>
               </g>
        </defs>

<script type="text/javascript">
var viewWidth = 2114;
var viewHeight = 368;
var sectionId = 'dynsection-0';
</script>
<script xlink:href="svgpan.js"/>
<svg id="graph" class="graph">
<g id="viewport">
<title>/github/workspace/client/src/Error.cpp</title>
<!-- Node1 -->
<g id="node1" class="node">
<title>Node1</title>
<g id="a_node1"><a xlink:title=" ">
<polygon fill="#999999" stroke="#666666" points="1929,-360 1807,-360 1807,-330 1929,-330 1929,-360"/>
<text text-anchor="start" x="1815" y="-348" font-family="Helvetica,sans-Serif" font-size="10.00">/github/workspace/client</text>
<text text-anchor="middle" x="1868" y="-337" font-family="Helvetica,sans-Serif" font-size="10.00">/src/Error.cpp</text>
</a>
</g>
</g>
<!-- Node2 -->
<g id="node2" class="node">
<title>Node2</title>
<g id="a_node2"><a xlink:href="Error_8hpp.html" target="_top" xlink:title=" ">
<polygon fill="white" stroke="#666666" points="1911.5,-294 1824.5,-294 1824.5,-275 1911.5,-275 1911.5,-294"/>
<text text-anchor="middle" x="1868" y="-282" font-family="Helvetica,sans-Serif" font-size="10.00">Engine/Error.hpp</text>
</a>
</g>
</g>
<!-- Node1&#45;&gt;Node2 -->
<g id="edge1" class="edge">
<title>Node1&#45;&gt;Node2</title>
<path fill="none" stroke="#63b8ff" d="M1868,-329.54C1868,-322.34 1868,-313.53 1868,-305.68"/>
<polygon fill="#63b8ff" stroke="#63b8ff" points="1871.5,-305.69 1868,-295.69 1864.5,-305.69 1871.5,-305.69"/>
</g>
<!-- Node3 -->
<g id="node3" class="node">
<title>Node3</title>
<g id="a_node3"><a xlink:href="Engine_8hpp.html" target="_top" xlink:title=" ">
<polygon fill="white" stroke="#666666" points="992,-239 928,-239 928,-220 992,-220 992,-239"/>
<text text-anchor="middle" x="960" y="-227" font-family="Helvetica,sans-Serif" font-size="10.00">Engine.hpp</text>
</a>
</g>
</g>
<!-- Node2&#45;&gt;Node3 -->
<g id="edge2" class="edge">
<title>Node2&#45;&gt;Node3</title>
<path fill="none" stroke="#63b8ff" d="M1824.21,-280.94C1670.57,-271.98 1157.12,-242.01 1003.67,-233.05"/>
<polygon fill="#63b8ff" stroke="#63b8ff" points="1004.12,-229.57 993.94,-232.48 1003.71,-236.56 1004.12,-229.57"/>
</g>
<!-- Node9 -->
<g id="node9" class="node">
<title>Node9</title>
<g id="a_node9"><a xlink:title=" ">
<polygon fill="#e0e0e0" stroke="#999999" points="389,-19 335,-19 335,0 389,0 389,-19"/>
<text text-anchor="middle" x="362" y="-7" font-family="Helvetica,sans-Serif" font-size="10.00">iostream</text>
</a>
</g>
</g>
<!-- Node2&#45;&gt;Node9 -->
<g id="edge47" class="edge">
<title>Node2&#45;&gt;Node9</title>
<path fill="none" stroke="#63b8ff" d="M1824.12,-283.33C1542.45,-281.93 0,-269.96 0,-175.5 0,-175.5 0,-175.5 0,-118.5 0,-51.59 230,-22.73 323.34,-13.77"/>
<polygon fill="#63b8ff" stroke="#63b8ff" points="323.65,-17.26 333.28,-12.85 323,-10.29 323.65,-17.26"/>
</g>
<!-- Node10 -->
<g id="node10" class="node">
<title>Node10</title>
<g id="a_node10"><a xlink:title=" ">
<polygon fill="#e0e0e0" stroke="#999999" points="1747,-184 1697,-184 1697,-165 1747,-165 1747,-184"/>
<text text-anchor="middle" x="1722" y="-172" font-family="Helvetica,sans-Serif" font-size="10.00">fstream</text>
</a>
</g>
</g>
<!-- Node2&#45;&gt;Node10 -->
<g id="edge50" class="edge">
<title>Node2&#45;&gt;Node10</title>
<path fill="none" stroke="#63b8ff" d="M1856.05,-274.66C1831.35,-256.39 1774.36,-214.23 1743.24,-191.21"/>
<polygon fill="#63b8ff" stroke="#63b8ff" points="1745.45,-188.49 1735.33,-185.36 1741.29,-194.12 1745.45,-188.49"/>
</g>
<!-- Node14 -->
<g id="node14" class="node">
<title>Node14</title>
<g id="a_node14"><a xlink:title=" ">
<polygon fill="#e0e0e0" stroke="#999999" points="1816,-19 1772,-19 1772,0 1816,0 1816,-19"/>
<text text-anchor="middle" x="1794" y="-7" font-family="Helvetica,sans-Serif" font-size="10.00">vector</text>
</a>
</g>
</g>
<!-- Node2&#45;&gt;Node14 -->
<g id="edge49" class="edge">
<title>Node2&#45;&gt;Node14</title>
<path fill="none" stroke="#63b8ff" d="M1875.71,-274.67C1892.93,-253.84 1931.09,-200.71 1906,-165 1878.84,-126.35 1835.08,-166.23 1806,-129 1783.9,-100.7 1786.26,-56.26 1790.07,-30.61"/>
<polygon fill="#63b8ff" stroke="#63b8ff" points="1793.49,-31.32 1791.75,-20.87 1786.6,-30.13 1793.49,-31.32"/>
</g>
<!-- Node15 -->
<g id="node15" class="node">
<title>Node15</title>
<g id="a_node15"><a xlink:title=" ">
<polygon fill="#e0e0e0" stroke="#999999" points="1821,-184 1765,-184 1765,-165 1821,-165 1821,-184"/>
<text text-anchor="middle" x="1793" y="-172" font-family="Helvetica,sans-Serif" font-size="10.00">stdbool.h</text>
</a>
</g>
</g>
<!-- Node2&#45;&gt;Node15 -->
<g id="edge53" class="edge">
<title>Node2&#45;&gt;Node15</title>
<path fill="none" stroke="#63b8ff" d="M1861.86,-274.66C1849.61,-257.02 1821.91,-217.12 1805.62,-193.67"/>
<polygon fill="#63b8ff" stroke="#63b8ff" points="1808.66,-191.92 1800.09,-185.7 1802.91,-195.91 1808.66,-191.92"/>
</g>
<!-- Node17 -->
<g id="node17" class="node">
<title>Node17</title>
<g id="a_node17"><a xlink:title=" ">
<polygon fill="#e0e0e0" stroke="#999999" points="1897,-184 1839,-184 1839,-165 1897,-165 1897,-184"/>
<text text-anchor="middle" x="1868" y="-172" font-family="Helvetica,sans-Serif" font-size="10.00">exception</text>
</a>
</g>
</g>
<!-- Node2&#45;&gt;Node17 -->
<g id="edge46" class="edge">
<title>Node2&#45;&gt;Node17</title>
<path fill="none" stroke="#63b8ff" d="M1868,-274.66C1868,-257.57 1868,-219.61 1868,-195.92"/>
<polygon fill="#63b8ff" stroke="#63b8ff" points="1871.5,-195.97 1868,-185.97 1864.5,-195.97 1871.5,-195.97"/>
</g>
<!-- Node33 -->
<g id="node33" class="node">
<title>Node33</title>
<g id="a_node33"><a xlink:title=" ">
<polygon fill="#e0e0e0" stroke="#999999" points="1984.5,-239 1943.5,-239 1943.5,-220 1984.5,-220 1984.5,-239"/>
<text text-anchor="middle" x="1964" y="-227" font-family="Helvetica,sans-Serif" font-size="10.00">string</text>
</a>
</g>
</g>
<!-- Node2&#45;&gt;Node33 -->
<g id="edge48" class="edge">
<title>Node2&#45;&gt;Node33</title>
<path fill="none" stroke="#63b8ff" d="M1884.29,-274.51C1898.99,-266.39 1920.89,-254.3 1938.02,-244.85"/>
<polygon fill="#63b8ff" stroke="#63b8ff" points="1939.57,-247.99 1946.63,-240.09 1936.18,-241.86 1939.57,-247.99"/>
</g>
<!-- Node34 -->
<g id="node34" class="node">
<title>Node34</title>
<g id="a_node34"><a xlink:title=" ">
<polygon fill="#e0e0e0" stroke="#999999" points="2047.5,-239 2002.5,-239 2002.5,-220 2047.5,-220 2047.5,-239"/>
<text text-anchor="middle" x="2025" y="-227" font-family="Helvetica,sans-Serif" font-size="10.00">iosfwd</text>
</a>
</g>
</g>
<!-- Node2&#45;&gt;Node34 -->
<g id="edge51" class="edge">
<title>Node2&#45;&gt;Node34</title>
<path fill="none" stroke="#63b8ff" d="M1894.63,-274.51C1921.36,-265.49 1962.59,-251.57 1991.52,-241.8"/>
<polygon fill="#63b8ff" stroke="#63b8ff" points="1992.53,-245.16 2000.89,-238.64 1990.29,-238.52 1992.53,-245.16"/>
</g>
<!-- Node35 -->
<g id="node35" class="node">
<title>Node35</title>
<g id="a_node35"><a xlink:title=" ">
<polygon fill="#e0e0e0" stroke="#999999" points="2106,-239 2066,-239 2066,-220 2106,-220 2106,-239"/>
<text text-anchor="middle" x="2086" y="-227" font-family="Helvetica,sans-Serif" font-size="10.00">regex</text>
</a>
</g>
</g>
<!-- Node2&#45;&gt;Node35 -->
<g id="edge52" class="edge">
<title>Node2&#45;&gt;Node35</title>
<path fill="none" stroke="#63b8ff" d="M1908.71,-274.58C1944.77,-266.53 1999.08,-254.05 2054.94,-239.44"/>
<polygon fill="#63b8ff" stroke="#63b8ff" points="2055.52,-242.9 2064.29,-236.97 2053.73,-236.14 2055.52,-242.9"/>
</g>
<!-- Node4 -->
<g id="node4" class="node">
<title>Node4</title>
<g id="a_node4"><a xlink:title=" ">
<polygon fill="#e0e0e0" stroke="#999999" points="829.5,-184 740.5,-184 740.5,-165 829.5,-165 829.5,-184"/>
<text text-anchor="middle" x="785" y="-172" font-family="Helvetica,sans-Serif" font-size="10.00">SFML/Audio.hpp</text>
</a>
</g>
</g>
<!-- Node3&#45;&gt;Node4 -->
<g id="edge3" class="edge">
<title>Node3&#45;&gt;Node4</title>
<path fill="none" stroke="#63b8ff" d="M930.31,-219.51C901.44,-210.76 857.36,-197.42 825.33,-187.71"/>
<polygon fill="#63b8ff" stroke="#63b8ff" points="826.57,-184.43 815.99,-184.88 824.54,-191.13 826.57,-184.43"/>
</g>
<!-- Node5 -->
<g id="node5" class="node">
<title>Node5</title>
<g id="a_node5"><a xlink:title=" ">
<polygon fill="#e0e0e0" stroke="#999999" points="952,-184 848,-184 848,-165 952,-165 952,-184"/>
<text text-anchor="middle" x="900" y="-172" font-family="Helvetica,sans-Serif" font-size="10.00">SFML/Graphics.hpp</text>
</a>
</g>
</g>
<!-- Node3&#45;&gt;Node5 -->
<g id="edge4" class="edge">
<title>Node3&#45;&gt;Node5</title>
<path fill="none" stroke="#63b8ff" d="M949.82,-219.51C941.24,-211.93 928.73,-200.88 918.4,-191.75"/>
<polygon fill="#63b8ff" stroke="#63b8ff" points="920.97,-189.36 911.16,-185.36 916.34,-194.6 920.97,-189.36"/>
</g>
<!-- Node6 -->
<g id="node6" class="node">
<title>Node6</title>
<g id="a_node6"><a xlink:title=" ">
<polygon fill="#e0e0e0" stroke="#999999" points="1071.5,-184 970.5,-184 970.5,-165 1071.5,-165 1071.5,-184"/>
<text text-anchor="middle" x="1021" y="-172" font-family="Helvetica,sans-Serif" font-size="10.00">SFML/Network.hpp</text>
</a>
</g>
</g>
<!-- Node3&#45;&gt;Node6 -->
<g id="edge5" class="edge">
<title>Node3&#45;&gt;Node6</title>
<path fill="none" stroke="#63b8ff" d="M970.35,-219.51C979.08,-211.93 991.79,-200.88 1002.3,-191.75"/>
<polygon fill="#63b8ff" stroke="#63b8ff" points="1004.41,-194.55 1009.66,-185.35 999.82,-189.27 1004.41,-194.55"/>
</g>
<!-- Node7 -->
<g id="node7" class="node">
<title>Node7</title>
<g id="a_node7"><a xlink:title=" ">
<polygon fill="#e0e0e0" stroke="#999999" points="1188.5,-184 1089.5,-184 1089.5,-165 1188.5,-165 1188.5,-184"/>
<text text-anchor="middle" x="1139" y="-172" font-family="Helvetica,sans-Serif" font-size="10.00">SFML/Window.hpp</text>
</a>
</g>
</g>
<!-- Node3&#45;&gt;Node7 -->
<g id="edge6" class="edge">
<title>Node3&#45;&gt;Node7</title>
<path fill="none" stroke="#63b8ff" d="M990.36,-219.51C1019.9,-210.76 1064.98,-197.42 1097.75,-187.71"/>
<polygon fill="#63b8ff" stroke="#63b8ff" points="1098.74,-191.07 1107.33,-184.88 1096.75,-184.36 1098.74,-191.07"/>
</g>
<!-- Node8 -->
<g id="node8" class="node">
<title>Node8</title>
<g id="a_node8"><a xlink:title=" ">
<polygon fill="#e0e0e0" stroke="#999999" points="1305,-184 1207,-184 1207,-165 1305,-165 1305,-184"/>
<text text-anchor="middle" x="1256" y="-172" font-family="Helvetica,sans-Serif" font-size="10.00">SFML/System.hpp</text>
</a>
</g>
</g>
<!-- Node3&#45;&gt;Node8 -->
<g id="edge7" class="edge">
<title>Node3&#45;&gt;Node8</title>
<path fill="none" stroke="#63b8ff" d="M992.24,-222.73C1040.91,-214.01 1133.97,-197.35 1195.51,-186.33"/>
<polygon fill="#63b8ff" stroke="#63b8ff" points="1195.91,-189.82 1205.13,-184.61 1194.67,-182.93 1195.91,-189.82"/>
</g>
<!-- Node3&#45;&gt;Node9 -->
<g id="edge8" class="edge">
<title>Node3&#45;&gt;Node9</title>
<path fill="none" stroke="#63b8ff" d="M927.75,-228.14C770.19,-226.24 87.62,-216.17 57,-184 -30.07,-92.53 223.85,-35.44 323.62,-17.02"/>
<polygon fill="#63b8ff" stroke="#63b8ff" points="324.01,-20.51 333.23,-15.28 322.77,-13.62 324.01,-20.51"/>
</g>
<!-- Node3&#45;&gt;Node10 -->
<g id="edge9" class="edge">
<title>Node3&#45;&gt;Node10</title>
<path fill="none" stroke="#63b8ff" d="M992.16,-228.63C1093.08,-228.62 1412.54,-225.2 1685.53,-184.07"/>
<polygon fill="#63b8ff" stroke="#63b8ff" points="1686,-187.53 1695.36,-182.56 1684.94,-180.62 1686,-187.53"/>
</g>
<!-- Node11 -->
<g id="node11" class="node">
<title>Node11</title>
<g id="a_node11"><a xlink:title=" ">
<polygon fill="#e0e0e0" stroke="#999999" points="114,-184 66,-184 66,-165 114,-165 114,-184"/>
<text text-anchor="middle" x="90" y="-172" font-family="Helvetica,sans-Serif" font-size="10.00">string.h</text>
</a>
</g>
</g>
<!-- Node3&#45;&gt;Node11 -->
<g id="edge10" class="edge">
<title>Node3&#45;&gt;Node11</title>
<path fill="none" stroke="#63b8ff" d="M927.63,-227.64C796.57,-224.03 304.26,-209.18 125.7,-184.03"/>
<polygon fill="#63b8ff" stroke="#63b8ff" points="126.3,-180.58 115.89,-182.58 125.27,-187.51 126.3,-180.58"/>
</g>
<!-- Node12 -->
<g id="node12" class="node">
<title>Node12</title>
<g id="a_node12"><a xlink:title=" ">
<polygon fill="#e0e0e0" stroke="#999999" points="182,-184 132,-184 132,-165 182,-165 182,-184"/>
<text text-anchor="middle" x="157" y="-172" font-family="Helvetica,sans-Serif" font-size="10.00">unistd.h</text>
</a>
</g>
</g>
<!-- Node3&#45;&gt;Node12 -->
<g id="edge11" class="edge">
<title>Node3&#45;&gt;Node12</title>
<path fill="none" stroke="#63b8ff" d="M927.54,-228.78C822.55,-229.25 482.69,-227.21 193.28,-184.03"/>
<polygon fill="#63b8ff" stroke="#63b8ff" points="194.05,-180.61 183.64,-182.57 193,-187.53 194.05,-180.61"/>
</g>
<!-- Node13 -->
<g id="node13" class="node">
<title>Node13</title>
<g id="a_node13"><a xlink:title=" ">
<polygon fill="#e0e0e0" stroke="#999999" points="265.5,-184 200.5,-184 200.5,-165 265.5,-165 265.5,-184"/>
<text text-anchor="middle" x="233" y="-172" font-family="Helvetica,sans-Serif" font-size="10.00">sys/types.h</text>
</a>
</g>
</g>
<!-- Node3&#45;&gt;Node13 -->
<g id="edge12" class="edge">
<title>Node3&#45;&gt;Node13</title>
<path fill="none" stroke="#63b8ff" d="M927.7,-228C830.64,-226.18 533.03,-218.11 276.99,-184.22"/>
<polygon fill="#63b8ff" stroke="#63b8ff" points="277.48,-180.75 267.1,-182.89 276.55,-187.69 277.48,-180.75"/>
</g>
<!-- Node3&#45;&gt;Node14 -->
<g id="edge13" class="edge">
<title>Node3&#45;&gt;Node14</title>
<path fill="none" stroke="#63b8ff" d="M992.45,-227.48C1069.12,-224.6 1259.11,-214.5 1314,-184 1351.01,-163.43 1338.15,-132.53 1374,-110 1500.77,-30.33 1685.51,-14.41 1760.5,-11.26"/>
<polygon fill="#63b8ff" stroke="#63b8ff" points="1760.19,-14.78 1770.06,-10.91 1759.94,-7.78 1760.19,-14.78"/>
</g>
<!-- Node3&#45;&gt;Node15 -->
<g id="edge14" class="edge">
<title>Node3&#45;&gt;Node15</title>
<path fill="none" stroke="#63b8ff" d="M992.42,-228.66C1099.69,-228.76 1452.94,-225.79 1753.69,-184.06"/>
<polygon fill="#63b8ff" stroke="#63b8ff" points="1753.9,-187.57 1763.31,-182.71 1752.92,-180.63 1753.9,-187.57"/>
</g>
<!-- Node16 -->
<g id="node16" class="node">
<title>Node16</title>
<g id="a_node16"><a xlink:title=" ">
<polygon fill="#e0e0e0" stroke="#999999" points="330.5,-184 283.5,-184 283.5,-165 330.5,-165 330.5,-184"/>
<text text-anchor="middle" x="307" y="-172" font-family="Helvetica,sans-Serif" font-size="10.00">stdlib.h</text>
</a>
</g>
</g>
<!-- Node3&#45;&gt;Node16 -->
<g id="edge15" class="edge">
<title>Node3&#45;&gt;Node16</title>
<path fill="none" stroke="#63b8ff" d="M927.75,-228.32C836.87,-227.36 570.84,-221.47 341.88,-184.17"/>
<polygon fill="#63b8ff" stroke="#63b8ff" points="342.59,-180.74 332.15,-182.56 341.44,-187.65 342.59,-180.74"/>
</g>
<!-- Node3&#45;&gt;Node17 -->
<g id="edge16" class="edge">
<title>Node3&#45;&gt;Node17</title>
<path fill="none" stroke="#63b8ff" d="M992.18,-228.81C1105.44,-229.48 1496.28,-228.34 1827.37,-184.11"/>
<polygon fill="#63b8ff" stroke="#63b8ff" points="1827.69,-187.6 1837.13,-182.79 1826.75,-180.66 1827.69,-187.6"/>
</g>
<!-- Node18 -->
<g id="node18" class="node">
<title>Node18</title>
<g id="a_node18"><a xlink:href="Window_8hpp.html" target="_top" xlink:title=" ">
<polygon fill="white" stroke="#666666" points="449.5,-184 348.5,-184 348.5,-165 449.5,-165 449.5,-184"/>
<text text-anchor="middle" x="399" y="-172" font-family="Helvetica,sans-Serif" font-size="10.00">Engine/Window.hpp</text>
</a>
</g>
</g>
<!-- Node3&#45;&gt;Node18 -->
<g id="edge17" class="edge">
<title>Node3&#45;&gt;Node18</title>
<path fill="none" stroke="#63b8ff" d="M927.75,-226.53C848.57,-221.17 639.04,-205.4 461.63,-185.33"/>
<polygon fill="#63b8ff" stroke="#63b8ff" points="462.1,-181.86 451.77,-184.2 461.31,-188.81 462.1,-181.86"/>
</g>
<!-- Node19 -->
<g id="node19" class="node">
<title>Node19</title>
<g id="a_node19"><a xlink:href="Event_8hpp.html" target="_top" xlink:title=" ">
<polygon fill="white" stroke="#666666" points="560,-184 468,-184 468,-165 560,-165 560,-184"/>
<text text-anchor="middle" x="514" y="-172" font-family="Helvetica,sans-Serif" font-size="10.00">Engine/Event.hpp</text>
</a>
</g>
</g>
<!-- Node3&#45;&gt;Node19 -->
<g id="edge19" class="edge">
<title>Node3&#45;&gt;Node19</title>
<path fill="none" stroke="#63b8ff" d="M927.56,-225.72C861.05,-219.42 705.09,-203.19 571.6,-185.54"/>
<polygon fill="#63b8ff" stroke="#63b8ff" points="572.27,-182.1 561.9,-184.25 571.35,-189.04 572.27,-182.1"/>
</g>
<!-- Node23 -->
<g id="node23" class="node">
<title>Node23</title>
<g id="a_node23"><a xlink:href="EntitiesManager_8hpp.html" target="_top" xlink:title=" ">
<polygon fill="white" stroke="#666666" points="1679,-184 1539,-184 1539,-165 1679,-165 1679,-184"/>
<text text-anchor="middle" x="1609" y="-172" font-family="Helvetica,sans-Serif" font-size="10.00">Entities/EntitiesManager.hpp</text>
</a>
</g>
</g>
<!-- Node3&#45;&gt;Node23 -->
<g id="edge24" class="edge">
<title>Node3&#45;&gt;Node23</title>
<path fill="none" stroke="#63b8ff" d="M992.21,-225.89C1077.77,-219.44 1316.82,-201.92 1516,-184 1519.65,-183.67 1523.39,-183.33 1527.17,-182.97"/>
<polygon fill="#63b8ff" stroke="#63b8ff" points="1527.48,-186.46 1537.1,-182.02 1526.81,-179.49 1527.48,-186.46"/>
</g>
<!-- Node30 -->
<g id="node30" class="node">
<title>Node30</title>
<g id="a_node30"><a xlink:href="Bullets_8hpp.html" target="_top" xlink:title=" ">
<polygon fill="white" stroke="#666666" points="1483,-184 1361,-184 1361,-165 1483,-165 1483,-184"/>
<text text-anchor="middle" x="1422" y="-172" font-family="Helvetica,sans-Serif" font-size="10.00">Components/Bullets.hpp</text>
</a>
</g>
</g>
<!-- Node3&#45;&gt;Node30 -->
<g id="edge40" class="edge">
<title>Node3&#45;&gt;Node30</title>
<path fill="none" stroke="#63b8ff" d="M992.41,-224.34C1066.06,-215.49 1247.05,-194.69 1349.1,-183.3"/>
<polygon fill="#63b8ff" stroke="#63b8ff" points="1349.48,-186.77 1359.03,-182.19 1348.7,-179.82 1349.48,-186.77"/>
</g>
<!-- Node32 -->
<g id="node32" class="node">
<title>Node32</title>
<g id="a_node32"><a xlink:href="Background_8hpp.html" target="_top" xlink:title=" ">
<polygon fill="white" stroke="#666666" points="722,-184 578,-184 578,-165 722,-165 722,-184"/>
<text text-anchor="middle" x="650" y="-172" font-family="Helvetica,sans-Serif" font-size="10.00">Components/Background.hpp</text>
</a>
</g>
</g>
<!-- Node3&#45;&gt;Node32 -->
<g id="edge44" class="edge">
<title>Node3&#45;&gt;Node32</title>
<path fill="none" stroke="#63b8ff" d="M927.57,-223.66C875.63,-215.28 773.41,-197.89 708.51,-186.46"/>
<polygon fill="#63b8ff" stroke="#63b8ff" points="709.19,-183.03 698.74,-184.73 707.98,-189.92 709.19,-183.03"/>
</g>
<!-- Node18&#45;&gt;Node3 -->
<g id="edge18" class="edge">
<title>Node18&#45;&gt;Node3</title>
<path fill="none" stroke="#63b8ff" d="M449.83,-181.72C455.98,-182.54 462.15,-183.33 468,-184 633.29,-203.04 830.07,-218.39 916.19,-224.99"/>
<polygon fill="#63b8ff" stroke="#63b8ff" points="915.84,-228.48 926.08,-225.75 916.38,-221.5 915.84,-228.48"/>
</g>
<!-- Node19&#45;&gt;Node3 -->
<g id="edge20" class="edge">
<title>Node19&#45;&gt;Node3</title>
<path fill="none" stroke="#63b8ff" d="M560.43,-181.51C566.38,-182.38 572.35,-183.24 578,-184 700.67,-200.45 845.54,-215.91 916.56,-223.53"/>
<polygon fill="#63b8ff" stroke="#63b8ff" points="915.89,-226.98 926.21,-224.57 916.64,-220.02 915.89,-226.98"/>
</g>
<!-- Node20 -->
<g id="node20" class="node">
<title>Node20</title>
<g id="a_node20"><a xlink:title=" ">
<polygon fill="#e0e0e0" stroke="#999999" points="474.5,-129 445.5,-129 445.5,-110 474.5,-110 474.5,-129"/>
<text text-anchor="middle" x="460" y="-117" font-family="Helvetica,sans-Serif" font-size="10.00">list</text>
</a>
</g>
</g>
<!-- Node19&#45;&gt;Node20 -->
<g id="edge21" class="edge">
<title>Node19&#45;&gt;Node20</title>
<path fill="none" stroke="#63b8ff" d="M505.08,-164.75C497.55,-157.35 486.53,-146.54 477.27,-137.45"/>
<polygon fill="#63b8ff" stroke="#63b8ff" points="479.78,-135.01 470.19,-130.5 474.88,-140 479.78,-135.01"/>
</g>
<!-- Node21 -->
<g id="node21" class="node">
<title>Node21</title>
<g id="a_node21"><a xlink:title=" ">
<polygon fill="#e0e0e0" stroke="#999999" points="535.5,-129 492.5,-129 492.5,-110 535.5,-110 535.5,-129"/>
<text text-anchor="middle" x="514" y="-117" font-family="Helvetica,sans-Serif" font-size="10.00">queue</text>
</a>
</g>
</g>
<!-- Node19&#45;&gt;Node21 -->
<g id="edge22" class="edge">
<title>Node19&#45;&gt;Node21</title>
<path fill="none" stroke="#63b8ff" d="M514,-164.75C514,-158.27 514,-149.16 514,-140.9"/>
<polygon fill="#63b8ff" stroke="#63b8ff" points="517.5,-140.96 514,-130.96 510.5,-140.96 517.5,-140.96"/>
</g>
<!-- Node22 -->
<g id="node22" class="node">
<title>Node22</title>
<g id="a_node22"><a xlink:title=" ">
<polygon fill="#e0e0e0" stroke="#999999" points="616,-129 554,-129 554,-110 616,-110 616,-129"/>
<text text-anchor="middle" x="585" y="-117" font-family="Helvetica,sans-Serif" font-size="10.00">Skaldi.hpp</text>
</a>
</g>
</g>
<!-- Node19&#45;&gt;Node22 -->
<g id="edge23" class="edge">
<title>Node19&#45;&gt;Node22</title>
<path fill="none" stroke="#63b8ff" d="M526.04,-164.51C536.41,-156.77 551.6,-145.43 563.97,-136.2"/>
<polygon fill="#63b8ff" stroke="#63b8ff" points="566,-139.05 571.92,-130.26 561.81,-133.44 566,-139.05"/>
</g>
<!-- Node23&#45;&gt;Node3 -->
<g id="edge25" class="edge">
<title>Node23&#45;&gt;Node3</title>
<path fill="none" stroke="#63b8ff" d="M1538.86,-183.56C1537.23,-183.71 1535.61,-183.86 1534,-184 1336.44,-201.77 1099.67,-219.15 1003.55,-225.73"/>
<polygon fill="#63b8ff" stroke="#63b8ff" points="1003.52,-222.23 993.78,-226.4 1003.99,-229.21 1003.52,-222.23"/>
</g>
<!-- Node24 -->
<g id="node24" class="node">
<title>Node24</title>
<g id="a_node24"><a xlink:href="IComponents_8hpp.html" target="_top" xlink:title=" ">
<polygon fill="white" stroke="#666666" points="1605,-129 1447,-129 1447,-110 1605,-110 1605,-129"/>
<text text-anchor="middle" x="1526" y="-117" font-family="Helvetica,sans-Serif" font-size="10.00">../Components/IComponents.hpp</text>
</a>
</g>
</g>
<!-- Node23&#45;&gt;Node24 -->
<g id="edge26" class="edge">
<title>Node23&#45;&gt;Node24</title>
<path fill="none" stroke="#63b8ff" d="M1594.92,-164.51C1582.44,-156.54 1563.98,-144.75 1549.31,-135.38"/>
<polygon fill="#63b8ff" stroke="#63b8ff" points="1551.46,-132.6 1541.15,-130.17 1547.69,-138.5 1551.46,-132.6"/>
</g>
<!-- Node25 -->
<g id="node25" class="node">
<title>Node25</title>
<g id="a_node25"><a xlink:href="SparseArray_8hpp.html" target="_top" xlink:title=" ">
<polygon fill="white" stroke="#666666" points="1925.5,-129 1814.5,-129 1814.5,-110 1925.5,-110 1925.5,-129"/>
<text text-anchor="middle" x="1870" y="-117" font-family="Helvetica,sans-Serif" font-size="10.00">Utils/SparseArray.hpp</text>
</a>
</g>
</g>
<!-- Node23&#45;&gt;Node25 -->
<g id="edge28" class="edge">
<title>Node23&#45;&gt;Node25</title>
<path fill="none" stroke="#63b8ff" d="M1653.28,-164.51C1697.84,-155.46 1766.69,-141.48 1814.8,-131.71"/>
<polygon fill="#63b8ff" stroke="#63b8ff" points="1815.36,-135.17 1824.46,-129.75 1813.96,-128.31 1815.36,-135.17"/>
</g>
<!-- Node24&#45;&gt;Node3 -->
<g id="edge27" class="edge">
<title>Node24&#45;&gt;Node3</title>
<path fill="none" stroke="#63b8ff" d="M1524.12,-129.28C1520.58,-143.49 1511.44,-171.23 1492,-184 1451.57,-210.57 1123.19,-223.4 1003.47,-227.23"/>
<polygon fill="#63b8ff" stroke="#63b8ff" points="1003.62,-223.72 993.73,-227.53 1003.84,-230.72 1003.62,-223.72"/>
</g>
<!-- Node25&#45;&gt;Node9 -->
<g id="edge29" class="edge">
<title>Node25&#45;&gt;Node9</title>
<path fill="none" stroke="#63b8ff" d="M1814.09,-114.5C1570.68,-97.06 606.35,-28 400.7,-13.27"/>
<polygon fill="#63b8ff" stroke="#63b8ff" points="401.06,-9.79 390.84,-12.57 400.56,-16.77 401.06,-9.79"/>
</g>
<!-- Node25&#45;&gt;Node14 -->
<g id="edge32" class="edge">
<title>Node25&#45;&gt;Node14</title>
<path fill="none" stroke="#63b8ff" d="M1863.78,-109.66C1851.37,-92.02 1823.29,-52.12 1806.79,-28.67"/>
<polygon fill="#63b8ff" stroke="#63b8ff" points="1809.79,-26.86 1801.18,-20.7 1804.07,-30.89 1809.79,-26.86"/>
</g>
<!-- Node26 -->
<g id="node26" class="node">
<title>Node26</title>
<g id="a_node26"><a xlink:title=" ">
<polygon fill="#e0e0e0" stroke="#999999" points="1976,-19 1920,-19 1920,0 1976,0 1976,-19"/>
<text text-anchor="middle" x="1948" y="-7" font-family="Helvetica,sans-Serif" font-size="10.00">algorithm</text>
</a>
</g>
</g>
<!-- Node25&#45;&gt;Node26 -->
<g id="edge30" class="edge">
<title>Node25&#45;&gt;Node26</title>
<path fill="none" stroke="#63b8ff" d="M1925.97,-112.16C1950.13,-106.33 1976.21,-95.2 1991,-74 2002.27,-57.84 1986.15,-39.15 1970.53,-26.25"/>
<polygon fill="#63b8ff" stroke="#63b8ff" points="1972.87,-23.63 1962.81,-20.31 1968.6,-29.18 1972.87,-23.63"/>
</g>
<!-- Node27 -->
<g id="node27" class="node">
<title>Node27</title>
<g id="a_node27"><a xlink:title=" ">
<polygon fill="#e0e0e0" stroke="#999999" points="2055,-19 2017,-19 2017,0 2055,0 2055,-19"/>
<text text-anchor="middle" x="2036" y="-7" font-family="Helvetica,sans-Serif" font-size="10.00">array</text>
</a>
</g>
</g>
<!-- Node25&#45;&gt;Node27 -->
<g id="edge31" class="edge">
<title>Node25&#45;&gt;Node27</title>
<path fill="none" stroke="#63b8ff" d="M1925.77,-110.79C1952.62,-104.64 1983.74,-93.64 2006,-74 2019.01,-62.52 2026.83,-44.18 2031.2,-30.16"/>
<polygon fill="#63b8ff" stroke="#63b8ff" points="2034.53,-31.25 2033.81,-20.68 2027.78,-29.4 2034.53,-31.25"/>
</g>
<!-- Node28 -->
<g id="node28" class="node">
<title>Node28</title>
<g id="a_node28"><a xlink:title=" ">
<polygon fill="#e0e0e0" stroke="#999999" points="1891.5,-19 1852.5,-19 1852.5,0 1891.5,0 1891.5,-19"/>
<text text-anchor="middle" x="1872" y="-7" font-family="Helvetica,sans-Serif" font-size="10.00">utility</text>
</a>
</g>
</g>
<!-- Node25&#45;&gt;Node28 -->
<g id="edge33" class="edge">
<title>Node25&#45;&gt;Node28</title>
<path fill="none" stroke="#63b8ff" d="M1870.16,-109.66C1870.48,-92.57 1871.18,-54.61 1871.62,-30.92"/>
<polygon fill="#63b8ff" stroke="#63b8ff" points="1875.12,-31.04 1871.81,-20.97 1868.12,-30.91 1875.12,-31.04"/>
</g>
<!-- Node29 -->
<g id="node29" class="node">
<title>Node29</title>
<g id="a_node29"><a xlink:href="Vectors_8hpp.html" target="_top" xlink:title=" ">
<polygon fill="white" stroke="#666666" points="1982,-74 1890,-74 1890,-55 1982,-55 1982,-74"/>
<text text-anchor="middle" x="1936" y="-62" font-family="Helvetica,sans-Serif" font-size="10.00">Utils/Vectors.hpp</text>
</a>
</g>
</g>
<!-- Node25&#45;&gt;Node29 -->
<g id="edge34" class="edge">
<title>Node25&#45;&gt;Node29</title>
<path fill="none" stroke="#63b8ff" d="M1881.2,-109.51C1890.74,-101.85 1904.67,-90.66 1916.11,-81.47"/>
<polygon fill="#63b8ff" stroke="#63b8ff" points="1918.18,-84.3 1923.79,-75.31 1913.8,-78.84 1918.18,-84.3"/>
</g>
<!-- Node29&#45;&gt;Node9 -->
<g id="edge35" class="edge">
<title>Node29&#45;&gt;Node9</title>
<path fill="none" stroke="#63b8ff" d="M1889.75,-61.94C1656.76,-54.1 614.46,-19 400.47,-11.8"/>
<polygon fill="#63b8ff" stroke="#63b8ff" points="400.86,-8.31 390.75,-11.47 400.63,-15.3 400.86,-8.31"/>
</g>
<!-- Node29&#45;&gt;Node14 -->
<g id="edge38" class="edge">
<title>Node29&#45;&gt;Node14</title>
<path fill="none" stroke="#63b8ff" d="M1911.91,-54.51C1888.51,-45.77 1852.8,-32.45 1826.81,-22.75"/>
<polygon fill="#63b8ff" stroke="#63b8ff" points="1828.34,-19.58 1817.75,-19.36 1825.89,-26.14 1828.34,-19.58"/>
</g>
<!-- Node29&#45;&gt;Node26 -->
<g id="edge36" class="edge">
<title>Node29&#45;&gt;Node26</title>
<path fill="none" stroke="#63b8ff" d="M1937.98,-54.75C1939.47,-48.19 1941.56,-38.95 1943.45,-30.6"/>
<polygon fill="#63b8ff" stroke="#63b8ff" points="1946.85,-31.44 1945.64,-20.92 1940.02,-29.9 1946.85,-31.44"/>
</g>
<!-- Node29&#45;&gt;Node27 -->
<g id="edge37" class="edge">
<title>Node29&#45;&gt;Node27</title>
<path fill="none" stroke="#63b8ff" d="M1952.96,-54.51C1968.36,-46.35 1991.31,-34.19 2009.19,-24.71"/>
<polygon fill="#63b8ff" stroke="#63b8ff" points="2010.75,-27.84 2017.95,-20.07 2007.47,-21.66 2010.75,-27.84"/>
</g>
<!-- Node29&#45;&gt;Node28 -->
<g id="edge39" class="edge">
<title>Node29&#45;&gt;Node28</title>
<path fill="none" stroke="#63b8ff" d="M1925.14,-54.51C1915.89,-46.85 1902.38,-35.66 1891.29,-26.47"/>
<polygon fill="#63b8ff" stroke="#63b8ff" points="1893.8,-24.01 1883.86,-20.32 1889.33,-29.4 1893.8,-24.01"/>
</g>
<!-- Node30&#45;&gt;Node3 -->
<g id="edge41" class="edge">
<title>Node30&#45;&gt;Node3</title>
<path fill="none" stroke="#63b8ff" d="M1360.65,-183.1C1265.86,-194.29 1086.36,-214.85 1003.63,-223.95"/>
<polygon fill="#63b8ff" stroke="#63b8ff" points="1003.45,-220.45 993.89,-225.02 1004.21,-227.41 1003.45,-220.45"/>
</g>
<!-- Node30&#45;&gt;Node24 -->
<g id="edge42" class="edge">
<title>Node30&#45;&gt;Node24</title>
<path fill="none" stroke="#63b8ff" d="M1439.64,-164.51C1455.73,-156.31 1479.75,-144.07 1498.37,-134.58"/>
<polygon fill="#63b8ff" stroke="#63b8ff" points="1499.95,-137.7 1507.27,-130.05 1496.77,-131.47 1499.95,-137.7"/>
</g>
<!-- Node31 -->
<g id="node31" class="node">
<title>Node31</title>
<g id="a_node31"><a xlink:title=" ">
<polygon fill="#e0e0e0" stroke="#999999" points="1429,-129 1383,-129 1383,-110 1429,-110 1429,-129"/>
<text text-anchor="middle" x="1406" y="-117" font-family="Helvetica,sans-Serif" font-size="10.00">math.h</text>
</a>
</g>
</g>
<!-- Node30&#45;&gt;Node31 -->
<g id="edge43" class="edge">
<title>Node30&#45;&gt;Node31</title>
<path fill="none" stroke="#63b8ff" d="M1419.36,-164.75C1417.36,-158.11 1414.52,-148.73 1411.98,-140.31"/>
<polygon fill="#63b8ff" stroke="#63b8ff" points="1415.38,-139.45 1409.14,-130.89 1408.68,-141.48 1415.38,-139.45"/>
</g>
<!-- Node32&#45;&gt;Node3 -->
<g id="edge45" class="edge">
<title>Node32&#45;&gt;Node3</title>
<path fill="none" stroke="#63b8ff" d="M707.71,-184.48C768.34,-194.48 862.18,-210.53 916.75,-220.24"/>
<polygon fill="#63b8ff" stroke="#63b8ff" points="915.83,-223.63 926.29,-221.95 917.06,-216.74 915.83,-223.63"/>
</g>
</g>
</svg>
        <g id="navigator" transform="translate(0 0)" fill="#404254">
                <rect fill="#f2f5e9" fill-opacity="0.5" stroke="#606060" stroke-width=".5" x="0" y="0" width="60" height="60"/>
                <use id="zoomplus" xlink:href="#zoomPlus" x="17" y="9" onmousedown="handleZoom(evt,'in')"/>
                <use id="zoomminus" xlink:href="#zoomMin" x="42" y="9" onmousedown="handleZoom(evt,'out')"/>
                <use id="reset" xlink:href="#resetDef" x="30" y="36" onmousedown="handleReset()"/>
                <g id="arrowUp" xlink:href="#dirArrow" transform="translate(30 24)" onmousedown="handlePan(0,-1)">
                  <use xlink:href="#rim" fill="#404040">
                        <set attributeName="fill" to="#808080" begin="arrowUp.mouseover" end="arrowUp.mouseout"/>
                  </use>
                  <path fill="none" stroke="white" stroke-width="1.5" d="M0,-3.0v7 M-2.5,-0.5L0,-3.0L2.5,-0.5"/>
                </g>
                <g id="arrowRight" xlink:href="#dirArrow" transform="rotate(90) translate(36 -43)" onmousedown="handlePan(1,0)">
                  <use xlink:href="#rim" fill="#404040">
                        <set attributeName="fill" to="#808080" begin="arrowRight.mouseover" end="arrowRight.mouseout"/>
                  </use>
                  <path fill="none" stroke="white" stroke-width="1.5" d="M0,-3.0v7 M-2.5,-0.5L0,-3.0L2.5,-0.5"/>
                </g>
                <g id="arrowDown" xlink:href="#dirArrow" transform="rotate(180) translate(-30 -48)" onmousedown="handlePan(0,1)">
                  <use xlink:href="#rim" fill="#404040">
                        <set attributeName="fill" to="#808080" begin="arrowDown.mouseover" end="arrowDown.mouseout"/>
                  </use>
                  <path fill="none" stroke="white" stroke-width="1.5" d="M0,-3.0v7 M-2.5,-0.5L0,-3.0L2.5,-0.5"/>
                </g>
                <g id="arrowLeft" xlink:href="#dirArrow" transform="rotate(270) translate(-36 17)" onmousedown="handlePan(-1,0)">
                  <use xlink:href="#rim" fill="#404040">
                        <set attributeName="fill" to="#808080" begin="arrowLeft.mouseover" end="arrowLeft.mouseout"/>
                  </use>
                  <path fill="none" stroke="white" stroke-width="1.5" d="M0,-3.0v7 M-2.5,-0.5L0,-3.0L2.5,-0.5"/>
                </g>
        </g>
        <svg viewBox="0 0 15 15" width="100%" height="30px" preserveAspectRatio="xMaxYMin meet">
         <g id="arrow_out" transform="scale(0.3 0.3)">
          <a xlink:href="Error_8cpp__incl_org.svg" target="_base">
           <rect id="button" ry="5" rx="5" y="6" x="6" height="38" width="38"
                fill="#f2f5e9" fill-opacity="0.5" stroke="#606060" stroke-width="1.0"/>
           <path id="arrow"
             d="M 11.500037,31.436501 C 11.940474,20.09759 22.043105,11.32322 32.158766,21.979434 L 37.068811,17.246167 C 37.068811,17.246167 37.088388,32 37.088388,32 L 22.160133,31.978069 C 22.160133,31.978069 26.997745,27.140456 26.997745,27.140456 C 18.528582,18.264221 13.291696,25.230495 11.500037,31.436501 z"
             style="fill:#404040;"/>
          </a>
         </g>
        </svg>
</svg>
