<?xml version="1.0" encoding="UTF-8" standalone="no"?>
<!DOCTYPE svg PUBLIC "-//W3C//DTD SVG 1.1//EN"
 "http://www.w3.org/Graphics/SVG/1.1/DTD/svg11.dtd">
<!-- Generated by graphviz version 7.0.5 (20221223.1930)
 -->
<!-- Title: /github/workspace/client/include/Engine/Event.hpp Pages: 1 -->
<svg width="1793pt" height="203pt"
 viewBox="0.00 0.00 1792.50 203.00" xmlns="http://www.w3.org/2000/svg" xmlns:xlink="http://www.w3.org/1999/xlink">
<g id="graph0" class="graph" transform="scale(1 1) rotate(0) translate(4 199)">
<title>/github/workspace/client/include/Engine/Event.hpp</title>
<!-- Node1 -->
<g id="node1" class="node">
<title>Node1</title>
<g id="a_node1"><a xlink:title=" ">
<polygon fill="#999999" stroke="#666666" points="1204.5,-195 1076.5,-195 1076.5,-165 1204.5,-165 1204.5,-195"/>
<text text-anchor="start" x="1084.5" y="-183" font-family="Helvetica,sans-Serif" font-size="10.00">/github/workspace/client</text>
<text text-anchor="middle" x="1140.5" y="-172" font-family="Helvetica,sans-Serif" font-size="10.00">/include/Engine/Event.hpp</text>
</a>
</g>
</g>
<!-- Node2 -->
<g id="node2" class="node">
<title>Node2</title>
<g id="a_node2"><a xlink:href="Engine_8hpp.html" target="_top" xlink:title=" ">
<polygon fill="white" stroke="#666666" points="1107.5,-129 1011.5,-129 1011.5,-110 1107.5,-110 1107.5,-129"/>
<text text-anchor="middle" x="1059.5" y="-117" font-family="Helvetica,sans-Serif" font-size="10.00">Engine/Engine.hpp</text>
</a>
</g>
</g>
<!-- Node1&#45;&gt;Node2 -->
<g id="edge1" class="edge">
<title>Node1&#45;&gt;Node2</title>
<path fill="none" stroke="#63b8ff" d="M1114.56,-164.54C1101.62,-155.96 1086.49,-145.07 1075.26,-136.26"/>
<polygon fill="#63b8ff" stroke="#63b8ff" points="1077.69,-133.73 1067.72,-130.13 1073.27,-139.16 1077.69,-133.73"/>
</g>
<!-- Node24 -->
<g id="node24" class="node">
<title>Node24</title>
<g id="a_node24"><a xlink:title=" ">
<polygon fill="#e0e0e0" stroke="#999999" points="1155,-129 1126,-129 1126,-110 1155,-110 1155,-129"/>
<text text-anchor="middle" x="1140.5" y="-117" font-family="Helvetica,sans-Serif" font-size="10.00">list</text>
</a>
</g>
</g>
<!-- Node1&#45;&gt;Node24 -->
<g id="edge31" class="edge">
<title>Node1&#45;&gt;Node24</title>
<path fill="none" stroke="#63b8ff" d="M1140.5,-164.54C1140.5,-157.34 1140.5,-148.53 1140.5,-140.68"/>
<polygon fill="#63b8ff" stroke="#63b8ff" points="1144,-140.69 1140.5,-130.69 1137,-140.69 1144,-140.69"/>
</g>
<!-- Node25 -->
<g id="node25" class="node">
<title>Node25</title>
<g id="a_node25"><a xlink:title=" ">
<polygon fill="#e0e0e0" stroke="#999999" points="1216,-129 1173,-129 1173,-110 1216,-110 1216,-129"/>
<text text-anchor="middle" x="1194.5" y="-117" font-family="Helvetica,sans-Serif" font-size="10.00">queue</text>
</a>
</g>
</g>
<!-- Node1&#45;&gt;Node25 -->
<g id="edge32" class="edge">
<title>Node1&#45;&gt;Node25</title>
<path fill="none" stroke="#63b8ff" d="M1153.85,-164.54C1161.37,-156.39 1170.81,-146.16 1178.7,-137.61"/>
<polygon fill="#63b8ff" stroke="#63b8ff" points="1181.25,-140.01 1185.47,-130.29 1176.11,-135.26 1181.25,-140.01"/>
</g>
<!-- Node26 -->
<g id="node26" class="node">
<title>Node26</title>
<g id="a_node26"><a xlink:title=" ">
<polygon fill="#e0e0e0" stroke="#999999" points="1296.5,-129 1234.5,-129 1234.5,-110 1296.5,-110 1296.5,-129"/>
<text text-anchor="middle" x="1265.5" y="-117" font-family="Helvetica,sans-Serif" font-size="10.00">Skaldi.hpp</text>
</a>
</g>
</g>
<!-- Node1&#45;&gt;Node26 -->
<g id="edge33" class="edge">
<title>Node1&#45;&gt;Node26</title>
<path fill="none" stroke="#63b8ff" d="M1171.4,-164.54C1191.19,-155.28 1216.73,-143.33 1236.2,-134.21"/>
<polygon fill="#63b8ff" stroke="#63b8ff" points="1237.65,-137.4 1245.23,-129.99 1234.69,-131.06 1237.65,-137.4"/>
</g>
<!-- Node2&#45;&gt;Node1 -->
<g id="edge20" class="edge">
<title>Node2&#45;&gt;Node1</title>
<path fill="none" stroke="#63b8ff" d="M1076.75,-129.35C1088.73,-136.85 1104.57,-147.92 1117.54,-157.71"/>
<polygon fill="#63b8ff" stroke="#63b8ff" points="1115.14,-160.28 1125.2,-163.61 1119.42,-154.73 1115.14,-160.28"/>
</g>
<!-- Node3 -->
<g id="node3" class="node">
<title>Node3</title>
<g id="a_node3"><a xlink:title=" ">
<polygon fill="#e0e0e0" stroke="#999999" points="89,-74 0,-74 0,-55 89,-55 89,-74"/>
<text text-anchor="middle" x="44.5" y="-62" font-family="Helvetica,sans-Serif" font-size="10.00">SFML/Audio.hpp</text>
</a>
</g>
</g>
<!-- Node2&#45;&gt;Node3 -->
<g id="edge2" class="edge">
<title>Node2&#45;&gt;Node3</title>
<path fill="none" stroke="#63b8ff" d="M1011.11,-118.14C871.55,-116.69 456.08,-109.56 100.54,-74.07"/>
<polygon fill="#63b8ff" stroke="#63b8ff" points="101.05,-70.6 90.75,-73.08 100.34,-77.57 101.05,-70.6"/>
</g>
<!-- Node4 -->
<g id="node4" class="node">
<title>Node4</title>
<g id="a_node4"><a xlink:title=" ">
<polygon fill="#e0e0e0" stroke="#999999" points="211.5,-74 107.5,-74 107.5,-55 211.5,-55 211.5,-74"/>
<text text-anchor="middle" x="159.5" y="-62" font-family="Helvetica,sans-Serif" font-size="10.00">SFML/Graphics.hpp</text>
</a>
</g>
</g>
<!-- Node2&#45;&gt;Node4 -->
<g id="edge3" class="edge">
<title>Node2&#45;&gt;Node4</title>
<path fill="none" stroke="#63b8ff" d="M1011.16,-117.38C883.93,-114.13 529.14,-103.06 223.03,-74.15"/>
<polygon fill="#63b8ff" stroke="#63b8ff" points="223.5,-70.68 213.22,-73.22 222.84,-77.65 223.5,-70.68"/>
</g>
<!-- Node5 -->
<g id="node5" class="node">
<title>Node5</title>
<g id="a_node5"><a xlink:title=" ">
<polygon fill="#e0e0e0" stroke="#999999" points="331,-74 230,-74 230,-55 331,-55 331,-74"/>
<text text-anchor="middle" x="280.5" y="-62" font-family="Helvetica,sans-Serif" font-size="10.00">SFML/Network.hpp</text>
</a>
</g>
</g>
<!-- Node2&#45;&gt;Node5 -->
<g id="edge4" class="edge">
<title>Node2&#45;&gt;Node5</title>
<path fill="none" stroke="#63b8ff" d="M1011.36,-116.88C897.09,-112.74 600.34,-100.28 342.41,-74.22"/>
<polygon fill="#63b8ff" stroke="#63b8ff" points="343.13,-70.78 332.82,-73.24 342.42,-77.74 343.13,-70.78"/>
</g>
<!-- Node6 -->
<g id="node6" class="node">
<title>Node6</title>
<g id="a_node6"><a xlink:title=" ">
<polygon fill="#e0e0e0" stroke="#999999" points="448,-74 349,-74 349,-55 448,-55 448,-74"/>
<text text-anchor="middle" x="398.5" y="-62" font-family="Helvetica,sans-Serif" font-size="10.00">SFML/Window.hpp</text>
</a>
</g>
</g>
<!-- Node2&#45;&gt;Node6 -->
<g id="edge5" class="edge">
<title>Node2&#45;&gt;Node6</title>
<path fill="none" stroke="#63b8ff" d="M1011.02,-116.06C910.4,-110.75 671.34,-96.84 459.7,-74.16"/>
<polygon fill="#63b8ff" stroke="#63b8ff" points="460.19,-70.69 449.87,-73.09 459.43,-77.65 460.19,-70.69"/>
</g>
<!-- Node7 -->
<g id="node7" class="node">
<title>Node7</title>
<g id="a_node7"><a xlink:title=" ">
<polygon fill="#e0e0e0" stroke="#999999" points="564.5,-74 466.5,-74 466.5,-55 564.5,-55 564.5,-74"/>
<text text-anchor="middle" x="515.5" y="-62" font-family="Helvetica,sans-Serif" font-size="10.00">SFML/System.hpp</text>
</a>
</g>
</g>
<!-- Node2&#45;&gt;Node7 -->
<g id="edge6" class="edge">
<title>Node2&#45;&gt;Node7</title>
<path fill="none" stroke="#63b8ff" d="M1011.12,-114.94C925.6,-108.47 741.85,-93.7 576.22,-74.26"/>
<polygon fill="#63b8ff" stroke="#63b8ff" points="576.68,-70.79 566.34,-73.09 575.86,-77.74 576.68,-70.79"/>
</g>
<!-- Node8 -->
<g id="node8" class="node">
<title>Node8</title>
<g id="a_node8"><a xlink:title=" ">
<polygon fill="#e0e0e0" stroke="#999999" points="636.5,-74 582.5,-74 582.5,-55 636.5,-55 636.5,-74"/>
<text text-anchor="middle" x="609.5" y="-62" font-family="Helvetica,sans-Serif" font-size="10.00">iostream</text>
</a>
</g>
</g>
<!-- Node2&#45;&gt;Node8 -->
<g id="edge7" class="edge">
<title>Node2&#45;&gt;Node8</title>
<path fill="none" stroke="#63b8ff" d="M1011.1,-115.27C935.59,-109.79 785,-97.15 648.04,-74.24"/>
<polygon fill="#63b8ff" stroke="#63b8ff" points="648.88,-70.83 638.44,-72.61 647.71,-77.73 648.88,-70.83"/>
</g>
<!-- Node9 -->
<g id="node9" class="node">
<title>Node9</title>
<g id="a_node9"><a xlink:title=" ">
<polygon fill="#e0e0e0" stroke="#999999" points="704.5,-74 654.5,-74 654.5,-55 704.5,-55 704.5,-74"/>
<text text-anchor="middle" x="679.5" y="-62" font-family="Helvetica,sans-Serif" font-size="10.00">fstream</text>
</a>
</g>
</g>
<!-- Node2&#45;&gt;Node9 -->
<g id="edge8" class="edge">
<title>Node2&#45;&gt;Node9</title>
<path fill="none" stroke="#63b8ff" d="M1011.08,-114.08C946.08,-107.75 826.84,-94.74 715.75,-74.22"/>
<polygon fill="#63b8ff" stroke="#63b8ff" points="716.64,-70.83 706.17,-72.42 715.35,-77.71 716.64,-70.83"/>
</g>
<!-- Node10 -->
<g id="node10" class="node">
<title>Node10</title>
<g id="a_node10"><a xlink:title=" ">
<polygon fill="#e0e0e0" stroke="#999999" points="770.5,-74 722.5,-74 722.5,-55 770.5,-55 770.5,-74"/>
<text text-anchor="middle" x="746.5" y="-62" font-family="Helvetica,sans-Serif" font-size="10.00">string.h</text>
</a>
</g>
</g>
<!-- Node2&#45;&gt;Node10 -->
<g id="edge9" class="edge">
<title>Node2&#45;&gt;Node10</title>
<path fill="none" stroke="#63b8ff" d="M1011.19,-112.24C957.53,-104.97 868.13,-91.93 782.22,-74.4"/>
<polygon fill="#63b8ff" stroke="#63b8ff" points="782.93,-70.97 772.43,-72.38 781.51,-77.83 782.93,-70.97"/>
</g>
<!-- Node11 -->
<g id="node11" class="node">
<title>Node11</title>
<g id="a_node11"><a xlink:title=" ">
<polygon fill="#e0e0e0" stroke="#999999" points="838.5,-74 788.5,-74 788.5,-55 838.5,-55 838.5,-74"/>
<text text-anchor="middle" x="813.5" y="-62" font-family="Helvetica,sans-Serif" font-size="10.00">unistd.h</text>
</a>
</g>
</g>
<!-- Node2&#45;&gt;Node11 -->
<g id="edge10" class="edge">
<title>Node2&#45;&gt;Node11</title>
<path fill="none" stroke="#63b8ff" d="M1014.31,-109.53C973.67,-101.35 912.06,-88.67 849.57,-74.41"/>
<polygon fill="#63b8ff" stroke="#63b8ff" points="850.73,-71.08 840.2,-72.26 849.16,-77.91 850.73,-71.08"/>
</g>
<!-- Node12 -->
<g id="node12" class="node">
<title>Node12</title>
<g id="a_node12"><a xlink:title=" ">
<polygon fill="#e0e0e0" stroke="#999999" points="922,-74 857,-74 857,-55 922,-55 922,-74"/>
<text text-anchor="middle" x="889.5" y="-62" font-family="Helvetica,sans-Serif" font-size="10.00">sys/types.h</text>
</a>
</g>
</g>
<!-- Node2&#45;&gt;Node12 -->
<g id="edge11" class="edge">
<title>Node2&#45;&gt;Node12</title>
<path fill="none" stroke="#63b8ff" d="M1030.66,-109.51C1002.74,-100.8 960.17,-87.53 929.08,-77.84"/>
<polygon fill="#63b8ff" stroke="#63b8ff" points="930.23,-74.53 919.64,-74.9 928.15,-81.21 930.23,-74.53"/>
</g>
<!-- Node13 -->
<g id="node13" class="node">
<title>Node13</title>
<g id="a_node13"><a xlink:title=" ">
<polygon fill="#e0e0e0" stroke="#999999" points="1517.5,-19 1473.5,-19 1473.5,0 1517.5,0 1517.5,-19"/>
<text text-anchor="middle" x="1495.5" y="-7" font-family="Helvetica,sans-Serif" font-size="10.00">vector</text>
</a>
</g>
</g>
<!-- Node2&#45;&gt;Node13 -->
<g id="edge12" class="edge">
<title>Node2&#45;&gt;Node13</title>
<path fill="none" stroke="#63b8ff" d="M1107.99,-111.13C1110.87,-110.73 1113.72,-110.35 1116.5,-110 1191.87,-100.39 1392.24,-114.54 1456.5,-74 1472.56,-63.87 1483.02,-44.48 1489.03,-29.78"/>
<polygon fill="#63b8ff" stroke="#63b8ff" points="1492.21,-31.28 1492.39,-20.69 1485.64,-28.86 1492.21,-31.28"/>
</g>
<!-- Node14 -->
<g id="node14" class="node">
<title>Node14</title>
<g id="a_node14"><a xlink:title=" ">
<polygon fill="#e0e0e0" stroke="#999999" points="1142.5,-74 1086.5,-74 1086.5,-55 1142.5,-55 1142.5,-74"/>
<text text-anchor="middle" x="1114.5" y="-62" font-family="Helvetica,sans-Serif" font-size="10.00">stdbool.h</text>
</a>
</g>
</g>
<!-- Node2&#45;&gt;Node14 -->
<g id="edge13" class="edge">
<title>Node2&#45;&gt;Node14</title>
<path fill="none" stroke="#63b8ff" d="M1068.58,-109.75C1076.34,-102.27 1087.71,-91.32 1097.2,-82.17"/>
<polygon fill="#63b8ff" stroke="#63b8ff" points="1099.36,-84.95 1104.13,-75.49 1094.5,-79.91 1099.36,-84.95"/>
</g>
<!-- Node15 -->
<g id="node15" class="node">
<title>Node15</title>
<g id="a_node15"><a xlink:title=" ">
<polygon fill="#e0e0e0" stroke="#999999" points="1208,-74 1161,-74 1161,-55 1208,-55 1208,-74"/>
<text text-anchor="middle" x="1184.5" y="-62" font-family="Helvetica,sans-Serif" font-size="10.00">stdlib.h</text>
</a>
</g>
</g>
<!-- Node2&#45;&gt;Node15 -->
<g id="edge14" class="edge">
<title>Node2&#45;&gt;Node15</title>
<path fill="none" stroke="#63b8ff" d="M1080.7,-109.51C1100.58,-101.08 1130.53,-88.38 1153.16,-78.79"/>
<polygon fill="#63b8ff" stroke="#63b8ff" points="1154.37,-82.07 1162.22,-74.95 1151.64,-75.63 1154.37,-82.07"/>
</g>
<!-- Node16 -->
<g id="node16" class="node">
<title>Node16</title>
<g id="a_node16"><a xlink:title=" ">
<polygon fill="#e0e0e0" stroke="#999999" points="1284.5,-74 1226.5,-74 1226.5,-55 1284.5,-55 1284.5,-74"/>
<text text-anchor="middle" x="1255.5" y="-62" font-family="Helvetica,sans-Serif" font-size="10.00">exception</text>
</a>
</g>
</g>
<!-- Node2&#45;&gt;Node16 -->
<g id="edge15" class="edge">
<title>Node2&#45;&gt;Node16</title>
<path fill="none" stroke="#63b8ff" d="M1092.75,-109.51C1126.7,-100.33 1179.41,-86.07 1215.6,-76.29"/>
<polygon fill="#63b8ff" stroke="#63b8ff" points="1216.05,-79.79 1224.79,-73.8 1214.23,-73.04 1216.05,-79.79"/>
</g>
<!-- Node17 -->
<g id="node17" class="node">
<title>Node17</title>
<g id="a_node17"><a xlink:href="Window_8hpp.html" target="_top" xlink:title=" ">
<polygon fill="white" stroke="#666666" points="1372,-19 1271,-19 1271,0 1372,0 1372,-19"/>
<text text-anchor="middle" x="1321.5" y="-7" font-family="Helvetica,sans-Serif" font-size="10.00">Engine/Window.hpp</text>
</a>
</g>
</g>
<!-- Node2&#45;&gt;Node17 -->
<g id="edge16" class="edge">
<title>Node2&#45;&gt;Node17</title>
<path fill="none" stroke="#63b8ff" d="M1107.25,-109.55C1171.28,-98.25 1277.44,-79.61 1284.5,-74 1298.06,-63.22 1305.22,-44.53 1310.48,-30.2"/>
<polygon fill="#63b8ff" stroke="#63b8ff" points="1313.74,-31.48 1314.02,-20.88 1307.2,-28.99 1313.74,-31.48"/>
</g>
<!-- Node18 -->
<g id="node18" class="node">
<title>Node18</title>
<g id="a_node18"><a xlink:href="Draw_8hpp.html" target="_top" xlink:title=" ">
<polygon fill="white" stroke="#666666" points="1448,-74 1359,-74 1359,-55 1448,-55 1448,-74"/>
<text text-anchor="middle" x="1403.5" y="-62" font-family="Helvetica,sans-Serif" font-size="10.00">Engine/Draw.hpp</text>
</a>
</g>
</g>
<!-- Node2&#45;&gt;Node18 -->
<g id="edge18" class="edge">
<title>Node2&#45;&gt;Node18</title>
<path fill="none" stroke="#63b8ff" d="M1107.82,-110.28C1170.91,-100.2 1280.91,-83.26 1347.54,-73.36"/>
<polygon fill="#63b8ff" stroke="#63b8ff" points="1347.78,-76.86 1357.16,-71.93 1346.75,-69.94 1347.78,-76.86"/>
</g>
<!-- Node19 -->
<g id="node19" class="node">
<title>Node19</title>
<g id="a_node19"><a xlink:href="StateManager_8hpp.html" target="_top" xlink:title=" ">
<polygon fill="white" stroke="#666666" points="1068.5,-74 940.5,-74 940.5,-55 1068.5,-55 1068.5,-74"/>
<text text-anchor="middle" x="1004.5" y="-62" font-family="Helvetica,sans-Serif" font-size="10.00">Engine/StateManager.hpp</text>
</a>
</g>
</g>
<!-- Node2&#45;&gt;Node19 -->
<g id="edge21" class="edge">
<title>Node2&#45;&gt;Node19</title>
<path fill="none" stroke="#63b8ff" d="M1044.95,-109.51C1035.88,-102.23 1024.63,-91.77 1016.14,-82.87"/>
<polygon fill="#63b8ff" stroke="#63b8ff" points="1018.8,-80.59 1009.51,-75.48 1013.59,-85.26 1018.8,-80.59"/>
</g>
<!-- Node20 -->
<g id="node20" class="node">
<title>Node20</title>
<g id="a_node20"><a xlink:href="EntitiesManager_8hpp.html" target="_top" xlink:title=" ">
<polygon fill="white" stroke="#666666" points="1644.5,-74 1504.5,-74 1504.5,-55 1644.5,-55 1644.5,-74"/>
<text text-anchor="middle" x="1574.5" y="-62" font-family="Helvetica,sans-Serif" font-size="10.00">Entities/EntitiesManager.hpp</text>
</a>
</g>
</g>
<!-- Node2&#45;&gt;Node20 -->
<g id="edge24" class="edge">
<title>Node2&#45;&gt;Node20</title>
<path fill="none" stroke="#63b8ff" d="M1107.99,-109.94C1273.33,-89.68 1315.48,-90.39 1481.5,-74 1485.15,-73.64 1488.88,-73.27 1492.66,-72.89"/>
<polygon fill="#63b8ff" stroke="#63b8ff" points="1492.99,-76.38 1502.59,-71.91 1492.29,-69.41 1492.99,-76.38"/>
</g>
<!-- Node22 -->
<g id="node22" class="node">
<title>Node22</title>
<g id="a_node22"><a xlink:href="Bullets_8hpp.html" target="_top" xlink:title=" ">
<polygon fill="white" stroke="#666666" points="1784.5,-74 1662.5,-74 1662.5,-55 1784.5,-55 1784.5,-74"/>
<text text-anchor="middle" x="1723.5" y="-62" font-family="Helvetica,sans-Serif" font-size="10.00">Components/Bullets.hpp</text>
</a>
</g>
</g>
<!-- Node2&#45;&gt;Node22 -->
<g id="edge28" class="edge">
<title>Node2&#45;&gt;Node22</title>
<path fill="none" stroke="#63b8ff" d="M1107.85,-109.96C1345.38,-84.35 1406.47,-96.41 1644.5,-74 1646.65,-73.8 1648.83,-73.58 1651.04,-73.36"/>
<polygon fill="#63b8ff" stroke="#63b8ff" points="1651.14,-76.87 1660.72,-72.33 1650.4,-69.91 1651.14,-76.87"/>
</g>
<!-- Node17&#45;&gt;Node2 -->
<g id="edge17" class="edge">
<title>Node17&#45;&gt;Node2</title>
<path fill="none" stroke="#63b8ff" d="M1325.88,-19.47C1326.73,-33.44 1319.85,-60.2 1302.5,-74 1295.43,-79.62 1188.95,-98.31 1119.23,-109.6"/>
<polygon fill="#63b8ff" stroke="#63b8ff" points="1118.76,-106.13 1109.44,-111.17 1119.87,-113.04 1118.76,-106.13"/>
</g>
<!-- Node18&#45;&gt;Node2 -->
<g id="edge19" class="edge">
<title>Node18&#45;&gt;Node2</title>
<path fill="none" stroke="#63b8ff" d="M1358.53,-73.19C1297.05,-83.03 1186.85,-100.01 1118.71,-110.16"/>
<polygon fill="#63b8ff" stroke="#63b8ff" points="1118.62,-106.64 1109.24,-111.57 1119.64,-113.56 1118.62,-106.64"/>
</g>
<!-- Node19&#45;&gt;Node2 -->
<g id="edge22" class="edge">
<title>Node19&#45;&gt;Node2</title>
<path fill="none" stroke="#63b8ff" d="M1018.99,-74.44C1028.1,-81.74 1039.42,-92.28 1047.94,-101.22"/>
<polygon fill="#63b8ff" stroke="#63b8ff" points="1045.29,-103.51 1054.57,-108.62 1050.51,-98.84 1045.29,-103.51"/>
</g>
<!-- Node19&#45;&gt;Node17 -->
<g id="edge23" class="edge">
<title>Node19&#45;&gt;Node17</title>
<path fill="none" stroke="#63b8ff" d="M1058.27,-54.51C1113.92,-45.21 1200.73,-30.69 1259.29,-20.9"/>
<polygon fill="#63b8ff" stroke="#63b8ff" points="1259.83,-24.36 1269.12,-19.26 1258.68,-17.45 1259.83,-24.36"/>
</g>
<!-- Node20&#45;&gt;Node2 -->
<g id="edge25" class="edge">
<title>Node20&#45;&gt;Node2</title>
<path fill="none" stroke="#63b8ff" d="M1504.36,-73.52C1502.73,-73.68 1501.1,-73.84 1499.5,-74 1333.32,-90.41 1291.25,-89.68 1125.5,-110 1123.47,-110.25 1121.39,-110.51 1119.29,-110.79"/>
<polygon fill="#63b8ff" stroke="#63b8ff" points="1118.86,-107.31 1109.42,-112.13 1119.8,-114.25 1118.86,-107.31"/>
</g>
<!-- Node20&#45;&gt;Node13 -->
<g id="edge27" class="edge">
<title>Node20&#45;&gt;Node13</title>
<path fill="none" stroke="#63b8ff" d="M1561.1,-54.51C1549.34,-46.62 1531.99,-34.98 1518.09,-25.65"/>
<polygon fill="#63b8ff" stroke="#63b8ff" points="1520.21,-22.87 1509.96,-20.2 1516.31,-28.68 1520.21,-22.87"/>
</g>
<!-- Node21 -->
<g id="node21" class="node">
<title>Node21</title>
<g id="a_node21"><a xlink:title=" ">
<polygon fill="#e0e0e0" stroke="#999999" points="1593.5,-19 1555.5,-19 1555.5,0 1593.5,0 1593.5,-19"/>
<text text-anchor="middle" x="1574.5" y="-7" font-family="Helvetica,sans-Serif" font-size="10.00">array</text>
</a>
</g>
</g>
<!-- Node20&#45;&gt;Node21 -->
<g id="edge26" class="edge">
<title>Node20&#45;&gt;Node21</title>
<path fill="none" stroke="#63b8ff" d="M1574.5,-54.75C1574.5,-48.27 1574.5,-39.16 1574.5,-30.9"/>
<polygon fill="#63b8ff" stroke="#63b8ff" points="1578,-30.96 1574.5,-20.96 1571,-30.96 1578,-30.96"/>
</g>
<!-- Node22&#45;&gt;Node2 -->
<g id="edge29" class="edge">
<title>Node22&#45;&gt;Node2</title>
<path fill="none" stroke="#63b8ff" d="M1662.15,-74.03C1424.29,-96.41 1363.21,-84.35 1125.5,-110 1123.46,-110.22 1121.39,-110.46 1119.29,-110.71"/>
<polygon fill="#63b8ff" stroke="#63b8ff" points="1118.87,-107.24 1109.4,-111.99 1119.77,-114.18 1118.87,-107.24"/>
</g>
<!-- Node23 -->
<g id="node23" class="node">
<title>Node23</title>
<g id="a_node23"><a xlink:title=" ">
<polygon fill="#e0e0e0" stroke="#999999" points="1746.5,-19 1700.5,-19 1700.5,0 1746.5,0 1746.5,-19"/>
<text text-anchor="middle" x="1723.5" y="-7" font-family="Helvetica,sans-Serif" font-size="10.00">math.h</text>
</a>
</g>
</g>
<!-- Node22&#45;&gt;Node23 -->
<g id="edge30" class="edge">
<title>Node22&#45;&gt;Node23</title>
<path fill="none" stroke="#63b8ff" d="M1723.5,-54.75C1723.5,-48.27 1723.5,-39.16 1723.5,-30.9"/>
<polygon fill="#63b8ff" stroke="#63b8ff" points="1727,-30.96 1723.5,-20.96 1720,-30.96 1727,-30.96"/>
</g>
</g>
</svg>
