<?xml version="1.0" encoding="UTF-8" standalone="no"?>
<!DOCTYPE svg PUBLIC "-//W3C//DTD SVG 1.1//EN"
 "http://www.w3.org/Graphics/SVG/1.1/DTD/svg11.dtd">
<!-- Generated by graphviz version 7.0.5 (20221223.1930)
 -->
<!-- Title: /github/workspace/client/include/Engine/Event.hpp Pages: 1 -->
<!--zoomable 456 -->
<svg id="main" version="1.1" xmlns="http://www.w3.org/2000/svg" xmlns:xlink="http://www.w3.org/1999/xlink" xml:space="preserve" onload="init(evt)">
<style type="text/css"><![CDATA[
.edge:hover path { stroke: red; }
.edge:hover polygon { stroke: red; fill: red; }
]]></style>
<script type="text/javascript"><![CDATA[
var edges = document.getElementsByTagName('g');
if (edges && edges.length) {
  for (var i=0;i<edges.length;i++) {
    if (edges[i].id.substr(0,4)=='edge') {
      edges[i].setAttribute('class','edge');
    }
  }
}
]]></script>
        <defs>
                <circle id="rim" cx="0" cy="0" r="7"/>
                <circle id="rim2" cx="0" cy="0" r="3.5"/>
                <g id="zoomPlus">
                        <use xlink:href="#rim" fill="#404040">
                                <set attributeName="fill" to="#808080" begin="zoomplus.mouseover" end="zoomplus.mouseout"/>
                        </use>
                        <path d="M-4,0h8M0,-4v8" fill="none" stroke="white" stroke-width="1.5" pointer-events="none"/>
                </g>
                <g id="zoomMin">
                        <use xlink:href="#rim" fill="#404040">
                                <set attributeName="fill" to="#808080" begin="zoomminus.mouseover" end="zoomminus.mouseout"/>
                        </use>
                        <path d="M-4,0h8" fill="none" stroke="white" stroke-width="1.5" pointer-events="none"/>
                </g>
                <g id="dirArrow">
                        <path fill="none" stroke="white" stroke-width="1.5" d="M0,-3.0v7 M-2.5,-0.5L0,-3.0L2.5,-0.5"/>
                </g>
               <g id="resetDef">
                       <use xlink:href="#rim2" fill="#404040">
                               <set attributeName="fill" to="#808080" begin="reset.mouseover" end="reset.mouseout"/>
                       </use>
               </g>
        </defs>

<script type="text/javascript">
var viewWidth = 2365;
var viewHeight = 456;
var sectionId = 'dynsection-1';
</script>
<script xlink:href="svgpan.js"/>
<svg id="graph" class="graph">
<g id="viewport">
<title>/github/workspace/client/include/Engine/Event.hpp</title>
<!-- Node1 -->
<g id="node1" class="node">
<title>Node1</title>
<g id="a_node1"><a xlink:title=" ">
<polygon fill="#999999" stroke="#666666" points="1576,-448 1448,-448 1448,-418 1576,-418 1576,-448"/>
<text text-anchor="start" x="1456" y="-436" font-family="Helvetica,sans-Serif" font-size="10.00">/github/workspace/client</text>
<text text-anchor="middle" x="1512" y="-425" font-family="Helvetica,sans-Serif" font-size="10.00">/include/Engine/Event.hpp</text>
</a>
</g>
</g>
<!-- Node2 -->
<g id="node2" class="node">
<title>Node2</title>
<g id="a_node2"><a xlink:href="Engine_8hpp.html" target="_top" xlink:title=" ">
<polygon fill="white" stroke="#666666" points="1578.5,-382 1445.5,-382 1445.5,-352 1578.5,-352 1578.5,-382"/>
<text text-anchor="start" x="1453.5" y="-370" font-family="Helvetica,sans-Serif" font-size="10.00">/github/workspace/client</text>
<text text-anchor="middle" x="1512" y="-359" font-family="Helvetica,sans-Serif" font-size="10.00">/include/Engine/Engine.hpp</text>
</a>
</g>
</g>
<!-- Node1&#45;&gt;Node2 -->
<g id="edge1" class="edge">
<title>Node1&#45;&gt;Node2</title>
<path fill="none" stroke="#63b8ff" d="M1505.37,-406.39C1505.05,-398.13 1505.36,-389.28 1506.29,-382.16"/>
<polygon fill="#63b8ff" stroke="#63b8ff" points="1501.88,-406.6 1506.16,-416.29 1508.85,-406.04 1501.88,-406.6"/>
</g>
<!-- Node30 -->
<g id="node30" class="node">
<title>Node30</title>
<g id="a_node30"><a xlink:href="Event_8cpp.html" target="_top" xlink:title=" ">
<polygon fill="white" stroke="#666666" points="2357,-316 2235,-316 2235,-286 2357,-286 2357,-316"/>
<text text-anchor="start" x="2243" y="-304" font-family="Helvetica,sans-Serif" font-size="10.00">/github/workspace/client</text>
<text text-anchor="middle" x="2296" y="-293" font-family="Helvetica,sans-Serif" font-size="10.00">/src/Event.cpp</text>
</a>
</g>
</g>
<!-- Node1&#45;&gt;Node30 -->
<g id="edge47" class="edge">
<title>Node1&#45;&gt;Node30</title>
<path fill="none" stroke="#63b8ff" d="M1587.74,-419.44C1742.58,-393.77 2092.7,-335.71 2234.57,-312.19"/>
<polygon fill="#63b8ff" stroke="#63b8ff" points="1587.28,-415.97 1577.98,-421.06 1588.42,-422.88 1587.28,-415.97"/>
</g>
<!-- Node2&#45;&gt;Node1 -->
<g id="edge17" class="edge">
<title>Node2&#45;&gt;Node1</title>
<path fill="none" stroke="#63b8ff" d="M1518.63,-393.56C1518.95,-401.82 1518.64,-410.67 1517.72,-417.8"/>
<polygon fill="#63b8ff" stroke="#63b8ff" points="1522.12,-393.36 1517.84,-383.67 1515.14,-393.92 1522.12,-393.36"/>
</g>
<!-- Node3 -->
<g id="node3" class="node">
<title>Node3</title>
<g id="a_node3"><a xlink:href="Bonus_8hpp.html" target="_top" xlink:title=" ">
<polygon fill="white" stroke="#666666" points="545.5,-244.5 388.5,-244.5 388.5,-214.5 545.5,-214.5 545.5,-244.5"/>
<text text-anchor="start" x="396.5" y="-232.5" font-family="Helvetica,sans-Serif" font-size="10.00">/github/workspace/client</text>
<text text-anchor="middle" x="467" y="-221.5" font-family="Helvetica,sans-Serif" font-size="10.00">/include/Components/Bonus.hpp</text>
</a>
</g>
</g>
<!-- Node2&#45;&gt;Node3 -->
<g id="edge2" class="edge">
<title>Node2&#45;&gt;Node3</title>
<path fill="none" stroke="#63b8ff" d="M1433.79,-364.92C1220.53,-361.56 639.5,-349.42 560,-316 523.81,-300.79 492.76,-265.05 477.36,-244.92"/>
<polygon fill="#63b8ff" stroke="#63b8ff" points="1433.62,-368.42 1443.67,-365.08 1433.73,-361.42 1433.62,-368.42"/>
</g>
<!-- Node4 -->
<g id="node4" class="node">
<title>Node4</title>
<g id="a_node4"><a xlink:href="include_8hpp.html" target="_top" xlink:title=" ">
<polygon fill="white" stroke="#666666" points="528,-167.5 406,-167.5 406,-137.5 528,-137.5 528,-167.5"/>
<text text-anchor="start" x="414" y="-155.5" font-family="Helvetica,sans-Serif" font-size="10.00">/github/workspace/client</text>
<text text-anchor="middle" x="467" y="-144.5" font-family="Helvetica,sans-Serif" font-size="10.00">/include/include.hpp</text>
</a>
</g>
</g>
<!-- Node2&#45;&gt;Node4 -->
<g id="edge44" class="edge">
<title>Node2&#45;&gt;Node4</title>
<path fill="none" stroke="#63b8ff" d="M1433.87,-364.47C1264.16,-360.58 866.61,-348.23 736,-316 666.08,-298.75 645.38,-293.53 588,-250 569.14,-235.69 571.75,-224.67 554,-209 535.6,-192.76 511.98,-178 493.99,-167.8"/>
<polygon fill="#63b8ff" stroke="#63b8ff" points="1433.61,-367.97 1443.69,-364.69 1433.77,-360.97 1433.61,-367.97"/>
</g>
<!-- Node5 -->
<g id="node5" class="node">
<title>Node5</title>
<g id="a_node5"><a xlink:href="Bullets_8hpp.html" target="_top" xlink:title=" ">
<polygon fill="white" stroke="#666666" points="1136.5,-316 977.5,-316 977.5,-286 1136.5,-286 1136.5,-316"/>
<text text-anchor="start" x="985.5" y="-304" font-family="Helvetica,sans-Serif" font-size="10.00">/github/workspace/client</text>
<text text-anchor="middle" x="1057" y="-293" font-family="Helvetica,sans-Serif" font-size="10.00">/include/Components/Bullets.hpp</text>
</a>
</g>
</g>
<!-- Node2&#45;&gt;Node5 -->
<g id="edge4" class="edge">
<title>Node2&#45;&gt;Node5</title>
<path fill="none" stroke="#63b8ff" d="M1433.97,-356.7C1358,-346.97 1239.55,-331.07 1137.32,-316.05"/>
<polygon fill="#63b8ff" stroke="#63b8ff" points="1433.46,-360.16 1443.83,-357.95 1434.35,-353.22 1433.46,-360.16"/>
</g>
<!-- Node7 -->
<g id="node7" class="node">
<title>Node7</title>
<g id="a_node7"><a xlink:href="Audio_8hpp.html" target="_top" xlink:title=" ">
<polygon fill="white" stroke="#666666" points="1425,-316 1297,-316 1297,-286 1425,-286 1425,-316"/>
<text text-anchor="start" x="1305" y="-304" font-family="Helvetica,sans-Serif" font-size="10.00">/github/workspace/client</text>
<text text-anchor="middle" x="1361" y="-293" font-family="Helvetica,sans-Serif" font-size="10.00">/include/Engine/Audio.hpp</text>
</a>
</g>
</g>
<!-- Node2&#45;&gt;Node7 -->
<g id="edge8" class="edge">
<title>Node2&#45;&gt;Node7</title>
<path fill="none" stroke="#63b8ff" d="M1467.82,-347.27C1444.59,-337.43 1416.56,-325.55 1395.04,-316.43"/>
<polygon fill="#63b8ff" stroke="#63b8ff" points="1466.15,-350.37 1476.72,-351.05 1468.88,-343.92 1466.15,-350.37"/>
</g>
<!-- Node8 -->
<g id="node8" class="node">
<title>Node8</title>
<g id="a_node8"><a xlink:href="Destroy_8hpp.html" target="_top" xlink:title=" ">
<polygon fill="white" stroke="#666666" points="1580.5,-316 1443.5,-316 1443.5,-286 1580.5,-286 1580.5,-316"/>
<text text-anchor="start" x="1451.5" y="-304" font-family="Helvetica,sans-Serif" font-size="10.00">/github/workspace/client</text>
<text text-anchor="middle" x="1512" y="-293" font-family="Helvetica,sans-Serif" font-size="10.00">/include/Engine/Destroy.hpp</text>
</a>
</g>
</g>
<!-- Node2&#45;&gt;Node8 -->
<g id="edge9" class="edge">
<title>Node2&#45;&gt;Node8</title>
<path fill="none" stroke="#63b8ff" d="M1512,-340.39C1512,-332.13 1512,-323.28 1512,-316.16"/>
<polygon fill="#63b8ff" stroke="#63b8ff" points="1508.5,-340.28 1512,-350.28 1515.5,-340.28 1508.5,-340.28"/>
</g>
<!-- Node10 -->
<g id="node10" class="node">
<title>Node10</title>
<g id="a_node10"><a xlink:href="Draw_8hpp.html" target="_top" xlink:title=" ">
<polygon fill="white" stroke="#666666" points="1725,-316 1599,-316 1599,-286 1725,-286 1725,-316"/>
<text text-anchor="start" x="1607" y="-304" font-family="Helvetica,sans-Serif" font-size="10.00">/github/workspace/client</text>
<text text-anchor="middle" x="1662" y="-293" font-family="Helvetica,sans-Serif" font-size="10.00">/include/Engine/Draw.hpp</text>
</a>
</g>
</g>
<!-- Node2&#45;&gt;Node10 -->
<g id="edge11" class="edge">
<title>Node2&#45;&gt;Node10</title>
<path fill="none" stroke="#63b8ff" d="M1550.29,-347.01C1572.41,-337.22 1600.11,-325.46 1622.44,-316.43"/>
<polygon fill="#63b8ff" stroke="#63b8ff" points="1549.01,-343.75 1541.3,-351.02 1551.86,-350.14 1549.01,-343.75"/>
</g>
<!-- Node12 -->
<g id="node12" class="node">
<title>Node12</title>
<g id="a_node12"><a xlink:href="Error_8hpp.html" target="_top" xlink:title=" ">
<polygon fill="white" stroke="#666666" points="1279,-316 1155,-316 1155,-286 1279,-286 1279,-316"/>
<text text-anchor="start" x="1163" y="-304" font-family="Helvetica,sans-Serif" font-size="10.00">/github/workspace/client</text>
<text text-anchor="middle" x="1217" y="-293" font-family="Helvetica,sans-Serif" font-size="10.00">/include/Engine/Error.hpp</text>
</a>
</g>
</g>
<!-- Node2&#45;&gt;Node12 -->
<g id="edge14" class="edge">
<title>Node2&#45;&gt;Node12</title>
<path fill="none" stroke="#63b8ff" d="M1434.37,-349.16C1385.96,-338.66 1324.5,-325.32 1279.3,-315.52"/>
<polygon fill="#63b8ff" stroke="#63b8ff" points="1433.43,-352.54 1443.95,-351.24 1434.92,-345.7 1433.43,-352.54"/>
</g>
<!-- Node14 -->
<g id="node14" class="node">
<title>Node14</title>
<g id="a_node14"><a xlink:href="client_2src_2main_8cpp.html" target="_top" xlink:title=" ">
<polygon fill="white" stroke="#666666" points="1202,-30 1080,-30 1080,0 1202,0 1202,-30"/>
<text text-anchor="start" x="1088" y="-18" font-family="Helvetica,sans-Serif" font-size="10.00">/github/workspace/client</text>
<text text-anchor="middle" x="1141" y="-7" font-family="Helvetica,sans-Serif" font-size="10.00">/src/main.cpp</text>
</a>
</g>
</g>
<!-- Node2&#45;&gt;Node14 -->
<g id="edge46" class="edge">
<title>Node2&#45;&gt;Node14</title>
<path fill="none" stroke="#63b8ff" d="M1433.95,-364.52C1290.97,-361 998.77,-349.73 968,-316 881.49,-221.17 1059.6,-75.85 1121.13,-30.22"/>
<polygon fill="#63b8ff" stroke="#63b8ff" points="1433.64,-368.02 1443.72,-364.76 1433.8,-361.02 1433.64,-368.02"/>
</g>
<!-- Node15 -->
<g id="node15" class="node">
<title>Node15</title>
<g id="a_node15"><a xlink:href="Map_8hpp.html" target="_top" xlink:title=" ">
<polygon fill="white" stroke="#666666" points="1865,-316 1743,-316 1743,-286 1865,-286 1865,-316"/>
<text text-anchor="start" x="1751" y="-304" font-family="Helvetica,sans-Serif" font-size="10.00">/github/workspace/client</text>
<text text-anchor="middle" x="1804" y="-293" font-family="Helvetica,sans-Serif" font-size="10.00">/include/Engine/Map.hpp</text>
</a>
</g>
</g>
<!-- Node2&#45;&gt;Node15 -->
<g id="edge18" class="edge">
<title>Node2&#45;&gt;Node15</title>
<path fill="none" stroke="#63b8ff" d="M1588.88,-349.15C1636.96,-338.61 1698.05,-325.22 1742.83,-315.41"/>
<polygon fill="#63b8ff" stroke="#63b8ff" points="1588.39,-345.67 1579.37,-351.23 1589.89,-352.51 1588.39,-345.67"/>
</g>
<!-- Node16 -->
<g id="node16" class="node">
<title>Node16</title>
<g id="a_node16"><a xlink:href="StateManager_8hpp.html" target="_top" xlink:title=" ">
<polygon fill="white" stroke="#666666" points="2280,-244.5 2116,-244.5 2116,-214.5 2280,-214.5 2280,-244.5"/>
<text text-anchor="start" x="2124" y="-232.5" font-family="Helvetica,sans-Serif" font-size="10.00">/github/workspace/client</text>
<text text-anchor="middle" x="2198" y="-221.5" font-family="Helvetica,sans-Serif" font-size="10.00">/include/Engine/StateManager.hpp</text>
</a>
</g>
</g>
<!-- Node2&#45;&gt;Node16 -->
<g id="edge19" class="edge">
<title>Node2&#45;&gt;Node16</title>
<path fill="none" stroke="#63b8ff" d="M1590.23,-364.78C1753.07,-361.59 2116.73,-350.72 2161,-316 2182.88,-298.84 2187.87,-264.21 2191.9,-244.7"/>
<polygon fill="#63b8ff" stroke="#63b8ff" points="1590.3,-361.27 1580.37,-364.96 1590.43,-368.27 1590.3,-361.27"/>
</g>
<!-- Node18 -->
<g id="node18" class="node">
<title>Node18</title>
<g id="a_node18"><a xlink:href="Text_8hpp.html" target="_top" xlink:title=" ">
<polygon fill="white" stroke="#666666" points="2005,-316 1883,-316 1883,-286 2005,-286 2005,-316"/>
<text text-anchor="start" x="1891" y="-304" font-family="Helvetica,sans-Serif" font-size="10.00">/github/workspace/client</text>
<text text-anchor="middle" x="1944" y="-293" font-family="Helvetica,sans-Serif" font-size="10.00">/include/Engine/Text.hpp</text>
</a>
</g>
</g>
<!-- Node2&#45;&gt;Node18 -->
<g id="edge22" class="edge">
<title>Node2&#45;&gt;Node18</title>
<path fill="none" stroke="#63b8ff" d="M1589.89,-356.62C1663.34,-347.44 1776.41,-332.48 1874,-316 1876.81,-315.53 1879.68,-315.02 1882.58,-314.5"/>
<polygon fill="#63b8ff" stroke="#63b8ff" points="1589.9,-353.09 1580.41,-357.8 1590.76,-360.04 1589.9,-353.09"/>
</g>
<!-- Node19 -->
<g id="node19" class="node">
<title>Node19</title>
<g id="a_node19"><a xlink:href="Window_8hpp.html" target="_top" xlink:title=" ">
<polygon fill="white" stroke="#666666" points="2161,-316 2023,-316 2023,-286 2161,-286 2161,-316"/>
<text text-anchor="start" x="2031" y="-304" font-family="Helvetica,sans-Serif" font-size="10.00">/github/workspace/client</text>
<text text-anchor="middle" x="2092" y="-293" font-family="Helvetica,sans-Serif" font-size="10.00">/include/Engine/Window.hpp</text>
</a>
</g>
</g>
<!-- Node2&#45;&gt;Node19 -->
<g id="edge23" class="edge">
<title>Node2&#45;&gt;Node19</title>
<path fill="none" stroke="#63b8ff" d="M1590.06,-359.62C1687.45,-351.6 1858.77,-336.37 2005,-316 2010.72,-315.2 2016.67,-314.29 2022.65,-313.32"/>
<polygon fill="#63b8ff" stroke="#63b8ff" points="1590.03,-356.11 1580.35,-360.41 1590.6,-363.08 1590.03,-356.11"/>
</g>
<!-- Node21 -->
<g id="node21" class="node">
<title>Node21</title>
<g id="a_node21"><a xlink:href="EntitiesManager_8hpp.html" target="_top" xlink:title=" ">
<polygon fill="white" stroke="#666666" points="921,-316 745,-316 745,-286 921,-286 921,-316"/>
<text text-anchor="start" x="753" y="-304" font-family="Helvetica,sans-Serif" font-size="10.00">/github/workspace/client</text>
<text text-anchor="middle" x="833" y="-293" font-family="Helvetica,sans-Serif" font-size="10.00">/include/Entities/EntitiesManager.hpp</text>
</a>
</g>
</g>
<!-- Node2&#45;&gt;Node21 -->
<g id="edge27" class="edge">
<title>Node2&#45;&gt;Node21</title>
<path fill="none" stroke="#63b8ff" d="M1434.16,-360.92C1321.63,-352.95 1107.38,-336.29 926,-316 924.49,-315.83 922.97,-315.66 921.44,-315.48"/>
<polygon fill="#63b8ff" stroke="#63b8ff" points="1433.66,-364.39 1443.88,-361.6 1434.15,-357.41 1433.66,-364.39"/>
</g>
<!-- Node26 -->
<g id="node26" class="node">
<title>Node26</title>
<g id="a_node26"><a xlink:href="Properties_8hpp.html" target="_top" xlink:title=" ">
<polygon fill="white" stroke="#666666" points="382.5,-316 231.5,-316 231.5,-286 382.5,-286 382.5,-316"/>
<text text-anchor="start" x="239.5" y="-304" font-family="Helvetica,sans-Serif" font-size="10.00">/github/workspace/client</text>
<text text-anchor="middle" x="307" y="-293" font-family="Helvetica,sans-Serif" font-size="10.00">/include/Entities/Properties.hpp</text>
</a>
</g>
</g>
<!-- Node2&#45;&gt;Node26 -->
<g id="edge37" class="edge">
<title>Node2&#45;&gt;Node26</title>
<path fill="none" stroke="#63b8ff" d="M1433.68,-362.95C1262.08,-356.1 840.06,-338.34 487,-316 452.75,-313.83 414.86,-310.96 382.72,-308.38"/>
<polygon fill="#63b8ff" stroke="#63b8ff" points="1433.46,-366.45 1443.59,-363.35 1433.74,-359.45 1433.46,-366.45"/>
</g>
<!-- Node2&#45;&gt;Node30 -->
<g id="edge45" class="edge">
<title>Node2&#45;&gt;Node30</title>
<path fill="none" stroke="#63b8ff" d="M1590.19,-363.4C1721.13,-358.4 1992.89,-345.24 2221,-316 2225.47,-315.43 2230.07,-314.76 2234.7,-314.03"/>
<polygon fill="#63b8ff" stroke="#63b8ff" points="1590.09,-359.91 1580.23,-363.78 1590.36,-366.9 1590.09,-359.91"/>
</g>
<!-- Node3&#45;&gt;Node4 -->
<g id="edge3" class="edge">
<title>Node3&#45;&gt;Node4</title>
<path fill="none" stroke="#63b8ff" d="M467,-202.73C467,-191.08 467,-177.76 467,-167.92"/>
<polygon fill="#63b8ff" stroke="#63b8ff" points="463.5,-202.53 467,-212.53 470.5,-202.53 463.5,-202.53"/>
</g>
<!-- Node5&#45;&gt;Node2 -->
<g id="edge5" class="edge">
<title>Node5&#45;&gt;Node2</title>
<path fill="none" stroke="#63b8ff" d="M1148.02,-314.97C1150.37,-315.32 1152.7,-315.66 1155,-316 1256.2,-330.87 1373.37,-346.62 1445.15,-356.38"/>
<polygon fill="#63b8ff" stroke="#63b8ff" points="1148.78,-311.54 1138.37,-313.51 1147.74,-318.46 1148.78,-311.54"/>
</g>
<!-- Node5&#45;&gt;Node4 -->
<g id="edge6" class="edge">
<title>Node5&#45;&gt;Node4</title>
<path fill="none" stroke="#63b8ff" d="M1034.32,-278.03C1010.62,-256.52 971.34,-224.75 931,-209 859.02,-180.89 637.23,-163.88 528.45,-157.02"/>
<polygon fill="#63b8ff" stroke="#63b8ff" points="1031.79,-280.46 1041.5,-284.69 1036.55,-275.32 1031.79,-280.46"/>
</g>
<!-- Node6 -->
<g id="node6" class="node">
<title>Node6</title>
<g id="a_node6"><a xlink:href="Bullets_8cpp.html" target="_top" xlink:title=" ">
<polygon fill="white" stroke="#666666" points="1138,-244.5 1016,-244.5 1016,-214.5 1138,-214.5 1138,-244.5"/>
<text text-anchor="start" x="1024" y="-232.5" font-family="Helvetica,sans-Serif" font-size="10.00">/github/workspace/client</text>
<text text-anchor="middle" x="1077" y="-221.5" font-family="Helvetica,sans-Serif" font-size="10.00">/src/Bullets.cpp</text>
</a>
</g>
</g>
<!-- Node5&#45;&gt;Node6 -->
<g id="edge7" class="edge">
<title>Node5&#45;&gt;Node6</title>
<path fill="none" stroke="#63b8ff" d="M1064.31,-274.58C1067.19,-264.58 1070.4,-253.45 1072.86,-244.88"/>
<polygon fill="#63b8ff" stroke="#63b8ff" points="1060.96,-273.57 1061.56,-284.15 1067.69,-275.5 1060.96,-273.57"/>
</g>
<!-- Node9 -->
<g id="node9" class="node">
<title>Node9</title>
<g id="a_node9"><a xlink:href="Destroy_8cpp.html" target="_top" xlink:title=" ">
<polygon fill="white" stroke="#666666" points="1573,-244.5 1451,-244.5 1451,-214.5 1573,-214.5 1573,-244.5"/>
<text text-anchor="start" x="1459" y="-232.5" font-family="Helvetica,sans-Serif" font-size="10.00">/github/workspace/client</text>
<text text-anchor="middle" x="1512" y="-221.5" font-family="Helvetica,sans-Serif" font-size="10.00">/src/Destroy.cpp</text>
</a>
</g>
</g>
<!-- Node8&#45;&gt;Node9 -->
<g id="edge10" class="edge">
<title>Node8&#45;&gt;Node9</title>
<path fill="none" stroke="#63b8ff" d="M1512,-274.26C1512,-264.33 1512,-253.36 1512,-244.88"/>
<polygon fill="#63b8ff" stroke="#63b8ff" points="1508.5,-274.09 1512,-284.09 1515.5,-274.09 1508.5,-274.09"/>
</g>
<!-- Node10&#45;&gt;Node2 -->
<g id="edge12" class="edge">
<title>Node10&#45;&gt;Node2</title>
<path fill="none" stroke="#63b8ff" d="M1623.79,-320.96C1601.61,-330.78 1573.79,-342.58 1551.4,-351.64"/>
<polygon fill="#63b8ff" stroke="#63b8ff" points="1625.1,-324.21 1632.8,-316.93 1622.24,-317.82 1625.1,-324.21"/>
</g>
<!-- Node11 -->
<g id="node11" class="node">
<title>Node11</title>
<g id="a_node11"><a xlink:href="Draw_8cpp.html" target="_top" xlink:title=" ">
<polygon fill="white" stroke="#666666" points="1723,-244.5 1601,-244.5 1601,-214.5 1723,-214.5 1723,-244.5"/>
<text text-anchor="start" x="1609" y="-232.5" font-family="Helvetica,sans-Serif" font-size="10.00">/github/workspace/client</text>
<text text-anchor="middle" x="1662" y="-221.5" font-family="Helvetica,sans-Serif" font-size="10.00">/src/Draw.cpp</text>
</a>
</g>
</g>
<!-- Node10&#45;&gt;Node11 -->
<g id="edge13" class="edge">
<title>Node10&#45;&gt;Node11</title>
<path fill="none" stroke="#63b8ff" d="M1662,-274.26C1662,-264.33 1662,-253.36 1662,-244.88"/>
<polygon fill="#63b8ff" stroke="#63b8ff" points="1658.5,-274.09 1662,-284.09 1665.5,-274.09 1658.5,-274.09"/>
</g>
<!-- Node13 -->
<g id="node13" class="node">
<title>Node13</title>
<g id="a_node13"><a xlink:href="Error_8cpp.html" target="_top" xlink:title=" ">
<polygon fill="white" stroke="#666666" points="1278,-244.5 1156,-244.5 1156,-214.5 1278,-214.5 1278,-244.5"/>
<text text-anchor="start" x="1164" y="-232.5" font-family="Helvetica,sans-Serif" font-size="10.00">/github/workspace/client</text>
<text text-anchor="middle" x="1217" y="-221.5" font-family="Helvetica,sans-Serif" font-size="10.00">/src/Error.cpp</text>
</a>
</g>
</g>
<!-- Node12&#45;&gt;Node13 -->
<g id="edge15" class="edge">
<title>Node12&#45;&gt;Node13</title>
<path fill="none" stroke="#63b8ff" d="M1217,-274.26C1217,-264.33 1217,-253.36 1217,-244.88"/>
<polygon fill="#63b8ff" stroke="#63b8ff" points="1213.5,-274.09 1217,-284.09 1220.5,-274.09 1213.5,-274.09"/>
</g>
<!-- Node12&#45;&gt;Node14 -->
<g id="edge16" class="edge">
<title>Node12&#45;&gt;Node14</title>
<path fill="none" stroke="#63b8ff" d="M1258.85,-279.62C1270.04,-271.98 1280.75,-262.14 1287,-250 1304.88,-215.26 1344.44,-148.33 1285,-66 1266.02,-39.72 1232.24,-27.14 1202.16,-21.17"/>
<polygon fill="#63b8ff" stroke="#63b8ff" points="1257.33,-276.45 1250.71,-284.72 1261.04,-282.38 1257.33,-276.45"/>
</g>
<!-- Node16&#45;&gt;Node2 -->
<g id="edge20" class="edge">
<title>Node16&#45;&gt;Node2</title>
<path fill="none" stroke="#63b8ff" d="M2204.22,-255.93C2203.65,-275.6 2197.12,-301.79 2179,-316 2132.8,-352.23 1738.65,-362.5 1578.82,-365.15"/>
<polygon fill="#63b8ff" stroke="#63b8ff" points="2207.73,-256.09 2203.9,-246.21 2200.73,-256.32 2207.73,-256.09"/>
</g>
<!-- Node17 -->
<g id="node17" class="node">
<title>Node17</title>
<g id="a_node17"><a xlink:href="StateManager_8cpp.html" target="_top" xlink:title=" ">
<polygon fill="white" stroke="#666666" points="1587,-30 1465,-30 1465,0 1587,0 1587,-30"/>
<text text-anchor="start" x="1473" y="-18" font-family="Helvetica,sans-Serif" font-size="10.00">/github/workspace/client</text>
<text text-anchor="middle" x="1526" y="-7" font-family="Helvetica,sans-Serif" font-size="10.00">/src/StateManager.cpp</text>
</a>
</g>
</g>
<!-- Node16&#45;&gt;Node17 -->
<g id="edge21" class="edge">
<title>Node16&#45;&gt;Node17</title>
<path fill="none" stroke="#63b8ff" d="M2141.42,-210.61C2010.92,-169.34 1690.92,-68.15 1571.72,-30.46"/>
<polygon fill="#63b8ff" stroke="#63b8ff" points="2140.31,-213.93 2150.9,-213.6 2142.42,-207.25 2140.31,-213.93"/>
</g>
<!-- Node19&#45;&gt;Node2 -->
<g id="edge24" class="edge">
<title>Node19&#45;&gt;Node2</title>
<path fill="none" stroke="#63b8ff" d="M2011.37,-317.6C1855.58,-338.83 1674.58,-354.26 1578.97,-361.46"/>
<polygon fill="#63b8ff" stroke="#63b8ff" points="2011.61,-321.1 2021.04,-316.27 2010.65,-314.17 2011.61,-321.1"/>
</g>
<!-- Node19&#45;&gt;Node16 -->
<g id="edge25" class="edge">
<title>Node19&#45;&gt;Node16</title>
<path fill="none" stroke="#63b8ff" d="M2123.46,-279.37C2140.39,-268.27 2160.86,-254.85 2176.06,-244.88"/>
<polygon fill="#63b8ff" stroke="#63b8ff" points="2121.67,-276.36 2115.23,-284.77 2125.51,-282.21 2121.67,-276.36"/>
</g>
<!-- Node20 -->
<g id="node20" class="node">
<title>Node20</title>
<g id="a_node20"><a xlink:href="Window_8cpp.html" target="_top" xlink:title=" ">
<polygon fill="white" stroke="#666666" points="2098,-244.5 1976,-244.5 1976,-214.5 2098,-214.5 2098,-244.5"/>
<text text-anchor="start" x="1984" y="-232.5" font-family="Helvetica,sans-Serif" font-size="10.00">/github/workspace/client</text>
<text text-anchor="middle" x="2037" y="-221.5" font-family="Helvetica,sans-Serif" font-size="10.00">/src/Window.cpp</text>
</a>
</g>
</g>
<!-- Node19&#45;&gt;Node20 -->
<g id="edge26" class="edge">
<title>Node19&#45;&gt;Node20</title>
<path fill="none" stroke="#63b8ff" d="M2073.68,-276.85C2065.32,-266.28 2055.68,-254.1 2048.38,-244.88"/>
<polygon fill="#63b8ff" stroke="#63b8ff" points="2070.71,-278.74 2079.66,-284.41 2076.2,-274.4 2070.71,-278.74"/>
</g>
<!-- Node21&#45;&gt;Node2 -->
<g id="edge28" class="edge">
<title>Node21&#45;&gt;Node2</title>
<path fill="none" stroke="#63b8ff" d="M932.4,-314.65C936.32,-315.12 940.2,-315.57 944,-316 1125.12,-336.26 1339,-352.9 1445.28,-360.88"/>
<polygon fill="#63b8ff" stroke="#63b8ff" points="933.12,-311.21 922.76,-313.46 932.26,-318.16 933.12,-311.21"/>
</g>
<!-- Node21&#45;&gt;Node4 -->
<g id="edge29" class="edge">
<title>Node21&#45;&gt;Node4</title>
<path fill="none" stroke="#63b8ff" d="M733.67,-286.08C699.69,-278.6 662.36,-267.22 631,-250 607.85,-237.29 609.86,-223.82 588,-209 562.75,-191.88 531.37,-177.66 506.89,-167.9"/>
<polygon fill="#63b8ff" stroke="#63b8ff" points="732.59,-289.43 743.09,-288.06 734.03,-282.58 732.59,-289.43"/>
</g>
<!-- Node22 -->
<g id="node22" class="node">
<title>Node22</title>
<g id="a_node22"><a xlink:href="IGameState_8hpp.html" target="_top" xlink:title=" ">
<polygon fill="white" stroke="#666666" points="922,-250 782,-250 782,-209 922,-209 922,-250"/>
<text text-anchor="start" x="790" y="-238" font-family="Helvetica,sans-Serif" font-size="10.00">/github/workspace/client</text>
<text text-anchor="start" x="790" y="-227" font-family="Helvetica,sans-Serif" font-size="10.00">/include/system/gameStates</text>
<text text-anchor="middle" x="852" y="-216" font-family="Helvetica,sans-Serif" font-size="10.00">/IGameState.hpp</text>
</a>
</g>
</g>
<!-- Node21&#45;&gt;Node22 -->
<g id="edge30" class="edge">
<title>Node21&#45;&gt;Node22</title>
<path fill="none" stroke="#63b8ff" d="M839.93,-274.64C842.12,-266.66 844.49,-257.96 846.56,-250.42"/>
<polygon fill="#63b8ff" stroke="#63b8ff" points="836.6,-273.57 837.34,-284.14 843.35,-275.42 836.6,-273.57"/>
</g>
<!-- Node25 -->
<g id="node25" class="node">
<title>Node25</title>
<g id="a_node25"><a xlink:href="EntitiesManager_8cpp.html" target="_top" xlink:title=" ">
<polygon fill="white" stroke="#666666" points="764,-244.5 640,-244.5 640,-214.5 764,-214.5 764,-244.5"/>
<text text-anchor="start" x="648" y="-232.5" font-family="Helvetica,sans-Serif" font-size="10.00">/github/workspace/client</text>
<text text-anchor="middle" x="702" y="-221.5" font-family="Helvetica,sans-Serif" font-size="10.00">/src/EntitiesManager.cpp</text>
</a>
</g>
</g>
<!-- Node21&#45;&gt;Node25 -->
<g id="edge36" class="edge">
<title>Node21&#45;&gt;Node25</title>
<path fill="none" stroke="#63b8ff" d="M795.87,-280.3C774.62,-269.03 748.42,-255.13 729.11,-244.88"/>
<polygon fill="#63b8ff" stroke="#63b8ff" points="794.05,-283.3 804.52,-284.89 797.33,-277.11 794.05,-283.3"/>
</g>
<!-- Node23 -->
<g id="node23" class="node">
<title>Node23</title>
<g id="a_node23"><a xlink:href="SGamePlay_8hpp.html" target="_top" xlink:title=" ">
<polygon fill="white" stroke="#666666" points="1157,-173 1017,-173 1017,-132 1157,-132 1157,-173"/>
<text text-anchor="start" x="1025" y="-161" font-family="Helvetica,sans-Serif" font-size="10.00">/github/workspace/client</text>
<text text-anchor="start" x="1025" y="-150" font-family="Helvetica,sans-Serif" font-size="10.00">/include/system/gameStates</text>
<text text-anchor="middle" x="1087" y="-139" font-family="Helvetica,sans-Serif" font-size="10.00">/SGamePlay.hpp</text>
</a>
</g>
</g>
<!-- Node22&#45;&gt;Node23 -->
<g id="edge31" class="edge">
<title>Node22&#45;&gt;Node23</title>
<path fill="none" stroke="#63b8ff" d="M924.95,-205.22C956.79,-195.06 993.77,-183.26 1024.35,-173.49"/>
<polygon fill="#63b8ff" stroke="#63b8ff" points="924.26,-201.76 915.8,-208.14 926.39,-208.43 924.26,-201.76"/>
</g>
<!-- Node23&#45;&gt;Node14 -->
<g id="edge35" class="edge">
<title>Node23&#45;&gt;Node14</title>
<path fill="none" stroke="#63b8ff" d="M1090.89,-120.48C1093.71,-103.83 1098.41,-83.25 1106,-66 1111.72,-53 1121.04,-39.91 1128.63,-30.39"/>
<polygon fill="#63b8ff" stroke="#63b8ff" points="1087.44,-119.89 1089.38,-130.31 1094.36,-120.95 1087.44,-119.89"/>
</g>
<!-- Node24 -->
<g id="node24" class="node">
<title>Node24</title>
<g id="a_node24"><a xlink:href="GameEngine_8hpp.html" target="_top" xlink:title=" ">
<polygon fill="white" stroke="#666666" points="1276.5,-96 1115.5,-96 1115.5,-66 1276.5,-66 1276.5,-96"/>
<text text-anchor="start" x="1123.5" y="-84" font-family="Helvetica,sans-Serif" font-size="10.00">/github/workspace/client</text>
<text text-anchor="middle" x="1196" y="-73" font-family="Helvetica,sans-Serif" font-size="10.00">/include/system/GameEngine.hpp</text>
</a>
</g>
</g>
<!-- Node23&#45;&gt;Node24 -->
<g id="edge32" class="edge">
<title>Node23&#45;&gt;Node24</title>
<path fill="none" stroke="#63b8ff" d="M1127.62,-125.6C1143.11,-115.72 1160.2,-104.83 1173.42,-96.4"/>
<polygon fill="#63b8ff" stroke="#63b8ff" points="1126.06,-122.44 1119.51,-130.77 1129.82,-128.35 1126.06,-122.44"/>
</g>
<!-- Node24&#45;&gt;Node14 -->
<g id="edge34" class="edge">
<title>Node24&#45;&gt;Node14</title>
<path fill="none" stroke="#63b8ff" d="M1176.44,-57.24C1168.68,-48.21 1160,-38.11 1153.17,-30.16"/>
<polygon fill="#63b8ff" stroke="#63b8ff" points="1173.64,-59.35 1182.81,-64.65 1178.94,-54.78 1173.64,-59.35"/>
</g>
<!-- Node24&#45;&gt;Node17 -->
<g id="edge33" class="edge">
<title>Node24&#45;&gt;Node17</title>
<path fill="none" stroke="#63b8ff" d="M1281.69,-63.38C1338.99,-52.27 1413.03,-37.91 1464.51,-27.92"/>
<polygon fill="#63b8ff" stroke="#63b8ff" points="1281.11,-59.93 1271.96,-65.27 1282.44,-66.8 1281.11,-59.93"/>
</g>
<!-- Node26&#45;&gt;Node4 -->
<g id="edge43" class="edge">
<title>Node26&#45;&gt;Node4</title>
<path fill="none" stroke="#63b8ff" d="M322.51,-276.12C335.94,-256.61 356.67,-229.07 379,-209 397.27,-192.58 420.97,-177.94 439.16,-167.83"/>
<polygon fill="#63b8ff" stroke="#63b8ff" points="319.72,-274.01 317.03,-284.26 325.52,-277.92 319.72,-274.01"/>
</g>
<!-- Node27 -->
<g id="node27" class="node">
<title>Node27</title>
<g id="a_node27"><a xlink:href="Enemy_8hpp.html" target="_top" xlink:title=" ">
<polygon fill="white" stroke="#666666" points="332,-244.5 174,-244.5 174,-214.5 332,-214.5 332,-244.5"/>
<text text-anchor="start" x="182" y="-232.5" font-family="Helvetica,sans-Serif" font-size="10.00">/github/workspace/client</text>
<text text-anchor="middle" x="253" y="-221.5" font-family="Helvetica,sans-Serif" font-size="10.00">/include/Components/Enemy.hpp</text>
</a>
</g>
</g>
<!-- Node26&#45;&gt;Node27 -->
<g id="edge38" class="edge">
<title>Node26&#45;&gt;Node27</title>
<path fill="none" stroke="#63b8ff" d="M288.76,-276.53C280.61,-266.04 271.27,-254.01 264.17,-244.88"/>
<polygon fill="#63b8ff" stroke="#63b8ff" points="285.98,-278.66 294.88,-284.4 291.51,-274.36 285.98,-278.66"/>
</g>
<!-- Node28 -->
<g id="node28" class="node">
<title>Node28</title>
<g id="a_node28"><a xlink:href="Player_8hpp.html" target="_top" xlink:title=" ">
<polygon fill="white" stroke="#666666" points="156,-244.5 0,-244.5 0,-214.5 156,-214.5 156,-244.5"/>
<text text-anchor="start" x="8" y="-232.5" font-family="Helvetica,sans-Serif" font-size="10.00">/github/workspace/client</text>
<text text-anchor="middle" x="78" y="-221.5" font-family="Helvetica,sans-Serif" font-size="10.00">/include/Components/Player.hpp</text>
</a>
</g>
</g>
<!-- Node26&#45;&gt;Node28 -->
<g id="edge40" class="edge">
<title>Node26&#45;&gt;Node28</title>
<path fill="none" stroke="#63b8ff" d="M248.34,-282.2C210.28,-270.65 161.32,-255.79 125.67,-244.97"/>
<polygon fill="#63b8ff" stroke="#63b8ff" points="247.24,-285.52 257.82,-285.08 249.27,-278.82 247.24,-285.52"/>
</g>
<!-- Node27&#45;&gt;Node4 -->
<g id="edge39" class="edge">
<title>Node27&#45;&gt;Node4</title>
<path fill="none" stroke="#63b8ff" d="M304.88,-210.32C342.05,-197.29 391.41,-179.99 425.87,-167.92"/>
<polygon fill="#63b8ff" stroke="#63b8ff" points="303.97,-206.93 295.69,-213.54 306.28,-213.53 303.97,-206.93"/>
</g>
<!-- Node28&#45;&gt;Node4 -->
<g id="edge41" class="edge">
<title>Node28&#45;&gt;Node4</title>
<path fill="none" stroke="#63b8ff" d="M152.05,-211.7C156.43,-210.77 160.77,-209.86 165,-209 248.05,-192.07 344.44,-174.76 405.55,-164.07"/>
<polygon fill="#63b8ff" stroke="#63b8ff" points="151.66,-208.2 142.62,-213.73 153.13,-215.05 151.66,-208.2"/>
</g>
<!-- Node29 -->
<g id="node29" class="node">
<title>Node29</title>
<g id="a_node29"><a xlink:href="Player_8cpp.html" target="_top" xlink:title=" ">
<polygon fill="white" stroke="#666666" points="139,-167.5 17,-167.5 17,-137.5 139,-137.5 139,-167.5"/>
<text text-anchor="start" x="25" y="-155.5" font-family="Helvetica,sans-Serif" font-size="10.00">/github/workspace/client</text>
<text text-anchor="middle" x="78" y="-144.5" font-family="Helvetica,sans-Serif" font-size="10.00">/src/Player.cpp</text>
</a>
</g>
</g>
<!-- Node28&#45;&gt;Node29 -->
<g id="edge42" class="edge">
<title>Node28&#45;&gt;Node29</title>
<path fill="none" stroke="#63b8ff" d="M78,-202.73C78,-191.08 78,-177.76 78,-167.92"/>
<polygon fill="#63b8ff" stroke="#63b8ff" points="74.5,-202.53 78,-212.53 81.5,-202.53 74.5,-202.53"/>
</g>
</g>
</svg>
        <g id="navigator" transform="translate(0 0)" fill="#404254">
                <rect fill="#f2f5e9" fill-opacity="0.5" stroke="#606060" stroke-width=".5" x="0" y="0" width="60" height="60"/>
                <use id="zoomplus" xlink:href="#zoomPlus" x="17" y="9" onmousedown="handleZoom(evt,'in')"/>
                <use id="zoomminus" xlink:href="#zoomMin" x="42" y="9" onmousedown="handleZoom(evt,'out')"/>
                <use id="reset" xlink:href="#resetDef" x="30" y="36" onmousedown="handleReset()"/>
                <g id="arrowUp" xlink:href="#dirArrow" transform="translate(30 24)" onmousedown="handlePan(0,-1)">
                  <use xlink:href="#rim" fill="#404040">
                        <set attributeName="fill" to="#808080" begin="arrowUp.mouseover" end="arrowUp.mouseout"/>
                  </use>
                  <path fill="none" stroke="white" stroke-width="1.5" d="M0,-3.0v7 M-2.5,-0.5L0,-3.0L2.5,-0.5"/>
                </g>
                <g id="arrowRight" xlink:href="#dirArrow" transform="rotate(90) translate(36 -43)" onmousedown="handlePan(1,0)">
                  <use xlink:href="#rim" fill="#404040">
                        <set attributeName="fill" to="#808080" begin="arrowRight.mouseover" end="arrowRight.mouseout"/>
                  </use>
                  <path fill="none" stroke="white" stroke-width="1.5" d="M0,-3.0v7 M-2.5,-0.5L0,-3.0L2.5,-0.5"/>
                </g>
                <g id="arrowDown" xlink:href="#dirArrow" transform="rotate(180) translate(-30 -48)" onmousedown="handlePan(0,1)">
                  <use xlink:href="#rim" fill="#404040">
                        <set attributeName="fill" to="#808080" begin="arrowDown.mouseover" end="arrowDown.mouseout"/>
                  </use>
                  <path fill="none" stroke="white" stroke-width="1.5" d="M0,-3.0v7 M-2.5,-0.5L0,-3.0L2.5,-0.5"/>
                </g>
                <g id="arrowLeft" xlink:href="#dirArrow" transform="rotate(270) translate(-36 17)" onmousedown="handlePan(-1,0)">
                  <use xlink:href="#rim" fill="#404040">
                        <set attributeName="fill" to="#808080" begin="arrowLeft.mouseover" end="arrowLeft.mouseout"/>
                  </use>
                  <path fill="none" stroke="white" stroke-width="1.5" d="M0,-3.0v7 M-2.5,-0.5L0,-3.0L2.5,-0.5"/>
                </g>
        </g>
        <svg viewBox="0 0 15 15" width="100%" height="30px" preserveAspectRatio="xMaxYMin meet">
         <g id="arrow_out" transform="scale(0.3 0.3)">
          <a xlink:href="Event_8hpp__dep__incl_org.svg" target="_base">
           <rect id="button" ry="5" rx="5" y="6" x="6" height="38" width="38"
                fill="#f2f5e9" fill-opacity="0.5" stroke="#606060" stroke-width="1.0"/>
           <path id="arrow"
             d="M 11.500037,31.436501 C 11.940474,20.09759 22.043105,11.32322 32.158766,21.979434 L 37.068811,17.246167 C 37.068811,17.246167 37.088388,32 37.088388,32 L 22.160133,31.978069 C 22.160133,31.978069 26.997745,27.140456 26.997745,27.140456 C 18.528582,18.264221 13.291696,25.230495 11.500037,31.436501 z"
             style="fill:#404040;"/>
          </a>
         </g>
        </svg>
</svg>
