<?xml version="1.0" encoding="UTF-8" standalone="no"?>
<!DOCTYPE svg PUBLIC "-//W3C//DTD SVG 1.1//EN"
 "http://www.w3.org/Graphics/SVG/1.1/DTD/svg11.dtd">
<!-- Generated by graphviz version 7.0.5 (20221223.1930)
 -->
<!-- Title: /github/workspace/client/include/Engine/Event.hpp Pages: 1 -->
<svg width="1623pt" height="313pt"
 viewBox="0.00 0.00 1622.50 313.00" xmlns="http://www.w3.org/2000/svg" xmlns:xlink="http://www.w3.org/1999/xlink">
<g id="graph0" class="graph" transform="scale(1 1) rotate(0) translate(4 309)">
<title>/github/workspace/client/include/Engine/Event.hpp</title>
<!-- Node1 -->
<g id="node1" class="node">
<title>Node1</title>
<g id="a_node1"><a xlink:title=" ">
<polygon fill="#999999" stroke="#666666" points="1019.5,-305 891.5,-305 891.5,-275 1019.5,-275 1019.5,-305"/>
<text text-anchor="start" x="899.5" y="-293" font-family="Helvetica,sans-Serif" font-size="10.00">/github/workspace/client</text>
<text text-anchor="middle" x="955.5" y="-282" font-family="Helvetica,sans-Serif" font-size="10.00">/include/Engine/Event.hpp</text>
</a>
</g>
</g>
<!-- Node2 -->
<g id="node2" class="node">
<title>Node2</title>
<g id="a_node2"><a xlink:href="Engine_8hpp.html" target="_top" xlink:title=" ">
<polygon fill="white" stroke="#666666" points="963.5,-239 867.5,-239 867.5,-220 963.5,-220 963.5,-239"/>
<text text-anchor="middle" x="915.5" y="-227" font-family="Helvetica,sans-Serif" font-size="10.00">Engine/Engine.hpp</text>
</a>
</g>
</g>
<!-- Node1&#45;&gt;Node2 -->
<g id="edge1" class="edge">
<title>Node1&#45;&gt;Node2</title>
<path fill="none" stroke="#63b8ff" d="M939.7,-274.54C933.54,-266.91 926.93,-257.46 921.98,-249.27"/>
<polygon fill="#63b8ff" stroke="#63b8ff" points="925.06,-247.6 917.19,-240.5 918.92,-250.96 925.06,-247.6"/>
</g>
<!-- Node26 -->
<g id="node26" class="node">
<title>Node26</title>
<g id="a_node26"><a xlink:title=" ">
<polygon fill="#e0e0e0" stroke="#999999" points="1011,-239 982,-239 982,-220 1011,-220 1011,-239"/>
<text text-anchor="middle" x="996.5" y="-227" font-family="Helvetica,sans-Serif" font-size="10.00">list</text>
</a>
</g>
</g>
<!-- Node1&#45;&gt;Node26 -->
<g id="edge39" class="edge">
<title>Node1&#45;&gt;Node26</title>
<path fill="none" stroke="#63b8ff" d="M965.63,-274.54C971.16,-266.65 978.06,-256.81 983.93,-248.44"/>
<polygon fill="#63b8ff" stroke="#63b8ff" points="986.68,-250.61 989.55,-240.41 980.95,-246.59 986.68,-250.61"/>
</g>
<!-- Node27 -->
<g id="node27" class="node">
<title>Node27</title>
<g id="a_node27"><a xlink:title=" ">
<polygon fill="#e0e0e0" stroke="#999999" points="1072,-239 1029,-239 1029,-220 1072,-220 1072,-239"/>
<text text-anchor="middle" x="1050.5" y="-227" font-family="Helvetica,sans-Serif" font-size="10.00">queue</text>
</a>
</g>
</g>
<!-- Node1&#45;&gt;Node27 -->
<g id="edge40" class="edge">
<title>Node1&#45;&gt;Node27</title>
<path fill="none" stroke="#63b8ff" d="M978.98,-274.54C993.4,-265.66 1011.81,-254.32 1026.35,-245.37"/>
<polygon fill="#63b8ff" stroke="#63b8ff" points="1028.17,-248.36 1034.85,-240.14 1024.5,-242.4 1028.17,-248.36"/>
</g>
<!-- Node2&#45;&gt;Node1 -->
<g id="edge16" class="edge">
<title>Node2&#45;&gt;Node1</title>
<path fill="none" stroke="#63b8ff" d="M926.4,-239.18C932.48,-245.94 939.71,-255.69 945.59,-264.77"/>
<polygon fill="#63b8ff" stroke="#63b8ff" points="942.56,-266.52 950.74,-273.25 948.54,-262.88 942.56,-266.52"/>
</g>
<!-- Node3 -->
<g id="node3" class="node">
<title>Node3</title>
<g id="a_node3"><a xlink:title=" ">
<polygon fill="#e0e0e0" stroke="#999999" points="89,-184 0,-184 0,-165 89,-165 89,-184"/>
<text text-anchor="middle" x="44.5" y="-172" font-family="Helvetica,sans-Serif" font-size="10.00">SFML/Audio.hpp</text>
</a>
</g>
</g>
<!-- Node2&#45;&gt;Node3 -->
<g id="edge2" class="edge">
<title>Node2&#45;&gt;Node3</title>
<path fill="none" stroke="#63b8ff" d="M867.02,-227.58C741.95,-224.84 398.03,-214.97 100.69,-184.1"/>
<polygon fill="#63b8ff" stroke="#63b8ff" points="101.06,-180.62 90.75,-183.06 100.33,-187.58 101.06,-180.62"/>
</g>
<!-- Node4 -->
<g id="node4" class="node">
<title>Node4</title>
<g id="a_node4"><a xlink:title=" ">
<polygon fill="#e0e0e0" stroke="#999999" points="211.5,-184 107.5,-184 107.5,-165 211.5,-165 211.5,-184"/>
<text text-anchor="middle" x="159.5" y="-172" font-family="Helvetica,sans-Serif" font-size="10.00">SFML/Graphics.hpp</text>
</a>
</g>
</g>
<!-- Node2&#45;&gt;Node4 -->
<g id="edge3" class="edge">
<title>Node2&#45;&gt;Node4</title>
<path fill="none" stroke="#63b8ff" d="M867.37,-226.65C755.99,-222.12 471.66,-209.02 223.15,-184.19"/>
<polygon fill="#63b8ff" stroke="#63b8ff" points="223.52,-180.71 213.22,-183.19 222.82,-187.67 223.52,-180.71"/>
</g>
<!-- Node5 -->
<g id="node5" class="node">
<title>Node5</title>
<g id="a_node5"><a xlink:title=" ">
<polygon fill="#e0e0e0" stroke="#999999" points="331,-184 230,-184 230,-165 331,-165 331,-184"/>
<text text-anchor="middle" x="280.5" y="-172" font-family="Helvetica,sans-Serif" font-size="10.00">SFML/Network.hpp</text>
</a>
</g>
</g>
<!-- Node2&#45;&gt;Node5 -->
<g id="edge4" class="edge">
<title>Node2&#45;&gt;Node5</title>
<path fill="none" stroke="#63b8ff" d="M867.23,-225.85C769.97,-220.28 543.26,-206.11 342.67,-184.28"/>
<polygon fill="#63b8ff" stroke="#63b8ff" points="343.15,-180.82 332.83,-183.2 342.38,-187.77 343.15,-180.82"/>
</g>
<!-- Node6 -->
<g id="node6" class="node">
<title>Node6</title>
<g id="a_node6"><a xlink:title=" ">
<polygon fill="#e0e0e0" stroke="#999999" points="448,-184 349,-184 349,-165 448,-165 448,-184"/>
<text text-anchor="middle" x="398.5" y="-172" font-family="Helvetica,sans-Serif" font-size="10.00">SFML/Window.hpp</text>
</a>
</g>
</g>
<!-- Node2&#45;&gt;Node6 -->
<g id="edge5" class="edge">
<title>Node2&#45;&gt;Node6</title>
<path fill="none" stroke="#63b8ff" d="M867.28,-224.55C785.68,-217.71 614.86,-202.7 459.53,-184.19"/>
<polygon fill="#63b8ff" stroke="#63b8ff" points="460.22,-180.75 449.87,-183.03 459.39,-187.7 460.22,-180.75"/>
</g>
<!-- Node7 -->
<g id="node7" class="node">
<title>Node7</title>
<g id="a_node7"><a xlink:title=" ">
<polygon fill="#e0e0e0" stroke="#999999" points="564.5,-184 466.5,-184 466.5,-165 564.5,-165 564.5,-184"/>
<text text-anchor="middle" x="515.5" y="-172" font-family="Helvetica,sans-Serif" font-size="10.00">SFML/System.hpp</text>
</a>
</g>
</g>
<!-- Node2&#45;&gt;Node7 -->
<g id="edge6" class="edge">
<title>Node2&#45;&gt;Node7</title>
<path fill="none" stroke="#63b8ff" d="M867.22,-222.17C801.79,-213.58 681.31,-197.72 578.5,-184 577.66,-183.89 576.81,-183.77 575.96,-183.66"/>
<polygon fill="#63b8ff" stroke="#63b8ff" points="576.56,-180.21 566.18,-182.35 575.63,-187.15 576.56,-180.21"/>
</g>
<!-- Node8 -->
<g id="node8" class="node">
<title>Node8</title>
<g id="a_node8"><a xlink:title=" ">
<polygon fill="#e0e0e0" stroke="#999999" points="669.5,-19 615.5,-19 615.5,0 669.5,0 669.5,-19"/>
<text text-anchor="middle" x="642.5" y="-7" font-family="Helvetica,sans-Serif" font-size="10.00">iostream</text>
</a>
</g>
</g>
<!-- Node2&#45;&gt;Node8 -->
<g id="edge7" class="edge">
<title>Node2&#45;&gt;Node8</title>
<path fill="none" stroke="#63b8ff" d="M867.17,-227.93C795.25,-225.95 665.32,-217.67 635.5,-184 597.25,-140.81 620.1,-65.24 634.07,-29.83"/>
<polygon fill="#63b8ff" stroke="#63b8ff" points="637.19,-31.45 637.79,-20.87 630.73,-28.77 637.19,-31.45"/>
</g>
<!-- Node9 -->
<g id="node9" class="node">
<title>Node9</title>
<g id="a_node9"><a xlink:title=" ">
<polygon fill="#e0e0e0" stroke="#999999" points="1044.5,-184 994.5,-184 994.5,-165 1044.5,-165 1044.5,-184"/>
<text text-anchor="middle" x="1019.5" y="-172" font-family="Helvetica,sans-Serif" font-size="10.00">fstream</text>
</a>
</g>
</g>
<!-- Node2&#45;&gt;Node9 -->
<g id="edge8" class="edge">
<title>Node2&#45;&gt;Node9</title>
<path fill="none" stroke="#63b8ff" d="M933.14,-219.51C949.23,-211.31 973.25,-199.07 991.87,-189.58"/>
<polygon fill="#63b8ff" stroke="#63b8ff" points="993.45,-192.7 1000.77,-185.05 990.27,-186.47 993.45,-192.7"/>
</g>
<!-- Node10 -->
<g id="node10" class="node">
<title>Node10</title>
<g id="a_node10"><a xlink:title=" ">
<polygon fill="#e0e0e0" stroke="#999999" points="1104,-184 1063,-184 1063,-165 1104,-165 1104,-184"/>
<text text-anchor="middle" x="1083.5" y="-172" font-family="Helvetica,sans-Serif" font-size="10.00">string</text>
</a>
</g>
</g>
<!-- Node2&#45;&gt;Node10 -->
<g id="edge9" class="edge">
<title>Node2&#45;&gt;Node10</title>
<path fill="none" stroke="#63b8ff" d="M944,-219.51C973.93,-210.07 1020.88,-195.25 1051.92,-185.46"/>
<polygon fill="#63b8ff" stroke="#63b8ff" points="1052.65,-188.9 1061.13,-182.56 1050.54,-182.23 1052.65,-188.9"/>
</g>
<!-- Node11 -->
<g id="node11" class="node">
<title>Node11</title>
<g id="a_node11"><a xlink:title=" ">
<polygon fill="#e0e0e0" stroke="#999999" points="1172.5,-184 1122.5,-184 1122.5,-165 1172.5,-165 1172.5,-184"/>
<text text-anchor="middle" x="1147.5" y="-172" font-family="Helvetica,sans-Serif" font-size="10.00">unistd.h</text>
</a>
</g>
</g>
<!-- Node2&#45;&gt;Node11 -->
<g id="edge10" class="edge">
<title>Node2&#45;&gt;Node11</title>
<path fill="none" stroke="#63b8ff" d="M956.52,-219.58C994.26,-211.31 1052.06,-198.47 1111.21,-184.5"/>
<polygon fill="#63b8ff" stroke="#63b8ff" points="1111.87,-187.94 1120.79,-182.23 1110.25,-181.13 1111.87,-187.94"/>
</g>
<!-- Node12 -->
<g id="node12" class="node">
<title>Node12</title>
<g id="a_node12"><a xlink:title=" ">
<polygon fill="#e0e0e0" stroke="#999999" points="1256,-184 1191,-184 1191,-165 1256,-165 1256,-184"/>
<text text-anchor="middle" x="1223.5" y="-172" font-family="Helvetica,sans-Serif" font-size="10.00">sys/types.h</text>
</a>
</g>
</g>
<!-- Node2&#45;&gt;Node12 -->
<g id="edge11" class="edge">
<title>Node2&#45;&gt;Node12</title>
<path fill="none" stroke="#63b8ff" d="M963.64,-220.95C1014.7,-212.83 1097.99,-199.27 1179.53,-184.31"/>
<polygon fill="#63b8ff" stroke="#63b8ff" points="1179.82,-187.82 1189.02,-182.56 1178.55,-180.93 1179.82,-187.82"/>
</g>
<!-- Node13 -->
<g id="node13" class="node">
<title>Node13</title>
<g id="a_node13"><a xlink:title=" ">
<polygon fill="#e0e0e0" stroke="#999999" points="731.5,-19 687.5,-19 687.5,0 731.5,0 731.5,-19"/>
<text text-anchor="middle" x="709.5" y="-7" font-family="Helvetica,sans-Serif" font-size="10.00">vector</text>
</a>
</g>
</g>
<!-- Node2&#45;&gt;Node13 -->
<g id="edge12" class="edge">
<title>Node2&#45;&gt;Node13</title>
<path fill="none" stroke="#63b8ff" d="M867.15,-227.6C798.18,-225.17 676.84,-216.3 649.5,-184 609.4,-136.64 665,-60.96 693.93,-27.44"/>
<polygon fill="#63b8ff" stroke="#63b8ff" points="696.25,-30.09 700.27,-20.29 691.02,-25.44 696.25,-30.09"/>
</g>
<!-- Node14 -->
<g id="node14" class="node">
<title>Node14</title>
<g id="a_node14"><a xlink:title=" ">
<polygon fill="#e0e0e0" stroke="#999999" points="1332.5,-184 1274.5,-184 1274.5,-165 1332.5,-165 1332.5,-184"/>
<text text-anchor="middle" x="1303.5" y="-172" font-family="Helvetica,sans-Serif" font-size="10.00">exception</text>
</a>
</g>
</g>
<!-- Node2&#45;&gt;Node14 -->
<g id="edge13" class="edge">
<title>Node2&#45;&gt;Node14</title>
<path fill="none" stroke="#63b8ff" d="M963.91,-221.32C967.15,-220.87 970.37,-220.42 973.5,-220 1099.54,-203 1134.75,-206.11 1263.05,-184.28"/>
<polygon fill="#63b8ff" stroke="#63b8ff" points="1263.35,-187.78 1272.61,-182.63 1262.16,-180.88 1263.35,-187.78"/>
</g>
<!-- Node15 -->
<g id="node15" class="node">
<title>Node15</title>
<g id="a_node15"><a xlink:href="Window_8hpp.html" target="_top" xlink:title=" ">
<polygon fill="white" stroke="#666666" points="1452,-184 1351,-184 1351,-165 1452,-165 1452,-184"/>
<text text-anchor="middle" x="1401.5" y="-172" font-family="Helvetica,sans-Serif" font-size="10.00">Engine/Window.hpp</text>
</a>
</g>
</g>
<!-- Node2&#45;&gt;Node15 -->
<g id="edge14" class="edge">
<title>Node2&#45;&gt;Node15</title>
<path fill="none" stroke="#63b8ff" d="M963.89,-220.07C964.1,-220.05 964.3,-220.02 964.5,-220 1127.62,-200.08 1169.33,-203.53 1332.5,-184 1334.79,-183.73 1337.12,-183.44 1339.48,-183.14"/>
<polygon fill="#63b8ff" stroke="#63b8ff" points="1339.7,-186.64 1349.16,-181.87 1338.79,-179.7 1339.7,-186.64"/>
</g>
<!-- Node16 -->
<g id="node16" class="node">
<title>Node16</title>
<g id="a_node16"><a xlink:href="EntitiesManager_8hpp.html" target="_top" xlink:title=" ">
<polygon fill="white" stroke="#666666" points="798.5,-184 658.5,-184 658.5,-165 798.5,-165 798.5,-184"/>
<text text-anchor="middle" x="728.5" y="-172" font-family="Helvetica,sans-Serif" font-size="10.00">Entities/EntitiesManager.hpp</text>
</a>
</g>
</g>
<!-- Node2&#45;&gt;Node16 -->
<g id="edge17" class="edge">
<title>Node2&#45;&gt;Node16</title>
<path fill="none" stroke="#63b8ff" d="M878.56,-219.51C845.88,-210.76 798.59,-197.42 765.8,-187.71"/>
<polygon fill="#63b8ff" stroke="#63b8ff" points="766.89,-184.39 756.31,-184.88 764.89,-191.09 766.89,-184.39"/>
</g>
<!-- Node23 -->
<g id="node23" class="node">
<title>Node23</title>
<g id="a_node23"><a xlink:href="Bullets_8hpp.html" target="_top" xlink:title=" ">
<polygon fill="white" stroke="#666666" points="976.5,-184 854.5,-184 854.5,-165 976.5,-165 976.5,-184"/>
<text text-anchor="middle" x="915.5" y="-172" font-family="Helvetica,sans-Serif" font-size="10.00">Components/Bullets.hpp</text>
</a>
</g>
</g>
<!-- Node2&#45;&gt;Node23 -->
<g id="edge33" class="edge">
<title>Node2&#45;&gt;Node23</title>
<path fill="none" stroke="#63b8ff" d="M910.33,-219.75C908.92,-213.19 908.46,-203.95 908.93,-195.6"/>
<polygon fill="#63b8ff" stroke="#63b8ff" points="912.37,-196.3 910.11,-185.94 905.42,-195.45 912.37,-196.3"/>
</g>
<!-- Node25 -->
<g id="node25" class="node">
<title>Node25</title>
<g id="a_node25"><a xlink:href="Background_8hpp.html" target="_top" xlink:title=" ">
<polygon fill="white" stroke="#666666" points="1614.5,-184 1470.5,-184 1470.5,-165 1614.5,-165 1614.5,-184"/>
<text text-anchor="middle" x="1542.5" y="-172" font-family="Helvetica,sans-Serif" font-size="10.00">Components/Background.hpp</text>
</a>
</g>
</g>
<!-- Node2&#45;&gt;Node25 -->
<g id="edge37" class="edge">
<title>Node2&#45;&gt;Node25</title>
<path fill="none" stroke="#63b8ff" d="M963.89,-220.07C964.09,-220.04 964.3,-220.02 964.5,-220 1180.67,-196.22 1235.88,-203.35 1452.5,-184 1454.67,-183.81 1456.86,-183.61 1459.08,-183.4"/>
<polygon fill="#63b8ff" stroke="#63b8ff" points="1459.19,-186.9 1468.82,-182.47 1458.53,-179.94 1459.19,-186.9"/>
</g>
<!-- Node15&#45;&gt;Node2 -->
<g id="edge15" class="edge">
<title>Node15&#45;&gt;Node2</title>
<path fill="none" stroke="#63b8ff" d="M1350.02,-184.06C1187.25,-203.52 1145.47,-200.1 982.5,-220 980.17,-220.28 977.79,-220.59 975.38,-220.9"/>
<polygon fill="#63b8ff" stroke="#63b8ff" points="974.92,-217.43 965.48,-222.24 975.86,-224.37 974.92,-217.43"/>
</g>
<!-- Node16&#45;&gt;Node2 -->
<g id="edge18" class="edge">
<title>Node16&#45;&gt;Node2</title>
<path fill="none" stroke="#63b8ff" d="M765.27,-184.45C797.91,-193.18 845.2,-206.52 878.03,-216.24"/>
<polygon fill="#63b8ff" stroke="#63b8ff" points="876.96,-219.57 887.54,-219.08 878.96,-212.86 876.96,-219.57"/>
</g>
<!-- Node17 -->
<g id="node17" class="node">
<title>Node17</title>
<g id="a_node17"><a xlink:href="IComponents_8hpp.html" target="_top" xlink:title=" ">
<polygon fill="white" stroke="#666666" points="952.5,-129 802.5,-129 802.5,-110 952.5,-110 952.5,-129"/>
<text text-anchor="middle" x="877.5" y="-117" font-family="Helvetica,sans-Serif" font-size="10.00">Components/IComponents.hpp</text>
</a>
</g>
</g>
<!-- Node16&#45;&gt;Node17 -->
<g id="edge19" class="edge">
<title>Node16&#45;&gt;Node17</title>
<path fill="none" stroke="#63b8ff" d="M753.78,-164.51C778,-155.89 814.8,-142.8 841.97,-133.14"/>
<polygon fill="#63b8ff" stroke="#63b8ff" points="842.92,-136.51 851.17,-129.87 840.58,-129.92 842.92,-136.51"/>
</g>
<!-- Node18 -->
<g id="node18" class="node">
<title>Node18</title>
<g id="a_node18"><a xlink:href="SparseArray_8hpp.html" target="_top" xlink:title=" ">
<polygon fill="white" stroke="#666666" points="784,-129 673,-129 673,-110 784,-110 784,-129"/>
<text text-anchor="middle" x="728.5" y="-117" font-family="Helvetica,sans-Serif" font-size="10.00">Utils/SparseArray.hpp</text>
</a>
</g>
</g>
<!-- Node16&#45;&gt;Node18 -->
<g id="edge21" class="edge">
<title>Node16&#45;&gt;Node18</title>
<path fill="none" stroke="#63b8ff" d="M728.5,-164.75C728.5,-158.27 728.5,-149.16 728.5,-140.9"/>
<polygon fill="#63b8ff" stroke="#63b8ff" points="732,-140.96 728.5,-130.96 725,-140.96 732,-140.96"/>
</g>
<!-- Node17&#45;&gt;Node2 -->
<g id="edge20" class="edge">
<title>Node17&#45;&gt;Node2</title>
<path fill="none" stroke="#63b8ff" d="M867.45,-129.23C854.52,-141.56 834.92,-164.74 845.5,-184 853.01,-197.68 866.71,-207.75 880.01,-214.82"/>
<polygon fill="#63b8ff" stroke="#63b8ff" points="878.1,-217.79 888.63,-218.99 881.15,-211.48 878.1,-217.79"/>
</g>
<!-- Node18&#45;&gt;Node8 -->
<g id="edge22" class="edge">
<title>Node18&#45;&gt;Node8</title>
<path fill="none" stroke="#63b8ff" d="M721.46,-109.66C707.35,-91.94 675.36,-51.77 656.72,-28.35"/>
<polygon fill="#63b8ff" stroke="#63b8ff" points="659.55,-26.29 650.58,-20.64 654.07,-30.65 659.55,-26.29"/>
</g>
<!-- Node18&#45;&gt;Node13 -->
<g id="edge25" class="edge">
<title>Node18&#45;&gt;Node13</title>
<path fill="none" stroke="#63b8ff" d="M726.95,-109.66C723.93,-92.5 717.2,-54.26 713.04,-30.6"/>
<polygon fill="#63b8ff" stroke="#63b8ff" points="716.52,-30.19 711.34,-20.95 709.62,-31.41 716.52,-30.19"/>
</g>
<!-- Node19 -->
<g id="node19" class="node">
<title>Node19</title>
<g id="a_node19"><a xlink:title=" ">
<polygon fill="#e0e0e0" stroke="#999999" points="811.5,-19 755.5,-19 755.5,0 811.5,0 811.5,-19"/>
<text text-anchor="middle" x="783.5" y="-7" font-family="Helvetica,sans-Serif" font-size="10.00">algorithm</text>
</a>
</g>
</g>
<!-- Node18&#45;&gt;Node19 -->
<g id="edge23" class="edge">
<title>Node18&#45;&gt;Node19</title>
<path fill="none" stroke="#63b8ff" d="M781.23,-109.55C801.74,-103.21 823.22,-92.41 835.5,-74 847.23,-56.42 827.91,-37.89 809.58,-25.42"/>
<polygon fill="#63b8ff" stroke="#63b8ff" points="811.57,-22.54 801.26,-20.13 807.82,-28.45 811.57,-22.54"/>
</g>
<!-- Node20 -->
<g id="node20" class="node">
<title>Node20</title>
<g id="a_node20"><a xlink:title=" ">
<polygon fill="#e0e0e0" stroke="#999999" points="881.5,-19 843.5,-19 843.5,0 881.5,0 881.5,-19"/>
<text text-anchor="middle" x="862.5" y="-7" font-family="Helvetica,sans-Serif" font-size="10.00">array</text>
</a>
</g>
</g>
<!-- Node18&#45;&gt;Node20 -->
<g id="edge24" class="edge">
<title>Node18&#45;&gt;Node20</title>
<path fill="none" stroke="#63b8ff" d="M784.43,-110.62C808.08,-104.46 833.94,-93.51 850.5,-74 860.62,-62.08 863.28,-44.32 863.6,-30.62"/>
<polygon fill="#63b8ff" stroke="#63b8ff" points="867.1,-30.89 863.41,-20.96 860.11,-31.03 867.1,-30.89"/>
</g>
<!-- Node21 -->
<g id="node21" class="node">
<title>Node21</title>
<g id="a_node21"><a xlink:title=" ">
<polygon fill="#e0e0e0" stroke="#999999" points="946,-19 907,-19 907,0 946,0 946,-19"/>
<text text-anchor="middle" x="926.5" y="-7" font-family="Helvetica,sans-Serif" font-size="10.00">utility</text>
</a>
</g>
</g>
<!-- Node18&#45;&gt;Node21 -->
<g id="edge26" class="edge">
<title>Node18&#45;&gt;Node21</title>
<path fill="none" stroke="#63b8ff" d="M777.55,-109.52C805.73,-102.81 840.89,-91.66 868.5,-74 887.12,-62.09 903.6,-42.71 914.19,-28.49"/>
<polygon fill="#63b8ff" stroke="#63b8ff" points="916.97,-30.63 919.93,-20.46 911.27,-26.57 916.97,-30.63"/>
</g>
<!-- Node22 -->
<g id="node22" class="node">
<title>Node22</title>
<g id="a_node22"><a xlink:href="Vectors_8hpp.html" target="_top" xlink:title=" ">
<polygon fill="white" stroke="#666666" points="826.5,-74 734.5,-74 734.5,-55 826.5,-55 826.5,-74"/>
<text text-anchor="middle" x="780.5" y="-62" font-family="Helvetica,sans-Serif" font-size="10.00">Utils/Vectors.hpp</text>
</a>
</g>
</g>
<!-- Node18&#45;&gt;Node22 -->
<g id="edge27" class="edge">
<title>Node18&#45;&gt;Node22</title>
<path fill="none" stroke="#63b8ff" d="M737.09,-109.75C744.34,-102.35 754.95,-91.54 763.87,-82.45"/>
<polygon fill="#63b8ff" stroke="#63b8ff" points="766.16,-85.11 770.67,-75.52 761.16,-80.21 766.16,-85.11"/>
</g>
<!-- Node22&#45;&gt;Node8 -->
<g id="edge28" class="edge">
<title>Node22&#45;&gt;Node8</title>
<path fill="none" stroke="#63b8ff" d="M757.09,-54.51C734.85,-45.97 701.17,-33.03 676.08,-23.4"/>
<polygon fill="#63b8ff" stroke="#63b8ff" points="677.57,-20.22 666.98,-19.9 675.06,-26.75 677.57,-20.22"/>
</g>
<!-- Node22&#45;&gt;Node13 -->
<g id="edge31" class="edge">
<title>Node22&#45;&gt;Node13</title>
<path fill="none" stroke="#63b8ff" d="M768.46,-54.51C758.09,-46.77 742.9,-35.43 730.53,-26.2"/>
<polygon fill="#63b8ff" stroke="#63b8ff" points="732.69,-23.44 722.58,-20.26 728.5,-29.05 732.69,-23.44"/>
</g>
<!-- Node22&#45;&gt;Node19 -->
<g id="edge29" class="edge">
<title>Node22&#45;&gt;Node19</title>
<path fill="none" stroke="#63b8ff" d="M781,-54.75C781.36,-48.27 781.88,-39.16 782.35,-30.9"/>
<polygon fill="#63b8ff" stroke="#63b8ff" points="785.84,-31.13 782.91,-20.95 778.85,-30.74 785.84,-31.13"/>
</g>
<!-- Node22&#45;&gt;Node20 -->
<g id="edge30" class="edge">
<title>Node22&#45;&gt;Node20</title>
<path fill="none" stroke="#63b8ff" d="M794.41,-54.51C806.74,-46.54 824.97,-34.75 839.47,-25.38"/>
<polygon fill="#63b8ff" stroke="#63b8ff" points="841.03,-28.55 847.52,-20.18 837.23,-22.67 841.03,-28.55"/>
</g>
<!-- Node22&#45;&gt;Node21 -->
<g id="edge32" class="edge">
<title>Node22&#45;&gt;Node21</title>
<path fill="none" stroke="#63b8ff" d="M805.27,-54.51C830.32,-45.41 869.11,-31.33 896.03,-21.56"/>
<polygon fill="#63b8ff" stroke="#63b8ff" points="897.14,-24.88 905.35,-18.18 894.76,-18.3 897.14,-24.88"/>
</g>
<!-- Node23&#45;&gt;Node2 -->
<g id="edge34" class="edge">
<title>Node23&#45;&gt;Node2</title>
<path fill="none" stroke="#63b8ff" d="M920.71,-184.44C922.08,-190.97 922.54,-200.1 922.07,-208.35"/>
<polygon fill="#63b8ff" stroke="#63b8ff" points="918.6,-207.89 920.85,-218.25 925.55,-208.75 918.6,-207.89"/>
</g>
<!-- Node23&#45;&gt;Node17 -->
<g id="edge35" class="edge">
<title>Node23&#45;&gt;Node17</title>
<path fill="none" stroke="#63b8ff" d="M909.23,-164.75C904.14,-157.66 896.8,-147.42 890.47,-138.59"/>
<polygon fill="#63b8ff" stroke="#63b8ff" points="893.46,-136.76 884.79,-130.67 887.78,-140.84 893.46,-136.76"/>
</g>
<!-- Node24 -->
<g id="node24" class="node">
<title>Node24</title>
<g id="a_node24"><a xlink:title=" ">
<polygon fill="#e0e0e0" stroke="#999999" points="1016.5,-129 970.5,-129 970.5,-110 1016.5,-110 1016.5,-129"/>
<text text-anchor="middle" x="993.5" y="-117" font-family="Helvetica,sans-Serif" font-size="10.00">math.h</text>
</a>
</g>
</g>
<!-- Node23&#45;&gt;Node24 -->
<g id="edge36" class="edge">
<title>Node23&#45;&gt;Node24</title>
<path fill="none" stroke="#63b8ff" d="M928.73,-164.51C940.34,-156.62 957.47,-144.98 971.2,-135.65"/>
<polygon fill="#63b8ff" stroke="#63b8ff" points="972.91,-138.72 979.21,-130.21 968.97,-132.93 972.91,-138.72"/>
</g>
<!-- Node25&#45;&gt;Node2 -->
<g id="edge38" class="edge">
<title>Node25&#45;&gt;Node2</title>
<path fill="none" stroke="#63b8ff" d="M1470.18,-184.03C1253.83,-203.34 1198.57,-196.23 982.5,-220 980.17,-220.26 977.79,-220.54 975.38,-220.83"/>
<polygon fill="#63b8ff" stroke="#63b8ff" points="974.93,-217.36 965.47,-222.12 975.83,-224.3 974.93,-217.36"/>
</g>
</g>
</svg>
