<?xml version="1.0" encoding="UTF-8" standalone="no"?>
<!DOCTYPE svg PUBLIC "-//W3C//DTD SVG 1.1//EN"
 "http://www.w3.org/Graphics/SVG/1.1/DTD/svg11.dtd">
<!-- Generated by graphviz version 7.0.5 (20221223.1930)
 -->
<!-- Title: /github/workspace/client/include/Engine/Event.hpp Pages: 1 -->
<svg width="2588pt" height="610pt"
 viewBox="0.00 0.00 2588.17 610.00" xmlns="http://www.w3.org/2000/svg" xmlns:xlink="http://www.w3.org/1999/xlink">
<g id="graph0" class="graph" transform="scale(1 1) rotate(0) translate(4 606)">
<title>/github/workspace/client/include/Engine/Event.hpp</title>
<!-- Node1 -->
<g id="node1" class="node">
<title>Node1</title>
<g id="a_node1"><a xlink:title=" ">
<polygon fill="#999999" stroke="#666666" points="1294.17,-602 1166.17,-602 1166.17,-572 1294.17,-572 1294.17,-602"/>
<text text-anchor="start" x="1174.17" y="-590" font-family="Helvetica,sans-Serif" font-size="10.00">/github/workspace/client</text>
<text text-anchor="middle" x="1230.17" y="-579" font-family="Helvetica,sans-Serif" font-size="10.00">/include/Engine/Event.hpp</text>
</a>
</g>
</g>
<!-- Node2 -->
<g id="node2" class="node">
<title>Node2</title>
<g id="a_node2"><a xlink:href="Engine_8hpp.html" target="_top" xlink:title=" ">
<polygon fill="white" stroke="#666666" points="1296.67,-536 1163.67,-536 1163.67,-506 1296.67,-506 1296.67,-536"/>
<text text-anchor="start" x="1171.67" y="-524" font-family="Helvetica,sans-Serif" font-size="10.00">/github/workspace/client</text>
<text text-anchor="middle" x="1230.17" y="-513" font-family="Helvetica,sans-Serif" font-size="10.00">/include/Engine/Engine.hpp</text>
</a>
</g>
</g>
<!-- Node1&#45;&gt;Node2 -->
<g id="edge1" class="edge">
<title>Node1&#45;&gt;Node2</title>
<path fill="none" stroke="#63b8ff" d="M1223.54,-560.39C1223.22,-552.13 1223.53,-543.28 1224.46,-536.16"/>
<polygon fill="#63b8ff" stroke="#63b8ff" points="1220.05,-560.6 1224.33,-570.29 1227.02,-560.04 1220.05,-560.6"/>
</g>
<!-- Node41 -->
<g id="node41" class="node">
<title>Node41</title>
<g id="a_node41"><a xlink:href="Event_8cpp.html" target="_top" xlink:title=" ">
<polygon fill="white" stroke="#666666" points="2514.17,-470 2392.17,-470 2392.17,-440 2514.17,-440 2514.17,-470"/>
<text text-anchor="start" x="2400.17" y="-458" font-family="Helvetica,sans-Serif" font-size="10.00">/github/workspace/client</text>
<text text-anchor="middle" x="2453.17" y="-447" font-family="Helvetica,sans-Serif" font-size="10.00">/src/Event.cpp</text>
</a>
</g>
</g>
<!-- Node1&#45;&gt;Node41 -->
<g id="edge64" class="edge">
<title>Node1&#45;&gt;Node41</title>
<path fill="none" stroke="#63b8ff" d="M1305.93,-580.55C1490.12,-566.84 1975.85,-527.77 2378.17,-470 2382.63,-469.36 2387.22,-468.64 2391.84,-467.88"/>
<polygon fill="#63b8ff" stroke="#63b8ff" points="1305.72,-577.06 1296.01,-581.29 1306.24,-584.04 1305.72,-577.06"/>
</g>
<!-- Node2&#45;&gt;Node1 -->
<g id="edge46" class="edge">
<title>Node2&#45;&gt;Node1</title>
<path fill="none" stroke="#63b8ff" d="M1236.8,-547.56C1237.12,-555.82 1236.81,-564.67 1235.89,-571.8"/>
<polygon fill="#63b8ff" stroke="#63b8ff" points="1240.29,-547.36 1236.01,-537.67 1233.31,-547.92 1240.29,-547.36"/>
</g>
<!-- Node3 -->
<g id="node3" class="node">
<title>Node3</title>
<g id="a_node3"><a xlink:href="Background_8hpp.html" target="_top" xlink:title=" ">
<polygon fill="white" stroke="#666666" points="1971.67,-470 1790.67,-470 1790.67,-440 1971.67,-440 1971.67,-470"/>
<text text-anchor="start" x="1798.67" y="-458" font-family="Helvetica,sans-Serif" font-size="10.00">/github/workspace/client</text>
<text text-anchor="middle" x="1881.17" y="-447" font-family="Helvetica,sans-Serif" font-size="10.00">/include/Components/Background.hpp</text>
</a>
</g>
</g>
<!-- Node2&#45;&gt;Node3 -->
<g id="edge2" class="edge">
<title>Node2&#45;&gt;Node3</title>
<path fill="none" stroke="#63b8ff" d="M1308.19,-513.64C1413.61,-505.17 1607.14,-489.03 1772.17,-470 1778.09,-469.32 1784.2,-468.57 1790.37,-467.78"/>
<polygon fill="#63b8ff" stroke="#63b8ff" points="1308.22,-510.12 1298.53,-514.41 1308.78,-517.1 1308.22,-510.12"/>
</g>
<!-- Node11 -->
<g id="node11" class="node">
<title>Node11</title>
<g id="a_node11"><a xlink:href="client_2src_2main_8cpp.html" target="_top" xlink:title=" ">
<polygon fill="white" stroke="#666666" points="1205.17,-30 1083.17,-30 1083.17,0 1205.17,0 1205.17,-30"/>
<text text-anchor="start" x="1091.17" y="-18" font-family="Helvetica,sans-Serif" font-size="10.00">/github/workspace/client</text>
<text text-anchor="middle" x="1144.17" y="-7" font-family="Helvetica,sans-Serif" font-size="10.00">/src/main.cpp</text>
</a>
</g>
</g>
<!-- Node2&#45;&gt;Node11 -->
<g id="edge63" class="edge">
<title>Node2&#45;&gt;Node11</title>
<path fill="none" stroke="#63b8ff" d="M1205.02,-497.97C1179.64,-473.17 1144.17,-430.31 1144.17,-384.5 1144.17,-384.5 1144.17,-384.5 1144.17,-151.5 1144.17,-107.27 1144.17,-54.93 1144.17,-30.24"/>
<polygon fill="#63b8ff" stroke="#63b8ff" points="1202.4,-500.31 1212.08,-504.63 1207.21,-495.22 1202.4,-500.31"/>
</g>
<!-- Node14 -->
<g id="node14" class="node">
<title>Node14</title>
<g id="a_node14"><a xlink:href="Bonus_8hpp.html" target="_top" xlink:title=" ">
<polygon fill="white" stroke="#666666" points="503.67,-398.5 346.67,-398.5 346.67,-368.5 503.67,-368.5 503.67,-398.5"/>
<text text-anchor="start" x="354.67" y="-386.5" font-family="Helvetica,sans-Serif" font-size="10.00">/github/workspace/client</text>
<text text-anchor="middle" x="425.17" y="-375.5" font-family="Helvetica,sans-Serif" font-size="10.00">/include/Components/Bonus.hpp</text>
</a>
</g>
</g>
<!-- Node2&#45;&gt;Node14 -->
<g id="edge17" class="edge">
<title>Node2&#45;&gt;Node14</title>
<path fill="none" stroke="#63b8ff" d="M1152.07,-518.98C970.42,-516.02 530.63,-505.26 474.17,-470 448.34,-453.87 434.74,-418.83 428.85,-398.98"/>
<polygon fill="#63b8ff" stroke="#63b8ff" points="1151.83,-522.48 1161.88,-519.13 1151.94,-515.48 1151.83,-522.48"/>
</g>
<!-- Node15 -->
<g id="node15" class="node">
<title>Node15</title>
<g id="a_node15"><a xlink:href="include_8hpp.html" target="_top" xlink:title=" ">
<polygon fill="white" stroke="#666666" points="540.17,-321.5 418.17,-321.5 418.17,-291.5 540.17,-291.5 540.17,-321.5"/>
<text text-anchor="start" x="426.17" y="-309.5" font-family="Helvetica,sans-Serif" font-size="10.00">/github/workspace/client</text>
<text text-anchor="middle" x="479.17" y="-298.5" font-family="Helvetica,sans-Serif" font-size="10.00">/include/include.hpp</text>
</a>
</g>
</g>
<!-- Node2&#45;&gt;Node15 -->
<g id="edge61" class="edge">
<title>Node2&#45;&gt;Node15</title>
<path fill="none" stroke="#63b8ff" d="M1151.89,-519.57C979.94,-517.89 580.86,-509.71 535.17,-470 498.45,-438.09 529.94,-408.28 512.17,-363 506.35,-348.18 496.84,-332.73 489.51,-321.9"/>
<polygon fill="#63b8ff" stroke="#63b8ff" points="1151.83,-523.07 1161.87,-519.66 1151.9,-516.07 1151.83,-523.07"/>
</g>
<!-- Node16 -->
<g id="node16" class="node">
<title>Node16</title>
<g id="a_node16"><a xlink:href="Bouton_8hpp.html" target="_top" xlink:title=" ">
<polygon fill="white" stroke="#666666" points="1978.17,-321.5 1818.17,-321.5 1818.17,-291.5 1978.17,-291.5 1978.17,-321.5"/>
<text text-anchor="start" x="1826.17" y="-309.5" font-family="Helvetica,sans-Serif" font-size="10.00">/github/workspace/client</text>
<text text-anchor="middle" x="1898.17" y="-298.5" font-family="Helvetica,sans-Serif" font-size="10.00">/include/Components/Bouton.hpp</text>
</a>
</g>
</g>
<!-- Node2&#45;&gt;Node16 -->
<g id="edge19" class="edge">
<title>Node2&#45;&gt;Node16</title>
<path fill="none" stroke="#63b8ff" d="M1308.42,-520.68C1491.35,-521.45 1935,-518.28 1980.17,-470 2022.71,-424.53 1924.47,-414.16 1917.17,-404 1899.34,-379.18 1897.15,-341.89 1897.45,-321.7"/>
<polygon fill="#63b8ff" stroke="#63b8ff" points="1308.54,-517.18 1298.53,-520.63 1308.51,-524.18 1308.54,-517.18"/>
</g>
<!-- Node17 -->
<g id="node17" class="node">
<title>Node17</title>
<g id="a_node17"><a xlink:href="Bullets_8hpp.html" target="_top" xlink:title=" ">
<polygon fill="white" stroke="#666666" points="328.67,-398.5 169.67,-398.5 169.67,-368.5 328.67,-368.5 328.67,-398.5"/>
<text text-anchor="start" x="177.67" y="-386.5" font-family="Helvetica,sans-Serif" font-size="10.00">/github/workspace/client</text>
<text text-anchor="middle" x="249.17" y="-375.5" font-family="Helvetica,sans-Serif" font-size="10.00">/include/Components/Bullets.hpp</text>
</a>
</g>
</g>
<!-- Node2&#45;&gt;Node17 -->
<g id="edge22" class="edge">
<title>Node2&#45;&gt;Node17</title>
<path fill="none" stroke="#63b8ff" d="M1151.99,-518.59C979.02,-514.82 569.02,-502.52 435.17,-470 371.05,-454.42 301.54,-419 268.39,-398.98"/>
<polygon fill="#63b8ff" stroke="#63b8ff" points="1151.7,-522.08 1161.77,-518.8 1151.85,-515.08 1151.7,-522.08"/>
</g>
<!-- Node19 -->
<g id="node19" class="node">
<title>Node19</title>
<g id="a_node19"><a xlink:href="Centipede_8hpp.html" target="_top" xlink:title=" ">
<polygon fill="white" stroke="#666666" points="1345.67,-398.5 1172.67,-398.5 1172.67,-368.5 1345.67,-368.5 1345.67,-398.5"/>
<text text-anchor="start" x="1180.67" y="-386.5" font-family="Helvetica,sans-Serif" font-size="10.00">/github/workspace/client</text>
<text text-anchor="middle" x="1259.17" y="-375.5" font-family="Helvetica,sans-Serif" font-size="10.00">/include/Components/Centipede.hpp</text>
</a>
</g>
</g>
<!-- Node2&#45;&gt;Node19 -->
<g id="edge26" class="edge">
<title>Node2&#45;&gt;Node19</title>
<path fill="none" stroke="#63b8ff" d="M1212.14,-496.44C1202.14,-480.36 1193.19,-458.68 1201.17,-440 1208.45,-422.95 1223.82,-408.64 1236.91,-398.82"/>
<polygon fill="#63b8ff" stroke="#63b8ff" points="1209.02,-498.07 1217.52,-504.4 1214.82,-494.15 1209.02,-498.07"/>
</g>
<!-- Node20 -->
<g id="node20" class="node">
<title>Node20</title>
<g id="a_node20"><a xlink:href="IComponents_8hpp.html" target="_top" xlink:title=" ">
<polygon fill="white" stroke="#666666" points="741.67,-470 554.67,-470 554.67,-440 741.67,-440 741.67,-470"/>
<text text-anchor="start" x="562.67" y="-458" font-family="Helvetica,sans-Serif" font-size="10.00">/github/workspace/client</text>
<text text-anchor="middle" x="648.17" y="-447" font-family="Helvetica,sans-Serif" font-size="10.00">/include/Components/IComponents.hpp</text>
</a>
</g>
</g>
<!-- Node2&#45;&gt;Node20 -->
<g id="edge28" class="edge">
<title>Node2&#45;&gt;Node20</title>
<path fill="none" stroke="#63b8ff" d="M1151.99,-512.33C1057.97,-502.97 895.41,-486.37 756.17,-470 751.57,-469.46 746.86,-468.89 742.11,-468.31"/>
<polygon fill="#63b8ff" stroke="#63b8ff" points="1151.59,-515.81 1161.88,-513.31 1152.28,-508.84 1151.59,-515.81"/>
</g>
<!-- Node21 -->
<g id="node21" class="node">
<title>Node21</title>
<g id="a_node21"><a xlink:href="EntitiesManager_8hpp.html" target="_top" xlink:title=" ">
<polygon fill="white" stroke="#666666" points="876.17,-398.5 700.17,-398.5 700.17,-368.5 876.17,-368.5 876.17,-398.5"/>
<text text-anchor="start" x="708.17" y="-386.5" font-family="Helvetica,sans-Serif" font-size="10.00">/github/workspace/client</text>
<text text-anchor="middle" x="788.17" y="-375.5" font-family="Helvetica,sans-Serif" font-size="10.00">/include/Entities/EntitiesManager.hpp</text>
</a>
</g>
</g>
<!-- Node2&#45;&gt;Node21 -->
<g id="edge55" class="edge">
<title>Node2&#45;&gt;Node21</title>
<path fill="none" stroke="#63b8ff" d="M1151.95,-515.95C1034.44,-508.93 823.62,-493 798.17,-470 778.2,-451.95 776.76,-417.99 780.75,-398.75"/>
<polygon fill="#63b8ff" stroke="#63b8ff" points="1151.66,-519.44 1161.85,-516.54 1152.07,-512.45 1151.66,-519.44"/>
</g>
<!-- Node23 -->
<g id="node23" class="node">
<title>Node23</title>
<g id="a_node23"><a xlink:href="oold__EntitiesManager_8hpp.html" target="_top" xlink:title=" ">
<polygon fill="white" stroke="#666666" points="682.17,-404 560.17,-404 560.17,-363 682.17,-363 682.17,-404"/>
<text text-anchor="start" x="568.17" y="-392" font-family="Helvetica,sans-Serif" font-size="10.00">/github/workspace/client</text>
<text text-anchor="start" x="568.17" y="-381" font-family="Helvetica,sans-Serif" font-size="10.00">/include/Entities/oold</text>
<text text-anchor="middle" x="621.17" y="-370" font-family="Helvetica,sans-Serif" font-size="10.00">_EntitiesManager.hpp</text>
</a>
</g>
</g>
<!-- Node2&#45;&gt;Node23 -->
<g id="edge60" class="edge">
<title>Node2&#45;&gt;Node23</title>
<path fill="none" stroke="#63b8ff" d="M1151.76,-520.14C980.65,-519.62 585.75,-513.64 545.17,-470 524.62,-447.89 555.26,-421.89 583.56,-404.42"/>
<polygon fill="#63b8ff" stroke="#63b8ff" points="1151.68,-523.64 1161.68,-520.16 1151.69,-516.64 1151.68,-523.64"/>
</g>
<!-- Node24 -->
<g id="node24" class="node">
<title>Node24</title>
<g id="a_node24"><a xlink:href="Mobs_8hpp.html" target="_top" xlink:title=" ">
<polygon fill="white" stroke="#666666" points="969.67,-470 816.67,-470 816.67,-440 969.67,-440 969.67,-470"/>
<text text-anchor="start" x="824.67" y="-458" font-family="Helvetica,sans-Serif" font-size="10.00">/github/workspace/client</text>
<text text-anchor="middle" x="893.17" y="-447" font-family="Helvetica,sans-Serif" font-size="10.00">/include/Components/Mobs.hpp</text>
</a>
</g>
</g>
<!-- Node2&#45;&gt;Node24 -->
<g id="edge37" class="edge">
<title>Node2&#45;&gt;Node24</title>
<path fill="none" stroke="#63b8ff" d="M1152.1,-505.17C1097.16,-494.74 1023.98,-480.84 969.44,-470.48"/>
<polygon fill="#63b8ff" stroke="#63b8ff" points="1151.22,-508.57 1161.7,-507 1152.53,-501.69 1151.22,-508.57"/>
</g>
<!-- Node25 -->
<g id="node25" class="node">
<title>Node25</title>
<g id="a_node25"><a xlink:href="Audio_8hpp.html" target="_top" xlink:title=" ">
<polygon fill="white" stroke="#666666" points="1116.17,-470 988.17,-470 988.17,-440 1116.17,-440 1116.17,-470"/>
<text text-anchor="start" x="996.17" y="-458" font-family="Helvetica,sans-Serif" font-size="10.00">/github/workspace/client</text>
<text text-anchor="middle" x="1052.17" y="-447" font-family="Helvetica,sans-Serif" font-size="10.00">/include/Engine/Audio.hpp</text>
</a>
</g>
</g>
<!-- Node2&#45;&gt;Node25 -->
<g id="edge38" class="edge">
<title>Node2&#45;&gt;Node25</title>
<path fill="none" stroke="#63b8ff" d="M1179.56,-501.8C1151.9,-491.86 1118.12,-479.71 1092.29,-470.43"/>
<polygon fill="#63b8ff" stroke="#63b8ff" points="1178.2,-505.04 1188.8,-505.13 1180.57,-498.45 1178.2,-505.04"/>
</g>
<!-- Node26 -->
<g id="node26" class="node">
<title>Node26</title>
<g id="a_node26"><a xlink:href="Destroy_8hpp.html" target="_top" xlink:title=" ">
<polygon fill="white" stroke="#666666" points="1347.67,-470 1210.67,-470 1210.67,-440 1347.67,-440 1347.67,-470"/>
<text text-anchor="start" x="1218.67" y="-458" font-family="Helvetica,sans-Serif" font-size="10.00">/github/workspace/client</text>
<text text-anchor="middle" x="1279.17" y="-447" font-family="Helvetica,sans-Serif" font-size="10.00">/include/Engine/Destroy.hpp</text>
</a>
</g>
</g>
<!-- Node2&#45;&gt;Node26 -->
<g id="edge39" class="edge">
<title>Node2&#45;&gt;Node26</title>
<path fill="none" stroke="#63b8ff" d="M1248.03,-496.68C1254.83,-487.79 1262.37,-477.95 1268.33,-470.16"/>
<polygon fill="#63b8ff" stroke="#63b8ff" points="1245.26,-494.53 1241.96,-504.59 1250.82,-498.78 1245.26,-494.53"/>
</g>
<!-- Node28 -->
<g id="node28" class="node">
<title>Node28</title>
<g id="a_node28"><a xlink:href="Draw_8hpp.html" target="_top" xlink:title=" ">
<polygon fill="white" stroke="#666666" points="1632.17,-470 1506.17,-470 1506.17,-440 1632.17,-440 1632.17,-470"/>
<text text-anchor="start" x="1514.17" y="-458" font-family="Helvetica,sans-Serif" font-size="10.00">/github/workspace/client</text>
<text text-anchor="middle" x="1569.17" y="-447" font-family="Helvetica,sans-Serif" font-size="10.00">/include/Engine/Draw.hpp</text>
</a>
</g>
</g>
<!-- Node2&#45;&gt;Node28 -->
<g id="edge41" class="edge">
<title>Node2&#45;&gt;Node28</title>
<path fill="none" stroke="#63b8ff" d="M1308.2,-505.54C1361.45,-495.63 1433.6,-482.13 1497.17,-470 1500.05,-469.45 1502.99,-468.89 1505.96,-468.32"/>
<polygon fill="#63b8ff" stroke="#63b8ff" points="1307.81,-502.05 1298.62,-507.32 1309.09,-508.93 1307.81,-502.05"/>
</g>
<!-- Node30 -->
<g id="node30" class="node">
<title>Node30</title>
<g id="a_node30"><a xlink:href="Error_8hpp.html" target="_top" xlink:title=" ">
<polygon fill="white" stroke="#666666" points="152.17,-470 28.17,-470 28.17,-440 152.17,-440 152.17,-470"/>
<text text-anchor="start" x="36.17" y="-458" font-family="Helvetica,sans-Serif" font-size="10.00">/github/workspace/client</text>
<text text-anchor="middle" x="90.17" y="-447" font-family="Helvetica,sans-Serif" font-size="10.00">/include/Engine/Error.hpp</text>
</a>
</g>
</g>
<!-- Node2&#45;&gt;Node30 -->
<g id="edge43" class="edge">
<title>Node2&#45;&gt;Node30</title>
<path fill="none" stroke="#63b8ff" d="M1151.96,-516.28C990.74,-508.52 609.75,-489.68 290.17,-470 243.96,-467.15 191.79,-463.49 152.31,-460.62"/>
<polygon fill="#63b8ff" stroke="#63b8ff" points="1151.52,-519.77 1161.68,-516.75 1151.85,-512.77 1151.52,-519.77"/>
</g>
<!-- Node32 -->
<g id="node32" class="node">
<title>Node32</title>
<g id="a_node32"><a xlink:href="Map_8hpp.html" target="_top" xlink:title=" ">
<polygon fill="white" stroke="#666666" points="1488.17,-470 1366.17,-470 1366.17,-440 1488.17,-440 1488.17,-470"/>
<text text-anchor="start" x="1374.17" y="-458" font-family="Helvetica,sans-Serif" font-size="10.00">/github/workspace/client</text>
<text text-anchor="middle" x="1427.17" y="-447" font-family="Helvetica,sans-Serif" font-size="10.00">/include/Engine/Map.hpp</text>
</a>
</g>
</g>
<!-- Node2&#45;&gt;Node32 -->
<g id="edge47" class="edge">
<title>Node2&#45;&gt;Node32</title>
<path fill="none" stroke="#63b8ff" d="M1284.96,-502.2C1315.8,-492.18 1353.81,-479.83 1382.77,-470.43"/>
<polygon fill="#63b8ff" stroke="#63b8ff" points="1284.25,-498.75 1275.82,-505.17 1286.41,-505.41 1284.25,-498.75"/>
</g>
<!-- Node33 -->
<g id="node33" class="node">
<title>Node33</title>
<g id="a_node33"><a xlink:href="StateManager_8hpp.html" target="_top" xlink:title=" ">
<polygon fill="white" stroke="#666666" points="2580.17,-398.5 2416.17,-398.5 2416.17,-368.5 2580.17,-368.5 2580.17,-398.5"/>
<text text-anchor="start" x="2424.17" y="-386.5" font-family="Helvetica,sans-Serif" font-size="10.00">/github/workspace/client</text>
<text text-anchor="middle" x="2498.17" y="-375.5" font-family="Helvetica,sans-Serif" font-size="10.00">/include/Engine/StateManager.hpp</text>
</a>
</g>
</g>
<!-- Node2&#45;&gt;Node33 -->
<g id="edge48" class="edge">
<title>Node2&#45;&gt;Node33</title>
<path fill="none" stroke="#63b8ff" d="M1308.2,-517.81C1553.66,-510.77 2296.71,-488.05 2345.17,-470 2365.33,-462.49 2364.93,-451.41 2383.17,-440 2408.82,-423.95 2439.82,-409.24 2463.16,-399"/>
<polygon fill="#63b8ff" stroke="#63b8ff" points="1308.3,-514.31 1298.4,-518.09 1308.5,-521.31 1308.3,-514.31"/>
</g>
<!-- Node34 -->
<g id="node34" class="node">
<title>Node34</title>
<g id="a_node34"><a xlink:href="Text_8hpp.html" target="_top" xlink:title=" ">
<polygon fill="white" stroke="#666666" points="1772.17,-470 1650.17,-470 1650.17,-440 1772.17,-440 1772.17,-470"/>
<text text-anchor="start" x="1658.17" y="-458" font-family="Helvetica,sans-Serif" font-size="10.00">/github/workspace/client</text>
<text text-anchor="middle" x="1711.17" y="-447" font-family="Helvetica,sans-Serif" font-size="10.00">/include/Engine/Text.hpp</text>
</a>
</g>
</g>
<!-- Node2&#45;&gt;Node34 -->
<g id="edge50" class="edge">
<title>Node2&#45;&gt;Node34</title>
<path fill="none" stroke="#63b8ff" d="M1308.29,-512.29C1391.15,-503.69 1525.77,-488.53 1641.17,-470 1643.98,-469.55 1646.86,-469.06 1649.76,-468.56"/>
<polygon fill="#63b8ff" stroke="#63b8ff" points="1308.04,-508.8 1298.45,-513.3 1308.76,-515.76 1308.04,-508.8"/>
</g>
<!-- Node35 -->
<g id="node35" class="node">
<title>Node35</title>
<g id="a_node35"><a xlink:href="Window_8hpp.html" target="_top" xlink:title=" ">
<polygon fill="white" stroke="#666666" points="2336.17,-470 2198.17,-470 2198.17,-440 2336.17,-440 2336.17,-470"/>
<text text-anchor="start" x="2206.17" y="-458" font-family="Helvetica,sans-Serif" font-size="10.00">/github/workspace/client</text>
<text text-anchor="middle" x="2267.17" y="-447" font-family="Helvetica,sans-Serif" font-size="10.00">/include/Engine/Window.hpp</text>
</a>
</g>
</g>
<!-- Node2&#45;&gt;Node35 -->
<g id="edge51" class="edge">
<title>Node2&#45;&gt;Node35</title>
<path fill="none" stroke="#63b8ff" d="M1308.5,-519.1C1471.22,-516.54 1857.2,-506.79 2179.17,-470 2185.26,-469.3 2191.59,-468.43 2197.94,-467.47"/>
<polygon fill="#63b8ff" stroke="#63b8ff" points="1308.63,-515.6 1298.68,-519.25 1308.73,-522.6 1308.63,-515.6"/>
</g>
<!-- Node37 -->
<g id="node37" class="node">
<title>Node37</title>
<g id="a_node37"><a xlink:href="Properties_8hpp.html" target="_top" xlink:title=" ">
<polygon fill="white" stroke="#666666" points="2179.67,-470 2028.67,-470 2028.67,-440 2179.67,-440 2179.67,-470"/>
<text text-anchor="start" x="2036.67" y="-458" font-family="Helvetica,sans-Serif" font-size="10.00">/github/workspace/client</text>
<text text-anchor="middle" x="2104.17" y="-447" font-family="Helvetica,sans-Serif" font-size="10.00">/include/Entities/Properties.hpp</text>
</a>
</g>
</g>
<!-- Node2&#45;&gt;Node37 -->
<g id="edge56" class="edge">
<title>Node2&#45;&gt;Node37</title>
<path fill="none" stroke="#63b8ff" d="M1308.04,-517.37C1449.16,-512.09 1756.43,-498.21 2014.17,-470 2018.89,-469.48 2023.73,-468.9 2028.61,-468.26"/>
<polygon fill="#63b8ff" stroke="#63b8ff" points="1308.32,-513.86 1298.46,-517.73 1308.58,-520.86 1308.32,-513.86"/>
</g>
<!-- Node2&#45;&gt;Node41 -->
<g id="edge62" class="edge">
<title>Node2&#45;&gt;Node41</title>
<path fill="none" stroke="#63b8ff" d="M1308.36,-518.03C1531.78,-512.19 2170.21,-493.82 2378.17,-470 2382.64,-469.49 2387.25,-468.86 2391.88,-468.17"/>
<polygon fill="#63b8ff" stroke="#63b8ff" points="1308.51,-514.53 1298.6,-518.29 1308.69,-521.53 1308.51,-514.53"/>
</g>
<!-- Node3&#45;&gt;Node2 -->
<g id="edge3" class="edge">
<title>Node3&#45;&gt;Node2</title>
<path fill="none" stroke="#63b8ff" d="M1778.69,-471.31C1603.7,-491.2 1399.98,-507.75 1296.97,-515.42"/>
<polygon fill="#63b8ff" stroke="#63b8ff" points="1778.87,-474.82 1788.41,-470.2 1778.07,-467.86 1778.87,-474.82"/>
</g>
<!-- Node4 -->
<g id="node4" class="node">
<title>Node4</title>
<g id="a_node4"><a xlink:href="IGameState_8hpp.html" target="_top" xlink:title=" ">
<polygon fill="white" stroke="#666666" points="1683.17,-327 1543.17,-327 1543.17,-286 1683.17,-286 1683.17,-327"/>
<text text-anchor="start" x="1551.17" y="-315" font-family="Helvetica,sans-Serif" font-size="10.00">/github/workspace/client</text>
<text text-anchor="start" x="1551.17" y="-304" font-family="Helvetica,sans-Serif" font-size="10.00">/include/system/gameStates</text>
<text text-anchor="middle" x="1613.17" y="-293" font-family="Helvetica,sans-Serif" font-size="10.00">/IGameState.hpp</text>
</a>
</g>
</g>
<!-- Node3&#45;&gt;Node4 -->
<g id="edge4" class="edge">
<title>Node3&#45;&gt;Node4</title>
<path fill="none" stroke="#63b8ff" d="M1845.04,-434.25C1793.91,-406.3 1700.95,-355.48 1649.64,-327.43"/>
<polygon fill="#63b8ff" stroke="#63b8ff" points="1843.2,-437.23 1853.66,-438.96 1846.56,-431.09 1843.2,-437.23"/>
</g>
<!-- Node5 -->
<g id="node5" class="node">
<title>Node5</title>
<g id="a_node5"><a xlink:href="SGamePlay__Duck_8hpp.html" target="_top" xlink:title=" ">
<polygon fill="white" stroke="#666666" points="1645.67,-250 1488.67,-250 1488.67,-209 1645.67,-209 1645.67,-250"/>
<text text-anchor="start" x="1496.67" y="-238" font-family="Helvetica,sans-Serif" font-size="10.00">/github/workspace/client</text>
<text text-anchor="start" x="1496.67" y="-227" font-family="Helvetica,sans-Serif" font-size="10.00">/include/system/gameStates</text>
<text text-anchor="middle" x="1567.17" y="-216" font-family="Helvetica,sans-Serif" font-size="10.00">/Example/SGamePlay_Duck.hpp</text>
</a>
</g>
</g>
<!-- Node4&#45;&gt;Node5 -->
<g id="edge5" class="edge">
<title>Node4&#45;&gt;Node5</title>
<path fill="none" stroke="#63b8ff" d="M1595.11,-276.06C1589.82,-267.43 1584.17,-258.21 1579.33,-250.33"/>
<polygon fill="#63b8ff" stroke="#63b8ff" points="1592.08,-277.81 1600.29,-284.5 1598.05,-274.15 1592.08,-277.81"/>
</g>
<!-- Node6 -->
<g id="node6" class="node">
<title>Node6</title>
<g id="a_node6"><a xlink:href="SMenu__Duck_8hpp.html" target="_top" xlink:title=" ">
<polygon fill="white" stroke="#666666" points="1880.17,-250 1740.17,-250 1740.17,-209 1880.17,-209 1880.17,-250"/>
<text text-anchor="start" x="1748.17" y="-238" font-family="Helvetica,sans-Serif" font-size="10.00">/github/workspace/client</text>
<text text-anchor="start" x="1748.17" y="-227" font-family="Helvetica,sans-Serif" font-size="10.00">/include/system/gameStates</text>
<text text-anchor="middle" x="1810.17" y="-216" font-family="Helvetica,sans-Serif" font-size="10.00">/Example/SMenu_Duck.hpp</text>
</a>
</g>
</g>
<!-- Node4&#45;&gt;Node6 -->
<g id="edge6" class="edge">
<title>Node4&#45;&gt;Node6</title>
<path fill="none" stroke="#63b8ff" d="M1676.07,-281.55C1702.36,-271.54 1732.57,-260.04 1757.65,-250.49"/>
<polygon fill="#63b8ff" stroke="#63b8ff" points="1674.96,-278.23 1666.86,-285.06 1677.45,-284.77 1674.96,-278.23"/>
</g>
<!-- Node7 -->
<g id="node7" class="node">
<title>Node7</title>
<g id="a_node7"><a xlink:href="SGamePlay_8hpp.html" target="_top" xlink:title=" ">
<polygon fill="white" stroke="#666666" points="1470.17,-250 1330.17,-250 1330.17,-209 1470.17,-209 1470.17,-250"/>
<text text-anchor="start" x="1338.17" y="-238" font-family="Helvetica,sans-Serif" font-size="10.00">/github/workspace/client</text>
<text text-anchor="start" x="1338.17" y="-227" font-family="Helvetica,sans-Serif" font-size="10.00">/include/system/gameStates</text>
<text text-anchor="middle" x="1400.17" y="-216" font-family="Helvetica,sans-Serif" font-size="10.00">/SGamePlay.hpp</text>
</a>
</g>
</g>
<!-- Node4&#45;&gt;Node7 -->
<g id="edge7" class="edge">
<title>Node4&#45;&gt;Node7</title>
<path fill="none" stroke="#63b8ff" d="M1545.92,-281.82C1517.31,-271.75 1484.31,-260.13 1456.95,-250.49"/>
<polygon fill="#63b8ff" stroke="#63b8ff" points="1544.63,-285.08 1555.22,-285.1 1546.95,-278.47 1544.63,-285.08"/>
</g>
<!-- Node8 -->
<g id="node8" class="node">
<title>Node8</title>
<g id="a_node8"><a xlink:href="States_8hpp.html" target="_top" xlink:title=" ">
<polygon fill="white" stroke="#666666" points="1684.17,-173 1544.17,-173 1544.17,-132 1684.17,-132 1684.17,-173"/>
<text text-anchor="start" x="1552.17" y="-161" font-family="Helvetica,sans-Serif" font-size="10.00">/github/workspace/client</text>
<text text-anchor="start" x="1552.17" y="-150" font-family="Helvetica,sans-Serif" font-size="10.00">/include/system/gameStates</text>
<text text-anchor="middle" x="1614.17" y="-139" font-family="Helvetica,sans-Serif" font-size="10.00">/States.hpp</text>
</a>
</g>
</g>
<!-- Node4&#45;&gt;Node8 -->
<g id="edge15" class="edge">
<title>Node4&#45;&gt;Node8</title>
<path fill="none" stroke="#63b8ff" d="M1639.69,-276.77C1645.61,-268.68 1651.05,-259.49 1654.17,-250 1659.87,-232.69 1659.77,-226.34 1654.17,-209 1649.94,-195.89 1641.33,-183.26 1633.18,-173.38"/>
<polygon fill="#63b8ff" stroke="#63b8ff" points="1637.03,-274.49 1633.58,-284.51 1642.52,-278.83 1637.03,-274.49"/>
</g>
<!-- Node12 -->
<g id="node12" class="node">
<title>Node12</title>
<g id="a_node12"><a xlink:href="SMenu_8hpp.html" target="_top" xlink:title=" ">
<polygon fill="white" stroke="#666666" points="2038.17,-250 1898.17,-250 1898.17,-209 2038.17,-209 2038.17,-250"/>
<text text-anchor="start" x="1906.17" y="-238" font-family="Helvetica,sans-Serif" font-size="10.00">/github/workspace/client</text>
<text text-anchor="start" x="1906.17" y="-227" font-family="Helvetica,sans-Serif" font-size="10.00">/include/system/gameStates</text>
<text text-anchor="middle" x="1968.17" y="-216" font-family="Helvetica,sans-Serif" font-size="10.00">/SMenu.hpp</text>
</a>
</g>
</g>
<!-- Node4&#45;&gt;Node12 -->
<g id="edge13" class="edge">
<title>Node4&#45;&gt;Node12</title>
<path fill="none" stroke="#63b8ff" d="M1694.49,-290.11C1749.57,-279.46 1823.91,-264.61 1889.17,-250 1892.06,-249.35 1895.02,-248.68 1898,-247.99"/>
<polygon fill="#63b8ff" stroke="#63b8ff" points="1694.04,-286.64 1684.88,-291.97 1695.36,-293.51 1694.04,-286.64"/>
</g>
<!-- Node13 -->
<g id="node13" class="node">
<title>Node13</title>
<g id="a_node13"><a xlink:href="old__SGamePlay_01copy_8hpp.html" target="_top" xlink:title=" ">
<polygon fill="white" stroke="#666666" points="1312.17,-250 1172.17,-250 1172.17,-209 1312.17,-209 1312.17,-250"/>
<text text-anchor="start" x="1180.17" y="-238" font-family="Helvetica,sans-Serif" font-size="10.00">/github/workspace/client</text>
<text text-anchor="start" x="1180.17" y="-227" font-family="Helvetica,sans-Serif" font-size="10.00">/include/system/gameStates</text>
<text text-anchor="middle" x="1242.17" y="-216" font-family="Helvetica,sans-Serif" font-size="10.00">/old_SGamePlay copy.hpp</text>
</a>
</g>
</g>
<!-- Node4&#45;&gt;Node13 -->
<g id="edge16" class="edge">
<title>Node4&#45;&gt;Node13</title>
<path fill="none" stroke="#63b8ff" d="M1531.68,-291.23C1472.98,-280.66 1391.98,-265.46 1321.17,-250 1318.27,-249.37 1315.32,-248.71 1312.34,-248.03"/>
<polygon fill="#63b8ff" stroke="#63b8ff" points="1530.79,-294.63 1541.25,-292.95 1532.03,-287.74 1530.79,-294.63"/>
</g>
<!-- Node7&#45;&gt;Node8 -->
<g id="edge8" class="edge">
<title>Node7&#45;&gt;Node8</title>
<path fill="none" stroke="#63b8ff" d="M1467.73,-204.82C1496.48,-194.75 1529.63,-183.13 1557.12,-173.49"/>
<polygon fill="#63b8ff" stroke="#63b8ff" points="1466.66,-201.49 1458.38,-208.1 1468.98,-208.09 1466.66,-201.49"/>
</g>
<!-- Node9 -->
<g id="node9" class="node">
<title>Node9</title>
<g id="a_node9"><a xlink:href="GameEngine_8hpp.html" target="_top" xlink:title=" ">
<polygon fill="white" stroke="#666666" points="1743.67,-96 1582.67,-96 1582.67,-66 1743.67,-66 1743.67,-96"/>
<text text-anchor="start" x="1590.67" y="-84" font-family="Helvetica,sans-Serif" font-size="10.00">/github/workspace/client</text>
<text text-anchor="middle" x="1663.17" y="-73" font-family="Helvetica,sans-Serif" font-size="10.00">/include/system/GameEngine.hpp</text>
</a>
</g>
</g>
<!-- Node8&#45;&gt;Node9 -->
<g id="edge9" class="edge">
<title>Node8&#45;&gt;Node9</title>
<path fill="none" stroke="#63b8ff" d="M1634.7,-122.38C1641,-113.44 1647.67,-103.99 1652.96,-96.47"/>
<polygon fill="#63b8ff" stroke="#63b8ff" points="1631.85,-120.34 1628.95,-130.53 1637.58,-124.38 1631.85,-120.34"/>
</g>
<!-- Node9&#45;&gt;Node4 -->
<g id="edge10" class="edge">
<title>Node9&#45;&gt;Node4</title>
<path fill="none" stroke="#63b8ff" d="M1680.92,-105.65C1685.89,-113.61 1690.62,-122.81 1693.17,-132 1698.03,-149.56 1695.7,-154.95 1693.17,-173 1688.23,-208.25 1689.56,-219.53 1671.17,-250 1663.03,-263.48 1650.78,-275.88 1639.63,-285.52"/>
<polygon fill="#63b8ff" stroke="#63b8ff" points="1683.98,-103.93 1675.49,-97.59 1678.17,-107.84 1683.98,-103.93"/>
</g>
<!-- Node10 -->
<g id="node10" class="node">
<title>Node10</title>
<g id="a_node10"><a xlink:href="StateManager_8cpp.html" target="_top" xlink:title=" ">
<polygon fill="white" stroke="#666666" points="2049.17,-30 1927.17,-30 1927.17,0 2049.17,0 2049.17,-30"/>
<text text-anchor="start" x="1935.17" y="-18" font-family="Helvetica,sans-Serif" font-size="10.00">/github/workspace/client</text>
<text text-anchor="middle" x="1988.17" y="-7" font-family="Helvetica,sans-Serif" font-size="10.00">/src/StateManager.cpp</text>
</a>
</g>
</g>
<!-- Node9&#45;&gt;Node10 -->
<g id="edge11" class="edge">
<title>Node9&#45;&gt;Node10</title>
<path fill="none" stroke="#63b8ff" d="M1747.51,-63.39C1803.65,-52.34 1876.14,-38.06 1926.82,-28.08"/>
<polygon fill="#63b8ff" stroke="#63b8ff" points="1747.13,-59.9 1738,-65.26 1748.48,-66.77 1747.13,-59.9"/>
</g>
<!-- Node9&#45;&gt;Node11 -->
<g id="edge12" class="edge">
<title>Node9&#45;&gt;Node11</title>
<path fill="none" stroke="#63b8ff" d="M1571.09,-68.65C1465.6,-55.64 1295.68,-34.68 1205.3,-23.54"/>
<polygon fill="#63b8ff" stroke="#63b8ff" points="1570.51,-72.1 1580.86,-69.85 1571.36,-65.15 1570.51,-72.1"/>
</g>
<!-- Node12&#45;&gt;Node8 -->
<g id="edge14" class="edge">
<title>Node12&#45;&gt;Node8</title>
<path fill="none" stroke="#63b8ff" d="M1886.99,-208.55C1812.36,-191.97 1737.49,-177.07 1684.42,-166.82"/>
<polygon fill="#63b8ff" stroke="#63b8ff" points="1886,-211.92 1896.52,-210.68 1887.52,-205.09 1886,-211.92"/>
</g>
<!-- Node14&#45;&gt;Node15 -->
<g id="edge18" class="edge">
<title>Node14&#45;&gt;Node15</title>
<path fill="none" stroke="#63b8ff" d="M442.15,-358.91C450.89,-346.78 461.25,-332.38 468.79,-321.92"/>
<polygon fill="#63b8ff" stroke="#63b8ff" points="439.47,-356.65 436.47,-366.81 445.15,-360.74 439.47,-356.65"/>
</g>
<!-- Node16&#45;&gt;Node6 -->
<g id="edge20" class="edge">
<title>Node16&#45;&gt;Node6</title>
<path fill="none" stroke="#63b8ff" d="M1872.67,-283.77C1860.28,-273.21 1845.49,-260.6 1833.41,-250.3"/>
<polygon fill="#63b8ff" stroke="#63b8ff" points="1870.17,-286.23 1880.05,-290.06 1874.71,-280.91 1870.17,-286.23"/>
</g>
<!-- Node16&#45;&gt;Node12 -->
<g id="edge21" class="edge">
<title>Node16&#45;&gt;Node12</title>
<path fill="none" stroke="#63b8ff" d="M1919.32,-282.84C1928.99,-272.47 1940.36,-260.3 1949.69,-250.3"/>
<polygon fill="#63b8ff" stroke="#63b8ff" points="1916.96,-280.23 1912.7,-289.93 1922.08,-285.01 1916.96,-280.23"/>
</g>
<!-- Node17&#45;&gt;Node2 -->
<g id="edge23" class="edge">
<title>Node17&#45;&gt;Node2</title>
<path fill="none" stroke="#63b8ff" d="M290.54,-404.2C330.91,-424.68 394.31,-455.7 453.17,-470 587.62,-502.67 1000.69,-514.93 1163.4,-518.64"/>
<polygon fill="#63b8ff" stroke="#63b8ff" points="292.13,-401.08 281.63,-399.67 288.96,-407.32 292.13,-401.08"/>
</g>
<!-- Node17&#45;&gt;Node15 -->
<g id="edge24" class="edge">
<title>Node17&#45;&gt;Node15</title>
<path fill="none" stroke="#63b8ff" d="M304.42,-364.48C344.42,-351.44 397.77,-334.04 434.96,-321.92"/>
<polygon fill="#63b8ff" stroke="#63b8ff" points="303.38,-361.14 294.96,-367.57 305.55,-367.8 303.38,-361.14"/>
</g>
<!-- Node18 -->
<g id="node18" class="node">
<title>Node18</title>
<g id="a_node18"><a xlink:href="Bullets_8cpp.html" target="_top" xlink:title=" ">
<polygon fill="white" stroke="#666666" points="310.17,-321.5 188.17,-321.5 188.17,-291.5 310.17,-291.5 310.17,-321.5"/>
<text text-anchor="start" x="196.17" y="-309.5" font-family="Helvetica,sans-Serif" font-size="10.00">/github/workspace/client</text>
<text text-anchor="middle" x="249.17" y="-298.5" font-family="Helvetica,sans-Serif" font-size="10.00">/src/Bullets.cpp</text>
</a>
</g>
</g>
<!-- Node17&#45;&gt;Node18 -->
<g id="edge25" class="edge">
<title>Node17&#45;&gt;Node18</title>
<path fill="none" stroke="#63b8ff" d="M249.17,-356.73C249.17,-345.08 249.17,-331.76 249.17,-321.92"/>
<polygon fill="#63b8ff" stroke="#63b8ff" points="245.67,-356.53 249.17,-366.53 252.67,-356.53 245.67,-356.53"/>
</g>
<!-- Node19&#45;&gt;Node4 -->
<g id="edge27" class="edge">
<title>Node19&#45;&gt;Node4</title>
<path fill="none" stroke="#63b8ff" d="M1338.59,-365.67C1399.85,-352.69 1483.81,-334.91 1542.7,-322.43"/>
<polygon fill="#63b8ff" stroke="#63b8ff" points="1337.96,-362.23 1328.91,-367.73 1339.41,-369.08 1337.96,-362.23"/>
</g>
<!-- Node20&#45;&gt;Node17 -->
<g id="edge29" class="edge">
<title>Node20&#45;&gt;Node17</title>
<path fill="none" stroke="#63b8ff" d="M543.28,-438.7C482.86,-429.5 405.56,-417.06 337.17,-404 329.02,-402.44 320.48,-400.7 312.05,-398.9"/>
<polygon fill="#63b8ff" stroke="#63b8ff" points="542.45,-442.12 552.86,-440.16 543.5,-435.2 542.45,-442.12"/>
</g>
<!-- Node20&#45;&gt;Node19 -->
<g id="edge30" class="edge">
<title>Node20&#45;&gt;Node19</title>
<path fill="none" stroke="#63b8ff" d="M753.19,-442.05C871.58,-428.59 1061.88,-406.94 1172.25,-394.39"/>
<polygon fill="#63b8ff" stroke="#63b8ff" points="753.01,-438.55 743.47,-443.16 753.8,-445.51 753.01,-438.55"/>
</g>
<!-- Node20&#45;&gt;Node21 -->
<g id="edge31" class="edge">
<title>Node20&#45;&gt;Node21</title>
<path fill="none" stroke="#63b8ff" d="M687.23,-434.61C710.05,-423.28 738.37,-409.22 759.2,-398.88"/>
<polygon fill="#63b8ff" stroke="#63b8ff" points="685.93,-431.35 678.53,-438.93 689.05,-437.61 685.93,-431.35"/>
</g>
<!-- Node20&#45;&gt;Node23 -->
<g id="edge36" class="edge">
<title>Node20&#45;&gt;Node23</title>
<path fill="none" stroke="#63b8ff" d="M638.42,-428.91C635.29,-420.86 631.87,-412.05 628.91,-404.42"/>
<polygon fill="#63b8ff" stroke="#63b8ff" points="635.14,-430.13 642.03,-438.19 641.67,-427.6 635.14,-430.13"/>
</g>
<!-- Node21&#45;&gt;Node2 -->
<g id="edge32" class="edge">
<title>Node21&#45;&gt;Node2</title>
<path fill="none" stroke="#63b8ff" d="M793.89,-410.09C795.84,-429.44 799.71,-455.13 816.17,-470 841.65,-493.03 1052.85,-508.96 1163.41,-515.97"/>
<polygon fill="#63b8ff" stroke="#63b8ff" points="797.39,-409.87 792.95,-400.25 790.42,-410.54 797.39,-409.87"/>
</g>
<!-- Node21&#45;&gt;Node4 -->
<g id="edge34" class="edge">
<title>Node21&#45;&gt;Node4</title>
<path fill="none" stroke="#63b8ff" d="M887.84,-373.44C1056.96,-358.06 1396.01,-327.24 1542.78,-313.9"/>
<polygon fill="#63b8ff" stroke="#63b8ff" points="887.61,-369.95 877.97,-374.34 888.24,-376.92 887.61,-369.95"/>
</g>
<!-- Node21&#45;&gt;Node15 -->
<g id="edge33" class="edge">
<title>Node21&#45;&gt;Node15</title>
<path fill="none" stroke="#63b8ff" d="M717.72,-365.4C663.7,-352.29 589.96,-334.39 538.83,-321.98"/>
<polygon fill="#63b8ff" stroke="#63b8ff" points="716.58,-368.72 727.12,-367.68 718.23,-361.92 716.58,-368.72"/>
</g>
<!-- Node22 -->
<g id="node22" class="node">
<title>Node22</title>
<g id="a_node22"><a xlink:href="EntitiesManager_8cpp.html" target="_top" xlink:title=" ">
<polygon fill="white" stroke="#666666" points="850.17,-321.5 726.17,-321.5 726.17,-291.5 850.17,-291.5 850.17,-321.5"/>
<text text-anchor="start" x="734.17" y="-309.5" font-family="Helvetica,sans-Serif" font-size="10.00">/github/workspace/client</text>
<text text-anchor="middle" x="788.17" y="-298.5" font-family="Helvetica,sans-Serif" font-size="10.00">/src/EntitiesManager.cpp</text>
</a>
</g>
</g>
<!-- Node21&#45;&gt;Node22 -->
<g id="edge35" class="edge">
<title>Node21&#45;&gt;Node22</title>
<path fill="none" stroke="#63b8ff" d="M788.17,-356.73C788.17,-345.08 788.17,-331.76 788.17,-321.92"/>
<polygon fill="#63b8ff" stroke="#63b8ff" points="784.67,-356.53 788.17,-366.53 791.67,-356.53 784.67,-356.53"/>
</g>
<!-- Node27 -->
<g id="node27" class="node">
<title>Node27</title>
<g id="a_node27"><a xlink:href="Destroy_8cpp.html" target="_top" xlink:title=" ">
<polygon fill="white" stroke="#666666" points="1486.17,-398.5 1364.17,-398.5 1364.17,-368.5 1486.17,-368.5 1486.17,-398.5"/>
<text text-anchor="start" x="1372.17" y="-386.5" font-family="Helvetica,sans-Serif" font-size="10.00">/github/workspace/client</text>
<text text-anchor="middle" x="1425.17" y="-375.5" font-family="Helvetica,sans-Serif" font-size="10.00">/src/Destroy.cpp</text>
</a>
</g>
</g>
<!-- Node26&#45;&gt;Node27 -->
<g id="edge40" class="edge">
<title>Node26&#45;&gt;Node27</title>
<path fill="none" stroke="#63b8ff" d="M1319.58,-434.76C1343.44,-423.41 1373.14,-409.27 1394.96,-398.88"/>
<polygon fill="#63b8ff" stroke="#63b8ff" points="1318.31,-431.49 1310.79,-438.95 1321.32,-437.81 1318.31,-431.49"/>
</g>
<!-- Node29 -->
<g id="node29" class="node">
<title>Node29</title>
<g id="a_node29"><a xlink:href="Draw_8cpp.html" target="_top" xlink:title=" ">
<polygon fill="white" stroke="#666666" points="1630.17,-398.5 1508.17,-398.5 1508.17,-368.5 1630.17,-368.5 1630.17,-398.5"/>
<text text-anchor="start" x="1516.17" y="-386.5" font-family="Helvetica,sans-Serif" font-size="10.00">/github/workspace/client</text>
<text text-anchor="middle" x="1569.17" y="-375.5" font-family="Helvetica,sans-Serif" font-size="10.00">/src/Draw.cpp</text>
</a>
</g>
</g>
<!-- Node28&#45;&gt;Node29 -->
<g id="edge42" class="edge">
<title>Node28&#45;&gt;Node29</title>
<path fill="none" stroke="#63b8ff" d="M1569.17,-428.26C1569.17,-418.33 1569.17,-407.36 1569.17,-398.88"/>
<polygon fill="#63b8ff" stroke="#63b8ff" points="1565.67,-428.09 1569.17,-438.09 1572.67,-428.09 1565.67,-428.09"/>
</g>
<!-- Node30&#45;&gt;Node11 -->
<g id="edge45" class="edge">
<title>Node30&#45;&gt;Node11</title>
<path fill="none" stroke="#63b8ff" d="M50.88,-433.58C39.36,-425.79 27.82,-415.87 20.17,-404 -3.51,-367.26 1.17,-351.21 1.17,-307.5 1.17,-307.5 1.17,-307.5 1.17,-151.5 1.17,-41.6 845.3,-20.52 1082.72,-16.76"/>
<polygon fill="#63b8ff" stroke="#63b8ff" points="48.86,-436.44 59.19,-438.82 52.6,-430.52 48.86,-436.44"/>
</g>
<!-- Node31 -->
<g id="node31" class="node">
<title>Node31</title>
<g id="a_node31"><a xlink:href="Error_8cpp.html" target="_top" xlink:title=" ">
<polygon fill="white" stroke="#666666" points="151.17,-398.5 29.17,-398.5 29.17,-368.5 151.17,-368.5 151.17,-398.5"/>
<text text-anchor="start" x="37.17" y="-386.5" font-family="Helvetica,sans-Serif" font-size="10.00">/github/workspace/client</text>
<text text-anchor="middle" x="90.17" y="-375.5" font-family="Helvetica,sans-Serif" font-size="10.00">/src/Error.cpp</text>
</a>
</g>
</g>
<!-- Node30&#45;&gt;Node31 -->
<g id="edge44" class="edge">
<title>Node30&#45;&gt;Node31</title>
<path fill="none" stroke="#63b8ff" d="M90.17,-428.26C90.17,-418.33 90.17,-407.36 90.17,-398.88"/>
<polygon fill="#63b8ff" stroke="#63b8ff" points="86.67,-428.09 90.17,-438.09 93.67,-428.09 86.67,-428.09"/>
</g>
<!-- Node33&#45;&gt;Node10 -->
<g id="edge49" class="edge">
<title>Node33&#45;&gt;Node10</title>
<path fill="none" stroke="#63b8ff" d="M2467.41,-361.19C2433.35,-334.81 2383.17,-286.46 2383.17,-230.5 2383.17,-230.5 2383.17,-230.5 2383.17,-151.5 2383.17,-81.81 2160.4,-40.37 2049.46,-24.06"/>
<polygon fill="#63b8ff" stroke="#63b8ff" points="2465.23,-363.93 2475.33,-367.13 2469.43,-358.33 2465.23,-363.93"/>
</g>
<!-- Node35&#45;&gt;Node2 -->
<g id="edge52" class="edge">
<title>Node35&#45;&gt;Node2</title>
<path fill="none" stroke="#63b8ff" d="M2186.62,-471.19C1851.76,-508.63 1452.93,-517.38 1297.09,-519.4"/>
<polygon fill="#63b8ff" stroke="#63b8ff" points="2186.95,-474.68 2196.5,-470.07 2186.17,-467.72 2186.95,-474.68"/>
</g>
<!-- Node35&#45;&gt;Node33 -->
<g id="edge53" class="edge">
<title>Node35&#45;&gt;Node33</title>
<path fill="none" stroke="#63b8ff" d="M2326.34,-436.2C2364.73,-424.65 2414.12,-409.79 2450.09,-398.97"/>
<polygon fill="#63b8ff" stroke="#63b8ff" points="2325.33,-432.85 2316.76,-439.08 2327.35,-439.55 2325.33,-432.85"/>
</g>
<!-- Node36 -->
<g id="node36" class="node">
<title>Node36</title>
<g id="a_node36"><a xlink:href="Window_8cpp.html" target="_top" xlink:title=" ">
<polygon fill="white" stroke="#666666" points="2398.17,-398.5 2276.17,-398.5 2276.17,-368.5 2398.17,-368.5 2398.17,-398.5"/>
<text text-anchor="start" x="2284.17" y="-386.5" font-family="Helvetica,sans-Serif" font-size="10.00">/github/workspace/client</text>
<text text-anchor="middle" x="2337.17" y="-375.5" font-family="Helvetica,sans-Serif" font-size="10.00">/src/Window.cpp</text>
</a>
</g>
</g>
<!-- Node35&#45;&gt;Node36 -->
<g id="edge54" class="edge">
<title>Node35&#45;&gt;Node36</title>
<path fill="none" stroke="#63b8ff" d="M2289.53,-431.8C2300.38,-421.02 2313.12,-408.38 2322.68,-398.88"/>
<polygon fill="#63b8ff" stroke="#63b8ff" points="2287.38,-429 2282.75,-438.53 2292.31,-433.97 2287.38,-429"/>
</g>
<!-- Node38 -->
<g id="node38" class="node">
<title>Node38</title>
<g id="a_node38"><a xlink:href="Enemy_8hpp.html" target="_top" xlink:title=" ">
<polygon fill="white" stroke="#666666" points="2084.17,-398.5 1926.17,-398.5 1926.17,-368.5 2084.17,-368.5 2084.17,-398.5"/>
<text text-anchor="start" x="1934.17" y="-386.5" font-family="Helvetica,sans-Serif" font-size="10.00">/github/workspace/client</text>
<text text-anchor="middle" x="2005.17" y="-375.5" font-family="Helvetica,sans-Serif" font-size="10.00">/include/Components/Enemy.hpp</text>
</a>
</g>
</g>
<!-- Node37&#45;&gt;Node38 -->
<g id="edge57" class="edge">
<title>Node37&#45;&gt;Node38</title>
<path fill="none" stroke="#63b8ff" d="M2074.34,-433.06C2058.62,-422.02 2039.72,-408.76 2025.66,-398.88"/>
<polygon fill="#63b8ff" stroke="#63b8ff" points="2072.22,-435.85 2082.42,-438.73 2076.24,-430.12 2072.22,-435.85"/>
</g>
<!-- Node39 -->
<g id="node39" class="node">
<title>Node39</title>
<g id="a_node39"><a xlink:href="Player_8hpp.html" target="_top" xlink:title=" ">
<polygon fill="white" stroke="#666666" points="2258.17,-398.5 2102.17,-398.5 2102.17,-368.5 2258.17,-368.5 2258.17,-398.5"/>
<text text-anchor="start" x="2110.17" y="-386.5" font-family="Helvetica,sans-Serif" font-size="10.00">/github/workspace/client</text>
<text text-anchor="middle" x="2180.17" y="-375.5" font-family="Helvetica,sans-Serif" font-size="10.00">/include/Components/Player.hpp</text>
</a>
</g>
</g>
<!-- Node37&#45;&gt;Node39 -->
<g id="edge58" class="edge">
<title>Node37&#45;&gt;Node39</title>
<path fill="none" stroke="#63b8ff" d="M2128.1,-432.12C2139.96,-421.27 2153.95,-408.48 2164.44,-398.88"/>
<polygon fill="#63b8ff" stroke="#63b8ff" points="2126.05,-429.25 2121.03,-438.58 2130.78,-434.41 2126.05,-429.25"/>
</g>
<!-- Node40 -->
<g id="node40" class="node">
<title>Node40</title>
<g id="a_node40"><a xlink:href="Player_8cpp.html" target="_top" xlink:title=" ">
<polygon fill="white" stroke="#666666" points="2241.17,-321.5 2119.17,-321.5 2119.17,-291.5 2241.17,-291.5 2241.17,-321.5"/>
<text text-anchor="start" x="2127.17" y="-309.5" font-family="Helvetica,sans-Serif" font-size="10.00">/github/workspace/client</text>
<text text-anchor="middle" x="2180.17" y="-298.5" font-family="Helvetica,sans-Serif" font-size="10.00">/src/Player.cpp</text>
</a>
</g>
</g>
<!-- Node39&#45;&gt;Node40 -->
<g id="edge59" class="edge">
<title>Node39&#45;&gt;Node40</title>
<path fill="none" stroke="#63b8ff" d="M2180.17,-356.73C2180.17,-345.08 2180.17,-331.76 2180.17,-321.92"/>
<polygon fill="#63b8ff" stroke="#63b8ff" points="2176.67,-356.53 2180.17,-366.53 2183.67,-356.53 2176.67,-356.53"/>
</g>
</g>
</svg>
