<?xml version="1.0" encoding="UTF-8" standalone="no"?>
<!DOCTYPE svg PUBLIC "-//W3C//DTD SVG 1.1//EN"
 "http://www.w3.org/Graphics/SVG/1.1/DTD/svg11.dtd">
<!-- Generated by graphviz version 7.0.5 (20221223.1930)
 -->
<!-- Title: /github/workspace/client/src/Event.cpp Pages: 1 -->
<!--zoomable 203 -->
<svg id="main" version="1.1" xmlns="http://www.w3.org/2000/svg" xmlns:xlink="http://www.w3.org/1999/xlink" xml:space="preserve" onload="init(evt)">
<style type="text/css"><![CDATA[
.edge:hover path { stroke: red; }
.edge:hover polygon { stroke: red; fill: red; }
]]></style>
<script type="text/javascript"><![CDATA[
var edges = document.getElementsByTagName('g');
if (edges && edges.length) {
  for (var i=0;i<edges.length;i++) {
    if (edges[i].id.substr(0,4)=='edge') {
      edges[i].setAttribute('class','edge');
    }
  }
}
]]></script>
        <defs>
                <circle id="rim" cx="0" cy="0" r="7"/>
                <circle id="rim2" cx="0" cy="0" r="3.5"/>
                <g id="zoomPlus">
                        <use xlink:href="#rim" fill="#404040">
                                <set attributeName="fill" to="#808080" begin="zoomplus.mouseover" end="zoomplus.mouseout"/>
                        </use>
                        <path d="M-4,0h8M0,-4v8" fill="none" stroke="white" stroke-width="1.5" pointer-events="none"/>
                </g>
                <g id="zoomMin">
                        <use xlink:href="#rim" fill="#404040">
                                <set attributeName="fill" to="#808080" begin="zoomminus.mouseover" end="zoomminus.mouseout"/>
                        </use>
                        <path d="M-4,0h8" fill="none" stroke="white" stroke-width="1.5" pointer-events="none"/>
                </g>
                <g id="dirArrow">
                        <path fill="none" stroke="white" stroke-width="1.5" d="M0,-3.0v7 M-2.5,-0.5L0,-3.0L2.5,-0.5"/>
                </g>
               <g id="resetDef">
                       <use xlink:href="#rim2" fill="#404040">
                               <set attributeName="fill" to="#808080" begin="reset.mouseover" end="reset.mouseout"/>
                       </use>
               </g>
        </defs>

<script type="text/javascript">
var viewWidth = 1940;
var viewHeight = 203;
var sectionId = 'dynsection-0';
</script>
<script xlink:href="svgpan.js"/>
<svg id="graph" class="graph">
<g id="viewport">
<title>/github/workspace/client/src/Event.cpp</title>
<!-- Node1 -->
<g id="node1" class="node">
<title>Node1</title>
<g id="a_node1"><a xlink:title=" ">
<polygon fill="#999999" stroke="#666666" points="1256,-195 1134,-195 1134,-165 1256,-165 1256,-195"/>
<text text-anchor="start" x="1142" y="-183" font-family="Helvetica,sans-Serif" font-size="10.00">/github/workspace/client</text>
<text text-anchor="middle" x="1195" y="-172" font-family="Helvetica,sans-Serif" font-size="10.00">/src/Event.cpp</text>
</a>
</g>
</g>
<!-- Node2 -->
<g id="node2" class="node">
<title>Node2</title>
<g id="a_node2"><a xlink:href="Engine_8hpp.html" target="_top" xlink:title=" ">
<polygon fill="white" stroke="#666666" points="1205,-129 1109,-129 1109,-110 1205,-110 1205,-129"/>
<text text-anchor="middle" x="1157" y="-117" font-family="Helvetica,sans-Serif" font-size="10.00">Engine/Engine.hpp</text>
</a>
</g>
</g>
<!-- Node1&#45;&gt;Node2 -->
<g id="edge1" class="edge">
<title>Node1&#45;&gt;Node2</title>
<path fill="none" stroke="#63b8ff" d="M1185.61,-164.54C1180.54,-156.74 1174.23,-147.03 1168.83,-138.71"/>
<polygon fill="#63b8ff" stroke="#63b8ff" points="1171.84,-136.92 1163.46,-130.44 1165.97,-140.74 1171.84,-136.92"/>
</g>
<!-- Node19 -->
<g id="node19" class="node">
<title>Node19</title>
<g id="a_node19"><a xlink:href="Event_8hpp.html" target="_top" xlink:title=" ">
<polygon fill="white" stroke="#666666" points="1895,-74 1803,-74 1803,-55 1895,-55 1895,-74"/>
<text text-anchor="middle" x="1849" y="-62" font-family="Helvetica,sans-Serif" font-size="10.00">Engine/Event.hpp</text>
</a>
</g>
</g>
<!-- Node1&#45;&gt;Node19 -->
<g id="edge35" class="edge">
<title>Node1&#45;&gt;Node19</title>
<path fill="none" stroke="#63b8ff" d="M1256.23,-168.37C1382.33,-146.49 1669.4,-96.67 1791.89,-75.41"/>
<polygon fill="#63b8ff" stroke="#63b8ff" points="1792.13,-78.92 1801.38,-73.76 1790.93,-72.03 1792.13,-78.92"/>
</g>
<!-- Node3 -->
<g id="node3" class="node">
<title>Node3</title>
<g id="a_node3"><a xlink:title=" ">
<polygon fill="#e0e0e0" stroke="#999999" points="1644.5,-74 1555.5,-74 1555.5,-55 1644.5,-55 1644.5,-74"/>
<text text-anchor="middle" x="1600" y="-62" font-family="Helvetica,sans-Serif" font-size="10.00">SFML/Audio.hpp</text>
</a>
</g>
</g>
<!-- Node2&#45;&gt;Node3 -->
<g id="edge2" class="edge">
<title>Node2&#45;&gt;Node3</title>
<path fill="none" stroke="#63b8ff" d="M1205.29,-113.64C1276.83,-106.29 1415.44,-91.5 1544.02,-74.21"/>
<polygon fill="#63b8ff" stroke="#63b8ff" points="1544.29,-77.71 1553.73,-72.9 1543.35,-70.77 1544.29,-77.71"/>
</g>
<!-- Node4 -->
<g id="node4" class="node">
<title>Node4</title>
<g id="a_node4"><a xlink:title=" ">
<polygon fill="#e0e0e0" stroke="#999999" points="104,-74 0,-74 0,-55 104,-55 104,-74"/>
<text text-anchor="middle" x="52" y="-62" font-family="Helvetica,sans-Serif" font-size="10.00">SFML/Graphics.hpp</text>
</a>
</g>
</g>
<!-- Node2&#45;&gt;Node4 -->
<g id="edge3" class="edge">
<title>Node2&#45;&gt;Node4</title>
<path fill="none" stroke="#63b8ff" d="M1108.76,-118.09C961.5,-116.48 504.61,-108.89 115.41,-74.12"/>
<polygon fill="#63b8ff" stroke="#63b8ff" points="115.99,-70.66 105.71,-73.25 115.36,-77.63 115.99,-70.66"/>
</g>
<!-- Node5 -->
<g id="node5" class="node">
<title>Node5</title>
<g id="a_node5"><a xlink:title=" ">
<polygon fill="#e0e0e0" stroke="#999999" points="223.5,-74 122.5,-74 122.5,-55 223.5,-55 223.5,-74"/>
<text text-anchor="middle" x="173" y="-62" font-family="Helvetica,sans-Serif" font-size="10.00">SFML/Network.hpp</text>
</a>
</g>
</g>
<!-- Node2&#45;&gt;Node5 -->
<g id="edge4" class="edge">
<title>Node2&#45;&gt;Node5</title>
<path fill="none" stroke="#63b8ff" d="M1108.74,-117.79C972.86,-115.46 575.35,-106.27 235.13,-74.21"/>
<polygon fill="#63b8ff" stroke="#63b8ff" points="235.61,-70.74 225.32,-73.28 234.94,-77.71 235.61,-70.74"/>
</g>
<!-- Node6 -->
<g id="node6" class="node">
<title>Node6</title>
<g id="a_node6"><a xlink:title=" ">
<polygon fill="#e0e0e0" stroke="#999999" points="340.5,-74 241.5,-74 241.5,-55 340.5,-55 340.5,-74"/>
<text text-anchor="middle" x="291" y="-62" font-family="Helvetica,sans-Serif" font-size="10.00">SFML/Window.hpp</text>
</a>
</g>
</g>
<!-- Node2&#45;&gt;Node6 -->
<g id="edge5" class="edge">
<title>Node2&#45;&gt;Node6</title>
<path fill="none" stroke="#63b8ff" d="M1108.68,-117.32C984.82,-113.97 645.69,-102.81 352.16,-74.11"/>
<polygon fill="#63b8ff" stroke="#63b8ff" points="352.66,-70.65 342.36,-73.15 351.97,-77.61 352.66,-70.65"/>
</g>
<!-- Node7 -->
<g id="node7" class="node">
<title>Node7</title>
<g id="a_node7"><a xlink:title=" ">
<polygon fill="#e0e0e0" stroke="#999999" points="457,-74 359,-74 359,-55 457,-55 457,-74"/>
<text text-anchor="middle" x="408" y="-62" font-family="Helvetica,sans-Serif" font-size="10.00">SFML/System.hpp</text>
</a>
</g>
</g>
<!-- Node2&#45;&gt;Node7 -->
<g id="edge6" class="edge">
<title>Node2&#45;&gt;Node7</title>
<path fill="none" stroke="#63b8ff" d="M1108.72,-116.74C997.66,-112.4 715.32,-99.73 468.67,-74.19"/>
<polygon fill="#63b8ff" stroke="#63b8ff" points="469.14,-70.72 458.83,-73.16 468.41,-77.69 469.14,-70.72"/>
</g>
<!-- Node8 -->
<g id="node8" class="node">
<title>Node8</title>
<g id="a_node8"><a xlink:title=" ">
<polygon fill="#e0e0e0" stroke="#999999" points="529,-74 475,-74 475,-55 529,-55 529,-74"/>
<text text-anchor="middle" x="502" y="-62" font-family="Helvetica,sans-Serif" font-size="10.00">iostream</text>
</a>
</g>
</g>
<!-- Node2&#45;&gt;Node8 -->
<g id="edge7" class="edge">
<title>Node2&#45;&gt;Node8</title>
<path fill="none" stroke="#63b8ff" d="M1108.55,-117.65C1005.63,-115.28 757.55,-106.57 540.71,-74.17"/>
<polygon fill="#63b8ff" stroke="#63b8ff" points="541.34,-70.72 530.93,-72.68 540.29,-77.64 541.34,-70.72"/>
</g>
<!-- Node9 -->
<g id="node9" class="node">
<title>Node9</title>
<g id="a_node9"><a xlink:title=" ">
<polygon fill="#e0e0e0" stroke="#999999" points="597,-74 547,-74 547,-55 597,-55 597,-74"/>
<text text-anchor="middle" x="572" y="-62" font-family="Helvetica,sans-Serif" font-size="10.00">fstream</text>
</a>
</g>
</g>
<!-- Node2&#45;&gt;Node9 -->
<g id="edge8" class="edge">
<title>Node2&#45;&gt;Node9</title>
<path fill="none" stroke="#63b8ff" d="M1108.77,-117.27C1014.44,-114.28 798.83,-104.64 608.5,-74.13"/>
<polygon fill="#63b8ff" stroke="#63b8ff" points="609.08,-70.68 598.65,-72.52 607.96,-77.58 609.08,-70.68"/>
</g>
<!-- Node10 -->
<g id="node10" class="node">
<title>Node10</title>
<g id="a_node10"><a xlink:title=" ">
<polygon fill="#e0e0e0" stroke="#999999" points="663,-74 615,-74 615,-55 663,-55 663,-74"/>
<text text-anchor="middle" x="639" y="-62" font-family="Helvetica,sans-Serif" font-size="10.00">string.h</text>
</a>
</g>
</g>
<!-- Node2&#45;&gt;Node10 -->
<g id="edge9" class="edge">
<title>Node2&#45;&gt;Node10</title>
<path fill="none" stroke="#63b8ff" d="M1108.82,-116.64C1023.24,-112.79 839.02,-102 674.71,-74.2"/>
<polygon fill="#63b8ff" stroke="#63b8ff" points="675.35,-70.76 664.9,-72.51 674.17,-77.66 675.35,-70.76"/>
</g>
<!-- Node11 -->
<g id="node11" class="node">
<title>Node11</title>
<g id="a_node11"><a xlink:title=" ">
<polygon fill="#e0e0e0" stroke="#999999" points="731,-74 681,-74 681,-55 731,-55 731,-74"/>
<text text-anchor="middle" x="706" y="-62" font-family="Helvetica,sans-Serif" font-size="10.00">unistd.h</text>
</a>
</g>
</g>
<!-- Node2&#45;&gt;Node11 -->
<g id="edge10" class="edge">
<title>Node2&#45;&gt;Node11</title>
<path fill="none" stroke="#63b8ff" d="M1108.54,-115.52C1032.53,-110.37 880.55,-98.14 742.36,-74.18"/>
<polygon fill="#63b8ff" stroke="#63b8ff" points="743.11,-70.76 732.66,-72.47 741.9,-77.65 743.11,-70.76"/>
</g>
<!-- Node12 -->
<g id="node12" class="node">
<title>Node12</title>
<g id="a_node12"><a xlink:title=" ">
<polygon fill="#e0e0e0" stroke="#999999" points="814.5,-74 749.5,-74 749.5,-55 814.5,-55 814.5,-74"/>
<text text-anchor="middle" x="782" y="-62" font-family="Helvetica,sans-Serif" font-size="10.00">sys/types.h</text>
</a>
</g>
</g>
<!-- Node2&#45;&gt;Node12 -->
<g id="edge11" class="edge">
<title>Node2&#45;&gt;Node12</title>
<path fill="none" stroke="#63b8ff" d="M1108.55,-112.6C1044.46,-104.65 928.05,-89.67 829,-74 828,-73.84 826.98,-73.68 825.96,-73.51"/>
<polygon fill="#63b8ff" stroke="#63b8ff" points="826.77,-70.1 816.33,-71.88 825.61,-77 826.77,-70.1"/>
</g>
<!-- Node13 -->
<g id="node13" class="node">
<title>Node13</title>
<g id="a_node13"><a xlink:title=" ">
<polygon fill="#e0e0e0" stroke="#999999" points="993,-19 949,-19 949,0 993,0 993,-19"/>
<text text-anchor="middle" x="971" y="-7" font-family="Helvetica,sans-Serif" font-size="10.00">vector</text>
</a>
</g>
</g>
<!-- Node2&#45;&gt;Node13 -->
<g id="edge12" class="edge">
<title>Node2&#45;&gt;Node13</title>
<path fill="none" stroke="#63b8ff" d="M1108.72,-118.51C1033.39,-117.38 893.25,-110.32 862,-74 837.05,-45 896.89,-26.01 937.43,-16.88"/>
<polygon fill="#63b8ff" stroke="#63b8ff" points="937.99,-20.33 947.04,-14.82 936.53,-13.49 937.99,-20.33"/>
</g>
<!-- Node14 -->
<g id="node14" class="node">
<title>Node14</title>
<g id="a_node14"><a xlink:title=" ">
<polygon fill="#e0e0e0" stroke="#999999" points="927,-74 871,-74 871,-55 927,-55 927,-74"/>
<text text-anchor="middle" x="899" y="-62" font-family="Helvetica,sans-Serif" font-size="10.00">stdbool.h</text>
</a>
</g>
</g>
<!-- Node2&#45;&gt;Node14 -->
<g id="edge13" class="edge">
<title>Node2&#45;&gt;Node14</title>
<path fill="none" stroke="#63b8ff" d="M1111.44,-109.57C1069.26,-101.23 1004.5,-88.28 938.28,-74.23"/>
<polygon fill="#63b8ff" stroke="#63b8ff" points="939.2,-70.85 928.69,-72.19 937.74,-77.7 939.2,-70.85"/>
</g>
<!-- Node15 -->
<g id="node15" class="node">
<title>Node15</title>
<g id="a_node15"><a xlink:title=" ">
<polygon fill="#e0e0e0" stroke="#999999" points="992.5,-74 945.5,-74 945.5,-55 992.5,-55 992.5,-74"/>
<text text-anchor="middle" x="969" y="-62" font-family="Helvetica,sans-Serif" font-size="10.00">stdlib.h</text>
</a>
</g>
</g>
<!-- Node2&#45;&gt;Node15 -->
<g id="edge14" class="edge">
<title>Node2&#45;&gt;Node15</title>
<path fill="none" stroke="#63b8ff" d="M1125.11,-109.51C1091.51,-100.04 1038.74,-85.16 1004.01,-75.37"/>
<polygon fill="#63b8ff" stroke="#63b8ff" points="1005.01,-72.01 994.43,-72.67 1003.11,-78.75 1005.01,-72.01"/>
</g>
<!-- Node16 -->
<g id="node16" class="node">
<title>Node16</title>
<g id="a_node16"><a xlink:title=" ">
<polygon fill="#e0e0e0" stroke="#999999" points="1069,-74 1011,-74 1011,-55 1069,-55 1069,-74"/>
<text text-anchor="middle" x="1040" y="-62" font-family="Helvetica,sans-Serif" font-size="10.00">exception</text>
</a>
</g>
</g>
<!-- Node2&#45;&gt;Node16 -->
<g id="edge15" class="edge">
<title>Node2&#45;&gt;Node16</title>
<path fill="none" stroke="#63b8ff" d="M1137.15,-109.51C1118.72,-101.16 1091.02,-88.61 1069.91,-79.05"/>
<polygon fill="#63b8ff" stroke="#63b8ff" points="1071.49,-75.92 1060.93,-74.98 1068.6,-82.3 1071.49,-75.92"/>
</g>
<!-- Node17 -->
<g id="node17" class="node">
<title>Node17</title>
<g id="a_node17"><a xlink:href="Window_8hpp.html" target="_top" xlink:title=" ">
<polygon fill="white" stroke="#666666" points="1422.5,-19 1321.5,-19 1321.5,0 1422.5,0 1422.5,-19"/>
<text text-anchor="middle" x="1372" y="-7" font-family="Helvetica,sans-Serif" font-size="10.00">Engine/Window.hpp</text>
</a>
</g>
</g>
<!-- Node2&#45;&gt;Node17 -->
<g id="edge16" class="edge">
<title>Node2&#45;&gt;Node17</title>
<path fill="none" stroke="#63b8ff" d="M1205.28,-118C1244.28,-114.85 1298.33,-104.54 1335,-74 1348.31,-62.91 1355.5,-44.26 1360.84,-30.03"/>
<polygon fill="#63b8ff" stroke="#63b8ff" points="1364.07,-31.38 1364.44,-20.79 1357.55,-28.84 1364.07,-31.38"/>
</g>
<!-- Node18 -->
<g id="node18" class="node">
<title>Node18</title>
<g id="a_node18"><a xlink:href="Draw_8hpp.html" target="_top" xlink:title=" ">
<polygon fill="white" stroke="#666666" points="1334.5,-74 1245.5,-74 1245.5,-55 1334.5,-55 1334.5,-74"/>
<text text-anchor="middle" x="1290" y="-62" font-family="Helvetica,sans-Serif" font-size="10.00">Engine/Draw.hpp</text>
</a>
</g>
</g>
<!-- Node2&#45;&gt;Node18 -->
<g id="edge18" class="edge">
<title>Node2&#45;&gt;Node18</title>
<path fill="none" stroke="#63b8ff" d="M1174.34,-109.51C1194.08,-100.93 1226.51,-87.92 1252.09,-78.27"/>
<polygon fill="#63b8ff" stroke="#63b8ff" points="1253.02,-81.66 1261.16,-74.89 1250.57,-75.1 1253.02,-81.66"/>
</g>
<!-- Node2&#45;&gt;Node19 -->
<g id="edge20" class="edge">
<title>Node2&#45;&gt;Node19</title>
<path fill="none" stroke="#63b8ff" d="M1205.43,-116.28C1311.04,-111.39 1569.34,-98.15 1785,-74 1787.04,-73.77 1789.11,-73.52 1791.21,-73.26"/>
<polygon fill="#63b8ff" stroke="#63b8ff" points="1791.65,-76.73 1801.09,-71.93 1790.71,-69.79 1791.65,-76.73"/>
</g>
<!-- Node23 -->
<g id="node23" class="node">
<title>Node23</title>
<g id="a_node23"><a xlink:href="StateManager_8hpp.html" target="_top" xlink:title=" ">
<polygon fill="white" stroke="#666666" points="1537,-74 1409,-74 1409,-55 1537,-55 1537,-74"/>
<text text-anchor="middle" x="1473" y="-62" font-family="Helvetica,sans-Serif" font-size="10.00">Engine/StateManager.hpp</text>
</a>
</g>
</g>
<!-- Node2&#45;&gt;Node23 -->
<g id="edge25" class="edge">
<title>Node2&#45;&gt;Node23</title>
<path fill="none" stroke="#63b8ff" d="M1205.39,-109.51C1258.14,-100.34 1342.88,-86.11 1402.9,-76.32"/>
<polygon fill="#63b8ff" stroke="#63b8ff" points="1403.38,-79.79 1412.69,-74.73 1402.25,-72.88 1403.38,-79.79"/>
</g>
<!-- Node24 -->
<g id="node24" class="node">
<title>Node24</title>
<g id="a_node24"><a xlink:href="EntitiesManager_8hpp.html" target="_top" xlink:title=" ">
<polygon fill="white" stroke="#666666" points="1227,-74 1087,-74 1087,-55 1227,-55 1227,-74"/>
<text text-anchor="middle" x="1157" y="-62" font-family="Helvetica,sans-Serif" font-size="10.00">Entities/EntitiesManager.hpp</text>
</a>
</g>
</g>
<!-- Node2&#45;&gt;Node24 -->
<g id="edge28" class="edge">
<title>Node2&#45;&gt;Node24</title>
<path fill="none" stroke="#63b8ff" d="M1151.83,-109.75C1150.42,-103.19 1149.96,-93.95 1150.43,-85.6"/>
<polygon fill="#63b8ff" stroke="#63b8ff" points="1153.87,-86.3 1151.61,-75.94 1146.92,-85.45 1153.87,-86.3"/>
</g>
<!-- Node26 -->
<g id="node26" class="node">
<title>Node26</title>
<g id="a_node26"><a xlink:href="Bullets_8hpp.html" target="_top" xlink:title=" ">
<polygon fill="white" stroke="#666666" points="1785,-74 1663,-74 1663,-55 1785,-55 1785,-74"/>
<text text-anchor="middle" x="1724" y="-62" font-family="Helvetica,sans-Serif" font-size="10.00">Components/Bullets.hpp</text>
</a>
</g>
</g>
<!-- Node2&#45;&gt;Node26 -->
<g id="edge32" class="edge">
<title>Node2&#45;&gt;Node26</title>
<path fill="none" stroke="#63b8ff" d="M1205.25,-114.25C1292.96,-106.9 1483.9,-90.99 1645,-74 1647.15,-73.77 1649.33,-73.54 1651.53,-73.3"/>
<polygon fill="#63b8ff" stroke="#63b8ff" points="1651.66,-76.8 1661.21,-72.21 1650.88,-69.85 1651.66,-76.8"/>
</g>
<!-- Node17&#45;&gt;Node2 -->
<g id="edge17" class="edge">
<title>Node17&#45;&gt;Node2</title>
<path fill="none" stroke="#63b8ff" d="M1376.3,-19.38C1377.05,-33.21 1370.03,-59.81 1353,-74 1315.3,-105.4 1259.23,-115.41 1216.61,-118.25"/>
<polygon fill="#63b8ff" stroke="#63b8ff" points="1216.57,-114.74 1206.77,-118.77 1216.94,-121.73 1216.57,-114.74"/>
</g>
<!-- Node18&#45;&gt;Node2 -->
<g id="edge19" class="edge">
<title>Node18&#45;&gt;Node2</title>
<path fill="none" stroke="#63b8ff" d="M1272.96,-74.36C1253.36,-82.89 1220.96,-95.9 1195.3,-105.58"/>
<polygon fill="#63b8ff" stroke="#63b8ff" points="1194.34,-102.21 1186.2,-108.98 1196.79,-108.76 1194.34,-102.21"/>
</g>
<!-- Node19&#45;&gt;Node2 -->
<g id="edge21" class="edge">
<title>Node19&#45;&gt;Node2</title>
<path fill="none" stroke="#63b8ff" d="M1802.67,-74.04C1587.85,-98.08 1330.82,-111.3 1216.6,-116.23"/>
<polygon fill="#63b8ff" stroke="#63b8ff" points="1216.7,-112.72 1206.86,-116.64 1217,-119.71 1216.7,-112.72"/>
</g>
<!-- Node20 -->
<g id="node20" class="node">
<title>Node20</title>
<g id="a_node20"><a xlink:title=" ">
<polygon fill="#e0e0e0" stroke="#999999" points="1931.5,-19 1902.5,-19 1902.5,0 1931.5,0 1931.5,-19"/>
<text text-anchor="middle" x="1917" y="-7" font-family="Helvetica,sans-Serif" font-size="10.00">list</text>
</a>
</g>
</g>
<!-- Node19&#45;&gt;Node20 -->
<g id="edge22" class="edge">
<title>Node19&#45;&gt;Node20</title>
<path fill="none" stroke="#63b8ff" d="M1860.54,-54.51C1870.46,-46.77 1885.01,-35.43 1896.86,-26.2"/>
<polygon fill="#63b8ff" stroke="#63b8ff" points="1898.71,-29.2 1904.44,-20.29 1894.4,-23.68 1898.71,-29.2"/>
</g>
<!-- Node21 -->
<g id="node21" class="node">
<title>Node21</title>
<g id="a_node21"><a xlink:title=" ">
<polygon fill="#e0e0e0" stroke="#999999" points="1803.5,-19 1760.5,-19 1760.5,0 1803.5,0 1803.5,-19"/>
<text text-anchor="middle" x="1782" y="-7" font-family="Helvetica,sans-Serif" font-size="10.00">queue</text>
</a>
</g>
</g>
<!-- Node19&#45;&gt;Node21 -->
<g id="edge23" class="edge">
<title>Node19&#45;&gt;Node21</title>
<path fill="none" stroke="#63b8ff" d="M1837.63,-54.51C1827.95,-46.85 1813.8,-35.66 1802.19,-26.47"/>
<polygon fill="#63b8ff" stroke="#63b8ff" points="1804.4,-23.76 1794.38,-20.3 1800.06,-29.25 1804.4,-23.76"/>
</g>
<!-- Node22 -->
<g id="node22" class="node">
<title>Node22</title>
<g id="a_node22"><a xlink:title=" ">
<polygon fill="#e0e0e0" stroke="#999999" points="1884,-19 1822,-19 1822,0 1884,0 1884,-19"/>
<text text-anchor="middle" x="1853" y="-7" font-family="Helvetica,sans-Serif" font-size="10.00">Skaldi.hpp</text>
</a>
</g>
</g>
<!-- Node19&#45;&gt;Node22 -->
<g id="edge24" class="edge">
<title>Node19&#45;&gt;Node22</title>
<path fill="none" stroke="#63b8ff" d="M1849.66,-54.75C1850.15,-48.27 1850.84,-39.16 1851.46,-30.9"/>
<polygon fill="#63b8ff" stroke="#63b8ff" points="1854.95,-31.19 1852.21,-20.95 1847.97,-30.66 1854.95,-31.19"/>
</g>
<!-- Node23&#45;&gt;Node2 -->
<g id="edge26" class="edge">
<title>Node23&#45;&gt;Node2</title>
<path fill="none" stroke="#63b8ff" d="M1424.77,-74.46C1368.9,-84.18 1277,-99.59 1216.69,-109.37"/>
<polygon fill="#63b8ff" stroke="#63b8ff" points="1216.25,-105.89 1206.93,-110.94 1217.36,-112.81 1216.25,-105.89"/>
</g>
<!-- Node23&#45;&gt;Node17 -->
<g id="edge27" class="edge">
<title>Node23&#45;&gt;Node17</title>
<path fill="none" stroke="#63b8ff" d="M1455.87,-54.51C1440.25,-46.31 1416.92,-34.07 1398.83,-24.58"/>
<polygon fill="#63b8ff" stroke="#63b8ff" points="1400.7,-21.61 1390.22,-20.06 1397.45,-27.81 1400.7,-21.61"/>
</g>
<!-- Node24&#45;&gt;Node2 -->
<g id="edge29" class="edge">
<title>Node24&#45;&gt;Node2</title>
<path fill="none" stroke="#63b8ff" d="M1162.21,-74.44C1163.58,-80.97 1164.04,-90.1 1163.57,-98.35"/>
<polygon fill="#63b8ff" stroke="#63b8ff" points="1160.1,-97.89 1162.35,-108.25 1167.05,-98.75 1160.1,-97.89"/>
</g>
<!-- Node24&#45;&gt;Node13 -->
<g id="edge31" class="edge">
<title>Node24&#45;&gt;Node13</title>
<path fill="none" stroke="#63b8ff" d="M1125.45,-54.51C1091.74,-44.9 1038.53,-29.74 1004.2,-19.96"/>
<polygon fill="#63b8ff" stroke="#63b8ff" points="1005.37,-16.66 994.8,-17.28 1003.45,-23.39 1005.37,-16.66"/>
</g>
<!-- Node25 -->
<g id="node25" class="node">
<title>Node25</title>
<g id="a_node25"><a xlink:title=" ">
<polygon fill="#e0e0e0" stroke="#999999" points="1176,-19 1138,-19 1138,0 1176,0 1176,-19"/>
<text text-anchor="middle" x="1157" y="-7" font-family="Helvetica,sans-Serif" font-size="10.00">array</text>
</a>
</g>
</g>
<!-- Node24&#45;&gt;Node25 -->
<g id="edge30" class="edge">
<title>Node24&#45;&gt;Node25</title>
<path fill="none" stroke="#63b8ff" d="M1157,-54.75C1157,-48.27 1157,-39.16 1157,-30.9"/>
<polygon fill="#63b8ff" stroke="#63b8ff" points="1160.5,-30.96 1157,-20.96 1153.5,-30.96 1160.5,-30.96"/>
</g>
<!-- Node26&#45;&gt;Node2 -->
<g id="edge33" class="edge">
<title>Node26&#45;&gt;Node2</title>
<path fill="none" stroke="#63b8ff" d="M1662.51,-74.05C1501.75,-91 1311.44,-106.86 1216.66,-114.21"/>
<polygon fill="#63b8ff" stroke="#63b8ff" points="1216.52,-110.71 1206.82,-114.97 1217.06,-117.69 1216.52,-110.71"/>
</g>
<!-- Node27 -->
<g id="node27" class="node">
<title>Node27</title>
<g id="a_node27"><a xlink:title=" ">
<polygon fill="#e0e0e0" stroke="#999999" points="1742,-19 1696,-19 1696,0 1742,0 1742,-19"/>
<text text-anchor="middle" x="1719" y="-7" font-family="Helvetica,sans-Serif" font-size="10.00">math.h</text>
</a>
</g>
</g>
<!-- Node26&#45;&gt;Node27 -->
<g id="edge34" class="edge">
<title>Node26&#45;&gt;Node27</title>
<path fill="none" stroke="#63b8ff" d="M1723.17,-54.75C1722.56,-48.27 1721.7,-39.16 1720.92,-30.9"/>
<polygon fill="#63b8ff" stroke="#63b8ff" points="1724.41,-30.58 1719.99,-20.95 1717.44,-31.23 1724.41,-30.58"/>
</g>
</g>
</svg>
        <g id="navigator" transform="translate(0 0)" fill="#404254">
                <rect fill="#f2f5e9" fill-opacity="0.5" stroke="#606060" stroke-width=".5" x="0" y="0" width="60" height="60"/>
                <use id="zoomplus" xlink:href="#zoomPlus" x="17" y="9" onmousedown="handleZoom(evt,'in')"/>
                <use id="zoomminus" xlink:href="#zoomMin" x="42" y="9" onmousedown="handleZoom(evt,'out')"/>
                <use id="reset" xlink:href="#resetDef" x="30" y="36" onmousedown="handleReset()"/>
                <g id="arrowUp" xlink:href="#dirArrow" transform="translate(30 24)" onmousedown="handlePan(0,-1)">
                  <use xlink:href="#rim" fill="#404040">
                        <set attributeName="fill" to="#808080" begin="arrowUp.mouseover" end="arrowUp.mouseout"/>
                  </use>
                  <path fill="none" stroke="white" stroke-width="1.5" d="M0,-3.0v7 M-2.5,-0.5L0,-3.0L2.5,-0.5"/>
                </g>
                <g id="arrowRight" xlink:href="#dirArrow" transform="rotate(90) translate(36 -43)" onmousedown="handlePan(1,0)">
                  <use xlink:href="#rim" fill="#404040">
                        <set attributeName="fill" to="#808080" begin="arrowRight.mouseover" end="arrowRight.mouseout"/>
                  </use>
                  <path fill="none" stroke="white" stroke-width="1.5" d="M0,-3.0v7 M-2.5,-0.5L0,-3.0L2.5,-0.5"/>
                </g>
                <g id="arrowDown" xlink:href="#dirArrow" transform="rotate(180) translate(-30 -48)" onmousedown="handlePan(0,1)">
                  <use xlink:href="#rim" fill="#404040">
                        <set attributeName="fill" to="#808080" begin="arrowDown.mouseover" end="arrowDown.mouseout"/>
                  </use>
                  <path fill="none" stroke="white" stroke-width="1.5" d="M0,-3.0v7 M-2.5,-0.5L0,-3.0L2.5,-0.5"/>
                </g>
                <g id="arrowLeft" xlink:href="#dirArrow" transform="rotate(270) translate(-36 17)" onmousedown="handlePan(-1,0)">
                  <use xlink:href="#rim" fill="#404040">
                        <set attributeName="fill" to="#808080" begin="arrowLeft.mouseover" end="arrowLeft.mouseout"/>
                  </use>
                  <path fill="none" stroke="white" stroke-width="1.5" d="M0,-3.0v7 M-2.5,-0.5L0,-3.0L2.5,-0.5"/>
                </g>
        </g>
        <svg viewBox="0 0 15 15" width="100%" height="30px" preserveAspectRatio="xMaxYMin meet">
         <g id="arrow_out" transform="scale(0.3 0.3)">
          <a xlink:href="Event_8cpp__incl_org.svg" target="_base">
           <rect id="button" ry="5" rx="5" y="6" x="6" height="38" width="38"
                fill="#f2f5e9" fill-opacity="0.5" stroke="#606060" stroke-width="1.0"/>
           <path id="arrow"
             d="M 11.500037,31.436501 C 11.940474,20.09759 22.043105,11.32322 32.158766,21.979434 L 37.068811,17.246167 C 37.068811,17.246167 37.088388,32 37.088388,32 L 22.160133,31.978069 C 22.160133,31.978069 26.997745,27.140456 26.997745,27.140456 C 18.528582,18.264221 13.291696,25.230495 11.500037,31.436501 z"
             style="fill:#404040;"/>
          </a>
         </g>
        </svg>
</svg>
