<?xml version="1.0" encoding="UTF-8" standalone="no"?>
<!DOCTYPE svg PUBLIC "-//W3C//DTD SVG 1.1//EN"
 "http://www.w3.org/Graphics/SVG/1.1/DTD/svg11.dtd">
<!-- Generated by graphviz version 7.0.5 (20221223.1930)
 -->
<!-- Title: /github/workspace/client/include/Engine/Event.hpp Pages: 1 -->
<!--zoomable 313 -->
<svg id="main" version="1.1" xmlns="http://www.w3.org/2000/svg" xmlns:xlink="http://www.w3.org/1999/xlink" xml:space="preserve" onload="init(evt)">
<style type="text/css"><![CDATA[
.edge:hover path { stroke: red; }
.edge:hover polygon { stroke: red; fill: red; }
]]></style>
<script type="text/javascript"><![CDATA[
var edges = document.getElementsByTagName('g');
if (edges && edges.length) {
  for (var i=0;i<edges.length;i++) {
    if (edges[i].id.substr(0,4)=='edge') {
      edges[i].setAttribute('class','edge');
    }
  }
}
]]></script>
        <defs>
                <circle id="rim" cx="0" cy="0" r="7"/>
                <circle id="rim2" cx="0" cy="0" r="3.5"/>
                <g id="zoomPlus">
                        <use xlink:href="#rim" fill="#404040">
                                <set attributeName="fill" to="#808080" begin="zoomplus.mouseover" end="zoomplus.mouseout"/>
                        </use>
                        <path d="M-4,0h8M0,-4v8" fill="none" stroke="white" stroke-width="1.5" pointer-events="none"/>
                </g>
                <g id="zoomMin">
                        <use xlink:href="#rim" fill="#404040">
                                <set attributeName="fill" to="#808080" begin="zoomminus.mouseover" end="zoomminus.mouseout"/>
                        </use>
                        <path d="M-4,0h8" fill="none" stroke="white" stroke-width="1.5" pointer-events="none"/>
                </g>
                <g id="dirArrow">
                        <path fill="none" stroke="white" stroke-width="1.5" d="M0,-3.0v7 M-2.5,-0.5L0,-3.0L2.5,-0.5"/>
                </g>
               <g id="resetDef">
                       <use xlink:href="#rim2" fill="#404040">
                               <set attributeName="fill" to="#808080" begin="reset.mouseover" end="reset.mouseout"/>
                       </use>
               </g>
        </defs>

<script type="text/javascript">
var viewWidth = 1769;
var viewHeight = 313;
var sectionId = 'dynsection-0';
</script>
<script xlink:href="svgpan.js"/>
<svg id="graph" class="graph">
<g id="viewport">
<title>/github/workspace/client/include/Engine/Event.hpp</title>
<!-- Node1 -->
<g id="node1" class="node">
<title>Node1</title>
<g id="a_node1"><a xlink:title=" ">
<polygon fill="#999999" stroke="#666666" points="1060.5,-305 932.5,-305 932.5,-275 1060.5,-275 1060.5,-305"/>
<text text-anchor="start" x="940.5" y="-293" font-family="Helvetica,sans-Serif" font-size="10.00">/github/workspace/client</text>
<text text-anchor="middle" x="996.5" y="-282" font-family="Helvetica,sans-Serif" font-size="10.00">/include/Engine/Event.hpp</text>
</a>
</g>
</g>
<!-- Node2 -->
<g id="node2" class="node">
<title>Node2</title>
<g id="a_node2"><a xlink:href="Engine_8hpp.html" target="_top" xlink:title=" ">
<polygon fill="white" stroke="#666666" points="963.5,-239 867.5,-239 867.5,-220 963.5,-220 963.5,-239"/>
<text text-anchor="middle" x="915.5" y="-227" font-family="Helvetica,sans-Serif" font-size="10.00">Engine/Engine.hpp</text>
</a>
</g>
</g>
<!-- Node1&#45;&gt;Node2 -->
<g id="edge1" class="edge">
<title>Node1&#45;&gt;Node2</title>
<path fill="none" stroke="#63b8ff" d="M970.56,-274.54C957.62,-265.96 942.49,-255.07 931.26,-246.26"/>
<polygon fill="#63b8ff" stroke="#63b8ff" points="933.69,-243.73 923.72,-240.13 929.27,-249.16 933.69,-243.73"/>
</g>
<!-- Node28 -->
<g id="node28" class="node">
<title>Node28</title>
<g id="a_node28"><a xlink:title=" ">
<polygon fill="#e0e0e0" stroke="#999999" points="1011,-239 982,-239 982,-220 1011,-220 1011,-239"/>
<text text-anchor="middle" x="996.5" y="-227" font-family="Helvetica,sans-Serif" font-size="10.00">list</text>
</a>
</g>
</g>
<!-- Node1&#45;&gt;Node28 -->
<g id="edge41" class="edge">
<title>Node1&#45;&gt;Node28</title>
<path fill="none" stroke="#63b8ff" d="M996.5,-274.54C996.5,-267.34 996.5,-258.53 996.5,-250.68"/>
<polygon fill="#63b8ff" stroke="#63b8ff" points="1000,-250.69 996.5,-240.69 993,-250.69 1000,-250.69"/>
</g>
<!-- Node29 -->
<g id="node29" class="node">
<title>Node29</title>
<g id="a_node29"><a xlink:title=" ">
<polygon fill="#e0e0e0" stroke="#999999" points="1072,-239 1029,-239 1029,-220 1072,-220 1072,-239"/>
<text text-anchor="middle" x="1050.5" y="-227" font-family="Helvetica,sans-Serif" font-size="10.00">queue</text>
</a>
</g>
</g>
<!-- Node1&#45;&gt;Node29 -->
<g id="edge42" class="edge">
<title>Node1&#45;&gt;Node29</title>
<path fill="none" stroke="#63b8ff" d="M1009.85,-274.54C1017.37,-266.39 1026.81,-256.16 1034.7,-247.61"/>
<polygon fill="#63b8ff" stroke="#63b8ff" points="1037.25,-250.01 1041.47,-240.29 1032.11,-245.26 1037.25,-250.01"/>
</g>
<!-- Node30 -->
<g id="node30" class="node">
<title>Node30</title>
<g id="a_node30"><a xlink:title=" ">
<polygon fill="#e0e0e0" stroke="#999999" points="1152.5,-239 1090.5,-239 1090.5,-220 1152.5,-220 1152.5,-239"/>
<text text-anchor="middle" x="1121.5" y="-227" font-family="Helvetica,sans-Serif" font-size="10.00">Skaldi.hpp</text>
</a>
</g>
</g>
<!-- Node1&#45;&gt;Node30 -->
<g id="edge43" class="edge">
<title>Node1&#45;&gt;Node30</title>
<path fill="none" stroke="#63b8ff" d="M1027.4,-274.54C1047.19,-265.28 1072.73,-253.33 1092.2,-244.21"/>
<polygon fill="#63b8ff" stroke="#63b8ff" points="1093.65,-247.4 1101.23,-239.99 1090.69,-241.06 1093.65,-247.4"/>
</g>
<!-- Node2&#45;&gt;Node1 -->
<g id="edge18" class="edge">
<title>Node2&#45;&gt;Node1</title>
<path fill="none" stroke="#63b8ff" d="M932.75,-239.35C944.73,-246.85 960.57,-257.92 973.54,-267.71"/>
<polygon fill="#63b8ff" stroke="#63b8ff" points="971.14,-270.28 981.2,-273.61 975.42,-264.73 971.14,-270.28"/>
</g>
<!-- Node3 -->
<g id="node3" class="node">
<title>Node3</title>
<g id="a_node3"><a xlink:title=" ">
<polygon fill="#e0e0e0" stroke="#999999" points="89,-184 0,-184 0,-165 89,-165 89,-184"/>
<text text-anchor="middle" x="44.5" y="-172" font-family="Helvetica,sans-Serif" font-size="10.00">SFML/Audio.hpp</text>
</a>
</g>
</g>
<!-- Node2&#45;&gt;Node3 -->
<g id="edge2" class="edge">
<title>Node2&#45;&gt;Node3</title>
<path fill="none" stroke="#63b8ff" d="M867.02,-227.58C741.95,-224.84 398.03,-214.97 100.69,-184.1"/>
<polygon fill="#63b8ff" stroke="#63b8ff" points="101.06,-180.62 90.75,-183.06 100.33,-187.58 101.06,-180.62"/>
</g>
<!-- Node4 -->
<g id="node4" class="node">
<title>Node4</title>
<g id="a_node4"><a xlink:title=" ">
<polygon fill="#e0e0e0" stroke="#999999" points="211.5,-184 107.5,-184 107.5,-165 211.5,-165 211.5,-184"/>
<text text-anchor="middle" x="159.5" y="-172" font-family="Helvetica,sans-Serif" font-size="10.00">SFML/Graphics.hpp</text>
</a>
</g>
</g>
<!-- Node2&#45;&gt;Node4 -->
<g id="edge3" class="edge">
<title>Node2&#45;&gt;Node4</title>
<path fill="none" stroke="#63b8ff" d="M867.37,-226.65C755.99,-222.12 471.66,-209.02 223.15,-184.19"/>
<polygon fill="#63b8ff" stroke="#63b8ff" points="223.52,-180.71 213.22,-183.19 222.82,-187.67 223.52,-180.71"/>
</g>
<!-- Node5 -->
<g id="node5" class="node">
<title>Node5</title>
<g id="a_node5"><a xlink:title=" ">
<polygon fill="#e0e0e0" stroke="#999999" points="331,-184 230,-184 230,-165 331,-165 331,-184"/>
<text text-anchor="middle" x="280.5" y="-172" font-family="Helvetica,sans-Serif" font-size="10.00">SFML/Network.hpp</text>
</a>
</g>
</g>
<!-- Node2&#45;&gt;Node5 -->
<g id="edge4" class="edge">
<title>Node2&#45;&gt;Node5</title>
<path fill="none" stroke="#63b8ff" d="M867.23,-225.85C769.97,-220.28 543.26,-206.11 342.67,-184.28"/>
<polygon fill="#63b8ff" stroke="#63b8ff" points="343.15,-180.82 332.83,-183.2 342.38,-187.77 343.15,-180.82"/>
</g>
<!-- Node6 -->
<g id="node6" class="node">
<title>Node6</title>
<g id="a_node6"><a xlink:title=" ">
<polygon fill="#e0e0e0" stroke="#999999" points="448,-184 349,-184 349,-165 448,-165 448,-184"/>
<text text-anchor="middle" x="398.5" y="-172" font-family="Helvetica,sans-Serif" font-size="10.00">SFML/Window.hpp</text>
</a>
</g>
</g>
<!-- Node2&#45;&gt;Node6 -->
<g id="edge5" class="edge">
<title>Node2&#45;&gt;Node6</title>
<path fill="none" stroke="#63b8ff" d="M867.28,-224.55C785.68,-217.71 614.86,-202.7 459.53,-184.19"/>
<polygon fill="#63b8ff" stroke="#63b8ff" points="460.22,-180.75 449.87,-183.03 459.39,-187.7 460.22,-180.75"/>
</g>
<!-- Node7 -->
<g id="node7" class="node">
<title>Node7</title>
<g id="a_node7"><a xlink:title=" ">
<polygon fill="#e0e0e0" stroke="#999999" points="564.5,-184 466.5,-184 466.5,-165 564.5,-165 564.5,-184"/>
<text text-anchor="middle" x="515.5" y="-172" font-family="Helvetica,sans-Serif" font-size="10.00">SFML/System.hpp</text>
</a>
</g>
</g>
<!-- Node2&#45;&gt;Node7 -->
<g id="edge6" class="edge">
<title>Node2&#45;&gt;Node7</title>
<path fill="none" stroke="#63b8ff" d="M867.22,-222.17C801.79,-213.58 681.31,-197.72 578.5,-184 577.66,-183.89 576.81,-183.77 575.96,-183.66"/>
<polygon fill="#63b8ff" stroke="#63b8ff" points="576.56,-180.21 566.18,-182.35 575.63,-187.15 576.56,-180.21"/>
</g>
<!-- Node8 -->
<g id="node8" class="node">
<title>Node8</title>
<g id="a_node8"><a xlink:title=" ">
<polygon fill="#e0e0e0" stroke="#999999" points="669.5,-19 615.5,-19 615.5,0 669.5,0 669.5,-19"/>
<text text-anchor="middle" x="642.5" y="-7" font-family="Helvetica,sans-Serif" font-size="10.00">iostream</text>
</a>
</g>
</g>
<!-- Node2&#45;&gt;Node8 -->
<g id="edge7" class="edge">
<title>Node2&#45;&gt;Node8</title>
<path fill="none" stroke="#63b8ff" d="M867.17,-227.93C795.25,-225.95 665.32,-217.67 635.5,-184 597.25,-140.81 620.1,-65.24 634.07,-29.83"/>
<polygon fill="#63b8ff" stroke="#63b8ff" points="637.19,-31.45 637.79,-20.87 630.73,-28.77 637.19,-31.45"/>
</g>
<!-- Node9 -->
<g id="node9" class="node">
<title>Node9</title>
<g id="a_node9"><a xlink:title=" ">
<polygon fill="#e0e0e0" stroke="#999999" points="1044.5,-184 994.5,-184 994.5,-165 1044.5,-165 1044.5,-184"/>
<text text-anchor="middle" x="1019.5" y="-172" font-family="Helvetica,sans-Serif" font-size="10.00">fstream</text>
</a>
</g>
</g>
<!-- Node2&#45;&gt;Node9 -->
<g id="edge8" class="edge">
<title>Node2&#45;&gt;Node9</title>
<path fill="none" stroke="#63b8ff" d="M933.14,-219.51C949.23,-211.31 973.25,-199.07 991.87,-189.58"/>
<polygon fill="#63b8ff" stroke="#63b8ff" points="993.45,-192.7 1000.77,-185.05 990.27,-186.47 993.45,-192.7"/>
</g>
<!-- Node10 -->
<g id="node10" class="node">
<title>Node10</title>
<g id="a_node10"><a xlink:title=" ">
<polygon fill="#e0e0e0" stroke="#999999" points="1110.5,-184 1062.5,-184 1062.5,-165 1110.5,-165 1110.5,-184"/>
<text text-anchor="middle" x="1086.5" y="-172" font-family="Helvetica,sans-Serif" font-size="10.00">string.h</text>
</a>
</g>
</g>
<!-- Node2&#45;&gt;Node10 -->
<g id="edge9" class="edge">
<title>Node2&#45;&gt;Node10</title>
<path fill="none" stroke="#63b8ff" d="M944.51,-219.51C973.96,-210.38 1019.59,-196.24 1051.14,-186.46"/>
<polygon fill="#63b8ff" stroke="#63b8ff" points="1052.11,-189.82 1060.62,-183.52 1050.03,-183.14 1052.11,-189.82"/>
</g>
<!-- Node11 -->
<g id="node11" class="node">
<title>Node11</title>
<g id="a_node11"><a xlink:title=" ">
<polygon fill="#e0e0e0" stroke="#999999" points="1178.5,-184 1128.5,-184 1128.5,-165 1178.5,-165 1178.5,-184"/>
<text text-anchor="middle" x="1153.5" y="-172" font-family="Helvetica,sans-Serif" font-size="10.00">unistd.h</text>
</a>
</g>
</g>
<!-- Node2&#45;&gt;Node11 -->
<g id="edge10" class="edge">
<title>Node2&#45;&gt;Node11</title>
<path fill="none" stroke="#63b8ff" d="M958.57,-219.5C997.57,-211.26 1056.89,-198.51 1117.37,-184.45"/>
<polygon fill="#63b8ff" stroke="#63b8ff" points="1117.85,-187.93 1126.8,-182.24 1116.26,-181.11 1117.85,-187.93"/>
</g>
<!-- Node12 -->
<g id="node12" class="node">
<title>Node12</title>
<g id="a_node12"><a xlink:title=" ">
<polygon fill="#e0e0e0" stroke="#999999" points="1262,-184 1197,-184 1197,-165 1262,-165 1262,-184"/>
<text text-anchor="middle" x="1229.5" y="-172" font-family="Helvetica,sans-Serif" font-size="10.00">sys/types.h</text>
</a>
</g>
</g>
<!-- Node2&#45;&gt;Node12 -->
<g id="edge11" class="edge">
<title>Node2&#45;&gt;Node12</title>
<path fill="none" stroke="#63b8ff" d="M963.75,-221.17C1015.85,-213.12 1101.6,-199.52 1185.26,-184.35"/>
<polygon fill="#63b8ff" stroke="#63b8ff" points="1185.81,-187.81 1195.02,-182.57 1184.55,-180.92 1185.81,-187.81"/>
</g>
<!-- Node13 -->
<g id="node13" class="node">
<title>Node13</title>
<g id="a_node13"><a xlink:title=" ">
<polygon fill="#e0e0e0" stroke="#999999" points="731.5,-19 687.5,-19 687.5,0 731.5,0 731.5,-19"/>
<text text-anchor="middle" x="709.5" y="-7" font-family="Helvetica,sans-Serif" font-size="10.00">vector</text>
</a>
</g>
</g>
<!-- Node2&#45;&gt;Node13 -->
<g id="edge12" class="edge">
<title>Node2&#45;&gt;Node13</title>
<path fill="none" stroke="#63b8ff" d="M867.15,-227.6C798.18,-225.17 676.84,-216.3 649.5,-184 609.4,-136.64 665,-60.96 693.93,-27.44"/>
<polygon fill="#63b8ff" stroke="#63b8ff" points="696.25,-30.09 700.27,-20.29 691.02,-25.44 696.25,-30.09"/>
</g>
<!-- Node14 -->
<g id="node14" class="node">
<title>Node14</title>
<g id="a_node14"><a xlink:title=" ">
<polygon fill="#e0e0e0" stroke="#999999" points="1336.5,-184 1280.5,-184 1280.5,-165 1336.5,-165 1336.5,-184"/>
<text text-anchor="middle" x="1308.5" y="-172" font-family="Helvetica,sans-Serif" font-size="10.00">stdbool.h</text>
</a>
</g>
</g>
<!-- Node2&#45;&gt;Node14 -->
<g id="edge13" class="edge">
<title>Node2&#45;&gt;Node14</title>
<path fill="none" stroke="#63b8ff" d="M963.91,-221.31C967.15,-220.86 970.37,-220.42 973.5,-220 1102.12,-202.81 1138.13,-206.73 1269.01,-184.26"/>
<polygon fill="#63b8ff" stroke="#63b8ff" points="1269.54,-187.73 1278.79,-182.57 1268.34,-180.83 1269.54,-187.73"/>
</g>
<!-- Node15 -->
<g id="node15" class="node">
<title>Node15</title>
<g id="a_node15"><a xlink:title=" ">
<polygon fill="#e0e0e0" stroke="#999999" points="1402,-184 1355,-184 1355,-165 1402,-165 1402,-184"/>
<text text-anchor="middle" x="1378.5" y="-172" font-family="Helvetica,sans-Serif" font-size="10.00">stdlib.h</text>
</a>
</g>
</g>
<!-- Node2&#45;&gt;Node15 -->
<g id="edge14" class="edge">
<title>Node2&#45;&gt;Node15</title>
<path fill="none" stroke="#63b8ff" d="M963.9,-221.23C967.14,-220.79 970.37,-220.38 973.5,-220 1134.85,-200.38 1179.98,-212.27 1343.84,-184"/>
<polygon fill="#63b8ff" stroke="#63b8ff" points="1344.07,-187.51 1353.31,-182.34 1342.86,-180.61 1344.07,-187.51"/>
</g>
<!-- Node16 -->
<g id="node16" class="node">
<title>Node16</title>
<g id="a_node16"><a xlink:title=" ">
<polygon fill="#e0e0e0" stroke="#999999" points="1478.5,-184 1420.5,-184 1420.5,-165 1478.5,-165 1478.5,-184"/>
<text text-anchor="middle" x="1449.5" y="-172" font-family="Helvetica,sans-Serif" font-size="10.00">exception</text>
</a>
</g>
</g>
<!-- Node2&#45;&gt;Node16 -->
<g id="edge15" class="edge">
<title>Node2&#45;&gt;Node16</title>
<path fill="none" stroke="#63b8ff" d="M963.89,-221.17C967.14,-220.75 970.37,-220.36 973.5,-220 1163.87,-198.25 1216.41,-212.81 1408.76,-184.21"/>
<polygon fill="#63b8ff" stroke="#63b8ff" points="1409.26,-187.67 1418.62,-182.72 1408.21,-180.75 1409.26,-187.67"/>
</g>
<!-- Node17 -->
<g id="node17" class="node">
<title>Node17</title>
<g id="a_node17"><a xlink:href="Window_8hpp.html" target="_top" xlink:title=" ">
<polygon fill="white" stroke="#666666" points="1598,-184 1497,-184 1497,-165 1598,-165 1598,-184"/>
<text text-anchor="middle" x="1547.5" y="-172" font-family="Helvetica,sans-Serif" font-size="10.00">Engine/Window.hpp</text>
</a>
</g>
</g>
<!-- Node2&#45;&gt;Node17 -->
<g id="edge16" class="edge">
<title>Node2&#45;&gt;Node17</title>
<path fill="none" stroke="#63b8ff" d="M963.89,-220.07C964.09,-220.04 964.3,-220.02 964.5,-220 1192.18,-195.38 1250.77,-208.08 1478.5,-184 1480.79,-183.76 1483.12,-183.5 1485.49,-183.22"/>
<polygon fill="#63b8ff" stroke="#63b8ff" points="1485.69,-186.72 1495.18,-182.01 1484.82,-179.77 1485.69,-186.72"/>
</g>
<!-- Node18 -->
<g id="node18" class="node">
<title>Node18</title>
<g id="a_node18"><a xlink:href="EntitiesManager_8hpp.html" target="_top" xlink:title=" ">
<polygon fill="white" stroke="#666666" points="798.5,-184 658.5,-184 658.5,-165 798.5,-165 798.5,-184"/>
<text text-anchor="middle" x="728.5" y="-172" font-family="Helvetica,sans-Serif" font-size="10.00">Entities/EntitiesManager.hpp</text>
</a>
</g>
</g>
<!-- Node2&#45;&gt;Node18 -->
<g id="edge19" class="edge">
<title>Node2&#45;&gt;Node18</title>
<path fill="none" stroke="#63b8ff" d="M878.56,-219.51C845.88,-210.76 798.59,-197.42 765.8,-187.71"/>
<polygon fill="#63b8ff" stroke="#63b8ff" points="766.89,-184.39 756.31,-184.88 764.89,-191.09 766.89,-184.39"/>
</g>
<!-- Node25 -->
<g id="node25" class="node">
<title>Node25</title>
<g id="a_node25"><a xlink:href="Bullets_8hpp.html" target="_top" xlink:title=" ">
<polygon fill="white" stroke="#666666" points="976.5,-184 854.5,-184 854.5,-165 976.5,-165 976.5,-184"/>
<text text-anchor="middle" x="915.5" y="-172" font-family="Helvetica,sans-Serif" font-size="10.00">Components/Bullets.hpp</text>
</a>
</g>
</g>
<!-- Node2&#45;&gt;Node25 -->
<g id="edge35" class="edge">
<title>Node2&#45;&gt;Node25</title>
<path fill="none" stroke="#63b8ff" d="M910.33,-219.75C908.92,-213.19 908.46,-203.95 908.93,-195.6"/>
<polygon fill="#63b8ff" stroke="#63b8ff" points="912.37,-196.3 910.11,-185.94 905.42,-195.45 912.37,-196.3"/>
</g>
<!-- Node27 -->
<g id="node27" class="node">
<title>Node27</title>
<g id="a_node27"><a xlink:href="Background_8hpp.html" target="_top" xlink:title=" ">
<polygon fill="white" stroke="#666666" points="1760.5,-184 1616.5,-184 1616.5,-165 1760.5,-165 1760.5,-184"/>
<text text-anchor="middle" x="1688.5" y="-172" font-family="Helvetica,sans-Serif" font-size="10.00">Components/Background.hpp</text>
</a>
</g>
</g>
<!-- Node2&#45;&gt;Node27 -->
<g id="edge39" class="edge">
<title>Node2&#45;&gt;Node27</title>
<path fill="none" stroke="#63b8ff" d="M963.89,-220.06C964.09,-220.04 964.3,-220.02 964.5,-220 1245.29,-191.51 1317.19,-206.73 1598.5,-184 1600.67,-183.82 1602.87,-183.64 1605.09,-183.45"/>
<polygon fill="#63b8ff" stroke="#63b8ff" points="1605.18,-186.95 1614.82,-182.56 1604.55,-179.98 1605.18,-186.95"/>
</g>
<!-- Node17&#45;&gt;Node2 -->
<g id="edge17" class="edge">
<title>Node17&#45;&gt;Node2</title>
<path fill="none" stroke="#63b8ff" d="M1496.17,-184.04C1268.71,-208.06 1210.07,-195.39 982.5,-220 980.17,-220.25 977.79,-220.53 975.38,-220.82"/>
<polygon fill="#63b8ff" stroke="#63b8ff" points="974.93,-217.35 965.46,-222.1 975.83,-224.29 974.93,-217.35"/>
</g>
<!-- Node18&#45;&gt;Node2 -->
<g id="edge20" class="edge">
<title>Node18&#45;&gt;Node2</title>
<path fill="none" stroke="#63b8ff" d="M765.27,-184.45C797.91,-193.18 845.2,-206.52 878.03,-216.24"/>
<polygon fill="#63b8ff" stroke="#63b8ff" points="876.96,-219.57 887.54,-219.08 878.96,-212.86 876.96,-219.57"/>
</g>
<!-- Node19 -->
<g id="node19" class="node">
<title>Node19</title>
<g id="a_node19"><a xlink:href="IComponents_8hpp.html" target="_top" xlink:title=" ">
<polygon fill="white" stroke="#666666" points="960.5,-129 802.5,-129 802.5,-110 960.5,-110 960.5,-129"/>
<text text-anchor="middle" x="881.5" y="-117" font-family="Helvetica,sans-Serif" font-size="10.00">../Components/IComponents.hpp</text>
</a>
</g>
</g>
<!-- Node18&#45;&gt;Node19 -->
<g id="edge21" class="edge">
<title>Node18&#45;&gt;Node19</title>
<path fill="none" stroke="#63b8ff" d="M754.45,-164.51C779.37,-155.88 817.23,-142.76 845.14,-133.1"/>
<polygon fill="#63b8ff" stroke="#63b8ff" points="845.94,-136.52 854.24,-129.94 843.65,-129.91 845.94,-136.52"/>
</g>
<!-- Node20 -->
<g id="node20" class="node">
<title>Node20</title>
<g id="a_node20"><a xlink:href="SparseArray_8hpp.html" target="_top" xlink:title=" ">
<polygon fill="white" stroke="#666666" points="784,-129 673,-129 673,-110 784,-110 784,-129"/>
<text text-anchor="middle" x="728.5" y="-117" font-family="Helvetica,sans-Serif" font-size="10.00">Utils/SparseArray.hpp</text>
</a>
</g>
</g>
<!-- Node18&#45;&gt;Node20 -->
<g id="edge23" class="edge">
<title>Node18&#45;&gt;Node20</title>
<path fill="none" stroke="#63b8ff" d="M728.5,-164.75C728.5,-158.27 728.5,-149.16 728.5,-140.9"/>
<polygon fill="#63b8ff" stroke="#63b8ff" points="732,-140.96 728.5,-130.96 725,-140.96 732,-140.96"/>
</g>
<!-- Node19&#45;&gt;Node2 -->
<g id="edge22" class="edge">
<title>Node19&#45;&gt;Node2</title>
<path fill="none" stroke="#63b8ff" d="M870.49,-129.09C856.29,-141.25 834.64,-164.23 845.5,-184 853.01,-197.68 866.71,-207.75 880.01,-214.82"/>
<polygon fill="#63b8ff" stroke="#63b8ff" points="878.1,-217.79 888.63,-218.99 881.15,-211.48 878.1,-217.79"/>
</g>
<!-- Node20&#45;&gt;Node8 -->
<g id="edge24" class="edge">
<title>Node20&#45;&gt;Node8</title>
<path fill="none" stroke="#63b8ff" d="M721.46,-109.66C707.35,-91.94 675.36,-51.77 656.72,-28.35"/>
<polygon fill="#63b8ff" stroke="#63b8ff" points="659.55,-26.29 650.58,-20.64 654.07,-30.65 659.55,-26.29"/>
</g>
<!-- Node20&#45;&gt;Node13 -->
<g id="edge27" class="edge">
<title>Node20&#45;&gt;Node13</title>
<path fill="none" stroke="#63b8ff" d="M726.95,-109.66C723.93,-92.5 717.2,-54.26 713.04,-30.6"/>
<polygon fill="#63b8ff" stroke="#63b8ff" points="716.52,-30.19 711.34,-20.95 709.62,-31.41 716.52,-30.19"/>
</g>
<!-- Node21 -->
<g id="node21" class="node">
<title>Node21</title>
<g id="a_node21"><a xlink:title=" ">
<polygon fill="#e0e0e0" stroke="#999999" points="811.5,-19 755.5,-19 755.5,0 811.5,0 811.5,-19"/>
<text text-anchor="middle" x="783.5" y="-7" font-family="Helvetica,sans-Serif" font-size="10.00">algorithm</text>
</a>
</g>
</g>
<!-- Node20&#45;&gt;Node21 -->
<g id="edge25" class="edge">
<title>Node20&#45;&gt;Node21</title>
<path fill="none" stroke="#63b8ff" d="M781.23,-109.55C801.74,-103.21 823.22,-92.41 835.5,-74 847.23,-56.42 827.91,-37.89 809.58,-25.42"/>
<polygon fill="#63b8ff" stroke="#63b8ff" points="811.57,-22.54 801.26,-20.13 807.82,-28.45 811.57,-22.54"/>
</g>
<!-- Node22 -->
<g id="node22" class="node">
<title>Node22</title>
<g id="a_node22"><a xlink:title=" ">
<polygon fill="#e0e0e0" stroke="#999999" points="881.5,-19 843.5,-19 843.5,0 881.5,0 881.5,-19"/>
<text text-anchor="middle" x="862.5" y="-7" font-family="Helvetica,sans-Serif" font-size="10.00">array</text>
</a>
</g>
</g>
<!-- Node20&#45;&gt;Node22 -->
<g id="edge26" class="edge">
<title>Node20&#45;&gt;Node22</title>
<path fill="none" stroke="#63b8ff" d="M784.43,-110.62C808.08,-104.46 833.94,-93.51 850.5,-74 860.62,-62.08 863.28,-44.32 863.6,-30.62"/>
<polygon fill="#63b8ff" stroke="#63b8ff" points="867.1,-30.89 863.41,-20.96 860.11,-31.03 867.1,-30.89"/>
</g>
<!-- Node23 -->
<g id="node23" class="node">
<title>Node23</title>
<g id="a_node23"><a xlink:title=" ">
<polygon fill="#e0e0e0" stroke="#999999" points="946,-19 907,-19 907,0 946,0 946,-19"/>
<text text-anchor="middle" x="926.5" y="-7" font-family="Helvetica,sans-Serif" font-size="10.00">utility</text>
</a>
</g>
</g>
<!-- Node20&#45;&gt;Node23 -->
<g id="edge28" class="edge">
<title>Node20&#45;&gt;Node23</title>
<path fill="none" stroke="#63b8ff" d="M777.55,-109.52C805.73,-102.81 840.89,-91.66 868.5,-74 887.12,-62.09 903.6,-42.71 914.19,-28.49"/>
<polygon fill="#63b8ff" stroke="#63b8ff" points="916.97,-30.63 919.93,-20.46 911.27,-26.57 916.97,-30.63"/>
</g>
<!-- Node24 -->
<g id="node24" class="node">
<title>Node24</title>
<g id="a_node24"><a xlink:href="Vectors_8hpp.html" target="_top" xlink:title=" ">
<polygon fill="white" stroke="#666666" points="826.5,-74 734.5,-74 734.5,-55 826.5,-55 826.5,-74"/>
<text text-anchor="middle" x="780.5" y="-62" font-family="Helvetica,sans-Serif" font-size="10.00">Utils/Vectors.hpp</text>
</a>
</g>
</g>
<!-- Node20&#45;&gt;Node24 -->
<g id="edge29" class="edge">
<title>Node20&#45;&gt;Node24</title>
<path fill="none" stroke="#63b8ff" d="M737.09,-109.75C744.34,-102.35 754.95,-91.54 763.87,-82.45"/>
<polygon fill="#63b8ff" stroke="#63b8ff" points="766.16,-85.11 770.67,-75.52 761.16,-80.21 766.16,-85.11"/>
</g>
<!-- Node24&#45;&gt;Node8 -->
<g id="edge30" class="edge">
<title>Node24&#45;&gt;Node8</title>
<path fill="none" stroke="#63b8ff" d="M757.09,-54.51C734.85,-45.97 701.17,-33.03 676.08,-23.4"/>
<polygon fill="#63b8ff" stroke="#63b8ff" points="677.57,-20.22 666.98,-19.9 675.06,-26.75 677.57,-20.22"/>
</g>
<!-- Node24&#45;&gt;Node13 -->
<g id="edge33" class="edge">
<title>Node24&#45;&gt;Node13</title>
<path fill="none" stroke="#63b8ff" d="M768.46,-54.51C758.09,-46.77 742.9,-35.43 730.53,-26.2"/>
<polygon fill="#63b8ff" stroke="#63b8ff" points="732.69,-23.44 722.58,-20.26 728.5,-29.05 732.69,-23.44"/>
</g>
<!-- Node24&#45;&gt;Node21 -->
<g id="edge31" class="edge">
<title>Node24&#45;&gt;Node21</title>
<path fill="none" stroke="#63b8ff" d="M781,-54.75C781.36,-48.27 781.88,-39.16 782.35,-30.9"/>
<polygon fill="#63b8ff" stroke="#63b8ff" points="785.84,-31.13 782.91,-20.95 778.85,-30.74 785.84,-31.13"/>
</g>
<!-- Node24&#45;&gt;Node22 -->
<g id="edge32" class="edge">
<title>Node24&#45;&gt;Node22</title>
<path fill="none" stroke="#63b8ff" d="M794.41,-54.51C806.74,-46.54 824.97,-34.75 839.47,-25.38"/>
<polygon fill="#63b8ff" stroke="#63b8ff" points="841.03,-28.55 847.52,-20.18 837.23,-22.67 841.03,-28.55"/>
</g>
<!-- Node24&#45;&gt;Node23 -->
<g id="edge34" class="edge">
<title>Node24&#45;&gt;Node23</title>
<path fill="none" stroke="#63b8ff" d="M805.27,-54.51C830.32,-45.41 869.11,-31.33 896.03,-21.56"/>
<polygon fill="#63b8ff" stroke="#63b8ff" points="897.14,-24.88 905.35,-18.18 894.76,-18.3 897.14,-24.88"/>
</g>
<!-- Node25&#45;&gt;Node2 -->
<g id="edge36" class="edge">
<title>Node25&#45;&gt;Node2</title>
<path fill="none" stroke="#63b8ff" d="M920.71,-184.44C922.08,-190.97 922.54,-200.1 922.07,-208.35"/>
<polygon fill="#63b8ff" stroke="#63b8ff" points="918.6,-207.89 920.85,-218.25 925.55,-208.75 918.6,-207.89"/>
</g>
<!-- Node25&#45;&gt;Node19 -->
<g id="edge37" class="edge">
<title>Node25&#45;&gt;Node19</title>
<path fill="none" stroke="#63b8ff" d="M909.89,-164.75C905.38,-157.73 898.91,-147.64 893.29,-138.87"/>
<polygon fill="#63b8ff" stroke="#63b8ff" points="896.4,-137.24 888.05,-130.72 890.51,-141.02 896.4,-137.24"/>
</g>
<!-- Node26 -->
<g id="node26" class="node">
<title>Node26</title>
<g id="a_node26"><a xlink:title=" ">
<polygon fill="#e0e0e0" stroke="#999999" points="1024.5,-129 978.5,-129 978.5,-110 1024.5,-110 1024.5,-129"/>
<text text-anchor="middle" x="1001.5" y="-117" font-family="Helvetica,sans-Serif" font-size="10.00">math.h</text>
</a>
</g>
</g>
<!-- Node25&#45;&gt;Node26 -->
<g id="edge38" class="edge">
<title>Node25&#45;&gt;Node26</title>
<path fill="none" stroke="#63b8ff" d="M930.09,-164.51C943.02,-156.54 962.14,-144.75 977.35,-135.38"/>
<polygon fill="#63b8ff" stroke="#63b8ff" points="979.16,-138.38 985.84,-130.15 975.49,-132.42 979.16,-138.38"/>
</g>
<!-- Node27&#45;&gt;Node2 -->
<g id="edge40" class="edge">
<title>Node27&#45;&gt;Node2</title>
<path fill="none" stroke="#63b8ff" d="M1616.09,-184.03C1335.12,-206.72 1263.15,-191.52 982.5,-220 980.17,-220.24 977.78,-220.5 975.37,-220.78"/>
<polygon fill="#63b8ff" stroke="#63b8ff" points="974.94,-217.31 965.46,-222.03 975.82,-224.25 974.94,-217.31"/>
</g>
</g>
</svg>
        <g id="navigator" transform="translate(0 0)" fill="#404254">
                <rect fill="#f2f5e9" fill-opacity="0.5" stroke="#606060" stroke-width=".5" x="0" y="0" width="60" height="60"/>
                <use id="zoomplus" xlink:href="#zoomPlus" x="17" y="9" onmousedown="handleZoom(evt,'in')"/>
                <use id="zoomminus" xlink:href="#zoomMin" x="42" y="9" onmousedown="handleZoom(evt,'out')"/>
                <use id="reset" xlink:href="#resetDef" x="30" y="36" onmousedown="handleReset()"/>
                <g id="arrowUp" xlink:href="#dirArrow" transform="translate(30 24)" onmousedown="handlePan(0,-1)">
                  <use xlink:href="#rim" fill="#404040">
                        <set attributeName="fill" to="#808080" begin="arrowUp.mouseover" end="arrowUp.mouseout"/>
                  </use>
                  <path fill="none" stroke="white" stroke-width="1.5" d="M0,-3.0v7 M-2.5,-0.5L0,-3.0L2.5,-0.5"/>
                </g>
                <g id="arrowRight" xlink:href="#dirArrow" transform="rotate(90) translate(36 -43)" onmousedown="handlePan(1,0)">
                  <use xlink:href="#rim" fill="#404040">
                        <set attributeName="fill" to="#808080" begin="arrowRight.mouseover" end="arrowRight.mouseout"/>
                  </use>
                  <path fill="none" stroke="white" stroke-width="1.5" d="M0,-3.0v7 M-2.5,-0.5L0,-3.0L2.5,-0.5"/>
                </g>
                <g id="arrowDown" xlink:href="#dirArrow" transform="rotate(180) translate(-30 -48)" onmousedown="handlePan(0,1)">
                  <use xlink:href="#rim" fill="#404040">
                        <set attributeName="fill" to="#808080" begin="arrowDown.mouseover" end="arrowDown.mouseout"/>
                  </use>
                  <path fill="none" stroke="white" stroke-width="1.5" d="M0,-3.0v7 M-2.5,-0.5L0,-3.0L2.5,-0.5"/>
                </g>
                <g id="arrowLeft" xlink:href="#dirArrow" transform="rotate(270) translate(-36 17)" onmousedown="handlePan(-1,0)">
                  <use xlink:href="#rim" fill="#404040">
                        <set attributeName="fill" to="#808080" begin="arrowLeft.mouseover" end="arrowLeft.mouseout"/>
                  </use>
                  <path fill="none" stroke="white" stroke-width="1.5" d="M0,-3.0v7 M-2.5,-0.5L0,-3.0L2.5,-0.5"/>
                </g>
        </g>
        <svg viewBox="0 0 15 15" width="100%" height="30px" preserveAspectRatio="xMaxYMin meet">
         <g id="arrow_out" transform="scale(0.3 0.3)">
          <a xlink:href="Event_8hpp__incl_org.svg" target="_base">
           <rect id="button" ry="5" rx="5" y="6" x="6" height="38" width="38"
                fill="#f2f5e9" fill-opacity="0.5" stroke="#606060" stroke-width="1.0"/>
           <path id="arrow"
             d="M 11.500037,31.436501 C 11.940474,20.09759 22.043105,11.32322 32.158766,21.979434 L 37.068811,17.246167 C 37.068811,17.246167 37.088388,32 37.088388,32 L 22.160133,31.978069 C 22.160133,31.978069 26.997745,27.140456 26.997745,27.140456 C 18.528582,18.264221 13.291696,25.230495 11.500037,31.436501 z"
             style="fill:#404040;"/>
          </a>
         </g>
        </svg>
</svg>
