<?xml version="1.0" encoding="UTF-8" standalone="no"?>
<!DOCTYPE svg PUBLIC "-//W3C//DTD SVG 1.1//EN"
 "http://www.w3.org/Graphics/SVG/1.1/DTD/svg11.dtd">
<!-- Generated by graphviz version 7.0.5 (20221223.1930)
 -->
<!-- Title: /github/workspace/client/include/system/GameEngine.hpp Pages: 1 -->
<!--zoomable 533 -->
<svg id="main" version="1.1" xmlns="http://www.w3.org/2000/svg" xmlns:xlink="http://www.w3.org/1999/xlink" xml:space="preserve" onload="init(evt)">
<style type="text/css"><![CDATA[
.edge:hover path { stroke: red; }
.edge:hover polygon { stroke: red; fill: red; }
]]></style>
<script type="text/javascript"><![CDATA[
var edges = document.getElementsByTagName('g');
if (edges && edges.length) {
  for (var i=0;i<edges.length;i++) {
    if (edges[i].id.substr(0,4)=='edge') {
      edges[i].setAttribute('class','edge');
    }
  }
}
]]></script>
        <defs>
                <circle id="rim" cx="0" cy="0" r="7"/>
                <circle id="rim2" cx="0" cy="0" r="3.5"/>
                <g id="zoomPlus">
                        <use xlink:href="#rim" fill="#404040">
                                <set attributeName="fill" to="#808080" begin="zoomplus.mouseover" end="zoomplus.mouseout"/>
                        </use>
                        <path d="M-4,0h8M0,-4v8" fill="none" stroke="white" stroke-width="1.5" pointer-events="none"/>
                </g>
                <g id="zoomMin">
                        <use xlink:href="#rim" fill="#404040">
                                <set attributeName="fill" to="#808080" begin="zoomminus.mouseover" end="zoomminus.mouseout"/>
                        </use>
                        <path d="M-4,0h8" fill="none" stroke="white" stroke-width="1.5" pointer-events="none"/>
                </g>
                <g id="dirArrow">
                        <path fill="none" stroke="white" stroke-width="1.5" d="M0,-3.0v7 M-2.5,-0.5L0,-3.0L2.5,-0.5"/>
                </g>
               <g id="resetDef">
                       <use xlink:href="#rim2" fill="#404040">
                               <set attributeName="fill" to="#808080" begin="reset.mouseover" end="reset.mouseout"/>
                       </use>
               </g>
        </defs>

<script type="text/javascript">
var viewWidth = 2053;
var viewHeight = 533;
var sectionId = 'dynsection-0';
</script>
<script xlink:href="svgpan.js"/>
<svg id="graph" class="graph">
<g id="viewport">
<title>/github/workspace/client/include/system/GameEngine.hpp</title>
<!-- Node1 -->
<g id="node1" class="node">
<title>Node1</title>
<g id="a_node1"><a xlink:title=" ">
<polygon fill="#999999" stroke="#666666" points="587.5,-525 426.5,-525 426.5,-495 587.5,-495 587.5,-525"/>
<text text-anchor="start" x="434.5" y="-513" font-family="Helvetica,sans-Serif" font-size="10.00">/github/workspace/client</text>
<text text-anchor="middle" x="507" y="-502" font-family="Helvetica,sans-Serif" font-size="10.00">/include/system/GameEngine.hpp</text>
</a>
</g>
</g>
<!-- Node2 -->
<g id="node2" class="node">
<title>Node2</title>
<g id="a_node2"><a xlink:href="States_8hpp.html" target="_top" xlink:title=" ">
<polygon fill="white" stroke="#666666" points="566.5,-459 447.5,-459 447.5,-440 566.5,-440 566.5,-459"/>
<text text-anchor="middle" x="507" y="-447" font-family="Helvetica,sans-Serif" font-size="10.00">gameStates/States.hpp</text>
</a>
</g>
</g>
<!-- Node1&#45;&gt;Node2 -->
<g id="edge1" class="edge">
<title>Node1&#45;&gt;Node2</title>
<path fill="none" stroke="#63b8ff" d="M507,-494.54C507,-487.34 507,-478.53 507,-470.68"/>
<polygon fill="#63b8ff" stroke="#63b8ff" points="510.5,-470.69 507,-460.69 503.5,-470.69 510.5,-470.69"/>
</g>
<!-- Node21 -->
<g id="node21" class="node">
<title>Node21</title>
<g id="a_node21"><a xlink:title=" ">
<polygon fill="#e0e0e0" stroke="#999999" points="97.5,-129 54.5,-129 54.5,-110 97.5,-110 97.5,-129"/>
<text text-anchor="middle" x="76" y="-117" font-family="Helvetica,sans-Serif" font-size="10.00">queue</text>
</a>
</g>
</g>
<!-- Node1&#45;&gt;Node21 -->
<g id="edge70" class="edge">
<title>Node1&#45;&gt;Node21</title>
<path fill="none" stroke="#63b8ff" d="M426.08,-505.71C324.88,-496.66 155.96,-464.07 82,-349 39.52,-282.9 59.16,-182.37 70.24,-140.2"/>
<polygon fill="#63b8ff" stroke="#63b8ff" points="73.56,-141.33 72.86,-130.76 66.81,-139.46 73.56,-141.33"/>
</g>
<!-- Node3 -->
<g id="node3" class="node">
<title>Node3</title>
<g id="a_node3"><a xlink:href="IGameState_8hpp.html" target="_top" xlink:title=" ">
<polygon fill="white" stroke="#666666" points="670.5,-349 583.5,-349 583.5,-330 670.5,-330 670.5,-349"/>
<text text-anchor="middle" x="627" y="-337" font-family="Helvetica,sans-Serif" font-size="10.00">IGameState.hpp</text>
</a>
</g>
</g>
<!-- Node2&#45;&gt;Node3 -->
<g id="edge2" class="edge">
<title>Node2&#45;&gt;Node3</title>
<path fill="none" stroke="#63b8ff" d="M516.82,-439.66C536.86,-421.62 582.75,-380.32 608.54,-357.12"/>
<polygon fill="#63b8ff" stroke="#63b8ff" points="610.83,-359.76 615.92,-350.47 606.14,-354.56 610.83,-359.76"/>
</g>
<!-- Node34 -->
<g id="node34" class="node">
<title>Node34</title>
<g id="a_node34"><a xlink:href="SMenu_8hpp.html" target="_top" xlink:title=" ">
<polygon fill="white" stroke="#666666" points="539.5,-404 474.5,-404 474.5,-385 539.5,-385 539.5,-404"/>
<text text-anchor="middle" x="507" y="-392" font-family="Helvetica,sans-Serif" font-size="10.00">SMenu.hpp</text>
</a>
</g>
</g>
<!-- Node2&#45;&gt;Node34 -->
<g id="edge56" class="edge">
<title>Node2&#45;&gt;Node34</title>
<path fill="none" stroke="#63b8ff" d="M507,-439.75C507,-433.27 507,-424.16 507,-415.9"/>
<polygon fill="#63b8ff" stroke="#63b8ff" points="510.5,-415.96 507,-405.96 503.5,-415.96 510.5,-415.96"/>
</g>
<!-- Node37 -->
<g id="node37" class="node">
<title>Node37</title>
<g id="a_node37"><a xlink:href="SGamePlay_8hpp.html" target="_top" xlink:title=" ">
<polygon fill="white" stroke="#666666" points="256,-404 170,-404 170,-385 256,-385 256,-404"/>
<text text-anchor="middle" x="213" y="-392" font-family="Helvetica,sans-Serif" font-size="10.00">SGamePlay.hpp</text>
</a>
</g>
</g>
<!-- Node2&#45;&gt;Node37 -->
<g id="edge61" class="edge">
<title>Node2&#45;&gt;Node37</title>
<path fill="none" stroke="#63b8ff" d="M457.13,-439.51C404.51,-430.02 321.85,-415.12 267.54,-405.33"/>
<polygon fill="#63b8ff" stroke="#63b8ff" points="268.35,-401.92 257.89,-403.59 267.11,-408.81 268.35,-401.92"/>
</g>
<!-- Node3&#45;&gt;Node1 -->
<g id="edge48" class="edge">
<title>Node3&#45;&gt;Node1</title>
<path fill="none" stroke="#63b8ff" d="M624.82,-349.36C619.34,-370.27 603.36,-423.57 575,-459 565.98,-470.26 553.85,-480.25 542.32,-488.29"/>
<polygon fill="#63b8ff" stroke="#63b8ff" points="540.53,-485.28 534.13,-493.73 544.4,-491.11 540.53,-485.28"/>
</g>
<!-- Node4 -->
<g id="node4" class="node">
<title>Node4</title>
<g id="a_node4"><a xlink:href="EntitiesManager_8hpp.html" target="_top" xlink:title=" ">
<polygon fill="white" stroke="#666666" points="304,-184 164,-184 164,-165 304,-165 304,-184"/>
<text text-anchor="middle" x="234" y="-172" font-family="Helvetica,sans-Serif" font-size="10.00">Entities/EntitiesManager.hpp</text>
</a>
</g>
</g>
<!-- Node3&#45;&gt;Node4 -->
<g id="edge3" class="edge">
<title>Node3&#45;&gt;Node4</title>
<path fill="none" stroke="#63b8ff" d="M625.74,-329.69C623.29,-315.95 616.61,-289.49 600,-275 555.45,-236.16 393.41,-202.86 300.56,-186.44"/>
<polygon fill="#63b8ff" stroke="#63b8ff" points="301.26,-183.01 290.81,-184.73 300.06,-189.9 301.26,-183.01"/>
</g>
<!-- Node25 -->
<g id="node25" class="node">
<title>Node25</title>
<g id="a_node25"><a xlink:href="Background_8hpp.html" target="_top" xlink:title=" ">
<polygon fill="white" stroke="#666666" points="1829,-184 1685,-184 1685,-165 1829,-165 1829,-184"/>
<text text-anchor="middle" x="1757" y="-172" font-family="Helvetica,sans-Serif" font-size="10.00">Components/Background.hpp</text>
</a>
</g>
</g>
<!-- Node3&#45;&gt;Node25 -->
<g id="edge49" class="edge">
<title>Node3&#45;&gt;Node25</title>
<path fill="none" stroke="#63b8ff" d="M670.95,-332.16C842.51,-307.41 1468.22,-217.16 1683.59,-186.09"/>
<polygon fill="#63b8ff" stroke="#63b8ff" points="1683.85,-189.59 1693.25,-184.7 1682.85,-182.66 1683.85,-189.59"/>
</g>
<!-- Node31 -->
<g id="node31" class="node">
<title>Node31</title>
<g id="a_node31"><a xlink:href="String_8hpp.html" target="_top" xlink:title=" ">
<polygon fill="white" stroke="#666666" points="2044.5,-184 1961.5,-184 1961.5,-165 2044.5,-165 2044.5,-184"/>
<text text-anchor="middle" x="2003" y="-172" font-family="Helvetica,sans-Serif" font-size="10.00">Utils/String.hpp</text>
</a>
</g>
</g>
<!-- Node3&#45;&gt;Node31 -->
<g id="edge44" class="edge">
<title>Node3&#45;&gt;Node31</title>
<path fill="none" stroke="#63b8ff" d="M670.95,-338.18C892.28,-336.4 1876.55,-326.68 1932,-294 1968.91,-272.25 1988.88,-223.15 1997.58,-195.46"/>
<polygon fill="#63b8ff" stroke="#63b8ff" points="2000.94,-196.46 2000.38,-185.88 1994.22,-194.5 2000.94,-196.46"/>
</g>
<!-- Node32 -->
<g id="node32" class="node">
<title>Node32</title>
<g id="a_node32"><a xlink:href="Centipede_8hpp.html" target="_top" xlink:title=" ">
<polygon fill="white" stroke="#666666" points="1923,-294 1787,-294 1787,-275 1923,-275 1923,-294"/>
<text text-anchor="middle" x="1855" y="-282" font-family="Helvetica,sans-Serif" font-size="10.00">Components/Centipede.hpp</text>
</a>
</g>
</g>
<!-- Node3&#45;&gt;Node32 -->
<g id="edge50" class="edge">
<title>Node3&#45;&gt;Node32</title>
<path fill="none" stroke="#63b8ff" d="M670.71,-336.61C851.15,-328.83 1539.71,-299.11 1775.36,-288.94"/>
<polygon fill="#63b8ff" stroke="#63b8ff" points="1775.21,-292.45 1785.05,-288.52 1774.91,-285.45 1775.21,-292.45"/>
</g>
<!-- Node5 -->
<g id="node5" class="node">
<title>Node5</title>
<g id="a_node5"><a xlink:href="Engine_8hpp.html" target="_top" xlink:title=" ">
<polygon fill="white" stroke="#666666" points="895,-239 799,-239 799,-220 895,-220 895,-239"/>
<text text-anchor="middle" x="847" y="-227" font-family="Helvetica,sans-Serif" font-size="10.00">Engine/Engine.hpp</text>
</a>
</g>
</g>
<!-- Node4&#45;&gt;Node5 -->
<g id="edge4" class="edge">
<title>Node4&#45;&gt;Node5</title>
<path fill="none" stroke="#63b8ff" d="M304.4,-181.84C312.05,-182.59 319.7,-183.32 327,-184 493.89,-199.46 690.63,-215.41 787.36,-223.36"/>
<polygon fill="#63b8ff" stroke="#63b8ff" points="786.89,-226.83 797.14,-224.16 787.46,-219.85 786.89,-226.83"/>
</g>
<!-- Node23 -->
<g id="node23" class="node">
<title>Node23</title>
<g id="a_node23"><a xlink:href="IComponents_8hpp.html" target="_top" xlink:title=" ">
<polygon fill="white" stroke="#666666" points="599,-129 507,-129 507,-110 599,-110 599,-129"/>
<text text-anchor="middle" x="553" y="-117" font-family="Helvetica,sans-Serif" font-size="10.00">IComponents.hpp</text>
</a>
</g>
</g>
<!-- Node4&#45;&gt;Node23 -->
<g id="edge31" class="edge">
<title>Node4&#45;&gt;Node23</title>
<path fill="none" stroke="#63b8ff" d="M288.11,-164.51C345.69,-154.94 436.43,-139.87 495.33,-130.08"/>
<polygon fill="#63b8ff" stroke="#63b8ff" points="495.88,-133.54 505.17,-128.45 494.74,-126.63 495.88,-133.54"/>
</g>
<!-- Node26 -->
<g id="node26" class="node">
<title>Node26</title>
<g id="a_node26"><a xlink:href="SparseArray_8hpp.html" target="_top" xlink:title=" ">
<polygon fill="white" stroke="#666666" points="284.5,-129 173.5,-129 173.5,-110 284.5,-110 284.5,-129"/>
<text text-anchor="middle" x="229" y="-117" font-family="Helvetica,sans-Serif" font-size="10.00">Utils/SparseArray.hpp</text>
</a>
</g>
</g>
<!-- Node4&#45;&gt;Node26 -->
<g id="edge32" class="edge">
<title>Node4&#45;&gt;Node26</title>
<path fill="none" stroke="#63b8ff" d="M233.17,-164.75C232.56,-158.27 231.7,-149.16 230.92,-140.9"/>
<polygon fill="#63b8ff" stroke="#63b8ff" points="234.41,-140.58 229.99,-130.95 227.44,-141.23 234.41,-140.58"/>
</g>
<!-- Node5&#45;&gt;Node4 -->
<g id="edge23" class="edge">
<title>Node5&#45;&gt;Node4</title>
<path fill="none" stroke="#63b8ff" d="M798.85,-225.11C706.43,-218.13 498.11,-201.41 315.57,-184.6"/>
<polygon fill="#63b8ff" stroke="#63b8ff" points="315.92,-181.12 305.64,-183.68 315.28,-188.09 315.92,-181.12"/>
</g>
<!-- Node6 -->
<g id="node6" class="node">
<title>Node6</title>
<g id="a_node6"><a xlink:title=" ">
<polygon fill="#e0e0e0" stroke="#999999" points="1115.5,-184 1026.5,-184 1026.5,-165 1115.5,-165 1115.5,-184"/>
<text text-anchor="middle" x="1071" y="-172" font-family="Helvetica,sans-Serif" font-size="10.00">SFML/Audio.hpp</text>
</a>
</g>
</g>
<!-- Node5&#45;&gt;Node6 -->
<g id="edge5" class="edge">
<title>Node5&#45;&gt;Node6</title>
<path fill="none" stroke="#63b8ff" d="M885,-219.51C922.76,-210.57 980.85,-196.83 1022.05,-187.08"/>
<polygon fill="#63b8ff" stroke="#63b8ff" points="1022.79,-190.5 1031.72,-184.79 1021.18,-183.69 1022.79,-190.5"/>
</g>
<!-- Node7 -->
<g id="node7" class="node">
<title>Node7</title>
<g id="a_node7"><a xlink:title=" ">
<polygon fill="#e0e0e0" stroke="#999999" points="1238,-184 1134,-184 1134,-165 1238,-165 1238,-184"/>
<text text-anchor="middle" x="1186" y="-172" font-family="Helvetica,sans-Serif" font-size="10.00">SFML/Graphics.hpp</text>
</a>
</g>
</g>
<!-- Node5&#45;&gt;Node7 -->
<g id="edge6" class="edge">
<title>Node5&#45;&gt;Node7</title>
<path fill="none" stroke="#63b8ff" d="M895.21,-220.96C954.91,-211.63 1056.77,-195.7 1122.71,-185.39"/>
<polygon fill="#63b8ff" stroke="#63b8ff" points="1122.95,-188.9 1132.29,-183.9 1121.87,-181.98 1122.95,-188.9"/>
</g>
<!-- Node8 -->
<g id="node8" class="node">
<title>Node8</title>
<g id="a_node8"><a xlink:title=" ">
<polygon fill="#e0e0e0" stroke="#999999" points="1357.5,-184 1256.5,-184 1256.5,-165 1357.5,-165 1357.5,-184"/>
<text text-anchor="middle" x="1307" y="-172" font-family="Helvetica,sans-Serif" font-size="10.00">SFML/Network.hpp</text>
</a>
</g>
</g>
<!-- Node5&#45;&gt;Node8 -->
<g id="edge7" class="edge">
<title>Node5&#45;&gt;Node8</title>
<path fill="none" stroke="#63b8ff" d="M895.39,-223.59C968.6,-216.06 1112.19,-200.88 1245.09,-184.2"/>
<polygon fill="#63b8ff" stroke="#63b8ff" points="1245.29,-187.71 1254.77,-182.98 1244.41,-180.76 1245.29,-187.71"/>
</g>
<!-- Node9 -->
<g id="node9" class="node">
<title>Node9</title>
<g id="a_node9"><a xlink:title=" ">
<polygon fill="#e0e0e0" stroke="#999999" points="1474.5,-184 1375.5,-184 1375.5,-165 1474.5,-165 1474.5,-184"/>
<text text-anchor="middle" x="1425" y="-172" font-family="Helvetica,sans-Serif" font-size="10.00">SFML/Window.hpp</text>
</a>
</g>
</g>
<!-- Node5&#45;&gt;Node9 -->
<g id="edge8" class="edge">
<title>Node5&#45;&gt;Node9</title>
<path fill="none" stroke="#63b8ff" d="M895.49,-225.33C985.63,-219.22 1185.35,-204.69 1363.6,-184.33"/>
<polygon fill="#63b8ff" stroke="#63b8ff" points="1364,-187.81 1373.53,-183.19 1363.2,-180.86 1364,-187.81"/>
</g>
<!-- Node10 -->
<g id="node10" class="node">
<title>Node10</title>
<g id="a_node10"><a xlink:title=" ">
<polygon fill="#e0e0e0" stroke="#999999" points="1591,-184 1493,-184 1493,-165 1591,-165 1591,-184"/>
<text text-anchor="middle" x="1542" y="-172" font-family="Helvetica,sans-Serif" font-size="10.00">SFML/System.hpp</text>
</a>
</g>
</g>
<!-- Node5&#45;&gt;Node10 -->
<g id="edge9" class="edge">
<title>Node5&#45;&gt;Node10</title>
<path fill="none" stroke="#63b8ff" d="M895.46,-226.37C1000.3,-221.49 1256.26,-208.12 1481.3,-184.21"/>
<polygon fill="#63b8ff" stroke="#63b8ff" points="1481.6,-187.7 1491.17,-183.15 1480.85,-180.74 1481.6,-187.7"/>
</g>
<!-- Node11 -->
<g id="node11" class="node">
<title>Node11</title>
<g id="a_node11"><a xlink:title=" ">
<polygon fill="#e0e0e0" stroke="#999999" points="299,-19 245,-19 245,0 299,0 299,-19"/>
<text text-anchor="middle" x="272" y="-7" font-family="Helvetica,sans-Serif" font-size="10.00">iostream</text>
</a>
</g>
</g>
<!-- Node5&#45;&gt;Node11 -->
<g id="edge10" class="edge">
<title>Node5&#45;&gt;Node11</title>
<path fill="none" stroke="#63b8ff" d="M895.35,-227.51C1060.18,-223.9 1591.2,-210.27 1616,-184 1621.8,-177.86 1620.43,-172.19 1616,-165 1587.56,-118.79 1559.27,-124.56 1507,-110 993.88,32.92 839.24,-94.75 312,-19 311.49,-18.93 310.98,-18.85 310.46,-18.77"/>
<polygon fill="#63b8ff" stroke="#63b8ff" points="311.4,-15.38 300.95,-17.1 310.19,-22.28 311.4,-15.38"/>
</g>
<!-- Node12 -->
<g id="node12" class="node">
<title>Node12</title>
<g id="a_node12"><a xlink:title=" ">
<polygon fill="#e0e0e0" stroke="#999999" points="550,-184 500,-184 500,-165 550,-165 550,-184"/>
<text text-anchor="middle" x="525" y="-172" font-family="Helvetica,sans-Serif" font-size="10.00">fstream</text>
</a>
</g>
</g>
<!-- Node5&#45;&gt;Node12 -->
<g id="edge11" class="edge">
<title>Node5&#45;&gt;Node12</title>
<path fill="none" stroke="#63b8ff" d="M798.61,-222.4C743.49,-215.15 650.51,-202 561.33,-184.31"/>
<polygon fill="#63b8ff" stroke="#63b8ff" points="562.17,-180.91 551.68,-182.37 560.79,-187.77 562.17,-180.91"/>
</g>
<!-- Node13 -->
<g id="node13" class="node">
<title>Node13</title>
<g id="a_node13"><a xlink:title=" ">
<polygon fill="#e0e0e0" stroke="#999999" points="145.5,-184 104.5,-184 104.5,-165 145.5,-165 145.5,-184"/>
<text text-anchor="middle" x="125" y="-172" font-family="Helvetica,sans-Serif" font-size="10.00">string</text>
</a>
</g>
</g>
<!-- Node5&#45;&gt;Node13 -->
<g id="edge12" class="edge">
<title>Node5&#45;&gt;Node13</title>
<path fill="none" stroke="#63b8ff" d="M798.77,-228.89C687.23,-229.06 402.86,-225.2 157.15,-183.95"/>
<polygon fill="#63b8ff" stroke="#63b8ff" points="157.79,-180.5 147.34,-182.27 156.61,-187.4 157.79,-180.5"/>
</g>
<!-- Node14 -->
<g id="node14" class="node">
<title>Node14</title>
<g id="a_node14"><a xlink:title=" ">
<polygon fill="#e0e0e0" stroke="#999999" points="618,-184 568,-184 568,-165 618,-165 618,-184"/>
<text text-anchor="middle" x="593" y="-172" font-family="Helvetica,sans-Serif" font-size="10.00">unistd.h</text>
</a>
</g>
</g>
<!-- Node5&#45;&gt;Node14 -->
<g id="edge13" class="edge">
<title>Node5&#45;&gt;Node14</title>
<path fill="none" stroke="#63b8ff" d="M799.66,-219.57C757.46,-211.46 693.74,-198.87 629.39,-184.46"/>
<polygon fill="#63b8ff" stroke="#63b8ff" points="630.22,-181.06 619.7,-182.27 628.68,-187.89 630.22,-181.06"/>
</g>
<!-- Node15 -->
<g id="node15" class="node">
<title>Node15</title>
<g id="a_node15"><a xlink:title=" ">
<polygon fill="#e0e0e0" stroke="#999999" points="701.5,-184 636.5,-184 636.5,-165 701.5,-165 701.5,-184"/>
<text text-anchor="middle" x="669" y="-172" font-family="Helvetica,sans-Serif" font-size="10.00">sys/types.h</text>
</a>
</g>
</g>
<!-- Node5&#45;&gt;Node15 -->
<g id="edge14" class="edge">
<title>Node5&#45;&gt;Node15</title>
<path fill="none" stroke="#63b8ff" d="M816.8,-219.51C787.44,-210.76 742.6,-197.42 710.02,-187.71"/>
<polygon fill="#63b8ff" stroke="#63b8ff" points="711.08,-184.38 700.5,-184.88 709.08,-191.09 711.08,-184.38"/>
</g>
<!-- Node16 -->
<g id="node16" class="node">
<title>Node16</title>
<g id="a_node16"><a xlink:title=" ">
<polygon fill="#e0e0e0" stroke="#999999" points="365,-19 321,-19 321,0 365,0 365,-19"/>
<text text-anchor="middle" x="343" y="-7" font-family="Helvetica,sans-Serif" font-size="10.00">vector</text>
</a>
</g>
</g>
<!-- Node5&#45;&gt;Node16 -->
<g id="edge15" class="edge">
<title>Node5&#45;&gt;Node16</title>
<path fill="none" stroke="#63b8ff" d="M798.57,-227.7C679.81,-225.24 381.57,-215.93 351,-184 311.08,-142.31 326.39,-65.95 336.65,-30.09"/>
<polygon fill="#63b8ff" stroke="#63b8ff" points="339.96,-31.25 339.53,-20.66 333.26,-29.2 339.96,-31.25"/>
</g>
<!-- Node17 -->
<g id="node17" class="node">
<title>Node17</title>
<g id="a_node17"><a xlink:title=" ">
<polygon fill="#e0e0e0" stroke="#999999" points="778,-184 720,-184 720,-165 778,-165 778,-184"/>
<text text-anchor="middle" x="749" y="-172" font-family="Helvetica,sans-Serif" font-size="10.00">exception</text>
</a>
</g>
</g>
<!-- Node5&#45;&gt;Node17 -->
<g id="edge16" class="edge">
<title>Node5&#45;&gt;Node17</title>
<path fill="none" stroke="#63b8ff" d="M830.38,-219.51C815.22,-211.31 792.58,-199.07 775.03,-189.58"/>
<polygon fill="#63b8ff" stroke="#63b8ff" points="777.17,-186.76 766.71,-185.08 773.84,-192.91 777.17,-186.76"/>
</g>
<!-- Node18 -->
<g id="node18" class="node">
<title>Node18</title>
<g id="a_node18"><a xlink:href="Window_8hpp.html" target="_top" xlink:title=" ">
<polygon fill="white" stroke="#666666" points="897.5,-184 796.5,-184 796.5,-165 897.5,-165 897.5,-184"/>
<text text-anchor="middle" x="847" y="-172" font-family="Helvetica,sans-Serif" font-size="10.00">Engine/Window.hpp</text>
</a>
</g>
</g>
<!-- Node5&#45;&gt;Node18 -->
<g id="edge17" class="edge">
<title>Node5&#45;&gt;Node18</title>
<path fill="none" stroke="#63b8ff" d="M841.83,-219.75C840.42,-213.19 839.96,-203.95 840.43,-195.6"/>
<polygon fill="#63b8ff" stroke="#63b8ff" points="843.87,-196.3 841.61,-185.94 836.92,-195.45 843.87,-196.3"/>
</g>
<!-- Node19 -->
<g id="node19" class="node">
<title>Node19</title>
<g id="a_node19"><a xlink:href="Event_8hpp.html" target="_top" xlink:title=" ">
<polygon fill="white" stroke="#666666" points="1008,-184 916,-184 916,-165 1008,-165 1008,-184"/>
<text text-anchor="middle" x="962" y="-172" font-family="Helvetica,sans-Serif" font-size="10.00">Engine/Event.hpp</text>
</a>
</g>
</g>
<!-- Node5&#45;&gt;Node19 -->
<g id="edge19" class="edge">
<title>Node5&#45;&gt;Node19</title>
<path fill="none" stroke="#63b8ff" d="M861.29,-219.51C877.81,-211.08 905.13,-198.38 927.23,-188.79"/>
<polygon fill="#63b8ff" stroke="#63b8ff" points="928.38,-192.1 936.2,-184.95 925.63,-185.66 928.38,-192.1"/>
</g>
<!-- Node22 -->
<g id="node22" class="node">
<title>Node22</title>
<g id="a_node22"><a xlink:href="Bullets_8hpp.html" target="_top" xlink:title=" ">
<polygon fill="white" stroke="#666666" points="482,-184 360,-184 360,-165 482,-165 482,-184"/>
<text text-anchor="middle" x="421" y="-172" font-family="Helvetica,sans-Serif" font-size="10.00">Components/Bullets.hpp</text>
</a>
</g>
</g>
<!-- Node5&#45;&gt;Node22 -->
<g id="edge24" class="edge">
<title>Node5&#45;&gt;Node22</title>
<path fill="none" stroke="#63b8ff" d="M798.71,-223.03C724.14,-214.11 580.73,-196.31 493.63,-185.2"/>
<polygon fill="#63b8ff" stroke="#63b8ff" points="494.11,-181.74 483.75,-183.94 493.23,-188.68 494.11,-181.74"/>
</g>
<!-- Node5&#45;&gt;Node25 -->
<g id="edge29" class="edge">
<title>Node5&#45;&gt;Node25</title>
<path fill="none" stroke="#63b8ff" d="M895.13,-226.47C1021.23,-221.26 1370.95,-206.23 1662,-184 1665.78,-183.71 1669.65,-183.4 1673.57,-183.06"/>
<polygon fill="#63b8ff" stroke="#63b8ff" points="1673.52,-186.58 1683.18,-182.22 1672.91,-179.61 1673.52,-186.58"/>
</g>
<!-- Node18&#45;&gt;Node5 -->
<g id="edge18" class="edge">
<title>Node18&#45;&gt;Node5</title>
<path fill="none" stroke="#63b8ff" d="M852.21,-184.44C853.58,-190.97 854.04,-200.1 853.57,-208.35"/>
<polygon fill="#63b8ff" stroke="#63b8ff" points="850.1,-207.89 852.35,-218.25 857.05,-208.75 850.1,-207.89"/>
</g>
<!-- Node19&#45;&gt;Node5 -->
<g id="edge20" class="edge">
<title>Node19&#45;&gt;Node5</title>
<path fill="none" stroke="#63b8ff" d="M947.97,-184.36C931.56,-192.74 904.28,-205.43 882.12,-215.06"/>
<polygon fill="#63b8ff" stroke="#63b8ff" points="880.93,-211.76 873.12,-218.91 883.69,-218.2 880.93,-211.76"/>
</g>
<!-- Node20 -->
<g id="node20" class="node">
<title>Node20</title>
<g id="a_node20"><a xlink:title=" ">
<polygon fill="#e0e0e0" stroke="#999999" points="1497.5,-129 1468.5,-129 1468.5,-110 1497.5,-110 1497.5,-129"/>
<text text-anchor="middle" x="1483" y="-117" font-family="Helvetica,sans-Serif" font-size="10.00">list</text>
</a>
</g>
</g>
<!-- Node19&#45;&gt;Node20 -->
<g id="edge21" class="edge">
<title>Node19&#45;&gt;Node20</title>
<path fill="none" stroke="#63b8ff" d="M1008.42,-166.25C1011.66,-165.81 1014.88,-165.39 1018,-165 1184.66,-144.39 1385.94,-128.01 1456.79,-122.5"/>
<polygon fill="#63b8ff" stroke="#63b8ff" points="1456.9,-126 1466.6,-121.74 1456.36,-119.02 1456.9,-126"/>
</g>
<!-- Node19&#45;&gt;Node21 -->
<g id="edge22" class="edge">
<title>Node19&#45;&gt;Node21</title>
<path fill="none" stroke="#63b8ff" d="M915.53,-165.97C912.65,-165.61 909.79,-165.28 907,-165 578.07,-131.71 493.74,-152.9 164,-129 145.77,-127.68 125.45,-125.75 108.94,-124.06"/>
<polygon fill="#63b8ff" stroke="#63b8ff" points="109.49,-120.6 99.18,-123.04 108.76,-127.56 109.49,-120.6"/>
</g>
<!-- Node22&#45;&gt;Node5 -->
<g id="edge25" class="edge">
<title>Node22&#45;&gt;Node5</title>
<path fill="none" stroke="#63b8ff" d="M482.23,-182.53C563.8,-192.35 706.98,-210.16 787.6,-220.49"/>
<polygon fill="#63b8ff" stroke="#63b8ff" points="786.69,-223.9 797.05,-221.7 787.58,-216.96 786.69,-223.9"/>
</g>
<!-- Node22&#45;&gt;Node23 -->
<g id="edge26" class="edge">
<title>Node22&#45;&gt;Node23</title>
<path fill="none" stroke="#63b8ff" d="M443.39,-164.51C464.57,-156.01 496.59,-143.15 520.56,-133.53"/>
<polygon fill="#63b8ff" stroke="#63b8ff" points="521.56,-136.9 529.53,-129.92 518.95,-130.4 521.56,-136.9"/>
</g>
<!-- Node24 -->
<g id="node24" class="node">
<title>Node24</title>
<g id="a_node24"><a xlink:title=" ">
<polygon fill="#e0e0e0" stroke="#999999" points="1188,-129 1142,-129 1142,-110 1188,-110 1188,-129"/>
<text text-anchor="middle" x="1165" y="-117" font-family="Helvetica,sans-Serif" font-size="10.00">math.h</text>
</a>
</g>
</g>
<!-- Node22&#45;&gt;Node24 -->
<g id="edge28" class="edge">
<title>Node22&#45;&gt;Node24</title>
<path fill="none" stroke="#63b8ff" d="M482.44,-165.85C485.33,-165.55 488.2,-165.26 491,-165 735.34,-142.12 1030.6,-126.91 1130.25,-122.12"/>
<polygon fill="#63b8ff" stroke="#63b8ff" points="1130.35,-125.62 1140.17,-121.65 1130.01,-118.63 1130.35,-125.62"/>
</g>
<!-- Node23&#45;&gt;Node5 -->
<g id="edge27" class="edge">
<title>Node23&#45;&gt;Node5</title>
<path fill="none" stroke="#63b8ff" d="M599.5,-121.61C800.13,-126.49 1582.44,-146.68 1600,-165 1605.84,-171.1 1605.79,-177.86 1600,-184 1576.33,-209.11 1081.16,-223.04 906.96,-227.18"/>
<polygon fill="#63b8ff" stroke="#63b8ff" points="906.9,-223.68 896.99,-227.41 907.07,-230.67 906.9,-223.68"/>
</g>
<!-- Node25&#45;&gt;Node5 -->
<g id="edge30" class="edge">
<title>Node25&#45;&gt;Node5</title>
<path fill="none" stroke="#63b8ff" d="M1684.53,-183.65C1683.01,-183.77 1681.5,-183.89 1680,-184 1390.94,-206.08 1044.02,-221.06 906.87,-226.37"/>
<polygon fill="#63b8ff" stroke="#63b8ff" points="906.79,-222.87 896.93,-226.75 907.05,-229.86 906.79,-222.87"/>
</g>
<!-- Node26&#45;&gt;Node11 -->
<g id="edge33" class="edge">
<title>Node26&#45;&gt;Node11</title>
<path fill="none" stroke="#63b8ff" d="M232.52,-109.66C239.42,-92.34 254.86,-53.55 264.26,-29.95"/>
<polygon fill="#63b8ff" stroke="#63b8ff" points="267.43,-31.45 267.87,-20.87 260.92,-28.86 267.43,-31.45"/>
</g>
<!-- Node26&#45;&gt;Node16 -->
<g id="edge36" class="edge">
<title>Node26&#45;&gt;Node16</title>
<path fill="none" stroke="#63b8ff" d="M238.33,-109.66C257.37,-91.62 300.96,-50.32 325.46,-27.12"/>
<polygon fill="#63b8ff" stroke="#63b8ff" points="327.59,-29.92 332.44,-20.5 322.78,-24.84 327.59,-29.92"/>
</g>
<!-- Node27 -->
<g id="node27" class="node">
<title>Node27</title>
<g id="a_node27"><a xlink:title=" ">
<polygon fill="#e0e0e0" stroke="#999999" points="142,-19 86,-19 86,0 142,0 142,-19"/>
<text text-anchor="middle" x="114" y="-7" font-family="Helvetica,sans-Serif" font-size="10.00">algorithm</text>
</a>
</g>
</g>
<!-- Node26&#45;&gt;Node27 -->
<g id="edge34" class="edge">
<title>Node26&#45;&gt;Node27</title>
<path fill="none" stroke="#63b8ff" d="M173.1,-113.9C146.37,-108.56 116.64,-97.34 100,-74 90.68,-60.93 96.03,-42.79 102.63,-29.24"/>
<polygon fill="#63b8ff" stroke="#63b8ff" points="105.7,-30.93 107.45,-20.48 99.56,-27.56 105.7,-30.93"/>
</g>
<!-- Node28 -->
<g id="node28" class="node">
<title>Node28</title>
<g id="a_node28"><a xlink:title=" ">
<polygon fill="#e0e0e0" stroke="#999999" points="62,-19 24,-19 24,0 62,0 62,-19"/>
<text text-anchor="middle" x="43" y="-7" font-family="Helvetica,sans-Serif" font-size="10.00">array</text>
</a>
</g>
</g>
<!-- Node26&#45;&gt;Node28 -->
<g id="edge35" class="edge">
<title>Node26&#45;&gt;Node28</title>
<path fill="none" stroke="#63b8ff" d="M176.73,-109.55C149.35,-103 116.34,-92.01 91,-74 74.48,-62.26 61.14,-43.14 52.75,-28.94"/>
<polygon fill="#63b8ff" stroke="#63b8ff" points="56.01,-27.59 48.07,-20.57 49.9,-31.01 56.01,-27.59"/>
</g>
<!-- Node29 -->
<g id="node29" class="node">
<title>Node29</title>
<g id="a_node29"><a xlink:title=" ">
<polygon fill="#e0e0e0" stroke="#999999" points="217.5,-19 178.5,-19 178.5,0 217.5,0 217.5,-19"/>
<text text-anchor="middle" x="198" y="-7" font-family="Helvetica,sans-Serif" font-size="10.00">utility</text>
</a>
</g>
</g>
<!-- Node26&#45;&gt;Node29 -->
<g id="edge37" class="edge">
<title>Node26&#45;&gt;Node29</title>
<path fill="none" stroke="#63b8ff" d="M226.46,-109.66C221.51,-92.42 210.46,-53.9 203.67,-30.27"/>
<polygon fill="#63b8ff" stroke="#63b8ff" points="207.11,-29.56 200.99,-20.92 200.38,-31.49 207.11,-29.56"/>
</g>
<!-- Node30 -->
<g id="node30" class="node">
<title>Node30</title>
<g id="a_node30"><a xlink:href="Vectors_8hpp.html" target="_top" xlink:title=" ">
<polygon fill="white" stroke="#666666" points="201,-74 109,-74 109,-55 201,-55 201,-74"/>
<text text-anchor="middle" x="155" y="-62" font-family="Helvetica,sans-Serif" font-size="10.00">Utils/Vectors.hpp</text>
</a>
</g>
</g>
<!-- Node26&#45;&gt;Node30 -->
<g id="edge38" class="edge">
<title>Node26&#45;&gt;Node30</title>
<path fill="none" stroke="#63b8ff" d="M216.45,-109.51C205.54,-101.7 189.5,-90.21 176.54,-80.93"/>
<polygon fill="#63b8ff" stroke="#63b8ff" points="178.77,-78.22 168.6,-75.24 174.69,-83.91 178.77,-78.22"/>
</g>
<!-- Node30&#45;&gt;Node11 -->
<g id="edge39" class="edge">
<title>Node30&#45;&gt;Node11</title>
<path fill="none" stroke="#63b8ff" d="M174.85,-54.51C193.28,-46.16 220.98,-33.61 242.09,-24.05"/>
<polygon fill="#63b8ff" stroke="#63b8ff" points="243.4,-27.3 251.07,-19.98 240.51,-20.92 243.4,-27.3"/>
</g>
<!-- Node30&#45;&gt;Node16 -->
<g id="edge42" class="edge">
<title>Node30&#45;&gt;Node16</title>
<path fill="none" stroke="#63b8ff" d="M186.89,-54.51C221.06,-44.88 275.04,-29.66 309.73,-19.88"/>
<polygon fill="#63b8ff" stroke="#63b8ff" points="310.56,-23.28 319.24,-17.2 308.66,-16.54 310.56,-23.28"/>
</g>
<!-- Node30&#45;&gt;Node27 -->
<g id="edge40" class="edge">
<title>Node30&#45;&gt;Node27</title>
<path fill="none" stroke="#63b8ff" d="M148.23,-54.75C142.68,-47.58 134.66,-37.2 127.77,-28.3"/>
<polygon fill="#63b8ff" stroke="#63b8ff" points="130.73,-26.41 121.84,-20.64 125.19,-30.69 130.73,-26.41"/>
</g>
<!-- Node30&#45;&gt;Node28 -->
<g id="edge41" class="edge">
<title>Node30&#45;&gt;Node28</title>
<path fill="none" stroke="#63b8ff" d="M136,-54.51C118.44,-46.2 92.08,-33.73 71.91,-24.18"/>
<polygon fill="#63b8ff" stroke="#63b8ff" points="73.62,-21.12 63.09,-20.01 70.63,-27.45 73.62,-21.12"/>
</g>
<!-- Node30&#45;&gt;Node29 -->
<g id="edge43" class="edge">
<title>Node30&#45;&gt;Node29</title>
<path fill="none" stroke="#63b8ff" d="M162.1,-54.75C167.92,-47.58 176.33,-37.2 183.56,-28.3"/>
<polygon fill="#63b8ff" stroke="#63b8ff" points="186.21,-30.59 189.79,-20.62 180.77,-26.18 186.21,-30.59"/>
</g>
<!-- Node31&#45;&gt;Node11 -->
<g id="edge45" class="edge">
<title>Node31&#45;&gt;Node11</title>
<path fill="none" stroke="#63b8ff" d="M1984.5,-164.52C1935.06,-141.08 1795.23,-78.2 1671,-55 1374.03,0.47 612.01,-54.55 312,-19 311.49,-18.94 310.97,-18.88 310.46,-18.81"/>
<polygon fill="#63b8ff" stroke="#63b8ff" points="311.36,-15.41 300.93,-17.26 310.24,-22.32 311.36,-15.41"/>
</g>
<!-- Node31&#45;&gt;Node16 -->
<g id="edge47" class="edge">
<title>Node31&#45;&gt;Node16</title>
<path fill="none" stroke="#63b8ff" d="M2001.92,-164.64C1998.59,-141.74 1986.25,-80.63 1947,-55 1878.93,-10.55 601.09,-10.16 376.55,-10.44"/>
<polygon fill="#63b8ff" stroke="#63b8ff" points="376.74,-6.94 366.75,-10.45 376.75,-13.94 376.74,-6.94"/>
</g>
<!-- Node31&#45;&gt;Node20 -->
<g id="edge46" class="edge">
<title>Node31&#45;&gt;Node20</title>
<path fill="none" stroke="#63b8ff" d="M1961.33,-169.25C1858.06,-158.73 1592.65,-131.68 1508.8,-123.13"/>
<polygon fill="#63b8ff" stroke="#63b8ff" points="1509.38,-119.67 1499.08,-122.14 1508.67,-126.63 1509.38,-119.67"/>
</g>
<!-- Node32&#45;&gt;Node5 -->
<g id="edge51" class="edge">
<title>Node32&#45;&gt;Node5</title>
<path fill="none" stroke="#63b8ff" d="M1786.51,-279.9C1599.61,-270.07 1083.08,-242.91 906.83,-233.65"/>
<polygon fill="#63b8ff" stroke="#63b8ff" points="907.16,-230.16 896.99,-233.13 906.79,-237.15 907.16,-230.16"/>
</g>
<!-- Node32&#45;&gt;Node16 -->
<g id="edge54" class="edge">
<title>Node32&#45;&gt;Node16</title>
<path fill="none" stroke="#63b8ff" d="M1867.53,-274.69C1889.58,-258.05 1933,-219.68 1933,-175.5 1933,-175.5 1933,-175.5 1933,-118.5 1933,-37.64 606.62,-14.39 376.75,-10.97"/>
<polygon fill="#63b8ff" stroke="#63b8ff" points="377.04,-7.47 366.99,-10.83 376.94,-14.47 377.04,-7.47"/>
</g>
<!-- Node32&#45;&gt;Node23 -->
<g id="edge52" class="edge">
<title>Node32&#45;&gt;Node23</title>
<path fill="none" stroke="#63b8ff" d="M1857.02,-274.65C1861.53,-252.33 1869.71,-193.46 1838,-165 1814.85,-144.22 857.3,-125.88 610.53,-121.49"/>
<polygon fill="#63b8ff" stroke="#63b8ff" points="610.89,-118 600.83,-121.32 610.77,-125 610.89,-118"/>
</g>
<!-- Node32&#45;&gt;Node24 -->
<g id="edge53" class="edge">
<title>Node32&#45;&gt;Node24</title>
<path fill="none" stroke="#63b8ff" d="M1860.3,-274.64C1872.62,-252.79 1899.99,-195.87 1871,-165 1847.77,-140.26 1338.24,-125.07 1199.57,-121.38"/>
<polygon fill="#63b8ff" stroke="#63b8ff" points="1200.01,-117.89 1189.93,-121.12 1199.83,-124.89 1200.01,-117.89"/>
</g>
<!-- Node33 -->
<g id="node33" class="node">
<title>Node33</title>
<g id="a_node33"><a xlink:title=" ">
<polygon fill="#e0e0e0" stroke="#999999" points="1829,-239 1785,-239 1785,-220 1829,-220 1829,-239"/>
<text text-anchor="middle" x="1807" y="-227" font-family="Helvetica,sans-Serif" font-size="10.00">cmath</text>
</a>
</g>
</g>
<!-- Node32&#45;&gt;Node33 -->
<g id="edge55" class="edge">
<title>Node32&#45;&gt;Node33</title>
<path fill="none" stroke="#63b8ff" d="M1847.07,-274.75C1840.44,-267.43 1830.78,-256.76 1822.61,-247.74"/>
<polygon fill="#63b8ff" stroke="#63b8ff" points="1825.42,-245.63 1816.11,-240.56 1820.23,-250.33 1825.42,-245.63"/>
</g>
<!-- Node34&#45;&gt;Node3 -->
<g id="edge57" class="edge">
<title>Node34&#45;&gt;Node3</title>
<path fill="none" stroke="#63b8ff" d="M527.36,-384.51C546.35,-376.12 574.93,-363.5 596.62,-353.92"/>
<polygon fill="#63b8ff" stroke="#63b8ff" points="597.83,-357.21 605.56,-349.97 595,-350.81 597.83,-357.21"/>
</g>
<!-- Node35 -->
<g id="node35" class="node">
<title>Node35</title>
<g id="a_node35"><a xlink:href="Bouton_8hpp.html" target="_top" xlink:title=" ">
<polygon fill="white" stroke="#666666" points="565.5,-349 442.5,-349 442.5,-330 565.5,-330 565.5,-349"/>
<text text-anchor="middle" x="504" y="-337" font-family="Helvetica,sans-Serif" font-size="10.00">Components/Bouton.hpp</text>
</a>
</g>
</g>
<!-- Node34&#45;&gt;Node35 -->
<g id="edge58" class="edge">
<title>Node34&#45;&gt;Node35</title>
<path fill="none" stroke="#63b8ff" d="M506.5,-384.75C506.14,-378.27 505.62,-369.16 505.15,-360.9"/>
<polygon fill="#63b8ff" stroke="#63b8ff" points="508.65,-360.74 504.59,-350.95 501.66,-361.13 508.65,-360.74"/>
</g>
<!-- Node35&#45;&gt;Node5 -->
<g id="edge59" class="edge">
<title>Node35&#45;&gt;Node5</title>
<path fill="none" stroke="#63b8ff" d="M503.85,-329.53C504.14,-315.55 506.92,-288.77 523,-275 561.57,-241.96 704.45,-233.37 787.02,-231.19"/>
<polygon fill="#63b8ff" stroke="#63b8ff" points="787.08,-234.69 796.99,-230.95 786.91,-227.69 787.08,-234.69"/>
</g>
<!-- Node36 -->
<g id="node36" class="node">
<title>Node36</title>
<g id="a_node36"><a xlink:title=" ">
<polygon fill="#e0e0e0" stroke="#999999" points="591.5,-294 532.5,-294 532.5,-275 591.5,-275 591.5,-294"/>
<text text-anchor="middle" x="562" y="-282" font-family="Helvetica,sans-Serif" font-size="10.00">functional</text>
</a>
</g>
</g>
<!-- Node35&#45;&gt;Node36 -->
<g id="edge60" class="edge">
<title>Node35&#45;&gt;Node36</title>
<path fill="none" stroke="#63b8ff" d="M513.84,-329.51C522.05,-322 533.98,-311.1 543.91,-302.03"/>
<polygon fill="#63b8ff" stroke="#63b8ff" points="546.17,-304.71 551.19,-295.38 541.45,-299.54 546.17,-304.71"/>
</g>
<!-- Node37&#45;&gt;Node3 -->
<g id="edge62" class="edge">
<title>Node37&#45;&gt;Node3</title>
<path fill="none" stroke="#63b8ff" d="M256.41,-388.67C322.22,-381.22 451.45,-366.17 571.81,-349.26"/>
<polygon fill="#63b8ff" stroke="#63b8ff" points="572.15,-352.75 581.56,-347.89 571.17,-345.82 572.15,-352.75"/>
</g>
<!-- Node37&#45;&gt;Node13 -->
<g id="edge65" class="edge">
<title>Node37&#45;&gt;Node13</title>
<path fill="none" stroke="#63b8ff" d="M222.05,-384.58C229.84,-376.22 240.51,-362.95 245,-349 255.09,-317.7 258.99,-304.77 245,-275 226.34,-235.3 183.2,-205.98 154.06,-189.82"/>
<polygon fill="#63b8ff" stroke="#63b8ff" points="155.84,-186.8 145.37,-185.17 152.54,-192.97 155.84,-186.8"/>
</g>
<!-- Node37&#45;&gt;Node21 -->
<g id="edge63" class="edge">
<title>Node37&#45;&gt;Node21</title>
<path fill="none" stroke="#63b8ff" d="M169.54,-385.02C146.6,-378.57 119.46,-367.52 101,-349 79.59,-327.52 76,-315.83 76,-285.5 76,-285.5 76,-285.5 76,-228.5 76,-197.92 76,-162.48 76,-140.77"/>
<polygon fill="#63b8ff" stroke="#63b8ff" points="79.5,-140.97 76,-130.97 72.5,-140.97 79.5,-140.97"/>
</g>
<!-- Node37&#45;&gt;Node28 -->
<g id="edge64" class="edge">
<title>Node37&#45;&gt;Node28</title>
<path fill="none" stroke="#63b8ff" d="M169.61,-386.02C142.38,-379.67 107.69,-368.39 82,-349 30.88,-310.42 0,-294.55 0,-230.5 0,-230.5 0,-230.5 0,-118.5 0,-84.99 18.09,-49.51 30.81,-28.72"/>
<polygon fill="#63b8ff" stroke="#63b8ff" points="33.59,-30.86 36.02,-20.55 27.69,-27.09 33.59,-30.86"/>
</g>
<!-- Node38 -->
<g id="node38" class="node">
<title>Node38</title>
<g id="a_node38"><a xlink:title=" ">
<polygon fill="#e0e0e0" stroke="#999999" points="236,-349 190,-349 190,-330 236,-330 236,-349"/>
<text text-anchor="middle" x="213" y="-337" font-family="Helvetica,sans-Serif" font-size="10.00">cstring</text>
</a>
</g>
</g>
<!-- Node37&#45;&gt;Node38 -->
<g id="edge66" class="edge">
<title>Node37&#45;&gt;Node38</title>
<path fill="none" stroke="#63b8ff" d="M213,-384.75C213,-378.27 213,-369.16 213,-360.9"/>
<polygon fill="#63b8ff" stroke="#63b8ff" points="216.5,-360.96 213,-350.96 209.5,-360.96 216.5,-360.96"/>
</g>
<!-- Node39 -->
<g id="node39" class="node">
<title>Node39</title>
<g id="a_node39"><a xlink:href="Global_8hpp.html" target="_top" xlink:title=" ">
<polygon fill="white" stroke="#666666" points="172,-349 110,-349 110,-330 172,-330 172,-349"/>
<text text-anchor="middle" x="141" y="-337" font-family="Helvetica,sans-Serif" font-size="10.00">Global.hpp</text>
</a>
</g>
</g>
<!-- Node37&#45;&gt;Node39 -->
<g id="edge67" class="edge">
<title>Node37&#45;&gt;Node39</title>
<path fill="none" stroke="#63b8ff" d="M200.79,-384.51C190.17,-376.7 174.56,-365.21 161.96,-355.93"/>
<polygon fill="#63b8ff" stroke="#63b8ff" points="164.38,-353.36 154.25,-350.26 160.23,-359 164.38,-353.36"/>
</g>
<!-- Node40 -->
<g id="node40" class="node">
<title>Node40</title>
<g id="a_node40"><a xlink:title=" ">
<polygon fill="#e0e0e0" stroke="#999999" points="236,-294 174,-294 174,-275 236,-275 236,-294"/>
<text text-anchor="middle" x="205" y="-282" font-family="Helvetica,sans-Serif" font-size="10.00">Skaldi.hpp</text>
</a>
</g>
</g>
<!-- Node39&#45;&gt;Node40 -->
<g id="edge68" class="edge">
<title>Node39&#45;&gt;Node40</title>
<path fill="none" stroke="#63b8ff" d="M151.86,-329.51C161.11,-321.85 174.62,-310.66 185.71,-301.47"/>
<polygon fill="#63b8ff" stroke="#63b8ff" points="187.67,-304.4 193.14,-295.32 183.2,-299.01 187.67,-304.4"/>
</g>
<!-- Node41 -->
<g id="node41" class="node">
<title>Node41</title>
<g id="a_node41"><a xlink:title=" ">
<polygon fill="#e0e0e0" stroke="#999999" points="155.5,-294 104.5,-294 104.5,-275 155.5,-275 155.5,-294"/>
<text text-anchor="middle" x="130" y="-282" font-family="Helvetica,sans-Serif" font-size="10.00">memory</text>
</a>
</g>
</g>
<!-- Node39&#45;&gt;Node41 -->
<g id="edge69" class="edge">
<title>Node39&#45;&gt;Node41</title>
<path fill="none" stroke="#63b8ff" d="M139.18,-329.75C137.82,-323.19 135.9,-313.95 134.17,-305.6"/>
<polygon fill="#63b8ff" stroke="#63b8ff" points="137.62,-305 132.16,-295.92 130.77,-306.43 137.62,-305"/>
</g>
</g>
</svg>
        <g id="navigator" transform="translate(0 0)" fill="#404254">
                <rect fill="#f2f5e9" fill-opacity="0.5" stroke="#606060" stroke-width=".5" x="0" y="0" width="60" height="60"/>
                <use id="zoomplus" xlink:href="#zoomPlus" x="17" y="9" onmousedown="handleZoom(evt,'in')"/>
                <use id="zoomminus" xlink:href="#zoomMin" x="42" y="9" onmousedown="handleZoom(evt,'out')"/>
                <use id="reset" xlink:href="#resetDef" x="30" y="36" onmousedown="handleReset()"/>
                <g id="arrowUp" xlink:href="#dirArrow" transform="translate(30 24)" onmousedown="handlePan(0,-1)">
                  <use xlink:href="#rim" fill="#404040">
                        <set attributeName="fill" to="#808080" begin="arrowUp.mouseover" end="arrowUp.mouseout"/>
                  </use>
                  <path fill="none" stroke="white" stroke-width="1.5" d="M0,-3.0v7 M-2.5,-0.5L0,-3.0L2.5,-0.5"/>
                </g>
                <g id="arrowRight" xlink:href="#dirArrow" transform="rotate(90) translate(36 -43)" onmousedown="handlePan(1,0)">
                  <use xlink:href="#rim" fill="#404040">
                        <set attributeName="fill" to="#808080" begin="arrowRight.mouseover" end="arrowRight.mouseout"/>
                  </use>
                  <path fill="none" stroke="white" stroke-width="1.5" d="M0,-3.0v7 M-2.5,-0.5L0,-3.0L2.5,-0.5"/>
                </g>
                <g id="arrowDown" xlink:href="#dirArrow" transform="rotate(180) translate(-30 -48)" onmousedown="handlePan(0,1)">
                  <use xlink:href="#rim" fill="#404040">
                        <set attributeName="fill" to="#808080" begin="arrowDown.mouseover" end="arrowDown.mouseout"/>
                  </use>
                  <path fill="none" stroke="white" stroke-width="1.5" d="M0,-3.0v7 M-2.5,-0.5L0,-3.0L2.5,-0.5"/>
                </g>
                <g id="arrowLeft" xlink:href="#dirArrow" transform="rotate(270) translate(-36 17)" onmousedown="handlePan(-1,0)">
                  <use xlink:href="#rim" fill="#404040">
                        <set attributeName="fill" to="#808080" begin="arrowLeft.mouseover" end="arrowLeft.mouseout"/>
                  </use>
                  <path fill="none" stroke="white" stroke-width="1.5" d="M0,-3.0v7 M-2.5,-0.5L0,-3.0L2.5,-0.5"/>
                </g>
        </g>
        <svg viewBox="0 0 15 15" width="100%" height="30px" preserveAspectRatio="xMaxYMin meet">
         <g id="arrow_out" transform="scale(0.3 0.3)">
          <a xlink:href="GameEngine_8hpp__incl_org.svg" target="_base">
           <rect id="button" ry="5" rx="5" y="6" x="6" height="38" width="38"
                fill="#f2f5e9" fill-opacity="0.5" stroke="#606060" stroke-width="1.0"/>
           <path id="arrow"
             d="M 11.500037,31.436501 C 11.940474,20.09759 22.043105,11.32322 32.158766,21.979434 L 37.068811,17.246167 C 37.068811,17.246167 37.088388,32 37.088388,32 L 22.160133,31.978069 C 22.160133,31.978069 26.997745,27.140456 26.997745,27.140456 C 18.528582,18.264221 13.291696,25.230495 11.500037,31.436501 z"
             style="fill:#404040;"/>
          </a>
         </g>
        </svg>
</svg>
