<?xml version="1.0" encoding="UTF-8" standalone="no"?>
<!DOCTYPE svg PUBLIC "-//W3C//DTD SVG 1.1//EN"
 "http://www.w3.org/Graphics/SVG/1.1/DTD/svg11.dtd">
<!-- Generated by graphviz version 7.0.5 (20221223.1930)
 -->
<!-- Title: /github/workspace/client/include/system/GameEngine.hpp Pages: 1 -->
<svg width="868pt" height="269pt"
 viewBox="0.00 0.00 868.44 269.00" xmlns="http://www.w3.org/2000/svg" xmlns:xlink="http://www.w3.org/1999/xlink">
<g id="graph0" class="graph" transform="scale(1 1) rotate(0) translate(4 265)">
<title>/github/workspace/client/include/system/GameEngine.hpp</title>
<!-- Node1 -->
<g id="node1" class="node">
<title>Node1</title>
<g id="a_node1"><a xlink:title=" ">
<polygon fill="#999999" stroke="#666666" points="777,-261 616,-261 616,-231 777,-231 777,-261"/>
<text text-anchor="start" x="624" y="-249" font-family="Helvetica,sans-Serif" font-size="10.00">/github/workspace/client</text>
<text text-anchor="middle" x="696.5" y="-238" font-family="Helvetica,sans-Serif" font-size="10.00">/include/system/GameEngine.hpp</text>
</a>
</g>
</g>
<!-- Node2 -->
<g id="node2" class="node">
<title>Node2</title>
<g id="a_node2"><a xlink:href="IGameState_8hpp.html" target="_top" xlink:title=" ">
<polygon fill="white" stroke="#666666" points="547.5,-195 407.5,-195 407.5,-154 547.5,-154 547.5,-195"/>
<text text-anchor="start" x="415.5" y="-183" font-family="Helvetica,sans-Serif" font-size="10.00">/github/workspace/client</text>
<text text-anchor="start" x="415.5" y="-172" font-family="Helvetica,sans-Serif" font-size="10.00">/include/system/gameStates</text>
<text text-anchor="middle" x="477.5" y="-161" font-family="Helvetica,sans-Serif" font-size="10.00">/IGameState.hpp</text>
</a>
</g>
</g>
<!-- Node1&#45;&gt;Node2 -->
<g id="edge1" class="edge">
<title>Node1&#45;&gt;Node2</title>
<path fill="none" stroke="#63b8ff" d="M639.95,-227.05C609.38,-217.35 571.56,-205.35 540.11,-195.37"/>
<polygon fill="#63b8ff" stroke="#63b8ff" points="638.82,-230.37 649.41,-230.06 640.94,-223.7 638.82,-230.37"/>
</g>
<!-- Node9 -->
<g id="node9" class="node">
<title>Node9</title>
<g id="a_node9"><a xlink:href="StateManager_8cpp.html" target="_top" xlink:title=" ">
<polygon fill="white" stroke="#666666" points="687.5,-189.5 565.5,-189.5 565.5,-159.5 687.5,-159.5 687.5,-189.5"/>
<text text-anchor="start" x="573.5" y="-177.5" font-family="Helvetica,sans-Serif" font-size="10.00">/github/workspace/client</text>
<text text-anchor="middle" x="626.5" y="-166.5" font-family="Helvetica,sans-Serif" font-size="10.00">/src/StateManager.cpp</text>
</a>
</g>
</g>
<!-- Node1&#45;&gt;Node9 -->
<g id="edge11" class="edge">
<title>Node1&#45;&gt;Node9</title>
<path fill="none" stroke="#63b8ff" d="M674.14,-222.8C663.29,-212.02 650.55,-199.38 640.99,-189.88"/>
<polygon fill="#63b8ff" stroke="#63b8ff" points="671.36,-224.97 680.92,-229.53 676.29,-220 671.36,-224.97"/>
</g>
<!-- Node10 -->
<g id="node10" class="node">
<title>Node10</title>
<g id="a_node10"><a xlink:href="client_2src_2main_8cpp.html" target="_top" xlink:title=" ">
<polygon fill="white" stroke="#666666" points="827.5,-189.5 705.5,-189.5 705.5,-159.5 827.5,-159.5 827.5,-189.5"/>
<text text-anchor="start" x="713.5" y="-177.5" font-family="Helvetica,sans-Serif" font-size="10.00">/github/workspace/client</text>
<text text-anchor="middle" x="766.5" y="-166.5" font-family="Helvetica,sans-Serif" font-size="10.00">/src/main.cpp</text>
</a>
</g>
</g>
<!-- Node1&#45;&gt;Node10 -->
<g id="edge12" class="edge">
<title>Node1&#45;&gt;Node10</title>
<path fill="none" stroke="#63b8ff" d="M718.86,-222.8C729.71,-212.02 742.45,-199.38 752.01,-189.88"/>
<polygon fill="#63b8ff" stroke="#63b8ff" points="716.71,-220 712.08,-229.53 721.64,-224.97 716.71,-220"/>
</g>
<!-- Node3 -->
<g id="node3" class="node">
<title>Node3</title>
<g id="a_node3"><a xlink:href="SGamePlay__Duck_8hpp.html" target="_top" xlink:title=" ">
<polygon fill="white" stroke="#666666" points="157,-118 0,-118 0,-77 157,-77 157,-118"/>
<text text-anchor="start" x="8" y="-106" font-family="Helvetica,sans-Serif" font-size="10.00">/github/workspace/client</text>
<text text-anchor="start" x="8" y="-95" font-family="Helvetica,sans-Serif" font-size="10.00">/include/system/gameStates</text>
<text text-anchor="middle" x="78.5" y="-84" font-family="Helvetica,sans-Serif" font-size="10.00">/Example/SGamePlay_Duck.hpp</text>
</a>
</g>
</g>
<!-- Node2&#45;&gt;Node3 -->
<g id="edge2" class="edge">
<title>Node2&#45;&gt;Node3</title>
<path fill="none" stroke="#63b8ff" d="M396.22,-159.94C333.37,-149.23 244.25,-133.55 166.5,-118 163.43,-117.39 160.3,-116.75 157.15,-116.1"/>
<polygon fill="#63b8ff" stroke="#63b8ff" points="395.31,-163.34 405.76,-161.56 396.48,-156.44 395.31,-163.34"/>
</g>
<!-- Node4 -->
<g id="node4" class="node">
<title>Node4</title>
<g id="a_node4"><a xlink:href="SMenu__Duck_8hpp.html" target="_top" xlink:title=" ">
<polygon fill="white" stroke="#666666" points="315.5,-118 175.5,-118 175.5,-77 315.5,-77 315.5,-118"/>
<text text-anchor="start" x="183.5" y="-106" font-family="Helvetica,sans-Serif" font-size="10.00">/github/workspace/client</text>
<text text-anchor="start" x="183.5" y="-95" font-family="Helvetica,sans-Serif" font-size="10.00">/include/system/gameStates</text>
<text text-anchor="middle" x="245.5" y="-84" font-family="Helvetica,sans-Serif" font-size="10.00">/Example/SMenu_Duck.hpp</text>
</a>
</g>
</g>
<!-- Node2&#45;&gt;Node4 -->
<g id="edge3" class="edge">
<title>Node2&#45;&gt;Node4</title>
<path fill="none" stroke="#63b8ff" d="M405.07,-150.09C373.73,-139.95 337.41,-128.21 307.35,-118.49"/>
<polygon fill="#63b8ff" stroke="#63b8ff" points="403.91,-153.39 414.5,-153.13 406.06,-146.73 403.91,-153.39"/>
</g>
<!-- Node5 -->
<g id="node5" class="node">
<title>Node5</title>
<g id="a_node5"><a xlink:href="SGamePlay_8hpp.html" target="_top" xlink:title=" ">
<polygon fill="white" stroke="#666666" points="473.5,-118 333.5,-118 333.5,-77 473.5,-77 473.5,-118"/>
<text text-anchor="start" x="341.5" y="-106" font-family="Helvetica,sans-Serif" font-size="10.00">/github/workspace/client</text>
<text text-anchor="start" x="341.5" y="-95" font-family="Helvetica,sans-Serif" font-size="10.00">/include/system/gameStates</text>
<text text-anchor="middle" x="403.5" y="-84" font-family="Helvetica,sans-Serif" font-size="10.00">/SGamePlay.hpp</text>
</a>
</g>
</g>
<!-- Node2&#45;&gt;Node5 -->
<g id="edge4" class="edge">
<title>Node2&#45;&gt;Node5</title>
<path fill="none" stroke="#63b8ff" d="M450.11,-145.74C441.13,-136.64 431.35,-126.72 423.07,-118.33"/>
<polygon fill="#63b8ff" stroke="#63b8ff" points="447.48,-148.06 456.99,-152.72 452.46,-143.14 447.48,-148.06"/>
</g>
<!-- Node6 -->
<g id="node6" class="node">
<title>Node6</title>
<g id="a_node6"><a xlink:href="States_8hpp.html" target="_top" xlink:title=" ">
<polygon fill="white" stroke="#666666" points="620.5,-41 480.5,-41 480.5,0 620.5,0 620.5,-41"/>
<text text-anchor="start" x="488.5" y="-29" font-family="Helvetica,sans-Serif" font-size="10.00">/github/workspace/client</text>
<text text-anchor="start" x="488.5" y="-18" font-family="Helvetica,sans-Serif" font-size="10.00">/include/system/gameStates</text>
<text text-anchor="middle" x="550.5" y="-7" font-family="Helvetica,sans-Serif" font-size="10.00">/States.hpp</text>
</a>
</g>
</g>
<!-- Node2&#45;&gt;Node6 -->
<g id="edge9" class="edge">
<title>Node2&#45;&gt;Node6</title>
<path fill="none" stroke="#63b8ff" d="M490.3,-143.2C498.56,-124.05 509.73,-98.87 520.5,-77 526.4,-65.01 533.49,-51.84 539.3,-41.35"/>
<polygon fill="#63b8ff" stroke="#63b8ff" points="487.11,-141.74 486.39,-152.31 493.55,-144.5 487.11,-141.74"/>
</g>
<!-- Node7 -->
<g id="node7" class="node">
<title>Node7</title>
<g id="a_node7"><a xlink:href="SMenu_8hpp.html" target="_top" xlink:title=" ">
<polygon fill="white" stroke="#666666" points="669.5,-118 529.5,-118 529.5,-77 669.5,-77 669.5,-118"/>
<text text-anchor="start" x="537.5" y="-106" font-family="Helvetica,sans-Serif" font-size="10.00">/github/workspace/client</text>
<text text-anchor="start" x="537.5" y="-95" font-family="Helvetica,sans-Serif" font-size="10.00">/include/system/gameStates</text>
<text text-anchor="middle" x="599.5" y="-84" font-family="Helvetica,sans-Serif" font-size="10.00">/SMenu.hpp</text>
</a>
</g>
</g>
<!-- Node2&#45;&gt;Node7 -->
<g id="edge7" class="edge">
<title>Node2&#45;&gt;Node7</title>
<path fill="none" stroke="#63b8ff" d="M519.3,-147.8C534.89,-138.22 552.34,-127.49 566.98,-118.49"/>
<polygon fill="#63b8ff" stroke="#63b8ff" points="517.85,-144.59 511.16,-152.81 521.51,-150.55 517.85,-144.59"/>
</g>
<!-- Node8 -->
<g id="node8" class="node">
<title>Node8</title>
<g id="a_node8"><a xlink:href="old__SGamePlay_01copy_8hpp.html" target="_top" xlink:title=" ">
<polygon fill="white" stroke="#666666" points="827.5,-118 687.5,-118 687.5,-77 827.5,-77 827.5,-118"/>
<text text-anchor="start" x="695.5" y="-106" font-family="Helvetica,sans-Serif" font-size="10.00">/github/workspace/client</text>
<text text-anchor="start" x="695.5" y="-95" font-family="Helvetica,sans-Serif" font-size="10.00">/include/system/gameStates</text>
<text text-anchor="middle" x="757.5" y="-84" font-family="Helvetica,sans-Serif" font-size="10.00">/old_SGamePlay copy.hpp</text>
</a>
</g>
</g>
<!-- Node2&#45;&gt;Node8 -->
<g id="edge10" class="edge">
<title>Node2&#45;&gt;Node8</title>
<path fill="none" stroke="#63b8ff" d="M558.76,-151.73C599.42,-140.84 648.15,-127.79 687.18,-117.34"/>
<polygon fill="#63b8ff" stroke="#63b8ff" points="558.01,-148.31 549.26,-154.28 559.82,-155.07 558.01,-148.31"/>
</g>
<!-- Node5&#45;&gt;Node6 -->
<g id="edge5" class="edge">
<title>Node5&#45;&gt;Node6</title>
<path fill="none" stroke="#63b8ff" d="M452.54,-71.48C471.65,-61.73 493.26,-50.7 511.31,-41.49"/>
<polygon fill="#63b8ff" stroke="#63b8ff" points="451.17,-68.25 443.86,-75.91 454.35,-74.48 451.17,-68.25"/>
</g>
<!-- Node6&#45;&gt;Node1 -->
<g id="edge6" class="edge">
<title>Node6&#45;&gt;Node1</title>
<path fill="none" stroke="#63b8ff" d="M632.11,-26.05C707.3,-32.15 810.98,-46.05 836.5,-77 869.87,-117.46 866.71,-152.13 836.5,-195 822.6,-214.73 800.18,-226.71 777.31,-233.98"/>
<polygon fill="#63b8ff" stroke="#63b8ff" points="632.51,-22.57 622.27,-25.29 631.97,-29.55 632.51,-22.57"/>
</g>
<!-- Node7&#45;&gt;Node6 -->
<g id="edge8" class="edge">
<title>Node7&#45;&gt;Node6</title>
<path fill="none" stroke="#63b8ff" d="M580.45,-67.34C574.76,-58.63 568.66,-49.3 563.46,-41.33"/>
<polygon fill="#63b8ff" stroke="#63b8ff" points="577.4,-69.07 585.8,-75.53 583.26,-65.24 577.4,-69.07"/>
</g>
</g>
</svg>
