<?xml version="1.0" encoding="UTF-8" standalone="no"?>
<!DOCTYPE svg PUBLIC "-//W3C//DTD SVG 1.1//EN"
 "http://www.w3.org/Graphics/SVG/1.1/DTD/svg11.dtd">
<!-- Generated by graphviz version 7.0.5 (20221223.1930)
 -->
<!-- Title: /github/workspace/client/include/system/GameEngine.hpp Pages: 1 -->
<!--zoomable 533 -->
<svg id="main" version="1.1" xmlns="http://www.w3.org/2000/svg" xmlns:xlink="http://www.w3.org/1999/xlink" xml:space="preserve" onload="init(evt)">
<style type="text/css"><![CDATA[
.edge:hover path { stroke: red; }
.edge:hover polygon { stroke: red; fill: red; }
]]></style>
<script type="text/javascript"><![CDATA[
var edges = document.getElementsByTagName('g');
if (edges && edges.length) {
  for (var i=0;i<edges.length;i++) {
    if (edges[i].id.substr(0,4)=='edge') {
      edges[i].setAttribute('class','edge');
    }
  }
}
]]></script>
        <defs>
                <circle id="rim" cx="0" cy="0" r="7"/>
                <circle id="rim2" cx="0" cy="0" r="3.5"/>
                <g id="zoomPlus">
                        <use xlink:href="#rim" fill="#404040">
                                <set attributeName="fill" to="#808080" begin="zoomplus.mouseover" end="zoomplus.mouseout"/>
                        </use>
                        <path d="M-4,0h8M0,-4v8" fill="none" stroke="white" stroke-width="1.5" pointer-events="none"/>
                </g>
                <g id="zoomMin">
                        <use xlink:href="#rim" fill="#404040">
                                <set attributeName="fill" to="#808080" begin="zoomminus.mouseover" end="zoomminus.mouseout"/>
                        </use>
                        <path d="M-4,0h8" fill="none" stroke="white" stroke-width="1.5" pointer-events="none"/>
                </g>
                <g id="dirArrow">
                        <path fill="none" stroke="white" stroke-width="1.5" d="M0,-3.0v7 M-2.5,-0.5L0,-3.0L2.5,-0.5"/>
                </g>
               <g id="resetDef">
                       <use xlink:href="#rim2" fill="#404040">
                               <set attributeName="fill" to="#808080" begin="reset.mouseover" end="reset.mouseout"/>
                       </use>
               </g>
        </defs>

<script type="text/javascript">
var viewWidth = 2236;
var viewHeight = 533;
var sectionId = 'dynsection-0';
</script>
<script xlink:href="svgpan.js"/>
<svg id="graph" class="graph">
<g id="viewport">
<title>/github/workspace/client/include/system/GameEngine.hpp</title>
<!-- Node1 -->
<g id="node1" class="node">
<title>Node1</title>
<g id="a_node1"><a xlink:title=" ">
<polygon fill="#999999" stroke="#666666" points="846,-525 685,-525 685,-495 846,-495 846,-525"/>
<text text-anchor="start" x="693" y="-513" font-family="Helvetica,sans-Serif" font-size="10.00">/github/workspace/client</text>
<text text-anchor="middle" x="765.5" y="-502" font-family="Helvetica,sans-Serif" font-size="10.00">/include/system/GameEngine.hpp</text>
</a>
</g>
</g>
<!-- Node2 -->
<g id="node2" class="node">
<title>Node2</title>
<g id="a_node2"><a xlink:href="States_8hpp.html" target="_top" xlink:title=" ">
<polygon fill="white" stroke="#666666" points="825,-459 706,-459 706,-440 825,-440 825,-459"/>
<text text-anchor="middle" x="765.5" y="-447" font-family="Helvetica,sans-Serif" font-size="10.00">gameStates/States.hpp</text>
</a>
</g>
</g>
<!-- Node1&#45;&gt;Node2 -->
<g id="edge1" class="edge">
<title>Node1&#45;&gt;Node2</title>
<path fill="none" stroke="#63b8ff" d="M765.5,-494.54C765.5,-487.34 765.5,-478.53 765.5,-470.68"/>
<polygon fill="#63b8ff" stroke="#63b8ff" points="769,-470.69 765.5,-460.69 762,-470.69 769,-470.69"/>
</g>
<!-- Node23 -->
<g id="node23" class="node">
<title>Node23</title>
<g id="a_node23"><a xlink:title=" ">
<polygon fill="#e0e0e0" stroke="#999999" points="2173,-129 2130,-129 2130,-110 2173,-110 2173,-129"/>
<text text-anchor="middle" x="2151.5" y="-117" font-family="Helvetica,sans-Serif" font-size="10.00">queue</text>
</a>
</g>
</g>
<!-- Node1&#45;&gt;Node23 -->
<g id="edge71" class="edge">
<title>Node1&#45;&gt;Node23</title>
<path fill="none" stroke="#63b8ff" d="M846.4,-506.82C1147.97,-498.17 2189.5,-463.37 2189.5,-395.5 2189.5,-395.5 2189.5,-395.5 2189.5,-228.5 2189.5,-195.65 2173.66,-160.19 2162.43,-139.19"/>
<polygon fill="#63b8ff" stroke="#63b8ff" points="2165.62,-137.72 2157.68,-130.69 2159.5,-141.13 2165.62,-137.72"/>
</g>
<!-- Node3 -->
<g id="node3" class="node">
<title>Node3</title>
<g id="a_node3"><a xlink:href="IGameState_8hpp.html" target="_top" xlink:title=" ">
<polygon fill="white" stroke="#666666" points="470,-349 383,-349 383,-330 470,-330 470,-349"/>
<text text-anchor="middle" x="426.5" y="-337" font-family="Helvetica,sans-Serif" font-size="10.00">IGameState.hpp</text>
</a>
</g>
</g>
<!-- Node2&#45;&gt;Node3 -->
<g id="edge2" class="edge">
<title>Node2&#45;&gt;Node3</title>
<path fill="none" stroke="#63b8ff" d="M737.47,-439.57C677.06,-420.33 534.49,-374.9 465.39,-352.89"/>
<polygon fill="#63b8ff" stroke="#63b8ff" points="466.6,-349.6 456.01,-349.9 464.47,-356.27 466.6,-349.6"/>
</g>
<!-- Node37 -->
<g id="node37" class="node">
<title>Node37</title>
<g id="a_node37"><a xlink:href="SMenu_8hpp.html" target="_top" xlink:title=" ">
<polygon fill="white" stroke="#666666" points="798,-404 733,-404 733,-385 798,-385 798,-404"/>
<text text-anchor="middle" x="765.5" y="-392" font-family="Helvetica,sans-Serif" font-size="10.00">SMenu.hpp</text>
</a>
</g>
</g>
<!-- Node2&#45;&gt;Node37 -->
<g id="edge59" class="edge">
<title>Node2&#45;&gt;Node37</title>
<path fill="none" stroke="#63b8ff" d="M765.5,-439.75C765.5,-433.27 765.5,-424.16 765.5,-415.9"/>
<polygon fill="#63b8ff" stroke="#63b8ff" points="769,-415.96 765.5,-405.96 762,-415.96 769,-415.96"/>
</g>
<!-- Node40 -->
<g id="node40" class="node">
<title>Node40</title>
<g id="a_node40"><a xlink:href="SGamePlay_8hpp.html" target="_top" xlink:title=" ">
<polygon fill="white" stroke="#666666" points="2081.5,-404 1995.5,-404 1995.5,-385 2081.5,-385 2081.5,-404"/>
<text text-anchor="middle" x="2038.5" y="-392" font-family="Helvetica,sans-Serif" font-size="10.00">SGamePlay.hpp</text>
</a>
</g>
</g>
<!-- Node2&#45;&gt;Node40 -->
<g id="edge64" class="edge">
<title>Node2&#45;&gt;Node40</title>
<path fill="none" stroke="#63b8ff" d="M825.19,-446.01C1040.61,-437.05 1776.17,-406.42 1983.63,-397.78"/>
<polygon fill="#63b8ff" stroke="#63b8ff" points="1983.75,-401.28 1993.59,-397.37 1983.46,-394.29 1983.75,-401.28"/>
</g>
<!-- Node3&#45;&gt;Node1 -->
<g id="edge51" class="edge">
<title>Node3&#45;&gt;Node1</title>
<path fill="none" stroke="#63b8ff" d="M444.42,-349.41C497.21,-375.65 652.98,-453.07 726.39,-489.56"/>
<polygon fill="#63b8ff" stroke="#63b8ff" points="724.73,-492.64 735.24,-493.96 727.84,-486.37 724.73,-492.64"/>
</g>
<!-- Node4 -->
<g id="node4" class="node">
<title>Node4</title>
<g id="a_node4"><a xlink:href="EntitiesManager_8hpp.html" target="_top" xlink:title=" ">
<polygon fill="white" stroke="#666666" points="317.5,-184 177.5,-184 177.5,-165 317.5,-165 317.5,-184"/>
<text text-anchor="middle" x="247.5" y="-172" font-family="Helvetica,sans-Serif" font-size="10.00">Entities/EntitiesManager.hpp</text>
</a>
</g>
</g>
<!-- Node3&#45;&gt;Node4 -->
<g id="edge3" class="edge">
<title>Node3&#45;&gt;Node4</title>
<path fill="none" stroke="#63b8ff" d="M382.61,-336.44C318.55,-332.51 203.85,-321.72 174.5,-294 150.22,-271.07 144.14,-248.53 161.5,-220 170.38,-205.41 185.74,-195.4 201.06,-188.62"/>
<polygon fill="#63b8ff" stroke="#63b8ff" points="202.17,-191.94 210.16,-184.99 199.58,-185.44 202.17,-191.94"/>
</g>
<!-- Node28 -->
<g id="node28" class="node">
<title>Node28</title>
<g id="a_node28"><a xlink:href="Background_8hpp.html" target="_top" xlink:title=" ">
<polygon fill="white" stroke="#666666" points="517.5,-184 373.5,-184 373.5,-165 517.5,-165 517.5,-184"/>
<text text-anchor="middle" x="445.5" y="-172" font-family="Helvetica,sans-Serif" font-size="10.00">Components/Background.hpp</text>
</a>
</g>
</g>
<!-- Node3&#45;&gt;Node28 -->
<g id="edge52" class="edge">
<title>Node3&#45;&gt;Node28</title>
<path fill="none" stroke="#63b8ff" d="M382.69,-334.09C295.31,-323.64 112.85,-292.6 174.5,-220 186.68,-205.65 286.93,-192.08 361.97,-183.78"/>
<polygon fill="#63b8ff" stroke="#63b8ff" points="362.25,-187.27 371.81,-182.7 361.49,-180.31 362.25,-187.27"/>
</g>
<!-- Node34 -->
<g id="node34" class="node">
<title>Node34</title>
<g id="a_node34"><a xlink:href="String_8hpp.html" target="_top" xlink:title=" ">
<polygon fill="white" stroke="#666666" points="83,-184 0,-184 0,-165 83,-165 83,-184"/>
<text text-anchor="middle" x="41.5" y="-172" font-family="Helvetica,sans-Serif" font-size="10.00">Utils/String.hpp</text>
</a>
</g>
</g>
<!-- Node3&#45;&gt;Node34 -->
<g id="edge47" class="edge">
<title>Node3&#45;&gt;Node34</title>
<path fill="none" stroke="#63b8ff" d="M382.65,-334.68C316.34,-328.35 194.17,-314.32 155.5,-294 109.76,-269.97 71.72,-220.69 53.35,-193.88"/>
<polygon fill="#63b8ff" stroke="#63b8ff" points="56.4,-192.14 47.94,-185.75 50.57,-196.02 56.4,-192.14"/>
</g>
<!-- Node35 -->
<g id="node35" class="node">
<title>Node35</title>
<g id="a_node35"><a xlink:href="Centipede_8hpp.html" target="_top" xlink:title=" ">
<polygon fill="white" stroke="#666666" points="368.5,-294 232.5,-294 232.5,-275 368.5,-275 368.5,-294"/>
<text text-anchor="middle" x="300.5" y="-282" font-family="Helvetica,sans-Serif" font-size="10.00">Components/Centipede.hpp</text>
</a>
</g>
</g>
<!-- Node3&#45;&gt;Node35 -->
<g id="edge53" class="edge">
<title>Node3&#45;&gt;Node35</title>
<path fill="none" stroke="#63b8ff" d="M405.13,-329.51C385.09,-321.08 354.9,-308.38 332.09,-298.79"/>
<polygon fill="#63b8ff" stroke="#63b8ff" points="333.53,-295.6 322.95,-294.94 330.81,-302.05 333.53,-295.6"/>
</g>
<!-- Node5 -->
<g id="node5" class="node">
<title>Node5</title>
<g id="a_node5"><a xlink:href="Engine_8hpp.html" target="_top" xlink:title=" ">
<polygon fill="white" stroke="#666666" points="976.5,-239 872.5,-239 872.5,-220 976.5,-220 976.5,-239"/>
<text text-anchor="middle" x="924.5" y="-227" font-family="Helvetica,sans-Serif" font-size="10.00">../Engine/Engine.hpp</text>
</a>
</g>
</g>
<!-- Node4&#45;&gt;Node5 -->
<g id="edge4" class="edge">
<title>Node4&#45;&gt;Node5</title>
<path fill="none" stroke="#63b8ff" d="M317.78,-180.67C450,-190.76 733.67,-212.97 860.74,-223.17"/>
<polygon fill="#63b8ff" stroke="#63b8ff" points="860.41,-226.66 870.66,-223.97 860.98,-219.68 860.41,-226.66"/>
</g>
<!-- Node26 -->
<g id="node26" class="node">
<title>Node26</title>
<g id="a_node26"><a xlink:href="IComponents_8hpp.html" target="_top" xlink:title=" ">
<polygon fill="white" stroke="#666666" points="582.5,-129 490.5,-129 490.5,-110 582.5,-110 582.5,-129"/>
<text text-anchor="middle" x="536.5" y="-117" font-family="Helvetica,sans-Serif" font-size="10.00">IComponents.hpp</text>
</a>
</g>
</g>
<!-- Node4&#45;&gt;Node26 -->
<g id="edge34" class="edge">
<title>Node4&#45;&gt;Node26</title>
<path fill="none" stroke="#63b8ff" d="M296.52,-164.51C346.94,-155.26 425.41,-140.87 478.78,-131.08"/>
<polygon fill="#63b8ff" stroke="#63b8ff" points="479.41,-134.53 488.62,-129.28 478.15,-127.64 479.41,-134.53"/>
</g>
<!-- Node29 -->
<g id="node29" class="node">
<title>Node29</title>
<g id="a_node29"><a xlink:href="SparseArray_8hpp.html" target="_top" xlink:title=" ">
<polygon fill="white" stroke="#666666" points="303,-129 192,-129 192,-110 303,-110 303,-129"/>
<text text-anchor="middle" x="247.5" y="-117" font-family="Helvetica,sans-Serif" font-size="10.00">Utils/SparseArray.hpp</text>
</a>
</g>
</g>
<!-- Node4&#45;&gt;Node29 -->
<g id="edge35" class="edge">
<title>Node4&#45;&gt;Node29</title>
<path fill="none" stroke="#63b8ff" d="M247.5,-164.75C247.5,-158.27 247.5,-149.16 247.5,-140.9"/>
<polygon fill="#63b8ff" stroke="#63b8ff" points="251,-140.96 247.5,-130.96 244,-140.96 251,-140.96"/>
</g>
<!-- Node5&#45;&gt;Node4 -->
<g id="edge26" class="edge">
<title>Node5&#45;&gt;Node4</title>
<path fill="none" stroke="#63b8ff" d="M872.11,-224.69C754.61,-215.78 469.67,-193.5 328.9,-182.24"/>
<polygon fill="#63b8ff" stroke="#63b8ff" points="329.54,-178.78 319.29,-181.47 328.98,-185.76 329.54,-178.78"/>
</g>
<!-- Node6 -->
<g id="node6" class="node">
<title>Node6</title>
<g id="a_node6"><a xlink:title=" ">
<polygon fill="#e0e0e0" stroke="#999999" points="1610,-184 1521,-184 1521,-165 1610,-165 1610,-184"/>
<text text-anchor="middle" x="1565.5" y="-172" font-family="Helvetica,sans-Serif" font-size="10.00">SFML/Audio.hpp</text>
</a>
</g>
</g>
<!-- Node5&#45;&gt;Node6 -->
<g id="edge5" class="edge">
<title>Node5&#45;&gt;Node6</title>
<path fill="none" stroke="#63b8ff" d="M976.95,-226C1078.03,-220.87 1307.04,-207.7 1509.57,-184.26"/>
<polygon fill="#63b8ff" stroke="#63b8ff" points="1509.69,-187.77 1519.21,-183.13 1508.87,-180.81 1509.69,-187.77"/>
</g>
<!-- Node7 -->
<g id="node7" class="node">
<title>Node7</title>
<g id="a_node7"><a xlink:title=" ">
<polygon fill="#e0e0e0" stroke="#999999" points="1732.5,-184 1628.5,-184 1628.5,-165 1732.5,-165 1732.5,-184"/>
<text text-anchor="middle" x="1680.5" y="-172" font-family="Helvetica,sans-Serif" font-size="10.00">SFML/Graphics.hpp</text>
</a>
</g>
</g>
<!-- Node5&#45;&gt;Node7 -->
<g id="edge6" class="edge">
<title>Node5&#45;&gt;Node7</title>
<path fill="none" stroke="#63b8ff" d="M976.92,-226.48C1091.18,-221.79 1371.47,-208.71 1616.99,-184.18"/>
<polygon fill="#63b8ff" stroke="#63b8ff" points="1617.18,-187.67 1626.78,-183.19 1616.48,-180.71 1617.18,-187.67"/>
</g>
<!-- Node8 -->
<g id="node8" class="node">
<title>Node8</title>
<g id="a_node8"><a xlink:title=" ">
<polygon fill="#e0e0e0" stroke="#999999" points="1852,-184 1751,-184 1751,-165 1852,-165 1852,-184"/>
<text text-anchor="middle" x="1801.5" y="-172" font-family="Helvetica,sans-Serif" font-size="10.00">SFML/Network.hpp</text>
</a>
</g>
</g>
<!-- Node5&#45;&gt;Node8 -->
<g id="edge7" class="edge">
<title>Node5&#45;&gt;Node8</title>
<path fill="none" stroke="#63b8ff" d="M976.71,-227.22C1104.74,-223.74 1444.67,-212.49 1739.45,-184.1"/>
<polygon fill="#63b8ff" stroke="#63b8ff" points="1739.68,-187.59 1749.29,-183.14 1739,-180.63 1739.68,-187.59"/>
</g>
<!-- Node9 -->
<g id="node9" class="node">
<title>Node9</title>
<g id="a_node9"><a xlink:title=" ">
<polygon fill="#e0e0e0" stroke="#999999" points="1969,-184 1870,-184 1870,-165 1969,-165 1969,-184"/>
<text text-anchor="middle" x="1919.5" y="-172" font-family="Helvetica,sans-Serif" font-size="10.00">SFML/Window.hpp</text>
</a>
</g>
</g>
<!-- Node5&#45;&gt;Node9 -->
<g id="edge8" class="edge">
<title>Node5&#45;&gt;Node9</title>
<path fill="none" stroke="#63b8ff" d="M976.95,-227.81C1117.87,-225.57 1516.66,-216.71 1858.19,-184.23"/>
<polygon fill="#63b8ff" stroke="#63b8ff" points="1858.42,-187.72 1868.04,-183.28 1857.76,-180.75 1858.42,-187.72"/>
</g>
<!-- Node10 -->
<g id="node10" class="node">
<title>Node10</title>
<g id="a_node10"><a xlink:title=" ">
<polygon fill="#e0e0e0" stroke="#999999" points="2085.5,-184 1987.5,-184 1987.5,-165 2085.5,-165 2085.5,-184"/>
<text text-anchor="middle" x="2036.5" y="-172" font-family="Helvetica,sans-Serif" font-size="10.00">SFML/System.hpp</text>
</a>
</g>
</g>
<!-- Node5&#45;&gt;Node10 -->
<g id="edge9" class="edge">
<title>Node5&#45;&gt;Node10</title>
<path fill="none" stroke="#63b8ff" d="M977,-228.2C1129.62,-226.92 1586.54,-220.2 1975.97,-184.13"/>
<polygon fill="#63b8ff" stroke="#63b8ff" points="1976.04,-187.64 1985.67,-183.22 1975.39,-180.67 1976.04,-187.64"/>
</g>
<!-- Node11 -->
<g id="node11" class="node">
<title>Node11</title>
<g id="a_node11"><a xlink:title=" ">
<polygon fill="#e0e0e0" stroke="#999999" points="124.5,-19 70.5,-19 70.5,0 124.5,0 124.5,-19"/>
<text text-anchor="middle" x="97.5" y="-7" font-family="Helvetica,sans-Serif" font-size="10.00">iostream</text>
</a>
</g>
</g>
<!-- Node5&#45;&gt;Node11 -->
<g id="edge10" class="edge">
<title>Node5&#45;&gt;Node11</title>
<path fill="none" stroke="#63b8ff" d="M874.42,-219.54C841.34,-212.5 797.59,-201 761.5,-184 709.85,-159.67 710.17,-129.46 656.5,-110 472.46,-43.26 405.41,-128.9 217.5,-74 181.01,-63.34 142.86,-40.9 119.63,-25.76"/>
<polygon fill="#63b8ff" stroke="#63b8ff" points="121.59,-22.86 111.33,-20.23 117.71,-28.69 121.59,-22.86"/>
</g>
<!-- Node12 -->
<g id="node12" class="node">
<title>Node12</title>
<g id="a_node12"><a xlink:title=" ">
<polygon fill="#e0e0e0" stroke="#999999" points="949.5,-184 899.5,-184 899.5,-165 949.5,-165 949.5,-184"/>
<text text-anchor="middle" x="924.5" y="-172" font-family="Helvetica,sans-Serif" font-size="10.00">fstream</text>
</a>
</g>
</g>
<!-- Node5&#45;&gt;Node12 -->
<g id="edge11" class="edge">
<title>Node5&#45;&gt;Node12</title>
<path fill="none" stroke="#63b8ff" d="M924.5,-219.75C924.5,-213.27 924.5,-204.16 924.5,-195.9"/>
<polygon fill="#63b8ff" stroke="#63b8ff" points="928,-195.96 924.5,-185.96 921,-195.96 928,-195.96"/>
</g>
<!-- Node13 -->
<g id="node13" class="node">
<title>Node13</title>
<g id="a_node13"><a xlink:title=" ">
<polygon fill="#e0e0e0" stroke="#999999" points="1015.5,-184 967.5,-184 967.5,-165 1015.5,-165 1015.5,-184"/>
<text text-anchor="middle" x="991.5" y="-172" font-family="Helvetica,sans-Serif" font-size="10.00">string.h</text>
</a>
</g>
</g>
<!-- Node5&#45;&gt;Node13 -->
<g id="edge12" class="edge">
<title>Node5&#45;&gt;Node13</title>
<path fill="none" stroke="#63b8ff" d="M935.87,-219.51C945.55,-211.85 959.7,-200.66 971.31,-191.47"/>
<polygon fill="#63b8ff" stroke="#63b8ff" points="973.44,-194.25 979.12,-185.3 969.1,-188.76 973.44,-194.25"/>
</g>
<!-- Node14 -->
<g id="node14" class="node">
<title>Node14</title>
<g id="a_node14"><a xlink:title=" ">
<polygon fill="#e0e0e0" stroke="#999999" points="1083.5,-184 1033.5,-184 1033.5,-165 1083.5,-165 1083.5,-184"/>
<text text-anchor="middle" x="1058.5" y="-172" font-family="Helvetica,sans-Serif" font-size="10.00">unistd.h</text>
</a>
</g>
</g>
<!-- Node5&#45;&gt;Node14 -->
<g id="edge13" class="edge">
<title>Node5&#45;&gt;Node14</title>
<path fill="none" stroke="#63b8ff" d="M947.23,-219.51C968.73,-211.01 1001.23,-198.15 1025.57,-188.53"/>
<polygon fill="#63b8ff" stroke="#63b8ff" points="1026.69,-191.85 1034.7,-184.91 1024.11,-185.34 1026.69,-191.85"/>
</g>
<!-- Node15 -->
<g id="node15" class="node">
<title>Node15</title>
<g id="a_node15"><a xlink:title=" ">
<polygon fill="#e0e0e0" stroke="#999999" points="1167,-184 1102,-184 1102,-165 1167,-165 1167,-184"/>
<text text-anchor="middle" x="1134.5" y="-172" font-family="Helvetica,sans-Serif" font-size="10.00">sys/types.h</text>
</a>
</g>
</g>
<!-- Node5&#45;&gt;Node15 -->
<g id="edge14" class="edge">
<title>Node5&#45;&gt;Node15</title>
<path fill="none" stroke="#63b8ff" d="M960.12,-219.51C996.23,-210.4 1052.14,-196.29 1090.88,-186.51"/>
<polygon fill="#63b8ff" stroke="#63b8ff" points="1091.51,-189.96 1100.35,-184.12 1089.8,-183.17 1091.51,-189.96"/>
</g>
<!-- Node16 -->
<g id="node16" class="node">
<title>Node16</title>
<g id="a_node16"><a xlink:title=" ">
<polygon fill="#e0e0e0" stroke="#999999" points="444.5,-19 400.5,-19 400.5,0 444.5,0 444.5,-19"/>
<text text-anchor="middle" x="422.5" y="-7" font-family="Helvetica,sans-Serif" font-size="10.00">vector</text>
</a>
</g>
</g>
<!-- Node5&#45;&gt;Node16 -->
<g id="edge15" class="edge">
<title>Node5&#45;&gt;Node16</title>
<path fill="none" stroke="#63b8ff" d="M872.09,-222.46C842.44,-216.74 806.26,-205.61 780.5,-184 752.18,-160.24 770.8,-133.79 742.5,-110 656.73,-37.91 518.9,-17.97 455.89,-12.52"/>
<polygon fill="#63b8ff" stroke="#63b8ff" points="456.42,-9.05 446.18,-11.76 455.87,-16.03 456.42,-9.05"/>
</g>
<!-- Node17 -->
<g id="node17" class="node">
<title>Node17</title>
<g id="a_node17"><a xlink:title=" ">
<polygon fill="#e0e0e0" stroke="#999999" points="1241.5,-184 1185.5,-184 1185.5,-165 1241.5,-165 1241.5,-184"/>
<text text-anchor="middle" x="1213.5" y="-172" font-family="Helvetica,sans-Serif" font-size="10.00">stdbool.h</text>
</a>
</g>
</g>
<!-- Node5&#45;&gt;Node17 -->
<g id="edge16" class="edge">
<title>Node5&#45;&gt;Node17</title>
<path fill="none" stroke="#63b8ff" d="M976.77,-220.07C1025.45,-212.04 1100.28,-199.24 1174.33,-184.36"/>
<polygon fill="#63b8ff" stroke="#63b8ff" points="1174.66,-187.86 1183.77,-182.45 1173.27,-181 1174.66,-187.86"/>
</g>
<!-- Node18 -->
<g id="node18" class="node">
<title>Node18</title>
<g id="a_node18"><a xlink:title=" ">
<polygon fill="#e0e0e0" stroke="#999999" points="1307,-184 1260,-184 1260,-165 1307,-165 1307,-184"/>
<text text-anchor="middle" x="1283.5" y="-172" font-family="Helvetica,sans-Serif" font-size="10.00">stdlib.h</text>
</a>
</g>
</g>
<!-- Node5&#45;&gt;Node18 -->
<g id="edge17" class="edge">
<title>Node5&#45;&gt;Node18</title>
<path fill="none" stroke="#63b8ff" d="M976.75,-223.26C1039.12,-216.6 1146.75,-203.76 1248.67,-184.13"/>
<polygon fill="#63b8ff" stroke="#63b8ff" points="1249.15,-187.61 1258.3,-182.25 1247.81,-180.74 1249.15,-187.61"/>
</g>
<!-- Node19 -->
<g id="node19" class="node">
<title>Node19</title>
<g id="a_node19"><a xlink:title=" ">
<polygon fill="#e0e0e0" stroke="#999999" points="1383.5,-184 1325.5,-184 1325.5,-165 1383.5,-165 1383.5,-184"/>
<text text-anchor="middle" x="1354.5" y="-172" font-family="Helvetica,sans-Serif" font-size="10.00">exception</text>
</a>
</g>
</g>
<!-- Node5&#45;&gt;Node19 -->
<g id="edge18" class="edge">
<title>Node5&#45;&gt;Node19</title>
<path fill="none" stroke="#63b8ff" d="M976.74,-224.36C1049.98,-218.16 1187.52,-205.09 1314.07,-184.24"/>
<polygon fill="#63b8ff" stroke="#63b8ff" points="1314.32,-187.75 1323.61,-182.65 1313.17,-180.85 1314.32,-187.75"/>
</g>
<!-- Node20 -->
<g id="node20" class="node">
<title>Node20</title>
<g id="a_node20"><a xlink:href="Window_8hpp.html" target="_top" xlink:title=" ">
<polygon fill="white" stroke="#666666" points="1503,-184 1402,-184 1402,-165 1503,-165 1503,-184"/>
<text text-anchor="middle" x="1452.5" y="-172" font-family="Helvetica,sans-Serif" font-size="10.00">Engine/Window.hpp</text>
</a>
</g>
</g>
<!-- Node5&#45;&gt;Node20 -->
<g id="edge19" class="edge">
<title>Node5&#45;&gt;Node20</title>
<path fill="none" stroke="#63b8ff" d="M976.82,-223.84C1062.16,-216.54 1236.19,-201.43 1383.5,-184 1385.79,-183.73 1388.12,-183.44 1390.48,-183.15"/>
<polygon fill="#63b8ff" stroke="#63b8ff" points="1390.7,-186.65 1400.16,-181.89 1389.8,-179.71 1390.7,-186.65"/>
</g>
<!-- Node21 -->
<g id="node21" class="node">
<title>Node21</title>
<g id="a_node21"><a xlink:href="Event_8hpp.html" target="_top" xlink:title=" ">
<polygon fill="white" stroke="#666666" points="881.5,-184 789.5,-184 789.5,-165 881.5,-165 881.5,-184"/>
<text text-anchor="middle" x="835.5" y="-172" font-family="Helvetica,sans-Serif" font-size="10.00">Engine/Event.hpp</text>
</a>
</g>
</g>
<!-- Node5&#45;&gt;Node21 -->
<g id="edge21" class="edge">
<title>Node5&#45;&gt;Node21</title>
<path fill="none" stroke="#63b8ff" d="M904.19,-219.51C889.28,-211.62 869.42,-199.98 854.78,-190.65"/>
<polygon fill="#63b8ff" stroke="#63b8ff" points="856.73,-187.75 846.45,-185.19 852.89,-193.6 856.73,-187.75"/>
</g>
<!-- Node25 -->
<g id="node25" class="node">
<title>Node25</title>
<g id="a_node25"><a xlink:href="Bullets_8hpp.html" target="_top" xlink:title=" ">
<polygon fill="white" stroke="#666666" points="695.5,-184 573.5,-184 573.5,-165 695.5,-165 695.5,-184"/>
<text text-anchor="middle" x="634.5" y="-172" font-family="Helvetica,sans-Serif" font-size="10.00">Components/Bullets.hpp</text>
</a>
</g>
</g>
<!-- Node5&#45;&gt;Node25 -->
<g id="edge27" class="edge">
<title>Node5&#45;&gt;Node25</title>
<path fill="none" stroke="#63b8ff" d="M872.12,-219.87C820.5,-210.79 742.09,-196.49 689.57,-186.59"/>
<polygon fill="#63b8ff" stroke="#63b8ff" points="690.41,-183.19 679.93,-184.77 689.1,-190.06 690.41,-183.19"/>
</g>
<!-- Node5&#45;&gt;Node28 -->
<g id="edge32" class="edge">
<title>Node5&#45;&gt;Node28</title>
<path fill="none" stroke="#63b8ff" d="M872.12,-223.18C789.39,-214.34 627.98,-196.52 529.12,-185.35"/>
<polygon fill="#63b8ff" stroke="#63b8ff" points="529.81,-181.9 519.48,-184.26 529.02,-188.86 529.81,-181.9"/>
</g>
<!-- Node20&#45;&gt;Node5 -->
<g id="edge20" class="edge">
<title>Node20&#45;&gt;Node5</title>
<path fill="none" stroke="#63b8ff" d="M1401.05,-184.05C1253.65,-201.48 1079.63,-216.58 988.03,-223.87"/>
<polygon fill="#63b8ff" stroke="#63b8ff" points="987.94,-220.36 978.25,-224.64 988.49,-227.34 987.94,-220.36"/>
</g>
<!-- Node21&#45;&gt;Node5 -->
<g id="edge22" class="edge">
<title>Node21&#45;&gt;Node5</title>
<path fill="none" stroke="#63b8ff" d="M855.56,-184.36C870.55,-192.28 890.66,-204.06 905.4,-213.46"/>
<polygon fill="#63b8ff" stroke="#63b8ff" points="903.07,-216.12 913.35,-218.68 906.91,-210.27 903.07,-216.12"/>
</g>
<!-- Node22 -->
<g id="node22" class="node">
<title>Node22</title>
<g id="a_node22"><a xlink:title=" ">
<polygon fill="#e0e0e0" stroke="#999999" points="733,-129 704,-129 704,-110 733,-110 733,-129"/>
<text text-anchor="middle" x="718.5" y="-117" font-family="Helvetica,sans-Serif" font-size="10.00">list</text>
</a>
</g>
</g>
<!-- Node21&#45;&gt;Node22 -->
<g id="edge23" class="edge">
<title>Node21&#45;&gt;Node22</title>
<path fill="none" stroke="#63b8ff" d="M815.65,-164.51C795.78,-155.51 765.13,-141.62 743.58,-131.86"/>
<polygon fill="#63b8ff" stroke="#63b8ff" points="745.18,-128.74 734.62,-127.8 742.29,-135.12 745.18,-128.74"/>
</g>
<!-- Node21&#45;&gt;Node23 -->
<g id="edge24" class="edge">
<title>Node21&#45;&gt;Node23</title>
<path fill="none" stroke="#63b8ff" d="M881.96,-165.92C884.85,-165.58 887.71,-165.26 890.5,-165 1139.15,-141.48 1945.32,-124.55 2118.53,-121.14"/>
<polygon fill="#63b8ff" stroke="#63b8ff" points="2118.45,-124.64 2128.38,-120.94 2118.31,-117.64 2118.45,-124.64"/>
</g>
<!-- Node24 -->
<g id="node24" class="node">
<title>Node24</title>
<g id="a_node24"><a xlink:title=" ">
<polygon fill="#e0e0e0" stroke="#999999" points="1488.5,-129 1426.5,-129 1426.5,-110 1488.5,-110 1488.5,-129"/>
<text text-anchor="middle" x="1457.5" y="-117" font-family="Helvetica,sans-Serif" font-size="10.00">Skaldi.hpp</text>
</a>
</g>
</g>
<!-- Node21&#45;&gt;Node24 -->
<g id="edge25" class="edge">
<title>Node21&#45;&gt;Node24</title>
<path fill="none" stroke="#63b8ff" d="M881.98,-166.07C884.86,-165.68 887.72,-165.32 890.5,-165 1085.67,-142.29 1320.01,-128 1414.7,-122.76"/>
<polygon fill="#63b8ff" stroke="#63b8ff" points="1414.77,-126.26 1424.56,-122.22 1414.38,-119.27 1414.77,-126.26"/>
</g>
<!-- Node25&#45;&gt;Node5 -->
<g id="edge28" class="edge">
<title>Node25&#45;&gt;Node5</title>
<path fill="none" stroke="#63b8ff" d="M688.91,-184.49C740.46,-193.56 817.38,-207.6 869.21,-217.37"/>
<polygon fill="#63b8ff" stroke="#63b8ff" points="868.56,-220.81 879.04,-219.23 869.86,-213.93 868.56,-220.81"/>
</g>
<!-- Node25&#45;&gt;Node26 -->
<g id="edge29" class="edge">
<title>Node25&#45;&gt;Node26</title>
<path fill="none" stroke="#63b8ff" d="M617.88,-164.51C602.72,-156.31 580.08,-144.07 562.53,-134.58"/>
<polygon fill="#63b8ff" stroke="#63b8ff" points="564.67,-131.76 554.21,-130.08 561.34,-137.91 564.67,-131.76"/>
</g>
<!-- Node27 -->
<g id="node27" class="node">
<title>Node27</title>
<g id="a_node27"><a xlink:title=" ">
<polygon fill="#e0e0e0" stroke="#999999" points="647.5,-129 601.5,-129 601.5,-110 647.5,-110 647.5,-129"/>
<text text-anchor="middle" x="624.5" y="-117" font-family="Helvetica,sans-Serif" font-size="10.00">math.h</text>
</a>
</g>
</g>
<!-- Node25&#45;&gt;Node27 -->
<g id="edge31" class="edge">
<title>Node25&#45;&gt;Node27</title>
<path fill="none" stroke="#63b8ff" d="M632.85,-164.75C631.61,-158.19 629.87,-148.95 628.29,-140.6"/>
<polygon fill="#63b8ff" stroke="#63b8ff" points="631.76,-140.11 626.47,-130.93 624.88,-141.4 631.76,-140.11"/>
</g>
<!-- Node26&#45;&gt;Node5 -->
<g id="edge30" class="edge">
<title>Node26&#45;&gt;Node5</title>
<path fill="none" stroke="#63b8ff" d="M537.6,-129.15C539.88,-143.17 546.51,-170.63 564.5,-184 610.07,-217.88 770.1,-226.11 860.7,-228.01"/>
<polygon fill="#63b8ff" stroke="#63b8ff" points="860.62,-231.51 870.69,-228.2 860.75,-224.51 860.62,-231.51"/>
</g>
<!-- Node28&#45;&gt;Node5 -->
<g id="edge33" class="edge">
<title>Node28&#45;&gt;Node5</title>
<path fill="none" stroke="#63b8ff" d="M517.9,-182.97C611.28,-193.03 772.1,-210.82 860.97,-220.93"/>
<polygon fill="#63b8ff" stroke="#63b8ff" points="860.39,-224.39 870.72,-222.04 861.18,-217.43 860.39,-224.39"/>
</g>
<!-- Node29&#45;&gt;Node11 -->
<g id="edge36" class="edge">
<title>Node29&#45;&gt;Node11</title>
<path fill="none" stroke="#63b8ff" d="M191.55,-114.17C162.65,-108.97 129.21,-97.79 108.5,-74 98.15,-62.11 95.86,-44.08 95.89,-30.26"/>
<polygon fill="#63b8ff" stroke="#63b8ff" points="99.38,-30.72 96.34,-20.57 92.38,-30.4 99.38,-30.72"/>
</g>
<!-- Node29&#45;&gt;Node16 -->
<g id="edge39" class="edge">
<title>Node29&#45;&gt;Node16</title>
<path fill="none" stroke="#63b8ff" d="M272.74,-109.57C293.58,-101.66 323.52,-89.05 347.5,-74 369.28,-60.33 391.41,-40.74 405.93,-26.95"/>
<polygon fill="#63b8ff" stroke="#63b8ff" points="408.08,-29.74 412.83,-20.26 403.21,-24.71 408.08,-29.74"/>
</g>
<!-- Node30 -->
<g id="node30" class="node">
<title>Node30</title>
<g id="a_node30"><a xlink:title=" ">
<polygon fill="#e0e0e0" stroke="#999999" points="199.5,-19 143.5,-19 143.5,0 199.5,0 199.5,-19"/>
<text text-anchor="middle" x="171.5" y="-7" font-family="Helvetica,sans-Serif" font-size="10.00">algorithm</text>
</a>
</g>
</g>
<!-- Node29&#45;&gt;Node30 -->
<g id="edge37" class="edge">
<title>Node29&#45;&gt;Node30</title>
<path fill="none" stroke="#63b8ff" d="M240.28,-109.82C233.02,-100.98 221.64,-86.8 212.5,-74 201.9,-59.15 190.72,-41.69 182.71,-28.85"/>
<polygon fill="#63b8ff" stroke="#63b8ff" points="185.85,-27.26 177.61,-20.59 179.89,-30.93 185.85,-27.26"/>
</g>
<!-- Node31 -->
<g id="node31" class="node">
<title>Node31</title>
<g id="a_node31"><a xlink:title=" ">
<polygon fill="#e0e0e0" stroke="#999999" points="365.5,-19 327.5,-19 327.5,0 365.5,0 365.5,-19"/>
<text text-anchor="middle" x="346.5" y="-7" font-family="Helvetica,sans-Serif" font-size="10.00">array</text>
</a>
</g>
</g>
<!-- Node29&#45;&gt;Node31 -->
<g id="edge38" class="edge">
<title>Node29&#45;&gt;Node31</title>
<path fill="none" stroke="#63b8ff" d="M274.45,-109.59C291.91,-102.52 313.86,-90.97 327.5,-74 337.44,-61.63 342.19,-44.16 344.45,-30.67"/>
<polygon fill="#63b8ff" stroke="#63b8ff" points="347.92,-31.13 345.75,-20.76 340.98,-30.22 347.92,-31.13"/>
</g>
<!-- Node32 -->
<g id="node32" class="node">
<title>Node32</title>
<g id="a_node32"><a xlink:title=" ">
<polygon fill="#e0e0e0" stroke="#999999" points="269,-19 230,-19 230,0 269,0 269,-19"/>
<text text-anchor="middle" x="249.5" y="-7" font-family="Helvetica,sans-Serif" font-size="10.00">utility</text>
</a>
</g>
</g>
<!-- Node29&#45;&gt;Node32 -->
<g id="edge40" class="edge">
<title>Node29&#45;&gt;Node32</title>
<path fill="none" stroke="#63b8ff" d="M238.61,-109.76C227.57,-97.78 210.92,-75.43 217.5,-55 220.66,-45.19 226.87,-35.72 232.99,-28.05"/>
<polygon fill="#63b8ff" stroke="#63b8ff" points="235.57,-30.42 239.46,-20.57 230.27,-25.84 235.57,-30.42"/>
</g>
<!-- Node33 -->
<g id="node33" class="node">
<title>Node33</title>
<g id="a_node33"><a xlink:href="Vectors_8hpp.html" target="_top" xlink:title=" ">
<polygon fill="white" stroke="#666666" points="318.5,-74 226.5,-74 226.5,-55 318.5,-55 318.5,-74"/>
<text text-anchor="middle" x="272.5" y="-62" font-family="Helvetica,sans-Serif" font-size="10.00">Utils/Vectors.hpp</text>
</a>
</g>
</g>
<!-- Node29&#45;&gt;Node33 -->
<g id="edge41" class="edge">
<title>Node29&#45;&gt;Node33</title>
<path fill="none" stroke="#63b8ff" d="M251.63,-109.75C254.83,-102.96 259.39,-93.3 263.43,-84.73"/>
<polygon fill="#63b8ff" stroke="#63b8ff" points="266.54,-86.35 267.64,-75.81 260.2,-83.36 266.54,-86.35"/>
</g>
<!-- Node33&#45;&gt;Node11 -->
<g id="edge42" class="edge">
<title>Node33&#45;&gt;Node11</title>
<path fill="none" stroke="#63b8ff" d="M242.81,-54.51C213.24,-45.55 167.72,-31.77 135.52,-22.02"/>
<polygon fill="#63b8ff" stroke="#63b8ff" points="136.77,-18.74 126.19,-19.19 134.74,-25.44 136.77,-18.74"/>
</g>
<!-- Node33&#45;&gt;Node16 -->
<g id="edge45" class="edge">
<title>Node33&#45;&gt;Node16</title>
<path fill="none" stroke="#63b8ff" d="M297.95,-54.51C323.22,-45.58 362.08,-31.85 389.66,-22.1"/>
<polygon fill="#63b8ff" stroke="#63b8ff" points="390.67,-25.46 398.93,-18.83 388.34,-18.86 390.67,-25.46"/>
</g>
<!-- Node33&#45;&gt;Node30 -->
<g id="edge43" class="edge">
<title>Node33&#45;&gt;Node30</title>
<path fill="none" stroke="#63b8ff" d="M255.37,-54.51C239.75,-46.31 216.42,-34.07 198.33,-24.58"/>
<polygon fill="#63b8ff" stroke="#63b8ff" points="200.2,-21.61 189.72,-20.06 196.95,-27.81 200.2,-21.61"/>
</g>
<!-- Node33&#45;&gt;Node31 -->
<g id="edge44" class="edge">
<title>Node33&#45;&gt;Node31</title>
<path fill="none" stroke="#63b8ff" d="M285.05,-54.51C295.96,-46.7 312,-35.21 324.96,-25.93"/>
<polygon fill="#63b8ff" stroke="#63b8ff" points="326.81,-28.91 332.9,-20.24 322.73,-23.22 326.81,-28.91"/>
</g>
<!-- Node33&#45;&gt;Node32 -->
<g id="edge46" class="edge">
<title>Node33&#45;&gt;Node32</title>
<path fill="none" stroke="#63b8ff" d="M268.7,-54.75C265.76,-47.96 261.56,-38.3 257.85,-29.73"/>
<polygon fill="#63b8ff" stroke="#63b8ff" points="261.17,-28.61 253.98,-20.83 254.75,-31.4 261.17,-28.61"/>
</g>
<!-- Node34&#45;&gt;Node11 -->
<g id="edge48" class="edge">
<title>Node34&#45;&gt;Node11</title>
<path fill="none" stroke="#63b8ff" d="M44.51,-164.74C53.21,-139.42 78.53,-65.72 90.75,-30.16"/>
<polygon fill="#63b8ff" stroke="#63b8ff" points="94.04,-31.33 93.98,-20.74 87.42,-29.06 94.04,-31.33"/>
</g>
<!-- Node34&#45;&gt;Node16 -->
<g id="edge50" class="edge">
<title>Node34&#45;&gt;Node16</title>
<path fill="none" stroke="#63b8ff" d="M83.3,-166.91C157.82,-155.11 306.35,-131.4 311.5,-129 357.95,-107.32 394.42,-56.64 411.65,-29.11"/>
<polygon fill="#63b8ff" stroke="#63b8ff" points="414.51,-31.15 416.69,-20.78 408.52,-27.52 414.51,-31.15"/>
</g>
<!-- Node34&#45;&gt;Node22 -->
<g id="edge49" class="edge">
<title>Node34&#45;&gt;Node22</title>
<path fill="none" stroke="#63b8ff" d="M83.38,-170.63C212.61,-161.74 599.87,-134.92 656.5,-129 668.4,-127.75 681.54,-126.01 692.65,-124.42"/>
<polygon fill="#63b8ff" stroke="#63b8ff" points="692.87,-127.93 702.25,-123.01 691.85,-121 692.87,-127.93"/>
</g>
<!-- Node35&#45;&gt;Node5 -->
<g id="edge54" class="edge">
<title>Node35&#45;&gt;Node5</title>
<path fill="none" stroke="#63b8ff" d="M368.77,-277.7C490.42,-267.37 742.99,-245.92 861.07,-235.89"/>
<polygon fill="#63b8ff" stroke="#63b8ff" points="861.24,-239.39 870.9,-235.05 860.64,-232.41 861.24,-239.39"/>
</g>
<!-- Node35&#45;&gt;Node16 -->
<g id="edge57" class="edge">
<title>Node35&#45;&gt;Node16</title>
<path fill="none" stroke="#63b8ff" d="M293.3,-274.88C282.11,-261.85 259.45,-236.88 236.5,-220 205.19,-196.97 143.99,-195.17 168.5,-165 217.74,-104.38 270.87,-164.37 340.5,-129 373.05,-112.47 381.55,-104.57 401.5,-74 410.16,-60.74 415.55,-43.58 418.7,-30.44"/>
<polygon fill="#63b8ff" stroke="#63b8ff" points="422.09,-31.33 420.75,-20.82 415.24,-29.87 422.09,-31.33"/>
</g>
<!-- Node35&#45;&gt;Node26 -->
<g id="edge55" class="edge">
<title>Node35&#45;&gt;Node26</title>
<path fill="none" stroke="#63b8ff" d="M233.86,-274.51C211.73,-268.17 189.05,-257.37 174.5,-239 154.01,-213.14 146.61,-189.69 168.5,-165 178.67,-153.52 377.8,-134.46 478.79,-125.47"/>
<polygon fill="#63b8ff" stroke="#63b8ff" points="478.86,-128.98 488.51,-124.62 478.24,-122.01 478.86,-128.98"/>
</g>
<!-- Node35&#45;&gt;Node27 -->
<g id="edge56" class="edge">
<title>Node35&#45;&gt;Node27</title>
<path fill="none" stroke="#63b8ff" d="M302.45,-274.56C307.88,-252.03 325.39,-192.71 364.5,-165 445,-107.96 488.45,-146.89 590.11,-128.94"/>
<polygon fill="#63b8ff" stroke="#63b8ff" points="590.49,-132.43 599.64,-127.1 589.16,-125.56 590.49,-132.43"/>
</g>
<!-- Node36 -->
<g id="node36" class="node">
<title>Node36</title>
<g id="a_node36"><a xlink:title=" ">
<polygon fill="#e0e0e0" stroke="#999999" points="227.5,-239 183.5,-239 183.5,-220 227.5,-220 227.5,-239"/>
<text text-anchor="middle" x="205.5" y="-227" font-family="Helvetica,sans-Serif" font-size="10.00">cmath</text>
</a>
</g>
</g>
<!-- Node35&#45;&gt;Node36 -->
<g id="edge58" class="edge">
<title>Node35&#45;&gt;Node36</title>
<path fill="none" stroke="#63b8ff" d="M284.38,-274.51C269.83,-266.39 248.16,-254.3 231.21,-244.85"/>
<polygon fill="#63b8ff" stroke="#63b8ff" points="233.14,-241.91 222.7,-240.1 229.73,-248.02 233.14,-241.91"/>
</g>
<!-- Node37&#45;&gt;Node3 -->
<g id="edge60" class="edge">
<title>Node37&#45;&gt;Node3</title>
<path fill="none" stroke="#63b8ff" d="M732.69,-388.37C674.49,-379.27 552.62,-360.22 481.44,-349.09"/>
<polygon fill="#63b8ff" stroke="#63b8ff" points="482.38,-345.69 471.96,-347.61 481.3,-352.61 482.38,-345.69"/>
</g>
<!-- Node38 -->
<g id="node38" class="node">
<title>Node38</title>
<g id="a_node38"><a xlink:href="Bouton_8hpp.html" target="_top" xlink:title=" ">
<polygon fill="white" stroke="#666666" points="861,-349 738,-349 738,-330 861,-330 861,-349"/>
<text text-anchor="middle" x="799.5" y="-337" font-family="Helvetica,sans-Serif" font-size="10.00">Components/Bouton.hpp</text>
</a>
</g>
</g>
<!-- Node37&#45;&gt;Node38 -->
<g id="edge61" class="edge">
<title>Node37&#45;&gt;Node38</title>
<path fill="none" stroke="#63b8ff" d="M771.11,-384.75C775.62,-377.73 782.09,-367.64 787.71,-358.87"/>
<polygon fill="#63b8ff" stroke="#63b8ff" points="790.49,-361.02 792.95,-350.72 784.6,-357.24 790.49,-361.02"/>
</g>
<!-- Node38&#45;&gt;Node5 -->
<g id="edge62" class="edge">
<title>Node38&#45;&gt;Node5</title>
<path fill="none" stroke="#63b8ff" d="M800,-329.55C801.21,-316.1 805.35,-290.57 819.5,-275 833.19,-259.93 852.82,-249.79 871.41,-243.05"/>
<polygon fill="#63b8ff" stroke="#63b8ff" points="872.37,-246.42 880.75,-239.94 870.16,-239.78 872.37,-246.42"/>
</g>
<!-- Node39 -->
<g id="node39" class="node">
<title>Node39</title>
<g id="a_node39"><a xlink:title=" ">
<polygon fill="#e0e0e0" stroke="#999999" points="887,-294 828,-294 828,-275 887,-275 887,-294"/>
<text text-anchor="middle" x="857.5" y="-282" font-family="Helvetica,sans-Serif" font-size="10.00">functional</text>
</a>
</g>
</g>
<!-- Node38&#45;&gt;Node39 -->
<g id="edge63" class="edge">
<title>Node38&#45;&gt;Node39</title>
<path fill="none" stroke="#63b8ff" d="M809.34,-329.51C817.55,-322 829.48,-311.1 839.41,-302.03"/>
<polygon fill="#63b8ff" stroke="#63b8ff" points="841.67,-304.71 846.69,-295.38 836.95,-299.54 841.67,-304.71"/>
</g>
<!-- Node40&#45;&gt;Node3 -->
<g id="edge65" class="edge">
<title>Node40&#45;&gt;Node3</title>
<path fill="none" stroke="#63b8ff" d="M1995.38,-392.08C1770.51,-384.69 732.95,-350.58 481.5,-342.31"/>
<polygon fill="#63b8ff" stroke="#63b8ff" points="481.75,-338.81 471.64,-341.98 481.52,-345.81 481.75,-338.81"/>
</g>
<!-- Node40&#45;&gt;Node23 -->
<g id="edge66" class="edge">
<title>Node40&#45;&gt;Node23</title>
<path fill="none" stroke="#63b8ff" d="M2073.74,-384.56C2093.57,-377.83 2117.32,-366.67 2132.5,-349 2151.7,-326.65 2151.5,-314.96 2151.5,-285.5 2151.5,-285.5 2151.5,-285.5 2151.5,-228.5 2151.5,-197.92 2151.5,-162.48 2151.5,-140.77"/>
<polygon fill="#63b8ff" stroke="#63b8ff" points="2155,-140.97 2151.5,-130.97 2148,-140.97 2155,-140.97"/>
</g>
<!-- Node40&#45;&gt;Node24 -->
<g id="edge70" class="edge">
<title>Node40&#45;&gt;Node24</title>
<path fill="none" stroke="#63b8ff" d="M2030.56,-384.75C2023.47,-376.3 2013.6,-362.79 2009.5,-349 2007.1,-340.91 2007.3,-338.15 2009.5,-330 2030.99,-250.36 2150.76,-225.33 2094.5,-165 2054.05,-121.62 1636.05,-119.67 1500.02,-120.2"/>
<polygon fill="#63b8ff" stroke="#63b8ff" points="1500.36,-116.7 1490.38,-120.24 1500.39,-123.7 1500.36,-116.7"/>
</g>
<!-- Node40&#45;&gt;Node31 -->
<g id="edge67" class="edge">
<title>Node40&#45;&gt;Node31</title>
<path fill="none" stroke="#63b8ff" d="M2081.86,-388.02C2137.66,-378.27 2227.5,-352.2 2227.5,-285.5 2227.5,-285.5 2227.5,-285.5 2227.5,-118.5 2227.5,-16.35 492.93,-31.1 391.5,-19 386.7,-18.43 381.65,-17.65 376.73,-16.79"/>
<polygon fill="#63b8ff" stroke="#63b8ff" points="377.64,-13.4 367.17,-15 376.35,-20.28 377.64,-13.4"/>
</g>
<!-- Node41 -->
<g id="node41" class="node">
<title>Node41</title>
<g id="a_node41"><a xlink:title=" ">
<polygon fill="#e0e0e0" stroke="#999999" points="2059,-349 2018,-349 2018,-330 2059,-330 2059,-349"/>
<text text-anchor="middle" x="2038.5" y="-337" font-family="Helvetica,sans-Serif" font-size="10.00">string</text>
</a>
</g>
</g>
<!-- Node40&#45;&gt;Node41 -->
<g id="edge68" class="edge">
<title>Node40&#45;&gt;Node41</title>
<path fill="none" stroke="#63b8ff" d="M2038.5,-384.75C2038.5,-378.27 2038.5,-369.16 2038.5,-360.9"/>
<polygon fill="#63b8ff" stroke="#63b8ff" points="2042,-360.96 2038.5,-350.96 2035,-360.96 2042,-360.96"/>
</g>
<!-- Node42 -->
<g id="node42" class="node">
<title>Node42</title>
<g id="a_node42"><a xlink:title=" ">
<polygon fill="#e0e0e0" stroke="#999999" points="2123.5,-349 2077.5,-349 2077.5,-330 2123.5,-330 2123.5,-349"/>
<text text-anchor="middle" x="2100.5" y="-337" font-family="Helvetica,sans-Serif" font-size="10.00">cstring</text>
</a>
</g>
</g>
<!-- Node40&#45;&gt;Node42 -->
<g id="edge69" class="edge">
<title>Node40&#45;&gt;Node42</title>
<path fill="none" stroke="#63b8ff" d="M2049.02,-384.51C2057.89,-376.93 2070.81,-365.88 2081.49,-356.75"/>
<polygon fill="#63b8ff" stroke="#63b8ff" points="2083.66,-359.5 2088.99,-350.34 2079.11,-354.18 2083.66,-359.5"/>
</g>
</g>
</svg>
        <g id="navigator" transform="translate(0 0)" fill="#404254">
                <rect fill="#f2f5e9" fill-opacity="0.5" stroke="#606060" stroke-width=".5" x="0" y="0" width="60" height="60"/>
                <use id="zoomplus" xlink:href="#zoomPlus" x="17" y="9" onmousedown="handleZoom(evt,'in')"/>
                <use id="zoomminus" xlink:href="#zoomMin" x="42" y="9" onmousedown="handleZoom(evt,'out')"/>
                <use id="reset" xlink:href="#resetDef" x="30" y="36" onmousedown="handleReset()"/>
                <g id="arrowUp" xlink:href="#dirArrow" transform="translate(30 24)" onmousedown="handlePan(0,-1)">
                  <use xlink:href="#rim" fill="#404040">
                        <set attributeName="fill" to="#808080" begin="arrowUp.mouseover" end="arrowUp.mouseout"/>
                  </use>
                  <path fill="none" stroke="white" stroke-width="1.5" d="M0,-3.0v7 M-2.5,-0.5L0,-3.0L2.5,-0.5"/>
                </g>
                <g id="arrowRight" xlink:href="#dirArrow" transform="rotate(90) translate(36 -43)" onmousedown="handlePan(1,0)">
                  <use xlink:href="#rim" fill="#404040">
                        <set attributeName="fill" to="#808080" begin="arrowRight.mouseover" end="arrowRight.mouseout"/>
                  </use>
                  <path fill="none" stroke="white" stroke-width="1.5" d="M0,-3.0v7 M-2.5,-0.5L0,-3.0L2.5,-0.5"/>
                </g>
                <g id="arrowDown" xlink:href="#dirArrow" transform="rotate(180) translate(-30 -48)" onmousedown="handlePan(0,1)">
                  <use xlink:href="#rim" fill="#404040">
                        <set attributeName="fill" to="#808080" begin="arrowDown.mouseover" end="arrowDown.mouseout"/>
                  </use>
                  <path fill="none" stroke="white" stroke-width="1.5" d="M0,-3.0v7 M-2.5,-0.5L0,-3.0L2.5,-0.5"/>
                </g>
                <g id="arrowLeft" xlink:href="#dirArrow" transform="rotate(270) translate(-36 17)" onmousedown="handlePan(-1,0)">
                  <use xlink:href="#rim" fill="#404040">
                        <set attributeName="fill" to="#808080" begin="arrowLeft.mouseover" end="arrowLeft.mouseout"/>
                  </use>
                  <path fill="none" stroke="white" stroke-width="1.5" d="M0,-3.0v7 M-2.5,-0.5L0,-3.0L2.5,-0.5"/>
                </g>
        </g>
        <svg viewBox="0 0 15 15" width="100%" height="30px" preserveAspectRatio="xMaxYMin meet">
         <g id="arrow_out" transform="scale(0.3 0.3)">
          <a xlink:href="GameEngine_8hpp__incl_org.svg" target="_base">
           <rect id="button" ry="5" rx="5" y="6" x="6" height="38" width="38"
                fill="#f2f5e9" fill-opacity="0.5" stroke="#606060" stroke-width="1.0"/>
           <path id="arrow"
             d="M 11.500037,31.436501 C 11.940474,20.09759 22.043105,11.32322 32.158766,21.979434 L 37.068811,17.246167 C 37.068811,17.246167 37.088388,32 37.088388,32 L 22.160133,31.978069 C 22.160133,31.978069 26.997745,27.140456 26.997745,27.140456 C 18.528582,18.264221 13.291696,25.230495 11.500037,31.436501 z"
             style="fill:#404040;"/>
          </a>
         </g>
        </svg>
</svg>
