<?xml version="1.0" encoding="UTF-8" standalone="no"?>
<!DOCTYPE svg PUBLIC "-//W3C//DTD SVG 1.1//EN"
 "http://www.w3.org/Graphics/SVG/1.1/DTD/svg11.dtd">
<!-- Generated by graphviz version 7.0.5 (20221223.1930)
 -->
<!-- Title: /github/workspace/client/include/system/GameEngine.hpp Pages: 1 -->
<svg width="2013pt" height="368pt"
 viewBox="0.00 0.00 2012.50 368.00" xmlns="http://www.w3.org/2000/svg" xmlns:xlink="http://www.w3.org/1999/xlink">
<g id="graph0" class="graph" transform="scale(1 1) rotate(0) translate(4 364)">
<title>/github/workspace/client/include/system/GameEngine.hpp</title>
<!-- Node1 -->
<g id="node1" class="node">
<title>Node1</title>
<g id="a_node1"><a xlink:title=" ">
<polygon fill="#999999" stroke="#666666" points="2004.5,-360 1843.5,-360 1843.5,-330 2004.5,-330 2004.5,-360"/>
<text text-anchor="start" x="1851.5" y="-348" font-family="Helvetica,sans-Serif" font-size="10.00">/github/workspace/client</text>
<text text-anchor="middle" x="1924" y="-337" font-family="Helvetica,sans-Serif" font-size="10.00">/include/system/GameEngine.hpp</text>
</a>
</g>
</g>
<!-- Node2 -->
<g id="node2" class="node">
<title>Node2</title>
<g id="a_node2"><a xlink:href="SGamePlay_8hpp.html" target="_top" xlink:title=" ">
<polygon fill="white" stroke="#666666" points="1886,-294 1710,-294 1710,-275 1886,-275 1886,-294"/>
<text text-anchor="middle" x="1798" y="-282" font-family="Helvetica,sans-Serif" font-size="10.00">system/gameStates/SGamePlay.hpp</text>
</a>
</g>
</g>
<!-- Node1&#45;&gt;Node2 -->
<g id="edge1" class="edge">
<title>Node1&#45;&gt;Node2</title>
<path fill="none" stroke="#63b8ff" d="M1892.85,-329.54C1872.81,-320.23 1846.92,-308.22 1827.26,-299.09"/>
<polygon fill="#63b8ff" stroke="#63b8ff" points="1828.97,-296.02 1818.43,-294.98 1826.02,-302.37 1828.97,-296.02"/>
</g>
<!-- Node24 -->
<g id="node24" class="node">
<title>Node24</title>
<g id="a_node24"><a xlink:title=" ">
<polygon fill="#e0e0e0" stroke="#999999" points="1809.5,-19 1766.5,-19 1766.5,0 1809.5,0 1809.5,-19"/>
<text text-anchor="middle" x="1788" y="-7" font-family="Helvetica,sans-Serif" font-size="10.00">queue</text>
</a>
</g>
</g>
<!-- Node1&#45;&gt;Node24 -->
<g id="edge43" class="edge">
<title>Node1&#45;&gt;Node24</title>
<path fill="none" stroke="#63b8ff" d="M1924,-329.67C1924,-308.14 1924,-266.17 1924,-230.5 1924,-230.5 1924,-230.5 1924,-118.5 1924,-65.86 1860.75,-34.79 1820.52,-20.35"/>
<polygon fill="#63b8ff" stroke="#63b8ff" points="1821.88,-17.12 1811.28,-17.2 1819.62,-23.74 1821.88,-17.12"/>
</g>
<!-- Node25 -->
<g id="node25" class="node">
<title>Node25</title>
<g id="a_node25"><a xlink:title=" ">
<polygon fill="#e0e0e0" stroke="#999999" points="1917,-19 1855,-19 1855,0 1917,0 1917,-19"/>
<text text-anchor="middle" x="1886" y="-7" font-family="Helvetica,sans-Serif" font-size="10.00">Skaldi.hpp</text>
</a>
</g>
</g>
<!-- Node1&#45;&gt;Node25 -->
<g id="edge42" class="edge">
<title>Node1&#45;&gt;Node25</title>
<path fill="none" stroke="#63b8ff" d="M1932.06,-329.82C1943.21,-308.82 1962,-267.9 1962,-230.5 1962,-230.5 1962,-230.5 1962,-118.5 1962,-88.33 1955.34,-79.69 1938,-55 1930.14,-43.8 1918.82,-33.67 1908.75,-25.91"/>
<polygon fill="#63b8ff" stroke="#63b8ff" points="1910.99,-23.22 1900.86,-20.14 1906.86,-28.87 1910.99,-23.22"/>
</g>
<!-- Node3 -->
<g id="node3" class="node">
<title>Node3</title>
<g id="a_node3"><a xlink:href="IGameState_8hpp.html" target="_top" xlink:title=" ">
<polygon fill="white" stroke="#666666" points="1759.5,-239 1582.5,-239 1582.5,-220 1759.5,-220 1759.5,-239"/>
<text text-anchor="middle" x="1671" y="-227" font-family="Helvetica,sans-Serif" font-size="10.00">system/gameStates/IGameState.hpp</text>
</a>
</g>
</g>
<!-- Node2&#45;&gt;Node3 -->
<g id="edge2" class="edge">
<title>Node2&#45;&gt;Node3</title>
<path fill="none" stroke="#63b8ff" d="M1776.46,-274.51C1756.26,-266.08 1725.83,-253.38 1702.84,-243.79"/>
<polygon fill="#63b8ff" stroke="#63b8ff" points="1704.2,-240.56 1693.62,-239.94 1701.5,-247.02 1704.2,-240.56"/>
</g>
<!-- Node2&#45;&gt;Node24 -->
<g id="edge38" class="edge">
<title>Node2&#45;&gt;Node24</title>
<path fill="none" stroke="#63b8ff" d="M1796.61,-274.57C1793.86,-256.11 1788,-212.41 1788,-175.5 1788,-175.5 1788,-175.5 1788,-118.5 1788,-87.92 1788,-52.48 1788,-30.77"/>
<polygon fill="#63b8ff" stroke="#63b8ff" points="1791.5,-30.97 1788,-20.97 1784.5,-30.97 1791.5,-30.97"/>
</g>
<!-- Node2&#45;&gt;Node25 -->
<g id="edge41" class="edge">
<title>Node2&#45;&gt;Node25</title>
<path fill="none" stroke="#63b8ff" d="M1819.63,-274.51C1834.94,-267.1 1854.84,-255.18 1867,-239 1884.7,-215.45 1886,-204.96 1886,-175.5 1886,-175.5 1886,-175.5 1886,-118.5 1886,-87.92 1886,-52.48 1886,-30.77"/>
<polygon fill="#63b8ff" stroke="#63b8ff" points="1889.5,-30.97 1886,-20.97 1882.5,-30.97 1889.5,-30.97"/>
</g>
<!-- Node31 -->
<g id="node31" class="node">
<title>Node31</title>
<g id="a_node31"><a xlink:title=" ">
<polygon fill="#e0e0e0" stroke="#999999" points="1857.5,-239 1816.5,-239 1816.5,-220 1857.5,-220 1857.5,-239"/>
<text text-anchor="middle" x="1837" y="-227" font-family="Helvetica,sans-Serif" font-size="10.00">string</text>
</a>
</g>
</g>
<!-- Node2&#45;&gt;Node31 -->
<g id="edge39" class="edge">
<title>Node2&#45;&gt;Node31</title>
<path fill="none" stroke="#63b8ff" d="M1804.44,-274.75C1809.66,-267.66 1817.19,-257.42 1823.69,-248.59"/>
<polygon fill="#63b8ff" stroke="#63b8ff" points="1826.42,-250.79 1829.52,-240.66 1820.78,-246.64 1826.42,-250.79"/>
</g>
<!-- Node32 -->
<g id="node32" class="node">
<title>Node32</title>
<g id="a_node32"><a xlink:title=" ">
<polygon fill="#e0e0e0" stroke="#999999" points="1564,-239 1518,-239 1518,-220 1564,-220 1564,-239"/>
<text text-anchor="middle" x="1541" y="-227" font-family="Helvetica,sans-Serif" font-size="10.00">cstring</text>
</a>
</g>
</g>
<!-- Node2&#45;&gt;Node32 -->
<g id="edge40" class="edge">
<title>Node2&#45;&gt;Node32</title>
<path fill="none" stroke="#63b8ff" d="M1748.89,-274.56C1705.8,-266.54 1641.18,-254.06 1575.39,-239.2"/>
<polygon fill="#63b8ff" stroke="#63b8ff" points="1576.4,-235.84 1565.87,-237.03 1574.85,-242.67 1576.4,-235.84"/>
</g>
<!-- Node4 -->
<g id="node4" class="node">
<title>Node4</title>
<g id="a_node4"><a xlink:href="EntitiesManager_8hpp.html" target="_top" xlink:title=" ">
<polygon fill="white" stroke="#666666" points="1741,-184 1601,-184 1601,-165 1741,-165 1741,-184"/>
<text text-anchor="middle" x="1671" y="-172" font-family="Helvetica,sans-Serif" font-size="10.00">Entities/EntitiesManager.hpp</text>
</a>
</g>
</g>
<!-- Node3&#45;&gt;Node4 -->
<g id="edge3" class="edge">
<title>Node3&#45;&gt;Node4</title>
<path fill="none" stroke="#63b8ff" d="M1671,-219.75C1671,-213.27 1671,-204.16 1671,-195.9"/>
<polygon fill="#63b8ff" stroke="#63b8ff" points="1674.5,-195.96 1671,-185.96 1667.5,-195.96 1674.5,-195.96"/>
</g>
<!-- Node30 -->
<g id="node30" class="node">
<title>Node30</title>
<g id="a_node30"><a xlink:title=" ">
<polygon fill="#e0e0e0" stroke="#999999" points="1582.5,-184 1499.5,-184 1499.5,-165 1582.5,-165 1582.5,-184"/>
<text text-anchor="middle" x="1541" y="-172" font-family="Helvetica,sans-Serif" font-size="10.00">Utils/String.hpp</text>
</a>
</g>
</g>
<!-- Node3&#45;&gt;Node30 -->
<g id="edge37" class="edge">
<title>Node3&#45;&gt;Node30</title>
<path fill="none" stroke="#63b8ff" d="M1648.95,-219.51C1628.19,-211.04 1596.84,-198.27 1573.27,-188.66"/>
<polygon fill="#63b8ff" stroke="#63b8ff" points="1574.71,-185.46 1564.13,-184.93 1572.07,-191.95 1574.71,-185.46"/>
</g>
<!-- Node5 -->
<g id="node5" class="node">
<title>Node5</title>
<g id="a_node5"><a xlink:href="Engine_8hpp.html" target="_top" xlink:title=" ">
<polygon fill="white" stroke="#666666" points="1073,-129 969,-129 969,-110 1073,-110 1073,-129"/>
<text text-anchor="middle" x="1021" y="-117" font-family="Helvetica,sans-Serif" font-size="10.00">../Engine/Engine.hpp</text>
</a>
</g>
</g>
<!-- Node4&#45;&gt;Node5 -->
<g id="edge4" class="edge">
<title>Node4&#45;&gt;Node5</title>
<path fill="none" stroke="#63b8ff" d="M1600.82,-166.73C1594.77,-166.12 1588.77,-165.54 1583,-165 1402.16,-148.23 1188.7,-132.74 1084.49,-125.24"/>
<polygon fill="#63b8ff" stroke="#63b8ff" points="1084.98,-121.76 1074.75,-124.53 1084.48,-128.74 1084.98,-121.76"/>
</g>
<!-- Node16 -->
<g id="node16" class="node">
<title>Node16</title>
<g id="a_node16"><a xlink:title=" ">
<polygon fill="#e0e0e0" stroke="#999999" points="1760,-74 1716,-74 1716,-55 1760,-55 1760,-74"/>
<text text-anchor="middle" x="1738" y="-62" font-family="Helvetica,sans-Serif" font-size="10.00">vector</text>
</a>
</g>
</g>
<!-- Node4&#45;&gt;Node16 -->
<g id="edge36" class="edge">
<title>Node4&#45;&gt;Node16</title>
<path fill="none" stroke="#63b8ff" d="M1676.61,-164.65C1682.28,-155.69 1691.29,-141.4 1699,-129 1708.4,-113.87 1718.97,-96.65 1726.73,-83.96"/>
<polygon fill="#63b8ff" stroke="#63b8ff" points="1729.72,-85.8 1731.94,-75.44 1723.74,-82.15 1729.72,-85.8"/>
</g>
<!-- Node29 -->
<g id="node29" class="node">
<title>Node29</title>
<g id="a_node29"><a xlink:title=" ">
<polygon fill="#e0e0e0" stroke="#999999" points="1690,-129 1652,-129 1652,-110 1690,-110 1690,-129"/>
<text text-anchor="middle" x="1671" y="-117" font-family="Helvetica,sans-Serif" font-size="10.00">array</text>
</a>
</g>
</g>
<!-- Node4&#45;&gt;Node29 -->
<g id="edge35" class="edge">
<title>Node4&#45;&gt;Node29</title>
<path fill="none" stroke="#63b8ff" d="M1671,-164.75C1671,-158.27 1671,-149.16 1671,-140.9"/>
<polygon fill="#63b8ff" stroke="#63b8ff" points="1674.5,-140.96 1671,-130.96 1667.5,-140.96 1674.5,-140.96"/>
</g>
<!-- Node5&#45;&gt;Node4 -->
<g id="edge31" class="edge">
<title>Node5&#45;&gt;Node4</title>
<path fill="none" stroke="#63b8ff" d="M1073.33,-123.72C1173.2,-130.34 1397.63,-146.34 1589.22,-163.91"/>
<polygon fill="#63b8ff" stroke="#63b8ff" points="1588.84,-167.39 1599.12,-164.83 1589.49,-160.42 1588.84,-167.39"/>
</g>
<!-- Node6 -->
<g id="node6" class="node">
<title>Node6</title>
<g id="a_node6"><a xlink:title=" ">
<polygon fill="#e0e0e0" stroke="#999999" points="770.5,-74 681.5,-74 681.5,-55 770.5,-55 770.5,-74"/>
<text text-anchor="middle" x="726" y="-62" font-family="Helvetica,sans-Serif" font-size="10.00">SFML/Audio.hpp</text>
</a>
</g>
</g>
<!-- Node5&#45;&gt;Node6 -->
<g id="edge5" class="edge">
<title>Node5&#45;&gt;Node6</title>
<path fill="none" stroke="#63b8ff" d="M970.96,-109.51C918.62,-100.11 836.67,-85.38 782.16,-75.59"/>
<polygon fill="#63b8ff" stroke="#63b8ff" points="782.91,-72.17 772.45,-73.85 781.68,-79.06 782.91,-72.17"/>
</g>
<!-- Node7 -->
<g id="node7" class="node">
<title>Node7</title>
<g id="a_node7"><a xlink:title=" ">
<polygon fill="#e0e0e0" stroke="#999999" points="893,-74 789,-74 789,-55 893,-55 893,-74"/>
<text text-anchor="middle" x="841" y="-62" font-family="Helvetica,sans-Serif" font-size="10.00">SFML/Graphics.hpp</text>
</a>
</g>
</g>
<!-- Node5&#45;&gt;Node7 -->
<g id="edge6" class="edge">
<title>Node5&#45;&gt;Node7</title>
<path fill="none" stroke="#63b8ff" d="M990.47,-109.51C960.64,-100.73 915.04,-87.3 882.05,-77.59"/>
<polygon fill="#63b8ff" stroke="#63b8ff" points="883.42,-74.34 872.84,-74.87 881.44,-81.06 883.42,-74.34"/>
</g>
<!-- Node8 -->
<g id="node8" class="node">
<title>Node8</title>
<g id="a_node8"><a xlink:title=" ">
<polygon fill="#e0e0e0" stroke="#999999" points="1012.5,-74 911.5,-74 911.5,-55 1012.5,-55 1012.5,-74"/>
<text text-anchor="middle" x="962" y="-62" font-family="Helvetica,sans-Serif" font-size="10.00">SFML/Network.hpp</text>
</a>
</g>
</g>
<!-- Node5&#45;&gt;Node8 -->
<g id="edge7" class="edge">
<title>Node5&#45;&gt;Node8</title>
<path fill="none" stroke="#63b8ff" d="M1010.99,-109.51C1002.63,-102 990.5,-91.1 980.4,-82.03"/>
<polygon fill="#63b8ff" stroke="#63b8ff" points="982.76,-79.45 972.99,-75.37 978.09,-84.66 982.76,-79.45"/>
</g>
<!-- Node9 -->
<g id="node9" class="node">
<title>Node9</title>
<g id="a_node9"><a xlink:title=" ">
<polygon fill="#e0e0e0" stroke="#999999" points="1129.5,-74 1030.5,-74 1030.5,-55 1129.5,-55 1129.5,-74"/>
<text text-anchor="middle" x="1080" y="-62" font-family="Helvetica,sans-Serif" font-size="10.00">SFML/Window.hpp</text>
</a>
</g>
</g>
<!-- Node5&#45;&gt;Node9 -->
<g id="edge8" class="edge">
<title>Node5&#45;&gt;Node9</title>
<path fill="none" stroke="#63b8ff" d="M1031.01,-109.51C1039.37,-102 1051.5,-91.1 1061.6,-82.03"/>
<polygon fill="#63b8ff" stroke="#63b8ff" points="1063.91,-84.66 1069.01,-75.37 1059.24,-79.45 1063.91,-84.66"/>
</g>
<!-- Node10 -->
<g id="node10" class="node">
<title>Node10</title>
<g id="a_node10"><a xlink:title=" ">
<polygon fill="#e0e0e0" stroke="#999999" points="1558,-74 1460,-74 1460,-55 1558,-55 1558,-74"/>
<text text-anchor="middle" x="1509" y="-62" font-family="Helvetica,sans-Serif" font-size="10.00">SFML/System.hpp</text>
</a>
</g>
</g>
<!-- Node5&#45;&gt;Node10 -->
<g id="edge9" class="edge">
<title>Node5&#45;&gt;Node10</title>
<path fill="none" stroke="#63b8ff" d="M1073.37,-113.8C1152.37,-106.56 1306.98,-91.76 1448.62,-74.25"/>
<polygon fill="#63b8ff" stroke="#63b8ff" points="1448.67,-77.77 1458.16,-73.06 1447.8,-70.82 1448.67,-77.77"/>
</g>
<!-- Node11 -->
<g id="node11" class="node">
<title>Node11</title>
<g id="a_node11"><a xlink:title=" ">
<polygon fill="#e0e0e0" stroke="#999999" points="1630,-74 1576,-74 1576,-55 1630,-55 1630,-74"/>
<text text-anchor="middle" x="1603" y="-62" font-family="Helvetica,sans-Serif" font-size="10.00">iostream</text>
</a>
</g>
</g>
<!-- Node5&#45;&gt;Node11 -->
<g id="edge10" class="edge">
<title>Node5&#45;&gt;Node11</title>
<path fill="none" stroke="#63b8ff" d="M1073.26,-116.86C1168.87,-113.29 1378.49,-102.83 1564.22,-74.2"/>
<polygon fill="#63b8ff" stroke="#63b8ff" points="1564.73,-77.67 1574.07,-72.66 1563.65,-70.75 1564.73,-77.67"/>
</g>
<!-- Node12 -->
<g id="node12" class="node">
<title>Node12</title>
<g id="a_node12"><a xlink:title=" ">
<polygon fill="#e0e0e0" stroke="#999999" points="1698,-74 1648,-74 1648,-55 1698,-55 1698,-74"/>
<text text-anchor="middle" x="1673" y="-62" font-family="Helvetica,sans-Serif" font-size="10.00">fstream</text>
</a>
</g>
</g>
<!-- Node5&#45;&gt;Node12 -->
<g id="edge11" class="edge">
<title>Node5&#45;&gt;Node12</title>
<path fill="none" stroke="#63b8ff" d="M1073.44,-117.78C1178.6,-115.67 1422.8,-107.47 1636.72,-74.07"/>
<polygon fill="#63b8ff" stroke="#63b8ff" points="1637.03,-77.56 1646.35,-72.54 1635.93,-70.65 1637.03,-77.56"/>
</g>
<!-- Node13 -->
<g id="node13" class="node">
<title>Node13</title>
<g id="a_node13"><a xlink:title=" ">
<polygon fill="#e0e0e0" stroke="#999999" points="48,-74 0,-74 0,-55 48,-55 48,-74"/>
<text text-anchor="middle" x="24" y="-62" font-family="Helvetica,sans-Serif" font-size="10.00">string.h</text>
</a>
</g>
</g>
<!-- Node5&#45;&gt;Node13 -->
<g id="edge12" class="edge">
<title>Node5&#45;&gt;Node13</title>
<path fill="none" stroke="#63b8ff" d="M968.75,-117.51C798.05,-114.04 256.92,-101.28 59.76,-74.03"/>
<polygon fill="#63b8ff" stroke="#63b8ff" points="60.29,-70.57 49.89,-72.6 59.29,-77.49 60.29,-70.57"/>
</g>
<!-- Node14 -->
<g id="node14" class="node">
<title>Node14</title>
<g id="a_node14"><a xlink:title=" ">
<polygon fill="#e0e0e0" stroke="#999999" points="116,-74 66,-74 66,-55 116,-55 116,-74"/>
<text text-anchor="middle" x="91" y="-62" font-family="Helvetica,sans-Serif" font-size="10.00">unistd.h</text>
</a>
</g>
</g>
<!-- Node5&#45;&gt;Node14 -->
<g id="edge13" class="edge">
<title>Node5&#45;&gt;Node14</title>
<path fill="none" stroke="#63b8ff" d="M968.71,-117.25C806.28,-113.14 310.86,-99.01 127.5,-73.99"/>
<polygon fill="#63b8ff" stroke="#63b8ff" points="128.03,-70.53 117.64,-72.58 127.04,-77.46 128.03,-70.53"/>
</g>
<!-- Node15 -->
<g id="node15" class="node">
<title>Node15</title>
<g id="a_node15"><a xlink:title=" ">
<polygon fill="#e0e0e0" stroke="#999999" points="199.5,-74 134.5,-74 134.5,-55 199.5,-55 199.5,-74"/>
<text text-anchor="middle" x="167" y="-62" font-family="Helvetica,sans-Serif" font-size="10.00">sys/types.h</text>
</a>
</g>
</g>
<!-- Node5&#45;&gt;Node15 -->
<g id="edge14" class="edge">
<title>Node5&#45;&gt;Node15</title>
<path fill="none" stroke="#63b8ff" d="M968.51,-118.25C840.64,-117.09 502.71,-110.62 211.16,-74.06"/>
<polygon fill="#63b8ff" stroke="#63b8ff" points="211.8,-70.61 201.44,-72.83 210.92,-77.56 211.8,-70.61"/>
</g>
<!-- Node5&#45;&gt;Node16 -->
<g id="edge15" class="edge">
<title>Node5&#45;&gt;Node16</title>
<path fill="none" stroke="#63b8ff" d="M1073.48,-118.71C1187.14,-118.38 1464.5,-113.4 1704.72,-74.02"/>
<polygon fill="#63b8ff" stroke="#63b8ff" points="1704.99,-77.52 1714.28,-72.42 1703.84,-70.61 1704.99,-77.52"/>
</g>
<!-- Node17 -->
<g id="node17" class="node">
<title>Node17</title>
<g id="a_node17"><a xlink:title=" ">
<polygon fill="#e0e0e0" stroke="#999999" points="274,-74 218,-74 218,-55 274,-55 274,-74"/>
<text text-anchor="middle" x="246" y="-62" font-family="Helvetica,sans-Serif" font-size="10.00">stdbool.h</text>
</a>
</g>
</g>
<!-- Node5&#45;&gt;Node17 -->
<g id="edge16" class="edge">
<title>Node5&#45;&gt;Node17</title>
<path fill="none" stroke="#63b8ff" d="M968.89,-118.21C849.67,-116.92 547.83,-110.19 285.41,-73.9"/>
<polygon fill="#63b8ff" stroke="#63b8ff" points="286.02,-70.45 275.63,-72.53 285.05,-77.38 286.02,-70.45"/>
</g>
<!-- Node18 -->
<g id="node18" class="node">
<title>Node18</title>
<g id="a_node18"><a xlink:title=" ">
<polygon fill="#e0e0e0" stroke="#999999" points="339.5,-74 292.5,-74 292.5,-55 339.5,-55 339.5,-74"/>
<text text-anchor="middle" x="316" y="-62" font-family="Helvetica,sans-Serif" font-size="10.00">stdlib.h</text>
</a>
</g>
</g>
<!-- Node5&#45;&gt;Node18 -->
<g id="edge17" class="edge">
<title>Node5&#45;&gt;Node18</title>
<path fill="none" stroke="#63b8ff" d="M968.78,-118.33C857.04,-117.27 586.5,-110.93 350.87,-73.95"/>
<polygon fill="#63b8ff" stroke="#63b8ff" points="351.6,-70.52 341.18,-72.4 350.5,-77.43 351.6,-70.52"/>
</g>
<!-- Node19 -->
<g id="node19" class="node">
<title>Node19</title>
<g id="a_node19"><a xlink:title=" ">
<polygon fill="#e0e0e0" stroke="#999999" points="416,-74 358,-74 358,-55 416,-55 416,-74"/>
<text text-anchor="middle" x="387" y="-62" font-family="Helvetica,sans-Serif" font-size="10.00">exception</text>
</a>
</g>
</g>
<!-- Node5&#45;&gt;Node19 -->
<g id="edge18" class="edge">
<title>Node5&#45;&gt;Node19</title>
<path fill="none" stroke="#63b8ff" d="M968.9,-117.16C866.83,-113.98 633.27,-103.99 427.7,-74.18"/>
<polygon fill="#63b8ff" stroke="#63b8ff" points="428.28,-70.73 417.88,-72.74 427.26,-77.65 428.28,-70.73"/>
</g>
<!-- Node20 -->
<g id="node20" class="node">
<title>Node20</title>
<g id="a_node20"><a xlink:href="Window_8hpp.html" target="_top" xlink:title=" ">
<polygon fill="white" stroke="#666666" points="1363.5,-19 1262.5,-19 1262.5,0 1363.5,0 1363.5,-19"/>
<text text-anchor="middle" x="1313" y="-7" font-family="Helvetica,sans-Serif" font-size="10.00">Engine/Window.hpp</text>
</a>
</g>
</g>
<!-- Node5&#45;&gt;Node20 -->
<g id="edge19" class="edge">
<title>Node5&#45;&gt;Node20</title>
<path fill="none" stroke="#63b8ff" d="M1073.44,-115.02C1138.63,-109.92 1244.82,-98.26 1276,-74 1289.82,-63.25 1296.97,-44.24 1302.22,-29.82"/>
<polygon fill="#63b8ff" stroke="#63b8ff" points="1305.49,-31.07 1305.75,-20.48 1298.94,-28.59 1305.49,-31.07"/>
</g>
<!-- Node21 -->
<g id="node21" class="node">
<title>Node21</title>
<g id="a_node21"><a xlink:href="Draw_8hpp.html" target="_top" xlink:title=" ">
<polygon fill="white" stroke="#666666" points="663.5,-74 574.5,-74 574.5,-55 663.5,-55 663.5,-74"/>
<text text-anchor="middle" x="619" y="-62" font-family="Helvetica,sans-Serif" font-size="10.00">Engine/Draw.hpp</text>
</a>
</g>
</g>
<!-- Node5&#45;&gt;Node21 -->
<g id="edge21" class="edge">
<title>Node5&#45;&gt;Node21</title>
<path fill="none" stroke="#63b8ff" d="M968.57,-112.99C901.17,-105.25 780.63,-90.46 675.42,-75.62"/>
<polygon fill="#63b8ff" stroke="#63b8ff" points="676.21,-72.2 665.81,-74.26 675.22,-79.13 676.21,-72.2"/>
</g>
<!-- Node22 -->
<g id="node22" class="node">
<title>Node22</title>
<g id="a_node22"><a xlink:href="Event_8hpp.html" target="_top" xlink:title=" ">
<polygon fill="white" stroke="#666666" points="1442,-74 1350,-74 1350,-55 1442,-55 1442,-74"/>
<text text-anchor="middle" x="1396" y="-62" font-family="Helvetica,sans-Serif" font-size="10.00">Engine/Event.hpp</text>
</a>
</g>
</g>
<!-- Node5&#45;&gt;Node22 -->
<g id="edge23" class="edge">
<title>Node5&#45;&gt;Node22</title>
<path fill="none" stroke="#63b8ff" d="M1073.26,-110.18C1134.21,-101.25 1237.73,-86.63 1327,-74 1330.76,-73.47 1334.65,-72.92 1338.59,-72.36"/>
<polygon fill="#63b8ff" stroke="#63b8ff" points="1338.82,-75.87 1348.24,-71.02 1337.85,-68.93 1338.82,-75.87"/>
</g>
<!-- Node26 -->
<g id="node26" class="node">
<title>Node26</title>
<g id="a_node26"><a xlink:href="StateManager_8hpp.html" target="_top" xlink:title=" ">
<polygon fill="white" stroke="#666666" points="1276,-74 1148,-74 1148,-55 1276,-55 1276,-74"/>
<text text-anchor="middle" x="1212" y="-62" font-family="Helvetica,sans-Serif" font-size="10.00">Engine/StateManager.hpp</text>
</a>
</g>
</g>
<!-- Node5&#45;&gt;Node26 -->
<g id="edge28" class="edge">
<title>Node5&#45;&gt;Node26</title>
<path fill="none" stroke="#63b8ff" d="M1048.18,-109.51C1078.25,-100.65 1127.04,-87.07 1163.62,-77.33"/>
<polygon fill="#63b8ff" stroke="#63b8ff" points="1164.31,-80.77 1173.09,-74.83 1162.53,-74 1164.31,-80.77"/>
</g>
<!-- Node27 -->
<g id="node27" class="node">
<title>Node27</title>
<g id="a_node27"><a xlink:href="Bullets_8hpp.html" target="_top" xlink:title=" ">
<polygon fill="white" stroke="#666666" points="556,-74 434,-74 434,-55 556,-55 556,-74"/>
<text text-anchor="middle" x="495" y="-62" font-family="Helvetica,sans-Serif" font-size="10.00">Components/Bullets.hpp</text>
</a>
</g>
</g>
<!-- Node5&#45;&gt;Node27 -->
<g id="edge32" class="edge">
<title>Node5&#45;&gt;Node27</title>
<path fill="none" stroke="#63b8ff" d="M968.74,-114.25C884.7,-106.88 714.5,-91 567.27,-75.11"/>
<polygon fill="#63b8ff" stroke="#63b8ff" points="568.08,-71.68 557.76,-74.08 567.33,-78.64 568.08,-71.68"/>
</g>
<!-- Node20&#45;&gt;Node5 -->
<g id="edge20" class="edge">
<title>Node20&#45;&gt;Node5</title>
<path fill="none" stroke="#63b8ff" d="M1317.38,-19.06C1318.45,-32.95 1311.69,-60.24 1294,-74 1262.6,-98.44 1155.11,-110.09 1084.66,-115.13"/>
<polygon fill="#63b8ff" stroke="#63b8ff" points="1084.51,-111.63 1074.77,-115.81 1084.99,-118.62 1084.51,-111.63"/>
</g>
<!-- Node21&#45;&gt;Node5 -->
<g id="edge22" class="edge">
<title>Node21&#45;&gt;Node5</title>
<path fill="none" stroke="#63b8ff" d="M663.87,-71.31C670,-72.24 676.17,-73.17 682,-74 777.9,-87.68 888.97,-101.54 957.18,-110.07"/>
<polygon fill="#63b8ff" stroke="#63b8ff" points="956.71,-113.54 967.07,-111.31 957.58,-106.6 956.71,-113.54"/>
</g>
<!-- Node22&#45;&gt;Node5 -->
<g id="edge24" class="edge">
<title>Node22&#45;&gt;Node5</title>
<path fill="none" stroke="#63b8ff" d="M1349.75,-73.33C1348.15,-73.55 1346.56,-73.78 1345,-74 1254.85,-86.75 1150.18,-101.53 1084.67,-110.44"/>
<polygon fill="#63b8ff" stroke="#63b8ff" points="1084.25,-106.97 1074.81,-111.78 1085.19,-113.91 1084.25,-106.97"/>
</g>
<!-- Node23 -->
<g id="node23" class="node">
<title>Node23</title>
<g id="a_node23"><a xlink:title=" ">
<polygon fill="#e0e0e0" stroke="#999999" points="1410.5,-19 1381.5,-19 1381.5,0 1410.5,0 1410.5,-19"/>
<text text-anchor="middle" x="1396" y="-7" font-family="Helvetica,sans-Serif" font-size="10.00">list</text>
</a>
</g>
</g>
<!-- Node22&#45;&gt;Node23 -->
<g id="edge25" class="edge">
<title>Node22&#45;&gt;Node23</title>
<path fill="none" stroke="#63b8ff" d="M1396,-54.75C1396,-48.27 1396,-39.16 1396,-30.9"/>
<polygon fill="#63b8ff" stroke="#63b8ff" points="1399.5,-30.96 1396,-20.96 1392.5,-30.96 1399.5,-30.96"/>
</g>
<!-- Node22&#45;&gt;Node24 -->
<g id="edge26" class="edge">
<title>Node22&#45;&gt;Node24</title>
<path fill="none" stroke="#63b8ff" d="M1442.2,-56.28C1445.18,-55.84 1448.13,-55.41 1451,-55 1562.45,-39.03 1694.95,-22.15 1755.23,-14.58"/>
<polygon fill="#63b8ff" stroke="#63b8ff" points="1755.3,-18.1 1764.79,-13.39 1754.43,-11.16 1755.3,-18.1"/>
</g>
<!-- Node22&#45;&gt;Node25 -->
<g id="edge27" class="edge">
<title>Node22&#45;&gt;Node25</title>
<path fill="none" stroke="#63b8ff" d="M1442.49,-56.13C1445.36,-55.73 1448.22,-55.35 1451,-55 1614.05,-34.44 1655.69,-37.34 1819,-19 1826.92,-18.11 1835.36,-17.09 1843.48,-16.08"/>
<polygon fill="#63b8ff" stroke="#63b8ff" points="1843.68,-19.58 1853.16,-14.85 1842.8,-12.64 1843.68,-19.58"/>
</g>
<!-- Node26&#45;&gt;Node5 -->
<g id="edge29" class="edge">
<title>Node26&#45;&gt;Node5</title>
<path fill="none" stroke="#63b8ff" d="M1184.97,-74.45C1154.96,-83.29 1106.19,-96.87 1069.56,-106.62"/>
<polygon fill="#63b8ff" stroke="#63b8ff" points="1068.85,-103.18 1060.08,-109.12 1070.64,-109.95 1068.85,-103.18"/>
</g>
<!-- Node26&#45;&gt;Node20 -->
<g id="edge30" class="edge">
<title>Node26&#45;&gt;Node20</title>
<path fill="none" stroke="#63b8ff" d="M1229.13,-54.51C1244.75,-46.31 1268.08,-34.07 1286.17,-24.58"/>
<polygon fill="#63b8ff" stroke="#63b8ff" points="1287.55,-27.81 1294.78,-20.06 1284.3,-21.61 1287.55,-27.81"/>
</g>
<!-- Node27&#45;&gt;Node5 -->
<g id="edge33" class="edge">
<title>Node27&#45;&gt;Node5</title>
<path fill="none" stroke="#63b8ff" d="M556.27,-71.9C562.62,-72.63 568.95,-73.34 575,-74 711.3,-88.82 870.83,-103.9 957.41,-112.14"/>
<polygon fill="#63b8ff" stroke="#63b8ff" points="956.83,-115.61 967.12,-113.07 957.5,-108.64 956.83,-115.61"/>
</g>
<!-- Node28 -->
<g id="node28" class="node">
<title>Node28</title>
<g id="a_node28"><a xlink:title=" ">
<polygon fill="#e0e0e0" stroke="#999999" points="518,-19 472,-19 472,0 518,0 518,-19"/>
<text text-anchor="middle" x="495" y="-7" font-family="Helvetica,sans-Serif" font-size="10.00">math.h</text>
</a>
</g>
</g>
<!-- Node27&#45;&gt;Node28 -->
<g id="edge34" class="edge">
<title>Node27&#45;&gt;Node28</title>
<path fill="none" stroke="#63b8ff" d="M495,-54.75C495,-48.27 495,-39.16 495,-30.9"/>
<polygon fill="#63b8ff" stroke="#63b8ff" points="498.5,-30.96 495,-20.96 491.5,-30.96 498.5,-30.96"/>
</g>
</g>
</svg>
