<?xml version="1.0" encoding="UTF-8" standalone="no"?>
<!DOCTYPE svg PUBLIC "-//W3C//DTD SVG 1.1//EN"
 "http://www.w3.org/Graphics/SVG/1.1/DTD/svg11.dtd">
<!-- Generated by graphviz version 7.0.5 (20221223.1930)
 -->
<!-- Title: /github/workspace/client/include/Components/IComponents.hpp Pages: 1 -->
<svg width="1695pt" height="313pt"
 viewBox="0.00 0.00 1695.00 313.00" xmlns="http://www.w3.org/2000/svg" xmlns:xlink="http://www.w3.org/1999/xlink">
<g id="graph0" class="graph" transform="scale(1 1) rotate(0) translate(4 309)">
<title>/github/workspace/client/include/Components/IComponents.hpp</title>
<!-- Node1 -->
<g id="node1" class="node">
<title>Node1</title>
<g id="a_node1"><a xlink:title=" ">
<polygon fill="#999999" stroke="#666666" points="949.5,-305 762.5,-305 762.5,-275 949.5,-275 949.5,-305"/>
<text text-anchor="start" x="770.5" y="-293" font-family="Helvetica,sans-Serif" font-size="10.00">/github/workspace/client</text>
<text text-anchor="middle" x="856" y="-282" font-family="Helvetica,sans-Serif" font-size="10.00">/include/Components/IComponents.hpp</text>
</a>
</g>
</g>
<!-- Node2 -->
<g id="node2" class="node">
<title>Node2</title>
<g id="a_node2"><a xlink:href="Engine_8hpp.html" target="_top" xlink:title=" ">
<polygon fill="white" stroke="#666666" points="904,-239 808,-239 808,-220 904,-220 904,-239"/>
<text text-anchor="middle" x="856" y="-227" font-family="Helvetica,sans-Serif" font-size="10.00">Engine/Engine.hpp</text>
</a>
</g>
</g>
<!-- Node1&#45;&gt;Node2 -->
<g id="edge1" class="edge">
<title>Node1&#45;&gt;Node2</title>
<path fill="none" stroke="#63b8ff" d="M856,-274.54C856,-267.34 856,-258.53 856,-250.68"/>
<polygon fill="#63b8ff" stroke="#63b8ff" points="859.5,-250.69 856,-240.69 852.5,-250.69 859.5,-250.69"/>
</g>
<!-- Node3 -->
<g id="node3" class="node">
<title>Node3</title>
<g id="a_node3"><a xlink:title=" ">
<polygon fill="#e0e0e0" stroke="#999999" points="1424.5,-184 1335.5,-184 1335.5,-165 1424.5,-165 1424.5,-184"/>
<text text-anchor="middle" x="1380" y="-172" font-family="Helvetica,sans-Serif" font-size="10.00">SFML/Audio.hpp</text>
</a>
</g>
</g>
<!-- Node2&#45;&gt;Node3 -->
<g id="edge2" class="edge">
<title>Node2&#45;&gt;Node3</title>
<path fill="none" stroke="#63b8ff" d="M904.49,-224.9C987.94,-218.49 1164.35,-204 1324.25,-184.14"/>
<polygon fill="#63b8ff" stroke="#63b8ff" points="1324.25,-187.67 1333.74,-182.95 1323.38,-180.72 1324.25,-187.67"/>
</g>
<!-- Node4 -->
<g id="node4" class="node">
<title>Node4</title>
<g id="a_node4"><a xlink:title=" ">
<polygon fill="#e0e0e0" stroke="#999999" points="1547,-184 1443,-184 1443,-165 1547,-165 1547,-184"/>
<text text-anchor="middle" x="1495" y="-172" font-family="Helvetica,sans-Serif" font-size="10.00">SFML/Graphics.hpp</text>
</a>
</g>
</g>
<!-- Node2&#45;&gt;Node4 -->
<g id="edge3" class="edge">
<title>Node2&#45;&gt;Node4</title>
<path fill="none" stroke="#63b8ff" d="M904.43,-225.78C1002.01,-220.09 1229.48,-205.71 1431.36,-184.22"/>
<polygon fill="#63b8ff" stroke="#63b8ff" points="1431.71,-187.7 1441.28,-183.15 1430.96,-180.74 1431.71,-187.7"/>
</g>
<!-- Node5 -->
<g id="node5" class="node">
<title>Node5</title>
<g id="a_node5"><a xlink:title=" ">
<polygon fill="#e0e0e0" stroke="#999999" points="297.5,-184 196.5,-184 196.5,-165 297.5,-165 297.5,-184"/>
<text text-anchor="middle" x="247" y="-172" font-family="Helvetica,sans-Serif" font-size="10.00">SFML/Network.hpp</text>
</a>
</g>
</g>
<!-- Node2&#45;&gt;Node5 -->
<g id="edge4" class="edge">
<title>Node2&#45;&gt;Node5</title>
<path fill="none" stroke="#63b8ff" d="M807.71,-225.61C713.75,-219.76 499.51,-205.36 309.17,-184.29"/>
<polygon fill="#63b8ff" stroke="#63b8ff" points="309.65,-180.83 299.33,-183.2 308.88,-187.78 309.65,-180.83"/>
</g>
<!-- Node6 -->
<g id="node6" class="node">
<title>Node6</title>
<g id="a_node6"><a xlink:title=" ">
<polygon fill="#e0e0e0" stroke="#999999" points="414.5,-184 315.5,-184 315.5,-165 414.5,-165 414.5,-184"/>
<text text-anchor="middle" x="365" y="-172" font-family="Helvetica,sans-Serif" font-size="10.00">SFML/Window.hpp</text>
</a>
</g>
</g>
<!-- Node2&#45;&gt;Node6 -->
<g id="edge5" class="edge">
<title>Node2&#45;&gt;Node6</title>
<path fill="none" stroke="#63b8ff" d="M807.66,-224.16C729.75,-217.03 571.3,-201.96 426.19,-184.22"/>
<polygon fill="#63b8ff" stroke="#63b8ff" points="426.73,-180.76 416.38,-183.01 425.87,-187.71 426.73,-180.76"/>
</g>
<!-- Node7 -->
<g id="node7" class="node">
<title>Node7</title>
<g id="a_node7"><a xlink:title=" ">
<polygon fill="#e0e0e0" stroke="#999999" points="531,-184 433,-184 433,-165 531,-165 531,-184"/>
<text text-anchor="middle" x="482" y="-172" font-family="Helvetica,sans-Serif" font-size="10.00">SFML/System.hpp</text>
</a>
</g>
</g>
<!-- Node2&#45;&gt;Node7 -->
<g id="edge6" class="edge">
<title>Node2&#45;&gt;Node7</title>
<path fill="none" stroke="#63b8ff" d="M807.87,-221.68C740.03,-212.07 616.34,-194.54 542.41,-184.06"/>
<polygon fill="#63b8ff" stroke="#63b8ff" points="543.32,-180.65 532.93,-182.72 542.34,-187.59 543.32,-180.65"/>
</g>
<!-- Node8 -->
<g id="node8" class="node">
<title>Node8</title>
<g id="a_node8"><a xlink:title=" ">
<polygon fill="#e0e0e0" stroke="#999999" points="495,-19 441,-19 441,0 495,0 495,-19"/>
<text text-anchor="middle" x="468" y="-7" font-family="Helvetica,sans-Serif" font-size="10.00">iostream</text>
</a>
</g>
</g>
<!-- Node2&#45;&gt;Node8 -->
<g id="edge7" class="edge">
<title>Node2&#45;&gt;Node8</title>
<path fill="none" stroke="#63b8ff" d="M807.62,-225.52C738.28,-220.46 614.9,-208.29 578,-184 520.46,-146.12 487.13,-66.62 474.23,-29.88"/>
<polygon fill="#63b8ff" stroke="#63b8ff" points="477.62,-28.98 471.11,-20.62 470.98,-31.21 477.62,-28.98"/>
</g>
<!-- Node9 -->
<g id="node9" class="node">
<title>Node9</title>
<g id="a_node9"><a xlink:title=" ">
<polygon fill="#e0e0e0" stroke="#999999" points="637,-184 587,-184 587,-165 637,-165 637,-184"/>
<text text-anchor="middle" x="612" y="-172" font-family="Helvetica,sans-Serif" font-size="10.00">fstream</text>
</a>
</g>
</g>
<!-- Node2&#45;&gt;Node9 -->
<g id="edge8" class="edge">
<title>Node2&#45;&gt;Node9</title>
<path fill="none" stroke="#63b8ff" d="M811.24,-219.5C771.07,-211.32 710.21,-198.66 648.37,-184.48"/>
<polygon fill="#63b8ff" stroke="#63b8ff" points="649.23,-181.09 638.7,-182.25 647.66,-187.91 649.23,-181.09"/>
</g>
<!-- Node10 -->
<g id="node10" class="node">
<title>Node10</title>
<g id="a_node10"><a xlink:title=" ">
<polygon fill="#e0e0e0" stroke="#999999" points="696.5,-184 655.5,-184 655.5,-165 696.5,-165 696.5,-184"/>
<text text-anchor="middle" x="676" y="-172" font-family="Helvetica,sans-Serif" font-size="10.00">string</text>
</a>
</g>
</g>
<!-- Node2&#45;&gt;Node10 -->
<g id="edge9" class="edge">
<title>Node2&#45;&gt;Node10</title>
<path fill="none" stroke="#63b8ff" d="M825.47,-219.51C792.72,-209.87 740.95,-194.63 707.74,-184.85"/>
<polygon fill="#63b8ff" stroke="#63b8ff" points="708.87,-181.53 698.29,-182.06 706.89,-188.24 708.87,-181.53"/>
</g>
<!-- Node11 -->
<g id="node11" class="node">
<title>Node11</title>
<g id="a_node11"><a xlink:title=" ">
<polygon fill="#e0e0e0" stroke="#999999" points="765,-184 715,-184 715,-165 765,-165 765,-184"/>
<text text-anchor="middle" x="740" y="-172" font-family="Helvetica,sans-Serif" font-size="10.00">unistd.h</text>
</a>
</g>
</g>
<!-- Node2&#45;&gt;Node11 -->
<g id="edge10" class="edge">
<title>Node2&#45;&gt;Node11</title>
<path fill="none" stroke="#63b8ff" d="M836.32,-219.51C818.05,-211.16 790.59,-198.61 769.65,-189.05"/>
<polygon fill="#63b8ff" stroke="#63b8ff" points="771.31,-185.96 760.76,-184.99 768.4,-192.33 771.31,-185.96"/>
</g>
<!-- Node12 -->
<g id="node12" class="node">
<title>Node12</title>
<g id="a_node12"><a xlink:title=" ">
<polygon fill="#e0e0e0" stroke="#999999" points="848.5,-184 783.5,-184 783.5,-165 848.5,-165 848.5,-184"/>
<text text-anchor="middle" x="816" y="-172" font-family="Helvetica,sans-Serif" font-size="10.00">sys/types.h</text>
</a>
</g>
</g>
<!-- Node2&#45;&gt;Node12 -->
<g id="edge11" class="edge">
<title>Node2&#45;&gt;Node12</title>
<path fill="none" stroke="#63b8ff" d="M849.39,-219.75C844.04,-212.66 836.32,-202.42 829.65,-193.59"/>
<polygon fill="#63b8ff" stroke="#63b8ff" points="832.48,-191.52 823.66,-185.65 826.89,-195.74 832.48,-191.52"/>
</g>
<!-- Node13 -->
<g id="node13" class="node">
<title>Node13</title>
<g id="a_node13"><a xlink:title=" ">
<polygon fill="#e0e0e0" stroke="#999999" points="228,-19 184,-19 184,0 228,0 228,-19"/>
<text text-anchor="middle" x="206" y="-7" font-family="Helvetica,sans-Serif" font-size="10.00">vector</text>
</a>
</g>
</g>
<!-- Node2&#45;&gt;Node13 -->
<g id="edge12" class="edge">
<title>Node2&#45;&gt;Node13</title>
<path fill="none" stroke="#63b8ff" d="M807.51,-227.07C657.25,-222.41 208.18,-206.63 187,-184 147.02,-141.27 178.17,-64.29 195.88,-29.04"/>
<polygon fill="#63b8ff" stroke="#63b8ff" points="198.82,-30.98 200.35,-20.5 192.62,-27.73 198.82,-30.98"/>
</g>
<!-- Node14 -->
<g id="node14" class="node">
<title>Node14</title>
<g id="a_node14"><a xlink:title=" ">
<polygon fill="#e0e0e0" stroke="#999999" points="925,-184 867,-184 867,-165 925,-165 925,-184"/>
<text text-anchor="middle" x="896" y="-172" font-family="Helvetica,sans-Serif" font-size="10.00">exception</text>
</a>
</g>
</g>
<!-- Node2&#45;&gt;Node14 -->
<g id="edge13" class="edge">
<title>Node2&#45;&gt;Node14</title>
<path fill="none" stroke="#63b8ff" d="M862.61,-219.75C867.96,-212.66 875.68,-202.42 882.35,-193.59"/>
<polygon fill="#63b8ff" stroke="#63b8ff" points="885.11,-195.74 888.34,-185.65 879.52,-191.52 885.11,-195.74"/>
</g>
<!-- Node15 -->
<g id="node15" class="node">
<title>Node15</title>
<g id="a_node15"><a xlink:href="Window_8hpp.html" target="_top" xlink:title=" ">
<polygon fill="white" stroke="#666666" points="1044.5,-184 943.5,-184 943.5,-165 1044.5,-165 1044.5,-184"/>
<text text-anchor="middle" x="994" y="-172" font-family="Helvetica,sans-Serif" font-size="10.00">Engine/Window.hpp</text>
</a>
</g>
</g>
<!-- Node2&#45;&gt;Node15 -->
<g id="edge14" class="edge">
<title>Node2&#45;&gt;Node15</title>
<path fill="none" stroke="#63b8ff" d="M874.19,-219.51C894.83,-210.89 928.7,-197.8 955.24,-188.14"/>
<polygon fill="#63b8ff" stroke="#63b8ff" points="956.1,-191.55 964.32,-184.87 953.73,-184.96 956.1,-191.55"/>
</g>
<!-- Node16 -->
<g id="node16" class="node">
<title>Node16</title>
<g id="a_node16"><a xlink:href="Event_8hpp.html" target="_top" xlink:title=" ">
<polygon fill="white" stroke="#666666" points="1155,-184 1063,-184 1063,-165 1155,-165 1155,-184"/>
<text text-anchor="middle" x="1109" y="-172" font-family="Helvetica,sans-Serif" font-size="10.00">Engine/Event.hpp</text>
</a>
</g>
</g>
<!-- Node2&#45;&gt;Node16 -->
<g id="edge16" class="edge">
<title>Node2&#45;&gt;Node16</title>
<path fill="none" stroke="#63b8ff" d="M893.7,-219.51C935.51,-210.35 1003.22,-196.14 1051.6,-186.36"/>
<polygon fill="#63b8ff" stroke="#63b8ff" points="1052.24,-189.8 1061.35,-184.39 1050.86,-182.94 1052.24,-189.8"/>
</g>
<!-- Node19 -->
<g id="node19" class="node">
<title>Node19</title>
<g id="a_node19"><a xlink:href="EntitiesManager_8hpp.html" target="_top" xlink:title=" ">
<polygon fill="white" stroke="#666666" points="140,-184 0,-184 0,-165 140,-165 140,-184"/>
<text text-anchor="middle" x="70" y="-172" font-family="Helvetica,sans-Serif" font-size="10.00">Entities/EntitiesManager.hpp</text>
</a>
</g>
</g>
<!-- Node2&#45;&gt;Node19 -->
<g id="edge20" class="edge">
<title>Node2&#45;&gt;Node19</title>
<path fill="none" stroke="#63b8ff" d="M807.58,-226.29C694.06,-220.68 402.3,-204.92 151.3,-184.5"/>
<polygon fill="#63b8ff" stroke="#63b8ff" points="151.89,-181.04 141.64,-183.71 151.32,-188.02 151.89,-181.04"/>
</g>
<!-- Node25 -->
<g id="node25" class="node">
<title>Node25</title>
<g id="a_node25"><a xlink:href="Bullets_8hpp.html" target="_top" xlink:title=" ">
<polygon fill="white" stroke="#666666" points="1687,-184 1565,-184 1565,-165 1687,-165 1687,-184"/>
<text text-anchor="middle" x="1626" y="-172" font-family="Helvetica,sans-Serif" font-size="10.00">Components/Bullets.hpp</text>
</a>
</g>
</g>
<!-- Node2&#45;&gt;Node25 -->
<g id="edge35" class="edge">
<title>Node2&#45;&gt;Node25</title>
<path fill="none" stroke="#63b8ff" d="M904.42,-226.16C1017.29,-220.78 1306,-206.27 1547,-184 1549.15,-183.8 1551.33,-183.59 1553.54,-183.37"/>
<polygon fill="#63b8ff" stroke="#63b8ff" points="1553.64,-186.88 1563.22,-182.35 1552.91,-179.92 1553.64,-186.88"/>
</g>
<!-- Node27 -->
<g id="node27" class="node">
<title>Node27</title>
<g id="a_node27"><a xlink:href="Background_8hpp.html" target="_top" xlink:title=" ">
<polygon fill="white" stroke="#666666" points="1317,-184 1173,-184 1173,-165 1317,-165 1317,-184"/>
<text text-anchor="middle" x="1245" y="-172" font-family="Helvetica,sans-Serif" font-size="10.00">Components/Background.hpp</text>
</a>
</g>
</g>
<!-- Node2&#45;&gt;Node27 -->
<g id="edge39" class="edge">
<title>Node2&#45;&gt;Node27</title>
<path fill="none" stroke="#63b8ff" d="M904.46,-221.24C969.07,-212.12 1084.19,-196.41 1162.56,-185.98"/>
<polygon fill="#63b8ff" stroke="#63b8ff" points="1162.89,-189.47 1172.35,-184.68 1161.97,-182.53 1162.89,-189.47"/>
</g>
<!-- Node15&#45;&gt;Node2 -->
<g id="edge15" class="edge">
<title>Node15&#45;&gt;Node2</title>
<path fill="none" stroke="#63b8ff" d="M976.12,-184.36C955.63,-192.93 921.79,-206.01 895.17,-215.71"/>
<polygon fill="#63b8ff" stroke="#63b8ff" points="894.27,-212.31 886.05,-219 896.65,-218.9 894.27,-212.31"/>
</g>
<!-- Node16&#45;&gt;Node2 -->
<g id="edge17" class="edge">
<title>Node16&#45;&gt;Node2</title>
<path fill="none" stroke="#63b8ff" d="M1071.5,-184.45C1030.28,-193.48 963.69,-207.46 915.38,-217.24"/>
<polygon fill="#63b8ff" stroke="#63b8ff" points="914.73,-213.8 905.62,-219.21 916.11,-220.66 914.73,-213.8"/>
</g>
<!-- Node17 -->
<g id="node17" class="node">
<title>Node17</title>
<g id="a_node17"><a xlink:title=" ">
<polygon fill="#e0e0e0" stroke="#999999" points="1096.5,-129 1067.5,-129 1067.5,-110 1096.5,-110 1096.5,-129"/>
<text text-anchor="middle" x="1082" y="-117" font-family="Helvetica,sans-Serif" font-size="10.00">list</text>
</a>
</g>
</g>
<!-- Node16&#45;&gt;Node17 -->
<g id="edge18" class="edge">
<title>Node16&#45;&gt;Node17</title>
<path fill="none" stroke="#63b8ff" d="M1104.54,-164.75C1101.05,-157.88 1096.05,-148.08 1091.65,-139.45"/>
<polygon fill="#63b8ff" stroke="#63b8ff" points="1094.9,-138.11 1087.24,-130.79 1088.66,-141.29 1094.9,-138.11"/>
</g>
<!-- Node18 -->
<g id="node18" class="node">
<title>Node18</title>
<g id="a_node18"><a xlink:title=" ">
<polygon fill="#e0e0e0" stroke="#999999" points="1157.5,-129 1114.5,-129 1114.5,-110 1157.5,-110 1157.5,-129"/>
<text text-anchor="middle" x="1136" y="-117" font-family="Helvetica,sans-Serif" font-size="10.00">queue</text>
</a>
</g>
</g>
<!-- Node16&#45;&gt;Node18 -->
<g id="edge19" class="edge">
<title>Node16&#45;&gt;Node18</title>
<path fill="none" stroke="#63b8ff" d="M1113.46,-164.75C1116.95,-157.88 1121.95,-148.08 1126.35,-139.45"/>
<polygon fill="#63b8ff" stroke="#63b8ff" points="1129.34,-141.29 1130.76,-130.79 1123.1,-138.11 1129.34,-141.29"/>
</g>
<!-- Node19&#45;&gt;Node1 -->
<g id="edge22" class="edge">
<title>Node19&#45;&gt;Node1</title>
<path fill="none" stroke="#63b8ff" d="M132.3,-184.5C266.69,-203.9 585.11,-249.88 751.16,-273.86"/>
<polygon fill="#63b8ff" stroke="#63b8ff" points="750.46,-277.3 760.86,-275.26 751.47,-270.37 750.46,-277.3"/>
</g>
<!-- Node19&#45;&gt;Node2 -->
<g id="edge21" class="edge">
<title>Node19&#45;&gt;Node2</title>
<path fill="none" stroke="#63b8ff" d="M140.38,-181.99C148.04,-182.71 155.7,-183.4 163,-184 397.39,-203.28 676.42,-218.74 796.43,-225.21"/>
<polygon fill="#63b8ff" stroke="#63b8ff" points="796.2,-228.7 806.37,-225.75 796.58,-221.71 796.2,-228.7"/>
</g>
<!-- Node20 -->
<g id="node20" class="node">
<title>Node20</title>
<g id="a_node20"><a xlink:href="SparseArray_8hpp.html" target="_top" xlink:title=" ">
<polygon fill="white" stroke="#666666" points="373.5,-129 262.5,-129 262.5,-110 373.5,-110 373.5,-129"/>
<text text-anchor="middle" x="318" y="-117" font-family="Helvetica,sans-Serif" font-size="10.00">Utils/SparseArray.hpp</text>
</a>
</g>
</g>
<!-- Node19&#45;&gt;Node20 -->
<g id="edge23" class="edge">
<title>Node19&#45;&gt;Node20</title>
<path fill="none" stroke="#63b8ff" d="M112.07,-164.51C154.24,-155.5 219.29,-141.6 264.97,-131.83"/>
<polygon fill="#63b8ff" stroke="#63b8ff" points="265.61,-135.28 274.66,-129.76 264.15,-128.43 265.61,-135.28"/>
</g>
<!-- Node20&#45;&gt;Node8 -->
<g id="edge24" class="edge">
<title>Node20&#45;&gt;Node8</title>
<path fill="none" stroke="#63b8ff" d="M341.46,-109.61C360.41,-101.81 387.25,-89.33 408,-74 425.86,-60.8 442.92,-41.92 454.26,-28.18"/>
<polygon fill="#63b8ff" stroke="#63b8ff" points="456.95,-30.41 460.48,-20.42 451.49,-26.03 456.95,-30.41"/>
</g>
<!-- Node20&#45;&gt;Node13 -->
<g id="edge27" class="edge">
<title>Node20&#45;&gt;Node13</title>
<path fill="none" stroke="#63b8ff" d="M303.34,-109.65C290.19,-101.34 270.75,-88.1 256,-74 241.46,-60.09 227.51,-41.83 218.06,-28.47"/>
<polygon fill="#63b8ff" stroke="#63b8ff" points="221.2,-26.84 212.64,-20.6 215.43,-30.82 221.2,-26.84"/>
</g>
<!-- Node21 -->
<g id="node21" class="node">
<title>Node21</title>
<g id="a_node21"><a xlink:title=" ">
<polygon fill="#e0e0e0" stroke="#999999" points="303,-19 247,-19 247,0 303,0 303,-19"/>
<text text-anchor="middle" x="275" y="-7" font-family="Helvetica,sans-Serif" font-size="10.00">algorithm</text>
</a>
</g>
</g>
<!-- Node20&#45;&gt;Node21 -->
<g id="edge25" class="edge">
<title>Node20&#45;&gt;Node21</title>
<path fill="none" stroke="#63b8ff" d="M300,-109.57C287.07,-102.05 270.62,-89.96 263,-74 256.27,-59.9 260.41,-42.36 265.59,-29.29"/>
<polygon fill="#63b8ff" stroke="#63b8ff" points="268.62,-31.08 269.53,-20.53 262.23,-28.21 268.62,-31.08"/>
</g>
<!-- Node22 -->
<g id="node22" class="node">
<title>Node22</title>
<g id="a_node22"><a xlink:title=" ">
<polygon fill="#e0e0e0" stroke="#999999" points="362,-19 324,-19 324,0 362,0 362,-19"/>
<text text-anchor="middle" x="343" y="-7" font-family="Helvetica,sans-Serif" font-size="10.00">array</text>
</a>
</g>
</g>
<!-- Node20&#45;&gt;Node22 -->
<g id="edge26" class="edge">
<title>Node20&#45;&gt;Node22</title>
<path fill="none" stroke="#63b8ff" d="M336,-109.57C348.93,-102.05 365.38,-89.96 373,-74 380.52,-58.24 370.24,-40.24 359.71,-27.43"/>
<polygon fill="#63b8ff" stroke="#63b8ff" points="362.56,-25.36 353.27,-20.26 357.35,-30.04 362.56,-25.36"/>
</g>
<!-- Node23 -->
<g id="node23" class="node">
<title>Node23</title>
<g id="a_node23"><a xlink:title=" ">
<polygon fill="#e0e0e0" stroke="#999999" points="421.5,-19 382.5,-19 382.5,0 421.5,0 421.5,-19"/>
<text text-anchor="middle" x="402" y="-7" font-family="Helvetica,sans-Serif" font-size="10.00">utility</text>
</a>
</g>
</g>
<!-- Node20&#45;&gt;Node23 -->
<g id="edge28" class="edge">
<title>Node20&#45;&gt;Node23</title>
<path fill="none" stroke="#63b8ff" d="M341.71,-109.52C357.53,-102.31 377.48,-90.62 389,-74 397.85,-61.25 400.93,-43.8 401.9,-30.43"/>
<polygon fill="#63b8ff" stroke="#63b8ff" points="405.39,-30.76 402.24,-20.64 398.39,-30.52 405.39,-30.76"/>
</g>
<!-- Node24 -->
<g id="node24" class="node">
<title>Node24</title>
<g id="a_node24"><a xlink:href="Vectors_8hpp.html" target="_top" xlink:title=" ">
<polygon fill="white" stroke="#666666" points="364,-74 272,-74 272,-55 364,-55 364,-74"/>
<text text-anchor="middle" x="318" y="-62" font-family="Helvetica,sans-Serif" font-size="10.00">Utils/Vectors.hpp</text>
</a>
</g>
</g>
<!-- Node20&#45;&gt;Node24 -->
<g id="edge29" class="edge">
<title>Node20&#45;&gt;Node24</title>
<path fill="none" stroke="#63b8ff" d="M318,-109.75C318,-103.27 318,-94.16 318,-85.9"/>
<polygon fill="#63b8ff" stroke="#63b8ff" points="321.5,-85.96 318,-75.96 314.5,-85.96 321.5,-85.96"/>
</g>
<!-- Node24&#45;&gt;Node8 -->
<g id="edge30" class="edge">
<title>Node24&#45;&gt;Node8</title>
<path fill="none" stroke="#63b8ff" d="M343.45,-54.51C367.76,-45.92 404.66,-32.88 431.99,-23.22"/>
<polygon fill="#63b8ff" stroke="#63b8ff" points="432.99,-26.58 441.25,-19.95 430.66,-19.98 432.99,-26.58"/>
</g>
<!-- Node24&#45;&gt;Node13 -->
<g id="edge33" class="edge">
<title>Node24&#45;&gt;Node13</title>
<path fill="none" stroke="#63b8ff" d="M299,-54.51C281.44,-46.2 255.08,-33.73 234.91,-24.18"/>
<polygon fill="#63b8ff" stroke="#63b8ff" points="236.62,-21.12 226.09,-20.01 233.63,-27.45 236.62,-21.12"/>
</g>
<!-- Node24&#45;&gt;Node21 -->
<g id="edge31" class="edge">
<title>Node24&#45;&gt;Node21</title>
<path fill="none" stroke="#63b8ff" d="M310.9,-54.75C305.08,-47.58 296.67,-37.2 289.44,-28.3"/>
<polygon fill="#63b8ff" stroke="#63b8ff" points="292.23,-26.18 283.21,-20.62 286.79,-30.59 292.23,-26.18"/>
</g>
<!-- Node24&#45;&gt;Node22 -->
<g id="edge32" class="edge">
<title>Node24&#45;&gt;Node22</title>
<path fill="none" stroke="#63b8ff" d="M322.13,-54.75C325.33,-47.96 329.89,-38.3 333.93,-29.73"/>
<polygon fill="#63b8ff" stroke="#63b8ff" points="337.04,-31.35 338.14,-20.81 330.7,-28.36 337.04,-31.35"/>
</g>
<!-- Node24&#45;&gt;Node23 -->
<g id="edge34" class="edge">
<title>Node24&#45;&gt;Node23</title>
<path fill="none" stroke="#63b8ff" d="M332.25,-54.51C344.88,-46.54 363.56,-34.75 378.41,-25.38"/>
<polygon fill="#63b8ff" stroke="#63b8ff" points="380.09,-28.46 386.68,-20.17 376.36,-22.54 380.09,-28.46"/>
</g>
<!-- Node25&#45;&gt;Node1 -->
<g id="edge37" class="edge">
<title>Node25&#45;&gt;Node1</title>
<path fill="none" stroke="#63b8ff" d="M1565.08,-184.48C1434,-203.8 1123.91,-249.51 960.66,-273.57"/>
<polygon fill="#63b8ff" stroke="#63b8ff" points="960.53,-270.05 951.14,-274.98 961.55,-276.98 960.53,-270.05"/>
</g>
<!-- Node25&#45;&gt;Node2 -->
<g id="edge36" class="edge">
<title>Node25&#45;&gt;Node2</title>
<path fill="none" stroke="#63b8ff" d="M1564.64,-184.03C1324.78,-206.19 1037.78,-220.66 915.62,-226.09"/>
<polygon fill="#63b8ff" stroke="#63b8ff" points="915.67,-222.58 905.83,-226.52 915.97,-229.58 915.67,-222.58"/>
</g>
<!-- Node26 -->
<g id="node26" class="node">
<title>Node26</title>
<g id="a_node26"><a xlink:title=" ">
<polygon fill="#e0e0e0" stroke="#999999" points="1649,-129 1603,-129 1603,-110 1649,-110 1649,-129"/>
<text text-anchor="middle" x="1626" y="-117" font-family="Helvetica,sans-Serif" font-size="10.00">math.h</text>
</a>
</g>
</g>
<!-- Node25&#45;&gt;Node26 -->
<g id="edge38" class="edge">
<title>Node25&#45;&gt;Node26</title>
<path fill="none" stroke="#63b8ff" d="M1626,-164.75C1626,-158.27 1626,-149.16 1626,-140.9"/>
<polygon fill="#63b8ff" stroke="#63b8ff" points="1629.5,-140.96 1626,-130.96 1622.5,-140.96 1629.5,-140.96"/>
</g>
<!-- Node27&#45;&gt;Node2 -->
<g id="edge40" class="edge">
<title>Node27&#45;&gt;Node2</title>
<path fill="none" stroke="#63b8ff" d="M1184.16,-184.5C1110.78,-194.79 988.39,-211.45 915.58,-221.05"/>
<polygon fill="#63b8ff" stroke="#63b8ff" points="915.29,-217.55 905.83,-222.33 916.2,-224.49 915.29,-217.55"/>
</g>
</g>
</svg>
