<?xml version="1.0" encoding="UTF-8" standalone="no"?>
<!DOCTYPE svg PUBLIC "-//W3C//DTD SVG 1.1//EN"
 "http://www.w3.org/Graphics/SVG/1.1/DTD/svg11.dtd">
<!-- Generated by graphviz version 7.0.5 (20221223.1930)
 -->
<!-- Title: /github/workspace/client/include/Components/IComponents.hpp Pages: 1 -->
<!--zoomable 313 -->
<svg id="main" version="1.1" xmlns="http://www.w3.org/2000/svg" xmlns:xlink="http://www.w3.org/1999/xlink" xml:space="preserve" onload="init(evt)">
<style type="text/css"><![CDATA[
.edge:hover path { stroke: red; }
.edge:hover polygon { stroke: red; fill: red; }
]]></style>
<script type="text/javascript"><![CDATA[
var edges = document.getElementsByTagName('g');
if (edges && edges.length) {
  for (var i=0;i<edges.length;i++) {
    if (edges[i].id.substr(0,4)=='edge') {
      edges[i].setAttribute('class','edge');
    }
  }
}
]]></script>
        <defs>
                <circle id="rim" cx="0" cy="0" r="7"/>
                <circle id="rim2" cx="0" cy="0" r="3.5"/>
                <g id="zoomPlus">
                        <use xlink:href="#rim" fill="#404040">
                                <set attributeName="fill" to="#808080" begin="zoomplus.mouseover" end="zoomplus.mouseout"/>
                        </use>
                        <path d="M-4,0h8M0,-4v8" fill="none" stroke="white" stroke-width="1.5" pointer-events="none"/>
                </g>
                <g id="zoomMin">
                        <use xlink:href="#rim" fill="#404040">
                                <set attributeName="fill" to="#808080" begin="zoomminus.mouseover" end="zoomminus.mouseout"/>
                        </use>
                        <path d="M-4,0h8" fill="none" stroke="white" stroke-width="1.5" pointer-events="none"/>
                </g>
                <g id="dirArrow">
                        <path fill="none" stroke="white" stroke-width="1.5" d="M0,-3.0v7 M-2.5,-0.5L0,-3.0L2.5,-0.5"/>
                </g>
               <g id="resetDef">
                       <use xlink:href="#rim2" fill="#404040">
                               <set attributeName="fill" to="#808080" begin="reset.mouseover" end="reset.mouseout"/>
                       </use>
               </g>
        </defs>

<script type="text/javascript">
var viewWidth = 1841;
var viewHeight = 313;
var sectionId = 'dynsection-0';
</script>
<script xlink:href="svgpan.js"/>
<svg id="graph" class="graph">
<g id="viewport">
<title>/github/workspace/client/include/Components/IComponents.hpp</title>
<!-- Node1 -->
<g id="node1" class="node">
<title>Node1</title>
<g id="a_node1"><a xlink:title=" ">
<polygon fill="#999999" stroke="#666666" points="1029.5,-305 842.5,-305 842.5,-275 1029.5,-275 1029.5,-305"/>
<text text-anchor="start" x="850.5" y="-293" font-family="Helvetica,sans-Serif" font-size="10.00">/github/workspace/client</text>
<text text-anchor="middle" x="936" y="-282" font-family="Helvetica,sans-Serif" font-size="10.00">/include/Components/IComponents.hpp</text>
</a>
</g>
</g>
<!-- Node2 -->
<g id="node2" class="node">
<title>Node2</title>
<g id="a_node2"><a xlink:href="Engine_8hpp.html" target="_top" xlink:title=" ">
<polygon fill="white" stroke="#666666" points="984,-239 888,-239 888,-220 984,-220 984,-239"/>
<text text-anchor="middle" x="936" y="-227" font-family="Helvetica,sans-Serif" font-size="10.00">Engine/Engine.hpp</text>
</a>
</g>
</g>
<!-- Node1&#45;&gt;Node2 -->
<g id="edge1" class="edge">
<title>Node1&#45;&gt;Node2</title>
<path fill="none" stroke="#63b8ff" d="M936,-274.54C936,-267.34 936,-258.53 936,-250.68"/>
<polygon fill="#63b8ff" stroke="#63b8ff" points="939.5,-250.69 936,-240.69 932.5,-250.69 939.5,-250.69"/>
</g>
<!-- Node3 -->
<g id="node3" class="node">
<title>Node3</title>
<g id="a_node3"><a xlink:title=" ">
<polygon fill="#e0e0e0" stroke="#999999" points="1570.5,-184 1481.5,-184 1481.5,-165 1570.5,-165 1570.5,-184"/>
<text text-anchor="middle" x="1526" y="-172" font-family="Helvetica,sans-Serif" font-size="10.00">SFML/Audio.hpp</text>
</a>
</g>
</g>
<!-- Node2&#45;&gt;Node3 -->
<g id="edge2" class="edge">
<title>Node2&#45;&gt;Node3</title>
<path fill="none" stroke="#63b8ff" d="M984.17,-225.69C1076.29,-220.05 1284.07,-206.11 1469.89,-184.16"/>
<polygon fill="#63b8ff" stroke="#63b8ff" points="1470.23,-187.64 1479.74,-182.98 1469.4,-180.69 1470.23,-187.64"/>
</g>
<!-- Node4 -->
<g id="node4" class="node">
<title>Node4</title>
<g id="a_node4"><a xlink:title=" ">
<polygon fill="#e0e0e0" stroke="#999999" points="1693,-184 1589,-184 1589,-165 1693,-165 1693,-184"/>
<text text-anchor="middle" x="1641" y="-172" font-family="Helvetica,sans-Serif" font-size="10.00">SFML/Graphics.hpp</text>
</a>
</g>
</g>
<!-- Node2&#45;&gt;Node4 -->
<g id="edge3" class="edge">
<title>Node2&#45;&gt;Node4</title>
<path fill="none" stroke="#63b8ff" d="M984.49,-226.26C1090.09,-221.14 1348.97,-207.28 1577.4,-184.08"/>
<polygon fill="#63b8ff" stroke="#63b8ff" points="1577.5,-187.59 1587.09,-183.09 1576.79,-180.63 1577.5,-187.59"/>
</g>
<!-- Node5 -->
<g id="node5" class="node">
<title>Node5</title>
<g id="a_node5"><a xlink:title=" ">
<polygon fill="#e0e0e0" stroke="#999999" points="297.5,-184 196.5,-184 196.5,-165 297.5,-165 297.5,-184"/>
<text text-anchor="middle" x="247" y="-172" font-family="Helvetica,sans-Serif" font-size="10.00">SFML/Network.hpp</text>
</a>
</g>
</g>
<!-- Node2&#45;&gt;Node5 -->
<g id="edge4" class="edge">
<title>Node2&#45;&gt;Node5</title>
<path fill="none" stroke="#63b8ff" d="M887.68,-226.28C783.75,-221.26 530.99,-207.66 309.03,-184.25"/>
<polygon fill="#63b8ff" stroke="#63b8ff" points="309.64,-180.8 299.32,-183.22 308.9,-187.76 309.64,-180.8"/>
</g>
<!-- Node6 -->
<g id="node6" class="node">
<title>Node6</title>
<g id="a_node6"><a xlink:title=" ">
<polygon fill="#e0e0e0" stroke="#999999" points="414.5,-184 315.5,-184 315.5,-165 414.5,-165 414.5,-184"/>
<text text-anchor="middle" x="365" y="-172" font-family="Helvetica,sans-Serif" font-size="10.00">SFML/Window.hpp</text>
</a>
</g>
</g>
<!-- Node2&#45;&gt;Node6 -->
<g id="edge5" class="edge">
<title>Node2&#45;&gt;Node6</title>
<path fill="none" stroke="#63b8ff" d="M887.55,-225.2C798.47,-218.95 602.42,-204.25 426.18,-184.18"/>
<polygon fill="#63b8ff" stroke="#63b8ff" points="426.71,-180.72 416.37,-183.06 425.91,-187.68 426.71,-180.72"/>
</g>
<!-- Node7 -->
<g id="node7" class="node">
<title>Node7</title>
<g id="a_node7"><a xlink:title=" ">
<polygon fill="#e0e0e0" stroke="#999999" points="531,-184 433,-184 433,-165 531,-165 531,-184"/>
<text text-anchor="middle" x="482" y="-172" font-family="Helvetica,sans-Serif" font-size="10.00">SFML/System.hpp</text>
</a>
</g>
</g>
<!-- Node2&#45;&gt;Node7 -->
<g id="edge6" class="edge">
<title>Node2&#45;&gt;Node7</title>
<path fill="none" stroke="#63b8ff" d="M887.5,-223.31C813.56,-215.32 668.22,-199.32 545,-184 544.16,-183.9 543.31,-183.79 542.46,-183.68"/>
<polygon fill="#63b8ff" stroke="#63b8ff" points="543.03,-180.23 532.67,-182.43 542.14,-187.17 543.03,-180.23"/>
</g>
<!-- Node8 -->
<g id="node8" class="node">
<title>Node8</title>
<g id="a_node8"><a xlink:title=" ">
<polygon fill="#e0e0e0" stroke="#999999" points="495,-19 441,-19 441,0 495,0 495,-19"/>
<text text-anchor="middle" x="468" y="-7" font-family="Helvetica,sans-Serif" font-size="10.00">iostream</text>
</a>
</g>
</g>
<!-- Node2&#45;&gt;Node8 -->
<g id="edge7" class="edge">
<title>Node2&#45;&gt;Node8</title>
<path fill="none" stroke="#63b8ff" d="M887.58,-227.52C802.03,-224.98 628.39,-215.93 578,-184 519.8,-147.13 486.8,-67.12 474.11,-30.06"/>
<polygon fill="#63b8ff" stroke="#63b8ff" points="477.48,-29.12 471.05,-20.71 470.83,-31.3 477.48,-29.12"/>
</g>
<!-- Node9 -->
<g id="node9" class="node">
<title>Node9</title>
<g id="a_node9"><a xlink:title=" ">
<polygon fill="#e0e0e0" stroke="#999999" points="637,-184 587,-184 587,-165 637,-165 637,-184"/>
<text text-anchor="middle" x="612" y="-172" font-family="Helvetica,sans-Serif" font-size="10.00">fstream</text>
</a>
</g>
</g>
<!-- Node2&#45;&gt;Node9 -->
<g id="edge8" class="edge">
<title>Node2&#45;&gt;Node9</title>
<path fill="none" stroke="#63b8ff" d="M887.52,-222.46C832.06,-215.24 738.28,-202.09 648.41,-184.32"/>
<polygon fill="#63b8ff" stroke="#63b8ff" points="649.17,-180.9 638.68,-182.37 647.79,-187.77 649.17,-180.9"/>
</g>
<!-- Node10 -->
<g id="node10" class="node">
<title>Node10</title>
<g id="a_node10"><a xlink:title=" ">
<polygon fill="#e0e0e0" stroke="#999999" points="703,-184 655,-184 655,-165 703,-165 703,-184"/>
<text text-anchor="middle" x="679" y="-172" font-family="Helvetica,sans-Serif" font-size="10.00">string.h</text>
</a>
</g>
</g>
<!-- Node2&#45;&gt;Node10 -->
<g id="edge9" class="edge">
<title>Node2&#45;&gt;Node10</title>
<path fill="none" stroke="#63b8ff" d="M887.77,-219.73C844.69,-211.71 779.62,-199.16 714.37,-184.44"/>
<polygon fill="#63b8ff" stroke="#63b8ff" points="715.47,-181.11 704.95,-182.3 713.92,-187.93 715.47,-181.11"/>
</g>
<!-- Node11 -->
<g id="node11" class="node">
<title>Node11</title>
<g id="a_node11"><a xlink:title=" ">
<polygon fill="#e0e0e0" stroke="#999999" points="771,-184 721,-184 721,-165 771,-165 771,-184"/>
<text text-anchor="middle" x="746" y="-172" font-family="Helvetica,sans-Serif" font-size="10.00">unistd.h</text>
</a>
</g>
</g>
<!-- Node2&#45;&gt;Node11 -->
<g id="edge10" class="edge">
<title>Node2&#45;&gt;Node11</title>
<path fill="none" stroke="#63b8ff" d="M903.77,-219.51C870.05,-210.1 817.22,-195.37 782.11,-185.57"/>
<polygon fill="#63b8ff" stroke="#63b8ff" points="783.41,-182.3 772.84,-182.99 781.53,-189.05 783.41,-182.3"/>
</g>
<!-- Node12 -->
<g id="node12" class="node">
<title>Node12</title>
<g id="a_node12"><a xlink:title=" ">
<polygon fill="#e0e0e0" stroke="#999999" points="854.5,-184 789.5,-184 789.5,-165 854.5,-165 854.5,-184"/>
<text text-anchor="middle" x="822" y="-172" font-family="Helvetica,sans-Serif" font-size="10.00">sys/types.h</text>
</a>
</g>
</g>
<!-- Node2&#45;&gt;Node12 -->
<g id="edge11" class="edge">
<title>Node2&#45;&gt;Node12</title>
<path fill="none" stroke="#63b8ff" d="M916.66,-219.51C898.78,-211.2 871.96,-198.73 851.43,-189.18"/>
<polygon fill="#63b8ff" stroke="#63b8ff" points="852.97,-186.04 842.43,-185 850.02,-192.39 852.97,-186.04"/>
</g>
<!-- Node13 -->
<g id="node13" class="node">
<title>Node13</title>
<g id="a_node13"><a xlink:title=" ">
<polygon fill="#e0e0e0" stroke="#999999" points="228,-19 184,-19 184,0 228,0 228,-19"/>
<text text-anchor="middle" x="206" y="-7" font-family="Helvetica,sans-Serif" font-size="10.00">vector</text>
</a>
</g>
</g>
<!-- Node2&#45;&gt;Node13 -->
<g id="edge12" class="edge">
<title>Node2&#45;&gt;Node13</title>
<path fill="none" stroke="#63b8ff" d="M887.78,-227.44C725.97,-223.63 211.08,-209.55 187,-184 146.87,-141.42 178.09,-64.36 195.86,-29.06"/>
<polygon fill="#63b8ff" stroke="#63b8ff" points="198.8,-30.99 200.34,-20.51 192.6,-27.74 198.8,-30.99"/>
</g>
<!-- Node14 -->
<g id="node14" class="node">
<title>Node14</title>
<g id="a_node14"><a xlink:title=" ">
<polygon fill="#e0e0e0" stroke="#999999" points="929,-184 873,-184 873,-165 929,-165 929,-184"/>
<text text-anchor="middle" x="901" y="-172" font-family="Helvetica,sans-Serif" font-size="10.00">stdbool.h</text>
</a>
</g>
</g>
<!-- Node2&#45;&gt;Node14 -->
<g id="edge13" class="edge">
<title>Node2&#45;&gt;Node14</title>
<path fill="none" stroke="#63b8ff" d="M930.22,-219.75C925.59,-212.73 918.93,-202.64 913.13,-193.87"/>
<polygon fill="#63b8ff" stroke="#63b8ff" points="916.17,-192.12 907.74,-185.71 910.33,-195.98 916.17,-192.12"/>
</g>
<!-- Node15 -->
<g id="node15" class="node">
<title>Node15</title>
<g id="a_node15"><a xlink:title=" ">
<polygon fill="#e0e0e0" stroke="#999999" points="994.5,-184 947.5,-184 947.5,-165 994.5,-165 994.5,-184"/>
<text text-anchor="middle" x="971" y="-172" font-family="Helvetica,sans-Serif" font-size="10.00">stdlib.h</text>
</a>
</g>
</g>
<!-- Node2&#45;&gt;Node15 -->
<g id="edge14" class="edge">
<title>Node2&#45;&gt;Node15</title>
<path fill="none" stroke="#63b8ff" d="M941.78,-219.75C946.41,-212.73 953.07,-202.64 958.87,-193.87"/>
<polygon fill="#63b8ff" stroke="#63b8ff" points="961.67,-195.98 964.26,-185.71 955.83,-192.12 961.67,-195.98"/>
</g>
<!-- Node16 -->
<g id="node16" class="node">
<title>Node16</title>
<g id="a_node16"><a xlink:title=" ">
<polygon fill="#e0e0e0" stroke="#999999" points="1071,-184 1013,-184 1013,-165 1071,-165 1071,-184"/>
<text text-anchor="middle" x="1042" y="-172" font-family="Helvetica,sans-Serif" font-size="10.00">exception</text>
</a>
</g>
</g>
<!-- Node2&#45;&gt;Node16 -->
<g id="edge15" class="edge">
<title>Node2&#45;&gt;Node16</title>
<path fill="none" stroke="#63b8ff" d="M953.98,-219.51C970.45,-211.27 995.09,-198.96 1014.11,-189.45"/>
<polygon fill="#63b8ff" stroke="#63b8ff" points="1015.55,-192.64 1022.93,-185.03 1012.42,-186.38 1015.55,-192.64"/>
</g>
<!-- Node17 -->
<g id="node17" class="node">
<title>Node17</title>
<g id="a_node17"><a xlink:href="Window_8hpp.html" target="_top" xlink:title=" ">
<polygon fill="white" stroke="#666666" points="1190.5,-184 1089.5,-184 1089.5,-165 1190.5,-165 1190.5,-184"/>
<text text-anchor="middle" x="1140" y="-172" font-family="Helvetica,sans-Serif" font-size="10.00">Engine/Window.hpp</text>
</a>
</g>
</g>
<!-- Node2&#45;&gt;Node17 -->
<g id="edge16" class="edge">
<title>Node2&#45;&gt;Node17</title>
<path fill="none" stroke="#63b8ff" d="M965.39,-219.51C997.77,-210.61 1050.2,-196.95 1089.22,-187.21"/>
<polygon fill="#63b8ff" stroke="#63b8ff" points="1090.03,-190.62 1098.89,-184.81 1088.34,-183.82 1090.03,-190.62"/>
</g>
<!-- Node18 -->
<g id="node18" class="node">
<title>Node18</title>
<g id="a_node18"><a xlink:href="Event_8hpp.html" target="_top" xlink:title=" ">
<polygon fill="white" stroke="#666666" points="1301,-184 1209,-184 1209,-165 1301,-165 1301,-184"/>
<text text-anchor="middle" x="1255" y="-172" font-family="Helvetica,sans-Serif" font-size="10.00">Engine/Event.hpp</text>
</a>
</g>
</g>
<!-- Node2&#45;&gt;Node18 -->
<g id="edge18" class="edge">
<title>Node2&#45;&gt;Node18</title>
<path fill="none" stroke="#63b8ff" d="M984.2,-219.63C1041.35,-209.79 1136.33,-194.01 1197.32,-184.23"/>
<polygon fill="#63b8ff" stroke="#63b8ff" points="1197.85,-187.69 1207.18,-182.65 1196.75,-180.77 1197.85,-187.69"/>
</g>
<!-- Node22 -->
<g id="node22" class="node">
<title>Node22</title>
<g id="a_node22"><a xlink:href="EntitiesManager_8hpp.html" target="_top" xlink:title=" ">
<polygon fill="white" stroke="#666666" points="140,-184 0,-184 0,-165 140,-165 140,-184"/>
<text text-anchor="middle" x="70" y="-172" font-family="Helvetica,sans-Serif" font-size="10.00">Entities/EntitiesManager.hpp</text>
</a>
</g>
</g>
<!-- Node2&#45;&gt;Node22 -->
<g id="edge23" class="edge">
<title>Node2&#45;&gt;Node22</title>
<path fill="none" stroke="#63b8ff" d="M887.62,-226.67C765.35,-221.65 434.49,-206.58 151.45,-184.49"/>
<polygon fill="#63b8ff" stroke="#63b8ff" points="151.88,-181.02 141.64,-183.72 151.34,-188 151.88,-181.02"/>
</g>
<!-- Node28 -->
<g id="node28" class="node">
<title>Node28</title>
<g id="a_node28"><a xlink:href="Bullets_8hpp.html" target="_top" xlink:title=" ">
<polygon fill="white" stroke="#666666" points="1833,-184 1711,-184 1711,-165 1833,-165 1833,-184"/>
<text text-anchor="middle" x="1772" y="-172" font-family="Helvetica,sans-Serif" font-size="10.00">Components/Bullets.hpp</text>
</a>
</g>
</g>
<!-- Node2&#45;&gt;Node28 -->
<g id="edge38" class="edge">
<title>Node2&#45;&gt;Node28</title>
<path fill="none" stroke="#63b8ff" d="M984.41,-226.57C1104.6,-221.78 1425.65,-207.97 1693,-184 1695.15,-183.81 1697.33,-183.6 1699.54,-183.38"/>
<polygon fill="#63b8ff" stroke="#63b8ff" points="1699.64,-186.89 1709.22,-182.37 1698.91,-179.93 1699.64,-186.89"/>
</g>
<!-- Node30 -->
<g id="node30" class="node">
<title>Node30</title>
<g id="a_node30"><a xlink:href="Background_8hpp.html" target="_top" xlink:title=" ">
<polygon fill="white" stroke="#666666" points="1463,-184 1319,-184 1319,-165 1463,-165 1463,-184"/>
<text text-anchor="middle" x="1391" y="-172" font-family="Helvetica,sans-Serif" font-size="10.00">Components/Background.hpp</text>
</a>
</g>
</g>
<!-- Node2&#45;&gt;Node30 -->
<g id="edge42" class="edge">
<title>Node2&#45;&gt;Node30</title>
<path fill="none" stroke="#63b8ff" d="M984.13,-222.37C1061.1,-213.09 1212.62,-195.41 1307.5,-184.62"/>
<polygon fill="#63b8ff" stroke="#63b8ff" points="1307.74,-188.11 1317.28,-183.51 1306.95,-181.16 1307.74,-188.11"/>
</g>
<!-- Node17&#45;&gt;Node2 -->
<g id="edge17" class="edge">
<title>Node17&#45;&gt;Node2</title>
<path fill="none" stroke="#63b8ff" d="M1110.77,-184.45C1078.46,-193.33 1026.04,-206.99 986.97,-216.74"/>
<polygon fill="#63b8ff" stroke="#63b8ff" points="986.15,-213.34 977.29,-219.14 987.84,-220.13 986.15,-213.34"/>
</g>
<!-- Node18&#45;&gt;Node2 -->
<g id="edge19" class="edge">
<title>Node18&#45;&gt;Node2</title>
<path fill="none" stroke="#63b8ff" d="M1208.68,-184.05C1152.24,-193.78 1056.99,-209.61 995.27,-219.52"/>
<polygon fill="#63b8ff" stroke="#63b8ff" points="994.97,-216.02 985.65,-221.06 996.08,-222.93 994.97,-216.02"/>
</g>
<!-- Node19 -->
<g id="node19" class="node">
<title>Node19</title>
<g id="a_node19"><a xlink:title=" ">
<polygon fill="#e0e0e0" stroke="#999999" points="1333.5,-129 1304.5,-129 1304.5,-110 1333.5,-110 1333.5,-129"/>
<text text-anchor="middle" x="1319" y="-117" font-family="Helvetica,sans-Serif" font-size="10.00">list</text>
</a>
</g>
</g>
<!-- Node18&#45;&gt;Node19 -->
<g id="edge20" class="edge">
<title>Node18&#45;&gt;Node19</title>
<path fill="none" stroke="#63b8ff" d="M1265.86,-164.51C1275.11,-156.85 1288.62,-145.66 1299.71,-136.47"/>
<polygon fill="#63b8ff" stroke="#63b8ff" points="1301.67,-139.4 1307.14,-130.32 1297.2,-134.01 1301.67,-139.4"/>
</g>
<!-- Node20 -->
<g id="node20" class="node">
<title>Node20</title>
<g id="a_node20"><a xlink:title=" ">
<polygon fill="#e0e0e0" stroke="#999999" points="1205.5,-129 1162.5,-129 1162.5,-110 1205.5,-110 1205.5,-129"/>
<text text-anchor="middle" x="1184" y="-117" font-family="Helvetica,sans-Serif" font-size="10.00">queue</text>
</a>
</g>
</g>
<!-- Node18&#45;&gt;Node20 -->
<g id="edge21" class="edge">
<title>Node18&#45;&gt;Node20</title>
<path fill="none" stroke="#63b8ff" d="M1242.96,-164.51C1232.59,-156.77 1217.4,-145.43 1205.03,-136.2"/>
<polygon fill="#63b8ff" stroke="#63b8ff" points="1207.19,-133.44 1197.08,-130.26 1203,-139.05 1207.19,-133.44"/>
</g>
<!-- Node21 -->
<g id="node21" class="node">
<title>Node21</title>
<g id="a_node21"><a xlink:title=" ">
<polygon fill="#e0e0e0" stroke="#999999" points="1286,-129 1224,-129 1224,-110 1286,-110 1286,-129"/>
<text text-anchor="middle" x="1255" y="-117" font-family="Helvetica,sans-Serif" font-size="10.00">Skaldi.hpp</text>
</a>
</g>
</g>
<!-- Node18&#45;&gt;Node21 -->
<g id="edge22" class="edge">
<title>Node18&#45;&gt;Node21</title>
<path fill="none" stroke="#63b8ff" d="M1255,-164.75C1255,-158.27 1255,-149.16 1255,-140.9"/>
<polygon fill="#63b8ff" stroke="#63b8ff" points="1258.5,-140.96 1255,-130.96 1251.5,-140.96 1258.5,-140.96"/>
</g>
<!-- Node22&#45;&gt;Node1 -->
<g id="edge25" class="edge">
<title>Node22&#45;&gt;Node1</title>
<path fill="none" stroke="#63b8ff" d="M138.66,-184.5C289.58,-204.28 651.01,-251.65 830.78,-275.21"/>
<polygon fill="#63b8ff" stroke="#63b8ff" points="830.22,-278.67 840.59,-276.49 831.13,-271.73 830.22,-278.67"/>
</g>
<!-- Node22&#45;&gt;Node2 -->
<g id="edge24" class="edge">
<title>Node22&#45;&gt;Node2</title>
<path fill="none" stroke="#63b8ff" d="M140.38,-182.03C148.04,-182.75 155.69,-183.42 163,-184 429.14,-205.03 746.99,-219.97 876.66,-225.8"/>
<polygon fill="#63b8ff" stroke="#63b8ff" points="876.22,-229.28 886.37,-226.24 876.53,-222.29 876.22,-229.28"/>
</g>
<!-- Node23 -->
<g id="node23" class="node">
<title>Node23</title>
<g id="a_node23"><a xlink:href="SparseArray_8hpp.html" target="_top" xlink:title=" ">
<polygon fill="white" stroke="#666666" points="373.5,-129 262.5,-129 262.5,-110 373.5,-110 373.5,-129"/>
<text text-anchor="middle" x="318" y="-117" font-family="Helvetica,sans-Serif" font-size="10.00">Utils/SparseArray.hpp</text>
</a>
</g>
</g>
<!-- Node22&#45;&gt;Node23 -->
<g id="edge26" class="edge">
<title>Node22&#45;&gt;Node23</title>
<path fill="none" stroke="#63b8ff" d="M112.07,-164.51C154.24,-155.5 219.29,-141.6 264.97,-131.83"/>
<polygon fill="#63b8ff" stroke="#63b8ff" points="265.61,-135.28 274.66,-129.76 264.15,-128.43 265.61,-135.28"/>
</g>
<!-- Node23&#45;&gt;Node8 -->
<g id="edge27" class="edge">
<title>Node23&#45;&gt;Node8</title>
<path fill="none" stroke="#63b8ff" d="M341.46,-109.61C360.41,-101.81 387.25,-89.33 408,-74 425.86,-60.8 442.92,-41.92 454.26,-28.18"/>
<polygon fill="#63b8ff" stroke="#63b8ff" points="456.95,-30.41 460.48,-20.42 451.49,-26.03 456.95,-30.41"/>
</g>
<!-- Node23&#45;&gt;Node13 -->
<g id="edge30" class="edge">
<title>Node23&#45;&gt;Node13</title>
<path fill="none" stroke="#63b8ff" d="M303.34,-109.65C290.19,-101.34 270.75,-88.1 256,-74 241.46,-60.09 227.51,-41.83 218.06,-28.47"/>
<polygon fill="#63b8ff" stroke="#63b8ff" points="221.2,-26.84 212.64,-20.6 215.43,-30.82 221.2,-26.84"/>
</g>
<!-- Node24 -->
<g id="node24" class="node">
<title>Node24</title>
<g id="a_node24"><a xlink:title=" ">
<polygon fill="#e0e0e0" stroke="#999999" points="303,-19 247,-19 247,0 303,0 303,-19"/>
<text text-anchor="middle" x="275" y="-7" font-family="Helvetica,sans-Serif" font-size="10.00">algorithm</text>
</a>
</g>
</g>
<!-- Node23&#45;&gt;Node24 -->
<g id="edge28" class="edge">
<title>Node23&#45;&gt;Node24</title>
<path fill="none" stroke="#63b8ff" d="M300,-109.57C287.07,-102.05 270.62,-89.96 263,-74 256.27,-59.9 260.41,-42.36 265.59,-29.29"/>
<polygon fill="#63b8ff" stroke="#63b8ff" points="268.62,-31.08 269.53,-20.53 262.23,-28.21 268.62,-31.08"/>
</g>
<!-- Node25 -->
<g id="node25" class="node">
<title>Node25</title>
<g id="a_node25"><a xlink:title=" ">
<polygon fill="#e0e0e0" stroke="#999999" points="362,-19 324,-19 324,0 362,0 362,-19"/>
<text text-anchor="middle" x="343" y="-7" font-family="Helvetica,sans-Serif" font-size="10.00">array</text>
</a>
</g>
</g>
<!-- Node23&#45;&gt;Node25 -->
<g id="edge29" class="edge">
<title>Node23&#45;&gt;Node25</title>
<path fill="none" stroke="#63b8ff" d="M336,-109.57C348.93,-102.05 365.38,-89.96 373,-74 380.52,-58.24 370.24,-40.24 359.71,-27.43"/>
<polygon fill="#63b8ff" stroke="#63b8ff" points="362.56,-25.36 353.27,-20.26 357.35,-30.04 362.56,-25.36"/>
</g>
<!-- Node26 -->
<g id="node26" class="node">
<title>Node26</title>
<g id="a_node26"><a xlink:title=" ">
<polygon fill="#e0e0e0" stroke="#999999" points="421.5,-19 382.5,-19 382.5,0 421.5,0 421.5,-19"/>
<text text-anchor="middle" x="402" y="-7" font-family="Helvetica,sans-Serif" font-size="10.00">utility</text>
</a>
</g>
</g>
<!-- Node23&#45;&gt;Node26 -->
<g id="edge31" class="edge">
<title>Node23&#45;&gt;Node26</title>
<path fill="none" stroke="#63b8ff" d="M341.71,-109.52C357.53,-102.31 377.48,-90.62 389,-74 397.85,-61.25 400.93,-43.8 401.9,-30.43"/>
<polygon fill="#63b8ff" stroke="#63b8ff" points="405.39,-30.76 402.24,-20.64 398.39,-30.52 405.39,-30.76"/>
</g>
<!-- Node27 -->
<g id="node27" class="node">
<title>Node27</title>
<g id="a_node27"><a xlink:href="Vectors_8hpp.html" target="_top" xlink:title=" ">
<polygon fill="white" stroke="#666666" points="364,-74 272,-74 272,-55 364,-55 364,-74"/>
<text text-anchor="middle" x="318" y="-62" font-family="Helvetica,sans-Serif" font-size="10.00">Utils/Vectors.hpp</text>
</a>
</g>
</g>
<!-- Node23&#45;&gt;Node27 -->
<g id="edge32" class="edge">
<title>Node23&#45;&gt;Node27</title>
<path fill="none" stroke="#63b8ff" d="M318,-109.75C318,-103.27 318,-94.16 318,-85.9"/>
<polygon fill="#63b8ff" stroke="#63b8ff" points="321.5,-85.96 318,-75.96 314.5,-85.96 321.5,-85.96"/>
</g>
<!-- Node27&#45;&gt;Node8 -->
<g id="edge33" class="edge">
<title>Node27&#45;&gt;Node8</title>
<path fill="none" stroke="#63b8ff" d="M343.45,-54.51C367.76,-45.92 404.66,-32.88 431.99,-23.22"/>
<polygon fill="#63b8ff" stroke="#63b8ff" points="432.99,-26.58 441.25,-19.95 430.66,-19.98 432.99,-26.58"/>
</g>
<!-- Node27&#45;&gt;Node13 -->
<g id="edge36" class="edge">
<title>Node27&#45;&gt;Node13</title>
<path fill="none" stroke="#63b8ff" d="M299,-54.51C281.44,-46.2 255.08,-33.73 234.91,-24.18"/>
<polygon fill="#63b8ff" stroke="#63b8ff" points="236.62,-21.12 226.09,-20.01 233.63,-27.45 236.62,-21.12"/>
</g>
<!-- Node27&#45;&gt;Node24 -->
<g id="edge34" class="edge">
<title>Node27&#45;&gt;Node24</title>
<path fill="none" stroke="#63b8ff" d="M310.9,-54.75C305.08,-47.58 296.67,-37.2 289.44,-28.3"/>
<polygon fill="#63b8ff" stroke="#63b8ff" points="292.23,-26.18 283.21,-20.62 286.79,-30.59 292.23,-26.18"/>
</g>
<!-- Node27&#45;&gt;Node25 -->
<g id="edge35" class="edge">
<title>Node27&#45;&gt;Node25</title>
<path fill="none" stroke="#63b8ff" d="M322.13,-54.75C325.33,-47.96 329.89,-38.3 333.93,-29.73"/>
<polygon fill="#63b8ff" stroke="#63b8ff" points="337.04,-31.35 338.14,-20.81 330.7,-28.36 337.04,-31.35"/>
</g>
<!-- Node27&#45;&gt;Node26 -->
<g id="edge37" class="edge">
<title>Node27&#45;&gt;Node26</title>
<path fill="none" stroke="#63b8ff" d="M332.25,-54.51C344.88,-46.54 363.56,-34.75 378.41,-25.38"/>
<polygon fill="#63b8ff" stroke="#63b8ff" points="380.09,-28.46 386.68,-20.17 376.36,-22.54 380.09,-28.46"/>
</g>
<!-- Node28&#45;&gt;Node1 -->
<g id="edge40" class="edge">
<title>Node28&#45;&gt;Node1</title>
<path fill="none" stroke="#63b8ff" d="M1710.68,-183.83C1569.09,-203.05 1218.03,-250.71 1041.26,-274.71"/>
<polygon fill="#63b8ff" stroke="#63b8ff" points="1040.81,-271.24 1031.37,-276.05 1041.75,-278.17 1040.81,-271.24"/>
</g>
<!-- Node28&#45;&gt;Node2 -->
<g id="edge39" class="edge">
<title>Node28&#45;&gt;Node2</title>
<path fill="none" stroke="#63b8ff" d="M1710.6,-184.04C1444.72,-207.86 1125.87,-221.64 995.66,-226.49"/>
<polygon fill="#63b8ff" stroke="#63b8ff" points="995.76,-222.99 985.9,-226.85 996.02,-229.98 995.76,-222.99"/>
</g>
<!-- Node29 -->
<g id="node29" class="node">
<title>Node29</title>
<g id="a_node29"><a xlink:title=" ">
<polygon fill="#e0e0e0" stroke="#999999" points="1795,-129 1749,-129 1749,-110 1795,-110 1795,-129"/>
<text text-anchor="middle" x="1772" y="-117" font-family="Helvetica,sans-Serif" font-size="10.00">math.h</text>
</a>
</g>
</g>
<!-- Node28&#45;&gt;Node29 -->
<g id="edge41" class="edge">
<title>Node28&#45;&gt;Node29</title>
<path fill="none" stroke="#63b8ff" d="M1772,-164.75C1772,-158.27 1772,-149.16 1772,-140.9"/>
<polygon fill="#63b8ff" stroke="#63b8ff" points="1775.5,-140.96 1772,-130.96 1768.5,-140.96 1775.5,-140.96"/>
</g>
<!-- Node30&#45;&gt;Node2 -->
<g id="edge43" class="edge">
<title>Node30&#45;&gt;Node2</title>
<path fill="none" stroke="#63b8ff" d="M1318.97,-184.5C1229.52,-195.18 1078.74,-212.72 995.52,-222.1"/>
<polygon fill="#63b8ff" stroke="#63b8ff" points="995.29,-218.61 985.74,-223.2 996.07,-225.56 995.29,-218.61"/>
</g>
</g>
</svg>
        <g id="navigator" transform="translate(0 0)" fill="#404254">
                <rect fill="#f2f5e9" fill-opacity="0.5" stroke="#606060" stroke-width=".5" x="0" y="0" width="60" height="60"/>
                <use id="zoomplus" xlink:href="#zoomPlus" x="17" y="9" onmousedown="handleZoom(evt,'in')"/>
                <use id="zoomminus" xlink:href="#zoomMin" x="42" y="9" onmousedown="handleZoom(evt,'out')"/>
                <use id="reset" xlink:href="#resetDef" x="30" y="36" onmousedown="handleReset()"/>
                <g id="arrowUp" xlink:href="#dirArrow" transform="translate(30 24)" onmousedown="handlePan(0,-1)">
                  <use xlink:href="#rim" fill="#404040">
                        <set attributeName="fill" to="#808080" begin="arrowUp.mouseover" end="arrowUp.mouseout"/>
                  </use>
                  <path fill="none" stroke="white" stroke-width="1.5" d="M0,-3.0v7 M-2.5,-0.5L0,-3.0L2.5,-0.5"/>
                </g>
                <g id="arrowRight" xlink:href="#dirArrow" transform="rotate(90) translate(36 -43)" onmousedown="handlePan(1,0)">
                  <use xlink:href="#rim" fill="#404040">
                        <set attributeName="fill" to="#808080" begin="arrowRight.mouseover" end="arrowRight.mouseout"/>
                  </use>
                  <path fill="none" stroke="white" stroke-width="1.5" d="M0,-3.0v7 M-2.5,-0.5L0,-3.0L2.5,-0.5"/>
                </g>
                <g id="arrowDown" xlink:href="#dirArrow" transform="rotate(180) translate(-30 -48)" onmousedown="handlePan(0,1)">
                  <use xlink:href="#rim" fill="#404040">
                        <set attributeName="fill" to="#808080" begin="arrowDown.mouseover" end="arrowDown.mouseout"/>
                  </use>
                  <path fill="none" stroke="white" stroke-width="1.5" d="M0,-3.0v7 M-2.5,-0.5L0,-3.0L2.5,-0.5"/>
                </g>
                <g id="arrowLeft" xlink:href="#dirArrow" transform="rotate(270) translate(-36 17)" onmousedown="handlePan(-1,0)">
                  <use xlink:href="#rim" fill="#404040">
                        <set attributeName="fill" to="#808080" begin="arrowLeft.mouseover" end="arrowLeft.mouseout"/>
                  </use>
                  <path fill="none" stroke="white" stroke-width="1.5" d="M0,-3.0v7 M-2.5,-0.5L0,-3.0L2.5,-0.5"/>
                </g>
        </g>
        <svg viewBox="0 0 15 15" width="100%" height="30px" preserveAspectRatio="xMaxYMin meet">
         <g id="arrow_out" transform="scale(0.3 0.3)">
          <a xlink:href="IComponents_8hpp__incl_org.svg" target="_base">
           <rect id="button" ry="5" rx="5" y="6" x="6" height="38" width="38"
                fill="#f2f5e9" fill-opacity="0.5" stroke="#606060" stroke-width="1.0"/>
           <path id="arrow"
             d="M 11.500037,31.436501 C 11.940474,20.09759 22.043105,11.32322 32.158766,21.979434 L 37.068811,17.246167 C 37.068811,17.246167 37.088388,32 37.088388,32 L 22.160133,31.978069 C 22.160133,31.978069 26.997745,27.140456 26.997745,27.140456 C 18.528582,18.264221 13.291696,25.230495 11.500037,31.436501 z"
             style="fill:#404040;"/>
          </a>
         </g>
        </svg>
</svg>
