<?xml version="1.0" encoding="UTF-8" standalone="no"?>
<!DOCTYPE svg PUBLIC "-//W3C//DTD SVG 1.1//EN"
 "http://www.w3.org/Graphics/SVG/1.1/DTD/svg11.dtd">
<!-- Generated by graphviz version 7.0.5 (20221223.1930)
 -->
<!-- Title: /github/workspace/client/include/Components/IComponents.hpp Pages: 1 -->
<svg width="2657pt" height="610pt"
 viewBox="0.00 0.00 2656.91 610.00" xmlns="http://www.w3.org/2000/svg" xmlns:xlink="http://www.w3.org/1999/xlink">
<g id="graph0" class="graph" transform="scale(1 1) rotate(0) translate(4 606)">
<title>/github/workspace/client/include/Components/IComponents.hpp</title>
<!-- Node1 -->
<g id="node1" class="node">
<title>Node1</title>
<g id="a_node1"><a xlink:title=" ">
<polygon fill="#999999" stroke="#666666" points="1337.41,-602 1150.41,-602 1150.41,-572 1337.41,-572 1337.41,-602"/>
<text text-anchor="start" x="1158.41" y="-590" font-family="Helvetica,sans-Serif" font-size="10.00">/github/workspace/client</text>
<text text-anchor="middle" x="1243.91" y="-579" font-family="Helvetica,sans-Serif" font-size="10.00">/include/Components/IComponents.hpp</text>
</a>
</g>
</g>
<!-- Node2 -->
<g id="node2" class="node">
<title>Node2</title>
<g id="a_node2"><a xlink:href="Bullets_8hpp.html" target="_top" xlink:title=" ">
<polygon fill="white" stroke="#666666" points="1323.41,-536 1164.41,-536 1164.41,-506 1323.41,-506 1323.41,-536"/>
<text text-anchor="start" x="1172.41" y="-524" font-family="Helvetica,sans-Serif" font-size="10.00">/github/workspace/client</text>
<text text-anchor="middle" x="1243.91" y="-513" font-family="Helvetica,sans-Serif" font-size="10.00">/include/Components/Bullets.hpp</text>
</a>
</g>
</g>
<!-- Node1&#45;&gt;Node2 -->
<g id="edge1" class="edge">
<title>Node1&#45;&gt;Node2</title>
<path fill="none" stroke="#63b8ff" d="M1243.91,-560.39C1243.91,-552.13 1243.91,-543.28 1243.91,-536.16"/>
<polygon fill="#63b8ff" stroke="#63b8ff" points="1240.41,-560.28 1243.91,-570.28 1247.41,-560.28 1240.41,-560.28"/>
</g>
<!-- Node18 -->
<g id="node18" class="node">
<title>Node18</title>
<g id="a_node18"><a xlink:href="Centipede_8hpp.html" target="_top" xlink:title=" ">
<polygon fill="white" stroke="#666666" points="380.41,-398.5 207.41,-398.5 207.41,-368.5 380.41,-368.5 380.41,-398.5"/>
<text text-anchor="start" x="215.41" y="-386.5" font-family="Helvetica,sans-Serif" font-size="10.00">/github/workspace/client</text>
<text text-anchor="middle" x="293.91" y="-375.5" font-family="Helvetica,sans-Serif" font-size="10.00">/include/Components/Centipede.hpp</text>
</a>
</g>
</g>
<!-- Node1&#45;&gt;Node18 -->
<g id="edge62" class="edge">
<title>Node1&#45;&gt;Node18</title>
<path fill="none" stroke="#63b8ff" d="M1138.9,-579.44C1048.61,-572.54 915.26,-559.35 800.91,-536 623.14,-499.71 417.9,-429.24 333.38,-398.93"/>
<polygon fill="#63b8ff" stroke="#63b8ff" points="1138.5,-582.92 1148.73,-580.17 1139.02,-575.94 1138.5,-582.92"/>
</g>
<!-- Node34 -->
<g id="node34" class="node">
<title>Node34</title>
<g id="a_node34"><a xlink:href="EntitiesManager_8hpp.html" target="_top" xlink:title=" ">
<polygon fill="white" stroke="#666666" points="574.91,-398.5 398.91,-398.5 398.91,-368.5 574.91,-368.5 574.91,-398.5"/>
<text text-anchor="start" x="406.91" y="-386.5" font-family="Helvetica,sans-Serif" font-size="10.00">/github/workspace/client</text>
<text text-anchor="middle" x="486.91" y="-375.5" font-family="Helvetica,sans-Serif" font-size="10.00">/include/Entities/EntitiesManager.hpp</text>
</a>
</g>
</g>
<!-- Node1&#45;&gt;Node34 -->
<g id="edge63" class="edge">
<title>Node1&#45;&gt;Node34</title>
<path fill="none" stroke="#63b8ff" d="M1138.65,-572.05C1022.64,-554.98 831.46,-521.78 672.91,-470 613.78,-450.69 548.57,-417.83 513.23,-398.96"/>
<polygon fill="#63b8ff" stroke="#63b8ff" points="1138.09,-575.51 1148.49,-573.49 1139.1,-568.58 1138.09,-575.51"/>
</g>
<!-- Node40 -->
<g id="node40" class="node">
<title>Node40</title>
<g id="a_node40"><a xlink:href="oold__EntitiesManager_8hpp.html" target="_top" xlink:title=" ">
<polygon fill="white" stroke="#666666" points="2648.91,-404 2526.91,-404 2526.91,-363 2648.91,-363 2648.91,-404"/>
<text text-anchor="start" x="2534.91" y="-392" font-family="Helvetica,sans-Serif" font-size="10.00">/github/workspace/client</text>
<text text-anchor="start" x="2534.91" y="-381" font-family="Helvetica,sans-Serif" font-size="10.00">/include/Entities/oold</text>
<text text-anchor="middle" x="2587.91" y="-370" font-family="Helvetica,sans-Serif" font-size="10.00">_EntitiesManager.hpp</text>
</a>
</g>
</g>
<!-- Node1&#45;&gt;Node40 -->
<g id="edge64" class="edge">
<title>Node1&#45;&gt;Node40</title>
<path fill="none" stroke="#63b8ff" d="M1348.88,-575.67C1567.78,-553.11 2088.32,-494.12 2517.91,-404 2520.74,-403.4 2523.64,-402.76 2526.56,-402.08"/>
<polygon fill="#63b8ff" stroke="#63b8ff" points="1348.83,-572.16 1339.24,-576.66 1349.55,-579.12 1348.83,-572.16"/>
</g>
<!-- Node3 -->
<g id="node3" class="node">
<title>Node3</title>
<g id="a_node3"><a xlink:href="Engine_8hpp.html" target="_top" xlink:title=" ">
<polygon fill="white" stroke="#666666" points="1447.41,-470 1314.41,-470 1314.41,-440 1447.41,-440 1447.41,-470"/>
<text text-anchor="start" x="1322.41" y="-458" font-family="Helvetica,sans-Serif" font-size="10.00">/github/workspace/client</text>
<text text-anchor="middle" x="1380.91" y="-447" font-family="Helvetica,sans-Serif" font-size="10.00">/include/Engine/Engine.hpp</text>
</a>
</g>
</g>
<!-- Node2&#45;&gt;Node3 -->
<g id="edge2" class="edge">
<title>Node2&#45;&gt;Node3</title>
<path fill="none" stroke="#63b8ff" d="M1279.16,-500.61C1299.15,-490.9 1324.06,-479.34 1344.28,-470.43"/>
<polygon fill="#63b8ff" stroke="#63b8ff" points="1277.7,-497.42 1270.27,-504.97 1280.79,-503.71 1277.7,-497.42"/>
</g>
<!-- Node16 -->
<g id="node16" class="node">
<title>Node16</title>
<g id="a_node16"><a xlink:href="include_8hpp.html" target="_top" xlink:title=" ">
<polygon fill="white" stroke="#666666" points="950.91,-321.5 828.91,-321.5 828.91,-291.5 950.91,-291.5 950.91,-321.5"/>
<text text-anchor="start" x="836.91" y="-309.5" font-family="Helvetica,sans-Serif" font-size="10.00">/github/workspace/client</text>
<text text-anchor="middle" x="889.91" y="-298.5" font-family="Helvetica,sans-Serif" font-size="10.00">/include/include.hpp</text>
</a>
</g>
</g>
<!-- Node2&#45;&gt;Node16 -->
<g id="edge60" class="edge">
<title>Node2&#45;&gt;Node16</title>
<path fill="none" stroke="#63b8ff" d="M1152.68,-516.76C996.51,-509.09 688.33,-483.96 621.91,-404 525.48,-287.93 628.02,-363.32 800.91,-327 809.88,-325.11 819.36,-323.08 828.65,-321.07"/>
<polygon fill="#63b8ff" stroke="#63b8ff" points="1152.44,-520.25 1162.6,-517.23 1152.77,-513.26 1152.44,-520.25"/>
</g>
<!-- Node41 -->
<g id="node41" class="node">
<title>Node41</title>
<g id="a_node41"><a xlink:href="Bullets_8cpp.html" target="_top" xlink:title=" ">
<polygon fill="white" stroke="#666666" points="1295.91,-470 1173.91,-470 1173.91,-440 1295.91,-440 1295.91,-470"/>
<text text-anchor="start" x="1181.91" y="-458" font-family="Helvetica,sans-Serif" font-size="10.00">/github/workspace/client</text>
<text text-anchor="middle" x="1234.91" y="-447" font-family="Helvetica,sans-Serif" font-size="10.00">/src/Bullets.cpp</text>
</a>
</g>
</g>
<!-- Node2&#45;&gt;Node41 -->
<g id="edge61" class="edge">
<title>Node2&#45;&gt;Node41</title>
<path fill="none" stroke="#63b8ff" d="M1240.34,-494.68C1239.17,-486.34 1237.91,-477.37 1236.9,-470.16"/>
<polygon fill="#63b8ff" stroke="#63b8ff" points="1236.84,-494.88 1241.7,-504.3 1243.77,-493.91 1236.84,-494.88"/>
</g>
<!-- Node3&#45;&gt;Node1 -->
<g id="edge26" class="edge">
<title>Node3&#45;&gt;Node1</title>
<path fill="none" stroke="#63b8ff" d="M1369.98,-480.52C1361.46,-497.62 1348.32,-520.11 1331.91,-536 1316.37,-551.03 1295.45,-563.16 1277.91,-571.71"/>
<polygon fill="#63b8ff" stroke="#63b8ff" points="1373.11,-482.1 1374.25,-471.56 1366.79,-479.08 1373.11,-482.1"/>
</g>
<!-- Node3&#45;&gt;Node2 -->
<g id="edge23" class="edge">
<title>Node3&#45;&gt;Node2</title>
<path fill="none" stroke="#63b8ff" d="M1345.72,-475.36C1325.67,-485.1 1300.66,-496.7 1280.39,-505.64"/>
<polygon fill="#63b8ff" stroke="#63b8ff" points="1347.2,-478.53 1354.64,-470.98 1344.12,-472.25 1347.2,-478.53"/>
</g>
<!-- Node4 -->
<g id="node4" class="node">
<title>Node4</title>
<g id="a_node4"><a xlink:href="Background_8hpp.html" target="_top" xlink:title=" ">
<polygon fill="white" stroke="#666666" points="812.41,-398.5 631.41,-398.5 631.41,-368.5 812.41,-368.5 812.41,-398.5"/>
<text text-anchor="start" x="639.41" y="-386.5" font-family="Helvetica,sans-Serif" font-size="10.00">/github/workspace/client</text>
<text text-anchor="middle" x="721.91" y="-375.5" font-family="Helvetica,sans-Serif" font-size="10.00">/include/Components/Background.hpp</text>
</a>
</g>
</g>
<!-- Node3&#45;&gt;Node4 -->
<g id="edge3" class="edge">
<title>Node3&#45;&gt;Node4</title>
<path fill="none" stroke="#63b8ff" d="M1302.58,-440.91C1300.33,-440.59 1298.1,-440.28 1295.91,-440 1081.97,-412.42 1025.67,-432.9 811.91,-404 801.75,-402.63 791.07,-400.86 780.73,-398.96"/>
<polygon fill="#63b8ff" stroke="#63b8ff" points="1302.05,-444.37 1312.46,-442.42 1303.11,-437.45 1302.05,-444.37"/>
</g>
<!-- Node12 -->
<g id="node12" class="node">
<title>Node12</title>
<g id="a_node12"><a xlink:href="client_2src_2main_8cpp.html" target="_top" xlink:title=" ">
<polygon fill="white" stroke="#666666" points="239.91,-30 117.91,-30 117.91,0 239.91,0 239.91,-30"/>
<text text-anchor="start" x="125.91" y="-18" font-family="Helvetica,sans-Serif" font-size="10.00">/github/workspace/client</text>
<text text-anchor="middle" x="178.91" y="-7" font-family="Helvetica,sans-Serif" font-size="10.00">/src/main.cpp</text>
</a>
</g>
</g>
<!-- Node3&#45;&gt;Node12 -->
<g id="edge59" class="edge">
<title>Node3&#45;&gt;Node12</title>
<path fill="none" stroke="#63b8ff" d="M1303.07,-440.37C1172.78,-434.1 243.1,-442.41 197.91,-404 164.6,-375.69 178.91,-351.21 178.91,-307.5 178.91,-307.5 178.91,-307.5 178.91,-151.5 178.91,-107.27 178.91,-54.93 178.91,-30.24"/>
<polygon fill="#63b8ff" stroke="#63b8ff" points="1302.53,-443.84 1312.75,-441.04 1303.01,-436.86 1302.53,-443.84"/>
</g>
<!-- Node15 -->
<g id="node15" class="node">
<title>Node15</title>
<g id="a_node15"><a xlink:href="Bonus_8hpp.html" target="_top" xlink:title=" ">
<polygon fill="white" stroke="#666666" points="987.41,-398.5 830.41,-398.5 830.41,-368.5 987.41,-368.5 987.41,-398.5"/>
<text text-anchor="start" x="838.41" y="-386.5" font-family="Helvetica,sans-Serif" font-size="10.00">/github/workspace/client</text>
<text text-anchor="middle" x="908.91" y="-375.5" font-family="Helvetica,sans-Serif" font-size="10.00">/include/Components/Bonus.hpp</text>
</a>
</g>
</g>
<!-- Node3&#45;&gt;Node15 -->
<g id="edge18" class="edge">
<title>Node3&#45;&gt;Node15</title>
<path fill="none" stroke="#63b8ff" d="M1302.89,-439.78C1166.21,-419.85 1128.62,-426.54 995.91,-404 987.36,-402.55 978.39,-400.8 969.59,-398.95"/>
<polygon fill="#63b8ff" stroke="#63b8ff" points="1302.32,-443.23 1312.72,-441.24 1303.34,-436.31 1302.32,-443.23"/>
</g>
<!-- Node3&#45;&gt;Node16 -->
<g id="edge57" class="edge">
<title>Node3&#45;&gt;Node16</title>
<path fill="none" stroke="#63b8ff" d="M1366.43,-430.19C1351.25,-406.06 1327.73,-371.16 1313.91,-363 1253.81,-327.53 1053.31,-314.23 951.04,-309.66"/>
<polygon fill="#63b8ff" stroke="#63b8ff" points="1363.32,-431.83 1371.57,-438.48 1369.27,-428.13 1363.32,-431.83"/>
</g>
<!-- Node17 -->
<g id="node17" class="node">
<title>Node17</title>
<g id="a_node17"><a xlink:href="Bouton_8hpp.html" target="_top" xlink:title=" ">
<polygon fill="white" stroke="#666666" points="1963.91,-321.5 1803.91,-321.5 1803.91,-291.5 1963.91,-291.5 1963.91,-321.5"/>
<text text-anchor="start" x="1811.91" y="-309.5" font-family="Helvetica,sans-Serif" font-size="10.00">/github/workspace/client</text>
<text text-anchor="middle" x="1883.91" y="-298.5" font-family="Helvetica,sans-Serif" font-size="10.00">/include/Components/Bouton.hpp</text>
</a>
</g>
</g>
<!-- Node3&#45;&gt;Node17 -->
<g id="edge20" class="edge">
<title>Node3&#45;&gt;Node17</title>
<path fill="none" stroke="#63b8ff" d="M1459.07,-454.48C1637.44,-454.77 2062.5,-450.51 2105.91,-404 2118.34,-390.68 2117.12,-377.36 2105.91,-363 2100.96,-356.67 2013.64,-336.18 1950.01,-321.95"/>
<polygon fill="#63b8ff" stroke="#63b8ff" points="1459.21,-450.98 1449.2,-454.46 1459.19,-457.98 1459.21,-450.98"/>
</g>
<!-- Node3&#45;&gt;Node18 -->
<g id="edge24" class="edge">
<title>Node3&#45;&gt;Node18</title>
<path fill="none" stroke="#63b8ff" d="M1302.82,-439.91C898.42,-396.08 790.22,-452.21 389.91,-404 379.52,-402.75 368.59,-400.97 357.96,-399"/>
<polygon fill="#63b8ff" stroke="#63b8ff" points="1302.43,-443.39 1312.75,-441 1303.19,-436.43 1302.43,-443.39"/>
</g>
<!-- Node19 -->
<g id="node19" class="node">
<title>Node19</title>
<g id="a_node19"><a xlink:href="Mobs_8hpp.html" target="_top" xlink:title=" ">
<polygon fill="white" stroke="#666666" points="1158.41,-398.5 1005.41,-398.5 1005.41,-368.5 1158.41,-368.5 1158.41,-398.5"/>
<text text-anchor="start" x="1013.41" y="-386.5" font-family="Helvetica,sans-Serif" font-size="10.00">/github/workspace/client</text>
<text text-anchor="middle" x="1081.91" y="-375.5" font-family="Helvetica,sans-Serif" font-size="10.00">/include/Components/Mobs.hpp</text>
</a>
</g>
</g>
<!-- Node3&#45;&gt;Node19 -->
<g id="edge27" class="edge">
<title>Node3&#45;&gt;Node19</title>
<path fill="none" stroke="#63b8ff" d="M1307.5,-436.94C1257.38,-425.29 1191.7,-410.02 1144.14,-398.97"/>
<polygon fill="#63b8ff" stroke="#63b8ff" points="1306.58,-440.32 1317.11,-439.17 1308.17,-433.5 1306.58,-440.32"/>
</g>
<!-- Node20 -->
<g id="node20" class="node">
<title>Node20</title>
<g id="a_node20"><a xlink:href="Audio_8hpp.html" target="_top" xlink:title=" ">
<polygon fill="white" stroke="#666666" points="1304.91,-398.5 1176.91,-398.5 1176.91,-368.5 1304.91,-368.5 1304.91,-398.5"/>
<text text-anchor="start" x="1184.91" y="-386.5" font-family="Helvetica,sans-Serif" font-size="10.00">/github/workspace/client</text>
<text text-anchor="middle" x="1240.91" y="-375.5" font-family="Helvetica,sans-Serif" font-size="10.00">/include/Engine/Audio.hpp</text>
</a>
</g>
</g>
<!-- Node3&#45;&gt;Node20 -->
<g id="edge28" class="edge">
<title>Node3&#45;&gt;Node20</title>
<path fill="none" stroke="#63b8ff" d="M1341.84,-434.61C1319.02,-423.28 1290.7,-409.22 1269.88,-398.88"/>
<polygon fill="#63b8ff" stroke="#63b8ff" points="1340.03,-437.61 1350.54,-438.93 1343.14,-431.35 1340.03,-437.61"/>
</g>
<!-- Node21 -->
<g id="node21" class="node">
<title>Node21</title>
<g id="a_node21"><a xlink:href="Destroy_8hpp.html" target="_top" xlink:title=" ">
<polygon fill="white" stroke="#666666" points="1498.41,-398.5 1361.41,-398.5 1361.41,-368.5 1498.41,-368.5 1498.41,-398.5"/>
<text text-anchor="start" x="1369.41" y="-386.5" font-family="Helvetica,sans-Serif" font-size="10.00">/github/workspace/client</text>
<text text-anchor="middle" x="1429.91" y="-375.5" font-family="Helvetica,sans-Serif" font-size="10.00">/include/Engine/Destroy.hpp</text>
</a>
</g>
</g>
<!-- Node3&#45;&gt;Node21 -->
<g id="edge29" class="edge">
<title>Node3&#45;&gt;Node21</title>
<path fill="none" stroke="#63b8ff" d="M1397.68,-430.2C1405.02,-419.79 1413.4,-407.92 1419.77,-398.88"/>
<polygon fill="#63b8ff" stroke="#63b8ff" points="1394.83,-428.17 1391.93,-438.36 1400.55,-432.21 1394.83,-428.17"/>
</g>
<!-- Node23 -->
<g id="node23" class="node">
<title>Node23</title>
<g id="a_node23"><a xlink:href="Draw_8hpp.html" target="_top" xlink:title=" ">
<polygon fill="white" stroke="#666666" points="1642.91,-398.5 1516.91,-398.5 1516.91,-368.5 1642.91,-368.5 1642.91,-398.5"/>
<text text-anchor="start" x="1524.91" y="-386.5" font-family="Helvetica,sans-Serif" font-size="10.00">/github/workspace/client</text>
<text text-anchor="middle" x="1579.91" y="-375.5" font-family="Helvetica,sans-Serif" font-size="10.00">/include/Engine/Draw.hpp</text>
</a>
</g>
</g>
<!-- Node3&#45;&gt;Node23 -->
<g id="edge31" class="edge">
<title>Node3&#45;&gt;Node23</title>
<path fill="none" stroke="#63b8ff" d="M1432.95,-435.82C1465.96,-424.3 1508.05,-409.59 1538.72,-398.88"/>
<polygon fill="#63b8ff" stroke="#63b8ff" points="1431.85,-432.5 1423.57,-439.1 1434.16,-439.11 1431.85,-432.5"/>
</g>
<!-- Node25 -->
<g id="node25" class="node">
<title>Node25</title>
<g id="a_node25"><a xlink:href="Error_8hpp.html" target="_top" xlink:title=" ">
<polygon fill="white" stroke="#666666" points="150.91,-398.5 26.91,-398.5 26.91,-368.5 150.91,-368.5 150.91,-398.5"/>
<text text-anchor="start" x="34.91" y="-386.5" font-family="Helvetica,sans-Serif" font-size="10.00">/github/workspace/client</text>
<text text-anchor="middle" x="88.91" y="-375.5" font-family="Helvetica,sans-Serif" font-size="10.00">/include/Engine/Error.hpp</text>
</a>
</g>
</g>
<!-- Node3&#45;&gt;Node25 -->
<g id="edge33" class="edge">
<title>Node3&#45;&gt;Node25</title>
<path fill="none" stroke="#63b8ff" d="M1303.04,-439.95C798.89,-387.23 663.09,-474.9 164.91,-404 156.41,-402.79 147.49,-401 138.88,-398.98"/>
<polygon fill="#63b8ff" stroke="#63b8ff" points="1302.44,-443.4 1312.76,-440.98 1303.18,-436.44 1302.44,-443.4"/>
</g>
<!-- Node27 -->
<g id="node27" class="node">
<title>Node27</title>
<g id="a_node27"><a xlink:href="Event_8hpp.html" target="_top" xlink:title=" ">
<polygon fill="white" stroke="#666666" points="1788.91,-398.5 1660.91,-398.5 1660.91,-368.5 1788.91,-368.5 1788.91,-398.5"/>
<text text-anchor="start" x="1668.91" y="-386.5" font-family="Helvetica,sans-Serif" font-size="10.00">/github/workspace/client</text>
<text text-anchor="middle" x="1724.91" y="-375.5" font-family="Helvetica,sans-Serif" font-size="10.00">/include/Engine/Event.hpp</text>
</a>
</g>
</g>
<!-- Node3&#45;&gt;Node27 -->
<g id="edge36" class="edge">
<title>Node3&#45;&gt;Node27</title>
<path fill="none" stroke="#63b8ff" d="M1458.86,-439.96C1511.11,-430.76 1581.27,-417.9 1642.91,-404 1649.69,-402.47 1656.79,-400.74 1663.87,-398.95"/>
<polygon fill="#63b8ff" stroke="#63b8ff" points="1458.39,-436.49 1449.14,-441.66 1459.6,-443.38 1458.39,-436.49"/>
</g>
<!-- Node28 -->
<g id="node28" class="node">
<title>Node28</title>
<g id="a_node28"><a xlink:href="Event_8cpp.html" target="_top" xlink:title=" ">
<polygon fill="white" stroke="#666666" points="1785.91,-321.5 1663.91,-321.5 1663.91,-291.5 1785.91,-291.5 1785.91,-321.5"/>
<text text-anchor="start" x="1671.91" y="-309.5" font-family="Helvetica,sans-Serif" font-size="10.00">/github/workspace/client</text>
<text text-anchor="middle" x="1724.91" y="-298.5" font-family="Helvetica,sans-Serif" font-size="10.00">/src/Event.cpp</text>
</a>
</g>
</g>
<!-- Node3&#45;&gt;Node28 -->
<g id="edge58" class="edge">
<title>Node3&#45;&gt;Node28</title>
<path fill="none" stroke="#63b8ff" d="M1459.15,-454.25C1632.41,-453.97 2036.47,-448.51 2077.91,-404 2150.67,-325.83 2103.47,-389.26 1794.91,-327 1787.86,-325.58 1780.48,-323.82 1773.26,-321.95"/>
<polygon fill="#63b8ff" stroke="#63b8ff" points="1459.34,-450.74 1449.34,-454.25 1459.34,-457.74 1459.34,-450.74"/>
</g>
<!-- Node29 -->
<g id="node29" class="node">
<title>Node29</title>
<g id="a_node29"><a xlink:href="Map_8hpp.html" target="_top" xlink:title=" ">
<polygon fill="white" stroke="#666666" points="1928.91,-398.5 1806.91,-398.5 1806.91,-368.5 1928.91,-368.5 1928.91,-398.5"/>
<text text-anchor="start" x="1814.91" y="-386.5" font-family="Helvetica,sans-Serif" font-size="10.00">/github/workspace/client</text>
<text text-anchor="middle" x="1867.91" y="-375.5" font-family="Helvetica,sans-Serif" font-size="10.00">/include/Engine/Map.hpp</text>
</a>
</g>
</g>
<!-- Node3&#45;&gt;Node29 -->
<g id="edge39" class="edge">
<title>Node3&#45;&gt;Node29</title>
<path fill="none" stroke="#63b8ff" d="M1459.11,-448.2C1543.32,-441.13 1680.97,-427.16 1797.91,-404 1804.96,-402.6 1812.34,-400.86 1819.56,-399"/>
<polygon fill="#63b8ff" stroke="#63b8ff" points="1459.03,-444.7 1449.35,-449.01 1459.6,-451.67 1459.03,-444.7"/>
</g>
<!-- Node30 -->
<g id="node30" class="node">
<title>Node30</title>
<g id="a_node30"><a xlink:href="StateManager_8hpp.html" target="_top" xlink:title=" ">
<polygon fill="white" stroke="#666666" points="2496.91,-321.5 2332.91,-321.5 2332.91,-291.5 2496.91,-291.5 2496.91,-321.5"/>
<text text-anchor="start" x="2340.91" y="-309.5" font-family="Helvetica,sans-Serif" font-size="10.00">/github/workspace/client</text>
<text text-anchor="middle" x="2414.91" y="-298.5" font-family="Helvetica,sans-Serif" font-size="10.00">/include/Engine/StateManager.hpp</text>
</a>
</g>
</g>
<!-- Node3&#45;&gt;Node30 -->
<g id="edge40" class="edge">
<title>Node3&#45;&gt;Node30</title>
<path fill="none" stroke="#63b8ff" d="M1458.89,-453.21C1670.81,-450.6 2246.6,-440.22 2323.91,-404 2346.4,-393.46 2344.88,-381.1 2361.91,-363 2375.23,-348.83 2390.6,-332.77 2401.34,-321.59"/>
<polygon fill="#63b8ff" stroke="#63b8ff" points="1459.04,-449.71 1449.08,-453.33 1459.13,-456.71 1459.04,-449.71"/>
</g>
<!-- Node31 -->
<g id="node31" class="node">
<title>Node31</title>
<g id="a_node31"><a xlink:href="Text_8hpp.html" target="_top" xlink:title=" ">
<polygon fill="white" stroke="#666666" points="2068.91,-398.5 1946.91,-398.5 1946.91,-368.5 2068.91,-368.5 2068.91,-398.5"/>
<text text-anchor="start" x="1954.91" y="-386.5" font-family="Helvetica,sans-Serif" font-size="10.00">/github/workspace/client</text>
<text text-anchor="middle" x="2007.91" y="-375.5" font-family="Helvetica,sans-Serif" font-size="10.00">/include/Engine/Text.hpp</text>
</a>
</g>
</g>
<!-- Node3&#45;&gt;Node31 -->
<g id="edge42" class="edge">
<title>Node3&#45;&gt;Node31</title>
<path fill="none" stroke="#63b8ff" d="M1459.35,-451.46C1567.74,-446.93 1769.03,-434.83 1937.91,-404 1945.23,-402.66 1952.89,-400.91 1960.35,-398.99"/>
<polygon fill="#63b8ff" stroke="#63b8ff" points="1459.24,-447.96 1449.39,-451.86 1459.53,-454.95 1459.24,-447.96"/>
</g>
<!-- Node32 -->
<g id="node32" class="node">
<title>Node32</title>
<g id="a_node32"><a xlink:href="Window_8hpp.html" target="_top" xlink:title=" ">
<polygon fill="white" stroke="#666666" points="2508.91,-398.5 2370.91,-398.5 2370.91,-368.5 2508.91,-368.5 2508.91,-398.5"/>
<text text-anchor="start" x="2378.91" y="-386.5" font-family="Helvetica,sans-Serif" font-size="10.00">/github/workspace/client</text>
<text text-anchor="middle" x="2439.91" y="-375.5" font-family="Helvetica,sans-Serif" font-size="10.00">/include/Engine/Window.hpp</text>
</a>
</g>
</g>
<!-- Node3&#45;&gt;Node32 -->
<g id="edge43" class="edge">
<title>Node3&#45;&gt;Node32</title>
<path fill="none" stroke="#63b8ff" d="M1459.13,-454.75C1624.24,-455.18 2019.81,-450.56 2347.91,-404 2356.84,-402.73 2366.24,-400.96 2375.48,-399"/>
<polygon fill="#63b8ff" stroke="#63b8ff" points="1459.17,-451.25 1449.16,-454.72 1459.15,-458.25 1459.17,-451.25"/>
</g>
<!-- Node3&#45;&gt;Node34 -->
<g id="edge47" class="edge">
<title>Node3&#45;&gt;Node34</title>
<path fill="none" stroke="#63b8ff" d="M1302.59,-440.85C1300.33,-440.54 1298.1,-440.26 1295.91,-440 994.02,-404.39 915.42,-433.76 612.91,-404 599.12,-402.64 584.58,-400.89 570.47,-398.99"/>
<polygon fill="#63b8ff" stroke="#63b8ff" points="1302.08,-444.31 1312.48,-442.3 1303.09,-437.38 1302.08,-444.31"/>
</g>
<!-- Node36 -->
<g id="node36" class="node">
<title>Node36</title>
<g id="a_node36"><a xlink:href="Properties_8hpp.html" target="_top" xlink:title=" ">
<polygon fill="white" stroke="#666666" points="2314.41,-398.5 2163.41,-398.5 2163.41,-368.5 2314.41,-368.5 2314.41,-398.5"/>
<text text-anchor="start" x="2171.41" y="-386.5" font-family="Helvetica,sans-Serif" font-size="10.00">/github/workspace/client</text>
<text text-anchor="middle" x="2238.91" y="-375.5" font-family="Helvetica,sans-Serif" font-size="10.00">/include/Entities/Properties.hpp</text>
</a>
</g>
</g>
<!-- Node3&#45;&gt;Node36 -->
<g id="edge52" class="edge">
<title>Node3&#45;&gt;Node36</title>
<path fill="none" stroke="#63b8ff" d="M1459.12,-452.73C1598.43,-449.63 1898.41,-439.09 2148.91,-404 2158.4,-402.67 2168.4,-400.89 2178.12,-398.95"/>
<polygon fill="#63b8ff" stroke="#63b8ff" points="1459.2,-449.23 1449.27,-452.95 1459.35,-456.23 1459.2,-449.23"/>
</g>
<!-- Node3&#45;&gt;Node40 -->
<g id="edge56" class="edge">
<title>Node3&#45;&gt;Node40</title>
<path fill="none" stroke="#63b8ff" d="M1458.86,-452.88C1680.81,-449.33 2313.28,-436.56 2517.91,-404 2520.77,-403.54 2523.69,-403.01 2526.62,-402.42"/>
<polygon fill="#63b8ff" stroke="#63b8ff" points="1459.12,-449.38 1449.17,-453.03 1459.23,-456.38 1459.12,-449.38"/>
</g>
<!-- Node4&#45;&gt;Node3 -->
<g id="edge4" class="edge">
<title>Node4&#45;&gt;Node3</title>
<path fill="none" stroke="#63b8ff" d="M809.42,-400.86C816.35,-402.03 823.24,-403.1 829.91,-404 1043.56,-432.88 1099.92,-412.44 1313.59,-439.96"/>
<polygon fill="#63b8ff" stroke="#63b8ff" points="810.46,-397.49 800.01,-399.22 809.26,-404.39 810.46,-397.49"/>
</g>
<!-- Node5 -->
<g id="node5" class="node">
<title>Node5</title>
<g id="a_node5"><a xlink:href="IGameState_8hpp.html" target="_top" xlink:title=" ">
<polygon fill="white" stroke="#666666" points="791.91,-327 651.91,-327 651.91,-286 791.91,-286 791.91,-327"/>
<text text-anchor="start" x="659.91" y="-315" font-family="Helvetica,sans-Serif" font-size="10.00">/github/workspace/client</text>
<text text-anchor="start" x="659.91" y="-304" font-family="Helvetica,sans-Serif" font-size="10.00">/include/system/gameStates</text>
<text text-anchor="middle" x="721.91" y="-293" font-family="Helvetica,sans-Serif" font-size="10.00">/IGameState.hpp</text>
</a>
</g>
</g>
<!-- Node4&#45;&gt;Node5 -->
<g id="edge5" class="edge">
<title>Node4&#45;&gt;Node5</title>
<path fill="none" stroke="#63b8ff" d="M721.91,-356.68C721.91,-347.06 721.91,-336.3 721.91,-327.3"/>
<polygon fill="#63b8ff" stroke="#63b8ff" points="718.41,-356.53 721.91,-366.53 725.41,-356.53 718.41,-356.53"/>
</g>
<!-- Node6 -->
<g id="node6" class="node">
<title>Node6</title>
<g id="a_node6"><a xlink:href="SGamePlay__Duck_8hpp.html" target="_top" xlink:title=" ">
<polygon fill="white" stroke="#666666" points="693.41,-250 536.41,-250 536.41,-209 693.41,-209 693.41,-250"/>
<text text-anchor="start" x="544.41" y="-238" font-family="Helvetica,sans-Serif" font-size="10.00">/github/workspace/client</text>
<text text-anchor="start" x="544.41" y="-227" font-family="Helvetica,sans-Serif" font-size="10.00">/include/system/gameStates</text>
<text text-anchor="middle" x="614.91" y="-216" font-family="Helvetica,sans-Serif" font-size="10.00">/Example/SGamePlay_Duck.hpp</text>
</a>
</g>
</g>
<!-- Node5&#45;&gt;Node6 -->
<g id="edge6" class="edge">
<title>Node5&#45;&gt;Node6</title>
<path fill="none" stroke="#63b8ff" d="M684.47,-279.26C671,-269.82 656.02,-259.32 643.43,-250.49"/>
<polygon fill="#63b8ff" stroke="#63b8ff" points="682.07,-281.86 692.27,-284.73 686.09,-276.12 682.07,-281.86"/>
</g>
<!-- Node7 -->
<g id="node7" class="node">
<title>Node7</title>
<g id="a_node7"><a xlink:href="SMenu__Duck_8hpp.html" target="_top" xlink:title=" ">
<polygon fill="white" stroke="#666666" points="1598.91,-250 1458.91,-250 1458.91,-209 1598.91,-209 1598.91,-250"/>
<text text-anchor="start" x="1466.91" y="-238" font-family="Helvetica,sans-Serif" font-size="10.00">/github/workspace/client</text>
<text text-anchor="start" x="1466.91" y="-227" font-family="Helvetica,sans-Serif" font-size="10.00">/include/system/gameStates</text>
<text text-anchor="middle" x="1528.91" y="-216" font-family="Helvetica,sans-Serif" font-size="10.00">/Example/SMenu_Duck.hpp</text>
</a>
</g>
</g>
<!-- Node5&#45;&gt;Node7 -->
<g id="edge7" class="edge">
<title>Node5&#45;&gt;Node7</title>
<path fill="none" stroke="#63b8ff" d="M803.66,-288.48C809.15,-287.57 814.6,-286.73 819.91,-286 1052.44,-253.88 1330.64,-238.86 1458.42,-233.25"/>
<polygon fill="#63b8ff" stroke="#63b8ff" points="803.14,-285.02 793.89,-290.18 804.34,-291.92 803.14,-285.02"/>
</g>
<!-- Node8 -->
<g id="node8" class="node">
<title>Node8</title>
<g id="a_node8"><a xlink:href="SGamePlay_8hpp.html" target="_top" xlink:title=" ">
<polygon fill="white" stroke="#666666" points="889.91,-250 749.91,-250 749.91,-209 889.91,-209 889.91,-250"/>
<text text-anchor="start" x="757.91" y="-238" font-family="Helvetica,sans-Serif" font-size="10.00">/github/workspace/client</text>
<text text-anchor="start" x="757.91" y="-227" font-family="Helvetica,sans-Serif" font-size="10.00">/include/system/gameStates</text>
<text text-anchor="middle" x="819.91" y="-216" font-family="Helvetica,sans-Serif" font-size="10.00">/SGamePlay.hpp</text>
</a>
</g>
</g>
<!-- Node5&#45;&gt;Node8 -->
<g id="edge8" class="edge">
<title>Node5&#45;&gt;Node8</title>
<path fill="none" stroke="#63b8ff" d="M756.9,-278.71C769.06,-269.41 782.47,-259.15 793.78,-250.49"/>
<polygon fill="#63b8ff" stroke="#63b8ff" points="754.93,-275.82 749.11,-284.68 759.18,-281.38 754.93,-275.82"/>
</g>
<!-- Node9 -->
<g id="node9" class="node">
<title>Node9</title>
<g id="a_node9"><a xlink:href="States_8hpp.html" target="_top" xlink:title=" ">
<polygon fill="white" stroke="#666666" points="938.91,-173 798.91,-173 798.91,-132 938.91,-132 938.91,-173"/>
<text text-anchor="start" x="806.91" y="-161" font-family="Helvetica,sans-Serif" font-size="10.00">/github/workspace/client</text>
<text text-anchor="start" x="806.91" y="-150" font-family="Helvetica,sans-Serif" font-size="10.00">/include/system/gameStates</text>
<text text-anchor="middle" x="868.91" y="-139" font-family="Helvetica,sans-Serif" font-size="10.00">/States.hpp</text>
</a>
</g>
</g>
<!-- Node5&#45;&gt;Node9 -->
<g id="edge16" class="edge">
<title>Node5&#45;&gt;Node9</title>
<path fill="none" stroke="#63b8ff" d="M803.23,-289.74C843.86,-280.04 886.9,-266.35 898.91,-250 915.83,-226.95 899.04,-194.13 884.61,-173.33"/>
<polygon fill="#63b8ff" stroke="#63b8ff" points="802.57,-286.3 793.62,-291.96 804.15,-293.12 802.57,-286.3"/>
</g>
<!-- Node13 -->
<g id="node13" class="node">
<title>Node13</title>
<g id="a_node13"><a xlink:href="SMenu_8hpp.html" target="_top" xlink:title=" ">
<polygon fill="white" stroke="#666666" points="1085.91,-250 945.91,-250 945.91,-209 1085.91,-209 1085.91,-250"/>
<text text-anchor="start" x="953.91" y="-238" font-family="Helvetica,sans-Serif" font-size="10.00">/github/workspace/client</text>
<text text-anchor="start" x="953.91" y="-227" font-family="Helvetica,sans-Serif" font-size="10.00">/include/system/gameStates</text>
<text text-anchor="middle" x="1015.91" y="-216" font-family="Helvetica,sans-Serif" font-size="10.00">/SMenu.hpp</text>
</a>
</g>
</g>
<!-- Node5&#45;&gt;Node13 -->
<g id="edge14" class="edge">
<title>Node5&#45;&gt;Node13</title>
<path fill="none" stroke="#63b8ff" d="M803.44,-284.7C848.07,-273.32 902.81,-259.35 945.55,-248.45"/>
<polygon fill="#63b8ff" stroke="#63b8ff" points="802.62,-281.3 793.79,-287.16 804.35,-288.08 802.62,-281.3"/>
</g>
<!-- Node14 -->
<g id="node14" class="node">
<title>Node14</title>
<g id="a_node14"><a xlink:href="old__SGamePlay_01copy_8hpp.html" target="_top" xlink:title=" ">
<polygon fill="white" stroke="#666666" points="517.91,-250 377.91,-250 377.91,-209 517.91,-209 517.91,-250"/>
<text text-anchor="start" x="385.91" y="-238" font-family="Helvetica,sans-Serif" font-size="10.00">/github/workspace/client</text>
<text text-anchor="start" x="385.91" y="-227" font-family="Helvetica,sans-Serif" font-size="10.00">/include/system/gameStates</text>
<text text-anchor="middle" x="447.91" y="-216" font-family="Helvetica,sans-Serif" font-size="10.00">/old_SGamePlay copy.hpp</text>
</a>
</g>
</g>
<!-- Node5&#45;&gt;Node14 -->
<g id="edge17" class="edge">
<title>Node5&#45;&gt;Node14</title>
<path fill="none" stroke="#63b8ff" d="M640.93,-283.34C602.03,-272.69 555.84,-260.05 518.4,-249.8"/>
<polygon fill="#63b8ff" stroke="#63b8ff" points="639.67,-286.62 650.24,-285.88 641.52,-279.87 639.67,-286.62"/>
</g>
<!-- Node8&#45;&gt;Node9 -->
<g id="edge9" class="edge">
<title>Node8&#45;&gt;Node9</title>
<path fill="none" stroke="#63b8ff" d="M838.96,-199.34C844.64,-190.63 850.75,-181.3 855.95,-173.33"/>
<polygon fill="#63b8ff" stroke="#63b8ff" points="836.15,-197.24 833.61,-207.53 842.01,-201.07 836.15,-197.24"/>
</g>
<!-- Node10 -->
<g id="node10" class="node">
<title>Node10</title>
<g id="a_node10"><a xlink:href="GameEngine_8hpp.html" target="_top" xlink:title=" ">
<polygon fill="white" stroke="#666666" points="900.41,-96 739.41,-96 739.41,-66 900.41,-66 900.41,-96"/>
<text text-anchor="start" x="747.41" y="-84" font-family="Helvetica,sans-Serif" font-size="10.00">/github/workspace/client</text>
<text text-anchor="middle" x="819.91" y="-73" font-family="Helvetica,sans-Serif" font-size="10.00">/include/system/GameEngine.hpp</text>
</a>
</g>
</g>
<!-- Node9&#45;&gt;Node10 -->
<g id="edge10" class="edge">
<title>Node9&#45;&gt;Node10</title>
<path fill="none" stroke="#63b8ff" d="M848.38,-122.38C842.07,-113.44 835.41,-103.99 830.11,-96.47"/>
<polygon fill="#63b8ff" stroke="#63b8ff" points="845.5,-124.38 854.12,-130.53 851.22,-120.34 845.5,-124.38"/>
</g>
<!-- Node10&#45;&gt;Node5 -->
<g id="edge11" class="edge">
<title>Node10&#45;&gt;Node5</title>
<path fill="none" stroke="#63b8ff" d="M801.62,-105.49C783.47,-129.98 756.22,-170.14 740.91,-209 730.89,-234.42 725.97,-265.76 723.69,-285.69"/>
<polygon fill="#63b8ff" stroke="#63b8ff" points="804.41,-107.61 807.64,-97.52 798.82,-103.39 804.41,-107.61"/>
</g>
<!-- Node11 -->
<g id="node11" class="node">
<title>Node11</title>
<g id="a_node11"><a xlink:href="StateManager_8cpp.html" target="_top" xlink:title=" ">
<polygon fill="white" stroke="#666666" points="1655.91,-30 1533.91,-30 1533.91,0 1655.91,0 1655.91,-30"/>
<text text-anchor="start" x="1541.91" y="-18" font-family="Helvetica,sans-Serif" font-size="10.00">/github/workspace/client</text>
<text text-anchor="middle" x="1594.91" y="-7" font-family="Helvetica,sans-Serif" font-size="10.00">/src/StateManager.cpp</text>
</a>
</g>
</g>
<!-- Node10&#45;&gt;Node11 -->
<g id="edge12" class="edge">
<title>Node10&#45;&gt;Node11</title>
<path fill="none" stroke="#63b8ff" d="M911.89,-72.4C1072.06,-59.18 1398.02,-32.26 1533.6,-21.06"/>
<polygon fill="#63b8ff" stroke="#63b8ff" points="911.84,-68.9 902.16,-73.21 912.41,-75.87 911.84,-68.9"/>
</g>
<!-- Node10&#45;&gt;Node12 -->
<g id="edge13" class="edge">
<title>Node10&#45;&gt;Node12</title>
<path fill="none" stroke="#63b8ff" d="M727.72,-70.8C594.95,-57.54 353.44,-33.43 240.37,-22.14"/>
<polygon fill="#63b8ff" stroke="#63b8ff" points="727.24,-74.27 737.54,-71.78 727.94,-67.3 727.24,-74.27"/>
</g>
<!-- Node13&#45;&gt;Node9 -->
<g id="edge15" class="edge">
<title>Node13&#45;&gt;Node9</title>
<path fill="none" stroke="#63b8ff" d="M966.87,-203.48C947.75,-193.73 926.14,-182.7 908.09,-173.49"/>
<polygon fill="#63b8ff" stroke="#63b8ff" points="965.05,-206.48 975.55,-207.91 968.23,-200.25 965.05,-206.48"/>
</g>
<!-- Node15&#45;&gt;Node16 -->
<g id="edge19" class="edge">
<title>Node15&#45;&gt;Node16</title>
<path fill="none" stroke="#63b8ff" d="M902.47,-357.1C899.5,-345.37 896.08,-331.87 893.56,-321.92"/>
<polygon fill="#63b8ff" stroke="#63b8ff" points="899.02,-357.74 904.87,-366.57 905.81,-356.02 899.02,-357.74"/>
</g>
<!-- Node17&#45;&gt;Node7 -->
<g id="edge21" class="edge">
<title>Node17&#45;&gt;Node7</title>
<path fill="none" stroke="#63b8ff" d="M1807.23,-288.65C1803.06,-287.75 1798.93,-286.86 1794.91,-286 1728.59,-271.82 1652.88,-256.06 1599.23,-244.97"/>
<polygon fill="#63b8ff" stroke="#63b8ff" points="1806.31,-292.03 1816.83,-290.73 1807.79,-285.19 1806.31,-292.03"/>
</g>
<!-- Node17&#45;&gt;Node13 -->
<g id="edge22" class="edge">
<title>Node17&#45;&gt;Node13</title>
<path fill="none" stroke="#63b8ff" d="M1812.91,-288.99C1806.84,-287.87 1800.78,-286.85 1794.91,-286 1535.41,-248.53 1223.46,-236 1086.36,-232.11"/>
<polygon fill="#63b8ff" stroke="#63b8ff" points="1811.83,-292.34 1822.31,-290.81 1813.16,-285.47 1811.83,-292.34"/>
</g>
<!-- Node18&#45;&gt;Node5 -->
<g id="edge25" class="edge">
<title>Node18&#45;&gt;Node5</title>
<path fill="none" stroke="#63b8ff" d="M374.8,-365.86C379.91,-364.87 384.97,-363.91 389.91,-363 479.98,-346.33 584.22,-329.27 651.51,-318.54"/>
<polygon fill="#63b8ff" stroke="#63b8ff" points="374.21,-362.41 365.07,-367.76 375.56,-369.28 374.21,-362.41"/>
</g>
<!-- Node22 -->
<g id="node22" class="node">
<title>Node22</title>
<g id="a_node22"><a xlink:href="Destroy_8cpp.html" target="_top" xlink:title=" ">
<polygon fill="white" stroke="#666666" points="1490.91,-321.5 1368.91,-321.5 1368.91,-291.5 1490.91,-291.5 1490.91,-321.5"/>
<text text-anchor="start" x="1376.91" y="-309.5" font-family="Helvetica,sans-Serif" font-size="10.00">/github/workspace/client</text>
<text text-anchor="middle" x="1429.91" y="-298.5" font-family="Helvetica,sans-Serif" font-size="10.00">/src/Destroy.cpp</text>
</a>
</g>
</g>
<!-- Node21&#45;&gt;Node22 -->
<g id="edge30" class="edge">
<title>Node21&#45;&gt;Node22</title>
<path fill="none" stroke="#63b8ff" d="M1429.91,-356.73C1429.91,-345.08 1429.91,-331.76 1429.91,-321.92"/>
<polygon fill="#63b8ff" stroke="#63b8ff" points="1426.41,-356.53 1429.91,-366.53 1433.41,-356.53 1426.41,-356.53"/>
</g>
<!-- Node24 -->
<g id="node24" class="node">
<title>Node24</title>
<g id="a_node24"><a xlink:href="Draw_8cpp.html" target="_top" xlink:title=" ">
<polygon fill="white" stroke="#666666" points="1640.91,-321.5 1518.91,-321.5 1518.91,-291.5 1640.91,-291.5 1640.91,-321.5"/>
<text text-anchor="start" x="1526.91" y="-309.5" font-family="Helvetica,sans-Serif" font-size="10.00">/github/workspace/client</text>
<text text-anchor="middle" x="1579.91" y="-298.5" font-family="Helvetica,sans-Serif" font-size="10.00">/src/Draw.cpp</text>
</a>
</g>
</g>
<!-- Node23&#45;&gt;Node24 -->
<g id="edge32" class="edge">
<title>Node23&#45;&gt;Node24</title>
<path fill="none" stroke="#63b8ff" d="M1579.91,-356.73C1579.91,-345.08 1579.91,-331.76 1579.91,-321.92"/>
<polygon fill="#63b8ff" stroke="#63b8ff" points="1576.41,-356.53 1579.91,-366.53 1583.41,-356.53 1576.41,-356.53"/>
</g>
<!-- Node25&#45;&gt;Node12 -->
<g id="edge35" class="edge">
<title>Node25&#45;&gt;Node12</title>
<path fill="none" stroke="#63b8ff" d="M53.71,-361.61C41.22,-352.49 28.21,-340.73 19.91,-327 -2.72,-289.6 0.91,-274.21 0.91,-230.5 0.91,-230.5 0.91,-230.5 0.91,-151.5 0.91,-86.84 76.2,-48.97 128.85,-30.39"/>
<polygon fill="#63b8ff" stroke="#63b8ff" points="51.6,-364.41 61.82,-367.19 55.57,-358.64 51.6,-364.41"/>
</g>
<!-- Node26 -->
<g id="node26" class="node">
<title>Node26</title>
<g id="a_node26"><a xlink:href="Error_8cpp.html" target="_top" xlink:title=" ">
<polygon fill="white" stroke="#666666" points="150.91,-321.5 28.91,-321.5 28.91,-291.5 150.91,-291.5 150.91,-321.5"/>
<text text-anchor="start" x="36.91" y="-309.5" font-family="Helvetica,sans-Serif" font-size="10.00">/github/workspace/client</text>
<text text-anchor="middle" x="89.91" y="-298.5" font-family="Helvetica,sans-Serif" font-size="10.00">/src/Error.cpp</text>
</a>
</g>
</g>
<!-- Node25&#45;&gt;Node26 -->
<g id="edge34" class="edge">
<title>Node25&#45;&gt;Node26</title>
<path fill="none" stroke="#63b8ff" d="M89.25,-356.73C89.4,-345.08 89.58,-331.76 89.71,-321.92"/>
<polygon fill="#63b8ff" stroke="#63b8ff" points="85.75,-356.48 89.12,-366.53 92.75,-356.57 85.75,-356.48"/>
</g>
<!-- Node27&#45;&gt;Node3 -->
<g id="edge37" class="edge">
<title>Node27&#45;&gt;Node3</title>
<path fill="none" stroke="#63b8ff" d="M1670.6,-401.73C1667.33,-402.52 1664.08,-403.28 1660.91,-404 1588.68,-420.28 1504.75,-435.15 1447.67,-444.36"/>
<polygon fill="#63b8ff" stroke="#63b8ff" points="1671.39,-405.14 1680.24,-399.32 1669.69,-398.35 1671.39,-405.14"/>
</g>
<!-- Node27&#45;&gt;Node28 -->
<g id="edge38" class="edge">
<title>Node27&#45;&gt;Node28</title>
<path fill="none" stroke="#63b8ff" d="M1724.91,-356.73C1724.91,-345.08 1724.91,-331.76 1724.91,-321.92"/>
<polygon fill="#63b8ff" stroke="#63b8ff" points="1721.41,-356.53 1724.91,-366.53 1728.41,-356.53 1721.41,-356.53"/>
</g>
<!-- Node30&#45;&gt;Node11 -->
<g id="edge41" class="edge">
<title>Node30&#45;&gt;Node11</title>
<path fill="none" stroke="#63b8ff" d="M2395.31,-282.68C2375.23,-260.7 2342.07,-228.07 2306.91,-209 2085.4,-88.87 1783.81,-39.39 1656.07,-22.92"/>
<polygon fill="#63b8ff" stroke="#63b8ff" points="2392.55,-284.84 2401.82,-289.96 2397.76,-280.18 2392.55,-284.84"/>
</g>
<!-- Node32&#45;&gt;Node3 -->
<g id="edge44" class="edge">
<title>Node32&#45;&gt;Node3</title>
<path fill="none" stroke="#63b8ff" d="M2382.13,-401.27C2376.68,-402.32 2371.21,-403.25 2365.91,-404 2023.43,-452.6 1607.43,-455.5 1447.68,-454.67"/>
<polygon fill="#63b8ff" stroke="#63b8ff" points="2382.66,-404.74 2391.75,-399.3 2381.25,-397.88 2382.66,-404.74"/>
</g>
<!-- Node32&#45;&gt;Node30 -->
<g id="edge45" class="edge">
<title>Node32&#45;&gt;Node30</title>
<path fill="none" stroke="#63b8ff" d="M2431.56,-357.46C2427.62,-345.65 2423.06,-331.97 2419.71,-321.92"/>
<polygon fill="#63b8ff" stroke="#63b8ff" points="2428.12,-358.22 2434.61,-366.6 2434.76,-356.01 2428.12,-358.22"/>
</g>
<!-- Node33 -->
<g id="node33" class="node">
<title>Node33</title>
<g id="a_node33"><a xlink:href="Window_8cpp.html" target="_top" xlink:title=" ">
<polygon fill="white" stroke="#666666" points="2636.91,-321.5 2514.91,-321.5 2514.91,-291.5 2636.91,-291.5 2636.91,-321.5"/>
<text text-anchor="start" x="2522.91" y="-309.5" font-family="Helvetica,sans-Serif" font-size="10.00">/github/workspace/client</text>
<text text-anchor="middle" x="2575.91" y="-298.5" font-family="Helvetica,sans-Serif" font-size="10.00">/src/Window.cpp</text>
</a>
</g>
</g>
<!-- Node32&#45;&gt;Node33 -->
<g id="edge46" class="edge">
<title>Node32&#45;&gt;Node33</title>
<path fill="none" stroke="#63b8ff" d="M2475.96,-362.62C2499.17,-349.82 2528.81,-333.47 2549.76,-321.92"/>
<polygon fill="#63b8ff" stroke="#63b8ff" points="2474.52,-359.41 2467.45,-367.31 2477.9,-365.54 2474.52,-359.41"/>
</g>
<!-- Node34&#45;&gt;Node3 -->
<g id="edge48" class="edge">
<title>Node34&#45;&gt;Node3</title>
<path fill="none" stroke="#63b8ff" d="M586.45,-398.75C601.36,-400.74 616.54,-402.59 630.91,-404 933.27,-433.74 1011.94,-404.42 1313.46,-439.95"/>
<polygon fill="#63b8ff" stroke="#63b8ff" points="586.99,-395.29 576.61,-397.41 586.05,-402.23 586.99,-395.29"/>
</g>
<!-- Node34&#45;&gt;Node5 -->
<g id="edge50" class="edge">
<title>Node34&#45;&gt;Node5</title>
<path fill="none" stroke="#63b8ff" d="M542.75,-364.68C577.83,-353.48 623.14,-339.02 659.41,-327.44"/>
<polygon fill="#63b8ff" stroke="#63b8ff" points="542.12,-361.2 533.66,-367.58 544.25,-367.87 542.12,-361.2"/>
</g>
<!-- Node34&#45;&gt;Node16 -->
<g id="edge49" class="edge">
<title>Node34&#45;&gt;Node16</title>
<path fill="none" stroke="#63b8ff" d="M572.76,-365.95C578.22,-364.94 583.64,-363.95 588.91,-363 682.96,-346.03 707.09,-345.23 800.91,-327 809.91,-325.25 819.4,-323.29 828.7,-321.31"/>
<polygon fill="#63b8ff" stroke="#63b8ff" points="572.2,-362.5 563.01,-367.77 573.48,-369.38 572.2,-362.5"/>
</g>
<!-- Node35 -->
<g id="node35" class="node">
<title>Node35</title>
<g id="a_node35"><a xlink:href="EntitiesManager_8cpp.html" target="_top" xlink:title=" ">
<polygon fill="white" stroke="#666666" points="548.91,-321.5 424.91,-321.5 424.91,-291.5 548.91,-291.5 548.91,-321.5"/>
<text text-anchor="start" x="432.91" y="-309.5" font-family="Helvetica,sans-Serif" font-size="10.00">/github/workspace/client</text>
<text text-anchor="middle" x="486.91" y="-298.5" font-family="Helvetica,sans-Serif" font-size="10.00">/src/EntitiesManager.cpp</text>
</a>
</g>
</g>
<!-- Node34&#45;&gt;Node35 -->
<g id="edge51" class="edge">
<title>Node34&#45;&gt;Node35</title>
<path fill="none" stroke="#63b8ff" d="M486.91,-356.73C486.91,-345.08 486.91,-331.76 486.91,-321.92"/>
<polygon fill="#63b8ff" stroke="#63b8ff" points="483.41,-356.53 486.91,-366.53 490.41,-356.53 483.41,-356.53"/>
</g>
<!-- Node37 -->
<g id="node37" class="node">
<title>Node37</title>
<g id="a_node37"><a xlink:href="Enemy_8hpp.html" target="_top" xlink:title=" ">
<polygon fill="white" stroke="#666666" points="2140.91,-321.5 1982.91,-321.5 1982.91,-291.5 2140.91,-291.5 2140.91,-321.5"/>
<text text-anchor="start" x="1990.91" y="-309.5" font-family="Helvetica,sans-Serif" font-size="10.00">/github/workspace/client</text>
<text text-anchor="middle" x="2061.91" y="-298.5" font-family="Helvetica,sans-Serif" font-size="10.00">/include/Components/Enemy.hpp</text>
</a>
</g>
</g>
<!-- Node36&#45;&gt;Node37 -->
<g id="edge53" class="edge">
<title>Node36&#45;&gt;Node37</title>
<path fill="none" stroke="#63b8ff" d="M2194.4,-363.64C2163.86,-350.7 2123.94,-333.78 2095.93,-321.92"/>
<polygon fill="#63b8ff" stroke="#63b8ff" points="2192.81,-366.77 2203.38,-367.45 2195.54,-360.32 2192.81,-366.77"/>
</g>
<!-- Node38 -->
<g id="node38" class="node">
<title>Node38</title>
<g id="a_node38"><a xlink:href="Player_8hpp.html" target="_top" xlink:title=" ">
<polygon fill="white" stroke="#666666" points="2314.91,-321.5 2158.91,-321.5 2158.91,-291.5 2314.91,-291.5 2314.91,-321.5"/>
<text text-anchor="start" x="2166.91" y="-309.5" font-family="Helvetica,sans-Serif" font-size="10.00">/github/workspace/client</text>
<text text-anchor="middle" x="2236.91" y="-298.5" font-family="Helvetica,sans-Serif" font-size="10.00">/include/Components/Player.hpp</text>
</a>
</g>
</g>
<!-- Node36&#45;&gt;Node38 -->
<g id="edge54" class="edge">
<title>Node36&#45;&gt;Node38</title>
<path fill="none" stroke="#63b8ff" d="M2238.22,-356.73C2237.91,-345.08 2237.55,-331.76 2237.29,-321.92"/>
<polygon fill="#63b8ff" stroke="#63b8ff" points="2234.71,-356.62 2238.48,-366.53 2241.71,-356.44 2234.71,-356.62"/>
</g>
<!-- Node39 -->
<g id="node39" class="node">
<title>Node39</title>
<g id="a_node39"><a xlink:href="Player_8cpp.html" target="_top" xlink:title=" ">
<polygon fill="white" stroke="#666666" points="2297.91,-244.5 2175.91,-244.5 2175.91,-214.5 2297.91,-214.5 2297.91,-244.5"/>
<text text-anchor="start" x="2183.91" y="-232.5" font-family="Helvetica,sans-Serif" font-size="10.00">/github/workspace/client</text>
<text text-anchor="middle" x="2236.91" y="-221.5" font-family="Helvetica,sans-Serif" font-size="10.00">/src/Player.cpp</text>
</a>
</g>
</g>
<!-- Node38&#45;&gt;Node39 -->
<g id="edge55" class="edge">
<title>Node38&#45;&gt;Node39</title>
<path fill="none" stroke="#63b8ff" d="M2236.91,-279.73C2236.91,-268.08 2236.91,-254.76 2236.91,-244.92"/>
<polygon fill="#63b8ff" stroke="#63b8ff" points="2233.41,-279.53 2236.91,-289.53 2240.41,-279.53 2233.41,-279.53"/>
</g>
</g>
</svg>
