<?xml version="1.0" encoding="UTF-8" standalone="no"?>
<!DOCTYPE svg PUBLIC "-//W3C//DTD SVG 1.1//EN"
 "http://www.w3.org/Graphics/SVG/1.1/DTD/svg11.dtd">
<!-- Generated by graphviz version 7.0.5 (20221223.1930)
 -->
<!-- Title: /github/workspace/client/include/system/gameStates/IGameState.hpp Pages: 1 -->
<svg width="2201pt" height="434pt"
 viewBox="0.00 0.00 2200.50 434.00" xmlns="http://www.w3.org/2000/svg" xmlns:xlink="http://www.w3.org/1999/xlink">
<g id="graph0" class="graph" transform="scale(1 1) rotate(0) translate(4 430)">
<title>/github/workspace/client/include/system/gameStates/IGameState.hpp</title>
<!-- Node1 -->
<g id="node1" class="node">
<title>Node1</title>
<g id="a_node1"><a xlink:title=" ">
<polygon fill="#999999" stroke="#666666" points="1627,-426 1487,-426 1487,-385 1627,-385 1627,-426"/>
<text text-anchor="start" x="1495" y="-414" font-family="Helvetica,sans-Serif" font-size="10.00">/github/workspace/client</text>
<text text-anchor="start" x="1495" y="-403" font-family="Helvetica,sans-Serif" font-size="10.00">/include/system/gameStates</text>
<text text-anchor="middle" x="1557" y="-392" font-family="Helvetica,sans-Serif" font-size="10.00">/IGameState.hpp</text>
</a>
</g>
</g>
<!-- Node2 -->
<g id="node2" class="node">
<title>Node2</title>
<g id="a_node2"><a xlink:href="EntitiesManager_8hpp.html" target="_top" xlink:title=" ">
<polygon fill="white" stroke="#666666" points="1442,-239 1302,-239 1302,-220 1442,-220 1442,-239"/>
<text text-anchor="middle" x="1372" y="-227" font-family="Helvetica,sans-Serif" font-size="10.00">Entities/EntitiesManager.hpp</text>
</a>
</g>
</g>
<!-- Node1&#45;&gt;Node2 -->
<g id="edge1" class="edge">
<title>Node1&#45;&gt;Node2</title>
<path fill="none" stroke="#63b8ff" d="M1535.78,-384.54C1498.84,-349.8 1423.41,-278.86 1389.37,-246.83"/>
<polygon fill="#63b8ff" stroke="#63b8ff" points="1392.07,-244.57 1382.39,-240.27 1387.27,-249.67 1392.07,-244.57"/>
</g>
<!-- Node23 -->
<g id="node23" class="node">
<title>Node23</title>
<g id="a_node23"><a xlink:href="Background_8hpp.html" target="_top" xlink:title=" ">
<polygon fill="white" stroke="#666666" points="172,-74 28,-74 28,-55 172,-55 172,-74"/>
<text text-anchor="middle" x="100" y="-62" font-family="Helvetica,sans-Serif" font-size="10.00">Components/Background.hpp</text>
</a>
</g>
</g>
<!-- Node1&#45;&gt;Node23 -->
<g id="edge64" class="edge">
<title>Node1&#45;&gt;Node23</title>
<path fill="none" stroke="#63b8ff" d="M1486.56,-402.86C1182.78,-395.32 0,-361.11 0,-285.5 0,-285.5 0,-285.5 0,-173.5 0,-130.76 42.7,-97.76 72.29,-80.02"/>
<polygon fill="#63b8ff" stroke="#63b8ff" points="73.87,-83.15 80.81,-75.15 70.39,-77.08 73.87,-83.15"/>
</g>
<!-- Node29 -->
<g id="node29" class="node">
<title>Node29</title>
<g id="a_node29"><a xlink:href="String_8hpp.html" target="_top" xlink:title=" ">
<polygon fill="white" stroke="#666666" points="1637.5,-129 1554.5,-129 1554.5,-110 1637.5,-110 1637.5,-129"/>
<text text-anchor="middle" x="1596" y="-117" font-family="Helvetica,sans-Serif" font-size="10.00">Utils/String.hpp</text>
</a>
</g>
</g>
<!-- Node1&#45;&gt;Node29 -->
<g id="edge42" class="edge">
<title>Node1&#45;&gt;Node29</title>
<path fill="none" stroke="#63b8ff" d="M1562.36,-384.88C1568.28,-361.43 1577,-320.9 1577,-285.5 1577,-285.5 1577,-285.5 1577,-228.5 1577,-197.31 1584.78,-161.8 1590.39,-140.28"/>
<polygon fill="#63b8ff" stroke="#63b8ff" points="1593.71,-141.4 1592.96,-130.83 1586.96,-139.56 1593.71,-141.4"/>
</g>
<!-- Node30 -->
<g id="node30" class="node">
<title>Node30</title>
<g id="a_node30"><a xlink:href="GameEngine_8hpp.html" target="_top" xlink:title=" ">
<polygon fill="white" stroke="#666666" points="1768.5,-349 1643.5,-349 1643.5,-330 1768.5,-330 1768.5,-349"/>
<text text-anchor="middle" x="1706" y="-337" font-family="Helvetica,sans-Serif" font-size="10.00">system/GameEngine.hpp</text>
</a>
</g>
</g>
<!-- Node1&#45;&gt;Node30 -->
<g id="edge46" class="edge">
<title>Node1&#45;&gt;Node30</title>
<path fill="none" stroke="#63b8ff" d="M1603.33,-384.6C1626.65,-374.59 1654.28,-362.72 1675,-353.81"/>
<polygon fill="#63b8ff" stroke="#63b8ff" points="1676.24,-357.09 1684.05,-349.93 1673.48,-350.66 1676.24,-357.09"/>
</g>
<!-- Node40 -->
<g id="node40" class="node">
<title>Node40</title>
<g id="a_node40"><a xlink:href="Centipede_8hpp.html" target="_top" xlink:title=" ">
<polygon fill="white" stroke="#666666" points="989,-184 853,-184 853,-165 989,-165 989,-184"/>
<text text-anchor="middle" x="921" y="-172" font-family="Helvetica,sans-Serif" font-size="10.00">Components/Centipede.hpp</text>
</a>
</g>
</g>
<!-- Node1&#45;&gt;Node40 -->
<g id="edge65" class="edge">
<title>Node1&#45;&gt;Node40</title>
<path fill="none" stroke="#63b8ff" d="M1501.67,-384.58C1374.1,-338.64 1062.19,-226.34 956.61,-188.32"/>
<polygon fill="#63b8ff" stroke="#63b8ff" points="957.93,-185.08 947.33,-184.98 955.55,-191.66 957.93,-185.08"/>
</g>
<!-- Node3 -->
<g id="node3" class="node">
<title>Node3</title>
<g id="a_node3"><a xlink:href="Engine_8hpp.html" target="_top" xlink:title=" ">
<polygon fill="white" stroke="#666666" points="1013,-129 917,-129 917,-110 1013,-110 1013,-129"/>
<text text-anchor="middle" x="965" y="-117" font-family="Helvetica,sans-Serif" font-size="10.00">Engine/Engine.hpp</text>
</a>
</g>
</g>
<!-- Node2&#45;&gt;Node3 -->
<g id="edge2" class="edge">
<title>Node2&#45;&gt;Node3</title>
<path fill="none" stroke="#63b8ff" d="M1334.42,-219.57C1257.86,-200.21 1084.85,-154.34 1005.73,-132.49"/>
<polygon fill="#63b8ff" stroke="#63b8ff" points="1006.79,-129.15 996.22,-129.85 1004.92,-135.89 1006.79,-129.15"/>
</g>
<!-- Node21 -->
<g id="node21" class="node">
<title>Node21</title>
<g id="a_node21"><a xlink:href="IComponents_8hpp.html" target="_top" xlink:title=" ">
<polygon fill="white" stroke="#666666" points="391,-19 299,-19 299,0 391,0 391,-19"/>
<text text-anchor="middle" x="345" y="-7" font-family="Helvetica,sans-Serif" font-size="10.00">IComponents.hpp</text>
</a>
</g>
</g>
<!-- Node2&#45;&gt;Node21 -->
<g id="edge29" class="edge">
<title>Node2&#45;&gt;Node21</title>
<path fill="none" stroke="#63b8ff" d="M1375.16,-219.7C1379.72,-207.29 1388.63,-184.02 1398,-165 1410.5,-139.63 1412.45,-132.17 1430,-110 1444.44,-91.76 1458.81,-95.37 1468,-74 1471.34,-66.24 1473.85,-61.09 1468,-55 1430.81,-16.3 627.72,-11.25 402.98,-10.6"/>
<polygon fill="#63b8ff" stroke="#63b8ff" points="403,-7.1 392.99,-10.57 402.98,-14.1 403,-7.1"/>
</g>
<!-- Node24 -->
<g id="node24" class="node">
<title>Node24</title>
<g id="a_node24"><a xlink:href="SparseArray_8hpp.html" target="_top" xlink:title=" ">
<polygon fill="white" stroke="#666666" points="1759.5,-184 1648.5,-184 1648.5,-165 1759.5,-165 1759.5,-184"/>
<text text-anchor="middle" x="1704" y="-172" font-family="Helvetica,sans-Serif" font-size="10.00">Utils/SparseArray.hpp</text>
</a>
</g>
</g>
<!-- Node2&#45;&gt;Node24 -->
<g id="edge30" class="edge">
<title>Node2&#45;&gt;Node24</title>
<path fill="none" stroke="#63b8ff" d="M1428.32,-219.51C1486.05,-210.29 1575.83,-195.96 1637.13,-186.17"/>
<polygon fill="#63b8ff" stroke="#63b8ff" points="1637.42,-189.67 1646.74,-184.64 1636.31,-182.76 1637.42,-189.67"/>
</g>
<!-- Node3&#45;&gt;Node2 -->
<g id="edge21" class="edge">
<title>Node3&#45;&gt;Node2</title>
<path fill="none" stroke="#63b8ff" d="M1002.62,-129.44C1079.22,-148.81 1252.22,-194.68 1331.31,-216.53"/>
<polygon fill="#63b8ff" stroke="#63b8ff" points="1330.25,-219.86 1340.82,-219.17 1332.12,-213.12 1330.25,-219.86"/>
</g>
<!-- Node4 -->
<g id="node4" class="node">
<title>Node4</title>
<g id="a_node4"><a xlink:title=" ">
<polygon fill="#e0e0e0" stroke="#999999" points="834.5,-74 745.5,-74 745.5,-55 834.5,-55 834.5,-74"/>
<text text-anchor="middle" x="790" y="-62" font-family="Helvetica,sans-Serif" font-size="10.00">SFML/Audio.hpp</text>
</a>
</g>
</g>
<!-- Node3&#45;&gt;Node4 -->
<g id="edge3" class="edge">
<title>Node3&#45;&gt;Node4</title>
<path fill="none" stroke="#63b8ff" d="M935.31,-109.51C906.44,-100.76 862.36,-87.42 830.33,-77.71"/>
<polygon fill="#63b8ff" stroke="#63b8ff" points="831.57,-74.43 820.99,-74.88 829.54,-81.13 831.57,-74.43"/>
</g>
<!-- Node5 -->
<g id="node5" class="node">
<title>Node5</title>
<g id="a_node5"><a xlink:title=" ">
<polygon fill="#e0e0e0" stroke="#999999" points="957,-74 853,-74 853,-55 957,-55 957,-74"/>
<text text-anchor="middle" x="905" y="-62" font-family="Helvetica,sans-Serif" font-size="10.00">SFML/Graphics.hpp</text>
</a>
</g>
</g>
<!-- Node3&#45;&gt;Node5 -->
<g id="edge4" class="edge">
<title>Node3&#45;&gt;Node5</title>
<path fill="none" stroke="#63b8ff" d="M954.82,-109.51C946.24,-101.93 933.73,-90.88 923.4,-81.75"/>
<polygon fill="#63b8ff" stroke="#63b8ff" points="925.97,-79.36 916.16,-75.36 921.34,-84.6 925.97,-79.36"/>
</g>
<!-- Node6 -->
<g id="node6" class="node">
<title>Node6</title>
<g id="a_node6"><a xlink:title=" ">
<polygon fill="#e0e0e0" stroke="#999999" points="1076.5,-74 975.5,-74 975.5,-55 1076.5,-55 1076.5,-74"/>
<text text-anchor="middle" x="1026" y="-62" font-family="Helvetica,sans-Serif" font-size="10.00">SFML/Network.hpp</text>
</a>
</g>
</g>
<!-- Node3&#45;&gt;Node6 -->
<g id="edge5" class="edge">
<title>Node3&#45;&gt;Node6</title>
<path fill="none" stroke="#63b8ff" d="M975.35,-109.51C984.08,-101.93 996.79,-90.88 1007.3,-81.75"/>
<polygon fill="#63b8ff" stroke="#63b8ff" points="1009.41,-84.55 1014.66,-75.35 1004.82,-79.27 1009.41,-84.55"/>
</g>
<!-- Node7 -->
<g id="node7" class="node">
<title>Node7</title>
<g id="a_node7"><a xlink:title=" ">
<polygon fill="#e0e0e0" stroke="#999999" points="1232.5,-74 1133.5,-74 1133.5,-55 1232.5,-55 1232.5,-74"/>
<text text-anchor="middle" x="1183" y="-62" font-family="Helvetica,sans-Serif" font-size="10.00">SFML/Window.hpp</text>
</a>
</g>
</g>
<!-- Node3&#45;&gt;Node7 -->
<g id="edge6" class="edge">
<title>Node3&#45;&gt;Node7</title>
<path fill="none" stroke="#63b8ff" d="M1001.98,-109.51C1038.66,-100.59 1095.02,-86.89 1135.1,-77.15"/>
<polygon fill="#63b8ff" stroke="#63b8ff" points="1135.84,-80.57 1144.73,-74.8 1134.19,-73.77 1135.84,-80.57"/>
</g>
<!-- Node8 -->
<g id="node8" class="node">
<title>Node8</title>
<g id="a_node8"><a xlink:title=" ">
<polygon fill="#e0e0e0" stroke="#999999" points="1349,-74 1251,-74 1251,-55 1349,-55 1349,-74"/>
<text text-anchor="middle" x="1300" y="-62" font-family="Helvetica,sans-Serif" font-size="10.00">SFML/System.hpp</text>
</a>
</g>
</g>
<!-- Node3&#45;&gt;Node8 -->
<g id="edge7" class="edge">
<title>Node3&#45;&gt;Node8</title>
<path fill="none" stroke="#63b8ff" d="M1013.35,-110.85C1073.01,-101.41 1174.47,-85.36 1239.3,-75.1"/>
<polygon fill="#63b8ff" stroke="#63b8ff" points="1239.74,-78.58 1249.07,-73.56 1238.65,-71.66 1239.74,-78.58"/>
</g>
<!-- Node9 -->
<g id="node9" class="node">
<title>Node9</title>
<g id="a_node9"><a xlink:title=" ">
<polygon fill="#e0e0e0" stroke="#999999" points="1669,-74 1615,-74 1615,-55 1669,-55 1669,-74"/>
<text text-anchor="middle" x="1642" y="-62" font-family="Helvetica,sans-Serif" font-size="10.00">iostream</text>
</a>
</g>
</g>
<!-- Node3&#45;&gt;Node9 -->
<g id="edge8" class="edge">
<title>Node3&#45;&gt;Node9</title>
<path fill="none" stroke="#63b8ff" d="M1013.13,-115.62C1115.39,-109.34 1361.86,-93.44 1568,-74 1579.47,-72.92 1591.91,-71.56 1603.27,-70.25"/>
<polygon fill="#63b8ff" stroke="#63b8ff" points="1603.59,-73.74 1613.11,-69.09 1602.77,-66.78 1603.59,-73.74"/>
</g>
<!-- Node10 -->
<g id="node10" class="node">
<title>Node10</title>
<g id="a_node10"><a xlink:title=" ">
<polygon fill="#e0e0e0" stroke="#999999" points="380,-74 330,-74 330,-55 380,-55 380,-74"/>
<text text-anchor="middle" x="355" y="-62" font-family="Helvetica,sans-Serif" font-size="10.00">fstream</text>
</a>
</g>
</g>
<!-- Node3&#45;&gt;Node10 -->
<g id="edge9" class="edge">
<title>Node3&#45;&gt;Node10</title>
<path fill="none" stroke="#63b8ff" d="M916.52,-111.01C913.64,-110.64 910.78,-110.3 908,-110 681.85,-85.33 619.38,-109.38 391.48,-74.09"/>
<polygon fill="#63b8ff" stroke="#63b8ff" points="392.07,-70.64 381.64,-72.55 390.98,-77.56 392.07,-70.64"/>
</g>
<!-- Node11 -->
<g id="node11" class="node">
<title>Node11</title>
<g id="a_node11"><a xlink:title=" ">
<polygon fill="#e0e0e0" stroke="#999999" points="1859.5,-74 1818.5,-74 1818.5,-55 1859.5,-55 1859.5,-74"/>
<text text-anchor="middle" x="1839" y="-62" font-family="Helvetica,sans-Serif" font-size="10.00">string</text>
</a>
</g>
</g>
<!-- Node3&#45;&gt;Node11 -->
<g id="edge10" class="edge">
<title>Node3&#45;&gt;Node11</title>
<path fill="none" stroke="#63b8ff" d="M1013.26,-117.43C1165.26,-113.85 1633.83,-101 1807.01,-74.05"/>
<polygon fill="#63b8ff" stroke="#63b8ff" points="1807.43,-77.53 1816.73,-72.46 1806.3,-70.62 1807.43,-77.53"/>
</g>
<!-- Node12 -->
<g id="node12" class="node">
<title>Node12</title>
<g id="a_node12"><a xlink:title=" ">
<polygon fill="#e0e0e0" stroke="#999999" points="448,-74 398,-74 398,-55 448,-55 448,-74"/>
<text text-anchor="middle" x="423" y="-62" font-family="Helvetica,sans-Serif" font-size="10.00">unistd.h</text>
</a>
</g>
</g>
<!-- Node3&#45;&gt;Node12 -->
<g id="edge11" class="edge">
<title>Node3&#45;&gt;Node12</title>
<path fill="none" stroke="#63b8ff" d="M916.52,-111.04C913.64,-110.67 910.78,-110.32 908,-110 712.26,-87.6 658.05,-105.12 459.26,-73.88"/>
<polygon fill="#63b8ff" stroke="#63b8ff" points="460.06,-70.47 449.63,-72.35 458.96,-77.38 460.06,-70.47"/>
</g>
<!-- Node13 -->
<g id="node13" class="node">
<title>Node13</title>
<g id="a_node13"><a xlink:title=" ">
<polygon fill="#e0e0e0" stroke="#999999" points="531.5,-74 466.5,-74 466.5,-55 531.5,-55 531.5,-74"/>
<text text-anchor="middle" x="499" y="-62" font-family="Helvetica,sans-Serif" font-size="10.00">sys/types.h</text>
</a>
</g>
</g>
<!-- Node3&#45;&gt;Node13 -->
<g id="edge12" class="edge">
<title>Node3&#45;&gt;Node13</title>
<path fill="none" stroke="#63b8ff" d="M916.51,-111.1C913.63,-110.71 910.78,-110.34 908,-110 749,-90.36 705.04,-97.92 543.3,-74.19"/>
<polygon fill="#63b8ff" stroke="#63b8ff" points="543.86,-70.73 533.46,-72.72 542.83,-77.66 543.86,-70.73"/>
</g>
<!-- Node14 -->
<g id="node14" class="node">
<title>Node14</title>
<g id="a_node14"><a xlink:title=" ">
<polygon fill="#e0e0e0" stroke="#999999" points="1559,-74 1515,-74 1515,-55 1559,-55 1559,-74"/>
<text text-anchor="middle" x="1537" y="-62" font-family="Helvetica,sans-Serif" font-size="10.00">vector</text>
</a>
</g>
</g>
<!-- Node3&#45;&gt;Node14 -->
<g id="edge13" class="edge">
<title>Node3&#45;&gt;Node14</title>
<path fill="none" stroke="#63b8ff" d="M1013.26,-114.79C1102.92,-107.76 1301.27,-91.64 1468,-74 1479.58,-72.77 1492.23,-71.27 1503.5,-69.86"/>
<polygon fill="#63b8ff" stroke="#63b8ff" points="1503.67,-73.37 1513.15,-68.64 1502.79,-66.42 1503.67,-73.37"/>
</g>
<!-- Node15 -->
<g id="node15" class="node">
<title>Node15</title>
<g id="a_node15"><a xlink:title=" ">
<polygon fill="#e0e0e0" stroke="#999999" points="608,-74 550,-74 550,-55 608,-55 608,-74"/>
<text text-anchor="middle" x="579" y="-62" font-family="Helvetica,sans-Serif" font-size="10.00">exception</text>
</a>
</g>
</g>
<!-- Node3&#45;&gt;Node15 -->
<g id="edge14" class="edge">
<title>Node3&#45;&gt;Node15</title>
<path fill="none" stroke="#63b8ff" d="M916.5,-111.19C913.63,-110.78 910.78,-110.38 908,-110 782.84,-92.9 747.92,-95.68 619.4,-74.07"/>
<polygon fill="#63b8ff" stroke="#63b8ff" points="620.27,-70.67 609.82,-72.45 619.1,-77.57 620.27,-70.67"/>
</g>
<!-- Node16 -->
<g id="node16" class="node">
<title>Node16</title>
<g id="a_node16"><a xlink:href="Window_8hpp.html" target="_top" xlink:title=" ">
<polygon fill="white" stroke="#666666" points="727.5,-74 626.5,-74 626.5,-55 727.5,-55 727.5,-74"/>
<text text-anchor="middle" x="677" y="-62" font-family="Helvetica,sans-Serif" font-size="10.00">Engine/Window.hpp</text>
</a>
</g>
</g>
<!-- Node3&#45;&gt;Node16 -->
<g id="edge15" class="edge">
<title>Node3&#45;&gt;Node16</title>
<path fill="none" stroke="#63b8ff" d="M916.58,-110.51C865.42,-101.48 785.09,-86.74 731.69,-76.6"/>
<polygon fill="#63b8ff" stroke="#63b8ff" points="732.36,-73.16 721.88,-74.73 731.05,-80.04 732.36,-73.16"/>
</g>
<!-- Node17 -->
<g id="node17" class="node">
<title>Node17</title>
<g id="a_node17"><a xlink:href="Event_8hpp.html" target="_top" xlink:title=" ">
<polygon fill="white" stroke="#666666" points="1459,-74 1367,-74 1367,-55 1459,-55 1459,-74"/>
<text text-anchor="middle" x="1413" y="-62" font-family="Helvetica,sans-Serif" font-size="10.00">Engine/Event.hpp</text>
</a>
</g>
</g>
<!-- Node3&#45;&gt;Node17 -->
<g id="edge17" class="edge">
<title>Node3&#45;&gt;Node17</title>
<path fill="none" stroke="#63b8ff" d="M1013.43,-113.04C1086.38,-105.27 1228.37,-90.14 1349,-74 1351.03,-73.73 1353.1,-73.44 1355.2,-73.15"/>
<polygon fill="#63b8ff" stroke="#63b8ff" points="1355.67,-76.62 1365.07,-71.73 1354.67,-69.69 1355.67,-76.62"/>
</g>
<!-- Node20 -->
<g id="node20" class="node">
<title>Node20</title>
<g id="a_node20"><a xlink:href="Bullets_8hpp.html" target="_top" xlink:title=" ">
<polygon fill="white" stroke="#666666" points="312,-74 190,-74 190,-55 312,-55 312,-74"/>
<text text-anchor="middle" x="251" y="-62" font-family="Helvetica,sans-Serif" font-size="10.00">Components/Bullets.hpp</text>
</a>
</g>
</g>
<!-- Node3&#45;&gt;Node20 -->
<g id="edge22" class="edge">
<title>Node3&#45;&gt;Node20</title>
<path fill="none" stroke="#63b8ff" d="M916.6,-112.16C910.64,-111.35 904.67,-110.6 899,-110 642.98,-83.11 574.36,-97.32 323.68,-75.05"/>
<polygon fill="#63b8ff" stroke="#63b8ff" points="324.16,-71.58 313.89,-74.17 323.53,-78.55 324.16,-71.58"/>
</g>
<!-- Node3&#45;&gt;Node23 -->
<g id="edge27" class="edge">
<title>Node3&#45;&gt;Node23</title>
<path fill="none" stroke="#63b8ff" d="M916.61,-112.1C910.65,-111.3 904.68,-110.56 899,-110 581,-78.49 496.6,-98.39 183.7,-74.89"/>
<polygon fill="#63b8ff" stroke="#63b8ff" points="184.22,-71.42 173.98,-74.15 183.69,-78.4 184.22,-71.42"/>
</g>
<!-- Node16&#45;&gt;Node3 -->
<g id="edge16" class="edge">
<title>Node16&#45;&gt;Node3</title>
<path fill="none" stroke="#63b8ff" d="M727.86,-73.92C779.07,-82.98 857.68,-97.41 910.23,-107.39"/>
<polygon fill="#63b8ff" stroke="#63b8ff" points="909.4,-110.79 919.87,-109.23 910.71,-103.92 909.4,-110.79"/>
</g>
<!-- Node17&#45;&gt;Node3 -->
<g id="edge18" class="edge">
<title>Node17&#45;&gt;Node3</title>
<path fill="none" stroke="#63b8ff" d="M1366.63,-74.05C1245.56,-90.24 1103.09,-105.4 1024.45,-113.14"/>
<polygon fill="#63b8ff" stroke="#63b8ff" points="1024.44,-109.62 1014.83,-114.08 1025.12,-116.59 1024.44,-109.62"/>
</g>
<!-- Node18 -->
<g id="node18" class="node">
<title>Node18</title>
<g id="a_node18"><a xlink:title=" ">
<polygon fill="#e0e0e0" stroke="#999999" points="1514.5,-19 1485.5,-19 1485.5,0 1514.5,0 1514.5,-19"/>
<text text-anchor="middle" x="1500" y="-7" font-family="Helvetica,sans-Serif" font-size="10.00">list</text>
</a>
</g>
</g>
<!-- Node17&#45;&gt;Node18 -->
<g id="edge19" class="edge">
<title>Node17&#45;&gt;Node18</title>
<path fill="none" stroke="#63b8ff" d="M1427.76,-54.51C1440.96,-46.47 1460.56,-34.53 1476.01,-25.11"/>
<polygon fill="#63b8ff" stroke="#63b8ff" points="1477.45,-28.34 1484.17,-20.15 1473.81,-22.36 1477.45,-28.34"/>
</g>
<!-- Node19 -->
<g id="node19" class="node">
<title>Node19</title>
<g id="a_node19"><a xlink:title=" ">
<polygon fill="#e0e0e0" stroke="#999999" points="2029.5,-19 1986.5,-19 1986.5,0 2029.5,0 2029.5,-19"/>
<text text-anchor="middle" x="2008" y="-7" font-family="Helvetica,sans-Serif" font-size="10.00">queue</text>
</a>
</g>
</g>
<!-- Node17&#45;&gt;Node19 -->
<g id="edge20" class="edge">
<title>Node17&#45;&gt;Node19</title>
<path fill="none" stroke="#63b8ff" d="M1459.36,-59.24C1474.25,-57.88 1490.82,-56.37 1506,-55 1682.96,-39.07 1895.06,-20.41 1975.19,-13.38"/>
<polygon fill="#63b8ff" stroke="#63b8ff" points="1975.31,-16.88 1984.96,-12.52 1974.69,-9.91 1975.31,-16.88"/>
</g>
<!-- Node20&#45;&gt;Node3 -->
<g id="edge23" class="edge">
<title>Node20&#45;&gt;Node3</title>
<path fill="none" stroke="#63b8ff" d="M312.27,-72.2C318.28,-72.86 324.27,-73.48 330,-74 586.36,-97.4 654.99,-83.15 905.33,-108.79"/>
<polygon fill="#63b8ff" stroke="#63b8ff" points="904.81,-112.25 915.11,-109.8 905.53,-105.29 904.81,-112.25"/>
</g>
<!-- Node20&#45;&gt;Node21 -->
<g id="edge24" class="edge">
<title>Node20&#45;&gt;Node21</title>
<path fill="none" stroke="#63b8ff" d="M266.95,-54.51C281.35,-46.39 302.79,-34.3 319.56,-24.85"/>
<polygon fill="#63b8ff" stroke="#63b8ff" points="320.98,-28.06 327.97,-20.1 317.54,-21.96 320.98,-28.06"/>
</g>
<!-- Node22 -->
<g id="node22" class="node">
<title>Node22</title>
<g id="a_node22"><a xlink:title=" ">
<polygon fill="#e0e0e0" stroke="#999999" points="180,-19 134,-19 134,0 180,0 180,-19"/>
<text text-anchor="middle" x="157" y="-7" font-family="Helvetica,sans-Serif" font-size="10.00">math.h</text>
</a>
</g>
</g>
<!-- Node20&#45;&gt;Node22 -->
<g id="edge26" class="edge">
<title>Node20&#45;&gt;Node22</title>
<path fill="none" stroke="#63b8ff" d="M235.05,-54.51C220.65,-46.39 199.21,-34.3 182.44,-24.85"/>
<polygon fill="#63b8ff" stroke="#63b8ff" points="184.46,-21.96 174.03,-20.1 181.02,-28.06 184.46,-21.96"/>
</g>
<!-- Node21&#45;&gt;Node3 -->
<g id="edge25" class="edge">
<title>Node21&#45;&gt;Node3</title>
<path fill="none" stroke="#63b8ff" d="M391.32,-11.55C549.83,-15.37 1062.12,-29.64 1086,-55 1110.04,-80.53 1065.99,-97.74 1024.46,-107.74"/>
<polygon fill="#63b8ff" stroke="#63b8ff" points="1023.89,-104.28 1014.92,-109.91 1025.44,-111.1 1023.89,-104.28"/>
</g>
<!-- Node23&#45;&gt;Node3 -->
<g id="edge28" class="edge">
<title>Node23&#45;&gt;Node3</title>
<path fill="none" stroke="#63b8ff" d="M172.16,-72.47C178.21,-73.03 184.22,-73.55 190,-74 508.61,-98.59 593.02,-78.6 905.32,-108.86"/>
<polygon fill="#63b8ff" stroke="#63b8ff" points="904.73,-112.31 915.02,-109.81 905.41,-105.35 904.73,-112.31"/>
</g>
<!-- Node24&#45;&gt;Node9 -->
<g id="edge31" class="edge">
<title>Node24&#45;&gt;Node9</title>
<path fill="none" stroke="#63b8ff" d="M1698.93,-164.66C1688.89,-147.18 1666.31,-107.84 1652.79,-84.3"/>
<polygon fill="#63b8ff" stroke="#63b8ff" points="1655.91,-82.7 1647.9,-75.77 1649.84,-86.19 1655.91,-82.7"/>
</g>
<!-- Node24&#45;&gt;Node14 -->
<g id="edge34" class="edge">
<title>Node24&#45;&gt;Node14</title>
<path fill="none" stroke="#63b8ff" d="M1648.06,-172.44C1613.56,-168.67 1571.23,-157.85 1546,-129 1535.67,-117.19 1533.99,-99.15 1534.56,-85.31"/>
<polygon fill="#63b8ff" stroke="#63b8ff" points="1538.02,-85.86 1535.4,-75.59 1531.05,-85.25 1538.02,-85.86"/>
</g>
<!-- Node25 -->
<g id="node25" class="node">
<title>Node25</title>
<g id="a_node25"><a xlink:title=" ">
<polygon fill="#e0e0e0" stroke="#999999" points="1743,-74 1687,-74 1687,-55 1743,-55 1743,-74"/>
<text text-anchor="middle" x="1715" y="-62" font-family="Helvetica,sans-Serif" font-size="10.00">algorithm</text>
</a>
</g>
</g>
<!-- Node24&#45;&gt;Node25 -->
<g id="edge32" class="edge">
<title>Node24&#45;&gt;Node25</title>
<path fill="none" stroke="#63b8ff" d="M1704.9,-164.66C1706.65,-147.5 1710.54,-109.26 1712.95,-85.6"/>
<polygon fill="#63b8ff" stroke="#63b8ff" points="1716.4,-86.27 1713.93,-75.97 1709.44,-85.56 1716.4,-86.27"/>
</g>
<!-- Node26 -->
<g id="node26" class="node">
<title>Node26</title>
<g id="a_node26"><a xlink:title=" ">
<polygon fill="#e0e0e0" stroke="#999999" points="1916,-74 1878,-74 1878,-55 1916,-55 1916,-74"/>
<text text-anchor="middle" x="1897" y="-62" font-family="Helvetica,sans-Serif" font-size="10.00">array</text>
</a>
</g>
</g>
<!-- Node24&#45;&gt;Node26 -->
<g id="edge33" class="edge">
<title>Node24&#45;&gt;Node26</title>
<path fill="none" stroke="#63b8ff" d="M1759.85,-164.57C1788.12,-158.07 1821.88,-147.13 1848,-129 1864.77,-117.36 1878.41,-98.22 1887,-83.99"/>
<polygon fill="#63b8ff" stroke="#63b8ff" points="1889.87,-86.01 1891.8,-75.59 1883.8,-82.54 1889.87,-86.01"/>
</g>
<!-- Node27 -->
<g id="node27" class="node">
<title>Node27</title>
<g id="a_node27"><a xlink:title=" ">
<polygon fill="#e0e0e0" stroke="#999999" points="1800.5,-74 1761.5,-74 1761.5,-55 1800.5,-55 1800.5,-74"/>
<text text-anchor="middle" x="1781" y="-62" font-family="Helvetica,sans-Serif" font-size="10.00">utility</text>
</a>
</g>
</g>
<!-- Node24&#45;&gt;Node27 -->
<g id="edge35" class="edge">
<title>Node24&#45;&gt;Node27</title>
<path fill="none" stroke="#63b8ff" d="M1759.9,-168.9C1786.63,-163.56 1816.36,-152.34 1833,-129 1845.27,-111.79 1825.86,-93.2 1807.36,-80.61"/>
<polygon fill="#63b8ff" stroke="#63b8ff" points="1809.26,-77.67 1798.95,-75.26 1805.51,-83.58 1809.26,-77.67"/>
</g>
<!-- Node28 -->
<g id="node28" class="node">
<title>Node28</title>
<g id="a_node28"><a xlink:href="Vectors_8hpp.html" target="_top" xlink:title=" ">
<polygon fill="white" stroke="#666666" points="1824,-129 1732,-129 1732,-110 1824,-110 1824,-129"/>
<text text-anchor="middle" x="1778" y="-117" font-family="Helvetica,sans-Serif" font-size="10.00">Utils/Vectors.hpp</text>
</a>
</g>
</g>
<!-- Node24&#45;&gt;Node28 -->
<g id="edge36" class="edge">
<title>Node24&#45;&gt;Node28</title>
<path fill="none" stroke="#63b8ff" d="M1716.55,-164.51C1727.46,-156.7 1743.5,-145.21 1756.46,-135.93"/>
<polygon fill="#63b8ff" stroke="#63b8ff" points="1758.31,-138.91 1764.4,-130.24 1754.23,-133.22 1758.31,-138.91"/>
</g>
<!-- Node28&#45;&gt;Node9 -->
<g id="edge37" class="edge">
<title>Node28&#45;&gt;Node9</title>
<path fill="none" stroke="#63b8ff" d="M1754.93,-109.51C1733.11,-101.01 1700.12,-88.15 1675.42,-78.53"/>
<polygon fill="#63b8ff" stroke="#63b8ff" points="1676.73,-75.28 1666.14,-74.91 1674.19,-81.8 1676.73,-75.28"/>
</g>
<!-- Node28&#45;&gt;Node14 -->
<g id="edge40" class="edge">
<title>Node28&#45;&gt;Node14</title>
<path fill="none" stroke="#63b8ff" d="M1737.12,-109.51C1690.13,-99.17 1613.89,-82.41 1570.34,-72.83"/>
<polygon fill="#63b8ff" stroke="#63b8ff" points="1571.23,-69.44 1560.71,-70.71 1569.72,-76.28 1571.23,-69.44"/>
</g>
<!-- Node28&#45;&gt;Node25 -->
<g id="edge38" class="edge">
<title>Node28&#45;&gt;Node25</title>
<path fill="none" stroke="#63b8ff" d="M1767.31,-109.51C1758.3,-101.93 1745.17,-90.88 1734.32,-81.75"/>
<polygon fill="#63b8ff" stroke="#63b8ff" points="1736.59,-79.09 1726.69,-75.33 1732.09,-84.45 1736.59,-79.09"/>
</g>
<!-- Node28&#45;&gt;Node26 -->
<g id="edge39" class="edge">
<title>Node28&#45;&gt;Node26</title>
<path fill="none" stroke="#63b8ff" d="M1798.19,-109.51C1817.13,-101.07 1845.71,-88.34 1867.26,-78.74"/>
<polygon fill="#63b8ff" stroke="#63b8ff" points="1868.41,-82.06 1876.12,-74.8 1865.56,-75.67 1868.41,-82.06"/>
</g>
<!-- Node28&#45;&gt;Node27 -->
<g id="edge41" class="edge">
<title>Node28&#45;&gt;Node27</title>
<path fill="none" stroke="#63b8ff" d="M1778.5,-109.75C1778.86,-103.27 1779.38,-94.16 1779.85,-85.9"/>
<polygon fill="#63b8ff" stroke="#63b8ff" points="1783.34,-86.13 1780.41,-75.95 1776.35,-85.74 1783.34,-86.13"/>
</g>
<!-- Node29&#45;&gt;Node9 -->
<g id="edge43" class="edge">
<title>Node29&#45;&gt;Node9</title>
<path fill="none" stroke="#63b8ff" d="M1603.6,-109.75C1609.88,-102.5 1619.01,-91.98 1626.8,-83.02"/>
<polygon fill="#63b8ff" stroke="#63b8ff" points="1629.34,-85.43 1633.25,-75.59 1624.05,-80.84 1629.34,-85.43"/>
</g>
<!-- Node29&#45;&gt;Node14 -->
<g id="edge45" class="edge">
<title>Node29&#45;&gt;Node14</title>
<path fill="none" stroke="#63b8ff" d="M1585.99,-109.51C1577.63,-102 1565.5,-91.1 1555.4,-82.03"/>
<polygon fill="#63b8ff" stroke="#63b8ff" points="1557.76,-79.45 1547.99,-75.37 1553.09,-84.66 1557.76,-79.45"/>
</g>
<!-- Node29&#45;&gt;Node18 -->
<g id="edge44" class="edge">
<title>Node29&#45;&gt;Node18</title>
<path fill="none" stroke="#63b8ff" d="M1593.89,-109.84C1590.35,-96.76 1582.18,-71.72 1568,-55 1556.22,-41.11 1539.03,-29.91 1524.88,-22.22"/>
<polygon fill="#63b8ff" stroke="#63b8ff" points="1526.63,-19.19 1516.14,-17.73 1523.43,-25.42 1526.63,-19.19"/>
</g>
<!-- Node30&#45;&gt;Node19 -->
<g id="edge63" class="edge">
<title>Node30&#45;&gt;Node19</title>
<path fill="none" stroke="#63b8ff" d="M1734.03,-329.53C1797.71,-307.43 1952.42,-243.68 2013,-129 2029.54,-97.69 2021.6,-54.98 2014.61,-30.31"/>
<polygon fill="#63b8ff" stroke="#63b8ff" points="2018.01,-29.46 2011.72,-20.94 2011.32,-31.52 2018.01,-29.46"/>
</g>
<!-- Node31 -->
<g id="node31" class="node">
<title>Node31</title>
<g id="a_node31"><a xlink:href="States_8hpp.html" target="_top" xlink:title=" ">
<polygon fill="white" stroke="#666666" points="1744.5,-294 1625.5,-294 1625.5,-275 1744.5,-275 1744.5,-294"/>
<text text-anchor="middle" x="1685" y="-282" font-family="Helvetica,sans-Serif" font-size="10.00">gameStates/States.hpp</text>
</a>
</g>
</g>
<!-- Node30&#45;&gt;Node31 -->
<g id="edge47" class="edge">
<title>Node30&#45;&gt;Node31</title>
<path fill="none" stroke="#63b8ff" d="M1702.53,-329.75C1699.87,-323.04 1696.1,-313.52 1692.74,-305.02"/>
<polygon fill="#63b8ff" stroke="#63b8ff" points="1696.04,-303.86 1689.1,-295.85 1689.53,-306.44 1696.04,-303.86"/>
</g>
<!-- Node31&#45;&gt;Node1 -->
<g id="edge48" class="edge">
<title>Node31&#45;&gt;Node1</title>
<path fill="none" stroke="#63b8ff" d="M1674.95,-294.26C1664.78,-303.16 1648.67,-317.4 1635,-330 1618.43,-345.28 1600.19,-362.66 1585.53,-376.79"/>
<polygon fill="#63b8ff" stroke="#63b8ff" points="1583.19,-374.18 1578.43,-383.64 1588.06,-379.21 1583.19,-374.18"/>
</g>
<!-- Node32 -->
<g id="node32" class="node">
<title>Node32</title>
<g id="a_node32"><a xlink:href="SMenu_8hpp.html" target="_top" xlink:title=" ">
<polygon fill="white" stroke="#666666" points="1548.5,-239 1483.5,-239 1483.5,-220 1548.5,-220 1548.5,-239"/>
<text text-anchor="middle" x="1516" y="-227" font-family="Helvetica,sans-Serif" font-size="10.00">SMenu.hpp</text>
</a>
</g>
</g>
<!-- Node31&#45;&gt;Node32 -->
<g id="edge49" class="edge">
<title>Node31&#45;&gt;Node32</title>
<path fill="none" stroke="#63b8ff" d="M1656.33,-274.51C1628.57,-265.8 1586.25,-252.53 1555.35,-242.84"/>
<polygon fill="#63b8ff" stroke="#63b8ff" points="1556.56,-239.55 1545.97,-239.9 1554.47,-246.23 1556.56,-239.55"/>
</g>
<!-- Node35 -->
<g id="node35" class="node">
<title>Node35</title>
<g id="a_node35"><a xlink:href="SGamePlay_8hpp.html" target="_top" xlink:title=" ">
<polygon fill="white" stroke="#666666" points="2004,-129 1918,-129 1918,-110 2004,-110 2004,-129"/>
<text text-anchor="middle" x="1961" y="-117" font-family="Helvetica,sans-Serif" font-size="10.00">SGamePlay.hpp</text>
</a>
</g>
</g>
<!-- Node31&#45;&gt;Node35 -->
<g id="edge54" class="edge">
<title>Node31&#45;&gt;Node35</title>
<path fill="none" stroke="#63b8ff" d="M1700.23,-274.5C1745.57,-247.73 1879.94,-168.37 1936,-135.27"/>
<polygon fill="#63b8ff" stroke="#63b8ff" points="1937.68,-138.34 1944.51,-130.24 1934.12,-132.31 1937.68,-138.34"/>
</g>
<!-- Node32&#45;&gt;Node1 -->
<g id="edge50" class="edge">
<title>Node32&#45;&gt;Node1</title>
<path fill="none" stroke="#63b8ff" d="M1518.06,-239.23C1523.77,-263.5 1540.06,-332.61 1549.66,-373.37"/>
<polygon fill="#63b8ff" stroke="#63b8ff" points="1546.25,-374.14 1551.95,-383.07 1553.06,-372.53 1546.25,-374.14"/>
</g>
<!-- Node33 -->
<g id="node33" class="node">
<title>Node33</title>
<g id="a_node33"><a xlink:href="Bouton_8hpp.html" target="_top" xlink:title=" ">
<polygon fill="white" stroke="#666666" points="1529.5,-184 1406.5,-184 1406.5,-165 1529.5,-165 1529.5,-184"/>
<text text-anchor="middle" x="1468" y="-172" font-family="Helvetica,sans-Serif" font-size="10.00">Components/Bouton.hpp</text>
</a>
</g>
</g>
<!-- Node32&#45;&gt;Node33 -->
<g id="edge51" class="edge">
<title>Node32&#45;&gt;Node33</title>
<path fill="none" stroke="#63b8ff" d="M1508.07,-219.75C1501.44,-212.43 1491.78,-201.76 1483.61,-192.74"/>
<polygon fill="#63b8ff" stroke="#63b8ff" points="1486.42,-190.63 1477.11,-185.56 1481.23,-195.33 1486.42,-190.63"/>
</g>
<!-- Node33&#45;&gt;Node3 -->
<g id="edge52" class="edge">
<title>Node33&#45;&gt;Node3</title>
<path fill="none" stroke="#63b8ff" d="M1406.07,-166.97C1308.54,-156.7 1120.42,-136.88 1024.45,-126.76"/>
<polygon fill="#63b8ff" stroke="#63b8ff" points="1025.03,-123.31 1014.72,-125.74 1024.3,-130.27 1025.03,-123.31"/>
</g>
<!-- Node34 -->
<g id="node34" class="node">
<title>Node34</title>
<g id="a_node34"><a xlink:title=" ">
<polygon fill="#e0e0e0" stroke="#999999" points="1497.5,-129 1438.5,-129 1438.5,-110 1497.5,-110 1497.5,-129"/>
<text text-anchor="middle" x="1468" y="-117" font-family="Helvetica,sans-Serif" font-size="10.00">functional</text>
</a>
</g>
</g>
<!-- Node33&#45;&gt;Node34 -->
<g id="edge53" class="edge">
<title>Node33&#45;&gt;Node34</title>
<path fill="none" stroke="#63b8ff" d="M1468,-164.75C1468,-158.27 1468,-149.16 1468,-140.9"/>
<polygon fill="#63b8ff" stroke="#63b8ff" points="1471.5,-140.96 1468,-130.96 1464.5,-140.96 1471.5,-140.96"/>
</g>
<!-- Node35&#45;&gt;Node1 -->
<g id="edge55" class="edge">
<title>Node35&#45;&gt;Node1</title>
<path fill="none" stroke="#63b8ff" d="M1967.94,-129.46C1981.01,-147.26 2008,-188.83 2008,-228.5 2008,-285.5 2008,-285.5 2008,-285.5 2008,-360.96 1768.96,-389.62 1638.93,-399.63"/>
<polygon fill="#63b8ff" stroke="#63b8ff" points="1638.69,-396.13 1628.98,-400.37 1639.21,-403.12 1638.69,-396.13"/>
</g>
<!-- Node35&#45;&gt;Node11 -->
<g id="edge58" class="edge">
<title>Node35&#45;&gt;Node11</title>
<path fill="none" stroke="#63b8ff" d="M1940.3,-109.51C1921,-101.12 1891.94,-88.5 1869.89,-78.92"/>
<polygon fill="#63b8ff" stroke="#63b8ff" points="1871.34,-75.74 1860.78,-74.96 1868.56,-82.16 1871.34,-75.74"/>
</g>
<!-- Node35&#45;&gt;Node19 -->
<g id="edge56" class="edge">
<title>Node35&#45;&gt;Node19</title>
<path fill="none" stroke="#63b8ff" d="M1967.55,-109.7C1973.77,-101.01 1983.04,-87.13 1989,-74 1995.35,-60.01 2000.24,-43.34 2003.47,-30.6"/>
<polygon fill="#63b8ff" stroke="#63b8ff" points="2006.88,-31.41 2005.79,-20.87 2000.07,-29.79 2006.88,-31.41"/>
</g>
<!-- Node35&#45;&gt;Node26 -->
<g id="edge57" class="edge">
<title>Node35&#45;&gt;Node26</title>
<path fill="none" stroke="#63b8ff" d="M1950.14,-109.51C1940.89,-101.85 1927.38,-90.66 1916.29,-81.47"/>
<polygon fill="#63b8ff" stroke="#63b8ff" points="1918.8,-79.01 1908.86,-75.32 1914.33,-84.4 1918.8,-79.01"/>
</g>
<!-- Node36 -->
<g id="node36" class="node">
<title>Node36</title>
<g id="a_node36"><a xlink:title=" ">
<polygon fill="#e0e0e0" stroke="#999999" points="1980,-74 1934,-74 1934,-55 1980,-55 1980,-74"/>
<text text-anchor="middle" x="1957" y="-62" font-family="Helvetica,sans-Serif" font-size="10.00">cstring</text>
</a>
</g>
</g>
<!-- Node35&#45;&gt;Node36 -->
<g id="edge59" class="edge">
<title>Node35&#45;&gt;Node36</title>
<path fill="none" stroke="#63b8ff" d="M1960.34,-109.75C1959.85,-103.27 1959.16,-94.16 1958.54,-85.9"/>
<polygon fill="#63b8ff" stroke="#63b8ff" points="1962.03,-85.66 1957.79,-75.95 1955.05,-86.19 1962.03,-85.66"/>
</g>
<!-- Node37 -->
<g id="node37" class="node">
<title>Node37</title>
<g id="a_node37"><a xlink:href="Global_8hpp.html" target="_top" xlink:title=" ">
<polygon fill="white" stroke="#666666" points="2136,-74 2074,-74 2074,-55 2136,-55 2136,-74"/>
<text text-anchor="middle" x="2105" y="-62" font-family="Helvetica,sans-Serif" font-size="10.00">Global.hpp</text>
</a>
</g>
</g>
<!-- Node35&#45;&gt;Node37 -->
<g id="edge60" class="edge">
<title>Node35&#45;&gt;Node37</title>
<path fill="none" stroke="#63b8ff" d="M1985.43,-109.51C2008.74,-100.93 2044.09,-87.92 2070.31,-78.27"/>
<polygon fill="#63b8ff" stroke="#63b8ff" points="2071.34,-81.62 2079.51,-74.88 2068.92,-75.05 2071.34,-81.62"/>
</g>
<!-- Node38 -->
<g id="node38" class="node">
<title>Node38</title>
<g id="a_node38"><a xlink:title=" ">
<polygon fill="#e0e0e0" stroke="#999999" points="2123,-19 2061,-19 2061,0 2123,0 2123,-19"/>
<text text-anchor="middle" x="2092" y="-7" font-family="Helvetica,sans-Serif" font-size="10.00">Skaldi.hpp</text>
</a>
</g>
</g>
<!-- Node37&#45;&gt;Node38 -->
<g id="edge61" class="edge">
<title>Node37&#45;&gt;Node38</title>
<path fill="none" stroke="#63b8ff" d="M2102.85,-54.75C2101.24,-48.19 2098.98,-38.95 2096.93,-30.6"/>
<polygon fill="#63b8ff" stroke="#63b8ff" points="2100.34,-29.79 2094.55,-20.91 2093.54,-31.46 2100.34,-29.79"/>
</g>
<!-- Node39 -->
<g id="node39" class="node">
<title>Node39</title>
<g id="a_node39"><a xlink:title=" ">
<polygon fill="#e0e0e0" stroke="#999999" points="2192.5,-19 2141.5,-19 2141.5,0 2192.5,0 2192.5,-19"/>
<text text-anchor="middle" x="2167" y="-7" font-family="Helvetica,sans-Serif" font-size="10.00">memory</text>
</a>
</g>
</g>
<!-- Node37&#45;&gt;Node39 -->
<g id="edge62" class="edge">
<title>Node37&#45;&gt;Node39</title>
<path fill="none" stroke="#63b8ff" d="M2115.52,-54.51C2124.39,-46.93 2137.31,-35.88 2147.99,-26.75"/>
<polygon fill="#63b8ff" stroke="#63b8ff" points="2150.16,-29.5 2155.49,-20.34 2145.61,-24.18 2150.16,-29.5"/>
</g>
<!-- Node40&#45;&gt;Node3 -->
<g id="edge66" class="edge">
<title>Node40&#45;&gt;Node3</title>
<path fill="none" stroke="#63b8ff" d="M928.27,-164.75C934.28,-157.5 943.01,-146.98 950.46,-138.02"/>
<polygon fill="#63b8ff" stroke="#63b8ff" points="952.92,-140.54 956.61,-130.61 947.53,-136.07 952.92,-140.54"/>
</g>
<!-- Node40&#45;&gt;Node14 -->
<g id="edge69" class="edge">
<title>Node40&#45;&gt;Node14</title>
<path fill="none" stroke="#63b8ff" d="M972.2,-164.52C1094.67,-143.05 1401.91,-89.18 1503.68,-71.34"/>
<polygon fill="#63b8ff" stroke="#63b8ff" points="1504.04,-74.83 1513.28,-69.66 1502.83,-67.94 1504.04,-74.83"/>
</g>
<!-- Node40&#45;&gt;Node21 -->
<g id="edge67" class="edge">
<title>Node40&#45;&gt;Node21</title>
<path fill="none" stroke="#63b8ff" d="M852.68,-171.11C651.94,-163.39 74.48,-135.94 19,-74 13.37,-67.71 13.45,-61.36 19,-55 36.36,-35.11 198.7,-20.74 287.54,-14.29"/>
<polygon fill="#63b8ff" stroke="#63b8ff" points="287.55,-17.8 297.27,-13.59 287.05,-10.81 287.55,-17.8"/>
</g>
<!-- Node40&#45;&gt;Node22 -->
<g id="edge68" class="edge">
<title>Node40&#45;&gt;Node22</title>
<path fill="none" stroke="#63b8ff" d="M852.67,-173.25C685.24,-172.06 258.22,-165.44 121,-129 68.17,-114.97 39.74,-120.5 11,-74 -15.76,-30.7 71.53,-16.84 122.63,-12.47"/>
<polygon fill="#63b8ff" stroke="#63b8ff" points="122.63,-15.98 132.34,-11.72 122.1,-9 122.63,-15.98"/>
</g>
<!-- Node41 -->
<g id="node41" class="node">
<title>Node41</title>
<g id="a_node41"><a xlink:title=" ">
<polygon fill="#e0e0e0" stroke="#999999" points="899,-129 855,-129 855,-110 899,-110 899,-129"/>
<text text-anchor="middle" x="877" y="-117" font-family="Helvetica,sans-Serif" font-size="10.00">cmath</text>
</a>
</g>
</g>
<!-- Node40&#45;&gt;Node41 -->
<g id="edge70" class="edge">
<title>Node40&#45;&gt;Node41</title>
<path fill="none" stroke="#63b8ff" d="M913.73,-164.75C907.72,-157.5 898.99,-146.98 891.54,-138.02"/>
<polygon fill="#63b8ff" stroke="#63b8ff" points="894.47,-136.07 885.39,-130.61 889.08,-140.54 894.47,-136.07"/>
</g>
</g>
</svg>
