<?xml version="1.0" encoding="UTF-8" standalone="no"?>
<!DOCTYPE svg PUBLIC "-//W3C//DTD SVG 1.1//EN"
 "http://www.w3.org/Graphics/SVG/1.1/DTD/svg11.dtd">
<!-- Generated by graphviz version 7.0.5 (20221223.1930)
 -->
<!-- Title: /github/workspace/client/include/system/gameStates/IGameState.hpp Pages: 1 -->
<!--zoomable 269 -->
<svg id="main" version="1.1" xmlns="http://www.w3.org/2000/svg" xmlns:xlink="http://www.w3.org/1999/xlink" xml:space="preserve" onload="init(evt)">
<style type="text/css"><![CDATA[
.edge:hover path { stroke: red; }
.edge:hover polygon { stroke: red; fill: red; }
]]></style>
<script type="text/javascript"><![CDATA[
var edges = document.getElementsByTagName('g');
if (edges && edges.length) {
  for (var i=0;i<edges.length;i++) {
    if (edges[i].id.substr(0,4)=='edge') {
      edges[i].setAttribute('class','edge');
    }
  }
}
]]></script>
        <defs>
                <circle id="rim" cx="0" cy="0" r="7"/>
                <circle id="rim2" cx="0" cy="0" r="3.5"/>
                <g id="zoomPlus">
                        <use xlink:href="#rim" fill="#404040">
                                <set attributeName="fill" to="#808080" begin="zoomplus.mouseover" end="zoomplus.mouseout"/>
                        </use>
                        <path d="M-4,0h8M0,-4v8" fill="none" stroke="white" stroke-width="1.5" pointer-events="none"/>
                </g>
                <g id="zoomMin">
                        <use xlink:href="#rim" fill="#404040">
                                <set attributeName="fill" to="#808080" begin="zoomminus.mouseover" end="zoomminus.mouseout"/>
                        </use>
                        <path d="M-4,0h8" fill="none" stroke="white" stroke-width="1.5" pointer-events="none"/>
                </g>
                <g id="dirArrow">
                        <path fill="none" stroke="white" stroke-width="1.5" d="M0,-3.0v7 M-2.5,-0.5L0,-3.0L2.5,-0.5"/>
                </g>
               <g id="resetDef">
                       <use xlink:href="#rim2" fill="#404040">
                               <set attributeName="fill" to="#808080" begin="reset.mouseover" end="reset.mouseout"/>
                       </use>
               </g>
        </defs>

<script type="text/javascript">
var viewWidth = 1769;
var viewHeight = 269;
var sectionId = 'dynsection-0';
</script>
<script xlink:href="svgpan.js"/>
<svg id="graph" class="graph">
<g id="viewport">
<title>/github/workspace/client/include/system/gameStates/IGameState.hpp</title>
<!-- Node1 -->
<g id="node1" class="node">
<title>Node1</title>
<g id="a_node1"><a xlink:title=" ">
<polygon fill="#999999" stroke="#666666" points="1166,-261 1026,-261 1026,-220 1166,-220 1166,-261"/>
<text text-anchor="start" x="1034" y="-249" font-family="Helvetica,sans-Serif" font-size="10.00">/github/workspace/client</text>
<text text-anchor="start" x="1034" y="-238" font-family="Helvetica,sans-Serif" font-size="10.00">/include/system/gameStates</text>
<text text-anchor="middle" x="1096" y="-227" font-family="Helvetica,sans-Serif" font-size="10.00">/IGameState.hpp</text>
</a>
</g>
</g>
<!-- Node2 -->
<g id="node2" class="node">
<title>Node2</title>
<g id="a_node2"><a xlink:href="EntitiesManager_8hpp.html" target="_top" xlink:title=" ">
<polygon fill="white" stroke="#666666" points="1101,-184 961,-184 961,-165 1101,-165 1101,-184"/>
<text text-anchor="middle" x="1031" y="-172" font-family="Helvetica,sans-Serif" font-size="10.00">Entities/EntitiesManager.hpp</text>
</a>
</g>
</g>
<!-- Node1&#45;&gt;Node2 -->
<g id="edge1" class="edge">
<title>Node1&#45;&gt;Node2</title>
<path fill="none" stroke="#63b8ff" d="M1075.79,-219.6C1066.83,-210.78 1056.4,-200.51 1047.87,-192.11"/>
<polygon fill="#63b8ff" stroke="#63b8ff" points="1050.46,-189.75 1040.88,-185.22 1045.55,-194.73 1050.46,-189.75"/>
</g>
<!-- Node28 -->
<g id="node28" class="node">
<title>Node28</title>
<g id="a_node28"><a xlink:title=" ">
<polygon fill="#e0e0e0" stroke="#999999" points="1202.5,-184 1119.5,-184 1119.5,-165 1202.5,-165 1202.5,-184"/>
<text text-anchor="middle" x="1161" y="-172" font-family="Helvetica,sans-Serif" font-size="10.00">Utils/String.hpp</text>
</a>
</g>
</g>
<!-- Node1&#45;&gt;Node28 -->
<g id="edge35" class="edge">
<title>Node1&#45;&gt;Node28</title>
<path fill="none" stroke="#63b8ff" d="M1116.21,-219.6C1125.17,-210.78 1135.6,-200.51 1144.13,-192.11"/>
<polygon fill="#63b8ff" stroke="#63b8ff" points="1146.45,-194.73 1151.12,-185.22 1141.54,-189.75 1146.45,-194.73"/>
</g>
<!-- Node3 -->
<g id="node3" class="node">
<title>Node3</title>
<g id="a_node3"><a xlink:href="Engine_8hpp.html" target="_top" xlink:title=" ">
<polygon fill="white" stroke="#666666" points="1083,-129 979,-129 979,-110 1083,-110 1083,-129"/>
<text text-anchor="middle" x="1031" y="-117" font-family="Helvetica,sans-Serif" font-size="10.00">../Engine/Engine.hpp</text>
</a>
</g>
</g>
<!-- Node2&#45;&gt;Node3 -->
<g id="edge2" class="edge">
<title>Node2&#45;&gt;Node3</title>
<path fill="none" stroke="#63b8ff" d="M1025.83,-164.75C1024.42,-158.19 1023.96,-148.95 1024.43,-140.6"/>
<polygon fill="#63b8ff" stroke="#63b8ff" points="1027.87,-141.3 1025.61,-130.94 1020.92,-140.45 1027.87,-141.3"/>
</g>
<!-- Node14 -->
<g id="node14" class="node">
<title>Node14</title>
<g id="a_node14"><a xlink:title=" ">
<polygon fill="#e0e0e0" stroke="#999999" points="44,-74 0,-74 0,-55 44,-55 44,-74"/>
<text text-anchor="middle" x="22" y="-62" font-family="Helvetica,sans-Serif" font-size="10.00">vector</text>
</a>
</g>
</g>
<!-- Node2&#45;&gt;Node14 -->
<g id="edge34" class="edge">
<title>Node2&#45;&gt;Node14</title>
<path fill="none" stroke="#63b8ff" d="M960.76,-170.36C801.01,-162.37 398.36,-137.36 55.4,-74.15"/>
<polygon fill="#63b8ff" stroke="#63b8ff" points="56.21,-70.74 45.74,-72.35 54.93,-77.62 56.21,-70.74"/>
</g>
<!-- Node27 -->
<g id="node27" class="node">
<title>Node27</title>
<g id="a_node27"><a xlink:title=" ">
<polygon fill="#e0e0e0" stroke="#999999" points="1139,-129 1101,-129 1101,-110 1139,-110 1139,-129"/>
<text text-anchor="middle" x="1120" y="-117" font-family="Helvetica,sans-Serif" font-size="10.00">array</text>
</a>
</g>
</g>
<!-- Node2&#45;&gt;Node27 -->
<g id="edge33" class="edge">
<title>Node2&#45;&gt;Node27</title>
<path fill="none" stroke="#63b8ff" d="M1046.1,-164.51C1059.6,-156.47 1079.65,-144.53 1095.46,-135.11"/>
<polygon fill="#63b8ff" stroke="#63b8ff" points="1097.02,-138.26 1103.82,-130.13 1093.44,-132.24 1097.02,-138.26"/>
</g>
<!-- Node3&#45;&gt;Node2 -->
<g id="edge29" class="edge">
<title>Node3&#45;&gt;Node2</title>
<path fill="none" stroke="#63b8ff" d="M1036.21,-129.44C1037.58,-135.97 1038.04,-145.1 1037.57,-153.35"/>
<polygon fill="#63b8ff" stroke="#63b8ff" points="1034.1,-152.89 1036.35,-163.25 1041.05,-153.75 1034.1,-152.89"/>
</g>
<!-- Node4 -->
<g id="node4" class="node">
<title>Node4</title>
<g id="a_node4"><a xlink:title=" ">
<polygon fill="#e0e0e0" stroke="#999999" points="151.5,-74 62.5,-74 62.5,-55 151.5,-55 151.5,-74"/>
<text text-anchor="middle" x="107" y="-62" font-family="Helvetica,sans-Serif" font-size="10.00">SFML/Audio.hpp</text>
</a>
</g>
</g>
<!-- Node3&#45;&gt;Node4 -->
<g id="edge3" class="edge">
<title>Node3&#45;&gt;Node4</title>
<path fill="none" stroke="#63b8ff" d="M978.88,-117.74C845.16,-115.39 478.85,-106.36 162.96,-74.07"/>
<polygon fill="#63b8ff" stroke="#63b8ff" points="163.55,-70.61 153.25,-73.07 162.83,-77.58 163.55,-70.61"/>
</g>
<!-- Node5 -->
<g id="node5" class="node">
<title>Node5</title>
<g id="a_node5"><a xlink:title=" ">
<polygon fill="#e0e0e0" stroke="#999999" points="274,-74 170,-74 170,-55 274,-55 274,-74"/>
<text text-anchor="middle" x="222" y="-62" font-family="Helvetica,sans-Serif" font-size="10.00">SFML/Graphics.hpp</text>
</a>
</g>
</g>
<!-- Node3&#45;&gt;Node5 -->
<g id="edge4" class="edge">
<title>Node3&#45;&gt;Node5</title>
<path fill="none" stroke="#63b8ff" d="M978.74,-116.81C858.37,-112.62 552.05,-100.21 285.28,-74.14"/>
<polygon fill="#63b8ff" stroke="#63b8ff" points="286.01,-70.7 275.72,-73.2 285.33,-77.66 286.01,-70.7"/>
</g>
<!-- Node6 -->
<g id="node6" class="node">
<title>Node6</title>
<g id="a_node6"><a xlink:title=" ">
<polygon fill="#e0e0e0" stroke="#999999" points="393.5,-74 292.5,-74 292.5,-55 393.5,-55 393.5,-74"/>
<text text-anchor="middle" x="343" y="-62" font-family="Helvetica,sans-Serif" font-size="10.00">SFML/Network.hpp</text>
</a>
</g>
</g>
<!-- Node3&#45;&gt;Node6 -->
<g id="edge5" class="edge">
<title>Node3&#45;&gt;Node6</title>
<path fill="none" stroke="#63b8ff" d="M978.7,-116.08C872.56,-110.9 624.03,-97.36 405.21,-74.27"/>
<polygon fill="#63b8ff" stroke="#63b8ff" points="405.64,-70.8 395.32,-73.22 404.9,-77.76 405.64,-70.8"/>
</g>
<!-- Node7 -->
<g id="node7" class="node">
<title>Node7</title>
<g id="a_node7"><a xlink:title=" ">
<polygon fill="#e0e0e0" stroke="#999999" points="510.5,-74 411.5,-74 411.5,-55 510.5,-55 510.5,-74"/>
<text text-anchor="middle" x="461" y="-62" font-family="Helvetica,sans-Serif" font-size="10.00">SFML/Window.hpp</text>
</a>
</g>
</g>
<!-- Node3&#45;&gt;Node7 -->
<g id="edge6" class="edge">
<title>Node3&#45;&gt;Node7</title>
<path fill="none" stroke="#63b8ff" d="M978.67,-114.92C888.03,-108.5 695.69,-93.95 522.26,-74.19"/>
<polygon fill="#63b8ff" stroke="#63b8ff" points="522.71,-70.72 512.37,-73.06 521.91,-77.68 522.71,-70.72"/>
</g>
<!-- Node8 -->
<g id="node8" class="node">
<title>Node8</title>
<g id="a_node8"><a xlink:title=" ">
<polygon fill="#e0e0e0" stroke="#999999" points="627,-74 529,-74 529,-55 627,-55 627,-74"/>
<text text-anchor="middle" x="578" y="-62" font-family="Helvetica,sans-Serif" font-size="10.00">SFML/System.hpp</text>
</a>
</g>
</g>
<!-- Node3&#45;&gt;Node8 -->
<g id="edge7" class="edge">
<title>Node3&#45;&gt;Node8</title>
<path fill="none" stroke="#63b8ff" d="M978.54,-113.15C904.96,-105.53 766.62,-90.74 638.52,-74.29"/>
<polygon fill="#63b8ff" stroke="#63b8ff" points="639.21,-70.85 628.85,-73.04 638.32,-77.79 639.21,-70.85"/>
</g>
<!-- Node9 -->
<g id="node9" class="node">
<title>Node9</title>
<g id="a_node9"><a xlink:title=" ">
<polygon fill="#e0e0e0" stroke="#999999" points="699,-74 645,-74 645,-55 699,-55 699,-74"/>
<text text-anchor="middle" x="672" y="-62" font-family="Helvetica,sans-Serif" font-size="10.00">iostream</text>
</a>
</g>
</g>
<!-- Node3&#45;&gt;Node9 -->
<g id="edge8" class="edge">
<title>Node3&#45;&gt;Node9</title>
<path fill="none" stroke="#63b8ff" d="M978.73,-112.85C916.97,-105.82 810.89,-92.69 710.7,-74.35"/>
<polygon fill="#63b8ff" stroke="#63b8ff" points="711.42,-70.92 700.95,-72.54 710.14,-77.81 711.42,-70.92"/>
</g>
<!-- Node10 -->
<g id="node10" class="node">
<title>Node10</title>
<g id="a_node10"><a xlink:title=" ">
<polygon fill="#e0e0e0" stroke="#999999" points="767,-74 717,-74 717,-55 767,-55 767,-74"/>
<text text-anchor="middle" x="742" y="-62" font-family="Helvetica,sans-Serif" font-size="10.00">fstream</text>
</a>
</g>
</g>
<!-- Node3&#45;&gt;Node10 -->
<g id="edge9" class="edge">
<title>Node3&#45;&gt;Node10</title>
<path fill="none" stroke="#63b8ff" d="M978.53,-110.48C929.25,-102.69 853.22,-90.03 778.25,-74.35"/>
<polygon fill="#63b8ff" stroke="#63b8ff" points="779.19,-70.97 768.68,-72.33 777.75,-77.82 779.19,-70.97"/>
</g>
<!-- Node11 -->
<g id="node11" class="node">
<title>Node11</title>
<g id="a_node11"><a xlink:title=" ">
<polygon fill="#e0e0e0" stroke="#999999" points="833,-74 785,-74 785,-55 833,-55 833,-74"/>
<text text-anchor="middle" x="809" y="-62" font-family="Helvetica,sans-Serif" font-size="10.00">string.h</text>
</a>
</g>
</g>
<!-- Node3&#45;&gt;Node11 -->
<g id="edge10" class="edge">
<title>Node3&#45;&gt;Node11</title>
<path fill="none" stroke="#63b8ff" d="M991.85,-109.53C955.9,-101.24 900.88,-88.42 844.42,-74.56"/>
<polygon fill="#63b8ff" stroke="#63b8ff" points="845.51,-71.22 834.96,-72.23 843.84,-78.02 845.51,-71.22"/>
</g>
<!-- Node12 -->
<g id="node12" class="node">
<title>Node12</title>
<g id="a_node12"><a xlink:title=" ">
<polygon fill="#e0e0e0" stroke="#999999" points="901,-74 851,-74 851,-55 901,-55 901,-74"/>
<text text-anchor="middle" x="876" y="-62" font-family="Helvetica,sans-Serif" font-size="10.00">unistd.h</text>
</a>
</g>
</g>
<!-- Node3&#45;&gt;Node12 -->
<g id="edge11" class="edge">
<title>Node3&#45;&gt;Node12</title>
<path fill="none" stroke="#63b8ff" d="M1004.71,-109.51C979.24,-100.8 940.42,-87.53 912.07,-77.83"/>
<polygon fill="#63b8ff" stroke="#63b8ff" points="913.42,-74.6 902.82,-74.67 911.15,-81.22 913.42,-74.6"/>
</g>
<!-- Node13 -->
<g id="node13" class="node">
<title>Node13</title>
<g id="a_node13"><a xlink:title=" ">
<polygon fill="#e0e0e0" stroke="#999999" points="984.5,-74 919.5,-74 919.5,-55 984.5,-55 984.5,-74"/>
<text text-anchor="middle" x="952" y="-62" font-family="Helvetica,sans-Serif" font-size="10.00">sys/types.h</text>
</a>
</g>
</g>
<!-- Node3&#45;&gt;Node13 -->
<g id="edge12" class="edge">
<title>Node3&#45;&gt;Node13</title>
<path fill="none" stroke="#63b8ff" d="M1017.6,-109.51C1005.84,-101.62 988.49,-89.98 974.59,-80.65"/>
<polygon fill="#63b8ff" stroke="#63b8ff" points="976.71,-77.87 966.46,-75.2 972.81,-83.68 976.71,-77.87"/>
</g>
<!-- Node3&#45;&gt;Node14 -->
<g id="edge13" class="edge">
<title>Node3&#45;&gt;Node14</title>
<path fill="none" stroke="#63b8ff" d="M978.59,-117.65C805.96,-114.61 255.32,-102.99 55.46,-73.94"/>
<polygon fill="#63b8ff" stroke="#63b8ff" points="56.13,-70.5 45.72,-72.46 55.08,-77.42 56.13,-70.5"/>
</g>
<!-- Node15 -->
<g id="node15" class="node">
<title>Node15</title>
<g id="a_node15"><a xlink:title=" ">
<polygon fill="#e0e0e0" stroke="#999999" points="1059,-74 1003,-74 1003,-55 1059,-55 1059,-74"/>
<text text-anchor="middle" x="1031" y="-62" font-family="Helvetica,sans-Serif" font-size="10.00">stdbool.h</text>
</a>
</g>
</g>
<!-- Node3&#45;&gt;Node15 -->
<g id="edge14" class="edge">
<title>Node3&#45;&gt;Node15</title>
<path fill="none" stroke="#63b8ff" d="M1031,-109.75C1031,-103.27 1031,-94.16 1031,-85.9"/>
<polygon fill="#63b8ff" stroke="#63b8ff" points="1034.5,-85.96 1031,-75.96 1027.5,-85.96 1034.5,-85.96"/>
</g>
<!-- Node16 -->
<g id="node16" class="node">
<title>Node16</title>
<g id="a_node16"><a xlink:title=" ">
<polygon fill="#e0e0e0" stroke="#999999" points="1124.5,-74 1077.5,-74 1077.5,-55 1124.5,-55 1124.5,-74"/>
<text text-anchor="middle" x="1101" y="-62" font-family="Helvetica,sans-Serif" font-size="10.00">stdlib.h</text>
</a>
</g>
</g>
<!-- Node3&#45;&gt;Node16 -->
<g id="edge15" class="edge">
<title>Node3&#45;&gt;Node16</title>
<path fill="none" stroke="#63b8ff" d="M1042.87,-109.51C1053.09,-101.77 1068.07,-90.43 1080.26,-81.2"/>
<polygon fill="#63b8ff" stroke="#63b8ff" points="1082.23,-84.1 1088.09,-75.27 1078.01,-78.52 1082.23,-84.1"/>
</g>
<!-- Node17 -->
<g id="node17" class="node">
<title>Node17</title>
<g id="a_node17"><a xlink:title=" ">
<polygon fill="#e0e0e0" stroke="#999999" points="1201,-74 1143,-74 1143,-55 1201,-55 1201,-74"/>
<text text-anchor="middle" x="1172" y="-62" font-family="Helvetica,sans-Serif" font-size="10.00">exception</text>
</a>
</g>
</g>
<!-- Node3&#45;&gt;Node17 -->
<g id="edge16" class="edge">
<title>Node3&#45;&gt;Node17</title>
<path fill="none" stroke="#63b8ff" d="M1054.92,-109.51C1077.64,-100.97 1112.05,-88.03 1137.69,-78.4"/>
<polygon fill="#63b8ff" stroke="#63b8ff" points="1138.89,-81.69 1147.02,-74.89 1136.43,-75.13 1138.89,-81.69"/>
</g>
<!-- Node18 -->
<g id="node18" class="node">
<title>Node18</title>
<g id="a_node18"><a xlink:href="Window_8hpp.html" target="_top" xlink:title=" ">
<polygon fill="white" stroke="#666666" points="1288.5,-19 1187.5,-19 1187.5,0 1288.5,0 1288.5,-19"/>
<text text-anchor="middle" x="1238" y="-7" font-family="Helvetica,sans-Serif" font-size="10.00">Engine/Window.hpp</text>
</a>
</g>
</g>
<!-- Node3&#45;&gt;Node18 -->
<g id="edge17" class="edge">
<title>Node3&#45;&gt;Node18</title>
<path fill="none" stroke="#63b8ff" d="M1082.75,-109.57C1125.88,-101.75 1182.87,-89.26 1201,-74 1214.25,-62.85 1221.45,-44.2 1226.81,-29.99"/>
<polygon fill="#63b8ff" stroke="#63b8ff" points="1230.03,-31.35 1230.42,-20.77 1223.51,-28.8 1230.03,-31.35"/>
</g>
<!-- Node19 -->
<g id="node19" class="node">
<title>Node19</title>
<g id="a_node19"><a xlink:href="Draw_8hpp.html" target="_top" xlink:title=" ">
<polygon fill="white" stroke="#666666" points="1364.5,-74 1275.5,-74 1275.5,-55 1364.5,-55 1364.5,-74"/>
<text text-anchor="middle" x="1320" y="-62" font-family="Helvetica,sans-Serif" font-size="10.00">Engine/Draw.hpp</text>
</a>
</g>
</g>
<!-- Node3&#45;&gt;Node19 -->
<g id="edge19" class="edge">
<title>Node3&#45;&gt;Node19</title>
<path fill="none" stroke="#63b8ff" d="M1074.81,-109.51C1125.51,-99.84 1208.93,-84.54 1264.22,-74.76"/>
<polygon fill="#63b8ff" stroke="#63b8ff" points="1264.49,-78.27 1273.73,-73.09 1263.28,-71.37 1264.49,-78.27"/>
</g>
<!-- Node20 -->
<g id="node20" class="node">
<title>Node20</title>
<g id="a_node20"><a xlink:href="Event_8hpp.html" target="_top" xlink:title=" ">
<polygon fill="white" stroke="#666666" points="1621,-74 1529,-74 1529,-55 1621,-55 1621,-74"/>
<text text-anchor="middle" x="1575" y="-62" font-family="Helvetica,sans-Serif" font-size="10.00">Engine/Event.hpp</text>
</a>
</g>
</g>
<!-- Node3&#45;&gt;Node20 -->
<g id="edge21" class="edge">
<title>Node3&#45;&gt;Node20</title>
<path fill="none" stroke="#63b8ff" d="M1083.28,-109.97C1272.76,-88.83 1321.54,-96.58 1511,-74 1513.03,-73.76 1515.11,-73.5 1517.21,-73.22"/>
<polygon fill="#63b8ff" stroke="#63b8ff" points="1517.66,-76.69 1527.08,-71.86 1516.7,-69.76 1517.66,-76.69"/>
</g>
<!-- Node24 -->
<g id="node24" class="node">
<title>Node24</title>
<g id="a_node24"><a xlink:href="StateManager_8hpp.html" target="_top" xlink:title=" ">
<polygon fill="white" stroke="#666666" points="1511,-74 1383,-74 1383,-55 1511,-55 1511,-74"/>
<text text-anchor="middle" x="1447" y="-62" font-family="Helvetica,sans-Serif" font-size="10.00">Engine/StateManager.hpp</text>
</a>
</g>
</g>
<!-- Node3&#45;&gt;Node24 -->
<g id="edge26" class="edge">
<title>Node3&#45;&gt;Node24</title>
<path fill="none" stroke="#63b8ff" d="M1083.46,-109.94C1182.84,-96.79 1297.9,-82.55 1371.58,-73.83"/>
<polygon fill="#63b8ff" stroke="#63b8ff" points="1371.57,-77.35 1381.09,-72.7 1370.75,-70.4 1371.57,-77.35"/>
</g>
<!-- Node25 -->
<g id="node25" class="node">
<title>Node25</title>
<g id="a_node25"><a xlink:href="Bullets_8hpp.html" target="_top" xlink:title=" ">
<polygon fill="white" stroke="#666666" points="1761,-74 1639,-74 1639,-55 1761,-55 1761,-74"/>
<text text-anchor="middle" x="1700" y="-62" font-family="Helvetica,sans-Serif" font-size="10.00">Components/Bullets.hpp</text>
</a>
</g>
</g>
<!-- Node3&#45;&gt;Node25 -->
<g id="edge30" class="edge">
<title>Node3&#45;&gt;Node25</title>
<path fill="none" stroke="#63b8ff" d="M1083.35,-109.96C1321.44,-85.46 1382.52,-96.44 1621,-74 1623.15,-73.8 1625.33,-73.58 1627.54,-73.36"/>
<polygon fill="#63b8ff" stroke="#63b8ff" points="1627.64,-76.87 1637.22,-72.33 1626.9,-69.91 1627.64,-76.87"/>
</g>
<!-- Node18&#45;&gt;Node3 -->
<g id="edge18" class="edge">
<title>Node18&#45;&gt;Node3</title>
<path fill="none" stroke="#63b8ff" d="M1242.28,-19.36C1243.01,-33.17 1235.96,-59.73 1219,-74 1200.55,-89.52 1141.87,-102.18 1094.84,-109.97"/>
<polygon fill="#63b8ff" stroke="#63b8ff" points="1094.29,-106.52 1084.97,-111.56 1095.4,-113.43 1094.29,-106.52"/>
</g>
<!-- Node19&#45;&gt;Node3 -->
<g id="edge20" class="edge">
<title>Node19&#45;&gt;Node3</title>
<path fill="none" stroke="#63b8ff" d="M1276.23,-74.48C1227.76,-83.73 1149.38,-98.12 1094.26,-107.91"/>
<polygon fill="#63b8ff" stroke="#63b8ff" points="1093.94,-104.41 1084.71,-109.6 1095.16,-111.31 1093.94,-104.41"/>
</g>
<!-- Node20&#45;&gt;Node3 -->
<g id="edge22" class="edge">
<title>Node20&#45;&gt;Node3</title>
<path fill="none" stroke="#63b8ff" d="M1528.72,-74.03C1339.4,-96.58 1290.62,-88.83 1101,-110 1098.85,-110.24 1096.65,-110.5 1094.44,-110.76"/>
<polygon fill="#63b8ff" stroke="#63b8ff" points="1094.19,-107.27 1084.7,-111.98 1095.06,-114.21 1094.19,-107.27"/>
</g>
<!-- Node21 -->
<g id="node21" class="node">
<title>Node21</title>
<g id="a_node21"><a xlink:title=" ">
<polygon fill="#e0e0e0" stroke="#999999" points="1526.5,-19 1497.5,-19 1497.5,0 1526.5,0 1526.5,-19"/>
<text text-anchor="middle" x="1512" y="-7" font-family="Helvetica,sans-Serif" font-size="10.00">list</text>
</a>
</g>
</g>
<!-- Node20&#45;&gt;Node21 -->
<g id="edge23" class="edge">
<title>Node20&#45;&gt;Node21</title>
<path fill="none" stroke="#63b8ff" d="M1564.31,-54.51C1555.3,-46.93 1542.17,-35.88 1531.32,-26.75"/>
<polygon fill="#63b8ff" stroke="#63b8ff" points="1533.59,-24.09 1523.69,-20.33 1529.09,-29.45 1533.59,-24.09"/>
</g>
<!-- Node22 -->
<g id="node22" class="node">
<title>Node22</title>
<g id="a_node22"><a xlink:title=" ">
<polygon fill="#e0e0e0" stroke="#999999" points="1587.5,-19 1544.5,-19 1544.5,0 1587.5,0 1587.5,-19"/>
<text text-anchor="middle" x="1566" y="-7" font-family="Helvetica,sans-Serif" font-size="10.00">queue</text>
</a>
</g>
</g>
<!-- Node20&#45;&gt;Node22 -->
<g id="edge24" class="edge">
<title>Node20&#45;&gt;Node22</title>
<path fill="none" stroke="#63b8ff" d="M1573.51,-54.75C1572.4,-48.19 1570.83,-38.95 1569.41,-30.6"/>
<polygon fill="#63b8ff" stroke="#63b8ff" points="1572.9,-30.21 1567.77,-20.93 1566,-31.38 1572.9,-30.21"/>
</g>
<!-- Node23 -->
<g id="node23" class="node">
<title>Node23</title>
<g id="a_node23"><a xlink:title=" ">
<polygon fill="#e0e0e0" stroke="#999999" points="1668,-19 1606,-19 1606,0 1668,0 1668,-19"/>
<text text-anchor="middle" x="1637" y="-7" font-family="Helvetica,sans-Serif" font-size="10.00">Skaldi.hpp</text>
</a>
</g>
</g>
<!-- Node20&#45;&gt;Node23 -->
<g id="edge25" class="edge">
<title>Node20&#45;&gt;Node23</title>
<path fill="none" stroke="#63b8ff" d="M1585.52,-54.51C1594.39,-46.93 1607.31,-35.88 1617.99,-26.75"/>
<polygon fill="#63b8ff" stroke="#63b8ff" points="1620.16,-29.5 1625.49,-20.34 1615.61,-24.18 1620.16,-29.5"/>
</g>
<!-- Node24&#45;&gt;Node3 -->
<g id="edge27" class="edge">
<title>Node24&#45;&gt;Node3</title>
<path fill="none" stroke="#63b8ff" d="M1382.72,-74.12C1313.21,-82.88 1199.37,-96.98 1101,-110 1098.85,-110.28 1096.66,-110.58 1094.45,-110.87"/>
<polygon fill="#63b8ff" stroke="#63b8ff" points="1094.17,-107.38 1084.73,-112.19 1095.1,-114.32 1094.17,-107.38"/>
</g>
<!-- Node24&#45;&gt;Node18 -->
<g id="edge28" class="edge">
<title>Node24&#45;&gt;Node18</title>
<path fill="none" stroke="#63b8ff" d="M1411.55,-54.51C1376.46,-45.61 1322.58,-31.95 1284.17,-22.21"/>
<polygon fill="#63b8ff" stroke="#63b8ff" points="1285.3,-18.88 1274.75,-19.82 1283.58,-25.67 1285.3,-18.88"/>
</g>
<!-- Node25&#45;&gt;Node3 -->
<g id="edge31" class="edge">
<title>Node25&#45;&gt;Node3</title>
<path fill="none" stroke="#63b8ff" d="M1638.65,-74.03C1400.35,-96.44 1339.27,-85.46 1101,-110 1098.85,-110.22 1096.65,-110.46 1094.43,-110.72"/>
<polygon fill="#63b8ff" stroke="#63b8ff" points="1094.2,-107.22 1084.69,-111.9 1095.04,-114.17 1094.2,-107.22"/>
</g>
<!-- Node26 -->
<g id="node26" class="node">
<title>Node26</title>
<g id="a_node26"><a xlink:title=" ">
<polygon fill="#e0e0e0" stroke="#999999" points="1732,-19 1686,-19 1686,0 1732,0 1732,-19"/>
<text text-anchor="middle" x="1709" y="-7" font-family="Helvetica,sans-Serif" font-size="10.00">math.h</text>
</a>
</g>
</g>
<!-- Node25&#45;&gt;Node26 -->
<g id="edge32" class="edge">
<title>Node25&#45;&gt;Node26</title>
<path fill="none" stroke="#63b8ff" d="M1701.49,-54.75C1702.6,-48.19 1704.17,-38.95 1705.59,-30.6"/>
<polygon fill="#63b8ff" stroke="#63b8ff" points="1709,-31.38 1707.23,-20.93 1702.1,-30.21 1709,-31.38"/>
</g>
</g>
</svg>
        <g id="navigator" transform="translate(0 0)" fill="#404254">
                <rect fill="#f2f5e9" fill-opacity="0.5" stroke="#606060" stroke-width=".5" x="0" y="0" width="60" height="60"/>
                <use id="zoomplus" xlink:href="#zoomPlus" x="17" y="9" onmousedown="handleZoom(evt,'in')"/>
                <use id="zoomminus" xlink:href="#zoomMin" x="42" y="9" onmousedown="handleZoom(evt,'out')"/>
                <use id="reset" xlink:href="#resetDef" x="30" y="36" onmousedown="handleReset()"/>
                <g id="arrowUp" xlink:href="#dirArrow" transform="translate(30 24)" onmousedown="handlePan(0,-1)">
                  <use xlink:href="#rim" fill="#404040">
                        <set attributeName="fill" to="#808080" begin="arrowUp.mouseover" end="arrowUp.mouseout"/>
                  </use>
                  <path fill="none" stroke="white" stroke-width="1.5" d="M0,-3.0v7 M-2.5,-0.5L0,-3.0L2.5,-0.5"/>
                </g>
                <g id="arrowRight" xlink:href="#dirArrow" transform="rotate(90) translate(36 -43)" onmousedown="handlePan(1,0)">
                  <use xlink:href="#rim" fill="#404040">
                        <set attributeName="fill" to="#808080" begin="arrowRight.mouseover" end="arrowRight.mouseout"/>
                  </use>
                  <path fill="none" stroke="white" stroke-width="1.5" d="M0,-3.0v7 M-2.5,-0.5L0,-3.0L2.5,-0.5"/>
                </g>
                <g id="arrowDown" xlink:href="#dirArrow" transform="rotate(180) translate(-30 -48)" onmousedown="handlePan(0,1)">
                  <use xlink:href="#rim" fill="#404040">
                        <set attributeName="fill" to="#808080" begin="arrowDown.mouseover" end="arrowDown.mouseout"/>
                  </use>
                  <path fill="none" stroke="white" stroke-width="1.5" d="M0,-3.0v7 M-2.5,-0.5L0,-3.0L2.5,-0.5"/>
                </g>
                <g id="arrowLeft" xlink:href="#dirArrow" transform="rotate(270) translate(-36 17)" onmousedown="handlePan(-1,0)">
                  <use xlink:href="#rim" fill="#404040">
                        <set attributeName="fill" to="#808080" begin="arrowLeft.mouseover" end="arrowLeft.mouseout"/>
                  </use>
                  <path fill="none" stroke="white" stroke-width="1.5" d="M0,-3.0v7 M-2.5,-0.5L0,-3.0L2.5,-0.5"/>
                </g>
        </g>
        <svg viewBox="0 0 15 15" width="100%" height="30px" preserveAspectRatio="xMaxYMin meet">
         <g id="arrow_out" transform="scale(0.3 0.3)">
          <a xlink:href="IGameState_8hpp__incl_org.svg" target="_base">
           <rect id="button" ry="5" rx="5" y="6" x="6" height="38" width="38"
                fill="#f2f5e9" fill-opacity="0.5" stroke="#606060" stroke-width="1.0"/>
           <path id="arrow"
             d="M 11.500037,31.436501 C 11.940474,20.09759 22.043105,11.32322 32.158766,21.979434 L 37.068811,17.246167 C 37.068811,17.246167 37.088388,32 37.088388,32 L 22.160133,31.978069 C 22.160133,31.978069 26.997745,27.140456 26.997745,27.140456 C 18.528582,18.264221 13.291696,25.230495 11.500037,31.436501 z"
             style="fill:#404040;"/>
          </a>
         </g>
        </svg>
</svg>
