<?xml version="1.0" encoding="UTF-8" standalone="no"?>
<!DOCTYPE svg PUBLIC "-//W3C//DTD SVG 1.1//EN"
 "http://www.w3.org/Graphics/SVG/1.1/DTD/svg11.dtd">
<!-- Generated by graphviz version 7.0.5 (20221223.1930)
 -->
<!-- Title: /github/workspace/client/include/system/gameStates/IGameState.hpp Pages: 1 -->
<svg width="2424pt" height="434pt"
 viewBox="0.00 0.00 2423.50 434.00" xmlns="http://www.w3.org/2000/svg" xmlns:xlink="http://www.w3.org/1999/xlink">
<g id="graph0" class="graph" transform="scale(1 1) rotate(0) translate(4 430)">
<title>/github/workspace/client/include/system/gameStates/IGameState.hpp</title>
<!-- Node1 -->
<g id="node1" class="node">
<title>Node1</title>
<g id="a_node1"><a xlink:title=" ">
<polygon fill="#999999" stroke="#666666" points="1643.5,-426 1503.5,-426 1503.5,-385 1643.5,-385 1643.5,-426"/>
<text text-anchor="start" x="1511.5" y="-414" font-family="Helvetica,sans-Serif" font-size="10.00">/github/workspace/client</text>
<text text-anchor="start" x="1511.5" y="-403" font-family="Helvetica,sans-Serif" font-size="10.00">/include/system/gameStates</text>
<text text-anchor="middle" x="1573.5" y="-392" font-family="Helvetica,sans-Serif" font-size="10.00">/IGameState.hpp</text>
</a>
</g>
</g>
<!-- Node2 -->
<g id="node2" class="node">
<title>Node2</title>
<g id="a_node2"><a xlink:href="EntitiesManager_8hpp.html" target="_top" xlink:title=" ">
<polygon fill="white" stroke="#666666" points="1120.5,-239 980.5,-239 980.5,-220 1120.5,-220 1120.5,-239"/>
<text text-anchor="middle" x="1050.5" y="-227" font-family="Helvetica,sans-Serif" font-size="10.00">Entities/EntitiesManager.hpp</text>
</a>
</g>
</g>
<!-- Node1&#45;&gt;Node2 -->
<g id="edge1" class="edge">
<title>Node1&#45;&gt;Node2</title>
<path fill="none" stroke="#63b8ff" d="M1503.24,-402.42C1395.39,-398.11 1195.12,-385.33 1134.5,-349 1095.69,-325.74 1070.01,-276.86 1058.13,-249.71"/>
<polygon fill="#63b8ff" stroke="#63b8ff" points="1061.42,-248.52 1054.34,-240.64 1054.96,-251.21 1061.42,-248.52"/>
</g>
<!-- Node26 -->
<g id="node26" class="node">
<title>Node26</title>
<g id="a_node26"><a xlink:href="Background_8hpp.html" target="_top" xlink:title=" ">
<polygon fill="white" stroke="#666666" points="580.5,-74 436.5,-74 436.5,-55 580.5,-55 580.5,-74"/>
<text text-anchor="middle" x="508.5" y="-62" font-family="Helvetica,sans-Serif" font-size="10.00">Components/Background.hpp</text>
</a>
</g>
</g>
<!-- Node1&#45;&gt;Node26 -->
<g id="edge65" class="edge">
<title>Node1&#45;&gt;Node26</title>
<path fill="none" stroke="#63b8ff" d="M1503.32,-399.36C1382.61,-388.58 1148.5,-358.29 1148.5,-285.5 1148.5,-285.5 1148.5,-285.5 1148.5,-173.5 1148.5,-145.62 765.93,-96.29 592.36,-75.35"/>
<polygon fill="#63b8ff" stroke="#63b8ff" points="592.83,-71.88 582.48,-74.16 592,-78.83 592.83,-71.88"/>
</g>
<!-- Node32 -->
<g id="node32" class="node">
<title>Node32</title>
<g id="a_node32"><a xlink:href="String_8hpp.html" target="_top" xlink:title=" ">
<polygon fill="white" stroke="#666666" points="83,-129 0,-129 0,-110 83,-110 83,-129"/>
<text text-anchor="middle" x="41.5" y="-117" font-family="Helvetica,sans-Serif" font-size="10.00">Utils/String.hpp</text>
</a>
</g>
</g>
<!-- Node1&#45;&gt;Node32 -->
<g id="edge45" class="edge">
<title>Node1&#45;&gt;Node32</title>
<path fill="none" stroke="#63b8ff" d="M1503.27,-402.44C1213.69,-393.51 127.5,-355.36 127.5,-285.5 127.5,-285.5 127.5,-285.5 127.5,-228.5 127.5,-188.3 90.58,-154.41 65.12,-135.83"/>
<polygon fill="#63b8ff" stroke="#63b8ff" points="67.15,-132.97 56.94,-130.12 63.14,-138.71 67.15,-132.97"/>
</g>
<!-- Node33 -->
<g id="node33" class="node">
<title>Node33</title>
<g id="a_node33"><a xlink:href="GameEngine_8hpp.html" target="_top" xlink:title=" ">
<polygon fill="white" stroke="#666666" points="1785,-349 1660,-349 1660,-330 1785,-330 1785,-349"/>
<text text-anchor="middle" x="1722.5" y="-337" font-family="Helvetica,sans-Serif" font-size="10.00">system/GameEngine.hpp</text>
</a>
</g>
</g>
<!-- Node1&#45;&gt;Node33 -->
<g id="edge49" class="edge">
<title>Node1&#45;&gt;Node33</title>
<path fill="none" stroke="#63b8ff" d="M1619.83,-384.6C1643.15,-374.59 1670.78,-362.72 1691.5,-353.81"/>
<polygon fill="#63b8ff" stroke="#63b8ff" points="1692.74,-357.09 1700.55,-349.93 1689.98,-350.66 1692.74,-357.09"/>
</g>
<!-- Node41 -->
<g id="node41" class="node">
<title>Node41</title>
<g id="a_node41"><a xlink:href="Centipede_8hpp.html" target="_top" xlink:title=" ">
<polygon fill="white" stroke="#666666" points="1850.5,-184 1714.5,-184 1714.5,-165 1850.5,-165 1850.5,-184"/>
<text text-anchor="middle" x="1782.5" y="-172" font-family="Helvetica,sans-Serif" font-size="10.00">Components/Centipede.hpp</text>
</a>
</g>
</g>
<!-- Node1&#45;&gt;Node41 -->
<g id="edge66" class="edge">
<title>Node1&#45;&gt;Node41</title>
<path fill="none" stroke="#63b8ff" d="M1579.15,-384.65C1587.65,-357.5 1605.84,-308.37 1634.5,-275 1667.85,-236.17 1719.84,-206 1752.49,-189.49"/>
<polygon fill="#63b8ff" stroke="#63b8ff" points="1753.99,-192.66 1761.41,-185.1 1750.9,-186.38 1753.99,-192.66"/>
</g>
<!-- Node3 -->
<g id="node3" class="node">
<title>Node3</title>
<g id="a_node3"><a xlink:href="Engine_8hpp.html" target="_top" xlink:title=" ">
<polygon fill="white" stroke="#666666" points="1396.5,-129 1292.5,-129 1292.5,-110 1396.5,-110 1396.5,-129"/>
<text text-anchor="middle" x="1344.5" y="-117" font-family="Helvetica,sans-Serif" font-size="10.00">../Engine/Engine.hpp</text>
</a>
</g>
</g>
<!-- Node2&#45;&gt;Node3 -->
<g id="edge2" class="edge">
<title>Node2&#45;&gt;Node3</title>
<path fill="none" stroke="#63b8ff" d="M1070.65,-219.66C1119.09,-200.56 1241.94,-155.35 1305.41,-133.19"/>
<polygon fill="#63b8ff" stroke="#63b8ff" points="1306.44,-136.54 1314.74,-129.96 1304.15,-129.93 1306.44,-136.54"/>
</g>
<!-- Node24 -->
<g id="node24" class="node">
<title>Node24</title>
<g id="a_node24"><a xlink:href="IComponents_8hpp.html" target="_top" xlink:title=" ">
<polygon fill="white" stroke="#666666" points="1503.5,-19 1411.5,-19 1411.5,0 1503.5,0 1503.5,-19"/>
<text text-anchor="middle" x="1457.5" y="-7" font-family="Helvetica,sans-Serif" font-size="10.00">IComponents.hpp</text>
</a>
</g>
</g>
<!-- Node2&#45;&gt;Node24 -->
<g id="edge32" class="edge">
<title>Node2&#45;&gt;Node24</title>
<path fill="none" stroke="#63b8ff" d="M980.31,-220.9C801.31,-200.19 347.37,-138.67 427.5,-55 461.31,-19.7 1187.71,-12.24 1399.83,-10.81"/>
<polygon fill="#63b8ff" stroke="#63b8ff" points="1399.81,-14.31 1409.79,-10.75 1399.77,-7.31 1399.81,-14.31"/>
</g>
<!-- Node27 -->
<g id="node27" class="node">
<title>Node27</title>
<g id="a_node27"><a xlink:href="SparseArray_8hpp.html" target="_top" xlink:title=" ">
<polygon fill="white" stroke="#666666" points="353,-184 242,-184 242,-165 353,-165 353,-184"/>
<text text-anchor="middle" x="297.5" y="-172" font-family="Helvetica,sans-Serif" font-size="10.00">Utils/SparseArray.hpp</text>
</a>
</g>
</g>
<!-- Node2&#45;&gt;Node27 -->
<g id="edge33" class="edge">
<title>Node2&#45;&gt;Node27</title>
<path fill="none" stroke="#63b8ff" d="M980.41,-224.11C860.81,-216.53 609.65,-200.24 397.5,-184 386.86,-183.19 375.59,-182.27 364.6,-181.36"/>
<polygon fill="#63b8ff" stroke="#63b8ff" points="365.05,-177.89 354.8,-180.54 364.47,-184.86 365.05,-177.89"/>
</g>
<!-- Node3&#45;&gt;Node2 -->
<g id="edge24" class="edge">
<title>Node3&#45;&gt;Node2</title>
<path fill="none" stroke="#63b8ff" d="M1324.09,-129.44C1275.44,-148.62 1152.8,-193.74 1089.47,-215.85"/>
<polygon fill="#63b8ff" stroke="#63b8ff" points="1088.47,-212.49 1080.17,-219.07 1090.76,-219.11 1088.47,-212.49"/>
</g>
<!-- Node4 -->
<g id="node4" class="node">
<title>Node4</title>
<g id="a_node4"><a xlink:title=" ">
<polygon fill="#e0e0e0" stroke="#999999" points="726,-74 637,-74 637,-55 726,-55 726,-74"/>
<text text-anchor="middle" x="681.5" y="-62" font-family="Helvetica,sans-Serif" font-size="10.00">SFML/Audio.hpp</text>
</a>
</g>
</g>
<!-- Node3&#45;&gt;Node4 -->
<g id="edge3" class="edge">
<title>Node3&#45;&gt;Node4</title>
<path fill="none" stroke="#63b8ff" d="M1292.3,-111.47C1287.63,-110.94 1282.98,-110.44 1278.5,-110 1041.42,-86.9 977.79,-100.41 737.45,-74.1"/>
<polygon fill="#63b8ff" stroke="#63b8ff" points="738.08,-70.65 727.75,-73.03 737.31,-77.61 738.08,-70.65"/>
</g>
<!-- Node5 -->
<g id="node5" class="node">
<title>Node5</title>
<g id="a_node5"><a xlink:title=" ">
<polygon fill="#e0e0e0" stroke="#999999" points="848.5,-74 744.5,-74 744.5,-55 848.5,-55 848.5,-74"/>
<text text-anchor="middle" x="796.5" y="-62" font-family="Helvetica,sans-Serif" font-size="10.00">SFML/Graphics.hpp</text>
</a>
</g>
</g>
<!-- Node3&#45;&gt;Node5 -->
<g id="edge4" class="edge">
<title>Node3&#45;&gt;Node5</title>
<path fill="none" stroke="#63b8ff" d="M1292.29,-111.57C1287.63,-111.01 1282.98,-110.48 1278.5,-110 1095.42,-90.39 1046.03,-94.78 860,-74.22"/>
<polygon fill="#63b8ff" stroke="#63b8ff" points="860.55,-70.76 850.22,-73.13 859.77,-77.72 860.55,-70.76"/>
</g>
<!-- Node6 -->
<g id="node6" class="node">
<title>Node6</title>
<g id="a_node6"><a xlink:title=" ">
<polygon fill="#e0e0e0" stroke="#999999" points="968,-74 867,-74 867,-55 968,-55 968,-74"/>
<text text-anchor="middle" x="917.5" y="-62" font-family="Helvetica,sans-Serif" font-size="10.00">SFML/Network.hpp</text>
</a>
</g>
</g>
<!-- Node3&#45;&gt;Node6 -->
<g id="edge5" class="edge">
<title>Node3&#45;&gt;Node6</title>
<path fill="none" stroke="#63b8ff" d="M1292.27,-111.73C1287.61,-111.14 1282.97,-110.55 1278.5,-110 1147.89,-93.81 1112.37,-91.74 979.36,-74.35"/>
<polygon fill="#63b8ff" stroke="#63b8ff" points="980.21,-70.93 969.84,-73.1 979.3,-77.87 980.21,-70.93"/>
</g>
<!-- Node7 -->
<g id="node7" class="node">
<title>Node7</title>
<g id="a_node7"><a xlink:title=" ">
<polygon fill="#e0e0e0" stroke="#999999" points="1085,-74 986,-74 986,-55 1085,-55 1085,-74"/>
<text text-anchor="middle" x="1035.5" y="-62" font-family="Helvetica,sans-Serif" font-size="10.00">SFML/Window.hpp</text>
</a>
</g>
</g>
<!-- Node3&#45;&gt;Node7 -->
<g id="edge6" class="edge">
<title>Node3&#45;&gt;Node7</title>
<path fill="none" stroke="#63b8ff" d="M1292.08,-109.51C1237.92,-100.22 1153.48,-85.74 1096.39,-75.94"/>
<polygon fill="#63b8ff" stroke="#63b8ff" points="1097.3,-72.55 1086.85,-74.31 1096.11,-79.45 1097.3,-72.55"/>
</g>
<!-- Node8 -->
<g id="node8" class="node">
<title>Node8</title>
<g id="a_node8"><a xlink:title=" ">
<polygon fill="#e0e0e0" stroke="#999999" points="1201.5,-74 1103.5,-74 1103.5,-55 1201.5,-55 1201.5,-74"/>
<text text-anchor="middle" x="1152.5" y="-62" font-family="Helvetica,sans-Serif" font-size="10.00">SFML/System.hpp</text>
</a>
</g>
</g>
<!-- Node3&#45;&gt;Node8 -->
<g id="edge7" class="edge">
<title>Node3&#45;&gt;Node8</title>
<path fill="none" stroke="#63b8ff" d="M1311.93,-109.51C1279.97,-100.69 1231.05,-87.18 1195.82,-77.46"/>
<polygon fill="#63b8ff" stroke="#63b8ff" points="1196.94,-74.14 1186.37,-74.85 1195.08,-80.88 1196.94,-74.14"/>
</g>
<!-- Node9 -->
<g id="node9" class="node">
<title>Node9</title>
<g id="a_node9"><a xlink:title=" ">
<polygon fill="#e0e0e0" stroke="#999999" points="262.5,-74 208.5,-74 208.5,-55 262.5,-55 262.5,-74"/>
<text text-anchor="middle" x="235.5" y="-62" font-family="Helvetica,sans-Serif" font-size="10.00">iostream</text>
</a>
</g>
</g>
<!-- Node3&#45;&gt;Node9 -->
<g id="edge8" class="edge">
<title>Node3&#45;&gt;Node9</title>
<path fill="none" stroke="#63b8ff" d="M1292.13,-113.52C1277.09,-112.22 1260.65,-110.93 1245.5,-110 816.82,-83.69 702.72,-131.22 274.07,-74.06"/>
<polygon fill="#63b8ff" stroke="#63b8ff" points="274.79,-70.62 264.41,-72.76 273.86,-77.56 274.79,-70.62"/>
</g>
<!-- Node10 -->
<g id="node10" class="node">
<title>Node10</title>
<g id="a_node10"><a xlink:title=" ">
<polygon fill="#e0e0e0" stroke="#999999" points="1269.5,-74 1219.5,-74 1219.5,-55 1269.5,-55 1269.5,-74"/>
<text text-anchor="middle" x="1244.5" y="-62" font-family="Helvetica,sans-Serif" font-size="10.00">fstream</text>
</a>
</g>
</g>
<!-- Node3&#45;&gt;Node10 -->
<g id="edge9" class="edge">
<title>Node3&#45;&gt;Node10</title>
<path fill="none" stroke="#63b8ff" d="M1327.54,-109.51C1312.14,-101.35 1289.19,-89.19 1271.31,-79.71"/>
<polygon fill="#63b8ff" stroke="#63b8ff" points="1273.03,-76.66 1262.55,-75.07 1269.75,-82.84 1273.03,-76.66"/>
</g>
<!-- Node11 -->
<g id="node11" class="node">
<title>Node11</title>
<g id="a_node11"><a xlink:title=" ">
<polygon fill="#e0e0e0" stroke="#999999" points="1335.5,-74 1287.5,-74 1287.5,-55 1335.5,-55 1335.5,-74"/>
<text text-anchor="middle" x="1311.5" y="-62" font-family="Helvetica,sans-Serif" font-size="10.00">string.h</text>
</a>
</g>
</g>
<!-- Node3&#45;&gt;Node11 -->
<g id="edge10" class="edge">
<title>Node3&#45;&gt;Node11</title>
<path fill="none" stroke="#63b8ff" d="M1339.05,-109.75C1334.73,-102.81 1328.54,-92.86 1323.12,-84.16"/>
<polygon fill="#63b8ff" stroke="#63b8ff" points="1326.12,-82.37 1317.87,-75.73 1320.18,-86.07 1326.12,-82.37"/>
</g>
<!-- Node12 -->
<g id="node12" class="node">
<title>Node12</title>
<g id="a_node12"><a xlink:title=" ">
<polygon fill="#e0e0e0" stroke="#999999" points="1403.5,-74 1353.5,-74 1353.5,-55 1403.5,-55 1403.5,-74"/>
<text text-anchor="middle" x="1378.5" y="-62" font-family="Helvetica,sans-Serif" font-size="10.00">unistd.h</text>
</a>
</g>
</g>
<!-- Node3&#45;&gt;Node12 -->
<g id="edge11" class="edge">
<title>Node3&#45;&gt;Node12</title>
<path fill="none" stroke="#63b8ff" d="M1350.11,-109.75C1354.62,-102.73 1361.09,-92.64 1366.71,-83.87"/>
<polygon fill="#63b8ff" stroke="#63b8ff" points="1369.49,-86.02 1371.95,-75.72 1363.6,-82.24 1369.49,-86.02"/>
</g>
<!-- Node13 -->
<g id="node13" class="node">
<title>Node13</title>
<g id="a_node13"><a xlink:title=" ">
<polygon fill="#e0e0e0" stroke="#999999" points="1487,-74 1422,-74 1422,-55 1487,-55 1487,-74"/>
<text text-anchor="middle" x="1454.5" y="-62" font-family="Helvetica,sans-Serif" font-size="10.00">sys/types.h</text>
</a>
</g>
</g>
<!-- Node3&#45;&gt;Node13 -->
<g id="edge12" class="edge">
<title>Node3&#45;&gt;Node13</title>
<path fill="none" stroke="#63b8ff" d="M1363.16,-109.51C1380.33,-101.24 1406.05,-88.84 1425.83,-79.31"/>
<polygon fill="#63b8ff" stroke="#63b8ff" points="1427.26,-82.51 1434.75,-75.01 1424.22,-76.2 1427.26,-82.51"/>
</g>
<!-- Node14 -->
<g id="node14" class="node">
<title>Node14</title>
<g id="a_node14"><a xlink:title=" ">
<polygon fill="#e0e0e0" stroke="#999999" points="324.5,-74 280.5,-74 280.5,-55 324.5,-55 324.5,-74"/>
<text text-anchor="middle" x="302.5" y="-62" font-family="Helvetica,sans-Serif" font-size="10.00">vector</text>
</a>
</g>
</g>
<!-- Node3&#45;&gt;Node14 -->
<g id="edge13" class="edge">
<title>Node3&#45;&gt;Node14</title>
<path fill="none" stroke="#63b8ff" d="M1292.31,-111.34C1287.64,-110.83 1282.99,-110.37 1278.5,-110 863.33,-75.43 750.88,-136.89 335.83,-73.95"/>
<polygon fill="#63b8ff" stroke="#63b8ff" points="336.63,-70.53 326.21,-72.48 335.57,-77.45 336.63,-70.53"/>
</g>
<!-- Node15 -->
<g id="node15" class="node">
<title>Node15</title>
<g id="a_node15"><a xlink:title=" ">
<polygon fill="#e0e0e0" stroke="#999999" points="1561.5,-74 1505.5,-74 1505.5,-55 1561.5,-55 1561.5,-74"/>
<text text-anchor="middle" x="1533.5" y="-62" font-family="Helvetica,sans-Serif" font-size="10.00">stdbool.h</text>
</a>
</g>
</g>
<!-- Node3&#45;&gt;Node15 -->
<g id="edge14" class="edge">
<title>Node3&#45;&gt;Node15</title>
<path fill="none" stroke="#63b8ff" d="M1376.56,-109.51C1409.16,-100.37 1459.69,-86.2 1494.57,-76.42"/>
<polygon fill="#63b8ff" stroke="#63b8ff" points="1495.16,-79.89 1503.84,-73.82 1493.27,-73.15 1495.16,-79.89"/>
</g>
<!-- Node16 -->
<g id="node16" class="node">
<title>Node16</title>
<g id="a_node16"><a xlink:title=" ">
<polygon fill="#e0e0e0" stroke="#999999" points="1627,-74 1580,-74 1580,-55 1627,-55 1627,-74"/>
<text text-anchor="middle" x="1603.5" y="-62" font-family="Helvetica,sans-Serif" font-size="10.00">stdlib.h</text>
</a>
</g>
</g>
<!-- Node3&#45;&gt;Node16 -->
<g id="edge15" class="edge">
<title>Node3&#45;&gt;Node16</title>
<path fill="none" stroke="#63b8ff" d="M1394.5,-109.51C1437.99,-101.5 1502.95,-89.08 1568.75,-74.28"/>
<polygon fill="#63b8ff" stroke="#63b8ff" points="1569.29,-77.75 1578.27,-72.13 1567.74,-70.92 1569.29,-77.75"/>
</g>
<!-- Node17 -->
<g id="node17" class="node">
<title>Node17</title>
<g id="a_node17"><a xlink:title=" ">
<polygon fill="#e0e0e0" stroke="#999999" points="1703.5,-74 1645.5,-74 1645.5,-55 1703.5,-55 1703.5,-74"/>
<text text-anchor="middle" x="1674.5" y="-62" font-family="Helvetica,sans-Serif" font-size="10.00">exception</text>
</a>
</g>
</g>
<!-- Node3&#45;&gt;Node17 -->
<g id="edge16" class="edge">
<title>Node3&#45;&gt;Node17</title>
<path fill="none" stroke="#63b8ff" d="M1396.9,-111.62C1453.14,-103.99 1545.34,-90.78 1634.01,-74.36"/>
<polygon fill="#63b8ff" stroke="#63b8ff" points="1634.41,-77.85 1643.6,-72.57 1633.12,-70.97 1634.41,-77.85"/>
</g>
<!-- Node18 -->
<g id="node18" class="node">
<title>Node18</title>
<g id="a_node18"><a xlink:href="Window_8hpp.html" target="_top" xlink:title=" ">
<polygon fill="white" stroke="#666666" points="1823,-74 1722,-74 1722,-55 1823,-55 1823,-74"/>
<text text-anchor="middle" x="1772.5" y="-62" font-family="Helvetica,sans-Serif" font-size="10.00">Engine/Window.hpp</text>
</a>
</g>
</g>
<!-- Node3&#45;&gt;Node18 -->
<g id="edge17" class="edge">
<title>Node3&#45;&gt;Node18</title>
<path fill="none" stroke="#63b8ff" d="M1396.87,-111.78C1466.85,-103.37 1594.39,-88.32 1703.5,-74 1705.78,-73.7 1708.11,-73.39 1710.47,-73.07"/>
<polygon fill="#63b8ff" stroke="#63b8ff" points="1710.71,-76.57 1720.15,-71.76 1709.77,-69.64 1710.71,-76.57"/>
</g>
<!-- Node19 -->
<g id="node19" class="node">
<title>Node19</title>
<g id="a_node19"><a xlink:href="Event_8hpp.html" target="_top" xlink:title=" ">
<polygon fill="white" stroke="#666666" points="2073.5,-74 1981.5,-74 1981.5,-55 2073.5,-55 2073.5,-74"/>
<text text-anchor="middle" x="2027.5" y="-62" font-family="Helvetica,sans-Serif" font-size="10.00">Engine/Event.hpp</text>
</a>
</g>
</g>
<!-- Node3&#45;&gt;Node19 -->
<g id="edge19" class="edge">
<title>Node3&#45;&gt;Node19</title>
<path fill="none" stroke="#63b8ff" d="M1396.65,-116.03C1503.38,-110.9 1753.87,-97.58 1963.5,-74 1965.54,-73.77 1967.61,-73.52 1969.71,-73.26"/>
<polygon fill="#63b8ff" stroke="#63b8ff" points="1970.15,-76.73 1979.59,-71.92 1969.21,-69.79 1970.15,-76.73"/>
</g>
<!-- Node23 -->
<g id="node23" class="node">
<title>Node23</title>
<g id="a_node23"><a xlink:href="Bullets_8hpp.html" target="_top" xlink:title=" ">
<polygon fill="white" stroke="#666666" points="1963.5,-74 1841.5,-74 1841.5,-55 1963.5,-55 1963.5,-74"/>
<text text-anchor="middle" x="1902.5" y="-62" font-family="Helvetica,sans-Serif" font-size="10.00">Components/Bullets.hpp</text>
</a>
</g>
</g>
<!-- Node3&#45;&gt;Node23 -->
<g id="edge25" class="edge">
<title>Node3&#45;&gt;Node23</title>
<path fill="none" stroke="#63b8ff" d="M1396.71,-113.78C1484.84,-106.21 1668.26,-90.5 1823.5,-74 1825.65,-73.77 1827.83,-73.54 1830.03,-73.29"/>
<polygon fill="#63b8ff" stroke="#63b8ff" points="1830.16,-76.8 1839.7,-72.2 1829.37,-69.84 1830.16,-76.8"/>
</g>
<!-- Node3&#45;&gt;Node26 -->
<g id="edge30" class="edge">
<title>Node3&#45;&gt;Node26</title>
<path fill="none" stroke="#63b8ff" d="M1292.02,-112.41C1284.43,-111.5 1276.75,-110.66 1269.5,-110 970.02,-82.87 890.97,-96.63 592.15,-74.49"/>
<polygon fill="#63b8ff" stroke="#63b8ff" points="592.72,-71.02 582.48,-73.76 592.19,-78 592.72,-71.02"/>
</g>
<!-- Node18&#45;&gt;Node3 -->
<g id="edge18" class="edge">
<title>Node18&#45;&gt;Node3</title>
<path fill="none" stroke="#63b8ff" d="M1721.16,-74.04C1611.38,-88.45 1483.02,-103.58 1407.96,-111.95"/>
<polygon fill="#63b8ff" stroke="#63b8ff" points="1407.89,-108.44 1398.34,-113.02 1408.66,-115.39 1407.89,-108.44"/>
</g>
<!-- Node19&#45;&gt;Node3 -->
<g id="edge20" class="edge">
<title>Node19&#45;&gt;Node3</title>
<path fill="none" stroke="#63b8ff" d="M1981.18,-74.04C1772.28,-97.52 1522.89,-110.82 1408.02,-115.98"/>
<polygon fill="#63b8ff" stroke="#63b8ff" points="1408.01,-112.47 1398.17,-116.41 1408.32,-119.47 1408.01,-112.47"/>
</g>
<!-- Node20 -->
<g id="node20" class="node">
<title>Node20</title>
<g id="a_node20"><a xlink:title=" ">
<polygon fill="#e0e0e0" stroke="#999999" points="506,-19 477,-19 477,0 506,0 506,-19"/>
<text text-anchor="middle" x="491.5" y="-7" font-family="Helvetica,sans-Serif" font-size="10.00">list</text>
</a>
</g>
</g>
<!-- Node19&#45;&gt;Node20 -->
<g id="edge21" class="edge">
<title>Node19&#45;&gt;Node20</title>
<path fill="none" stroke="#63b8ff" d="M1981.04,-55.91C1978.15,-55.56 1975.29,-55.26 1972.5,-55 1673.87,-27.54 690.65,-13.19 517.62,-10.84"/>
<polygon fill="#63b8ff" stroke="#63b8ff" points="517.74,-7.34 507.69,-10.71 517.64,-14.34 517.74,-7.34"/>
</g>
<!-- Node21 -->
<g id="node21" class="node">
<title>Node21</title>
<g id="a_node21"><a xlink:title=" ">
<polygon fill="#e0e0e0" stroke="#999999" points="2237,-19 2194,-19 2194,0 2237,0 2237,-19"/>
<text text-anchor="middle" x="2215.5" y="-7" font-family="Helvetica,sans-Serif" font-size="10.00">queue</text>
</a>
</g>
</g>
<!-- Node19&#45;&gt;Node21 -->
<g id="edge22" class="edge">
<title>Node19&#45;&gt;Node21</title>
<path fill="none" stroke="#63b8ff" d="M2059.39,-54.51C2093.75,-44.82 2148.13,-29.49 2182.8,-19.72"/>
<polygon fill="#63b8ff" stroke="#63b8ff" points="2183.61,-23.13 2192.28,-17.05 2181.71,-16.39 2183.61,-23.13"/>
</g>
<!-- Node22 -->
<g id="node22" class="node">
<title>Node22</title>
<g id="a_node22"><a xlink:title=" ">
<polygon fill="#e0e0e0" stroke="#999999" points="2154.5,-19 2092.5,-19 2092.5,0 2154.5,0 2154.5,-19"/>
<text text-anchor="middle" x="2123.5" y="-7" font-family="Helvetica,sans-Serif" font-size="10.00">Skaldi.hpp</text>
</a>
</g>
</g>
<!-- Node19&#45;&gt;Node22 -->
<g id="edge23" class="edge">
<title>Node19&#45;&gt;Node22</title>
<path fill="none" stroke="#63b8ff" d="M2043.79,-54.51C2058.49,-46.39 2080.39,-34.3 2097.52,-24.85"/>
<polygon fill="#63b8ff" stroke="#63b8ff" points="2099.07,-27.99 2106.13,-20.09 2095.68,-21.86 2099.07,-27.99"/>
</g>
<!-- Node23&#45;&gt;Node3 -->
<g id="edge26" class="edge">
<title>Node23&#45;&gt;Node3</title>
<path fill="none" stroke="#63b8ff" d="M1841.03,-74.05C1686.01,-90.52 1503.02,-106.19 1408.3,-113.77"/>
<polygon fill="#63b8ff" stroke="#63b8ff" points="1408.12,-110.27 1398.43,-114.55 1408.67,-117.25 1408.12,-110.27"/>
</g>
<!-- Node23&#45;&gt;Node24 -->
<g id="edge27" class="edge">
<title>Node23&#45;&gt;Node24</title>
<path fill="none" stroke="#63b8ff" d="M1841.04,-56.03C1838.15,-55.68 1835.3,-55.34 1832.5,-55 1720.2,-41.52 1588.95,-26 1515.3,-17.31"/>
<polygon fill="#63b8ff" stroke="#63b8ff" points="1515.83,-13.85 1505.48,-16.15 1515.01,-20.8 1515.83,-13.85"/>
</g>
<!-- Node25 -->
<g id="node25" class="node">
<title>Node25</title>
<g id="a_node25"><a xlink:title=" ">
<polygon fill="#e0e0e0" stroke="#999999" points="2033.5,-19 1987.5,-19 1987.5,0 2033.5,0 2033.5,-19"/>
<text text-anchor="middle" x="2010.5" y="-7" font-family="Helvetica,sans-Serif" font-size="10.00">math.h</text>
</a>
</g>
</g>
<!-- Node23&#45;&gt;Node25 -->
<g id="edge29" class="edge">
<title>Node23&#45;&gt;Node25</title>
<path fill="none" stroke="#63b8ff" d="M1920.82,-54.51C1937.68,-46.24 1962.93,-33.84 1982.35,-24.31"/>
<polygon fill="#63b8ff" stroke="#63b8ff" points="1983.66,-27.57 1991.09,-20.02 1980.57,-21.29 1983.66,-27.57"/>
</g>
<!-- Node24&#45;&gt;Node3 -->
<g id="edge28" class="edge">
<title>Node24&#45;&gt;Node3</title>
<path fill="none" stroke="#63b8ff" d="M1411.03,-11.24C1240.09,-14.2 654.61,-26.39 627.5,-55 621.69,-61.13 621.7,-67.87 627.5,-74 677.29,-126.62 1206.36,-103.37 1278.5,-110 1279.34,-110.08 1280.19,-110.16 1281.04,-110.24"/>
<polygon fill="#63b8ff" stroke="#63b8ff" points="1280.48,-113.7 1290.79,-111.26 1281.21,-106.74 1280.48,-113.7"/>
</g>
<!-- Node26&#45;&gt;Node3 -->
<g id="edge31" class="edge">
<title>Node26&#45;&gt;Node3</title>
<path fill="none" stroke="#63b8ff" d="M580.81,-72.1C588.49,-72.79 596.17,-73.45 603.5,-74 903.35,-96.7 982.4,-82.89 1280.87,-109.43"/>
<polygon fill="#63b8ff" stroke="#63b8ff" points="1280.25,-112.89 1290.53,-110.29 1280.88,-105.91 1280.25,-112.89"/>
</g>
<!-- Node27&#45;&gt;Node9 -->
<g id="edge34" class="edge">
<title>Node27&#45;&gt;Node9</title>
<path fill="none" stroke="#63b8ff" d="M296.24,-164.76C294.11,-152.01 288.96,-127.88 278.5,-110 272.36,-99.51 263.26,-89.61 255,-81.82"/>
<polygon fill="#63b8ff" stroke="#63b8ff" points="257.47,-79.33 247.69,-75.27 252.81,-84.55 257.47,-79.33"/>
</g>
<!-- Node27&#45;&gt;Node14 -->
<g id="edge37" class="edge">
<title>Node27&#45;&gt;Node14</title>
<path fill="none" stroke="#63b8ff" d="M301.1,-164.82C304.56,-155.99 309.53,-141.81 311.5,-129 313.76,-114.31 311.21,-97.67 308.26,-85.11"/>
<polygon fill="#63b8ff" stroke="#63b8ff" points="311.68,-84.36 305.73,-75.6 304.92,-86.16 311.68,-84.36"/>
</g>
<!-- Node28 -->
<g id="node28" class="node">
<title>Node28</title>
<g id="a_node28"><a xlink:title=" ">
<polygon fill="#e0e0e0" stroke="#999999" points="190.5,-74 134.5,-74 134.5,-55 190.5,-55 190.5,-74"/>
<text text-anchor="middle" x="162.5" y="-62" font-family="Helvetica,sans-Serif" font-size="10.00">algorithm</text>
</a>
</g>
</g>
<!-- Node27&#45;&gt;Node28 -->
<g id="edge35" class="edge">
<title>Node27&#45;&gt;Node28</title>
<path fill="none" stroke="#63b8ff" d="M241.51,-168.02C215.27,-162.43 186,-151.25 168.5,-129 158.96,-116.87 158.03,-99.13 159.16,-85.48"/>
<polygon fill="#63b8ff" stroke="#63b8ff" points="162.59,-86.25 160.4,-75.88 155.65,-85.35 162.59,-86.25"/>
</g>
<!-- Node29 -->
<g id="node29" class="node">
<title>Node29</title>
<g id="a_node29"><a xlink:title=" ">
<polygon fill="#e0e0e0" stroke="#999999" points="380.5,-74 342.5,-74 342.5,-55 380.5,-55 380.5,-74"/>
<text text-anchor="middle" x="361.5" y="-62" font-family="Helvetica,sans-Serif" font-size="10.00">array</text>
</a>
</g>
</g>
<!-- Node27&#45;&gt;Node29 -->
<g id="edge36" class="edge">
<title>Node27&#45;&gt;Node29</title>
<path fill="none" stroke="#63b8ff" d="M303.47,-164.76C309.48,-155.87 318.91,-141.65 326.5,-129 335.42,-114.14 344.87,-96.9 351.7,-84.13"/>
<polygon fill="#63b8ff" stroke="#63b8ff" points="354.64,-86.05 356.23,-75.58 348.46,-82.77 354.64,-86.05"/>
</g>
<!-- Node30 -->
<g id="node30" class="node">
<title>Node30</title>
<g id="a_node30"><a xlink:title=" ">
<polygon fill="#e0e0e0" stroke="#999999" points="116,-74 77,-74 77,-55 116,-55 116,-74"/>
<text text-anchor="middle" x="96.5" y="-62" font-family="Helvetica,sans-Serif" font-size="10.00">utility</text>
</a>
</g>
</g>
<!-- Node27&#45;&gt;Node30 -->
<g id="edge38" class="edge">
<title>Node27&#45;&gt;Node30</title>
<path fill="none" stroke="#63b8ff" d="M248.87,-164.57C220.42,-157.83 184.67,-146.65 156.5,-129 137.29,-116.96 120.05,-97.33 109.04,-83.07"/>
<polygon fill="#63b8ff" stroke="#63b8ff" points="112.14,-81.38 103.36,-75.44 106.52,-85.55 112.14,-81.38"/>
</g>
<!-- Node31 -->
<g id="node31" class="node">
<title>Node31</title>
<g id="a_node31"><a xlink:href="Vectors_8hpp.html" target="_top" xlink:title=" ">
<polygon fill="white" stroke="#666666" points="269.5,-129 177.5,-129 177.5,-110 269.5,-110 269.5,-129"/>
<text text-anchor="middle" x="223.5" y="-117" font-family="Helvetica,sans-Serif" font-size="10.00">Utils/Vectors.hpp</text>
</a>
</g>
</g>
<!-- Node27&#45;&gt;Node31 -->
<g id="edge39" class="edge">
<title>Node27&#45;&gt;Node31</title>
<path fill="none" stroke="#63b8ff" d="M284.95,-164.51C274.04,-156.7 258,-145.21 245.04,-135.93"/>
<polygon fill="#63b8ff" stroke="#63b8ff" points="247.27,-133.22 237.1,-130.24 243.19,-138.91 247.27,-133.22"/>
</g>
<!-- Node31&#45;&gt;Node9 -->
<g id="edge40" class="edge">
<title>Node31&#45;&gt;Node9</title>
<path fill="none" stroke="#63b8ff" d="M225.48,-109.75C226.97,-103.19 229.06,-93.95 230.95,-85.6"/>
<polygon fill="#63b8ff" stroke="#63b8ff" points="234.35,-86.44 233.14,-75.92 227.52,-84.9 234.35,-86.44"/>
</g>
<!-- Node31&#45;&gt;Node14 -->
<g id="edge43" class="edge">
<title>Node31&#45;&gt;Node14</title>
<path fill="none" stroke="#63b8ff" d="M236.9,-109.51C248.66,-101.62 266.01,-89.98 279.91,-80.65"/>
<polygon fill="#63b8ff" stroke="#63b8ff" points="281.69,-83.68 288.04,-75.2 277.79,-77.87 281.69,-83.68"/>
</g>
<!-- Node31&#45;&gt;Node28 -->
<g id="edge41" class="edge">
<title>Node31&#45;&gt;Node28</title>
<path fill="none" stroke="#63b8ff" d="M213.15,-109.51C204.42,-101.93 191.71,-90.88 181.2,-81.75"/>
<polygon fill="#63b8ff" stroke="#63b8ff" points="183.68,-79.27 173.84,-75.35 179.09,-84.55 183.68,-79.27"/>
</g>
<!-- Node31&#45;&gt;Node29 -->
<g id="edge42" class="edge">
<title>Node31&#45;&gt;Node29</title>
<path fill="none" stroke="#63b8ff" d="M246.91,-109.51C270.35,-100.51 306.51,-86.62 331.93,-76.86"/>
<polygon fill="#63b8ff" stroke="#63b8ff" points="332.93,-80.22 341.01,-73.37 330.42,-73.69 332.93,-80.22"/>
</g>
<!-- Node31&#45;&gt;Node30 -->
<g id="edge44" class="edge">
<title>Node31&#45;&gt;Node30</title>
<path fill="none" stroke="#63b8ff" d="M201.96,-109.51C181.31,-100.89 149.94,-87.8 126.78,-78.14"/>
<polygon fill="#63b8ff" stroke="#63b8ff" points="128.45,-75.04 117.87,-74.42 125.75,-81.5 128.45,-75.04"/>
</g>
<!-- Node32&#45;&gt;Node9 -->
<g id="edge46" class="edge">
<title>Node32&#45;&gt;Node9</title>
<path fill="none" stroke="#63b8ff" d="M74.41,-109.51C108.36,-100.24 161.26,-85.78 197.09,-75.99"/>
<polygon fill="#63b8ff" stroke="#63b8ff" points="197.9,-79.4 206.62,-73.39 196.06,-72.65 197.9,-79.4"/>
</g>
<!-- Node32&#45;&gt;Node14 -->
<g id="edge48" class="edge">
<title>Node32&#45;&gt;Node14</title>
<path fill="none" stroke="#63b8ff" d="M83.25,-111.41C127.24,-103.73 198.74,-90.62 269.34,-74.36"/>
<polygon fill="#63b8ff" stroke="#63b8ff" points="269.78,-77.85 278.73,-72.18 268.19,-71.03 269.78,-77.85"/>
</g>
<!-- Node32&#45;&gt;Node20 -->
<g id="edge47" class="edge">
<title>Node32&#45;&gt;Node20</title>
<path fill="none" stroke="#63b8ff" d="M42.29,-109.83C44.08,-95.79 49.77,-68.29 67.5,-55 99.39,-31.09 377.81,-15.91 465.3,-11.7"/>
<polygon fill="#63b8ff" stroke="#63b8ff" points="465.44,-15.2 475.26,-11.23 465.11,-8.2 465.44,-15.2"/>
</g>
<!-- Node33&#45;&gt;Node21 -->
<g id="edge64" class="edge">
<title>Node33&#45;&gt;Node21</title>
<path fill="none" stroke="#63b8ff" d="M1785.3,-334.7C1949.25,-323.94 2377.5,-290.14 2377.5,-230.5 2377.5,-230.5 2377.5,-230.5 2377.5,-118.5 2377.5,-89.04 2379.22,-75.94 2358.5,-55 2329.27,-25.45 2280.78,-15.45 2248.48,-12.11"/>
<polygon fill="#63b8ff" stroke="#63b8ff" points="2249.16,-8.66 2238.89,-11.29 2248.56,-15.63 2249.16,-8.66"/>
</g>
<!-- Node34 -->
<g id="node34" class="node">
<title>Node34</title>
<g id="a_node34"><a xlink:href="States_8hpp.html" target="_top" xlink:title=" ">
<polygon fill="white" stroke="#666666" points="1762,-294 1643,-294 1643,-275 1762,-275 1762,-294"/>
<text text-anchor="middle" x="1702.5" y="-282" font-family="Helvetica,sans-Serif" font-size="10.00">gameStates/States.hpp</text>
</a>
</g>
</g>
<!-- Node33&#45;&gt;Node34 -->
<g id="edge50" class="edge">
<title>Node33&#45;&gt;Node34</title>
<path fill="none" stroke="#63b8ff" d="M1719.2,-329.75C1716.67,-323.04 1713.07,-313.52 1709.87,-305.02"/>
<polygon fill="#63b8ff" stroke="#63b8ff" points="1713.21,-303.98 1706.41,-295.86 1706.66,-306.45 1713.21,-303.98"/>
</g>
<!-- Node34&#45;&gt;Node1 -->
<g id="edge51" class="edge">
<title>Node34&#45;&gt;Node1</title>
<path fill="none" stroke="#63b8ff" d="M1692.22,-294.23C1681.84,-303.11 1665.38,-317.32 1651.5,-330 1634.85,-345.2 1616.62,-362.58 1601.96,-376.72"/>
<polygon fill="#63b8ff" stroke="#63b8ff" points="1599.63,-374.11 1594.88,-383.59 1604.5,-379.14 1599.63,-374.11"/>
</g>
<!-- Node35 -->
<g id="node35" class="node">
<title>Node35</title>
<g id="a_node35"><a xlink:href="SMenu_8hpp.html" target="_top" xlink:title=" ">
<polygon fill="white" stroke="#666666" points="1565,-239 1500,-239 1500,-220 1565,-220 1565,-239"/>
<text text-anchor="middle" x="1532.5" y="-227" font-family="Helvetica,sans-Serif" font-size="10.00">SMenu.hpp</text>
</a>
</g>
</g>
<!-- Node34&#45;&gt;Node35 -->
<g id="edge52" class="edge">
<title>Node34&#45;&gt;Node35</title>
<path fill="none" stroke="#63b8ff" d="M1673.66,-274.51C1645.74,-265.8 1603.17,-252.53 1572.08,-242.84"/>
<polygon fill="#63b8ff" stroke="#63b8ff" points="1573.23,-239.53 1562.64,-239.9 1571.15,-246.21 1573.23,-239.53"/>
</g>
<!-- Node38 -->
<g id="node38" class="node">
<title>Node38</title>
<g id="a_node38"><a xlink:href="SGamePlay_8hpp.html" target="_top" xlink:title=" ">
<polygon fill="white" stroke="#666666" points="2258.5,-129 2172.5,-129 2172.5,-110 2258.5,-110 2258.5,-129"/>
<text text-anchor="middle" x="2215.5" y="-117" font-family="Helvetica,sans-Serif" font-size="10.00">SGamePlay.hpp</text>
</a>
</g>
</g>
<!-- Node34&#45;&gt;Node38 -->
<g id="edge57" class="edge">
<title>Node34&#45;&gt;Node38</title>
<path fill="none" stroke="#63b8ff" d="M1730.81,-274.5C1817.17,-247.06 2077.39,-164.38 2176.55,-132.88"/>
<polygon fill="#63b8ff" stroke="#63b8ff" points="2177.36,-136.29 2185.83,-129.93 2175.24,-129.62 2177.36,-136.29"/>
</g>
<!-- Node35&#45;&gt;Node1 -->
<g id="edge53" class="edge">
<title>Node35&#45;&gt;Node1</title>
<path fill="none" stroke="#63b8ff" d="M1534.56,-239.23C1540.27,-263.5 1556.56,-332.61 1566.16,-373.37"/>
<polygon fill="#63b8ff" stroke="#63b8ff" points="1562.75,-374.14 1568.45,-383.07 1569.56,-372.53 1562.75,-374.14"/>
</g>
<!-- Node36 -->
<g id="node36" class="node">
<title>Node36</title>
<g id="a_node36"><a xlink:href="Bouton_8hpp.html" target="_top" xlink:title=" ">
<polygon fill="white" stroke="#666666" points="1406,-184 1283,-184 1283,-165 1406,-165 1406,-184"/>
<text text-anchor="middle" x="1344.5" y="-172" font-family="Helvetica,sans-Serif" font-size="10.00">Components/Bouton.hpp</text>
</a>
</g>
</g>
<!-- Node35&#45;&gt;Node36 -->
<g id="edge54" class="edge">
<title>Node35&#45;&gt;Node36</title>
<path fill="none" stroke="#63b8ff" d="M1500.61,-219.51C1469.32,-210.69 1421.41,-197.18 1386.92,-187.46"/>
<polygon fill="#63b8ff" stroke="#63b8ff" points="1388.27,-184.2 1377.69,-184.86 1386.37,-190.94 1388.27,-184.2"/>
</g>
<!-- Node36&#45;&gt;Node3 -->
<g id="edge55" class="edge">
<title>Node36&#45;&gt;Node3</title>
<path fill="none" stroke="#63b8ff" d="M1344.5,-164.75C1344.5,-158.27 1344.5,-149.16 1344.5,-140.9"/>
<polygon fill="#63b8ff" stroke="#63b8ff" points="1348,-140.96 1344.5,-130.96 1341,-140.96 1348,-140.96"/>
</g>
<!-- Node37 -->
<g id="node37" class="node">
<title>Node37</title>
<g id="a_node37"><a xlink:title=" ">
<polygon fill="#e0e0e0" stroke="#999999" points="1236,-129 1177,-129 1177,-110 1236,-110 1236,-129"/>
<text text-anchor="middle" x="1206.5" y="-117" font-family="Helvetica,sans-Serif" font-size="10.00">functional</text>
</a>
</g>
</g>
<!-- Node36&#45;&gt;Node37 -->
<g id="edge56" class="edge">
<title>Node36&#45;&gt;Node37</title>
<path fill="none" stroke="#63b8ff" d="M1321.09,-164.51C1298.85,-155.97 1265.17,-143.03 1240.08,-133.4"/>
<polygon fill="#63b8ff" stroke="#63b8ff" points="1241.57,-130.22 1230.98,-129.9 1239.06,-136.75 1241.57,-130.22"/>
</g>
<!-- Node38&#45;&gt;Node1 -->
<g id="edge58" class="edge">
<title>Node38&#45;&gt;Node1</title>
<path fill="none" stroke="#63b8ff" d="M2258.9,-124.76C2317.72,-133.21 2415.5,-157.86 2415.5,-228.5 2415.5,-285.5 2415.5,-285.5 2415.5,-285.5 2415.5,-361.79 1866.59,-392.46 1655.16,-401.45"/>
<polygon fill="#63b8ff" stroke="#63b8ff" points="1655.2,-397.94 1645.35,-401.86 1655.49,-404.94 1655.2,-397.94"/>
</g>
<!-- Node38&#45;&gt;Node21 -->
<g id="edge59" class="edge">
<title>Node38&#45;&gt;Node21</title>
<path fill="none" stroke="#63b8ff" d="M2215.5,-109.66C2215.5,-92.57 2215.5,-54.61 2215.5,-30.92"/>
<polygon fill="#63b8ff" stroke="#63b8ff" points="2219,-30.97 2215.5,-20.97 2212,-30.97 2219,-30.97"/>
</g>
<!-- Node38&#45;&gt;Node22 -->
<g id="edge63" class="edge">
<title>Node38&#45;&gt;Node22</title>
<path fill="none" stroke="#63b8ff" d="M2207.97,-109.66C2192.81,-91.86 2158.35,-51.41 2138.44,-28.04"/>
<polygon fill="#63b8ff" stroke="#63b8ff" points="2141.26,-25.96 2132.11,-20.61 2135.93,-30.49 2141.26,-25.96"/>
</g>
<!-- Node38&#45;&gt;Node29 -->
<g id="edge60" class="edge">
<title>Node38&#45;&gt;Node29</title>
<path fill="none" stroke="#63b8ff" d="M2172.03,-113.99C2155.87,-112.47 2137.36,-110.93 2120.5,-110 1369.03,-68.44 1178.02,-130.15 427.5,-74 415.91,-73.13 403.23,-71.63 392.12,-70.13"/>
<polygon fill="#63b8ff" stroke="#63b8ff" points="392.68,-66.68 382.29,-68.75 391.71,-73.61 392.68,-66.68"/>
</g>
<!-- Node39 -->
<g id="node39" class="node">
<title>Node39</title>
<g id="a_node39"><a xlink:title=" ">
<polygon fill="#e0e0e0" stroke="#999999" points="2285,-74 2244,-74 2244,-55 2285,-55 2285,-74"/>
<text text-anchor="middle" x="2264.5" y="-62" font-family="Helvetica,sans-Serif" font-size="10.00">string</text>
</a>
</g>
</g>
<!-- Node38&#45;&gt;Node39 -->
<g id="edge61" class="edge">
<title>Node38&#45;&gt;Node39</title>
<path fill="none" stroke="#63b8ff" d="M2223.59,-109.75C2230.36,-102.43 2240.22,-91.76 2248.56,-82.74"/>
<polygon fill="#63b8ff" stroke="#63b8ff" points="2250.99,-85.27 2255.21,-75.55 2245.85,-80.52 2250.99,-85.27"/>
</g>
<!-- Node40 -->
<g id="node40" class="node">
<title>Node40</title>
<g id="a_node40"><a xlink:title=" ">
<polygon fill="#e0e0e0" stroke="#999999" points="2349.5,-74 2303.5,-74 2303.5,-55 2349.5,-55 2349.5,-74"/>
<text text-anchor="middle" x="2326.5" y="-62" font-family="Helvetica,sans-Serif" font-size="10.00">cstring</text>
</a>
</g>
</g>
<!-- Node38&#45;&gt;Node40 -->
<g id="edge62" class="edge">
<title>Node38&#45;&gt;Node40</title>
<path fill="none" stroke="#63b8ff" d="M2234.33,-109.51C2251.66,-101.24 2277.61,-88.84 2297.57,-79.31"/>
<polygon fill="#63b8ff" stroke="#63b8ff" points="2299.07,-82.48 2306.58,-75.01 2296.05,-76.16 2299.07,-82.48"/>
</g>
<!-- Node41&#45;&gt;Node3 -->
<g id="edge67" class="edge">
<title>Node41&#45;&gt;Node3</title>
<path fill="none" stroke="#63b8ff" d="M1714.06,-165.22C1630.19,-155.07 1489.21,-138.01 1407.77,-128.16"/>
<polygon fill="#63b8ff" stroke="#63b8ff" points="1408.53,-124.72 1398.18,-127 1407.69,-131.67 1408.53,-124.72"/>
</g>
<!-- Node41&#45;&gt;Node14 -->
<g id="edge70" class="edge">
<title>Node41&#45;&gt;Node14</title>
<path fill="none" stroke="#63b8ff" d="M1714.1,-170.56C1596.88,-164.99 1362.57,-151.42 1283.5,-129 1265.33,-123.85 1263.79,-114.7 1245.5,-110 1052.51,-60.4 551.95,-103.45 336.03,-73.9"/>
<polygon fill="#63b8ff" stroke="#63b8ff" points="336.62,-70.45 326.22,-72.46 335.6,-77.38 336.62,-70.45"/>
</g>
<!-- Node41&#45;&gt;Node24 -->
<g id="edge68" class="edge">
<title>Node41&#45;&gt;Node24</title>
<path fill="none" stroke="#63b8ff" d="M1826.14,-164.56C1918.13,-144.76 2120.47,-95.77 2082.5,-55 2044.29,-13.97 1662.27,-10.16 1514.99,-10.24"/>
<polygon fill="#63b8ff" stroke="#63b8ff" points="1515.06,-6.74 1505.06,-10.25 1515.07,-13.74 1515.06,-6.74"/>
</g>
<!-- Node41&#45;&gt;Node25 -->
<g id="edge69" class="edge">
<title>Node41&#45;&gt;Node25</title>
<path fill="none" stroke="#63b8ff" d="M1850.71,-169.28C1944.3,-162.77 2103.01,-148.94 2120.5,-129 2130.56,-117.53 2137.31,-84.89 2115.5,-55 2098.95,-32.32 2068.52,-21.11 2044.67,-15.63"/>
<polygon fill="#63b8ff" stroke="#63b8ff" points="2045.55,-12.23 2035.05,-13.67 2044.16,-19.09 2045.55,-12.23"/>
</g>
<!-- Node42 -->
<g id="node42" class="node">
<title>Node42</title>
<g id="a_node42"><a xlink:title=" ">
<polygon fill="#e0e0e0" stroke="#999999" points="2111.5,-129 2067.5,-129 2067.5,-110 2111.5,-110 2111.5,-129"/>
<text text-anchor="middle" x="2089.5" y="-117" font-family="Helvetica,sans-Serif" font-size="10.00">cmath</text>
</a>
</g>
</g>
<!-- Node41&#45;&gt;Node42 -->
<g id="edge71" class="edge">
<title>Node41&#45;&gt;Node42</title>
<path fill="none" stroke="#63b8ff" d="M1844.88,-164.51C1899.95,-156.27 1982.32,-143.23 2053.5,-129 2054.33,-128.83 2055.16,-128.66 2056.01,-128.49"/>
<polygon fill="#63b8ff" stroke="#63b8ff" points="2056.59,-131.94 2065.61,-126.37 2055.09,-125.11 2056.59,-131.94"/>
</g>
</g>
</svg>
