<?xml version="1.0" encoding="UTF-8" standalone="no"?>
<!DOCTYPE svg PUBLIC "-//W3C//DTD SVG 1.1//EN"
 "http://www.w3.org/Graphics/SVG/1.1/DTD/svg11.dtd">
<!-- Generated by graphviz version 7.0.5 (20221223.1930)
 -->
<!-- Title: /github/workspace/client/include/system/gameStates/IGameState.hpp Pages: 1 -->
<svg width="270pt" height="258pt"
 viewBox="0.00 0.00 270.00 258.00" xmlns="http://www.w3.org/2000/svg" xmlns:xlink="http://www.w3.org/1999/xlink">
<g id="graph0" class="graph" transform="scale(1 1) rotate(0) translate(4 254)">
<title>/github/workspace/client/include/system/gameStates/IGameState.hpp</title>
<!-- Node1 -->
<g id="node1" class="node">
<title>Node1</title>
<g id="a_node1"><a xlink:title=" ">
<polygon fill="#999999" stroke="#666666" points="216,-250 76,-250 76,-209 216,-209 216,-250"/>
<text text-anchor="start" x="84" y="-238" font-family="Helvetica,sans-Serif" font-size="10.00">/github/workspace/client</text>
<text text-anchor="start" x="84" y="-227" font-family="Helvetica,sans-Serif" font-size="10.00">/include/system/gameStates</text>
<text text-anchor="middle" x="146" y="-216" font-family="Helvetica,sans-Serif" font-size="10.00">/IGameState.hpp</text>
</a>
</g>
</g>
<!-- Node2 -->
<g id="node2" class="node">
<title>Node2</title>
<g id="a_node2"><a xlink:href="SGamePlay_8hpp.html" target="_top" xlink:title=" ">
<polygon fill="white" stroke="#666666" points="216,-173 76,-173 76,-132 216,-132 216,-173"/>
<text text-anchor="start" x="84" y="-161" font-family="Helvetica,sans-Serif" font-size="10.00">/github/workspace/client</text>
<text text-anchor="start" x="84" y="-150" font-family="Helvetica,sans-Serif" font-size="10.00">/include/system/gameStates</text>
<text text-anchor="middle" x="146" y="-139" font-family="Helvetica,sans-Serif" font-size="10.00">/SGamePlay.hpp</text>
</a>
</g>
</g>
<!-- Node1&#45;&gt;Node2 -->
<g id="edge1" class="edge">
<title>Node1&#45;&gt;Node2</title>
<path fill="none" stroke="#63b8ff" d="M146,-197.36C146,-189.24 146,-180.7 146,-173.33"/>
<polygon fill="#63b8ff" stroke="#63b8ff" points="142.5,-197.28 146,-207.28 149.5,-197.28 142.5,-197.28"/>
</g>
<!-- Node3 -->
<g id="node3" class="node">
<title>Node3</title>
<g id="a_node3"><a xlink:href="GameEngine_8hpp.html" target="_top" xlink:title=" ">
<polygon fill="white" stroke="#666666" points="172.5,-96 11.5,-96 11.5,-66 172.5,-66 172.5,-96"/>
<text text-anchor="start" x="19.5" y="-84" font-family="Helvetica,sans-Serif" font-size="10.00">/github/workspace/client</text>
<text text-anchor="middle" x="92" y="-73" font-family="Helvetica,sans-Serif" font-size="10.00">/include/system/GameEngine.hpp</text>
</a>
</g>
</g>
<!-- Node2&#45;&gt;Node3 -->
<g id="edge2" class="edge">
<title>Node2&#45;&gt;Node3</title>
<path fill="none" stroke="#63b8ff" d="M123.82,-122.95C116.74,-113.84 109.21,-104.14 103.25,-96.47"/>
<polygon fill="#63b8ff" stroke="#63b8ff" points="120.84,-124.83 129.74,-130.57 126.37,-120.53 120.84,-124.83"/>
</g>
<!-- Node5 -->
<g id="node5" class="node">
<title>Node5</title>
<g id="a_node5"><a xlink:href="client_2src_2main_8cpp.html" target="_top" xlink:title=" ">
<polygon fill="white" stroke="#666666" points="262,-30 140,-30 140,0 262,0 262,-30"/>
<text text-anchor="start" x="148" y="-18" font-family="Helvetica,sans-Serif" font-size="10.00">/github/workspace/client</text>
<text text-anchor="middle" x="201" y="-7" font-family="Helvetica,sans-Serif" font-size="10.00">/src/main.cpp</text>
</a>
</g>
</g>
<!-- Node2&#45;&gt;Node5 -->
<g id="edge5" class="edge">
<title>Node2&#45;&gt;Node5</title>
<path fill="none" stroke="#63b8ff" d="M167.66,-122.19C172.95,-114.02 178.18,-104.93 182,-96 191.38,-74.08 196.61,-46.72 199.11,-30.34"/>
<polygon fill="#63b8ff" stroke="#63b8ff" points="164.83,-120.13 162.12,-130.37 170.63,-124.05 164.83,-120.13"/>
</g>
<!-- Node4 -->
<g id="node4" class="node">
<title>Node4</title>
<g id="a_node4"><a xlink:href="StateManager_8cpp.html" target="_top" xlink:title=" ">
<polygon fill="white" stroke="#666666" points="122,-30 0,-30 0,0 122,0 122,-30"/>
<text text-anchor="start" x="8" y="-18" font-family="Helvetica,sans-Serif" font-size="10.00">/github/workspace/client</text>
<text text-anchor="middle" x="61" y="-7" font-family="Helvetica,sans-Serif" font-size="10.00">/src/StateManager.cpp</text>
</a>
</g>
</g>
<!-- Node3&#45;&gt;Node4 -->
<g id="edge3" class="edge">
<title>Node3&#45;&gt;Node4</title>
<path fill="none" stroke="#63b8ff" d="M80.15,-55.54C76,-46.96 71.47,-37.61 67.86,-30.16"/>
<polygon fill="#63b8ff" stroke="#63b8ff" points="76.95,-56.96 84.46,-64.43 83.25,-53.91 76.95,-56.96"/>
</g>
<!-- Node3&#45;&gt;Node5 -->
<g id="edge4" class="edge">
<title>Node3&#45;&gt;Node5</title>
<path fill="none" stroke="#63b8ff" d="M126.21,-59.91C142.57,-50.31 161.77,-39.03 176.62,-30.31"/>
<polygon fill="#63b8ff" stroke="#63b8ff" points="124.62,-56.79 117.77,-64.87 128.16,-62.83 124.62,-56.79"/>
</g>
</g>
</svg>
