<?xml version="1.0" encoding="UTF-8" standalone="no"?>
<!DOCTYPE svg PUBLIC "-//W3C//DTD SVG 1.1//EN"
 "http://www.w3.org/Graphics/SVG/1.1/DTD/svg11.dtd">
<!-- Generated by graphviz version 7.0.5 (20221223.1930)
 -->
<!-- Title: /github/workspace/client/include/system/gameStates/IGameState.hpp Pages: 1 -->
<svg width="857pt" height="335pt"
 viewBox="0.00 0.00 857.33 335.00" xmlns="http://www.w3.org/2000/svg" xmlns:xlink="http://www.w3.org/1999/xlink">
<g id="graph0" class="graph" transform="scale(1 1) rotate(0) translate(4 331)">
<title>/github/workspace/client/include/system/gameStates/IGameState.hpp</title>
<!-- Node1 -->
<g id="node1" class="node">
<title>Node1</title>
<g id="a_node1"><a xlink:title=" ">
<polygon fill="#999999" stroke="#666666" points="571.5,-327 431.5,-327 431.5,-286 571.5,-286 571.5,-327"/>
<text text-anchor="start" x="439.5" y="-315" font-family="Helvetica,sans-Serif" font-size="10.00">/github/workspace/client</text>
<text text-anchor="start" x="439.5" y="-304" font-family="Helvetica,sans-Serif" font-size="10.00">/include/system/gameStates</text>
<text text-anchor="middle" x="501.5" y="-293" font-family="Helvetica,sans-Serif" font-size="10.00">/IGameState.hpp</text>
</a>
</g>
</g>
<!-- Node2 -->
<g id="node2" class="node">
<title>Node2</title>
<g id="a_node2"><a xlink:href="SGamePlay__Duck_8hpp.html" target="_top" xlink:title=" ">
<polygon fill="white" stroke="#666666" points="157,-250 0,-250 0,-209 157,-209 157,-250"/>
<text text-anchor="start" x="8" y="-238" font-family="Helvetica,sans-Serif" font-size="10.00">/github/workspace/client</text>
<text text-anchor="start" x="8" y="-227" font-family="Helvetica,sans-Serif" font-size="10.00">/include/system/gameStates</text>
<text text-anchor="middle" x="78.5" y="-216" font-family="Helvetica,sans-Serif" font-size="10.00">/Example/SGamePlay_Duck.hpp</text>
</a>
</g>
</g>
<!-- Node1&#45;&gt;Node2 -->
<g id="edge1" class="edge">
<title>Node1&#45;&gt;Node2</title>
<path fill="none" stroke="#63b8ff" d="M419.99,-293.25C352.02,-282.74 252.72,-266.68 166.5,-250 163.43,-249.41 160.3,-248.78 157.14,-248.15"/>
<polygon fill="#63b8ff" stroke="#63b8ff" points="419.13,-296.66 429.55,-294.73 420.2,-289.74 419.13,-296.66"/>
</g>
<!-- Node3 -->
<g id="node3" class="node">
<title>Node3</title>
<g id="a_node3"><a xlink:href="SMenu__Duck_8hpp.html" target="_top" xlink:title=" ">
<polygon fill="white" stroke="#666666" points="315.5,-250 175.5,-250 175.5,-209 315.5,-209 315.5,-250"/>
<text text-anchor="start" x="183.5" y="-238" font-family="Helvetica,sans-Serif" font-size="10.00">/github/workspace/client</text>
<text text-anchor="start" x="183.5" y="-227" font-family="Helvetica,sans-Serif" font-size="10.00">/include/system/gameStates</text>
<text text-anchor="middle" x="245.5" y="-216" font-family="Helvetica,sans-Serif" font-size="10.00">/Example/SMenu_Duck.hpp</text>
</a>
</g>
</g>
<!-- Node1&#45;&gt;Node3 -->
<g id="edge2" class="edge">
<title>Node1&#45;&gt;Node3</title>
<path fill="none" stroke="#63b8ff" d="M422.94,-282.48C388.04,-272.26 347.35,-260.34 313.75,-250.49"/>
<polygon fill="#63b8ff" stroke="#63b8ff" points="421.54,-285.72 432.12,-285.17 423.5,-279 421.54,-285.72"/>
</g>
<!-- Node4 -->
<g id="node4" class="node">
<title>Node4</title>
<g id="a_node4"><a xlink:href="SGamePlay_8hpp.html" target="_top" xlink:title=" ">
<polygon fill="white" stroke="#666666" points="473.5,-250 333.5,-250 333.5,-209 473.5,-209 473.5,-250"/>
<text text-anchor="start" x="341.5" y="-238" font-family="Helvetica,sans-Serif" font-size="10.00">/github/workspace/client</text>
<text text-anchor="start" x="341.5" y="-227" font-family="Helvetica,sans-Serif" font-size="10.00">/include/system/gameStates</text>
<text text-anchor="middle" x="403.5" y="-216" font-family="Helvetica,sans-Serif" font-size="10.00">/SGamePlay.hpp</text>
</a>
</g>
</g>
<!-- Node1&#45;&gt;Node4 -->
<g id="edge3" class="edge">
<title>Node1&#45;&gt;Node4</title>
<path fill="none" stroke="#63b8ff" d="M466.5,-278.71C454.35,-269.41 440.94,-259.15 429.63,-250.49"/>
<polygon fill="#63b8ff" stroke="#63b8ff" points="464.22,-281.38 474.29,-284.68 468.48,-275.82 464.22,-281.38"/>
</g>
<!-- Node5 -->
<g id="node5" class="node">
<title>Node5</title>
<g id="a_node5"><a xlink:href="States_8hpp.html" target="_top" xlink:title=" ">
<polygon fill="white" stroke="#666666" points="620.5,-173 480.5,-173 480.5,-132 620.5,-132 620.5,-173"/>
<text text-anchor="start" x="488.5" y="-161" font-family="Helvetica,sans-Serif" font-size="10.00">/github/workspace/client</text>
<text text-anchor="start" x="488.5" y="-150" font-family="Helvetica,sans-Serif" font-size="10.00">/include/system/gameStates</text>
<text text-anchor="middle" x="550.5" y="-139" font-family="Helvetica,sans-Serif" font-size="10.00">/States.hpp</text>
</a>
</g>
</g>
<!-- Node1&#45;&gt;Node5 -->
<g id="edge11" class="edge">
<title>Node1&#45;&gt;Node5</title>
<path fill="none" stroke="#63b8ff" d="M505.16,-274.66C508.03,-255.39 512.85,-230.29 520.5,-209 524.94,-196.63 531.81,-183.66 537.86,-173.38"/>
<polygon fill="#63b8ff" stroke="#63b8ff" points="501.73,-273.93 503.82,-284.31 508.66,-274.89 501.73,-273.93"/>
</g>
<!-- Node9 -->
<g id="node9" class="node">
<title>Node9</title>
<g id="a_node9"><a xlink:href="SMenu_8hpp.html" target="_top" xlink:title=" ">
<polygon fill="white" stroke="#666666" points="669.5,-250 529.5,-250 529.5,-209 669.5,-209 669.5,-250"/>
<text text-anchor="start" x="537.5" y="-238" font-family="Helvetica,sans-Serif" font-size="10.00">/github/workspace/client</text>
<text text-anchor="start" x="537.5" y="-227" font-family="Helvetica,sans-Serif" font-size="10.00">/include/system/gameStates</text>
<text text-anchor="middle" x="599.5" y="-216" font-family="Helvetica,sans-Serif" font-size="10.00">/SMenu.hpp</text>
</a>
</g>
</g>
<!-- Node1&#45;&gt;Node9 -->
<g id="edge9" class="edge">
<title>Node1&#45;&gt;Node9</title>
<path fill="none" stroke="#63b8ff" d="M536.5,-278.71C548.65,-269.41 562.06,-259.15 573.37,-250.49"/>
<polygon fill="#63b8ff" stroke="#63b8ff" points="534.52,-275.82 528.71,-284.68 538.78,-281.38 534.52,-275.82"/>
</g>
<!-- Node10 -->
<g id="node10" class="node">
<title>Node10</title>
<g id="a_node10"><a xlink:href="old__SGamePlay_01copy_8hpp.html" target="_top" xlink:title=" ">
<polygon fill="white" stroke="#666666" points="827.5,-250 687.5,-250 687.5,-209 827.5,-209 827.5,-250"/>
<text text-anchor="start" x="695.5" y="-238" font-family="Helvetica,sans-Serif" font-size="10.00">/github/workspace/client</text>
<text text-anchor="start" x="695.5" y="-227" font-family="Helvetica,sans-Serif" font-size="10.00">/include/system/gameStates</text>
<text text-anchor="middle" x="757.5" y="-216" font-family="Helvetica,sans-Serif" font-size="10.00">/old_SGamePlay copy.hpp</text>
</a>
</g>
</g>
<!-- Node1&#45;&gt;Node10 -->
<g id="edge12" class="edge">
<title>Node1&#45;&gt;Node10</title>
<path fill="none" stroke="#63b8ff" d="M580.06,-282.48C614.96,-272.26 655.65,-260.34 689.25,-250.49"/>
<polygon fill="#63b8ff" stroke="#63b8ff" points="579.5,-279 570.88,-285.17 581.46,-285.72 579.5,-279"/>
</g>
<!-- Node4&#45;&gt;Node5 -->
<g id="edge4" class="edge">
<title>Node4&#45;&gt;Node5</title>
<path fill="none" stroke="#63b8ff" d="M452.54,-203.48C471.65,-193.73 493.26,-182.7 511.31,-173.49"/>
<polygon fill="#63b8ff" stroke="#63b8ff" points="451.17,-200.25 443.86,-207.91 454.35,-206.48 451.17,-200.25"/>
</g>
<!-- Node6 -->
<g id="node6" class="node">
<title>Node6</title>
<g id="a_node6"><a xlink:href="GameEngine_8hpp.html" target="_top" xlink:title=" ">
<polygon fill="white" stroke="#666666" points="759,-96 598,-96 598,-66 759,-66 759,-96"/>
<text text-anchor="start" x="606" y="-84" font-family="Helvetica,sans-Serif" font-size="10.00">/github/workspace/client</text>
<text text-anchor="middle" x="678.5" y="-73" font-family="Helvetica,sans-Serif" font-size="10.00">/include/system/GameEngine.hpp</text>
</a>
</g>
</g>
<!-- Node5&#45;&gt;Node6 -->
<g id="edge5" class="edge">
<title>Node5&#45;&gt;Node6</title>
<path fill="none" stroke="#63b8ff" d="M597.18,-126.16C615.63,-116.14 636.17,-104.99 651.98,-96.4"/>
<polygon fill="#63b8ff" stroke="#63b8ff" points="595.63,-123.01 588.51,-130.86 598.97,-129.17 595.63,-123.01"/>
</g>
<!-- Node6&#45;&gt;Node1 -->
<g id="edge6" class="edge">
<title>Node6&#45;&gt;Node1</title>
<path fill="none" stroke="#63b8ff" d="M720.88,-101.36C782.36,-132.02 883.99,-194 836.5,-250 803.23,-289.23 659.67,-300.77 571.63,-304.13"/>
<polygon fill="#63b8ff" stroke="#63b8ff" points="722.53,-98.27 712.01,-97.03 719.46,-104.56 722.53,-98.27"/>
</g>
<!-- Node7 -->
<g id="node7" class="node">
<title>Node7</title>
<g id="a_node7"><a xlink:href="StateManager_8cpp.html" target="_top" xlink:title=" ">
<polygon fill="white" stroke="#666666" points="669.5,-30 547.5,-30 547.5,0 669.5,0 669.5,-30"/>
<text text-anchor="start" x="555.5" y="-18" font-family="Helvetica,sans-Serif" font-size="10.00">/github/workspace/client</text>
<text text-anchor="middle" x="608.5" y="-7" font-family="Helvetica,sans-Serif" font-size="10.00">/src/StateManager.cpp</text>
</a>
</g>
</g>
<!-- Node6&#45;&gt;Node7 -->
<g id="edge7" class="edge">
<title>Node6&#45;&gt;Node7</title>
<path fill="none" stroke="#63b8ff" d="M654.53,-58.09C644.43,-48.85 632.96,-38.36 623.99,-30.16"/>
<polygon fill="#63b8ff" stroke="#63b8ff" points="652.11,-60.61 661.85,-64.78 656.83,-55.44 652.11,-60.61"/>
</g>
<!-- Node8 -->
<g id="node8" class="node">
<title>Node8</title>
<g id="a_node8"><a xlink:href="client_2src_2main_8cpp.html" target="_top" xlink:title=" ">
<polygon fill="white" stroke="#666666" points="809.5,-30 687.5,-30 687.5,0 809.5,0 809.5,-30"/>
<text text-anchor="start" x="695.5" y="-18" font-family="Helvetica,sans-Serif" font-size="10.00">/github/workspace/client</text>
<text text-anchor="middle" x="748.5" y="-7" font-family="Helvetica,sans-Serif" font-size="10.00">/src/main.cpp</text>
</a>
</g>
</g>
<!-- Node6&#45;&gt;Node8 -->
<g id="edge8" class="edge">
<title>Node6&#45;&gt;Node8</title>
<path fill="none" stroke="#63b8ff" d="M702.47,-58.09C712.57,-48.85 724.04,-38.36 733.01,-30.16"/>
<polygon fill="#63b8ff" stroke="#63b8ff" points="700.17,-55.44 695.15,-64.78 704.89,-60.61 700.17,-55.44"/>
</g>
<!-- Node9&#45;&gt;Node5 -->
<g id="edge10" class="edge">
<title>Node9&#45;&gt;Node5</title>
<path fill="none" stroke="#63b8ff" d="M580.45,-199.34C574.76,-190.63 568.66,-181.3 563.46,-173.33"/>
<polygon fill="#63b8ff" stroke="#63b8ff" points="577.4,-201.07 585.8,-207.53 583.26,-197.24 577.4,-201.07"/>
</g>
</g>
</svg>
