<?xml version="1.0" encoding="UTF-8" standalone="no"?>
<!DOCTYPE svg PUBLIC "-//W3C//DTD SVG 1.1//EN"
 "http://www.w3.org/Graphics/SVG/1.1/DTD/svg11.dtd">
<!-- Generated by graphviz version 7.0.5 (20221223.1930)
 -->
<!-- Title: /github/workspace/client/include/include.hpp Pages: 1 -->
<!--zoomable 313 -->
<svg id="main" version="1.1" xmlns="http://www.w3.org/2000/svg" xmlns:xlink="http://www.w3.org/1999/xlink" xml:space="preserve" onload="init(evt)">
<style type="text/css"><![CDATA[
.edge:hover path { stroke: red; }
.edge:hover polygon { stroke: red; fill: red; }
]]></style>
<script type="text/javascript"><![CDATA[
var edges = document.getElementsByTagName('g');
if (edges && edges.length) {
  for (var i=0;i<edges.length;i++) {
    if (edges[i].id.substr(0,4)=='edge') {
      edges[i].setAttribute('class','edge');
    }
  }
}
]]></script>
        <defs>
                <circle id="rim" cx="0" cy="0" r="7"/>
                <circle id="rim2" cx="0" cy="0" r="3.5"/>
                <g id="zoomPlus">
                        <use xlink:href="#rim" fill="#404040">
                                <set attributeName="fill" to="#808080" begin="zoomplus.mouseover" end="zoomplus.mouseout"/>
                        </use>
                        <path d="M-4,0h8M0,-4v8" fill="none" stroke="white" stroke-width="1.5" pointer-events="none"/>
                </g>
                <g id="zoomMin">
                        <use xlink:href="#rim" fill="#404040">
                                <set attributeName="fill" to="#808080" begin="zoomminus.mouseover" end="zoomminus.mouseout"/>
                        </use>
                        <path d="M-4,0h8" fill="none" stroke="white" stroke-width="1.5" pointer-events="none"/>
                </g>
                <g id="dirArrow">
                        <path fill="none" stroke="white" stroke-width="1.5" d="M0,-3.0v7 M-2.5,-0.5L0,-3.0L2.5,-0.5"/>
                </g>
               <g id="resetDef">
                       <use xlink:href="#rim2" fill="#404040">
                               <set attributeName="fill" to="#808080" begin="reset.mouseover" end="reset.mouseout"/>
                       </use>
               </g>
        </defs>

<script type="text/javascript">
var viewWidth = 1903;
var viewHeight = 313;
var sectionId = 'dynsection-0';
</script>
<script xlink:href="svgpan.js"/>
<svg id="graph" class="graph">
<g id="viewport">
<title>/github/workspace/client/include/include.hpp</title>
<!-- Node1 -->
<g id="node1" class="node">
<title>Node1</title>
<g id="a_node1"><a xlink:title=" ">
<polygon fill="#999999" stroke="#666666" points="1377,-305 1255,-305 1255,-275 1377,-275 1377,-305"/>
<text text-anchor="start" x="1263" y="-293" font-family="Helvetica,sans-Serif" font-size="10.00">/github/workspace/client</text>
<text text-anchor="middle" x="1316" y="-282" font-family="Helvetica,sans-Serif" font-size="10.00">/include/include.hpp</text>
</a>
</g>
</g>
<!-- Node2 -->
<g id="node2" class="node">
<title>Node2</title>
<g id="a_node2"><a xlink:href="Bonus_8hpp.html" target="_top" xlink:title=" ">
<polygon fill="white" stroke="#666666" points="1060,-184 940,-184 940,-165 1060,-165 1060,-184"/>
<text text-anchor="middle" x="1000" y="-172" font-family="Helvetica,sans-Serif" font-size="10.00">Components/Bonus.hpp</text>
</a>
</g>
</g>
<!-- Node1&#45;&gt;Node2 -->
<g id="edge1" class="edge">
<title>Node1&#45;&gt;Node2</title>
<path fill="none" stroke="#63b8ff" d="M1254.6,-286.17C1178.05,-281.39 1053.1,-269.11 1019,-239 1006.73,-228.16 1002.23,-209.75 1000.65,-195.53"/>
<polygon fill="#63b8ff" stroke="#63b8ff" points="1004.17,-195.67 1000,-185.93 997.18,-196.14 1004.17,-195.67"/>
</g>
<!-- Node3 -->
<g id="node3" class="node">
<title>Node3</title>
<g id="a_node3"><a xlink:href="Engine_8hpp.html" target="_top" xlink:title=" ">
<polygon fill="white" stroke="#666666" points="960,-129 864,-129 864,-110 960,-110 960,-129"/>
<text text-anchor="middle" x="912" y="-117" font-family="Helvetica,sans-Serif" font-size="10.00">Engine/Engine.hpp</text>
</a>
</g>
</g>
<!-- Node1&#45;&gt;Node3 -->
<g id="edge42" class="edge">
<title>Node1&#45;&gt;Node3</title>
<path fill="none" stroke="#63b8ff" d="M1254.72,-288C1189.78,-284.97 1085.43,-274.37 1003,-239 966,-223.12 953.89,-217.13 931,-184 922.08,-171.09 917.27,-153.91 914.72,-140.67"/>
<polygon fill="#63b8ff" stroke="#63b8ff" points="918.2,-140.27 913.16,-130.96 911.29,-141.38 918.2,-140.27"/>
</g>
<!-- Node25 -->
<g id="node25" class="node">
<title>Node25</title>
<g id="a_node25"><a xlink:href="EntitiesManager_8hpp.html" target="_top" xlink:title=" ">
<polygon fill="white" stroke="#666666" points="1755,-74 1615,-74 1615,-55 1755,-55 1755,-74"/>
<text text-anchor="middle" x="1685" y="-62" font-family="Helvetica,sans-Serif" font-size="10.00">Entities/EntitiesManager.hpp</text>
</a>
</g>
</g>
<!-- Node1&#45;&gt;Node25 -->
<g id="edge44" class="edge">
<title>Node1&#45;&gt;Node25</title>
<path fill="none" stroke="#63b8ff" d="M1316.25,-274.63C1317.71,-240.17 1326.54,-152.53 1378,-110 1386.69,-102.82 1515.3,-86 1603.28,-75.22"/>
<polygon fill="#63b8ff" stroke="#63b8ff" points="1603.59,-78.71 1613.09,-74.02 1602.74,-71.76 1603.59,-78.71"/>
</g>
<!-- Node27 -->
<g id="node27" class="node">
<title>Node27</title>
<g id="a_node27"><a xlink:href="Bullets_8hpp.html" target="_top" xlink:title=" ">
<polygon fill="white" stroke="#666666" points="1895,-74 1773,-74 1773,-55 1895,-55 1895,-74"/>
<text text-anchor="middle" x="1834" y="-62" font-family="Helvetica,sans-Serif" font-size="10.00">Components/Bullets.hpp</text>
</a>
</g>
</g>
<!-- Node1&#45;&gt;Node27 -->
<g id="edge36" class="edge">
<title>Node1&#45;&gt;Node27</title>
<path fill="none" stroke="#63b8ff" d="M1332.56,-274.76C1350.8,-259.61 1381.49,-235.71 1411,-220 1541.24,-150.67 1709.33,-99.6 1788.69,-77.54"/>
<polygon fill="#63b8ff" stroke="#63b8ff" points="1789.57,-80.93 1798.28,-74.9 1787.71,-74.18 1789.57,-80.93"/>
</g>
<!-- Node29 -->
<g id="node29" class="node">
<title>Node29</title>
<g id="a_node29"><a xlink:href="Enemy_8hpp.html" target="_top" xlink:title=" ">
<polygon fill="white" stroke="#666666" points="1150,-239 1028,-239 1028,-220 1150,-220 1150,-239"/>
<text text-anchor="middle" x="1089" y="-227" font-family="Helvetica,sans-Serif" font-size="10.00">Components/Enemy.hpp</text>
</a>
</g>
</g>
<!-- Node1&#45;&gt;Node29 -->
<g id="edge37" class="edge">
<title>Node1&#45;&gt;Node29</title>
<path fill="none" stroke="#63b8ff" d="M1259.89,-274.54C1221.22,-264.57 1170.49,-251.5 1134.37,-242.19"/>
<polygon fill="#63b8ff" stroke="#63b8ff" points="1135.68,-238.92 1125.13,-239.81 1133.94,-245.69 1135.68,-238.92"/>
</g>
<!-- Node30 -->
<g id="node30" class="node">
<title>Node30</title>
<g id="a_node30"><a xlink:href="Properties_8hpp.html" target="_top" xlink:title=" ">
<polygon fill="white" stroke="#666666" points="1239,-184 1125,-184 1125,-165 1239,-165 1239,-184"/>
<text text-anchor="middle" x="1182" y="-172" font-family="Helvetica,sans-Serif" font-size="10.00">Entities/Properties.hpp</text>
</a>
</g>
</g>
<!-- Node1&#45;&gt;Node30 -->
<g id="edge46" class="edge">
<title>Node1&#45;&gt;Node30</title>
<path fill="none" stroke="#63b8ff" d="M1315.7,-274.53C1314.62,-259.18 1310.67,-235.11 1297,-220 1283.07,-204.6 1263.19,-194.48 1243.86,-187.85"/>
<polygon fill="#63b8ff" stroke="#63b8ff" points="1244.94,-184.52 1234.36,-184.88 1242.86,-191.2 1244.94,-184.52"/>
</g>
<!-- Node31 -->
<g id="node31" class="node">
<title>Node31</title>
<g id="a_node31"><a xlink:href="Player_8hpp.html" target="_top" xlink:title=" ">
<polygon fill="white" stroke="#666666" points="1287.5,-239 1168.5,-239 1168.5,-220 1287.5,-220 1287.5,-239"/>
<text text-anchor="middle" x="1228" y="-227" font-family="Helvetica,sans-Serif" font-size="10.00">Components/Player.hpp</text>
</a>
</g>
</g>
<!-- Node1&#45;&gt;Node31 -->
<g id="edge40" class="edge">
<title>Node1&#45;&gt;Node31</title>
<path fill="none" stroke="#63b8ff" d="M1294.25,-274.54C1281.03,-265.75 1264.17,-254.54 1250.76,-245.63"/>
<polygon fill="#63b8ff" stroke="#63b8ff" points="1252.83,-242.81 1242.57,-240.18 1248.96,-248.63 1252.83,-242.81"/>
</g>
<!-- Node32 -->
<g id="node32" class="node">
<title>Node32</title>
<g id="a_node32"><a xlink:href="Actors_8hpp.html" target="_top" xlink:title=" ">
<polygon fill="white" stroke="#666666" points="1518,-239 1420,-239 1420,-220 1518,-220 1518,-239"/>
<text text-anchor="middle" x="1469" y="-227" font-family="Helvetica,sans-Serif" font-size="10.00">Entities/Actors.hpp</text>
</a>
</g>
</g>
<!-- Node1&#45;&gt;Node32 -->
<g id="edge43" class="edge">
<title>Node1&#45;&gt;Node32</title>
<path fill="none" stroke="#63b8ff" d="M1353.82,-274.54C1378.72,-265.02 1411.05,-252.66 1435.11,-243.46"/>
<polygon fill="#63b8ff" stroke="#63b8ff" points="1436.36,-246.73 1444.45,-239.89 1433.86,-240.19 1436.36,-246.73"/>
</g>
<!-- Node33 -->
<g id="node33" class="node">
<title>Node33</title>
<g id="a_node33"><a xlink:href="ParticulesManager_8hpp.html" target="_top" xlink:title=" ">
<polygon fill="white" stroke="#666666" points="1687.5,-239 1536.5,-239 1536.5,-220 1687.5,-220 1687.5,-239"/>
<text text-anchor="middle" x="1612" y="-227" font-family="Helvetica,sans-Serif" font-size="10.00">Entities/ParticulesManager.hpp</text>
</a>
</g>
</g>
<!-- Node1&#45;&gt;Node33 -->
<g id="edge45" class="edge">
<title>Node1&#45;&gt;Node33</title>
<path fill="none" stroke="#63b8ff" d="M1377.33,-276.88C1429.76,-266.52 1504.58,-251.73 1555.55,-241.66"/>
<polygon fill="#63b8ff" stroke="#63b8ff" points="1556.07,-245.12 1565.2,-239.75 1554.71,-238.25 1556.07,-245.12"/>
</g>
<!-- Node2&#45;&gt;Node3 -->
<g id="edge2" class="edge">
<title>Node2&#45;&gt;Node3</title>
<path fill="none" stroke="#63b8ff" d="M985.07,-164.51C971.72,-156.47 951.89,-144.53 936.26,-135.11"/>
<polygon fill="#63b8ff" stroke="#63b8ff" points="938.38,-132.3 928,-130.14 934.76,-138.3 938.38,-132.3"/>
</g>
<!-- Node4 -->
<g id="node4" class="node">
<title>Node4</title>
<g id="a_node4"><a xlink:title=" ">
<polygon fill="#e0e0e0" stroke="#999999" points="647.5,-74 558.5,-74 558.5,-55 647.5,-55 647.5,-74"/>
<text text-anchor="middle" x="603" y="-62" font-family="Helvetica,sans-Serif" font-size="10.00">SFML/Audio.hpp</text>
</a>
</g>
</g>
<!-- Node3&#45;&gt;Node4 -->
<g id="edge3" class="edge">
<title>Node3&#45;&gt;Node4</title>
<path fill="none" stroke="#63b8ff" d="M863.72,-110.22C808.34,-100.72 717.68,-85.17 659.18,-75.14"/>
<polygon fill="#63b8ff" stroke="#63b8ff" points="659.87,-71.7 649.42,-73.46 658.69,-78.6 659.87,-71.7"/>
</g>
<!-- Node5 -->
<g id="node5" class="node">
<title>Node5</title>
<g id="a_node5"><a xlink:title=" ">
<polygon fill="#e0e0e0" stroke="#999999" points="1134,-74 1030,-74 1030,-55 1134,-55 1134,-74"/>
<text text-anchor="middle" x="1082" y="-62" font-family="Helvetica,sans-Serif" font-size="10.00">SFML/Graphics.hpp</text>
</a>
</g>
</g>
<!-- Node3&#45;&gt;Node5 -->
<g id="edge4" class="edge">
<title>Node3&#45;&gt;Node5</title>
<path fill="none" stroke="#63b8ff" d="M940.84,-109.51C968.76,-100.8 1011.33,-87.53 1042.42,-77.84"/>
<polygon fill="#63b8ff" stroke="#63b8ff" points="1043.35,-81.21 1051.86,-74.9 1041.27,-74.53 1043.35,-81.21"/>
</g>
<!-- Node6 -->
<g id="node6" class="node">
<title>Node6</title>
<g id="a_node6"><a xlink:title=" ">
<polygon fill="#e0e0e0" stroke="#999999" points="1291.5,-74 1190.5,-74 1190.5,-55 1291.5,-55 1291.5,-74"/>
<text text-anchor="middle" x="1241" y="-62" font-family="Helvetica,sans-Serif" font-size="10.00">SFML/Network.hpp</text>
</a>
</g>
</g>
<!-- Node3&#45;&gt;Node6 -->
<g id="edge5" class="edge">
<title>Node3&#45;&gt;Node6</title>
<path fill="none" stroke="#63b8ff" d="M960.19,-110.74C1018.2,-101.39 1115.7,-85.68 1179.19,-75.46"/>
<polygon fill="#63b8ff" stroke="#63b8ff" points="1179.43,-78.96 1188.75,-73.92 1178.32,-72.05 1179.43,-78.96"/>
</g>
<!-- Node7 -->
<g id="node7" class="node">
<title>Node7</title>
<g id="a_node7"><a xlink:title=" ">
<polygon fill="#e0e0e0" stroke="#999999" points="1408.5,-74 1309.5,-74 1309.5,-55 1408.5,-55 1408.5,-74"/>
<text text-anchor="middle" x="1359" y="-62" font-family="Helvetica,sans-Serif" font-size="10.00">SFML/Window.hpp</text>
</a>
</g>
</g>
<!-- Node3&#45;&gt;Node7 -->
<g id="edge6" class="edge">
<title>Node3&#45;&gt;Node7</title>
<path fill="none" stroke="#63b8ff" d="M960.27,-113.47C1031.78,-105.92 1170.36,-90.86 1297.9,-74.37"/>
<polygon fill="#63b8ff" stroke="#63b8ff" points="1298.06,-77.88 1307.53,-73.12 1297.16,-70.94 1298.06,-77.88"/>
</g>
<!-- Node8 -->
<g id="node8" class="node">
<title>Node8</title>
<g id="a_node8"><a xlink:title=" ">
<polygon fill="#e0e0e0" stroke="#999999" points="1525,-74 1427,-74 1427,-55 1525,-55 1525,-74"/>
<text text-anchor="middle" x="1476" y="-62" font-family="Helvetica,sans-Serif" font-size="10.00">SFML/System.hpp</text>
</a>
</g>
</g>
<!-- Node3&#45;&gt;Node8 -->
<g id="edge7" class="edge">
<title>Node3&#45;&gt;Node8</title>
<path fill="none" stroke="#63b8ff" d="M960.23,-115.19C1048.4,-108.94 1241.73,-94.3 1415.26,-74.26"/>
<polygon fill="#63b8ff" stroke="#63b8ff" points="1415.63,-77.74 1425.16,-73.1 1414.82,-70.78 1415.63,-77.74"/>
</g>
<!-- Node9 -->
<g id="node9" class="node">
<title>Node9</title>
<g id="a_node9"><a xlink:title=" ">
<polygon fill="#e0e0e0" stroke="#999999" points="1597,-74 1543,-74 1543,-55 1597,-55 1597,-74"/>
<text text-anchor="middle" x="1570" y="-62" font-family="Helvetica,sans-Serif" font-size="10.00">iostream</text>
</a>
</g>
</g>
<!-- Node3&#45;&gt;Node9 -->
<g id="edge8" class="edge">
<title>Node3&#45;&gt;Node9</title>
<path fill="none" stroke="#63b8ff" d="M960.29,-117.68C1063.46,-115.36 1313.11,-106.72 1531.22,-74.17"/>
<polygon fill="#63b8ff" stroke="#63b8ff" points="1531.71,-77.64 1541.08,-72.68 1530.66,-70.72 1531.71,-77.64"/>
</g>
<!-- Node10 -->
<g id="node10" class="node">
<title>Node10</title>
<g id="a_node10"><a xlink:title=" ">
<polygon fill="#e0e0e0" stroke="#999999" points="50,-74 0,-74 0,-55 50,-55 50,-74"/>
<text text-anchor="middle" x="25" y="-62" font-family="Helvetica,sans-Serif" font-size="10.00">fstream</text>
</a>
</g>
</g>
<!-- Node3&#45;&gt;Node10 -->
<g id="edge9" class="edge">
<title>Node3&#45;&gt;Node10</title>
<path fill="none" stroke="#63b8ff" d="M863.6,-117.2C710.49,-112.91 236.96,-98.15 61.28,-73.97"/>
<polygon fill="#63b8ff" stroke="#63b8ff" points="62.04,-70.54 51.64,-72.58 61.04,-77.47 62.04,-70.54"/>
</g>
<!-- Node11 -->
<g id="node11" class="node">
<title>Node11</title>
<g id="a_node11"><a xlink:title=" ">
<polygon fill="#e0e0e0" stroke="#999999" points="116,-74 68,-74 68,-55 116,-55 116,-74"/>
<text text-anchor="middle" x="92" y="-62" font-family="Helvetica,sans-Serif" font-size="10.00">string.h</text>
</a>
</g>
</g>
<!-- Node3&#45;&gt;Node11 -->
<g id="edge10" class="edge">
<title>Node3&#45;&gt;Node11</title>
<path fill="none" stroke="#63b8ff" d="M863.75,-119.04C741.75,-119.7 411.08,-117.18 127.73,-74.1"/>
<polygon fill="#63b8ff" stroke="#63b8ff" points="128.31,-70.65 117.89,-72.58 127.24,-77.57 128.31,-70.65"/>
</g>
<!-- Node12 -->
<g id="node12" class="node">
<title>Node12</title>
<g id="a_node12"><a xlink:title=" ">
<polygon fill="#e0e0e0" stroke="#999999" points="184,-74 134,-74 134,-55 184,-55 184,-74"/>
<text text-anchor="middle" x="159" y="-62" font-family="Helvetica,sans-Serif" font-size="10.00">unistd.h</text>
</a>
</g>
</g>
<!-- Node3&#45;&gt;Node12 -->
<g id="edge11" class="edge">
<title>Node3&#45;&gt;Node12</title>
<path fill="none" stroke="#63b8ff" d="M863.71,-118.55C749.14,-118.03 451.86,-112.85 195.18,-74.03"/>
<polygon fill="#63b8ff" stroke="#63b8ff" points="196.06,-70.62 185.64,-72.56 195,-77.54 196.06,-70.62"/>
</g>
<!-- Node13 -->
<g id="node13" class="node">
<title>Node13</title>
<g id="a_node13"><a xlink:title=" ">
<polygon fill="#e0e0e0" stroke="#999999" points="267.5,-74 202.5,-74 202.5,-55 267.5,-55 267.5,-74"/>
<text text-anchor="middle" x="235" y="-62" font-family="Helvetica,sans-Serif" font-size="10.00">sys/types.h</text>
</a>
</g>
</g>
<!-- Node3&#45;&gt;Node13 -->
<g id="edge12" class="edge">
<title>Node3&#45;&gt;Node13</title>
<path fill="none" stroke="#63b8ff" d="M863.61,-116.87C757.79,-112.92 497.96,-101.07 282,-74 280.99,-73.87 279.97,-73.74 278.95,-73.6"/>
<polygon fill="#63b8ff" stroke="#63b8ff" points="279.71,-70.18 269.3,-72.13 278.65,-77.1 279.71,-70.18"/>
</g>
<!-- Node14 -->
<g id="node14" class="node">
<title>Node14</title>
<g id="a_node14"><a xlink:title=" ">
<polygon fill="#e0e0e0" stroke="#999999" points="1416,-19 1372,-19 1372,0 1416,0 1416,-19"/>
<text text-anchor="middle" x="1394" y="-7" font-family="Helvetica,sans-Serif" font-size="10.00">vector</text>
</a>
</g>
</g>
<!-- Node3&#45;&gt;Node14 -->
<g id="edge13" class="edge">
<title>Node3&#45;&gt;Node14</title>
<path fill="none" stroke="#63b8ff" d="M960.28,-112.96C1007.67,-106.65 1081.59,-94.48 1143,-74 1161.29,-67.9 1163.76,-61.25 1182,-55 1243.17,-34.04 1317.8,-21.16 1360.22,-14.96"/>
<polygon fill="#63b8ff" stroke="#63b8ff" points="1360.64,-18.44 1370.04,-13.57 1359.65,-11.51 1360.64,-18.44"/>
</g>
<!-- Node15 -->
<g id="node15" class="node">
<title>Node15</title>
<g id="a_node15"><a xlink:title=" ">
<polygon fill="#e0e0e0" stroke="#999999" points="398,-74 342,-74 342,-55 398,-55 398,-74"/>
<text text-anchor="middle" x="370" y="-62" font-family="Helvetica,sans-Serif" font-size="10.00">stdbool.h</text>
</a>
</g>
</g>
<!-- Node3&#45;&gt;Node15 -->
<g id="edge14" class="edge">
<title>Node3&#45;&gt;Node15</title>
<path fill="none" stroke="#63b8ff" d="M863.69,-116.46C775.41,-112.26 582.02,-100.83 409.53,-74.18"/>
<polygon fill="#63b8ff" stroke="#63b8ff" points="410.12,-70.73 399.7,-72.64 409.04,-77.64 410.12,-70.73"/>
</g>
<!-- Node16 -->
<g id="node16" class="node">
<title>Node16</title>
<g id="a_node16"><a xlink:title=" ">
<polygon fill="#e0e0e0" stroke="#999999" points="463.5,-74 416.5,-74 416.5,-55 463.5,-55 463.5,-74"/>
<text text-anchor="middle" x="440" y="-62" font-family="Helvetica,sans-Serif" font-size="10.00">stdlib.h</text>
</a>
</g>
</g>
<!-- Node3&#45;&gt;Node16 -->
<g id="edge15" class="edge">
<title>Node3&#45;&gt;Node16</title>
<path fill="none" stroke="#63b8ff" d="M863.6,-115.99C784.34,-111.36 621.83,-99.68 474.71,-74.01"/>
<polygon fill="#63b8ff" stroke="#63b8ff" points="475.65,-70.63 465.19,-72.33 474.42,-77.52 475.65,-70.63"/>
</g>
<!-- Node17 -->
<g id="node17" class="node">
<title>Node17</title>
<g id="a_node17"><a xlink:title=" ">
<polygon fill="#e0e0e0" stroke="#999999" points="540,-74 482,-74 482,-55 540,-55 540,-74"/>
<text text-anchor="middle" x="511" y="-62" font-family="Helvetica,sans-Serif" font-size="10.00">exception</text>
</a>
</g>
</g>
<!-- Node3&#45;&gt;Node17 -->
<g id="edge16" class="edge">
<title>Node3&#45;&gt;Node17</title>
<path fill="none" stroke="#63b8ff" d="M863.63,-114.09C796.03,-107.6 669.24,-94.21 551.74,-74.32"/>
<polygon fill="#63b8ff" stroke="#63b8ff" points="552.34,-70.87 541.89,-72.63 551.16,-77.77 552.34,-70.87"/>
</g>
<!-- Node18 -->
<g id="node18" class="node">
<title>Node18</title>
<g id="a_node18"><a xlink:href="Window_8hpp.html" target="_top" xlink:title=" ">
<polygon fill="white" stroke="#666666" points="355.5,-19 254.5,-19 254.5,0 355.5,0 355.5,-19"/>
<text text-anchor="middle" x="305" y="-7" font-family="Helvetica,sans-Serif" font-size="10.00">Engine/Window.hpp</text>
</a>
</g>
</g>
<!-- Node3&#45;&gt;Node18 -->
<g id="edge17" class="edge">
<title>Node3&#45;&gt;Node18</title>
<path fill="none" stroke="#63b8ff" d="M863.74,-117.69C730.87,-114.99 367.3,-104.66 324,-74 309.85,-63.98 302.76,-45.17 300.87,-30.61"/>
<polygon fill="#63b8ff" stroke="#63b8ff" points="304.37,-30.63 300.54,-20.75 297.37,-30.87 304.37,-30.63"/>
</g>
<!-- Node19 -->
<g id="node19" class="node">
<title>Node19</title>
<g id="a_node19"><a xlink:href="Draw_8hpp.html" target="_top" xlink:title=" ">
<polygon fill="white" stroke="#666666" points="1011.5,-74 922.5,-74 922.5,-55 1011.5,-55 1011.5,-74"/>
<text text-anchor="middle" x="967" y="-62" font-family="Helvetica,sans-Serif" font-size="10.00">Engine/Draw.hpp</text>
</a>
</g>
</g>
<!-- Node3&#45;&gt;Node19 -->
<g id="edge19" class="edge">
<title>Node3&#45;&gt;Node19</title>
<path fill="none" stroke="#63b8ff" d="M915.92,-109.75C922.19,-102.12 933.5,-90.87 944.01,-81.62"/>
<polygon fill="#63b8ff" stroke="#63b8ff" points="945.97,-84.54 951.36,-75.42 941.46,-79.19 945.97,-84.54"/>
</g>
<!-- Node20 -->
<g id="node20" class="node">
<title>Node20</title>
<g id="a_node20"><a xlink:href="Event_8hpp.html" target="_top" xlink:title=" ">
<polygon fill="white" stroke="#666666" points="904,-74 812,-74 812,-55 904,-55 904,-74"/>
<text text-anchor="middle" x="858" y="-62" font-family="Helvetica,sans-Serif" font-size="10.00">Engine/Event.hpp</text>
</a>
</g>
</g>
<!-- Node3&#45;&gt;Node20 -->
<g id="edge21" class="edge">
<title>Node3&#45;&gt;Node20</title>
<path fill="none" stroke="#63b8ff" d="M897.62,-109.51C888.68,-102.23 877.63,-91.77 869.31,-82.87"/>
<polygon fill="#63b8ff" stroke="#63b8ff" points="872.07,-80.7 862.84,-75.49 866.81,-85.32 872.07,-80.7"/>
</g>
<!-- Node24 -->
<g id="node24" class="node">
<title>Node24</title>
<g id="a_node24"><a xlink:href="StateManager_8hpp.html" target="_top" xlink:title=" ">
<polygon fill="white" stroke="#666666" points="794,-74 666,-74 666,-55 794,-55 794,-74"/>
<text text-anchor="middle" x="730" y="-62" font-family="Helvetica,sans-Serif" font-size="10.00">Engine/StateManager.hpp</text>
</a>
</g>
</g>
<!-- Node3&#45;&gt;Node24 -->
<g id="edge26" class="edge">
<title>Node3&#45;&gt;Node24</title>
<path fill="none" stroke="#63b8ff" d="M875.91,-109.51C844.05,-100.76 798.02,-87.42 766.15,-77.71"/>
<polygon fill="#63b8ff" stroke="#63b8ff" points="767.55,-74.48 756.96,-74.89 765.49,-81.17 767.55,-74.48"/>
</g>
<!-- Node3&#45;&gt;Node25 -->
<g id="edge29" class="edge">
<title>Node3&#45;&gt;Node25</title>
<path fill="none" stroke="#63b8ff" d="M960.36,-115.87C1072.48,-109.96 1358.22,-94.49 1597,-74 1599.16,-73.81 1601.36,-73.62 1603.58,-73.42"/>
<polygon fill="#63b8ff" stroke="#63b8ff" points="1603.69,-76.92 1613.32,-72.49 1603.03,-69.95 1603.69,-76.92"/>
</g>
<!-- Node3&#45;&gt;Node27 -->
<g id="edge33" class="edge">
<title>Node3&#45;&gt;Node27</title>
<path fill="none" stroke="#63b8ff" d="M960.05,-117.01C1089.01,-112.96 1452.86,-100.2 1755,-74 1757.15,-73.81 1759.33,-73.61 1761.54,-73.4"/>
<polygon fill="#63b8ff" stroke="#63b8ff" points="1761.63,-76.91 1771.22,-72.41 1760.92,-69.95 1761.63,-76.91"/>
</g>
<!-- Node18&#45;&gt;Node3 -->
<g id="edge18" class="edge">
<title>Node18&#45;&gt;Node3</title>
<path fill="none" stroke="#63b8ff" d="M311.58,-19.24C317.22,-33.4 323.71,-61.05 342,-74 383.22,-103.18 714.61,-113.94 852.38,-117.24"/>
<polygon fill="#63b8ff" stroke="#63b8ff" points="851.93,-120.73 862.01,-117.47 852.1,-113.74 851.93,-120.73"/>
</g>
<!-- Node19&#45;&gt;Node3 -->
<g id="edge20" class="edge">
<title>Node19&#45;&gt;Node3</title>
<path fill="none" stroke="#63b8ff" d="M963,-74.36C956.77,-81.9 945.69,-92.94 935.33,-102.09"/>
<polygon fill="#63b8ff" stroke="#63b8ff" points="933.08,-99.4 927.7,-108.53 937.6,-104.75 933.08,-99.4"/>
</g>
<!-- Node20&#45;&gt;Node3 -->
<g id="edge22" class="edge">
<title>Node20&#45;&gt;Node3</title>
<path fill="none" stroke="#63b8ff" d="M872.32,-74.44C881.29,-81.74 892.42,-92.28 900.76,-101.22"/>
<polygon fill="#63b8ff" stroke="#63b8ff" points="898.02,-103.4 907.25,-108.61 903.29,-98.79 898.02,-103.4"/>
</g>
<!-- Node21 -->
<g id="node21" class="node">
<title>Node21</title>
<g id="a_node21"><a xlink:title=" ">
<polygon fill="#e0e0e0" stroke="#999999" points="872.5,-19 843.5,-19 843.5,0 872.5,0 872.5,-19"/>
<text text-anchor="middle" x="858" y="-7" font-family="Helvetica,sans-Serif" font-size="10.00">list</text>
</a>
</g>
</g>
<!-- Node20&#45;&gt;Node21 -->
<g id="edge23" class="edge">
<title>Node20&#45;&gt;Node21</title>
<path fill="none" stroke="#63b8ff" d="M858,-54.75C858,-48.27 858,-39.16 858,-30.9"/>
<polygon fill="#63b8ff" stroke="#63b8ff" points="861.5,-30.96 858,-20.96 854.5,-30.96 861.5,-30.96"/>
</g>
<!-- Node22 -->
<g id="node22" class="node">
<title>Node22</title>
<g id="a_node22"><a xlink:title=" ">
<polygon fill="#e0e0e0" stroke="#999999" points="933.5,-19 890.5,-19 890.5,0 933.5,0 933.5,-19"/>
<text text-anchor="middle" x="912" y="-7" font-family="Helvetica,sans-Serif" font-size="10.00">queue</text>
</a>
</g>
</g>
<!-- Node20&#45;&gt;Node22 -->
<g id="edge24" class="edge">
<title>Node20&#45;&gt;Node22</title>
<path fill="none" stroke="#63b8ff" d="M866.92,-54.75C874.45,-47.35 885.47,-36.54 894.73,-27.45"/>
<polygon fill="#63b8ff" stroke="#63b8ff" points="897.12,-30 901.81,-20.5 892.22,-25.01 897.12,-30"/>
</g>
<!-- Node23 -->
<g id="node23" class="node">
<title>Node23</title>
<g id="a_node23"><a xlink:title=" ">
<polygon fill="#e0e0e0" stroke="#999999" points="825,-19 763,-19 763,0 825,0 825,-19"/>
<text text-anchor="middle" x="794" y="-7" font-family="Helvetica,sans-Serif" font-size="10.00">Skaldi.hpp</text>
</a>
</g>
</g>
<!-- Node20&#45;&gt;Node23 -->
<g id="edge25" class="edge">
<title>Node20&#45;&gt;Node23</title>
<path fill="none" stroke="#63b8ff" d="M847.14,-54.51C837.89,-46.85 824.38,-35.66 813.29,-26.47"/>
<polygon fill="#63b8ff" stroke="#63b8ff" points="815.8,-24.01 805.86,-20.32 811.33,-29.4 815.8,-24.01"/>
</g>
<!-- Node24&#45;&gt;Node3 -->
<g id="edge27" class="edge">
<title>Node24&#45;&gt;Node3</title>
<path fill="none" stroke="#63b8ff" d="M765.93,-74.45C797.74,-83.18 843.77,-96.52 875.69,-106.24"/>
<polygon fill="#63b8ff" stroke="#63b8ff" points="874.31,-109.48 884.9,-109.07 876.36,-102.78 874.31,-109.48"/>
</g>
<!-- Node24&#45;&gt;Node18 -->
<g id="edge28" class="edge">
<title>Node24&#45;&gt;Node18</title>
<path fill="none" stroke="#63b8ff" d="M665.91,-55.51C585.13,-45.43 447.19,-28.23 367.28,-18.27"/>
<polygon fill="#63b8ff" stroke="#63b8ff" points="367.78,-14.8 357.42,-17.04 366.91,-21.75 367.78,-14.8"/>
</g>
<!-- Node25&#45;&gt;Node3 -->
<g id="edge30" class="edge">
<title>Node25&#45;&gt;Node3</title>
<path fill="none" stroke="#63b8ff" d="M1614.64,-74.03C1376.98,-94.42 1092.93,-109.83 971.57,-115.8"/>
<polygon fill="#63b8ff" stroke="#63b8ff" points="971.67,-112.29 961.85,-116.27 972.01,-119.28 971.67,-112.29"/>
</g>
<!-- Node25&#45;&gt;Node14 -->
<g id="edge32" class="edge">
<title>Node25&#45;&gt;Node14</title>
<path fill="none" stroke="#63b8ff" d="M1635.64,-54.51C1576.36,-43.71 1478.57,-25.9 1427.46,-16.59"/>
<polygon fill="#63b8ff" stroke="#63b8ff" points="1428.36,-13.2 1417.9,-14.85 1427.11,-20.09 1428.36,-13.2"/>
</g>
<!-- Node26 -->
<g id="node26" class="node">
<title>Node26</title>
<g id="a_node26"><a xlink:title=" ">
<polygon fill="#e0e0e0" stroke="#999999" points="1704,-19 1666,-19 1666,0 1704,0 1704,-19"/>
<text text-anchor="middle" x="1685" y="-7" font-family="Helvetica,sans-Serif" font-size="10.00">array</text>
</a>
</g>
</g>
<!-- Node25&#45;&gt;Node26 -->
<g id="edge31" class="edge">
<title>Node25&#45;&gt;Node26</title>
<path fill="none" stroke="#63b8ff" d="M1685,-54.75C1685,-48.27 1685,-39.16 1685,-30.9"/>
<polygon fill="#63b8ff" stroke="#63b8ff" points="1688.5,-30.96 1685,-20.96 1681.5,-30.96 1688.5,-30.96"/>
</g>
<!-- Node27&#45;&gt;Node3 -->
<g id="edge34" class="edge">
<title>Node27&#45;&gt;Node3</title>
<path fill="none" stroke="#63b8ff" d="M1772.55,-74.04C1472.3,-100.06 1111.27,-112.81 971.33,-116.94"/>
<polygon fill="#63b8ff" stroke="#63b8ff" points="971.46,-113.44 961.57,-117.23 971.67,-120.43 971.46,-113.44"/>
</g>
<!-- Node28 -->
<g id="node28" class="node">
<title>Node28</title>
<g id="a_node28"><a xlink:title=" ">
<polygon fill="#e0e0e0" stroke="#999999" points="1857,-19 1811,-19 1811,0 1857,0 1857,-19"/>
<text text-anchor="middle" x="1834" y="-7" font-family="Helvetica,sans-Serif" font-size="10.00">math.h</text>
</a>
</g>
</g>
<!-- Node27&#45;&gt;Node28 -->
<g id="edge35" class="edge">
<title>Node27&#45;&gt;Node28</title>
<path fill="none" stroke="#63b8ff" d="M1834,-54.75C1834,-48.27 1834,-39.16 1834,-30.9"/>
<polygon fill="#63b8ff" stroke="#63b8ff" points="1837.5,-30.96 1834,-20.96 1830.5,-30.96 1837.5,-30.96"/>
</g>
<!-- Node29&#45;&gt;Node30 -->
<g id="edge38" class="edge">
<title>Node29&#45;&gt;Node30</title>
<path fill="none" stroke="#63b8ff" d="M1104.78,-219.51C1119.02,-211.39 1140.24,-199.3 1156.83,-189.85"/>
<polygon fill="#63b8ff" stroke="#63b8ff" points="1158.19,-193.1 1165.14,-185.11 1154.72,-187.02 1158.19,-193.1"/>
</g>
<!-- Node30&#45;&gt;Node3 -->
<g id="edge39" class="edge">
<title>Node30&#45;&gt;Node3</title>
<path fill="none" stroke="#63b8ff" d="M1136.2,-164.51C1090,-155.44 1018.57,-141.42 968.79,-131.65"/>
<polygon fill="#63b8ff" stroke="#63b8ff" points="969.55,-128.23 959.06,-129.74 968.2,-135.1 969.55,-128.23"/>
</g>
<!-- Node31&#45;&gt;Node30 -->
<g id="edge41" class="edge">
<title>Node31&#45;&gt;Node30</title>
<path fill="none" stroke="#63b8ff" d="M1220.4,-219.75C1214.12,-212.5 1204.99,-201.98 1197.2,-193.02"/>
<polygon fill="#63b8ff" stroke="#63b8ff" points="1199.95,-190.84 1190.75,-185.59 1194.66,-195.43 1199.95,-190.84"/>
</g>
</g>
</svg>
        <g id="navigator" transform="translate(0 0)" fill="#404254">
                <rect fill="#f2f5e9" fill-opacity="0.5" stroke="#606060" stroke-width=".5" x="0" y="0" width="60" height="60"/>
                <use id="zoomplus" xlink:href="#zoomPlus" x="17" y="9" onmousedown="handleZoom(evt,'in')"/>
                <use id="zoomminus" xlink:href="#zoomMin" x="42" y="9" onmousedown="handleZoom(evt,'out')"/>
                <use id="reset" xlink:href="#resetDef" x="30" y="36" onmousedown="handleReset()"/>
                <g id="arrowUp" xlink:href="#dirArrow" transform="translate(30 24)" onmousedown="handlePan(0,-1)">
                  <use xlink:href="#rim" fill="#404040">
                        <set attributeName="fill" to="#808080" begin="arrowUp.mouseover" end="arrowUp.mouseout"/>
                  </use>
                  <path fill="none" stroke="white" stroke-width="1.5" d="M0,-3.0v7 M-2.5,-0.5L0,-3.0L2.5,-0.5"/>
                </g>
                <g id="arrowRight" xlink:href="#dirArrow" transform="rotate(90) translate(36 -43)" onmousedown="handlePan(1,0)">
                  <use xlink:href="#rim" fill="#404040">
                        <set attributeName="fill" to="#808080" begin="arrowRight.mouseover" end="arrowRight.mouseout"/>
                  </use>
                  <path fill="none" stroke="white" stroke-width="1.5" d="M0,-3.0v7 M-2.5,-0.5L0,-3.0L2.5,-0.5"/>
                </g>
                <g id="arrowDown" xlink:href="#dirArrow" transform="rotate(180) translate(-30 -48)" onmousedown="handlePan(0,1)">
                  <use xlink:href="#rim" fill="#404040">
                        <set attributeName="fill" to="#808080" begin="arrowDown.mouseover" end="arrowDown.mouseout"/>
                  </use>
                  <path fill="none" stroke="white" stroke-width="1.5" d="M0,-3.0v7 M-2.5,-0.5L0,-3.0L2.5,-0.5"/>
                </g>
                <g id="arrowLeft" xlink:href="#dirArrow" transform="rotate(270) translate(-36 17)" onmousedown="handlePan(-1,0)">
                  <use xlink:href="#rim" fill="#404040">
                        <set attributeName="fill" to="#808080" begin="arrowLeft.mouseover" end="arrowLeft.mouseout"/>
                  </use>
                  <path fill="none" stroke="white" stroke-width="1.5" d="M0,-3.0v7 M-2.5,-0.5L0,-3.0L2.5,-0.5"/>
                </g>
        </g>
        <svg viewBox="0 0 15 15" width="100%" height="30px" preserveAspectRatio="xMaxYMin meet">
         <g id="arrow_out" transform="scale(0.3 0.3)">
          <a xlink:href="include_8hpp__incl_org.svg" target="_base">
           <rect id="button" ry="5" rx="5" y="6" x="6" height="38" width="38"
                fill="#f2f5e9" fill-opacity="0.5" stroke="#606060" stroke-width="1.0"/>
           <path id="arrow"
             d="M 11.500037,31.436501 C 11.940474,20.09759 22.043105,11.32322 32.158766,21.979434 L 37.068811,17.246167 C 37.068811,17.246167 37.088388,32 37.088388,32 L 22.160133,31.978069 C 22.160133,31.978069 26.997745,27.140456 26.997745,27.140456 C 18.528582,18.264221 13.291696,25.230495 11.500037,31.436501 z"
             style="fill:#404040;"/>
          </a>
         </g>
        </svg>
</svg>
