<?xml version="1.0" encoding="UTF-8" standalone="no"?>
<!DOCTYPE svg PUBLIC "-//W3C//DTD SVG 1.1//EN"
 "http://www.w3.org/Graphics/SVG/1.1/DTD/svg11.dtd">
<!-- Generated by graphviz version 7.0.5 (20221223.1930)
 -->
<!-- Title: /github/workspace/client/include/include.hpp Pages: 1 -->
<svg width="1723pt" height="368pt"
 viewBox="0.00 0.00 1722.76 368.00" xmlns="http://www.w3.org/2000/svg" xmlns:xlink="http://www.w3.org/1999/xlink">
<g id="graph0" class="graph" transform="scale(1 1) rotate(0) translate(4 364)">
<title>/github/workspace/client/include/include.hpp</title>
<!-- Node1 -->
<g id="node1" class="node">
<title>Node1</title>
<g id="a_node1"><a xlink:title=" ">
<polygon fill="#999999" stroke="#666666" points="993.76,-360 871.76,-360 871.76,-330 993.76,-330 993.76,-360"/>
<text text-anchor="start" x="879.76" y="-348" font-family="Helvetica,sans-Serif" font-size="10.00">/github/workspace/client</text>
<text text-anchor="middle" x="932.76" y="-337" font-family="Helvetica,sans-Serif" font-size="10.00">/include/include.hpp</text>
</a>
</g>
</g>
<!-- Node2 -->
<g id="node2" class="node">
<title>Node2</title>
<g id="a_node2"><a xlink:href="Bonus_8hpp.html" target="_top" xlink:title=" ">
<polygon fill="white" stroke="#666666" points="948.76,-294 828.76,-294 828.76,-275 948.76,-275 948.76,-294"/>
<text text-anchor="middle" x="888.76" y="-282" font-family="Helvetica,sans-Serif" font-size="10.00">Components/Bonus.hpp</text>
</a>
</g>
</g>
<!-- Node1&#45;&gt;Node2 -->
<g id="edge1" class="edge">
<title>Node1&#45;&gt;Node2</title>
<path fill="none" stroke="#63b8ff" d="M921.89,-329.54C915.89,-321.56 908.39,-311.59 902.05,-303.16"/>
<polygon fill="#63b8ff" stroke="#63b8ff" points="905.01,-301.27 896.2,-295.38 899.41,-305.48 905.01,-301.27"/>
</g>
<!-- Node3 -->
<g id="node3" class="node">
<title>Node3</title>
<g id="a_node3"><a xlink:href="Engine_8hpp.html" target="_top" xlink:title=" ">
<polygon fill="white" stroke="#666666" points="892.76,-239 796.76,-239 796.76,-220 892.76,-220 892.76,-239"/>
<text text-anchor="middle" x="844.76" y="-227" font-family="Helvetica,sans-Serif" font-size="10.00">Engine/Engine.hpp</text>
</a>
</g>
</g>
<!-- Node1&#45;&gt;Node3 -->
<g id="edge44" class="edge">
<title>Node1&#45;&gt;Node3</title>
<path fill="none" stroke="#63b8ff" d="M871.36,-331.07C851.47,-323.66 831.53,-312.07 819.76,-294 810.4,-279.62 819.64,-261.18 829.42,-247.88"/>
<polygon fill="#63b8ff" stroke="#63b8ff" points="831.89,-250.4 835.44,-240.42 826.44,-246.01 831.89,-250.4"/>
</g>
<!-- Node20 -->
<g id="node20" class="node">
<title>Node20</title>
<g id="a_node20"><a xlink:href="EntitiesManager_8hpp.html" target="_top" xlink:title=" ">
<polygon fill="white" stroke="#666666" points="168.76,-184 28.76,-184 28.76,-165 168.76,-165 168.76,-184"/>
<text text-anchor="middle" x="98.76" y="-172" font-family="Helvetica,sans-Serif" font-size="10.00">Entities/EntitiesManager.hpp</text>
</a>
</g>
</g>
<!-- Node1&#45;&gt;Node20 -->
<g id="edge46" class="edge">
<title>Node1&#45;&gt;Node20</title>
<path fill="none" stroke="#63b8ff" d="M871.44,-331.61C715.26,-300.06 304.29,-217.02 154.45,-186.75"/>
<polygon fill="#63b8ff" stroke="#63b8ff" points="155.26,-183.34 144.76,-184.79 153.87,-190.2 155.26,-183.34"/>
</g>
<!-- Node27 -->
<g id="node27" class="node">
<title>Node27</title>
<g id="a_node27"><a xlink:href="Bullets_8hpp.html" target="_top" xlink:title=" ">
<polygon fill="white" stroke="#666666" points="1714.76,-184 1592.76,-184 1592.76,-165 1714.76,-165 1714.76,-184"/>
<text text-anchor="middle" x="1653.76" y="-172" font-family="Helvetica,sans-Serif" font-size="10.00">Components/Bullets.hpp</text>
</a>
</g>
</g>
<!-- Node1&#45;&gt;Node27 -->
<g id="edge43" class="edge">
<title>Node1&#45;&gt;Node27</title>
<path fill="none" stroke="#63b8ff" d="M941.46,-329.7C952.11,-313.54 971.73,-287.84 995.76,-275 1021.48,-261.27 1415.76,-207.33 1581.38,-185.13"/>
<polygon fill="#63b8ff" stroke="#63b8ff" points="1581.48,-188.64 1590.93,-183.85 1580.55,-181.71 1581.48,-188.64"/>
</g>
<!-- Node30 -->
<g id="node30" class="node">
<title>Node30</title>
<g id="a_node30"><a xlink:href="Actors_8hpp.html" target="_top" xlink:title=" ">
<polygon fill="white" stroke="#666666" points="1102.76,-294 1004.76,-294 1004.76,-275 1102.76,-275 1102.76,-294"/>
<text text-anchor="middle" x="1053.76" y="-282" font-family="Helvetica,sans-Serif" font-size="10.00">Entities/Actors.hpp</text>
</a>
</g>
</g>
<!-- Node1&#45;&gt;Node30 -->
<g id="edge45" class="edge">
<title>Node1&#45;&gt;Node30</title>
<path fill="none" stroke="#63b8ff" d="M962.67,-329.54C981.75,-320.32 1006.32,-308.44 1025.14,-299.34"/>
<polygon fill="#63b8ff" stroke="#63b8ff" points="1026.63,-302.51 1034.1,-295 1023.58,-296.21 1026.63,-302.51"/>
</g>
<!-- Node31 -->
<g id="node31" class="node">
<title>Node31</title>
<g id="a_node31"><a xlink:href="ParticulesManager_8hpp.html" target="_top" xlink:title=" ">
<polygon fill="white" stroke="#666666" points="1272.26,-294 1121.26,-294 1121.26,-275 1272.26,-275 1272.26,-294"/>
<text text-anchor="middle" x="1196.76" y="-282" font-family="Helvetica,sans-Serif" font-size="10.00">Entities/ParticulesManager.hpp</text>
</a>
</g>
</g>
<!-- Node1&#45;&gt;Node31 -->
<g id="edge47" class="edge">
<title>Node1&#45;&gt;Node31</title>
<path fill="none" stroke="#63b8ff" d="M994,-330.43C1039.86,-320.27 1101.9,-306.52 1145.24,-296.92"/>
<polygon fill="#63b8ff" stroke="#63b8ff" points="1145.9,-300.36 1154.9,-294.78 1144.38,-293.52 1145.9,-300.36"/>
</g>
<!-- Node2&#45;&gt;Node3 -->
<g id="edge2" class="edge">
<title>Node2&#45;&gt;Node3</title>
<path fill="none" stroke="#63b8ff" d="M881.5,-274.75C875.48,-267.5 866.75,-256.98 859.31,-248.02"/>
<polygon fill="#63b8ff" stroke="#63b8ff" points="862.24,-246.07 853.15,-240.61 856.85,-250.54 862.24,-246.07"/>
</g>
<!-- Node4 -->
<g id="node4" class="node">
<title>Node4</title>
<g id="a_node4"><a xlink:title=" ">
<polygon fill="#e0e0e0" stroke="#999999" points="1180.26,-184 1091.26,-184 1091.26,-165 1180.26,-165 1180.26,-184"/>
<text text-anchor="middle" x="1135.76" y="-172" font-family="Helvetica,sans-Serif" font-size="10.00">SFML/Audio.hpp</text>
</a>
</g>
</g>
<!-- Node3&#45;&gt;Node4 -->
<g id="edge3" class="edge">
<title>Node3&#45;&gt;Node4</title>
<path fill="none" stroke="#63b8ff" d="M893.14,-219.69C944.6,-210.32 1025.86,-195.52 1079.98,-185.66"/>
<polygon fill="#63b8ff" stroke="#63b8ff" points="1080.39,-189.14 1089.61,-183.91 1079.14,-182.26 1080.39,-189.14"/>
</g>
<!-- Node5 -->
<g id="node5" class="node">
<title>Node5</title>
<g id="a_node5"><a xlink:title=" ">
<polygon fill="#e0e0e0" stroke="#999999" points="1574.76,-184 1470.76,-184 1470.76,-165 1574.76,-165 1574.76,-184"/>
<text text-anchor="middle" x="1522.76" y="-172" font-family="Helvetica,sans-Serif" font-size="10.00">SFML/Graphics.hpp</text>
</a>
</g>
</g>
<!-- Node3&#45;&gt;Node5 -->
<g id="edge4" class="edge">
<title>Node3&#45;&gt;Node5</title>
<path fill="none" stroke="#63b8ff" d="M893.02,-225.02C1025.56,-215.48 1389.51,-189.26 1459.15,-183.93"/>
<polygon fill="#63b8ff" stroke="#63b8ff" points="1459.35,-187.42 1469.04,-183.13 1458.79,-180.45 1459.35,-187.42"/>
</g>
<!-- Node6 -->
<g id="node6" class="node">
<title>Node6</title>
<g id="a_node6"><a xlink:title=" ">
<polygon fill="#e0e0e0" stroke="#999999" points="288.26,-184 187.26,-184 187.26,-165 288.26,-165 288.26,-184"/>
<text text-anchor="middle" x="237.76" y="-172" font-family="Helvetica,sans-Serif" font-size="10.00">SFML/Network.hpp</text>
</a>
</g>
</g>
<!-- Node3&#45;&gt;Node6 -->
<g id="edge5" class="edge">
<title>Node3&#45;&gt;Node6</title>
<path fill="none" stroke="#63b8ff" d="M796.29,-225.58C702.47,-219.7 489.32,-205.28 299.88,-184.29"/>
<polygon fill="#63b8ff" stroke="#63b8ff" points="300.42,-180.83 290.09,-183.19 299.64,-187.78 300.42,-180.83"/>
</g>
<!-- Node7 -->
<g id="node7" class="node">
<title>Node7</title>
<g id="a_node7"><a xlink:title=" ">
<polygon fill="#e0e0e0" stroke="#999999" points="405.26,-184 306.26,-184 306.26,-165 405.26,-165 405.26,-184"/>
<text text-anchor="middle" x="355.76" y="-172" font-family="Helvetica,sans-Serif" font-size="10.00">SFML/Window.hpp</text>
</a>
</g>
</g>
<!-- Node3&#45;&gt;Node7 -->
<g id="edge6" class="edge">
<title>Node3&#45;&gt;Node7</title>
<path fill="none" stroke="#63b8ff" d="M796.33,-224.12C718.66,-216.97 561.19,-201.89 416.89,-184.21"/>
<polygon fill="#63b8ff" stroke="#63b8ff" points="417.49,-180.76 407.14,-183.01 416.64,-187.71 417.49,-180.76"/>
</g>
<!-- Node8 -->
<g id="node8" class="node">
<title>Node8</title>
<g id="a_node8"><a xlink:title=" ">
<polygon fill="#e0e0e0" stroke="#999999" points="521.76,-184 423.76,-184 423.76,-165 521.76,-165 521.76,-184"/>
<text text-anchor="middle" x="472.76" y="-172" font-family="Helvetica,sans-Serif" font-size="10.00">SFML/System.hpp</text>
</a>
</g>
</g>
<!-- Node3&#45;&gt;Node8 -->
<g id="edge7" class="edge">
<title>Node3&#45;&gt;Node8</title>
<path fill="none" stroke="#63b8ff" d="M796.51,-221.63C729.15,-212.03 606.94,-194.62 533.47,-184.15"/>
<polygon fill="#63b8ff" stroke="#63b8ff" points="534.01,-180.69 523.61,-182.74 533.02,-187.62 534.01,-180.69"/>
</g>
<!-- Node9 -->
<g id="node9" class="node">
<title>Node9</title>
<g id="a_node9"><a xlink:title=" ">
<polygon fill="#e0e0e0" stroke="#999999" points="327.76,-19 273.76,-19 273.76,0 327.76,0 327.76,-19"/>
<text text-anchor="middle" x="300.76" y="-7" font-family="Helvetica,sans-Serif" font-size="10.00">iostream</text>
</a>
</g>
</g>
<!-- Node3&#45;&gt;Node9 -->
<g id="edge8" class="edge">
<title>Node3&#45;&gt;Node9</title>
<path fill="none" stroke="#63b8ff" d="M796.3,-224.74C745.72,-219.68 664.74,-208.31 598.76,-184 486.77,-142.73 368.48,-60.51 321.62,-26.15"/>
<polygon fill="#63b8ff" stroke="#63b8ff" points="323.83,-23.43 313.71,-20.3 319.66,-29.06 323.83,-23.43"/>
</g>
<!-- Node10 -->
<g id="node10" class="node">
<title>Node10</title>
<g id="a_node10"><a xlink:title=" ">
<polygon fill="#e0e0e0" stroke="#999999" points="665.76,-184 615.76,-184 615.76,-165 665.76,-165 665.76,-184"/>
<text text-anchor="middle" x="640.76" y="-172" font-family="Helvetica,sans-Serif" font-size="10.00">fstream</text>
</a>
</g>
</g>
<!-- Node3&#45;&gt;Node10 -->
<g id="edge9" class="edge">
<title>Node3&#45;&gt;Node10</title>
<path fill="none" stroke="#63b8ff" d="M810.16,-219.51C773.18,-209.9 714.79,-194.73 677.14,-184.95"/>
<polygon fill="#63b8ff" stroke="#63b8ff" points="678.19,-181.61 667.64,-182.48 676.43,-188.38 678.19,-181.61"/>
</g>
<!-- Node11 -->
<g id="node11" class="node">
<title>Node11</title>
<g id="a_node11"><a xlink:title=" ">
<polygon fill="#e0e0e0" stroke="#999999" points="725.26,-184 684.26,-184 684.26,-165 725.26,-165 725.26,-184"/>
<text text-anchor="middle" x="704.76" y="-172" font-family="Helvetica,sans-Serif" font-size="10.00">string</text>
</a>
</g>
</g>
<!-- Node3&#45;&gt;Node11 -->
<g id="edge10" class="edge">
<title>Node3&#45;&gt;Node11</title>
<path fill="none" stroke="#63b8ff" d="M821.02,-219.51C797.64,-210.66 761.8,-197.09 736.1,-187.36"/>
<polygon fill="#63b8ff" stroke="#63b8ff" points="737.44,-184.13 726.85,-183.86 734.96,-190.67 737.44,-184.13"/>
</g>
<!-- Node12 -->
<g id="node12" class="node">
<title>Node12</title>
<g id="a_node12"><a xlink:title=" ">
<polygon fill="#e0e0e0" stroke="#999999" points="793.76,-184 743.76,-184 743.76,-165 793.76,-165 793.76,-184"/>
<text text-anchor="middle" x="768.76" y="-172" font-family="Helvetica,sans-Serif" font-size="10.00">unistd.h</text>
</a>
</g>
</g>
<!-- Node3&#45;&gt;Node12 -->
<g id="edge11" class="edge">
<title>Node3&#45;&gt;Node12</title>
<path fill="none" stroke="#63b8ff" d="M831.87,-219.51C820.67,-211.7 804.19,-200.21 790.89,-190.93"/>
<polygon fill="#63b8ff" stroke="#63b8ff" points="792.91,-188.07 782.71,-185.22 788.91,-193.81 792.91,-188.07"/>
</g>
<!-- Node13 -->
<g id="node13" class="node">
<title>Node13</title>
<g id="a_node13"><a xlink:title=" ">
<polygon fill="#e0e0e0" stroke="#999999" points="877.26,-184 812.26,-184 812.26,-165 877.26,-165 877.26,-184"/>
<text text-anchor="middle" x="844.76" y="-172" font-family="Helvetica,sans-Serif" font-size="10.00">sys/types.h</text>
</a>
</g>
</g>
<!-- Node3&#45;&gt;Node13 -->
<g id="edge12" class="edge">
<title>Node3&#45;&gt;Node13</title>
<path fill="none" stroke="#63b8ff" d="M844.76,-219.75C844.76,-213.27 844.76,-204.16 844.76,-195.9"/>
<polygon fill="#63b8ff" stroke="#63b8ff" points="848.26,-195.96 844.76,-185.96 841.26,-195.96 848.26,-195.96"/>
</g>
<!-- Node14 -->
<g id="node14" class="node">
<title>Node14</title>
<g id="a_node14"><a xlink:title=" ">
<polygon fill="#e0e0e0" stroke="#999999" points="60.76,-19 16.76,-19 16.76,0 60.76,0 60.76,-19"/>
<text text-anchor="middle" x="38.76" y="-7" font-family="Helvetica,sans-Serif" font-size="10.00">vector</text>
</a>
</g>
</g>
<!-- Node3&#45;&gt;Node14 -->
<g id="edge13" class="edge">
<title>Node3&#45;&gt;Node14</title>
<path fill="none" stroke="#63b8ff" d="M796.52,-227.71C624.01,-224.65 46.6,-212.32 19.76,-184 -20.48,-141.53 10.8,-64.41 28.6,-29.08"/>
<polygon fill="#63b8ff" stroke="#63b8ff" points="31.55,-31 33.09,-20.52 25.35,-27.75 31.55,-31"/>
</g>
<!-- Node15 -->
<g id="node15" class="node">
<title>Node15</title>
<g id="a_node15"><a xlink:title=" ">
<polygon fill="#e0e0e0" stroke="#999999" points="953.76,-184 895.76,-184 895.76,-165 953.76,-165 953.76,-184"/>
<text text-anchor="middle" x="924.76" y="-172" font-family="Helvetica,sans-Serif" font-size="10.00">exception</text>
</a>
</g>
</g>
<!-- Node3&#45;&gt;Node15 -->
<g id="edge14" class="edge">
<title>Node3&#45;&gt;Node15</title>
<path fill="none" stroke="#63b8ff" d="M858.34,-219.51C870.25,-211.62 887.81,-199.98 901.89,-190.65"/>
<polygon fill="#63b8ff" stroke="#63b8ff" points="903.73,-193.63 910.13,-185.19 899.86,-187.8 903.73,-193.63"/>
</g>
<!-- Node16 -->
<g id="node16" class="node">
<title>Node16</title>
<g id="a_node16"><a xlink:href="Window_8hpp.html" target="_top" xlink:title=" ">
<polygon fill="white" stroke="#666666" points="1073.26,-184 972.26,-184 972.26,-165 1073.26,-165 1073.26,-184"/>
<text text-anchor="middle" x="1022.76" y="-172" font-family="Helvetica,sans-Serif" font-size="10.00">Engine/Window.hpp</text>
</a>
</g>
</g>
<!-- Node3&#45;&gt;Node16 -->
<g id="edge15" class="edge">
<title>Node3&#45;&gt;Node16</title>
<path fill="none" stroke="#63b8ff" d="M869.74,-219.51C897.52,-210.69 942.7,-197.18 976.85,-187.46"/>
<polygon fill="#63b8ff" stroke="#63b8ff" points="977.38,-190.95 986.05,-184.86 975.48,-184.21 977.38,-190.95"/>
</g>
<!-- Node17 -->
<g id="node17" class="node">
<title>Node17</title>
<g id="a_node17"><a xlink:href="Event_8hpp.html" target="_top" xlink:title=" ">
<polygon fill="white" stroke="#666666" points="1290.76,-184 1198.76,-184 1198.76,-165 1290.76,-165 1290.76,-184"/>
<text text-anchor="middle" x="1244.76" y="-172" font-family="Helvetica,sans-Serif" font-size="10.00">Engine/Event.hpp</text>
</a>
</g>
</g>
<!-- Node3&#45;&gt;Node17 -->
<g id="edge17" class="edge">
<title>Node3&#45;&gt;Node17</title>
<path fill="none" stroke="#63b8ff" d="M893.19,-221.87C958.58,-213.52 1078.37,-198.51 1180.76,-184 1182.79,-183.71 1184.86,-183.41 1186.96,-183.11"/>
<polygon fill="#63b8ff" stroke="#63b8ff" points="1187.44,-186.58 1196.82,-181.65 1186.42,-179.65 1187.44,-186.58"/>
</g>
<!-- Node3&#45;&gt;Node20 -->
<g id="edge21" class="edge">
<title>Node3&#45;&gt;Node20</title>
<path fill="none" stroke="#63b8ff" d="M796.5,-226.2C687.2,-220.54 412.78,-204.98 180.49,-185.01"/>
<polygon fill="#63b8ff" stroke="#63b8ff" points="180.88,-181.54 170.62,-184.16 180.28,-188.51 180.88,-181.54"/>
</g>
<!-- Node3&#45;&gt;Node27 -->
<g id="edge37" class="edge">
<title>Node3&#45;&gt;Node27</title>
<path fill="none" stroke="#63b8ff" d="M893.26,-224.23C912.13,-222.83 933.88,-221.29 953.76,-220 1229.65,-202.07 1299.4,-208.68 1574.76,-184 1576.91,-183.81 1579.1,-183.6 1581.31,-183.38"/>
<polygon fill="#63b8ff" stroke="#63b8ff" points="1581.4,-186.89 1590.99,-182.38 1580.68,-179.93 1581.4,-186.89"/>
</g>
<!-- Node29 -->
<g id="node29" class="node">
<title>Node29</title>
<g id="a_node29"><a xlink:href="Background_8hpp.html" target="_top" xlink:title=" ">
<polygon fill="white" stroke="#666666" points="1452.76,-184 1308.76,-184 1308.76,-165 1452.76,-165 1452.76,-184"/>
<text text-anchor="middle" x="1380.76" y="-172" font-family="Helvetica,sans-Serif" font-size="10.00">Components/Background.hpp</text>
</a>
</g>
</g>
<!-- Node3&#45;&gt;Node29 -->
<g id="edge41" class="edge">
<title>Node3&#45;&gt;Node29</title>
<path fill="none" stroke="#63b8ff" d="M893.02,-223.35C974.91,-215.18 1145.86,-198.69 1290.76,-184 1292.93,-183.78 1295.12,-183.56 1297.34,-183.33"/>
<polygon fill="#63b8ff" stroke="#63b8ff" points="1297.48,-186.84 1307.07,-182.33 1296.76,-179.87 1297.48,-186.84"/>
</g>
<!-- Node16&#45;&gt;Node3 -->
<g id="edge16" class="edge">
<title>Node16&#45;&gt;Node3</title>
<path fill="none" stroke="#63b8ff" d="M997.93,-184.45C970.21,-193.25 925.04,-206.76 890.85,-216.49"/>
<polygon fill="#63b8ff" stroke="#63b8ff" points="890.3,-213.01 881.63,-219.1 892.21,-219.75 890.3,-213.01"/>
</g>
<!-- Node17&#45;&gt;Node3 -->
<g id="edge18" class="edge">
<title>Node17&#45;&gt;Node3</title>
<path fill="none" stroke="#63b8ff" d="M1198.45,-184.05C1095.42,-198.64 974.88,-213.74 904.37,-222.04"/>
<polygon fill="#63b8ff" stroke="#63b8ff" points="904.1,-218.55 894.57,-223.19 904.91,-225.5 904.1,-218.55"/>
</g>
<!-- Node18 -->
<g id="node18" class="node">
<title>Node18</title>
<g id="a_node18"><a xlink:title=" ">
<polygon fill="#e0e0e0" stroke="#999999" points="1232.26,-129 1203.26,-129 1203.26,-110 1232.26,-110 1232.26,-129"/>
<text text-anchor="middle" x="1217.76" y="-117" font-family="Helvetica,sans-Serif" font-size="10.00">list</text>
</a>
</g>
</g>
<!-- Node17&#45;&gt;Node18 -->
<g id="edge19" class="edge">
<title>Node17&#45;&gt;Node18</title>
<path fill="none" stroke="#63b8ff" d="M1240.31,-164.75C1236.81,-157.88 1231.82,-148.08 1227.42,-139.45"/>
<polygon fill="#63b8ff" stroke="#63b8ff" points="1230.66,-138.11 1223.01,-130.79 1224.43,-141.29 1230.66,-138.11"/>
</g>
<!-- Node19 -->
<g id="node19" class="node">
<title>Node19</title>
<g id="a_node19"><a xlink:title=" ">
<polygon fill="#e0e0e0" stroke="#999999" points="1293.26,-129 1250.26,-129 1250.26,-110 1293.26,-110 1293.26,-129"/>
<text text-anchor="middle" x="1271.76" y="-117" font-family="Helvetica,sans-Serif" font-size="10.00">queue</text>
</a>
</g>
</g>
<!-- Node17&#45;&gt;Node19 -->
<g id="edge20" class="edge">
<title>Node17&#45;&gt;Node19</title>
<path fill="none" stroke="#63b8ff" d="M1249.22,-164.75C1252.72,-157.88 1257.71,-148.08 1262.11,-139.45"/>
<polygon fill="#63b8ff" stroke="#63b8ff" points="1265.1,-141.29 1266.52,-130.79 1258.86,-138.11 1265.1,-141.29"/>
</g>
<!-- Node20&#45;&gt;Node3 -->
<g id="edge22" class="edge">
<title>Node20&#45;&gt;Node3</title>
<path fill="none" stroke="#63b8ff" d="M168.94,-182.33C174.99,-182.93 180.99,-183.5 186.76,-184 407.25,-203.21 669.37,-218.49 785.03,-225.04"/>
<polygon fill="#63b8ff" stroke="#63b8ff" points="784.73,-228.53 794.91,-225.6 785.12,-221.54 784.73,-228.53"/>
</g>
<!-- Node21 -->
<g id="node21" class="node">
<title>Node21</title>
<g id="a_node21"><a xlink:href="IComponents_8hpp.html" target="_top" xlink:title=" ">
<polygon fill="white" stroke="#666666" points="727.76,-129 577.76,-129 577.76,-110 727.76,-110 727.76,-129"/>
<text text-anchor="middle" x="652.76" y="-117" font-family="Helvetica,sans-Serif" font-size="10.00">Components/IComponents.hpp</text>
</a>
</g>
</g>
<!-- Node20&#45;&gt;Node21 -->
<g id="edge23" class="edge">
<title>Node20&#45;&gt;Node21</title>
<path fill="none" stroke="#63b8ff" d="M168.97,-165.9C171.94,-165.59 174.88,-165.29 177.76,-165 313.38,-151.35 470.92,-136.86 566.16,-128.25"/>
<polygon fill="#63b8ff" stroke="#63b8ff" points="566.31,-131.75 575.95,-127.37 565.68,-124.78 566.31,-131.75"/>
</g>
<!-- Node22 -->
<g id="node22" class="node">
<title>Node22</title>
<g id="a_node22"><a xlink:href="SparseArray_8hpp.html" target="_top" xlink:title=" ">
<polygon fill="white" stroke="#666666" points="206.26,-129 95.26,-129 95.26,-110 206.26,-110 206.26,-129"/>
<text text-anchor="middle" x="150.76" y="-117" font-family="Helvetica,sans-Serif" font-size="10.00">Utils/SparseArray.hpp</text>
</a>
</g>
</g>
<!-- Node20&#45;&gt;Node22 -->
<g id="edge25" class="edge">
<title>Node20&#45;&gt;Node22</title>
<path fill="none" stroke="#63b8ff" d="M107.35,-164.75C114.61,-157.35 125.22,-146.54 134.13,-137.45"/>
<polygon fill="#63b8ff" stroke="#63b8ff" points="136.43,-140.11 140.93,-130.52 131.43,-135.21 136.43,-140.11"/>
</g>
<!-- Node21&#45;&gt;Node3 -->
<g id="edge24" class="edge">
<title>Node21&#45;&gt;Node3</title>
<path fill="none" stroke="#63b8ff" d="M638.24,-129.4C619.57,-141.94 591.29,-165.36 606.76,-184 629.01,-210.79 722.16,-221.54 785.11,-225.8"/>
<polygon fill="#63b8ff" stroke="#63b8ff" points="784.78,-229.28 794.98,-226.42 785.22,-222.3 784.78,-229.28"/>
</g>
<!-- Node22&#45;&gt;Node9 -->
<g id="edge26" class="edge">
<title>Node22&#45;&gt;Node9</title>
<path fill="none" stroke="#63b8ff" d="M174.23,-109.61C193.18,-101.81 220.02,-89.33 240.76,-74 258.63,-60.8 275.69,-41.92 287.02,-28.18"/>
<polygon fill="#63b8ff" stroke="#63b8ff" points="289.72,-30.41 293.24,-20.42 284.26,-26.03 289.72,-30.41"/>
</g>
<!-- Node22&#45;&gt;Node14 -->
<g id="edge29" class="edge">
<title>Node22&#45;&gt;Node14</title>
<path fill="none" stroke="#63b8ff" d="M136.1,-109.65C122.95,-101.34 103.51,-88.1 88.76,-74 74.22,-60.09 60.28,-41.83 50.83,-28.47"/>
<polygon fill="#63b8ff" stroke="#63b8ff" points="53.96,-26.84 45.4,-20.6 48.2,-30.82 53.96,-26.84"/>
</g>
<!-- Node23 -->
<g id="node23" class="node">
<title>Node23</title>
<g id="a_node23"><a xlink:title=" ">
<polygon fill="#e0e0e0" stroke="#999999" points="135.76,-19 79.76,-19 79.76,0 135.76,0 135.76,-19"/>
<text text-anchor="middle" x="107.76" y="-7" font-family="Helvetica,sans-Serif" font-size="10.00">algorithm</text>
</a>
</g>
</g>
<!-- Node22&#45;&gt;Node23 -->
<g id="edge27" class="edge">
<title>Node22&#45;&gt;Node23</title>
<path fill="none" stroke="#63b8ff" d="M132.77,-109.57C119.83,-102.05 103.38,-89.96 95.76,-74 89.04,-59.9 93.18,-42.36 98.35,-29.29"/>
<polygon fill="#63b8ff" stroke="#63b8ff" points="101.38,-31.08 102.3,-20.53 95,-28.21 101.38,-31.08"/>
</g>
<!-- Node24 -->
<g id="node24" class="node">
<title>Node24</title>
<g id="a_node24"><a xlink:title=" ">
<polygon fill="#e0e0e0" stroke="#999999" points="194.76,-19 156.76,-19 156.76,0 194.76,0 194.76,-19"/>
<text text-anchor="middle" x="175.76" y="-7" font-family="Helvetica,sans-Serif" font-size="10.00">array</text>
</a>
</g>
</g>
<!-- Node22&#45;&gt;Node24 -->
<g id="edge28" class="edge">
<title>Node22&#45;&gt;Node24</title>
<path fill="none" stroke="#63b8ff" d="M168.76,-109.57C181.7,-102.05 198.15,-89.96 205.76,-74 213.29,-58.24 203,-40.24 192.48,-27.43"/>
<polygon fill="#63b8ff" stroke="#63b8ff" points="195.32,-25.36 186.04,-20.26 190.12,-30.04 195.32,-25.36"/>
</g>
<!-- Node25 -->
<g id="node25" class="node">
<title>Node25</title>
<g id="a_node25"><a xlink:title=" ">
<polygon fill="#e0e0e0" stroke="#999999" points="254.26,-19 215.26,-19 215.26,0 254.26,0 254.26,-19"/>
<text text-anchor="middle" x="234.76" y="-7" font-family="Helvetica,sans-Serif" font-size="10.00">utility</text>
</a>
</g>
</g>
<!-- Node22&#45;&gt;Node25 -->
<g id="edge30" class="edge">
<title>Node22&#45;&gt;Node25</title>
<path fill="none" stroke="#63b8ff" d="M174.48,-109.52C190.3,-102.31 210.24,-90.62 221.76,-74 230.61,-61.25 233.7,-43.8 234.66,-30.43"/>
<polygon fill="#63b8ff" stroke="#63b8ff" points="238.15,-30.76 235.01,-20.64 231.16,-30.52 238.15,-30.76"/>
</g>
<!-- Node26 -->
<g id="node26" class="node">
<title>Node26</title>
<g id="a_node26"><a xlink:href="Vectors_8hpp.html" target="_top" xlink:title=" ">
<polygon fill="white" stroke="#666666" points="196.76,-74 104.76,-74 104.76,-55 196.76,-55 196.76,-74"/>
<text text-anchor="middle" x="150.76" y="-62" font-family="Helvetica,sans-Serif" font-size="10.00">Utils/Vectors.hpp</text>
</a>
</g>
</g>
<!-- Node22&#45;&gt;Node26 -->
<g id="edge31" class="edge">
<title>Node22&#45;&gt;Node26</title>
<path fill="none" stroke="#63b8ff" d="M150.76,-109.75C150.76,-103.27 150.76,-94.16 150.76,-85.9"/>
<polygon fill="#63b8ff" stroke="#63b8ff" points="154.26,-85.96 150.76,-75.96 147.26,-85.96 154.26,-85.96"/>
</g>
<!-- Node26&#45;&gt;Node9 -->
<g id="edge32" class="edge">
<title>Node26&#45;&gt;Node9</title>
<path fill="none" stroke="#63b8ff" d="M176.21,-54.51C200.53,-45.92 237.42,-32.88 264.75,-23.22"/>
<polygon fill="#63b8ff" stroke="#63b8ff" points="265.76,-26.58 274.02,-19.95 263.42,-19.98 265.76,-26.58"/>
</g>
<!-- Node26&#45;&gt;Node14 -->
<g id="edge35" class="edge">
<title>Node26&#45;&gt;Node14</title>
<path fill="none" stroke="#63b8ff" d="M131.77,-54.51C114.2,-46.2 87.85,-33.73 67.67,-24.18"/>
<polygon fill="#63b8ff" stroke="#63b8ff" points="69.39,-21.12 58.85,-20.01 66.39,-27.45 69.39,-21.12"/>
</g>
<!-- Node26&#45;&gt;Node23 -->
<g id="edge33" class="edge">
<title>Node26&#45;&gt;Node23</title>
<path fill="none" stroke="#63b8ff" d="M143.66,-54.75C137.85,-47.58 129.43,-37.2 122.21,-28.3"/>
<polygon fill="#63b8ff" stroke="#63b8ff" points="124.99,-26.18 115.97,-20.62 119.56,-30.59 124.99,-26.18"/>
</g>
<!-- Node26&#45;&gt;Node24 -->
<g id="edge34" class="edge">
<title>Node26&#45;&gt;Node24</title>
<path fill="none" stroke="#63b8ff" d="M154.89,-54.75C158.09,-47.96 162.65,-38.3 166.69,-29.73"/>
<polygon fill="#63b8ff" stroke="#63b8ff" points="169.8,-31.35 170.9,-20.81 163.47,-28.36 169.8,-31.35"/>
</g>
<!-- Node26&#45;&gt;Node25 -->
<g id="edge36" class="edge">
<title>Node26&#45;&gt;Node25</title>
<path fill="none" stroke="#63b8ff" d="M165.01,-54.51C177.64,-46.54 196.32,-34.75 211.18,-25.38"/>
<polygon fill="#63b8ff" stroke="#63b8ff" points="212.86,-28.46 219.45,-20.17 209.12,-22.54 212.86,-28.46"/>
</g>
<!-- Node27&#45;&gt;Node3 -->
<g id="edge38" class="edge">
<title>Node27&#45;&gt;Node3</title>
<path fill="none" stroke="#63b8ff" d="M1592.36,-184.04C1317.34,-208.67 1247.51,-202.08 971.76,-220 949.87,-221.42 925.71,-223.14 904.33,-224.65"/>
<polygon fill="#63b8ff" stroke="#63b8ff" points="904.33,-221.14 894.61,-225.34 904.83,-228.13 904.33,-221.14"/>
</g>
<!-- Node27&#45;&gt;Node21 -->
<g id="edge39" class="edge">
<title>Node27&#45;&gt;Node21</title>
<path fill="none" stroke="#63b8ff" d="M1592.33,-165.78C1589.44,-165.5 1586.57,-165.24 1583.76,-165 1273.76,-138.8 904.28,-126.86 739.51,-122.53"/>
<polygon fill="#63b8ff" stroke="#63b8ff" points="739.61,-119.03 729.52,-122.27 739.43,-126.03 739.61,-119.03"/>
</g>
<!-- Node28 -->
<g id="node28" class="node">
<title>Node28</title>
<g id="a_node28"><a xlink:title=" ">
<polygon fill="#e0e0e0" stroke="#999999" points="1676.76,-129 1630.76,-129 1630.76,-110 1676.76,-110 1676.76,-129"/>
<text text-anchor="middle" x="1653.76" y="-117" font-family="Helvetica,sans-Serif" font-size="10.00">math.h</text>
</a>
</g>
</g>
<!-- Node27&#45;&gt;Node28 -->
<g id="edge40" class="edge">
<title>Node27&#45;&gt;Node28</title>
<path fill="none" stroke="#63b8ff" d="M1653.76,-164.75C1653.76,-158.27 1653.76,-149.16 1653.76,-140.9"/>
<polygon fill="#63b8ff" stroke="#63b8ff" points="1657.26,-140.96 1653.76,-130.96 1650.26,-140.96 1657.26,-140.96"/>
</g>
<!-- Node29&#45;&gt;Node3 -->
<g id="edge42" class="edge">
<title>Node29&#45;&gt;Node3</title>
<path fill="none" stroke="#63b8ff" d="M1308.32,-184.04C1163.5,-198.72 992.79,-215.2 904.37,-223.35"/>
<polygon fill="#63b8ff" stroke="#63b8ff" points="904.11,-219.86 894.47,-224.26 904.75,-226.83 904.11,-219.86"/>
</g>
</g>
</svg>
