<?xml version="1.0" encoding="UTF-8" standalone="no"?>
<!DOCTYPE svg PUBLIC "-//W3C//DTD SVG 1.1//EN"
 "http://www.w3.org/Graphics/SVG/1.1/DTD/svg11.dtd">
<!-- Generated by graphviz version 7.0.5 (20221223.1930)
 -->
<!-- Title: /github/workspace/client/include/include.hpp Pages: 1 -->
<!--zoomable 368 -->
<svg id="main" version="1.1" xmlns="http://www.w3.org/2000/svg" xmlns:xlink="http://www.w3.org/1999/xlink" xml:space="preserve" onload="init(evt)">
<style type="text/css"><![CDATA[
.edge:hover path { stroke: red; }
.edge:hover polygon { stroke: red; fill: red; }
]]></style>
<script type="text/javascript"><![CDATA[
var edges = document.getElementsByTagName('g');
if (edges && edges.length) {
  for (var i=0;i<edges.length;i++) {
    if (edges[i].id.substr(0,4)=='edge') {
      edges[i].setAttribute('class','edge');
    }
  }
}
]]></script>
        <defs>
                <circle id="rim" cx="0" cy="0" r="7"/>
                <circle id="rim2" cx="0" cy="0" r="3.5"/>
                <g id="zoomPlus">
                        <use xlink:href="#rim" fill="#404040">
                                <set attributeName="fill" to="#808080" begin="zoomplus.mouseover" end="zoomplus.mouseout"/>
                        </use>
                        <path d="M-4,0h8M0,-4v8" fill="none" stroke="white" stroke-width="1.5" pointer-events="none"/>
                </g>
                <g id="zoomMin">
                        <use xlink:href="#rim" fill="#404040">
                                <set attributeName="fill" to="#808080" begin="zoomminus.mouseover" end="zoomminus.mouseout"/>
                        </use>
                        <path d="M-4,0h8" fill="none" stroke="white" stroke-width="1.5" pointer-events="none"/>
                </g>
                <g id="dirArrow">
                        <path fill="none" stroke="white" stroke-width="1.5" d="M0,-3.0v7 M-2.5,-0.5L0,-3.0L2.5,-0.5"/>
                </g>
               <g id="resetDef">
                       <use xlink:href="#rim2" fill="#404040">
                               <set attributeName="fill" to="#808080" begin="reset.mouseover" end="reset.mouseout"/>
                       </use>
               </g>
        </defs>

<script type="text/javascript">
var viewWidth = 1879;
var viewHeight = 368;
var sectionId = 'dynsection-0';
</script>
<script xlink:href="svgpan.js"/>
<svg id="graph" class="graph">
<g id="viewport">
<title>/github/workspace/client/include/include.hpp</title>
<!-- Node1 -->
<g id="node1" class="node">
<title>Node1</title>
<g id="a_node1"><a xlink:title=" ">
<polygon fill="#999999" stroke="#666666" points="743,-360 621,-360 621,-330 743,-330 743,-360"/>
<text text-anchor="start" x="629" y="-348" font-family="Helvetica,sans-Serif" font-size="10.00">/github/workspace/client</text>
<text text-anchor="middle" x="682" y="-337" font-family="Helvetica,sans-Serif" font-size="10.00">/include/include.hpp</text>
</a>
</g>
</g>
<!-- Node2 -->
<g id="node2" class="node">
<title>Node2</title>
<g id="a_node2"><a xlink:href="Bonus_8hpp.html" target="_top" xlink:title=" ">
<polygon fill="white" stroke="#666666" points="786,-294 666,-294 666,-275 786,-275 786,-294"/>
<text text-anchor="middle" x="726" y="-282" font-family="Helvetica,sans-Serif" font-size="10.00">Components/Bonus.hpp</text>
</a>
</g>
</g>
<!-- Node1&#45;&gt;Node2 -->
<g id="edge1" class="edge">
<title>Node1&#45;&gt;Node2</title>
<path fill="none" stroke="#63b8ff" d="M692.88,-329.54C698.88,-321.56 706.37,-311.59 712.72,-303.16"/>
<polygon fill="#63b8ff" stroke="#63b8ff" points="715.35,-305.48 718.57,-295.38 709.76,-301.27 715.35,-305.48"/>
</g>
<!-- Node3 -->
<g id="node3" class="node">
<title>Node3</title>
<g id="a_node3"><a xlink:href="Engine_8hpp.html" target="_top" xlink:title=" ">
<polygon fill="white" stroke="#666666" points="905,-239 809,-239 809,-220 905,-220 905,-239"/>
<text text-anchor="middle" x="857" y="-227" font-family="Helvetica,sans-Serif" font-size="10.00">Engine/Engine.hpp</text>
</a>
</g>
</g>
<!-- Node1&#45;&gt;Node3 -->
<g id="edge47" class="edge">
<title>Node1&#45;&gt;Node3</title>
<path fill="none" stroke="#63b8ff" d="M669.35,-329.71C657.69,-314.74 644.01,-291.2 657,-275 674.36,-253.35 744.87,-241.56 797.29,-235.65"/>
<polygon fill="#63b8ff" stroke="#63b8ff" points="797.43,-239.16 807,-234.61 796.68,-232.2 797.43,-239.16"/>
</g>
<!-- Node23 -->
<g id="node23" class="node">
<title>Node23</title>
<g id="a_node23"><a xlink:href="EntitiesManager_8hpp.html" target="_top" xlink:title=" ">
<polygon fill="white" stroke="#666666" points="280,-184 140,-184 140,-165 280,-165 280,-184"/>
<text text-anchor="middle" x="210" y="-172" font-family="Helvetica,sans-Serif" font-size="10.00">Entities/EntitiesManager.hpp</text>
</a>
</g>
</g>
<!-- Node1&#45;&gt;Node23 -->
<g id="edge49" class="edge">
<title>Node1&#45;&gt;Node23</title>
<path fill="none" stroke="#63b8ff" d="M641.76,-329.63C551.08,-297.26 332,-219.05 245.75,-188.26"/>
<polygon fill="#63b8ff" stroke="#63b8ff" points="246.98,-184.98 236.38,-184.92 244.62,-191.58 246.98,-184.98"/>
</g>
<!-- Node30 -->
<g id="node30" class="node">
<title>Node30</title>
<g id="a_node30"><a xlink:href="Bullets_8hpp.html" target="_top" xlink:title=" ">
<polygon fill="white" stroke="#666666" points="122,-184 0,-184 0,-165 122,-165 122,-184"/>
<text text-anchor="middle" x="61" y="-172" font-family="Helvetica,sans-Serif" font-size="10.00">Components/Bullets.hpp</text>
</a>
</g>
</g>
<!-- Node1&#45;&gt;Node30 -->
<g id="edge46" class="edge">
<title>Node1&#45;&gt;Node30</title>
<path fill="none" stroke="#63b8ff" d="M626.97,-329.58C589.24,-319.66 538.06,-306.14 493,-294 350.39,-255.58 181.63,-208.95 104,-187.43"/>
<polygon fill="#63b8ff" stroke="#63b8ff" points="105.25,-184.15 94.68,-184.85 103.38,-190.89 105.25,-184.15"/>
</g>
<!-- Node33 -->
<g id="node33" class="node">
<title>Node33</title>
<g id="a_node33"><a xlink:href="Actors_8hpp.html" target="_top" xlink:title=" ">
<polygon fill="white" stroke="#666666" points="902,-294 804,-294 804,-275 902,-275 902,-294"/>
<text text-anchor="middle" x="853" y="-282" font-family="Helvetica,sans-Serif" font-size="10.00">Entities/Actors.hpp</text>
</a>
</g>
</g>
<!-- Node1&#45;&gt;Node33 -->
<g id="edge48" class="edge">
<title>Node1&#45;&gt;Node33</title>
<path fill="none" stroke="#63b8ff" d="M724.27,-329.54C752.52,-319.87 789.32,-307.29 816.33,-298.04"/>
<polygon fill="#63b8ff" stroke="#63b8ff" points="817.13,-301.47 825.46,-294.92 814.86,-294.85 817.13,-301.47"/>
</g>
<!-- Node34 -->
<g id="node34" class="node">
<title>Node34</title>
<g id="a_node34"><a xlink:href="ParticulesManager_8hpp.html" target="_top" xlink:title=" ">
<polygon fill="white" stroke="#666666" points="1071.5,-294 920.5,-294 920.5,-275 1071.5,-275 1071.5,-294"/>
<text text-anchor="middle" x="996" y="-282" font-family="Helvetica,sans-Serif" font-size="10.00">Entities/ParticulesManager.hpp</text>
</a>
</g>
</g>
<!-- Node1&#45;&gt;Node34 -->
<g id="edge50" class="edge">
<title>Node1&#45;&gt;Node34</title>
<path fill="none" stroke="#63b8ff" d="M743.29,-332.58C799.22,-322.16 881.37,-306.86 936.68,-296.55"/>
<polygon fill="#63b8ff" stroke="#63b8ff" points="937.04,-300.05 946.22,-294.77 935.75,-293.16 937.04,-300.05"/>
</g>
<!-- Node2&#45;&gt;Node3 -->
<g id="edge2" class="edge">
<title>Node2&#45;&gt;Node3</title>
<path fill="none" stroke="#63b8ff" d="M748.22,-274.51C769.14,-266.04 800.73,-253.27 824.48,-243.66"/>
<polygon fill="#63b8ff" stroke="#63b8ff" points="825.75,-246.92 833.7,-239.93 823.12,-240.43 825.75,-246.92"/>
</g>
<!-- Node4 -->
<g id="node4" class="node">
<title>Node4</title>
<g id="a_node4"><a xlink:title=" ">
<polygon fill="#e0e0e0" stroke="#999999" points="1748.5,-184 1659.5,-184 1659.5,-165 1748.5,-165 1748.5,-184"/>
<text text-anchor="middle" x="1704" y="-172" font-family="Helvetica,sans-Serif" font-size="10.00">SFML/Audio.hpp</text>
</a>
</g>
</g>
<!-- Node3&#45;&gt;Node4 -->
<g id="edge3" class="edge">
<title>Node3&#45;&gt;Node4</title>
<path fill="none" stroke="#63b8ff" d="M905.41,-227.47C1027.92,-224.5 1360.33,-214.2 1648.18,-184.07"/>
<polygon fill="#63b8ff" stroke="#63b8ff" points="1648.18,-187.59 1657.75,-183.06 1647.44,-180.63 1648.18,-187.59"/>
</g>
<!-- Node5 -->
<g id="node5" class="node">
<title>Node5</title>
<g id="a_node5"><a xlink:title=" ">
<polygon fill="#e0e0e0" stroke="#999999" points="1871,-184 1767,-184 1767,-165 1871,-165 1871,-184"/>
<text text-anchor="middle" x="1819" y="-172" font-family="Helvetica,sans-Serif" font-size="10.00">SFML/Graphics.hpp</text>
</a>
</g>
</g>
<!-- Node3&#45;&gt;Node5 -->
<g id="edge4" class="edge">
<title>Node3&#45;&gt;Node5</title>
<path fill="none" stroke="#63b8ff" d="M905.46,-227.62C1039.12,-224.89 1424.5,-214.81 1755.53,-184.14"/>
<polygon fill="#63b8ff" stroke="#63b8ff" points="1755.65,-187.64 1765.29,-183.23 1755,-180.67 1755.65,-187.64"/>
</g>
<!-- Node6 -->
<g id="node6" class="node">
<title>Node6</title>
<g id="a_node6"><a xlink:title=" ">
<polygon fill="#e0e0e0" stroke="#999999" points="475.5,-184 374.5,-184 374.5,-165 475.5,-165 475.5,-184"/>
<text text-anchor="middle" x="425" y="-172" font-family="Helvetica,sans-Serif" font-size="10.00">SFML/Network.hpp</text>
</a>
</g>
</g>
<!-- Node3&#45;&gt;Node6 -->
<g id="edge5" class="edge">
<title>Node3&#45;&gt;Node6</title>
<path fill="none" stroke="#63b8ff" d="M808.67,-223.11C739.66,-215.34 608.63,-200.27 487.18,-184.39"/>
<polygon fill="#63b8ff" stroke="#63b8ff" points="487.71,-180.93 477.34,-183.1 486.8,-187.87 487.71,-180.93"/>
</g>
<!-- Node7 -->
<g id="node7" class="node">
<title>Node7</title>
<g id="a_node7"><a xlink:title=" ">
<polygon fill="#e0e0e0" stroke="#999999" points="592.5,-184 493.5,-184 493.5,-165 592.5,-165 592.5,-184"/>
<text text-anchor="middle" x="543" y="-172" font-family="Helvetica,sans-Serif" font-size="10.00">SFML/Window.hpp</text>
</a>
</g>
</g>
<!-- Node3&#45;&gt;Node7 -->
<g id="edge6" class="edge">
<title>Node3&#45;&gt;Node7</title>
<path fill="none" stroke="#63b8ff" d="M808.63,-220.33C753.68,-211.06 663.91,-195.91 604.15,-185.82"/>
<polygon fill="#63b8ff" stroke="#63b8ff" points="604.92,-182.4 594.48,-184.19 603.76,-189.3 604.92,-182.4"/>
</g>
<!-- Node8 -->
<g id="node8" class="node">
<title>Node8</title>
<g id="a_node8"><a xlink:title=" ">
<polygon fill="#e0e0e0" stroke="#999999" points="709,-184 611,-184 611,-165 709,-165 709,-184"/>
<text text-anchor="middle" x="660" y="-172" font-family="Helvetica,sans-Serif" font-size="10.00">SFML/System.hpp</text>
</a>
</g>
</g>
<!-- Node3&#45;&gt;Node8 -->
<g id="edge7" class="edge">
<title>Node3&#45;&gt;Node8</title>
<path fill="none" stroke="#63b8ff" d="M823.58,-219.51C790.65,-210.65 740.16,-197.07 703.98,-187.33"/>
<polygon fill="#63b8ff" stroke="#63b8ff" points="705.28,-184.06 694.71,-184.84 703.46,-190.82 705.28,-184.06"/>
</g>
<!-- Node9 -->
<g id="node9" class="node">
<title>Node9</title>
<g id="a_node9"><a xlink:title=" ">
<polygon fill="#e0e0e0" stroke="#999999" points="673,-19 619,-19 619,0 673,0 673,-19"/>
<text text-anchor="middle" x="646" y="-7" font-family="Helvetica,sans-Serif" font-size="10.00">iostream</text>
</a>
</g>
</g>
<!-- Node3&#45;&gt;Node9 -->
<g id="edge8" class="edge">
<title>Node3&#45;&gt;Node9</title>
<path fill="none" stroke="#63b8ff" d="M824.25,-219.54C803.03,-212.49 775.76,-200.99 756,-184 704.26,-139.49 668.41,-64.57 653.6,-29.58"/>
<polygon fill="#63b8ff" stroke="#63b8ff" points="657.01,-28.67 649.97,-20.75 650.53,-31.33 657.01,-28.67"/>
</g>
<!-- Node10 -->
<g id="node10" class="node">
<title>Node10</title>
<g id="a_node10"><a xlink:title=" ">
<polygon fill="#e0e0e0" stroke="#999999" points="815,-184 765,-184 765,-165 815,-165 815,-184"/>
<text text-anchor="middle" x="790" y="-172" font-family="Helvetica,sans-Serif" font-size="10.00">fstream</text>
</a>
</g>
</g>
<!-- Node3&#45;&gt;Node10 -->
<g id="edge9" class="edge">
<title>Node3&#45;&gt;Node10</title>
<path fill="none" stroke="#63b8ff" d="M845.63,-219.51C835.95,-211.85 821.8,-200.66 810.19,-191.47"/>
<polygon fill="#63b8ff" stroke="#63b8ff" points="812.4,-188.76 802.38,-185.3 808.06,-194.25 812.4,-188.76"/>
</g>
<!-- Node11 -->
<g id="node11" class="node">
<title>Node11</title>
<g id="a_node11"><a xlink:title=" ">
<polygon fill="#e0e0e0" stroke="#999999" points="881,-184 833,-184 833,-165 881,-165 881,-184"/>
<text text-anchor="middle" x="857" y="-172" font-family="Helvetica,sans-Serif" font-size="10.00">string.h</text>
</a>
</g>
</g>
<!-- Node3&#45;&gt;Node11 -->
<g id="edge10" class="edge">
<title>Node3&#45;&gt;Node11</title>
<path fill="none" stroke="#63b8ff" d="M857,-219.75C857,-213.27 857,-204.16 857,-195.9"/>
<polygon fill="#63b8ff" stroke="#63b8ff" points="860.5,-195.96 857,-185.96 853.5,-195.96 860.5,-195.96"/>
</g>
<!-- Node12 -->
<g id="node12" class="node">
<title>Node12</title>
<g id="a_node12"><a xlink:title=" ">
<polygon fill="#e0e0e0" stroke="#999999" points="949,-184 899,-184 899,-165 949,-165 949,-184"/>
<text text-anchor="middle" x="924" y="-172" font-family="Helvetica,sans-Serif" font-size="10.00">unistd.h</text>
</a>
</g>
</g>
<!-- Node3&#45;&gt;Node12 -->
<g id="edge11" class="edge">
<title>Node3&#45;&gt;Node12</title>
<path fill="none" stroke="#63b8ff" d="M868.37,-219.51C878.05,-211.85 892.2,-200.66 903.81,-191.47"/>
<polygon fill="#63b8ff" stroke="#63b8ff" points="905.94,-194.25 911.62,-185.3 901.6,-188.76 905.94,-194.25"/>
</g>
<!-- Node13 -->
<g id="node13" class="node">
<title>Node13</title>
<g id="a_node13"><a xlink:title=" ">
<polygon fill="#e0e0e0" stroke="#999999" points="1032.5,-184 967.5,-184 967.5,-165 1032.5,-165 1032.5,-184"/>
<text text-anchor="middle" x="1000" y="-172" font-family="Helvetica,sans-Serif" font-size="10.00">sys/types.h</text>
</a>
</g>
</g>
<!-- Node3&#45;&gt;Node13 -->
<g id="edge12" class="edge">
<title>Node3&#45;&gt;Node13</title>
<path fill="none" stroke="#63b8ff" d="M881.26,-219.51C904.41,-210.93 939.51,-197.92 965.56,-188.27"/>
<polygon fill="#63b8ff" stroke="#63b8ff" points="966.52,-191.64 974.68,-184.88 964.09,-185.08 966.52,-191.64"/>
</g>
<!-- Node14 -->
<g id="node14" class="node">
<title>Node14</title>
<g id="a_node14"><a xlink:title=" ">
<polygon fill="#e0e0e0" stroke="#999999" points="406,-19 362,-19 362,0 406,0 406,-19"/>
<text text-anchor="middle" x="384" y="-7" font-family="Helvetica,sans-Serif" font-size="10.00">vector</text>
</a>
</g>
</g>
<!-- Node3&#45;&gt;Node14 -->
<g id="edge13" class="edge">
<title>Node3&#45;&gt;Node14</title>
<path fill="none" stroke="#63b8ff" d="M808.87,-227.75C690.86,-225.42 394.58,-216.37 365,-184 325.53,-140.8 356.42,-64.06 373.98,-28.95"/>
<polygon fill="#63b8ff" stroke="#63b8ff" points="376.89,-30.94 378.4,-20.45 370.68,-27.71 376.89,-30.94"/>
</g>
<!-- Node15 -->
<g id="node15" class="node">
<title>Node15</title>
<g id="a_node15"><a xlink:title=" ">
<polygon fill="#e0e0e0" stroke="#999999" points="1107,-184 1051,-184 1051,-165 1107,-165 1107,-184"/>
<text text-anchor="middle" x="1079" y="-172" font-family="Helvetica,sans-Serif" font-size="10.00">stdbool.h</text>
</a>
</g>
</g>
<!-- Node3&#45;&gt;Node15 -->
<g id="edge14" class="edge">
<title>Node3&#45;&gt;Node15</title>
<path fill="none" stroke="#63b8ff" d="M894.66,-219.51C934.94,-209.89 998.55,-194.71 1039.52,-184.93"/>
<polygon fill="#63b8ff" stroke="#63b8ff" points="1040.3,-188.34 1049.22,-182.61 1038.68,-181.53 1040.3,-188.34"/>
</g>
<!-- Node16 -->
<g id="node16" class="node">
<title>Node16</title>
<g id="a_node16"><a xlink:title=" ">
<polygon fill="#e0e0e0" stroke="#999999" points="1172.5,-184 1125.5,-184 1125.5,-165 1172.5,-165 1172.5,-184"/>
<text text-anchor="middle" x="1149" y="-172" font-family="Helvetica,sans-Serif" font-size="10.00">stdlib.h</text>
</a>
</g>
</g>
<!-- Node3&#45;&gt;Node16 -->
<g id="edge15" class="edge">
<title>Node3&#45;&gt;Node16</title>
<path fill="none" stroke="#63b8ff" d="M905.44,-221.39C955.3,-213.81 1035.45,-200.86 1114.17,-184.23"/>
<polygon fill="#63b8ff" stroke="#63b8ff" points="1114.73,-187.69 1123.78,-182.18 1113.27,-180.85 1114.73,-187.69"/>
</g>
<!-- Node17 -->
<g id="node17" class="node">
<title>Node17</title>
<g id="a_node17"><a xlink:title=" ">
<polygon fill="#e0e0e0" stroke="#999999" points="1249,-184 1191,-184 1191,-165 1249,-165 1249,-184"/>
<text text-anchor="middle" x="1220" y="-172" font-family="Helvetica,sans-Serif" font-size="10.00">exception</text>
</a>
</g>
</g>
<!-- Node3&#45;&gt;Node17 -->
<g id="edge16" class="edge">
<title>Node3&#45;&gt;Node17</title>
<path fill="none" stroke="#63b8ff" d="M905.38,-223.16C966.81,-216.1 1076.29,-202.57 1179.35,-184.35"/>
<polygon fill="#63b8ff" stroke="#63b8ff" points="1179.87,-187.81 1189.1,-182.6 1178.64,-180.92 1179.87,-187.81"/>
</g>
<!-- Node18 -->
<g id="node18" class="node">
<title>Node18</title>
<g id="a_node18"><a xlink:href="Window_8hpp.html" target="_top" xlink:title=" ">
<polygon fill="white" stroke="#666666" points="1368.5,-184 1267.5,-184 1267.5,-165 1368.5,-165 1368.5,-184"/>
<text text-anchor="middle" x="1318" y="-172" font-family="Helvetica,sans-Serif" font-size="10.00">Engine/Window.hpp</text>
</a>
</g>
</g>
<!-- Node3&#45;&gt;Node18 -->
<g id="edge17" class="edge">
<title>Node3&#45;&gt;Node18</title>
<path fill="none" stroke="#63b8ff" d="M905.26,-223.01C979.35,-215.08 1125.13,-199.64 1249,-184 1251.28,-183.71 1253.61,-183.41 1255.97,-183.1"/>
<polygon fill="#63b8ff" stroke="#63b8ff" points="1256.21,-186.6 1265.65,-181.81 1255.28,-179.66 1256.21,-186.6"/>
</g>
<!-- Node19 -->
<g id="node19" class="node">
<title>Node19</title>
<g id="a_node19"><a xlink:href="Event_8hpp.html" target="_top" xlink:title=" ">
<polygon fill="white" stroke="#666666" points="1479,-184 1387,-184 1387,-165 1479,-165 1479,-184"/>
<text text-anchor="middle" x="1433" y="-172" font-family="Helvetica,sans-Serif" font-size="10.00">Engine/Event.hpp</text>
</a>
</g>
</g>
<!-- Node3&#45;&gt;Node19 -->
<g id="edge19" class="edge">
<title>Node3&#45;&gt;Node19</title>
<path fill="none" stroke="#63b8ff" d="M905.36,-225.12C996.39,-218.9 1198.87,-204.39 1369,-184 1371.03,-183.76 1373.11,-183.49 1375.21,-183.22"/>
<polygon fill="#63b8ff" stroke="#63b8ff" points="1375.66,-186.69 1385.08,-181.86 1374.7,-179.76 1375.66,-186.69"/>
</g>
<!-- Node3&#45;&gt;Node23 -->
<g id="edge24" class="edge">
<title>Node3&#45;&gt;Node23</title>
<path fill="none" stroke="#63b8ff" d="M808.71,-225.39C711.87,-218.69 487.36,-202.09 291.51,-184.58"/>
<polygon fill="#63b8ff" stroke="#63b8ff" points="291.92,-181.1 281.64,-183.69 291.29,-188.07 291.92,-181.1"/>
</g>
<!-- Node3&#45;&gt;Node30 -->
<g id="edge40" class="edge">
<title>Node3&#45;&gt;Node30</title>
<path fill="none" stroke="#63b8ff" d="M808.79,-226.72C692.8,-222.02 389.48,-207.99 133.75,-185.06"/>
<polygon fill="#63b8ff" stroke="#63b8ff" points="134.16,-181.59 123.89,-184.17 133.53,-188.56 134.16,-181.59"/>
</g>
<!-- Node32 -->
<g id="node32" class="node">
<title>Node32</title>
<g id="a_node32"><a xlink:href="Background_8hpp.html" target="_top" xlink:title=" ">
<polygon fill="white" stroke="#666666" points="1641,-184 1497,-184 1497,-165 1641,-165 1641,-184"/>
<text text-anchor="middle" x="1569" y="-172" font-family="Helvetica,sans-Serif" font-size="10.00">Components/Background.hpp</text>
</a>
</g>
</g>
<!-- Node3&#45;&gt;Node32 -->
<g id="edge44" class="edge">
<title>Node3&#45;&gt;Node32</title>
<path fill="none" stroke="#63b8ff" d="M905.24,-225.36C1009.91,-218.82 1265.12,-202.76 1479,-184 1481.17,-183.81 1483.36,-183.61 1485.58,-183.41"/>
<polygon fill="#63b8ff" stroke="#63b8ff" points="1485.69,-186.91 1495.32,-182.49 1485.03,-179.94 1485.69,-186.91"/>
</g>
<!-- Node18&#45;&gt;Node3 -->
<g id="edge18" class="edge">
<title>Node18&#45;&gt;Node3</title>
<path fill="none" stroke="#63b8ff" d="M1266.62,-184.05C1142.5,-199.72 996.5,-215.17 916.55,-223.07"/>
<polygon fill="#63b8ff" stroke="#63b8ff" points="916.36,-219.57 906.75,-224.03 917.04,-226.54 916.36,-219.57"/>
</g>
<!-- Node19&#45;&gt;Node3 -->
<g id="edge20" class="edge">
<title>Node19&#45;&gt;Node3</title>
<path fill="none" stroke="#63b8ff" d="M1386.74,-184.03C1217.03,-204.36 1015.2,-218.84 916.77,-225.08"/>
<polygon fill="#63b8ff" stroke="#63b8ff" points="916.56,-221.59 906.8,-225.71 917,-228.57 916.56,-221.59"/>
</g>
<!-- Node20 -->
<g id="node20" class="node">
<title>Node20</title>
<g id="a_node20"><a xlink:title=" ">
<polygon fill="#e0e0e0" stroke="#999999" points="1447.5,-129 1418.5,-129 1418.5,-110 1447.5,-110 1447.5,-129"/>
<text text-anchor="middle" x="1433" y="-117" font-family="Helvetica,sans-Serif" font-size="10.00">list</text>
</a>
</g>
</g>
<!-- Node19&#45;&gt;Node20 -->
<g id="edge21" class="edge">
<title>Node19&#45;&gt;Node20</title>
<path fill="none" stroke="#63b8ff" d="M1433,-164.75C1433,-158.27 1433,-149.16 1433,-140.9"/>
<polygon fill="#63b8ff" stroke="#63b8ff" points="1436.5,-140.96 1433,-130.96 1429.5,-140.96 1436.5,-140.96"/>
</g>
<!-- Node21 -->
<g id="node21" class="node">
<title>Node21</title>
<g id="a_node21"><a xlink:title=" ">
<polygon fill="#e0e0e0" stroke="#999999" points="1508.5,-129 1465.5,-129 1465.5,-110 1508.5,-110 1508.5,-129"/>
<text text-anchor="middle" x="1487" y="-117" font-family="Helvetica,sans-Serif" font-size="10.00">queue</text>
</a>
</g>
</g>
<!-- Node19&#45;&gt;Node21 -->
<g id="edge22" class="edge">
<title>Node19&#45;&gt;Node21</title>
<path fill="none" stroke="#63b8ff" d="M1441.92,-164.75C1449.45,-157.35 1460.47,-146.54 1469.73,-137.45"/>
<polygon fill="#63b8ff" stroke="#63b8ff" points="1472.12,-140 1476.81,-130.5 1467.22,-135.01 1472.12,-140"/>
</g>
<!-- Node22 -->
<g id="node22" class="node">
<title>Node22</title>
<g id="a_node22"><a xlink:title=" ">
<polygon fill="#e0e0e0" stroke="#999999" points="1400,-129 1338,-129 1338,-110 1400,-110 1400,-129"/>
<text text-anchor="middle" x="1369" y="-117" font-family="Helvetica,sans-Serif" font-size="10.00">Skaldi.hpp</text>
</a>
</g>
</g>
<!-- Node19&#45;&gt;Node22 -->
<g id="edge23" class="edge">
<title>Node19&#45;&gt;Node22</title>
<path fill="none" stroke="#63b8ff" d="M1422.14,-164.51C1412.89,-156.85 1399.38,-145.66 1388.29,-136.47"/>
<polygon fill="#63b8ff" stroke="#63b8ff" points="1390.8,-134.01 1380.86,-130.32 1386.33,-139.4 1390.8,-134.01"/>
</g>
<!-- Node23&#45;&gt;Node3 -->
<g id="edge25" class="edge">
<title>Node23&#45;&gt;Node3</title>
<path fill="none" stroke="#63b8ff" d="M280.39,-181.88C288.05,-182.62 295.7,-183.34 303,-184 483.06,-200.22 695.82,-216.16 797.4,-223.81"/>
<polygon fill="#63b8ff" stroke="#63b8ff" points="796.89,-227.28 807.13,-224.54 797.42,-220.3 796.89,-227.28"/>
</g>
<!-- Node24 -->
<g id="node24" class="node">
<title>Node24</title>
<g id="a_node24"><a xlink:href="IComponents_8hpp.html" target="_top" xlink:title=" ">
<polygon fill="white" stroke="#666666" points="289,-129 131,-129 131,-110 289,-110 289,-129"/>
<text text-anchor="middle" x="210" y="-117" font-family="Helvetica,sans-Serif" font-size="10.00">../Components/IComponents.hpp</text>
</a>
</g>
</g>
<!-- Node23&#45;&gt;Node24 -->
<g id="edge26" class="edge">
<title>Node23&#45;&gt;Node24</title>
<path fill="none" stroke="#63b8ff" d="M210,-164.75C210,-158.27 210,-149.16 210,-140.9"/>
<polygon fill="#63b8ff" stroke="#63b8ff" points="213.5,-140.96 210,-130.96 206.5,-140.96 213.5,-140.96"/>
</g>
<!-- Node25 -->
<g id="node25" class="node">
<title>Node25</title>
<g id="a_node25"><a xlink:href="SparseArray_8hpp.html" target="_top" xlink:title=" ">
<polygon fill="white" stroke="#666666" points="551.5,-129 440.5,-129 440.5,-110 551.5,-110 551.5,-129"/>
<text text-anchor="middle" x="496" y="-117" font-family="Helvetica,sans-Serif" font-size="10.00">Utils/SparseArray.hpp</text>
</a>
</g>
</g>
<!-- Node23&#45;&gt;Node25 -->
<g id="edge28" class="edge">
<title>Node23&#45;&gt;Node25</title>
<path fill="none" stroke="#63b8ff" d="M258.52,-164.51C307.66,-155.4 383.76,-141.3 436.51,-131.52"/>
<polygon fill="#63b8ff" stroke="#63b8ff" points="437.04,-134.99 446.24,-129.72 435.77,-128.1 437.04,-134.99"/>
</g>
<!-- Node24&#45;&gt;Node3 -->
<g id="edge27" class="edge">
<title>Node24&#45;&gt;Node3</title>
<path fill="none" stroke="#63b8ff" d="M225.37,-129.47C252.97,-145.43 310.1,-177.65 332,-184 417.87,-208.9 678.74,-221.72 797.26,-226.39"/>
<polygon fill="#63b8ff" stroke="#63b8ff" points="796.98,-229.88 807.11,-226.77 797.25,-222.89 796.98,-229.88"/>
</g>
<!-- Node25&#45;&gt;Node9 -->
<g id="edge29" class="edge">
<title>Node25&#45;&gt;Node9</title>
<path fill="none" stroke="#63b8ff" d="M519.46,-109.61C538.41,-101.81 565.25,-89.33 586,-74 603.86,-60.8 620.92,-41.92 632.26,-28.18"/>
<polygon fill="#63b8ff" stroke="#63b8ff" points="634.95,-30.41 638.48,-20.42 629.49,-26.03 634.95,-30.41"/>
</g>
<!-- Node25&#45;&gt;Node14 -->
<g id="edge32" class="edge">
<title>Node25&#45;&gt;Node14</title>
<path fill="none" stroke="#63b8ff" d="M481.34,-109.65C468.19,-101.34 448.75,-88.1 434,-74 419.46,-60.09 405.51,-41.83 396.06,-28.47"/>
<polygon fill="#63b8ff" stroke="#63b8ff" points="399.2,-26.84 390.64,-20.6 393.43,-30.82 399.2,-26.84"/>
</g>
<!-- Node26 -->
<g id="node26" class="node">
<title>Node26</title>
<g id="a_node26"><a xlink:title=" ">
<polygon fill="#e0e0e0" stroke="#999999" points="481,-19 425,-19 425,0 481,0 481,-19"/>
<text text-anchor="middle" x="453" y="-7" font-family="Helvetica,sans-Serif" font-size="10.00">algorithm</text>
</a>
</g>
</g>
<!-- Node25&#45;&gt;Node26 -->
<g id="edge30" class="edge">
<title>Node25&#45;&gt;Node26</title>
<path fill="none" stroke="#63b8ff" d="M478,-109.57C465.07,-102.05 448.62,-89.96 441,-74 434.27,-59.9 438.41,-42.36 443.59,-29.29"/>
<polygon fill="#63b8ff" stroke="#63b8ff" points="446.62,-31.08 447.53,-20.53 440.23,-28.21 446.62,-31.08"/>
</g>
<!-- Node27 -->
<g id="node27" class="node">
<title>Node27</title>
<g id="a_node27"><a xlink:title=" ">
<polygon fill="#e0e0e0" stroke="#999999" points="540,-19 502,-19 502,0 540,0 540,-19"/>
<text text-anchor="middle" x="521" y="-7" font-family="Helvetica,sans-Serif" font-size="10.00">array</text>
</a>
</g>
</g>
<!-- Node25&#45;&gt;Node27 -->
<g id="edge31" class="edge">
<title>Node25&#45;&gt;Node27</title>
<path fill="none" stroke="#63b8ff" d="M514,-109.57C526.93,-102.05 543.38,-89.96 551,-74 558.52,-58.24 548.24,-40.24 537.71,-27.43"/>
<polygon fill="#63b8ff" stroke="#63b8ff" points="540.56,-25.36 531.27,-20.26 535.35,-30.04 540.56,-25.36"/>
</g>
<!-- Node28 -->
<g id="node28" class="node">
<title>Node28</title>
<g id="a_node28"><a xlink:title=" ">
<polygon fill="#e0e0e0" stroke="#999999" points="599.5,-19 560.5,-19 560.5,0 599.5,0 599.5,-19"/>
<text text-anchor="middle" x="580" y="-7" font-family="Helvetica,sans-Serif" font-size="10.00">utility</text>
</a>
</g>
</g>
<!-- Node25&#45;&gt;Node28 -->
<g id="edge33" class="edge">
<title>Node25&#45;&gt;Node28</title>
<path fill="none" stroke="#63b8ff" d="M519.71,-109.52C535.53,-102.31 555.48,-90.62 567,-74 575.85,-61.25 578.93,-43.8 579.9,-30.43"/>
<polygon fill="#63b8ff" stroke="#63b8ff" points="583.39,-30.76 580.24,-20.64 576.39,-30.52 583.39,-30.76"/>
</g>
<!-- Node29 -->
<g id="node29" class="node">
<title>Node29</title>
<g id="a_node29"><a xlink:href="Vectors_8hpp.html" target="_top" xlink:title=" ">
<polygon fill="white" stroke="#666666" points="542,-74 450,-74 450,-55 542,-55 542,-74"/>
<text text-anchor="middle" x="496" y="-62" font-family="Helvetica,sans-Serif" font-size="10.00">Utils/Vectors.hpp</text>
</a>
</g>
</g>
<!-- Node25&#45;&gt;Node29 -->
<g id="edge34" class="edge">
<title>Node25&#45;&gt;Node29</title>
<path fill="none" stroke="#63b8ff" d="M496,-109.75C496,-103.27 496,-94.16 496,-85.9"/>
<polygon fill="#63b8ff" stroke="#63b8ff" points="499.5,-85.96 496,-75.96 492.5,-85.96 499.5,-85.96"/>
</g>
<!-- Node29&#45;&gt;Node9 -->
<g id="edge35" class="edge">
<title>Node29&#45;&gt;Node9</title>
<path fill="none" stroke="#63b8ff" d="M521.45,-54.51C545.76,-45.92 582.66,-32.88 609.99,-23.22"/>
<polygon fill="#63b8ff" stroke="#63b8ff" points="610.99,-26.58 619.25,-19.95 608.66,-19.98 610.99,-26.58"/>
</g>
<!-- Node29&#45;&gt;Node14 -->
<g id="edge38" class="edge">
<title>Node29&#45;&gt;Node14</title>
<path fill="none" stroke="#63b8ff" d="M477,-54.51C459.44,-46.2 433.08,-33.73 412.91,-24.18"/>
<polygon fill="#63b8ff" stroke="#63b8ff" points="414.62,-21.12 404.09,-20.01 411.63,-27.45 414.62,-21.12"/>
</g>
<!-- Node29&#45;&gt;Node26 -->
<g id="edge36" class="edge">
<title>Node29&#45;&gt;Node26</title>
<path fill="none" stroke="#63b8ff" d="M488.9,-54.75C483.08,-47.58 474.67,-37.2 467.44,-28.3"/>
<polygon fill="#63b8ff" stroke="#63b8ff" points="470.23,-26.18 461.21,-20.62 464.79,-30.59 470.23,-26.18"/>
</g>
<!-- Node29&#45;&gt;Node27 -->
<g id="edge37" class="edge">
<title>Node29&#45;&gt;Node27</title>
<path fill="none" stroke="#63b8ff" d="M500.13,-54.75C503.33,-47.96 507.89,-38.3 511.93,-29.73"/>
<polygon fill="#63b8ff" stroke="#63b8ff" points="515.04,-31.35 516.14,-20.81 508.7,-28.36 515.04,-31.35"/>
</g>
<!-- Node29&#45;&gt;Node28 -->
<g id="edge39" class="edge">
<title>Node29&#45;&gt;Node28</title>
<path fill="none" stroke="#63b8ff" d="M510.25,-54.51C522.88,-46.54 541.56,-34.75 556.41,-25.38"/>
<polygon fill="#63b8ff" stroke="#63b8ff" points="558.09,-28.46 564.68,-20.17 554.36,-22.54 558.09,-28.46"/>
</g>
<!-- Node30&#45;&gt;Node3 -->
<g id="edge41" class="edge">
<title>Node30&#45;&gt;Node3</title>
<path fill="none" stroke="#63b8ff" d="M122.27,-182.2C128.28,-182.86 134.27,-183.48 140,-184 383.65,-206.24 674.35,-220.31 797.41,-225.83"/>
<polygon fill="#63b8ff" stroke="#63b8ff" points="797.13,-229.32 807.28,-226.27 797.45,-222.33 797.13,-229.32"/>
</g>
<!-- Node30&#45;&gt;Node24 -->
<g id="edge42" class="edge">
<title>Node30&#45;&gt;Node24</title>
<path fill="none" stroke="#63b8ff" d="M86.28,-164.51C110.5,-155.89 147.3,-142.8 174.47,-133.14"/>
<polygon fill="#63b8ff" stroke="#63b8ff" points="175.42,-136.51 183.67,-129.87 173.08,-129.92 175.42,-136.51"/>
</g>
<!-- Node31 -->
<g id="node31" class="node">
<title>Node31</title>
<g id="a_node31"><a xlink:title=" ">
<polygon fill="#e0e0e0" stroke="#999999" points="84,-129 38,-129 38,-110 84,-110 84,-129"/>
<text text-anchor="middle" x="61" y="-117" font-family="Helvetica,sans-Serif" font-size="10.00">math.h</text>
</a>
</g>
</g>
<!-- Node30&#45;&gt;Node31 -->
<g id="edge43" class="edge">
<title>Node30&#45;&gt;Node31</title>
<path fill="none" stroke="#63b8ff" d="M61,-164.75C61,-158.27 61,-149.16 61,-140.9"/>
<polygon fill="#63b8ff" stroke="#63b8ff" points="64.5,-140.96 61,-130.96 57.5,-140.96 64.5,-140.96"/>
</g>
<!-- Node32&#45;&gt;Node3 -->
<g id="edge45" class="edge">
<title>Node32&#45;&gt;Node3</title>
<path fill="none" stroke="#63b8ff" d="M1496.68,-184.03C1283.62,-202.71 1029.65,-218.71 916.42,-225.29"/>
<polygon fill="#63b8ff" stroke="#63b8ff" points="916.55,-221.78 906.77,-225.85 916.95,-228.77 916.55,-221.78"/>
</g>
</g>
</svg>
        <g id="navigator" transform="translate(0 0)" fill="#404254">
                <rect fill="#f2f5e9" fill-opacity="0.5" stroke="#606060" stroke-width=".5" x="0" y="0" width="60" height="60"/>
                <use id="zoomplus" xlink:href="#zoomPlus" x="17" y="9" onmousedown="handleZoom(evt,'in')"/>
                <use id="zoomminus" xlink:href="#zoomMin" x="42" y="9" onmousedown="handleZoom(evt,'out')"/>
                <use id="reset" xlink:href="#resetDef" x="30" y="36" onmousedown="handleReset()"/>
                <g id="arrowUp" xlink:href="#dirArrow" transform="translate(30 24)" onmousedown="handlePan(0,-1)">
                  <use xlink:href="#rim" fill="#404040">
                        <set attributeName="fill" to="#808080" begin="arrowUp.mouseover" end="arrowUp.mouseout"/>
                  </use>
                  <path fill="none" stroke="white" stroke-width="1.5" d="M0,-3.0v7 M-2.5,-0.5L0,-3.0L2.5,-0.5"/>
                </g>
                <g id="arrowRight" xlink:href="#dirArrow" transform="rotate(90) translate(36 -43)" onmousedown="handlePan(1,0)">
                  <use xlink:href="#rim" fill="#404040">
                        <set attributeName="fill" to="#808080" begin="arrowRight.mouseover" end="arrowRight.mouseout"/>
                  </use>
                  <path fill="none" stroke="white" stroke-width="1.5" d="M0,-3.0v7 M-2.5,-0.5L0,-3.0L2.5,-0.5"/>
                </g>
                <g id="arrowDown" xlink:href="#dirArrow" transform="rotate(180) translate(-30 -48)" onmousedown="handlePan(0,1)">
                  <use xlink:href="#rim" fill="#404040">
                        <set attributeName="fill" to="#808080" begin="arrowDown.mouseover" end="arrowDown.mouseout"/>
                  </use>
                  <path fill="none" stroke="white" stroke-width="1.5" d="M0,-3.0v7 M-2.5,-0.5L0,-3.0L2.5,-0.5"/>
                </g>
                <g id="arrowLeft" xlink:href="#dirArrow" transform="rotate(270) translate(-36 17)" onmousedown="handlePan(-1,0)">
                  <use xlink:href="#rim" fill="#404040">
                        <set attributeName="fill" to="#808080" begin="arrowLeft.mouseover" end="arrowLeft.mouseout"/>
                  </use>
                  <path fill="none" stroke="white" stroke-width="1.5" d="M0,-3.0v7 M-2.5,-0.5L0,-3.0L2.5,-0.5"/>
                </g>
        </g>
        <svg viewBox="0 0 15 15" width="100%" height="30px" preserveAspectRatio="xMaxYMin meet">
         <g id="arrow_out" transform="scale(0.3 0.3)">
          <a xlink:href="include_8hpp__incl_org.svg" target="_base">
           <rect id="button" ry="5" rx="5" y="6" x="6" height="38" width="38"
                fill="#f2f5e9" fill-opacity="0.5" stroke="#606060" stroke-width="1.0"/>
           <path id="arrow"
             d="M 11.500037,31.436501 C 11.940474,20.09759 22.043105,11.32322 32.158766,21.979434 L 37.068811,17.246167 C 37.068811,17.246167 37.088388,32 37.088388,32 L 22.160133,31.978069 C 22.160133,31.978069 26.997745,27.140456 26.997745,27.140456 C 18.528582,18.264221 13.291696,25.230495 11.500037,31.436501 z"
             style="fill:#404040;"/>
          </a>
         </g>
        </svg>
</svg>
