<?xml version="1.0" encoding="UTF-8" standalone="no"?>
<!DOCTYPE svg PUBLIC "-//W3C//DTD SVG 1.1//EN"
 "http://www.w3.org/Graphics/SVG/1.1/DTD/svg11.dtd">
<!-- Generated by graphviz version 7.0.5 (20221223.1930)
 -->
<!-- Title: Graphical Class Hierarchy Pages: 1 -->
<svg width="380pt" height="86pt"
 viewBox="0.00 0.00 380.00 86.00" xmlns="http://www.w3.org/2000/svg" xmlns:xlink="http://www.w3.org/1999/xlink">
<g id="graph0" class="graph" transform="scale(1 1) rotate(0) translate(4 82)">
<title>Graphical Class Hierarchy</title>
<!-- Node0 -->
<g id="node1" class="node">
<title>Node0</title>
<g id="a_node1"><a xlink:href="classrtype_1_1components_1_1IComponents.html" target="_top" xlink:title=" ">
<polygon fill="white" stroke="#666666" points="100,-54 0,-54 0,-24 100,-24 100,-54"/>
<text text-anchor="start" x="8" y="-42" font-family="Helvetica,sans-Serif" font-size="10.00">rtype::components::</text>
<text text-anchor="middle" x="50" y="-31" font-family="Helvetica,sans-Serif" font-size="10.00">IComponents</text>
</a>
</g>
</g>
<!-- Node1 -->
<g id="node2" class="node">
<title>Node1</title>
<g id="a_node2"><a xlink:href="classrtype_1_1components_1_1Component.html" target="_top" xlink:title=" ">
<polygon fill="white" stroke="#666666" points="236,-54 136,-54 136,-24 236,-24 236,-54"/>
<text text-anchor="start" x="144" y="-42" font-family="Helvetica,sans-Serif" font-size="10.00">rtype::components::</text>
<text text-anchor="middle" x="186" y="-31" font-family="Helvetica,sans-Serif" font-size="10.00">Component</text>
</a>
</g>
</g>
<!-- Node0&#45;&gt;Node1 -->
<g id="edge1" class="edge">
<title>Node0&#45;&gt;Node1</title>
<path fill="none" stroke="#63b8ff" d="M111.52,-39C119.67,-39 127.95,-39 135.87,-39"/>
<polygon fill="#63b8ff" stroke="#63b8ff" points="111.65,-35.5 101.65,-39 111.65,-42.5 111.65,-35.5"/>
</g>
<!-- Node2 -->
<g id="node3" class="node">
<title>Node2</title>
<g id="a_node3"><a xlink:href="classrtype_1_1components_1_1Bullets.html" target="_top" xlink:title="This class is the base class for all the bullets.">
<polygon fill="white" stroke="#666666" points="372,-78 272,-78 272,-48 372,-48 372,-78"/>
<text text-anchor="start" x="280" y="-66" font-family="Helvetica,sans-Serif" font-size="10.00">rtype::components::</text>
<text text-anchor="middle" x="322" y="-55" font-family="Helvetica,sans-Serif" font-size="10.00">Bullets</text>
</a>
</g>
</g>
<!-- Node1&#45;&gt;Node2 -->
<g id="edge2" class="edge">
<title>Node1&#45;&gt;Node2</title>
<path fill="none" stroke="#63b8ff" d="M247.24,-49.79C255.48,-51.27 263.86,-52.77 271.87,-54.2"/>
<polygon fill="#63b8ff" stroke="#63b8ff" points="248.09,-46.39 237.63,-48.07 246.85,-53.28 248.09,-46.39"/>
</g>
<!-- Node3 -->
<g id="node4" class="node">
<title>Node3</title>
<g id="a_node4"><a xlink:href="classrtype_1_1components_1_1DefaultComp.html" target="_top" xlink:title=" ">
<polygon fill="white" stroke="#666666" points="372,-30 272,-30 272,0 372,0 372,-30"/>
<text text-anchor="start" x="280" y="-18" font-family="Helvetica,sans-Serif" font-size="10.00">rtype::components::</text>
<text text-anchor="middle" x="322" y="-7" font-family="Helvetica,sans-Serif" font-size="10.00">DefaultComp</text>
</a>
</g>
</g>
<!-- Node1&#45;&gt;Node3 -->
<g id="edge3" class="edge">
<title>Node1&#45;&gt;Node3</title>
<path fill="none" stroke="#63b8ff" d="M247.24,-28.21C255.48,-26.73 263.86,-25.23 271.87,-23.8"/>
<polygon fill="#63b8ff" stroke="#63b8ff" points="246.85,-24.72 237.63,-29.93 248.09,-31.61 246.85,-24.72"/>
</g>
</g>
</svg>
