<?xml version="1.0" encoding="UTF-8" standalone="no"?>
<!DOCTYPE svg PUBLIC "-//W3C//DTD SVG 1.1//EN"
 "http://www.w3.org/Graphics/SVG/1.1/DTD/svg11.dtd">
<!-- Generated by graphviz version 7.0.5 (20221223.1930)
 -->
<!-- Title: Graphical Class Hierarchy Pages: 1 -->
<svg width="191pt" height="138pt"
 viewBox="0.00 0.00 191.00 138.00" xmlns="http://www.w3.org/2000/svg" xmlns:xlink="http://www.w3.org/1999/xlink">
<g id="graph0" class="graph" transform="scale(1 1) rotate(0) translate(4 134)">
<title>Graphical Class Hierarchy</title>
<!-- Node0 -->
<g id="node1" class="node">
<title>Node0</title>
<g id="a_node1"><a xlink:title=" ">
<polygon fill="#e0e0e0" stroke="#999999" points="76,-74 0,-74 0,-55 76,-55 76,-74"/>
<text text-anchor="middle" x="38" y="-62" font-family="Helvetica,sans-Serif" font-size="10.00">std::exception</text>
</a>
</g>
</g>
<!-- Node1 -->
<g id="node2" class="node">
<title>Node1</title>
<g id="a_node2"><a xlink:href="classDestroyError.html" target="_top" xlink:title="This class is the base class for all the DestroyError.">
<polygon fill="white" stroke="#666666" points="182.5,-130 112.5,-130 112.5,-111 182.5,-111 182.5,-130"/>
<text text-anchor="middle" x="147.5" y="-118" font-family="Helvetica,sans-Serif" font-size="10.00">DestroyError</text>
</a>
</g>
</g>
<!-- Node0&#45;&gt;Node1 -->
<g id="edge1" class="edge">
<title>Node0&#45;&gt;Node1</title>
<path fill="none" stroke="#8b1a1a" d="M67.9,-79.56C86.87,-89.43 111.11,-102.07 127.63,-110.67"/>
<polygon fill="#8b1a1a" stroke="#8b1a1a" points="69.55,-76.47 59.07,-74.95 66.32,-82.68 69.55,-76.47"/>
</g>
<!-- Node2 -->
<g id="node3" class="node">
<title>Node2</title>
<g id="a_node3"><a xlink:href="classError.html" target="_top" xlink:title="This class is the base class for all the Error.">
<polygon fill="white" stroke="#666666" points="166,-93 129,-93 129,-74 166,-74 166,-93"/>
<text text-anchor="middle" x="147.5" y="-81" font-family="Helvetica,sans-Serif" font-size="10.00">Error</text>
</a>
</g>
</g>
<!-- Node0&#45;&gt;Node2 -->
<g id="edge2" class="edge">
<title>Node0&#45;&gt;Node2</title>
<path fill="none" stroke="#8b1a1a" d="M87.34,-73.04C102.02,-75.64 117.24,-78.33 128.56,-80.33"/>
<polygon fill="#8b1a1a" stroke="#8b1a1a" points="88.24,-69.65 77.79,-71.36 87.03,-76.54 88.24,-69.65"/>
</g>
<!-- Node3 -->
<g id="node4" class="node">
<title>Node3</title>
<g id="a_node4"><a xlink:href="classLoadError.html" target="_top" xlink:title="This class is the base class for all the LoadError.">
<polygon fill="white" stroke="#666666" points="177,-56 118,-56 118,-37 177,-37 177,-56"/>
<text text-anchor="middle" x="147.5" y="-44" font-family="Helvetica,sans-Serif" font-size="10.00">LoadError</text>
</a>
</g>
</g>
<!-- Node0&#45;&gt;Node3 -->
<g id="edge3" class="edge">
<title>Node0&#45;&gt;Node3</title>
<path fill="none" stroke="#8b1a1a" d="M87.38,-56.4C97.75,-54.66 108.4,-52.88 117.74,-51.31"/>
<polygon fill="#8b1a1a" stroke="#8b1a1a" points="87.07,-52.9 77.79,-58.01 88.23,-59.81 87.07,-52.9"/>
</g>
<!-- Node4 -->
<g id="node5" class="node">
<title>Node4</title>
<g id="a_node5"><a xlink:href="classWindowError.html" target="_top" xlink:title="This class is the base class for all the WindowError.">
<polygon fill="white" stroke="#666666" points="183,-19 112,-19 112,0 183,0 183,-19"/>
<text text-anchor="middle" x="147.5" y="-7" font-family="Helvetica,sans-Serif" font-size="10.00">WindowError</text>
</a>
</g>
</g>
<!-- Node0&#45;&gt;Node4 -->
<g id="edge4" class="edge">
<title>Node0&#45;&gt;Node4</title>
<path fill="none" stroke="#8b1a1a" d="M68.28,-49.52C86.98,-39.95 110.69,-27.82 127.09,-19.43"/>
<polygon fill="#8b1a1a" stroke="#8b1a1a" points="66.87,-46.31 59.57,-53.98 70.06,-52.54 66.87,-46.31"/>
</g>
</g>
</svg>
