<?xml version="1.0" encoding="UTF-8" standalone="no"?>
<!DOCTYPE svg PUBLIC "-//W3C//DTD SVG 1.1//EN"
 "http://www.w3.org/Graphics/SVG/1.1/DTD/svg11.dtd">
<!-- Generated by graphviz version 7.0.5 (20221223.1930)
 -->
<!-- Title: Graphical Class Hierarchy Pages: 1 -->
<svg width="389pt" height="101pt"
 viewBox="0.00 0.00 389.00 101.00" xmlns="http://www.w3.org/2000/svg" xmlns:xlink="http://www.w3.org/1999/xlink">
<g id="graph0" class="graph" transform="scale(1 1) rotate(0) translate(4 97)">
<title>Graphical Class Hierarchy</title>
<!-- Node0 -->
<g id="node1" class="node">
<title>Node0</title>
<g id="a_node1"><a xlink:href="classrtype_1_1IGameState.html" target="_top" xlink:title="The class of the game state.">
<polygon fill="white" stroke="#666666" points="95,-56 0,-56 0,-37 95,-37 95,-56"/>
<text text-anchor="middle" x="47.5" y="-44" font-family="Helvetica,sans-Serif" font-size="10.00">rtype::IGameState</text>
</a>
</g>
</g>
<!-- Node1 -->
<g id="node2" class="node">
<title>Node1</title>
<g id="a_node2"><a xlink:href="classrtype_1_1GameState.html" target="_top" xlink:title="The class of the game state.">
<polygon fill="white" stroke="#666666" points="223,-56 131,-56 131,-37 223,-37 223,-56"/>
<text text-anchor="middle" x="177" y="-44" font-family="Helvetica,sans-Serif" font-size="10.00">rtype::GameState</text>
</a>
</g>
</g>
<!-- Node0&#45;&gt;Node1 -->
<g id="edge1" class="edge">
<title>Node0&#45;&gt;Node1</title>
<path fill="none" stroke="#63b8ff" d="M106.51,-46.5C114.56,-46.5 122.75,-46.5 130.53,-46.5"/>
<polygon fill="#63b8ff" stroke="#63b8ff" points="106.77,-43 96.77,-46.5 106.77,-50 106.77,-43"/>
</g>
<!-- Node2 -->
<g id="node3" class="node">
<title>Node2</title>
<g id="a_node3"><a xlink:href="classrtype_1_1NULLState.html" target="_top" xlink:title="The class NULLState of the game state.">
<polygon fill="white" stroke="#666666" points="366,-93 274,-93 274,-74 366,-74 366,-93"/>
<text text-anchor="middle" x="320" y="-81" font-family="Helvetica,sans-Serif" font-size="10.00">rtype::NULLState</text>
</a>
</g>
</g>
<!-- Node1&#45;&gt;Node2 -->
<g id="edge2" class="edge">
<title>Node1&#45;&gt;Node2</title>
<path fill="none" stroke="#63b8ff" d="M226.83,-59.31C244.61,-63.98 264.42,-69.18 281.11,-73.56"/>
<polygon fill="#63b8ff" stroke="#63b8ff" points="227.81,-55.95 217.25,-56.8 226.03,-62.72 227.81,-55.95"/>
</g>
<!-- Node3 -->
<g id="node4" class="node">
<title>Node3</title>
<g id="a_node4"><a xlink:href="classrtype_1_1game_1_1SGamePlay.html" target="_top" xlink:title="The class of the game state.">
<polygon fill="white" stroke="#666666" points="381,-56 259,-56 259,-37 381,-37 381,-56"/>
<text text-anchor="middle" x="320" y="-44" font-family="Helvetica,sans-Serif" font-size="10.00">rtype::game::SGamePlay</text>
</a>
</g>
</g>
<!-- Node1&#45;&gt;Node3 -->
<g id="edge3" class="edge">
<title>Node1&#45;&gt;Node3</title>
<path fill="none" stroke="#63b8ff" d="M234.67,-46.5C242.52,-46.5 250.61,-46.5 258.52,-46.5"/>
<polygon fill="#63b8ff" stroke="#63b8ff" points="234.9,-43 224.9,-46.5 234.9,-50 234.9,-43"/>
</g>
<!-- Node4 -->
<g id="node5" class="node">
<title>Node4</title>
<g id="a_node5"><a xlink:href="classrtype_1_1game_1_1SMenu.html" target="_top" xlink:title="The class of the game state.">
<polygon fill="white" stroke="#666666" points="370.5,-19 269.5,-19 269.5,0 370.5,0 370.5,-19"/>
<text text-anchor="middle" x="320" y="-7" font-family="Helvetica,sans-Serif" font-size="10.00">rtype::game::SMenu</text>
</a>
</g>
</g>
<!-- Node1&#45;&gt;Node4 -->
<g id="edge4" class="edge">
<title>Node1&#45;&gt;Node4</title>
<path fill="none" stroke="#63b8ff" d="M226.83,-33.69C244.61,-29.02 264.42,-23.82 281.11,-19.44"/>
<polygon fill="#63b8ff" stroke="#63b8ff" points="226.03,-30.28 217.25,-36.2 227.81,-37.05 226.03,-30.28"/>
</g>
</g>
</svg>
