<?xml version="1.0" encoding="UTF-8" standalone="no"?>
<!DOCTYPE svg PUBLIC "-//W3C//DTD SVG 1.1//EN"
 "http://www.w3.org/Graphics/SVG/1.1/DTD/svg11.dtd">
<!-- Generated by graphviz version 7.0.5 (20221223.1930)
 -->
<!-- Title: /github/workspace/client/include/Components/Mobs.hpp Pages: 1 -->
<!--zoomable 313 -->
<svg id="main" version="1.1" xmlns="http://www.w3.org/2000/svg" xmlns:xlink="http://www.w3.org/1999/xlink" xml:space="preserve" onload="init(evt)">
<style type="text/css"><![CDATA[
.edge:hover path { stroke: red; }
.edge:hover polygon { stroke: red; fill: red; }
]]></style>
<script type="text/javascript"><![CDATA[
var edges = document.getElementsByTagName('g');
if (edges && edges.length) {
  for (var i=0;i<edges.length;i++) {
    if (edges[i].id.substr(0,4)=='edge') {
      edges[i].setAttribute('class','edge');
    }
  }
}
]]></script>
        <defs>
                <circle id="rim" cx="0" cy="0" r="7"/>
                <circle id="rim2" cx="0" cy="0" r="3.5"/>
                <g id="zoomPlus">
                        <use xlink:href="#rim" fill="#404040">
                                <set attributeName="fill" to="#808080" begin="zoomplus.mouseover" end="zoomplus.mouseout"/>
                        </use>
                        <path d="M-4,0h8M0,-4v8" fill="none" stroke="white" stroke-width="1.5" pointer-events="none"/>
                </g>
                <g id="zoomMin">
                        <use xlink:href="#rim" fill="#404040">
                                <set attributeName="fill" to="#808080" begin="zoomminus.mouseover" end="zoomminus.mouseout"/>
                        </use>
                        <path d="M-4,0h8" fill="none" stroke="white" stroke-width="1.5" pointer-events="none"/>
                </g>
                <g id="dirArrow">
                        <path fill="none" stroke="white" stroke-width="1.5" d="M0,-3.0v7 M-2.5,-0.5L0,-3.0L2.5,-0.5"/>
                </g>
               <g id="resetDef">
                       <use xlink:href="#rim2" fill="#404040">
                               <set attributeName="fill" to="#808080" begin="reset.mouseover" end="reset.mouseout"/>
                       </use>
               </g>
        </defs>

<script type="text/javascript">
var viewWidth = 1897;
var viewHeight = 313;
var sectionId = 'dynsection-0';
</script>
<script xlink:href="svgpan.js"/>
<svg id="graph" class="graph">
<g id="viewport">
<title>/github/workspace/client/include/Components/Mobs.hpp</title>
<!-- Node1 -->
<g id="node1" class="node">
<title>Node1</title>
<g id="a_node1"><a xlink:title=" ">
<polygon fill="#999999" stroke="#666666" points="1458,-305 1305,-305 1305,-275 1458,-275 1458,-305"/>
<text text-anchor="start" x="1313" y="-293" font-family="Helvetica,sans-Serif" font-size="10.00">/github/workspace/client</text>
<text text-anchor="middle" x="1381.5" y="-282" font-family="Helvetica,sans-Serif" font-size="10.00">/include/Components/Mobs.hpp</text>
</a>
</g>
</g>
<!-- Node2 -->
<g id="node2" class="node">
<title>Node2</title>
<g id="a_node2"><a xlink:href="Engine_8hpp.html" target="_top" xlink:title=" ">
<polygon fill="white" stroke="#666666" points="968.5,-239 872.5,-239 872.5,-220 968.5,-220 968.5,-239"/>
<text text-anchor="middle" x="920.5" y="-227" font-family="Helvetica,sans-Serif" font-size="10.00">Engine/Engine.hpp</text>
</a>
</g>
</g>
<!-- Node1&#45;&gt;Node2 -->
<g id="edge1" class="edge">
<title>Node1&#45;&gt;Node2</title>
<path fill="none" stroke="#63b8ff" d="M1304.6,-279.24C1213.34,-267.66 1063.12,-248.6 980.17,-238.07"/>
<polygon fill="#63b8ff" stroke="#63b8ff" points="980.79,-234.62 970.43,-236.84 979.91,-241.57 980.79,-234.62"/>
</g>
<!-- Node30 -->
<g id="node30" class="node">
<title>Node30</title>
<g id="a_node30"><a xlink:title=" ">
<polygon fill="#e0e0e0" stroke="#999999" points="1702.5,-129 1656.5,-129 1656.5,-110 1702.5,-110 1702.5,-129"/>
<text text-anchor="middle" x="1679.5" y="-117" font-family="Helvetica,sans-Serif" font-size="10.00">math.h</text>
</a>
</g>
</g>
<!-- Node1&#45;&gt;Node30 -->
<g id="edge45" class="edge">
<title>Node1&#45;&gt;Node30</title>
<path fill="none" stroke="#63b8ff" d="M1458.33,-284.31C1584.83,-274.82 1828.2,-248.45 1880.5,-184 1925.86,-128.11 1782.86,-120.62 1714.17,-120.15"/>
<polygon fill="#63b8ff" stroke="#63b8ff" points="1714.18,-116.65 1704.17,-120.13 1714.17,-123.65 1714.18,-116.65"/>
</g>
<!-- Node3 -->
<g id="node3" class="node">
<title>Node3</title>
<g id="a_node3"><a xlink:title=" ">
<polygon fill="#e0e0e0" stroke="#999999" points="1629,-184 1540,-184 1540,-165 1629,-165 1629,-184"/>
<text text-anchor="middle" x="1584.5" y="-172" font-family="Helvetica,sans-Serif" font-size="10.00">SFML/Audio.hpp</text>
</a>
</g>
</g>
<!-- Node2&#45;&gt;Node3 -->
<g id="edge2" class="edge">
<title>Node2&#45;&gt;Node3</title>
<path fill="none" stroke="#63b8ff" d="M968.86,-226.34C1070.45,-221.52 1313.66,-208.41 1528.57,-184.12"/>
<polygon fill="#63b8ff" stroke="#63b8ff" points="1528.71,-187.62 1538.25,-183.01 1527.91,-180.67 1528.71,-187.62"/>
</g>
<!-- Node4 -->
<g id="node4" class="node">
<title>Node4</title>
<g id="a_node4"><a xlink:title=" ">
<polygon fill="#e0e0e0" stroke="#999999" points="1751.5,-184 1647.5,-184 1647.5,-165 1751.5,-165 1751.5,-184"/>
<text text-anchor="middle" x="1699.5" y="-172" font-family="Helvetica,sans-Serif" font-size="10.00">SFML/Graphics.hpp</text>
</a>
</g>
</g>
<!-- Node2&#45;&gt;Node4 -->
<g id="edge3" class="edge">
<title>Node2&#45;&gt;Node4</title>
<path fill="none" stroke="#63b8ff" d="M968.93,-226.78C1083.17,-222.45 1378.65,-209.63 1636.21,-184.15"/>
<polygon fill="#63b8ff" stroke="#63b8ff" points="1636.18,-187.67 1645.78,-183.19 1635.48,-180.7 1636.18,-187.67"/>
</g>
<!-- Node5 -->
<g id="node5" class="node">
<title>Node5</title>
<g id="a_node5"><a xlink:title=" ">
<polygon fill="#e0e0e0" stroke="#999999" points="1871,-184 1770,-184 1770,-165 1871,-165 1871,-184"/>
<text text-anchor="middle" x="1820.5" y="-172" font-family="Helvetica,sans-Serif" font-size="10.00">SFML/Network.hpp</text>
</a>
</g>
</g>
<!-- Node2&#45;&gt;Node5 -->
<g id="edge4" class="edge">
<title>Node2&#45;&gt;Node5</title>
<path fill="none" stroke="#63b8ff" d="M968.91,-227.42C1096.29,-224.27 1451.53,-213.42 1758.44,-184.1"/>
<polygon fill="#63b8ff" stroke="#63b8ff" points="1758.67,-187.59 1768.29,-183.15 1758,-180.62 1758.67,-187.59"/>
</g>
<!-- Node6 -->
<g id="node6" class="node">
<title>Node6</title>
<g id="a_node6"><a xlink:title=" ">
<polygon fill="#e0e0e0" stroke="#999999" points="99,-184 0,-184 0,-165 99,-165 99,-184"/>
<text text-anchor="middle" x="49.5" y="-172" font-family="Helvetica,sans-Serif" font-size="10.00">SFML/Window.hpp</text>
</a>
</g>
</g>
<!-- Node2&#45;&gt;Node6 -->
<g id="edge5" class="edge">
<title>Node2&#45;&gt;Node6</title>
<path fill="none" stroke="#63b8ff" d="M872.34,-227.35C748.09,-224.05 406.39,-212.97 110.74,-184.12"/>
<polygon fill="#63b8ff" stroke="#63b8ff" points="111.16,-180.64 100.86,-183.15 110.47,-187.61 111.16,-180.64"/>
</g>
<!-- Node7 -->
<g id="node7" class="node">
<title>Node7</title>
<g id="a_node7"><a xlink:title=" ">
<polygon fill="#e0e0e0" stroke="#999999" points="215.5,-184 117.5,-184 117.5,-165 215.5,-165 215.5,-184"/>
<text text-anchor="middle" x="166.5" y="-172" font-family="Helvetica,sans-Serif" font-size="10.00">SFML/System.hpp</text>
</a>
</g>
</g>
<!-- Node2&#45;&gt;Node7 -->
<g id="edge6" class="edge">
<title>Node2&#45;&gt;Node7</title>
<path fill="none" stroke="#63b8ff" d="M872.24,-226.55C759.51,-221.75 470.24,-207.96 229.5,-184 228.68,-183.92 227.85,-183.83 227.01,-183.75"/>
<polygon fill="#63b8ff" stroke="#63b8ff" points="227.82,-180.32 217.49,-182.68 227.04,-187.27 227.82,-180.32"/>
</g>
<!-- Node8 -->
<g id="node8" class="node">
<title>Node8</title>
<g id="a_node8"><a xlink:title=" ">
<polygon fill="#e0e0e0" stroke="#999999" points="556.5,-19 502.5,-19 502.5,0 556.5,0 556.5,-19"/>
<text text-anchor="middle" x="529.5" y="-7" font-family="Helvetica,sans-Serif" font-size="10.00">iostream</text>
</a>
</g>
</g>
<!-- Node2&#45;&gt;Node8 -->
<g id="edge7" class="edge">
<title>Node2&#45;&gt;Node8</title>
<path fill="none" stroke="#63b8ff" d="M872.03,-228.94C726.99,-229.75 303.89,-228.28 262.5,-184 185.58,-101.7 400.31,-40.48 491.11,-18.94"/>
<polygon fill="#63b8ff" stroke="#63b8ff" points="491.62,-22.41 500.57,-16.74 490.04,-15.59 491.62,-22.41"/>
</g>
<!-- Node9 -->
<g id="node9" class="node">
<title>Node9</title>
<g id="a_node9"><a xlink:title=" ">
<polygon fill="#e0e0e0" stroke="#999999" points="321.5,-184 271.5,-184 271.5,-165 321.5,-165 321.5,-184"/>
<text text-anchor="middle" x="296.5" y="-172" font-family="Helvetica,sans-Serif" font-size="10.00">fstream</text>
</a>
</g>
</g>
<!-- Node2&#45;&gt;Node9 -->
<g id="edge8" class="edge">
<title>Node2&#45;&gt;Node9</title>
<path fill="none" stroke="#63b8ff" d="M872.38,-227.63C773.18,-225.25 538.69,-216.55 332.98,-184.11"/>
<polygon fill="#63b8ff" stroke="#63b8ff" points="333.57,-180.66 323.15,-182.53 332.47,-187.57 333.57,-180.66"/>
</g>
<!-- Node10 -->
<g id="node10" class="node">
<title>Node10</title>
<g id="a_node10"><a xlink:title=" ">
<polygon fill="#e0e0e0" stroke="#999999" points="387.5,-184 339.5,-184 339.5,-165 387.5,-165 387.5,-184"/>
<text text-anchor="middle" x="363.5" y="-172" font-family="Helvetica,sans-Serif" font-size="10.00">string.h</text>
</a>
</g>
</g>
<!-- Node2&#45;&gt;Node10 -->
<g id="edge9" class="edge">
<title>Node2&#45;&gt;Node10</title>
<path fill="none" stroke="#63b8ff" d="M872.12,-227.09C781.19,-223.87 578.53,-213.92 399.15,-184.17"/>
<polygon fill="#63b8ff" stroke="#63b8ff" points="399.85,-180.74 389.4,-182.52 398.68,-187.64 399.85,-180.74"/>
</g>
<!-- Node11 -->
<g id="node11" class="node">
<title>Node11</title>
<g id="a_node11"><a xlink:title=" ">
<polygon fill="#e0e0e0" stroke="#999999" points="455.5,-184 405.5,-184 405.5,-165 455.5,-165 455.5,-184"/>
<text text-anchor="middle" x="430.5" y="-172" font-family="Helvetica,sans-Serif" font-size="10.00">unistd.h</text>
</a>
</g>
</g>
<!-- Node2&#45;&gt;Node11 -->
<g id="edge10" class="edge">
<title>Node2&#45;&gt;Node11</title>
<path fill="none" stroke="#63b8ff" d="M872.26,-226.14C790.67,-221.64 620.09,-210.03 466.68,-184.12"/>
<polygon fill="#63b8ff" stroke="#63b8ff" points="467.6,-180.73 457.15,-182.49 466.42,-187.63 467.6,-180.73"/>
</g>
<!-- Node12 -->
<g id="node12" class="node">
<title>Node12</title>
<g id="a_node12"><a xlink:title=" ">
<polygon fill="#e0e0e0" stroke="#999999" points="539,-184 474,-184 474,-165 539,-165 539,-184"/>
<text text-anchor="middle" x="506.5" y="-172" font-family="Helvetica,sans-Serif" font-size="10.00">sys/types.h</text>
</a>
</g>
</g>
<!-- Node2&#45;&gt;Node12 -->
<g id="edge11" class="edge">
<title>Node2&#45;&gt;Node12</title>
<path fill="none" stroke="#63b8ff" d="M872.29,-223.56C802.02,-216.15 667.42,-201.19 553.5,-184 552.5,-183.85 551.48,-183.69 550.46,-183.53"/>
<polygon fill="#63b8ff" stroke="#63b8ff" points="551.26,-180.12 540.82,-181.94 550.12,-187.02 551.26,-180.12"/>
</g>
<!-- Node13 -->
<g id="node13" class="node">
<title>Node13</title>
<g id="a_node13"><a xlink:title=" ">
<polygon fill="#e0e0e0" stroke="#999999" points="905.5,-19 861.5,-19 861.5,0 905.5,0 905.5,-19"/>
<text text-anchor="middle" x="883.5" y="-7" font-family="Helvetica,sans-Serif" font-size="10.00">vector</text>
</a>
</g>
</g>
<!-- Node2&#45;&gt;Node13 -->
<g id="edge12" class="edge">
<title>Node2&#45;&gt;Node13</title>
<path fill="none" stroke="#63b8ff" d="M872.12,-225.53C784.09,-219.63 605.02,-205.15 586.5,-184 503.88,-89.64 756.71,-33.33 850.2,-16.15"/>
<polygon fill="#63b8ff" stroke="#63b8ff" points="850.57,-19.64 859.79,-14.43 849.33,-12.75 850.57,-19.64"/>
</g>
<!-- Node14 -->
<g id="node14" class="node">
<title>Node14</title>
<g id="a_node14"><a xlink:title=" ">
<polygon fill="#e0e0e0" stroke="#999999" points="651.5,-184 595.5,-184 595.5,-165 651.5,-165 651.5,-184"/>
<text text-anchor="middle" x="623.5" y="-172" font-family="Helvetica,sans-Serif" font-size="10.00">stdbool.h</text>
</a>
</g>
</g>
<!-- Node2&#45;&gt;Node14 -->
<g id="edge13" class="edge">
<title>Node2&#45;&gt;Node14</title>
<path fill="none" stroke="#63b8ff" d="M872.43,-221.1C822.48,-213.23 741.8,-200.01 662.87,-184.38"/>
<polygon fill="#63b8ff" stroke="#63b8ff" points="663.72,-180.98 653.23,-182.46 662.35,-187.85 663.72,-180.98"/>
</g>
<!-- Node15 -->
<g id="node15" class="node">
<title>Node15</title>
<g id="a_node15"><a xlink:title=" ">
<polygon fill="#e0e0e0" stroke="#999999" points="717,-184 670,-184 670,-165 717,-165 717,-184"/>
<text text-anchor="middle" x="693.5" y="-172" font-family="Helvetica,sans-Serif" font-size="10.00">stdlib.h</text>
</a>
</g>
</g>
<!-- Node2&#45;&gt;Node15 -->
<g id="edge14" class="edge">
<title>Node2&#45;&gt;Node15</title>
<path fill="none" stroke="#63b8ff" d="M879.93,-219.52C842.93,-211.26 786.48,-198.48 728.18,-184.36"/>
<polygon fill="#63b8ff" stroke="#63b8ff" points="729.29,-181.02 718.74,-182.06 727.63,-187.83 729.29,-181.02"/>
</g>
<!-- Node16 -->
<g id="node16" class="node">
<title>Node16</title>
<g id="a_node16"><a xlink:title=" ">
<polygon fill="#e0e0e0" stroke="#999999" points="793.5,-184 735.5,-184 735.5,-165 793.5,-165 793.5,-184"/>
<text text-anchor="middle" x="764.5" y="-172" font-family="Helvetica,sans-Serif" font-size="10.00">exception</text>
</a>
</g>
</g>
<!-- Node2&#45;&gt;Node16 -->
<g id="edge15" class="edge">
<title>Node2&#45;&gt;Node16</title>
<path fill="none" stroke="#63b8ff" d="M894.04,-219.51C868.64,-210.88 830.03,-197.76 801.58,-188.1"/>
<polygon fill="#63b8ff" stroke="#63b8ff" points="802.86,-184.84 792.27,-184.93 800.61,-191.46 802.86,-184.84"/>
</g>
<!-- Node17 -->
<g id="node17" class="node">
<title>Node17</title>
<g id="a_node17"><a xlink:href="Window_8hpp.html" target="_top" xlink:title=" ">
<polygon fill="white" stroke="#666666" points="913,-184 812,-184 812,-165 913,-165 913,-184"/>
<text text-anchor="middle" x="862.5" y="-172" font-family="Helvetica,sans-Serif" font-size="10.00">Engine/Window.hpp</text>
</a>
</g>
</g>
<!-- Node2&#45;&gt;Node17 -->
<g id="edge16" class="edge">
<title>Node2&#45;&gt;Node17</title>
<path fill="none" stroke="#63b8ff" d="M905.44,-219.51C895.86,-212.16 883.87,-201.55 874.84,-192.59"/>
<polygon fill="#63b8ff" stroke="#63b8ff" points="877.48,-190.28 868.05,-185.45 872.41,-195.11 877.48,-190.28"/>
</g>
<!-- Node18 -->
<g id="node18" class="node">
<title>Node18</title>
<g id="a_node18"><a xlink:href="Event_8hpp.html" target="_top" xlink:title=" ">
<polygon fill="white" stroke="#666666" points="1023.5,-184 931.5,-184 931.5,-165 1023.5,-165 1023.5,-184"/>
<text text-anchor="middle" x="977.5" y="-172" font-family="Helvetica,sans-Serif" font-size="10.00">Engine/Event.hpp</text>
</a>
</g>
</g>
<!-- Node2&#45;&gt;Node18 -->
<g id="edge18" class="edge">
<title>Node2&#45;&gt;Node18</title>
<path fill="none" stroke="#63b8ff" d="M924.75,-219.75C931.31,-212.12 943.05,-200.87 953.9,-191.62"/>
<polygon fill="#63b8ff" stroke="#63b8ff" points="955.98,-194.44 961.5,-185.4 951.55,-189.02 955.98,-194.44"/>
</g>
<!-- Node22 -->
<g id="node22" class="node">
<title>Node22</title>
<g id="a_node22"><a xlink:href="EntitiesManager_8hpp.html" target="_top" xlink:title=" ">
<polygon fill="white" stroke="#666666" points="1181.5,-184 1041.5,-184 1041.5,-165 1181.5,-165 1181.5,-184"/>
<text text-anchor="middle" x="1111.5" y="-172" font-family="Helvetica,sans-Serif" font-size="10.00">Entities/EntitiesManager.hpp</text>
</a>
</g>
</g>
<!-- Node2&#45;&gt;Node22 -->
<g id="edge23" class="edge">
<title>Node2&#45;&gt;Node22</title>
<path fill="none" stroke="#63b8ff" d="M947.68,-219.51C977.75,-210.65 1026.54,-197.07 1063.12,-187.33"/>
<polygon fill="#63b8ff" stroke="#63b8ff" points="1063.81,-190.77 1072.59,-184.83 1062.03,-184 1063.81,-190.77"/>
</g>
<!-- Node29 -->
<g id="node29" class="node">
<title>Node29</title>
<g id="a_node29"><a xlink:href="Bullets_8hpp.html" target="_top" xlink:title=" ">
<polygon fill="white" stroke="#666666" points="1521.5,-184 1399.5,-184 1399.5,-165 1521.5,-165 1521.5,-184"/>
<text text-anchor="middle" x="1460.5" y="-172" font-family="Helvetica,sans-Serif" font-size="10.00">Components/Bullets.hpp</text>
</a>
</g>
</g>
<!-- Node2&#45;&gt;Node29 -->
<g id="edge39" class="edge">
<title>Node2&#45;&gt;Node29</title>
<path fill="none" stroke="#63b8ff" d="M968.85,-223.86C1052.91,-216.23 1230.95,-200.26 1381.5,-184 1383.65,-183.77 1385.83,-183.53 1388.03,-183.28"/>
<polygon fill="#63b8ff" stroke="#63b8ff" points="1388.16,-186.79 1397.7,-182.18 1387.37,-179.83 1388.16,-186.79"/>
</g>
<!-- Node31 -->
<g id="node31" class="node">
<title>Node31</title>
<g id="a_node31"><a xlink:href="Background_8hpp.html" target="_top" xlink:title=" ">
<polygon fill="white" stroke="#666666" points="1381.5,-184 1237.5,-184 1237.5,-165 1381.5,-165 1381.5,-184"/>
<text text-anchor="middle" x="1309.5" y="-172" font-family="Helvetica,sans-Serif" font-size="10.00">Components/Background.hpp</text>
</a>
</g>
</g>
<!-- Node2&#45;&gt;Node31 -->
<g id="edge43" class="edge">
<title>Node2&#45;&gt;Node31</title>
<path fill="none" stroke="#63b8ff" d="M968.96,-221.24C1033.57,-212.12 1148.69,-196.41 1227.06,-185.98"/>
<polygon fill="#63b8ff" stroke="#63b8ff" points="1227.39,-189.47 1236.85,-184.68 1226.47,-182.53 1227.39,-189.47"/>
</g>
<!-- Node17&#45;&gt;Node2 -->
<g id="edge17" class="edge">
<title>Node17&#45;&gt;Node2</title>
<path fill="none" stroke="#63b8ff" d="M877.49,-184.44C887.12,-191.82 899.19,-202.5 908.24,-211.5"/>
<polygon fill="#63b8ff" stroke="#63b8ff" points="905.62,-213.82 915.05,-218.65 910.69,-208.99 905.62,-213.82"/>
</g>
<!-- Node18&#45;&gt;Node2 -->
<g id="edge19" class="edge">
<title>Node18&#45;&gt;Node2</title>
<path fill="none" stroke="#63b8ff" d="M973.16,-184.36C966.59,-191.98 954.92,-203.16 944.12,-212.37"/>
<polygon fill="#63b8ff" stroke="#63b8ff" points="942.08,-209.51 936.56,-218.55 946.51,-214.93 942.08,-209.51"/>
</g>
<!-- Node19 -->
<g id="node19" class="node">
<title>Node19</title>
<g id="a_node19"><a xlink:title=" ">
<polygon fill="#e0e0e0" stroke="#999999" points="854,-129 825,-129 825,-110 854,-110 854,-129"/>
<text text-anchor="middle" x="839.5" y="-117" font-family="Helvetica,sans-Serif" font-size="10.00">list</text>
</a>
</g>
</g>
<!-- Node18&#45;&gt;Node19 -->
<g id="edge20" class="edge">
<title>Node18&#45;&gt;Node19</title>
<path fill="none" stroke="#63b8ff" d="M954.09,-164.51C929.42,-155.03 890.67,-140.15 865.17,-130.36"/>
<polygon fill="#63b8ff" stroke="#63b8ff" points="866.49,-127.12 855.9,-126.8 863.98,-133.65 866.49,-127.12"/>
</g>
<!-- Node20 -->
<g id="node20" class="node">
<title>Node20</title>
<g id="a_node20"><a xlink:title=" ">
<polygon fill="#e0e0e0" stroke="#999999" points="915,-129 872,-129 872,-110 915,-110 915,-129"/>
<text text-anchor="middle" x="893.5" y="-117" font-family="Helvetica,sans-Serif" font-size="10.00">queue</text>
</a>
</g>
</g>
<!-- Node18&#45;&gt;Node20 -->
<g id="edge21" class="edge">
<title>Node18&#45;&gt;Node20</title>
<path fill="none" stroke="#63b8ff" d="M963.25,-164.51C950.62,-156.54 931.94,-144.75 917.09,-135.38"/>
<polygon fill="#63b8ff" stroke="#63b8ff" points="919.14,-132.54 908.82,-130.17 915.41,-138.46 919.14,-132.54"/>
</g>
<!-- Node21 -->
<g id="node21" class="node">
<title>Node21</title>
<g id="a_node21"><a xlink:title=" ">
<polygon fill="#e0e0e0" stroke="#999999" points="995.5,-129 933.5,-129 933.5,-110 995.5,-110 995.5,-129"/>
<text text-anchor="middle" x="964.5" y="-117" font-family="Helvetica,sans-Serif" font-size="10.00">Skaldi.hpp</text>
</a>
</g>
</g>
<!-- Node18&#45;&gt;Node21 -->
<g id="edge22" class="edge">
<title>Node18&#45;&gt;Node21</title>
<path fill="none" stroke="#63b8ff" d="M975.35,-164.75C973.74,-158.19 971.48,-148.95 969.43,-140.6"/>
<polygon fill="#63b8ff" stroke="#63b8ff" points="972.84,-139.79 967.05,-130.91 966.04,-141.46 972.84,-139.79"/>
</g>
<!-- Node22&#45;&gt;Node2 -->
<g id="edge24" class="edge">
<title>Node22&#45;&gt;Node2</title>
<path fill="none" stroke="#63b8ff" d="M1084.47,-184.45C1054.46,-193.29 1005.69,-206.87 969.06,-216.62"/>
<polygon fill="#63b8ff" stroke="#63b8ff" points="968.35,-213.18 959.58,-219.12 970.14,-219.95 968.35,-213.18"/>
</g>
<!-- Node23 -->
<g id="node23" class="node">
<title>Node23</title>
<g id="a_node23"><a xlink:href="IComponents_8hpp.html" target="_top" xlink:title=" ">
<polygon fill="white" stroke="#666666" points="1301.5,-129 1143.5,-129 1143.5,-110 1301.5,-110 1301.5,-129"/>
<text text-anchor="middle" x="1222.5" y="-117" font-family="Helvetica,sans-Serif" font-size="10.00">../Components/IComponents.hpp</text>
</a>
</g>
</g>
<!-- Node22&#45;&gt;Node23 -->
<g id="edge25" class="edge">
<title>Node22&#45;&gt;Node23</title>
<path fill="none" stroke="#63b8ff" d="M1130.33,-164.51C1147.66,-156.24 1173.61,-143.84 1193.57,-134.31"/>
<polygon fill="#63b8ff" stroke="#63b8ff" points="1195.07,-137.48 1202.58,-130.01 1192.05,-131.16 1195.07,-137.48"/>
</g>
<!-- Node24 -->
<g id="node24" class="node">
<title>Node24</title>
<g id="a_node24"><a xlink:href="SparseArray_8hpp.html" target="_top" xlink:title=" ">
<polygon fill="white" stroke="#666666" points="1125,-129 1014,-129 1014,-110 1125,-110 1125,-129"/>
<text text-anchor="middle" x="1069.5" y="-117" font-family="Helvetica,sans-Serif" font-size="10.00">Utils/SparseArray.hpp</text>
</a>
</g>
</g>
<!-- Node22&#45;&gt;Node24 -->
<g id="edge27" class="edge">
<title>Node22&#45;&gt;Node24</title>
<path fill="none" stroke="#63b8ff" d="M1104.56,-164.75C1098.88,-157.58 1090.66,-147.2 1083.61,-138.3"/>
<polygon fill="#63b8ff" stroke="#63b8ff" points="1086.48,-136.29 1077.53,-130.63 1080.99,-140.64 1086.48,-136.29"/>
</g>
<!-- Node23&#45;&gt;Node2 -->
<g id="edge26" class="edge">
<title>Node23&#45;&gt;Node2</title>
<path fill="none" stroke="#63b8ff" d="M1220.78,-129.1C1217.51,-143.04 1209,-170.4 1190.5,-184 1157.91,-207.95 1049.23,-219.73 980.09,-224.93"/>
<polygon fill="#63b8ff" stroke="#63b8ff" points="980.16,-221.41 970.44,-225.63 980.67,-228.4 980.16,-221.41"/>
</g>
<!-- Node24&#45;&gt;Node8 -->
<g id="edge28" class="edge">
<title>Node24&#45;&gt;Node8</title>
<path fill="none" stroke="#63b8ff" d="M1024.85,-109.57C921.04,-88.81 664.93,-37.59 567.74,-18.15"/>
<polygon fill="#63b8ff" stroke="#63b8ff" points="568.67,-14.77 558.18,-16.24 567.3,-21.63 568.67,-14.77"/>
</g>
<!-- Node24&#45;&gt;Node13 -->
<g id="edge31" class="edge">
<title>Node24&#45;&gt;Node13</title>
<path fill="none" stroke="#63b8ff" d="M1017.23,-109.55C989.85,-103 956.84,-92.01 931.5,-74 914.98,-62.26 901.64,-43.14 893.25,-28.94"/>
<polygon fill="#63b8ff" stroke="#63b8ff" points="896.51,-27.59 888.57,-20.57 890.4,-31.01 896.51,-27.59"/>
</g>
<!-- Node25 -->
<g id="node25" class="node">
<title>Node25</title>
<g id="a_node25"><a xlink:title=" ">
<polygon fill="#e0e0e0" stroke="#999999" points="996.5,-19 940.5,-19 940.5,0 996.5,0 996.5,-19"/>
<text text-anchor="middle" x="968.5" y="-7" font-family="Helvetica,sans-Serif" font-size="10.00">algorithm</text>
</a>
</g>
</g>
<!-- Node24&#45;&gt;Node25 -->
<g id="edge29" class="edge">
<title>Node24&#45;&gt;Node25</title>
<path fill="none" stroke="#63b8ff" d="M1027.44,-109.53C993.9,-101.43 950.88,-88.56 940.5,-74 930.27,-59.65 940.87,-40.97 951.83,-27.59"/>
<polygon fill="#63b8ff" stroke="#63b8ff" points="954.18,-30.22 958.23,-20.43 948.96,-25.56 954.18,-30.22"/>
</g>
<!-- Node26 -->
<g id="node26" class="node">
<title>Node26</title>
<g id="a_node26"><a xlink:title=" ">
<polygon fill="#e0e0e0" stroke="#999999" points="1060.5,-19 1022.5,-19 1022.5,0 1060.5,0 1060.5,-19"/>
<text text-anchor="middle" x="1041.5" y="-7" font-family="Helvetica,sans-Serif" font-size="10.00">array</text>
</a>
</g>
</g>
<!-- Node24&#45;&gt;Node26 -->
<g id="edge30" class="edge">
<title>Node24&#45;&gt;Node26</title>
<path fill="none" stroke="#63b8ff" d="M1067.21,-109.66C1062.76,-92.5 1052.84,-54.26 1046.71,-30.6"/>
<polygon fill="#63b8ff" stroke="#63b8ff" points="1050.1,-29.73 1044.2,-20.93 1043.32,-31.48 1050.1,-29.73"/>
</g>
<!-- Node27 -->
<g id="node27" class="node">
<title>Node27</title>
<g id="a_node27"><a xlink:title=" ">
<polygon fill="#e0e0e0" stroke="#999999" points="1122,-19 1083,-19 1083,0 1122,0 1122,-19"/>
<text text-anchor="middle" x="1102.5" y="-7" font-family="Helvetica,sans-Serif" font-size="10.00">utility</text>
</a>
</g>
</g>
<!-- Node24&#45;&gt;Node27 -->
<g id="edge32" class="edge">
<title>Node24&#45;&gt;Node27</title>
<path fill="none" stroke="#63b8ff" d="M1072.2,-109.66C1077.47,-92.42 1089.24,-53.9 1096.46,-30.27"/>
<polygon fill="#63b8ff" stroke="#63b8ff" points="1099.74,-31.49 1099.32,-20.91 1093.05,-29.45 1099.74,-31.49"/>
</g>
<!-- Node28 -->
<g id="node28" class="node">
<title>Node28</title>
<g id="a_node28"><a xlink:href="Vectors_8hpp.html" target="_top" xlink:title=" ">
<polygon fill="white" stroke="#666666" points="1041.5,-74 949.5,-74 949.5,-55 1041.5,-55 1041.5,-74"/>
<text text-anchor="middle" x="995.5" y="-62" font-family="Helvetica,sans-Serif" font-size="10.00">Utils/Vectors.hpp</text>
</a>
</g>
</g>
<!-- Node24&#45;&gt;Node28 -->
<g id="edge33" class="edge">
<title>Node24&#45;&gt;Node28</title>
<path fill="none" stroke="#63b8ff" d="M1056.95,-109.51C1046.04,-101.7 1030,-90.21 1017.04,-80.93"/>
<polygon fill="#63b8ff" stroke="#63b8ff" points="1019.27,-78.22 1009.1,-75.24 1015.19,-83.91 1019.27,-78.22"/>
</g>
<!-- Node28&#45;&gt;Node8 -->
<g id="edge34" class="edge">
<title>Node28&#45;&gt;Node8</title>
<path fill="none" stroke="#63b8ff" d="M949.11,-58.22C857.1,-47.76 653.02,-24.55 567.92,-14.87"/>
<polygon fill="#63b8ff" stroke="#63b8ff" points="568.57,-11.42 558.24,-13.77 567.78,-18.38 568.57,-11.42"/>
</g>
<!-- Node28&#45;&gt;Node13 -->
<g id="edge37" class="edge">
<title>Node28&#45;&gt;Node13</title>
<path fill="none" stroke="#63b8ff" d="M976.5,-54.51C958.94,-46.2 932.58,-33.73 912.41,-24.18"/>
<polygon fill="#63b8ff" stroke="#63b8ff" points="914.12,-21.12 903.59,-20.01 911.13,-27.45 914.12,-21.12"/>
</g>
<!-- Node28&#45;&gt;Node25 -->
<g id="edge35" class="edge">
<title>Node28&#45;&gt;Node25</title>
<path fill="none" stroke="#63b8ff" d="M991.04,-54.75C987.55,-47.88 982.55,-38.08 978.15,-29.45"/>
<polygon fill="#63b8ff" stroke="#63b8ff" points="981.4,-28.11 973.74,-20.79 975.16,-31.29 981.4,-28.11"/>
</g>
<!-- Node28&#45;&gt;Node26 -->
<g id="edge36" class="edge">
<title>Node28&#45;&gt;Node26</title>
<path fill="none" stroke="#63b8ff" d="M1003.1,-54.75C1009.38,-47.5 1018.51,-36.98 1026.3,-28.02"/>
<polygon fill="#63b8ff" stroke="#63b8ff" points="1028.84,-30.43 1032.75,-20.59 1023.55,-25.84 1028.84,-30.43"/>
</g>
<!-- Node28&#45;&gt;Node27 -->
<g id="edge38" class="edge">
<title>Node28&#45;&gt;Node27</title>
<path fill="none" stroke="#63b8ff" d="M1013.65,-54.51C1030.28,-46.27 1055.14,-33.96 1074.35,-24.45"/>
<polygon fill="#63b8ff" stroke="#63b8ff" points="1075.85,-27.6 1083.26,-20.03 1072.75,-21.33 1075.85,-27.6"/>
</g>
<!-- Node29&#45;&gt;Node2 -->
<g id="edge40" class="edge">
<title>Node29&#45;&gt;Node2</title>
<path fill="none" stroke="#63b8ff" d="M1399.04,-184.05C1248.66,-200.29 1070.99,-216.22 980.21,-223.85"/>
<polygon fill="#63b8ff" stroke="#63b8ff" points="979.97,-220.35 970.3,-224.67 980.55,-227.33 979.97,-220.35"/>
</g>
<!-- Node29&#45;&gt;Node23 -->
<g id="edge41" class="edge">
<title>Node29&#45;&gt;Node23</title>
<path fill="none" stroke="#63b8ff" d="M1420.13,-164.51C1379.74,-155.52 1317.5,-141.65 1273.67,-131.9"/>
<polygon fill="#63b8ff" stroke="#63b8ff" points="1274.67,-128.53 1264.15,-129.78 1273.15,-135.37 1274.67,-128.53"/>
</g>
<!-- Node29&#45;&gt;Node30 -->
<g id="edge42" class="edge">
<title>Node29&#45;&gt;Node30</title>
<path fill="none" stroke="#63b8ff" d="M1497.65,-164.51C1538.86,-154.54 1604.81,-138.58 1644.94,-128.86"/>
<polygon fill="#63b8ff" stroke="#63b8ff" points="1645.66,-132.29 1654.55,-126.54 1644.01,-125.49 1645.66,-132.29"/>
</g>
<!-- Node31&#45;&gt;Node2 -->
<g id="edge44" class="edge">
<title>Node31&#45;&gt;Node2</title>
<path fill="none" stroke="#63b8ff" d="M1248.66,-184.5C1175.28,-194.79 1052.89,-211.45 980.08,-221.05"/>
<polygon fill="#63b8ff" stroke="#63b8ff" points="979.79,-217.55 970.33,-222.33 980.7,-224.49 979.79,-217.55"/>
</g>
</g>
</svg>
        <g id="navigator" transform="translate(0 0)" fill="#404254">
                <rect fill="#f2f5e9" fill-opacity="0.5" stroke="#606060" stroke-width=".5" x="0" y="0" width="60" height="60"/>
                <use id="zoomplus" xlink:href="#zoomPlus" x="17" y="9" onmousedown="handleZoom(evt,'in')"/>
                <use id="zoomminus" xlink:href="#zoomMin" x="42" y="9" onmousedown="handleZoom(evt,'out')"/>
                <use id="reset" xlink:href="#resetDef" x="30" y="36" onmousedown="handleReset()"/>
                <g id="arrowUp" xlink:href="#dirArrow" transform="translate(30 24)" onmousedown="handlePan(0,-1)">
                  <use xlink:href="#rim" fill="#404040">
                        <set attributeName="fill" to="#808080" begin="arrowUp.mouseover" end="arrowUp.mouseout"/>
                  </use>
                  <path fill="none" stroke="white" stroke-width="1.5" d="M0,-3.0v7 M-2.5,-0.5L0,-3.0L2.5,-0.5"/>
                </g>
                <g id="arrowRight" xlink:href="#dirArrow" transform="rotate(90) translate(36 -43)" onmousedown="handlePan(1,0)">
                  <use xlink:href="#rim" fill="#404040">
                        <set attributeName="fill" to="#808080" begin="arrowRight.mouseover" end="arrowRight.mouseout"/>
                  </use>
                  <path fill="none" stroke="white" stroke-width="1.5" d="M0,-3.0v7 M-2.5,-0.5L0,-3.0L2.5,-0.5"/>
                </g>
                <g id="arrowDown" xlink:href="#dirArrow" transform="rotate(180) translate(-30 -48)" onmousedown="handlePan(0,1)">
                  <use xlink:href="#rim" fill="#404040">
                        <set attributeName="fill" to="#808080" begin="arrowDown.mouseover" end="arrowDown.mouseout"/>
                  </use>
                  <path fill="none" stroke="white" stroke-width="1.5" d="M0,-3.0v7 M-2.5,-0.5L0,-3.0L2.5,-0.5"/>
                </g>
                <g id="arrowLeft" xlink:href="#dirArrow" transform="rotate(270) translate(-36 17)" onmousedown="handlePan(-1,0)">
                  <use xlink:href="#rim" fill="#404040">
                        <set attributeName="fill" to="#808080" begin="arrowLeft.mouseover" end="arrowLeft.mouseout"/>
                  </use>
                  <path fill="none" stroke="white" stroke-width="1.5" d="M0,-3.0v7 M-2.5,-0.5L0,-3.0L2.5,-0.5"/>
                </g>
        </g>
        <svg viewBox="0 0 15 15" width="100%" height="30px" preserveAspectRatio="xMaxYMin meet">
         <g id="arrow_out" transform="scale(0.3 0.3)">
          <a xlink:href="Mobs_8hpp__incl_org.svg" target="_base">
           <rect id="button" ry="5" rx="5" y="6" x="6" height="38" width="38"
                fill="#f2f5e9" fill-opacity="0.5" stroke="#606060" stroke-width="1.0"/>
           <path id="arrow"
             d="M 11.500037,31.436501 C 11.940474,20.09759 22.043105,11.32322 32.158766,21.979434 L 37.068811,17.246167 C 37.068811,17.246167 37.088388,32 37.088388,32 L 22.160133,31.978069 C 22.160133,31.978069 26.997745,27.140456 26.997745,27.140456 C 18.528582,18.264221 13.291696,25.230495 11.500037,31.436501 z"
             style="fill:#404040;"/>
          </a>
         </g>
        </svg>
</svg>
