<?xml version="1.0" encoding="UTF-8" standalone="no"?>
<!DOCTYPE svg PUBLIC "-//W3C//DTD SVG 1.1//EN"
 "http://www.w3.org/Graphics/SVG/1.1/DTD/svg11.dtd">
<!-- Generated by graphviz version 7.0.5 (20221223.1930)
 -->
<!-- Title: /github/workspace/client/include/Components/Mobs.hpp Pages: 1 -->
<svg width="1751pt" height="313pt"
 viewBox="0.00 0.00 1751.09 313.00" xmlns="http://www.w3.org/2000/svg" xmlns:xlink="http://www.w3.org/1999/xlink">
<g id="graph0" class="graph" transform="scale(1 1) rotate(0) translate(4 309)">
<title>/github/workspace/client/include/Components/Mobs.hpp</title>
<!-- Node1 -->
<g id="node1" class="node">
<title>Node1</title>
<g id="a_node1"><a xlink:title=" ">
<polygon fill="#999999" stroke="#666666" points="1369,-305 1216,-305 1216,-275 1369,-275 1369,-305"/>
<text text-anchor="start" x="1224" y="-293" font-family="Helvetica,sans-Serif" font-size="10.00">/github/workspace/client</text>
<text text-anchor="middle" x="1292.5" y="-282" font-family="Helvetica,sans-Serif" font-size="10.00">/include/Components/Mobs.hpp</text>
</a>
</g>
</g>
<!-- Node2 -->
<g id="node2" class="node">
<title>Node2</title>
<g id="a_node2"><a xlink:href="Engine_8hpp.html" target="_top" xlink:title=" ">
<polygon fill="white" stroke="#666666" points="879.5,-239 783.5,-239 783.5,-220 879.5,-220 879.5,-239"/>
<text text-anchor="middle" x="831.5" y="-227" font-family="Helvetica,sans-Serif" font-size="10.00">Engine/Engine.hpp</text>
</a>
</g>
</g>
<!-- Node1&#45;&gt;Node2 -->
<g id="edge1" class="edge">
<title>Node1&#45;&gt;Node2</title>
<path fill="none" stroke="#63b8ff" d="M1215.6,-279.24C1124.34,-267.66 974.12,-248.6 891.17,-238.07"/>
<polygon fill="#63b8ff" stroke="#63b8ff" points="891.79,-234.62 881.43,-236.84 890.91,-241.57 891.79,-234.62"/>
</g>
<!-- Node27 -->
<g id="node27" class="node">
<title>Node27</title>
<g id="a_node27"><a xlink:title=" ">
<polygon fill="#e0e0e0" stroke="#999999" points="1556.5,-129 1510.5,-129 1510.5,-110 1556.5,-110 1556.5,-129"/>
<text text-anchor="middle" x="1533.5" y="-117" font-family="Helvetica,sans-Serif" font-size="10.00">math.h</text>
</a>
</g>
</g>
<!-- Node1&#45;&gt;Node27 -->
<g id="edge42" class="edge">
<title>Node1&#45;&gt;Node27</title>
<path fill="none" stroke="#63b8ff" d="M1369.38,-282.02C1483.68,-269.87 1689.82,-240.54 1734.5,-184 1779.13,-127.53 1636.53,-120.35 1568.05,-120.05"/>
<polygon fill="#63b8ff" stroke="#63b8ff" points="1568.09,-116.55 1558.09,-120.06 1568.1,-123.55 1568.09,-116.55"/>
</g>
<!-- Node3 -->
<g id="node3" class="node">
<title>Node3</title>
<g id="a_node3"><a xlink:title=" ">
<polygon fill="#e0e0e0" stroke="#999999" points="1483,-184 1394,-184 1394,-165 1483,-165 1483,-184"/>
<text text-anchor="middle" x="1438.5" y="-172" font-family="Helvetica,sans-Serif" font-size="10.00">SFML/Audio.hpp</text>
</a>
</g>
</g>
<!-- Node2&#45;&gt;Node3 -->
<g id="edge2" class="edge">
<title>Node2&#45;&gt;Node3</title>
<path fill="none" stroke="#63b8ff" d="M879.7,-225.85C974.07,-220.41 1190.04,-206.63 1382.56,-184.13"/>
<polygon fill="#63b8ff" stroke="#63b8ff" points="1382.72,-187.64 1392.24,-182.99 1381.9,-180.69 1382.72,-187.64"/>
</g>
<!-- Node4 -->
<g id="node4" class="node">
<title>Node4</title>
<g id="a_node4"><a xlink:title=" ">
<polygon fill="#e0e0e0" stroke="#999999" points="1605.5,-184 1501.5,-184 1501.5,-165 1605.5,-165 1605.5,-184"/>
<text text-anchor="middle" x="1553.5" y="-172" font-family="Helvetica,sans-Serif" font-size="10.00">SFML/Graphics.hpp</text>
</a>
</g>
</g>
<!-- Node2&#45;&gt;Node4 -->
<g id="edge3" class="edge">
<title>Node2&#45;&gt;Node4</title>
<path fill="none" stroke="#63b8ff" d="M879.7,-226.43C987.24,-221.57 1255.14,-208.05 1490.12,-184.17"/>
<polygon fill="#63b8ff" stroke="#63b8ff" points="1490.19,-187.68 1499.78,-183.18 1489.48,-180.72 1490.19,-187.68"/>
</g>
<!-- Node5 -->
<g id="node5" class="node">
<title>Node5</title>
<g id="a_node5"><a xlink:title=" ">
<polygon fill="#e0e0e0" stroke="#999999" points="1725,-184 1624,-184 1624,-165 1725,-165 1725,-184"/>
<text text-anchor="middle" x="1674.5" y="-172" font-family="Helvetica,sans-Serif" font-size="10.00">SFML/Network.hpp</text>
</a>
</g>
</g>
<!-- Node2&#45;&gt;Node5 -->
<g id="edge4" class="edge">
<title>Node2&#45;&gt;Node5</title>
<path fill="none" stroke="#63b8ff" d="M879.72,-227.17C1000.93,-223.52 1328.29,-211.8 1612.43,-184.11"/>
<polygon fill="#63b8ff" stroke="#63b8ff" points="1612.68,-187.6 1622.29,-183.14 1612,-180.63 1612.68,-187.6"/>
</g>
<!-- Node6 -->
<g id="node6" class="node">
<title>Node6</title>
<g id="a_node6"><a xlink:title=" ">
<polygon fill="#e0e0e0" stroke="#999999" points="99,-184 0,-184 0,-165 99,-165 99,-184"/>
<text text-anchor="middle" x="49.5" y="-172" font-family="Helvetica,sans-Serif" font-size="10.00">SFML/Window.hpp</text>
</a>
</g>
</g>
<!-- Node2&#45;&gt;Node6 -->
<g id="edge5" class="edge">
<title>Node2&#45;&gt;Node6</title>
<path fill="none" stroke="#63b8ff" d="M783.16,-226.89C668.42,-222.77 370.43,-210.36 110.53,-184.11"/>
<polygon fill="#63b8ff" stroke="#63b8ff" points="111.17,-180.66 100.86,-183.13 110.46,-187.62 111.17,-180.66"/>
</g>
<!-- Node7 -->
<g id="node7" class="node">
<title>Node7</title>
<g id="a_node7"><a xlink:title=" ">
<polygon fill="#e0e0e0" stroke="#999999" points="215.5,-184 117.5,-184 117.5,-165 215.5,-165 215.5,-184"/>
<text text-anchor="middle" x="166.5" y="-172" font-family="Helvetica,sans-Serif" font-size="10.00">SFML/System.hpp</text>
</a>
</g>
</g>
<!-- Node2&#45;&gt;Node7 -->
<g id="edge6" class="edge">
<title>Node2&#45;&gt;Node7</title>
<path fill="none" stroke="#63b8ff" d="M783.03,-225.91C680.64,-220.23 434.84,-205.42 229.5,-184 228.68,-183.91 227.85,-183.83 227.01,-183.74"/>
<polygon fill="#63b8ff" stroke="#63b8ff" points="227.83,-180.31 217.49,-182.64 227.03,-187.26 227.83,-180.31"/>
</g>
<!-- Node8 -->
<g id="node8" class="node">
<title>Node8</title>
<g id="a_node8"><a xlink:title=" ">
<polygon fill="#e0e0e0" stroke="#999999" points="550.5,-19 496.5,-19 496.5,0 550.5,0 550.5,-19"/>
<text text-anchor="middle" x="523.5" y="-7" font-family="Helvetica,sans-Serif" font-size="10.00">iostream</text>
</a>
</g>
</g>
<!-- Node2&#45;&gt;Node8 -->
<g id="edge7" class="edge">
<title>Node2&#45;&gt;Node8</title>
<path fill="none" stroke="#63b8ff" d="M783.15,-228.39C652.1,-227.58 297.53,-221.87 262.5,-184 187.47,-102.87 395.76,-41.27 485.06,-19.27"/>
<polygon fill="#63b8ff" stroke="#63b8ff" points="485.71,-22.71 494.61,-16.96 484.07,-15.91 485.71,-22.71"/>
</g>
<!-- Node9 -->
<g id="node9" class="node">
<title>Node9</title>
<g id="a_node9"><a xlink:title=" ">
<polygon fill="#e0e0e0" stroke="#999999" points="321.5,-184 271.5,-184 271.5,-165 321.5,-165 321.5,-184"/>
<text text-anchor="middle" x="296.5" y="-172" font-family="Helvetica,sans-Serif" font-size="10.00">fstream</text>
</a>
</g>
</g>
<!-- Node2&#45;&gt;Node9 -->
<g id="edge8" class="edge">
<title>Node2&#45;&gt;Node9</title>
<path fill="none" stroke="#63b8ff" d="M783.17,-226.72C695.35,-222.94 503.65,-212.2 332.88,-184.13"/>
<polygon fill="#63b8ff" stroke="#63b8ff" points="333.59,-180.7 323.15,-182.5 332.44,-187.6 333.59,-180.7"/>
</g>
<!-- Node10 -->
<g id="node10" class="node">
<title>Node10</title>
<g id="a_node10"><a xlink:title=" ">
<polygon fill="#e0e0e0" stroke="#999999" points="381,-184 340,-184 340,-165 381,-165 381,-184"/>
<text text-anchor="middle" x="360.5" y="-172" font-family="Helvetica,sans-Serif" font-size="10.00">string</text>
</a>
</g>
</g>
<!-- Node2&#45;&gt;Node10 -->
<g id="edge9" class="edge">
<title>Node2&#45;&gt;Node10</title>
<path fill="none" stroke="#63b8ff" d="M783.14,-226.4C703.55,-222.34 539.91,-211.45 392.41,-184.01"/>
<polygon fill="#63b8ff" stroke="#63b8ff" points="393.33,-180.62 382.86,-182.2 392.03,-187.5 393.33,-180.62"/>
</g>
<!-- Node11 -->
<g id="node11" class="node">
<title>Node11</title>
<g id="a_node11"><a xlink:title=" ">
<polygon fill="#e0e0e0" stroke="#999999" points="449.5,-184 399.5,-184 399.5,-165 449.5,-165 449.5,-184"/>
<text text-anchor="middle" x="424.5" y="-172" font-family="Helvetica,sans-Serif" font-size="10.00">unistd.h</text>
</a>
</g>
</g>
<!-- Node2&#45;&gt;Node11 -->
<g id="edge10" class="edge">
<title>Node2&#45;&gt;Node11</title>
<path fill="none" stroke="#63b8ff" d="M783.22,-224.7C713.93,-218.82 582.13,-206.04 460.64,-184.17"/>
<polygon fill="#63b8ff" stroke="#63b8ff" points="461.63,-180.8 451.16,-182.44 460.37,-187.68 461.63,-180.8"/>
</g>
<!-- Node12 -->
<g id="node12" class="node">
<title>Node12</title>
<g id="a_node12"><a xlink:title=" ">
<polygon fill="#e0e0e0" stroke="#999999" points="533,-184 468,-184 468,-165 533,-165 533,-184"/>
<text text-anchor="middle" x="500.5" y="-172" font-family="Helvetica,sans-Serif" font-size="10.00">sys/types.h</text>
</a>
</g>
</g>
<!-- Node2&#45;&gt;Node12 -->
<g id="edge11" class="edge">
<title>Node2&#45;&gt;Node12</title>
<path fill="none" stroke="#63b8ff" d="M783.2,-221.29C726.65,-212.76 630.18,-197.95 547.5,-184 546.5,-183.83 545.48,-183.66 544.46,-183.48"/>
<polygon fill="#63b8ff" stroke="#63b8ff" points="545.3,-180.08 534.84,-181.8 544.09,-186.97 545.3,-180.08"/>
</g>
<!-- Node13 -->
<g id="node13" class="node">
<title>Node13</title>
<g id="a_node13"><a xlink:title=" ">
<polygon fill="#e0e0e0" stroke="#999999" points="685.5,-19 641.5,-19 641.5,0 685.5,0 685.5,-19"/>
<text text-anchor="middle" x="663.5" y="-7" font-family="Helvetica,sans-Serif" font-size="10.00">vector</text>
</a>
</g>
</g>
<!-- Node2&#45;&gt;Node13 -->
<g id="edge12" class="edge">
<title>Node2&#45;&gt;Node13</title>
<path fill="none" stroke="#63b8ff" d="M783.12,-227.04C717.58,-223.93 605.84,-214.23 580.5,-184 538.58,-133.99 609.04,-59.22 644.72,-26.64"/>
<polygon fill="#63b8ff" stroke="#63b8ff" points="646.69,-29.58 651.83,-20.31 642.03,-24.35 646.69,-29.58"/>
</g>
<!-- Node14 -->
<g id="node14" class="node">
<title>Node14</title>
<g id="a_node14"><a xlink:title=" ">
<polygon fill="#e0e0e0" stroke="#999999" points="647.5,-184 589.5,-184 589.5,-165 647.5,-165 647.5,-184"/>
<text text-anchor="middle" x="618.5" y="-172" font-family="Helvetica,sans-Serif" font-size="10.00">exception</text>
</a>
</g>
</g>
<!-- Node2&#45;&gt;Node14 -->
<g id="edge13" class="edge">
<title>Node2&#45;&gt;Node14</title>
<path fill="none" stroke="#63b8ff" d="M795.37,-219.51C757.56,-210.1 698.33,-195.36 658.97,-185.57"/>
<polygon fill="#63b8ff" stroke="#63b8ff" points="659.96,-182.21 649.41,-183.19 658.27,-189 659.96,-182.21"/>
</g>
<!-- Node15 -->
<g id="node15" class="node">
<title>Node15</title>
<g id="a_node15"><a xlink:href="Window_8hpp.html" target="_top" xlink:title=" ">
<polygon fill="white" stroke="#666666" points="767,-184 666,-184 666,-165 767,-165 767,-184"/>
<text text-anchor="middle" x="716.5" y="-172" font-family="Helvetica,sans-Serif" font-size="10.00">Engine/Window.hpp</text>
</a>
</g>
</g>
<!-- Node2&#45;&gt;Node15 -->
<g id="edge14" class="edge">
<title>Node2&#45;&gt;Node15</title>
<path fill="none" stroke="#63b8ff" d="M806.77,-219.51C787.18,-211.27 760.19,-198.96 740.73,-189.45"/>
<polygon fill="#63b8ff" stroke="#63b8ff" points="742.4,-186.36 731.89,-185.03 739.27,-192.63 742.4,-186.36"/>
</g>
<!-- Node16 -->
<g id="node16" class="node">
<title>Node16</title>
<g id="a_node16"><a xlink:href="Event_8hpp.html" target="_top" xlink:title=" ">
<polygon fill="white" stroke="#666666" points="877.5,-184 785.5,-184 785.5,-165 877.5,-165 877.5,-184"/>
<text text-anchor="middle" x="831.5" y="-172" font-family="Helvetica,sans-Serif" font-size="10.00">Engine/Event.hpp</text>
</a>
</g>
</g>
<!-- Node2&#45;&gt;Node16 -->
<g id="edge16" class="edge">
<title>Node2&#45;&gt;Node16</title>
<path fill="none" stroke="#63b8ff" d="M826.33,-219.75C824.92,-213.19 824.46,-203.95 824.93,-195.6"/>
<polygon fill="#63b8ff" stroke="#63b8ff" points="828.37,-196.3 826.11,-185.94 821.42,-195.45 828.37,-196.3"/>
</g>
<!-- Node19 -->
<g id="node19" class="node">
<title>Node19</title>
<g id="a_node19"><a xlink:href="EntitiesManager_8hpp.html" target="_top" xlink:title=" ">
<polygon fill="white" stroke="#666666" points="1035.5,-184 895.5,-184 895.5,-165 1035.5,-165 1035.5,-184"/>
<text text-anchor="middle" x="965.5" y="-172" font-family="Helvetica,sans-Serif" font-size="10.00">Entities/EntitiesManager.hpp</text>
</a>
</g>
</g>
<!-- Node2&#45;&gt;Node19 -->
<g id="edge20" class="edge">
<title>Node2&#45;&gt;Node19</title>
<path fill="none" stroke="#63b8ff" d="M849.01,-219.51C868.91,-210.93 901.59,-197.92 927.35,-188.27"/>
<polygon fill="#63b8ff" stroke="#63b8ff" points="928.33,-191.64 936.5,-184.88 925.9,-185.07 928.33,-191.64"/>
</g>
<!-- Node26 -->
<g id="node26" class="node">
<title>Node26</title>
<g id="a_node26"><a xlink:href="Bullets_8hpp.html" target="_top" xlink:title=" ">
<polygon fill="white" stroke="#666666" points="1375.5,-184 1253.5,-184 1253.5,-165 1375.5,-165 1375.5,-184"/>
<text text-anchor="middle" x="1314.5" y="-172" font-family="Helvetica,sans-Serif" font-size="10.00">Components/Bullets.hpp</text>
</a>
</g>
</g>
<!-- Node2&#45;&gt;Node26 -->
<g id="edge36" class="edge">
<title>Node2&#45;&gt;Node26</title>
<path fill="none" stroke="#63b8ff" d="M879.75,-222.9C955.59,-214.69 1106.89,-198.74 1235.5,-184 1237.64,-183.75 1239.82,-183.5 1242.03,-183.25"/>
<polygon fill="#63b8ff" stroke="#63b8ff" points="1242.17,-186.75 1251.69,-182.11 1241.36,-179.8 1242.17,-186.75"/>
</g>
<!-- Node28 -->
<g id="node28" class="node">
<title>Node28</title>
<g id="a_node28"><a xlink:href="Background_8hpp.html" target="_top" xlink:title=" ">
<polygon fill="white" stroke="#666666" points="1235.5,-184 1091.5,-184 1091.5,-165 1235.5,-165 1235.5,-184"/>
<text text-anchor="middle" x="1163.5" y="-172" font-family="Helvetica,sans-Serif" font-size="10.00">Components/Background.hpp</text>
</a>
</g>
</g>
<!-- Node2&#45;&gt;Node28 -->
<g id="edge40" class="edge">
<title>Node2&#45;&gt;Node28</title>
<path fill="none" stroke="#63b8ff" d="M879.73,-219.98C935.2,-210.81 1026.69,-196.18 1090.79,-186.22"/>
<polygon fill="#63b8ff" stroke="#63b8ff" points="1091.18,-189.7 1100.53,-184.71 1090.11,-182.79 1091.18,-189.7"/>
</g>
<!-- Node15&#45;&gt;Node2 -->
<g id="edge15" class="edge">
<title>Node15&#45;&gt;Node2</title>
<path fill="none" stroke="#63b8ff" d="M740.91,-184.36C760.42,-192.55 787.42,-204.86 806.95,-214.4"/>
<polygon fill="#63b8ff" stroke="#63b8ff" points="805.34,-217.51 815.85,-218.83 808.46,-211.24 805.34,-217.51"/>
</g>
<!-- Node16&#45;&gt;Node2 -->
<g id="edge17" class="edge">
<title>Node16&#45;&gt;Node2</title>
<path fill="none" stroke="#63b8ff" d="M836.71,-184.44C838.08,-190.97 838.54,-200.1 838.07,-208.35"/>
<polygon fill="#63b8ff" stroke="#63b8ff" points="834.6,-207.89 836.85,-218.25 841.55,-208.75 834.6,-207.89"/>
</g>
<!-- Node17 -->
<g id="node17" class="node">
<title>Node17</title>
<g id="a_node17"><a xlink:title=" ">
<polygon fill="#e0e0e0" stroke="#999999" points="776,-129 747,-129 747,-110 776,-110 776,-129"/>
<text text-anchor="middle" x="761.5" y="-117" font-family="Helvetica,sans-Serif" font-size="10.00">list</text>
</a>
</g>
</g>
<!-- Node16&#45;&gt;Node17 -->
<g id="edge18" class="edge">
<title>Node16&#45;&gt;Node17</title>
<path fill="none" stroke="#63b8ff" d="M819.63,-164.51C809.41,-156.77 794.43,-145.43 782.24,-136.2"/>
<polygon fill="#63b8ff" stroke="#63b8ff" points="784.49,-133.52 774.41,-130.27 780.27,-139.1 784.49,-133.52"/>
</g>
<!-- Node18 -->
<g id="node18" class="node">
<title>Node18</title>
<g id="a_node18"><a xlink:title=" ">
<polygon fill="#e0e0e0" stroke="#999999" points="729,-129 686,-129 686,-110 729,-110 729,-129"/>
<text text-anchor="middle" x="707.5" y="-117" font-family="Helvetica,sans-Serif" font-size="10.00">queue</text>
</a>
</g>
</g>
<!-- Node16&#45;&gt;Node18 -->
<g id="edge19" class="edge">
<title>Node16&#45;&gt;Node18</title>
<path fill="none" stroke="#63b8ff" d="M810.47,-164.51C790.75,-156.08 761.03,-143.38 738.59,-133.79"/>
<polygon fill="#63b8ff" stroke="#63b8ff" points="740.19,-130.66 729.62,-129.95 737.44,-137.1 740.19,-130.66"/>
</g>
<!-- Node19&#45;&gt;Node2 -->
<g id="edge21" class="edge">
<title>Node19&#45;&gt;Node2</title>
<path fill="none" stroke="#63b8ff" d="M948.29,-184.36C928.53,-192.89 895.88,-205.9 870.05,-215.58"/>
<polygon fill="#63b8ff" stroke="#63b8ff" points="869.03,-212.23 860.87,-218.98 871.46,-218.79 869.03,-212.23"/>
</g>
<!-- Node20 -->
<g id="node20" class="node">
<title>Node20</title>
<g id="a_node20"><a xlink:href="IComponents_8hpp.html" target="_top" xlink:title=" ">
<polygon fill="white" stroke="#666666" points="1138.5,-129 988.5,-129 988.5,-110 1138.5,-110 1138.5,-129"/>
<text text-anchor="middle" x="1063.5" y="-117" font-family="Helvetica,sans-Serif" font-size="10.00">Components/IComponents.hpp</text>
</a>
</g>
</g>
<!-- Node19&#45;&gt;Node20 -->
<g id="edge22" class="edge">
<title>Node19&#45;&gt;Node20</title>
<path fill="none" stroke="#63b8ff" d="M982.12,-164.51C997.28,-156.31 1019.92,-144.07 1037.47,-134.58"/>
<polygon fill="#63b8ff" stroke="#63b8ff" points="1038.66,-137.91 1045.79,-130.08 1035.33,-131.76 1038.66,-137.91"/>
</g>
<!-- Node21 -->
<g id="node21" class="node">
<title>Node21</title>
<g id="a_node21"><a xlink:href="SparseArray_8hpp.html" target="_top" xlink:title=" ">
<polygon fill="white" stroke="#666666" points="905,-129 794,-129 794,-110 905,-110 905,-129"/>
<text text-anchor="middle" x="849.5" y="-117" font-family="Helvetica,sans-Serif" font-size="10.00">Utils/SparseArray.hpp</text>
</a>
</g>
</g>
<!-- Node19&#45;&gt;Node21 -->
<g id="edge24" class="edge">
<title>Node19&#45;&gt;Node21</title>
<path fill="none" stroke="#63b8ff" d="M945.82,-164.51C927.55,-156.16 900.09,-143.61 879.15,-134.05"/>
<polygon fill="#63b8ff" stroke="#63b8ff" points="880.81,-130.96 870.26,-129.99 877.9,-137.33 880.81,-130.96"/>
</g>
<!-- Node20&#45;&gt;Node2 -->
<g id="edge23" class="edge">
<title>Node20&#45;&gt;Node2</title>
<path fill="none" stroke="#63b8ff" d="M1063.54,-129.34C1063.09,-143.14 1060.09,-169.68 1044.5,-184 1022.49,-204.22 946.3,-216.45 891.33,-222.83"/>
<polygon fill="#63b8ff" stroke="#63b8ff" points="891,-219.35 881.45,-223.94 891.78,-226.31 891,-219.35"/>
</g>
<!-- Node21&#45;&gt;Node8 -->
<g id="edge25" class="edge">
<title>Node21&#45;&gt;Node8</title>
<path fill="none" stroke="#63b8ff" d="M813.62,-109.55C781.01,-101.18 731.67,-87.9 689.5,-74 642.24,-58.43 588.65,-37.27 555.45,-23.75"/>
<polygon fill="#63b8ff" stroke="#63b8ff" points="557,-20.6 546.42,-20.05 554.35,-27.08 557,-20.6"/>
</g>
<!-- Node21&#45;&gt;Node13 -->
<g id="edge28" class="edge">
<title>Node21&#45;&gt;Node13</title>
<path fill="none" stroke="#63b8ff" d="M798.34,-109.53C771.05,-102.95 737.95,-91.93 712.5,-74 695.81,-62.24 682.16,-43.12 673.55,-28.93"/>
<polygon fill="#63b8ff" stroke="#63b8ff" points="676.75,-27.48 668.73,-20.55 670.68,-30.97 676.75,-27.48"/>
</g>
<!-- Node22 -->
<g id="node22" class="node">
<title>Node22</title>
<g id="a_node22"><a xlink:title=" ">
<polygon fill="#e0e0e0" stroke="#999999" points="776.5,-19 720.5,-19 720.5,0 776.5,0 776.5,-19"/>
<text text-anchor="middle" x="748.5" y="-7" font-family="Helvetica,sans-Serif" font-size="10.00">algorithm</text>
</a>
</g>
</g>
<!-- Node21&#45;&gt;Node22 -->
<g id="edge26" class="edge">
<title>Node21&#45;&gt;Node22</title>
<path fill="none" stroke="#63b8ff" d="M807.44,-109.53C773.9,-101.43 730.88,-88.56 720.5,-74 710.27,-59.65 720.87,-40.97 731.83,-27.59"/>
<polygon fill="#63b8ff" stroke="#63b8ff" points="734.18,-30.22 738.23,-20.43 728.96,-25.56 734.18,-30.22"/>
</g>
<!-- Node23 -->
<g id="node23" class="node">
<title>Node23</title>
<g id="a_node23"><a xlink:title=" ">
<polygon fill="#e0e0e0" stroke="#999999" points="840.5,-19 802.5,-19 802.5,0 840.5,0 840.5,-19"/>
<text text-anchor="middle" x="821.5" y="-7" font-family="Helvetica,sans-Serif" font-size="10.00">array</text>
</a>
</g>
</g>
<!-- Node21&#45;&gt;Node23 -->
<g id="edge27" class="edge">
<title>Node21&#45;&gt;Node23</title>
<path fill="none" stroke="#63b8ff" d="M847.21,-109.66C842.76,-92.5 832.84,-54.26 826.71,-30.6"/>
<polygon fill="#63b8ff" stroke="#63b8ff" points="830.1,-29.73 824.2,-20.93 823.32,-31.48 830.1,-29.73"/>
</g>
<!-- Node24 -->
<g id="node24" class="node">
<title>Node24</title>
<g id="a_node24"><a xlink:title=" ">
<polygon fill="#e0e0e0" stroke="#999999" points="902,-19 863,-19 863,0 902,0 902,-19"/>
<text text-anchor="middle" x="882.5" y="-7" font-family="Helvetica,sans-Serif" font-size="10.00">utility</text>
</a>
</g>
</g>
<!-- Node21&#45;&gt;Node24 -->
<g id="edge29" class="edge">
<title>Node21&#45;&gt;Node24</title>
<path fill="none" stroke="#63b8ff" d="M852.2,-109.66C857.47,-92.42 869.24,-53.9 876.46,-30.27"/>
<polygon fill="#63b8ff" stroke="#63b8ff" points="879.74,-31.49 879.32,-20.91 873.05,-29.45 879.74,-31.49"/>
</g>
<!-- Node25 -->
<g id="node25" class="node">
<title>Node25</title>
<g id="a_node25"><a xlink:href="Vectors_8hpp.html" target="_top" xlink:title=" ">
<polygon fill="white" stroke="#666666" points="821.5,-74 729.5,-74 729.5,-55 821.5,-55 821.5,-74"/>
<text text-anchor="middle" x="775.5" y="-62" font-family="Helvetica,sans-Serif" font-size="10.00">Utils/Vectors.hpp</text>
</a>
</g>
</g>
<!-- Node21&#45;&gt;Node25 -->
<g id="edge30" class="edge">
<title>Node21&#45;&gt;Node25</title>
<path fill="none" stroke="#63b8ff" d="M836.95,-109.51C826.04,-101.7 810,-90.21 797.04,-80.93"/>
<polygon fill="#63b8ff" stroke="#63b8ff" points="799.27,-78.22 789.1,-75.24 795.19,-83.91 799.27,-78.22"/>
</g>
<!-- Node25&#45;&gt;Node8 -->
<g id="edge31" class="edge">
<title>Node25&#45;&gt;Node8</title>
<path fill="none" stroke="#63b8ff" d="M732.75,-54.51C684.85,-44.44 607.9,-28.25 561.87,-18.57"/>
<polygon fill="#63b8ff" stroke="#63b8ff" points="562.86,-15.2 552.35,-16.57 561.42,-22.05 562.86,-15.2"/>
</g>
<!-- Node25&#45;&gt;Node13 -->
<g id="edge34" class="edge">
<title>Node25&#45;&gt;Node13</title>
<path fill="none" stroke="#63b8ff" d="M756.5,-54.51C738.94,-46.2 712.58,-33.73 692.41,-24.18"/>
<polygon fill="#63b8ff" stroke="#63b8ff" points="694.12,-21.12 683.59,-20.01 691.13,-27.45 694.12,-21.12"/>
</g>
<!-- Node25&#45;&gt;Node22 -->
<g id="edge32" class="edge">
<title>Node25&#45;&gt;Node22</title>
<path fill="none" stroke="#63b8ff" d="M771.04,-54.75C767.55,-47.88 762.55,-38.08 758.15,-29.45"/>
<polygon fill="#63b8ff" stroke="#63b8ff" points="761.4,-28.11 753.74,-20.79 755.16,-31.29 761.4,-28.11"/>
</g>
<!-- Node25&#45;&gt;Node23 -->
<g id="edge33" class="edge">
<title>Node25&#45;&gt;Node23</title>
<path fill="none" stroke="#63b8ff" d="M783.1,-54.75C789.38,-47.5 798.51,-36.98 806.3,-28.02"/>
<polygon fill="#63b8ff" stroke="#63b8ff" points="808.84,-30.43 812.75,-20.59 803.55,-25.84 808.84,-30.43"/>
</g>
<!-- Node25&#45;&gt;Node24 -->
<g id="edge35" class="edge">
<title>Node25&#45;&gt;Node24</title>
<path fill="none" stroke="#63b8ff" d="M793.65,-54.51C810.28,-46.27 835.14,-33.96 854.35,-24.45"/>
<polygon fill="#63b8ff" stroke="#63b8ff" points="855.85,-27.6 863.26,-20.03 852.75,-21.33 855.85,-27.6"/>
</g>
<!-- Node26&#45;&gt;Node2 -->
<g id="edge37" class="edge">
<title>Node26&#45;&gt;Node2</title>
<path fill="none" stroke="#63b8ff" d="M1253.1,-184.05C1124.33,-198.8 972.9,-214.76 891.05,-222.95"/>
<polygon fill="#63b8ff" stroke="#63b8ff" points="890.85,-219.45 881.24,-223.93 891.54,-226.42 890.85,-219.45"/>
</g>
<!-- Node26&#45;&gt;Node20 -->
<g id="edge38" class="edge">
<title>Node26&#45;&gt;Node20</title>
<path fill="none" stroke="#63b8ff" d="M1271.92,-164.51C1229.15,-155.48 1163.13,-141.54 1116.88,-131.77"/>
<polygon fill="#63b8ff" stroke="#63b8ff" points="1117.86,-128.4 1107.35,-129.76 1116.41,-135.25 1117.86,-128.4"/>
</g>
<!-- Node26&#45;&gt;Node27 -->
<g id="edge39" class="edge">
<title>Node26&#45;&gt;Node27</title>
<path fill="none" stroke="#63b8ff" d="M1351.65,-164.51C1392.86,-154.54 1458.81,-138.58 1498.94,-128.86"/>
<polygon fill="#63b8ff" stroke="#63b8ff" points="1499.66,-132.29 1508.55,-126.54 1498.01,-125.49 1499.66,-132.29"/>
</g>
<!-- Node28&#45;&gt;Node2 -->
<g id="edge41" class="edge">
<title>Node28&#45;&gt;Node2</title>
<path fill="none" stroke="#63b8ff" d="M1112.38,-184.49C1052.75,-194.34 954.48,-210.03 891.35,-219.77"/>
<polygon fill="#63b8ff" stroke="#63b8ff" points="890.84,-216.31 881.49,-221.29 891.9,-223.23 890.84,-216.31"/>
</g>
</g>
</svg>
