<?xml version="1.0" encoding="UTF-8" standalone="no"?>
<!DOCTYPE svg PUBLIC "-//W3C//DTD SVG 1.1//EN"
 "http://www.w3.org/Graphics/SVG/1.1/DTD/svg11.dtd">
<!-- Generated by graphviz version 7.0.5 (20221223.1930)
 -->
<!-- Title: /github/workspace/client/include/system/gameStates/old_SGamePlay copy.hpp Pages: 1 -->
<svg width="2070pt" height="489pt"
 viewBox="0.00 0.00 2069.60 489.00" xmlns="http://www.w3.org/2000/svg" xmlns:xlink="http://www.w3.org/1999/xlink">
<g id="graph0" class="graph" transform="scale(1 1) rotate(0) translate(4 485)">
<title>/github/workspace/client/include/system/gameStates/old_SGamePlay copy.hpp</title>
<!-- Node1 -->
<g id="node1" class="node">
<title>Node1</title>
<g id="a_node1"><a xlink:title=" ">
<polygon fill="#999999" stroke="#666666" points="256,-481 116,-481 116,-440 256,-440 256,-481"/>
<text text-anchor="start" x="124" y="-469" font-family="Helvetica,sans-Serif" font-size="10.00">/github/workspace/client</text>
<text text-anchor="start" x="124" y="-458" font-family="Helvetica,sans-Serif" font-size="10.00">/include/system/gameStates</text>
<text text-anchor="middle" x="186" y="-447" font-family="Helvetica,sans-Serif" font-size="10.00">/old_SGamePlay copy.hpp</text>
</a>
</g>
</g>
<!-- Node2 -->
<g id="node2" class="node">
<title>Node2</title>
<g id="a_node2"><a xlink:href="IGameState_8hpp.html" target="_top" xlink:title=" ">
<polygon fill="white" stroke="#666666" points="539.5,-404 362.5,-404 362.5,-385 539.5,-385 539.5,-404"/>
<text text-anchor="middle" x="451" y="-392" font-family="Helvetica,sans-Serif" font-size="10.00">system/gameStates/IGameState.hpp</text>
</a>
</g>
</g>
<!-- Node1&#45;&gt;Node2 -->
<g id="edge1" class="edge">
<title>Node1&#45;&gt;Node2</title>
<path fill="none" stroke="#63b8ff" d="M256.32,-442.52C302.57,-431.35 361.9,-417.02 402.84,-407.13"/>
<polygon fill="#63b8ff" stroke="#63b8ff" points="403.5,-410.57 412.4,-404.82 401.86,-403.77 403.5,-410.57"/>
</g>
<!-- Node12 -->
<g id="node12" class="node">
<title>Node12</title>
<g id="a_node12"><a xlink:title=" ">
<polygon fill="#e0e0e0" stroke="#999999" points="145.5,-74 104.5,-74 104.5,-55 145.5,-55 145.5,-74"/>
<text text-anchor="middle" x="125" y="-62" font-family="Helvetica,sans-Serif" font-size="10.00">string</text>
</a>
</g>
</g>
<!-- Node1&#45;&gt;Node12 -->
<g id="edge73" class="edge">
<title>Node1&#45;&gt;Node12</title>
<path fill="none" stroke="#63b8ff" d="M128.36,-439.51C86.8,-421.01 38,-388.97 38,-340.5 38,-340.5 38,-340.5 38,-228.5 38,-169.13 83.47,-110.41 108.67,-82.43"/>
<polygon fill="#63b8ff" stroke="#63b8ff" points="111.07,-84.98 115.31,-75.27 105.94,-80.22 111.07,-84.98"/>
</g>
<!-- Node20 -->
<g id="node20" class="node">
<title>Node20</title>
<g id="a_node20"><a xlink:title=" ">
<polygon fill="#e0e0e0" stroke="#999999" points="78.5,-19 35.5,-19 35.5,0 78.5,0 78.5,-19"/>
<text text-anchor="middle" x="57" y="-7" font-family="Helvetica,sans-Serif" font-size="10.00">queue</text>
</a>
</g>
</g>
<!-- Node1&#45;&gt;Node20 -->
<g id="edge72" class="edge">
<title>Node1&#45;&gt;Node20</title>
<path fill="none" stroke="#63b8ff" d="M115.68,-444.45C63.01,-428.56 0,-397.62 0,-340.5 0,-340.5 0,-340.5 0,-118.5 0,-83.18 24.14,-48.09 41.01,-27.89"/>
<polygon fill="#63b8ff" stroke="#63b8ff" points="43.42,-30.45 47.35,-20.61 38.14,-25.85 43.42,-30.45"/>
</g>
<!-- Node37 -->
<g id="node37" class="node">
<title>Node37</title>
<g id="a_node37"><a xlink:title=" ">
<polygon fill="#e0e0e0" stroke="#999999" points="344,-184 298,-184 298,-165 344,-165 344,-184"/>
<text text-anchor="middle" x="321" y="-172" font-family="Helvetica,sans-Serif" font-size="10.00">cstring</text>
</a>
</g>
</g>
<!-- Node1&#45;&gt;Node37 -->
<g id="edge74" class="edge">
<title>Node1&#45;&gt;Node37</title>
<path fill="none" stroke="#63b8ff" d="M243.64,-439.51C285.2,-421.01 334,-388.97 334,-340.5 334,-340.5 334,-340.5 334,-283.5 334,-252.7 328.72,-217.32 324.89,-195.68"/>
<polygon fill="#63b8ff" stroke="#63b8ff" points="328.35,-195.1 323.08,-185.91 321.46,-196.38 328.35,-195.1"/>
</g>
<!-- Node3 -->
<g id="node3" class="node">
<title>Node3</title>
<g id="a_node3"><a xlink:href="EntitiesManager_8hpp.html" target="_top" xlink:title=" ">
<polygon fill="white" stroke="#666666" points="1800,-239 1660,-239 1660,-220 1800,-220 1800,-239"/>
<text text-anchor="middle" x="1730" y="-227" font-family="Helvetica,sans-Serif" font-size="10.00">Entities/EntitiesManager.hpp</text>
</a>
</g>
</g>
<!-- Node2&#45;&gt;Node3 -->
<g id="edge2" class="edge">
<title>Node2&#45;&gt;Node3</title>
<path fill="none" stroke="#63b8ff" d="M539.53,-392.34C807.99,-388.54 1597.55,-375.2 1646,-349 1685.98,-327.38 1711.31,-277.46 1722.79,-249.81"/>
<polygon fill="#63b8ff" stroke="#63b8ff" points="1725.9,-251.46 1726.31,-240.88 1719.39,-248.89 1725.9,-251.46"/>
</g>
<!-- Node24 -->
<g id="node24" class="node">
<title>Node24</title>
<g id="a_node24"><a xlink:href="Background_8hpp.html" target="_top" xlink:title=" ">
<polygon fill="white" stroke="#666666" points="308,-74 164,-74 164,-55 308,-55 308,-74"/>
<text text-anchor="middle" x="236" y="-62" font-family="Helvetica,sans-Serif" font-size="10.00">Components/Background.hpp</text>
</a>
</g>
</g>
<!-- Node2&#45;&gt;Node24 -->
<g id="edge65" class="edge">
<title>Node2&#45;&gt;Node24</title>
<path fill="none" stroke="#63b8ff" d="M438.79,-384.62C417.31,-367.86 375,-329.29 375,-285.5 375,-285.5 375,-285.5 375,-173.5 375,-143 370.71,-131.42 349,-110 333.55,-94.76 312.25,-84.58 292.31,-77.85"/>
<polygon fill="#63b8ff" stroke="#63b8ff" points="293.45,-74.54 282.86,-74.91 291.37,-81.23 293.45,-74.54"/>
</g>
<!-- Node30 -->
<g id="node30" class="node">
<title>Node30</title>
<g id="a_node30"><a xlink:href="String_8hpp.html" target="_top" xlink:title=" ">
<polygon fill="white" stroke="#666666" points="1663.5,-129 1580.5,-129 1580.5,-110 1663.5,-110 1663.5,-129"/>
<text text-anchor="middle" x="1622" y="-117" font-family="Helvetica,sans-Serif" font-size="10.00">Utils/String.hpp</text>
</a>
</g>
</g>
<!-- Node2&#45;&gt;Node30 -->
<g id="edge43" class="edge">
<title>Node2&#45;&gt;Node30</title>
<path fill="none" stroke="#63b8ff" d="M539.77,-390.02C814.42,-378.68 1632,-340.32 1632,-285.5 1632,-285.5 1632,-285.5 1632,-228.5 1632,-197.79 1627.94,-162.38 1625,-140.72"/>
<polygon fill="#63b8ff" stroke="#63b8ff" points="1628.48,-140.34 1623.6,-130.93 1621.55,-141.33 1628.48,-140.34"/>
</g>
<!-- Node31 -->
<g id="node31" class="node">
<title>Node31</title>
<g id="a_node31"><a xlink:href="GameEngine_8hpp.html" target="_top" xlink:title=" ">
<polygon fill="white" stroke="#666666" points="267.5,-349 142.5,-349 142.5,-330 267.5,-330 267.5,-349"/>
<text text-anchor="middle" x="205" y="-337" font-family="Helvetica,sans-Serif" font-size="10.00">system/GameEngine.hpp</text>
</a>
</g>
</g>
<!-- Node2&#45;&gt;Node31 -->
<g id="edge47" class="edge">
<title>Node2&#45;&gt;Node31</title>
<path fill="none" stroke="#63b8ff" d="M409.27,-384.51C367.44,-375.5 302.92,-361.6 257.6,-351.83"/>
<polygon fill="#63b8ff" stroke="#63b8ff" points="258.52,-348.45 248,-349.77 257.04,-355.29 258.52,-348.45"/>
</g>
<!-- Node41 -->
<g id="node41" class="node">
<title>Node41</title>
<g id="a_node41"><a xlink:href="Centipede_8hpp.html" target="_top" xlink:title=" ">
<polygon fill="white" stroke="#666666" points="1548,-184 1412,-184 1412,-165 1548,-165 1548,-184"/>
<text text-anchor="middle" x="1480" y="-172" font-family="Helvetica,sans-Serif" font-size="10.00">Components/Centipede.hpp</text>
</a>
</g>
</g>
<!-- Node2&#45;&gt;Node41 -->
<g id="edge66" class="edge">
<title>Node2&#45;&gt;Node41</title>
<path fill="none" stroke="#63b8ff" d="M493.26,-384.55C656.44,-349.98 1245.41,-225.2 1426.59,-186.82"/>
<polygon fill="#63b8ff" stroke="#63b8ff" points="1427.14,-190.28 1436.2,-184.78 1425.69,-183.43 1427.14,-190.28"/>
</g>
<!-- Node4 -->
<g id="node4" class="node">
<title>Node4</title>
<g id="a_node4"><a xlink:href="Engine_8hpp.html" target="_top" xlink:title=" ">
<polygon fill="white" stroke="#666666" points="1160,-129 1064,-129 1064,-110 1160,-110 1160,-129"/>
<text text-anchor="middle" x="1112" y="-117" font-family="Helvetica,sans-Serif" font-size="10.00">Engine/Engine.hpp</text>
</a>
</g>
</g>
<!-- Node3&#45;&gt;Node4 -->
<g id="edge3" class="edge">
<title>Node3&#45;&gt;Node4</title>
<path fill="none" stroke="#63b8ff" d="M1659.73,-221.37C1591.41,-213.61 1485.12,-200.11 1394,-184 1307.96,-168.78 1208.71,-145.99 1153.77,-132.25"/>
<polygon fill="#63b8ff" stroke="#63b8ff" points="1154.77,-128.89 1144.21,-129.83 1153.05,-135.68 1154.77,-128.89"/>
</g>
<!-- Node22 -->
<g id="node22" class="node">
<title>Node22</title>
<g id="a_node22"><a xlink:href="IComponents_8hpp.html" target="_top" xlink:title=" ">
<polygon fill="white" stroke="#666666" points="1731,-19 1639,-19 1639,0 1731,0 1731,-19"/>
<text text-anchor="middle" x="1685" y="-7" font-family="Helvetica,sans-Serif" font-size="10.00">IComponents.hpp</text>
</a>
</g>
</g>
<!-- Node3&#45;&gt;Node22 -->
<g id="edge30" class="edge">
<title>Node3&#45;&gt;Node22</title>
<path fill="none" stroke="#63b8ff" d="M1800.13,-224.86C1844.11,-220.03 1900.68,-209 1945,-184 2008.66,-148.09 2095.43,-109.74 2047,-55 2027.2,-32.61 1839.66,-19.04 1742.61,-13.46"/>
<polygon fill="#63b8ff" stroke="#63b8ff" points="1742.93,-9.97 1732.75,-12.9 1742.53,-16.96 1742.93,-9.97"/>
</g>
<!-- Node25 -->
<g id="node25" class="node">
<title>Node25</title>
<g id="a_node25"><a xlink:href="SparseArray_8hpp.html" target="_top" xlink:title=" ">
<polygon fill="white" stroke="#666666" points="1935.5,-184 1824.5,-184 1824.5,-165 1935.5,-165 1935.5,-184"/>
<text text-anchor="middle" x="1880" y="-172" font-family="Helvetica,sans-Serif" font-size="10.00">Utils/SparseArray.hpp</text>
</a>
</g>
</g>
<!-- Node3&#45;&gt;Node25 -->
<g id="edge31" class="edge">
<title>Node3&#45;&gt;Node25</title>
<path fill="none" stroke="#63b8ff" d="M1755.45,-219.51C1779.76,-210.92 1816.66,-197.88 1843.99,-188.22"/>
<polygon fill="#63b8ff" stroke="#63b8ff" points="1844.99,-191.58 1853.25,-184.95 1842.66,-184.98 1844.99,-191.58"/>
</g>
<!-- Node4&#45;&gt;Node3 -->
<g id="edge22" class="edge">
<title>Node4&#45;&gt;Node3</title>
<path fill="none" stroke="#63b8ff" d="M1154.38,-129.46C1212.53,-142.71 1319.84,-167.7 1412,-184 1492.1,-198.17 1583.93,-210.31 1648.31,-218.31"/>
<polygon fill="#63b8ff" stroke="#63b8ff" points="1647.74,-221.77 1658.1,-219.52 1648.6,-214.82 1647.74,-221.77"/>
</g>
<!-- Node5 -->
<g id="node5" class="node">
<title>Node5</title>
<g id="a_node5"><a xlink:title=" ">
<polygon fill="#e0e0e0" stroke="#999999" points="525.5,-74 436.5,-74 436.5,-55 525.5,-55 525.5,-74"/>
<text text-anchor="middle" x="481" y="-62" font-family="Helvetica,sans-Serif" font-size="10.00">SFML/Audio.hpp</text>
</a>
</g>
</g>
<!-- Node4&#45;&gt;Node5 -->
<g id="edge4" class="edge">
<title>Node4&#45;&gt;Node5</title>
<path fill="none" stroke="#63b8ff" d="M1063.62,-116.07C966.15,-110.88 738.97,-97.38 537.17,-74.15"/>
<polygon fill="#63b8ff" stroke="#63b8ff" points="537.59,-70.68 527.25,-73 536.78,-77.63 537.59,-70.68"/>
</g>
<!-- Node6 -->
<g id="node6" class="node">
<title>Node6</title>
<g id="a_node6"><a xlink:title=" ">
<polygon fill="#e0e0e0" stroke="#999999" points="648,-74 544,-74 544,-55 648,-55 648,-74"/>
<text text-anchor="middle" x="596" y="-62" font-family="Helvetica,sans-Serif" font-size="10.00">SFML/Graphics.hpp</text>
</a>
</g>
</g>
<!-- Node4&#45;&gt;Node6 -->
<g id="edge5" class="edge">
<title>Node4&#45;&gt;Node6</title>
<path fill="none" stroke="#63b8ff" d="M1063.56,-114.37C982.42,-107.32 813.63,-92.07 659.48,-74.13"/>
<polygon fill="#63b8ff" stroke="#63b8ff" points="660.25,-70.69 649.92,-73.01 659.44,-77.65 660.25,-70.69"/>
</g>
<!-- Node7 -->
<g id="node7" class="node">
<title>Node7</title>
<g id="a_node7"><a xlink:title=" ">
<polygon fill="#e0e0e0" stroke="#999999" points="767.5,-74 666.5,-74 666.5,-55 767.5,-55 767.5,-74"/>
<text text-anchor="middle" x="717" y="-62" font-family="Helvetica,sans-Serif" font-size="10.00">SFML/Network.hpp</text>
</a>
</g>
</g>
<!-- Node4&#45;&gt;Node7 -->
<g id="edge6" class="edge">
<title>Node4&#45;&gt;Node7</title>
<path fill="none" stroke="#63b8ff" d="M1063.72,-112.22C1000.76,-104 886.89,-89.04 778.84,-74.24"/>
<polygon fill="#63b8ff" stroke="#63b8ff" points="779.62,-70.82 769.23,-72.92 778.67,-77.75 779.62,-70.82"/>
</g>
<!-- Node8 -->
<g id="node8" class="node">
<title>Node8</title>
<g id="a_node8"><a xlink:title=" ">
<polygon fill="#e0e0e0" stroke="#999999" points="884.5,-74 785.5,-74 785.5,-55 884.5,-55 884.5,-74"/>
<text text-anchor="middle" x="835" y="-62" font-family="Helvetica,sans-Serif" font-size="10.00">SFML/Window.hpp</text>
</a>
</g>
</g>
<!-- Node4&#45;&gt;Node8 -->
<g id="edge7" class="edge">
<title>Node4&#45;&gt;Node8</title>
<path fill="none" stroke="#63b8ff" d="M1065.01,-109.51C1017.51,-100.42 944.02,-86.36 892.94,-76.59"/>
<polygon fill="#63b8ff" stroke="#63b8ff" points="893.72,-73.17 883.24,-74.73 892.41,-80.05 893.72,-73.17"/>
</g>
<!-- Node9 -->
<g id="node9" class="node">
<title>Node9</title>
<g id="a_node9"><a xlink:title=" ">
<polygon fill="#e0e0e0" stroke="#999999" points="1001,-74 903,-74 903,-55 1001,-55 1001,-74"/>
<text text-anchor="middle" x="952" y="-62" font-family="Helvetica,sans-Serif" font-size="10.00">SFML/System.hpp</text>
</a>
</g>
</g>
<!-- Node4&#45;&gt;Node9 -->
<g id="edge8" class="edge">
<title>Node4&#45;&gt;Node9</title>
<path fill="none" stroke="#63b8ff" d="M1084.86,-109.51C1058.69,-100.84 1018.86,-87.65 989.64,-77.97"/>
<polygon fill="#63b8ff" stroke="#63b8ff" points="991.04,-74.74 980.44,-74.92 988.84,-81.39 991.04,-74.74"/>
</g>
<!-- Node10 -->
<g id="node10" class="node">
<title>Node10</title>
<g id="a_node10"><a xlink:title=" ">
<polygon fill="#e0e0e0" stroke="#999999" points="1805,-74 1751,-74 1751,-55 1805,-55 1805,-74"/>
<text text-anchor="middle" x="1778" y="-62" font-family="Helvetica,sans-Serif" font-size="10.00">iostream</text>
</a>
</g>
</g>
<!-- Node4&#45;&gt;Node10 -->
<g id="edge9" class="edge">
<title>Node4&#45;&gt;Node10</title>
<path fill="none" stroke="#63b8ff" d="M1160.11,-117.74C1264.16,-115.54 1517.95,-107.11 1739.39,-74.15"/>
<polygon fill="#63b8ff" stroke="#63b8ff" points="1739.71,-77.64 1749.08,-72.68 1738.66,-70.72 1739.71,-77.64"/>
</g>
<!-- Node11 -->
<g id="node11" class="node">
<title>Node11</title>
<g id="a_node11"><a xlink:title=" ">
<polygon fill="#e0e0e0" stroke="#999999" points="1069,-74 1019,-74 1019,-55 1069,-55 1069,-74"/>
<text text-anchor="middle" x="1044" y="-62" font-family="Helvetica,sans-Serif" font-size="10.00">fstream</text>
</a>
</g>
</g>
<!-- Node4&#45;&gt;Node11 -->
<g id="edge10" class="edge">
<title>Node4&#45;&gt;Node11</title>
<path fill="none" stroke="#63b8ff" d="M1100.46,-109.51C1090.54,-101.77 1075.99,-90.43 1064.14,-81.2"/>
<polygon fill="#63b8ff" stroke="#63b8ff" points="1066.6,-78.68 1056.56,-75.29 1062.29,-84.2 1066.6,-78.68"/>
</g>
<!-- Node4&#45;&gt;Node12 -->
<g id="edge11" class="edge">
<title>Node4&#45;&gt;Node12</title>
<path fill="none" stroke="#63b8ff" d="M1063.75,-116.91C887.92,-111.01 285.52,-90.04 157.07,-73.68"/>
<polygon fill="#63b8ff" stroke="#63b8ff" points="157.74,-70.25 147.34,-72.28 156.74,-77.17 157.74,-70.25"/>
</g>
<!-- Node13 -->
<g id="node13" class="node">
<title>Node13</title>
<g id="a_node13"><a xlink:title=" ">
<polygon fill="#e0e0e0" stroke="#999999" points="1137,-74 1087,-74 1087,-55 1137,-55 1137,-74"/>
<text text-anchor="middle" x="1112" y="-62" font-family="Helvetica,sans-Serif" font-size="10.00">unistd.h</text>
</a>
</g>
</g>
<!-- Node4&#45;&gt;Node13 -->
<g id="edge12" class="edge">
<title>Node4&#45;&gt;Node13</title>
<path fill="none" stroke="#63b8ff" d="M1112,-109.75C1112,-103.27 1112,-94.16 1112,-85.9"/>
<polygon fill="#63b8ff" stroke="#63b8ff" points="1115.5,-85.96 1112,-75.96 1108.5,-85.96 1115.5,-85.96"/>
</g>
<!-- Node14 -->
<g id="node14" class="node">
<title>Node14</title>
<g id="a_node14"><a xlink:title=" ">
<polygon fill="#e0e0e0" stroke="#999999" points="1220.5,-74 1155.5,-74 1155.5,-55 1220.5,-55 1220.5,-74"/>
<text text-anchor="middle" x="1188" y="-62" font-family="Helvetica,sans-Serif" font-size="10.00">sys/types.h</text>
</a>
</g>
</g>
<!-- Node4&#45;&gt;Node14 -->
<g id="edge13" class="edge">
<title>Node4&#45;&gt;Node14</title>
<path fill="none" stroke="#63b8ff" d="M1124.89,-109.51C1136.1,-101.7 1152.57,-90.21 1165.88,-80.93"/>
<polygon fill="#63b8ff" stroke="#63b8ff" points="1167.86,-83.81 1174.06,-75.22 1163.85,-78.07 1167.86,-83.81"/>
</g>
<!-- Node15 -->
<g id="node15" class="node">
<title>Node15</title>
<g id="a_node15"><a xlink:title=" ">
<polygon fill="#e0e0e0" stroke="#999999" points="1733,-74 1689,-74 1689,-55 1733,-55 1733,-74"/>
<text text-anchor="middle" x="1711" y="-62" font-family="Helvetica,sans-Serif" font-size="10.00">vector</text>
</a>
</g>
</g>
<!-- Node4&#45;&gt;Node15 -->
<g id="edge14" class="edge">
<title>Node4&#45;&gt;Node15</title>
<path fill="none" stroke="#63b8ff" d="M1160.49,-117.16C1258.32,-113.92 1486.11,-103.59 1675,-74 1675.83,-73.87 1676.67,-73.73 1677.52,-73.58"/>
<polygon fill="#63b8ff" stroke="#63b8ff" points="1678.04,-77.05 1687.15,-71.64 1676.66,-70.19 1678.04,-77.05"/>
</g>
<!-- Node16 -->
<g id="node16" class="node">
<title>Node16</title>
<g id="a_node16"><a xlink:title=" ">
<polygon fill="#e0e0e0" stroke="#999999" points="1297,-74 1239,-74 1239,-55 1297,-55 1297,-74"/>
<text text-anchor="middle" x="1268" y="-62" font-family="Helvetica,sans-Serif" font-size="10.00">exception</text>
</a>
</g>
</g>
<!-- Node4&#45;&gt;Node16 -->
<g id="edge15" class="edge">
<title>Node4&#45;&gt;Node16</title>
<path fill="none" stroke="#63b8ff" d="M1138.46,-109.51C1163.86,-100.88 1202.47,-87.76 1230.92,-78.1"/>
<polygon fill="#63b8ff" stroke="#63b8ff" points="1231.89,-81.46 1240.23,-74.93 1229.64,-74.84 1231.89,-81.46"/>
</g>
<!-- Node17 -->
<g id="node17" class="node">
<title>Node17</title>
<g id="a_node17"><a xlink:href="Window_8hpp.html" target="_top" xlink:title=" ">
<polygon fill="white" stroke="#666666" points="1416.5,-74 1315.5,-74 1315.5,-55 1416.5,-55 1416.5,-74"/>
<text text-anchor="middle" x="1366" y="-62" font-family="Helvetica,sans-Serif" font-size="10.00">Engine/Window.hpp</text>
</a>
</g>
</g>
<!-- Node4&#45;&gt;Node17 -->
<g id="edge16" class="edge">
<title>Node4&#45;&gt;Node17</title>
<path fill="none" stroke="#63b8ff" d="M1149.87,-109.51C1191.35,-100.46 1258.21,-86.48 1306.65,-76.71"/>
<polygon fill="#63b8ff" stroke="#63b8ff" points="1307.32,-80.14 1316.43,-74.74 1305.94,-73.28 1307.32,-80.14"/>
</g>
<!-- Node18 -->
<g id="node18" class="node">
<title>Node18</title>
<g id="a_node18"><a xlink:href="Event_8hpp.html" target="_top" xlink:title=" ">
<polygon fill="white" stroke="#666666" points="418,-74 326,-74 326,-55 418,-55 418,-74"/>
<text text-anchor="middle" x="372" y="-62" font-family="Helvetica,sans-Serif" font-size="10.00">Engine/Event.hpp</text>
</a>
</g>
</g>
<!-- Node4&#45;&gt;Node18 -->
<g id="edge18" class="edge">
<title>Node4&#45;&gt;Node18</title>
<path fill="none" stroke="#63b8ff" d="M1063.81,-116.96C952.45,-112.9 669.1,-100.48 429.77,-75.15"/>
<polygon fill="#63b8ff" stroke="#63b8ff" points="430.23,-71.68 419.92,-74.1 429.49,-78.64 430.23,-71.68"/>
</g>
<!-- Node21 -->
<g id="node21" class="node">
<title>Node21</title>
<g id="a_node21"><a xlink:href="Bullets_8hpp.html" target="_top" xlink:title=" ">
<polygon fill="white" stroke="#666666" points="1557,-74 1435,-74 1435,-55 1557,-55 1557,-74"/>
<text text-anchor="middle" x="1496" y="-62" font-family="Helvetica,sans-Serif" font-size="10.00">Components/Bullets.hpp</text>
</a>
</g>
</g>
<!-- Node4&#45;&gt;Node21 -->
<g id="edge23" class="edge">
<title>Node4&#45;&gt;Node21</title>
<path fill="none" stroke="#63b8ff" d="M1160.16,-111.19C1226.49,-101.7 1346.3,-85.14 1423.48,-74.78"/>
<polygon fill="#63b8ff" stroke="#63b8ff" points="1423.6,-78.3 1433.05,-73.5 1422.67,-71.36 1423.6,-78.3"/>
</g>
<!-- Node4&#45;&gt;Node24 -->
<g id="edge28" class="edge">
<title>Node4&#45;&gt;Node24</title>
<path fill="none" stroke="#63b8ff" d="M1063.79,-116.79C940.35,-112.01 603.3,-97.4 319.75,-74.94"/>
<polygon fill="#63b8ff" stroke="#63b8ff" points="320.17,-71.46 309.93,-74.15 319.62,-78.44 320.17,-71.46"/>
</g>
<!-- Node17&#45;&gt;Node4 -->
<g id="edge17" class="edge">
<title>Node17&#45;&gt;Node4</title>
<path fill="none" stroke="#63b8ff" d="M1328.33,-74.45C1286.94,-83.48 1220.08,-97.46 1171.59,-107.24"/>
<polygon fill="#63b8ff" stroke="#63b8ff" points="1170.9,-103.81 1161.79,-109.21 1172.28,-110.67 1170.9,-103.81"/>
</g>
<!-- Node18&#45;&gt;Node4 -->
<g id="edge19" class="edge">
<title>Node18&#45;&gt;Node4</title>
<path fill="none" stroke="#63b8ff" d="M418.47,-71.66C424.74,-72.53 431.04,-73.35 437,-74 663.99,-98.57 934.94,-111.3 1052.66,-116.15"/>
<polygon fill="#63b8ff" stroke="#63b8ff" points="1052.26,-119.63 1062.4,-116.54 1052.55,-112.64 1052.26,-119.63"/>
</g>
<!-- Node19 -->
<g id="node19" class="node">
<title>Node19</title>
<g id="a_node19"><a xlink:title=" ">
<polygon fill="#e0e0e0" stroke="#999999" points="1613.5,-19 1584.5,-19 1584.5,0 1613.5,0 1613.5,-19"/>
<text text-anchor="middle" x="1599" y="-7" font-family="Helvetica,sans-Serif" font-size="10.00">list</text>
</a>
</g>
</g>
<!-- Node18&#45;&gt;Node19 -->
<g id="edge20" class="edge">
<title>Node18&#45;&gt;Node19</title>
<path fill="none" stroke="#63b8ff" d="M418.4,-56.02C421.64,-55.63 424.87,-55.29 428,-55 929.27,-9.15 1060.45,-80.85 1560,-19 1564.31,-18.47 1568.85,-17.68 1573.25,-16.81"/>
<polygon fill="#63b8ff" stroke="#63b8ff" points="1573.8,-20.27 1582.82,-14.7 1572.3,-13.43 1573.8,-20.27"/>
</g>
<!-- Node18&#45;&gt;Node20 -->
<g id="edge21" class="edge">
<title>Node18&#45;&gt;Node20</title>
<path fill="none" stroke="#63b8ff" d="M325.52,-55.68C261.13,-44.85 146.38,-25.54 90.05,-16.06"/>
<polygon fill="#63b8ff" stroke="#63b8ff" points="90.89,-12.65 80.44,-14.44 89.72,-19.56 90.89,-12.65"/>
</g>
<!-- Node21&#45;&gt;Node4 -->
<g id="edge24" class="edge">
<title>Node21&#45;&gt;Node4</title>
<path fill="none" stroke="#63b8ff" d="M1436.15,-74.48C1363.89,-84.75 1243.28,-101.38 1171.28,-110.99"/>
<polygon fill="#63b8ff" stroke="#63b8ff" points="1171.11,-107.48 1161.65,-112.27 1172.03,-114.42 1171.11,-107.48"/>
</g>
<!-- Node21&#45;&gt;Node22 -->
<g id="edge25" class="edge">
<title>Node21&#45;&gt;Node22</title>
<path fill="none" stroke="#63b8ff" d="M1528.06,-54.51C1559.52,-45.69 1607.68,-32.18 1642.35,-22.46"/>
<polygon fill="#63b8ff" stroke="#63b8ff" points="1642.96,-25.93 1651.64,-19.85 1641.07,-19.19 1642.96,-25.93"/>
</g>
<!-- Node23 -->
<g id="node23" class="node">
<title>Node23</title>
<g id="a_node23"><a xlink:title=" ">
<polygon fill="#e0e0e0" stroke="#999999" points="1551,-19 1505,-19 1505,0 1551,0 1551,-19"/>
<text text-anchor="middle" x="1528" y="-7" font-family="Helvetica,sans-Serif" font-size="10.00">math.h</text>
</a>
</g>
</g>
<!-- Node21&#45;&gt;Node23 -->
<g id="edge27" class="edge">
<title>Node21&#45;&gt;Node23</title>
<path fill="none" stroke="#63b8ff" d="M1501.28,-54.75C1505.47,-47.81 1511.48,-37.86 1516.73,-29.16"/>
<polygon fill="#63b8ff" stroke="#63b8ff" points="1519.65,-31.11 1521.82,-20.74 1513.65,-27.49 1519.65,-31.11"/>
</g>
<!-- Node22&#45;&gt;Node4 -->
<g id="edge26" class="edge">
<title>Node22&#45;&gt;Node4</title>
<path fill="none" stroke="#63b8ff" d="M1672.52,-19.32C1651.62,-33.58 1607.69,-61.38 1566,-74 1493.76,-95.87 1277.42,-109.84 1171.6,-115.55"/>
<polygon fill="#63b8ff" stroke="#63b8ff" points="1171.49,-112.05 1161.69,-116.08 1171.86,-119.04 1171.49,-112.05"/>
</g>
<!-- Node24&#45;&gt;Node4 -->
<g id="edge29" class="edge">
<title>Node24&#45;&gt;Node4</title>
<path fill="none" stroke="#63b8ff" d="M308.17,-72.43C314.22,-73 320.22,-73.54 326,-74 597.19,-95.81 921.28,-110.38 1052.56,-115.96"/>
<polygon fill="#63b8ff" stroke="#63b8ff" points="1052.26,-119.45 1062.4,-116.38 1052.55,-112.46 1052.26,-119.45"/>
</g>
<!-- Node25&#45;&gt;Node10 -->
<g id="edge32" class="edge">
<title>Node25&#45;&gt;Node10</title>
<path fill="none" stroke="#63b8ff" d="M1867.45,-164.77C1855.78,-156.34 1838.25,-142.84 1825,-129 1811.53,-114.93 1798.54,-96.93 1789.64,-83.69"/>
<polygon fill="#63b8ff" stroke="#63b8ff" points="1792.69,-81.96 1784.28,-75.52 1786.84,-85.8 1792.69,-81.96"/>
</g>
<!-- Node25&#45;&gt;Node15 -->
<g id="edge35" class="edge">
<title>Node25&#45;&gt;Node15</title>
<path fill="none" stroke="#63b8ff" d="M1864.33,-164.56C1849.04,-155.75 1825.21,-141.8 1805,-129 1779.9,-113.09 1751.73,-93.88 1732.83,-80.78"/>
<polygon fill="#63b8ff" stroke="#63b8ff" points="1735.06,-78.07 1724.86,-75.23 1731.07,-83.82 1735.06,-78.07"/>
</g>
<!-- Node26 -->
<g id="node26" class="node">
<title>Node26</title>
<g id="a_node26"><a xlink:title=" ">
<polygon fill="#e0e0e0" stroke="#999999" points="1976,-74 1920,-74 1920,-55 1976,-55 1976,-74"/>
<text text-anchor="middle" x="1948" y="-62" font-family="Helvetica,sans-Serif" font-size="10.00">algorithm</text>
</a>
</g>
</g>
<!-- Node25&#45;&gt;Node26 -->
<g id="edge33" class="edge">
<title>Node25&#45;&gt;Node26</title>
<path fill="none" stroke="#63b8ff" d="M1905.51,-164.65C1921.41,-157.65 1940.57,-146.17 1950,-129 1957.24,-115.81 1956.2,-98.65 1953.64,-85.49"/>
<polygon fill="#63b8ff" stroke="#63b8ff" points="1957.06,-84.73 1951.31,-75.84 1950.26,-86.38 1957.06,-84.73"/>
</g>
<!-- Node27 -->
<g id="node27" class="node">
<title>Node27</title>
<g id="a_node27"><a xlink:title=" ">
<polygon fill="#e0e0e0" stroke="#999999" points="1899,-74 1861,-74 1861,-55 1899,-55 1899,-74"/>
<text text-anchor="middle" x="1880" y="-62" font-family="Helvetica,sans-Serif" font-size="10.00">array</text>
</a>
</g>
</g>
<!-- Node25&#45;&gt;Node27 -->
<g id="edge34" class="edge">
<title>Node25&#45;&gt;Node27</title>
<path fill="none" stroke="#63b8ff" d="M1898,-164.57C1910.93,-157.05 1927.38,-144.96 1935,-129 1944.06,-110.01 1925.44,-92.25 1907.46,-80.37"/>
<polygon fill="#63b8ff" stroke="#63b8ff" points="1909.36,-77.44 1899.01,-75.2 1905.71,-83.41 1909.36,-77.44"/>
</g>
<!-- Node28 -->
<g id="node28" class="node">
<title>Node28</title>
<g id="a_node28"><a xlink:title=" ">
<polygon fill="#e0e0e0" stroke="#999999" points="2037.5,-74 1998.5,-74 1998.5,-55 2037.5,-55 2037.5,-74"/>
<text text-anchor="middle" x="2018" y="-62" font-family="Helvetica,sans-Serif" font-size="10.00">utility</text>
</a>
</g>
</g>
<!-- Node25&#45;&gt;Node28 -->
<g id="edge36" class="edge">
<title>Node25&#45;&gt;Node28</title>
<path fill="none" stroke="#63b8ff" d="M1903.05,-164.63C1921.29,-156.92 1946.8,-144.56 1966,-129 1982.06,-115.99 1996.61,-97.34 2006.21,-83.62"/>
<polygon fill="#63b8ff" stroke="#63b8ff" points="2008.99,-85.76 2011.68,-75.51 2003.18,-81.84 2008.99,-85.76"/>
</g>
<!-- Node29 -->
<g id="node29" class="node">
<title>Node29</title>
<g id="a_node29"><a xlink:href="Vectors_8hpp.html" target="_top" xlink:title=" ">
<polygon fill="white" stroke="#666666" points="1926,-129 1834,-129 1834,-110 1926,-110 1926,-129"/>
<text text-anchor="middle" x="1880" y="-117" font-family="Helvetica,sans-Serif" font-size="10.00">Utils/Vectors.hpp</text>
</a>
</g>
</g>
<!-- Node25&#45;&gt;Node29 -->
<g id="edge37" class="edge">
<title>Node25&#45;&gt;Node29</title>
<path fill="none" stroke="#63b8ff" d="M1880,-164.75C1880,-158.27 1880,-149.16 1880,-140.9"/>
<polygon fill="#63b8ff" stroke="#63b8ff" points="1883.5,-140.96 1880,-130.96 1876.5,-140.96 1883.5,-140.96"/>
</g>
<!-- Node29&#45;&gt;Node10 -->
<g id="edge38" class="edge">
<title>Node29&#45;&gt;Node10</title>
<path fill="none" stroke="#63b8ff" d="M1862.7,-109.51C1846.92,-101.31 1823.36,-89.07 1805.09,-79.58"/>
<polygon fill="#63b8ff" stroke="#63b8ff" points="1806.88,-76.56 1796.39,-75.06 1803.65,-82.77 1806.88,-76.56"/>
</g>
<!-- Node29&#45;&gt;Node15 -->
<g id="edge41" class="edge">
<title>Node29&#45;&gt;Node15</title>
<path fill="none" stroke="#63b8ff" d="M1851.33,-109.51C1821.64,-100.2 1775.3,-85.67 1744.08,-75.87"/>
<polygon fill="#63b8ff" stroke="#63b8ff" points="1745.35,-72.61 1734.76,-72.95 1743.26,-79.28 1745.35,-72.61"/>
</g>
<!-- Node29&#45;&gt;Node26 -->
<g id="edge39" class="edge">
<title>Node29&#45;&gt;Node26</title>
<path fill="none" stroke="#63b8ff" d="M1891.54,-109.51C1901.46,-101.77 1916.01,-90.43 1927.86,-81.2"/>
<polygon fill="#63b8ff" stroke="#63b8ff" points="1929.71,-84.2 1935.44,-75.29 1925.4,-78.68 1929.71,-84.2"/>
</g>
<!-- Node29&#45;&gt;Node27 -->
<g id="edge40" class="edge">
<title>Node29&#45;&gt;Node27</title>
<path fill="none" stroke="#63b8ff" d="M1880,-109.75C1880,-103.27 1880,-94.16 1880,-85.9"/>
<polygon fill="#63b8ff" stroke="#63b8ff" points="1883.5,-85.96 1880,-75.96 1876.5,-85.96 1883.5,-85.96"/>
</g>
<!-- Node29&#45;&gt;Node28 -->
<g id="edge42" class="edge">
<title>Node29&#45;&gt;Node28</title>
<path fill="none" stroke="#63b8ff" d="M1903.41,-109.51C1926.59,-100.61 1962.19,-86.94 1987.55,-77.19"/>
<polygon fill="#63b8ff" stroke="#63b8ff" points="1988.57,-80.55 1996.65,-73.7 1986.06,-74.02 1988.57,-80.55"/>
</g>
<!-- Node30&#45;&gt;Node10 -->
<g id="edge44" class="edge">
<title>Node30&#45;&gt;Node10</title>
<path fill="none" stroke="#63b8ff" d="M1648.46,-109.51C1673.86,-100.88 1712.47,-87.76 1740.92,-78.1"/>
<polygon fill="#63b8ff" stroke="#63b8ff" points="1741.89,-81.46 1750.23,-74.93 1739.64,-74.84 1741.89,-81.46"/>
</g>
<!-- Node30&#45;&gt;Node15 -->
<g id="edge46" class="edge">
<title>Node30&#45;&gt;Node15</title>
<path fill="none" stroke="#63b8ff" d="M1637.1,-109.51C1650.6,-101.47 1670.65,-89.53 1686.46,-80.11"/>
<polygon fill="#63b8ff" stroke="#63b8ff" points="1688.02,-83.26 1694.82,-75.13 1684.44,-77.24 1688.02,-83.26"/>
</g>
<!-- Node30&#45;&gt;Node19 -->
<g id="edge45" class="edge">
<title>Node30&#45;&gt;Node19</title>
<path fill="none" stroke="#63b8ff" d="M1620.12,-109.66C1616.46,-92.5 1608.32,-54.26 1603.28,-30.6"/>
<polygon fill="#63b8ff" stroke="#63b8ff" points="1606.73,-29.99 1601.22,-20.94 1599.88,-31.45 1606.73,-29.99"/>
</g>
<!-- Node31&#45;&gt;Node20 -->
<g id="edge64" class="edge">
<title>Node31&#45;&gt;Node20</title>
<path fill="none" stroke="#63b8ff" d="M198.56,-329.56C192.36,-320.76 182.94,-306.81 176,-294 125.11,-200.04 118.08,-173.46 79,-74 73.24,-59.35 67.45,-42.51 63.25,-29.85"/>
<polygon fill="#63b8ff" stroke="#63b8ff" points="66.67,-29.06 60.24,-20.65 60.02,-31.24 66.67,-29.06"/>
</g>
<!-- Node32 -->
<g id="node32" class="node">
<title>Node32</title>
<g id="a_node32"><a xlink:href="States_8hpp.html" target="_top" xlink:title=" ">
<polygon fill="white" stroke="#666666" points="304.5,-294 185.5,-294 185.5,-275 304.5,-275 304.5,-294"/>
<text text-anchor="middle" x="245" y="-282" font-family="Helvetica,sans-Serif" font-size="10.00">gameStates/States.hpp</text>
</a>
</g>
</g>
<!-- Node31&#45;&gt;Node32 -->
<g id="edge48" class="edge">
<title>Node31&#45;&gt;Node32</title>
<path fill="none" stroke="#63b8ff" d="M211.61,-329.75C216.96,-322.66 224.68,-312.42 231.35,-303.59"/>
<polygon fill="#63b8ff" stroke="#63b8ff" points="234.11,-305.74 237.34,-295.65 228.52,-301.52 234.11,-305.74"/>
</g>
<!-- Node32&#45;&gt;Node2 -->
<g id="edge49" class="edge">
<title>Node32&#45;&gt;Node2</title>
<path fill="none" stroke="#63b8ff" d="M260.65,-294.34C282.83,-306.8 324.75,-330.13 361,-349 381.23,-359.53 404.29,-370.92 422,-379.54"/>
<polygon fill="#63b8ff" stroke="#63b8ff" points="420.38,-382.65 430.91,-383.86 423.44,-376.35 420.38,-382.65"/>
</g>
<!-- Node33 -->
<g id="node33" class="node">
<title>Node33</title>
<g id="a_node33"><a xlink:href="SMenu_8hpp.html" target="_top" xlink:title=" ">
<polygon fill="white" stroke="#666666" points="483.5,-239 418.5,-239 418.5,-220 483.5,-220 483.5,-239"/>
<text text-anchor="middle" x="451" y="-227" font-family="Helvetica,sans-Serif" font-size="10.00">SMenu.hpp</text>
</a>
</g>
</g>
<!-- Node32&#45;&gt;Node33 -->
<g id="edge50" class="edge">
<title>Node32&#45;&gt;Node33</title>
<path fill="none" stroke="#63b8ff" d="M279.95,-274.51C315.15,-265.45 369.57,-251.45 407.54,-241.68"/>
<polygon fill="#63b8ff" stroke="#63b8ff" points="407.99,-245.18 416.8,-239.3 406.25,-238.4 407.99,-245.18"/>
</g>
<!-- Node36 -->
<g id="node36" class="node">
<title>Node36</title>
<g id="a_node36"><a xlink:href="SGamePlay_8hpp.html" target="_top" xlink:title=" ">
<polygon fill="white" stroke="#666666" points="284,-239 198,-239 198,-220 284,-220 284,-239"/>
<text text-anchor="middle" x="241" y="-227" font-family="Helvetica,sans-Serif" font-size="10.00">SGamePlay.hpp</text>
</a>
</g>
</g>
<!-- Node32&#45;&gt;Node36 -->
<g id="edge55" class="edge">
<title>Node32&#45;&gt;Node36</title>
<path fill="none" stroke="#63b8ff" d="M244.34,-274.75C243.85,-268.27 243.16,-259.16 242.54,-250.9"/>
<polygon fill="#63b8ff" stroke="#63b8ff" points="246.03,-250.66 241.79,-240.95 239.05,-251.19 246.03,-250.66"/>
</g>
<!-- Node33&#45;&gt;Node2 -->
<g id="edge51" class="edge">
<title>Node33&#45;&gt;Node2</title>
<path fill="none" stroke="#63b8ff" d="M451,-239.31C451,-264.57 451,-337.74 451,-373.44"/>
<polygon fill="#63b8ff" stroke="#63b8ff" points="447.5,-373.22 451,-383.22 454.5,-373.22 447.5,-373.22"/>
</g>
<!-- Node34 -->
<g id="node34" class="node">
<title>Node34</title>
<g id="a_node34"><a xlink:href="Bouton_8hpp.html" target="_top" xlink:title=" ">
<polygon fill="white" stroke="#666666" points="805.5,-184 682.5,-184 682.5,-165 805.5,-165 805.5,-184"/>
<text text-anchor="middle" x="744" y="-172" font-family="Helvetica,sans-Serif" font-size="10.00">Components/Bouton.hpp</text>
</a>
</g>
</g>
<!-- Node33&#45;&gt;Node34 -->
<g id="edge52" class="edge">
<title>Node33&#45;&gt;Node34</title>
<path fill="none" stroke="#63b8ff" d="M483.76,-222.57C531.88,-213.87 622.51,-197.48 683.08,-186.52"/>
<polygon fill="#63b8ff" stroke="#63b8ff" points="683.69,-189.97 692.91,-184.74 682.45,-183.08 683.69,-189.97"/>
</g>
<!-- Node34&#45;&gt;Node4 -->
<g id="edge53" class="edge">
<title>Node34&#45;&gt;Node4</title>
<path fill="none" stroke="#63b8ff" d="M805.59,-164.63C874.26,-154.74 984.55,-138.86 1052.39,-129.08"/>
<polygon fill="#63b8ff" stroke="#63b8ff" points="1052.83,-132.56 1062.23,-127.67 1051.83,-125.63 1052.83,-132.56"/>
</g>
<!-- Node35 -->
<g id="node35" class="node">
<title>Node35</title>
<g id="a_node35"><a xlink:title=" ">
<polygon fill="#e0e0e0" stroke="#999999" points="773.5,-129 714.5,-129 714.5,-110 773.5,-110 773.5,-129"/>
<text text-anchor="middle" x="744" y="-117" font-family="Helvetica,sans-Serif" font-size="10.00">functional</text>
</a>
</g>
</g>
<!-- Node34&#45;&gt;Node35 -->
<g id="edge54" class="edge">
<title>Node34&#45;&gt;Node35</title>
<path fill="none" stroke="#63b8ff" d="M744,-164.75C744,-158.27 744,-149.16 744,-140.9"/>
<polygon fill="#63b8ff" stroke="#63b8ff" points="747.5,-140.96 744,-130.96 740.5,-140.96 747.5,-140.96"/>
</g>
<!-- Node36&#45;&gt;Node2 -->
<g id="edge56" class="edge">
<title>Node36&#45;&gt;Node2</title>
<path fill="none" stroke="#63b8ff" d="M221.61,-239.44C181.64,-259.03 96.74,-307.31 133,-349 160.91,-381.09 268.51,-390.73 350.89,-393.29"/>
<polygon fill="#63b8ff" stroke="#63b8ff" points="350.73,-396.79 360.83,-393.56 350.93,-389.79 350.73,-396.79"/>
</g>
<!-- Node36&#45;&gt;Node12 -->
<g id="edge59" class="edge">
<title>Node36&#45;&gt;Node12</title>
<path fill="none" stroke="#63b8ff" d="M232.28,-219.67C223.85,-210.95 210.95,-197.05 201,-184 175.42,-150.44 149.77,-108.25 135.79,-84.33"/>
<polygon fill="#63b8ff" stroke="#63b8ff" points="138.86,-82.66 130.82,-75.76 132.81,-86.17 138.86,-82.66"/>
</g>
<!-- Node36&#45;&gt;Node20 -->
<g id="edge57" class="edge">
<title>Node36&#45;&gt;Node20</title>
<path fill="none" stroke="#63b8ff" d="M228.36,-219.66C216.57,-211.15 198.8,-197.6 185,-184 140.02,-139.65 131.32,-125.68 95,-74 84.83,-59.53 74.61,-42.26 67.33,-29.38"/>
<polygon fill="#63b8ff" stroke="#63b8ff" points="70.43,-27.74 62.51,-20.7 64.31,-31.14 70.43,-27.74"/>
</g>
<!-- Node36&#45;&gt;Node27 -->
<g id="edge58" class="edge">
<title>Node36&#45;&gt;Node27</title>
<path fill="none" stroke="#63b8ff" d="M284.41,-226.09C318.54,-224.25 367.29,-221.74 410,-220 664.8,-209.59 1306.03,-229.25 1557,-184 1670.84,-163.47 1797.28,-106.19 1852.12,-79.51"/>
<polygon fill="#63b8ff" stroke="#63b8ff" points="1853.62,-82.67 1861.04,-75.12 1850.53,-76.39 1853.62,-82.67"/>
</g>
<!-- Node36&#45;&gt;Node37 -->
<g id="edge60" class="edge">
<title>Node36&#45;&gt;Node37</title>
<path fill="none" stroke="#63b8ff" d="M254.57,-219.51C266.48,-211.62 284.05,-199.98 298.13,-190.65"/>
<polygon fill="#63b8ff" stroke="#63b8ff" points="299.96,-193.63 306.37,-185.19 296.1,-187.8 299.96,-193.63"/>
</g>
<!-- Node38 -->
<g id="node38" class="node">
<title>Node38</title>
<g id="a_node38"><a xlink:href="Global_8hpp.html" target="_top" xlink:title=" ">
<polygon fill="white" stroke="#666666" points="272,-184 210,-184 210,-165 272,-165 272,-184"/>
<text text-anchor="middle" x="241" y="-172" font-family="Helvetica,sans-Serif" font-size="10.00">Global.hpp</text>
</a>
</g>
</g>
<!-- Node36&#45;&gt;Node38 -->
<g id="edge61" class="edge">
<title>Node36&#45;&gt;Node38</title>
<path fill="none" stroke="#63b8ff" d="M241,-219.75C241,-213.27 241,-204.16 241,-195.9"/>
<polygon fill="#63b8ff" stroke="#63b8ff" points="244.5,-195.96 241,-185.96 237.5,-195.96 244.5,-195.96"/>
</g>
<!-- Node39 -->
<g id="node39" class="node">
<title>Node39</title>
<g id="a_node39"><a xlink:title=" ">
<polygon fill="#e0e0e0" stroke="#999999" points="270,-129 208,-129 208,-110 270,-110 270,-129"/>
<text text-anchor="middle" x="239" y="-117" font-family="Helvetica,sans-Serif" font-size="10.00">Skaldi.hpp</text>
</a>
</g>
</g>
<!-- Node38&#45;&gt;Node39 -->
<g id="edge62" class="edge">
<title>Node38&#45;&gt;Node39</title>
<path fill="none" stroke="#63b8ff" d="M240.67,-164.75C240.43,-158.27 240.08,-149.16 239.77,-140.9"/>
<polygon fill="#63b8ff" stroke="#63b8ff" points="243.27,-140.82 239.39,-130.95 236.27,-141.08 243.27,-140.82"/>
</g>
<!-- Node40 -->
<g id="node40" class="node">
<title>Node40</title>
<g id="a_node40"><a xlink:title=" ">
<polygon fill="#e0e0e0" stroke="#999999" points="339.5,-129 288.5,-129 288.5,-110 339.5,-110 339.5,-129"/>
<text text-anchor="middle" x="314" y="-117" font-family="Helvetica,sans-Serif" font-size="10.00">memory</text>
</a>
</g>
</g>
<!-- Node38&#45;&gt;Node40 -->
<g id="edge63" class="edge">
<title>Node38&#45;&gt;Node40</title>
<path fill="none" stroke="#63b8ff" d="M253.38,-164.51C264.15,-156.7 279.97,-145.21 292.75,-135.93"/>
<polygon fill="#63b8ff" stroke="#63b8ff" points="294.54,-138.95 300.57,-130.25 290.43,-133.29 294.54,-138.95"/>
</g>
<!-- Node41&#45;&gt;Node4 -->
<g id="edge67" class="edge">
<title>Node41&#45;&gt;Node4</title>
<path fill="none" stroke="#63b8ff" d="M1417.57,-164.51C1348.85,-154.61 1239.19,-138.82 1171.61,-129.09"/>
<polygon fill="#63b8ff" stroke="#63b8ff" points="1172.22,-125.64 1161.82,-127.68 1171.22,-132.56 1172.22,-125.64"/>
</g>
<!-- Node41&#45;&gt;Node15 -->
<g id="edge70" class="edge">
<title>Node41&#45;&gt;Node15</title>
<path fill="none" stroke="#63b8ff" d="M1481.47,-164.58C1484.25,-150.67 1491.63,-123.99 1509,-110 1567.8,-62.65 1601.37,-90.67 1675,-74 1675.82,-73.81 1676.65,-73.62 1677.49,-73.43"/>
<polygon fill="#63b8ff" stroke="#63b8ff" points="1678.12,-76.88 1687.07,-71.21 1676.54,-70.06 1678.12,-76.88"/>
</g>
<!-- Node41&#45;&gt;Node22 -->
<g id="edge68" class="edge">
<title>Node41&#45;&gt;Node22</title>
<path fill="none" stroke="#63b8ff" d="M1527.7,-164.51C1567.08,-156.62 1624.21,-144.05 1673,-129 1705.14,-119.08 1795.03,-101.77 1814,-74 1835.38,-42.72 1786.05,-26.21 1742.35,-17.95"/>
<polygon fill="#63b8ff" stroke="#63b8ff" points="1743.07,-14.52 1732.61,-16.24 1741.86,-21.41 1743.07,-14.52"/>
</g>
<!-- Node41&#45;&gt;Node23 -->
<g id="edge69" class="edge">
<title>Node41&#45;&gt;Node23</title>
<path fill="none" stroke="#63b8ff" d="M1478.8,-164.73C1477.48,-151.51 1476.94,-126.29 1489,-110 1511.47,-79.63 1545.72,-105.87 1566,-74 1576.11,-58.11 1562.19,-39.6 1548.43,-26.68"/>
<polygon fill="#63b8ff" stroke="#63b8ff" points="1551.09,-24.35 1541.25,-20.42 1546.49,-29.63 1551.09,-24.35"/>
</g>
<!-- Node42 -->
<g id="node42" class="node">
<title>Node42</title>
<g id="a_node42"><a xlink:title=" ">
<polygon fill="#e0e0e0" stroke="#999999" points="1562,-129 1518,-129 1518,-110 1562,-110 1562,-129"/>
<text text-anchor="middle" x="1540" y="-117" font-family="Helvetica,sans-Serif" font-size="10.00">cmath</text>
</a>
</g>
</g>
<!-- Node41&#45;&gt;Node42 -->
<g id="edge71" class="edge">
<title>Node41&#45;&gt;Node42</title>
<path fill="none" stroke="#63b8ff" d="M1490.18,-164.51C1498.76,-156.93 1511.27,-145.88 1521.6,-136.75"/>
<polygon fill="#63b8ff" stroke="#63b8ff" points="1523.66,-139.6 1528.84,-130.36 1519.03,-134.36 1523.66,-139.6"/>
</g>
</g>
</svg>
