<?xml version="1.0" encoding="UTF-8" standalone="no"?>
<!DOCTYPE svg PUBLIC "-//W3C//DTD SVG 1.1//EN"
 "http://www.w3.org/Graphics/SVG/1.1/DTD/svg11.dtd">
<!-- Generated by graphviz version 7.0.5 (20221223.1930)
 -->
<!-- Title: /github/workspace/client/include/system/gameStates/old_SGamePlay copy.hpp Pages: 1 -->
<!--zoomable 489 -->
<svg id="main" version="1.1" xmlns="http://www.w3.org/2000/svg" xmlns:xlink="http://www.w3.org/1999/xlink" xml:space="preserve" onload="init(evt)">
<style type="text/css"><![CDATA[
.edge:hover path { stroke: red; }
.edge:hover polygon { stroke: red; fill: red; }
]]></style>
<script type="text/javascript"><![CDATA[
var edges = document.getElementsByTagName('g');
if (edges && edges.length) {
  for (var i=0;i<edges.length;i++) {
    if (edges[i].id.substr(0,4)=='edge') {
      edges[i].setAttribute('class','edge');
    }
  }
}
]]></script>
        <defs>
                <circle id="rim" cx="0" cy="0" r="7"/>
                <circle id="rim2" cx="0" cy="0" r="3.5"/>
                <g id="zoomPlus">
                        <use xlink:href="#rim" fill="#404040">
                                <set attributeName="fill" to="#808080" begin="zoomplus.mouseover" end="zoomplus.mouseout"/>
                        </use>
                        <path d="M-4,0h8M0,-4v8" fill="none" stroke="white" stroke-width="1.5" pointer-events="none"/>
                </g>
                <g id="zoomMin">
                        <use xlink:href="#rim" fill="#404040">
                                <set attributeName="fill" to="#808080" begin="zoomminus.mouseover" end="zoomminus.mouseout"/>
                        </use>
                        <path d="M-4,0h8" fill="none" stroke="white" stroke-width="1.5" pointer-events="none"/>
                </g>
                <g id="dirArrow">
                        <path fill="none" stroke="white" stroke-width="1.5" d="M0,-3.0v7 M-2.5,-0.5L0,-3.0L2.5,-0.5"/>
                </g>
               <g id="resetDef">
                       <use xlink:href="#rim2" fill="#404040">
                               <set attributeName="fill" to="#808080" begin="reset.mouseover" end="reset.mouseout"/>
                       </use>
               </g>
        </defs>

<script type="text/javascript">
var viewWidth = 2468;
var viewHeight = 489;
var sectionId = 'dynsection-0';
</script>
<script xlink:href="svgpan.js"/>
<svg id="graph" class="graph">
<g id="viewport">
<title>/github/workspace/client/include/system/gameStates/old_SGamePlay copy.hpp</title>
<!-- Node1 -->
<g id="node1" class="node">
<title>Node1</title>
<g id="a_node1"><a xlink:title=" ">
<polygon fill="#999999" stroke="#666666" points="2440.53,-481 2300.53,-481 2300.53,-440 2440.53,-440 2440.53,-481"/>
<text text-anchor="start" x="2308.53" y="-469" font-family="Helvetica,sans-Serif" font-size="10.00">/github/workspace/client</text>
<text text-anchor="start" x="2308.53" y="-458" font-family="Helvetica,sans-Serif" font-size="10.00">/include/system/gameStates</text>
<text text-anchor="middle" x="2370.53" y="-447" font-family="Helvetica,sans-Serif" font-size="10.00">/old_SGamePlay copy.hpp</text>
</a>
</g>
</g>
<!-- Node2 -->
<g id="node2" class="node">
<title>Node2</title>
<g id="a_node2"><a xlink:href="IGameState_8hpp.html" target="_top" xlink:title=" ">
<polygon fill="white" stroke="#666666" points="1932.03,-404 1755.03,-404 1755.03,-385 1932.03,-385 1932.03,-404"/>
<text text-anchor="middle" x="1843.53" y="-392" font-family="Helvetica,sans-Serif" font-size="10.00">system/gameStates/IGameState.hpp</text>
</a>
</g>
</g>
<!-- Node1&#45;&gt;Node2 -->
<g id="edge1" class="edge">
<title>Node1&#45;&gt;Node2</title>
<path fill="none" stroke="#63b8ff" d="M2300.28,-450.97C2204.26,-439.31 2032.19,-418.41 1928.87,-405.86"/>
<polygon fill="#63b8ff" stroke="#63b8ff" points="1929.4,-402.4 1919.05,-404.67 1928.55,-409.35 1929.4,-402.4"/>
</g>
<!-- Node22 -->
<g id="node22" class="node">
<title>Node22</title>
<g id="a_node22"><a xlink:title=" ">
<polygon fill="#e0e0e0" stroke="#999999" points="2191.03,-19 2148.03,-19 2148.03,0 2191.03,0 2191.03,-19"/>
<text text-anchor="middle" x="2169.53" y="-7" font-family="Helvetica,sans-Serif" font-size="10.00">queue</text>
</a>
</g>
</g>
<!-- Node1&#45;&gt;Node22 -->
<g id="edge73" class="edge">
<title>Node1&#45;&gt;Node22</title>
<path fill="none" stroke="#63b8ff" d="M2385.01,-439.55C2400.09,-416.77 2421.53,-377.81 2421.53,-340.5 2421.53,-340.5 2421.53,-340.5 2421.53,-118.5 2421.53,-71.37 2270.72,-32.52 2202.43,-17.35"/>
<polygon fill="#63b8ff" stroke="#63b8ff" points="2203.45,-13.99 2192.93,-15.28 2201.96,-20.83 2203.45,-13.99"/>
</g>
<!-- Node23 -->
<g id="node23" class="node">
<title>Node23</title>
<g id="a_node23"><a xlink:title=" ">
<polygon fill="#e0e0e0" stroke="#999999" points="2290.53,-19 2228.53,-19 2228.53,0 2290.53,0 2290.53,-19"/>
<text text-anchor="middle" x="2259.53" y="-7" font-family="Helvetica,sans-Serif" font-size="10.00">Skaldi.hpp</text>
</a>
</g>
</g>
<!-- Node1&#45;&gt;Node23 -->
<g id="edge76" class="edge">
<title>Node1&#45;&gt;Node23</title>
<path fill="none" stroke="#63b8ff" d="M2399.69,-439.74C2412.1,-430.14 2425.89,-417.72 2435.53,-404 2452.88,-379.32 2459.53,-370.67 2459.53,-340.5 2459.53,-340.5 2459.53,-340.5 2459.53,-118.5 2459.53,-88.33 2458.05,-75.09 2435.53,-55 2398.8,-22.22 2341.36,-12.88 2302.17,-10.57"/>
<polygon fill="#63b8ff" stroke="#63b8ff" points="2302.54,-7.08 2292.39,-10.14 2302.23,-14.08 2302.54,-7.08"/>
</g>
<!-- Node40 -->
<g id="node40" class="node">
<title>Node40</title>
<g id="a_node40"><a xlink:title=" ">
<polygon fill="#e0e0e0" stroke="#999999" points="2329.03,-184 2288.03,-184 2288.03,-165 2329.03,-165 2329.03,-184"/>
<text text-anchor="middle" x="2308.53" y="-172" font-family="Helvetica,sans-Serif" font-size="10.00">string</text>
</a>
</g>
</g>
<!-- Node1&#45;&gt;Node40 -->
<g id="edge74" class="edge">
<title>Node1&#45;&gt;Node40</title>
<path fill="none" stroke="#63b8ff" d="M2359.67,-439.52C2348.13,-416.39 2331.53,-376.81 2331.53,-340.5 2331.53,-340.5 2331.53,-340.5 2331.53,-283.5 2331.53,-252.09 2322.11,-216.65 2315.33,-195.2"/>
<polygon fill="#63b8ff" stroke="#63b8ff" points="2318.67,-194.16 2312.21,-185.76 2312.02,-196.36 2318.67,-194.16"/>
</g>
<!-- Node41 -->
<g id="node41" class="node">
<title>Node41</title>
<g id="a_node41"><a xlink:title=" ">
<polygon fill="#e0e0e0" stroke="#999999" points="2393.53,-184 2347.53,-184 2347.53,-165 2393.53,-165 2393.53,-184"/>
<text text-anchor="middle" x="2370.53" y="-172" font-family="Helvetica,sans-Serif" font-size="10.00">cstring</text>
</a>
</g>
</g>
<!-- Node1&#45;&gt;Node41 -->
<g id="edge75" class="edge">
<title>Node1&#45;&gt;Node41</title>
<path fill="none" stroke="#63b8ff" d="M2370.53,-439.71C2370.53,-416.09 2370.53,-375.41 2370.53,-340.5 2370.53,-340.5 2370.53,-340.5 2370.53,-283.5 2370.53,-252.92 2370.53,-217.48 2370.53,-195.77"/>
<polygon fill="#63b8ff" stroke="#63b8ff" points="2374.03,-195.97 2370.53,-185.97 2367.03,-195.97 2374.03,-195.97"/>
</g>
<!-- Node3 -->
<g id="node3" class="node">
<title>Node3</title>
<g id="a_node3"><a xlink:href="EntitiesManager_8hpp.html" target="_top" xlink:title=" ">
<polygon fill="white" stroke="#666666" points="1523.53,-239 1383.53,-239 1383.53,-220 1523.53,-220 1523.53,-239"/>
<text text-anchor="middle" x="1453.53" y="-227" font-family="Helvetica,sans-Serif" font-size="10.00">Entities/EntitiesManager.hpp</text>
</a>
</g>
</g>
<!-- Node2&#45;&gt;Node3 -->
<g id="edge2" class="edge">
<title>Node2&#45;&gt;Node3</title>
<path fill="none" stroke="#63b8ff" d="M1754.8,-388.33C1677.71,-382.45 1573.02,-370.72 1537.53,-349 1498.94,-325.38 1473.18,-276.65 1461.22,-249.62"/>
<polygon fill="#63b8ff" stroke="#63b8ff" points="1464.52,-248.44 1457.41,-240.59 1458.08,-251.16 1464.52,-248.44"/>
</g>
<!-- Node27 -->
<g id="node27" class="node">
<title>Node27</title>
<g id="a_node27"><a xlink:href="Background_8hpp.html" target="_top" xlink:title=" ">
<polygon fill="white" stroke="#666666" points="1614.53,-74 1470.53,-74 1470.53,-55 1614.53,-55 1614.53,-74"/>
<text text-anchor="middle" x="1542.53" y="-62" font-family="Helvetica,sans-Serif" font-size="10.00">Components/Background.hpp</text>
</a>
</g>
</g>
<!-- Node2&#45;&gt;Node27 -->
<g id="edge66" class="edge">
<title>Node2&#45;&gt;Node27</title>
<path fill="none" stroke="#63b8ff" d="M1787.58,-384.54C1702.79,-369.36 1551.53,-335.29 1551.53,-285.5 1551.53,-285.5 1551.53,-285.5 1551.53,-173.5 1551.53,-142.82 1547.88,-107.4 1545.23,-85.73"/>
<polygon fill="#63b8ff" stroke="#63b8ff" points="1548.72,-85.42 1543.98,-75.94 1541.77,-86.3 1548.72,-85.42"/>
</g>
<!-- Node33 -->
<g id="node33" class="node">
<title>Node33</title>
<g id="a_node33"><a xlink:href="String_8hpp.html" target="_top" xlink:title=" ">
<polygon fill="white" stroke="#666666" points="1855.03,-129 1772.03,-129 1772.03,-110 1855.03,-110 1855.03,-129"/>
<text text-anchor="middle" x="1813.53" y="-117" font-family="Helvetica,sans-Serif" font-size="10.00">Utils/String.hpp</text>
</a>
</g>
</g>
<!-- Node2&#45;&gt;Node33 -->
<g id="edge46" class="edge">
<title>Node2&#45;&gt;Node33</title>
<path fill="none" stroke="#63b8ff" d="M1843.53,-384.54C1843.53,-366.03 1843.53,-322.25 1843.53,-285.5 1843.53,-285.5 1843.53,-285.5 1843.53,-228.5 1843.53,-196.47 1831.13,-160.98 1822.27,-139.72"/>
<polygon fill="#63b8ff" stroke="#63b8ff" points="1825.51,-138.39 1818.31,-130.62 1819.1,-141.18 1825.51,-138.39"/>
</g>
<!-- Node34 -->
<g id="node34" class="node">
<title>Node34</title>
<g id="a_node34"><a xlink:href="GameEngine_8hpp.html" target="_top" xlink:title=" ">
<polygon fill="white" stroke="#666666" points="2160.03,-349 2035.03,-349 2035.03,-330 2160.03,-330 2160.03,-349"/>
<text text-anchor="middle" x="2097.53" y="-337" font-family="Helvetica,sans-Serif" font-size="10.00">system/GameEngine.hpp</text>
</a>
</g>
</g>
<!-- Node2&#45;&gt;Node34 -->
<g id="edge50" class="edge">
<title>Node2&#45;&gt;Node34</title>
<path fill="none" stroke="#63b8ff" d="M1886.62,-384.51C1929.9,-375.48 1996.72,-361.54 2043.52,-351.77"/>
<polygon fill="#63b8ff" stroke="#63b8ff" points="2044.1,-355.22 2053.18,-349.76 2042.67,-348.37 2044.1,-355.22"/>
</g>
<!-- Node42 -->
<g id="node42" class="node">
<title>Node42</title>
<g id="a_node42"><a xlink:href="Centipede_8hpp.html" target="_top" xlink:title=" ">
<polygon fill="white" stroke="#666666" points="710.53,-184 574.53,-184 574.53,-165 710.53,-165 710.53,-184"/>
<text text-anchor="middle" x="642.53" y="-172" font-family="Helvetica,sans-Serif" font-size="10.00">Components/Centipede.hpp</text>
</a>
</g>
</g>
<!-- Node2&#45;&gt;Node42 -->
<g id="edge67" class="edge">
<title>Node2&#45;&gt;Node42</title>
<path fill="none" stroke="#63b8ff" d="M1766.41,-384.53C1699.2,-376.38 1599.18,-363.45 1512.53,-349 1199.96,-296.87 827.84,-216.46 693.8,-186.9"/>
<polygon fill="#63b8ff" stroke="#63b8ff" points="694.69,-183.52 684.17,-184.78 693.18,-190.35 694.69,-183.52"/>
</g>
<!-- Node4 -->
<g id="node4" class="node">
<title>Node4</title>
<g id="a_node4"><a xlink:href="Engine_8hpp.html" target="_top" xlink:title=" ">
<polygon fill="white" stroke="#666666" points="1246.53,-129 1142.53,-129 1142.53,-110 1246.53,-110 1246.53,-129"/>
<text text-anchor="middle" x="1194.53" y="-117" font-family="Helvetica,sans-Serif" font-size="10.00">../Engine/Engine.hpp</text>
</a>
</g>
</g>
<!-- Node3&#45;&gt;Node4 -->
<g id="edge3" class="edge">
<title>Node3&#45;&gt;Node4</title>
<path fill="none" stroke="#63b8ff" d="M1428.43,-219.66C1379.66,-200.79 1273.12,-156.47 1222.32,-134.03"/>
<polygon fill="#63b8ff" stroke="#63b8ff" points="1224.03,-130.96 1213.47,-130.08 1221.17,-137.35 1224.03,-130.96"/>
</g>
<!-- Node25 -->
<g id="node25" class="node">
<title>Node25</title>
<g id="a_node25"><a xlink:href="IComponents_8hpp.html" target="_top" xlink:title=" ">
<polygon fill="white" stroke="#666666" points="247.53,-19 155.53,-19 155.53,0 247.53,0 247.53,-19"/>
<text text-anchor="middle" x="201.53" y="-7" font-family="Helvetica,sans-Serif" font-size="10.00">IComponents.hpp</text>
</a>
</g>
</g>
<!-- Node3&#45;&gt;Node25 -->
<g id="edge33" class="edge">
<title>Node3&#45;&gt;Node25</title>
<path fill="none" stroke="#63b8ff" d="M1474.82,-219.5C1532.75,-193.88 1684.87,-118.29 1623.53,-55 1599.4,-30.1 522.48,-14.63 259.16,-11.22"/>
<polygon fill="#63b8ff" stroke="#63b8ff" points="259.52,-7.72 249.48,-11.09 259.43,-14.72 259.52,-7.72"/>
</g>
<!-- Node28 -->
<g id="node28" class="node">
<title>Node28</title>
<g id="a_node28"><a xlink:href="SparseArray_8hpp.html" target="_top" xlink:title=" ">
<polygon fill="white" stroke="#666666" points="2013.03,-184 1902.03,-184 1902.03,-165 2013.03,-165 2013.03,-184"/>
<text text-anchor="middle" x="1957.53" y="-172" font-family="Helvetica,sans-Serif" font-size="10.00">Utils/SparseArray.hpp</text>
</a>
</g>
</g>
<!-- Node3&#45;&gt;Node28 -->
<g id="edge34" class="edge">
<title>Node3&#45;&gt;Node28</title>
<path fill="none" stroke="#63b8ff" d="M1523.88,-221.1C1621.03,-210.89 1795.07,-192.58 1890.47,-182.55"/>
<polygon fill="#63b8ff" stroke="#63b8ff" points="1890.61,-186.06 1900.19,-181.53 1889.88,-179.09 1890.61,-186.06"/>
</g>
<!-- Node4&#45;&gt;Node3 -->
<g id="edge25" class="edge">
<title>Node4&#45;&gt;Node3</title>
<path fill="none" stroke="#63b8ff" d="M1219.96,-129.46C1268.87,-148.4 1375.07,-192.58 1425.75,-214.98"/>
<polygon fill="#63b8ff" stroke="#63b8ff" points="1424.31,-218.16 1434.87,-219.04 1427.16,-211.77 1424.31,-218.16"/>
</g>
<!-- Node5 -->
<g id="node5" class="node">
<title>Node5</title>
<g id="a_node5"><a xlink:title=" ">
<polygon fill="#e0e0e0" stroke="#999999" points="317.03,-74 228.03,-74 228.03,-55 317.03,-55 317.03,-74"/>
<text text-anchor="middle" x="272.53" y="-62" font-family="Helvetica,sans-Serif" font-size="10.00">SFML/Audio.hpp</text>
</a>
</g>
</g>
<!-- Node4&#45;&gt;Node5 -->
<g id="edge4" class="edge">
<title>Node4&#45;&gt;Node5</title>
<path fill="none" stroke="#63b8ff" d="M1142.04,-117.73C1008.22,-115.34 643.26,-106.27 328.45,-74.07"/>
<polygon fill="#63b8ff" stroke="#63b8ff" points="329.09,-70.62 318.78,-73.07 328.37,-77.58 329.09,-70.62"/>
</g>
<!-- Node6 -->
<g id="node6" class="node">
<title>Node6</title>
<g id="a_node6"><a xlink:title=" ">
<polygon fill="#e0e0e0" stroke="#999999" points="439.53,-74 335.53,-74 335.53,-55 439.53,-55 439.53,-74"/>
<text text-anchor="middle" x="387.53" y="-62" font-family="Helvetica,sans-Serif" font-size="10.00">SFML/Graphics.hpp</text>
</a>
</g>
</g>
<!-- Node4&#45;&gt;Node6 -->
<g id="edge5" class="edge">
<title>Node4&#45;&gt;Node6</title>
<path fill="none" stroke="#63b8ff" d="M1142.42,-116.81C1022.43,-112.6 717.17,-100.17 451.18,-74.18"/>
<polygon fill="#63b8ff" stroke="#63b8ff" points="451.55,-70.7 441.25,-73.2 450.86,-77.66 451.55,-70.7"/>
</g>
<!-- Node7 -->
<g id="node7" class="node">
<title>Node7</title>
<g id="a_node7"><a xlink:title=" ">
<polygon fill="#e0e0e0" stroke="#999999" points="559.03,-74 458.03,-74 458.03,-55 559.03,-55 559.03,-74"/>
<text text-anchor="middle" x="508.53" y="-62" font-family="Helvetica,sans-Serif" font-size="10.00">SFML/Network.hpp</text>
</a>
</g>
</g>
<!-- Node4&#45;&gt;Node7 -->
<g id="edge6" class="edge">
<title>Node4&#45;&gt;Node7</title>
<path fill="none" stroke="#63b8ff" d="M1142.4,-116.08C1036.6,-110.88 788.86,-97.31 570.7,-74.27"/>
<polygon fill="#63b8ff" stroke="#63b8ff" points="571.17,-70.8 560.86,-73.22 570.43,-77.76 571.17,-70.8"/>
</g>
<!-- Node8 -->
<g id="node8" class="node">
<title>Node8</title>
<g id="a_node8"><a xlink:title=" ">
<polygon fill="#e0e0e0" stroke="#999999" points="676.03,-74 577.03,-74 577.03,-55 676.03,-55 676.03,-74"/>
<text text-anchor="middle" x="626.53" y="-62" font-family="Helvetica,sans-Serif" font-size="10.00">SFML/Window.hpp</text>
</a>
</g>
</g>
<!-- Node4&#45;&gt;Node8 -->
<g id="edge7" class="edge">
<title>Node4&#45;&gt;Node8</title>
<path fill="none" stroke="#63b8ff" d="M1142.04,-114.88C1051.6,-108.44 860.3,-93.88 687.74,-74.19"/>
<polygon fill="#63b8ff" stroke="#63b8ff" points="688.24,-70.72 677.9,-73.06 687.44,-77.68 688.24,-70.72"/>
</g>
<!-- Node9 -->
<g id="node9" class="node">
<title>Node9</title>
<g id="a_node9"><a xlink:title=" ">
<polygon fill="#e0e0e0" stroke="#999999" points="792.53,-74 694.53,-74 694.53,-55 792.53,-55 792.53,-74"/>
<text text-anchor="middle" x="743.53" y="-62" font-family="Helvetica,sans-Serif" font-size="10.00">SFML/System.hpp</text>
</a>
</g>
</g>
<!-- Node4&#45;&gt;Node9 -->
<g id="edge8" class="edge">
<title>Node4&#45;&gt;Node9</title>
<path fill="none" stroke="#63b8ff" d="M1142.34,-113.14C1069.13,-105.5 931.5,-90.7 804,-74.28"/>
<polygon fill="#63b8ff" stroke="#63b8ff" points="804.75,-70.85 794.38,-73.04 803.85,-77.79 804.75,-70.85"/>
</g>
<!-- Node10 -->
<g id="node10" class="node">
<title>Node10</title>
<g id="a_node10"><a xlink:title=" ">
<polygon fill="#e0e0e0" stroke="#999999" points="1934.53,-74 1880.53,-74 1880.53,-55 1934.53,-55 1934.53,-74"/>
<text text-anchor="middle" x="1907.53" y="-62" font-family="Helvetica,sans-Serif" font-size="10.00">iostream</text>
</a>
</g>
</g>
<!-- Node4&#45;&gt;Node10 -->
<g id="edge9" class="edge">
<title>Node4&#45;&gt;Node10</title>
<path fill="none" stroke="#63b8ff" d="M1246.78,-115.66C1355.9,-109.54 1615.94,-94.06 1833.53,-74 1845,-72.94 1857.45,-71.59 1868.8,-70.28"/>
<polygon fill="#63b8ff" stroke="#63b8ff" points="1869.13,-73.77 1878.65,-69.12 1868.31,-66.81 1869.13,-73.77"/>
</g>
<!-- Node11 -->
<g id="node11" class="node">
<title>Node11</title>
<g id="a_node11"><a xlink:title=" ">
<polygon fill="#e0e0e0" stroke="#999999" points="860.53,-74 810.53,-74 810.53,-55 860.53,-55 860.53,-74"/>
<text text-anchor="middle" x="835.53" y="-62" font-family="Helvetica,sans-Serif" font-size="10.00">fstream</text>
</a>
</g>
</g>
<!-- Node4&#45;&gt;Node11 -->
<g id="edge10" class="edge">
<title>Node4&#45;&gt;Node11</title>
<path fill="none" stroke="#63b8ff" d="M1142.18,-113.11C1079.98,-106.31 972.88,-93.37 871.75,-74.24"/>
<polygon fill="#63b8ff" stroke="#63b8ff" points="872.68,-70.85 862.2,-72.41 871.36,-77.73 872.68,-70.85"/>
</g>
<!-- Node12 -->
<g id="node12" class="node">
<title>Node12</title>
<g id="a_node12"><a xlink:title=" ">
<polygon fill="#e0e0e0" stroke="#999999" points="926.53,-74 878.53,-74 878.53,-55 926.53,-55 926.53,-74"/>
<text text-anchor="middle" x="902.53" y="-62" font-family="Helvetica,sans-Serif" font-size="10.00">string.h</text>
</a>
</g>
</g>
<!-- Node4&#45;&gt;Node12 -->
<g id="edge11" class="edge">
<title>Node4&#45;&gt;Node12</title>
<path fill="none" stroke="#63b8ff" d="M1142.2,-110.8C1092.18,-103.15 1014.4,-90.51 938.21,-74.43"/>
<polygon fill="#63b8ff" stroke="#63b8ff" points="938.98,-71.02 928.47,-72.35 937.52,-77.86 938.98,-71.02"/>
</g>
<!-- Node13 -->
<g id="node13" class="node">
<title>Node13</title>
<g id="a_node13"><a xlink:title=" ">
<polygon fill="#e0e0e0" stroke="#999999" points="994.53,-74 944.53,-74 944.53,-55 994.53,-55 994.53,-74"/>
<text text-anchor="middle" x="969.53" y="-62" font-family="Helvetica,sans-Serif" font-size="10.00">unistd.h</text>
</a>
</g>
</g>
<!-- Node4&#45;&gt;Node13 -->
<g id="edge12" class="edge">
<title>Node4&#45;&gt;Node13</title>
<path fill="none" stroke="#63b8ff" d="M1155.35,-109.56C1119.05,-101.24 1063.26,-88.35 1005.88,-74.54"/>
<polygon fill="#63b8ff" stroke="#63b8ff" points="1006.79,-71.16 996.24,-72.21 1005.14,-77.96 1006.79,-71.16"/>
</g>
<!-- Node14 -->
<g id="node14" class="node">
<title>Node14</title>
<g id="a_node14"><a xlink:title=" ">
<polygon fill="#e0e0e0" stroke="#999999" points="1078.03,-74 1013.03,-74 1013.03,-55 1078.03,-55 1078.03,-74"/>
<text text-anchor="middle" x="1045.53" y="-62" font-family="Helvetica,sans-Serif" font-size="10.00">sys/types.h</text>
</a>
</g>
</g>
<!-- Node4&#45;&gt;Node14 -->
<g id="edge13" class="edge">
<title>Node4&#45;&gt;Node14</title>
<path fill="none" stroke="#63b8ff" d="M1169.26,-109.51C1145.03,-100.89 1108.23,-87.8 1081.06,-78.14"/>
<polygon fill="#63b8ff" stroke="#63b8ff" points="1082.46,-74.92 1071.86,-74.87 1080.11,-81.51 1082.46,-74.92"/>
</g>
<!-- Node15 -->
<g id="node15" class="node">
<title>Node15</title>
<g id="a_node15"><a xlink:title=" ">
<polygon fill="#e0e0e0" stroke="#999999" points="1824.53,-74 1780.53,-74 1780.53,-55 1824.53,-55 1824.53,-74"/>
<text text-anchor="middle" x="1802.53" y="-62" font-family="Helvetica,sans-Serif" font-size="10.00">vector</text>
</a>
</g>
</g>
<!-- Node4&#45;&gt;Node15 -->
<g id="edge14" class="edge">
<title>Node4&#45;&gt;Node15</title>
<path fill="none" stroke="#63b8ff" d="M1246.67,-117.8C1346.47,-115.74 1571.45,-107.64 1769.12,-74.07"/>
<polygon fill="#63b8ff" stroke="#63b8ff" points="1769.55,-77.55 1778.81,-72.4 1768.36,-70.65 1769.55,-77.55"/>
</g>
<!-- Node16 -->
<g id="node16" class="node">
<title>Node16</title>
<g id="a_node16"><a xlink:title=" ">
<polygon fill="#e0e0e0" stroke="#999999" points="1152.53,-74 1096.53,-74 1096.53,-55 1152.53,-55 1152.53,-74"/>
<text text-anchor="middle" x="1124.53" y="-62" font-family="Helvetica,sans-Serif" font-size="10.00">stdbool.h</text>
</a>
</g>
</g>
<!-- Node4&#45;&gt;Node16 -->
<g id="edge15" class="edge">
<title>Node4&#45;&gt;Node16</title>
<path fill="none" stroke="#63b8ff" d="M1182.66,-109.51C1172.44,-101.77 1157.46,-90.43 1145.27,-81.2"/>
<polygon fill="#63b8ff" stroke="#63b8ff" points="1147.52,-78.52 1137.44,-75.27 1143.3,-84.1 1147.52,-78.52"/>
</g>
<!-- Node17 -->
<g id="node17" class="node">
<title>Node17</title>
<g id="a_node17"><a xlink:title=" ">
<polygon fill="#e0e0e0" stroke="#999999" points="1218.03,-74 1171.03,-74 1171.03,-55 1218.03,-55 1218.03,-74"/>
<text text-anchor="middle" x="1194.53" y="-62" font-family="Helvetica,sans-Serif" font-size="10.00">stdlib.h</text>
</a>
</g>
</g>
<!-- Node4&#45;&gt;Node17 -->
<g id="edge16" class="edge">
<title>Node4&#45;&gt;Node17</title>
<path fill="none" stroke="#63b8ff" d="M1194.53,-109.75C1194.53,-103.27 1194.53,-94.16 1194.53,-85.9"/>
<polygon fill="#63b8ff" stroke="#63b8ff" points="1198.03,-85.96 1194.53,-75.96 1191.03,-85.96 1198.03,-85.96"/>
</g>
<!-- Node18 -->
<g id="node18" class="node">
<title>Node18</title>
<g id="a_node18"><a xlink:title=" ">
<polygon fill="#e0e0e0" stroke="#999999" points="1294.53,-74 1236.53,-74 1236.53,-55 1294.53,-55 1294.53,-74"/>
<text text-anchor="middle" x="1265.53" y="-62" font-family="Helvetica,sans-Serif" font-size="10.00">exception</text>
</a>
</g>
</g>
<!-- Node4&#45;&gt;Node18 -->
<g id="edge17" class="edge">
<title>Node4&#45;&gt;Node18</title>
<path fill="none" stroke="#63b8ff" d="M1206.58,-109.51C1216.94,-101.77 1232.13,-90.43 1244.5,-81.2"/>
<polygon fill="#63b8ff" stroke="#63b8ff" points="1246.53,-84.05 1252.45,-75.26 1242.35,-78.44 1246.53,-84.05"/>
</g>
<!-- Node19 -->
<g id="node19" class="node">
<title>Node19</title>
<g id="a_node19"><a xlink:href="Window_8hpp.html" target="_top" xlink:title=" ">
<polygon fill="white" stroke="#666666" points="1414.03,-74 1313.03,-74 1313.03,-55 1414.03,-55 1414.03,-74"/>
<text text-anchor="middle" x="1363.53" y="-62" font-family="Helvetica,sans-Serif" font-size="10.00">Engine/Window.hpp</text>
</a>
</g>
</g>
<!-- Node4&#45;&gt;Node19 -->
<g id="edge18" class="edge">
<title>Node4&#45;&gt;Node19</title>
<path fill="none" stroke="#63b8ff" d="M1217.98,-109.51C1244.04,-100.76 1286.41,-87.42 1318.8,-77.71"/>
<polygon fill="#63b8ff" stroke="#63b8ff" points="1319.76,-81.08 1328.35,-74.88 1317.77,-74.37 1319.76,-81.08"/>
</g>
<!-- Node20 -->
<g id="node20" class="node">
<title>Node20</title>
<g id="a_node20"><a xlink:href="Event_8hpp.html" target="_top" xlink:title=" ">
<polygon fill="white" stroke="#666666" points="1762.53,-74 1670.53,-74 1670.53,-55 1762.53,-55 1762.53,-74"/>
<text text-anchor="middle" x="1716.53" y="-62" font-family="Helvetica,sans-Serif" font-size="10.00">Engine/Event.hpp</text>
</a>
</g>
</g>
<!-- Node4&#45;&gt;Node20 -->
<g id="edge20" class="edge">
<title>Node4&#45;&gt;Node20</title>
<path fill="none" stroke="#63b8ff" d="M1246.99,-112.73C1345.34,-102.42 1556.45,-80.99 1658.74,-70.93"/>
<polygon fill="#63b8ff" stroke="#63b8ff" points="1658.95,-74.43 1668.56,-69.97 1658.26,-67.46 1658.95,-74.43"/>
</g>
<!-- Node24 -->
<g id="node24" class="node">
<title>Node24</title>
<g id="a_node24"><a xlink:href="Bullets_8hpp.html" target="_top" xlink:title=" ">
<polygon fill="white" stroke="#666666" points="209.53,-74 87.53,-74 87.53,-55 209.53,-55 209.53,-74"/>
<text text-anchor="middle" x="148.53" y="-62" font-family="Helvetica,sans-Serif" font-size="10.00">Components/Bullets.hpp</text>
</a>
</g>
</g>
<!-- Node4&#45;&gt;Node24 -->
<g id="edge26" class="edge">
<title>Node4&#45;&gt;Node24</title>
<path fill="none" stroke="#63b8ff" d="M1142.2,-117.58C996.47,-114.64 574.13,-103.87 221.01,-74.95"/>
<polygon fill="#63b8ff" stroke="#63b8ff" points="221.56,-71.48 211.3,-74.15 220.98,-78.46 221.56,-71.48"/>
</g>
<!-- Node4&#45;&gt;Node27 -->
<g id="edge31" class="edge">
<title>Node4&#45;&gt;Node27</title>
<path fill="none" stroke="#63b8ff" d="M1246.83,-109.75C1305.35,-100.53 1400.5,-86.02 1467.06,-76.15"/>
<polygon fill="#63b8ff" stroke="#63b8ff" points="1467.43,-79.63 1476.81,-74.71 1466.41,-72.71 1467.43,-79.63"/>
</g>
<!-- Node19&#45;&gt;Node4 -->
<g id="edge19" class="edge">
<title>Node19&#45;&gt;Node4</title>
<path fill="none" stroke="#63b8ff" d="M1340.21,-74.45C1314.22,-83.18 1271.85,-96.52 1239.43,-106.24"/>
<polygon fill="#63b8ff" stroke="#63b8ff" points="1238.46,-102.88 1229.87,-109.08 1240.45,-109.59 1238.46,-102.88"/>
</g>
<!-- Node20&#45;&gt;Node4 -->
<g id="edge21" class="edge">
<title>Node20&#45;&gt;Node4</title>
<path fill="none" stroke="#63b8ff" d="M1670.37,-70.61C1576.73,-80.46 1364.61,-102 1258.04,-112.51"/>
<polygon fill="#63b8ff" stroke="#63b8ff" points="1257.94,-109 1248.33,-113.46 1258.62,-115.97 1257.94,-109"/>
</g>
<!-- Node21 -->
<g id="node21" class="node">
<title>Node21</title>
<g id="a_node21"><a xlink:title=" ">
<polygon fill="#e0e0e0" stroke="#999999" points="1799.03,-19 1770.03,-19 1770.03,0 1799.03,0 1799.03,-19"/>
<text text-anchor="middle" x="1784.53" y="-7" font-family="Helvetica,sans-Serif" font-size="10.00">list</text>
</a>
</g>
</g>
<!-- Node20&#45;&gt;Node21 -->
<g id="edge22" class="edge">
<title>Node20&#45;&gt;Node21</title>
<path fill="none" stroke="#63b8ff" d="M1728.07,-54.51C1738,-46.77 1752.55,-35.43 1764.39,-26.2"/>
<polygon fill="#63b8ff" stroke="#63b8ff" points="1766.24,-29.2 1771.97,-20.29 1761.94,-23.68 1766.24,-29.2"/>
</g>
<!-- Node20&#45;&gt;Node22 -->
<g id="edge23" class="edge">
<title>Node20&#45;&gt;Node22</title>
<path fill="none" stroke="#63b8ff" d="M1763.02,-56.17C1765.9,-55.76 1768.76,-55.37 1771.53,-55 1906.77,-37 2068.51,-20.45 2136.68,-13.7"/>
<polygon fill="#63b8ff" stroke="#63b8ff" points="2136.81,-17.21 2146.42,-12.74 2136.12,-10.24 2136.81,-17.21"/>
</g>
<!-- Node20&#45;&gt;Node23 -->
<g id="edge24" class="edge">
<title>Node20&#45;&gt;Node23</title>
<path fill="none" stroke="#63b8ff" d="M1763.01,-56.08C1765.89,-55.7 1768.75,-55.33 1771.53,-55 1961.53,-32.37 2010.43,-40.65 2200.53,-19 2205.84,-18.4 2211.42,-17.69 2216.92,-16.95"/>
<polygon fill="#63b8ff" stroke="#63b8ff" points="2217.12,-20.45 2226.54,-15.6 2216.15,-13.52 2217.12,-20.45"/>
</g>
<!-- Node24&#45;&gt;Node4 -->
<g id="edge27" class="edge">
<title>Node24&#45;&gt;Node4</title>
<path fill="none" stroke="#63b8ff" d="M209.8,-72.29C215.81,-72.93 221.8,-73.52 227.53,-74 567.65,-102.36 976.07,-113.63 1130.93,-117.16"/>
<polygon fill="#63b8ff" stroke="#63b8ff" points="1130.48,-120.65 1140.56,-117.37 1130.64,-113.65 1130.48,-120.65"/>
</g>
<!-- Node24&#45;&gt;Node25 -->
<g id="edge28" class="edge">
<title>Node24&#45;&gt;Node25</title>
<path fill="none" stroke="#63b8ff" d="M157.29,-54.75C164.68,-47.35 175.49,-36.54 184.58,-27.45"/>
<polygon fill="#63b8ff" stroke="#63b8ff" points="186.92,-30.06 191.52,-20.51 181.98,-25.11 186.92,-30.06"/>
</g>
<!-- Node26 -->
<g id="node26" class="node">
<title>Node26</title>
<g id="a_node26"><a xlink:title=" ">
<polygon fill="#e0e0e0" stroke="#999999" points="117.53,-19 71.53,-19 71.53,0 117.53,0 117.53,-19"/>
<text text-anchor="middle" x="94.53" y="-7" font-family="Helvetica,sans-Serif" font-size="10.00">math.h</text>
</a>
</g>
</g>
<!-- Node24&#45;&gt;Node26 -->
<g id="edge30" class="edge">
<title>Node24&#45;&gt;Node26</title>
<path fill="none" stroke="#63b8ff" d="M139.62,-54.75C132.08,-47.35 121.06,-36.54 111.81,-27.45"/>
<polygon fill="#63b8ff" stroke="#63b8ff" points="114.31,-25.01 104.72,-20.5 109.41,-30 114.31,-25.01"/>
</g>
<!-- Node25&#45;&gt;Node4 -->
<g id="edge29" class="edge">
<title>Node25&#45;&gt;Node4</title>
<path fill="none" stroke="#63b8ff" d="M247.99,-10.41C466.27,-10.22 1381.05,-11.98 1422.53,-55 1473.47,-107.83 1342.36,-117.85 1258.43,-119.08"/>
<polygon fill="#63b8ff" stroke="#63b8ff" points="1258.4,-115.58 1248.43,-119.19 1258.47,-122.58 1258.4,-115.58"/>
</g>
<!-- Node27&#45;&gt;Node4 -->
<g id="edge32" class="edge">
<title>Node27&#45;&gt;Node4</title>
<path fill="none" stroke="#63b8ff" d="M1488.76,-74.48C1426.51,-84.28 1324.24,-99.85 1258.11,-109.61"/>
<polygon fill="#63b8ff" stroke="#63b8ff" points="1257.89,-106.1 1248.51,-111.02 1258.91,-113.03 1257.89,-106.1"/>
</g>
<!-- Node28&#45;&gt;Node10 -->
<g id="edge35" class="edge">
<title>Node28&#45;&gt;Node10</title>
<path fill="none" stroke="#63b8ff" d="M1939.54,-164.57C1926.6,-157.05 1910.15,-144.96 1902.53,-129 1896.04,-115.39 1897.88,-98.25 1901.03,-85.21"/>
<polygon fill="#63b8ff" stroke="#63b8ff" points="1904.37,-86.25 1903.79,-75.67 1897.65,-84.3 1904.37,-86.25"/>
</g>
<!-- Node28&#45;&gt;Node15 -->
<g id="edge38" class="edge">
<title>Node28&#45;&gt;Node15</title>
<path fill="none" stroke="#63b8ff" d="M1901.97,-168.37C1850.9,-162.37 1780.6,-150.42 1763.53,-129 1751.47,-113.86 1766.83,-94.72 1781.68,-81.44"/>
<polygon fill="#63b8ff" stroke="#63b8ff" points="1783.56,-84.43 1788.99,-75.33 1779.07,-79.05 1783.56,-84.43"/>
</g>
<!-- Node29 -->
<g id="node29" class="node">
<title>Node29</title>
<g id="a_node29"><a xlink:title=" ">
<polygon fill="#e0e0e0" stroke="#999999" points="2066.53,-74 2010.53,-74 2010.53,-55 2066.53,-55 2066.53,-74"/>
<text text-anchor="middle" x="2038.53" y="-62" font-family="Helvetica,sans-Serif" font-size="10.00">algorithm</text>
</a>
</g>
</g>
<!-- Node28&#45;&gt;Node29 -->
<g id="edge36" class="edge">
<title>Node28&#45;&gt;Node29</title>
<path fill="none" stroke="#63b8ff" d="M1981.07,-164.55C1996.75,-157.34 2016.43,-145.65 2027.53,-129 2036.09,-116.16 2038.62,-98.72 2039.13,-85.37"/>
<polygon fill="#63b8ff" stroke="#63b8ff" points="2042.63,-85.62 2039.14,-75.62 2035.63,-85.62 2042.63,-85.62"/>
</g>
<!-- Node30 -->
<g id="node30" class="node">
<title>Node30</title>
<g id="a_node30"><a xlink:title=" ">
<polygon fill="#e0e0e0" stroke="#999999" points="2122.53,-74 2084.53,-74 2084.53,-55 2122.53,-55 2122.53,-74"/>
<text text-anchor="middle" x="2103.53" y="-62" font-family="Helvetica,sans-Serif" font-size="10.00">array</text>
</a>
</g>
</g>
<!-- Node28&#45;&gt;Node30 -->
<g id="edge37" class="edge">
<title>Node28&#45;&gt;Node30</title>
<path fill="none" stroke="#63b8ff" d="M1980.23,-164.51C1998.56,-156.65 2024.51,-144.14 2044.53,-129 2062.11,-115.71 2078.89,-96.84 2090.03,-83.13"/>
<polygon fill="#63b8ff" stroke="#63b8ff" points="2092.68,-85.41 2096.13,-75.4 2087.19,-81.08 2092.68,-85.41"/>
</g>
<!-- Node31 -->
<g id="node31" class="node">
<title>Node31</title>
<g id="a_node31"><a xlink:title=" ">
<polygon fill="#e0e0e0" stroke="#999999" points="1992.03,-74 1953.03,-74 1953.03,-55 1992.03,-55 1992.03,-74"/>
<text text-anchor="middle" x="1972.53" y="-62" font-family="Helvetica,sans-Serif" font-size="10.00">utility</text>
</a>
</g>
</g>
<!-- Node28&#45;&gt;Node31 -->
<g id="edge39" class="edge">
<title>Node28&#45;&gt;Node31</title>
<path fill="none" stroke="#63b8ff" d="M1975.53,-164.57C1988.47,-157.05 2004.92,-144.96 2012.53,-129 2020.59,-112.12 2007.03,-94.2 1993.57,-81.72"/>
<polygon fill="#63b8ff" stroke="#63b8ff" points="1995.99,-79.19 1986.11,-75.35 1991.44,-84.51 1995.99,-79.19"/>
</g>
<!-- Node32 -->
<g id="node32" class="node">
<title>Node32</title>
<g id="a_node32"><a xlink:href="Vectors_8hpp.html" target="_top" xlink:title=" ">
<polygon fill="white" stroke="#666666" points="2003.53,-129 1911.53,-129 1911.53,-110 2003.53,-110 2003.53,-129"/>
<text text-anchor="middle" x="1957.53" y="-117" font-family="Helvetica,sans-Serif" font-size="10.00">Utils/Vectors.hpp</text>
</a>
</g>
</g>
<!-- Node28&#45;&gt;Node32 -->
<g id="edge40" class="edge">
<title>Node28&#45;&gt;Node32</title>
<path fill="none" stroke="#63b8ff" d="M1957.53,-164.75C1957.53,-158.27 1957.53,-149.16 1957.53,-140.9"/>
<polygon fill="#63b8ff" stroke="#63b8ff" points="1961.03,-140.96 1957.53,-130.96 1954.03,-140.96 1961.03,-140.96"/>
</g>
<!-- Node32&#45;&gt;Node10 -->
<g id="edge41" class="edge">
<title>Node32&#45;&gt;Node10</title>
<path fill="none" stroke="#63b8ff" d="M1949.28,-109.75C1942.37,-102.43 1932.31,-91.76 1923.79,-82.74"/>
<polygon fill="#63b8ff" stroke="#63b8ff" points="1926.42,-80.42 1917.01,-75.54 1921.32,-85.22 1926.42,-80.42"/>
</g>
<!-- Node32&#45;&gt;Node15 -->
<g id="edge44" class="edge">
<title>Node32&#45;&gt;Node15</title>
<path fill="none" stroke="#63b8ff" d="M1931.24,-109.51C1904.86,-100.49 1864.14,-86.57 1835.59,-76.8"/>
<polygon fill="#63b8ff" stroke="#63b8ff" points="1836.95,-73.57 1826.36,-73.65 1834.69,-80.19 1836.95,-73.57"/>
</g>
<!-- Node32&#45;&gt;Node29 -->
<g id="edge42" class="edge">
<title>Node32&#45;&gt;Node29</title>
<path fill="none" stroke="#63b8ff" d="M1971.27,-109.51C1983.33,-101.62 2001.12,-89.98 2015.37,-80.65"/>
<polygon fill="#63b8ff" stroke="#63b8ff" points="2017.28,-83.59 2023.73,-75.19 2013.44,-77.73 2017.28,-83.59"/>
</g>
<!-- Node32&#45;&gt;Node30 -->
<g id="edge43" class="edge">
<title>Node32&#45;&gt;Node30</title>
<path fill="none" stroke="#63b8ff" d="M1982.3,-109.51C2007.5,-100.36 2046.58,-86.17 2073.52,-76.39"/>
<polygon fill="#63b8ff" stroke="#63b8ff" points="2074.62,-79.72 2082.83,-73.02 2072.23,-73.14 2074.62,-79.72"/>
</g>
<!-- Node32&#45;&gt;Node31 -->
<g id="edge45" class="edge">
<title>Node32&#45;&gt;Node31</title>
<path fill="none" stroke="#63b8ff" d="M1960.01,-109.75C1961.89,-103.11 1964.54,-93.73 1966.93,-85.31"/>
<polygon fill="#63b8ff" stroke="#63b8ff" points="1970.23,-86.47 1969.59,-75.9 1963.5,-84.57 1970.23,-86.47"/>
</g>
<!-- Node33&#45;&gt;Node10 -->
<g id="edge47" class="edge">
<title>Node33&#45;&gt;Node10</title>
<path fill="none" stroke="#63b8ff" d="M1829.48,-109.51C1843.88,-101.39 1865.32,-89.3 1882.09,-79.85"/>
<polygon fill="#63b8ff" stroke="#63b8ff" points="1883.51,-83.06 1890.5,-75.1 1880.07,-76.96 1883.51,-83.06"/>
</g>
<!-- Node33&#45;&gt;Node15 -->
<g id="edge49" class="edge">
<title>Node33&#45;&gt;Node15</title>
<path fill="none" stroke="#63b8ff" d="M1811.72,-109.75C1810.36,-103.19 1808.44,-93.95 1806.71,-85.6"/>
<polygon fill="#63b8ff" stroke="#63b8ff" points="1810.16,-85 1804.7,-75.92 1803.3,-86.43 1810.16,-85"/>
</g>
<!-- Node33&#45;&gt;Node21 -->
<g id="edge48" class="edge">
<title>Node33&#45;&gt;Node21</title>
<path fill="none" stroke="#63b8ff" d="M1820.29,-109.65C1828.94,-97.16 1841.86,-73.81 1833.53,-55 1828.3,-43.18 1818.2,-33.15 1808.53,-25.63"/>
<polygon fill="#63b8ff" stroke="#63b8ff" points="1810.6,-22.8 1800.42,-19.84 1806.53,-28.5 1810.6,-22.8"/>
</g>
<!-- Node34&#45;&gt;Node22 -->
<g id="edge65" class="edge">
<title>Node34&#45;&gt;Node22</title>
<path fill="none" stroke="#63b8ff" d="M2099.46,-329.73C2109,-286.26 2151.29,-93.6 2165.13,-30.55"/>
<polygon fill="#63b8ff" stroke="#63b8ff" points="2168.52,-31.45 2167.24,-20.93 2161.68,-29.95 2168.52,-31.45"/>
</g>
<!-- Node35 -->
<g id="node35" class="node">
<title>Node35</title>
<g id="a_node35"><a xlink:href="States_8hpp.html" target="_top" xlink:title=" ">
<polygon fill="white" stroke="#666666" points="2248.03,-294 2129.03,-294 2129.03,-275 2248.03,-275 2248.03,-294"/>
<text text-anchor="middle" x="2188.53" y="-282" font-family="Helvetica,sans-Serif" font-size="10.00">gameStates/States.hpp</text>
</a>
</g>
</g>
<!-- Node34&#45;&gt;Node35 -->
<g id="edge51" class="edge">
<title>Node34&#45;&gt;Node35</title>
<path fill="none" stroke="#63b8ff" d="M2112.97,-329.51C2126.78,-321.47 2147.28,-309.53 2163.44,-300.11"/>
<polygon fill="#63b8ff" stroke="#63b8ff" points="2165.14,-303.18 2172.02,-295.12 2161.61,-297.13 2165.14,-303.18"/>
</g>
<!-- Node35&#45;&gt;Node2 -->
<g id="edge52" class="edge">
<title>Node35&#45;&gt;Node2</title>
<path fill="none" stroke="#63b8ff" d="M2188.69,-294.48C2188.4,-308.45 2185.62,-335.23 2169.53,-349 2136.39,-377.36 2026.76,-387.72 1943.7,-391.46"/>
<polygon fill="#63b8ff" stroke="#63b8ff" points="1943.79,-387.96 1933.94,-391.88 1944.08,-394.95 1943.79,-387.96"/>
</g>
<!-- Node36 -->
<g id="node36" class="node">
<title>Node36</title>
<g id="a_node36"><a xlink:href="SMenu_8hpp.html" target="_top" xlink:title=" ">
<polygon fill="white" stroke="#666666" points="1815.03,-239 1750.03,-239 1750.03,-220 1815.03,-220 1815.03,-239"/>
<text text-anchor="middle" x="1782.53" y="-227" font-family="Helvetica,sans-Serif" font-size="10.00">SMenu.hpp</text>
</a>
</g>
</g>
<!-- Node35&#45;&gt;Node36 -->
<g id="edge53" class="edge">
<title>Node35&#45;&gt;Node36</title>
<path fill="none" stroke="#63b8ff" d="M2128.63,-275.68C2046.13,-264.91 1899.49,-245.77 1826.43,-236.23"/>
<polygon fill="#63b8ff" stroke="#63b8ff" points="1827.23,-232.81 1816.86,-234.98 1826.32,-239.75 1827.23,-232.81"/>
</g>
<!-- Node39 -->
<g id="node39" class="node">
<title>Node39</title>
<g id="a_node39"><a xlink:href="SGamePlay_8hpp.html" target="_top" xlink:title=" ">
<polygon fill="white" stroke="#666666" points="2302.53,-239 2216.53,-239 2216.53,-220 2302.53,-220 2302.53,-239"/>
<text text-anchor="middle" x="2259.53" y="-227" font-family="Helvetica,sans-Serif" font-size="10.00">SGamePlay.hpp</text>
</a>
</g>
</g>
<!-- Node35&#45;&gt;Node39 -->
<g id="edge58" class="edge">
<title>Node35&#45;&gt;Node39</title>
<path fill="none" stroke="#63b8ff" d="M2200.58,-274.51C2210.94,-266.77 2226.13,-255.43 2238.5,-246.2"/>
<polygon fill="#63b8ff" stroke="#63b8ff" points="2240.53,-249.05 2246.45,-240.26 2236.35,-243.44 2240.53,-249.05"/>
</g>
<!-- Node36&#45;&gt;Node2 -->
<g id="edge54" class="edge">
<title>Node36&#45;&gt;Node2</title>
<path fill="none" stroke="#63b8ff" d="M1785.83,-239.31C1795.37,-264.79 1823.15,-339.03 1836.37,-374.37"/>
<polygon fill="#63b8ff" stroke="#63b8ff" points="1832.94,-375.18 1839.72,-383.32 1839.5,-372.73 1832.94,-375.18"/>
</g>
<!-- Node37 -->
<g id="node37" class="node">
<title>Node37</title>
<g id="a_node37"><a xlink:href="Bouton_8hpp.html" target="_top" xlink:title=" ">
<polygon fill="white" stroke="#666666" points="1779.03,-184 1656.03,-184 1656.03,-165 1779.03,-165 1779.03,-184"/>
<text text-anchor="middle" x="1717.53" y="-172" font-family="Helvetica,sans-Serif" font-size="10.00">Components/Bouton.hpp</text>
</a>
</g>
</g>
<!-- Node36&#45;&gt;Node37 -->
<g id="edge55" class="edge">
<title>Node36&#45;&gt;Node37</title>
<path fill="none" stroke="#63b8ff" d="M1771.51,-219.51C1762.11,-211.85 1748.38,-200.66 1737.13,-191.47"/>
<polygon fill="#63b8ff" stroke="#63b8ff" points="1739.53,-188.92 1729.57,-185.31 1735.11,-194.35 1739.53,-188.92"/>
</g>
<!-- Node37&#45;&gt;Node4 -->
<g id="edge56" class="edge">
<title>Node37&#45;&gt;Node4</title>
<path fill="none" stroke="#63b8ff" d="M1655.74,-167.24C1555.67,-157.1 1359.16,-137.18 1258.01,-126.93"/>
<polygon fill="#63b8ff" stroke="#63b8ff" points="1258.56,-123.47 1248.26,-125.94 1257.86,-130.44 1258.56,-123.47"/>
</g>
<!-- Node38 -->
<g id="node38" class="node">
<title>Node38</title>
<g id="a_node38"><a xlink:title=" ">
<polygon fill="#e0e0e0" stroke="#999999" points="1715.03,-129 1656.03,-129 1656.03,-110 1715.03,-110 1715.03,-129"/>
<text text-anchor="middle" x="1685.53" y="-117" font-family="Helvetica,sans-Serif" font-size="10.00">functional</text>
</a>
</g>
</g>
<!-- Node37&#45;&gt;Node38 -->
<g id="edge57" class="edge">
<title>Node37&#45;&gt;Node38</title>
<path fill="none" stroke="#63b8ff" d="M1712.25,-164.75C1708.06,-157.81 1702.05,-147.86 1696.8,-139.16"/>
<polygon fill="#63b8ff" stroke="#63b8ff" points="1699.88,-137.49 1691.71,-130.74 1693.89,-141.11 1699.88,-137.49"/>
</g>
<!-- Node39&#45;&gt;Node2 -->
<g id="edge59" class="edge">
<title>Node39&#45;&gt;Node2</title>
<path fill="none" stroke="#63b8ff" d="M2261.44,-239.27C2263.77,-252.05 2266.37,-276.22 2257.53,-294 2240.24,-328.81 2225.27,-333.72 2189.53,-349 2146.56,-367.37 2029.67,-379.76 1943.59,-386.71"/>
<polygon fill="#63b8ff" stroke="#63b8ff" points="1943.39,-383.21 1933.7,-387.49 1943.94,-390.19 1943.39,-383.21"/>
</g>
<!-- Node39&#45;&gt;Node22 -->
<g id="edge60" class="edge">
<title>Node39&#45;&gt;Node22</title>
<path fill="none" stroke="#63b8ff" d="M2255.89,-219.68C2242.55,-187.36 2196.12,-74.9 2177.42,-29.61"/>
<polygon fill="#63b8ff" stroke="#63b8ff" points="2180.75,-28.49 2173.7,-20.59 2174.28,-31.16 2180.75,-28.49"/>
</g>
<!-- Node39&#45;&gt;Node23 -->
<g id="edge64" class="edge">
<title>Node39&#45;&gt;Node23</title>
<path fill="none" stroke="#63b8ff" d="M2259.53,-219.68C2259.53,-187.57 2259.53,-76.33 2259.53,-30.49"/>
<polygon fill="#63b8ff" stroke="#63b8ff" points="2263.03,-30.7 2259.53,-20.7 2256.03,-30.7 2263.03,-30.7"/>
</g>
<!-- Node39&#45;&gt;Node30 -->
<g id="edge61" class="edge">
<title>Node39&#45;&gt;Node30</title>
<path fill="none" stroke="#63b8ff" d="M2248.38,-219.73C2237.57,-211.05 2220.89,-197.19 2207.53,-184 2173.28,-150.17 2137.01,-106.89 2117.65,-83.12"/>
<polygon fill="#63b8ff" stroke="#63b8ff" points="2120.41,-80.96 2111.4,-75.38 2114.97,-85.36 2120.41,-80.96"/>
</g>
<!-- Node39&#45;&gt;Node40 -->
<g id="edge62" class="edge">
<title>Node39&#45;&gt;Node40</title>
<path fill="none" stroke="#63b8ff" d="M2267.62,-219.75C2274.39,-212.43 2284.25,-201.76 2292.6,-192.74"/>
<polygon fill="#63b8ff" stroke="#63b8ff" points="2295.02,-195.27 2299.24,-185.55 2289.88,-190.52 2295.02,-195.27"/>
</g>
<!-- Node39&#45;&gt;Node41 -->
<g id="edge63" class="edge">
<title>Node39&#45;&gt;Node41</title>
<path fill="none" stroke="#63b8ff" d="M2278.36,-219.51C2295.69,-211.24 2321.65,-198.84 2341.6,-189.31"/>
<polygon fill="#63b8ff" stroke="#63b8ff" points="2343.1,-192.48 2350.62,-185.01 2340.08,-186.16 2343.1,-192.48"/>
</g>
<!-- Node42&#45;&gt;Node4 -->
<g id="edge68" class="edge">
<title>Node42&#45;&gt;Node4</title>
<path fill="none" stroke="#63b8ff" d="M710.77,-166.95C818.37,-156.62 1025.96,-136.69 1130.73,-126.63"/>
<polygon fill="#63b8ff" stroke="#63b8ff" points="1130.94,-130.12 1140.56,-125.68 1130.28,-123.15 1130.94,-130.12"/>
</g>
<!-- Node42&#45;&gt;Node15 -->
<g id="edge71" class="edge">
<title>Node42&#45;&gt;Node15</title>
<path fill="none" stroke="#63b8ff" d="M710.94,-172.18C886.27,-167.78 1365.7,-149.43 1769.27,-74.14"/>
<polygon fill="#63b8ff" stroke="#63b8ff" points="1769.62,-77.63 1778.8,-72.34 1768.32,-70.75 1769.62,-77.63"/>
</g>
<!-- Node42&#45;&gt;Node25 -->
<g id="edge69" class="edge">
<title>Node42&#45;&gt;Node25</title>
<path fill="none" stroke="#63b8ff" d="M574.17,-171.96C438.12,-167.29 141.12,-148.6 78.53,-74 55.35,-46.37 101.63,-29.31 143.89,-19.92"/>
<polygon fill="#63b8ff" stroke="#63b8ff" points="144.52,-23.37 153.59,-17.9 143.08,-16.52 144.52,-23.37"/>
</g>
<!-- Node42&#45;&gt;Node26 -->
<g id="edge70" class="edge">
<title>Node42&#45;&gt;Node26</title>
<path fill="none" stroke="#63b8ff" d="M574.12,-173.83C418.27,-173.86 47.4,-169.62 9.53,-129 -22.05,-95.12 34.91,-49.15 70,-25.67"/>
<polygon fill="#63b8ff" stroke="#63b8ff" points="71.89,-28.61 78.37,-20.23 68.08,-22.74 71.89,-28.61"/>
</g>
<!-- Node43 -->
<g id="node43" class="node">
<title>Node43</title>
<g id="a_node43"><a xlink:title=" ">
<polygon fill="#e0e0e0" stroke="#999999" points="62.53,-129 18.53,-129 18.53,-110 62.53,-110 62.53,-129"/>
<text text-anchor="middle" x="40.53" y="-117" font-family="Helvetica,sans-Serif" font-size="10.00">cmath</text>
</a>
</g>
</g>
<!-- Node42&#45;&gt;Node43 -->
<g id="edge72" class="edge">
<title>Node42&#45;&gt;Node43</title>
<path fill="none" stroke="#63b8ff" d="M574.18,-171.51C467.4,-167.64 254.74,-156.88 76.53,-129 75.7,-128.87 74.86,-128.73 74.01,-128.58"/>
<polygon fill="#63b8ff" stroke="#63b8ff" points="74.88,-125.19 64.38,-126.64 73.49,-132.05 74.88,-125.19"/>
</g>
</g>
</svg>
        <g id="navigator" transform="translate(0 0)" fill="#404254">
                <rect fill="#f2f5e9" fill-opacity="0.5" stroke="#606060" stroke-width=".5" x="0" y="0" width="60" height="60"/>
                <use id="zoomplus" xlink:href="#zoomPlus" x="17" y="9" onmousedown="handleZoom(evt,'in')"/>
                <use id="zoomminus" xlink:href="#zoomMin" x="42" y="9" onmousedown="handleZoom(evt,'out')"/>
                <use id="reset" xlink:href="#resetDef" x="30" y="36" onmousedown="handleReset()"/>
                <g id="arrowUp" xlink:href="#dirArrow" transform="translate(30 24)" onmousedown="handlePan(0,-1)">
                  <use xlink:href="#rim" fill="#404040">
                        <set attributeName="fill" to="#808080" begin="arrowUp.mouseover" end="arrowUp.mouseout"/>
                  </use>
                  <path fill="none" stroke="white" stroke-width="1.5" d="M0,-3.0v7 M-2.5,-0.5L0,-3.0L2.5,-0.5"/>
                </g>
                <g id="arrowRight" xlink:href="#dirArrow" transform="rotate(90) translate(36 -43)" onmousedown="handlePan(1,0)">
                  <use xlink:href="#rim" fill="#404040">
                        <set attributeName="fill" to="#808080" begin="arrowRight.mouseover" end="arrowRight.mouseout"/>
                  </use>
                  <path fill="none" stroke="white" stroke-width="1.5" d="M0,-3.0v7 M-2.5,-0.5L0,-3.0L2.5,-0.5"/>
                </g>
                <g id="arrowDown" xlink:href="#dirArrow" transform="rotate(180) translate(-30 -48)" onmousedown="handlePan(0,1)">
                  <use xlink:href="#rim" fill="#404040">
                        <set attributeName="fill" to="#808080" begin="arrowDown.mouseover" end="arrowDown.mouseout"/>
                  </use>
                  <path fill="none" stroke="white" stroke-width="1.5" d="M0,-3.0v7 M-2.5,-0.5L0,-3.0L2.5,-0.5"/>
                </g>
                <g id="arrowLeft" xlink:href="#dirArrow" transform="rotate(270) translate(-36 17)" onmousedown="handlePan(-1,0)">
                  <use xlink:href="#rim" fill="#404040">
                        <set attributeName="fill" to="#808080" begin="arrowLeft.mouseover" end="arrowLeft.mouseout"/>
                  </use>
                  <path fill="none" stroke="white" stroke-width="1.5" d="M0,-3.0v7 M-2.5,-0.5L0,-3.0L2.5,-0.5"/>
                </g>
        </g>
        <svg viewBox="0 0 15 15" width="100%" height="30px" preserveAspectRatio="xMaxYMin meet">
         <g id="arrow_out" transform="scale(0.3 0.3)">
          <a xlink:href="old__SGamePlay_01copy_8hpp__incl_org.svg" target="_base">
           <rect id="button" ry="5" rx="5" y="6" x="6" height="38" width="38"
                fill="#f2f5e9" fill-opacity="0.5" stroke="#606060" stroke-width="1.0"/>
           <path id="arrow"
             d="M 11.500037,31.436501 C 11.940474,20.09759 22.043105,11.32322 32.158766,21.979434 L 37.068811,17.246167 C 37.068811,17.246167 37.088388,32 37.088388,32 L 22.160133,31.978069 C 22.160133,31.978069 26.997745,27.140456 26.997745,27.140456 C 18.528582,18.264221 13.291696,25.230495 11.500037,31.436501 z"
             style="fill:#404040;"/>
          </a>
         </g>
        </svg>
</svg>
