<?xml version="1.0" encoding="UTF-8" standalone="no"?>
<!DOCTYPE svg PUBLIC "-//W3C//DTD SVG 1.1//EN"
 "http://www.w3.org/Graphics/SVG/1.1/DTD/svg11.dtd">
<!-- Generated by graphviz version 7.0.5 (20221223.1930)
 -->
<!-- Title: /github/workspace/client/include/Entities/oold_EntitiesManager.hpp Pages: 1 -->
<!--zoomable 324 -->
<svg id="main" version="1.1" xmlns="http://www.w3.org/2000/svg" xmlns:xlink="http://www.w3.org/1999/xlink" xml:space="preserve" onload="init(evt)">
<style type="text/css"><![CDATA[
.edge:hover path { stroke: red; }
.edge:hover polygon { stroke: red; fill: red; }
]]></style>
<script type="text/javascript"><![CDATA[
var edges = document.getElementsByTagName('g');
if (edges && edges.length) {
  for (var i=0;i<edges.length;i++) {
    if (edges[i].id.substr(0,4)=='edge') {
      edges[i].setAttribute('class','edge');
    }
  }
}
]]></script>
        <defs>
                <circle id="rim" cx="0" cy="0" r="7"/>
                <circle id="rim2" cx="0" cy="0" r="3.5"/>
                <g id="zoomPlus">
                        <use xlink:href="#rim" fill="#404040">
                                <set attributeName="fill" to="#808080" begin="zoomplus.mouseover" end="zoomplus.mouseout"/>
                        </use>
                        <path d="M-4,0h8M0,-4v8" fill="none" stroke="white" stroke-width="1.5" pointer-events="none"/>
                </g>
                <g id="zoomMin">
                        <use xlink:href="#rim" fill="#404040">
                                <set attributeName="fill" to="#808080" begin="zoomminus.mouseover" end="zoomminus.mouseout"/>
                        </use>
                        <path d="M-4,0h8" fill="none" stroke="white" stroke-width="1.5" pointer-events="none"/>
                </g>
                <g id="dirArrow">
                        <path fill="none" stroke="white" stroke-width="1.5" d="M0,-3.0v7 M-2.5,-0.5L0,-3.0L2.5,-0.5"/>
                </g>
               <g id="resetDef">
                       <use xlink:href="#rim2" fill="#404040">
                               <set attributeName="fill" to="#808080" begin="reset.mouseover" end="reset.mouseout"/>
                       </use>
               </g>
        </defs>

<script type="text/javascript">
var viewWidth = 1784;
var viewHeight = 324;
var sectionId = 'dynsection-0';
</script>
<script xlink:href="svgpan.js"/>
<svg id="graph" class="graph">
<g id="viewport">
<title>/github/workspace/client/include/Entities/oold_EntitiesManager.hpp</title>
<!-- Node1 -->
<g id="node1" class="node">
<title>Node1</title>
<g id="a_node1"><a xlink:title=" ">
<polygon fill="#999999" stroke="#666666" points="1438.18,-316 1316.18,-316 1316.18,-275 1438.18,-275 1438.18,-316"/>
<text text-anchor="start" x="1324.18" y="-304" font-family="Helvetica,sans-Serif" font-size="10.00">/github/workspace/client</text>
<text text-anchor="start" x="1324.18" y="-293" font-family="Helvetica,sans-Serif" font-size="10.00">/include/Entities/oold</text>
<text text-anchor="middle" x="1377.18" y="-282" font-family="Helvetica,sans-Serif" font-size="10.00">_EntitiesManager.hpp</text>
</a>
</g>
</g>
<!-- Node2 -->
<g id="node2" class="node">
<title>Node2</title>
<g id="a_node2"><a xlink:href="Engine_8hpp.html" target="_top" xlink:title=" ">
<polygon fill="white" stroke="#666666" points="1006.18,-239 910.18,-239 910.18,-220 1006.18,-220 1006.18,-239"/>
<text text-anchor="middle" x="958.18" y="-227" font-family="Helvetica,sans-Serif" font-size="10.00">Engine/Engine.hpp</text>
</a>
</g>
</g>
<!-- Node1&#45;&gt;Node2 -->
<g id="edge1" class="edge">
<title>Node1&#45;&gt;Node2</title>
<path fill="none" stroke="#63b8ff" d="M1315.81,-285.13C1235.86,-272.91 1097,-251.7 1017.89,-239.62"/>
<polygon fill="#63b8ff" stroke="#63b8ff" points="1018.57,-236.18 1008.16,-238.13 1017.52,-243.1 1018.57,-236.18"/>
</g>
<!-- Node13 -->
<g id="node13" class="node">
<title>Node13</title>
<g id="a_node13"><a xlink:title=" ">
<polygon fill="#e0e0e0" stroke="#999999" points="1706.18,-19 1662.18,-19 1662.18,0 1706.18,0 1706.18,-19"/>
<text text-anchor="middle" x="1684.18" y="-7" font-family="Helvetica,sans-Serif" font-size="10.00">vector</text>
</a>
</g>
</g>
<!-- Node1&#45;&gt;Node13 -->
<g id="edge44" class="edge">
<title>Node1&#45;&gt;Node13</title>
<path fill="none" stroke="#63b8ff" d="M1438.68,-292.8C1532.41,-289.01 1705.1,-276.94 1752.18,-239 1775.68,-220.07 1776.18,-205.67 1776.18,-175.5 1776.18,-175.5 1776.18,-175.5 1776.18,-118.5 1776.18,-77.04 1736.41,-43.41 1709.16,-25.24"/>
<polygon fill="#63b8ff" stroke="#63b8ff" points="1711.38,-22.5 1701.07,-20.07 1707.61,-28.4 1711.38,-22.5"/>
</g>
<!-- Node20 -->
<g id="node20" class="node">
<title>Node20</title>
<g id="a_node20"><a xlink:href="IComponents_8hpp.html" target="_top" xlink:title=" ">
<polygon fill="white" stroke="#666666" points="437.18,-129 287.18,-129 287.18,-110 437.18,-110 437.18,-129"/>
<text text-anchor="middle" x="362.18" y="-117" font-family="Helvetica,sans-Serif" font-size="10.00">Components/IComponents.hpp</text>
</a>
</g>
</g>
<!-- Node1&#45;&gt;Node20 -->
<g id="edge42" class="edge">
<title>Node1&#45;&gt;Node20</title>
<path fill="none" stroke="#63b8ff" d="M1315.74,-294.29C1061.83,-292.81 103.46,-280.81 14.18,-184 8.46,-177.79 8.6,-171.34 14.18,-165 18.51,-160.08 174.21,-141.68 275.85,-130.13"/>
<polygon fill="#63b8ff" stroke="#63b8ff" points="276,-133.64 285.54,-129.03 275.21,-126.68 276,-133.64"/>
</g>
<!-- Node23 -->
<g id="node23" class="node">
<title>Node23</title>
<g id="a_node23"><a xlink:title=" ">
<polygon fill="#e0e0e0" stroke="#999999" points="381.18,-19 343.18,-19 343.18,0 381.18,0 381.18,-19"/>
<text text-anchor="middle" x="362.18" y="-7" font-family="Helvetica,sans-Serif" font-size="10.00">array</text>
</a>
</g>
</g>
<!-- Node1&#45;&gt;Node23 -->
<g id="edge43" class="edge">
<title>Node1&#45;&gt;Node23</title>
<path fill="none" stroke="#63b8ff" d="M1438.51,-291.94C1510.32,-285.26 1626.41,-262.19 1681.18,-184 1700.82,-155.97 1662.35,-119.71 1646.18,-110 1535.39,-43.48 577.54,-15.96 392.91,-11.25"/>
<polygon fill="#63b8ff" stroke="#63b8ff" points="393.02,-7.75 382.94,-11 392.85,-14.75 393.02,-7.75"/>
</g>
<!-- Node3 -->
<g id="node3" class="node">
<title>Node3</title>
<g id="a_node3"><a xlink:title=" ">
<polygon fill="#e0e0e0" stroke="#999999" points="590.68,-184 501.68,-184 501.68,-165 590.68,-165 590.68,-184"/>
<text text-anchor="middle" x="546.18" y="-172" font-family="Helvetica,sans-Serif" font-size="10.00">SFML/Audio.hpp</text>
</a>
</g>
</g>
<!-- Node2&#45;&gt;Node3 -->
<g id="edge2" class="edge">
<title>Node2&#45;&gt;Node3</title>
<path fill="none" stroke="#63b8ff" d="M909.77,-222.99C843.05,-215.28 718.81,-200.53 602.21,-184.24"/>
<polygon fill="#63b8ff" stroke="#63b8ff" points="602.84,-180.8 592.45,-182.87 601.87,-187.73 602.84,-180.8"/>
</g>
<!-- Node4 -->
<g id="node4" class="node">
<title>Node4</title>
<g id="a_node4"><a xlink:title=" ">
<polygon fill="#e0e0e0" stroke="#999999" points="713.18,-184 609.18,-184 609.18,-165 713.18,-165 713.18,-184"/>
<text text-anchor="middle" x="661.18" y="-172" font-family="Helvetica,sans-Serif" font-size="10.00">SFML/Graphics.hpp</text>
</a>
</g>
</g>
<!-- Node2&#45;&gt;Node4 -->
<g id="edge3" class="edge">
<title>Node2&#45;&gt;Node4</title>
<path fill="none" stroke="#63b8ff" d="M909.8,-219.87C858.75,-210.76 778.14,-196.37 722.63,-186.46"/>
<polygon fill="#63b8ff" stroke="#63b8ff" points="723.48,-183.06 713.02,-184.75 722.25,-189.95 723.48,-183.06"/>
</g>
<!-- Node5 -->
<g id="node5" class="node">
<title>Node5</title>
<g id="a_node5"><a xlink:title=" ">
<polygon fill="#e0e0e0" stroke="#999999" points="832.68,-184 731.68,-184 731.68,-165 832.68,-165 832.68,-184"/>
<text text-anchor="middle" x="782.18" y="-172" font-family="Helvetica,sans-Serif" font-size="10.00">SFML/Network.hpp</text>
</a>
</g>
</g>
<!-- Node2&#45;&gt;Node5 -->
<g id="edge4" class="edge">
<title>Node2&#45;&gt;Node5</title>
<path fill="none" stroke="#63b8ff" d="M928.33,-219.51C899.29,-210.76 854.96,-197.42 822.74,-187.71"/>
<polygon fill="#63b8ff" stroke="#63b8ff" points="823.93,-184.41 813.34,-184.88 821.91,-191.12 823.93,-184.41"/>
</g>
<!-- Node6 -->
<g id="node6" class="node">
<title>Node6</title>
<g id="a_node6"><a xlink:title=" ">
<polygon fill="#e0e0e0" stroke="#999999" points="949.68,-184 850.68,-184 850.68,-165 949.68,-165 949.68,-184"/>
<text text-anchor="middle" x="900.18" y="-172" font-family="Helvetica,sans-Serif" font-size="10.00">SFML/Window.hpp</text>
</a>
</g>
</g>
<!-- Node2&#45;&gt;Node6 -->
<g id="edge5" class="edge">
<title>Node2&#45;&gt;Node6</title>
<path fill="none" stroke="#63b8ff" d="M948.34,-219.51C940.13,-212 928.2,-201.1 918.27,-192.03"/>
<polygon fill="#63b8ff" stroke="#63b8ff" points="920.74,-189.54 910.99,-185.38 916.02,-194.71 920.74,-189.54"/>
</g>
<!-- Node7 -->
<g id="node7" class="node">
<title>Node7</title>
<g id="a_node7"><a xlink:title=" ">
<polygon fill="#e0e0e0" stroke="#999999" points="1066.18,-184 968.18,-184 968.18,-165 1066.18,-165 1066.18,-184"/>
<text text-anchor="middle" x="1017.18" y="-172" font-family="Helvetica,sans-Serif" font-size="10.00">SFML/System.hpp</text>
</a>
</g>
</g>
<!-- Node2&#45;&gt;Node7 -->
<g id="edge6" class="edge">
<title>Node2&#45;&gt;Node7</title>
<path fill="none" stroke="#63b8ff" d="M968.19,-219.51C976.55,-212 988.68,-201.1 998.78,-192.03"/>
<polygon fill="#63b8ff" stroke="#63b8ff" points="1001.1,-194.66 1006.2,-185.37 996.42,-189.45 1001.1,-194.66"/>
</g>
<!-- Node8 -->
<g id="node8" class="node">
<title>Node8</title>
<g id="a_node8"><a xlink:title=" ">
<polygon fill="#e0e0e0" stroke="#999999" points="165.18,-19 111.18,-19 111.18,0 165.18,0 165.18,-19"/>
<text text-anchor="middle" x="138.18" y="-7" font-family="Helvetica,sans-Serif" font-size="10.00">iostream</text>
</a>
</g>
</g>
<!-- Node2&#45;&gt;Node8 -->
<g id="edge7" class="edge">
<title>Node2&#45;&gt;Node8</title>
<path fill="none" stroke="#63b8ff" d="M909.92,-228.05C721.64,-226.07 45.36,-216.68 14.18,-184 -36.16,-131.23 64.4,-56.94 113.43,-25.5"/>
<polygon fill="#63b8ff" stroke="#63b8ff" points="115.15,-28.55 121.76,-20.26 111.43,-22.62 115.15,-28.55"/>
</g>
<!-- Node9 -->
<g id="node9" class="node">
<title>Node9</title>
<g id="a_node9"><a xlink:title=" ">
<polygon fill="#e0e0e0" stroke="#999999" points="1134.18,-184 1084.18,-184 1084.18,-165 1134.18,-165 1134.18,-184"/>
<text text-anchor="middle" x="1109.18" y="-172" font-family="Helvetica,sans-Serif" font-size="10.00">fstream</text>
</a>
</g>
</g>
<!-- Node2&#45;&gt;Node9 -->
<g id="edge8" class="edge">
<title>Node2&#45;&gt;Node9</title>
<path fill="none" stroke="#63b8ff" d="M983.8,-219.51C1008.28,-210.92 1045.42,-197.88 1072.93,-188.22"/>
<polygon fill="#63b8ff" stroke="#63b8ff" points="1073.99,-191.56 1082.27,-184.95 1071.67,-184.96 1073.99,-191.56"/>
</g>
<!-- Node10 -->
<g id="node10" class="node">
<title>Node10</title>
<g id="a_node10"><a xlink:title=" ">
<polygon fill="#e0e0e0" stroke="#999999" points="1193.68,-184 1152.68,-184 1152.68,-165 1193.68,-165 1193.68,-184"/>
<text text-anchor="middle" x="1173.18" y="-172" font-family="Helvetica,sans-Serif" font-size="10.00">string</text>
</a>
</g>
</g>
<!-- Node2&#45;&gt;Node10 -->
<g id="edge9" class="edge">
<title>Node2&#45;&gt;Node10</title>
<path fill="none" stroke="#63b8ff" d="M997.28,-219.58C1032.45,-211.44 1085.81,-198.84 1141.14,-184.45"/>
<polygon fill="#63b8ff" stroke="#63b8ff" points="1141.98,-187.85 1150.77,-181.93 1140.21,-181.08 1141.98,-187.85"/>
</g>
<!-- Node11 -->
<g id="node11" class="node">
<title>Node11</title>
<g id="a_node11"><a xlink:title=" ">
<polygon fill="#e0e0e0" stroke="#999999" points="1262.18,-184 1212.18,-184 1212.18,-165 1262.18,-165 1262.18,-184"/>
<text text-anchor="middle" x="1237.18" y="-172" font-family="Helvetica,sans-Serif" font-size="10.00">unistd.h</text>
</a>
</g>
</g>
<!-- Node2&#45;&gt;Node11 -->
<g id="edge10" class="edge">
<title>Node2&#45;&gt;Node11</title>
<path fill="none" stroke="#63b8ff" d="M1006.49,-220.54C1053.52,-212.6 1127.26,-199.65 1201.1,-184.11"/>
<polygon fill="#63b8ff" stroke="#63b8ff" points="1201.45,-187.62 1210.51,-182.12 1200,-180.77 1201.45,-187.62"/>
</g>
<!-- Node12 -->
<g id="node12" class="node">
<title>Node12</title>
<g id="a_node12"><a xlink:title=" ">
<polygon fill="#e0e0e0" stroke="#999999" points="1345.68,-184 1280.68,-184 1280.68,-165 1345.68,-165 1345.68,-184"/>
<text text-anchor="middle" x="1313.18" y="-172" font-family="Helvetica,sans-Serif" font-size="10.00">sys/types.h</text>
</a>
</g>
</g>
<!-- Node2&#45;&gt;Node12 -->
<g id="edge11" class="edge">
<title>Node2&#45;&gt;Node12</title>
<path fill="none" stroke="#63b8ff" d="M1006.58,-222.51C1065.97,-214.96 1170.01,-201.11 1269.08,-184.27"/>
<polygon fill="#63b8ff" stroke="#63b8ff" points="1269.45,-187.76 1278.71,-182.62 1268.26,-180.86 1269.45,-187.76"/>
</g>
<!-- Node2&#45;&gt;Node13 -->
<g id="edge12" class="edge">
<title>Node2&#45;&gt;Node13</title>
<path fill="none" stroke="#63b8ff" d="M1006.63,-227.31C1164.89,-223.18 1657.85,-208.39 1681.18,-184 1721.05,-142.33 1702.97,-65.96 1691.32,-30.09"/>
<polygon fill="#63b8ff" stroke="#63b8ff" points="1694.63,-28.96 1688.06,-20.65 1688.01,-31.24 1694.63,-28.96"/>
</g>
<!-- Node14 -->
<g id="node14" class="node">
<title>Node14</title>
<g id="a_node14"><a xlink:title=" ">
<polygon fill="#e0e0e0" stroke="#999999" points="1562.18,-184 1504.18,-184 1504.18,-165 1562.18,-165 1562.18,-184"/>
<text text-anchor="middle" x="1533.18" y="-172" font-family="Helvetica,sans-Serif" font-size="10.00">exception</text>
</a>
</g>
</g>
<!-- Node2&#45;&gt;Node14 -->
<g id="edge13" class="edge">
<title>Node2&#45;&gt;Node14</title>
<path fill="none" stroke="#63b8ff" d="M1006.58,-226.72C1099.12,-222.83 1307.67,-211.75 1492.5,-184.2"/>
<polygon fill="#63b8ff" stroke="#63b8ff" points="1492.94,-187.67 1502.3,-182.72 1491.89,-180.75 1492.94,-187.67"/>
</g>
<!-- Node15 -->
<g id="node15" class="node">
<title>Node15</title>
<g id="a_node15"><a xlink:href="Window_8hpp.html" target="_top" xlink:title=" ">
<polygon fill="white" stroke="#666666" points="124.68,-184 23.68,-184 23.68,-165 124.68,-165 124.68,-184"/>
<text text-anchor="middle" x="74.18" y="-172" font-family="Helvetica,sans-Serif" font-size="10.00">Engine/Window.hpp</text>
</a>
</g>
</g>
<!-- Node2&#45;&gt;Node15 -->
<g id="edge14" class="edge">
<title>Node2&#45;&gt;Node15</title>
<path fill="none" stroke="#63b8ff" d="M909.71,-227.46C782.92,-224.31 431.54,-213.29 136.95,-185.14"/>
<polygon fill="#63b8ff" stroke="#63b8ff" points="137.41,-181.67 127.12,-184.19 136.74,-188.63 137.41,-181.67"/>
</g>
<!-- Node16 -->
<g id="node16" class="node">
<title>Node16</title>
<g id="a_node16"><a xlink:href="Event_8hpp.html" target="_top" xlink:title=" ">
<polygon fill="white" stroke="#666666" points="1672.18,-184 1580.18,-184 1580.18,-165 1672.18,-165 1672.18,-184"/>
<text text-anchor="middle" x="1626.18" y="-172" font-family="Helvetica,sans-Serif" font-size="10.00">Engine/Event.hpp</text>
</a>
</g>
</g>
<!-- Node2&#45;&gt;Node16 -->
<g id="edge16" class="edge">
<title>Node2&#45;&gt;Node16</title>
<path fill="none" stroke="#63b8ff" d="M1006.56,-226.08C1109.25,-220.92 1355.97,-207.38 1562.18,-184 1564.22,-183.77 1566.29,-183.52 1568.39,-183.25"/>
<polygon fill="#63b8ff" stroke="#63b8ff" points="1568.83,-186.72 1578.27,-181.92 1567.89,-179.79 1568.83,-186.72"/>
</g>
<!-- Node19 -->
<g id="node19" class="node">
<title>Node19</title>
<g id="a_node19"><a xlink:href="EntitiesManager_8hpp.html" target="_top" xlink:title=" ">
<polygon fill="white" stroke="#666666" points="283.18,-184 143.18,-184 143.18,-165 283.18,-165 283.18,-184"/>
<text text-anchor="middle" x="213.18" y="-172" font-family="Helvetica,sans-Serif" font-size="10.00">Entities/EntitiesManager.hpp</text>
</a>
</g>
</g>
<!-- Node2&#45;&gt;Node19 -->
<g id="edge20" class="edge">
<title>Node2&#45;&gt;Node19</title>
<path fill="none" stroke="#63b8ff" d="M909.92,-226.07C801.19,-220.15 529.23,-204.09 294.47,-184.52"/>
<polygon fill="#63b8ff" stroke="#63b8ff" points="295.08,-181.06 284.83,-183.71 294.5,-188.03 295.08,-181.06"/>
</g>
<!-- Node26 -->
<g id="node26" class="node">
<title>Node26</title>
<g id="a_node26"><a xlink:href="Bullets_8hpp.html" target="_top" xlink:title=" ">
<polygon fill="white" stroke="#666666" points="1486.18,-184 1364.18,-184 1364.18,-165 1486.18,-165 1486.18,-184"/>
<text text-anchor="middle" x="1425.18" y="-172" font-family="Helvetica,sans-Serif" font-size="10.00">Components/Bullets.hpp</text>
</a>
</g>
</g>
<!-- Node2&#45;&gt;Node26 -->
<g id="edge36" class="edge">
<title>Node2&#45;&gt;Node26</title>
<path fill="none" stroke="#63b8ff" d="M1006.64,-222.51C1080,-214.07 1223.2,-198.16 1345.18,-184 1347.64,-183.72 1350.14,-183.42 1352.67,-183.13"/>
<polygon fill="#63b8ff" stroke="#63b8ff" points="1352.88,-186.63 1362.4,-181.99 1352.06,-179.67 1352.88,-186.63"/>
</g>
<!-- Node28 -->
<g id="node28" class="node">
<title>Node28</title>
<g id="a_node28"><a xlink:href="Background_8hpp.html" target="_top" xlink:title=" ">
<polygon fill="white" stroke="#666666" points="483.18,-184 339.18,-184 339.18,-165 483.18,-165 483.18,-184"/>
<text text-anchor="middle" x="411.18" y="-172" font-family="Helvetica,sans-Serif" font-size="10.00">Components/Background.hpp</text>
</a>
</g>
</g>
<!-- Node2&#45;&gt;Node28 -->
<g id="edge40" class="edge">
<title>Node2&#45;&gt;Node28</title>
<path fill="none" stroke="#63b8ff" d="M909.95,-224.52C826.08,-217.09 648.17,-200.47 495.08,-185.19"/>
<polygon fill="#63b8ff" stroke="#63b8ff" points="495.44,-181.71 485.15,-184.2 494.75,-188.67 495.44,-181.71"/>
</g>
<!-- Node15&#45;&gt;Node2 -->
<g id="edge15" class="edge">
<title>Node15&#45;&gt;Node2</title>
<path fill="none" stroke="#63b8ff" d="M125,-181.91C131.15,-182.7 137.32,-183.43 143.18,-184 425.47,-211.57 763.96,-223.11 898.73,-226.93"/>
<polygon fill="#63b8ff" stroke="#63b8ff" points="898.38,-230.42 908.47,-227.2 898.58,-223.42 898.38,-230.42"/>
</g>
<!-- Node16&#45;&gt;Node2 -->
<g id="edge17" class="edge">
<title>Node16&#45;&gt;Node2</title>
<path fill="none" stroke="#63b8ff" d="M1579.87,-184.04C1374.36,-207.32 1128.74,-220.84 1017.71,-226.03"/>
<polygon fill="#63b8ff" stroke="#63b8ff" points="1017.77,-222.52 1007.95,-226.48 1018.1,-229.51 1017.77,-222.52"/>
</g>
<!-- Node17 -->
<g id="node17" class="node">
<title>Node17</title>
<g id="a_node17"><a xlink:title=" ">
<polygon fill="#e0e0e0" stroke="#999999" points="1636.68,-129 1607.68,-129 1607.68,-110 1636.68,-110 1636.68,-129"/>
<text text-anchor="middle" x="1622.18" y="-117" font-family="Helvetica,sans-Serif" font-size="10.00">list</text>
</a>
</g>
</g>
<!-- Node16&#45;&gt;Node17 -->
<g id="edge18" class="edge">
<title>Node16&#45;&gt;Node17</title>
<path fill="none" stroke="#63b8ff" d="M1625.52,-164.75C1625.03,-158.27 1624.35,-149.16 1623.72,-140.9"/>
<polygon fill="#63b8ff" stroke="#63b8ff" points="1627.21,-140.66 1622.97,-130.95 1620.23,-141.19 1627.21,-140.66"/>
</g>
<!-- Node18 -->
<g id="node18" class="node">
<title>Node18</title>
<g id="a_node18"><a xlink:title=" ">
<polygon fill="#e0e0e0" stroke="#999999" points="1589.68,-129 1546.68,-129 1546.68,-110 1589.68,-110 1589.68,-129"/>
<text text-anchor="middle" x="1568.18" y="-117" font-family="Helvetica,sans-Serif" font-size="10.00">queue</text>
</a>
</g>
</g>
<!-- Node16&#45;&gt;Node18 -->
<g id="edge19" class="edge">
<title>Node16&#45;&gt;Node18</title>
<path fill="none" stroke="#63b8ff" d="M1616.34,-164.51C1608.13,-157 1596.2,-146.1 1586.27,-137.03"/>
<polygon fill="#63b8ff" stroke="#63b8ff" points="1588.74,-134.54 1578.99,-130.38 1584.02,-139.71 1588.74,-134.54"/>
</g>
<!-- Node19&#45;&gt;Node2 -->
<g id="edge21" class="edge">
<title>Node19&#45;&gt;Node2</title>
<path fill="none" stroke="#63b8ff" d="M283.57,-181.96C291.23,-182.69 298.88,-183.38 306.18,-184 524.47,-202.39 783.82,-218.05 898.61,-224.86"/>
<polygon fill="#63b8ff" stroke="#63b8ff" points="898.21,-228.34 908.4,-225.44 898.63,-221.35 898.21,-228.34"/>
</g>
<!-- Node19&#45;&gt;Node20 -->
<g id="edge22" class="edge">
<title>Node19&#45;&gt;Node20</title>
<path fill="none" stroke="#63b8ff" d="M238.46,-164.51C262.69,-155.89 299.48,-142.8 326.66,-133.14"/>
<polygon fill="#63b8ff" stroke="#63b8ff" points="327.61,-136.51 335.85,-129.87 325.26,-129.92 327.61,-136.51"/>
</g>
<!-- Node21 -->
<g id="node21" class="node">
<title>Node21</title>
<g id="a_node21"><a xlink:href="SparseArray_8hpp.html" target="_top" xlink:title=" ">
<polygon fill="white" stroke="#666666" points="268.68,-129 157.68,-129 157.68,-110 268.68,-110 268.68,-129"/>
<text text-anchor="middle" x="213.18" y="-117" font-family="Helvetica,sans-Serif" font-size="10.00">Utils/SparseArray.hpp</text>
</a>
</g>
</g>
<!-- Node19&#45;&gt;Node21 -->
<g id="edge24" class="edge">
<title>Node19&#45;&gt;Node21</title>
<path fill="none" stroke="#63b8ff" d="M213.18,-164.75C213.18,-158.27 213.18,-149.16 213.18,-140.9"/>
<polygon fill="#63b8ff" stroke="#63b8ff" points="216.68,-140.96 213.18,-130.96 209.68,-140.96 216.68,-140.96"/>
</g>
<!-- Node20&#45;&gt;Node2 -->
<g id="edge23" class="edge">
<title>Node20&#45;&gt;Node2</title>
<path fill="none" stroke="#63b8ff" d="M351.87,-129.23C337.5,-142.4 314.87,-167.56 330.18,-184 368.42,-225.04 749.13,-228.88 898.49,-228.78"/>
<polygon fill="#63b8ff" stroke="#63b8ff" points="898.18,-232.29 908.17,-228.77 898.17,-225.29 898.18,-232.29"/>
</g>
<!-- Node21&#45;&gt;Node8 -->
<g id="edge25" class="edge">
<title>Node21&#45;&gt;Node8</title>
<path fill="none" stroke="#63b8ff" d="M207.05,-109.66C194.79,-92.02 167.09,-52.12 150.8,-28.67"/>
<polygon fill="#63b8ff" stroke="#63b8ff" points="153.85,-26.92 145.27,-20.7 148.1,-30.91 153.85,-26.92"/>
</g>
<!-- Node21&#45;&gt;Node13 -->
<g id="edge28" class="edge">
<title>Node21&#45;&gt;Node13</title>
<path fill="none" stroke="#63b8ff" d="M269.18,-110.96C272.22,-110.62 275.24,-110.3 278.18,-110 825.15,-54.93 1494.86,-19.89 1650.69,-12.13"/>
<polygon fill="#63b8ff" stroke="#63b8ff" points="1650.49,-15.65 1660.3,-11.66 1650.14,-8.66 1650.49,-15.65"/>
</g>
<!-- Node22 -->
<g id="node22" class="node">
<title>Node22</title>
<g id="a_node22"><a xlink:title=" ">
<polygon fill="#e0e0e0" stroke="#999999" points="246.18,-19 190.18,-19 190.18,0 246.18,0 246.18,-19"/>
<text text-anchor="middle" x="218.18" y="-7" font-family="Helvetica,sans-Serif" font-size="10.00">algorithm</text>
</a>
</g>
</g>
<!-- Node21&#45;&gt;Node22 -->
<g id="edge26" class="edge">
<title>Node21&#45;&gt;Node22</title>
<path fill="none" stroke="#63b8ff" d="M207.61,-109.51C200.71,-97.26 190.42,-74.6 195.18,-55 197.39,-45.93 201.79,-36.63 206.16,-28.9"/>
<polygon fill="#63b8ff" stroke="#63b8ff" points="209.07,-30.85 211.29,-20.49 203.1,-27.21 209.07,-30.85"/>
</g>
<!-- Node21&#45;&gt;Node23 -->
<g id="edge27" class="edge">
<title>Node21&#45;&gt;Node23</title>
<path fill="none" stroke="#63b8ff" d="M250.33,-109.58C272.97,-102.72 301.44,-91.41 322.18,-74 336.53,-61.96 347.38,-43.42 354.13,-29.48"/>
<polygon fill="#63b8ff" stroke="#63b8ff" points="357.27,-31.02 358.21,-20.47 350.9,-28.14 357.27,-31.02"/>
</g>
<!-- Node24 -->
<g id="node24" class="node">
<title>Node24</title>
<g id="a_node24"><a xlink:title=" ">
<polygon fill="#e0e0e0" stroke="#999999" points="317.68,-19 278.68,-19 278.68,0 317.68,0 317.68,-19"/>
<text text-anchor="middle" x="298.18" y="-7" font-family="Helvetica,sans-Serif" font-size="10.00">utility</text>
</a>
</g>
</g>
<!-- Node21&#45;&gt;Node24 -->
<g id="edge29" class="edge">
<title>Node21&#45;&gt;Node24</title>
<path fill="none" stroke="#63b8ff" d="M253.44,-109.6C272.6,-103.12 293.78,-92.19 305.18,-74 313.39,-60.92 310.6,-43.29 306.35,-29.92"/>
<polygon fill="#63b8ff" stroke="#63b8ff" points="309.76,-29.07 303,-20.91 303.2,-31.51 309.76,-29.07"/>
</g>
<!-- Node25 -->
<g id="node25" class="node">
<title>Node25</title>
<g id="a_node25"><a xlink:href="Vectors_8hpp.html" target="_top" xlink:title=" ">
<polygon fill="white" stroke="#666666" points="296.18,-74 204.18,-74 204.18,-55 296.18,-55 296.18,-74"/>
<text text-anchor="middle" x="250.18" y="-62" font-family="Helvetica,sans-Serif" font-size="10.00">Utils/Vectors.hpp</text>
</a>
</g>
</g>
<!-- Node21&#45;&gt;Node25 -->
<g id="edge30" class="edge">
<title>Node21&#45;&gt;Node25</title>
<path fill="none" stroke="#63b8ff" d="M219.29,-109.75C224.19,-102.73 231.23,-92.64 237.36,-83.87"/>
<polygon fill="#63b8ff" stroke="#63b8ff" points="240.22,-85.89 243.07,-75.68 234.48,-81.88 240.22,-85.89"/>
</g>
<!-- Node25&#45;&gt;Node8 -->
<g id="edge31" class="edge">
<title>Node25&#45;&gt;Node8</title>
<path fill="none" stroke="#63b8ff" d="M231.18,-54.51C213.62,-46.2 187.27,-33.73 167.09,-24.18"/>
<polygon fill="#63b8ff" stroke="#63b8ff" points="168.81,-21.12 158.27,-20.01 165.81,-27.45 168.81,-21.12"/>
</g>
<!-- Node25&#45;&gt;Node13 -->
<g id="edge34" class="edge">
<title>Node25&#45;&gt;Node13</title>
<path fill="none" stroke="#63b8ff" d="M296.67,-61.78C517.67,-53.61 1459.2,-18.82 1650.27,-11.75"/>
<polygon fill="#63b8ff" stroke="#63b8ff" points="1650.38,-15.25 1660.25,-11.38 1650.12,-8.26 1650.38,-15.25"/>
</g>
<!-- Node25&#45;&gt;Node22 -->
<g id="edge32" class="edge">
<title>Node25&#45;&gt;Node22</title>
<path fill="none" stroke="#63b8ff" d="M244.9,-54.75C240.71,-47.81 234.7,-37.86 229.45,-29.16"/>
<polygon fill="#63b8ff" stroke="#63b8ff" points="232.53,-27.49 224.36,-20.74 226.54,-31.11 232.53,-27.49"/>
</g>
<!-- Node25&#45;&gt;Node23 -->
<g id="edge33" class="edge">
<title>Node25&#45;&gt;Node23</title>
<path fill="none" stroke="#63b8ff" d="M269.18,-54.51C286.75,-46.2 313.1,-33.73 333.27,-24.18"/>
<polygon fill="#63b8ff" stroke="#63b8ff" points="334.55,-27.45 342.1,-20.01 331.56,-21.12 334.55,-27.45"/>
</g>
<!-- Node25&#45;&gt;Node24 -->
<g id="edge35" class="edge">
<title>Node25&#45;&gt;Node24</title>
<path fill="none" stroke="#63b8ff" d="M258.11,-54.75C264.74,-47.43 274.4,-36.76 282.57,-27.74"/>
<polygon fill="#63b8ff" stroke="#63b8ff" points="284.95,-30.33 289.07,-20.56 279.76,-25.63 284.95,-30.33"/>
</g>
<!-- Node26&#45;&gt;Node2 -->
<g id="edge37" class="edge">
<title>Node26&#45;&gt;Node2</title>
<path fill="none" stroke="#63b8ff" d="M1363.92,-183.91C1363.68,-183.94 1363.43,-183.97 1363.18,-184 1240.7,-198.21 1096.81,-214.21 1017.66,-222.61"/>
<polygon fill="#63b8ff" stroke="#63b8ff" points="1017.55,-219.1 1007.97,-223.64 1018.28,-226.06 1017.55,-219.1"/>
</g>
<!-- Node26&#45;&gt;Node20 -->
<g id="edge38" class="edge">
<title>Node26&#45;&gt;Node20</title>
<path fill="none" stroke="#63b8ff" d="M1364.02,-165.89C1360.7,-165.56 1357.4,-165.26 1354.18,-165 1020.2,-137.56 621.47,-126.13 448.88,-122.22"/>
<polygon fill="#63b8ff" stroke="#63b8ff" points="449.18,-118.73 439.11,-122 449.03,-125.73 449.18,-118.73"/>
</g>
<!-- Node27 -->
<g id="node27" class="node">
<title>Node27</title>
<g id="a_node27"><a xlink:title=" ">
<polygon fill="#e0e0e0" stroke="#999999" points="1448.18,-129 1402.18,-129 1402.18,-110 1448.18,-110 1448.18,-129"/>
<text text-anchor="middle" x="1425.18" y="-117" font-family="Helvetica,sans-Serif" font-size="10.00">math.h</text>
</a>
</g>
</g>
<!-- Node26&#45;&gt;Node27 -->
<g id="edge39" class="edge">
<title>Node26&#45;&gt;Node27</title>
<path fill="none" stroke="#63b8ff" d="M1425.18,-164.75C1425.18,-158.27 1425.18,-149.16 1425.18,-140.9"/>
<polygon fill="#63b8ff" stroke="#63b8ff" points="1428.68,-140.96 1425.18,-130.96 1421.68,-140.96 1428.68,-140.96"/>
</g>
<!-- Node28&#45;&gt;Node2 -->
<g id="edge41" class="edge">
<title>Node28&#45;&gt;Node2</title>
<path fill="none" stroke="#63b8ff" d="M483.37,-182.19C489.42,-182.81 495.41,-183.42 501.18,-184 643.97,-198.31 811.48,-214.05 898.72,-222.44"/>
<polygon fill="#63b8ff" stroke="#63b8ff" points="898.19,-225.9 908.47,-223.38 898.86,-218.94 898.19,-225.9"/>
</g>
</g>
</svg>
        <g id="navigator" transform="translate(0 0)" fill="#404254">
                <rect fill="#f2f5e9" fill-opacity="0.5" stroke="#606060" stroke-width=".5" x="0" y="0" width="60" height="60"/>
                <use id="zoomplus" xlink:href="#zoomPlus" x="17" y="9" onmousedown="handleZoom(evt,'in')"/>
                <use id="zoomminus" xlink:href="#zoomMin" x="42" y="9" onmousedown="handleZoom(evt,'out')"/>
                <use id="reset" xlink:href="#resetDef" x="30" y="36" onmousedown="handleReset()"/>
                <g id="arrowUp" xlink:href="#dirArrow" transform="translate(30 24)" onmousedown="handlePan(0,-1)">
                  <use xlink:href="#rim" fill="#404040">
                        <set attributeName="fill" to="#808080" begin="arrowUp.mouseover" end="arrowUp.mouseout"/>
                  </use>
                  <path fill="none" stroke="white" stroke-width="1.5" d="M0,-3.0v7 M-2.5,-0.5L0,-3.0L2.5,-0.5"/>
                </g>
                <g id="arrowRight" xlink:href="#dirArrow" transform="rotate(90) translate(36 -43)" onmousedown="handlePan(1,0)">
                  <use xlink:href="#rim" fill="#404040">
                        <set attributeName="fill" to="#808080" begin="arrowRight.mouseover" end="arrowRight.mouseout"/>
                  </use>
                  <path fill="none" stroke="white" stroke-width="1.5" d="M0,-3.0v7 M-2.5,-0.5L0,-3.0L2.5,-0.5"/>
                </g>
                <g id="arrowDown" xlink:href="#dirArrow" transform="rotate(180) translate(-30 -48)" onmousedown="handlePan(0,1)">
                  <use xlink:href="#rim" fill="#404040">
                        <set attributeName="fill" to="#808080" begin="arrowDown.mouseover" end="arrowDown.mouseout"/>
                  </use>
                  <path fill="none" stroke="white" stroke-width="1.5" d="M0,-3.0v7 M-2.5,-0.5L0,-3.0L2.5,-0.5"/>
                </g>
                <g id="arrowLeft" xlink:href="#dirArrow" transform="rotate(270) translate(-36 17)" onmousedown="handlePan(-1,0)">
                  <use xlink:href="#rim" fill="#404040">
                        <set attributeName="fill" to="#808080" begin="arrowLeft.mouseover" end="arrowLeft.mouseout"/>
                  </use>
                  <path fill="none" stroke="white" stroke-width="1.5" d="M0,-3.0v7 M-2.5,-0.5L0,-3.0L2.5,-0.5"/>
                </g>
        </g>
        <svg viewBox="0 0 15 15" width="100%" height="30px" preserveAspectRatio="xMaxYMin meet">
         <g id="arrow_out" transform="scale(0.3 0.3)">
          <a xlink:href="oold__EntitiesManager_8hpp__incl_org.svg" target="_base">
           <rect id="button" ry="5" rx="5" y="6" x="6" height="38" width="38"
                fill="#f2f5e9" fill-opacity="0.5" stroke="#606060" stroke-width="1.0"/>
           <path id="arrow"
             d="M 11.500037,31.436501 C 11.940474,20.09759 22.043105,11.32322 32.158766,21.979434 L 37.068811,17.246167 C 37.068811,17.246167 37.088388,32 37.088388,32 L 22.160133,31.978069 C 22.160133,31.978069 26.997745,27.140456 26.997745,27.140456 C 18.528582,18.264221 13.291696,25.230495 11.500037,31.436501 z"
             style="fill:#404040;"/>
          </a>
         </g>
        </svg>
</svg>
