<?xml version="1.0" encoding="UTF-8" standalone="no"?>
<!DOCTYPE svg PUBLIC "-//W3C//DTD SVG 1.1//EN"
 "http://www.w3.org/Graphics/SVG/1.1/DTD/svg11.dtd">
<!-- Generated by graphviz version 7.0.5 (20221223.1930)
 -->
<!-- Title: /github/workspace/client/include/Entities/oold_EntitiesManager.hpp Pages: 1 -->
<svg width="1973pt" height="324pt"
 viewBox="0.00 0.00 1973.00 324.00" xmlns="http://www.w3.org/2000/svg" xmlns:xlink="http://www.w3.org/1999/xlink">
<g id="graph0" class="graph" transform="scale(1 1) rotate(0) translate(4 320)">
<title>/github/workspace/client/include/Entities/oold_EntitiesManager.hpp</title>
<!-- Node1 -->
<g id="node1" class="node">
<title>Node1</title>
<g id="a_node1"><a xlink:title=" ">
<polygon fill="#999999" stroke="#666666" points="1476,-316 1354,-316 1354,-275 1476,-275 1476,-316"/>
<text text-anchor="start" x="1362" y="-304" font-family="Helvetica,sans-Serif" font-size="10.00">/github/workspace/client</text>
<text text-anchor="start" x="1362" y="-293" font-family="Helvetica,sans-Serif" font-size="10.00">/include/Entities/oold</text>
<text text-anchor="middle" x="1415" y="-282" font-family="Helvetica,sans-Serif" font-size="10.00">_EntitiesManager.hpp</text>
</a>
</g>
</g>
<!-- Node2 -->
<g id="node2" class="node">
<title>Node2</title>
<g id="a_node2"><a xlink:href="Engine_8hpp.html" target="_top" xlink:title=" ">
<polygon fill="white" stroke="#666666" points="927,-239 823,-239 823,-220 927,-220 927,-239"/>
<text text-anchor="middle" x="875" y="-227" font-family="Helvetica,sans-Serif" font-size="10.00">../Engine/Engine.hpp</text>
</a>
</g>
</g>
<!-- Node1&#45;&gt;Node2 -->
<g id="edge1" class="edge">
<title>Node1&#45;&gt;Node2</title>
<path fill="none" stroke="#63b8ff" d="M1353.58,-287.22C1250.33,-274.98 1043.04,-250.42 938.45,-238.02"/>
<polygon fill="#63b8ff" stroke="#63b8ff" points="938.98,-234.56 928.63,-236.86 938.15,-241.51 938.98,-234.56"/>
</g>
<!-- Node13 -->
<g id="node13" class="node">
<title>Node13</title>
<g id="a_node13"><a xlink:title=" ">
<polygon fill="#e0e0e0" stroke="#999999" points="847,-19 803,-19 803,0 847,0 847,-19"/>
<text text-anchor="middle" x="825" y="-7" font-family="Helvetica,sans-Serif" font-size="10.00">vector</text>
</a>
</g>
</g>
<!-- Node1&#45;&gt;Node13 -->
<g id="edge47" class="edge">
<title>Node1&#45;&gt;Node13</title>
<path fill="none" stroke="#63b8ff" d="M1353.75,-292.61C1082.15,-283.82 0,-244.49 0,-175.5 0,-175.5 0,-175.5 0,-118.5 0,-37.29 636.68,-15.42 791.41,-11.3"/>
<polygon fill="#63b8ff" stroke="#63b8ff" points="791.09,-14.81 800.99,-11.05 790.91,-7.81 791.09,-14.81"/>
</g>
<!-- Node23 -->
<g id="node23" class="node">
<title>Node23</title>
<g id="a_node23"><a xlink:href="IComponents_8hpp.html" target="_top" xlink:title=" ">
<polygon fill="white" stroke="#666666" points="1636,-129 1478,-129 1478,-110 1636,-110 1636,-129"/>
<text text-anchor="middle" x="1557" y="-117" font-family="Helvetica,sans-Serif" font-size="10.00">../Components/IComponents.hpp</text>
</a>
</g>
</g>
<!-- Node1&#45;&gt;Node23 -->
<g id="edge45" class="edge">
<title>Node1&#45;&gt;Node23</title>
<path fill="none" stroke="#63b8ff" d="M1476.17,-288.83C1588.74,-276.99 1821.64,-245.51 1870,-184 1875.22,-177.36 1875.53,-171.38 1870,-165 1855.48,-148.27 1734.82,-134.95 1647.65,-127.38"/>
<polygon fill="#63b8ff" stroke="#63b8ff" points="1648.16,-123.91 1637.9,-126.55 1647.57,-130.89 1648.16,-123.91"/>
</g>
<!-- Node26 -->
<g id="node26" class="node">
<title>Node26</title>
<g id="a_node26"><a xlink:title=" ">
<polygon fill="#e0e0e0" stroke="#999999" points="1921,-19 1883,-19 1883,0 1921,0 1921,-19"/>
<text text-anchor="middle" x="1902" y="-7" font-family="Helvetica,sans-Serif" font-size="10.00">array</text>
</a>
</g>
</g>
<!-- Node1&#45;&gt;Node26 -->
<g id="edge46" class="edge">
<title>Node1&#45;&gt;Node26</title>
<path fill="none" stroke="#63b8ff" d="M1476.49,-294.05C1620.01,-291.34 1965,-274.54 1965,-175.5 1965,-175.5 1965,-175.5 1965,-118.5 1965,-82.17 1938.07,-47.18 1919.43,-27.31"/>
<polygon fill="#63b8ff" stroke="#63b8ff" points="1922.13,-25.06 1912.63,-20.37 1917.13,-29.96 1922.13,-25.06"/>
</g>
<!-- Node3 -->
<g id="node3" class="node">
<title>Node3</title>
<g id="a_node3"><a xlink:title=" ">
<polygon fill="#e0e0e0" stroke="#999999" points="987.5,-184 898.5,-184 898.5,-165 987.5,-165 987.5,-184"/>
<text text-anchor="middle" x="943" y="-172" font-family="Helvetica,sans-Serif" font-size="10.00">SFML/Audio.hpp</text>
</a>
</g>
</g>
<!-- Node2&#45;&gt;Node3 -->
<g id="edge2" class="edge">
<title>Node2&#45;&gt;Node3</title>
<path fill="none" stroke="#63b8ff" d="M886.54,-219.51C896.46,-211.77 911.01,-200.43 922.86,-191.2"/>
<polygon fill="#63b8ff" stroke="#63b8ff" points="924.71,-194.2 930.44,-185.29 920.4,-188.68 924.71,-194.2"/>
</g>
<!-- Node4 -->
<g id="node4" class="node">
<title>Node4</title>
<g id="a_node4"><a xlink:title=" ">
<polygon fill="#e0e0e0" stroke="#999999" points="1110,-184 1006,-184 1006,-165 1110,-165 1110,-184"/>
<text text-anchor="middle" x="1058" y="-172" font-family="Helvetica,sans-Serif" font-size="10.00">SFML/Graphics.hpp</text>
</a>
</g>
</g>
<!-- Node2&#45;&gt;Node4 -->
<g id="edge3" class="edge">
<title>Node2&#45;&gt;Node4</title>
<path fill="none" stroke="#63b8ff" d="M906.04,-219.51C936.37,-210.73 982.73,-197.3 1016.27,-187.59"/>
<polygon fill="#63b8ff" stroke="#63b8ff" points="1017.02,-191.01 1025.66,-184.87 1015.08,-184.29 1017.02,-191.01"/>
</g>
<!-- Node5 -->
<g id="node5" class="node">
<title>Node5</title>
<g id="a_node5"><a xlink:title=" ">
<polygon fill="#e0e0e0" stroke="#999999" points="1229.5,-184 1128.5,-184 1128.5,-165 1229.5,-165 1229.5,-184"/>
<text text-anchor="middle" x="1179" y="-172" font-family="Helvetica,sans-Serif" font-size="10.00">SFML/Network.hpp</text>
</a>
</g>
</g>
<!-- Node2&#45;&gt;Node5 -->
<g id="edge4" class="edge">
<title>Node2&#45;&gt;Node5</title>
<path fill="none" stroke="#63b8ff" d="M926.57,-219.51C979.19,-210.34 1060.86,-196.1 1116.98,-186.31"/>
<polygon fill="#63b8ff" stroke="#63b8ff" points="1117.45,-189.78 1126.7,-184.62 1116.25,-182.89 1117.45,-189.78"/>
</g>
<!-- Node6 -->
<g id="node6" class="node">
<title>Node6</title>
<g id="a_node6"><a xlink:title=" ">
<polygon fill="#e0e0e0" stroke="#999999" points="1346.5,-184 1247.5,-184 1247.5,-165 1346.5,-165 1346.5,-184"/>
<text text-anchor="middle" x="1297" y="-172" font-family="Helvetica,sans-Serif" font-size="10.00">SFML/Window.hpp</text>
</a>
</g>
</g>
<!-- Node2&#45;&gt;Node6 -->
<g id="edge5" class="edge">
<title>Node2&#45;&gt;Node6</title>
<path fill="none" stroke="#63b8ff" d="M927.49,-222.48C996.07,-214.53 1120.2,-199.84 1235.86,-184.4"/>
<polygon fill="#63b8ff" stroke="#63b8ff" points="1236.08,-187.9 1245.52,-183.1 1235.15,-180.96 1236.08,-187.9"/>
</g>
<!-- Node7 -->
<g id="node7" class="node">
<title>Node7</title>
<g id="a_node7"><a xlink:title=" ">
<polygon fill="#e0e0e0" stroke="#999999" points="1463,-184 1365,-184 1365,-165 1463,-165 1463,-184"/>
<text text-anchor="middle" x="1414" y="-172" font-family="Helvetica,sans-Serif" font-size="10.00">SFML/System.hpp</text>
</a>
</g>
</g>
<!-- Node2&#45;&gt;Node7 -->
<g id="edge6" class="edge">
<title>Node2&#45;&gt;Node7</title>
<path fill="none" stroke="#63b8ff" d="M927.41,-224.57C1013.91,-217.88 1192.25,-203.25 1353.57,-184.23"/>
<polygon fill="#63b8ff" stroke="#63b8ff" points="1353.64,-187.75 1363.16,-183.09 1352.82,-180.8 1353.64,-187.75"/>
</g>
<!-- Node8 -->
<g id="node8" class="node">
<title>Node8</title>
<g id="a_node8"><a xlink:title=" ">
<polygon fill="#e0e0e0" stroke="#999999" points="1865,-19 1811,-19 1811,0 1865,0 1865,-19"/>
<text text-anchor="middle" x="1838" y="-7" font-family="Helvetica,sans-Serif" font-size="10.00">iostream</text>
</a>
</g>
</g>
<!-- Node2&#45;&gt;Node8 -->
<g id="edge7" class="edge">
<title>Node2&#45;&gt;Node8</title>
<path fill="none" stroke="#63b8ff" d="M927.23,-228.14C1127.54,-226.51 1837.17,-218.33 1870,-184 1911.05,-141.07 1871.54,-63.61 1849.97,-28.58"/>
<polygon fill="#63b8ff" stroke="#63b8ff" points="1853.1,-26.98 1844.77,-20.43 1847.2,-30.74 1853.1,-26.98"/>
</g>
<!-- Node9 -->
<g id="node9" class="node">
<title>Node9</title>
<g id="a_node9"><a xlink:title=" ">
<polygon fill="#e0e0e0" stroke="#999999" points="1569,-184 1519,-184 1519,-165 1569,-165 1569,-184"/>
<text text-anchor="middle" x="1544" y="-172" font-family="Helvetica,sans-Serif" font-size="10.00">fstream</text>
</a>
</g>
</g>
<!-- Node2&#45;&gt;Node9 -->
<g id="edge8" class="edge">
<title>Node2&#45;&gt;Node9</title>
<path fill="none" stroke="#63b8ff" d="M927.13,-227.36C1035.33,-224.42 1292,-214.57 1505,-184 1505.82,-183.88 1506.65,-183.76 1507.49,-183.62"/>
<polygon fill="#63b8ff" stroke="#63b8ff" points="1507.81,-187.12 1517.01,-181.88 1506.55,-180.24 1507.81,-187.12"/>
</g>
<!-- Node10 -->
<g id="node10" class="node">
<title>Node10</title>
<g id="a_node10"><a xlink:title=" ">
<polygon fill="#e0e0e0" stroke="#999999" points="1635,-184 1587,-184 1587,-165 1635,-165 1635,-184"/>
<text text-anchor="middle" x="1611" y="-172" font-family="Helvetica,sans-Serif" font-size="10.00">string.h</text>
</a>
</g>
</g>
<!-- Node2&#45;&gt;Node10 -->
<g id="edge9" class="edge">
<title>Node2&#45;&gt;Node10</title>
<path fill="none" stroke="#63b8ff" d="M927.4,-228.55C1042.93,-227.94 1328.24,-222.47 1575.24,-184.12"/>
<polygon fill="#63b8ff" stroke="#63b8ff" points="1575.77,-187.58 1585.1,-182.57 1574.68,-180.67 1575.77,-187.58"/>
</g>
<!-- Node11 -->
<g id="node11" class="node">
<title>Node11</title>
<g id="a_node11"><a xlink:title=" ">
<polygon fill="#e0e0e0" stroke="#999999" points="1703,-184 1653,-184 1653,-165 1703,-165 1703,-184"/>
<text text-anchor="middle" x="1678" y="-172" font-family="Helvetica,sans-Serif" font-size="10.00">unistd.h</text>
</a>
</g>
</g>
<!-- Node2&#45;&gt;Node11 -->
<g id="edge10" class="edge">
<title>Node2&#45;&gt;Node11</title>
<path fill="none" stroke="#63b8ff" d="M927.1,-228.83C1050.04,-228.9 1367.78,-224.9 1641.5,-184.06"/>
<polygon fill="#63b8ff" stroke="#63b8ff" points="1642,-187.53 1651.36,-182.57 1640.95,-180.61 1642,-187.53"/>
</g>
<!-- Node12 -->
<g id="node12" class="node">
<title>Node12</title>
<g id="a_node12"><a xlink:title=" ">
<polygon fill="#e0e0e0" stroke="#999999" points="131.5,-184 66.5,-184 66.5,-165 131.5,-165 131.5,-184"/>
<text text-anchor="middle" x="99" y="-172" font-family="Helvetica,sans-Serif" font-size="10.00">sys/types.h</text>
</a>
</g>
</g>
<!-- Node2&#45;&gt;Node12 -->
<g id="edge11" class="edge">
<title>Node2&#45;&gt;Node12</title>
<path fill="none" stroke="#63b8ff" d="M822.7,-227.82C703.76,-225.75 403.78,-217.49 143.15,-184.07"/>
<polygon fill="#63b8ff" stroke="#63b8ff" points="143.81,-180.63 133.44,-182.81 142.91,-187.57 143.81,-180.63"/>
</g>
<!-- Node2&#45;&gt;Node13 -->
<g id="edge12" class="edge">
<title>Node2&#45;&gt;Node13</title>
<path fill="none" stroke="#63b8ff" d="M822.65,-227.61C646.29,-224.36 83.37,-211.85 57,-184 -49.26,-71.8 631.21,-22.46 791.65,-12.46"/>
<polygon fill="#63b8ff" stroke="#63b8ff" points="791.42,-15.98 801.19,-11.87 790.99,-8.99 791.42,-15.98"/>
</g>
<!-- Node14 -->
<g id="node14" class="node">
<title>Node14</title>
<g id="a_node14"><a xlink:title=" ">
<polygon fill="#e0e0e0" stroke="#999999" points="206,-184 150,-184 150,-165 206,-165 206,-184"/>
<text text-anchor="middle" x="178" y="-172" font-family="Helvetica,sans-Serif" font-size="10.00">stdbool.h</text>
</a>
</g>
</g>
<!-- Node2&#45;&gt;Node14 -->
<g id="edge13" class="edge">
<title>Node2&#45;&gt;Node14</title>
<path fill="none" stroke="#63b8ff" d="M822.51,-227.78C712.18,-225.66 448.08,-217.4 217.5,-184.12"/>
<polygon fill="#63b8ff" stroke="#63b8ff" points="218.09,-180.67 207.69,-182.68 217.08,-187.59 218.09,-180.67"/>
</g>
<!-- Node15 -->
<g id="node15" class="node">
<title>Node15</title>
<g id="a_node15"><a xlink:title=" ">
<polygon fill="#e0e0e0" stroke="#999999" points="271.5,-184 224.5,-184 224.5,-165 271.5,-165 271.5,-184"/>
<text text-anchor="middle" x="248" y="-172" font-family="Helvetica,sans-Serif" font-size="10.00">stdlib.h</text>
</a>
</g>
</g>
<!-- Node2&#45;&gt;Node15 -->
<g id="edge14" class="edge">
<title>Node2&#45;&gt;Node15</title>
<path fill="none" stroke="#63b8ff" d="M822.59,-227.69C720.5,-225.43 487.81,-217 282.96,-183.98"/>
<polygon fill="#63b8ff" stroke="#63b8ff" points="283.61,-180.54 273.18,-182.38 282.48,-187.45 283.61,-180.54"/>
</g>
<!-- Node16 -->
<g id="node16" class="node">
<title>Node16</title>
<g id="a_node16"><a xlink:title=" ">
<polygon fill="#e0e0e0" stroke="#999999" points="348,-184 290,-184 290,-165 348,-165 348,-184"/>
<text text-anchor="middle" x="319" y="-172" font-family="Helvetica,sans-Serif" font-size="10.00">exception</text>
</a>
</g>
</g>
<!-- Node2&#45;&gt;Node16 -->
<g id="edge15" class="edge">
<title>Node2&#45;&gt;Node16</title>
<path fill="none" stroke="#63b8ff" d="M822.52,-226.32C730.63,-222.01 534.51,-210.54 359.61,-184.2"/>
<polygon fill="#63b8ff" stroke="#63b8ff" points="360.29,-180.76 349.88,-182.71 359.24,-187.68 360.29,-180.76"/>
</g>
<!-- Node17 -->
<g id="node17" class="node">
<title>Node17</title>
<g id="a_node17"><a xlink:href="Window_8hpp.html" target="_top" xlink:title=" ">
<polygon fill="white" stroke="#666666" points="467.5,-184 366.5,-184 366.5,-165 467.5,-165 467.5,-184"/>
<text text-anchor="middle" x="417" y="-172" font-family="Helvetica,sans-Serif" font-size="10.00">Engine/Window.hpp</text>
</a>
</g>
</g>
<!-- Node2&#45;&gt;Node17 -->
<g id="edge16" class="edge">
<title>Node2&#45;&gt;Node17</title>
<path fill="none" stroke="#63b8ff" d="M822.72,-223.74C747.35,-216.27 603.93,-201.04 479.58,-185.46"/>
<polygon fill="#63b8ff" stroke="#63b8ff" points="480.23,-182.01 469.87,-184.24 479.36,-188.96 480.23,-182.01"/>
</g>
<!-- Node18 -->
<g id="node18" class="node">
<title>Node18</title>
<g id="a_node18"><a xlink:href="Event_8hpp.html" target="_top" xlink:title=" ">
<polygon fill="white" stroke="#666666" points="578,-184 486,-184 486,-165 578,-165 578,-184"/>
<text text-anchor="middle" x="532" y="-172" font-family="Helvetica,sans-Serif" font-size="10.00">Engine/Event.hpp</text>
</a>
</g>
</g>
<!-- Node2&#45;&gt;Node18 -->
<g id="edge18" class="edge">
<title>Node2&#45;&gt;Node18</title>
<path fill="none" stroke="#63b8ff" d="M822.84,-221.19C759.97,-211.84 654.84,-195.62 589.63,-185.23"/>
<polygon fill="#63b8ff" stroke="#63b8ff" points="590.26,-181.79 579.83,-183.67 589.15,-188.7 590.26,-181.79"/>
</g>
<!-- Node22 -->
<g id="node22" class="node">
<title>Node22</title>
<g id="a_node22"><a xlink:href="EntitiesManager_8hpp.html" target="_top" xlink:title=" ">
<polygon fill="white" stroke="#666666" points="1861,-184 1721,-184 1721,-165 1861,-165 1861,-184"/>
<text text-anchor="middle" x="1791" y="-172" font-family="Helvetica,sans-Serif" font-size="10.00">Entities/EntitiesManager.hpp</text>
</a>
</g>
</g>
<!-- Node2&#45;&gt;Node22 -->
<g id="edge23" class="edge">
<title>Node2&#45;&gt;Node22</title>
<path fill="none" stroke="#63b8ff" d="M927.33,-226.54C1058.26,-221.64 1410,-207.53 1703,-184 1705.17,-183.83 1707.36,-183.64 1709.58,-183.45"/>
<polygon fill="#63b8ff" stroke="#63b8ff" points="1709.68,-186.95 1719.32,-182.55 1709.04,-179.98 1709.68,-186.95"/>
</g>
<!-- Node29 -->
<g id="node29" class="node">
<title>Node29</title>
<g id="a_node29"><a xlink:href="Bullets_8hpp.html" target="_top" xlink:title=" ">
<polygon fill="white" stroke="#666666" points="718,-184 596,-184 596,-165 718,-165 718,-184"/>
<text text-anchor="middle" x="657" y="-172" font-family="Helvetica,sans-Serif" font-size="10.00">Components/Bullets.hpp</text>
</a>
</g>
</g>
<!-- Node2&#45;&gt;Node29 -->
<g id="edge39" class="edge">
<title>Node2&#45;&gt;Node29</title>
<path fill="none" stroke="#63b8ff" d="M832.8,-219.51C794.34,-210.61 737.98,-196.95 699.44,-187.21"/>
<polygon fill="#63b8ff" stroke="#63b8ff" points="700.61,-183.89 690.06,-184.82 698.89,-190.68 700.61,-183.89"/>
</g>
<!-- Node31 -->
<g id="node31" class="node">
<title>Node31</title>
<g id="a_node31"><a xlink:href="Background_8hpp.html" target="_top" xlink:title=" ">
<polygon fill="white" stroke="#666666" points="880,-184 736,-184 736,-165 880,-165 880,-184"/>
<text text-anchor="middle" x="808" y="-172" font-family="Helvetica,sans-Serif" font-size="10.00">Components/Background.hpp</text>
</a>
</g>
</g>
<!-- Node2&#45;&gt;Node31 -->
<g id="edge43" class="edge">
<title>Node2&#45;&gt;Node31</title>
<path fill="none" stroke="#63b8ff" d="M858.42,-219.51C847.36,-212 833.21,-201.1 822.59,-192.03"/>
<polygon fill="#63b8ff" stroke="#63b8ff" points="824.92,-189.42 815.14,-185.37 820.26,-194.64 824.92,-189.42"/>
</g>
<!-- Node17&#45;&gt;Node2 -->
<g id="edge17" class="edge">
<title>Node17&#45;&gt;Node2</title>
<path fill="none" stroke="#63b8ff" d="M467.85,-181.6C474,-182.44 480.16,-183.26 486,-184 600.65,-198.53 734.2,-212.95 811.32,-221.28"/>
<polygon fill="#63b8ff" stroke="#63b8ff" points="810.91,-224.76 821.23,-222.35 811.67,-217.8 810.91,-224.76"/>
</g>
<!-- Node18&#45;&gt;Node2 -->
<g id="edge19" class="edge">
<title>Node18&#45;&gt;Node2</title>
<path fill="none" stroke="#63b8ff" d="M578.25,-181.94C638.46,-190.85 743.76,-207.07 811.43,-217.82"/>
<polygon fill="#63b8ff" stroke="#63b8ff" points="810.86,-221.27 821.29,-219.39 811.96,-214.36 810.86,-221.27"/>
</g>
<!-- Node19 -->
<g id="node19" class="node">
<title>Node19</title>
<g id="a_node19"><a xlink:title=" ">
<polygon fill="#e0e0e0" stroke="#999999" points="546.5,-129 517.5,-129 517.5,-110 546.5,-110 546.5,-129"/>
<text text-anchor="middle" x="532" y="-117" font-family="Helvetica,sans-Serif" font-size="10.00">list</text>
</a>
</g>
</g>
<!-- Node18&#45;&gt;Node19 -->
<g id="edge20" class="edge">
<title>Node18&#45;&gt;Node19</title>
<path fill="none" stroke="#63b8ff" d="M532,-164.75C532,-158.27 532,-149.16 532,-140.9"/>
<polygon fill="#63b8ff" stroke="#63b8ff" points="535.5,-140.96 532,-130.96 528.5,-140.96 535.5,-140.96"/>
</g>
<!-- Node20 -->
<g id="node20" class="node">
<title>Node20</title>
<g id="a_node20"><a xlink:title=" ">
<polygon fill="#e0e0e0" stroke="#999999" points="607.5,-129 564.5,-129 564.5,-110 607.5,-110 607.5,-129"/>
<text text-anchor="middle" x="586" y="-117" font-family="Helvetica,sans-Serif" font-size="10.00">queue</text>
</a>
</g>
</g>
<!-- Node18&#45;&gt;Node20 -->
<g id="edge21" class="edge">
<title>Node18&#45;&gt;Node20</title>
<path fill="none" stroke="#63b8ff" d="M540.92,-164.75C548.45,-157.35 559.47,-146.54 568.73,-137.45"/>
<polygon fill="#63b8ff" stroke="#63b8ff" points="571.12,-140 575.81,-130.5 566.22,-135.01 571.12,-140"/>
</g>
<!-- Node21 -->
<g id="node21" class="node">
<title>Node21</title>
<g id="a_node21"><a xlink:title=" ">
<polygon fill="#e0e0e0" stroke="#999999" points="499,-129 437,-129 437,-110 499,-110 499,-129"/>
<text text-anchor="middle" x="468" y="-117" font-family="Helvetica,sans-Serif" font-size="10.00">Skaldi.hpp</text>
</a>
</g>
</g>
<!-- Node18&#45;&gt;Node21 -->
<g id="edge22" class="edge">
<title>Node18&#45;&gt;Node21</title>
<path fill="none" stroke="#63b8ff" d="M521.14,-164.51C511.89,-156.85 498.38,-145.66 487.29,-136.47"/>
<polygon fill="#63b8ff" stroke="#63b8ff" points="489.8,-134.01 479.86,-130.32 485.33,-139.4 489.8,-134.01"/>
</g>
<!-- Node22&#45;&gt;Node2 -->
<g id="edge24" class="edge">
<title>Node22&#45;&gt;Node2</title>
<path fill="none" stroke="#63b8ff" d="M1720.56,-184.04C1429.31,-207.42 1080.17,-221.48 938.88,-226.45"/>
<polygon fill="#63b8ff" stroke="#63b8ff" points="938.84,-222.95 928.97,-226.8 939.09,-229.95 938.84,-222.95"/>
</g>
<!-- Node22&#45;&gt;Node23 -->
<g id="edge25" class="edge">
<title>Node22&#45;&gt;Node23</title>
<path fill="none" stroke="#63b8ff" d="M1751.31,-164.51C1711.69,-155.54 1650.66,-141.71 1607.59,-131.96"/>
<polygon fill="#63b8ff" stroke="#63b8ff" points="1608.5,-128.58 1597.97,-129.78 1606.95,-135.4 1608.5,-128.58"/>
</g>
<!-- Node24 -->
<g id="node24" class="node">
<title>Node24</title>
<g id="a_node24"><a xlink:href="SparseArray_8hpp.html" target="_top" xlink:title=" ">
<polygon fill="white" stroke="#666666" points="1832.5,-129 1721.5,-129 1721.5,-110 1832.5,-110 1832.5,-129"/>
<text text-anchor="middle" x="1777" y="-117" font-family="Helvetica,sans-Serif" font-size="10.00">Utils/SparseArray.hpp</text>
</a>
</g>
</g>
<!-- Node22&#45;&gt;Node24 -->
<g id="edge27" class="edge">
<title>Node22&#45;&gt;Node24</title>
<path fill="none" stroke="#63b8ff" d="M1788.69,-164.75C1786.94,-158.11 1784.46,-148.73 1782.23,-140.31"/>
<polygon fill="#63b8ff" stroke="#63b8ff" points="1785.69,-139.68 1779.75,-130.91 1778.92,-141.47 1785.69,-139.68"/>
</g>
<!-- Node23&#45;&gt;Node2 -->
<g id="edge26" class="edge">
<title>Node23&#45;&gt;Node2</title>
<path fill="none" stroke="#63b8ff" d="M1548.61,-129.45C1534.42,-143.91 1504.09,-171.99 1472,-184 1375.64,-220.05 1071.27,-226.96 938.25,-228.23"/>
<polygon fill="#63b8ff" stroke="#63b8ff" points="938.55,-224.73 928.58,-228.32 938.61,-231.73 938.55,-224.73"/>
</g>
<!-- Node24&#45;&gt;Node8 -->
<g id="edge28" class="edge">
<title>Node24&#45;&gt;Node8</title>
<path fill="none" stroke="#63b8ff" d="M1794.31,-109.51C1807.05,-101.89 1823.58,-89.69 1832,-74 1839.14,-60.69 1840.37,-43.53 1839.97,-30.41"/>
<polygon fill="#63b8ff" stroke="#63b8ff" points="1843.49,-30.57 1839.32,-20.83 1836.51,-31.05 1843.49,-30.57"/>
</g>
<!-- Node24&#45;&gt;Node13 -->
<g id="edge31" class="edge">
<title>Node24&#45;&gt;Node13</title>
<path fill="none" stroke="#63b8ff" d="M1721,-112.15C1544.02,-92.07 1000.05,-30.36 858.8,-14.33"/>
<polygon fill="#63b8ff" stroke="#63b8ff" points="859.33,-10.87 849,-13.22 858.54,-17.83 859.33,-10.87"/>
</g>
<!-- Node25 -->
<g id="node25" class="node">
<title>Node25</title>
<g id="a_node25"><a xlink:title=" ">
<polygon fill="#e0e0e0" stroke="#999999" points="1700,-19 1644,-19 1644,0 1700,0 1700,-19"/>
<text text-anchor="middle" x="1672" y="-7" font-family="Helvetica,sans-Serif" font-size="10.00">algorithm</text>
</a>
</g>
</g>
<!-- Node24&#45;&gt;Node25 -->
<g id="edge29" class="edge">
<title>Node24&#45;&gt;Node25</title>
<path fill="none" stroke="#63b8ff" d="M1761.57,-109.58C1748.27,-101.42 1729.04,-88.43 1715,-74 1701.94,-60.58 1690.26,-42.74 1682.37,-29.39"/>
<polygon fill="#63b8ff" stroke="#63b8ff" points="1685.44,-27.7 1677.45,-20.74 1679.35,-31.16 1685.44,-27.7"/>
</g>
<!-- Node24&#45;&gt;Node26 -->
<g id="edge30" class="edge">
<title>Node24&#45;&gt;Node26</title>
<path fill="none" stroke="#63b8ff" d="M1794.94,-109.52C1810.2,-101.41 1832.24,-88.54 1849,-74 1864.56,-60.5 1879.32,-42.2 1889.3,-28.71"/>
<polygon fill="#63b8ff" stroke="#63b8ff" points="1892.04,-30.88 1895.04,-20.72 1886.36,-26.79 1892.04,-30.88"/>
</g>
<!-- Node27 -->
<g id="node27" class="node">
<title>Node27</title>
<g id="a_node27"><a xlink:title=" ">
<polygon fill="#e0e0e0" stroke="#999999" points="1778.5,-19 1739.5,-19 1739.5,0 1778.5,0 1778.5,-19"/>
<text text-anchor="middle" x="1759" y="-7" font-family="Helvetica,sans-Serif" font-size="10.00">utility</text>
</a>
</g>
</g>
<!-- Node24&#45;&gt;Node27 -->
<g id="edge32" class="edge">
<title>Node24&#45;&gt;Node27</title>
<path fill="none" stroke="#63b8ff" d="M1759,-109.57C1746.07,-102.05 1729.62,-89.96 1722,-74 1714.14,-57.53 1726.61,-39.65 1739.14,-27.07"/>
<polygon fill="#63b8ff" stroke="#63b8ff" points="1741.49,-29.67 1746.47,-20.32 1736.75,-24.52 1741.49,-29.67"/>
</g>
<!-- Node28 -->
<g id="node28" class="node">
<title>Node28</title>
<g id="a_node28"><a xlink:href="Vectors_8hpp.html" target="_top" xlink:title=" ">
<polygon fill="white" stroke="#666666" points="1823,-74 1731,-74 1731,-55 1823,-55 1823,-74"/>
<text text-anchor="middle" x="1777" y="-62" font-family="Helvetica,sans-Serif" font-size="10.00">Utils/Vectors.hpp</text>
</a>
</g>
</g>
<!-- Node24&#45;&gt;Node28 -->
<g id="edge33" class="edge">
<title>Node24&#45;&gt;Node28</title>
<path fill="none" stroke="#63b8ff" d="M1777,-109.75C1777,-103.27 1777,-94.16 1777,-85.9"/>
<polygon fill="#63b8ff" stroke="#63b8ff" points="1780.5,-85.96 1777,-75.96 1773.5,-85.96 1780.5,-85.96"/>
</g>
<!-- Node28&#45;&gt;Node8 -->
<g id="edge34" class="edge">
<title>Node28&#45;&gt;Node8</title>
<path fill="none" stroke="#63b8ff" d="M1787.35,-54.51C1796.08,-46.93 1808.79,-35.88 1819.3,-26.75"/>
<polygon fill="#63b8ff" stroke="#63b8ff" points="1821.41,-29.55 1826.66,-20.35 1816.82,-24.27 1821.41,-29.55"/>
</g>
<!-- Node28&#45;&gt;Node13 -->
<g id="edge37" class="edge">
<title>Node28&#45;&gt;Node13</title>
<path fill="none" stroke="#63b8ff" d="M1730.74,-60.89C1700.85,-59.2 1661.13,-56.96 1626,-55 1328.44,-38.36 968.69,-18.45 858.61,-12.36"/>
<polygon fill="#63b8ff" stroke="#63b8ff" points="858.99,-8.87 848.81,-11.82 858.6,-15.86 858.99,-8.87"/>
</g>
<!-- Node28&#45;&gt;Node25 -->
<g id="edge35" class="edge">
<title>Node28&#45;&gt;Node25</title>
<path fill="none" stroke="#63b8ff" d="M1759.19,-54.51C1742.87,-46.27 1718.47,-33.96 1699.63,-24.45"/>
<polygon fill="#63b8ff" stroke="#63b8ff" points="1701.4,-21.42 1690.9,-20.04 1698.25,-27.67 1701.4,-21.42"/>
</g>
<!-- Node28&#45;&gt;Node26 -->
<g id="edge36" class="edge">
<title>Node28&#45;&gt;Node26</title>
<path fill="none" stroke="#63b8ff" d="M1798.2,-54.51C1818.56,-45.88 1849.48,-32.77 1872.29,-23.1"/>
<polygon fill="#63b8ff" stroke="#63b8ff" points="1873.51,-26.38 1881.35,-19.25 1870.78,-19.94 1873.51,-26.38"/>
</g>
<!-- Node28&#45;&gt;Node27 -->
<g id="edge38" class="edge">
<title>Node28&#45;&gt;Node27</title>
<path fill="none" stroke="#63b8ff" d="M1774.03,-54.75C1771.77,-48.11 1768.59,-38.73 1765.73,-30.31"/>
<polygon fill="#63b8ff" stroke="#63b8ff" points="1769.05,-29.22 1762.52,-20.88 1762.43,-31.47 1769.05,-29.22"/>
</g>
<!-- Node29&#45;&gt;Node2 -->
<g id="edge40" class="edge">
<title>Node29&#45;&gt;Node2</title>
<path fill="none" stroke="#63b8ff" d="M699.01,-184.45C737.41,-193.33 793.77,-206.99 832.36,-216.74"/>
<polygon fill="#63b8ff" stroke="#63b8ff" points="831.22,-220.06 841.77,-219.14 832.94,-213.28 831.22,-220.06"/>
</g>
<!-- Node29&#45;&gt;Node23 -->
<g id="edge41" class="edge">
<title>Node29&#45;&gt;Node23</title>
<path fill="none" stroke="#63b8ff" d="M718.44,-165.8C721.33,-165.51 724.2,-165.25 727,-165 995.4,-141.54 1313.77,-128.63 1466.47,-123.36"/>
<polygon fill="#63b8ff" stroke="#63b8ff" points="1466.23,-126.87 1476.11,-123.03 1466,-119.87 1466.23,-126.87"/>
</g>
<!-- Node30 -->
<g id="node30" class="node">
<title>Node30</title>
<g id="a_node30"><a xlink:title=" ">
<polygon fill="#e0e0e0" stroke="#999999" points="680,-129 634,-129 634,-110 680,-110 680,-129"/>
<text text-anchor="middle" x="657" y="-117" font-family="Helvetica,sans-Serif" font-size="10.00">math.h</text>
</a>
</g>
</g>
<!-- Node29&#45;&gt;Node30 -->
<g id="edge42" class="edge">
<title>Node29&#45;&gt;Node30</title>
<path fill="none" stroke="#63b8ff" d="M657,-164.75C657,-158.27 657,-149.16 657,-140.9"/>
<polygon fill="#63b8ff" stroke="#63b8ff" points="660.5,-140.96 657,-130.96 653.5,-140.96 660.5,-140.96"/>
</g>
<!-- Node31&#45;&gt;Node2 -->
<g id="edge44" class="edge">
<title>Node31&#45;&gt;Node2</title>
<path fill="none" stroke="#63b8ff" d="M824.39,-184.36C835.52,-191.9 849.85,-202.94 860.55,-212.09"/>
<polygon fill="#63b8ff" stroke="#63b8ff" points="857.93,-214.45 867.72,-218.5 862.6,-209.23 857.93,-214.45"/>
</g>
</g>
</svg>
