<?xml version="1.0" encoding="UTF-8" standalone="no"?>
<!DOCTYPE svg PUBLIC "-//W3C//DTD SVG 1.1//EN"
 "http://www.w3.org/Graphics/SVG/1.1/DTD/svg11.dtd">
<!-- Generated by graphviz version 7.0.5 (20221223.1930)
 -->
<!-- Title: /github/workspace/client/include/Entities/Properties.hpp Pages: 1 -->
<svg width="378pt" height="170pt"
 viewBox="0.00 0.00 378.00 170.00" xmlns="http://www.w3.org/2000/svg" xmlns:xlink="http://www.w3.org/1999/xlink">
<g id="graph0" class="graph" transform="scale(1 1) rotate(0) translate(4 166)">
<title>/github/workspace/client/include/Entities/Properties.hpp</title>
<!-- Node1 -->
<g id="node1" class="node">
<title>Node1</title>
<g id="a_node1"><a xlink:title=" ">
<polygon fill="#999999" stroke="#666666" points="261.5,-162 110.5,-162 110.5,-132 261.5,-132 261.5,-162"/>
<text text-anchor="start" x="118.5" y="-150" font-family="Helvetica,sans-Serif" font-size="10.00">/github/workspace/client</text>
<text text-anchor="middle" x="186" y="-139" font-family="Helvetica,sans-Serif" font-size="10.00">/include/Entities/Properties.hpp</text>
</a>
</g>
</g>
<!-- Node2 -->
<g id="node2" class="node">
<title>Node2</title>
<g id="a_node2"><a xlink:href="Enemy_8hpp.html" target="_top" xlink:title=" ">
<polygon fill="white" stroke="#666666" points="158,-96 0,-96 0,-66 158,-66 158,-96"/>
<text text-anchor="start" x="8" y="-84" font-family="Helvetica,sans-Serif" font-size="10.00">/github/workspace/client</text>
<text text-anchor="middle" x="79" y="-73" font-family="Helvetica,sans-Serif" font-size="10.00">/include/Components/Enemy.hpp</text>
</a>
</g>
</g>
<!-- Node1&#45;&gt;Node2 -->
<g id="edge1" class="edge">
<title>Node1&#45;&gt;Node2</title>
<path fill="none" stroke="#63b8ff" d="M152.41,-125.91C136.36,-116.31 117.51,-105.03 102.93,-96.31"/>
<polygon fill="#63b8ff" stroke="#63b8ff" points="150.31,-128.73 160.69,-130.86 153.9,-122.72 150.31,-128.73"/>
</g>
<!-- Node3 -->
<g id="node3" class="node">
<title>Node3</title>
<g id="a_node3"><a xlink:href="include_8hpp.html" target="_top" xlink:title=" ">
<polygon fill="white" stroke="#666666" points="230,-30 108,-30 108,0 230,0 230,-30"/>
<text text-anchor="start" x="116" y="-18" font-family="Helvetica,sans-Serif" font-size="10.00">/github/workspace/client</text>
<text text-anchor="middle" x="169" y="-7" font-family="Helvetica,sans-Serif" font-size="10.00">/include/include.hpp</text>
</a>
</g>
</g>
<!-- Node1&#45;&gt;Node3 -->
<g id="edge6" class="edge">
<title>Node1&#45;&gt;Node3</title>
<path fill="none" stroke="#63b8ff" d="M182.65,-120.38C179.13,-93.49 173.73,-52.18 170.89,-30.47"/>
<polygon fill="#63b8ff" stroke="#63b8ff" points="179.15,-120.63 183.92,-130.09 186.09,-119.72 179.15,-120.63"/>
</g>
<!-- Node4 -->
<g id="node4" class="node">
<title>Node4</title>
<g id="a_node4"><a xlink:href="Player_8hpp.html" target="_top" xlink:title=" ">
<polygon fill="white" stroke="#666666" points="370,-96 214,-96 214,-66 370,-66 370,-96"/>
<text text-anchor="start" x="222" y="-84" font-family="Helvetica,sans-Serif" font-size="10.00">/github/workspace/client</text>
<text text-anchor="middle" x="292" y="-73" font-family="Helvetica,sans-Serif" font-size="10.00">/include/Components/Player.hpp</text>
</a>
</g>
</g>
<!-- Node1&#45;&gt;Node4 -->
<g id="edge3" class="edge">
<title>Node1&#45;&gt;Node4</title>
<path fill="none" stroke="#63b8ff" d="M219.27,-125.91C235.18,-116.31 253.85,-105.03 268.29,-96.31"/>
<polygon fill="#63b8ff" stroke="#63b8ff" points="217.84,-122.69 211.08,-130.85 221.45,-128.68 217.84,-122.69"/>
</g>
<!-- Node2&#45;&gt;Node3 -->
<g id="edge2" class="edge">
<title>Node2&#45;&gt;Node3</title>
<path fill="none" stroke="#63b8ff" d="M108.18,-59.25C121.44,-49.82 136.8,-38.9 148.77,-30.39"/>
<polygon fill="#63b8ff" stroke="#63b8ff" points="106.33,-56.27 100.21,-64.92 110.39,-61.98 106.33,-56.27"/>
</g>
<!-- Node4&#45;&gt;Node3 -->
<g id="edge4" class="edge">
<title>Node4&#45;&gt;Node3</title>
<path fill="none" stroke="#63b8ff" d="M254.43,-60.45C235.75,-50.73 213.59,-39.2 196.51,-30.31"/>
<polygon fill="#63b8ff" stroke="#63b8ff" points="252.57,-63.43 263.05,-64.94 255.8,-57.22 252.57,-63.43"/>
</g>
<!-- Node5 -->
<g id="node5" class="node">
<title>Node5</title>
<g id="a_node5"><a xlink:href="Player_8cpp.html" target="_top" xlink:title=" ">
<polygon fill="white" stroke="#666666" points="370,-30 248,-30 248,0 370,0 370,-30"/>
<text text-anchor="start" x="256" y="-18" font-family="Helvetica,sans-Serif" font-size="10.00">/github/workspace/client</text>
<text text-anchor="middle" x="309" y="-7" font-family="Helvetica,sans-Serif" font-size="10.00">/src/Player.cpp</text>
</a>
</g>
</g>
<!-- Node4&#45;&gt;Node5 -->
<g id="edge5" class="edge">
<title>Node4&#45;&gt;Node5</title>
<path fill="none" stroke="#63b8ff" d="M298.73,-54.68C300.94,-46.34 303.32,-37.37 305.24,-30.16"/>
<polygon fill="#63b8ff" stroke="#63b8ff" points="295.35,-53.77 296.16,-64.33 302.11,-55.57 295.35,-53.77"/>
</g>
</g>
</svg>
