<?xml version="1.0" encoding="UTF-8" standalone="no"?>
<!DOCTYPE svg PUBLIC "-//W3C//DTD SVG 1.1//EN"
 "http://www.w3.org/Graphics/SVG/1.1/DTD/svg11.dtd">
<!-- Generated by graphviz version 7.0.5 (20221223.1930)
 -->
<!-- Title: /github/workspace/server/src/main.cpp Pages: 1 -->
<svg width="260pt" height="258pt"
 viewBox="0.00 0.00 260.00 258.00" xmlns="http://www.w3.org/2000/svg" xmlns:xlink="http://www.w3.org/1999/xlink">
<g id="graph0" class="graph" transform="scale(1 1) rotate(0) translate(4 254)">
<title>/github/workspace/server/src/main.cpp</title>
<!-- Node1 -->
<g id="node1" class="node">
<title>Node1</title>
<g id="a_node1"><a xlink:title=" ">
<polygon fill="#999999" stroke="#666666" points="144,-250 18,-250 18,-220 144,-220 144,-250"/>
<text text-anchor="start" x="26" y="-238" font-family="Helvetica,sans-Serif" font-size="10.00">/github/workspace/server</text>
<text text-anchor="middle" x="81" y="-227" font-family="Helvetica,sans-Serif" font-size="10.00">/src/main.cpp</text>
</a>
</g>
</g>
<!-- Node2 -->
<g id="node2" class="node">
<title>Node2</title>
<g id="a_node2"><a xlink:href="Server_8hpp.html" target="_top" xlink:title=" ">
<polygon fill="white" stroke="#666666" points="112.5,-184 49.5,-184 49.5,-165 112.5,-165 112.5,-184"/>
<text text-anchor="middle" x="81" y="-172" font-family="Helvetica,sans-Serif" font-size="10.00">Server.hpp</text>
</a>
</g>
</g>
<!-- Node1&#45;&gt;Node2 -->
<g id="edge1" class="edge">
<title>Node1&#45;&gt;Node2</title>
<path fill="none" stroke="#63b8ff" d="M81,-219.54C81,-212.34 81,-203.53 81,-195.68"/>
<polygon fill="#63b8ff" stroke="#63b8ff" points="84.5,-195.69 81,-185.69 77.5,-195.69 84.5,-195.69"/>
</g>
<!-- Node3 -->
<g id="node3" class="node">
<title>Node3</title>
<g id="a_node3"><a xlink:title=" ">
<polygon fill="#e0e0e0" stroke="#999999" points="62,-129 0,-129 0,-110 62,-110 62,-129"/>
<text text-anchor="middle" x="31" y="-117" font-family="Helvetica,sans-Serif" font-size="10.00">Skaldi.hpp</text>
</a>
</g>
</g>
<!-- Node2&#45;&gt;Node3 -->
<g id="edge2" class="edge">
<title>Node2&#45;&gt;Node3</title>
<path fill="none" stroke="#63b8ff" d="M72.74,-164.75C65.84,-157.43 55.78,-146.76 47.26,-137.74"/>
<polygon fill="#63b8ff" stroke="#63b8ff" points="49.88,-135.42 40.47,-130.54 44.79,-140.22 49.88,-135.42"/>
</g>
<!-- Node4 -->
<g id="node4" class="node">
<title>Node4</title>
<g id="a_node4"><a xlink:href="Utilities_8hpp.html" target="_top" xlink:title=" ">
<polygon fill="white" stroke="#666666" points="181.5,-129 80.5,-129 80.5,-110 181.5,-110 181.5,-129"/>
<text text-anchor="middle" x="131" y="-117" font-family="Helvetica,sans-Serif" font-size="10.00">utilities/Utilities.hpp</text>
</a>
</g>
</g>
<!-- Node2&#45;&gt;Node4 -->
<g id="edge3" class="edge">
<title>Node2&#45;&gt;Node4</title>
<path fill="none" stroke="#63b8ff" d="M89.26,-164.75C96.16,-157.43 106.22,-146.76 114.74,-137.74"/>
<polygon fill="#63b8ff" stroke="#63b8ff" points="117.21,-140.22 121.53,-130.54 112.12,-135.42 117.21,-140.22"/>
</g>
<!-- Node5 -->
<g id="node5" class="node">
<title>Node5</title>
<g id="a_node5"><a xlink:href="Check_8hpp.html" target="_top" xlink:title=" ">
<polygon fill="white" stroke="#666666" points="117,-74 55,-74 55,-55 117,-55 117,-74"/>
<text text-anchor="middle" x="86" y="-62" font-family="Helvetica,sans-Serif" font-size="10.00">Check.hpp</text>
</a>
</g>
</g>
<!-- Node4&#45;&gt;Node5 -->
<g id="edge4" class="edge">
<title>Node4&#45;&gt;Node5</title>
<path fill="none" stroke="#63b8ff" d="M123.57,-109.75C117.42,-102.5 108.49,-91.98 100.87,-83.02"/>
<polygon fill="#63b8ff" stroke="#63b8ff" points="103.71,-80.95 94.57,-75.6 98.38,-85.48 103.71,-80.95"/>
</g>
<!-- Node8 -->
<g id="node8" class="node">
<title>Node8</title>
<g id="a_node8"><a xlink:href="Transform_8hpp.html" target="_top" xlink:title=" ">
<polygon fill="white" stroke="#666666" points="214.5,-74 135.5,-74 135.5,-55 214.5,-55 214.5,-74"/>
<text text-anchor="middle" x="175" y="-62" font-family="Helvetica,sans-Serif" font-size="10.00">Transform.hpp</text>
</a>
</g>
</g>
<!-- Node4&#45;&gt;Node8 -->
<g id="edge7" class="edge">
<title>Node4&#45;&gt;Node8</title>
<path fill="none" stroke="#63b8ff" d="M138.27,-109.75C144.28,-102.5 153.01,-91.98 160.46,-83.02"/>
<polygon fill="#63b8ff" stroke="#63b8ff" points="162.92,-85.54 166.61,-75.61 157.53,-81.07 162.92,-85.54"/>
</g>
<!-- Node6 -->
<g id="node6" class="node">
<title>Node6</title>
<g id="a_node6"><a xlink:title=" ">
<polygon fill="#e0e0e0" stroke="#999999" points="178,-19 124,-19 124,0 178,0 178,-19"/>
<text text-anchor="middle" x="151" y="-7" font-family="Helvetica,sans-Serif" font-size="10.00">iostream</text>
</a>
</g>
</g>
<!-- Node5&#45;&gt;Node6 -->
<g id="edge5" class="edge">
<title>Node5&#45;&gt;Node6</title>
<path fill="none" stroke="#63b8ff" d="M97.03,-54.51C106.42,-46.85 120.15,-35.66 131.41,-26.47"/>
<polygon fill="#63b8ff" stroke="#63b8ff" points="133.43,-29.35 138.96,-20.31 129,-23.92 133.43,-29.35"/>
</g>
<!-- Node7 -->
<g id="node7" class="node">
<title>Node7</title>
<g id="a_node7"><a xlink:title=" ">
<polygon fill="#e0e0e0" stroke="#999999" points="106,-19 66,-19 66,0 106,0 106,-19"/>
<text text-anchor="middle" x="86" y="-7" font-family="Helvetica,sans-Serif" font-size="10.00">regex</text>
</a>
</g>
</g>
<!-- Node5&#45;&gt;Node7 -->
<g id="edge6" class="edge">
<title>Node5&#45;&gt;Node7</title>
<path fill="none" stroke="#63b8ff" d="M86,-54.75C86,-48.27 86,-39.16 86,-30.9"/>
<polygon fill="#63b8ff" stroke="#63b8ff" points="89.5,-30.96 86,-20.96 82.5,-30.96 89.5,-30.96"/>
</g>
<!-- Node8&#45;&gt;Node6 -->
<g id="edge10" class="edge">
<title>Node8&#45;&gt;Node6</title>
<path fill="none" stroke="#63b8ff" d="M171.04,-54.75C167.96,-47.96 163.59,-38.3 159.71,-29.73"/>
<polygon fill="#63b8ff" stroke="#63b8ff" points="162.99,-28.49 155.67,-20.82 156.61,-31.37 162.99,-28.49"/>
</g>
<!-- Node8&#45;&gt;Node7 -->
<g id="edge9" class="edge">
<title>Node8&#45;&gt;Node7</title>
<path fill="none" stroke="#63b8ff" d="M159.9,-54.51C146.4,-46.47 126.35,-34.53 110.54,-25.11"/>
<polygon fill="#63b8ff" stroke="#63b8ff" points="112.56,-22.24 102.18,-20.13 108.98,-28.26 112.56,-22.24"/>
</g>
<!-- Node9 -->
<g id="node9" class="node">
<title>Node9</title>
<g id="a_node9"><a xlink:title=" ">
<polygon fill="#e0e0e0" stroke="#999999" points="252,-19 196,-19 196,0 252,0 252,-19"/>
<text text-anchor="middle" x="224" y="-7" font-family="Helvetica,sans-Serif" font-size="10.00">algorithm</text>
</a>
</g>
</g>
<!-- Node8&#45;&gt;Node9 -->
<g id="edge8" class="edge">
<title>Node8&#45;&gt;Node9</title>
<path fill="none" stroke="#63b8ff" d="M183.09,-54.75C189.86,-47.43 199.72,-36.76 208.06,-27.74"/>
<polygon fill="#63b8ff" stroke="#63b8ff" points="210.49,-30.27 214.71,-20.55 205.35,-25.52 210.49,-30.27"/>
</g>
</g>
</svg>
