<?xml version="1.0" encoding="UTF-8" standalone="no"?>
<!DOCTYPE svg PUBLIC "-//W3C//DTD SVG 1.1//EN"
 "http://www.w3.org/Graphics/SVG/1.1/DTD/svg11.dtd">
<!-- Generated by graphviz version 7.0.5 (20221223.1930)
 -->
<!-- Title: /github/workspace/client/include/system/gameStates/Example/SGamePlay_Duck.hpp Pages: 1 -->
<!--zoomable 489 -->
<svg id="main" version="1.1" xmlns="http://www.w3.org/2000/svg" xmlns:xlink="http://www.w3.org/1999/xlink" xml:space="preserve" onload="init(evt)">
<style type="text/css"><![CDATA[
.edge:hover path { stroke: red; }
.edge:hover polygon { stroke: red; fill: red; }
]]></style>
<script type="text/javascript"><![CDATA[
var edges = document.getElementsByTagName('g');
if (edges && edges.length) {
  for (var i=0;i<edges.length;i++) {
    if (edges[i].id.substr(0,4)=='edge') {
      edges[i].setAttribute('class','edge');
    }
  }
}
]]></script>
        <defs>
                <circle id="rim" cx="0" cy="0" r="7"/>
                <circle id="rim2" cx="0" cy="0" r="3.5"/>
                <g id="zoomPlus">
                        <use xlink:href="#rim" fill="#404040">
                                <set attributeName="fill" to="#808080" begin="zoomplus.mouseover" end="zoomplus.mouseout"/>
                        </use>
                        <path d="M-4,0h8M0,-4v8" fill="none" stroke="white" stroke-width="1.5" pointer-events="none"/>
                </g>
                <g id="zoomMin">
                        <use xlink:href="#rim" fill="#404040">
                                <set attributeName="fill" to="#808080" begin="zoomminus.mouseover" end="zoomminus.mouseout"/>
                        </use>
                        <path d="M-4,0h8" fill="none" stroke="white" stroke-width="1.5" pointer-events="none"/>
                </g>
                <g id="dirArrow">
                        <path fill="none" stroke="white" stroke-width="1.5" d="M0,-3.0v7 M-2.5,-0.5L0,-3.0L2.5,-0.5"/>
                </g>
               <g id="resetDef">
                       <use xlink:href="#rim2" fill="#404040">
                               <set attributeName="fill" to="#808080" begin="reset.mouseover" end="reset.mouseout"/>
                       </use>
               </g>
        </defs>

<script type="text/javascript">
var viewWidth = 2468;
var viewHeight = 489;
var sectionId = 'dynsection-0';
</script>
<script xlink:href="svgpan.js"/>
<svg id="graph" class="graph">
<g id="viewport">
<title>/github/workspace/client/include/system/gameStates/Example/SGamePlay_Duck.hpp</title>
<!-- Node1 -->
<g id="node1" class="node">
<title>Node1</title>
<g id="a_node1"><a xlink:title=" ">
<polygon fill="#999999" stroke="#666666" points="2449.19,-481 2292.19,-481 2292.19,-440 2449.19,-440 2449.19,-481"/>
<text text-anchor="start" x="2300.19" y="-469" font-family="Helvetica,sans-Serif" font-size="10.00">/github/workspace/client</text>
<text text-anchor="start" x="2300.19" y="-458" font-family="Helvetica,sans-Serif" font-size="10.00">/include/system/gameStates</text>
<text text-anchor="middle" x="2370.69" y="-447" font-family="Helvetica,sans-Serif" font-size="10.00">/Example/SGamePlay_Duck.hpp</text>
</a>
</g>
</g>
<!-- Node2 -->
<g id="node2" class="node">
<title>Node2</title>
<g id="a_node2"><a xlink:href="IGameState_8hpp.html" target="_top" xlink:title=" ">
<polygon fill="white" stroke="#666666" points="1887.19,-404 1800.19,-404 1800.19,-385 1887.19,-385 1887.19,-404"/>
<text text-anchor="middle" x="1843.69" y="-392" font-family="Helvetica,sans-Serif" font-size="10.00">IGameState.hpp</text>
</a>
</g>
</g>
<!-- Node1&#45;&gt;Node2 -->
<g id="edge1" class="edge">
<title>Node1&#45;&gt;Node2</title>
<path fill="none" stroke="#63b8ff" d="M2291.79,-449.92C2183.74,-436.8 1992.46,-413.57 1898.66,-402.18"/>
<polygon fill="#63b8ff" stroke="#63b8ff" points="1899.3,-398.73 1888.95,-401 1898.45,-405.68 1899.3,-398.73"/>
</g>
<!-- Node22 -->
<g id="node22" class="node">
<title>Node22</title>
<g id="a_node22"><a xlink:title=" ">
<polygon fill="#e0e0e0" stroke="#999999" points="2191.19,-19 2148.19,-19 2148.19,0 2191.19,0 2191.19,-19"/>
<text text-anchor="middle" x="2169.69" y="-7" font-family="Helvetica,sans-Serif" font-size="10.00">queue</text>
</a>
</g>
</g>
<!-- Node1&#45;&gt;Node22 -->
<g id="edge73" class="edge">
<title>Node1&#45;&gt;Node22</title>
<path fill="none" stroke="#63b8ff" d="M2385.17,-439.55C2400.24,-416.77 2421.69,-377.81 2421.69,-340.5 2421.69,-340.5 2421.69,-340.5 2421.69,-118.5 2421.69,-71.37 2270.88,-32.52 2202.59,-17.35"/>
<polygon fill="#63b8ff" stroke="#63b8ff" points="2203.61,-13.99 2193.09,-15.28 2202.12,-20.83 2203.61,-13.99"/>
</g>
<!-- Node23 -->
<g id="node23" class="node">
<title>Node23</title>
<g id="a_node23"><a xlink:title=" ">
<polygon fill="#e0e0e0" stroke="#999999" points="2290.69,-19 2228.69,-19 2228.69,0 2290.69,0 2290.69,-19"/>
<text text-anchor="middle" x="2259.69" y="-7" font-family="Helvetica,sans-Serif" font-size="10.00">Skaldi.hpp</text>
</a>
</g>
</g>
<!-- Node1&#45;&gt;Node23 -->
<g id="edge76" class="edge">
<title>Node1&#45;&gt;Node23</title>
<path fill="none" stroke="#63b8ff" d="M2399.85,-439.74C2412.25,-430.14 2426.05,-417.72 2435.69,-404 2453.04,-379.32 2459.69,-370.67 2459.69,-340.5 2459.69,-340.5 2459.69,-340.5 2459.69,-118.5 2459.69,-88.33 2458.2,-75.09 2435.69,-55 2398.95,-22.22 2341.52,-12.88 2302.32,-10.57"/>
<polygon fill="#63b8ff" stroke="#63b8ff" points="2302.69,-7.08 2292.55,-10.14 2302.38,-14.08 2302.69,-7.08"/>
</g>
<!-- Node40 -->
<g id="node40" class="node">
<title>Node40</title>
<g id="a_node40"><a xlink:title=" ">
<polygon fill="#e0e0e0" stroke="#999999" points="2329.19,-184 2288.19,-184 2288.19,-165 2329.19,-165 2329.19,-184"/>
<text text-anchor="middle" x="2308.69" y="-172" font-family="Helvetica,sans-Serif" font-size="10.00">string</text>
</a>
</g>
</g>
<!-- Node1&#45;&gt;Node40 -->
<g id="edge74" class="edge">
<title>Node1&#45;&gt;Node40</title>
<path fill="none" stroke="#63b8ff" d="M2359.83,-439.52C2348.29,-416.39 2331.69,-376.81 2331.69,-340.5 2331.69,-340.5 2331.69,-340.5 2331.69,-283.5 2331.69,-252.09 2322.27,-216.65 2315.48,-195.2"/>
<polygon fill="#63b8ff" stroke="#63b8ff" points="2318.83,-194.16 2312.36,-185.76 2312.18,-196.36 2318.83,-194.16"/>
</g>
<!-- Node41 -->
<g id="node41" class="node">
<title>Node41</title>
<g id="a_node41"><a xlink:title=" ">
<polygon fill="#e0e0e0" stroke="#999999" points="2393.69,-184 2347.69,-184 2347.69,-165 2393.69,-165 2393.69,-184"/>
<text text-anchor="middle" x="2370.69" y="-172" font-family="Helvetica,sans-Serif" font-size="10.00">cstring</text>
</a>
</g>
</g>
<!-- Node1&#45;&gt;Node41 -->
<g id="edge75" class="edge">
<title>Node1&#45;&gt;Node41</title>
<path fill="none" stroke="#63b8ff" d="M2370.69,-439.71C2370.69,-416.09 2370.69,-375.41 2370.69,-340.5 2370.69,-340.5 2370.69,-340.5 2370.69,-283.5 2370.69,-252.92 2370.69,-217.48 2370.69,-195.77"/>
<polygon fill="#63b8ff" stroke="#63b8ff" points="2374.19,-195.97 2370.69,-185.97 2367.19,-195.97 2374.19,-195.97"/>
</g>
<!-- Node3 -->
<g id="node3" class="node">
<title>Node3</title>
<g id="a_node3"><a xlink:href="EntitiesManager_8hpp.html" target="_top" xlink:title=" ">
<polygon fill="white" stroke="#666666" points="1523.69,-239 1383.69,-239 1383.69,-220 1523.69,-220 1523.69,-239"/>
<text text-anchor="middle" x="1453.69" y="-227" font-family="Helvetica,sans-Serif" font-size="10.00">Entities/EntitiesManager.hpp</text>
</a>
</g>
</g>
<!-- Node2&#45;&gt;Node3 -->
<g id="edge2" class="edge">
<title>Node2&#45;&gt;Node3</title>
<path fill="none" stroke="#63b8ff" d="M1799.79,-391.34C1725.97,-387.03 1580.79,-375.38 1537.69,-349 1499.09,-325.38 1473.33,-276.65 1461.38,-249.62"/>
<polygon fill="#63b8ff" stroke="#63b8ff" points="1464.68,-248.44 1457.57,-240.59 1458.23,-251.16 1464.68,-248.44"/>
</g>
<!-- Node27 -->
<g id="node27" class="node">
<title>Node27</title>
<g id="a_node27"><a xlink:href="Background_8hpp.html" target="_top" xlink:title=" ">
<polygon fill="white" stroke="#666666" points="1614.69,-74 1470.69,-74 1470.69,-55 1614.69,-55 1614.69,-74"/>
<text text-anchor="middle" x="1542.69" y="-62" font-family="Helvetica,sans-Serif" font-size="10.00">Components/Background.hpp</text>
</a>
</g>
</g>
<!-- Node2&#45;&gt;Node27 -->
<g id="edge66" class="edge">
<title>Node2&#45;&gt;Node27</title>
<path fill="none" stroke="#63b8ff" d="M1799.97,-386.68C1718.52,-372.74 1551.69,-337.79 1551.69,-285.5 1551.69,-285.5 1551.69,-285.5 1551.69,-173.5 1551.69,-142.82 1548.04,-107.4 1545.39,-85.73"/>
<polygon fill="#63b8ff" stroke="#63b8ff" points="1548.87,-85.42 1544.13,-75.94 1541.93,-86.3 1548.87,-85.42"/>
</g>
<!-- Node33 -->
<g id="node33" class="node">
<title>Node33</title>
<g id="a_node33"><a xlink:href="String_8hpp.html" target="_top" xlink:title=" ">
<polygon fill="white" stroke="#666666" points="1855.19,-129 1772.19,-129 1772.19,-110 1855.19,-110 1855.19,-129"/>
<text text-anchor="middle" x="1813.69" y="-117" font-family="Helvetica,sans-Serif" font-size="10.00">Utils/String.hpp</text>
</a>
</g>
</g>
<!-- Node2&#45;&gt;Node33 -->
<g id="edge46" class="edge">
<title>Node2&#45;&gt;Node33</title>
<path fill="none" stroke="#63b8ff" d="M1843.69,-384.54C1843.69,-366.03 1843.69,-322.25 1843.69,-285.5 1843.69,-285.5 1843.69,-285.5 1843.69,-228.5 1843.69,-196.47 1831.29,-160.98 1822.43,-139.72"/>
<polygon fill="#63b8ff" stroke="#63b8ff" points="1825.67,-138.39 1818.46,-130.62 1819.25,-141.18 1825.67,-138.39"/>
</g>
<!-- Node34 -->
<g id="node34" class="node">
<title>Node34</title>
<g id="a_node34"><a xlink:href="GameEngine_8hpp.html" target="_top" xlink:title=" ">
<polygon fill="white" stroke="#666666" points="2160.19,-349 2035.19,-349 2035.19,-330 2160.19,-330 2160.19,-349"/>
<text text-anchor="middle" x="2097.69" y="-337" font-family="Helvetica,sans-Serif" font-size="10.00">system/GameEngine.hpp</text>
</a>
</g>
</g>
<!-- Node2&#45;&gt;Node34 -->
<g id="edge50" class="edge">
<title>Node2&#45;&gt;Node34</title>
<path fill="none" stroke="#63b8ff" d="M1886.78,-384.51C1930.06,-375.48 1996.87,-361.54 2043.67,-351.77"/>
<polygon fill="#63b8ff" stroke="#63b8ff" points="2044.26,-355.22 2053.33,-349.76 2042.83,-348.37 2044.26,-355.22"/>
</g>
<!-- Node42 -->
<g id="node42" class="node">
<title>Node42</title>
<g id="a_node42"><a xlink:href="Centipede_8hpp.html" target="_top" xlink:title=" ">
<polygon fill="white" stroke="#666666" points="710.69,-184 574.69,-184 574.69,-165 710.69,-165 710.69,-184"/>
<text text-anchor="middle" x="642.69" y="-172" font-family="Helvetica,sans-Serif" font-size="10.00">Components/Centipede.hpp</text>
</a>
</g>
</g>
<!-- Node2&#45;&gt;Node42 -->
<g id="edge67" class="edge">
<title>Node2&#45;&gt;Node42</title>
<path fill="none" stroke="#63b8ff" d="M1799.92,-388.51C1736.44,-381.07 1615.21,-366.1 1512.69,-349 1200.11,-296.87 827.99,-216.46 693.96,-186.9"/>
<polygon fill="#63b8ff" stroke="#63b8ff" points="694.85,-183.52 684.33,-184.78 693.34,-190.35 694.85,-183.52"/>
</g>
<!-- Node4 -->
<g id="node4" class="node">
<title>Node4</title>
<g id="a_node4"><a xlink:href="Engine_8hpp.html" target="_top" xlink:title=" ">
<polygon fill="white" stroke="#666666" points="1246.69,-129 1142.69,-129 1142.69,-110 1246.69,-110 1246.69,-129"/>
<text text-anchor="middle" x="1194.69" y="-117" font-family="Helvetica,sans-Serif" font-size="10.00">../Engine/Engine.hpp</text>
</a>
</g>
</g>
<!-- Node3&#45;&gt;Node4 -->
<g id="edge3" class="edge">
<title>Node3&#45;&gt;Node4</title>
<path fill="none" stroke="#63b8ff" d="M1428.58,-219.66C1379.82,-200.79 1273.28,-156.47 1222.48,-134.03"/>
<polygon fill="#63b8ff" stroke="#63b8ff" points="1224.18,-130.96 1213.62,-130.08 1221.33,-137.35 1224.18,-130.96"/>
</g>
<!-- Node25 -->
<g id="node25" class="node">
<title>Node25</title>
<g id="a_node25"><a xlink:href="IComponents_8hpp.html" target="_top" xlink:title=" ">
<polygon fill="white" stroke="#666666" points="885.69,-19 793.69,-19 793.69,0 885.69,0 885.69,-19"/>
<text text-anchor="middle" x="839.69" y="-7" font-family="Helvetica,sans-Serif" font-size="10.00">IComponents.hpp</text>
</a>
</g>
</g>
<!-- Node3&#45;&gt;Node25 -->
<g id="edge33" class="edge">
<title>Node3&#45;&gt;Node25</title>
<path fill="none" stroke="#63b8ff" d="M1474.9,-219.58C1532.61,-194.16 1684.22,-119.06 1623.69,-55 1598.81,-28.67 1074.55,-15.38 897.51,-11.63"/>
<polygon fill="#63b8ff" stroke="#63b8ff" points="897.69,-8.14 887.62,-11.43 897.55,-15.13 897.69,-8.14"/>
</g>
<!-- Node28 -->
<g id="node28" class="node">
<title>Node28</title>
<g id="a_node28"><a xlink:href="SparseArray_8hpp.html" target="_top" xlink:title=" ">
<polygon fill="white" stroke="#666666" points="2013.19,-184 1902.19,-184 1902.19,-165 2013.19,-165 2013.19,-184"/>
<text text-anchor="middle" x="1957.69" y="-172" font-family="Helvetica,sans-Serif" font-size="10.00">Utils/SparseArray.hpp</text>
</a>
</g>
</g>
<!-- Node3&#45;&gt;Node28 -->
<g id="edge34" class="edge">
<title>Node3&#45;&gt;Node28</title>
<path fill="none" stroke="#63b8ff" d="M1524.03,-221.1C1621.19,-210.89 1795.23,-192.58 1890.62,-182.55"/>
<polygon fill="#63b8ff" stroke="#63b8ff" points="1890.77,-186.06 1900.35,-181.53 1890.04,-179.09 1890.77,-186.06"/>
</g>
<!-- Node4&#45;&gt;Node3 -->
<g id="edge25" class="edge">
<title>Node4&#45;&gt;Node3</title>
<path fill="none" stroke="#63b8ff" d="M1220.11,-129.46C1269.02,-148.4 1375.22,-192.58 1425.91,-214.98"/>
<polygon fill="#63b8ff" stroke="#63b8ff" points="1424.47,-218.16 1435.02,-219.04 1427.32,-211.77 1424.47,-218.16"/>
</g>
<!-- Node5 -->
<g id="node5" class="node">
<title>Node5</title>
<g id="a_node5"><a xlink:title=" ">
<polygon fill="#e0e0e0" stroke="#999999" points="317.19,-74 228.19,-74 228.19,-55 317.19,-55 317.19,-74"/>
<text text-anchor="middle" x="272.69" y="-62" font-family="Helvetica,sans-Serif" font-size="10.00">SFML/Audio.hpp</text>
</a>
</g>
</g>
<!-- Node4&#45;&gt;Node5 -->
<g id="edge4" class="edge">
<title>Node4&#45;&gt;Node5</title>
<path fill="none" stroke="#63b8ff" d="M1142.2,-117.73C1008.37,-115.34 643.42,-106.27 328.61,-74.07"/>
<polygon fill="#63b8ff" stroke="#63b8ff" points="329.24,-70.62 318.94,-73.07 328.52,-77.58 329.24,-70.62"/>
</g>
<!-- Node6 -->
<g id="node6" class="node">
<title>Node6</title>
<g id="a_node6"><a xlink:title=" ">
<polygon fill="#e0e0e0" stroke="#999999" points="439.69,-74 335.69,-74 335.69,-55 439.69,-55 439.69,-74"/>
<text text-anchor="middle" x="387.69" y="-62" font-family="Helvetica,sans-Serif" font-size="10.00">SFML/Graphics.hpp</text>
</a>
</g>
</g>
<!-- Node4&#45;&gt;Node6 -->
<g id="edge5" class="edge">
<title>Node4&#45;&gt;Node6</title>
<path fill="none" stroke="#63b8ff" d="M1142.57,-116.81C1022.58,-112.6 717.33,-100.17 451.34,-74.18"/>
<polygon fill="#63b8ff" stroke="#63b8ff" points="451.7,-70.7 441.41,-73.2 451.01,-77.66 451.7,-70.7"/>
</g>
<!-- Node7 -->
<g id="node7" class="node">
<title>Node7</title>
<g id="a_node7"><a xlink:title=" ">
<polygon fill="#e0e0e0" stroke="#999999" points="559.19,-74 458.19,-74 458.19,-55 559.19,-55 559.19,-74"/>
<text text-anchor="middle" x="508.69" y="-62" font-family="Helvetica,sans-Serif" font-size="10.00">SFML/Network.hpp</text>
</a>
</g>
</g>
<!-- Node4&#45;&gt;Node7 -->
<g id="edge6" class="edge">
<title>Node4&#45;&gt;Node7</title>
<path fill="none" stroke="#63b8ff" d="M1142.55,-116.08C1036.75,-110.88 789.02,-97.31 570.86,-74.27"/>
<polygon fill="#63b8ff" stroke="#63b8ff" points="571.33,-70.8 561.01,-73.22 570.59,-77.76 571.33,-70.8"/>
</g>
<!-- Node8 -->
<g id="node8" class="node">
<title>Node8</title>
<g id="a_node8"><a xlink:title=" ">
<polygon fill="#e0e0e0" stroke="#999999" points="676.19,-74 577.19,-74 577.19,-55 676.19,-55 676.19,-74"/>
<text text-anchor="middle" x="626.69" y="-62" font-family="Helvetica,sans-Serif" font-size="10.00">SFML/Window.hpp</text>
</a>
</g>
</g>
<!-- Node4&#45;&gt;Node8 -->
<g id="edge7" class="edge">
<title>Node4&#45;&gt;Node8</title>
<path fill="none" stroke="#63b8ff" d="M1142.2,-114.88C1051.76,-108.44 860.46,-93.88 687.9,-74.19"/>
<polygon fill="#63b8ff" stroke="#63b8ff" points="688.4,-70.72 678.06,-73.06 687.59,-77.68 688.4,-70.72"/>
</g>
<!-- Node9 -->
<g id="node9" class="node">
<title>Node9</title>
<g id="a_node9"><a xlink:title=" ">
<polygon fill="#e0e0e0" stroke="#999999" points="792.69,-74 694.69,-74 694.69,-55 792.69,-55 792.69,-74"/>
<text text-anchor="middle" x="743.69" y="-62" font-family="Helvetica,sans-Serif" font-size="10.00">SFML/System.hpp</text>
</a>
</g>
</g>
<!-- Node4&#45;&gt;Node9 -->
<g id="edge8" class="edge">
<title>Node4&#45;&gt;Node9</title>
<path fill="none" stroke="#63b8ff" d="M1142.5,-113.14C1069.29,-105.5 931.65,-90.7 804.16,-74.28"/>
<polygon fill="#63b8ff" stroke="#63b8ff" points="804.9,-70.85 794.54,-73.04 804,-77.79 804.9,-70.85"/>
</g>
<!-- Node10 -->
<g id="node10" class="node">
<title>Node10</title>
<g id="a_node10"><a xlink:title=" ">
<polygon fill="#e0e0e0" stroke="#999999" points="1934.69,-74 1880.69,-74 1880.69,-55 1934.69,-55 1934.69,-74"/>
<text text-anchor="middle" x="1907.69" y="-62" font-family="Helvetica,sans-Serif" font-size="10.00">iostream</text>
</a>
</g>
</g>
<!-- Node4&#45;&gt;Node10 -->
<g id="edge9" class="edge">
<title>Node4&#45;&gt;Node10</title>
<path fill="none" stroke="#63b8ff" d="M1246.94,-115.66C1356.06,-109.54 1616.09,-94.06 1833.69,-74 1845.16,-72.94 1857.6,-71.59 1868.96,-70.28"/>
<polygon fill="#63b8ff" stroke="#63b8ff" points="1869.28,-73.77 1878.8,-69.12 1868.46,-66.81 1869.28,-73.77"/>
</g>
<!-- Node11 -->
<g id="node11" class="node">
<title>Node11</title>
<g id="a_node11"><a xlink:title=" ">
<polygon fill="#e0e0e0" stroke="#999999" points="860.69,-74 810.69,-74 810.69,-55 860.69,-55 860.69,-74"/>
<text text-anchor="middle" x="835.69" y="-62" font-family="Helvetica,sans-Serif" font-size="10.00">fstream</text>
</a>
</g>
</g>
<!-- Node4&#45;&gt;Node11 -->
<g id="edge10" class="edge">
<title>Node4&#45;&gt;Node11</title>
<path fill="none" stroke="#63b8ff" d="M1142.34,-113.11C1080.13,-106.31 973.04,-93.37 871.9,-74.24"/>
<polygon fill="#63b8ff" stroke="#63b8ff" points="872.84,-70.85 862.36,-72.41 871.52,-77.73 872.84,-70.85"/>
</g>
<!-- Node12 -->
<g id="node12" class="node">
<title>Node12</title>
<g id="a_node12"><a xlink:title=" ">
<polygon fill="#e0e0e0" stroke="#999999" points="926.69,-74 878.69,-74 878.69,-55 926.69,-55 926.69,-74"/>
<text text-anchor="middle" x="902.69" y="-62" font-family="Helvetica,sans-Serif" font-size="10.00">string.h</text>
</a>
</g>
</g>
<!-- Node4&#45;&gt;Node12 -->
<g id="edge11" class="edge">
<title>Node4&#45;&gt;Node12</title>
<path fill="none" stroke="#63b8ff" d="M1142.36,-110.8C1092.33,-103.15 1014.56,-90.51 938.37,-74.43"/>
<polygon fill="#63b8ff" stroke="#63b8ff" points="939.13,-71.02 928.62,-72.35 937.67,-77.86 939.13,-71.02"/>
</g>
<!-- Node13 -->
<g id="node13" class="node">
<title>Node13</title>
<g id="a_node13"><a xlink:title=" ">
<polygon fill="#e0e0e0" stroke="#999999" points="994.69,-74 944.69,-74 944.69,-55 994.69,-55 994.69,-74"/>
<text text-anchor="middle" x="969.69" y="-62" font-family="Helvetica,sans-Serif" font-size="10.00">unistd.h</text>
</a>
</g>
</g>
<!-- Node4&#45;&gt;Node13 -->
<g id="edge12" class="edge">
<title>Node4&#45;&gt;Node13</title>
<path fill="none" stroke="#63b8ff" d="M1155.5,-109.56C1119.2,-101.24 1063.42,-88.35 1006.04,-74.54"/>
<polygon fill="#63b8ff" stroke="#63b8ff" points="1006.94,-71.16 996.4,-72.21 1005.3,-77.96 1006.94,-71.16"/>
</g>
<!-- Node14 -->
<g id="node14" class="node">
<title>Node14</title>
<g id="a_node14"><a xlink:title=" ">
<polygon fill="#e0e0e0" stroke="#999999" points="1078.19,-74 1013.19,-74 1013.19,-55 1078.19,-55 1078.19,-74"/>
<text text-anchor="middle" x="1045.69" y="-62" font-family="Helvetica,sans-Serif" font-size="10.00">sys/types.h</text>
</a>
</g>
</g>
<!-- Node4&#45;&gt;Node14 -->
<g id="edge13" class="edge">
<title>Node4&#45;&gt;Node14</title>
<path fill="none" stroke="#63b8ff" d="M1169.41,-109.51C1145.19,-100.89 1108.39,-87.8 1081.22,-78.14"/>
<polygon fill="#63b8ff" stroke="#63b8ff" points="1082.61,-74.92 1072.02,-74.87 1080.27,-81.51 1082.61,-74.92"/>
</g>
<!-- Node15 -->
<g id="node15" class="node">
<title>Node15</title>
<g id="a_node15"><a xlink:title=" ">
<polygon fill="#e0e0e0" stroke="#999999" points="1824.69,-74 1780.69,-74 1780.69,-55 1824.69,-55 1824.69,-74"/>
<text text-anchor="middle" x="1802.69" y="-62" font-family="Helvetica,sans-Serif" font-size="10.00">vector</text>
</a>
</g>
</g>
<!-- Node4&#45;&gt;Node15 -->
<g id="edge14" class="edge">
<title>Node4&#45;&gt;Node15</title>
<path fill="none" stroke="#63b8ff" d="M1246.82,-117.8C1346.63,-115.74 1571.6,-107.64 1769.27,-74.07"/>
<polygon fill="#63b8ff" stroke="#63b8ff" points="1769.7,-77.55 1778.96,-72.4 1768.51,-70.65 1769.7,-77.55"/>
</g>
<!-- Node16 -->
<g id="node16" class="node">
<title>Node16</title>
<g id="a_node16"><a xlink:title=" ">
<polygon fill="#e0e0e0" stroke="#999999" points="1152.69,-74 1096.69,-74 1096.69,-55 1152.69,-55 1152.69,-74"/>
<text text-anchor="middle" x="1124.69" y="-62" font-family="Helvetica,sans-Serif" font-size="10.00">stdbool.h</text>
</a>
</g>
</g>
<!-- Node4&#45;&gt;Node16 -->
<g id="edge15" class="edge">
<title>Node4&#45;&gt;Node16</title>
<path fill="none" stroke="#63b8ff" d="M1182.81,-109.51C1172.6,-101.77 1157.62,-90.43 1145.42,-81.2"/>
<polygon fill="#63b8ff" stroke="#63b8ff" points="1147.68,-78.52 1137.59,-75.27 1143.45,-84.1 1147.68,-78.52"/>
</g>
<!-- Node17 -->
<g id="node17" class="node">
<title>Node17</title>
<g id="a_node17"><a xlink:title=" ">
<polygon fill="#e0e0e0" stroke="#999999" points="1218.19,-74 1171.19,-74 1171.19,-55 1218.19,-55 1218.19,-74"/>
<text text-anchor="middle" x="1194.69" y="-62" font-family="Helvetica,sans-Serif" font-size="10.00">stdlib.h</text>
</a>
</g>
</g>
<!-- Node4&#45;&gt;Node17 -->
<g id="edge16" class="edge">
<title>Node4&#45;&gt;Node17</title>
<path fill="none" stroke="#63b8ff" d="M1194.69,-109.75C1194.69,-103.27 1194.69,-94.16 1194.69,-85.9"/>
<polygon fill="#63b8ff" stroke="#63b8ff" points="1198.19,-85.96 1194.69,-75.96 1191.19,-85.96 1198.19,-85.96"/>
</g>
<!-- Node18 -->
<g id="node18" class="node">
<title>Node18</title>
<g id="a_node18"><a xlink:title=" ">
<polygon fill="#e0e0e0" stroke="#999999" points="1294.69,-74 1236.69,-74 1236.69,-55 1294.69,-55 1294.69,-74"/>
<text text-anchor="middle" x="1265.69" y="-62" font-family="Helvetica,sans-Serif" font-size="10.00">exception</text>
</a>
</g>
</g>
<!-- Node4&#45;&gt;Node18 -->
<g id="edge17" class="edge">
<title>Node4&#45;&gt;Node18</title>
<path fill="none" stroke="#63b8ff" d="M1206.73,-109.51C1217.1,-101.77 1232.29,-90.43 1244.66,-81.2"/>
<polygon fill="#63b8ff" stroke="#63b8ff" points="1246.69,-84.05 1252.61,-75.26 1242.5,-78.44 1246.69,-84.05"/>
</g>
<!-- Node19 -->
<g id="node19" class="node">
<title>Node19</title>
<g id="a_node19"><a xlink:href="Window_8hpp.html" target="_top" xlink:title=" ">
<polygon fill="white" stroke="#666666" points="1414.19,-74 1313.19,-74 1313.19,-55 1414.19,-55 1414.19,-74"/>
<text text-anchor="middle" x="1363.69" y="-62" font-family="Helvetica,sans-Serif" font-size="10.00">Engine/Window.hpp</text>
</a>
</g>
</g>
<!-- Node4&#45;&gt;Node19 -->
<g id="edge18" class="edge">
<title>Node4&#45;&gt;Node19</title>
<path fill="none" stroke="#63b8ff" d="M1218.14,-109.51C1244.19,-100.76 1286.57,-87.42 1318.96,-77.71"/>
<polygon fill="#63b8ff" stroke="#63b8ff" points="1319.91,-81.08 1328.5,-74.88 1317.92,-74.37 1319.91,-81.08"/>
</g>
<!-- Node20 -->
<g id="node20" class="node">
<title>Node20</title>
<g id="a_node20"><a xlink:href="Event_8hpp.html" target="_top" xlink:title=" ">
<polygon fill="white" stroke="#666666" points="1762.69,-74 1670.69,-74 1670.69,-55 1762.69,-55 1762.69,-74"/>
<text text-anchor="middle" x="1716.69" y="-62" font-family="Helvetica,sans-Serif" font-size="10.00">Engine/Event.hpp</text>
</a>
</g>
</g>
<!-- Node4&#45;&gt;Node20 -->
<g id="edge20" class="edge">
<title>Node4&#45;&gt;Node20</title>
<path fill="none" stroke="#63b8ff" d="M1247.14,-112.73C1345.5,-102.42 1556.6,-80.99 1658.89,-70.93"/>
<polygon fill="#63b8ff" stroke="#63b8ff" points="1659.1,-74.43 1668.71,-69.97 1658.42,-67.46 1659.1,-74.43"/>
</g>
<!-- Node24 -->
<g id="node24" class="node">
<title>Node24</title>
<g id="a_node24"><a xlink:href="Bullets_8hpp.html" target="_top" xlink:title=" ">
<polygon fill="white" stroke="#666666" points="209.69,-74 87.69,-74 87.69,-55 209.69,-55 209.69,-74"/>
<text text-anchor="middle" x="148.69" y="-62" font-family="Helvetica,sans-Serif" font-size="10.00">Components/Bullets.hpp</text>
</a>
</g>
</g>
<!-- Node4&#45;&gt;Node24 -->
<g id="edge26" class="edge">
<title>Node4&#45;&gt;Node24</title>
<path fill="none" stroke="#63b8ff" d="M1142.35,-117.58C996.62,-114.64 574.29,-103.87 221.16,-74.95"/>
<polygon fill="#63b8ff" stroke="#63b8ff" points="221.71,-71.48 211.46,-74.15 221.14,-78.46 221.71,-71.48"/>
</g>
<!-- Node4&#45;&gt;Node27 -->
<g id="edge31" class="edge">
<title>Node4&#45;&gt;Node27</title>
<path fill="none" stroke="#63b8ff" d="M1246.99,-109.75C1305.5,-100.53 1400.66,-86.02 1467.22,-76.15"/>
<polygon fill="#63b8ff" stroke="#63b8ff" points="1467.59,-79.63 1476.97,-74.71 1466.57,-72.71 1467.59,-79.63"/>
</g>
<!-- Node19&#45;&gt;Node4 -->
<g id="edge19" class="edge">
<title>Node19&#45;&gt;Node4</title>
<path fill="none" stroke="#63b8ff" d="M1340.37,-74.45C1314.37,-83.18 1272.01,-96.52 1239.59,-106.24"/>
<polygon fill="#63b8ff" stroke="#63b8ff" points="1238.61,-102.88 1230.03,-109.08 1240.61,-109.59 1238.61,-102.88"/>
</g>
<!-- Node20&#45;&gt;Node4 -->
<g id="edge21" class="edge">
<title>Node20&#45;&gt;Node4</title>
<path fill="none" stroke="#63b8ff" d="M1670.53,-70.61C1576.88,-80.46 1364.77,-102 1258.19,-112.51"/>
<polygon fill="#63b8ff" stroke="#63b8ff" points="1258.09,-109 1248.48,-113.46 1258.78,-115.97 1258.09,-109"/>
</g>
<!-- Node21 -->
<g id="node21" class="node">
<title>Node21</title>
<g id="a_node21"><a xlink:title=" ">
<polygon fill="#e0e0e0" stroke="#999999" points="1799.19,-19 1770.19,-19 1770.19,0 1799.19,0 1799.19,-19"/>
<text text-anchor="middle" x="1784.69" y="-7" font-family="Helvetica,sans-Serif" font-size="10.00">list</text>
</a>
</g>
</g>
<!-- Node20&#45;&gt;Node21 -->
<g id="edge22" class="edge">
<title>Node20&#45;&gt;Node21</title>
<path fill="none" stroke="#63b8ff" d="M1728.22,-54.51C1738.15,-46.77 1752.7,-35.43 1764.55,-26.2"/>
<polygon fill="#63b8ff" stroke="#63b8ff" points="1766.39,-29.2 1772.13,-20.29 1762.09,-23.68 1766.39,-29.2"/>
</g>
<!-- Node20&#45;&gt;Node22 -->
<g id="edge23" class="edge">
<title>Node20&#45;&gt;Node22</title>
<path fill="none" stroke="#63b8ff" d="M1763.18,-56.17C1766.06,-55.76 1768.91,-55.37 1771.69,-55 1906.92,-37 2068.67,-20.45 2136.84,-13.7"/>
<polygon fill="#63b8ff" stroke="#63b8ff" points="2136.96,-17.21 2146.57,-12.74 2136.28,-10.24 2136.96,-17.21"/>
</g>
<!-- Node20&#45;&gt;Node23 -->
<g id="edge24" class="edge">
<title>Node20&#45;&gt;Node23</title>
<path fill="none" stroke="#63b8ff" d="M1763.17,-56.08C1766.05,-55.7 1768.91,-55.33 1771.69,-55 1961.68,-32.37 2010.58,-40.65 2200.69,-19 2206,-18.4 2211.57,-17.69 2217.08,-16.95"/>
<polygon fill="#63b8ff" stroke="#63b8ff" points="2217.28,-20.45 2226.7,-15.6 2216.31,-13.52 2217.28,-20.45"/>
</g>
<!-- Node24&#45;&gt;Node4 -->
<g id="edge27" class="edge">
<title>Node24&#45;&gt;Node4</title>
<path fill="none" stroke="#63b8ff" d="M209.96,-72.29C215.97,-72.93 221.96,-73.52 227.69,-74 567.81,-102.36 976.22,-113.63 1131.08,-117.16"/>
<polygon fill="#63b8ff" stroke="#63b8ff" points="1130.64,-120.65 1140.72,-117.37 1130.8,-113.65 1130.64,-120.65"/>
</g>
<!-- Node24&#45;&gt;Node25 -->
<g id="edge28" class="edge">
<title>Node24&#45;&gt;Node25</title>
<path fill="none" stroke="#63b8ff" d="M210.13,-55.87C213.02,-55.56 215.89,-55.27 218.69,-55 425.52,-35.04 671.92,-19.96 781.81,-13.69"/>
<polygon fill="#63b8ff" stroke="#63b8ff" points="781.97,-17.19 791.76,-13.13 781.58,-10.2 781.97,-17.19"/>
</g>
<!-- Node26 -->
<g id="node26" class="node">
<title>Node26</title>
<g id="a_node26"><a xlink:title=" ">
<polygon fill="#e0e0e0" stroke="#999999" points="92.69,-19 46.69,-19 46.69,0 92.69,0 92.69,-19"/>
<text text-anchor="middle" x="69.69" y="-7" font-family="Helvetica,sans-Serif" font-size="10.00">math.h</text>
</a>
</g>
</g>
<!-- Node24&#45;&gt;Node26 -->
<g id="edge30" class="edge">
<title>Node24&#45;&gt;Node26</title>
<path fill="none" stroke="#63b8ff" d="M135.29,-54.51C123.53,-46.62 106.18,-34.98 92.28,-25.65"/>
<polygon fill="#63b8ff" stroke="#63b8ff" points="94.4,-22.87 84.15,-20.2 90.5,-28.68 94.4,-22.87"/>
</g>
<!-- Node25&#45;&gt;Node4 -->
<g id="edge29" class="edge">
<title>Node25&#45;&gt;Node4</title>
<path fill="none" stroke="#63b8ff" d="M885.89,-10.51C1017.36,-11.01 1386.47,-15.91 1422.69,-55 1472.5,-108.76 1342.23,-118.43 1258.63,-119.35"/>
<polygon fill="#63b8ff" stroke="#63b8ff" points="1258.65,-115.85 1248.68,-119.42 1258.7,-122.85 1258.65,-115.85"/>
</g>
<!-- Node27&#45;&gt;Node4 -->
<g id="edge32" class="edge">
<title>Node27&#45;&gt;Node4</title>
<path fill="none" stroke="#63b8ff" d="M1488.92,-74.48C1426.66,-84.28 1324.39,-99.85 1258.26,-109.61"/>
<polygon fill="#63b8ff" stroke="#63b8ff" points="1258.05,-106.1 1248.66,-111.02 1259.06,-113.03 1258.05,-106.1"/>
</g>
<!-- Node28&#45;&gt;Node10 -->
<g id="edge35" class="edge">
<title>Node28&#45;&gt;Node10</title>
<path fill="none" stroke="#63b8ff" d="M1939.69,-164.57C1926.76,-157.05 1910.31,-144.96 1902.69,-129 1896.19,-115.39 1898.04,-98.25 1901.18,-85.21"/>
<polygon fill="#63b8ff" stroke="#63b8ff" points="1904.53,-86.25 1903.94,-75.67 1897.8,-84.3 1904.53,-86.25"/>
</g>
<!-- Node28&#45;&gt;Node15 -->
<g id="edge38" class="edge">
<title>Node28&#45;&gt;Node15</title>
<path fill="none" stroke="#63b8ff" d="M1902.13,-168.37C1851.05,-162.37 1780.75,-150.42 1763.69,-129 1751.63,-113.86 1766.99,-94.72 1781.84,-81.44"/>
<polygon fill="#63b8ff" stroke="#63b8ff" points="1783.72,-84.43 1789.15,-75.33 1779.23,-79.05 1783.72,-84.43"/>
</g>
<!-- Node29 -->
<g id="node29" class="node">
<title>Node29</title>
<g id="a_node29"><a xlink:title=" ">
<polygon fill="#e0e0e0" stroke="#999999" points="2066.69,-74 2010.69,-74 2010.69,-55 2066.69,-55 2066.69,-74"/>
<text text-anchor="middle" x="2038.69" y="-62" font-family="Helvetica,sans-Serif" font-size="10.00">algorithm</text>
</a>
</g>
</g>
<!-- Node28&#45;&gt;Node29 -->
<g id="edge36" class="edge">
<title>Node28&#45;&gt;Node29</title>
<path fill="none" stroke="#63b8ff" d="M1981.23,-164.55C1996.9,-157.34 2016.59,-145.65 2027.69,-129 2036.25,-116.16 2038.78,-98.72 2039.29,-85.37"/>
<polygon fill="#63b8ff" stroke="#63b8ff" points="2042.79,-85.62 2039.29,-75.62 2035.79,-85.62 2042.79,-85.62"/>
</g>
<!-- Node30 -->
<g id="node30" class="node">
<title>Node30</title>
<g id="a_node30"><a xlink:title=" ">
<polygon fill="#e0e0e0" stroke="#999999" points="2122.69,-74 2084.69,-74 2084.69,-55 2122.69,-55 2122.69,-74"/>
<text text-anchor="middle" x="2103.69" y="-62" font-family="Helvetica,sans-Serif" font-size="10.00">array</text>
</a>
</g>
</g>
<!-- Node28&#45;&gt;Node30 -->
<g id="edge37" class="edge">
<title>Node28&#45;&gt;Node30</title>
<path fill="none" stroke="#63b8ff" d="M1980.38,-164.51C1998.71,-156.65 2024.66,-144.14 2044.69,-129 2062.27,-115.71 2079.04,-96.84 2090.18,-83.13"/>
<polygon fill="#63b8ff" stroke="#63b8ff" points="2092.84,-85.41 2096.29,-75.4 2087.34,-81.08 2092.84,-85.41"/>
</g>
<!-- Node31 -->
<g id="node31" class="node">
<title>Node31</title>
<g id="a_node31"><a xlink:title=" ">
<polygon fill="#e0e0e0" stroke="#999999" points="1992.19,-74 1953.19,-74 1953.19,-55 1992.19,-55 1992.19,-74"/>
<text text-anchor="middle" x="1972.69" y="-62" font-family="Helvetica,sans-Serif" font-size="10.00">utility</text>
</a>
</g>
</g>
<!-- Node28&#45;&gt;Node31 -->
<g id="edge39" class="edge">
<title>Node28&#45;&gt;Node31</title>
<path fill="none" stroke="#63b8ff" d="M1975.69,-164.57C1988.62,-157.05 2005.07,-144.96 2012.69,-129 2020.74,-112.12 2007.19,-94.2 1993.72,-81.72"/>
<polygon fill="#63b8ff" stroke="#63b8ff" points="1996.15,-79.19 1986.27,-75.35 1991.6,-84.51 1996.15,-79.19"/>
</g>
<!-- Node32 -->
<g id="node32" class="node">
<title>Node32</title>
<g id="a_node32"><a xlink:href="Vectors_8hpp.html" target="_top" xlink:title=" ">
<polygon fill="white" stroke="#666666" points="2003.69,-129 1911.69,-129 1911.69,-110 2003.69,-110 2003.69,-129"/>
<text text-anchor="middle" x="1957.69" y="-117" font-family="Helvetica,sans-Serif" font-size="10.00">Utils/Vectors.hpp</text>
</a>
</g>
</g>
<!-- Node28&#45;&gt;Node32 -->
<g id="edge40" class="edge">
<title>Node28&#45;&gt;Node32</title>
<path fill="none" stroke="#63b8ff" d="M1957.69,-164.75C1957.69,-158.27 1957.69,-149.16 1957.69,-140.9"/>
<polygon fill="#63b8ff" stroke="#63b8ff" points="1961.19,-140.96 1957.69,-130.96 1954.19,-140.96 1961.19,-140.96"/>
</g>
<!-- Node32&#45;&gt;Node10 -->
<g id="edge41" class="edge">
<title>Node32&#45;&gt;Node10</title>
<path fill="none" stroke="#63b8ff" d="M1949.43,-109.75C1942.53,-102.43 1932.46,-91.76 1923.95,-82.74"/>
<polygon fill="#63b8ff" stroke="#63b8ff" points="1926.57,-80.42 1917.16,-75.54 1921.48,-85.22 1926.57,-80.42"/>
</g>
<!-- Node32&#45;&gt;Node15 -->
<g id="edge44" class="edge">
<title>Node32&#45;&gt;Node15</title>
<path fill="none" stroke="#63b8ff" d="M1931.4,-109.51C1905.01,-100.49 1864.3,-86.57 1835.75,-76.8"/>
<polygon fill="#63b8ff" stroke="#63b8ff" points="1837.11,-73.57 1826.51,-73.65 1834.84,-80.19 1837.11,-73.57"/>
</g>
<!-- Node32&#45;&gt;Node29 -->
<g id="edge42" class="edge">
<title>Node32&#45;&gt;Node29</title>
<path fill="none" stroke="#63b8ff" d="M1971.43,-109.51C1983.49,-101.62 2001.27,-89.98 2015.53,-80.65"/>
<polygon fill="#63b8ff" stroke="#63b8ff" points="2017.43,-83.59 2023.88,-75.19 2013.6,-77.73 2017.43,-83.59"/>
</g>
<!-- Node32&#45;&gt;Node30 -->
<g id="edge43" class="edge">
<title>Node32&#45;&gt;Node30</title>
<path fill="none" stroke="#63b8ff" d="M1982.46,-109.51C2007.66,-100.36 2046.74,-86.17 2073.68,-76.39"/>
<polygon fill="#63b8ff" stroke="#63b8ff" points="2074.78,-79.72 2082.98,-73.02 2072.39,-73.14 2074.78,-79.72"/>
</g>
<!-- Node32&#45;&gt;Node31 -->
<g id="edge45" class="edge">
<title>Node32&#45;&gt;Node31</title>
<path fill="none" stroke="#63b8ff" d="M1960.17,-109.75C1962.04,-103.11 1964.7,-93.73 1967.08,-85.31"/>
<polygon fill="#63b8ff" stroke="#63b8ff" points="1970.39,-86.47 1969.75,-75.9 1963.66,-84.57 1970.39,-86.47"/>
</g>
<!-- Node33&#45;&gt;Node10 -->
<g id="edge47" class="edge">
<title>Node33&#45;&gt;Node10</title>
<path fill="none" stroke="#63b8ff" d="M1829.63,-109.51C1844.04,-101.39 1865.48,-89.3 1882.25,-79.85"/>
<polygon fill="#63b8ff" stroke="#63b8ff" points="1883.67,-83.06 1890.66,-75.1 1880.23,-76.96 1883.67,-83.06"/>
</g>
<!-- Node33&#45;&gt;Node15 -->
<g id="edge49" class="edge">
<title>Node33&#45;&gt;Node15</title>
<path fill="none" stroke="#63b8ff" d="M1811.87,-109.75C1810.51,-103.19 1808.59,-93.95 1806.86,-85.6"/>
<polygon fill="#63b8ff" stroke="#63b8ff" points="1810.31,-85 1804.85,-75.92 1803.46,-86.43 1810.31,-85"/>
</g>
<!-- Node33&#45;&gt;Node21 -->
<g id="edge48" class="edge">
<title>Node33&#45;&gt;Node21</title>
<path fill="none" stroke="#63b8ff" d="M1820.45,-109.65C1829.09,-97.16 1842.02,-73.81 1833.69,-55 1828.46,-43.18 1818.36,-33.15 1808.68,-25.63"/>
<polygon fill="#63b8ff" stroke="#63b8ff" points="1810.75,-22.8 1800.58,-19.84 1806.68,-28.5 1810.75,-22.8"/>
</g>
<!-- Node34&#45;&gt;Node22 -->
<g id="edge65" class="edge">
<title>Node34&#45;&gt;Node22</title>
<path fill="none" stroke="#63b8ff" d="M2099.61,-329.73C2109.16,-286.26 2151.45,-93.6 2165.29,-30.55"/>
<polygon fill="#63b8ff" stroke="#63b8ff" points="2168.67,-31.45 2167.4,-20.93 2161.84,-29.95 2168.67,-31.45"/>
</g>
<!-- Node35 -->
<g id="node35" class="node">
<title>Node35</title>
<g id="a_node35"><a xlink:href="States_8hpp.html" target="_top" xlink:title=" ">
<polygon fill="white" stroke="#666666" points="2248.19,-294 2129.19,-294 2129.19,-275 2248.19,-275 2248.19,-294"/>
<text text-anchor="middle" x="2188.69" y="-282" font-family="Helvetica,sans-Serif" font-size="10.00">gameStates/States.hpp</text>
</a>
</g>
</g>
<!-- Node34&#45;&gt;Node35 -->
<g id="edge51" class="edge">
<title>Node34&#45;&gt;Node35</title>
<path fill="none" stroke="#63b8ff" d="M2113.13,-329.51C2126.94,-321.47 2147.43,-309.53 2163.6,-300.11"/>
<polygon fill="#63b8ff" stroke="#63b8ff" points="2165.29,-303.18 2172.17,-295.12 2161.77,-297.13 2165.29,-303.18"/>
</g>
<!-- Node35&#45;&gt;Node2 -->
<g id="edge52" class="edge">
<title>Node35&#45;&gt;Node2</title>
<path fill="none" stroke="#63b8ff" d="M2188.84,-294.48C2188.55,-308.45 2185.78,-335.23 2169.69,-349 2130.04,-382.93 1980.93,-391.1 1898.8,-392.99"/>
<polygon fill="#63b8ff" stroke="#63b8ff" points="1898.87,-389.49 1888.94,-393.19 1899.01,-396.49 1898.87,-389.49"/>
</g>
<!-- Node36 -->
<g id="node36" class="node">
<title>Node36</title>
<g id="a_node36"><a xlink:href="SMenu_8hpp.html" target="_top" xlink:title=" ">
<polygon fill="white" stroke="#666666" points="1815.19,-239 1750.19,-239 1750.19,-220 1815.19,-220 1815.19,-239"/>
<text text-anchor="middle" x="1782.69" y="-227" font-family="Helvetica,sans-Serif" font-size="10.00">SMenu.hpp</text>
</a>
</g>
</g>
<!-- Node35&#45;&gt;Node36 -->
<g id="edge53" class="edge">
<title>Node35&#45;&gt;Node36</title>
<path fill="none" stroke="#63b8ff" d="M2128.78,-275.68C2046.29,-264.91 1899.65,-245.77 1826.59,-236.23"/>
<polygon fill="#63b8ff" stroke="#63b8ff" points="1827.39,-232.81 1817.02,-234.98 1826.48,-239.75 1827.39,-232.81"/>
</g>
<!-- Node39 -->
<g id="node39" class="node">
<title>Node39</title>
<g id="a_node39"><a xlink:href="SGamePlay_8hpp.html" target="_top" xlink:title=" ">
<polygon fill="white" stroke="#666666" points="2302.69,-239 2216.69,-239 2216.69,-220 2302.69,-220 2302.69,-239"/>
<text text-anchor="middle" x="2259.69" y="-227" font-family="Helvetica,sans-Serif" font-size="10.00">SGamePlay.hpp</text>
</a>
</g>
</g>
<!-- Node35&#45;&gt;Node39 -->
<g id="edge58" class="edge">
<title>Node35&#45;&gt;Node39</title>
<path fill="none" stroke="#63b8ff" d="M2200.73,-274.51C2211.1,-266.77 2226.29,-255.43 2238.66,-246.2"/>
<polygon fill="#63b8ff" stroke="#63b8ff" points="2240.69,-249.05 2246.61,-240.26 2236.5,-243.44 2240.69,-249.05"/>
</g>
<!-- Node36&#45;&gt;Node2 -->
<g id="edge54" class="edge">
<title>Node36&#45;&gt;Node2</title>
<path fill="none" stroke="#63b8ff" d="M1785.98,-239.31C1795.52,-264.79 1823.3,-339.03 1836.53,-374.37"/>
<polygon fill="#63b8ff" stroke="#63b8ff" points="1833.1,-375.18 1839.88,-383.32 1839.65,-372.73 1833.1,-375.18"/>
</g>
<!-- Node37 -->
<g id="node37" class="node">
<title>Node37</title>
<g id="a_node37"><a xlink:href="Bouton_8hpp.html" target="_top" xlink:title=" ">
<polygon fill="white" stroke="#666666" points="1779.19,-184 1656.19,-184 1656.19,-165 1779.19,-165 1779.19,-184"/>
<text text-anchor="middle" x="1717.69" y="-172" font-family="Helvetica,sans-Serif" font-size="10.00">Components/Bouton.hpp</text>
</a>
</g>
</g>
<!-- Node36&#45;&gt;Node37 -->
<g id="edge55" class="edge">
<title>Node36&#45;&gt;Node37</title>
<path fill="none" stroke="#63b8ff" d="M1771.66,-219.51C1762.27,-211.85 1748.54,-200.66 1737.28,-191.47"/>
<polygon fill="#63b8ff" stroke="#63b8ff" points="1739.69,-188.92 1729.73,-185.31 1735.26,-194.35 1739.69,-188.92"/>
</g>
<!-- Node37&#45;&gt;Node4 -->
<g id="edge56" class="edge">
<title>Node37&#45;&gt;Node4</title>
<path fill="none" stroke="#63b8ff" d="M1655.9,-167.24C1555.82,-157.1 1359.32,-137.18 1258.17,-126.93"/>
<polygon fill="#63b8ff" stroke="#63b8ff" points="1258.72,-123.47 1248.42,-125.94 1258.01,-130.44 1258.72,-123.47"/>
</g>
<!-- Node38 -->
<g id="node38" class="node">
<title>Node38</title>
<g id="a_node38"><a xlink:title=" ">
<polygon fill="#e0e0e0" stroke="#999999" points="1715.19,-129 1656.19,-129 1656.19,-110 1715.19,-110 1715.19,-129"/>
<text text-anchor="middle" x="1685.69" y="-117" font-family="Helvetica,sans-Serif" font-size="10.00">functional</text>
</a>
</g>
</g>
<!-- Node37&#45;&gt;Node38 -->
<g id="edge57" class="edge">
<title>Node37&#45;&gt;Node38</title>
<path fill="none" stroke="#63b8ff" d="M1712.4,-164.75C1708.21,-157.81 1702.21,-147.86 1696.95,-139.16"/>
<polygon fill="#63b8ff" stroke="#63b8ff" points="1700.04,-137.49 1691.87,-130.74 1694.04,-141.11 1700.04,-137.49"/>
</g>
<!-- Node39&#45;&gt;Node2 -->
<g id="edge59" class="edge">
<title>Node39&#45;&gt;Node2</title>
<path fill="none" stroke="#63b8ff" d="M2261.6,-239.27C2263.92,-252.05 2266.52,-276.22 2257.69,-294 2240.39,-328.81 2225.43,-333.72 2189.69,-349 2138.56,-370.86 1982.78,-384.25 1898.77,-390.08"/>
<polygon fill="#63b8ff" stroke="#63b8ff" points="1898.66,-386.58 1888.92,-390.75 1899.14,-393.56 1898.66,-386.58"/>
</g>
<!-- Node39&#45;&gt;Node22 -->
<g id="edge60" class="edge">
<title>Node39&#45;&gt;Node22</title>
<path fill="none" stroke="#63b8ff" d="M2256.05,-219.68C2242.71,-187.36 2196.28,-74.9 2177.58,-29.61"/>
<polygon fill="#63b8ff" stroke="#63b8ff" points="2180.9,-28.49 2173.85,-20.59 2174.43,-31.16 2180.9,-28.49"/>
</g>
<!-- Node39&#45;&gt;Node23 -->
<g id="edge64" class="edge">
<title>Node39&#45;&gt;Node23</title>
<path fill="none" stroke="#63b8ff" d="M2259.69,-219.68C2259.69,-187.57 2259.69,-76.33 2259.69,-30.49"/>
<polygon fill="#63b8ff" stroke="#63b8ff" points="2263.19,-30.7 2259.69,-20.7 2256.19,-30.7 2263.19,-30.7"/>
</g>
<!-- Node39&#45;&gt;Node30 -->
<g id="edge61" class="edge">
<title>Node39&#45;&gt;Node30</title>
<path fill="none" stroke="#63b8ff" d="M2248.53,-219.73C2237.72,-211.05 2221.05,-197.19 2207.69,-184 2173.44,-150.17 2137.16,-106.89 2117.81,-83.12"/>
<polygon fill="#63b8ff" stroke="#63b8ff" points="2120.57,-80.96 2111.56,-75.38 2115.12,-85.36 2120.57,-80.96"/>
</g>
<!-- Node39&#45;&gt;Node40 -->
<g id="edge62" class="edge">
<title>Node39&#45;&gt;Node40</title>
<path fill="none" stroke="#63b8ff" d="M2267.78,-219.75C2274.55,-212.43 2284.41,-201.76 2292.75,-192.74"/>
<polygon fill="#63b8ff" stroke="#63b8ff" points="2295.18,-195.27 2299.39,-185.55 2290.04,-190.52 2295.18,-195.27"/>
</g>
<!-- Node39&#45;&gt;Node41 -->
<g id="edge63" class="edge">
<title>Node39&#45;&gt;Node41</title>
<path fill="none" stroke="#63b8ff" d="M2278.52,-219.51C2295.85,-211.24 2321.8,-198.84 2341.76,-189.31"/>
<polygon fill="#63b8ff" stroke="#63b8ff" points="2343.26,-192.48 2350.77,-185.01 2340.24,-186.16 2343.26,-192.48"/>
</g>
<!-- Node42&#45;&gt;Node4 -->
<g id="edge68" class="edge">
<title>Node42&#45;&gt;Node4</title>
<path fill="none" stroke="#63b8ff" d="M710.93,-166.95C818.53,-156.62 1026.12,-136.69 1130.89,-126.63"/>
<polygon fill="#63b8ff" stroke="#63b8ff" points="1131.1,-130.12 1140.72,-125.68 1130.43,-123.15 1131.1,-130.12"/>
</g>
<!-- Node42&#45;&gt;Node15 -->
<g id="edge71" class="edge">
<title>Node42&#45;&gt;Node15</title>
<path fill="none" stroke="#63b8ff" d="M711.1,-172.18C886.42,-167.78 1365.85,-149.43 1769.42,-74.14"/>
<polygon fill="#63b8ff" stroke="#63b8ff" points="1769.77,-77.63 1778.95,-72.34 1768.48,-70.75 1769.77,-77.63"/>
</g>
<!-- Node42&#45;&gt;Node25 -->
<g id="edge69" class="edge">
<title>Node42&#45;&gt;Node25</title>
<path fill="none" stroke="#63b8ff" d="M574.27,-170.04C409.37,-160.49 8.58,-129.33 78.69,-55 102.74,-29.5 608.28,-15.73 781.82,-11.74"/>
<polygon fill="#63b8ff" stroke="#63b8ff" points="781.81,-15.24 791.73,-11.51 781.65,-8.24 781.81,-15.24"/>
</g>
<!-- Node42&#45;&gt;Node26 -->
<g id="edge70" class="edge">
<title>Node42&#45;&gt;Node26</title>
<path fill="none" stroke="#63b8ff" d="M574.27,-173.83C418.43,-173.86 47.55,-169.62 9.69,-129 -18.99,-98.24 23.65,-51.16 50.54,-26.63"/>
<polygon fill="#63b8ff" stroke="#63b8ff" points="52.61,-29.47 57.8,-20.23 47.98,-24.22 52.61,-29.47"/>
</g>
<!-- Node43 -->
<g id="node43" class="node">
<title>Node43</title>
<g id="a_node43"><a xlink:title=" ">
<polygon fill="#e0e0e0" stroke="#999999" points="62.69,-129 18.69,-129 18.69,-110 62.69,-110 62.69,-129"/>
<text text-anchor="middle" x="40.69" y="-117" font-family="Helvetica,sans-Serif" font-size="10.00">cmath</text>
</a>
</g>
</g>
<!-- Node42&#45;&gt;Node43 -->
<g id="edge72" class="edge">
<title>Node42&#45;&gt;Node43</title>
<path fill="none" stroke="#63b8ff" d="M574.34,-171.51C467.55,-167.64 254.9,-156.88 76.69,-129 75.86,-128.87 75.01,-128.73 74.17,-128.58"/>
<polygon fill="#63b8ff" stroke="#63b8ff" points="75.03,-125.19 64.54,-126.64 73.65,-132.05 75.03,-125.19"/>
</g>
</g>
</svg>
        <g id="navigator" transform="translate(0 0)" fill="#404254">
                <rect fill="#f2f5e9" fill-opacity="0.5" stroke="#606060" stroke-width=".5" x="0" y="0" width="60" height="60"/>
                <use id="zoomplus" xlink:href="#zoomPlus" x="17" y="9" onmousedown="handleZoom(evt,'in')"/>
                <use id="zoomminus" xlink:href="#zoomMin" x="42" y="9" onmousedown="handleZoom(evt,'out')"/>
                <use id="reset" xlink:href="#resetDef" x="30" y="36" onmousedown="handleReset()"/>
                <g id="arrowUp" xlink:href="#dirArrow" transform="translate(30 24)" onmousedown="handlePan(0,-1)">
                  <use xlink:href="#rim" fill="#404040">
                        <set attributeName="fill" to="#808080" begin="arrowUp.mouseover" end="arrowUp.mouseout"/>
                  </use>
                  <path fill="none" stroke="white" stroke-width="1.5" d="M0,-3.0v7 M-2.5,-0.5L0,-3.0L2.5,-0.5"/>
                </g>
                <g id="arrowRight" xlink:href="#dirArrow" transform="rotate(90) translate(36 -43)" onmousedown="handlePan(1,0)">
                  <use xlink:href="#rim" fill="#404040">
                        <set attributeName="fill" to="#808080" begin="arrowRight.mouseover" end="arrowRight.mouseout"/>
                  </use>
                  <path fill="none" stroke="white" stroke-width="1.5" d="M0,-3.0v7 M-2.5,-0.5L0,-3.0L2.5,-0.5"/>
                </g>
                <g id="arrowDown" xlink:href="#dirArrow" transform="rotate(180) translate(-30 -48)" onmousedown="handlePan(0,1)">
                  <use xlink:href="#rim" fill="#404040">
                        <set attributeName="fill" to="#808080" begin="arrowDown.mouseover" end="arrowDown.mouseout"/>
                  </use>
                  <path fill="none" stroke="white" stroke-width="1.5" d="M0,-3.0v7 M-2.5,-0.5L0,-3.0L2.5,-0.5"/>
                </g>
                <g id="arrowLeft" xlink:href="#dirArrow" transform="rotate(270) translate(-36 17)" onmousedown="handlePan(-1,0)">
                  <use xlink:href="#rim" fill="#404040">
                        <set attributeName="fill" to="#808080" begin="arrowLeft.mouseover" end="arrowLeft.mouseout"/>
                  </use>
                  <path fill="none" stroke="white" stroke-width="1.5" d="M0,-3.0v7 M-2.5,-0.5L0,-3.0L2.5,-0.5"/>
                </g>
        </g>
        <svg viewBox="0 0 15 15" width="100%" height="30px" preserveAspectRatio="xMaxYMin meet">
         <g id="arrow_out" transform="scale(0.3 0.3)">
          <a xlink:href="SGamePlay__Duck_8hpp__incl_org.svg" target="_base">
           <rect id="button" ry="5" rx="5" y="6" x="6" height="38" width="38"
                fill="#f2f5e9" fill-opacity="0.5" stroke="#606060" stroke-width="1.0"/>
           <path id="arrow"
             d="M 11.500037,31.436501 C 11.940474,20.09759 22.043105,11.32322 32.158766,21.979434 L 37.068811,17.246167 C 37.068811,17.246167 37.088388,32 37.088388,32 L 22.160133,31.978069 C 22.160133,31.978069 26.997745,27.140456 26.997745,27.140456 C 18.528582,18.264221 13.291696,25.230495 11.500037,31.436501 z"
             style="fill:#404040;"/>
          </a>
         </g>
        </svg>
</svg>
