<?xml version="1.0" encoding="UTF-8" standalone="no"?>
<!DOCTYPE svg PUBLIC "-//W3C//DTD SVG 1.1//EN"
 "http://www.w3.org/Graphics/SVG/1.1/DTD/svg11.dtd">
<!-- Generated by graphviz version 7.0.5 (20221223.1930)
 -->
<!-- Title: /github/workspace/client/include/system/gameStates/SGamePlay.hpp Pages: 1 -->
<svg width="2303pt" height="489pt"
 viewBox="0.00 0.00 2303.34 489.00" xmlns="http://www.w3.org/2000/svg" xmlns:xlink="http://www.w3.org/1999/xlink">
<g id="graph0" class="graph" transform="scale(1 1) rotate(0) translate(4 485)">
<title>/github/workspace/client/include/system/gameStates/SGamePlay.hpp</title>
<!-- Node1 -->
<g id="node1" class="node">
<title>Node1</title>
<g id="a_node1"><a xlink:title=" ">
<polygon fill="#999999" stroke="#666666" points="2175.34,-481 2035.34,-481 2035.34,-440 2175.34,-440 2175.34,-481"/>
<text text-anchor="start" x="2043.34" y="-469" font-family="Helvetica,sans-Serif" font-size="10.00">/github/workspace/client</text>
<text text-anchor="start" x="2043.34" y="-458" font-family="Helvetica,sans-Serif" font-size="10.00">/include/system/gameStates</text>
<text text-anchor="middle" x="2105.34" y="-447" font-family="Helvetica,sans-Serif" font-size="10.00">/SGamePlay.hpp</text>
</a>
</g>
</g>
<!-- Node2 -->
<g id="node2" class="node">
<title>Node2</title>
<g id="a_node2"><a xlink:href="IGameState_8hpp.html" target="_top" xlink:title=" ">
<polygon fill="white" stroke="#666666" points="1747.84,-404 1660.84,-404 1660.84,-385 1747.84,-385 1747.84,-404"/>
<text text-anchor="middle" x="1704.34" y="-392" font-family="Helvetica,sans-Serif" font-size="10.00">IGameState.hpp</text>
</a>
</g>
</g>
<!-- Node1&#45;&gt;Node2 -->
<g id="edge1" class="edge">
<title>Node1&#45;&gt;Node2</title>
<path fill="none" stroke="#63b8ff" d="M2035.03,-448.28C1956.47,-435.74 1830.9,-415.7 1759.23,-404.26"/>
<polygon fill="#63b8ff" stroke="#63b8ff" points="1760.13,-400.86 1749.7,-402.74 1759.02,-407.77 1760.13,-400.86"/>
</g>
<!-- Node22 -->
<g id="node22" class="node">
<title>Node22</title>
<g id="a_node22"><a xlink:title=" ">
<polygon fill="#e0e0e0" stroke="#999999" points="2212.84,-19 2169.84,-19 2169.84,0 2212.84,0 2212.84,-19"/>
<text text-anchor="middle" x="2191.34" y="-7" font-family="Helvetica,sans-Serif" font-size="10.00">queue</text>
</a>
</g>
</g>
<!-- Node1&#45;&gt;Node22 -->
<g id="edge67" class="edge">
<title>Node1&#45;&gt;Node22</title>
<path fill="none" stroke="#63b8ff" d="M2108.82,-439.59C2111.95,-424.23 2117.29,-402.67 2125.34,-385 2159.65,-309.67 2229.34,-313.27 2229.34,-230.5 2229.34,-230.5 2229.34,-230.5 2229.34,-118.5 2229.34,-85.65 2213.5,-50.19 2202.27,-29.19"/>
<polygon fill="#63b8ff" stroke="#63b8ff" points="2205.46,-27.72 2197.52,-20.69 2199.35,-31.13 2205.46,-27.72"/>
</g>
<!-- Node23 -->
<g id="node23" class="node">
<title>Node23</title>
<g id="a_node23"><a xlink:title=" ">
<polygon fill="#e0e0e0" stroke="#999999" points="2295.34,-19 2233.34,-19 2233.34,0 2295.34,0 2295.34,-19"/>
<text text-anchor="middle" x="2264.34" y="-7" font-family="Helvetica,sans-Serif" font-size="10.00">Skaldi.hpp</text>
</a>
</g>
</g>
<!-- Node1&#45;&gt;Node23 -->
<g id="edge71" class="edge">
<title>Node1&#45;&gt;Node23</title>
<path fill="none" stroke="#63b8ff" d="M2175.74,-445.91C2201.64,-437.69 2229.28,-424.64 2248.34,-404 2268.33,-382.36 2267.34,-369.96 2267.34,-340.5 2267.34,-340.5 2267.34,-340.5 2267.34,-118.5 2267.34,-87.91 2266.12,-52.47 2265.24,-30.77"/>
<polygon fill="#63b8ff" stroke="#63b8ff" points="2268.75,-30.81 2264.82,-20.97 2261.75,-31.11 2268.75,-30.81"/>
</g>
<!-- Node30 -->
<g id="node30" class="node">
<title>Node30</title>
<g id="a_node30"><a xlink:title=" ">
<polygon fill="#e0e0e0" stroke="#999999" points="166.34,-74 128.34,-74 128.34,-55 166.34,-55 166.34,-74"/>
<text text-anchor="middle" x="147.34" y="-62" font-family="Helvetica,sans-Serif" font-size="10.00">array</text>
</a>
</g>
</g>
<!-- Node1&#45;&gt;Node30 -->
<g id="edge68" class="edge">
<title>Node1&#45;&gt;Node30</title>
<path fill="none" stroke="#63b8ff" d="M2035,-459.28C1669.14,-457.71 0.34,-444.79 0.34,-340.5 0.34,-340.5 0.34,-340.5 0.34,-173.5 0.34,-144.04 -1.03,-131.28 19.34,-110 45.08,-83.11 87.89,-72.46 116.84,-68.25"/>
<polygon fill="#63b8ff" stroke="#63b8ff" points="116.95,-71.76 126.44,-67.04 116.08,-64.82 116.95,-71.76"/>
</g>
<!-- Node41 -->
<g id="node41" class="node">
<title>Node41</title>
<g id="a_node41"><a xlink:title=" ">
<polygon fill="#e0e0e0" stroke="#999999" points="2174.84,-404 2133.84,-404 2133.84,-385 2174.84,-385 2174.84,-404"/>
<text text-anchor="middle" x="2154.34" y="-392" font-family="Helvetica,sans-Serif" font-size="10.00">string</text>
</a>
</g>
</g>
<!-- Node1&#45;&gt;Node41 -->
<g id="edge69" class="edge">
<title>Node1&#45;&gt;Node41</title>
<path fill="none" stroke="#63b8ff" d="M2120.58,-439.6C2127.05,-431.15 2134.53,-421.38 2140.81,-413.18"/>
<polygon fill="#63b8ff" stroke="#63b8ff" points="2143.49,-415.43 2146.79,-405.36 2137.93,-411.18 2143.49,-415.43"/>
</g>
<!-- Node42 -->
<g id="node42" class="node">
<title>Node42</title>
<g id="a_node42"><a xlink:title=" ">
<polygon fill="#e0e0e0" stroke="#999999" points="2239.34,-404 2193.34,-404 2193.34,-385 2239.34,-385 2239.34,-404"/>
<text text-anchor="middle" x="2216.34" y="-392" font-family="Helvetica,sans-Serif" font-size="10.00">cstring</text>
</a>
</g>
</g>
<!-- Node1&#45;&gt;Node42 -->
<g id="edge70" class="edge">
<title>Node1&#45;&gt;Node42</title>
<path fill="none" stroke="#63b8ff" d="M2139.85,-439.6C2156.5,-430 2176.11,-418.7 2191.3,-409.94"/>
<polygon fill="#63b8ff" stroke="#63b8ff" points="2192.8,-413.11 2199.72,-405.09 2189.3,-407.05 2192.8,-413.11"/>
</g>
<!-- Node3 -->
<g id="node3" class="node">
<title>Node3</title>
<g id="a_node3"><a xlink:href="EntitiesManager_8hpp.html" target="_top" xlink:title=" ">
<polygon fill="white" stroke="#666666" points="1415.34,-239 1275.34,-239 1275.34,-220 1415.34,-220 1415.34,-239"/>
<text text-anchor="middle" x="1345.34" y="-227" font-family="Helvetica,sans-Serif" font-size="10.00">Entities/EntitiesManager.hpp</text>
</a>
</g>
</g>
<!-- Node2&#45;&gt;Node3 -->
<g id="edge2" class="edge">
<title>Node2&#45;&gt;Node3</title>
<path fill="none" stroke="#63b8ff" d="M1684.53,-384.5C1624.83,-357.4 1446.41,-276.39 1375.18,-244.05"/>
<polygon fill="#63b8ff" stroke="#63b8ff" points="1377.02,-241.04 1366.47,-240.09 1374.13,-247.41 1377.02,-241.04"/>
</g>
<!-- Node27 -->
<g id="node27" class="node">
<title>Node27</title>
<g id="a_node27"><a xlink:href="Background_8hpp.html" target="_top" xlink:title=" ">
<polygon fill="white" stroke="#666666" points="2163.34,-74 2019.34,-74 2019.34,-55 2163.34,-55 2163.34,-74"/>
<text text-anchor="middle" x="2091.34" y="-62" font-family="Helvetica,sans-Serif" font-size="10.00">Components/Background.hpp</text>
</a>
</g>
</g>
<!-- Node2&#45;&gt;Node27 -->
<g id="edge60" class="edge">
<title>Node2&#45;&gt;Node27</title>
<path fill="none" stroke="#63b8ff" d="M1708.51,-384.77C1716.76,-366.69 1734.34,-323.64 1734.34,-285.5 1734.34,-285.5 1734.34,-285.5 1734.34,-173.5 1734.34,-142.52 1933.85,-97.5 2034.58,-76.75"/>
<polygon fill="#63b8ff" stroke="#63b8ff" points="2035.19,-80.2 2044.28,-74.76 2033.78,-73.34 2035.19,-80.2"/>
</g>
<!-- Node33 -->
<g id="node33" class="node">
<title>Node33</title>
<g id="a_node33"><a xlink:href="String_8hpp.html" target="_top" xlink:title=" ">
<polygon fill="white" stroke="#666666" points="549.84,-129 466.84,-129 466.84,-110 549.84,-110 549.84,-129"/>
<text text-anchor="middle" x="508.34" y="-117" font-family="Helvetica,sans-Serif" font-size="10.00">Utils/String.hpp</text>
</a>
</g>
</g>
<!-- Node2&#45;&gt;Node33 -->
<g id="edge46" class="edge">
<title>Node2&#45;&gt;Node33</title>
<path fill="none" stroke="#63b8ff" d="M1660.59,-391.83C1447.04,-383.42 524.34,-343.71 524.34,-285.5 524.34,-285.5 524.34,-285.5 524.34,-228.5 524.34,-197.44 517.79,-161.9 513.07,-140.34"/>
<polygon fill="#63b8ff" stroke="#63b8ff" points="516.55,-139.84 510.9,-130.87 509.72,-141.4 516.55,-139.84"/>
</g>
<!-- Node34 -->
<g id="node34" class="node">
<title>Node34</title>
<g id="a_node34"><a xlink:href="GameEngine_8hpp.html" target="_top" xlink:title=" ">
<polygon fill="white" stroke="#666666" points="1925.84,-349 1800.84,-349 1800.84,-330 1925.84,-330 1925.84,-349"/>
<text text-anchor="middle" x="1863.34" y="-337" font-family="Helvetica,sans-Serif" font-size="10.00">system/GameEngine.hpp</text>
</a>
</g>
</g>
<!-- Node2&#45;&gt;Node34 -->
<g id="edge50" class="edge">
<title>Node2&#45;&gt;Node34</title>
<path fill="none" stroke="#63b8ff" d="M1731.31,-384.51C1757.32,-375.84 1796.9,-362.65 1825.94,-352.97"/>
<polygon fill="#63b8ff" stroke="#63b8ff" points="1826.69,-356.41 1835.07,-349.92 1824.47,-349.77 1826.69,-356.41"/>
</g>
<!-- Node39 -->
<g id="node39" class="node">
<title>Node39</title>
<g id="a_node39"><a xlink:href="Centipede_8hpp.html" target="_top" xlink:title=" ">
<polygon fill="white" stroke="#666666" points="209.34,-184 73.34,-184 73.34,-165 209.34,-165 209.34,-184"/>
<text text-anchor="middle" x="141.34" y="-172" font-family="Helvetica,sans-Serif" font-size="10.00">Components/Centipede.hpp</text>
</a>
</g>
</g>
<!-- Node2&#45;&gt;Node39 -->
<g id="edge61" class="edge">
<title>Node2&#45;&gt;Node39</title>
<path fill="none" stroke="#63b8ff" d="M1660.37,-392.9C1458.28,-390.02 623.6,-376.52 510.34,-349 370.79,-315.09 220.68,-225.96 164.39,-190.43"/>
<polygon fill="#63b8ff" stroke="#63b8ff" points="166.59,-187.68 156.27,-185.26 162.83,-193.59 166.59,-187.68"/>
</g>
<!-- Node4 -->
<g id="node4" class="node">
<title>Node4</title>
<g id="a_node4"><a xlink:href="Engine_8hpp.html" target="_top" xlink:title=" ">
<polygon fill="white" stroke="#666666" points="1397.34,-129 1293.34,-129 1293.34,-110 1397.34,-110 1397.34,-129"/>
<text text-anchor="middle" x="1345.34" y="-117" font-family="Helvetica,sans-Serif" font-size="10.00">../Engine/Engine.hpp</text>
</a>
</g>
</g>
<!-- Node3&#45;&gt;Node4 -->
<g id="edge3" class="edge">
<title>Node3&#45;&gt;Node4</title>
<path fill="none" stroke="#63b8ff" d="M1341.43,-219.66C1338.23,-202.5 1337.74,-164.26 1339.95,-140.6"/>
<polygon fill="#63b8ff" stroke="#63b8ff" points="1343.38,-141.33 1341.21,-130.96 1336.44,-140.42 1343.38,-141.33"/>
</g>
<!-- Node25 -->
<g id="node25" class="node">
<title>Node25</title>
<g id="a_node25"><a xlink:href="IComponents_8hpp.html" target="_top" xlink:title=" ">
<polygon fill="white" stroke="#666666" points="551.34,-19 459.34,-19 459.34,0 551.34,0 551.34,-19"/>
<text text-anchor="middle" x="505.34" y="-7" font-family="Helvetica,sans-Serif" font-size="10.00">IComponents.hpp</text>
</a>
</g>
</g>
<!-- Node3&#45;&gt;Node25 -->
<g id="edge33" class="edge">
<title>Node3&#45;&gt;Node25</title>
<path fill="none" stroke="#63b8ff" d="M1275.09,-221.13C1077.97,-199.75 530.7,-135.33 479.34,-74 468.03,-60.49 478.46,-41.4 489.29,-27.69"/>
<polygon fill="#63b8ff" stroke="#63b8ff" points="491.75,-30.2 495.61,-20.33 486.44,-25.64 491.75,-30.2"/>
</g>
<!-- Node28 -->
<g id="node28" class="node">
<title>Node28</title>
<g id="a_node28"><a xlink:href="SparseArray_8hpp.html" target="_top" xlink:title=" ">
<polygon fill="white" stroke="#666666" points="379.84,-184 268.84,-184 268.84,-165 379.84,-165 379.84,-184"/>
<text text-anchor="middle" x="324.34" y="-172" font-family="Helvetica,sans-Serif" font-size="10.00">Utils/SparseArray.hpp</text>
</a>
</g>
</g>
<!-- Node3&#45;&gt;Node28 -->
<g id="edge34" class="edge">
<title>Node3&#45;&gt;Node28</title>
<path fill="none" stroke="#63b8ff" d="M1275.16,-224.86C1087.49,-215.11 575.8,-188.55 391.57,-178.99"/>
<polygon fill="#63b8ff" stroke="#63b8ff" points="391.85,-175.5 381.69,-178.48 391.49,-182.49 391.85,-175.5"/>
</g>
<!-- Node4&#45;&gt;Node3 -->
<g id="edge25" class="edge">
<title>Node4&#45;&gt;Node3</title>
<path fill="none" stroke="#63b8ff" d="M1349.28,-129.46C1352.47,-146.73 1352.95,-184.98 1350.72,-208.57"/>
<polygon fill="#63b8ff" stroke="#63b8ff" points="1347.29,-207.79 1349.45,-218.16 1354.23,-208.71 1347.29,-207.79"/>
</g>
<!-- Node5 -->
<g id="node5" class="node">
<title>Node5</title>
<g id="a_node5"><a xlink:title=" ">
<polygon fill="#e0e0e0" stroke="#999999" points="793.84,-74 704.84,-74 704.84,-55 793.84,-55 793.84,-74"/>
<text text-anchor="middle" x="749.34" y="-62" font-family="Helvetica,sans-Serif" font-size="10.00">SFML/Audio.hpp</text>
</a>
</g>
</g>
<!-- Node4&#45;&gt;Node5 -->
<g id="edge4" class="edge">
<title>Node4&#45;&gt;Node5</title>
<path fill="none" stroke="#63b8ff" d="M1292.89,-115.49C1197.92,-109.76 990.9,-95.98 805.43,-74.15"/>
<polygon fill="#63b8ff" stroke="#63b8ff" points="805.94,-70.69 795.6,-72.99 805.12,-77.64 805.94,-70.69"/>
</g>
<!-- Node6 -->
<g id="node6" class="node">
<title>Node6</title>
<g id="a_node6"><a xlink:title=" ">
<polygon fill="#e0e0e0" stroke="#999999" points="916.34,-74 812.34,-74 812.34,-55 916.34,-55 916.34,-74"/>
<text text-anchor="middle" x="864.34" y="-62" font-family="Helvetica,sans-Serif" font-size="10.00">SFML/Graphics.hpp</text>
</a>
</g>
</g>
<!-- Node4&#45;&gt;Node6 -->
<g id="edge5" class="edge">
<title>Node4&#45;&gt;Node6</title>
<path fill="none" stroke="#63b8ff" d="M1292.9,-113.5C1215.44,-106 1065.61,-91.01 927.74,-74.26"/>
<polygon fill="#63b8ff" stroke="#63b8ff" points="928.42,-70.82 918.07,-73.08 927.57,-77.76 928.42,-70.82"/>
</g>
<!-- Node7 -->
<g id="node7" class="node">
<title>Node7</title>
<g id="a_node7"><a xlink:title=" ">
<polygon fill="#e0e0e0" stroke="#999999" points="1035.84,-74 934.84,-74 934.84,-55 1035.84,-55 1035.84,-74"/>
<text text-anchor="middle" x="985.34" y="-62" font-family="Helvetica,sans-Serif" font-size="10.00">SFML/Network.hpp</text>
</a>
</g>
</g>
<!-- Node4&#45;&gt;Node7 -->
<g id="edge6" class="edge">
<title>Node4&#45;&gt;Node7</title>
<path fill="none" stroke="#63b8ff" d="M1293,-110.79C1227.88,-101.21 1116.84,-84.86 1047.48,-74.65"/>
<polygon fill="#63b8ff" stroke="#63b8ff" points="1048.2,-71.22 1037.79,-73.22 1047.18,-78.14 1048.2,-71.22"/>
</g>
<!-- Node8 -->
<g id="node8" class="node">
<title>Node8</title>
<g id="a_node8"><a xlink:title=" ">
<polygon fill="#e0e0e0" stroke="#999999" points="1152.84,-74 1053.84,-74 1053.84,-55 1152.84,-55 1152.84,-74"/>
<text text-anchor="middle" x="1103.34" y="-62" font-family="Helvetica,sans-Serif" font-size="10.00">SFML/Window.hpp</text>
</a>
</g>
</g>
<!-- Node4&#45;&gt;Node8 -->
<g id="edge7" class="edge">
<title>Node4&#45;&gt;Node8</title>
<path fill="none" stroke="#63b8ff" d="M1304.29,-109.51C1263.23,-100.52 1199.93,-86.65 1155.37,-76.9"/>
<polygon fill="#63b8ff" stroke="#63b8ff" points="1156.19,-73.49 1145.67,-74.77 1154.69,-80.33 1156.19,-73.49"/>
</g>
<!-- Node9 -->
<g id="node9" class="node">
<title>Node9</title>
<g id="a_node9"><a xlink:title=" ">
<polygon fill="#e0e0e0" stroke="#999999" points="1269.34,-74 1171.34,-74 1171.34,-55 1269.34,-55 1269.34,-74"/>
<text text-anchor="middle" x="1220.34" y="-62" font-family="Helvetica,sans-Serif" font-size="10.00">SFML/System.hpp</text>
</a>
</g>
</g>
<!-- Node4&#45;&gt;Node9 -->
<g id="edge8" class="edge">
<title>Node4&#45;&gt;Node9</title>
<path fill="none" stroke="#63b8ff" d="M1324.14,-109.51C1304.26,-101.08 1274.31,-88.38 1251.68,-78.79"/>
<polygon fill="#63b8ff" stroke="#63b8ff" points="1253.2,-75.63 1242.63,-74.95 1250.47,-82.07 1253.2,-75.63"/>
</g>
<!-- Node10 -->
<g id="node10" class="node">
<title>Node10</title>
<g id="a_node10"><a xlink:title=" ">
<polygon fill="#e0e0e0" stroke="#999999" points="432.34,-74 378.34,-74 378.34,-55 432.34,-55 432.34,-74"/>
<text text-anchor="middle" x="405.34" y="-62" font-family="Helvetica,sans-Serif" font-size="10.00">iostream</text>
</a>
</g>
</g>
<!-- Node4&#45;&gt;Node10 -->
<g id="edge9" class="edge">
<title>Node4&#45;&gt;Node10</title>
<path fill="none" stroke="#63b8ff" d="M1293.04,-116.96C1158.11,-112.74 787.28,-99.57 479.34,-74 467.86,-73.05 455.42,-71.73 444.06,-70.41"/>
<polygon fill="#63b8ff" stroke="#63b8ff" points="444.56,-66.95 434.22,-69.24 443.73,-73.9 444.56,-66.95"/>
</g>
<!-- Node11 -->
<g id="node11" class="node">
<title>Node11</title>
<g id="a_node11"><a xlink:title=" ">
<polygon fill="#e0e0e0" stroke="#999999" points="1337.34,-74 1287.34,-74 1287.34,-55 1337.34,-55 1337.34,-74"/>
<text text-anchor="middle" x="1312.34" y="-62" font-family="Helvetica,sans-Serif" font-size="10.00">fstream</text>
</a>
</g>
</g>
<!-- Node4&#45;&gt;Node11 -->
<g id="edge10" class="edge">
<title>Node4&#45;&gt;Node11</title>
<path fill="none" stroke="#63b8ff" d="M1339.89,-109.75C1335.57,-102.81 1329.38,-92.86 1323.96,-84.16"/>
<polygon fill="#63b8ff" stroke="#63b8ff" points="1326.97,-82.37 1318.71,-75.73 1321.02,-86.07 1326.97,-82.37"/>
</g>
<!-- Node12 -->
<g id="node12" class="node">
<title>Node12</title>
<g id="a_node12"><a xlink:title=" ">
<polygon fill="#e0e0e0" stroke="#999999" points="1403.34,-74 1355.34,-74 1355.34,-55 1403.34,-55 1403.34,-74"/>
<text text-anchor="middle" x="1379.34" y="-62" font-family="Helvetica,sans-Serif" font-size="10.00">string.h</text>
</a>
</g>
</g>
<!-- Node4&#45;&gt;Node12 -->
<g id="edge11" class="edge">
<title>Node4&#45;&gt;Node12</title>
<path fill="none" stroke="#63b8ff" d="M1350.96,-109.75C1355.46,-102.73 1361.93,-92.64 1367.56,-83.87"/>
<polygon fill="#63b8ff" stroke="#63b8ff" points="1370.33,-86.02 1372.79,-75.72 1364.44,-82.24 1370.33,-86.02"/>
</g>
<!-- Node13 -->
<g id="node13" class="node">
<title>Node13</title>
<g id="a_node13"><a xlink:title=" ">
<polygon fill="#e0e0e0" stroke="#999999" points="1471.34,-74 1421.34,-74 1421.34,-55 1471.34,-55 1471.34,-74"/>
<text text-anchor="middle" x="1446.34" y="-62" font-family="Helvetica,sans-Serif" font-size="10.00">unistd.h</text>
</a>
</g>
</g>
<!-- Node4&#45;&gt;Node13 -->
<g id="edge12" class="edge">
<title>Node4&#45;&gt;Node13</title>
<path fill="none" stroke="#63b8ff" d="M1362.48,-109.51C1378.1,-101.31 1401.42,-89.07 1419.51,-79.58"/>
<polygon fill="#63b8ff" stroke="#63b8ff" points="1420.89,-82.81 1428.12,-75.06 1417.64,-76.61 1420.89,-82.81"/>
</g>
<!-- Node14 -->
<g id="node14" class="node">
<title>Node14</title>
<g id="a_node14"><a xlink:title=" ">
<polygon fill="#e0e0e0" stroke="#999999" points="1554.84,-74 1489.84,-74 1489.84,-55 1554.84,-55 1554.84,-74"/>
<text text-anchor="middle" x="1522.34" y="-62" font-family="Helvetica,sans-Serif" font-size="10.00">sys/types.h</text>
</a>
</g>
</g>
<!-- Node4&#45;&gt;Node14 -->
<g id="edge13" class="edge">
<title>Node4&#45;&gt;Node14</title>
<path fill="none" stroke="#63b8ff" d="M1375.37,-109.51C1404.57,-100.76 1449.15,-87.42 1481.56,-77.71"/>
<polygon fill="#63b8ff" stroke="#63b8ff" points="1482.44,-81.1 1491.02,-74.88 1480.43,-74.4 1482.44,-81.1"/>
</g>
<!-- Node15 -->
<g id="node15" class="node">
<title>Node15</title>
<g id="a_node15"><a xlink:title=" ">
<polygon fill="#e0e0e0" stroke="#999999" points="360.34,-74 316.34,-74 316.34,-55 360.34,-55 360.34,-74"/>
<text text-anchor="middle" x="338.34" y="-62" font-family="Helvetica,sans-Serif" font-size="10.00">vector</text>
</a>
</g>
</g>
<!-- Node4&#45;&gt;Node15 -->
<g id="edge14" class="edge">
<title>Node4&#45;&gt;Node15</title>
<path fill="none" stroke="#63b8ff" d="M1293.04,-117.65C1120.76,-114.6 571.24,-102.94 371.78,-73.94"/>
<polygon fill="#63b8ff" stroke="#63b8ff" points="372.47,-70.5 362.06,-72.46 371.42,-77.42 372.47,-70.5"/>
</g>
<!-- Node16 -->
<g id="node16" class="node">
<title>Node16</title>
<g id="a_node16"><a xlink:title=" ">
<polygon fill="#e0e0e0" stroke="#999999" points="1629.34,-74 1573.34,-74 1573.34,-55 1629.34,-55 1629.34,-74"/>
<text text-anchor="middle" x="1601.34" y="-62" font-family="Helvetica,sans-Serif" font-size="10.00">stdbool.h</text>
</a>
</g>
</g>
<!-- Node4&#45;&gt;Node16 -->
<g id="edge15" class="edge">
<title>Node4&#45;&gt;Node16</title>
<path fill="none" stroke="#63b8ff" d="M1390.49,-109.54C1432.28,-101.19 1496.45,-88.22 1562.15,-74.22"/>
<polygon fill="#63b8ff" stroke="#63b8ff" points="1562.61,-77.7 1571.65,-72.19 1561.14,-70.86 1562.61,-77.7"/>
</g>
<!-- Node17 -->
<g id="node17" class="node">
<title>Node17</title>
<g id="a_node17"><a xlink:title=" ">
<polygon fill="#e0e0e0" stroke="#999999" points="1694.84,-74 1647.84,-74 1647.84,-55 1694.84,-55 1694.84,-74"/>
<text text-anchor="middle" x="1671.34" y="-62" font-family="Helvetica,sans-Serif" font-size="10.00">stdlib.h</text>
</a>
</g>
</g>
<!-- Node4&#45;&gt;Node17 -->
<g id="edge16" class="edge">
<title>Node4&#45;&gt;Node17</title>
<path fill="none" stroke="#63b8ff" d="M1397.76,-112.17C1454.24,-104.98 1546.99,-92.14 1636.44,-74.19"/>
<polygon fill="#63b8ff" stroke="#63b8ff" points="1637.03,-77.64 1646.13,-72.22 1635.64,-70.78 1637.03,-77.64"/>
</g>
<!-- Node18 -->
<g id="node18" class="node">
<title>Node18</title>
<g id="a_node18"><a xlink:title=" ">
<polygon fill="#e0e0e0" stroke="#999999" points="1771.34,-74 1713.34,-74 1713.34,-55 1771.34,-55 1771.34,-74"/>
<text text-anchor="middle" x="1742.34" y="-62" font-family="Helvetica,sans-Serif" font-size="10.00">exception</text>
</a>
</g>
</g>
<!-- Node4&#45;&gt;Node18 -->
<g id="edge17" class="edge">
<title>Node4&#45;&gt;Node18</title>
<path fill="none" stroke="#63b8ff" d="M1397.73,-113.5C1465.49,-106.69 1587.38,-93.32 1701.95,-74.07"/>
<polygon fill="#63b8ff" stroke="#63b8ff" points="1702.25,-77.57 1711.52,-72.45 1701.07,-70.67 1702.25,-77.57"/>
</g>
<!-- Node19 -->
<g id="node19" class="node">
<title>Node19</title>
<g id="a_node19"><a xlink:href="Window_8hpp.html" target="_top" xlink:title=" ">
<polygon fill="white" stroke="#666666" points="1890.84,-74 1789.84,-74 1789.84,-55 1890.84,-55 1890.84,-74"/>
<text text-anchor="middle" x="1840.34" y="-62" font-family="Helvetica,sans-Serif" font-size="10.00">Engine/Window.hpp</text>
</a>
</g>
</g>
<!-- Node4&#45;&gt;Node19 -->
<g id="edge18" class="edge">
<title>Node4&#45;&gt;Node19</title>
<path fill="none" stroke="#63b8ff" d="M1397.53,-113.28C1477.97,-105.61 1636.64,-90.42 1771.34,-74 1773.63,-73.72 1775.96,-73.43 1778.32,-73.13"/>
<polygon fill="#63b8ff" stroke="#63b8ff" points="1778.54,-76.63 1788,-71.85 1777.63,-69.69 1778.54,-76.63"/>
</g>
<!-- Node20 -->
<g id="node20" class="node">
<title>Node20</title>
<g id="a_node20"><a xlink:href="Event_8hpp.html" target="_top" xlink:title=" ">
<polygon fill="white" stroke="#666666" points="2001.34,-74 1909.34,-74 1909.34,-55 2001.34,-55 2001.34,-74"/>
<text text-anchor="middle" x="1955.34" y="-62" font-family="Helvetica,sans-Serif" font-size="10.00">Engine/Event.hpp</text>
</a>
</g>
</g>
<!-- Node4&#45;&gt;Node20 -->
<g id="edge20" class="edge">
<title>Node4&#45;&gt;Node20</title>
<path fill="none" stroke="#63b8ff" d="M1397.6,-115.27C1495,-109.31 1710.37,-95.21 1891.34,-74 1893.38,-73.76 1895.45,-73.5 1897.55,-73.23"/>
<polygon fill="#63b8ff" stroke="#63b8ff" points="1898,-76.7 1907.43,-71.88 1897.05,-69.77 1898,-76.7"/>
</g>
<!-- Node24 -->
<g id="node24" class="node">
<title>Node24</title>
<g id="a_node24"><a xlink:href="Bullets_8hpp.html" target="_top" xlink:title=" ">
<polygon fill="white" stroke="#666666" points="610.34,-74 488.34,-74 488.34,-55 610.34,-55 610.34,-74"/>
<text text-anchor="middle" x="549.34" y="-62" font-family="Helvetica,sans-Serif" font-size="10.00">Components/Bullets.hpp</text>
</a>
</g>
</g>
<!-- Node4&#45;&gt;Node24 -->
<g id="edge26" class="edge">
<title>Node4&#45;&gt;Node24</title>
<path fill="none" stroke="#63b8ff" d="M1293.09,-115.56C1177.48,-108.66 891.9,-90.74 653.34,-74 643.18,-73.29 632.51,-72.51 622.02,-71.74"/>
<polygon fill="#63b8ff" stroke="#63b8ff" points="622.49,-68.26 612.26,-71 621.97,-75.24 622.49,-68.26"/>
</g>
<!-- Node4&#45;&gt;Node27 -->
<g id="edge31" class="edge">
<title>Node4&#45;&gt;Node27</title>
<path fill="none" stroke="#63b8ff" d="M1397.73,-115.39C1509.05,-108.98 1776.82,-93.29 2001.34,-74 2003.51,-73.81 2005.71,-73.62 2007.93,-73.42"/>
<polygon fill="#63b8ff" stroke="#63b8ff" points="2008.03,-76.92 2017.66,-72.51 2007.38,-69.95 2008.03,-76.92"/>
</g>
<!-- Node19&#45;&gt;Node4 -->
<g id="edge19" class="edge">
<title>Node19&#45;&gt;Node4</title>
<path fill="none" stroke="#63b8ff" d="M1788.93,-74.05C1654.11,-90.48 1495.38,-105.66 1409,-113.31"/>
<polygon fill="#63b8ff" stroke="#63b8ff" points="1408.72,-109.82 1399.07,-114.19 1409.33,-116.8 1408.72,-109.82"/>
</g>
<!-- Node20&#45;&gt;Node4 -->
<g id="edge21" class="edge">
<title>Node20&#45;&gt;Node4</title>
<path fill="none" stroke="#63b8ff" d="M1909.07,-74.03C1728.44,-95.19 1513.63,-109.27 1408.91,-115.25"/>
<polygon fill="#63b8ff" stroke="#63b8ff" points="1408.91,-111.74 1399.12,-115.8 1409.3,-118.73 1408.91,-111.74"/>
</g>
<!-- Node21 -->
<g id="node21" class="node">
<title>Node21</title>
<g id="a_node21"><a xlink:title=" ">
<polygon fill="#e0e0e0" stroke="#999999" points="1310.84,-19 1281.84,-19 1281.84,0 1310.84,0 1310.84,-19"/>
<text text-anchor="middle" x="1296.34" y="-7" font-family="Helvetica,sans-Serif" font-size="10.00">list</text>
</a>
</g>
</g>
<!-- Node20&#45;&gt;Node21 -->
<g id="edge22" class="edge">
<title>Node20&#45;&gt;Node21</title>
<path fill="none" stroke="#63b8ff" d="M1908.87,-56.05C1905.99,-55.67 1903.13,-55.32 1900.34,-55 1677.53,-29.62 1406.74,-15.64 1322.57,-11.68"/>
<polygon fill="#63b8ff" stroke="#63b8ff" points="1322.99,-8.2 1312.84,-11.23 1322.67,-15.19 1322.99,-8.2"/>
</g>
<!-- Node20&#45;&gt;Node22 -->
<g id="edge23" class="edge">
<title>Node20&#45;&gt;Node22</title>
<path fill="none" stroke="#63b8ff" d="M1995.38,-54.51C2041.3,-44.2 2115.72,-27.48 2158.42,-17.89"/>
<polygon fill="#63b8ff" stroke="#63b8ff" points="2159.11,-21.33 2168.1,-15.72 2157.57,-14.5 2159.11,-21.33"/>
</g>
<!-- Node20&#45;&gt;Node23 -->
<g id="edge24" class="edge">
<title>Node20&#45;&gt;Node23</title>
<path fill="none" stroke="#63b8ff" d="M2001.73,-56.27C2052.82,-48.19 2137.66,-34.45 2222.08,-18.98"/>
<polygon fill="#63b8ff" stroke="#63b8ff" points="2222.48,-22.46 2231.68,-17.21 2221.22,-15.58 2222.48,-22.46"/>
</g>
<!-- Node24&#45;&gt;Node4 -->
<g id="edge27" class="edge">
<title>Node24&#45;&gt;Node4</title>
<path fill="none" stroke="#63b8ff" d="M610.69,-69.59C630.18,-71.02 651.72,-72.62 671.34,-74 895.9,-89.76 1162.13,-106.56 1281.73,-114.24"/>
<polygon fill="#63b8ff" stroke="#63b8ff" points="1281.47,-117.73 1291.68,-114.87 1281.92,-110.74 1281.47,-117.73"/>
</g>
<!-- Node24&#45;&gt;Node25 -->
<g id="edge28" class="edge">
<title>Node24&#45;&gt;Node25</title>
<path fill="none" stroke="#63b8ff" d="M542.08,-54.75C536.06,-47.5 527.33,-36.98 519.89,-28.02"/>
<polygon fill="#63b8ff" stroke="#63b8ff" points="522.81,-26.07 513.73,-20.61 517.43,-30.54 522.81,-26.07"/>
</g>
<!-- Node26 -->
<g id="node26" class="node">
<title>Node26</title>
<g id="a_node26"><a xlink:title=" ">
<polygon fill="#e0e0e0" stroke="#999999" points="191.34,-19 145.34,-19 145.34,0 191.34,0 191.34,-19"/>
<text text-anchor="middle" x="168.34" y="-7" font-family="Helvetica,sans-Serif" font-size="10.00">math.h</text>
</a>
</g>
</g>
<!-- Node24&#45;&gt;Node26 -->
<g id="edge30" class="edge">
<title>Node24&#45;&gt;Node26</title>
<path fill="none" stroke="#63b8ff" d="M488.13,-54.98C407.14,-43.72 267.11,-24.24 202.64,-15.27"/>
<polygon fill="#63b8ff" stroke="#63b8ff" points="203.4,-11.84 193.01,-13.93 202.44,-18.78 203.4,-11.84"/>
</g>
<!-- Node25&#45;&gt;Node4 -->
<g id="edge29" class="edge">
<title>Node25&#45;&gt;Node4</title>
<path fill="none" stroke="#63b8ff" d="M526.24,-19.44C560.72,-33.76 632.05,-61.47 695.34,-74 806.37,-95.98 1141.03,-110.79 1281.83,-116.21"/>
<polygon fill="#63b8ff" stroke="#63b8ff" points="1281.6,-119.7 1291.72,-116.58 1281.86,-112.71 1281.6,-119.7"/>
</g>
<!-- Node27&#45;&gt;Node4 -->
<g id="edge32" class="edge">
<title>Node27&#45;&gt;Node4</title>
<path fill="none" stroke="#63b8ff" d="M2019,-74.03C1795.37,-93.23 1528.94,-108.87 1409.12,-115.32"/>
<polygon fill="#63b8ff" stroke="#63b8ff" points="1408.95,-111.82 1399.15,-115.85 1409.32,-118.81 1408.95,-111.82"/>
</g>
<!-- Node28&#45;&gt;Node10 -->
<g id="edge35" class="edge">
<title>Node28&#45;&gt;Node10</title>
<path fill="none" stroke="#63b8ff" d="M346.41,-164.59C361.67,-157.28 381.16,-145.46 392.34,-129 401.06,-116.16 404.16,-98.72 405.16,-85.37"/>
<polygon fill="#63b8ff" stroke="#63b8ff" points="408.65,-85.74 405.54,-75.62 401.66,-85.47 408.65,-85.74"/>
</g>
<!-- Node28&#45;&gt;Node15 -->
<g id="edge38" class="edge">
<title>Node28&#45;&gt;Node15</title>
<path fill="none" stroke="#63b8ff" d="M340.88,-164.64C353.19,-157.02 369.09,-144.76 376.34,-129 384.1,-112.15 371.02,-94.11 358.14,-81.58"/>
<polygon fill="#63b8ff" stroke="#63b8ff" points="360.83,-79.29 351.05,-75.22 356.16,-84.5 360.83,-79.29"/>
</g>
<!-- Node29 -->
<g id="node29" class="node">
<title>Node29</title>
<g id="a_node29"><a xlink:title=" ">
<polygon fill="#e0e0e0" stroke="#999999" points="240.34,-74 184.34,-74 184.34,-55 240.34,-55 240.34,-74"/>
<text text-anchor="middle" x="212.34" y="-62" font-family="Helvetica,sans-Serif" font-size="10.00">algorithm</text>
</a>
</g>
</g>
<!-- Node28&#45;&gt;Node29 -->
<g id="edge36" class="edge">
<title>Node28&#45;&gt;Node29</title>
<path fill="none" stroke="#63b8ff" d="M268.44,-168.9C241.71,-163.56 211.98,-152.34 195.34,-129 185.83,-115.65 192.34,-97.3 199.89,-83.75"/>
<polygon fill="#63b8ff" stroke="#63b8ff" points="202.78,-85.74 205.08,-75.4 196.83,-82.04 202.78,-85.74"/>
</g>
<!-- Node28&#45;&gt;Node30 -->
<g id="edge37" class="edge">
<title>Node28&#45;&gt;Node30</title>
<path fill="none" stroke="#63b8ff" d="M268.47,-164.53C241.82,-158.09 210.73,-147.2 187.34,-129 172.56,-117.5 161.77,-98.89 155.14,-84.78"/>
<polygon fill="#63b8ff" stroke="#63b8ff" points="158.36,-83.41 151.17,-75.64 151.94,-86.2 158.36,-83.41"/>
</g>
<!-- Node31 -->
<g id="node31" class="node">
<title>Node31</title>
<g id="a_node31"><a xlink:title=" ">
<polygon fill="#e0e0e0" stroke="#999999" points="297.84,-74 258.84,-74 258.84,-55 297.84,-55 297.84,-74"/>
<text text-anchor="middle" x="278.34" y="-62" font-family="Helvetica,sans-Serif" font-size="10.00">utility</text>
</a>
</g>
</g>
<!-- Node28&#45;&gt;Node31 -->
<g id="edge39" class="edge">
<title>Node28&#45;&gt;Node31</title>
<path fill="none" stroke="#63b8ff" d="M322.44,-164.62C319.6,-152.11 313.66,-128.72 305.34,-110 301.36,-101.03 295.89,-91.66 290.92,-83.84"/>
<polygon fill="#63b8ff" stroke="#63b8ff" points="293.9,-82.01 285.47,-75.6 288.06,-85.87 293.9,-82.01"/>
</g>
<!-- Node32 -->
<g id="node32" class="node">
<title>Node32</title>
<g id="a_node32"><a xlink:href="Vectors_8hpp.html" target="_top" xlink:title=" ">
<polygon fill="white" stroke="#666666" points="296.34,-129 204.34,-129 204.34,-110 296.34,-110 296.34,-129"/>
<text text-anchor="middle" x="250.34" y="-117" font-family="Helvetica,sans-Serif" font-size="10.00">Utils/Vectors.hpp</text>
</a>
</g>
</g>
<!-- Node28&#45;&gt;Node32 -->
<g id="edge40" class="edge">
<title>Node28&#45;&gt;Node32</title>
<path fill="none" stroke="#63b8ff" d="M311.79,-164.51C300.88,-156.7 284.84,-145.21 271.88,-135.93"/>
<polygon fill="#63b8ff" stroke="#63b8ff" points="274.11,-133.22 263.94,-130.24 270.03,-138.91 274.11,-133.22"/>
</g>
<!-- Node32&#45;&gt;Node10 -->
<g id="edge41" class="edge">
<title>Node32&#45;&gt;Node10</title>
<path fill="none" stroke="#63b8ff" d="M276.64,-109.51C301.87,-100.88 340.23,-87.76 368.5,-78.1"/>
<polygon fill="#63b8ff" stroke="#63b8ff" points="369.42,-81.48 377.75,-74.94 367.15,-74.86 369.42,-81.48"/>
</g>
<!-- Node32&#45;&gt;Node15 -->
<g id="edge44" class="edge">
<title>Node32&#45;&gt;Node15</title>
<path fill="none" stroke="#63b8ff" d="M265.27,-109.51C278.62,-101.47 298.45,-89.53 314.08,-80.11"/>
<polygon fill="#63b8ff" stroke="#63b8ff" points="315.58,-83.3 322.34,-75.14 311.97,-77.3 315.58,-83.3"/>
</g>
<!-- Node32&#45;&gt;Node29 -->
<g id="edge42" class="edge">
<title>Node32&#45;&gt;Node29</title>
<path fill="none" stroke="#63b8ff" d="M244.07,-109.75C238.98,-102.66 231.65,-92.42 225.31,-83.59"/>
<polygon fill="#63b8ff" stroke="#63b8ff" points="228.31,-81.76 219.64,-75.67 222.62,-85.84 228.31,-81.76"/>
</g>
<!-- Node32&#45;&gt;Node30 -->
<g id="edge43" class="edge">
<title>Node32&#45;&gt;Node30</title>
<path fill="none" stroke="#63b8ff" d="M232.87,-109.51C216.94,-101.31 193.15,-89.07 174.7,-79.58"/>
<polygon fill="#63b8ff" stroke="#63b8ff" points="176.4,-76.51 165.9,-75.05 173.19,-82.74 176.4,-76.51"/>
</g>
<!-- Node32&#45;&gt;Node31 -->
<g id="edge45" class="edge">
<title>Node32&#45;&gt;Node31</title>
<path fill="none" stroke="#63b8ff" d="M254.97,-109.75C258.59,-102.88 263.77,-93.08 268.33,-84.45"/>
<polygon fill="#63b8ff" stroke="#63b8ff" points="271.33,-86.26 272.91,-75.78 265.15,-82.99 271.33,-86.26"/>
</g>
<!-- Node33&#45;&gt;Node10 -->
<g id="edge47" class="edge">
<title>Node33&#45;&gt;Node10</title>
<path fill="none" stroke="#63b8ff" d="M490.87,-109.51C474.94,-101.31 451.15,-89.07 432.7,-79.58"/>
<polygon fill="#63b8ff" stroke="#63b8ff" points="434.4,-76.51 423.9,-75.05 431.19,-82.74 434.4,-76.51"/>
</g>
<!-- Node33&#45;&gt;Node15 -->
<g id="edge49" class="edge">
<title>Node33&#45;&gt;Node15</title>
<path fill="none" stroke="#63b8ff" d="M479.5,-109.51C449.64,-100.2 403.03,-85.67 371.62,-75.87"/>
<polygon fill="#63b8ff" stroke="#63b8ff" points="372.83,-72.59 362.24,-72.95 370.74,-79.27 372.83,-72.59"/>
</g>
<!-- Node33&#45;&gt;Node21 -->
<g id="edge48" class="edge">
<title>Node33&#45;&gt;Node21</title>
<path fill="none" stroke="#63b8ff" d="M528.9,-109.59C562.83,-95.32 633.02,-67.67 695.34,-55 914.28,-10.48 1186.13,-9.27 1270.29,-10.09"/>
<polygon fill="#63b8ff" stroke="#63b8ff" points="1270.18,-13.59 1280.22,-10.21 1270.27,-6.59 1270.18,-13.59"/>
</g>
<!-- Node34&#45;&gt;Node22 -->
<g id="edge59" class="edge">
<title>Node34&#45;&gt;Node22</title>
<path fill="none" stroke="#63b8ff" d="M1926.2,-330.82C2021.44,-317.4 2191.34,-285.73 2191.34,-230.5 2191.34,-230.5 2191.34,-230.5 2191.34,-118.5 2191.34,-87.92 2191.34,-52.48 2191.34,-30.77"/>
<polygon fill="#63b8ff" stroke="#63b8ff" points="2194.84,-30.97 2191.34,-20.97 2187.84,-30.97 2194.84,-30.97"/>
</g>
<!-- Node35 -->
<g id="node35" class="node">
<title>Node35</title>
<g id="a_node35"><a xlink:href="States_8hpp.html" target="_top" xlink:title=" ">
<polygon fill="white" stroke="#666666" points="1902.84,-294 1783.84,-294 1783.84,-275 1902.84,-275 1902.84,-294"/>
<text text-anchor="middle" x="1843.34" y="-282" font-family="Helvetica,sans-Serif" font-size="10.00">gameStates/States.hpp</text>
</a>
</g>
</g>
<!-- Node34&#45;&gt;Node35 -->
<g id="edge51" class="edge">
<title>Node34&#45;&gt;Node35</title>
<path fill="none" stroke="#63b8ff" d="M1860.04,-329.75C1857.51,-323.04 1853.91,-313.52 1850.71,-305.02"/>
<polygon fill="#63b8ff" stroke="#63b8ff" points="1854.06,-303.98 1847.25,-295.86 1847.51,-306.45 1854.06,-303.98"/>
</g>
<!-- Node35&#45;&gt;Node1 -->
<g id="edge58" class="edge">
<title>Node35&#45;&gt;Node1</title>
<path fill="none" stroke="#63b8ff" d="M1864.8,-294.42C1883.87,-302.67 1912.21,-315.79 1935.34,-330 1986.35,-361.32 2040.58,-404.6 2073.72,-432.32"/>
<polygon fill="#63b8ff" stroke="#63b8ff" points="2071.42,-434.96 2081.33,-438.73 2075.93,-429.61 2071.42,-434.96"/>
</g>
<!-- Node35&#45;&gt;Node2 -->
<g id="edge52" class="edge">
<title>Node35&#45;&gt;Node2</title>
<path fill="none" stroke="#63b8ff" d="M1831.81,-294.46C1808.26,-312.76 1754.36,-354.64 1724.75,-377.65"/>
<polygon fill="#63b8ff" stroke="#63b8ff" points="1722.66,-374.83 1716.91,-383.73 1726.96,-380.36 1722.66,-374.83"/>
</g>
<!-- Node36 -->
<g id="node36" class="node">
<title>Node36</title>
<g id="a_node36"><a xlink:href="SMenu_8hpp.html" target="_top" xlink:title=" ">
<polygon fill="white" stroke="#666666" points="1705.84,-239 1640.84,-239 1640.84,-220 1705.84,-220 1705.84,-239"/>
<text text-anchor="middle" x="1673.34" y="-227" font-family="Helvetica,sans-Serif" font-size="10.00">SMenu.hpp</text>
</a>
</g>
</g>
<!-- Node35&#45;&gt;Node36 -->
<g id="edge53" class="edge">
<title>Node35&#45;&gt;Node36</title>
<path fill="none" stroke="#63b8ff" d="M1814.5,-274.51C1786.58,-265.8 1744.01,-252.53 1712.92,-242.84"/>
<polygon fill="#63b8ff" stroke="#63b8ff" points="1714.07,-239.53 1703.48,-239.9 1711.99,-246.21 1714.07,-239.53"/>
</g>
<!-- Node36&#45;&gt;Node2 -->
<g id="edge54" class="edge">
<title>Node36&#45;&gt;Node2</title>
<path fill="none" stroke="#63b8ff" d="M1675.02,-239.31C1679.82,-264.57 1693.74,-337.74 1700.53,-373.44"/>
<polygon fill="#63b8ff" stroke="#63b8ff" points="1697.09,-374.08 1702.39,-383.25 1703.96,-372.77 1697.09,-374.08"/>
</g>
<!-- Node37 -->
<g id="node37" class="node">
<title>Node37</title>
<g id="a_node37"><a xlink:href="Bouton_8hpp.html" target="_top" xlink:title=" ">
<polygon fill="white" stroke="#666666" points="1678.84,-184 1555.84,-184 1555.84,-165 1678.84,-165 1678.84,-184"/>
<text text-anchor="middle" x="1617.34" y="-172" font-family="Helvetica,sans-Serif" font-size="10.00">Components/Bouton.hpp</text>
</a>
</g>
</g>
<!-- Node36&#45;&gt;Node37 -->
<g id="edge55" class="edge">
<title>Node36&#45;&gt;Node37</title>
<path fill="none" stroke="#63b8ff" d="M1663.84,-219.51C1655.91,-212 1644.39,-201.1 1634.81,-192.03"/>
<polygon fill="#63b8ff" stroke="#63b8ff" points="1637.47,-189.73 1627.8,-185.4 1632.66,-194.81 1637.47,-189.73"/>
</g>
<!-- Node37&#45;&gt;Node4 -->
<g id="edge56" class="edge">
<title>Node37&#45;&gt;Node4</title>
<path fill="none" stroke="#63b8ff" d="M1571.2,-164.51C1524.66,-155.44 1452.7,-141.42 1402.55,-131.65"/>
<polygon fill="#63b8ff" stroke="#63b8ff" points="1403.23,-128.21 1392.74,-129.74 1401.89,-135.08 1403.23,-128.21"/>
</g>
<!-- Node38 -->
<g id="node38" class="node">
<title>Node38</title>
<g id="a_node38"><a xlink:title=" ">
<polygon fill="#e0e0e0" stroke="#999999" points="1646.84,-129 1587.84,-129 1587.84,-110 1646.84,-110 1646.84,-129"/>
<text text-anchor="middle" x="1617.34" y="-117" font-family="Helvetica,sans-Serif" font-size="10.00">functional</text>
</a>
</g>
</g>
<!-- Node37&#45;&gt;Node38 -->
<g id="edge57" class="edge">
<title>Node37&#45;&gt;Node38</title>
<path fill="none" stroke="#63b8ff" d="M1617.34,-164.75C1617.34,-158.27 1617.34,-149.16 1617.34,-140.9"/>
<polygon fill="#63b8ff" stroke="#63b8ff" points="1620.84,-140.96 1617.34,-130.96 1613.84,-140.96 1620.84,-140.96"/>
</g>
<!-- Node39&#45;&gt;Node4 -->
<g id="edge62" class="edge">
<title>Node39&#45;&gt;Node4</title>
<path fill="none" stroke="#63b8ff" d="M209.64,-168.22C225.92,-167.06 243.24,-165.91 259.34,-165 647.51,-143.07 1114.31,-127.62 1281.74,-122.42"/>
<polygon fill="#63b8ff" stroke="#63b8ff" points="1281.64,-125.92 1291.53,-122.12 1281.42,-118.93 1281.64,-125.92"/>
</g>
<!-- Node39&#45;&gt;Node15 -->
<g id="edge65" class="edge">
<title>Node39&#45;&gt;Node15</title>
<path fill="none" stroke="#63b8ff" d="M209.71,-167.62C241.59,-161.91 278.35,-150.75 305.34,-129 319.25,-117.79 327.94,-99.15 332.89,-84.96"/>
<polygon fill="#63b8ff" stroke="#63b8ff" points="336.12,-86.37 335.75,-75.78 329.44,-84.29 336.12,-86.37"/>
</g>
<!-- Node39&#45;&gt;Node25 -->
<g id="edge63" class="edge">
<title>Node39&#45;&gt;Node25</title>
<path fill="none" stroke="#63b8ff" d="M135.47,-164.76C121.77,-143.19 90.94,-86.87 119.34,-55 140.79,-30.94 345.38,-18 447.68,-12.99"/>
<polygon fill="#63b8ff" stroke="#63b8ff" points="447.71,-16.49 457.53,-12.52 447.37,-9.5 447.71,-16.49"/>
</g>
<!-- Node39&#45;&gt;Node26 -->
<g id="edge64" class="edge">
<title>Node39&#45;&gt;Node26</title>
<path fill="none" stroke="#63b8ff" d="M78.9,-164.54C42.07,-156.03 5.2,-139.9 19.34,-110 41.46,-63.24 97.71,-35.24 134.42,-21.36"/>
<polygon fill="#63b8ff" stroke="#63b8ff" points="135.49,-24.7 143.71,-18.02 133.11,-18.12 135.49,-24.7"/>
</g>
<!-- Node40 -->
<g id="node40" class="node">
<title>Node40</title>
<g id="a_node40"><a xlink:title=" ">
<polygon fill="#e0e0e0" stroke="#999999" points="72.34,-129 28.34,-129 28.34,-110 72.34,-110 72.34,-129"/>
<text text-anchor="middle" x="50.34" y="-117" font-family="Helvetica,sans-Serif" font-size="10.00">cmath</text>
</a>
</g>
</g>
<!-- Node39&#45;&gt;Node40 -->
<g id="edge66" class="edge">
<title>Node39&#45;&gt;Node40</title>
<path fill="none" stroke="#63b8ff" d="M125.91,-164.51C112.1,-156.47 91.6,-144.53 75.43,-135.11"/>
<polygon fill="#63b8ff" stroke="#63b8ff" points="77.26,-132.13 66.86,-130.12 73.74,-138.18 77.26,-132.13"/>
</g>
</g>
</svg>
