<?xml version="1.0" encoding="UTF-8" standalone="no"?>
<!DOCTYPE svg PUBLIC "-//W3C//DTD SVG 1.1//EN"
 "http://www.w3.org/Graphics/SVG/1.1/DTD/svg11.dtd">
<!-- Generated by graphviz version 7.0.5 (20221223.1930)
 -->
<!-- Title: /github/workspace/client/include/system/gameStates/SGamePlay.hpp Pages: 1 -->
<!--zoomable 324 -->
<svg id="main" version="1.1" xmlns="http://www.w3.org/2000/svg" xmlns:xlink="http://www.w3.org/1999/xlink" xml:space="preserve" onload="init(evt)">
<style type="text/css"><![CDATA[
.edge:hover path { stroke: red; }
.edge:hover polygon { stroke: red; fill: red; }
]]></style>
<script type="text/javascript"><![CDATA[
var edges = document.getElementsByTagName('g');
if (edges && edges.length) {
  for (var i=0;i<edges.length;i++) {
    if (edges[i].id.substr(0,4)=='edge') {
      edges[i].setAttribute('class','edge');
    }
  }
}
]]></script>
        <defs>
                <circle id="rim" cx="0" cy="0" r="7"/>
                <circle id="rim2" cx="0" cy="0" r="3.5"/>
                <g id="zoomPlus">
                        <use xlink:href="#rim" fill="#404040">
                                <set attributeName="fill" to="#808080" begin="zoomplus.mouseover" end="zoomplus.mouseout"/>
                        </use>
                        <path d="M-4,0h8M0,-4v8" fill="none" stroke="white" stroke-width="1.5" pointer-events="none"/>
                </g>
                <g id="zoomMin">
                        <use xlink:href="#rim" fill="#404040">
                                <set attributeName="fill" to="#808080" begin="zoomminus.mouseover" end="zoomminus.mouseout"/>
                        </use>
                        <path d="M-4,0h8" fill="none" stroke="white" stroke-width="1.5" pointer-events="none"/>
                </g>
                <g id="dirArrow">
                        <path fill="none" stroke="white" stroke-width="1.5" d="M0,-3.0v7 M-2.5,-0.5L0,-3.0L2.5,-0.5"/>
                </g>
               <g id="resetDef">
                       <use xlink:href="#rim2" fill="#404040">
                               <set attributeName="fill" to="#808080" begin="reset.mouseover" end="reset.mouseout"/>
                       </use>
               </g>
        </defs>

<script type="text/javascript">
var viewWidth = 1969;
var viewHeight = 324;
var sectionId = 'dynsection-0';
</script>
<script xlink:href="svgpan.js"/>
<svg id="graph" class="graph">
<g id="viewport">
<title>/github/workspace/client/include/system/gameStates/SGamePlay.hpp</title>
<!-- Node1 -->
<g id="node1" class="node">
<title>Node1</title>
<g id="a_node1"><a xlink:title=" ">
<polygon fill="#999999" stroke="#666666" points="1897,-316 1757,-316 1757,-275 1897,-275 1897,-316"/>
<text text-anchor="start" x="1765" y="-304" font-family="Helvetica,sans-Serif" font-size="10.00">/github/workspace/client</text>
<text text-anchor="start" x="1765" y="-293" font-family="Helvetica,sans-Serif" font-size="10.00">/include/system/gameStates</text>
<text text-anchor="middle" x="1827" y="-282" font-family="Helvetica,sans-Serif" font-size="10.00">/SGamePlay.hpp</text>
</a>
</g>
</g>
<!-- Node2 -->
<g id="node2" class="node">
<title>Node2</title>
<g id="a_node2"><a xlink:href="IGameState_8hpp.html" target="_top" xlink:title=" ">
<polygon fill="white" stroke="#666666" points="1328.5,-239 1151.5,-239 1151.5,-220 1328.5,-220 1328.5,-239"/>
<text text-anchor="middle" x="1240" y="-227" font-family="Helvetica,sans-Serif" font-size="10.00">system/gameStates/IGameState.hpp</text>
</a>
</g>
</g>
<!-- Node1&#45;&gt;Node2 -->
<g id="edge1" class="edge">
<title>Node1&#45;&gt;Node2</title>
<path fill="none" stroke="#63b8ff" d="M1756.78,-286.84C1651.09,-275.32 1451.01,-253.51 1333.22,-240.66"/>
<polygon fill="#63b8ff" stroke="#63b8ff" points="1333.9,-237.22 1323.58,-239.61 1333.15,-244.18 1333.9,-237.22"/>
</g>
<!-- Node23 -->
<g id="node23" class="node">
<title>Node23</title>
<g id="a_node23"><a xlink:title=" ">
<polygon fill="#e0e0e0" stroke="#999999" points="1777.5,-19 1734.5,-19 1734.5,0 1777.5,0 1777.5,-19"/>
<text text-anchor="middle" x="1756" y="-7" font-family="Helvetica,sans-Serif" font-size="10.00">queue</text>
</a>
</g>
</g>
<!-- Node1&#45;&gt;Node23 -->
<g id="edge37" class="edge">
<title>Node1&#45;&gt;Node23</title>
<path fill="none" stroke="#63b8ff" d="M1816.62,-274.9C1805.37,-251.8 1789,-211.93 1789,-175.5 1789,-175.5 1789,-175.5 1789,-118.5 1789,-86.24 1775.37,-50.84 1765.63,-29.66"/>
<polygon fill="#63b8ff" stroke="#63b8ff" points="1768.87,-28.32 1761.38,-20.83 1762.56,-31.36 1768.87,-28.32"/>
</g>
<!-- Node24 -->
<g id="node24" class="node">
<title>Node24</title>
<g id="a_node24"><a xlink:title=" ">
<polygon fill="#e0e0e0" stroke="#999999" points="1858,-19 1796,-19 1796,0 1858,0 1858,-19"/>
<text text-anchor="middle" x="1827" y="-7" font-family="Helvetica,sans-Serif" font-size="10.00">Skaldi.hpp</text>
</a>
</g>
</g>
<!-- Node1&#45;&gt;Node24 -->
<g id="edge40" class="edge">
<title>Node1&#45;&gt;Node24</title>
<path fill="none" stroke="#63b8ff" d="M1827,-274.71C1827,-251.09 1827,-210.41 1827,-175.5 1827,-175.5 1827,-175.5 1827,-118.5 1827,-87.92 1827,-52.48 1827,-30.77"/>
<polygon fill="#63b8ff" stroke="#63b8ff" points="1830.5,-30.97 1827,-20.97 1823.5,-30.97 1830.5,-30.97"/>
</g>
<!-- Node30 -->
<g id="node30" class="node">
<title>Node30</title>
<g id="a_node30"><a xlink:title=" ">
<polygon fill="#e0e0e0" stroke="#999999" points="1896.5,-239 1855.5,-239 1855.5,-220 1896.5,-220 1896.5,-239"/>
<text text-anchor="middle" x="1876" y="-227" font-family="Helvetica,sans-Serif" font-size="10.00">string</text>
</a>
</g>
</g>
<!-- Node1&#45;&gt;Node30 -->
<g id="edge38" class="edge">
<title>Node1&#45;&gt;Node30</title>
<path fill="none" stroke="#63b8ff" d="M1842.24,-274.6C1848.71,-266.15 1856.19,-256.38 1862.46,-248.18"/>
<polygon fill="#63b8ff" stroke="#63b8ff" points="1865.15,-250.43 1868.45,-240.36 1859.59,-246.18 1865.15,-250.43"/>
</g>
<!-- Node31 -->
<g id="node31" class="node">
<title>Node31</title>
<g id="a_node31"><a xlink:title=" ">
<polygon fill="#e0e0e0" stroke="#999999" points="1961,-239 1915,-239 1915,-220 1961,-220 1961,-239"/>
<text text-anchor="middle" x="1938" y="-227" font-family="Helvetica,sans-Serif" font-size="10.00">cstring</text>
</a>
</g>
</g>
<!-- Node1&#45;&gt;Node31 -->
<g id="edge39" class="edge">
<title>Node1&#45;&gt;Node31</title>
<path fill="none" stroke="#63b8ff" d="M1861.51,-274.6C1878.16,-265 1897.77,-253.7 1912.96,-244.94"/>
<polygon fill="#63b8ff" stroke="#63b8ff" points="1914.46,-248.11 1921.37,-240.09 1910.96,-242.05 1914.46,-248.11"/>
</g>
<!-- Node3 -->
<g id="node3" class="node">
<title>Node3</title>
<g id="a_node3"><a xlink:href="EntitiesManager_8hpp.html" target="_top" xlink:title=" ">
<polygon fill="white" stroke="#666666" points="809,-184 669,-184 669,-165 809,-165 809,-184"/>
<text text-anchor="middle" x="739" y="-172" font-family="Helvetica,sans-Serif" font-size="10.00">Entities/EntitiesManager.hpp</text>
</a>
</g>
</g>
<!-- Node2&#45;&gt;Node3 -->
<g id="edge2" class="edge">
<title>Node2&#45;&gt;Node3</title>
<path fill="none" stroke="#63b8ff" d="M1155.01,-219.51C1061.62,-209.63 912.66,-193.87 820.62,-184.13"/>
<polygon fill="#63b8ff" stroke="#63b8ff" points="821.23,-180.68 810.92,-183.11 820.49,-187.64 821.23,-180.68"/>
</g>
<!-- Node29 -->
<g id="node29" class="node">
<title>Node29</title>
<g id="a_node29"><a xlink:title=" ">
<polygon fill="#e0e0e0" stroke="#999999" points="1281.5,-184 1198.5,-184 1198.5,-165 1281.5,-165 1281.5,-184"/>
<text text-anchor="middle" x="1240" y="-172" font-family="Helvetica,sans-Serif" font-size="10.00">Utils/String.hpp</text>
</a>
</g>
</g>
<!-- Node2&#45;&gt;Node29 -->
<g id="edge36" class="edge">
<title>Node2&#45;&gt;Node29</title>
<path fill="none" stroke="#63b8ff" d="M1240,-219.75C1240,-213.27 1240,-204.16 1240,-195.9"/>
<polygon fill="#63b8ff" stroke="#63b8ff" points="1243.5,-195.96 1240,-185.96 1236.5,-195.96 1243.5,-195.96"/>
</g>
<!-- Node4 -->
<g id="node4" class="node">
<title>Node4</title>
<g id="a_node4"><a xlink:href="Engine_8hpp.html" target="_top" xlink:title=" ">
<polygon fill="white" stroke="#666666" points="791,-129 687,-129 687,-110 791,-110 791,-129"/>
<text text-anchor="middle" x="739" y="-117" font-family="Helvetica,sans-Serif" font-size="10.00">../Engine/Engine.hpp</text>
</a>
</g>
</g>
<!-- Node3&#45;&gt;Node4 -->
<g id="edge3" class="edge">
<title>Node3&#45;&gt;Node4</title>
<path fill="none" stroke="#63b8ff" d="M733.83,-164.75C732.42,-158.19 731.96,-148.95 732.43,-140.6"/>
<polygon fill="#63b8ff" stroke="#63b8ff" points="735.87,-141.3 733.61,-130.94 728.92,-140.45 735.87,-141.3"/>
</g>
<!-- Node15 -->
<g id="node15" class="node">
<title>Node15</title>
<g id="a_node15"><a xlink:title=" ">
<polygon fill="#e0e0e0" stroke="#999999" points="44,-74 0,-74 0,-55 44,-55 44,-74"/>
<text text-anchor="middle" x="22" y="-62" font-family="Helvetica,sans-Serif" font-size="10.00">vector</text>
</a>
</g>
</g>
<!-- Node3&#45;&gt;Node15 -->
<g id="edge35" class="edge">
<title>Node3&#45;&gt;Node15</title>
<path fill="none" stroke="#63b8ff" d="M668.88,-166.23C546.17,-152.87 284.55,-121.58 55.5,-74.3"/>
<polygon fill="#63b8ff" stroke="#63b8ff" points="56.26,-70.88 45.75,-72.27 54.83,-77.73 56.26,-70.88"/>
</g>
<!-- Node28 -->
<g id="node28" class="node">
<title>Node28</title>
<g id="a_node28"><a xlink:title=" ">
<polygon fill="#e0e0e0" stroke="#999999" points="847,-129 809,-129 809,-110 847,-110 847,-129"/>
<text text-anchor="middle" x="828" y="-117" font-family="Helvetica,sans-Serif" font-size="10.00">array</text>
</a>
</g>
</g>
<!-- Node3&#45;&gt;Node28 -->
<g id="edge34" class="edge">
<title>Node3&#45;&gt;Node28</title>
<path fill="none" stroke="#63b8ff" d="M754.1,-164.51C767.6,-156.47 787.65,-144.53 803.46,-135.11"/>
<polygon fill="#63b8ff" stroke="#63b8ff" points="805.02,-138.26 811.82,-130.13 801.44,-132.24 805.02,-138.26"/>
</g>
<!-- Node4&#45;&gt;Node3 -->
<g id="edge30" class="edge">
<title>Node4&#45;&gt;Node3</title>
<path fill="none" stroke="#63b8ff" d="M744.21,-129.44C745.58,-135.97 746.04,-145.1 745.57,-153.35"/>
<polygon fill="#63b8ff" stroke="#63b8ff" points="742.1,-152.89 744.35,-163.25 749.05,-153.75 742.1,-152.89"/>
</g>
<!-- Node5 -->
<g id="node5" class="node">
<title>Node5</title>
<g id="a_node5"><a xlink:title=" ">
<polygon fill="#e0e0e0" stroke="#999999" points="969.5,-74 880.5,-74 880.5,-55 969.5,-55 969.5,-74"/>
<text text-anchor="middle" x="925" y="-62" font-family="Helvetica,sans-Serif" font-size="10.00">SFML/Audio.hpp</text>
</a>
</g>
</g>
<!-- Node4&#45;&gt;Node5 -->
<g id="edge4" class="edge">
<title>Node4&#45;&gt;Node5</title>
<path fill="none" stroke="#63b8ff" d="M770.55,-109.51C801.37,-100.73 848.5,-87.3 882.59,-77.59"/>
<polygon fill="#63b8ff" stroke="#63b8ff" points="883.49,-80.97 892.15,-74.86 881.57,-74.24 883.49,-80.97"/>
</g>
<!-- Node6 -->
<g id="node6" class="node">
<title>Node6</title>
<g id="a_node6"><a xlink:title=" ">
<polygon fill="#e0e0e0" stroke="#999999" points="1092,-74 988,-74 988,-55 1092,-55 1092,-74"/>
<text text-anchor="middle" x="1040" y="-62" font-family="Helvetica,sans-Serif" font-size="10.00">SFML/Graphics.hpp</text>
</a>
</g>
</g>
<!-- Node4&#45;&gt;Node6 -->
<g id="edge5" class="edge">
<title>Node4&#45;&gt;Node6</title>
<path fill="none" stroke="#63b8ff" d="M790.06,-109.51C841.92,-100.38 922.3,-86.23 977.83,-76.45"/>
<polygon fill="#63b8ff" stroke="#63b8ff" points="978.21,-79.93 987.45,-74.75 976.99,-73.04 978.21,-79.93"/>
</g>
<!-- Node7 -->
<g id="node7" class="node">
<title>Node7</title>
<g id="a_node7"><a xlink:title=" ">
<polygon fill="#e0e0e0" stroke="#999999" points="1211.5,-74 1110.5,-74 1110.5,-55 1211.5,-55 1211.5,-74"/>
<text text-anchor="middle" x="1161" y="-62" font-family="Helvetica,sans-Serif" font-size="10.00">SFML/Network.hpp</text>
</a>
</g>
</g>
<!-- Node4&#45;&gt;Node7 -->
<g id="edge6" class="edge">
<title>Node4&#45;&gt;Node7</title>
<path fill="none" stroke="#63b8ff" d="M791.23,-111.15C794.2,-110.76 797.14,-110.37 800,-110 930.09,-93.16 965.55,-91.53 1099.19,-74.21"/>
<polygon fill="#63b8ff" stroke="#63b8ff" points="1099.31,-77.72 1108.77,-72.96 1098.4,-70.78 1099.31,-77.72"/>
</g>
<!-- Node8 -->
<g id="node8" class="node">
<title>Node8</title>
<g id="a_node8"><a xlink:title=" ">
<polygon fill="#e0e0e0" stroke="#999999" points="1328.5,-74 1229.5,-74 1229.5,-55 1328.5,-55 1328.5,-74"/>
<text text-anchor="middle" x="1279" y="-62" font-family="Helvetica,sans-Serif" font-size="10.00">SFML/Window.hpp</text>
</a>
</g>
</g>
<!-- Node4&#45;&gt;Node8 -->
<g id="edge7" class="edge">
<title>Node4&#45;&gt;Node8</title>
<path fill="none" stroke="#63b8ff" d="M791.22,-111.04C794.19,-110.67 797.13,-110.32 800,-110 982.97,-89.44 1032.53,-95.38 1217.8,-74.31"/>
<polygon fill="#63b8ff" stroke="#63b8ff" points="1218,-77.81 1227.53,-73.19 1217.2,-70.85 1218,-77.81"/>
</g>
<!-- Node9 -->
<g id="node9" class="node">
<title>Node9</title>
<g id="a_node9"><a xlink:title=" ">
<polygon fill="#e0e0e0" stroke="#999999" points="1445,-74 1347,-74 1347,-55 1445,-55 1445,-74"/>
<text text-anchor="middle" x="1396" y="-62" font-family="Helvetica,sans-Serif" font-size="10.00">SFML/System.hpp</text>
</a>
</g>
</g>
<!-- Node4&#45;&gt;Node9 -->
<g id="edge8" class="edge">
<title>Node4&#45;&gt;Node9</title>
<path fill="none" stroke="#63b8ff" d="M791.21,-110.97C794.18,-110.62 797.13,-110.3 800,-110 1034.66,-85.83 1097.74,-98.97 1335.23,-74.21"/>
<polygon fill="#63b8ff" stroke="#63b8ff" points="1335.59,-77.69 1345.17,-73.16 1334.86,-70.73 1335.59,-77.69"/>
</g>
<!-- Node10 -->
<g id="node10" class="node">
<title>Node10</title>
<g id="a_node10"><a xlink:title=" ">
<polygon fill="#e0e0e0" stroke="#999999" points="1517,-74 1463,-74 1463,-55 1517,-55 1517,-74"/>
<text text-anchor="middle" x="1490" y="-62" font-family="Helvetica,sans-Serif" font-size="10.00">iostream</text>
</a>
</g>
</g>
<!-- Node4&#45;&gt;Node10 -->
<g id="edge9" class="edge">
<title>Node4&#45;&gt;Node10</title>
<path fill="none" stroke="#63b8ff" d="M791.21,-110.93C794.18,-110.59 797.13,-110.28 800,-110 1086.07,-82.24 1163.91,-114.76 1451.38,-74.11"/>
<polygon fill="#63b8ff" stroke="#63b8ff" points="1451.68,-77.6 1461.08,-72.72 1450.68,-70.67 1451.68,-77.6"/>
</g>
<!-- Node11 -->
<g id="node11" class="node">
<title>Node11</title>
<g id="a_node11"><a xlink:title=" ">
<polygon fill="#e0e0e0" stroke="#999999" points="1585,-74 1535,-74 1535,-55 1585,-55 1585,-74"/>
<text text-anchor="middle" x="1560" y="-62" font-family="Helvetica,sans-Serif" font-size="10.00">fstream</text>
</a>
</g>
</g>
<!-- Node4&#45;&gt;Node11 -->
<g id="edge10" class="edge">
<title>Node4&#45;&gt;Node11</title>
<path fill="none" stroke="#63b8ff" d="M791.21,-110.91C794.18,-110.58 797.13,-110.27 800,-110 1118.02,-80.02 1204.5,-120.48 1523.89,-73.98"/>
<polygon fill="#63b8ff" stroke="#63b8ff" points="1523.98,-77.51 1533.36,-72.59 1522.96,-70.58 1523.98,-77.51"/>
</g>
<!-- Node12 -->
<g id="node12" class="node">
<title>Node12</title>
<g id="a_node12"><a xlink:title=" ">
<polygon fill="#e0e0e0" stroke="#999999" points="1651,-74 1603,-74 1603,-55 1651,-55 1651,-74"/>
<text text-anchor="middle" x="1627" y="-62" font-family="Helvetica,sans-Serif" font-size="10.00">string.h</text>
</a>
</g>
</g>
<!-- Node4&#45;&gt;Node12 -->
<g id="edge11" class="edge">
<title>Node4&#45;&gt;Node12</title>
<path fill="none" stroke="#63b8ff" d="M791.21,-110.9C794.18,-110.57 797.13,-110.26 800,-110 1148.07,-77.93 1242.67,-125.32 1591.42,-74.05"/>
<polygon fill="#63b8ff" stroke="#63b8ff" points="1591.73,-77.54 1601.11,-72.61 1590.7,-70.62 1591.73,-77.54"/>
</g>
<!-- Node13 -->
<g id="node13" class="node">
<title>Node13</title>
<g id="a_node13"><a xlink:title=" ">
<polygon fill="#e0e0e0" stroke="#999999" points="112,-74 62,-74 62,-55 112,-55 112,-74"/>
<text text-anchor="middle" x="87" y="-62" font-family="Helvetica,sans-Serif" font-size="10.00">unistd.h</text>
</a>
</g>
</g>
<!-- Node4&#45;&gt;Node13 -->
<g id="edge12" class="edge">
<title>Node4&#45;&gt;Node13</title>
<path fill="none" stroke="#63b8ff" d="M686.56,-117.78C581.4,-115.67 337.2,-107.47 123.28,-74.07"/>
<polygon fill="#63b8ff" stroke="#63b8ff" points="124.07,-70.65 113.65,-72.54 122.97,-77.56 124.07,-70.65"/>
</g>
<!-- Node14 -->
<g id="node14" class="node">
<title>Node14</title>
<g id="a_node14"><a xlink:title=" ">
<polygon fill="#e0e0e0" stroke="#999999" points="195.5,-74 130.5,-74 130.5,-55 195.5,-55 195.5,-74"/>
<text text-anchor="middle" x="163" y="-62" font-family="Helvetica,sans-Serif" font-size="10.00">sys/types.h</text>
</a>
</g>
</g>
<!-- Node4&#45;&gt;Node14 -->
<g id="edge13" class="edge">
<title>Node4&#45;&gt;Node14</title>
<path fill="none" stroke="#63b8ff" d="M686.85,-116.18C593,-111.55 389.26,-99.52 207.35,-74.16"/>
<polygon fill="#63b8ff" stroke="#63b8ff" points="207.84,-70.69 197.45,-72.76 206.86,-77.62 207.84,-70.69"/>
</g>
<!-- Node4&#45;&gt;Node15 -->
<g id="edge14" class="edge">
<title>Node4&#45;&gt;Node15</title>
<path fill="none" stroke="#63b8ff" d="M686.52,-118.71C572.86,-118.38 295.5,-113.4 55.28,-74.02"/>
<polygon fill="#63b8ff" stroke="#63b8ff" points="56.16,-70.61 45.72,-72.42 55.01,-77.52 56.16,-70.61"/>
</g>
<!-- Node16 -->
<g id="node16" class="node">
<title>Node16</title>
<g id="a_node16"><a xlink:title=" ">
<polygon fill="#e0e0e0" stroke="#999999" points="270,-74 214,-74 214,-55 270,-55 270,-74"/>
<text text-anchor="middle" x="242" y="-62" font-family="Helvetica,sans-Serif" font-size="10.00">stdbool.h</text>
</a>
</g>
</g>
<!-- Node4&#45;&gt;Node16 -->
<g id="edge15" class="edge">
<title>Node4&#45;&gt;Node16</title>
<path fill="none" stroke="#63b8ff" d="M686.63,-115.65C602.97,-110.6 433.87,-98.43 281.17,-74.15"/>
<polygon fill="#63b8ff" stroke="#63b8ff" points="282.13,-70.76 271.7,-72.62 281.02,-77.67 282.13,-70.76"/>
</g>
<!-- Node17 -->
<g id="node17" class="node">
<title>Node17</title>
<g id="a_node17"><a xlink:title=" ">
<polygon fill="#e0e0e0" stroke="#999999" points="335.5,-74 288.5,-74 288.5,-55 335.5,-55 335.5,-74"/>
<text text-anchor="middle" x="312" y="-62" font-family="Helvetica,sans-Serif" font-size="10.00">stdlib.h</text>
</a>
</g>
</g>
<!-- Node4&#45;&gt;Node17 -->
<g id="edge16" class="edge">
<title>Node4&#45;&gt;Node17</title>
<path fill="none" stroke="#63b8ff" d="M686.71,-114.93C613.07,-109.39 474.48,-97.09 346.84,-74.07"/>
<polygon fill="#63b8ff" stroke="#63b8ff" points="347.66,-70.66 337.19,-72.3 346.4,-77.55 347.66,-70.66"/>
</g>
<!-- Node18 -->
<g id="node18" class="node">
<title>Node18</title>
<g id="a_node18"><a xlink:title=" ">
<polygon fill="#e0e0e0" stroke="#999999" points="412,-74 354,-74 354,-55 412,-55 412,-74"/>
<text text-anchor="middle" x="383" y="-62" font-family="Helvetica,sans-Serif" font-size="10.00">exception</text>
</a>
</g>
</g>
<!-- Node4&#45;&gt;Node18 -->
<g id="edge17" class="edge">
<title>Node4&#45;&gt;Node18</title>
<path fill="none" stroke="#63b8ff" d="M686.74,-112.5C625.84,-105.23 521.96,-91.91 423.46,-74.32"/>
<polygon fill="#63b8ff" stroke="#63b8ff" points="424.36,-70.93 413.9,-72.59 423.12,-77.82 424.36,-70.93"/>
</g>
<!-- Node19 -->
<g id="node19" class="node">
<title>Node19</title>
<g id="a_node19"><a xlink:href="Window_8hpp.html" target="_top" xlink:title=" ">
<polygon fill="white" stroke="#666666" points="645.5,-19 544.5,-19 544.5,0 645.5,0 645.5,-19"/>
<text text-anchor="middle" x="595" y="-7" font-family="Helvetica,sans-Serif" font-size="10.00">Engine/Window.hpp</text>
</a>
</g>
</g>
<!-- Node4&#45;&gt;Node19 -->
<g id="edge18" class="edge">
<title>Node4&#45;&gt;Node19</title>
<path fill="none" stroke="#63b8ff" d="M686.53,-109.81C662.13,-103.31 634.4,-92.28 615,-74 602.58,-62.29 595.04,-44.24 592.28,-30.37"/>
<polygon fill="#63b8ff" stroke="#63b8ff" points="595.78,-30.19 591.24,-20.62 588.82,-30.93 595.78,-30.19"/>
</g>
<!-- Node20 -->
<g id="node20" class="node">
<title>Node20</title>
<g id="a_node20"><a xlink:href="Draw_8hpp.html" target="_top" xlink:title=" ">
<polygon fill="white" stroke="#666666" points="721.5,-74 632.5,-74 632.5,-55 721.5,-55 721.5,-74"/>
<text text-anchor="middle" x="677" y="-62" font-family="Helvetica,sans-Serif" font-size="10.00">Engine/Draw.hpp</text>
</a>
</g>
</g>
<!-- Node4&#45;&gt;Node20 -->
<g id="edge20" class="edge">
<title>Node4&#45;&gt;Node20</title>
<path fill="none" stroke="#63b8ff" d="M723.27,-109.51C713.02,-102.08 700.06,-91.32 690.33,-82.31"/>
<polygon fill="#63b8ff" stroke="#63b8ff" points="692.86,-79.89 683.26,-75.41 687.98,-84.9 692.86,-79.89"/>
</g>
<!-- Node21 -->
<g id="node21" class="node">
<title>Node21</title>
<g id="a_node21"><a xlink:href="Event_8hpp.html" target="_top" xlink:title=" ">
<polygon fill="white" stroke="#666666" points="1761,-74 1669,-74 1669,-55 1761,-55 1761,-74"/>
<text text-anchor="middle" x="1715" y="-62" font-family="Helvetica,sans-Serif" font-size="10.00">Engine/Event.hpp</text>
</a>
</g>
</g>
<!-- Node4&#45;&gt;Node21 -->
<g id="edge22" class="edge">
<title>Node4&#45;&gt;Node21</title>
<path fill="none" stroke="#63b8ff" d="M791.28,-109.97C1172.05,-75.58 1270.36,-111.26 1651,-74 1653.04,-73.8 1655.12,-73.58 1657.22,-73.33"/>
<polygon fill="#63b8ff" stroke="#63b8ff" points="1657.63,-76.81 1667.11,-72.06 1656.74,-69.86 1657.63,-76.81"/>
</g>
<!-- Node25 -->
<g id="node25" class="node">
<title>Node25</title>
<g id="a_node25"><a xlink:href="StateManager_8hpp.html" target="_top" xlink:title=" ">
<polygon fill="white" stroke="#666666" points="558,-74 430,-74 430,-55 558,-55 558,-74"/>
<text text-anchor="middle" x="494" y="-62" font-family="Helvetica,sans-Serif" font-size="10.00">Engine/StateManager.hpp</text>
</a>
</g>
</g>
<!-- Node4&#45;&gt;Node25 -->
<g id="edge27" class="edge">
<title>Node4&#45;&gt;Node25</title>
<path fill="none" stroke="#63b8ff" d="M692.22,-109.51C648.86,-100.54 584.81,-86.71 541.29,-76.96"/>
<polygon fill="#63b8ff" stroke="#63b8ff" points="542.15,-73.56 531.62,-74.78 540.61,-80.39 542.15,-73.56"/>
</g>
<!-- Node26 -->
<g id="node26" class="node">
<title>Node26</title>
<g id="a_node26"><a xlink:href="Bullets_8hpp.html" target="_top" xlink:title=" ">
<polygon fill="white" stroke="#666666" points="862,-74 740,-74 740,-55 862,-55 862,-74"/>
<text text-anchor="middle" x="801" y="-62" font-family="Helvetica,sans-Serif" font-size="10.00">Components/Bullets.hpp</text>
</a>
</g>
</g>
<!-- Node4&#45;&gt;Node26 -->
<g id="edge31" class="edge">
<title>Node4&#45;&gt;Node26</title>
<path fill="none" stroke="#63b8ff" d="M744.07,-109.75C751.43,-102.05 764.41,-90.64 776.23,-81.34"/>
<polygon fill="#63b8ff" stroke="#63b8ff" points="778.27,-84.19 784.13,-75.36 774.04,-78.61 778.27,-84.19"/>
</g>
<!-- Node19&#45;&gt;Node4 -->
<g id="edge19" class="edge">
<title>Node19&#45;&gt;Node4</title>
<path fill="none" stroke="#63b8ff" d="M602.4,-19.11C608.89,-32.59 616.77,-58.71 633,-74 649.17,-89.24 671.13,-99.43 690.92,-106.17"/>
<polygon fill="#63b8ff" stroke="#63b8ff" points="689.62,-109.43 700.21,-109.11 691.73,-102.76 689.62,-109.43"/>
</g>
<!-- Node20&#45;&gt;Node4 -->
<g id="edge21" class="edge">
<title>Node20&#45;&gt;Node4</title>
<path fill="none" stroke="#63b8ff" d="M692.67,-74.44C702.96,-81.9 715.99,-92.72 725.76,-101.78"/>
<polygon fill="#63b8ff" stroke="#63b8ff" points="723.24,-104.21 732.85,-108.69 728.13,-99.2 723.24,-104.21"/>
</g>
<!-- Node21&#45;&gt;Node4 -->
<g id="edge23" class="edge">
<title>Node21&#45;&gt;Node4</title>
<path fill="none" stroke="#63b8ff" d="M1668.72,-74.03C1288.22,-111.25 1189.91,-75.57 809,-110 806.84,-110.19 804.65,-110.41 802.42,-110.65"/>
<polygon fill="#63b8ff" stroke="#63b8ff" points="802.21,-107.15 792.68,-111.77 803.02,-114.1 802.21,-107.15"/>
</g>
<!-- Node22 -->
<g id="node22" class="node">
<title>Node22</title>
<g id="a_node22"><a xlink:title=" ">
<polygon fill="#e0e0e0" stroke="#999999" points="1716.5,-19 1687.5,-19 1687.5,0 1716.5,0 1716.5,-19"/>
<text text-anchor="middle" x="1702" y="-7" font-family="Helvetica,sans-Serif" font-size="10.00">list</text>
</a>
</g>
</g>
<!-- Node21&#45;&gt;Node22 -->
<g id="edge24" class="edge">
<title>Node21&#45;&gt;Node22</title>
<path fill="none" stroke="#63b8ff" d="M1712.85,-54.75C1711.24,-48.19 1708.98,-38.95 1706.93,-30.6"/>
<polygon fill="#63b8ff" stroke="#63b8ff" points="1710.34,-29.79 1704.55,-20.91 1703.54,-31.46 1710.34,-29.79"/>
</g>
<!-- Node21&#45;&gt;Node23 -->
<g id="edge25" class="edge">
<title>Node21&#45;&gt;Node23</title>
<path fill="none" stroke="#63b8ff" d="M1721.77,-54.75C1727.32,-47.58 1735.34,-37.2 1742.23,-28.3"/>
<polygon fill="#63b8ff" stroke="#63b8ff" points="1744.81,-30.69 1748.16,-20.64 1739.27,-26.41 1744.81,-30.69"/>
</g>
<!-- Node21&#45;&gt;Node24 -->
<g id="edge26" class="edge">
<title>Node21&#45;&gt;Node24</title>
<path fill="none" stroke="#63b8ff" d="M1734,-54.51C1751.56,-46.2 1777.92,-33.73 1798.09,-24.18"/>
<polygon fill="#63b8ff" stroke="#63b8ff" points="1799.37,-27.45 1806.91,-20.01 1796.38,-21.12 1799.37,-27.45"/>
</g>
<!-- Node25&#45;&gt;Node4 -->
<g id="edge28" class="edge">
<title>Node25&#45;&gt;Node4</title>
<path fill="none" stroke="#63b8ff" d="M540.56,-74.45C583.86,-83.4 647.9,-97.22 691.49,-106.99"/>
<polygon fill="#63b8ff" stroke="#63b8ff" points="690.65,-110.39 701.18,-109.18 692.19,-103.56 690.65,-110.39"/>
</g>
<!-- Node25&#45;&gt;Node19 -->
<g id="edge29" class="edge">
<title>Node25&#45;&gt;Node19</title>
<path fill="none" stroke="#63b8ff" d="M511.13,-54.51C526.75,-46.31 550.08,-34.07 568.17,-24.58"/>
<polygon fill="#63b8ff" stroke="#63b8ff" points="569.55,-27.81 576.78,-20.06 566.3,-21.61 569.55,-27.81"/>
</g>
<!-- Node26&#45;&gt;Node4 -->
<g id="edge32" class="edge">
<title>Node26&#45;&gt;Node4</title>
<path fill="none" stroke="#63b8ff" d="M795.83,-74.36C788.46,-82.05 775.55,-93.39 763.79,-102.64"/>
<polygon fill="#63b8ff" stroke="#63b8ff" points="761.79,-99.76 755.94,-108.59 766.02,-105.34 761.79,-99.76"/>
</g>
<!-- Node27 -->
<g id="node27" class="node">
<title>Node27</title>
<g id="a_node27"><a xlink:title=" ">
<polygon fill="#e0e0e0" stroke="#999999" points="824,-19 778,-19 778,0 824,0 824,-19"/>
<text text-anchor="middle" x="801" y="-7" font-family="Helvetica,sans-Serif" font-size="10.00">math.h</text>
</a>
</g>
</g>
<!-- Node26&#45;&gt;Node27 -->
<g id="edge33" class="edge">
<title>Node26&#45;&gt;Node27</title>
<path fill="none" stroke="#63b8ff" d="M801,-54.75C801,-48.27 801,-39.16 801,-30.9"/>
<polygon fill="#63b8ff" stroke="#63b8ff" points="804.5,-30.96 801,-20.96 797.5,-30.96 804.5,-30.96"/>
</g>
</g>
</svg>
        <g id="navigator" transform="translate(0 0)" fill="#404254">
                <rect fill="#f2f5e9" fill-opacity="0.5" stroke="#606060" stroke-width=".5" x="0" y="0" width="60" height="60"/>
                <use id="zoomplus" xlink:href="#zoomPlus" x="17" y="9" onmousedown="handleZoom(evt,'in')"/>
                <use id="zoomminus" xlink:href="#zoomMin" x="42" y="9" onmousedown="handleZoom(evt,'out')"/>
                <use id="reset" xlink:href="#resetDef" x="30" y="36" onmousedown="handleReset()"/>
                <g id="arrowUp" xlink:href="#dirArrow" transform="translate(30 24)" onmousedown="handlePan(0,-1)">
                  <use xlink:href="#rim" fill="#404040">
                        <set attributeName="fill" to="#808080" begin="arrowUp.mouseover" end="arrowUp.mouseout"/>
                  </use>
                  <path fill="none" stroke="white" stroke-width="1.5" d="M0,-3.0v7 M-2.5,-0.5L0,-3.0L2.5,-0.5"/>
                </g>
                <g id="arrowRight" xlink:href="#dirArrow" transform="rotate(90) translate(36 -43)" onmousedown="handlePan(1,0)">
                  <use xlink:href="#rim" fill="#404040">
                        <set attributeName="fill" to="#808080" begin="arrowRight.mouseover" end="arrowRight.mouseout"/>
                  </use>
                  <path fill="none" stroke="white" stroke-width="1.5" d="M0,-3.0v7 M-2.5,-0.5L0,-3.0L2.5,-0.5"/>
                </g>
                <g id="arrowDown" xlink:href="#dirArrow" transform="rotate(180) translate(-30 -48)" onmousedown="handlePan(0,1)">
                  <use xlink:href="#rim" fill="#404040">
                        <set attributeName="fill" to="#808080" begin="arrowDown.mouseover" end="arrowDown.mouseout"/>
                  </use>
                  <path fill="none" stroke="white" stroke-width="1.5" d="M0,-3.0v7 M-2.5,-0.5L0,-3.0L2.5,-0.5"/>
                </g>
                <g id="arrowLeft" xlink:href="#dirArrow" transform="rotate(270) translate(-36 17)" onmousedown="handlePan(-1,0)">
                  <use xlink:href="#rim" fill="#404040">
                        <set attributeName="fill" to="#808080" begin="arrowLeft.mouseover" end="arrowLeft.mouseout"/>
                  </use>
                  <path fill="none" stroke="white" stroke-width="1.5" d="M0,-3.0v7 M-2.5,-0.5L0,-3.0L2.5,-0.5"/>
                </g>
        </g>
        <svg viewBox="0 0 15 15" width="100%" height="30px" preserveAspectRatio="xMaxYMin meet">
         <g id="arrow_out" transform="scale(0.3 0.3)">
          <a xlink:href="SGamePlay_8hpp__incl_org.svg" target="_base">
           <rect id="button" ry="5" rx="5" y="6" x="6" height="38" width="38"
                fill="#f2f5e9" fill-opacity="0.5" stroke="#606060" stroke-width="1.0"/>
           <path id="arrow"
             d="M 11.500037,31.436501 C 11.940474,20.09759 22.043105,11.32322 32.158766,21.979434 L 37.068811,17.246167 C 37.068811,17.246167 37.088388,32 37.088388,32 L 22.160133,31.978069 C 22.160133,31.978069 26.997745,27.140456 26.997745,27.140456 C 18.528582,18.264221 13.291696,25.230495 11.500037,31.436501 z"
             style="fill:#404040;"/>
          </a>
         </g>
        </svg>
</svg>
