<?xml version="1.0" encoding="UTF-8" standalone="no"?>
<!DOCTYPE svg PUBLIC "-//W3C//DTD SVG 1.1//EN"
 "http://www.w3.org/Graphics/SVG/1.1/DTD/svg11.dtd">
<!-- Generated by graphviz version 7.0.5 (20221223.1930)
 -->
<!-- Title: /github/workspace/client/include/system/gameStates/SGamePlay.hpp Pages: 1 -->
<svg width="2142pt" height="489pt"
 viewBox="0.00 0.00 2142.00 489.00" xmlns="http://www.w3.org/2000/svg" xmlns:xlink="http://www.w3.org/1999/xlink">
<g id="graph0" class="graph" transform="scale(1 1) rotate(0) translate(4 485)">
<title>/github/workspace/client/include/system/gameStates/SGamePlay.hpp</title>
<!-- Node1 -->
<g id="node1" class="node">
<title>Node1</title>
<g id="a_node1"><a xlink:title=" ">
<polygon fill="#999999" stroke="#666666" points="2016,-481 1876,-481 1876,-440 2016,-440 2016,-481"/>
<text text-anchor="start" x="1884" y="-469" font-family="Helvetica,sans-Serif" font-size="10.00">/github/workspace/client</text>
<text text-anchor="start" x="1884" y="-458" font-family="Helvetica,sans-Serif" font-size="10.00">/include/system/gameStates</text>
<text text-anchor="middle" x="1946" y="-447" font-family="Helvetica,sans-Serif" font-size="10.00">/SGamePlay.hpp</text>
</a>
</g>
</g>
<!-- Node2 -->
<g id="node2" class="node">
<title>Node2</title>
<g id="a_node2"><a xlink:href="IGameState_8hpp.html" target="_top" xlink:title=" ">
<polygon fill="white" stroke="#666666" points="1407.5,-404 1320.5,-404 1320.5,-385 1407.5,-385 1407.5,-404"/>
<text text-anchor="middle" x="1364" y="-392" font-family="Helvetica,sans-Serif" font-size="10.00">IGameState.hpp</text>
</a>
</g>
</g>
<!-- Node1&#45;&gt;Node2 -->
<g id="edge1" class="edge">
<title>Node1&#45;&gt;Node2</title>
<path fill="none" stroke="#63b8ff" d="M1875.51,-451.75C1758.24,-438.85 1525.51,-413.26 1419.24,-401.57"/>
<polygon fill="#63b8ff" stroke="#63b8ff" points="1419.67,-398.1 1409.34,-400.49 1418.9,-405.06 1419.67,-398.1"/>
</g>
<!-- Node12 -->
<g id="node12" class="node">
<title>Node12</title>
<g id="a_node12"><a xlink:title=" ">
<polygon fill="#e0e0e0" stroke="#999999" points="1973.5,-74 1932.5,-74 1932.5,-55 1973.5,-55 1973.5,-74"/>
<text text-anchor="middle" x="1953" y="-62" font-family="Helvetica,sans-Serif" font-size="10.00">string</text>
</a>
</g>
</g>
<!-- Node1&#45;&gt;Node12 -->
<g id="edge66" class="edge">
<title>Node1&#45;&gt;Node12</title>
<path fill="none" stroke="#63b8ff" d="M1947.58,-439.94C1949.94,-414.36 1955.19,-368.3 1965,-330 1976.71,-284.3 2002,-277.68 2002,-230.5 2002,-230.5 2002,-230.5 2002,-173.5 2002,-139.33 1981.41,-104.07 1966.92,-83.5"/>
<polygon fill="#63b8ff" stroke="#63b8ff" points="1969.87,-81.61 1961.13,-75.63 1964.23,-85.76 1969.87,-81.61"/>
</g>
<!-- Node20 -->
<g id="node20" class="node">
<title>Node20</title>
<g id="a_node20"><a xlink:title=" ">
<polygon fill="#e0e0e0" stroke="#999999" points="2061.5,-19 2018.5,-19 2018.5,0 2061.5,0 2061.5,-19"/>
<text text-anchor="middle" x="2040" y="-7" font-family="Helvetica,sans-Serif" font-size="10.00">queue</text>
</a>
</g>
</g>
<!-- Node1&#45;&gt;Node20 -->
<g id="edge64" class="edge">
<title>Node1&#45;&gt;Node20</title>
<path fill="none" stroke="#63b8ff" d="M2016.42,-449.34C2048.09,-441.58 2083.91,-427.94 2109,-404 2130.94,-383.06 2134,-370.83 2134,-340.5 2134,-340.5 2134,-340.5 2134,-118.5 2134,-76.88 2093.79,-43.5 2065.97,-25.39"/>
<polygon fill="#63b8ff" stroke="#63b8ff" points="2068,-22.53 2057.66,-20.22 2064.3,-28.48 2068,-22.53"/>
</g>
<!-- Node27 -->
<g id="node27" class="node">
<title>Node27</title>
<g id="a_node27"><a xlink:title=" ">
<polygon fill="#e0e0e0" stroke="#999999" points="57,-74 19,-74 19,-55 57,-55 57,-74"/>
<text text-anchor="middle" x="38" y="-62" font-family="Helvetica,sans-Serif" font-size="10.00">array</text>
</a>
</g>
</g>
<!-- Node1&#45;&gt;Node27 -->
<g id="edge65" class="edge">
<title>Node1&#45;&gt;Node27</title>
<path fill="none" stroke="#63b8ff" d="M1875.59,-458.95C1526.71,-455.78 0,-436.44 0,-340.5 0,-340.5 0,-340.5 0,-173.5 0,-140.65 15.84,-105.19 27.07,-84.19"/>
<polygon fill="#63b8ff" stroke="#63b8ff" points="30,-86.13 31.82,-75.69 23.88,-82.72 30,-86.13"/>
</g>
<!-- Node38 -->
<g id="node38" class="node">
<title>Node38</title>
<g id="a_node38"><a xlink:title=" ">
<polygon fill="#e0e0e0" stroke="#999999" points="2020,-404 1974,-404 1974,-385 2020,-385 2020,-404"/>
<text text-anchor="middle" x="1997" y="-392" font-family="Helvetica,sans-Serif" font-size="10.00">cstring</text>
</a>
</g>
</g>
<!-- Node1&#45;&gt;Node38 -->
<g id="edge67" class="edge">
<title>Node1&#45;&gt;Node38</title>
<path fill="none" stroke="#63b8ff" d="M1961.86,-439.6C1968.67,-431.06 1976.55,-421.16 1983.13,-412.91"/>
<polygon fill="#63b8ff" stroke="#63b8ff" points="1985.66,-415.35 1989.15,-405.35 1980.18,-410.99 1985.66,-415.35"/>
</g>
<!-- Node39 -->
<g id="node39" class="node">
<title>Node39</title>
<g id="a_node39"><a xlink:href="Global_8hpp.html" target="_top" xlink:title=" ">
<polygon fill="white" stroke="#666666" points="2100,-404 2038,-404 2038,-385 2100,-385 2100,-404"/>
<text text-anchor="middle" x="2069" y="-392" font-family="Helvetica,sans-Serif" font-size="10.00">Global.hpp</text>
</a>
</g>
</g>
<!-- Node1&#45;&gt;Node39 -->
<g id="edge68" class="edge">
<title>Node1&#45;&gt;Node39</title>
<path fill="none" stroke="#63b8ff" d="M1984.24,-439.6C2003.05,-429.82 2025.26,-418.26 2042.22,-409.43"/>
<polygon fill="#63b8ff" stroke="#63b8ff" points="2043.43,-412.75 2050.69,-405.03 2040.2,-406.54 2043.43,-412.75"/>
</g>
<!-- Node3 -->
<g id="node3" class="node">
<title>Node3</title>
<g id="a_node3"><a xlink:href="EntitiesManager_8hpp.html" target="_top" xlink:title=" ">
<polygon fill="white" stroke="#666666" points="1101,-239 961,-239 961,-220 1101,-220 1101,-239"/>
<text text-anchor="middle" x="1031" y="-227" font-family="Helvetica,sans-Serif" font-size="10.00">Entities/EntitiesManager.hpp</text>
</a>
</g>
</g>
<!-- Node2&#45;&gt;Node3 -->
<g id="edge2" class="edge">
<title>Node2&#45;&gt;Node3</title>
<path fill="none" stroke="#63b8ff" d="M1320.02,-389.66C1257.92,-383.57 1148.37,-370.18 1115,-349 1076.98,-324.87 1051.13,-276.74 1038.97,-249.84"/>
<polygon fill="#63b8ff" stroke="#63b8ff" points="1042.25,-248.62 1035.08,-240.83 1035.83,-251.39 1042.25,-248.62"/>
</g>
<!-- Node24 -->
<g id="node24" class="node">
<title>Node24</title>
<g id="a_node24"><a xlink:href="Background_8hpp.html" target="_top" xlink:title=" ">
<polygon fill="white" stroke="#666666" points="589,-74 445,-74 445,-55 589,-55 589,-74"/>
<text text-anchor="middle" x="517" y="-62" font-family="Helvetica,sans-Serif" font-size="10.00">Components/Background.hpp</text>
</a>
</g>
</g>
<!-- Node2&#45;&gt;Node24 -->
<g id="edge57" class="edge">
<title>Node2&#45;&gt;Node24</title>
<path fill="none" stroke="#63b8ff" d="M1320.07,-392.37C1252.06,-388.03 1129,-368.68 1129,-285.5 1129,-285.5 1129,-285.5 1129,-173.5 1129,-146.97 767.58,-97.43 600.23,-75.92"/>
<polygon fill="#63b8ff" stroke="#63b8ff" points="600.87,-72.47 590.51,-74.67 599.98,-79.42 600.87,-72.47"/>
</g>
<!-- Node30 -->
<g id="node30" class="node">
<title>Node30</title>
<g id="a_node30"><a xlink:href="String_8hpp.html" target="_top" xlink:title=" ">
<polygon fill="white" stroke="#666666" points="373.5,-129 290.5,-129 290.5,-110 373.5,-110 373.5,-129"/>
<text text-anchor="middle" x="332" y="-117" font-family="Helvetica,sans-Serif" font-size="10.00">Utils/String.hpp</text>
</a>
</g>
</g>
<!-- Node2&#45;&gt;Node30 -->
<g id="edge43" class="edge">
<title>Node2&#45;&gt;Node30</title>
<path fill="none" stroke="#63b8ff" d="M1320.2,-393.43C1127.77,-392.53 367,-382.83 367,-285.5 367,-285.5 367,-285.5 367,-228.5 367,-196.07 352.54,-160.72 342.21,-139.59"/>
<polygon fill="#63b8ff" stroke="#63b8ff" points="345.37,-138.08 337.7,-130.77 339.14,-141.27 345.37,-138.08"/>
</g>
<!-- Node31 -->
<g id="node31" class="node">
<title>Node31</title>
<g id="a_node31"><a xlink:href="GameEngine_8hpp.html" target="_top" xlink:title=" ">
<polygon fill="white" stroke="#666666" points="1580.5,-349 1455.5,-349 1455.5,-330 1580.5,-330 1580.5,-349"/>
<text text-anchor="middle" x="1518" y="-337" font-family="Helvetica,sans-Serif" font-size="10.00">system/GameEngine.hpp</text>
</a>
</g>
</g>
<!-- Node2&#45;&gt;Node31 -->
<g id="edge47" class="edge">
<title>Node2&#45;&gt;Node31</title>
<path fill="none" stroke="#63b8ff" d="M1390.12,-384.51C1415.2,-375.88 1453.31,-362.76 1481.4,-353.1"/>
<polygon fill="#63b8ff" stroke="#63b8ff" points="1482.26,-356.5 1490.57,-349.94 1479.98,-349.88 1482.26,-356.5"/>
</g>
<!-- Node36 -->
<g id="node36" class="node">
<title>Node36</title>
<g id="a_node36"><a xlink:href="Centipede_8hpp.html" target="_top" xlink:title=" ">
<polygon fill="white" stroke="#666666" points="1732,-184 1596,-184 1596,-165 1732,-165 1732,-184"/>
<text text-anchor="middle" x="1664" y="-172" font-family="Helvetica,sans-Serif" font-size="10.00">Components/Centipede.hpp</text>
</a>
</g>
</g>
<!-- Node2&#45;&gt;Node36 -->
<g id="edge58" class="edge">
<title>Node2&#45;&gt;Node36</title>
<path fill="none" stroke="#63b8ff" d="M1366.48,-384.79C1373.01,-363.28 1392.69,-307.07 1428,-275 1480.13,-227.66 1558.09,-200.81 1609.96,-187.22"/>
<polygon fill="#63b8ff" stroke="#63b8ff" points="1610.64,-190.66 1619.47,-184.81 1608.92,-183.87 1610.64,-190.66"/>
</g>
<!-- Node4 -->
<g id="node4" class="node">
<title>Node4</title>
<g id="a_node4"><a xlink:href="Engine_8hpp.html" target="_top" xlink:title=" ">
<polygon fill="white" stroke="#666666" points="1369,-129 1273,-129 1273,-110 1369,-110 1369,-129"/>
<text text-anchor="middle" x="1321" y="-117" font-family="Helvetica,sans-Serif" font-size="10.00">Engine/Engine.hpp</text>
</a>
</g>
</g>
<!-- Node3&#45;&gt;Node4 -->
<g id="edge3" class="edge">
<title>Node3&#45;&gt;Node4</title>
<path fill="none" stroke="#63b8ff" d="M1101.26,-223.27C1165.62,-217.37 1254.85,-205.65 1283,-184 1297.1,-173.16 1304.56,-153.87 1310.06,-139.39"/>
<polygon fill="#63b8ff" stroke="#63b8ff" points="1313.17,-141.06 1313.59,-130.47 1306.66,-138.49 1313.17,-141.06"/>
</g>
<!-- Node22 -->
<g id="node22" class="node">
<title>Node22</title>
<g id="a_node22"><a xlink:href="IComponents_8hpp.html" target="_top" xlink:title=" ">
<polygon fill="white" stroke="#666666" points="1789,-19 1697,-19 1697,0 1789,0 1789,-19"/>
<text text-anchor="middle" x="1743" y="-7" font-family="Helvetica,sans-Serif" font-size="10.00">IComponents.hpp</text>
</a>
</g>
</g>
<!-- Node3&#45;&gt;Node22 -->
<g id="edge30" class="edge">
<title>Node3&#45;&gt;Node22</title>
<path fill="none" stroke="#63b8ff" d="M960.71,-229.46C772.23,-229.93 280.18,-216.22 436,-55 458.01,-32.23 1435.24,-15.34 1685.24,-11.38"/>
<polygon fill="#63b8ff" stroke="#63b8ff" points="1685.13,-14.88 1695.07,-11.23 1685.02,-7.89 1685.13,-14.88"/>
</g>
<!-- Node25 -->
<g id="node25" class="node">
<title>Node25</title>
<g id="a_node25"><a xlink:href="SparseArray_8hpp.html" target="_top" xlink:title=" ">
<polygon fill="white" stroke="#666666" points="243.5,-184 132.5,-184 132.5,-165 243.5,-165 243.5,-184"/>
<text text-anchor="middle" x="188" y="-172" font-family="Helvetica,sans-Serif" font-size="10.00">Utils/SparseArray.hpp</text>
</a>
</g>
</g>
<!-- Node3&#45;&gt;Node25 -->
<g id="edge31" class="edge">
<title>Node3&#45;&gt;Node25</title>
<path fill="none" stroke="#63b8ff" d="M960.58,-224.07C800.65,-214.02 411.85,-189.57 255.13,-179.72"/>
<polygon fill="#63b8ff" stroke="#63b8ff" points="255.51,-176.24 245.31,-179.1 255.07,-183.22 255.51,-176.24"/>
</g>
<!-- Node4&#45;&gt;Node3 -->
<g id="edge22" class="edge">
<title>Node4&#45;&gt;Node3</title>
<path fill="none" stroke="#63b8ff" d="M1325.24,-129.06C1326.08,-142.96 1318.87,-170.26 1301,-184 1272.48,-205.93 1181.25,-217.68 1112.61,-223.5"/>
<polygon fill="#63b8ff" stroke="#63b8ff" points="1112.56,-219.99 1102.88,-224.29 1113.13,-226.97 1112.56,-219.99"/>
</g>
<!-- Node5 -->
<g id="node5" class="node">
<title>Node5</title>
<g id="a_node5"><a xlink:title=" ">
<polygon fill="#e0e0e0" stroke="#999999" points="696.5,-74 607.5,-74 607.5,-55 696.5,-55 696.5,-74"/>
<text text-anchor="middle" x="652" y="-62" font-family="Helvetica,sans-Serif" font-size="10.00">SFML/Audio.hpp</text>
</a>
</g>
</g>
<!-- Node4&#45;&gt;Node5 -->
<g id="edge4" class="edge">
<title>Node4&#45;&gt;Node5</title>
<path fill="none" stroke="#63b8ff" d="M1272.64,-111.53C1268.03,-110.97 1263.43,-110.45 1259,-110 1017.66,-85.63 952.75,-100.7 708.15,-74.12"/>
<polygon fill="#63b8ff" stroke="#63b8ff" points="708.57,-70.65 698.25,-73.03 707.81,-77.6 708.57,-70.65"/>
</g>
<!-- Node6 -->
<g id="node6" class="node">
<title>Node6</title>
<g id="a_node6"><a xlink:title=" ">
<polygon fill="#e0e0e0" stroke="#999999" points="819,-74 715,-74 715,-55 819,-55 819,-74"/>
<text text-anchor="middle" x="767" y="-62" font-family="Helvetica,sans-Serif" font-size="10.00">SFML/Graphics.hpp</text>
</a>
</g>
</g>
<!-- Node4&#45;&gt;Node6 -->
<g id="edge5" class="edge">
<title>Node4&#45;&gt;Node6</title>
<path fill="none" stroke="#63b8ff" d="M1272.63,-111.62C1268.03,-111.04 1263.43,-110.49 1259,-110 1071.57,-89.34 1020.96,-95.04 830.47,-74.21"/>
<polygon fill="#63b8ff" stroke="#63b8ff" points="831.05,-70.76 820.72,-73.14 830.28,-77.71 831.05,-70.76"/>
</g>
<!-- Node7 -->
<g id="node7" class="node">
<title>Node7</title>
<g id="a_node7"><a xlink:title=" ">
<polygon fill="#e0e0e0" stroke="#999999" points="938.5,-74 837.5,-74 837.5,-55 938.5,-55 938.5,-74"/>
<text text-anchor="middle" x="888" y="-62" font-family="Helvetica,sans-Serif" font-size="10.00">SFML/Network.hpp</text>
</a>
</g>
</g>
<!-- Node4&#45;&gt;Node7 -->
<g id="edge6" class="edge">
<title>Node4&#45;&gt;Node7</title>
<path fill="none" stroke="#63b8ff" d="M1272.61,-111.76C1268.01,-111.16 1263.42,-110.56 1259,-110 1124.16,-92.98 1087.35,-92 950.2,-74.38"/>
<polygon fill="#63b8ff" stroke="#63b8ff" points="950.7,-70.92 940.34,-73.11 949.81,-77.86 950.7,-70.92"/>
</g>
<!-- Node8 -->
<g id="node8" class="node">
<title>Node8</title>
<g id="a_node8"><a xlink:title=" ">
<polygon fill="#e0e0e0" stroke="#999999" points="1055.5,-74 956.5,-74 956.5,-55 1055.5,-55 1055.5,-74"/>
<text text-anchor="middle" x="1006" y="-62" font-family="Helvetica,sans-Serif" font-size="10.00">SFML/Window.hpp</text>
</a>
</g>
</g>
<!-- Node4&#45;&gt;Node8 -->
<g id="edge7" class="edge">
<title>Node4&#45;&gt;Node8</title>
<path fill="none" stroke="#63b8ff" d="M1272.82,-110.39C1217.6,-101.1 1127.03,-85.86 1066.96,-75.76"/>
<polygon fill="#63b8ff" stroke="#63b8ff" points="1067.67,-72.33 1057.23,-74.12 1066.51,-79.23 1067.67,-72.33"/>
</g>
<!-- Node9 -->
<g id="node9" class="node">
<title>Node9</title>
<g id="a_node9"><a xlink:title=" ">
<polygon fill="#e0e0e0" stroke="#999999" points="1172,-74 1074,-74 1074,-55 1172,-55 1172,-74"/>
<text text-anchor="middle" x="1123" y="-62" font-family="Helvetica,sans-Serif" font-size="10.00">SFML/System.hpp</text>
</a>
</g>
</g>
<!-- Node4&#45;&gt;Node9 -->
<g id="edge8" class="edge">
<title>Node4&#45;&gt;Node9</title>
<path fill="none" stroke="#63b8ff" d="M1287.41,-109.51C1254.32,-100.65 1203.57,-87.07 1167.21,-77.33"/>
<polygon fill="#63b8ff" stroke="#63b8ff" points="1168.45,-74.04 1157.88,-74.84 1166.64,-80.8 1168.45,-74.04"/>
</g>
<!-- Node10 -->
<g id="node10" class="node">
<title>Node10</title>
<g id="a_node10"><a xlink:title=" ">
<polygon fill="#e0e0e0" stroke="#999999" points="289,-74 235,-74 235,-55 289,-55 289,-74"/>
<text text-anchor="middle" x="262" y="-62" font-family="Helvetica,sans-Serif" font-size="10.00">iostream</text>
</a>
</g>
</g>
<!-- Node4&#45;&gt;Node10 -->
<g id="edge9" class="edge">
<title>Node4&#45;&gt;Node10</title>
<path fill="none" stroke="#63b8ff" d="M1272.69,-113.77C1257.44,-112.4 1240.53,-111 1225,-110 830.38,-84.55 730.25,-104.58 336,-74 324.52,-73.11 312.07,-71.81 300.71,-70.49"/>
<polygon fill="#63b8ff" stroke="#63b8ff" points="301.21,-67.03 290.87,-69.31 300.38,-73.98 301.21,-67.03"/>
</g>
<!-- Node11 -->
<g id="node11" class="node">
<title>Node11</title>
<g id="a_node11"><a xlink:title=" ">
<polygon fill="#e0e0e0" stroke="#999999" points="1240,-74 1190,-74 1190,-55 1240,-55 1240,-74"/>
<text text-anchor="middle" x="1215" y="-62" font-family="Helvetica,sans-Serif" font-size="10.00">fstream</text>
</a>
</g>
</g>
<!-- Node4&#45;&gt;Node11 -->
<g id="edge10" class="edge">
<title>Node4&#45;&gt;Node11</title>
<path fill="none" stroke="#63b8ff" d="M1303.02,-109.51C1286.55,-101.27 1261.91,-88.96 1242.89,-79.45"/>
<polygon fill="#63b8ff" stroke="#63b8ff" points="1244.58,-76.38 1234.07,-75.03 1241.45,-82.64 1244.58,-76.38"/>
</g>
<!-- Node4&#45;&gt;Node12 -->
<g id="edge11" class="edge">
<title>Node4&#45;&gt;Node12</title>
<path fill="none" stroke="#63b8ff" d="M1369.35,-115.43C1466.95,-109.07 1694.46,-93.42 1885,-74 1896.77,-72.8 1909.66,-71.25 1921.02,-69.8"/>
<polygon fill="#63b8ff" stroke="#63b8ff" points="1921.23,-73.3 1930.69,-68.55 1920.33,-66.36 1921.23,-73.3"/>
</g>
<!-- Node13 -->
<g id="node13" class="node">
<title>Node13</title>
<g id="a_node13"><a xlink:title=" ">
<polygon fill="#e0e0e0" stroke="#999999" points="1308,-74 1258,-74 1258,-55 1308,-55 1308,-74"/>
<text text-anchor="middle" x="1283" y="-62" font-family="Helvetica,sans-Serif" font-size="10.00">unistd.h</text>
</a>
</g>
</g>
<!-- Node4&#45;&gt;Node13 -->
<g id="edge12" class="edge">
<title>Node4&#45;&gt;Node13</title>
<path fill="none" stroke="#63b8ff" d="M1314.73,-109.75C1309.64,-102.66 1302.3,-92.42 1295.97,-83.59"/>
<polygon fill="#63b8ff" stroke="#63b8ff" points="1298.96,-81.76 1290.29,-75.67 1293.28,-85.84 1298.96,-81.76"/>
</g>
<!-- Node14 -->
<g id="node14" class="node">
<title>Node14</title>
<g id="a_node14"><a xlink:title=" ">
<polygon fill="#e0e0e0" stroke="#999999" points="1391.5,-74 1326.5,-74 1326.5,-55 1391.5,-55 1391.5,-74"/>
<text text-anchor="middle" x="1359" y="-62" font-family="Helvetica,sans-Serif" font-size="10.00">sys/types.h</text>
</a>
</g>
</g>
<!-- Node4&#45;&gt;Node14 -->
<g id="edge13" class="edge">
<title>Node4&#45;&gt;Node14</title>
<path fill="none" stroke="#63b8ff" d="M1327.27,-109.75C1332.36,-102.66 1339.7,-92.42 1346.03,-83.59"/>
<polygon fill="#63b8ff" stroke="#63b8ff" points="1348.72,-85.84 1351.71,-75.67 1343.04,-81.76 1348.72,-85.84"/>
</g>
<!-- Node15 -->
<g id="node15" class="node">
<title>Node15</title>
<g id="a_node15"><a xlink:title=" ">
<polygon fill="#e0e0e0" stroke="#999999" points="389,-74 345,-74 345,-55 389,-55 389,-74"/>
<text text-anchor="middle" x="367" y="-62" font-family="Helvetica,sans-Serif" font-size="10.00">vector</text>
</a>
</g>
</g>
<!-- Node4&#45;&gt;Node15 -->
<g id="edge14" class="edge">
<title>Node4&#45;&gt;Node15</title>
<path fill="none" stroke="#63b8ff" d="M1272.65,-111.43C1268.04,-110.89 1263.44,-110.4 1259,-110 894.35,-77.1 800.86,-104.41 436,-74 424.39,-73.03 411.74,-71.59 400.47,-70.16"/>
<polygon fill="#63b8ff" stroke="#63b8ff" points="401.2,-66.73 390.83,-68.9 400.29,-73.67 401.2,-66.73"/>
</g>
<!-- Node16 -->
<g id="node16" class="node">
<title>Node16</title>
<g id="a_node16"><a xlink:title=" ">
<polygon fill="#e0e0e0" stroke="#999999" points="1468,-74 1410,-74 1410,-55 1468,-55 1468,-74"/>
<text text-anchor="middle" x="1439" y="-62" font-family="Helvetica,sans-Serif" font-size="10.00">exception</text>
</a>
</g>
</g>
<!-- Node4&#45;&gt;Node16 -->
<g id="edge15" class="edge">
<title>Node4&#45;&gt;Node16</title>
<path fill="none" stroke="#63b8ff" d="M1341.02,-109.51C1359.61,-101.16 1387.54,-88.61 1408.83,-79.05"/>
<polygon fill="#63b8ff" stroke="#63b8ff" points="1410.21,-82.27 1417.9,-74.98 1407.34,-75.88 1410.21,-82.27"/>
</g>
<!-- Node17 -->
<g id="node17" class="node">
<title>Node17</title>
<g id="a_node17"><a xlink:href="Window_8hpp.html" target="_top" xlink:title=" ">
<polygon fill="white" stroke="#666666" points="1587.5,-74 1486.5,-74 1486.5,-55 1587.5,-55 1587.5,-74"/>
<text text-anchor="middle" x="1537" y="-62" font-family="Helvetica,sans-Serif" font-size="10.00">Engine/Window.hpp</text>
</a>
</g>
</g>
<!-- Node4&#45;&gt;Node17 -->
<g id="edge16" class="edge">
<title>Node4&#45;&gt;Node17</title>
<path fill="none" stroke="#63b8ff" d="M1352.42,-109.51C1387.04,-100.55 1443.06,-86.77 1484.37,-77.02"/>
<polygon fill="#63b8ff" stroke="#63b8ff" points="1484.92,-80.49 1493.86,-74.79 1483.32,-73.67 1484.92,-80.49"/>
</g>
<!-- Node18 -->
<g id="node18" class="node">
<title>Node18</title>
<g id="a_node18"><a xlink:href="Event_8hpp.html" target="_top" xlink:title=" ">
<polygon fill="white" stroke="#666666" points="1736,-74 1644,-74 1644,-55 1736,-55 1736,-74"/>
<text text-anchor="middle" x="1690" y="-62" font-family="Helvetica,sans-Serif" font-size="10.00">Engine/Event.hpp</text>
</a>
</g>
</g>
<!-- Node4&#45;&gt;Node18 -->
<g id="edge18" class="edge">
<title>Node4&#45;&gt;Node18</title>
<path fill="none" stroke="#63b8ff" d="M1369.35,-110.85C1437.18,-100.75 1560.16,-83.09 1632.56,-73.05"/>
<polygon fill="#63b8ff" stroke="#63b8ff" points="1632.8,-76.55 1642.23,-71.71 1631.84,-69.61 1632.8,-76.55"/>
</g>
<!-- Node21 -->
<g id="node21" class="node">
<title>Node21</title>
<g id="a_node21"><a xlink:href="Bullets_8hpp.html" target="_top" xlink:title=" ">
<polygon fill="white" stroke="#666666" points="1876,-74 1754,-74 1754,-55 1876,-55 1876,-74"/>
<text text-anchor="middle" x="1815" y="-62" font-family="Helvetica,sans-Serif" font-size="10.00">Components/Bullets.hpp</text>
</a>
</g>
</g>
<!-- Node4&#45;&gt;Node21 -->
<g id="edge23" class="edge">
<title>Node4&#45;&gt;Node21</title>
<path fill="none" stroke="#63b8ff" d="M1369.4,-113.09C1446.91,-104.98 1603.25,-89.03 1736,-74 1738.14,-73.76 1740.32,-73.51 1742.53,-73.25"/>
<polygon fill="#63b8ff" stroke="#63b8ff" points="1742.67,-76.76 1752.2,-72.13 1741.86,-69.81 1742.67,-76.76"/>
</g>
<!-- Node4&#45;&gt;Node24 -->
<g id="edge28" class="edge">
<title>Node4&#45;&gt;Node24</title>
<path fill="none" stroke="#63b8ff" d="M1272.53,-112.57C1264.95,-111.61 1257.25,-110.69 1250,-110 961.12,-82.38 884.37,-96.95 600.9,-74.94"/>
<polygon fill="#63b8ff" stroke="#63b8ff" points="601.18,-71.45 590.94,-74.15 600.63,-78.43 601.18,-71.45"/>
</g>
<!-- Node17&#45;&gt;Node4 -->
<g id="edge17" class="edge">
<title>Node17&#45;&gt;Node4</title>
<path fill="none" stroke="#63b8ff" d="M1505.75,-74.45C1471.2,-83.38 1415.2,-97.17 1373.84,-106.93"/>
<polygon fill="#63b8ff" stroke="#63b8ff" points="1373.27,-103.47 1364.33,-109.16 1374.87,-110.28 1373.27,-103.47"/>
</g>
<!-- Node18&#45;&gt;Node4 -->
<g id="edge19" class="edge">
<title>Node18&#45;&gt;Node4</title>
<path fill="none" stroke="#63b8ff" d="M1643.73,-72.84C1577.05,-82.78 1454.11,-100.44 1380.68,-110.64"/>
<polygon fill="#63b8ff" stroke="#63b8ff" points="1380.26,-107.17 1370.83,-112 1381.22,-114.1 1380.26,-107.17"/>
</g>
<!-- Node19 -->
<g id="node19" class="node">
<title>Node19</title>
<g id="a_node19"><a xlink:title=" ">
<polygon fill="#e0e0e0" stroke="#999999" points="1012.5,-19 983.5,-19 983.5,0 1012.5,0 1012.5,-19"/>
<text text-anchor="middle" x="998" y="-7" font-family="Helvetica,sans-Serif" font-size="10.00">list</text>
</a>
</g>
</g>
<!-- Node18&#45;&gt;Node19 -->
<g id="edge20" class="edge">
<title>Node18&#45;&gt;Node19</title>
<path fill="none" stroke="#63b8ff" d="M1643.64,-59.16C1628.46,-57.78 1611.51,-56.28 1596,-55 1374.94,-36.78 1107.62,-18.06 1024.17,-12.3"/>
<polygon fill="#63b8ff" stroke="#63b8ff" points="1024.53,-8.81 1014.31,-11.62 1024.05,-15.8 1024.53,-8.81"/>
</g>
<!-- Node18&#45;&gt;Node20 -->
<g id="edge21" class="edge">
<title>Node18&#45;&gt;Node20</title>
<path fill="none" stroke="#63b8ff" d="M1736.21,-56.35C1739.19,-55.89 1742.13,-55.44 1745,-55 1839.96,-40.5 1952.17,-23.65 2006.79,-15.47"/>
<polygon fill="#63b8ff" stroke="#63b8ff" points="2007.29,-18.93 2016.66,-13.99 2006.26,-12.01 2007.29,-18.93"/>
</g>
<!-- Node21&#45;&gt;Node4 -->
<g id="edge24" class="edge">
<title>Node21&#45;&gt;Node4</title>
<path fill="none" stroke="#63b8ff" d="M1753.59,-74.05C1620.74,-89.08 1464.38,-105.04 1380.73,-113.13"/>
<polygon fill="#63b8ff" stroke="#63b8ff" points="1380.55,-109.63 1370.93,-114.07 1381.22,-116.6 1380.55,-109.63"/>
</g>
<!-- Node21&#45;&gt;Node22 -->
<g id="edge25" class="edge">
<title>Node21&#45;&gt;Node22</title>
<path fill="none" stroke="#63b8ff" d="M1802.79,-54.51C1792.17,-46.7 1776.56,-35.21 1763.96,-25.93"/>
<polygon fill="#63b8ff" stroke="#63b8ff" points="1766.38,-23.36 1756.25,-20.26 1762.23,-29 1766.38,-23.36"/>
</g>
<!-- Node23 -->
<g id="node23" class="node">
<title>Node23</title>
<g id="a_node23"><a xlink:title=" ">
<polygon fill="#e0e0e0" stroke="#999999" points="1909,-19 1863,-19 1863,0 1909,0 1909,-19"/>
<text text-anchor="middle" x="1886" y="-7" font-family="Helvetica,sans-Serif" font-size="10.00">math.h</text>
</a>
</g>
</g>
<!-- Node21&#45;&gt;Node23 -->
<g id="edge27" class="edge">
<title>Node21&#45;&gt;Node23</title>
<path fill="none" stroke="#63b8ff" d="M1827.04,-54.51C1837.41,-46.77 1852.6,-35.43 1864.97,-26.2"/>
<polygon fill="#63b8ff" stroke="#63b8ff" points="1867,-29.05 1872.92,-20.26 1862.81,-23.44 1867,-29.05"/>
</g>
<!-- Node22&#45;&gt;Node4 -->
<g id="edge26" class="edge">
<title>Node22&#45;&gt;Node4</title>
<path fill="none" stroke="#63b8ff" d="M1720.07,-19.47C1698.08,-28.17 1664.04,-41.96 1635,-55 1617.41,-62.9 1614.38,-68.18 1596,-74 1523.75,-96.89 1436.91,-108.43 1380.42,-113.94"/>
<polygon fill="#63b8ff" stroke="#63b8ff" points="1380.32,-110.44 1370.69,-114.85 1380.98,-117.4 1380.32,-110.44"/>
</g>
<!-- Node24&#45;&gt;Node4 -->
<g id="edge29" class="edge">
<title>Node24&#45;&gt;Node4</title>
<path fill="none" stroke="#63b8ff" d="M589.17,-72.44C595.22,-73.01 601.22,-73.54 607,-74 896.56,-97.06 973.19,-82.38 1261.37,-109.4"/>
<polygon fill="#63b8ff" stroke="#63b8ff" points="1260.8,-112.86 1271.09,-110.32 1261.46,-105.89 1260.8,-112.86"/>
</g>
<!-- Node25&#45;&gt;Node10 -->
<g id="edge32" class="edge">
<title>Node25&#45;&gt;Node10</title>
<path fill="none" stroke="#63b8ff" d="M203.2,-164.8C215.62,-156.95 232.74,-144.3 243,-129 251.74,-115.96 256.56,-98.79 259.16,-85.59"/>
<polygon fill="#63b8ff" stroke="#63b8ff" points="262.58,-86.35 260.77,-75.91 255.67,-85.2 262.58,-86.35"/>
</g>
<!-- Node25&#45;&gt;Node15 -->
<g id="edge35" class="edge">
<title>Node25&#45;&gt;Node15</title>
<path fill="none" stroke="#63b8ff" d="M243.56,-168.37C294.64,-162.37 364.94,-150.42 382,-129 392.14,-116.28 386.18,-97.84 379,-84.11"/>
<polygon fill="#63b8ff" stroke="#63b8ff" points="382.09,-82.48 374.02,-75.61 376.05,-86.01 382.09,-82.48"/>
</g>
<!-- Node26 -->
<g id="node26" class="node">
<title>Node26</title>
<g id="a_node26"><a xlink:title=" ">
<polygon fill="#e0e0e0" stroke="#999999" points="136,-74 80,-74 80,-55 136,-55 136,-74"/>
<text text-anchor="middle" x="108" y="-62" font-family="Helvetica,sans-Serif" font-size="10.00">algorithm</text>
</a>
</g>
</g>
<!-- Node25&#45;&gt;Node26 -->
<g id="edge33" class="edge">
<title>Node25&#45;&gt;Node26</title>
<path fill="none" stroke="#63b8ff" d="M170.01,-164.57C156.34,-156.9 138.05,-144.63 127,-129 117.94,-116.19 113.14,-99 110.63,-85.74"/>
<polygon fill="#63b8ff" stroke="#63b8ff" points="114.11,-85.33 109.1,-75.99 107.19,-86.41 114.11,-85.33"/>
</g>
<!-- Node25&#45;&gt;Node27 -->
<g id="edge34" class="edge">
<title>Node25&#45;&gt;Node27</title>
<path fill="none" stroke="#63b8ff" d="M171.67,-164.64C156.36,-156.12 133.05,-142.56 114,-129 93.12,-114.13 70.79,-95.05 55.78,-81.7"/>
<polygon fill="#63b8ff" stroke="#63b8ff" points="58.35,-79.31 48.58,-75.23 53.67,-84.52 58.35,-79.31"/>
</g>
<!-- Node28 -->
<g id="node28" class="node">
<title>Node28</title>
<g id="a_node28"><a xlink:title=" ">
<polygon fill="#e0e0e0" stroke="#999999" points="198.5,-74 159.5,-74 159.5,-55 198.5,-55 198.5,-74"/>
<text text-anchor="middle" x="179" y="-62" font-family="Helvetica,sans-Serif" font-size="10.00">utility</text>
</a>
</g>
</g>
<!-- Node25&#45;&gt;Node28 -->
<g id="edge36" class="edge">
<title>Node25&#45;&gt;Node28</title>
<path fill="none" stroke="#63b8ff" d="M170,-164.57C157.07,-157.05 140.62,-144.96 133,-129 124.6,-111.4 140.01,-93.61 155.21,-81.36"/>
<polygon fill="#63b8ff" stroke="#63b8ff" points="157.28,-84.18 163.22,-75.4 153.1,-78.56 157.28,-84.18"/>
</g>
<!-- Node29 -->
<g id="node29" class="node">
<title>Node29</title>
<g id="a_node29"><a xlink:href="Vectors_8hpp.html" target="_top" xlink:title=" ">
<polygon fill="white" stroke="#666666" points="234,-129 142,-129 142,-110 234,-110 234,-129"/>
<text text-anchor="middle" x="188" y="-117" font-family="Helvetica,sans-Serif" font-size="10.00">Utils/Vectors.hpp</text>
</a>
</g>
</g>
<!-- Node25&#45;&gt;Node29 -->
<g id="edge37" class="edge">
<title>Node25&#45;&gt;Node29</title>
<path fill="none" stroke="#63b8ff" d="M188,-164.75C188,-158.27 188,-149.16 188,-140.9"/>
<polygon fill="#63b8ff" stroke="#63b8ff" points="191.5,-140.96 188,-130.96 184.5,-140.96 191.5,-140.96"/>
</g>
<!-- Node29&#45;&gt;Node10 -->
<g id="edge38" class="edge">
<title>Node29&#45;&gt;Node10</title>
<path fill="none" stroke="#63b8ff" d="M200.55,-109.51C211.46,-101.7 227.5,-90.21 240.46,-80.93"/>
<polygon fill="#63b8ff" stroke="#63b8ff" points="242.31,-83.91 248.4,-75.24 238.23,-78.22 242.31,-83.91"/>
</g>
<!-- Node29&#45;&gt;Node15 -->
<g id="edge41" class="edge">
<title>Node29&#45;&gt;Node15</title>
<path fill="none" stroke="#63b8ff" d="M218.36,-109.51C250.4,-100.02 300.72,-85.12 333.79,-75.33"/>
<polygon fill="#63b8ff" stroke="#63b8ff" points="334.66,-78.73 343.26,-72.53 332.67,-72.01 334.66,-78.73"/>
</g>
<!-- Node29&#45;&gt;Node26 -->
<g id="edge39" class="edge">
<title>Node29&#45;&gt;Node26</title>
<path fill="none" stroke="#63b8ff" d="M174.43,-109.51C162.52,-101.62 144.95,-89.98 130.87,-80.65"/>
<polygon fill="#63b8ff" stroke="#63b8ff" points="132.9,-77.8 122.63,-75.19 129.04,-83.63 132.9,-77.8"/>
</g>
<!-- Node29&#45;&gt;Node27 -->
<g id="edge40" class="edge">
<title>Node29&#45;&gt;Node27</title>
<path fill="none" stroke="#63b8ff" d="M162.55,-109.51C136.4,-100.27 95.7,-85.89 67.99,-76.1"/>
<polygon fill="#63b8ff" stroke="#63b8ff" points="69.38,-72.87 58.78,-72.84 67.05,-79.47 69.38,-72.87"/>
</g>
<!-- Node29&#45;&gt;Node28 -->
<g id="edge42" class="edge">
<title>Node29&#45;&gt;Node28</title>
<path fill="none" stroke="#63b8ff" d="M186.51,-109.75C185.4,-103.19 183.83,-93.95 182.41,-85.6"/>
<polygon fill="#63b8ff" stroke="#63b8ff" points="185.9,-85.21 180.77,-75.93 179,-86.38 185.9,-85.21"/>
</g>
<!-- Node30&#45;&gt;Node10 -->
<g id="edge44" class="edge">
<title>Node30&#45;&gt;Node10</title>
<path fill="none" stroke="#63b8ff" d="M320.13,-109.51C309.91,-101.77 294.93,-90.43 282.74,-81.2"/>
<polygon fill="#63b8ff" stroke="#63b8ff" points="284.99,-78.52 274.91,-75.27 280.77,-84.1 284.99,-78.52"/>
</g>
<!-- Node30&#45;&gt;Node15 -->
<g id="edge46" class="edge">
<title>Node30&#45;&gt;Node15</title>
<path fill="none" stroke="#63b8ff" d="M337.78,-109.75C342.41,-102.73 349.07,-92.64 354.87,-83.87"/>
<polygon fill="#63b8ff" stroke="#63b8ff" points="357.67,-85.98 360.26,-75.71 351.83,-82.12 357.67,-85.98"/>
</g>
<!-- Node30&#45;&gt;Node19 -->
<g id="edge45" class="edge">
<title>Node30&#45;&gt;Node19</title>
<path fill="none" stroke="#63b8ff" d="M329.37,-109.67C325.87,-95.91 321.66,-69.4 336,-55 381.53,-9.27 854.58,-9.5 971.82,-10.27"/>
<polygon fill="#63b8ff" stroke="#63b8ff" points="971.64,-13.77 981.67,-10.34 971.7,-6.77 971.64,-13.77"/>
</g>
<!-- Node31&#45;&gt;Node20 -->
<g id="edge56" class="edge">
<title>Node31&#45;&gt;Node20</title>
<path fill="none" stroke="#63b8ff" d="M1555.6,-329.56C1639.38,-307.99 1844.08,-246.06 1972,-129 2002.67,-100.94 2023.21,-55.77 2033.12,-30.06"/>
<polygon fill="#63b8ff" stroke="#63b8ff" points="2036.33,-31.47 2036.51,-20.87 2029.77,-29.05 2036.33,-31.47"/>
</g>
<!-- Node32 -->
<g id="node32" class="node">
<title>Node32</title>
<g id="a_node32"><a xlink:href="States_8hpp.html" target="_top" xlink:title=" ">
<polygon fill="white" stroke="#666666" points="1556.5,-294 1437.5,-294 1437.5,-275 1556.5,-275 1556.5,-294"/>
<text text-anchor="middle" x="1497" y="-282" font-family="Helvetica,sans-Serif" font-size="10.00">gameStates/States.hpp</text>
</a>
</g>
</g>
<!-- Node31&#45;&gt;Node32 -->
<g id="edge48" class="edge">
<title>Node31&#45;&gt;Node32</title>
<path fill="none" stroke="#63b8ff" d="M1514.53,-329.75C1511.87,-323.04 1508.1,-313.52 1504.74,-305.02"/>
<polygon fill="#63b8ff" stroke="#63b8ff" points="1508.04,-303.86 1501.1,-295.85 1501.53,-306.44 1508.04,-303.86"/>
</g>
<!-- Node32&#45;&gt;Node1 -->
<g id="edge55" class="edge">
<title>Node32&#45;&gt;Node1</title>
<path fill="none" stroke="#63b8ff" d="M1520.02,-294.42C1586.87,-320.33 1782.62,-396.19 1883.82,-435.4"/>
<polygon fill="#63b8ff" stroke="#63b8ff" points="1882.49,-438.64 1893.08,-438.99 1885.02,-432.12 1882.49,-438.64"/>
</g>
<!-- Node32&#45;&gt;Node2 -->
<g id="edge49" class="edge">
<title>Node32&#45;&gt;Node2</title>
<path fill="none" stroke="#63b8ff" d="M1485.97,-294.46C1463.43,-312.76 1411.86,-354.64 1383.52,-377.65"/>
<polygon fill="#63b8ff" stroke="#63b8ff" points="1381.62,-374.69 1376.06,-383.71 1386.03,-380.12 1381.62,-374.69"/>
</g>
<!-- Node33 -->
<g id="node33" class="node">
<title>Node33</title>
<g id="a_node33"><a xlink:href="SMenu_8hpp.html" target="_top" xlink:title=" ">
<polygon fill="white" stroke="#666666" points="1360.5,-239 1295.5,-239 1295.5,-220 1360.5,-220 1360.5,-239"/>
<text text-anchor="middle" x="1328" y="-227" font-family="Helvetica,sans-Serif" font-size="10.00">SMenu.hpp</text>
</a>
</g>
</g>
<!-- Node32&#45;&gt;Node33 -->
<g id="edge50" class="edge">
<title>Node32&#45;&gt;Node33</title>
<path fill="none" stroke="#63b8ff" d="M1468.33,-274.51C1440.57,-265.8 1398.25,-252.53 1367.35,-242.84"/>
<polygon fill="#63b8ff" stroke="#63b8ff" points="1368.56,-239.55 1357.97,-239.9 1366.47,-246.23 1368.56,-239.55"/>
</g>
<!-- Node33&#45;&gt;Node2 -->
<g id="edge51" class="edge">
<title>Node33&#45;&gt;Node2</title>
<path fill="none" stroke="#63b8ff" d="M1329.95,-239.31C1335.55,-264.68 1351.83,-338.38 1359.67,-373.91"/>
<polygon fill="#63b8ff" stroke="#63b8ff" points="1356.16,-374.25 1361.74,-383.26 1363,-372.74 1356.16,-374.25"/>
</g>
<!-- Node34 -->
<g id="node34" class="node">
<title>Node34</title>
<g id="a_node34"><a xlink:href="Bouton_8hpp.html" target="_top" xlink:title=" ">
<polygon fill="white" stroke="#666666" points="1283.5,-184 1160.5,-184 1160.5,-165 1283.5,-165 1283.5,-184"/>
<text text-anchor="middle" x="1222" y="-172" font-family="Helvetica,sans-Serif" font-size="10.00">Components/Bouton.hpp</text>
</a>
</g>
</g>
<!-- Node33&#45;&gt;Node34 -->
<g id="edge52" class="edge">
<title>Node33&#45;&gt;Node34</title>
<path fill="none" stroke="#63b8ff" d="M1310.02,-219.51C1293.55,-211.27 1268.91,-198.96 1249.89,-189.45"/>
<polygon fill="#63b8ff" stroke="#63b8ff" points="1251.58,-186.38 1241.07,-185.03 1248.45,-192.64 1251.58,-186.38"/>
</g>
<!-- Node34&#45;&gt;Node4 -->
<g id="edge53" class="edge">
<title>Node34&#45;&gt;Node4</title>
<path fill="none" stroke="#63b8ff" d="M1238.79,-164.51C1254.1,-156.31 1276.97,-144.07 1294.7,-134.58"/>
<polygon fill="#63b8ff" stroke="#63b8ff" points="1295.96,-137.88 1303.12,-130.07 1292.65,-131.71 1295.96,-137.88"/>
</g>
<!-- Node35 -->
<g id="node35" class="node">
<title>Node35</title>
<g id="a_node35"><a xlink:title=" ">
<polygon fill="#e0e0e0" stroke="#999999" points="1216.5,-129 1157.5,-129 1157.5,-110 1216.5,-110 1216.5,-129"/>
<text text-anchor="middle" x="1187" y="-117" font-family="Helvetica,sans-Serif" font-size="10.00">functional</text>
</a>
</g>
</g>
<!-- Node34&#45;&gt;Node35 -->
<g id="edge54" class="edge">
<title>Node34&#45;&gt;Node35</title>
<path fill="none" stroke="#63b8ff" d="M1216.22,-164.75C1211.59,-157.73 1204.93,-147.64 1199.13,-138.87"/>
<polygon fill="#63b8ff" stroke="#63b8ff" points="1202.17,-137.12 1193.74,-130.71 1196.33,-140.98 1202.17,-137.12"/>
</g>
<!-- Node36&#45;&gt;Node4 -->
<g id="edge59" class="edge">
<title>Node36&#45;&gt;Node4</title>
<path fill="none" stroke="#63b8ff" d="M1605.81,-164.51C1543.2,-154.83 1444.1,-139.52 1380.85,-129.75"/>
<polygon fill="#63b8ff" stroke="#63b8ff" points="1381.39,-126.29 1370.97,-128.22 1380.32,-133.21 1381.39,-126.29"/>
</g>
<!-- Node36&#45;&gt;Node15 -->
<g id="edge62" class="edge">
<title>Node36&#45;&gt;Node15</title>
<path fill="none" stroke="#63b8ff" d="M1595.75,-172.95C1515,-170.71 1377.25,-161.82 1264,-129 1245.48,-123.63 1243.68,-114.76 1225,-110 1054.92,-66.67 610.9,-88.74 436,-74 424.4,-73.02 411.74,-71.57 400.47,-70.15"/>
<polygon fill="#63b8ff" stroke="#63b8ff" points="401.2,-66.71 390.83,-68.89 400.29,-73.66 401.2,-66.71"/>
</g>
<!-- Node36&#45;&gt;Node22 -->
<g id="edge60" class="edge">
<title>Node36&#45;&gt;Node22</title>
<path fill="none" stroke="#63b8ff" d="M1725.05,-164.51C1777.46,-153.21 1849.94,-128.24 1885,-74 1908.05,-38.34 1849.21,-22.53 1800.38,-15.64"/>
<polygon fill="#63b8ff" stroke="#63b8ff" points="1801.06,-12.2 1790.69,-14.38 1800.16,-19.14 1801.06,-12.2"/>
</g>
<!-- Node36&#45;&gt;Node23 -->
<g id="edge61" class="edge">
<title>Node36&#45;&gt;Node23</title>
<path fill="none" stroke="#63b8ff" d="M1732.25,-168.94C1803.84,-163.07 1910.65,-150.92 1945,-129 1976,-109.22 2001.79,-85.99 1982,-55 1968.51,-33.87 1942.12,-22.62 1920.42,-16.73"/>
<polygon fill="#63b8ff" stroke="#63b8ff" points="1921.29,-13.34 1910.74,-14.39 1919.64,-20.14 1921.29,-13.34"/>
</g>
<!-- Node37 -->
<g id="node37" class="node">
<title>Node37</title>
<g id="a_node37"><a xlink:title=" ">
<polygon fill="#e0e0e0" stroke="#999999" points="1936,-129 1892,-129 1892,-110 1936,-110 1936,-129"/>
<text text-anchor="middle" x="1914" y="-117" font-family="Helvetica,sans-Serif" font-size="10.00">cmath</text>
</a>
</g>
</g>
<!-- Node36&#45;&gt;Node37 -->
<g id="edge63" class="edge">
<title>Node36&#45;&gt;Node37</title>
<path fill="none" stroke="#63b8ff" d="M1708.75,-164.56C1752.1,-155.81 1819.65,-141.95 1878,-129 1878.82,-128.82 1879.66,-128.63 1880.5,-128.44"/>
<polygon fill="#63b8ff" stroke="#63b8ff" points="1881.12,-131.89 1890.08,-126.24 1879.55,-125.07 1881.12,-131.89"/>
</g>
<!-- Node40 -->
<g id="node40" class="node">
<title>Node40</title>
<g id="a_node40"><a xlink:title=" ">
<polygon fill="#e0e0e0" stroke="#999999" points="2106,-349 2044,-349 2044,-330 2106,-330 2106,-349"/>
<text text-anchor="middle" x="2075" y="-337" font-family="Helvetica,sans-Serif" font-size="10.00">Skaldi.hpp</text>
</a>
</g>
</g>
<!-- Node39&#45;&gt;Node40 -->
<g id="edge69" class="edge">
<title>Node39&#45;&gt;Node40</title>
<path fill="none" stroke="#63b8ff" d="M2069.99,-384.75C2070.73,-378.19 2071.78,-368.95 2072.72,-360.6"/>
<polygon fill="#63b8ff" stroke="#63b8ff" points="2076.17,-361.28 2073.82,-350.95 2069.21,-360.49 2076.17,-361.28"/>
</g>
<!-- Node41 -->
<g id="node41" class="node">
<title>Node41</title>
<g id="a_node41"><a xlink:title=" ">
<polygon fill="#e0e0e0" stroke="#999999" points="2025.5,-349 1974.5,-349 1974.5,-330 2025.5,-330 2025.5,-349"/>
<text text-anchor="middle" x="2000" y="-337" font-family="Helvetica,sans-Serif" font-size="10.00">memory</text>
</a>
</g>
</g>
<!-- Node39&#45;&gt;Node41 -->
<g id="edge70" class="edge">
<title>Node39&#45;&gt;Node41</title>
<path fill="none" stroke="#63b8ff" d="M2057.3,-384.51C2047.22,-376.77 2032.46,-365.43 2020.44,-356.2"/>
<polygon fill="#63b8ff" stroke="#63b8ff" points="2022.79,-353.6 2012.73,-350.28 2018.53,-359.15 2022.79,-353.6"/>
</g>
</g>
</svg>
