<?xml version="1.0" encoding="UTF-8" standalone="no"?>
<!DOCTYPE svg PUBLIC "-//W3C//DTD SVG 1.1//EN"
 "http://www.w3.org/Graphics/SVG/1.1/DTD/svg11.dtd">
<!-- Generated by graphviz version 7.0.5 (20221223.1930)
 -->
<!-- Title: /github/workspace/client/include/system/gameStates/Example/SGamePlay_Duck.hpp Pages: 1 -->
<svg width="2342pt" height="489pt"
 viewBox="0.00 0.00 2341.96 489.00" xmlns="http://www.w3.org/2000/svg" xmlns:xlink="http://www.w3.org/1999/xlink">
<g id="graph0" class="graph" transform="scale(1 1) rotate(0) translate(4 485)">
<title>/github/workspace/client/include/system/gameStates/Example/SGamePlay_Duck.hpp</title>
<!-- Node1 -->
<g id="node1" class="node">
<title>Node1</title>
<g id="a_node1"><a xlink:title=" ">
<polygon fill="#999999" stroke="#666666" points="2333.96,-481 2176.96,-481 2176.96,-440 2333.96,-440 2333.96,-481"/>
<text text-anchor="start" x="2184.96" y="-469" font-family="Helvetica,sans-Serif" font-size="10.00">/github/workspace/client</text>
<text text-anchor="start" x="2184.96" y="-458" font-family="Helvetica,sans-Serif" font-size="10.00">/include/system/gameStates</text>
<text text-anchor="middle" x="2255.46" y="-447" font-family="Helvetica,sans-Serif" font-size="10.00">/Example/SGamePlay_Duck.hpp</text>
</a>
</g>
</g>
<!-- Node2 -->
<g id="node2" class="node">
<title>Node2</title>
<g id="a_node2"><a xlink:href="IGameState_8hpp.html" target="_top" xlink:title=" ">
<polygon fill="white" stroke="#666666" points="1670.96,-404 1583.96,-404 1583.96,-385 1670.96,-385 1670.96,-404"/>
<text text-anchor="middle" x="1627.46" y="-392" font-family="Helvetica,sans-Serif" font-size="10.00">IGameState.hpp</text>
</a>
</g>
</g>
<!-- Node1&#45;&gt;Node2 -->
<g id="edge1" class="edge">
<title>Node1&#45;&gt;Node2</title>
<path fill="none" stroke="#63b8ff" d="M2176.56,-451.46C2047.39,-438.29 1794,-412.47 1682.43,-401.1"/>
<polygon fill="#63b8ff" stroke="#63b8ff" points="1682.94,-397.64 1672.63,-400.1 1682.23,-404.6 1682.94,-397.64"/>
</g>
<!-- Node12 -->
<g id="node12" class="node">
<title>Node12</title>
<g id="a_node12"><a xlink:title=" ">
<polygon fill="#e0e0e0" stroke="#999999" points="2006.96,-74 1965.96,-74 1965.96,-55 2006.96,-55 2006.96,-74"/>
<text text-anchor="middle" x="1986.46" y="-62" font-family="Helvetica,sans-Serif" font-size="10.00">string</text>
</a>
</g>
</g>
<!-- Node1&#45;&gt;Node12 -->
<g id="edge73" class="edge">
<title>Node1&#45;&gt;Node12</title>
<path fill="none" stroke="#63b8ff" d="M2265.85,-439.9C2277.1,-416.8 2293.46,-376.93 2293.46,-340.5 2293.46,-340.5 2293.46,-340.5 2293.46,-173.5 2293.46,-144.04 2296.67,-129.35 2274.46,-110 2236.76,-77.15 2085.53,-68.5 2018.61,-66.26"/>
<polygon fill="#63b8ff" stroke="#63b8ff" points="2018.75,-62.76 2008.65,-65.96 2018.54,-69.76 2018.75,-62.76"/>
</g>
<!-- Node20 -->
<g id="node20" class="node">
<title>Node20</title>
<g id="a_node20"><a xlink:title=" ">
<polygon fill="#e0e0e0" stroke="#999999" points="2126.96,-19 2083.96,-19 2083.96,0 2126.96,0 2126.96,-19"/>
<text text-anchor="middle" x="2105.46" y="-7" font-family="Helvetica,sans-Serif" font-size="10.00">queue</text>
</a>
</g>
</g>
<!-- Node1&#45;&gt;Node20 -->
<g id="edge72" class="edge">
<title>Node1&#45;&gt;Node20</title>
<path fill="none" stroke="#63b8ff" d="M2278.27,-439.62C2300.65,-417.78 2331.46,-380.46 2331.46,-340.5 2331.46,-340.5 2331.46,-340.5 2331.46,-118.5 2331.46,-33.93 2201.05,-15.53 2138.36,-11.56"/>
<polygon fill="#63b8ff" stroke="#63b8ff" points="2138.82,-8.08 2128.64,-11.04 2138.44,-15.07 2138.82,-8.08"/>
</g>
<!-- Node37 -->
<g id="node37" class="node">
<title>Node37</title>
<g id="a_node37"><a xlink:title=" ">
<polygon fill="#e0e0e0" stroke="#999999" points="2189.46,-184 2143.46,-184 2143.46,-165 2189.46,-165 2189.46,-184"/>
<text text-anchor="middle" x="2166.46" y="-172" font-family="Helvetica,sans-Serif" font-size="10.00">cstring</text>
</a>
</g>
</g>
<!-- Node1&#45;&gt;Node37 -->
<g id="edge74" class="edge">
<title>Node1&#45;&gt;Node37</title>
<path fill="none" stroke="#63b8ff" d="M2230.11,-439.65C2205.7,-418.12 2172.46,-381.31 2172.46,-340.5 2172.46,-340.5 2172.46,-340.5 2172.46,-283.5 2172.46,-252.88 2170.03,-217.44 2168.26,-195.75"/>
<polygon fill="#63b8ff" stroke="#63b8ff" points="2171.76,-195.63 2167.43,-185.96 2164.79,-196.22 2171.76,-195.63"/>
</g>
<!-- Node39 -->
<g id="node39" class="node">
<title>Node39</title>
<g id="a_node39"><a xlink:title=" ">
<polygon fill="#e0e0e0" stroke="#999999" points="2265.46,-129 2203.46,-129 2203.46,-110 2265.46,-110 2265.46,-129"/>
<text text-anchor="middle" x="2234.46" y="-117" font-family="Helvetica,sans-Serif" font-size="10.00">Skaldi.hpp</text>
</a>
</g>
</g>
<!-- Node1&#45;&gt;Node39 -->
<g id="edge75" class="edge">
<title>Node1&#45;&gt;Node39</title>
<path fill="none" stroke="#63b8ff" d="M2255.46,-439.71C2255.46,-416.09 2255.46,-375.41 2255.46,-340.5 2255.46,-340.5 2255.46,-340.5 2255.46,-228.5 2255.46,-197.2 2246.86,-161.73 2240.67,-140.24"/>
<polygon fill="#63b8ff" stroke="#63b8ff" points="2244.06,-139.36 2237.82,-130.8 2237.36,-141.38 2244.06,-139.36"/>
</g>
<!-- Node3 -->
<g id="node3" class="node">
<title>Node3</title>
<g id="a_node3"><a xlink:href="EntitiesManager_8hpp.html" target="_top" xlink:title=" ">
<polygon fill="white" stroke="#666666" points="1413.46,-239 1273.46,-239 1273.46,-220 1413.46,-220 1413.46,-239"/>
<text text-anchor="middle" x="1343.46" y="-227" font-family="Helvetica,sans-Serif" font-size="10.00">Entities/EntitiesManager.hpp</text>
</a>
</g>
</g>
<!-- Node2&#45;&gt;Node3 -->
<g id="edge2" class="edge">
<title>Node2&#45;&gt;Node3</title>
<path fill="none" stroke="#63b8ff" d="M1583.78,-392.68C1540.73,-389.95 1474.72,-380.4 1427.46,-349 1389.96,-324.08 1363.9,-276.26 1351.57,-249.62"/>
<polygon fill="#63b8ff" stroke="#63b8ff" points="1354.88,-248.43 1347.62,-240.71 1348.48,-251.27 1354.88,-248.43"/>
</g>
<!-- Node24 -->
<g id="node24" class="node">
<title>Node24</title>
<g id="a_node24"><a xlink:href="Background_8hpp.html" target="_top" xlink:title=" ">
<polygon fill="white" stroke="#666666" points="1518.46,-74 1374.46,-74 1374.46,-55 1518.46,-55 1518.46,-74"/>
<text text-anchor="middle" x="1446.46" y="-62" font-family="Helvetica,sans-Serif" font-size="10.00">Components/Background.hpp</text>
</a>
</g>
</g>
<!-- Node2&#45;&gt;Node24 -->
<g id="edge65" class="edge">
<title>Node2&#45;&gt;Node24</title>
<path fill="none" stroke="#63b8ff" d="M1583.85,-387.62C1528.88,-377.47 1441.46,-351.03 1441.46,-285.5 1441.46,-285.5 1441.46,-285.5 1441.46,-173.5 1441.46,-142.89 1443.49,-107.45 1444.97,-85.76"/>
<polygon fill="#63b8ff" stroke="#63b8ff" points="1448.44,-86.19 1445.66,-75.96 1441.46,-85.69 1448.44,-86.19"/>
</g>
<!-- Node30 -->
<g id="node30" class="node">
<title>Node30</title>
<g id="a_node30"><a xlink:href="String_8hpp.html" target="_top" xlink:title=" ">
<polygon fill="white" stroke="#666666" points="1668.96,-129 1585.96,-129 1585.96,-110 1668.96,-110 1668.96,-129"/>
<text text-anchor="middle" x="1627.46" y="-117" font-family="Helvetica,sans-Serif" font-size="10.00">Utils/String.hpp</text>
</a>
</g>
</g>
<!-- Node2&#45;&gt;Node30 -->
<g id="edge43" class="edge">
<title>Node2&#45;&gt;Node30</title>
<path fill="none" stroke="#63b8ff" d="M1627.46,-384.54C1627.46,-366.03 1627.46,-322.25 1627.46,-285.5 1627.46,-285.5 1627.46,-285.5 1627.46,-228.5 1627.46,-197.92 1627.46,-162.48 1627.46,-140.77"/>
<polygon fill="#63b8ff" stroke="#63b8ff" points="1630.96,-140.97 1627.46,-130.97 1623.96,-140.97 1630.96,-140.97"/>
</g>
<!-- Node31 -->
<g id="node31" class="node">
<title>Node31</title>
<g id="a_node31"><a xlink:href="GameEngine_8hpp.html" target="_top" xlink:title=" ">
<polygon fill="white" stroke="#666666" points="1818.96,-349 1693.96,-349 1693.96,-330 1818.96,-330 1818.96,-349"/>
<text text-anchor="middle" x="1756.46" y="-337" font-family="Helvetica,sans-Serif" font-size="10.00">system/GameEngine.hpp</text>
</a>
</g>
</g>
<!-- Node2&#45;&gt;Node31 -->
<g id="edge47" class="edge">
<title>Node2&#45;&gt;Node31</title>
<path fill="none" stroke="#63b8ff" d="M1649.35,-384.51C1669.95,-376.04 1701.05,-363.27 1724.44,-353.66"/>
<polygon fill="#63b8ff" stroke="#63b8ff" points="1725.58,-356.97 1733.5,-349.93 1722.92,-350.5 1725.58,-356.97"/>
</g>
<!-- Node41 -->
<g id="node41" class="node">
<title>Node41</title>
<g id="a_node41"><a xlink:href="Centipede_8hpp.html" target="_top" xlink:title=" ">
<polygon fill="white" stroke="#666666" points="638.46,-184 502.46,-184 502.46,-165 638.46,-165 638.46,-184"/>
<text text-anchor="middle" x="570.46" y="-172" font-family="Helvetica,sans-Serif" font-size="10.00">Components/Centipede.hpp</text>
</a>
</g>
</g>
<!-- Node2&#45;&gt;Node41 -->
<g id="edge66" class="edge">
<title>Node2&#45;&gt;Node41</title>
<path fill="none" stroke="#63b8ff" d="M1583.88,-385.02C1538.54,-376.16 1465.48,-361.8 1402.46,-349 1107.76,-289.13 754.96,-214.62 623.36,-186.73"/>
<polygon fill="#63b8ff" stroke="#63b8ff" points="624.41,-183.37 613.9,-184.72 622.96,-190.22 624.41,-183.37"/>
</g>
<!-- Node4 -->
<g id="node4" class="node">
<title>Node4</title>
<g id="a_node4"><a xlink:href="Engine_8hpp.html" target="_top" xlink:title=" ">
<polygon fill="white" stroke="#666666" points="1097.46,-129 1001.46,-129 1001.46,-110 1097.46,-110 1097.46,-129"/>
<text text-anchor="middle" x="1049.46" y="-117" font-family="Helvetica,sans-Serif" font-size="10.00">Engine/Engine.hpp</text>
</a>
</g>
</g>
<!-- Node3&#45;&gt;Node4 -->
<g id="edge3" class="edge">
<title>Node3&#45;&gt;Node4</title>
<path fill="none" stroke="#63b8ff" d="M1315.23,-219.57C1259.85,-200.52 1137.99,-155.84 1080.48,-133.58"/>
<polygon fill="#63b8ff" stroke="#63b8ff" points="1081.87,-130.37 1071.28,-129.99 1079.32,-136.89 1081.87,-130.37"/>
</g>
<!-- Node22 -->
<g id="node22" class="node">
<title>Node22</title>
<g id="a_node22"><a xlink:href="IComponents_8hpp.html" target="_top" xlink:title=" ">
<polygon fill="white" stroke="#666666" points="247.46,-19 155.46,-19 155.46,0 247.46,0 247.46,-19"/>
<text text-anchor="middle" x="201.46" y="-7" font-family="Helvetica,sans-Serif" font-size="10.00">IComponents.hpp</text>
</a>
</g>
</g>
<!-- Node3&#45;&gt;Node22 -->
<g id="edge30" class="edge">
<title>Node3&#45;&gt;Node22</title>
<path fill="none" stroke="#63b8ff" d="M1350.74,-219.6C1368.2,-198.62 1414.54,-145.18 1461.46,-110 1492.01,-87.09 1554.01,-82.45 1527.46,-55 1482.79,-8.8 507.97,-9.33 258.96,-10.23"/>
<polygon fill="#63b8ff" stroke="#63b8ff" points="259.16,-6.73 249.18,-10.27 259.19,-13.73 259.16,-6.73"/>
</g>
<!-- Node25 -->
<g id="node25" class="node">
<title>Node25</title>
<g id="a_node25"><a xlink:href="SparseArray_8hpp.html" target="_top" xlink:title=" ">
<polygon fill="white" stroke="#666666" points="1790.96,-184 1679.96,-184 1679.96,-165 1790.96,-165 1790.96,-184"/>
<text text-anchor="middle" x="1735.46" y="-172" font-family="Helvetica,sans-Serif" font-size="10.00">Utils/SparseArray.hpp</text>
</a>
</g>
</g>
<!-- Node3&#45;&gt;Node25 -->
<g id="edge31" class="edge">
<title>Node3&#45;&gt;Node25</title>
<path fill="none" stroke="#63b8ff" d="M1409.96,-219.51C1482.01,-209.77 1596.33,-194.31 1668.54,-184.55"/>
<polygon fill="#63b8ff" stroke="#63b8ff" points="1668.82,-188.04 1678.26,-183.23 1667.88,-181.11 1668.82,-188.04"/>
</g>
<!-- Node4&#45;&gt;Node3 -->
<g id="edge22" class="edge">
<title>Node4&#45;&gt;Node3</title>
<path fill="none" stroke="#63b8ff" d="M1077.79,-129.46C1133.3,-148.56 1255.39,-193.33 1312.75,-215.54"/>
<polygon fill="#63b8ff" stroke="#63b8ff" points="1311.32,-218.73 1321.91,-219.11 1313.86,-212.21 1311.32,-218.73"/>
</g>
<!-- Node5 -->
<g id="node5" class="node">
<title>Node5</title>
<g id="a_node5"><a xlink:title=" ">
<polygon fill="#e0e0e0" stroke="#999999" points="1245.96,-74 1156.96,-74 1156.96,-55 1245.96,-55 1245.96,-74"/>
<text text-anchor="middle" x="1201.46" y="-62" font-family="Helvetica,sans-Serif" font-size="10.00">SFML/Audio.hpp</text>
</a>
</g>
</g>
<!-- Node4&#45;&gt;Node5 -->
<g id="edge4" class="edge">
<title>Node4&#45;&gt;Node5</title>
<path fill="none" stroke="#63b8ff" d="M1075.25,-109.51C1099.89,-100.92 1137.28,-87.88 1164.97,-78.22"/>
<polygon fill="#63b8ff" stroke="#63b8ff" points="1166.09,-81.54 1174.38,-74.94 1163.78,-74.93 1166.09,-81.54"/>
</g>
<!-- Node6 -->
<g id="node6" class="node">
<title>Node6</title>
<g id="a_node6"><a xlink:title=" ">
<polygon fill="#e0e0e0" stroke="#999999" points="331.46,-74 227.46,-74 227.46,-55 331.46,-55 331.46,-74"/>
<text text-anchor="middle" x="279.46" y="-62" font-family="Helvetica,sans-Serif" font-size="10.00">SFML/Graphics.hpp</text>
</a>
</g>
</g>
<!-- Node4&#45;&gt;Node6 -->
<g id="edge5" class="edge">
<title>Node4&#45;&gt;Node6</title>
<path fill="none" stroke="#63b8ff" d="M1001.22,-116.73C888.15,-112.32 597.03,-99.4 342.98,-74.17"/>
<polygon fill="#63b8ff" stroke="#63b8ff" points="343.48,-70.71 333.18,-73.19 342.78,-77.67 343.48,-70.71"/>
</g>
<!-- Node7 -->
<g id="node7" class="node">
<title>Node7</title>
<g id="a_node7"><a xlink:title=" ">
<polygon fill="#e0e0e0" stroke="#999999" points="450.96,-74 349.96,-74 349.96,-55 450.96,-55 450.96,-74"/>
<text text-anchor="middle" x="400.46" y="-62" font-family="Helvetica,sans-Serif" font-size="10.00">SFML/Network.hpp</text>
</a>
</g>
</g>
<!-- Node4&#45;&gt;Node7 -->
<g id="edge6" class="edge">
<title>Node4&#45;&gt;Node7</title>
<path fill="none" stroke="#63b8ff" d="M1001.18,-115.97C902.17,-110.54 668.74,-96.51 462.63,-74.28"/>
<polygon fill="#63b8ff" stroke="#63b8ff" points="463.11,-70.81 452.79,-73.21 462.35,-77.77 463.11,-70.81"/>
</g>
<!-- Node8 -->
<g id="node8" class="node">
<title>Node8</title>
<g id="a_node8"><a xlink:title=" ">
<polygon fill="#e0e0e0" stroke="#999999" points="567.96,-74 468.96,-74 468.96,-55 567.96,-55 567.96,-74"/>
<text text-anchor="middle" x="518.46" y="-62" font-family="Helvetica,sans-Serif" font-size="10.00">SFML/Window.hpp</text>
</a>
</g>
</g>
<!-- Node4&#45;&gt;Node8 -->
<g id="edge7" class="edge">
<title>Node4&#45;&gt;Node8</title>
<path fill="none" stroke="#63b8ff" d="M1001.14,-114.73C917.51,-108.04 740.13,-93.09 579.39,-74.17"/>
<polygon fill="#63b8ff" stroke="#63b8ff" points="580.18,-70.74 569.84,-73.04 579.36,-77.69 580.18,-70.74"/>
</g>
<!-- Node9 -->
<g id="node9" class="node">
<title>Node9</title>
<g id="a_node9"><a xlink:title=" ">
<polygon fill="#e0e0e0" stroke="#999999" points="684.46,-74 586.46,-74 586.46,-55 684.46,-55 684.46,-74"/>
<text text-anchor="middle" x="635.46" y="-62" font-family="Helvetica,sans-Serif" font-size="10.00">SFML/System.hpp</text>
</a>
</g>
</g>
<!-- Node4&#45;&gt;Node9 -->
<g id="edge8" class="edge">
<title>Node4&#45;&gt;Node9</title>
<path fill="none" stroke="#63b8ff" d="M1001.05,-112.78C934.66,-104.86 811.34,-89.89 695.95,-74.31"/>
<polygon fill="#63b8ff" stroke="#63b8ff" points="696.69,-70.88 686.31,-73.01 695.75,-77.82 696.69,-70.88"/>
</g>
<!-- Node10 -->
<g id="node10" class="node">
<title>Node10</title>
<g id="a_node10"><a xlink:title=" ">
<polygon fill="#e0e0e0" stroke="#999999" points="1728.46,-74 1674.46,-74 1674.46,-55 1728.46,-55 1728.46,-74"/>
<text text-anchor="middle" x="1701.46" y="-62" font-family="Helvetica,sans-Serif" font-size="10.00">iostream</text>
</a>
</g>
</g>
<!-- Node4&#45;&gt;Node10 -->
<g id="edge9" class="edge">
<title>Node4&#45;&gt;Node10</title>
<path fill="none" stroke="#63b8ff" d="M1097.85,-115.39C1197.2,-108.87 1431.35,-92.81 1627.46,-74 1638.93,-72.9 1651.37,-71.54 1662.73,-70.23"/>
<polygon fill="#63b8ff" stroke="#63b8ff" points="1663.05,-73.71 1672.57,-69.07 1662.23,-66.76 1663.05,-73.71"/>
</g>
<!-- Node11 -->
<g id="node11" class="node">
<title>Node11</title>
<g id="a_node11"><a xlink:title=" ">
<polygon fill="#e0e0e0" stroke="#999999" points="752.46,-74 702.46,-74 702.46,-55 752.46,-55 752.46,-74"/>
<text text-anchor="middle" x="727.46" y="-62" font-family="Helvetica,sans-Serif" font-size="10.00">fstream</text>
</a>
</g>
</g>
<!-- Node4&#45;&gt;Node11 -->
<g id="edge10" class="edge">
<title>Node4&#45;&gt;Node11</title>
<path fill="none" stroke="#63b8ff" d="M1001.07,-112.4C945.95,-105.15 852.97,-92 763.79,-74.31"/>
<polygon fill="#63b8ff" stroke="#63b8ff" points="764.63,-70.91 754.14,-72.37 763.25,-77.77 764.63,-70.91"/>
</g>
<!-- Node4&#45;&gt;Node12 -->
<g id="edge11" class="edge">
<title>Node4&#45;&gt;Node12</title>
<path fill="none" stroke="#63b8ff" d="M1097.94,-117.23C1260.09,-112.81 1782.69,-97.1 1949.46,-74 1951.14,-73.77 1952.85,-73.5 1954.57,-73.2"/>
<polygon fill="#63b8ff" stroke="#63b8ff" points="1955.25,-76.63 1964.36,-71.22 1953.86,-69.77 1955.25,-76.63"/>
</g>
<!-- Node13 -->
<g id="node13" class="node">
<title>Node13</title>
<g id="a_node13"><a xlink:title=" ">
<polygon fill="#e0e0e0" stroke="#999999" points="820.46,-74 770.46,-74 770.46,-55 820.46,-55 820.46,-74"/>
<text text-anchor="middle" x="795.46" y="-62" font-family="Helvetica,sans-Serif" font-size="10.00">unistd.h</text>
</a>
</g>
</g>
<!-- Node4&#45;&gt;Node13 -->
<g id="edge12" class="edge">
<title>Node4&#45;&gt;Node13</title>
<path fill="none" stroke="#63b8ff" d="M1002.12,-109.57C959.92,-101.46 896.2,-88.87 831.85,-74.46"/>
<polygon fill="#63b8ff" stroke="#63b8ff" points="832.69,-71.06 822.16,-72.27 831.15,-77.89 832.69,-71.06"/>
</g>
<!-- Node14 -->
<g id="node14" class="node">
<title>Node14</title>
<g id="a_node14"><a xlink:title=" ">
<polygon fill="#e0e0e0" stroke="#999999" points="903.96,-74 838.96,-74 838.96,-55 903.96,-55 903.96,-74"/>
<text text-anchor="middle" x="871.46" y="-62" font-family="Helvetica,sans-Serif" font-size="10.00">sys/types.h</text>
</a>
</g>
</g>
<!-- Node4&#45;&gt;Node14 -->
<g id="edge13" class="edge">
<title>Node4&#45;&gt;Node14</title>
<path fill="none" stroke="#63b8ff" d="M1019.27,-109.51C989.9,-100.76 945.07,-87.42 912.48,-77.71"/>
<polygon fill="#63b8ff" stroke="#63b8ff" points="913.54,-74.38 902.96,-74.88 911.55,-81.09 913.54,-74.38"/>
</g>
<!-- Node15 -->
<g id="node15" class="node">
<title>Node15</title>
<g id="a_node15"><a xlink:title=" ">
<polygon fill="#e0e0e0" stroke="#999999" points="1618.46,-74 1574.46,-74 1574.46,-55 1618.46,-55 1618.46,-74"/>
<text text-anchor="middle" x="1596.46" y="-62" font-family="Helvetica,sans-Serif" font-size="10.00">vector</text>
</a>
</g>
</g>
<!-- Node4&#45;&gt;Node15 -->
<g id="edge14" class="edge">
<title>Node4&#45;&gt;Node15</title>
<path fill="none" stroke="#63b8ff" d="M1097.68,-114.49C1183.97,-107.2 1370.44,-90.98 1527.46,-74 1539.04,-72.75 1551.69,-71.23 1562.97,-69.83"/>
<polygon fill="#63b8ff" stroke="#63b8ff" points="1563.12,-73.34 1572.61,-68.61 1562.25,-66.39 1563.12,-73.34"/>
</g>
<!-- Node16 -->
<g id="node16" class="node">
<title>Node16</title>
<g id="a_node16"><a xlink:title=" ">
<polygon fill="#e0e0e0" stroke="#999999" points="980.46,-74 922.46,-74 922.46,-55 980.46,-55 980.46,-74"/>
<text text-anchor="middle" x="951.46" y="-62" font-family="Helvetica,sans-Serif" font-size="10.00">exception</text>
</a>
</g>
</g>
<!-- Node4&#45;&gt;Node16 -->
<g id="edge15" class="edge">
<title>Node4&#45;&gt;Node16</title>
<path fill="none" stroke="#63b8ff" d="M1032.84,-109.51C1017.68,-101.31 995.05,-89.07 977.5,-79.58"/>
<polygon fill="#63b8ff" stroke="#63b8ff" points="979.63,-76.76 969.17,-75.08 976.3,-82.91 979.63,-76.76"/>
</g>
<!-- Node17 -->
<g id="node17" class="node">
<title>Node17</title>
<g id="a_node17"><a xlink:href="Window_8hpp.html" target="_top" xlink:title=" ">
<polygon fill="white" stroke="#666666" points="1099.96,-74 998.96,-74 998.96,-55 1099.96,-55 1099.96,-74"/>
<text text-anchor="middle" x="1049.46" y="-62" font-family="Helvetica,sans-Serif" font-size="10.00">Engine/Window.hpp</text>
</a>
</g>
</g>
<!-- Node4&#45;&gt;Node17 -->
<g id="edge16" class="edge">
<title>Node4&#45;&gt;Node17</title>
<path fill="none" stroke="#63b8ff" d="M1044.3,-109.75C1042.89,-103.19 1042.42,-93.95 1042.89,-85.6"/>
<polygon fill="#63b8ff" stroke="#63b8ff" points="1046.33,-86.3 1044.07,-75.94 1039.38,-85.45 1046.33,-86.3"/>
</g>
<!-- Node18 -->
<g id="node18" class="node">
<title>Node18</title>
<g id="a_node18"><a xlink:href="Event_8hpp.html" target="_top" xlink:title=" ">
<polygon fill="white" stroke="#666666" points="1356.46,-74 1264.46,-74 1264.46,-55 1356.46,-55 1356.46,-74"/>
<text text-anchor="middle" x="1310.46" y="-62" font-family="Helvetica,sans-Serif" font-size="10.00">Engine/Event.hpp</text>
</a>
</g>
</g>
<!-- Node4&#45;&gt;Node18 -->
<g id="edge18" class="edge">
<title>Node4&#45;&gt;Node18</title>
<path fill="none" stroke="#63b8ff" d="M1088.52,-109.51C1132.19,-100.25 1203.12,-85.82 1253.08,-76.03"/>
<polygon fill="#63b8ff" stroke="#63b8ff" points="1253.71,-79.48 1262.86,-74.12 1252.37,-72.6 1253.71,-79.48"/>
</g>
<!-- Node21 -->
<g id="node21" class="node">
<title>Node21</title>
<g id="a_node21"><a xlink:href="Bullets_8hpp.html" target="_top" xlink:title=" ">
<polygon fill="white" stroke="#666666" points="209.46,-74 87.46,-74 87.46,-55 209.46,-55 209.46,-74"/>
<text text-anchor="middle" x="148.46" y="-62" font-family="Helvetica,sans-Serif" font-size="10.00">Components/Bullets.hpp</text>
</a>
</g>
</g>
<!-- Node4&#45;&gt;Node21 -->
<g id="edge23" class="edge">
<title>Node4&#45;&gt;Node21</title>
<path fill="none" stroke="#63b8ff" d="M1001.11,-117.18C873.76,-113.3 519.07,-100.57 221.36,-75.03"/>
<polygon fill="#63b8ff" stroke="#63b8ff" points="221.68,-71.54 211.41,-74.17 221.07,-78.52 221.68,-71.54"/>
</g>
<!-- Node4&#45;&gt;Node24 -->
<g id="edge28" class="edge">
<title>Node4&#45;&gt;Node24</title>
<path fill="none" stroke="#63b8ff" d="M1097.82,-111.41C1163.76,-102.29 1282.67,-86.38 1363.11,-75.9"/>
<polygon fill="#63b8ff" stroke="#63b8ff" points="1363.23,-79.41 1372.69,-74.65 1362.32,-72.47 1363.23,-79.41"/>
</g>
<!-- Node17&#45;&gt;Node4 -->
<g id="edge17" class="edge">
<title>Node17&#45;&gt;Node4</title>
<path fill="none" stroke="#63b8ff" d="M1054.67,-74.44C1056.05,-80.97 1056.5,-90.1 1056.04,-98.35"/>
<polygon fill="#63b8ff" stroke="#63b8ff" points="1052.57,-97.89 1054.82,-108.25 1059.52,-98.75 1052.57,-97.89"/>
</g>
<!-- Node18&#45;&gt;Node4 -->
<g id="edge19" class="edge">
<title>Node18&#45;&gt;Node4</title>
<path fill="none" stroke="#63b8ff" d="M1271.64,-74.44C1228.61,-83.57 1158.92,-97.75 1109.01,-107.54"/>
<polygon fill="#63b8ff" stroke="#63b8ff" points="1108.36,-104.1 1099.21,-109.46 1109.7,-110.97 1108.36,-104.1"/>
</g>
<!-- Node19 -->
<g id="node19" class="node">
<title>Node19</title>
<g id="a_node19"><a xlink:title=" ">
<polygon fill="#e0e0e0" stroke="#999999" points="1492.96,-19 1463.96,-19 1463.96,0 1492.96,0 1492.96,-19"/>
<text text-anchor="middle" x="1478.46" y="-7" font-family="Helvetica,sans-Serif" font-size="10.00">list</text>
</a>
</g>
</g>
<!-- Node18&#45;&gt;Node19 -->
<g id="edge20" class="edge">
<title>Node18&#45;&gt;Node19</title>
<path fill="none" stroke="#63b8ff" d="M1338.96,-54.51C1371,-44.4 1422.55,-28.14 1453.2,-18.47"/>
<polygon fill="#63b8ff" stroke="#63b8ff" points="1453.91,-21.91 1462.4,-15.57 1451.81,-15.24 1453.91,-21.91"/>
</g>
<!-- Node18&#45;&gt;Node20 -->
<g id="edge21" class="edge">
<title>Node18&#45;&gt;Node20</title>
<path fill="none" stroke="#63b8ff" d="M1356.93,-56.01C1359.82,-55.64 1362.68,-55.3 1365.46,-55 1637.51,-25.86 1968.02,-14.43 2072.3,-11.39"/>
<polygon fill="#63b8ff" stroke="#63b8ff" points="2072.2,-14.9 2082.1,-11.11 2072,-7.9 2072.2,-14.9"/>
</g>
<!-- Node21&#45;&gt;Node4 -->
<g id="edge24" class="edge">
<title>Node21&#45;&gt;Node4</title>
<path fill="none" stroke="#63b8ff" d="M209.73,-72.24C215.74,-72.9 221.73,-73.5 227.46,-74 512.76,-98.93 854.47,-111.93 990,-116.53"/>
<polygon fill="#63b8ff" stroke="#63b8ff" points="989.7,-120.02 999.81,-116.86 989.93,-113.03 989.7,-120.02"/>
</g>
<!-- Node21&#45;&gt;Node22 -->
<g id="edge25" class="edge">
<title>Node21&#45;&gt;Node22</title>
<path fill="none" stroke="#63b8ff" d="M157.22,-54.75C164.61,-47.35 175.42,-36.54 184.51,-27.45"/>
<polygon fill="#63b8ff" stroke="#63b8ff" points="186.86,-30.06 191.45,-20.51 181.91,-25.11 186.86,-30.06"/>
</g>
<!-- Node23 -->
<g id="node23" class="node">
<title>Node23</title>
<g id="a_node23"><a xlink:title=" ">
<polygon fill="#e0e0e0" stroke="#999999" points="117.46,-19 71.46,-19 71.46,0 117.46,0 117.46,-19"/>
<text text-anchor="middle" x="94.46" y="-7" font-family="Helvetica,sans-Serif" font-size="10.00">math.h</text>
</a>
</g>
</g>
<!-- Node21&#45;&gt;Node23 -->
<g id="edge27" class="edge">
<title>Node21&#45;&gt;Node23</title>
<path fill="none" stroke="#63b8ff" d="M139.55,-54.75C132.01,-47.35 120.99,-36.54 111.74,-27.45"/>
<polygon fill="#63b8ff" stroke="#63b8ff" points="114.24,-25.01 104.65,-20.5 109.34,-30 114.24,-25.01"/>
</g>
<!-- Node22&#45;&gt;Node4 -->
<g id="edge26" class="edge">
<title>Node22&#45;&gt;Node4</title>
<path fill="none" stroke="#63b8ff" d="M247.84,-11.02C428.74,-13.28 1078.53,-23.57 1108.46,-55 1124.39,-71.73 1100.01,-91.22 1077.93,-104.16"/>
<polygon fill="#63b8ff" stroke="#63b8ff" points="1076.47,-100.96 1069.42,-108.87 1079.87,-107.08 1076.47,-100.96"/>
</g>
<!-- Node24&#45;&gt;Node4 -->
<g id="edge29" class="edge">
<title>Node24&#45;&gt;Node4</title>
<path fill="none" stroke="#63b8ff" d="M1384.32,-74.49C1308.97,-84.84 1183.01,-101.64 1108.89,-111.21"/>
<polygon fill="#63b8ff" stroke="#63b8ff" points="1108.87,-107.68 1099.4,-112.43 1109.77,-114.63 1108.87,-107.68"/>
</g>
<!-- Node25&#45;&gt;Node10 -->
<g id="edge32" class="edge">
<title>Node25&#45;&gt;Node10</title>
<path fill="none" stroke="#63b8ff" d="M1732.68,-164.66C1727.25,-147.42 1715.13,-108.9 1707.69,-85.27"/>
<polygon fill="#63b8ff" stroke="#63b8ff" points="1711.08,-84.39 1704.74,-75.9 1704.4,-86.49 1711.08,-84.39"/>
</g>
<!-- Node25&#45;&gt;Node15 -->
<g id="edge35" class="edge">
<title>Node25&#45;&gt;Node15</title>
<path fill="none" stroke="#63b8ff" d="M1679.56,-165.02C1639.31,-157.64 1589.98,-145.53 1577.46,-129 1567.39,-115.7 1574.83,-97.08 1583.17,-83.45"/>
<polygon fill="#63b8ff" stroke="#63b8ff" points="1585.9,-85.66 1588.6,-75.42 1580.1,-81.74 1585.9,-85.66"/>
</g>
<!-- Node26 -->
<g id="node26" class="node">
<title>Node26</title>
<g id="a_node26"><a xlink:title=" ">
<polygon fill="#e0e0e0" stroke="#999999" points="1816.46,-74 1760.46,-74 1760.46,-55 1816.46,-55 1816.46,-74"/>
<text text-anchor="middle" x="1788.46" y="-62" font-family="Helvetica,sans-Serif" font-size="10.00">algorithm</text>
</a>
</g>
</g>
<!-- Node25&#45;&gt;Node26 -->
<g id="edge33" class="edge">
<title>Node25&#45;&gt;Node26</title>
<path fill="none" stroke="#63b8ff" d="M1737,-164.91C1739.48,-152.35 1745.05,-128.45 1754.46,-110 1759.36,-100.39 1766.4,-90.76 1772.8,-82.92"/>
<polygon fill="#63b8ff" stroke="#63b8ff" points="1775.28,-85.4 1779.12,-75.53 1769.96,-80.85 1775.28,-85.4"/>
</g>
<!-- Node27 -->
<g id="node27" class="node">
<title>Node27</title>
<g id="a_node27"><a xlink:title=" ">
<polygon fill="#e0e0e0" stroke="#999999" points="1940.46,-74 1902.46,-74 1902.46,-55 1940.46,-55 1940.46,-74"/>
<text text-anchor="middle" x="1921.46" y="-62" font-family="Helvetica,sans-Serif" font-size="10.00">array</text>
</a>
</g>
</g>
<!-- Node25&#45;&gt;Node27 -->
<g id="edge34" class="edge">
<title>Node25&#45;&gt;Node27</title>
<path fill="none" stroke="#63b8ff" d="M1791.41,-166.04C1820.56,-159.92 1855.46,-148.86 1881.46,-129 1896.35,-117.63 1907.13,-99.01 1913.72,-84.86"/>
<polygon fill="#63b8ff" stroke="#63b8ff" points="1916.93,-86.25 1917.67,-75.68 1910.51,-83.48 1916.93,-86.25"/>
</g>
<!-- Node28 -->
<g id="node28" class="node">
<title>Node28</title>
<g id="a_node28"><a xlink:title=" ">
<polygon fill="#e0e0e0" stroke="#999999" points="1880.96,-74 1841.96,-74 1841.96,-55 1880.96,-55 1880.96,-74"/>
<text text-anchor="middle" x="1861.46" y="-62" font-family="Helvetica,sans-Serif" font-size="10.00">utility</text>
</a>
</g>
</g>
<!-- Node25&#45;&gt;Node28 -->
<g id="edge36" class="edge">
<title>Node25&#45;&gt;Node28</title>
<path fill="none" stroke="#63b8ff" d="M1791.37,-168.9C1818.09,-163.56 1847.82,-152.34 1864.46,-129 1873.39,-116.48 1871.71,-98.77 1868.33,-85.24"/>
<polygon fill="#63b8ff" stroke="#63b8ff" points="1871.68,-84.25 1865.43,-75.7 1864.99,-86.28 1871.68,-84.25"/>
</g>
<!-- Node29 -->
<g id="node29" class="node">
<title>Node29</title>
<g id="a_node29"><a xlink:href="Vectors_8hpp.html" target="_top" xlink:title=" ">
<polygon fill="white" stroke="#666666" points="1855.46,-129 1763.46,-129 1763.46,-110 1855.46,-110 1855.46,-129"/>
<text text-anchor="middle" x="1809.46" y="-117" font-family="Helvetica,sans-Serif" font-size="10.00">Utils/Vectors.hpp</text>
</a>
</g>
</g>
<!-- Node25&#45;&gt;Node29 -->
<g id="edge37" class="edge">
<title>Node25&#45;&gt;Node29</title>
<path fill="none" stroke="#63b8ff" d="M1748.02,-164.51C1758.93,-156.7 1774.97,-145.21 1787.92,-135.93"/>
<polygon fill="#63b8ff" stroke="#63b8ff" points="1789.77,-138.91 1795.87,-130.24 1785.7,-133.22 1789.77,-138.91"/>
</g>
<!-- Node29&#45;&gt;Node10 -->
<g id="edge38" class="edge">
<title>Node29&#45;&gt;Node10</title>
<path fill="none" stroke="#63b8ff" d="M1791.14,-109.51C1774.28,-101.24 1749.03,-88.84 1729.61,-79.31"/>
<polygon fill="#63b8ff" stroke="#63b8ff" points="1731.39,-76.29 1720.87,-75.02 1728.31,-82.57 1731.39,-76.29"/>
</g>
<!-- Node29&#45;&gt;Node15 -->
<g id="edge41" class="edge">
<title>Node29&#45;&gt;Node15</title>
<path fill="none" stroke="#63b8ff" d="M1773.33,-109.51C1733.12,-99.5 1668.69,-83.47 1629.7,-73.77"/>
<polygon fill="#63b8ff" stroke="#63b8ff" points="1630.72,-70.42 1620.17,-71.4 1629.03,-77.21 1630.72,-70.42"/>
</g>
<!-- Node29&#45;&gt;Node26 -->
<g id="edge39" class="edge">
<title>Node29&#45;&gt;Node26</title>
<path fill="none" stroke="#63b8ff" d="M1806,-109.75C1803.34,-103.04 1799.56,-93.52 1796.2,-85.02"/>
<polygon fill="#63b8ff" stroke="#63b8ff" points="1799.5,-83.86 1792.56,-75.85 1792.99,-86.44 1799.5,-83.86"/>
</g>
<!-- Node29&#45;&gt;Node27 -->
<g id="edge40" class="edge">
<title>Node29&#45;&gt;Node27</title>
<path fill="none" stroke="#63b8ff" d="M1828.46,-109.51C1846.03,-101.2 1872.38,-88.73 1892.55,-79.18"/>
<polygon fill="#63b8ff" stroke="#63b8ff" points="1893.83,-82.45 1901.38,-75.01 1890.84,-76.12 1893.83,-82.45"/>
</g>
<!-- Node29&#45;&gt;Node28 -->
<g id="edge42" class="edge">
<title>Node29&#45;&gt;Node28</title>
<path fill="none" stroke="#63b8ff" d="M1818.05,-109.75C1825.31,-102.35 1835.92,-91.54 1844.83,-82.45"/>
<polygon fill="#63b8ff" stroke="#63b8ff" points="1847.13,-85.11 1851.63,-75.52 1842.13,-80.21 1847.13,-85.11"/>
</g>
<!-- Node30&#45;&gt;Node10 -->
<g id="edge44" class="edge">
<title>Node30&#45;&gt;Node10</title>
<path fill="none" stroke="#63b8ff" d="M1640.02,-109.51C1650.93,-101.7 1666.97,-90.21 1679.92,-80.93"/>
<polygon fill="#63b8ff" stroke="#63b8ff" points="1681.77,-83.91 1687.87,-75.24 1677.7,-78.22 1681.77,-83.91"/>
</g>
<!-- Node30&#45;&gt;Node15 -->
<g id="edge46" class="edge">
<title>Node30&#45;&gt;Node15</title>
<path fill="none" stroke="#63b8ff" d="M1622.34,-109.75C1618.29,-102.81 1612.47,-92.86 1607.38,-84.16"/>
<polygon fill="#63b8ff" stroke="#63b8ff" points="1610.53,-82.61 1602.46,-75.75 1604.49,-86.15 1610.53,-82.61"/>
</g>
<!-- Node30&#45;&gt;Node19 -->
<g id="edge45" class="edge">
<title>Node30&#45;&gt;Node19</title>
<path fill="none" stroke="#63b8ff" d="M1630.47,-109.68C1634.39,-96.4 1639.45,-71.09 1627.46,-55 1599.02,-16.82 1539.06,-10.13 1504.5,-9.66"/>
<polygon fill="#63b8ff" stroke="#63b8ff" points="1504.52,-6.15 1494.54,-9.71 1504.56,-13.15 1504.52,-6.15"/>
</g>
<!-- Node31&#45;&gt;Node20 -->
<g id="edge64" class="edge">
<title>Node31&#45;&gt;Node20</title>
<path fill="none" stroke="#63b8ff" d="M1819.35,-337.93C1919.43,-333.19 2112.37,-307.55 2198.46,-184 2218.01,-155.95 2150.22,-65.79 2119.65,-27.72"/>
<polygon fill="#63b8ff" stroke="#63b8ff" points="2122.73,-25.97 2113.71,-20.41 2117.3,-30.38 2122.73,-25.97"/>
</g>
<!-- Node32 -->
<g id="node32" class="node">
<title>Node32</title>
<g id="a_node32"><a xlink:href="States_8hpp.html" target="_top" xlink:title=" ">
<polygon fill="white" stroke="#666666" points="1795.96,-294 1676.96,-294 1676.96,-275 1795.96,-275 1795.96,-294"/>
<text text-anchor="middle" x="1736.46" y="-282" font-family="Helvetica,sans-Serif" font-size="10.00">gameStates/States.hpp</text>
</a>
</g>
</g>
<!-- Node31&#45;&gt;Node32 -->
<g id="edge48" class="edge">
<title>Node31&#45;&gt;Node32</title>
<path fill="none" stroke="#63b8ff" d="M1753.16,-329.75C1750.63,-323.04 1747.04,-313.52 1743.83,-305.02"/>
<polygon fill="#63b8ff" stroke="#63b8ff" points="1747.18,-303.98 1740.37,-295.86 1740.63,-306.45 1747.18,-303.98"/>
</g>
<!-- Node32&#45;&gt;Node2 -->
<g id="edge49" class="edge">
<title>Node32&#45;&gt;Node2</title>
<path fill="none" stroke="#63b8ff" d="M1725.6,-294.37C1715.06,-303.11 1698.74,-317.02 1685.46,-330 1670.17,-344.95 1653.83,-363.05 1642.41,-376.09"/>
<polygon fill="#63b8ff" stroke="#63b8ff" points="1639.95,-373.59 1636.03,-383.44 1645.23,-378.18 1639.95,-373.59"/>
</g>
<!-- Node33 -->
<g id="node33" class="node">
<title>Node33</title>
<g id="a_node33"><a xlink:href="SMenu_8hpp.html" target="_top" xlink:title=" ">
<polygon fill="white" stroke="#666666" points="1598.96,-239 1533.96,-239 1533.96,-220 1598.96,-220 1598.96,-239"/>
<text text-anchor="middle" x="1566.46" y="-227" font-family="Helvetica,sans-Serif" font-size="10.00">SMenu.hpp</text>
</a>
</g>
</g>
<!-- Node32&#45;&gt;Node33 -->
<g id="edge50" class="edge">
<title>Node32&#45;&gt;Node33</title>
<path fill="none" stroke="#63b8ff" d="M1707.63,-274.51C1679.7,-265.8 1637.13,-252.53 1606.05,-242.84"/>
<polygon fill="#63b8ff" stroke="#63b8ff" points="1607.19,-239.53 1596.6,-239.9 1605.11,-246.21 1607.19,-239.53"/>
</g>
<!-- Node36 -->
<g id="node36" class="node">
<title>Node36</title>
<g id="a_node36"><a xlink:href="SGamePlay_8hpp.html" target="_top" xlink:title=" ">
<polygon fill="white" stroke="#666666" points="2040.46,-239 1954.46,-239 1954.46,-220 2040.46,-220 2040.46,-239"/>
<text text-anchor="middle" x="1997.46" y="-227" font-family="Helvetica,sans-Serif" font-size="10.00">SGamePlay.hpp</text>
</a>
</g>
</g>
<!-- Node32&#45;&gt;Node36 -->
<g id="edge55" class="edge">
<title>Node32&#45;&gt;Node36</title>
<path fill="none" stroke="#63b8ff" d="M1780.74,-274.51C1825.58,-265.4 1894.99,-251.31 1943.13,-241.53"/>
<polygon fill="#63b8ff" stroke="#63b8ff" points="1943.69,-244.99 1952.79,-239.57 1942.3,-238.13 1943.69,-244.99"/>
</g>
<!-- Node33&#45;&gt;Node2 -->
<g id="edge51" class="edge">
<title>Node33&#45;&gt;Node2</title>
<path fill="none" stroke="#63b8ff" d="M1569.76,-239.31C1579.3,-264.79 1607.08,-339.03 1620.3,-374.37"/>
<polygon fill="#63b8ff" stroke="#63b8ff" points="1616.87,-375.18 1623.65,-383.32 1623.43,-372.73 1616.87,-375.18"/>
</g>
<!-- Node34 -->
<g id="node34" class="node">
<title>Node34</title>
<g id="a_node34"><a xlink:href="Bouton_8hpp.html" target="_top" xlink:title=" ">
<polygon fill="white" stroke="#666666" points="1592.96,-184 1469.96,-184 1469.96,-165 1592.96,-165 1592.96,-184"/>
<text text-anchor="middle" x="1531.46" y="-172" font-family="Helvetica,sans-Serif" font-size="10.00">Components/Bouton.hpp</text>
</a>
</g>
</g>
<!-- Node33&#45;&gt;Node34 -->
<g id="edge52" class="edge">
<title>Node33&#45;&gt;Node34</title>
<path fill="none" stroke="#63b8ff" d="M1560.68,-219.75C1556.05,-212.73 1549.39,-202.64 1543.6,-193.87"/>
<polygon fill="#63b8ff" stroke="#63b8ff" points="1546.63,-192.12 1538.2,-185.71 1540.79,-195.98 1546.63,-192.12"/>
</g>
<!-- Node34&#45;&gt;Node4 -->
<g id="edge53" class="edge">
<title>Node34&#45;&gt;Node4</title>
<path fill="none" stroke="#63b8ff" d="M1469.93,-166.73C1376.83,-156.5 1201.32,-137.2 1109.26,-127.08"/>
<polygon fill="#63b8ff" stroke="#63b8ff" points="1109.75,-123.61 1099.43,-125.99 1108.98,-130.57 1109.75,-123.61"/>
</g>
<!-- Node35 -->
<g id="node35" class="node">
<title>Node35</title>
<g id="a_node35"><a xlink:title=" ">
<polygon fill="#e0e0e0" stroke="#999999" points="1528.96,-129 1469.96,-129 1469.96,-110 1528.96,-110 1528.96,-129"/>
<text text-anchor="middle" x="1499.46" y="-117" font-family="Helvetica,sans-Serif" font-size="10.00">functional</text>
</a>
</g>
</g>
<!-- Node34&#45;&gt;Node35 -->
<g id="edge54" class="edge">
<title>Node34&#45;&gt;Node35</title>
<path fill="none" stroke="#63b8ff" d="M1526.18,-164.75C1521.99,-157.81 1515.98,-147.86 1510.73,-139.16"/>
<polygon fill="#63b8ff" stroke="#63b8ff" points="1513.81,-137.49 1505.64,-130.74 1507.82,-141.11 1513.81,-137.49"/>
</g>
<!-- Node36&#45;&gt;Node2 -->
<g id="edge56" class="edge">
<title>Node36&#45;&gt;Node2</title>
<path fill="none" stroke="#63b8ff" d="M1988.02,-239.21C1963.62,-261.22 1895.7,-319.4 1828.46,-349 1781.52,-369.67 1724.04,-381.15 1682.6,-387.24"/>
<polygon fill="#63b8ff" stroke="#63b8ff" points="1682.27,-383.76 1672.85,-388.61 1683.24,-390.69 1682.27,-383.76"/>
</g>
<!-- Node36&#45;&gt;Node12 -->
<g id="edge59" class="edge">
<title>Node36&#45;&gt;Node12</title>
<path fill="none" stroke="#63b8ff" d="M1996.87,-219.74C1995.17,-194.53 1990.23,-121.36 1987.82,-85.62"/>
<polygon fill="#63b8ff" stroke="#63b8ff" points="1991.33,-85.56 1987.16,-75.82 1984.34,-86.03 1991.33,-85.56"/>
</g>
<!-- Node36&#45;&gt;Node20 -->
<g id="edge57" class="edge">
<title>Node36&#45;&gt;Node20</title>
<path fill="none" stroke="#63b8ff" d="M2001.83,-219.68C2017.88,-187.3 2073.8,-74.42 2096.14,-29.33"/>
<polygon fill="#63b8ff" stroke="#63b8ff" points="2099.19,-31.06 2100.49,-20.54 2092.91,-27.95 2099.19,-31.06"/>
</g>
<!-- Node36&#45;&gt;Node27 -->
<g id="edge58" class="edge">
<title>Node36&#45;&gt;Node27</title>
<path fill="none" stroke="#63b8ff" d="M1993.38,-219.74C1981.52,-194.31 1946.91,-120.08 1930.41,-84.69"/>
<polygon fill="#63b8ff" stroke="#63b8ff" points="1933.61,-83.26 1926.21,-75.68 1927.26,-86.22 1933.61,-83.26"/>
</g>
<!-- Node36&#45;&gt;Node37 -->
<g id="edge60" class="edge">
<title>Node36&#45;&gt;Node37</title>
<path fill="none" stroke="#63b8ff" d="M2026.13,-219.51C2055.49,-210.3 2101.11,-195.99 2132.32,-186.21"/>
<polygon fill="#63b8ff" stroke="#63b8ff" points="2133.17,-189.61 2141.66,-183.28 2131.07,-182.93 2133.17,-189.61"/>
</g>
<!-- Node38 -->
<g id="node38" class="node">
<title>Node38</title>
<g id="a_node38"><a xlink:href="Global_8hpp.html" target="_top" xlink:title=" ">
<polygon fill="white" stroke="#666666" points="2125.46,-184 2063.46,-184 2063.46,-165 2125.46,-165 2125.46,-184"/>
<text text-anchor="middle" x="2094.46" y="-172" font-family="Helvetica,sans-Serif" font-size="10.00">Global.hpp</text>
</a>
</g>
</g>
<!-- Node36&#45;&gt;Node38 -->
<g id="edge61" class="edge">
<title>Node36&#45;&gt;Node38</title>
<path fill="none" stroke="#63b8ff" d="M2013.92,-219.51C2028.78,-211.39 2050.91,-199.3 2068.21,-189.85"/>
<polygon fill="#63b8ff" stroke="#63b8ff" points="2069.83,-192.95 2076.92,-185.08 2066.47,-186.81 2069.83,-192.95"/>
</g>
<!-- Node38&#45;&gt;Node39 -->
<g id="edge62" class="edge">
<title>Node38&#45;&gt;Node39</title>
<path fill="none" stroke="#63b8ff" d="M2118.21,-164.51C2140.77,-155.97 2174.94,-143.03 2200.4,-133.4"/>
<polygon fill="#63b8ff" stroke="#63b8ff" points="2201.54,-136.71 2209.65,-129.89 2199.06,-130.16 2201.54,-136.71"/>
</g>
<!-- Node40 -->
<g id="node40" class="node">
<title>Node40</title>
<g id="a_node40"><a xlink:title=" ">
<polygon fill="#e0e0e0" stroke="#999999" points="2119.96,-129 2068.96,-129 2068.96,-110 2119.96,-110 2119.96,-129"/>
<text text-anchor="middle" x="2094.46" y="-117" font-family="Helvetica,sans-Serif" font-size="10.00">memory</text>
</a>
</g>
</g>
<!-- Node38&#45;&gt;Node40 -->
<g id="edge63" class="edge">
<title>Node38&#45;&gt;Node40</title>
<path fill="none" stroke="#63b8ff" d="M2094.46,-164.75C2094.46,-158.27 2094.46,-149.16 2094.46,-140.9"/>
<polygon fill="#63b8ff" stroke="#63b8ff" points="2097.96,-140.96 2094.46,-130.96 2090.96,-140.96 2097.96,-140.96"/>
</g>
<!-- Node41&#45;&gt;Node4 -->
<g id="edge67" class="edge">
<title>Node41&#45;&gt;Node4</title>
<path fill="none" stroke="#63b8ff" d="M638.84,-165.93C732.94,-155.52 900.82,-136.95 989.98,-127.08"/>
<polygon fill="#63b8ff" stroke="#63b8ff" points="990.18,-130.58 999.74,-126 989.41,-123.62 990.18,-130.58"/>
</g>
<!-- Node41&#45;&gt;Node15 -->
<g id="edge70" class="edge">
<title>Node41&#45;&gt;Node15</title>
<path fill="none" stroke="#63b8ff" d="M638.67,-168.85C740.59,-161.67 938.63,-146.83 1106.46,-129 1278.47,-110.72 1483.52,-81.84 1562.84,-70.4"/>
<polygon fill="#63b8ff" stroke="#63b8ff" points="1563.15,-73.89 1572.54,-69 1562.14,-66.96 1563.15,-73.89"/>
</g>
<!-- Node41&#45;&gt;Node22 -->
<g id="edge68" class="edge">
<title>Node41&#45;&gt;Node22</title>
<path fill="none" stroke="#63b8ff" d="M502.09,-170C379.75,-162.16 131.23,-138.5 78.46,-74 55.63,-46.08 101.85,-29.07 144,-19.78"/>
<polygon fill="#63b8ff" stroke="#63b8ff" points="144.58,-23.23 153.67,-17.78 143.16,-16.38 144.58,-23.23"/>
</g>
<!-- Node41&#45;&gt;Node23 -->
<g id="edge69" class="edge">
<title>Node41&#45;&gt;Node23</title>
<path fill="none" stroke="#63b8ff" d="M502.18,-173.15C359.93,-171.72 42.28,-164.52 9.46,-129 -21.97,-94.98 34.93,-49.07 69.97,-25.63"/>
<polygon fill="#63b8ff" stroke="#63b8ff" points="71.84,-28.59 78.33,-20.21 68.03,-22.71 71.84,-28.59"/>
</g>
<!-- Node42 -->
<g id="node42" class="node">
<title>Node42</title>
<g id="a_node42"><a xlink:title=" ">
<polygon fill="#e0e0e0" stroke="#999999" points="62.46,-129 18.46,-129 18.46,-110 62.46,-110 62.46,-129"/>
<text text-anchor="middle" x="40.46" y="-117" font-family="Helvetica,sans-Serif" font-size="10.00">cmath</text>
</a>
</g>
</g>
<!-- Node41&#45;&gt;Node42 -->
<g id="edge71" class="edge">
<title>Node41&#45;&gt;Node42</title>
<path fill="none" stroke="#63b8ff" d="M502.16,-170.42C406.48,-165.41 227.34,-153.48 76.46,-129 75.63,-128.87 74.79,-128.72 73.94,-128.57"/>
<polygon fill="#63b8ff" stroke="#63b8ff" points="74.81,-125.18 64.32,-126.6 73.41,-132.03 74.81,-125.18"/>
</g>
</g>
</svg>
