<?xml version="1.0" encoding="UTF-8" standalone="no"?>
<!DOCTYPE svg PUBLIC "-//W3C//DTD SVG 1.1//EN"
 "http://www.w3.org/Graphics/SVG/1.1/DTD/svg11.dtd">
<!-- Generated by graphviz version 7.0.5 (20221223.1930)
 -->
<!-- Title: /github/workspace/client/include/system/gameStates/SMenu.hpp Pages: 1 -->
<svg width="2356pt" height="379pt"
 viewBox="0.00 0.00 2355.50 379.00" xmlns="http://www.w3.org/2000/svg" xmlns:xlink="http://www.w3.org/1999/xlink">
<g id="graph0" class="graph" transform="scale(1 1) rotate(0) translate(4 375)">
<title>/github/workspace/client/include/system/gameStates/SMenu.hpp</title>
<!-- Node1 -->
<g id="node1" class="node">
<title>Node1</title>
<g id="a_node1"><a xlink:title=" ">
<polygon fill="#999999" stroke="#666666" points="2148,-371 2008,-371 2008,-330 2148,-330 2148,-371"/>
<text text-anchor="start" x="2016" y="-359" font-family="Helvetica,sans-Serif" font-size="10.00">/github/workspace/client</text>
<text text-anchor="start" x="2016" y="-348" font-family="Helvetica,sans-Serif" font-size="10.00">/include/system/gameStates</text>
<text text-anchor="middle" x="2078" y="-337" font-family="Helvetica,sans-Serif" font-size="10.00">/SMenu.hpp</text>
</a>
</g>
</g>
<!-- Node2 -->
<g id="node2" class="node">
<title>Node2</title>
<g id="a_node2"><a xlink:href="IGameState_8hpp.html" target="_top" xlink:title=" ">
<polygon fill="white" stroke="#666666" points="1904.5,-294 1817.5,-294 1817.5,-275 1904.5,-275 1904.5,-294"/>
<text text-anchor="middle" x="1861" y="-282" font-family="Helvetica,sans-Serif" font-size="10.00">IGameState.hpp</text>
</a>
</g>
</g>
<!-- Node1&#45;&gt;Node2 -->
<g id="edge1" class="edge">
<title>Node1&#45;&gt;Node2</title>
<path fill="none" stroke="#63b8ff" d="M2010.23,-329.51C1974.79,-319.06 1932.57,-306.61 1902.09,-297.62"/>
<polygon fill="#63b8ff" stroke="#63b8ff" points="1903.46,-294.37 1892.88,-294.9 1901.48,-301.09 1903.46,-294.37"/>
</g>
<!-- Node40 -->
<g id="node40" class="node">
<title>Node40</title>
<g id="a_node40"><a xlink:href="Bouton_8hpp.html" target="_top" xlink:title=" ">
<polygon fill="white" stroke="#666666" points="2139.5,-294 2016.5,-294 2016.5,-275 2139.5,-275 2139.5,-294"/>
<text text-anchor="middle" x="2078" y="-282" font-family="Helvetica,sans-Serif" font-size="10.00">Components/Bouton.hpp</text>
</a>
</g>
</g>
<!-- Node1&#45;&gt;Node40 -->
<g id="edge68" class="edge">
<title>Node1&#45;&gt;Node40</title>
<path fill="none" stroke="#63b8ff" d="M2078,-329.6C2078,-321.98 2078,-313.3 2078,-305.66"/>
<polygon fill="#63b8ff" stroke="#63b8ff" points="2081.5,-305.68 2078,-295.68 2074.5,-305.68 2081.5,-305.68"/>
</g>
<!-- Node3 -->
<g id="node3" class="node">
<title>Node3</title>
<g id="a_node3"><a xlink:href="EntitiesManager_8hpp.html" target="_top" xlink:title=" ">
<polygon fill="white" stroke="#666666" points="1160,-239 1020,-239 1020,-220 1160,-220 1160,-239"/>
<text text-anchor="middle" x="1090" y="-227" font-family="Helvetica,sans-Serif" font-size="10.00">Entities/EntitiesManager.hpp</text>
</a>
</g>
</g>
<!-- Node2&#45;&gt;Node3 -->
<g id="edge2" class="edge">
<title>Node2&#45;&gt;Node3</title>
<path fill="none" stroke="#63b8ff" d="M1817.06,-280.48C1692.19,-271.9 1333.83,-247.26 1171.57,-236.11"/>
<polygon fill="#63b8ff" stroke="#63b8ff" points="1171.96,-232.63 1161.74,-235.43 1171.48,-239.61 1171.96,-232.63"/>
</g>
<!-- Node24 -->
<g id="node24" class="node">
<title>Node24</title>
<g id="a_node24"><a xlink:href="Background_8hpp.html" target="_top" xlink:title=" ">
<polygon fill="white" stroke="#666666" points="1585,-129 1441,-129 1441,-110 1585,-110 1585,-129"/>
<text text-anchor="middle" x="1513" y="-117" font-family="Helvetica,sans-Serif" font-size="10.00">Components/Background.hpp</text>
</a>
</g>
</g>
<!-- Node2&#45;&gt;Node24 -->
<g id="edge61" class="edge">
<title>Node2&#45;&gt;Node24</title>
<path fill="none" stroke="#63b8ff" d="M1841.79,-274.5C1784.04,-247.45 1611.68,-166.72 1542.35,-134.25"/>
<polygon fill="#63b8ff" stroke="#63b8ff" points="1544.06,-131.18 1533.52,-130.11 1541.09,-137.52 1544.06,-131.18"/>
</g>
<!-- Node30 -->
<g id="node30" class="node">
<title>Node30</title>
<g id="a_node30"><a xlink:href="String_8hpp.html" target="_top" xlink:title=" ">
<polygon fill="white" stroke="#666666" points="1686.5,-129 1603.5,-129 1603.5,-110 1686.5,-110 1686.5,-129"/>
<text text-anchor="middle" x="1645" y="-117" font-family="Helvetica,sans-Serif" font-size="10.00">Utils/String.hpp</text>
</a>
</g>
</g>
<!-- Node2&#45;&gt;Node30 -->
<g id="edge43" class="edge">
<title>Node2&#45;&gt;Node30</title>
<path fill="none" stroke="#63b8ff" d="M1848.38,-274.65C1824.05,-257.51 1769.08,-218.45 1724,-184 1703.39,-168.25 1680.32,-149.58 1664.46,-136.58"/>
<polygon fill="#63b8ff" stroke="#63b8ff" points="1666.72,-133.91 1656.77,-130.26 1662.27,-139.31 1666.72,-133.91"/>
</g>
<!-- Node31 -->
<g id="node31" class="node">
<title>Node31</title>
<g id="a_node31"><a xlink:href="GameEngine_8hpp.html" target="_top" xlink:title=" ">
<polygon fill="white" stroke="#666666" points="2079.5,-239 1954.5,-239 1954.5,-220 2079.5,-220 2079.5,-239"/>
<text text-anchor="middle" x="2017" y="-227" font-family="Helvetica,sans-Serif" font-size="10.00">system/GameEngine.hpp</text>
</a>
</g>
</g>
<!-- Node2&#45;&gt;Node31 -->
<g id="edge47" class="edge">
<title>Node2&#45;&gt;Node31</title>
<path fill="none" stroke="#63b8ff" d="M1887.46,-274.51C1912.86,-265.88 1951.47,-252.76 1979.92,-243.1"/>
<polygon fill="#63b8ff" stroke="#63b8ff" points="1980.89,-246.46 1989.23,-239.93 1978.64,-239.84 1980.89,-246.46"/>
</g>
<!-- Node38 -->
<g id="node38" class="node">
<title>Node38</title>
<g id="a_node38"><a xlink:href="Centipede_8hpp.html" target="_top" xlink:title=" ">
<polygon fill="white" stroke="#666666" points="165,-239 29,-239 29,-220 165,-220 165,-239"/>
<text text-anchor="middle" x="97" y="-227" font-family="Helvetica,sans-Serif" font-size="10.00">Components/Centipede.hpp</text>
</a>
</g>
</g>
<!-- Node2&#45;&gt;Node38 -->
<g id="edge62" class="edge">
<title>Node2&#45;&gt;Node38</title>
<path fill="none" stroke="#63b8ff" d="M1817.4,-282.19C1584.17,-275.18 483.2,-242.1 176.49,-232.89"/>
<polygon fill="#63b8ff" stroke="#63b8ff" points="176.67,-229.39 166.57,-232.59 176.46,-236.39 176.67,-229.39"/>
</g>
<!-- Node4 -->
<g id="node4" class="node">
<title>Node4</title>
<g id="a_node4"><a xlink:href="Engine_8hpp.html" target="_top" xlink:title=" ">
<polygon fill="white" stroke="#666666" points="1138,-184 1042,-184 1042,-165 1138,-165 1138,-184"/>
<text text-anchor="middle" x="1090" y="-172" font-family="Helvetica,sans-Serif" font-size="10.00">Engine/Engine.hpp</text>
</a>
</g>
</g>
<!-- Node3&#45;&gt;Node4 -->
<g id="edge3" class="edge">
<title>Node3&#45;&gt;Node4</title>
<path fill="none" stroke="#63b8ff" d="M1084.83,-219.75C1083.42,-213.19 1082.96,-203.95 1083.43,-195.6"/>
<polygon fill="#63b8ff" stroke="#63b8ff" points="1086.87,-196.3 1084.61,-185.94 1079.92,-195.45 1086.87,-196.3"/>
</g>
<!-- Node22 -->
<g id="node22" class="node">
<title>Node22</title>
<g id="a_node22"><a xlink:href="IComponents_8hpp.html" target="_top" xlink:title=" ">
<polygon fill="white" stroke="#666666" points="194,-74 102,-74 102,-55 194,-55 194,-74"/>
<text text-anchor="middle" x="148" y="-62" font-family="Helvetica,sans-Serif" font-size="10.00">IComponents.hpp</text>
</a>
</g>
</g>
<!-- Node3&#45;&gt;Node22 -->
<g id="edge30" class="edge">
<title>Node3&#45;&gt;Node22</title>
<path fill="none" stroke="#63b8ff" d="M1019.63,-226.44C809.85,-219.57 199.65,-194.13 141,-129 130.33,-117.15 133.85,-98.59 138.99,-84.59"/>
<polygon fill="#63b8ff" stroke="#63b8ff" points="142.14,-86.11 142.82,-75.54 135.7,-83.38 142.14,-86.11"/>
</g>
<!-- Node25 -->
<g id="node25" class="node">
<title>Node25</title>
<g id="a_node25"><a xlink:href="SparseArray_8hpp.html" target="_top" xlink:title=" ">
<polygon fill="white" stroke="#666666" points="1844.5,-184 1733.5,-184 1733.5,-165 1844.5,-165 1844.5,-184"/>
<text text-anchor="middle" x="1789" y="-172" font-family="Helvetica,sans-Serif" font-size="10.00">Utils/SparseArray.hpp</text>
</a>
</g>
</g>
<!-- Node3&#45;&gt;Node25 -->
<g id="edge31" class="edge">
<title>Node3&#45;&gt;Node25</title>
<path fill="none" stroke="#63b8ff" d="M1160.22,-223.18C1295.29,-212.93 1589.59,-190.62 1722.04,-180.58"/>
<polygon fill="#63b8ff" stroke="#63b8ff" points="1721.99,-184.09 1731.69,-179.85 1721.46,-177.11 1721.99,-184.09"/>
</g>
<!-- Node4&#45;&gt;Node3 -->
<g id="edge22" class="edge">
<title>Node4&#45;&gt;Node3</title>
<path fill="none" stroke="#63b8ff" d="M1095.21,-184.44C1096.58,-190.97 1097.04,-200.1 1096.57,-208.35"/>
<polygon fill="#63b8ff" stroke="#63b8ff" points="1093.1,-207.89 1095.35,-218.25 1100.05,-208.75 1093.1,-207.89"/>
</g>
<!-- Node5 -->
<g id="node5" class="node">
<title>Node5</title>
<g id="a_node5"><a xlink:title=" ">
<polygon fill="#e0e0e0" stroke="#999999" points="1012.5,-129 923.5,-129 923.5,-110 1012.5,-110 1012.5,-129"/>
<text text-anchor="middle" x="968" y="-117" font-family="Helvetica,sans-Serif" font-size="10.00">SFML/Audio.hpp</text>
</a>
</g>
</g>
<!-- Node4&#45;&gt;Node5 -->
<g id="edge4" class="edge">
<title>Node4&#45;&gt;Node5</title>
<path fill="none" stroke="#63b8ff" d="M1069.3,-164.51C1050,-156.12 1020.94,-143.5 998.89,-133.92"/>
<polygon fill="#63b8ff" stroke="#63b8ff" points="1000.34,-130.74 989.78,-129.96 997.56,-137.16 1000.34,-130.74"/>
</g>
<!-- Node6 -->
<g id="node6" class="node">
<title>Node6</title>
<g id="a_node6"><a xlink:title=" ">
<polygon fill="#e0e0e0" stroke="#999999" points="552,-129 448,-129 448,-110 552,-110 552,-129"/>
<text text-anchor="middle" x="500" y="-117" font-family="Helvetica,sans-Serif" font-size="10.00">SFML/Graphics.hpp</text>
</a>
</g>
</g>
<!-- Node4&#45;&gt;Node6 -->
<g id="edge5" class="edge">
<title>Node4&#45;&gt;Node6</title>
<path fill="none" stroke="#63b8ff" d="M1041.77,-170.33C950.54,-164.13 746.18,-149.34 563.39,-129.21"/>
<polygon fill="#63b8ff" stroke="#63b8ff" points="564.05,-125.76 553.72,-128.13 563.28,-132.72 564.05,-125.76"/>
</g>
<!-- Node7 -->
<g id="node7" class="node">
<title>Node7</title>
<g id="a_node7"><a xlink:title=" ">
<polygon fill="#e0e0e0" stroke="#999999" points="671.5,-129 570.5,-129 570.5,-110 671.5,-110 671.5,-129"/>
<text text-anchor="middle" x="621" y="-117" font-family="Helvetica,sans-Serif" font-size="10.00">SFML/Network.hpp</text>
</a>
</g>
</g>
<!-- Node4&#45;&gt;Node7 -->
<g id="edge6" class="edge">
<title>Node4&#45;&gt;Node7</title>
<path fill="none" stroke="#63b8ff" d="M1041.65,-168.81C967.01,-161.44 818.91,-146.34 683.24,-129.37"/>
<polygon fill="#63b8ff" stroke="#63b8ff" points="683.69,-125.9 673.34,-128.13 682.82,-132.85 683.69,-125.9"/>
</g>
<!-- Node8 -->
<g id="node8" class="node">
<title>Node8</title>
<g id="a_node8"><a xlink:title=" ">
<polygon fill="#e0e0e0" stroke="#999999" points="788.5,-129 689.5,-129 689.5,-110 788.5,-110 788.5,-129"/>
<text text-anchor="middle" x="739" y="-117" font-family="Helvetica,sans-Serif" font-size="10.00">SFML/Window.hpp</text>
</a>
</g>
</g>
<!-- Node4&#45;&gt;Node8 -->
<g id="edge7" class="edge">
<title>Node4&#45;&gt;Node8</title>
<path fill="none" stroke="#63b8ff" d="M1041.56,-166.19C978.59,-156.68 868.57,-140.06 799.98,-129.71"/>
<polygon fill="#63b8ff" stroke="#63b8ff" points="800.83,-126.3 790.42,-128.26 799.78,-133.22 800.83,-126.3"/>
</g>
<!-- Node9 -->
<g id="node9" class="node">
<title>Node9</title>
<g id="a_node9"><a xlink:title=" ">
<polygon fill="#e0e0e0" stroke="#999999" points="905,-129 807,-129 807,-110 905,-110 905,-129"/>
<text text-anchor="middle" x="856" y="-117" font-family="Helvetica,sans-Serif" font-size="10.00">SFML/System.hpp</text>
</a>
</g>
</g>
<!-- Node4&#45;&gt;Node9 -->
<g id="edge8" class="edge">
<title>Node4&#45;&gt;Node9</title>
<path fill="none" stroke="#63b8ff" d="M1050.31,-164.51C1010.69,-155.54 949.66,-141.71 906.59,-131.96"/>
<polygon fill="#63b8ff" stroke="#63b8ff" points="907.5,-128.58 896.97,-129.78 905.95,-135.4 907.5,-128.58"/>
</g>
<!-- Node10 -->
<g id="node10" class="node">
<title>Node10</title>
<g id="a_node10"><a xlink:title=" ">
<polygon fill="#e0e0e0" stroke="#999999" points="1692,-74 1638,-74 1638,-55 1692,-55 1692,-74"/>
<text text-anchor="middle" x="1665" y="-62" font-family="Helvetica,sans-Serif" font-size="10.00">iostream</text>
</a>
</g>
</g>
<!-- Node4&#45;&gt;Node10 -->
<g id="edge9" class="edge">
<title>Node4&#45;&gt;Node10</title>
<path fill="none" stroke="#63b8ff" d="M1138.27,-166.6C1191.73,-158.69 1280.37,-144.75 1356,-129 1390.09,-121.9 1398,-117.49 1432,-110 1500.08,-95 1579.99,-80.38 1626.33,-72.2"/>
<polygon fill="#63b8ff" stroke="#63b8ff" points="1626.9,-75.65 1636.15,-70.47 1625.69,-68.76 1626.9,-75.65"/>
</g>
<!-- Node11 -->
<g id="node11" class="node">
<title>Node11</title>
<g id="a_node11"><a xlink:title=" ">
<polygon fill="#e0e0e0" stroke="#999999" points="1081,-129 1031,-129 1031,-110 1081,-110 1081,-129"/>
<text text-anchor="middle" x="1056" y="-117" font-family="Helvetica,sans-Serif" font-size="10.00">fstream</text>
</a>
</g>
</g>
<!-- Node4&#45;&gt;Node11 -->
<g id="edge10" class="edge">
<title>Node4&#45;&gt;Node11</title>
<path fill="none" stroke="#63b8ff" d="M1084.39,-164.75C1079.88,-157.73 1073.41,-147.64 1067.79,-138.87"/>
<polygon fill="#63b8ff" stroke="#63b8ff" points="1070.9,-137.24 1062.55,-130.72 1065.01,-141.02 1070.9,-137.24"/>
</g>
<!-- Node12 -->
<g id="node12" class="node">
<title>Node12</title>
<g id="a_node12"><a xlink:title=" ">
<polygon fill="#e0e0e0" stroke="#999999" points="2171.5,-74 2130.5,-74 2130.5,-55 2171.5,-55 2171.5,-74"/>
<text text-anchor="middle" x="2151" y="-62" font-family="Helvetica,sans-Serif" font-size="10.00">string</text>
</a>
</g>
</g>
<!-- Node4&#45;&gt;Node12 -->
<g id="edge11" class="edge">
<title>Node4&#45;&gt;Node12</title>
<path fill="none" stroke="#63b8ff" d="M1138.26,-172.66C1296.05,-169.68 1795.56,-158.1 1954,-129 2014.15,-117.95 2081.4,-93.53 2119.72,-78.39"/>
<polygon fill="#63b8ff" stroke="#63b8ff" points="2120.79,-81.73 2128.78,-74.77 2118.19,-75.23 2120.79,-81.73"/>
</g>
<!-- Node13 -->
<g id="node13" class="node">
<title>Node13</title>
<g id="a_node13"><a xlink:title=" ">
<polygon fill="#e0e0e0" stroke="#999999" points="1149,-129 1099,-129 1099,-110 1149,-110 1149,-129"/>
<text text-anchor="middle" x="1124" y="-117" font-family="Helvetica,sans-Serif" font-size="10.00">unistd.h</text>
</a>
</g>
</g>
<!-- Node4&#45;&gt;Node13 -->
<g id="edge12" class="edge">
<title>Node4&#45;&gt;Node13</title>
<path fill="none" stroke="#63b8ff" d="M1095.61,-164.75C1100.12,-157.73 1106.59,-147.64 1112.21,-138.87"/>
<polygon fill="#63b8ff" stroke="#63b8ff" points="1114.99,-141.02 1117.45,-130.72 1109.1,-137.24 1114.99,-141.02"/>
</g>
<!-- Node14 -->
<g id="node14" class="node">
<title>Node14</title>
<g id="a_node14"><a xlink:title=" ">
<polygon fill="#e0e0e0" stroke="#999999" points="1270.5,-129 1205.5,-129 1205.5,-110 1270.5,-110 1270.5,-129"/>
<text text-anchor="middle" x="1238" y="-117" font-family="Helvetica,sans-Serif" font-size="10.00">sys/types.h</text>
</a>
</g>
</g>
<!-- Node4&#45;&gt;Node14 -->
<g id="edge13" class="edge">
<title>Node4&#45;&gt;Node14</title>
<path fill="none" stroke="#63b8ff" d="M1115.11,-164.51C1139.17,-155.89 1175.72,-142.8 1202.71,-133.14"/>
<polygon fill="#63b8ff" stroke="#63b8ff" points="1203.61,-136.53 1211.84,-129.87 1201.25,-129.94 1203.61,-136.53"/>
</g>
<!-- Node15 -->
<g id="node15" class="node">
<title>Node15</title>
<g id="a_node15"><a xlink:title=" ">
<polygon fill="#e0e0e0" stroke="#999999" points="1397,-74 1353,-74 1353,-55 1397,-55 1397,-74"/>
<text text-anchor="middle" x="1375" y="-62" font-family="Helvetica,sans-Serif" font-size="10.00">vector</text>
</a>
</g>
</g>
<!-- Node4&#45;&gt;Node15 -->
<g id="edge14" class="edge">
<title>Node4&#45;&gt;Node15</title>
<path fill="none" stroke="#63b8ff" d="M1103.75,-164.57C1127.9,-148.99 1177.16,-117.78 1196,-110 1244.74,-89.87 1304.84,-77.22 1341.52,-70.76"/>
<polygon fill="#63b8ff" stroke="#63b8ff" points="1341.8,-74.27 1351.07,-69.14 1340.63,-67.37 1341.8,-74.27"/>
</g>
<!-- Node16 -->
<g id="node16" class="node">
<title>Node16</title>
<g id="a_node16"><a xlink:title=" ">
<polygon fill="#e0e0e0" stroke="#999999" points="1347,-129 1289,-129 1289,-110 1347,-110 1347,-129"/>
<text text-anchor="middle" x="1318" y="-117" font-family="Helvetica,sans-Serif" font-size="10.00">exception</text>
</a>
</g>
</g>
<!-- Node4&#45;&gt;Node16 -->
<g id="edge15" class="edge">
<title>Node4&#45;&gt;Node16</title>
<path fill="none" stroke="#63b8ff" d="M1128.68,-164.51C1170.11,-154.88 1235.56,-139.66 1277.63,-129.88"/>
<polygon fill="#63b8ff" stroke="#63b8ff" points="1278.16,-133.35 1287.11,-127.68 1276.57,-126.54 1278.16,-133.35"/>
</g>
<!-- Node17 -->
<g id="node17" class="node">
<title>Node17</title>
<g id="a_node17"><a xlink:href="Window_8hpp.html" target="_top" xlink:title=" ">
<polygon fill="white" stroke="#666666" points="429.5,-129 328.5,-129 328.5,-110 429.5,-110 429.5,-129"/>
<text text-anchor="middle" x="379" y="-117" font-family="Helvetica,sans-Serif" font-size="10.00">Engine/Window.hpp</text>
</a>
</g>
</g>
<!-- Node4&#45;&gt;Node17 -->
<g id="edge16" class="edge">
<title>Node4&#45;&gt;Node17</title>
<path fill="none" stroke="#63b8ff" d="M1041.53,-171.6C933.89,-166.89 667.19,-153.37 441.72,-130.22"/>
<polygon fill="#63b8ff" stroke="#63b8ff" points="442.15,-126.74 431.84,-129.19 441.42,-133.7 442.15,-126.74"/>
</g>
<!-- Node18 -->
<g id="node18" class="node">
<title>Node18</title>
<g id="a_node18"><a xlink:href="Event_8hpp.html" target="_top" xlink:title=" ">
<polygon fill="white" stroke="#666666" points="1945,-129 1853,-129 1853,-110 1945,-110 1945,-129"/>
<text text-anchor="middle" x="1899" y="-117" font-family="Helvetica,sans-Serif" font-size="10.00">Engine/Event.hpp</text>
</a>
</g>
</g>
<!-- Node4&#45;&gt;Node18 -->
<g id="edge18" class="edge">
<title>Node4&#45;&gt;Node18</title>
<path fill="none" stroke="#63b8ff" d="M1138.08,-172.1C1256.78,-168.46 1572.58,-156.96 1835,-129 1837.04,-128.78 1839.11,-128.54 1841.22,-128.29"/>
<polygon fill="#63b8ff" stroke="#63b8ff" points="1841.64,-131.76 1851.1,-126.98 1840.72,-124.82 1841.64,-131.76"/>
</g>
<!-- Node21 -->
<g id="node21" class="node">
<title>Node21</title>
<g id="a_node21"><a xlink:href="Bullets_8hpp.html" target="_top" xlink:title=" ">
<polygon fill="white" stroke="#666666" points="272,-129 150,-129 150,-110 272,-110 272,-129"/>
<text text-anchor="middle" x="211" y="-117" font-family="Helvetica,sans-Serif" font-size="10.00">Components/Bullets.hpp</text>
</a>
</g>
</g>
<!-- Node4&#45;&gt;Node21 -->
<g id="edge23" class="edge">
<title>Node4&#45;&gt;Node21</title>
<path fill="none" stroke="#63b8ff" d="M1041.74,-171.95C917.18,-167.56 575.23,-153.74 283.48,-129.53"/>
<polygon fill="#63b8ff" stroke="#63b8ff" points="284.02,-126.06 273.76,-128.71 283.43,-133.03 284.02,-126.06"/>
</g>
<!-- Node4&#45;&gt;Node24 -->
<g id="edge28" class="edge">
<title>Node4&#45;&gt;Node24</title>
<path fill="none" stroke="#63b8ff" d="M1138.49,-166.84C1209.44,-157.63 1342.34,-140.95 1429.27,-130.32"/>
<polygon fill="#63b8ff" stroke="#63b8ff" points="1429.69,-133.79 1439.19,-129.11 1428.84,-126.84 1429.69,-133.79"/>
</g>
<!-- Node17&#45;&gt;Node4 -->
<g id="edge17" class="edge">
<title>Node17&#45;&gt;Node4</title>
<path fill="none" stroke="#63b8ff" d="M429.82,-126.83C435.97,-127.63 442.14,-128.39 448,-129 662.04,-151.45 916.91,-165.08 1030.46,-170.63"/>
<polygon fill="#63b8ff" stroke="#63b8ff" points="1029.99,-174.11 1040.14,-171.1 1030.32,-167.12 1029.99,-174.11"/>
</g>
<!-- Node18&#45;&gt;Node4 -->
<g id="edge19" class="edge">
<title>Node18&#45;&gt;Node4</title>
<path fill="none" stroke="#63b8ff" d="M1852.61,-129.04C1591.62,-156.83 1277.98,-168.34 1149.32,-172.04"/>
<polygon fill="#63b8ff" stroke="#63b8ff" points="1149.59,-168.53 1139.7,-172.32 1149.79,-175.53 1149.59,-168.53"/>
</g>
<!-- Node19 -->
<g id="node19" class="node">
<title>Node19</title>
<g id="a_node19"><a xlink:title=" ">
<polygon fill="#e0e0e0" stroke="#999999" points="1759.5,-74 1730.5,-74 1730.5,-55 1759.5,-55 1759.5,-74"/>
<text text-anchor="middle" x="1745" y="-62" font-family="Helvetica,sans-Serif" font-size="10.00">list</text>
</a>
</g>
</g>
<!-- Node18&#45;&gt;Node19 -->
<g id="edge20" class="edge">
<title>Node18&#45;&gt;Node19</title>
<path fill="none" stroke="#63b8ff" d="M1872.88,-109.51C1844.22,-99.65 1798.53,-83.92 1770.23,-74.18"/>
<polygon fill="#63b8ff" stroke="#63b8ff" points="1771.64,-70.97 1761.04,-71.02 1769.36,-77.59 1771.64,-70.97"/>
</g>
<!-- Node20 -->
<g id="node20" class="node">
<title>Node20</title>
<g id="a_node20"><a xlink:title=" ">
<polygon fill="#e0e0e0" stroke="#999999" points="2112.5,-74 2069.5,-74 2069.5,-55 2112.5,-55 2112.5,-74"/>
<text text-anchor="middle" x="2091" y="-62" font-family="Helvetica,sans-Serif" font-size="10.00">queue</text>
</a>
</g>
</g>
<!-- Node18&#45;&gt;Node20 -->
<g id="edge21" class="edge">
<title>Node18&#45;&gt;Node20</title>
<path fill="none" stroke="#63b8ff" d="M1931.57,-109.51C1966.9,-99.76 2022.99,-84.27 2058.35,-74.51"/>
<polygon fill="#63b8ff" stroke="#63b8ff" points="2058.89,-78 2067.6,-71.96 2057.02,-71.25 2058.89,-78"/>
</g>
<!-- Node21&#45;&gt;Node4 -->
<g id="edge24" class="edge">
<title>Node21&#45;&gt;Node4</title>
<path fill="none" stroke="#63b8ff" d="M272.32,-126.83C279.99,-127.63 287.69,-128.38 295,-129 569.5,-152.13 897.78,-166.02 1030.3,-171.19"/>
<polygon fill="#63b8ff" stroke="#63b8ff" points="1030.12,-174.68 1040.25,-171.57 1030.39,-167.69 1030.12,-174.68"/>
</g>
<!-- Node21&#45;&gt;Node22 -->
<g id="edge25" class="edge">
<title>Node21&#45;&gt;Node22</title>
<path fill="none" stroke="#63b8ff" d="M200.31,-109.51C191.3,-101.93 178.17,-90.88 167.32,-81.75"/>
<polygon fill="#63b8ff" stroke="#63b8ff" points="169.59,-79.09 159.69,-75.33 165.09,-84.45 169.59,-79.09"/>
</g>
<!-- Node23 -->
<g id="node23" class="node">
<title>Node23</title>
<g id="a_node23"><a xlink:title=" ">
<polygon fill="#e0e0e0" stroke="#999999" points="46,-74 0,-74 0,-55 46,-55 46,-74"/>
<text text-anchor="middle" x="23" y="-62" font-family="Helvetica,sans-Serif" font-size="10.00">math.h</text>
</a>
</g>
</g>
<!-- Node21&#45;&gt;Node23 -->
<g id="edge27" class="edge">
<title>Node21&#45;&gt;Node23</title>
<path fill="none" stroke="#63b8ff" d="M179.11,-109.51C145.32,-99.98 92.15,-84.99 57.43,-75.21"/>
<polygon fill="#63b8ff" stroke="#63b8ff" points="58.45,-71.86 47.87,-72.51 56.55,-78.59 58.45,-71.86"/>
</g>
<!-- Node22&#45;&gt;Node4 -->
<g id="edge26" class="edge">
<title>Node22&#45;&gt;Node4</title>
<path fill="none" stroke="#63b8ff" d="M178.82,-74.46C206.07,-82.7 246.7,-95.77 281,-110 298.44,-117.24 300.76,-124.13 319,-129 452.97,-164.73 873.71,-171.77 1030.41,-173.16"/>
<polygon fill="#63b8ff" stroke="#63b8ff" points="1030.13,-176.66 1040.16,-173.24 1030.19,-169.66 1030.13,-176.66"/>
</g>
<!-- Node24&#45;&gt;Node4 -->
<g id="edge29" class="edge">
<title>Node24&#45;&gt;Node4</title>
<path fill="none" stroke="#63b8ff" d="M1446.49,-129.49C1364.86,-139.99 1227.81,-157.14 1149.51,-166.63"/>
<polygon fill="#63b8ff" stroke="#63b8ff" points="1149.4,-163.12 1139.9,-167.8 1150.24,-170.07 1149.4,-163.12"/>
</g>
<!-- Node25&#45;&gt;Node10 -->
<g id="edge32" class="edge">
<title>Node25&#45;&gt;Node10</title>
<path fill="none" stroke="#63b8ff" d="M1777.45,-164.5C1766.2,-155.66 1748.69,-141.68 1734,-129 1716.01,-113.47 1696.09,-95 1682.3,-81.99"/>
<polygon fill="#63b8ff" stroke="#63b8ff" points="1684.97,-79.7 1675.3,-75.36 1680.15,-84.78 1684.97,-79.7"/>
</g>
<!-- Node25&#45;&gt;Node15 -->
<g id="edge35" class="edge">
<title>Node25&#45;&gt;Node15</title>
<path fill="none" stroke="#63b8ff" d="M1733.31,-171.29C1646.4,-167.05 1483.13,-155.73 1432,-129 1412.35,-118.73 1396.19,-98.76 1386.16,-83.95"/>
<polygon fill="#63b8ff" stroke="#63b8ff" points="1389.13,-82.1 1380.79,-75.56 1383.24,-85.87 1389.13,-82.1"/>
</g>
<!-- Node26 -->
<g id="node26" class="node">
<title>Node26</title>
<g id="a_node26"><a xlink:title=" ">
<polygon fill="#e0e0e0" stroke="#999999" points="1948,-74 1892,-74 1892,-55 1948,-55 1948,-74"/>
<text text-anchor="middle" x="1920" y="-62" font-family="Helvetica,sans-Serif" font-size="10.00">algorithm</text>
</a>
</g>
</g>
<!-- Node25&#45;&gt;Node26 -->
<g id="edge33" class="edge">
<title>Node25&#45;&gt;Node26</title>
<path fill="none" stroke="#63b8ff" d="M1844.98,-167.28C1892.25,-160.73 1954.63,-148.61 1970,-129 1982.99,-112.43 1963.58,-93.47 1945.28,-80.62"/>
<polygon fill="#63b8ff" stroke="#63b8ff" points="1947.27,-77.73 1936.99,-75.16 1943.42,-83.58 1947.27,-77.73"/>
</g>
<!-- Node27 -->
<g id="node27" class="node">
<title>Node27</title>
<g id="a_node27"><a xlink:title=" ">
<polygon fill="#e0e0e0" stroke="#999999" points="2051,-74 2013,-74 2013,-55 2051,-55 2051,-74"/>
<text text-anchor="middle" x="2032" y="-62" font-family="Helvetica,sans-Serif" font-size="10.00">array</text>
</a>
</g>
</g>
<!-- Node25&#45;&gt;Node27 -->
<g id="edge34" class="edge">
<title>Node25&#45;&gt;Node27</title>
<path fill="none" stroke="#63b8ff" d="M1844.85,-171.59C1887.01,-167.77 1944.63,-157.23 1987,-129 2003.33,-118.12 2015.61,-99.16 2023.18,-84.78"/>
<polygon fill="#63b8ff" stroke="#63b8ff" points="2026.31,-86.35 2027.57,-75.83 2020.02,-83.27 2026.31,-86.35"/>
</g>
<!-- Node28 -->
<g id="node28" class="node">
<title>Node28</title>
<g id="a_node28"><a xlink:title=" ">
<polygon fill="#e0e0e0" stroke="#999999" points="1832.5,-74 1793.5,-74 1793.5,-55 1832.5,-55 1832.5,-74"/>
<text text-anchor="middle" x="1813" y="-62" font-family="Helvetica,sans-Serif" font-size="10.00">utility</text>
</a>
</g>
</g>
<!-- Node25&#45;&gt;Node28 -->
<g id="edge36" class="edge">
<title>Node25&#45;&gt;Node28</title>
<path fill="none" stroke="#63b8ff" d="M1844.76,-165.8C1887.23,-158.66 1940.6,-146.49 1954,-129 1959.14,-122.3 1958.99,-116.81 1954,-110 1940.92,-92.16 1881.55,-78.17 1844.14,-70.93"/>
<polygon fill="#63b8ff" stroke="#63b8ff" points="1844.81,-67.5 1834.34,-69.1 1843.53,-74.38 1844.81,-67.5"/>
</g>
<!-- Node29 -->
<g id="node29" class="node">
<title>Node29</title>
<g id="a_node29"><a xlink:href="Vectors_8hpp.html" target="_top" xlink:title=" ">
<polygon fill="white" stroke="#666666" points="1835,-129 1743,-129 1743,-110 1835,-110 1835,-129"/>
<text text-anchor="middle" x="1789" y="-117" font-family="Helvetica,sans-Serif" font-size="10.00">Utils/Vectors.hpp</text>
</a>
</g>
</g>
<!-- Node25&#45;&gt;Node29 -->
<g id="edge37" class="edge">
<title>Node25&#45;&gt;Node29</title>
<path fill="none" stroke="#63b8ff" d="M1789,-164.75C1789,-158.27 1789,-149.16 1789,-140.9"/>
<polygon fill="#63b8ff" stroke="#63b8ff" points="1792.5,-140.96 1789,-130.96 1785.5,-140.96 1792.5,-140.96"/>
</g>
<!-- Node29&#45;&gt;Node10 -->
<g id="edge38" class="edge">
<title>Node29&#45;&gt;Node10</title>
<path fill="none" stroke="#63b8ff" d="M1767.97,-109.51C1748.25,-101.08 1718.53,-88.38 1696.09,-78.79"/>
<polygon fill="#63b8ff" stroke="#63b8ff" points="1697.69,-75.66 1687.12,-74.95 1694.94,-82.1 1697.69,-75.66"/>
</g>
<!-- Node29&#45;&gt;Node15 -->
<g id="edge41" class="edge">
<title>Node29&#45;&gt;Node15</title>
<path fill="none" stroke="#63b8ff" d="M1742.71,-112.57C1658.57,-101.8 1482.42,-79.25 1408.64,-69.81"/>
<polygon fill="#63b8ff" stroke="#63b8ff" points="1409.17,-66.35 1398.8,-68.55 1408.28,-73.29 1409.17,-66.35"/>
</g>
<!-- Node29&#45;&gt;Node26 -->
<g id="edge39" class="edge">
<title>Node29&#45;&gt;Node26</title>
<path fill="none" stroke="#63b8ff" d="M1811.22,-109.51C1832.14,-101.04 1863.73,-88.27 1887.48,-78.66"/>
<polygon fill="#63b8ff" stroke="#63b8ff" points="1888.75,-81.92 1896.7,-74.93 1886.12,-75.43 1888.75,-81.92"/>
</g>
<!-- Node29&#45;&gt;Node27 -->
<g id="edge40" class="edge">
<title>Node29&#45;&gt;Node27</title>
<path fill="none" stroke="#63b8ff" d="M1830.22,-109.51C1878.74,-98.93 1958.17,-81.6 2001.49,-72.16"/>
<polygon fill="#63b8ff" stroke="#63b8ff" points="2002.19,-75.58 2011.21,-70.03 2000.7,-68.75 2002.19,-75.58"/>
</g>
<!-- Node29&#45;&gt;Node28 -->
<g id="edge42" class="edge">
<title>Node29&#45;&gt;Node28</title>
<path fill="none" stroke="#63b8ff" d="M1792.96,-109.75C1796.04,-102.96 1800.41,-93.3 1804.29,-84.73"/>
<polygon fill="#63b8ff" stroke="#63b8ff" points="1807.39,-86.37 1808.33,-75.82 1801.01,-83.49 1807.39,-86.37"/>
</g>
<!-- Node30&#45;&gt;Node10 -->
<g id="edge44" class="edge">
<title>Node30&#45;&gt;Node10</title>
<path fill="none" stroke="#63b8ff" d="M1648.3,-109.75C1650.83,-103.04 1654.43,-93.52 1657.63,-85.02"/>
<polygon fill="#63b8ff" stroke="#63b8ff" points="1660.84,-86.45 1661.09,-75.86 1654.29,-83.98 1660.84,-86.45"/>
</g>
<!-- Node30&#45;&gt;Node15 -->
<g id="edge46" class="edge">
<title>Node30&#45;&gt;Node15</title>
<path fill="none" stroke="#63b8ff" d="M1603.11,-110.28C1549.6,-99.77 1458.06,-81.8 1408.78,-72.13"/>
<polygon fill="#63b8ff" stroke="#63b8ff" points="1409.47,-68.7 1398.98,-70.21 1408.12,-75.57 1409.47,-68.7"/>
</g>
<!-- Node30&#45;&gt;Node19 -->
<g id="edge45" class="edge">
<title>Node30&#45;&gt;Node19</title>
<path fill="none" stroke="#63b8ff" d="M1661.96,-109.51C1677.91,-101.06 1701.98,-88.3 1720.1,-78.7"/>
<polygon fill="#63b8ff" stroke="#63b8ff" points="1721.7,-81.81 1728.9,-74.03 1718.43,-75.62 1721.7,-81.81"/>
</g>
<!-- Node31&#45;&gt;Node20 -->
<g id="edge60" class="edge">
<title>Node31&#45;&gt;Node20</title>
<path fill="none" stroke="#63b8ff" d="M2019.59,-219.72C2023.35,-207.32 2030.77,-184.07 2039,-165 2051.52,-135.99 2069.03,-103.83 2080.2,-84.14"/>
<polygon fill="#63b8ff" stroke="#63b8ff" points="2083.12,-86.07 2085.06,-75.65 2077.05,-82.59 2083.12,-86.07"/>
</g>
<!-- Node32 -->
<g id="node32" class="node">
<title>Node32</title>
<g id="a_node32"><a xlink:href="States_8hpp.html" target="_top" xlink:title=" ">
<polygon fill="white" stroke="#666666" points="2167.5,-184 2048.5,-184 2048.5,-165 2167.5,-165 2167.5,-184"/>
<text text-anchor="middle" x="2108" y="-172" font-family="Helvetica,sans-Serif" font-size="10.00">gameStates/States.hpp</text>
</a>
</g>
</g>
<!-- Node31&#45;&gt;Node32 -->
<g id="edge48" class="edge">
<title>Node31&#45;&gt;Node32</title>
<path fill="none" stroke="#63b8ff" d="M2032.44,-219.51C2046.25,-211.47 2066.75,-199.53 2082.91,-190.11"/>
<polygon fill="#63b8ff" stroke="#63b8ff" points="2084.6,-193.18 2091.48,-185.12 2081.08,-187.13 2084.6,-193.18"/>
</g>
<!-- Node32&#45;&gt;Node1 -->
<g id="edge50" class="edge">
<title>Node32&#45;&gt;Node1</title>
<path fill="none" stroke="#63b8ff" d="M2167.92,-178.04C2222.74,-182.97 2291.95,-197.36 2268,-239 2243.93,-280.84 2197.26,-308.31 2156.2,-325.4"/>
<polygon fill="#63b8ff" stroke="#63b8ff" points="2155.02,-322.1 2147.03,-329.06 2157.62,-328.6 2155.02,-322.1"/>
</g>
<!-- Node32&#45;&gt;Node2 -->
<g id="edge49" class="edge">
<title>Node32&#45;&gt;Node2</title>
<path fill="none" stroke="#63b8ff" d="M2108.06,-184.37C2107.64,-198.2 2104.69,-224.78 2089,-239 2064.14,-261.54 1975.26,-273.58 1916.1,-279.24"/>
<polygon fill="#63b8ff" stroke="#63b8ff" points="1915.83,-275.75 1906.19,-280.16 1916.47,-282.72 1915.83,-275.75"/>
</g>
<!-- Node33 -->
<g id="node33" class="node">
<title>Node33</title>
<g id="a_node33"><a xlink:href="SGamePlay_8hpp.html" target="_top" xlink:title=" ">
<polygon fill="white" stroke="#666666" points="2239,-129 2153,-129 2153,-110 2239,-110 2239,-129"/>
<text text-anchor="middle" x="2196" y="-117" font-family="Helvetica,sans-Serif" font-size="10.00">SGamePlay.hpp</text>
</a>
</g>
</g>
<!-- Node32&#45;&gt;Node33 -->
<g id="edge51" class="edge">
<title>Node32&#45;&gt;Node33</title>
<path fill="none" stroke="#63b8ff" d="M2122.93,-164.51C2136.28,-156.47 2156.11,-144.53 2171.74,-135.11"/>
<polygon fill="#63b8ff" stroke="#63b8ff" points="2173.24,-138.3 2180,-130.14 2169.62,-132.3 2173.24,-138.3"/>
</g>
<!-- Node33&#45;&gt;Node2 -->
<g id="edge52" class="edge">
<title>Node33&#45;&gt;Node2</title>
<path fill="none" stroke="#63b8ff" d="M2195.04,-129.43C2193.28,-142.42 2188.6,-166.84 2177,-184 2155.04,-216.49 2143.72,-222.81 2108,-239 2046.02,-267.1 1967.73,-277.47 1916.1,-281.29"/>
<polygon fill="#63b8ff" stroke="#63b8ff" points="1916.11,-277.79 1906.37,-281.95 1916.58,-284.77 1916.11,-277.79"/>
</g>
<!-- Node33&#45;&gt;Node12 -->
<g id="edge55" class="edge">
<title>Node33&#45;&gt;Node12</title>
<path fill="none" stroke="#63b8ff" d="M2188.57,-109.75C2182.42,-102.5 2173.49,-91.98 2165.87,-83.02"/>
<polygon fill="#63b8ff" stroke="#63b8ff" points="2168.71,-80.95 2159.57,-75.6 2163.38,-85.48 2168.71,-80.95"/>
</g>
<!-- Node33&#45;&gt;Node20 -->
<g id="edge53" class="edge">
<title>Node33&#45;&gt;Node20</title>
<path fill="none" stroke="#63b8ff" d="M2178.19,-109.51C2161.87,-101.27 2137.47,-88.96 2118.63,-79.45"/>
<polygon fill="#63b8ff" stroke="#63b8ff" points="2120.4,-76.42 2109.9,-75.04 2117.25,-82.67 2120.4,-76.42"/>
</g>
<!-- Node33&#45;&gt;Node27 -->
<g id="edge54" class="edge">
<title>Node33&#45;&gt;Node27</title>
<path fill="none" stroke="#63b8ff" d="M2168.18,-109.51C2138.68,-99.98 2092.26,-84.97 2061.97,-75.19"/>
<polygon fill="#63b8ff" stroke="#63b8ff" points="2063.25,-71.92 2052.66,-72.18 2061.1,-78.58 2063.25,-71.92"/>
</g>
<!-- Node34 -->
<g id="node34" class="node">
<title>Node34</title>
<g id="a_node34"><a xlink:title=" ">
<polygon fill="#e0e0e0" stroke="#999999" points="2236,-74 2190,-74 2190,-55 2236,-55 2236,-74"/>
<text text-anchor="middle" x="2213" y="-62" font-family="Helvetica,sans-Serif" font-size="10.00">cstring</text>
</a>
</g>
</g>
<!-- Node33&#45;&gt;Node34 -->
<g id="edge56" class="edge">
<title>Node33&#45;&gt;Node34</title>
<path fill="none" stroke="#63b8ff" d="M2198.81,-109.75C2200.94,-103.11 2203.94,-93.73 2206.64,-85.31"/>
<polygon fill="#63b8ff" stroke="#63b8ff" points="2209.95,-86.47 2209.67,-75.88 2203.28,-84.34 2209.95,-86.47"/>
</g>
<!-- Node35 -->
<g id="node35" class="node">
<title>Node35</title>
<g id="a_node35"><a xlink:href="Global_8hpp.html" target="_top" xlink:title=" ">
<polygon fill="white" stroke="#666666" points="2316,-74 2254,-74 2254,-55 2316,-55 2316,-74"/>
<text text-anchor="middle" x="2285" y="-62" font-family="Helvetica,sans-Serif" font-size="10.00">Global.hpp</text>
</a>
</g>
</g>
<!-- Node33&#45;&gt;Node35 -->
<g id="edge57" class="edge">
<title>Node33&#45;&gt;Node35</title>
<path fill="none" stroke="#63b8ff" d="M2211.1,-109.51C2224.6,-101.47 2244.65,-89.53 2260.46,-80.11"/>
<polygon fill="#63b8ff" stroke="#63b8ff" points="2262.02,-83.26 2268.82,-75.13 2258.44,-77.24 2262.02,-83.26"/>
</g>
<!-- Node36 -->
<g id="node36" class="node">
<title>Node36</title>
<g id="a_node36"><a xlink:title=" ">
<polygon fill="#e0e0e0" stroke="#999999" points="2278,-19 2216,-19 2216,0 2278,0 2278,-19"/>
<text text-anchor="middle" x="2247" y="-7" font-family="Helvetica,sans-Serif" font-size="10.00">Skaldi.hpp</text>
</a>
</g>
</g>
<!-- Node35&#45;&gt;Node36 -->
<g id="edge58" class="edge">
<title>Node35&#45;&gt;Node36</title>
<path fill="none" stroke="#63b8ff" d="M2278.73,-54.75C2273.64,-47.66 2266.3,-37.42 2259.97,-28.59"/>
<polygon fill="#63b8ff" stroke="#63b8ff" points="2262.96,-26.76 2254.29,-20.67 2257.28,-30.84 2262.96,-26.76"/>
</g>
<!-- Node37 -->
<g id="node37" class="node">
<title>Node37</title>
<g id="a_node37"><a xlink:title=" ">
<polygon fill="#e0e0e0" stroke="#999999" points="2347.5,-19 2296.5,-19 2296.5,0 2347.5,0 2347.5,-19"/>
<text text-anchor="middle" x="2322" y="-7" font-family="Helvetica,sans-Serif" font-size="10.00">memory</text>
</a>
</g>
</g>
<!-- Node35&#45;&gt;Node37 -->
<g id="edge59" class="edge">
<title>Node35&#45;&gt;Node37</title>
<path fill="none" stroke="#63b8ff" d="M2291.11,-54.75C2296.01,-47.73 2303.05,-37.64 2309.17,-28.87"/>
<polygon fill="#63b8ff" stroke="#63b8ff" points="2312.04,-30.89 2314.89,-20.68 2306.3,-26.88 2312.04,-30.89"/>
</g>
<!-- Node38&#45;&gt;Node4 -->
<g id="edge63" class="edge">
<title>Node38&#45;&gt;Node4</title>
<path fill="none" stroke="#63b8ff" d="M165.25,-224.86C349.65,-215.02 855.66,-188.01 1030.02,-178.7"/>
<polygon fill="#63b8ff" stroke="#63b8ff" points="1030.19,-182.2 1039.99,-178.17 1029.82,-175.21 1030.19,-182.2"/>
</g>
<!-- Node38&#45;&gt;Node15 -->
<g id="edge66" class="edge">
<title>Node38&#45;&gt;Node15</title>
<path fill="none" stroke="#63b8ff" d="M98.94,-219.7C104.68,-194.59 122.32,-123.49 141,-110 191,-73.88 1148.79,-66.74 1341.42,-65.66"/>
<polygon fill="#63b8ff" stroke="#63b8ff" points="1341.25,-69.17 1351.23,-65.61 1341.21,-62.17 1341.25,-69.17"/>
</g>
<!-- Node38&#45;&gt;Node22 -->
<g id="edge64" class="edge">
<title>Node38&#45;&gt;Node22</title>
<path fill="none" stroke="#63b8ff" d="M78.69,-219.65C65.52,-212.17 48.77,-200.1 41,-184 37.33,-176.39 38.97,-173.2 41,-165 47.64,-138.18 50.79,-129.86 70,-110 82.59,-96.98 99.82,-86.61 114.89,-79.17"/>
<polygon fill="#63b8ff" stroke="#63b8ff" points="115.94,-82.54 123.51,-75.13 112.97,-76.2 115.94,-82.54"/>
</g>
<!-- Node38&#45;&gt;Node23 -->
<g id="edge65" class="edge">
<title>Node38&#45;&gt;Node23</title>
<path fill="none" stroke="#63b8ff" d="M76.67,-219.57C62.47,-212.19 44.42,-200.28 35,-184 17.18,-153.21 17.89,-110.3 20.27,-85.45"/>
<polygon fill="#63b8ff" stroke="#63b8ff" points="23.72,-86.11 21.41,-75.77 16.77,-85.3 23.72,-86.11"/>
</g>
<!-- Node39 -->
<g id="node39" class="node">
<title>Node39</title>
<g id="a_node39"><a xlink:title=" ">
<polygon fill="#e0e0e0" stroke="#999999" points="94,-184 50,-184 50,-165 94,-165 94,-184"/>
<text text-anchor="middle" x="72" y="-172" font-family="Helvetica,sans-Serif" font-size="10.00">cmath</text>
</a>
</g>
</g>
<!-- Node38&#45;&gt;Node39 -->
<g id="edge67" class="edge">
<title>Node38&#45;&gt;Node39</title>
<path fill="none" stroke="#63b8ff" d="M92.87,-219.75C89.67,-212.96 85.11,-203.3 81.07,-194.73"/>
<polygon fill="#63b8ff" stroke="#63b8ff" points="84.3,-193.36 76.86,-185.81 77.96,-196.35 84.3,-193.36"/>
</g>
<!-- Node40&#45;&gt;Node4 -->
<g id="edge69" class="edge">
<title>Node40&#45;&gt;Node4</title>
<path fill="none" stroke="#63b8ff" d="M2016.2,-276.74C1838.02,-257.27 1324.87,-201.17 1149.55,-182.01"/>
<polygon fill="#63b8ff" stroke="#63b8ff" points="1150.08,-178.55 1139.76,-180.94 1149.32,-185.51 1150.08,-178.55"/>
</g>
<!-- Node41 -->
<g id="node41" class="node">
<title>Node41</title>
<g id="a_node41"><a xlink:title=" ">
<polygon fill="#e0e0e0" stroke="#999999" points="2258.5,-239 2199.5,-239 2199.5,-220 2258.5,-220 2258.5,-239"/>
<text text-anchor="middle" x="2229" y="-227" font-family="Helvetica,sans-Serif" font-size="10.00">functional</text>
</a>
</g>
</g>
<!-- Node40&#45;&gt;Node41 -->
<g id="edge70" class="edge">
<title>Node40&#45;&gt;Node41</title>
<path fill="none" stroke="#63b8ff" d="M2103.62,-274.51C2128.09,-265.92 2165.24,-252.88 2192.75,-243.22"/>
<polygon fill="#63b8ff" stroke="#63b8ff" points="2193.81,-246.56 2202.08,-239.95 2191.49,-239.96 2193.81,-246.56"/>
</g>
</g>
</svg>
