<?xml version="1.0" encoding="UTF-8" standalone="no"?>
<!DOCTYPE svg PUBLIC "-//W3C//DTD SVG 1.1//EN"
 "http://www.w3.org/Graphics/SVG/1.1/DTD/svg11.dtd">
<!-- Generated by graphviz version 7.0.5 (20221223.1930)
 -->
<!-- Title: /github/workspace/client/include/system/gameStates/SMenu.hpp Pages: 1 -->
<svg width="671pt" height="346pt"
 viewBox="0.00 0.00 670.50 346.00" xmlns="http://www.w3.org/2000/svg" xmlns:xlink="http://www.w3.org/1999/xlink">
<g id="graph0" class="graph" transform="scale(1 1) rotate(0) translate(4 342)">
<title>/github/workspace/client/include/system/gameStates/SMenu.hpp</title>
<!-- Node1 -->
<g id="node1" class="node">
<title>Node1</title>
<g id="a_node1"><a xlink:title=" ">
<polygon fill="#999999" stroke="#666666" points="413,-338 273,-338 273,-297 413,-297 413,-338"/>
<text text-anchor="start" x="281" y="-326" font-family="Helvetica,sans-Serif" font-size="10.00">/github/workspace/client</text>
<text text-anchor="start" x="281" y="-315" font-family="Helvetica,sans-Serif" font-size="10.00">/include/system/gameStates</text>
<text text-anchor="middle" x="343" y="-304" font-family="Helvetica,sans-Serif" font-size="10.00">/SMenu.hpp</text>
</a>
</g>
</g>
<!-- Node2 -->
<g id="node2" class="node">
<title>Node2</title>
<g id="a_node2"><a xlink:href="States_8hpp.html" target="_top" xlink:title=" ">
<polygon fill="white" stroke="#666666" points="364,-261 224,-261 224,-220 364,-220 364,-261"/>
<text text-anchor="start" x="232" y="-249" font-family="Helvetica,sans-Serif" font-size="10.00">/github/workspace/client</text>
<text text-anchor="start" x="232" y="-238" font-family="Helvetica,sans-Serif" font-size="10.00">/include/system/gameStates</text>
<text text-anchor="middle" x="294" y="-227" font-family="Helvetica,sans-Serif" font-size="10.00">/States.hpp</text>
</a>
</g>
</g>
<!-- Node1&#45;&gt;Node2 -->
<g id="edge1" class="edge">
<title>Node1&#45;&gt;Node2</title>
<path fill="none" stroke="#63b8ff" d="M323.95,-287.34C318.26,-278.63 312.16,-269.3 306.96,-261.33"/>
<polygon fill="#63b8ff" stroke="#63b8ff" points="320.9,-289.07 329.3,-295.53 326.76,-285.24 320.9,-289.07"/>
</g>
<!-- Node3 -->
<g id="node3" class="node">
<title>Node3</title>
<g id="a_node3"><a xlink:href="GameEngine_8hpp.html" target="_top" xlink:title=" ">
<polygon fill="white" stroke="#666666" points="348.5,-184 187.5,-184 187.5,-154 348.5,-154 348.5,-184"/>
<text text-anchor="start" x="195.5" y="-172" font-family="Helvetica,sans-Serif" font-size="10.00">/github/workspace/client</text>
<text text-anchor="middle" x="268" y="-161" font-family="Helvetica,sans-Serif" font-size="10.00">/include/system/GameEngine.hpp</text>
</a>
</g>
</g>
<!-- Node2&#45;&gt;Node3 -->
<g id="edge2" class="edge">
<title>Node2&#45;&gt;Node3</title>
<path fill="none" stroke="#63b8ff" d="M282.68,-209.24C279.46,-200.64 276.11,-191.67 273.41,-184.47"/>
<polygon fill="#63b8ff" stroke="#63b8ff" points="279.31,-210.21 286.09,-218.35 285.86,-207.76 279.31,-210.21"/>
</g>
<!-- Node4 -->
<g id="node4" class="node">
<title>Node4</title>
<g id="a_node4"><a xlink:href="IGameState_8hpp.html" target="_top" xlink:title=" ">
<polygon fill="white" stroke="#666666" points="487,-118 347,-118 347,-77 487,-77 487,-118"/>
<text text-anchor="start" x="355" y="-106" font-family="Helvetica,sans-Serif" font-size="10.00">/github/workspace/client</text>
<text text-anchor="start" x="355" y="-95" font-family="Helvetica,sans-Serif" font-size="10.00">/include/system/gameStates</text>
<text text-anchor="middle" x="417" y="-84" font-family="Helvetica,sans-Serif" font-size="10.00">/IGameState.hpp</text>
</a>
</g>
</g>
<!-- Node3&#45;&gt;Node4 -->
<g id="edge3" class="edge">
<title>Node3&#45;&gt;Node4</title>
<path fill="none" stroke="#63b8ff" d="M309.06,-148.85C329.34,-139.39 353.8,-127.98 374.3,-118.42"/>
<polygon fill="#63b8ff" stroke="#63b8ff" points="307.83,-145.56 300.24,-152.96 310.79,-151.9 307.83,-145.56"/>
</g>
<!-- Node9 -->
<g id="node9" class="node">
<title>Node9</title>
<g id="a_node9"><a xlink:href="StateManager_8cpp.html" target="_top" xlink:title=" ">
<polygon fill="white" stroke="#666666" points="189,-112.5 67,-112.5 67,-82.5 189,-82.5 189,-112.5"/>
<text text-anchor="start" x="75" y="-100.5" font-family="Helvetica,sans-Serif" font-size="10.00">/github/workspace/client</text>
<text text-anchor="middle" x="128" y="-89.5" font-family="Helvetica,sans-Serif" font-size="10.00">/src/StateManager.cpp</text>
</a>
</g>
</g>
<!-- Node3&#45;&gt;Node9 -->
<g id="edge11" class="edge">
<title>Node3&#45;&gt;Node9</title>
<path fill="none" stroke="#63b8ff" d="M228.94,-148.61C206.12,-137.28 177.8,-123.22 156.97,-112.88"/>
<polygon fill="#63b8ff" stroke="#63b8ff" points="227.12,-151.61 237.64,-152.93 230.24,-145.35 227.12,-151.61"/>
</g>
<!-- Node10 -->
<g id="node10" class="node">
<title>Node10</title>
<g id="a_node10"><a xlink:href="client_2src_2main_8cpp.html" target="_top" xlink:title=" ">
<polygon fill="white" stroke="#666666" points="329,-112.5 207,-112.5 207,-82.5 329,-82.5 329,-112.5"/>
<text text-anchor="start" x="215" y="-100.5" font-family="Helvetica,sans-Serif" font-size="10.00">/github/workspace/client</text>
<text text-anchor="middle" x="268" y="-89.5" font-family="Helvetica,sans-Serif" font-size="10.00">/src/main.cpp</text>
</a>
</g>
</g>
<!-- Node3&#45;&gt;Node10 -->
<g id="edge12" class="edge">
<title>Node3&#45;&gt;Node10</title>
<path fill="none" stroke="#63b8ff" d="M268,-142.26C268,-132.33 268,-121.36 268,-112.88"/>
<polygon fill="#63b8ff" stroke="#63b8ff" points="264.5,-142.09 268,-152.09 271.5,-142.09 264.5,-142.09"/>
</g>
<!-- Node4&#45;&gt;Node1 -->
<g id="edge8" class="edge">
<title>Node4&#45;&gt;Node1</title>
<path fill="none" stroke="#63b8ff" d="M410.79,-129.75C403.67,-162.99 390.67,-216.76 373,-261 368.08,-273.31 361.11,-286.38 355.13,-296.74"/>
<polygon fill="#63b8ff" stroke="#63b8ff" points="414.22,-130.47 412.84,-119.97 407.36,-129.04 414.22,-130.47"/>
</g>
<!-- Node4&#45;&gt;Node2 -->
<g id="edge9" class="edge">
<title>Node4&#45;&gt;Node2</title>
<path fill="none" stroke="#63b8ff" d="M399.45,-127.72C388.51,-144.9 373.59,-166.59 358,-184 346.52,-196.82 332.17,-209.51 319.96,-219.52"/>
<polygon fill="#63b8ff" stroke="#63b8ff" points="402.27,-129.82 404.6,-119.48 396.33,-126.11 402.27,-129.82"/>
</g>
<!-- Node5 -->
<g id="node5" class="node">
<title>Node5</title>
<g id="a_node5"><a xlink:href="SGamePlay__Duck_8hpp.html" target="_top" xlink:title=" ">
<polygon fill="white" stroke="#666666" points="662.5,-41 505.5,-41 505.5,0 662.5,0 662.5,-41"/>
<text text-anchor="start" x="513.5" y="-29" font-family="Helvetica,sans-Serif" font-size="10.00">/github/workspace/client</text>
<text text-anchor="start" x="513.5" y="-18" font-family="Helvetica,sans-Serif" font-size="10.00">/include/system/gameStates</text>
<text text-anchor="middle" x="584" y="-7" font-family="Helvetica,sans-Serif" font-size="10.00">/Example/SGamePlay_Duck.hpp</text>
</a>
</g>
</g>
<!-- Node4&#45;&gt;Node5 -->
<g id="edge4" class="edge">
<title>Node4&#45;&gt;Node5</title>
<path fill="none" stroke="#63b8ff" d="M471.81,-71.88C493.75,-62.03 518.69,-50.83 539.48,-41.49"/>
<polygon fill="#63b8ff" stroke="#63b8ff" points="470.38,-68.69 462.7,-75.98 473.25,-75.07 470.38,-68.69"/>
</g>
<!-- Node6 -->
<g id="node6" class="node">
<title>Node6</title>
<g id="a_node6"><a xlink:href="SMenu__Duck_8hpp.html" target="_top" xlink:title=" ">
<polygon fill="white" stroke="#666666" points="329,-41 189,-41 189,0 329,0 329,-41"/>
<text text-anchor="start" x="197" y="-29" font-family="Helvetica,sans-Serif" font-size="10.00">/github/workspace/client</text>
<text text-anchor="start" x="197" y="-18" font-family="Helvetica,sans-Serif" font-size="10.00">/include/system/gameStates</text>
<text text-anchor="middle" x="259" y="-7" font-family="Helvetica,sans-Serif" font-size="10.00">/Example/SMenu_Duck.hpp</text>
</a>
</g>
</g>
<!-- Node4&#45;&gt;Node6 -->
<g id="edge5" class="edge">
<title>Node4&#45;&gt;Node6</title>
<path fill="none" stroke="#63b8ff" d="M364.86,-71.75C344.17,-61.93 320.7,-50.79 301.12,-41.49"/>
<polygon fill="#63b8ff" stroke="#63b8ff" points="363.17,-74.82 373.71,-75.95 366.17,-68.5 363.17,-74.82"/>
</g>
<!-- Node7 -->
<g id="node7" class="node">
<title>Node7</title>
<g id="a_node7"><a xlink:href="SGamePlay_8hpp.html" target="_top" xlink:title=" ">
<polygon fill="white" stroke="#666666" points="140,-41 0,-41 0,0 140,0 140,-41"/>
<text text-anchor="start" x="8" y="-29" font-family="Helvetica,sans-Serif" font-size="10.00">/github/workspace/client</text>
<text text-anchor="start" x="8" y="-18" font-family="Helvetica,sans-Serif" font-size="10.00">/include/system/gameStates</text>
<text text-anchor="middle" x="70" y="-7" font-family="Helvetica,sans-Serif" font-size="10.00">/SGamePlay.hpp</text>
</a>
</g>
</g>
<!-- Node4&#45;&gt;Node7 -->
<g id="edge6" class="edge">
<title>Node4&#45;&gt;Node7</title>
<path fill="none" stroke="#63b8ff" d="M335.73,-76.52C263.73,-60.31 191.91,-45.61 140.41,-35.32"/>
<polygon fill="#63b8ff" stroke="#63b8ff" points="334.82,-79.91 345.35,-78.7 336.36,-73.08 334.82,-79.91"/>
</g>
<!-- Node8 -->
<g id="node8" class="node">
<title>Node8</title>
<g id="a_node8"><a xlink:href="old__SGamePlay_01copy_8hpp.html" target="_top" xlink:title=" ">
<polygon fill="white" stroke="#666666" points="487,-41 347,-41 347,0 487,0 487,-41"/>
<text text-anchor="start" x="355" y="-29" font-family="Helvetica,sans-Serif" font-size="10.00">/github/workspace/client</text>
<text text-anchor="start" x="355" y="-18" font-family="Helvetica,sans-Serif" font-size="10.00">/include/system/gameStates</text>
<text text-anchor="middle" x="417" y="-7" font-family="Helvetica,sans-Serif" font-size="10.00">/old_SGamePlay copy.hpp</text>
</a>
</g>
</g>
<!-- Node4&#45;&gt;Node8 -->
<g id="edge10" class="edge">
<title>Node4&#45;&gt;Node8</title>
<path fill="none" stroke="#63b8ff" d="M417,-65.36C417,-57.24 417,-48.7 417,-41.33"/>
<polygon fill="#63b8ff" stroke="#63b8ff" points="413.5,-65.28 417,-75.28 420.5,-65.28 413.5,-65.28"/>
</g>
<!-- Node7&#45;&gt;Node2 -->
<g id="edge7" class="edge">
<title>Node7&#45;&gt;Node2</title>
<path fill="none" stroke="#63b8ff" d="M56.87,-52.18C50.43,-72.22 46.31,-98.23 58,-118 93.06,-177.3 167.66,-208.78 223.66,-224.7"/>
<polygon fill="#63b8ff" stroke="#63b8ff" points="60.12,-53.47 60.19,-42.88 53.53,-51.12 60.12,-53.47"/>
</g>
</g>
</svg>
