<?xml version="1.0" encoding="UTF-8" standalone="no"?>
<!DOCTYPE svg PUBLIC "-//W3C//DTD SVG 1.1//EN"
 "http://www.w3.org/Graphics/SVG/1.1/DTD/svg11.dtd">
<!-- Generated by graphviz version 7.0.5 (20221223.1930)
 -->
<!-- Title: /github/workspace/client/include/system/gameStates/Example/SMenu_Duck.hpp Pages: 1 -->
<svg width="2392pt" height="489pt"
 viewBox="0.00 0.00 2391.88 489.00" xmlns="http://www.w3.org/2000/svg" xmlns:xlink="http://www.w3.org/1999/xlink">
<g id="graph0" class="graph" transform="scale(1 1) rotate(0) translate(4 485)">
<title>/github/workspace/client/include/system/gameStates/Example/SMenu_Duck.hpp</title>
<!-- Node1 -->
<g id="node1" class="node">
<title>Node1</title>
<g id="a_node1"><a xlink:title=" ">
<polygon fill="#999999" stroke="#666666" points="616.5,-481 476.5,-481 476.5,-440 616.5,-440 616.5,-481"/>
<text text-anchor="start" x="484.5" y="-469" font-family="Helvetica,sans-Serif" font-size="10.00">/github/workspace/client</text>
<text text-anchor="start" x="484.5" y="-458" font-family="Helvetica,sans-Serif" font-size="10.00">/include/system/gameStates</text>
<text text-anchor="middle" x="546.5" y="-447" font-family="Helvetica,sans-Serif" font-size="10.00">/Example/SMenu_Duck.hpp</text>
</a>
</g>
</g>
<!-- Node2 -->
<g id="node2" class="node">
<title>Node2</title>
<g id="a_node2"><a xlink:href="IGameState_8hpp.html" target="_top" xlink:title=" ">
<polygon fill="white" stroke="#666666" points="907,-404 820,-404 820,-385 907,-385 907,-404"/>
<text text-anchor="middle" x="863.5" y="-392" font-family="Helvetica,sans-Serif" font-size="10.00">IGameState.hpp</text>
</a>
</g>
</g>
<!-- Node1&#45;&gt;Node2 -->
<g id="edge1" class="edge">
<title>Node1&#45;&gt;Node2</title>
<path fill="none" stroke="#63b8ff" d="M616.85,-445.3C674.63,-433.63 755.32,-417.34 808.46,-406.61"/>
<polygon fill="#63b8ff" stroke="#63b8ff" points="809.1,-410.05 818.21,-404.64 807.71,-403.19 809.1,-410.05"/>
</g>
<!-- Node37 -->
<g id="node37" class="node">
<title>Node37</title>
<g id="a_node37"><a xlink:href="Bouton_8hpp.html" target="_top" xlink:title=" ">
<polygon fill="white" stroke="#666666" points="884,-184 761,-184 761,-165 884,-165 884,-184"/>
<text text-anchor="middle" x="822.5" y="-172" font-family="Helvetica,sans-Serif" font-size="10.00">Components/Bouton.hpp</text>
</a>
</g>
</g>
<!-- Node1&#45;&gt;Node37 -->
<g id="edge73" class="edge">
<title>Node1&#45;&gt;Node37</title>
<path fill="none" stroke="#63b8ff" d="M476.09,-450.12C373.89,-434.51 196.5,-398.98 196.5,-340.5 196.5,-340.5 196.5,-340.5 196.5,-283.5 196.5,-227.91 584.78,-192.89 749.75,-180.52"/>
<polygon fill="#63b8ff" stroke="#63b8ff" points="749.54,-184.05 759.25,-179.82 749.02,-177.07 749.54,-184.05"/>
</g>
<!-- Node3 -->
<g id="node3" class="node">
<title>Node3</title>
<g id="a_node3"><a xlink:href="EntitiesManager_8hpp.html" target="_top" xlink:title=" ">
<polygon fill="white" stroke="#666666" points="1177.5,-239 1037.5,-239 1037.5,-220 1177.5,-220 1177.5,-239"/>
<text text-anchor="middle" x="1107.5" y="-227" font-family="Helvetica,sans-Serif" font-size="10.00">Entities/EntitiesManager.hpp</text>
</a>
</g>
</g>
<!-- Node2&#45;&gt;Node3 -->
<g id="edge2" class="edge">
<title>Node2&#45;&gt;Node3</title>
<path fill="none" stroke="#63b8ff" d="M876.97,-384.5C916.88,-357.84 1034.85,-279.03 1084.77,-245.68"/>
<polygon fill="#63b8ff" stroke="#63b8ff" points="1086.45,-248.77 1092.82,-240.31 1082.56,-242.95 1086.45,-248.77"/>
</g>
<!-- Node27 -->
<g id="node27" class="node">
<title>Node27</title>
<g id="a_node27"><a xlink:href="Background_8hpp.html" target="_top" xlink:title=" ">
<polygon fill="white" stroke="#666666" points="1848.5,-74 1704.5,-74 1704.5,-55 1848.5,-55 1848.5,-74"/>
<text text-anchor="middle" x="1776.5" y="-62" font-family="Helvetica,sans-Serif" font-size="10.00">Components/Background.hpp</text>
</a>
</g>
</g>
<!-- Node2&#45;&gt;Node27 -->
<g id="edge66" class="edge">
<title>Node2&#45;&gt;Node27</title>
<path fill="none" stroke="#63b8ff" d="M907.23,-392.98C1089.14,-390.27 1776.5,-374.13 1776.5,-285.5 1776.5,-285.5 1776.5,-285.5 1776.5,-173.5 1776.5,-142.92 1776.5,-107.48 1776.5,-85.77"/>
<polygon fill="#63b8ff" stroke="#63b8ff" points="1780,-85.97 1776.5,-75.97 1773,-85.97 1780,-85.97"/>
</g>
<!-- Node33 -->
<g id="node33" class="node">
<title>Node33</title>
<g id="a_node33"><a xlink:href="String_8hpp.html" target="_top" xlink:title=" ">
<polygon fill="white" stroke="#666666" points="2326,-129 2243,-129 2243,-110 2326,-110 2326,-129"/>
<text text-anchor="middle" x="2284.5" y="-117" font-family="Helvetica,sans-Serif" font-size="10.00">Utils/String.hpp</text>
</a>
</g>
</g>
<!-- Node2&#45;&gt;Node33 -->
<g id="edge46" class="edge">
<title>Node2&#45;&gt;Node33</title>
<path fill="none" stroke="#63b8ff" d="M907.4,-392.5C1146.24,-386.8 2278.5,-356.02 2278.5,-285.5 2278.5,-285.5 2278.5,-285.5 2278.5,-228.5 2278.5,-197.88 2280.93,-162.44 2282.7,-140.75"/>
<polygon fill="#63b8ff" stroke="#63b8ff" points="2286.18,-141.22 2283.54,-130.96 2279.2,-140.63 2286.18,-141.22"/>
</g>
<!-- Node34 -->
<g id="node34" class="node">
<title>Node34</title>
<g id="a_node34"><a xlink:href="GameEngine_8hpp.html" target="_top" xlink:title=" ">
<polygon fill="white" stroke="#666666" points="797,-349 672,-349 672,-330 797,-330 797,-349"/>
<text text-anchor="middle" x="734.5" y="-337" font-family="Helvetica,sans-Serif" font-size="10.00">system/GameEngine.hpp</text>
</a>
</g>
</g>
<!-- Node2&#45;&gt;Node34 -->
<g id="edge50" class="edge">
<title>Node2&#45;&gt;Node34</title>
<path fill="none" stroke="#63b8ff" d="M841.62,-384.51C821.01,-376.04 789.91,-363.27 766.52,-353.66"/>
<polygon fill="#63b8ff" stroke="#63b8ff" points="768.04,-350.5 757.46,-349.93 765.38,-356.97 768.04,-350.5"/>
</g>
<!-- Node42 -->
<g id="node42" class="node">
<title>Node42</title>
<g id="a_node42"><a xlink:href="Centipede_8hpp.html" target="_top" xlink:title=" ">
<polygon fill="white" stroke="#666666" points="2238.5,-184 2102.5,-184 2102.5,-165 2238.5,-165 2238.5,-184"/>
<text text-anchor="middle" x="2170.5" y="-172" font-family="Helvetica,sans-Serif" font-size="10.00">Components/Centipede.hpp</text>
</a>
</g>
</g>
<!-- Node2&#45;&gt;Node42 -->
<g id="edge67" class="edge">
<title>Node2&#45;&gt;Node42</title>
<path fill="none" stroke="#63b8ff" d="M907.43,-393.59C1067.61,-393.57 1619.83,-390.43 1790.5,-349 1933.48,-314.29 2088.49,-225.63 2146.67,-190.33"/>
<polygon fill="#63b8ff" stroke="#63b8ff" points="2148.39,-193.38 2155.09,-185.18 2144.73,-187.41 2148.39,-193.38"/>
</g>
<!-- Node4 -->
<g id="node4" class="node">
<title>Node4</title>
<g id="a_node4"><a xlink:href="Engine_8hpp.html" target="_top" xlink:title=" ">
<polygon fill="white" stroke="#666666" points="1159.5,-129 1055.5,-129 1055.5,-110 1159.5,-110 1159.5,-129"/>
<text text-anchor="middle" x="1107.5" y="-117" font-family="Helvetica,sans-Serif" font-size="10.00">../Engine/Engine.hpp</text>
</a>
</g>
</g>
<!-- Node3&#45;&gt;Node4 -->
<g id="edge3" class="edge">
<title>Node3&#45;&gt;Node4</title>
<path fill="none" stroke="#63b8ff" d="M1103.59,-219.66C1100.39,-202.5 1099.89,-164.26 1102.11,-140.6"/>
<polygon fill="#63b8ff" stroke="#63b8ff" points="1105.54,-141.33 1103.37,-130.96 1098.6,-140.42 1105.54,-141.33"/>
</g>
<!-- Node25 -->
<g id="node25" class="node">
<title>Node25</title>
<g id="a_node25"><a xlink:href="IComponents_8hpp.html" target="_top" xlink:title=" ">
<polygon fill="white" stroke="#666666" points="1796.5,-19 1704.5,-19 1704.5,0 1796.5,0 1796.5,-19"/>
<text text-anchor="middle" x="1750.5" y="-7" font-family="Helvetica,sans-Serif" font-size="10.00">IComponents.hpp</text>
</a>
</g>
</g>
<!-- Node3&#45;&gt;Node25 -->
<g id="edge33" class="edge">
<title>Node3&#45;&gt;Node25</title>
<path fill="none" stroke="#63b8ff" d="M1177.78,-224.94C1347.48,-214.72 1771.94,-178.98 1857.5,-74 1877.16,-49.87 1840.79,-32.79 1805.24,-22.46"/>
<polygon fill="#63b8ff" stroke="#63b8ff" points="1806.32,-19.13 1795.75,-19.87 1804.48,-25.88 1806.32,-19.13"/>
</g>
<!-- Node28 -->
<g id="node28" class="node">
<title>Node28</title>
<g id="a_node28"><a xlink:href="SparseArray_8hpp.html" target="_top" xlink:title=" ">
<polygon fill="white" stroke="#666666" points="2020,-184 1909,-184 1909,-165 2020,-165 2020,-184"/>
<text text-anchor="middle" x="1964.5" y="-172" font-family="Helvetica,sans-Serif" font-size="10.00">Utils/SparseArray.hpp</text>
</a>
</g>
</g>
<!-- Node3&#45;&gt;Node28 -->
<g id="edge34" class="edge">
<title>Node3&#45;&gt;Node28</title>
<path fill="none" stroke="#63b8ff" d="M1178,-224.14C1340.2,-214.11 1738.11,-189.5 1897.19,-179.66"/>
<polygon fill="#63b8ff" stroke="#63b8ff" points="1897.4,-183.16 1907.16,-179.05 1896.96,-176.17 1897.4,-183.16"/>
</g>
<!-- Node4&#45;&gt;Node3 -->
<g id="edge25" class="edge">
<title>Node4&#45;&gt;Node3</title>
<path fill="none" stroke="#63b8ff" d="M1111.43,-129.46C1114.62,-146.73 1115.1,-184.98 1112.88,-208.57"/>
<polygon fill="#63b8ff" stroke="#63b8ff" points="1109.45,-207.79 1111.61,-218.16 1116.39,-208.71 1109.45,-207.79"/>
</g>
<!-- Node5 -->
<g id="node5" class="node">
<title>Node5</title>
<g id="a_node5"><a xlink:title=" ">
<polygon fill="#e0e0e0" stroke="#999999" points="1440,-74 1351,-74 1351,-55 1440,-55 1440,-74"/>
<text text-anchor="middle" x="1395.5" y="-62" font-family="Helvetica,sans-Serif" font-size="10.00">SFML/Audio.hpp</text>
</a>
</g>
</g>
<!-- Node4&#45;&gt;Node5 -->
<g id="edge4" class="edge">
<title>Node4&#45;&gt;Node5</title>
<path fill="none" stroke="#63b8ff" d="M1156.36,-109.51C1207.04,-100.18 1286.19,-85.62 1339.4,-75.82"/>
<polygon fill="#63b8ff" stroke="#63b8ff" points="1339.99,-79.28 1349.19,-74.02 1338.72,-72.39 1339.99,-79.28"/>
</g>
<!-- Node6 -->
<g id="node6" class="node">
<title>Node6</title>
<g id="a_node6"><a xlink:title=" ">
<polygon fill="#e0e0e0" stroke="#999999" points="979.5,-74 875.5,-74 875.5,-55 979.5,-55 979.5,-74"/>
<text text-anchor="middle" x="927.5" y="-62" font-family="Helvetica,sans-Serif" font-size="10.00">SFML/Graphics.hpp</text>
</a>
</g>
</g>
<!-- Node4&#45;&gt;Node6 -->
<g id="edge5" class="edge">
<title>Node4&#45;&gt;Node6</title>
<path fill="none" stroke="#63b8ff" d="M1076.97,-109.51C1047.14,-100.73 1001.54,-87.3 968.55,-77.59"/>
<polygon fill="#63b8ff" stroke="#63b8ff" points="969.92,-74.34 959.34,-74.87 967.94,-81.06 969.92,-74.34"/>
</g>
<!-- Node7 -->
<g id="node7" class="node">
<title>Node7</title>
<g id="a_node7"><a xlink:title=" ">
<polygon fill="#e0e0e0" stroke="#999999" points="1099,-74 998,-74 998,-55 1099,-55 1099,-74"/>
<text text-anchor="middle" x="1048.5" y="-62" font-family="Helvetica,sans-Serif" font-size="10.00">SFML/Network.hpp</text>
</a>
</g>
</g>
<!-- Node4&#45;&gt;Node7 -->
<g id="edge6" class="edge">
<title>Node4&#45;&gt;Node7</title>
<path fill="none" stroke="#63b8ff" d="M1097.49,-109.51C1089.13,-102 1077,-91.1 1066.9,-82.03"/>
<polygon fill="#63b8ff" stroke="#63b8ff" points="1069.26,-79.45 1059.49,-75.37 1064.59,-84.66 1069.26,-79.45"/>
</g>
<!-- Node8 -->
<g id="node8" class="node">
<title>Node8</title>
<g id="a_node8"><a xlink:title=" ">
<polygon fill="#e0e0e0" stroke="#999999" points="1216,-74 1117,-74 1117,-55 1216,-55 1216,-74"/>
<text text-anchor="middle" x="1166.5" y="-62" font-family="Helvetica,sans-Serif" font-size="10.00">SFML/Window.hpp</text>
</a>
</g>
</g>
<!-- Node4&#45;&gt;Node8 -->
<g id="edge7" class="edge">
<title>Node4&#45;&gt;Node8</title>
<path fill="none" stroke="#63b8ff" d="M1117.51,-109.51C1125.87,-102 1138,-91.1 1148.1,-82.03"/>
<polygon fill="#63b8ff" stroke="#63b8ff" points="1150.41,-84.66 1155.51,-75.37 1145.74,-79.45 1150.41,-84.66"/>
</g>
<!-- Node9 -->
<g id="node9" class="node">
<title>Node9</title>
<g id="a_node9"><a xlink:title=" ">
<polygon fill="#e0e0e0" stroke="#999999" points="1332.5,-74 1234.5,-74 1234.5,-55 1332.5,-55 1332.5,-74"/>
<text text-anchor="middle" x="1283.5" y="-62" font-family="Helvetica,sans-Serif" font-size="10.00">SFML/System.hpp</text>
</a>
</g>
</g>
<!-- Node4&#45;&gt;Node9 -->
<g id="edge8" class="edge">
<title>Node4&#45;&gt;Node9</title>
<path fill="none" stroke="#63b8ff" d="M1137.36,-109.51C1166.39,-100.76 1210.72,-87.42 1242.94,-77.71"/>
<polygon fill="#63b8ff" stroke="#63b8ff" points="1243.78,-81.12 1252.34,-74.88 1241.76,-74.41 1243.78,-81.12"/>
</g>
<!-- Node10 -->
<g id="node10" class="node">
<title>Node10</title>
<g id="a_node10"><a xlink:title=" ">
<polygon fill="#e0e0e0" stroke="#999999" points="2014.5,-74 1960.5,-74 1960.5,-55 2014.5,-55 2014.5,-74"/>
<text text-anchor="middle" x="1987.5" y="-62" font-family="Helvetica,sans-Serif" font-size="10.00">iostream</text>
</a>
</g>
</g>
<!-- Node4&#45;&gt;Node10 -->
<g id="edge9" class="edge">
<title>Node4&#45;&gt;Node10</title>
<path fill="none" stroke="#63b8ff" d="M1159.68,-118.99C1290.91,-119.52 1645.31,-116.67 1948.85,-74.11"/>
<polygon fill="#63b8ff" stroke="#63b8ff" points="1949.17,-77.59 1958.58,-72.72 1948.19,-70.66 1949.17,-77.59"/>
</g>
<!-- Node11 -->
<g id="node11" class="node">
<title>Node11</title>
<g id="a_node11"><a xlink:title=" ">
<polygon fill="#e0e0e0" stroke="#999999" points="1508.5,-74 1458.5,-74 1458.5,-55 1508.5,-55 1508.5,-74"/>
<text text-anchor="middle" x="1483.5" y="-62" font-family="Helvetica,sans-Serif" font-size="10.00">fstream</text>
</a>
</g>
</g>
<!-- Node4&#45;&gt;Node11 -->
<g id="edge10" class="edge">
<title>Node4&#45;&gt;Node11</title>
<path fill="none" stroke="#63b8ff" d="M1159.77,-113.46C1224.7,-106.81 1339.04,-93.8 1447.21,-74.02"/>
<polygon fill="#63b8ff" stroke="#63b8ff" points="1447.65,-77.5 1456.85,-72.23 1446.38,-70.61 1447.65,-77.5"/>
</g>
<!-- Node12 -->
<g id="node12" class="node">
<title>Node12</title>
<g id="a_node12"><a xlink:title=" ">
<polygon fill="#e0e0e0" stroke="#999999" points="369.5,-74 321.5,-74 321.5,-55 369.5,-55 369.5,-74"/>
<text text-anchor="middle" x="345.5" y="-62" font-family="Helvetica,sans-Serif" font-size="10.00">string.h</text>
</a>
</g>
</g>
<!-- Node4&#45;&gt;Node12 -->
<g id="edge11" class="edge">
<title>Node4&#45;&gt;Node12</title>
<path fill="none" stroke="#63b8ff" d="M1055.01,-116.6C914.19,-111.3 529.29,-95.44 381,-74.02"/>
<polygon fill="#63b8ff" stroke="#63b8ff" points="381.81,-70.61 371.4,-72.57 380.76,-77.53 381.81,-70.61"/>
</g>
<!-- Node13 -->
<g id="node13" class="node">
<title>Node13</title>
<g id="a_node13"><a xlink:title=" ">
<polygon fill="#e0e0e0" stroke="#999999" points="437.5,-74 387.5,-74 387.5,-55 437.5,-55 437.5,-74"/>
<text text-anchor="middle" x="412.5" y="-62" font-family="Helvetica,sans-Serif" font-size="10.00">unistd.h</text>
</a>
</g>
</g>
<!-- Node4&#45;&gt;Node13 -->
<g id="edge12" class="edge">
<title>Node4&#45;&gt;Node13</title>
<path fill="none" stroke="#63b8ff" d="M1055.1,-116.18C924.05,-110.18 583.55,-93.4 448.89,-74.02"/>
<polygon fill="#63b8ff" stroke="#63b8ff" points="449.56,-70.58 439.15,-72.54 448.51,-77.5 449.56,-70.58"/>
</g>
<!-- Node14 -->
<g id="node14" class="node">
<title>Node14</title>
<g id="a_node14"><a xlink:title=" ">
<polygon fill="#e0e0e0" stroke="#999999" points="521,-74 456,-74 456,-55 521,-55 521,-74"/>
<text text-anchor="middle" x="488.5" y="-62" font-family="Helvetica,sans-Serif" font-size="10.00">sys/types.h</text>
</a>
</g>
</g>
<!-- Node4&#45;&gt;Node14 -->
<g id="edge13" class="edge">
<title>Node4&#45;&gt;Node14</title>
<path fill="none" stroke="#63b8ff" d="M1055.16,-116.62C955.46,-112.56 731.33,-101.2 532.69,-74.12"/>
<polygon fill="#63b8ff" stroke="#63b8ff" points="533.33,-70.68 522.95,-72.77 532.38,-77.61 533.33,-70.68"/>
</g>
<!-- Node15 -->
<g id="node15" class="node">
<title>Node15</title>
<g id="a_node15"><a xlink:title=" ">
<polygon fill="#e0e0e0" stroke="#999999" points="2208.5,-74 2164.5,-74 2164.5,-55 2208.5,-55 2208.5,-74"/>
<text text-anchor="middle" x="2186.5" y="-62" font-family="Helvetica,sans-Serif" font-size="10.00">vector</text>
</a>
</g>
</g>
<!-- Node4&#45;&gt;Node15 -->
<g id="edge14" class="edge">
<title>Node4&#45;&gt;Node15</title>
<path fill="none" stroke="#63b8ff" d="M1159.78,-117.84C1340.49,-115.3 1938.85,-104.87 2153.15,-73.92"/>
<polygon fill="#63b8ff" stroke="#63b8ff" points="2153.42,-77.42 2162.78,-72.46 2152.37,-70.5 2153.42,-77.42"/>
</g>
<!-- Node16 -->
<g id="node16" class="node">
<title>Node16</title>
<g id="a_node16"><a xlink:title=" ">
<polygon fill="#e0e0e0" stroke="#999999" points="595.5,-74 539.5,-74 539.5,-55 595.5,-55 595.5,-74"/>
<text text-anchor="middle" x="567.5" y="-62" font-family="Helvetica,sans-Serif" font-size="10.00">stdbool.h</text>
</a>
</g>
</g>
<!-- Node4&#45;&gt;Node16 -->
<g id="edge15" class="edge">
<title>Node4&#45;&gt;Node16</title>
<path fill="none" stroke="#63b8ff" d="M1055.07,-116.24C965.31,-111.85 776.26,-100.36 607.08,-74.19"/>
<polygon fill="#63b8ff" stroke="#63b8ff" points="607.62,-70.73 597.2,-72.63 606.53,-77.64 607.62,-70.73"/>
</g>
<!-- Node17 -->
<g id="node17" class="node">
<title>Node17</title>
<g id="a_node17"><a xlink:title=" ">
<polygon fill="#e0e0e0" stroke="#999999" points="661,-74 614,-74 614,-55 661,-55 661,-74"/>
<text text-anchor="middle" x="637.5" y="-62" font-family="Helvetica,sans-Serif" font-size="10.00">stdlib.h</text>
</a>
</g>
</g>
<!-- Node4&#45;&gt;Node17 -->
<g id="edge16" class="edge">
<title>Node4&#45;&gt;Node17</title>
<path fill="none" stroke="#63b8ff" d="M1055.01,-115.72C974.7,-110.9 816.37,-99.19 672.42,-74.05"/>
<polygon fill="#63b8ff" stroke="#63b8ff" points="673.15,-70.63 662.69,-72.32 671.92,-77.52 673.15,-70.63"/>
</g>
<!-- Node18 -->
<g id="node18" class="node">
<title>Node18</title>
<g id="a_node18"><a xlink:title=" ">
<polygon fill="#e0e0e0" stroke="#999999" points="737.5,-74 679.5,-74 679.5,-55 737.5,-55 737.5,-74"/>
<text text-anchor="middle" x="708.5" y="-62" font-family="Helvetica,sans-Serif" font-size="10.00">exception</text>
</a>
</g>
</g>
<!-- Node4&#45;&gt;Node18 -->
<g id="edge17" class="edge">
<title>Node4&#45;&gt;Node18</title>
<path fill="none" stroke="#63b8ff" d="M1055.26,-113.67C987.04,-107.01 863.72,-93.76 748.98,-74.28"/>
<polygon fill="#63b8ff" stroke="#63b8ff" points="749.84,-70.88 739.39,-72.63 748.66,-77.77 749.84,-70.88"/>
</g>
<!-- Node19 -->
<g id="node19" class="node">
<title>Node19</title>
<g id="a_node19"><a xlink:href="Window_8hpp.html" target="_top" xlink:title=" ">
<polygon fill="white" stroke="#666666" points="857,-74 756,-74 756,-55 857,-55 857,-74"/>
<text text-anchor="middle" x="806.5" y="-62" font-family="Helvetica,sans-Serif" font-size="10.00">Engine/Window.hpp</text>
</a>
</g>
</g>
<!-- Node4&#45;&gt;Node19 -->
<g id="edge18" class="edge">
<title>Node4&#45;&gt;Node19</title>
<path fill="none" stroke="#63b8ff" d="M1055.06,-110.16C1001.44,-101.08 918.55,-86.51 863.38,-76.5"/>
<polygon fill="#63b8ff" stroke="#63b8ff" points="864.35,-73.12 853.88,-74.77 863.09,-80.01 864.35,-73.12"/>
</g>
<!-- Node20 -->
<g id="node20" class="node">
<title>Node20</title>
<g id="a_node20"><a xlink:href="Event_8hpp.html" target="_top" xlink:title=" ">
<polygon fill="white" stroke="#666666" points="303.5,-74 211.5,-74 211.5,-55 303.5,-55 303.5,-74"/>
<text text-anchor="middle" x="257.5" y="-62" font-family="Helvetica,sans-Serif" font-size="10.00">Engine/Event.hpp</text>
</a>
</g>
</g>
<!-- Node4&#45;&gt;Node20 -->
<g id="edge20" class="edge">
<title>Node4&#45;&gt;Node20</title>
<path fill="none" stroke="#63b8ff" d="M1055.24,-116.41C904.84,-110.04 472.28,-90.37 315.2,-75.18"/>
<polygon fill="#63b8ff" stroke="#63b8ff" points="315.73,-71.71 305.43,-74.2 315.03,-78.68 315.73,-71.71"/>
</g>
<!-- Node24 -->
<g id="node24" class="node">
<title>Node24</title>
<g id="a_node24"><a xlink:href="Bullets_8hpp.html" target="_top" xlink:title=" ">
<polygon fill="white" stroke="#666666" points="1686.5,-74 1564.5,-74 1564.5,-55 1686.5,-55 1686.5,-74"/>
<text text-anchor="middle" x="1625.5" y="-62" font-family="Helvetica,sans-Serif" font-size="10.00">Components/Bullets.hpp</text>
</a>
</g>
</g>
<!-- Node4&#45;&gt;Node24 -->
<g id="edge26" class="edge">
<title>Node4&#45;&gt;Node24</title>
<path fill="none" stroke="#63b8ff" d="M1159.68,-112.9C1241.25,-104.69 1403.54,-88.75 1541.5,-74 1545.26,-73.6 1549.13,-73.18 1553.04,-72.75"/>
<polygon fill="#63b8ff" stroke="#63b8ff" points="1553.09,-76.27 1562.65,-71.69 1552.32,-69.31 1553.09,-76.27"/>
</g>
<!-- Node4&#45;&gt;Node27 -->
<g id="edge31" class="edge">
<title>Node4&#45;&gt;Node27</title>
<path fill="none" stroke="#63b8ff" d="M1159.84,-114.7C1261.5,-107.62 1492.27,-91.54 1686.5,-74 1688.67,-73.8 1690.86,-73.6 1693.08,-73.39"/>
<polygon fill="#63b8ff" stroke="#63b8ff" points="1693.2,-76.9 1702.82,-72.46 1692.53,-69.93 1693.2,-76.9"/>
</g>
<!-- Node19&#45;&gt;Node4 -->
<g id="edge19" class="edge">
<title>Node19&#45;&gt;Node4</title>
<path fill="none" stroke="#63b8ff" d="M857.39,-73.58C910.94,-82.64 994.86,-97.38 1050.56,-107.49"/>
<polygon fill="#63b8ff" stroke="#63b8ff" points="1049.7,-110.89 1060.17,-109.24 1050.96,-104 1049.7,-110.89"/>
</g>
<!-- Node20&#45;&gt;Node4 -->
<g id="edge21" class="edge">
<title>Node20&#45;&gt;Node4</title>
<path fill="none" stroke="#63b8ff" d="M303.9,-71.8C309.85,-72.63 315.83,-73.4 321.5,-74 461.63,-88.72 882.71,-108.21 1043.89,-115.55"/>
<polygon fill="#63b8ff" stroke="#63b8ff" points="1043.37,-119.03 1053.52,-115.98 1043.69,-112.03 1043.37,-119.03"/>
</g>
<!-- Node21 -->
<g id="node21" class="node">
<title>Node21</title>
<g id="a_node21"><a xlink:title=" ">
<polygon fill="#e0e0e0" stroke="#999999" points="1074,-19 1045,-19 1045,0 1074,0 1074,-19"/>
<text text-anchor="middle" x="1059.5" y="-7" font-family="Helvetica,sans-Serif" font-size="10.00">list</text>
</a>
</g>
</g>
<!-- Node20&#45;&gt;Node21 -->
<g id="edge22" class="edge">
<title>Node20&#45;&gt;Node21</title>
<path fill="none" stroke="#63b8ff" d="M303.97,-56C306.85,-55.64 309.71,-55.3 312.5,-55 593.76,-24.96 936.93,-13.83 1033.26,-11.17"/>
<polygon fill="#63b8ff" stroke="#63b8ff" points="1033.3,-14.67 1043.2,-10.91 1033.11,-7.67 1033.3,-14.67"/>
</g>
<!-- Node22 -->
<g id="node22" class="node">
<title>Node22</title>
<g id="a_node22"><a xlink:title=" ">
<polygon fill="#e0e0e0" stroke="#999999" points="43,-19 0,-19 0,0 43,0 43,-19"/>
<text text-anchor="middle" x="21.5" y="-7" font-family="Helvetica,sans-Serif" font-size="10.00">queue</text>
</a>
</g>
</g>
<!-- Node20&#45;&gt;Node22 -->
<g id="edge23" class="edge">
<title>Node20&#45;&gt;Node22</title>
<path fill="none" stroke="#63b8ff" d="M217.47,-54.51C171.55,-44.2 97.12,-27.48 54.42,-17.89"/>
<polygon fill="#63b8ff" stroke="#63b8ff" points="55.27,-14.5 44.75,-15.72 53.74,-21.33 55.27,-14.5"/>
</g>
<!-- Node23 -->
<g id="node23" class="node">
<title>Node23</title>
<g id="a_node23"><a xlink:title=" ">
<polygon fill="#e0e0e0" stroke="#999999" points="251.5,-19 189.5,-19 189.5,0 251.5,0 251.5,-19"/>
<text text-anchor="middle" x="220.5" y="-7" font-family="Helvetica,sans-Serif" font-size="10.00">Skaldi.hpp</text>
</a>
</g>
</g>
<!-- Node20&#45;&gt;Node23 -->
<g id="edge24" class="edge">
<title>Node20&#45;&gt;Node23</title>
<path fill="none" stroke="#63b8ff" d="M251.39,-54.75C246.49,-47.73 239.45,-37.64 233.33,-28.87"/>
<polygon fill="#63b8ff" stroke="#63b8ff" points="236.2,-26.88 227.61,-20.68 230.46,-30.89 236.2,-26.88"/>
</g>
<!-- Node24&#45;&gt;Node4 -->
<g id="edge27" class="edge">
<title>Node24&#45;&gt;Node4</title>
<path fill="none" stroke="#63b8ff" d="M1564.24,-73.49C1562.65,-73.66 1561.06,-73.83 1559.5,-74 1421.4,-88.76 1258.92,-104.72 1171.21,-112.93"/>
<polygon fill="#63b8ff" stroke="#63b8ff" points="1170.99,-109.43 1161.36,-113.85 1171.64,-116.4 1170.99,-109.43"/>
</g>
<!-- Node24&#45;&gt;Node25 -->
<g id="edge28" class="edge">
<title>Node24&#45;&gt;Node25</title>
<path fill="none" stroke="#63b8ff" d="M1646.7,-54.51C1666.58,-46.08 1696.53,-33.38 1719.16,-23.79"/>
<polygon fill="#63b8ff" stroke="#63b8ff" points="1720.37,-27.07 1728.22,-19.95 1717.64,-20.63 1720.37,-27.07"/>
</g>
<!-- Node26 -->
<g id="node26" class="node">
<title>Node26</title>
<g id="a_node26"><a xlink:title=" ">
<polygon fill="#e0e0e0" stroke="#999999" points="2200.5,-19 2154.5,-19 2154.5,0 2200.5,0 2200.5,-19"/>
<text text-anchor="middle" x="2177.5" y="-7" font-family="Helvetica,sans-Serif" font-size="10.00">math.h</text>
</a>
</g>
</g>
<!-- Node24&#45;&gt;Node26 -->
<g id="edge30" class="edge">
<title>Node24&#45;&gt;Node26</title>
<path fill="none" stroke="#63b8ff" d="M1686.95,-55.94C1689.84,-55.61 1692.7,-55.3 1695.5,-55 1863.2,-37.08 2064.2,-19.91 2143.22,-13.32"/>
<polygon fill="#63b8ff" stroke="#63b8ff" points="2143.22,-16.84 2152.89,-12.52 2142.64,-9.86 2143.22,-16.84"/>
</g>
<!-- Node25&#45;&gt;Node4 -->
<g id="edge29" class="edge">
<title>Node25&#45;&gt;Node4</title>
<path fill="none" stroke="#63b8ff" d="M1704.31,-17.82C1664.23,-24.93 1605.03,-37.26 1555.5,-55 1537.72,-61.37 1535.62,-68.68 1517.5,-74 1398.55,-108.96 1252.92,-116.99 1171.13,-118.52"/>
<polygon fill="#63b8ff" stroke="#63b8ff" points="1171.24,-115.02 1161.3,-118.67 1171.35,-122.02 1171.24,-115.02"/>
</g>
<!-- Node27&#45;&gt;Node4 -->
<g id="edge32" class="edge">
<title>Node27&#45;&gt;Node4</title>
<path fill="none" stroke="#63b8ff" d="M1704.21,-74.03C1510.46,-91.51 1280.47,-107.55 1171.15,-114.65"/>
<polygon fill="#63b8ff" stroke="#63b8ff" points="1170.96,-111.15 1161.2,-115.29 1171.41,-118.14 1170.96,-111.15"/>
</g>
<!-- Node28&#45;&gt;Node10 -->
<g id="edge35" class="edge">
<title>Node28&#45;&gt;Node10</title>
<path fill="none" stroke="#63b8ff" d="M1946.91,-164.68C1926.4,-153.15 1896.83,-131.82 1909.5,-110 1918.34,-94.77 1934.56,-84.32 1949.93,-77.39"/>
<polygon fill="#63b8ff" stroke="#63b8ff" points="1951,-80.74 1958.93,-73.72 1948.35,-74.26 1951,-80.74"/>
</g>
<!-- Node28&#45;&gt;Node15 -->
<g id="edge38" class="edge">
<title>Node28&#45;&gt;Node15</title>
<path fill="none" stroke="#63b8ff" d="M1985.97,-164.54C2006.55,-155.84 2038.4,-142.06 2065.5,-129 2098.64,-113.03 2136.02,-93.11 2160.35,-79.88"/>
<polygon fill="#63b8ff" stroke="#63b8ff" points="2161.81,-83.07 2168.91,-75.21 2158.46,-76.93 2161.81,-83.07"/>
</g>
<!-- Node29 -->
<g id="node29" class="node">
<title>Node29</title>
<g id="a_node29"><a xlink:title=" ">
<polygon fill="#e0e0e0" stroke="#999999" points="2146.5,-74 2090.5,-74 2090.5,-55 2146.5,-55 2146.5,-74"/>
<text text-anchor="middle" x="2118.5" y="-62" font-family="Helvetica,sans-Serif" font-size="10.00">algorithm</text>
</a>
</g>
</g>
<!-- Node28&#45;&gt;Node29 -->
<g id="edge36" class="edge">
<title>Node28&#45;&gt;Node29</title>
<path fill="none" stroke="#63b8ff" d="M1981.01,-164.6C1996.49,-156.04 2020.09,-142.46 2039.5,-129 2061.06,-114.05 2084.29,-94.98 2099.95,-81.66"/>
<polygon fill="#63b8ff" stroke="#63b8ff" points="2102.18,-84.35 2107.48,-75.18 2097.62,-79.05 2102.18,-84.35"/>
</g>
<!-- Node30 -->
<g id="node30" class="node">
<title>Node30</title>
<g id="a_node30"><a xlink:title=" ">
<polygon fill="#e0e0e0" stroke="#999999" points="1942.5,-74 1904.5,-74 1904.5,-55 1942.5,-55 1942.5,-74"/>
<text text-anchor="middle" x="1923.5" y="-62" font-family="Helvetica,sans-Serif" font-size="10.00">array</text>
</a>
</g>
</g>
<!-- Node28&#45;&gt;Node30 -->
<g id="edge37" class="edge">
<title>Node28&#45;&gt;Node30</title>
<path fill="none" stroke="#63b8ff" d="M1942.73,-164.62C1928.16,-157.39 1910.12,-145.65 1901.5,-129 1893.96,-114.45 1901.32,-96.75 1909.49,-83.74"/>
<polygon fill="#63b8ff" stroke="#63b8ff" points="1912.25,-85.91 1915.09,-75.7 1906.51,-81.91 1912.25,-85.91"/>
</g>
<!-- Node31 -->
<g id="node31" class="node">
<title>Node31</title>
<g id="a_node31"><a xlink:title=" ">
<polygon fill="#e0e0e0" stroke="#999999" points="2072,-74 2033,-74 2033,-55 2072,-55 2072,-74"/>
<text text-anchor="middle" x="2052.5" y="-62" font-family="Helvetica,sans-Serif" font-size="10.00">utility</text>
</a>
</g>
</g>
<!-- Node28&#45;&gt;Node31 -->
<g id="edge39" class="edge">
<title>Node28&#45;&gt;Node31</title>
<path fill="none" stroke="#63b8ff" d="M1978.51,-164.59C1990.51,-156.44 2007.69,-143.46 2019.5,-129 2030.44,-115.6 2039.24,-98 2044.99,-84.72"/>
<polygon fill="#63b8ff" stroke="#63b8ff" points="2048.1,-86.37 2048.67,-75.79 2041.63,-83.71 2048.1,-86.37"/>
</g>
<!-- Node32 -->
<g id="node32" class="node">
<title>Node32</title>
<g id="a_node32"><a xlink:href="Vectors_8hpp.html" target="_top" xlink:title=" ">
<polygon fill="white" stroke="#666666" points="2010.5,-129 1918.5,-129 1918.5,-110 2010.5,-110 2010.5,-129"/>
<text text-anchor="middle" x="1964.5" y="-117" font-family="Helvetica,sans-Serif" font-size="10.00">Utils/Vectors.hpp</text>
</a>
</g>
</g>
<!-- Node28&#45;&gt;Node32 -->
<g id="edge40" class="edge">
<title>Node28&#45;&gt;Node32</title>
<path fill="none" stroke="#63b8ff" d="M1964.5,-164.75C1964.5,-158.27 1964.5,-149.16 1964.5,-140.9"/>
<polygon fill="#63b8ff" stroke="#63b8ff" points="1968,-140.96 1964.5,-130.96 1961,-140.96 1968,-140.96"/>
</g>
<!-- Node32&#45;&gt;Node10 -->
<g id="edge41" class="edge">
<title>Node32&#45;&gt;Node10</title>
<path fill="none" stroke="#63b8ff" d="M1968.3,-109.75C1971.24,-102.96 1975.44,-93.3 1979.15,-84.73"/>
<polygon fill="#63b8ff" stroke="#63b8ff" points="1982.25,-86.4 1983.02,-75.83 1975.83,-83.61 1982.25,-86.4"/>
</g>
<!-- Node32&#45;&gt;Node15 -->
<g id="edge44" class="edge">
<title>Node32&#45;&gt;Node15</title>
<path fill="none" stroke="#63b8ff" d="M2004.85,-109.58C2041.24,-101.42 2096.48,-88.78 2153.2,-74.51"/>
<polygon fill="#63b8ff" stroke="#63b8ff" points="2153.87,-77.95 2162.71,-72.1 2152.16,-71.16 2153.87,-77.95"/>
</g>
<!-- Node32&#45;&gt;Node29 -->
<g id="edge42" class="edge">
<title>Node32&#45;&gt;Node29</title>
<path fill="none" stroke="#63b8ff" d="M1990.62,-109.51C2015.7,-100.88 2053.81,-87.76 2081.9,-78.1"/>
<polygon fill="#63b8ff" stroke="#63b8ff" points="2082.76,-81.5 2091.07,-74.94 2080.48,-74.88 2082.76,-81.5"/>
</g>
<!-- Node32&#45;&gt;Node30 -->
<g id="edge43" class="edge">
<title>Node32&#45;&gt;Node30</title>
<path fill="none" stroke="#63b8ff" d="M1957.73,-109.75C1952.18,-102.58 1944.16,-92.2 1937.27,-83.3"/>
<polygon fill="#63b8ff" stroke="#63b8ff" points="1940.23,-81.41 1931.34,-75.64 1934.69,-85.69 1940.23,-81.41"/>
</g>
<!-- Node32&#45;&gt;Node31 -->
<g id="edge45" class="edge">
<title>Node32&#45;&gt;Node31</title>
<path fill="none" stroke="#63b8ff" d="M1979.43,-109.51C1992.78,-101.47 2012.61,-89.53 2028.24,-80.11"/>
<polygon fill="#63b8ff" stroke="#63b8ff" points="2029.74,-83.3 2036.5,-75.14 2026.12,-77.3 2029.74,-83.3"/>
</g>
<!-- Node33&#45;&gt;Node10 -->
<g id="edge47" class="edge">
<title>Node33&#45;&gt;Node10</title>
<path fill="none" stroke="#63b8ff" d="M2242.94,-112.13C2193.71,-104.41 2108.97,-90.63 2026.09,-74.21"/>
<polygon fill="#63b8ff" stroke="#63b8ff" points="2026.92,-70.81 2016.43,-72.28 2025.55,-77.67 2026.92,-70.81"/>
</g>
<!-- Node33&#45;&gt;Node15 -->
<g id="edge49" class="edge">
<title>Node33&#45;&gt;Node15</title>
<path fill="none" stroke="#63b8ff" d="M2267.88,-109.51C2252.72,-101.31 2230.08,-89.07 2212.53,-79.58"/>
<polygon fill="#63b8ff" stroke="#63b8ff" points="2214.67,-76.76 2204.21,-75.08 2211.34,-82.91 2214.67,-76.76"/>
</g>
<!-- Node33&#45;&gt;Node21 -->
<g id="edge48" class="edge">
<title>Node33&#45;&gt;Node21</title>
<path fill="none" stroke="#63b8ff" d="M2278.71,-109.91C2268.39,-95.46 2245.27,-66.69 2217.5,-55 2163.6,-32.31 1251.97,-14.12 1085.49,-10.98"/>
<polygon fill="#63b8ff" stroke="#63b8ff" points="1085.8,-7.49 1075.73,-10.8 1085.67,-14.48 1085.8,-7.49"/>
</g>
<!-- Node34&#45;&gt;Node22 -->
<g id="edge65" class="edge">
<title>Node34&#45;&gt;Node22</title>
<path fill="none" stroke="#63b8ff" d="M695.91,-329.57C595.37,-305.48 318.48,-233.82 106.5,-129 67.49,-109.71 47.07,-111.79 25.5,-74 18.03,-60.91 17.39,-43.74 18.41,-30.56"/>
<polygon fill="#63b8ff" stroke="#63b8ff" points="21.86,-31.25 19.56,-20.9 14.91,-30.42 21.86,-31.25"/>
</g>
<!-- Node35 -->
<g id="node35" class="node">
<title>Node35</title>
<g id="a_node35"><a xlink:href="States_8hpp.html" target="_top" xlink:title=" ">
<polygon fill="white" stroke="#666666" points="815,-294 696,-294 696,-275 815,-275 815,-294"/>
<text text-anchor="middle" x="755.5" y="-282" font-family="Helvetica,sans-Serif" font-size="10.00">gameStates/States.hpp</text>
</a>
</g>
</g>
<!-- Node34&#45;&gt;Node35 -->
<g id="edge51" class="edge">
<title>Node34&#45;&gt;Node35</title>
<path fill="none" stroke="#63b8ff" d="M737.97,-329.75C740.63,-323.04 744.4,-313.52 747.76,-305.02"/>
<polygon fill="#63b8ff" stroke="#63b8ff" points="750.97,-306.44 751.4,-295.85 744.46,-303.86 750.97,-306.44"/>
</g>
<!-- Node35&#45;&gt;Node2 -->
<g id="edge52" class="edge">
<title>Node35&#45;&gt;Node2</title>
<path fill="none" stroke="#63b8ff" d="M766.13,-294.4C776.45,-303.17 792.43,-317.1 805.5,-330 820.72,-345.02 837.06,-363.11 848.51,-376.14"/>
<polygon fill="#63b8ff" stroke="#63b8ff" points="845.69,-378.23 854.9,-383.47 850.97,-373.63 845.69,-378.23"/>
</g>
<!-- Node36 -->
<g id="node36" class="node">
<title>Node36</title>
<g id="a_node36"><a xlink:href="SMenu_8hpp.html" target="_top" xlink:title=" ">
<polygon fill="white" stroke="#666666" points="855,-239 790,-239 790,-220 855,-220 855,-239"/>
<text text-anchor="middle" x="822.5" y="-227" font-family="Helvetica,sans-Serif" font-size="10.00">SMenu.hpp</text>
</a>
</g>
</g>
<!-- Node35&#45;&gt;Node36 -->
<g id="edge53" class="edge">
<title>Node35&#45;&gt;Node36</title>
<path fill="none" stroke="#63b8ff" d="M766.87,-274.51C776.55,-266.85 790.7,-255.66 802.31,-246.47"/>
<polygon fill="#63b8ff" stroke="#63b8ff" points="804.44,-249.25 810.12,-240.3 800.1,-243.76 804.44,-249.25"/>
</g>
<!-- Node39 -->
<g id="node39" class="node">
<title>Node39</title>
<g id="a_node39"><a xlink:href="SGamePlay_8hpp.html" target="_top" xlink:title=" ">
<polygon fill="white" stroke="#666666" points="201.5,-129 115.5,-129 115.5,-110 201.5,-110 201.5,-129"/>
<text text-anchor="middle" x="158.5" y="-117" font-family="Helvetica,sans-Serif" font-size="10.00">SGamePlay.hpp</text>
</a>
</g>
</g>
<!-- Node35&#45;&gt;Node39 -->
<g id="edge58" class="edge">
<title>Node35&#45;&gt;Node39</title>
<path fill="none" stroke="#63b8ff" d="M722.55,-274.5C621.64,-246.95 316.76,-163.71 202.43,-132.5"/>
<polygon fill="#63b8ff" stroke="#63b8ff" points="203.37,-129.12 192.81,-129.87 201.53,-135.88 203.37,-129.12"/>
</g>
<!-- Node36&#45;&gt;Node2 -->
<g id="edge54" class="edge">
<title>Node36&#45;&gt;Node2</title>
<path fill="none" stroke="#63b8ff" d="M824.72,-239.31C831.1,-264.68 849.64,-338.38 858.57,-373.91"/>
<polygon fill="#63b8ff" stroke="#63b8ff" points="855.09,-374.42 860.93,-383.27 861.88,-372.72 855.09,-374.42"/>
</g>
<!-- Node36&#45;&gt;Node37 -->
<g id="edge55" class="edge">
<title>Node36&#45;&gt;Node37</title>
<path fill="none" stroke="#63b8ff" d="M822.5,-219.75C822.5,-213.27 822.5,-204.16 822.5,-195.9"/>
<polygon fill="#63b8ff" stroke="#63b8ff" points="826,-195.96 822.5,-185.96 819,-195.96 826,-195.96"/>
</g>
<!-- Node37&#45;&gt;Node4 -->
<g id="edge56" class="edge">
<title>Node37&#45;&gt;Node4</title>
<path fill="none" stroke="#63b8ff" d="M870.85,-164.51C919.82,-155.4 995.65,-141.3 1048.22,-131.52"/>
<polygon fill="#63b8ff" stroke="#63b8ff" points="1048.71,-134.99 1057.9,-129.72 1047.43,-128.11 1048.71,-134.99"/>
</g>
<!-- Node38 -->
<g id="node38" class="node">
<title>Node38</title>
<g id="a_node38"><a xlink:title=" ">
<polygon fill="#e0e0e0" stroke="#999999" points="852,-129 793,-129 793,-110 852,-110 852,-129"/>
<text text-anchor="middle" x="822.5" y="-117" font-family="Helvetica,sans-Serif" font-size="10.00">functional</text>
</a>
</g>
</g>
<!-- Node37&#45;&gt;Node38 -->
<g id="edge57" class="edge">
<title>Node37&#45;&gt;Node38</title>
<path fill="none" stroke="#63b8ff" d="M822.5,-164.75C822.5,-158.27 822.5,-149.16 822.5,-140.9"/>
<polygon fill="#63b8ff" stroke="#63b8ff" points="826,-140.96 822.5,-130.96 819,-140.96 826,-140.96"/>
</g>
<!-- Node39&#45;&gt;Node2 -->
<g id="edge59" class="edge">
<title>Node39&#45;&gt;Node2</title>
<path fill="none" stroke="#63b8ff" d="M158.7,-129.46C159.86,-158.45 167.73,-250.4 220.5,-294 309.96,-367.92 670.05,-387.28 808.7,-392.04"/>
<polygon fill="#63b8ff" stroke="#63b8ff" points="808.23,-395.53 818.34,-392.36 808.47,-388.53 808.23,-395.53"/>
</g>
<!-- Node39&#45;&gt;Node22 -->
<g id="edge60" class="edge">
<title>Node39&#45;&gt;Node22</title>
<path fill="none" stroke="#63b8ff" d="M115.28,-111.97C90.27,-106.05 59.99,-94.9 40.5,-74 29.44,-62.14 24.8,-44.11 22.86,-30.28"/>
<polygon fill="#63b8ff" stroke="#63b8ff" points="26.37,-30.17 21.89,-20.57 19.41,-30.87 26.37,-30.17"/>
</g>
<!-- Node39&#45;&gt;Node23 -->
<g id="edge64" class="edge">
<title>Node39&#45;&gt;Node23</title>
<path fill="none" stroke="#63b8ff" d="M163.57,-109.66C173.61,-92.18 196.19,-52.84 209.71,-29.3"/>
<polygon fill="#63b8ff" stroke="#63b8ff" points="212.66,-31.19 214.6,-20.77 206.59,-27.7 212.66,-31.19"/>
</g>
<!-- Node39&#45;&gt;Node30 -->
<g id="edge61" class="edge">
<title>Node39&#45;&gt;Node30</title>
<path fill="none" stroke="#63b8ff" d="M201.85,-117.96C432.89,-115.02 1521.57,-99.96 1857.5,-74 1869.09,-73.1 1881.76,-71.6 1892.88,-70.1"/>
<polygon fill="#63b8ff" stroke="#63b8ff" points="1893.29,-73.58 1902.71,-68.72 1892.32,-66.65 1893.29,-73.58"/>
</g>
<!-- Node40 -->
<g id="node40" class="node">
<title>Node40</title>
<g id="a_node40"><a xlink:title=" ">
<polygon fill="#e0e0e0" stroke="#999999" points="91,-74 50,-74 50,-55 91,-55 91,-74"/>
<text text-anchor="middle" x="70.5" y="-62" font-family="Helvetica,sans-Serif" font-size="10.00">string</text>
</a>
</g>
</g>
<!-- Node39&#45;&gt;Node40 -->
<g id="edge62" class="edge">
<title>Node39&#45;&gt;Node40</title>
<path fill="none" stroke="#63b8ff" d="M143.57,-109.51C130.22,-101.47 110.39,-89.53 94.76,-80.11"/>
<polygon fill="#63b8ff" stroke="#63b8ff" points="96.88,-77.3 86.5,-75.14 93.26,-83.3 96.88,-77.3"/>
</g>
<!-- Node41 -->
<g id="node41" class="node">
<title>Node41</title>
<g id="a_node41"><a xlink:title=" ">
<polygon fill="#e0e0e0" stroke="#999999" points="155.5,-74 109.5,-74 109.5,-55 155.5,-55 155.5,-74"/>
<text text-anchor="middle" x="132.5" y="-62" font-family="Helvetica,sans-Serif" font-size="10.00">cstring</text>
</a>
</g>
</g>
<!-- Node39&#45;&gt;Node41 -->
<g id="edge63" class="edge">
<title>Node39&#45;&gt;Node41</title>
<path fill="none" stroke="#63b8ff" d="M154.21,-109.75C150.88,-102.96 146.14,-93.3 141.94,-84.73"/>
<polygon fill="#63b8ff" stroke="#63b8ff" points="145.1,-83.24 137.55,-75.8 138.82,-86.32 145.1,-83.24"/>
</g>
<!-- Node42&#45;&gt;Node4 -->
<g id="edge68" class="edge">
<title>Node42&#45;&gt;Node4</title>
<path fill="none" stroke="#63b8ff" d="M2102.02,-169.21C2078.98,-167.81 2053.13,-166.28 2029.5,-165 1706.86,-147.49 1320.53,-129.96 1170.96,-123.3"/>
<polygon fill="#63b8ff" stroke="#63b8ff" points="1171.41,-119.82 1161.27,-122.87 1171.1,-126.81 1171.41,-119.82"/>
</g>
<!-- Node42&#45;&gt;Node15 -->
<g id="edge71" class="edge">
<title>Node42&#45;&gt;Node15</title>
<path fill="none" stroke="#63b8ff" d="M2177.36,-164.56C2183.48,-155.97 2192,-142.37 2195.5,-129 2199.3,-114.47 2196.6,-97.62 2193.19,-84.93"/>
<polygon fill="#63b8ff" stroke="#63b8ff" points="2196.63,-84.22 2190.34,-75.7 2189.94,-86.29 2196.63,-84.22"/>
</g>
<!-- Node42&#45;&gt;Node25 -->
<g id="edge69" class="edge">
<title>Node42&#45;&gt;Node25</title>
<path fill="none" stroke="#63b8ff" d="M2238.73,-170.95C2293.88,-165.88 2358.8,-151.3 2335.5,-110 2284.05,-18.78 1945.3,-9.69 1808.08,-9.82"/>
<polygon fill="#63b8ff" stroke="#63b8ff" points="1808.11,-6.32 1798.12,-9.85 1808.13,-13.32 1808.11,-6.32"/>
</g>
<!-- Node42&#45;&gt;Node26 -->
<g id="edge70" class="edge">
<title>Node42&#45;&gt;Node26</title>
<path fill="none" stroke="#63b8ff" d="M2238.82,-167.16C2289.44,-160.89 2352.32,-149.22 2368.5,-129 2389.05,-103.32 2388.95,-80.76 2368.5,-55 2349.34,-30.87 2261.8,-18.62 2212.15,-13.51"/>
<polygon fill="#63b8ff" stroke="#63b8ff" points="2212.79,-10.05 2202.5,-12.56 2212.11,-17.02 2212.79,-10.05"/>
</g>
<!-- Node43 -->
<g id="node43" class="node">
<title>Node43</title>
<g id="a_node43"><a xlink:title=" ">
<polygon fill="#e0e0e0" stroke="#999999" points="2186.5,-129 2142.5,-129 2142.5,-110 2186.5,-110 2186.5,-129"/>
<text text-anchor="middle" x="2164.5" y="-117" font-family="Helvetica,sans-Serif" font-size="10.00">cmath</text>
</a>
</g>
</g>
<!-- Node42&#45;&gt;Node43 -->
<g id="edge72" class="edge">
<title>Node42&#45;&gt;Node43</title>
<path fill="none" stroke="#63b8ff" d="M2169.51,-164.75C2168.77,-158.19 2167.72,-148.95 2166.78,-140.6"/>
<polygon fill="#63b8ff" stroke="#63b8ff" points="2170.29,-140.49 2165.68,-130.95 2163.33,-141.28 2170.29,-140.49"/>
</g>
</g>
</svg>
