<?xml version="1.0" encoding="UTF-8" standalone="no"?>
<!DOCTYPE svg PUBLIC "-//W3C//DTD SVG 1.1//EN"
 "http://www.w3.org/Graphics/SVG/1.1/DTD/svg11.dtd">
<!-- Generated by graphviz version 7.0.5 (20221223.1930)
 -->
<!-- Title: /github/workspace/client/include/system/gameStates/SMenu.hpp Pages: 1 -->
<!--zoomable 324 -->
<svg id="main" version="1.1" xmlns="http://www.w3.org/2000/svg" xmlns:xlink="http://www.w3.org/1999/xlink" xml:space="preserve" onload="init(evt)">
<style type="text/css"><![CDATA[
.edge:hover path { stroke: red; }
.edge:hover polygon { stroke: red; fill: red; }
]]></style>
<script type="text/javascript"><![CDATA[
var edges = document.getElementsByTagName('g');
if (edges && edges.length) {
  for (var i=0;i<edges.length;i++) {
    if (edges[i].id.substr(0,4)=='edge') {
      edges[i].setAttribute('class','edge');
    }
  }
}
]]></script>
        <defs>
                <circle id="rim" cx="0" cy="0" r="7"/>
                <circle id="rim2" cx="0" cy="0" r="3.5"/>
                <g id="zoomPlus">
                        <use xlink:href="#rim" fill="#404040">
                                <set attributeName="fill" to="#808080" begin="zoomplus.mouseover" end="zoomplus.mouseout"/>
                        </use>
                        <path d="M-4,0h8M0,-4v8" fill="none" stroke="white" stroke-width="1.5" pointer-events="none"/>
                </g>
                <g id="zoomMin">
                        <use xlink:href="#rim" fill="#404040">
                                <set attributeName="fill" to="#808080" begin="zoomminus.mouseover" end="zoomminus.mouseout"/>
                        </use>
                        <path d="M-4,0h8" fill="none" stroke="white" stroke-width="1.5" pointer-events="none"/>
                </g>
                <g id="dirArrow">
                        <path fill="none" stroke="white" stroke-width="1.5" d="M0,-3.0v7 M-2.5,-0.5L0,-3.0L2.5,-0.5"/>
                </g>
               <g id="resetDef">
                       <use xlink:href="#rim2" fill="#404040">
                               <set attributeName="fill" to="#808080" begin="reset.mouseover" end="reset.mouseout"/>
                       </use>
               </g>
        </defs>

<script type="text/javascript">
var viewWidth = 2497;
var viewHeight = 324;
var sectionId = 'dynsection-0';
</script>
<script xlink:href="svgpan.js"/>
<svg id="graph" class="graph">
<g id="viewport">
<title>/github/workspace/client/include/system/gameStates/SMenu.hpp</title>
<!-- Node1 -->
<g id="node1" class="node">
<title>Node1</title>
<g id="a_node1"><a xlink:title=" ">
<polygon fill="#999999" stroke="#666666" points="2240.65,-316 2100.65,-316 2100.65,-275 2240.65,-275 2240.65,-316"/>
<text text-anchor="start" x="2108.65" y="-304" font-family="Helvetica,sans-Serif" font-size="10.00">/github/workspace/client</text>
<text text-anchor="start" x="2108.65" y="-293" font-family="Helvetica,sans-Serif" font-size="10.00">/include/system/gameStates</text>
<text text-anchor="middle" x="2170.65" y="-282" font-family="Helvetica,sans-Serif" font-size="10.00">/SMenu.hpp</text>
</a>
</g>
</g>
<!-- Node2 -->
<g id="node2" class="node">
<title>Node2</title>
<g id="a_node2"><a xlink:href="IGameState_8hpp.html" target="_top" xlink:title=" ">
<polygon fill="white" stroke="#666666" points="1985.15,-239 1898.15,-239 1898.15,-220 1985.15,-220 1985.15,-239"/>
<text text-anchor="middle" x="1941.65" y="-227" font-family="Helvetica,sans-Serif" font-size="10.00">IGameState.hpp</text>
</a>
</g>
</g>
<!-- Node1&#45;&gt;Node2 -->
<g id="edge1" class="edge">
<title>Node1&#45;&gt;Node2</title>
<path fill="none" stroke="#63b8ff" d="M2100.39,-274.86C2062.64,-264.31 2017.3,-251.64 1984.76,-242.55"/>
<polygon fill="#63b8ff" stroke="#63b8ff" points="1985.85,-239.22 1975.28,-239.9 1983.97,-245.96 1985.85,-239.22"/>
</g>
<!-- Node41 -->
<g id="node41" class="node">
<title>Node41</title>
<g id="a_node41"><a xlink:href="Bouton_8hpp.html" target="_top" xlink:title=" ">
<polygon fill="white" stroke="#666666" points="2232.15,-239 2109.15,-239 2109.15,-220 2232.15,-220 2232.15,-239"/>
<text text-anchor="middle" x="2170.65" y="-227" font-family="Helvetica,sans-Serif" font-size="10.00">Components/Bouton.hpp</text>
</a>
</g>
</g>
<!-- Node1&#45;&gt;Node41 -->
<g id="edge69" class="edge">
<title>Node1&#45;&gt;Node41</title>
<path fill="none" stroke="#63b8ff" d="M2170.65,-274.6C2170.65,-266.98 2170.65,-258.3 2170.65,-250.66"/>
<polygon fill="#63b8ff" stroke="#63b8ff" points="2174.15,-250.68 2170.65,-240.68 2167.15,-250.68 2174.15,-250.68"/>
</g>
<!-- Node3 -->
<g id="node3" class="node">
<title>Node3</title>
<g id="a_node3"><a xlink:href="EntitiesManager_8hpp.html" target="_top" xlink:title=" ">
<polygon fill="white" stroke="#666666" points="1054.65,-184 914.65,-184 914.65,-165 1054.65,-165 1054.65,-184"/>
<text text-anchor="middle" x="984.65" y="-172" font-family="Helvetica,sans-Serif" font-size="10.00">Entities/EntitiesManager.hpp</text>
</a>
</g>
</g>
<!-- Node2&#45;&gt;Node3 -->
<g id="edge2" class="edge">
<title>Node2&#45;&gt;Node3</title>
<path fill="none" stroke="#63b8ff" d="M1897.73,-226.07C1748.73,-217.82 1260.98,-190.8 1066.13,-180.01"/>
<polygon fill="#63b8ff" stroke="#63b8ff" points="1066.53,-176.53 1056.35,-179.47 1066.15,-183.52 1066.53,-176.53"/>
</g>
<!-- Node27 -->
<g id="node27" class="node">
<title>Node27</title>
<g id="a_node27"><a xlink:href="Background_8hpp.html" target="_top" xlink:title=" ">
<polygon fill="white" stroke="#666666" points="331.65,-74 187.65,-74 187.65,-55 331.65,-55 331.65,-74"/>
<text text-anchor="middle" x="259.65" y="-62" font-family="Helvetica,sans-Serif" font-size="10.00">Components/Background.hpp</text>
</a>
</g>
</g>
<!-- Node2&#45;&gt;Node27 -->
<g id="edge62" class="edge">
<title>Node2&#45;&gt;Node27</title>
<path fill="none" stroke="#63b8ff" d="M1897.81,-228.78C1754.67,-229.24 1288.26,-227.1 905.65,-184 680.99,-158.69 416.82,-101.5 309.11,-77"/>
<polygon fill="#63b8ff" stroke="#63b8ff" points="309.97,-73.6 299.44,-74.79 308.41,-80.43 309.97,-73.6"/>
</g>
<!-- Node33 -->
<g id="node33" class="node">
<title>Node33</title>
<g id="a_node33"><a xlink:href="String_8hpp.html" target="_top" xlink:title=" ">
<polygon fill="white" stroke="#666666" points="1930.15,-74 1847.15,-74 1847.15,-55 1930.15,-55 1930.15,-74"/>
<text text-anchor="middle" x="1888.65" y="-62" font-family="Helvetica,sans-Serif" font-size="10.00">Utils/String.hpp</text>
</a>
</g>
</g>
<!-- Node2&#45;&gt;Node33 -->
<g id="edge46" class="edge">
<title>Node2&#45;&gt;Node33</title>
<path fill="none" stroke="#63b8ff" d="M1938.8,-219.74C1930.57,-194.42 1906.61,-120.72 1895.04,-85.16"/>
<polygon fill="#63b8ff" stroke="#63b8ff" points="1898.4,-84.17 1891.98,-75.75 1891.75,-86.34 1898.4,-84.17"/>
</g>
<!-- Node34 -->
<g id="node34" class="node">
<title>Node34</title>
<g id="a_node34"><a xlink:href="GameEngine_8hpp.html" target="_top" xlink:title=" ">
<polygon fill="white" stroke="#666666" points="2247.15,-184 2122.15,-184 2122.15,-165 2247.15,-165 2247.15,-184"/>
<text text-anchor="middle" x="2184.65" y="-172" font-family="Helvetica,sans-Serif" font-size="10.00">system/GameEngine.hpp</text>
</a>
</g>
</g>
<!-- Node2&#45;&gt;Node34 -->
<g id="edge50" class="edge">
<title>Node2&#45;&gt;Node34</title>
<path fill="none" stroke="#63b8ff" d="M1982.87,-219.51C2024.1,-210.52 2087.66,-196.65 2132.4,-186.9"/>
<polygon fill="#63b8ff" stroke="#63b8ff" points="2133.13,-190.32 2142.16,-184.77 2131.64,-183.48 2133.13,-190.32"/>
</g>
<!-- Node39 -->
<g id="node39" class="node">
<title>Node39</title>
<g id="a_node39"><a xlink:href="Centipede_8hpp.html" target="_top" xlink:title=" ">
<polygon fill="white" stroke="#666666" points="151.65,-184 15.65,-184 15.65,-165 151.65,-165 151.65,-184"/>
<text text-anchor="middle" x="83.65" y="-172" font-family="Helvetica,sans-Serif" font-size="10.00">Components/Centipede.hpp</text>
</a>
</g>
</g>
<!-- Node2&#45;&gt;Node39 -->
<g id="edge63" class="edge">
<title>Node2&#45;&gt;Node39</title>
<path fill="none" stroke="#63b8ff" d="M1897.66,-228.66C1697.77,-229.15 855.11,-228.3 165.65,-184 164.82,-183.95 163.99,-183.89 163.15,-183.83"/>
<polygon fill="#63b8ff" stroke="#63b8ff" points="163.82,-180.38 153.58,-183.11 163.29,-187.36 163.82,-180.38"/>
</g>
<!-- Node4 -->
<g id="node4" class="node">
<title>Node4</title>
<g id="a_node4"><a xlink:href="Engine_8hpp.html" target="_top" xlink:title=" ">
<polygon fill="white" stroke="#666666" points="1036.65,-129 932.65,-129 932.65,-110 1036.65,-110 1036.65,-129"/>
<text text-anchor="middle" x="984.65" y="-117" font-family="Helvetica,sans-Serif" font-size="10.00">../Engine/Engine.hpp</text>
</a>
</g>
</g>
<!-- Node3&#45;&gt;Node4 -->
<g id="edge3" class="edge">
<title>Node3&#45;&gt;Node4</title>
<path fill="none" stroke="#63b8ff" d="M979.49,-164.75C978.08,-158.19 977.61,-148.95 978.08,-140.6"/>
<polygon fill="#63b8ff" stroke="#63b8ff" points="981.52,-141.3 979.26,-130.94 974.57,-140.45 981.52,-141.3"/>
</g>
<!-- Node25 -->
<g id="node25" class="node">
<title>Node25</title>
<g id="a_node25"><a xlink:href="IComponents_8hpp.html" target="_top" xlink:title=" ">
<polygon fill="white" stroke="#666666" points="330.65,-19 238.65,-19 238.65,0 330.65,0 330.65,-19"/>
<text text-anchor="middle" x="284.65" y="-7" font-family="Helvetica,sans-Serif" font-size="10.00">IComponents.hpp</text>
</a>
</g>
</g>
<!-- Node3&#45;&gt;Node25 -->
<g id="edge33" class="edge">
<title>Node3&#45;&gt;Node25</title>
<path fill="none" stroke="#63b8ff" d="M914.38,-170.06C727.14,-160.17 227.13,-128.83 178.65,-74 157.86,-50.48 195.49,-33.1 231.53,-22.52"/>
<polygon fill="#63b8ff" stroke="#63b8ff" points="232.44,-25.9 241.14,-19.86 230.57,-19.16 232.44,-25.9"/>
</g>
<!-- Node28 -->
<g id="node28" class="node">
<title>Node28</title>
<g id="a_node28"><a xlink:href="SparseArray_8hpp.html" target="_top" xlink:title=" ">
<polygon fill="white" stroke="#666666" points="2088.15,-129 1977.15,-129 1977.15,-110 2088.15,-110 2088.15,-129"/>
<text text-anchor="middle" x="2032.65" y="-117" font-family="Helvetica,sans-Serif" font-size="10.00">Utils/SparseArray.hpp</text>
</a>
</g>
</g>
<!-- Node3&#45;&gt;Node28 -->
<g id="edge34" class="edge">
<title>Node3&#45;&gt;Node28</title>
<path fill="none" stroke="#63b8ff" d="M1055.04,-169.94C1246.88,-160.24 1777.07,-133.43 1965.29,-123.91"/>
<polygon fill="#63b8ff" stroke="#63b8ff" points="1965.34,-127.41 1975.15,-123.41 1964.98,-120.42 1965.34,-127.41"/>
</g>
<!-- Node4&#45;&gt;Node3 -->
<g id="edge25" class="edge">
<title>Node4&#45;&gt;Node3</title>
<path fill="none" stroke="#63b8ff" d="M989.86,-129.44C991.23,-135.97 991.69,-145.1 991.23,-153.35"/>
<polygon fill="#63b8ff" stroke="#63b8ff" points="987.76,-152.89 990,-163.25 994.7,-153.75 987.76,-152.89"/>
</g>
<!-- Node5 -->
<g id="node5" class="node">
<title>Node5</title>
<g id="a_node5"><a xlink:title=" ">
<polygon fill="#e0e0e0" stroke="#999999" points="1752.15,-74 1663.15,-74 1663.15,-55 1752.15,-55 1752.15,-74"/>
<text text-anchor="middle" x="1707.65" y="-62" font-family="Helvetica,sans-Serif" font-size="10.00">SFML/Audio.hpp</text>
</a>
</g>
</g>
<!-- Node4&#45;&gt;Node5 -->
<g id="edge4" class="edge">
<title>Node4&#45;&gt;Node5</title>
<path fill="none" stroke="#63b8ff" d="M1036.84,-116.62C1147.9,-112.29 1416.05,-99.99 1651.71,-74.1"/>
<polygon fill="#63b8ff" stroke="#63b8ff" points="1651.85,-77.61 1661.4,-73.03 1651.08,-70.65 1651.85,-77.61"/>
</g>
<!-- Node6 -->
<g id="node6" class="node">
<title>Node6</title>
<g id="a_node6"><a xlink:title=" ">
<polygon fill="#e0e0e0" stroke="#999999" points="1291.65,-74 1187.65,-74 1187.65,-55 1291.65,-55 1291.65,-74"/>
<text text-anchor="middle" x="1239.65" y="-62" font-family="Helvetica,sans-Serif" font-size="10.00">SFML/Graphics.hpp</text>
</a>
</g>
</g>
<!-- Node4&#45;&gt;Node6 -->
<g id="edge5" class="edge">
<title>Node4&#45;&gt;Node6</title>
<path fill="none" stroke="#63b8ff" d="M1027.91,-109.51C1071.36,-100.48 1138.44,-86.54 1185.42,-76.77"/>
<polygon fill="#63b8ff" stroke="#63b8ff" points="1186.05,-80.22 1195.13,-74.75 1184.62,-73.36 1186.05,-80.22"/>
</g>
<!-- Node7 -->
<g id="node7" class="node">
<title>Node7</title>
<g id="a_node7"><a xlink:title=" ">
<polygon fill="#e0e0e0" stroke="#999999" points="1411.15,-74 1310.15,-74 1310.15,-55 1411.15,-55 1411.15,-74"/>
<text text-anchor="middle" x="1360.65" y="-62" font-family="Helvetica,sans-Serif" font-size="10.00">SFML/Network.hpp</text>
</a>
</g>
</g>
<!-- Node4&#45;&gt;Node7 -->
<g id="edge6" class="edge">
<title>Node4&#45;&gt;Node7</title>
<path fill="none" stroke="#63b8ff" d="M1036.93,-111.15C1097.28,-102.67 1199.84,-88.24 1298.52,-74.3"/>
<polygon fill="#63b8ff" stroke="#63b8ff" points="1299,-77.77 1308.41,-72.9 1298.02,-70.84 1299,-77.77"/>
</g>
<!-- Node8 -->
<g id="node8" class="node">
<title>Node8</title>
<g id="a_node8"><a xlink:title=" ">
<polygon fill="#e0e0e0" stroke="#999999" points="1528.15,-74 1429.15,-74 1429.15,-55 1528.15,-55 1528.15,-74"/>
<text text-anchor="middle" x="1478.65" y="-62" font-family="Helvetica,sans-Serif" font-size="10.00">SFML/Window.hpp</text>
</a>
</g>
</g>
<!-- Node4&#45;&gt;Node8 -->
<g id="edge7" class="edge">
<title>Node4&#45;&gt;Node8</title>
<path fill="none" stroke="#63b8ff" d="M1036.96,-113.85C1116.65,-106.61 1273.54,-91.76 1417.55,-74.21"/>
<polygon fill="#63b8ff" stroke="#63b8ff" points="1417.78,-77.71 1427.28,-73.02 1416.92,-70.76 1417.78,-77.71"/>
</g>
<!-- Node9 -->
<g id="node9" class="node">
<title>Node9</title>
<g id="a_node9"><a xlink:title=" ">
<polygon fill="#e0e0e0" stroke="#999999" points="1644.65,-74 1546.65,-74 1546.65,-55 1644.65,-55 1644.65,-74"/>
<text text-anchor="middle" x="1595.65" y="-62" font-family="Helvetica,sans-Serif" font-size="10.00">SFML/System.hpp</text>
</a>
</g>
</g>
<!-- Node4&#45;&gt;Node9 -->
<g id="edge8" class="edge">
<title>Node4&#45;&gt;Node9</title>
<path fill="none" stroke="#63b8ff" d="M1036.89,-115.38C1133.08,-109.41 1344.96,-95.13 1535.09,-74.09"/>
<polygon fill="#63b8ff" stroke="#63b8ff" points="1535.37,-77.58 1544.92,-73 1534.6,-70.63 1535.37,-77.58"/>
</g>
<!-- Node10 -->
<g id="node10" class="node">
<title>Node10</title>
<g id="a_node10"><a xlink:title=" ">
<polygon fill="#e0e0e0" stroke="#999999" points="1926.65,-19 1872.65,-19 1872.65,0 1926.65,0 1926.65,-19"/>
<text text-anchor="middle" x="1899.65" y="-7" font-family="Helvetica,sans-Serif" font-size="10.00">iostream</text>
</a>
</g>
</g>
<!-- Node4&#45;&gt;Node10 -->
<g id="edge9" class="edge">
<title>Node4&#45;&gt;Node10</title>
<path fill="none" stroke="#63b8ff" d="M1036.95,-118.01C1188.01,-116.21 1622.96,-108.12 1760.65,-74 1802.94,-63.52 1848.16,-40.36 1875.16,-25.1"/>
<polygon fill="#63b8ff" stroke="#63b8ff" points="1876.67,-28.27 1883.59,-20.24 1873.18,-22.2 1876.67,-28.27"/>
</g>
<!-- Node11 -->
<g id="node11" class="node">
<title>Node11</title>
<g id="a_node11"><a xlink:title=" ">
<polygon fill="#e0e0e0" stroke="#999999" points="615.65,-74 565.65,-74 565.65,-55 615.65,-55 615.65,-74"/>
<text text-anchor="middle" x="590.65" y="-62" font-family="Helvetica,sans-Serif" font-size="10.00">fstream</text>
</a>
</g>
</g>
<!-- Node4&#45;&gt;Node11 -->
<g id="edge10" class="edge">
<title>Node4&#45;&gt;Node11</title>
<path fill="none" stroke="#63b8ff" d="M932.18,-114.04C864.01,-107.79 741.14,-95.02 626.86,-74.2"/>
<polygon fill="#63b8ff" stroke="#63b8ff" points="627.79,-70.81 617.32,-72.43 626.51,-77.69 627.79,-70.81"/>
</g>
<!-- Node12 -->
<g id="node12" class="node">
<title>Node12</title>
<g id="a_node12"><a xlink:title=" ">
<polygon fill="#e0e0e0" stroke="#999999" points="681.65,-74 633.65,-74 633.65,-55 681.65,-55 681.65,-74"/>
<text text-anchor="middle" x="657.65" y="-62" font-family="Helvetica,sans-Serif" font-size="10.00">string.h</text>
</a>
</g>
</g>
<!-- Node4&#45;&gt;Node12 -->
<g id="edge11" class="edge">
<title>Node4&#45;&gt;Node12</title>
<path fill="none" stroke="#63b8ff" d="M932.32,-112.22C875.67,-105.05 782.46,-92.2 693.24,-74.35"/>
<polygon fill="#63b8ff" stroke="#63b8ff" points="694.08,-70.95 683.58,-72.39 692.68,-77.81 694.08,-70.95"/>
</g>
<!-- Node13 -->
<g id="node13" class="node">
<title>Node13</title>
<g id="a_node13"><a xlink:title=" ">
<polygon fill="#e0e0e0" stroke="#999999" points="749.65,-74 699.65,-74 699.65,-55 749.65,-55 749.65,-74"/>
<text text-anchor="middle" x="724.65" y="-62" font-family="Helvetica,sans-Serif" font-size="10.00">unistd.h</text>
</a>
</g>
</g>
<!-- Node4&#45;&gt;Node13 -->
<g id="edge12" class="edge">
<title>Node4&#45;&gt;Node13</title>
<path fill="none" stroke="#63b8ff" d="M935.57,-109.58C892.11,-101.51 826.69,-88.96 760.86,-74.4"/>
<polygon fill="#63b8ff" stroke="#63b8ff" points="761.87,-71.04 751.35,-72.28 760.35,-77.88 761.87,-71.04"/>
</g>
<!-- Node14 -->
<g id="node14" class="node">
<title>Node14</title>
<g id="a_node14"><a xlink:title=" ">
<polygon fill="#e0e0e0" stroke="#999999" points="833.15,-74 768.15,-74 768.15,-55 833.15,-55 833.15,-74"/>
<text text-anchor="middle" x="800.65" y="-62" font-family="Helvetica,sans-Serif" font-size="10.00">sys/types.h</text>
</a>
</g>
</g>
<!-- Node4&#45;&gt;Node14 -->
<g id="edge13" class="edge">
<title>Node4&#45;&gt;Node14</title>
<path fill="none" stroke="#63b8ff" d="M953.44,-109.51C922.95,-100.73 876.33,-87.3 842.61,-77.59"/>
<polygon fill="#63b8ff" stroke="#63b8ff" points="843.74,-74.27 833.17,-74.87 841.81,-81 843.74,-74.27"/>
</g>
<!-- Node15 -->
<g id="node15" class="node">
<title>Node15</title>
<g id="a_node15"><a xlink:title=" ">
<polygon fill="#e0e0e0" stroke="#999999" points="1802.65,-19 1758.65,-19 1758.65,0 1802.65,0 1802.65,-19"/>
<text text-anchor="middle" x="1780.65" y="-7" font-family="Helvetica,sans-Serif" font-size="10.00">vector</text>
</a>
</g>
</g>
<!-- Node4&#45;&gt;Node15 -->
<g id="edge14" class="edge">
<title>Node4&#45;&gt;Node15</title>
<path fill="none" stroke="#63b8ff" d="M932.27,-118.53C806.83,-117.73 503.47,-110.15 556.65,-55 599.1,-10.98 1553.82,-10.14 1746.82,-10.42"/>
<polygon fill="#63b8ff" stroke="#63b8ff" points="1746.65,-13.92 1756.66,-10.44 1746.66,-6.92 1746.65,-13.92"/>
</g>
<!-- Node16 -->
<g id="node16" class="node">
<title>Node16</title>
<g id="a_node16"><a xlink:title=" ">
<polygon fill="#e0e0e0" stroke="#999999" points="907.65,-74 851.65,-74 851.65,-55 907.65,-55 907.65,-74"/>
<text text-anchor="middle" x="879.65" y="-62" font-family="Helvetica,sans-Serif" font-size="10.00">stdbool.h</text>
</a>
</g>
</g>
<!-- Node4&#45;&gt;Node16 -->
<g id="edge15" class="edge">
<title>Node4&#45;&gt;Node16</title>
<path fill="none" stroke="#63b8ff" d="M966.84,-109.51C950.53,-101.27 926.12,-88.96 907.28,-79.45"/>
<polygon fill="#63b8ff" stroke="#63b8ff" points="909.06,-76.42 898.55,-75.04 905.9,-82.67 909.06,-76.42"/>
</g>
<!-- Node17 -->
<g id="node17" class="node">
<title>Node17</title>
<g id="a_node17"><a xlink:title=" ">
<polygon fill="#e0e0e0" stroke="#999999" points="973.15,-74 926.15,-74 926.15,-55 973.15,-55 973.15,-74"/>
<text text-anchor="middle" x="949.65" y="-62" font-family="Helvetica,sans-Serif" font-size="10.00">stdlib.h</text>
</a>
</g>
</g>
<!-- Node4&#45;&gt;Node17 -->
<g id="edge16" class="edge">
<title>Node4&#45;&gt;Node17</title>
<path fill="none" stroke="#63b8ff" d="M978.87,-109.75C974.24,-102.73 967.58,-92.64 961.79,-83.87"/>
<polygon fill="#63b8ff" stroke="#63b8ff" points="964.82,-82.12 956.39,-75.71 958.98,-85.98 964.82,-82.12"/>
</g>
<!-- Node18 -->
<g id="node18" class="node">
<title>Node18</title>
<g id="a_node18"><a xlink:title=" ">
<polygon fill="#e0e0e0" stroke="#999999" points="1049.65,-74 991.65,-74 991.65,-55 1049.65,-55 1049.65,-74"/>
<text text-anchor="middle" x="1020.65" y="-62" font-family="Helvetica,sans-Serif" font-size="10.00">exception</text>
</a>
</g>
</g>
<!-- Node4&#45;&gt;Node18 -->
<g id="edge17" class="edge">
<title>Node4&#45;&gt;Node18</title>
<path fill="none" stroke="#63b8ff" d="M990.6,-109.75C995.36,-102.73 1002.21,-92.64 1008.17,-83.87"/>
<polygon fill="#63b8ff" stroke="#63b8ff" points="1011,-85.93 1013.73,-75.69 1005.21,-82 1011,-85.93"/>
</g>
<!-- Node19 -->
<g id="node19" class="node">
<title>Node19</title>
<g id="a_node19"><a xlink:href="Window_8hpp.html" target="_top" xlink:title=" ">
<polygon fill="white" stroke="#666666" points="1169.15,-74 1068.15,-74 1068.15,-55 1169.15,-55 1169.15,-74"/>
<text text-anchor="middle" x="1118.65" y="-62" font-family="Helvetica,sans-Serif" font-size="10.00">Engine/Window.hpp</text>
</a>
</g>
</g>
<!-- Node4&#45;&gt;Node19 -->
<g id="edge18" class="edge">
<title>Node4&#45;&gt;Node19</title>
<path fill="none" stroke="#63b8ff" d="M1002.17,-109.51C1022.06,-100.93 1054.74,-87.92 1080.51,-78.27"/>
<polygon fill="#63b8ff" stroke="#63b8ff" points="1081.48,-81.64 1089.65,-74.88 1079.05,-75.07 1081.48,-81.64"/>
</g>
<!-- Node20 -->
<g id="node20" class="node">
<title>Node20</title>
<g id="a_node20"><a xlink:href="Event_8hpp.html" target="_top" xlink:title=" ">
<polygon fill="white" stroke="#666666" points="2188.65,-74 2096.65,-74 2096.65,-55 2188.65,-55 2188.65,-74"/>
<text text-anchor="middle" x="2142.65" y="-62" font-family="Helvetica,sans-Serif" font-size="10.00">Engine/Event.hpp</text>
</a>
</g>
</g>
<!-- Node4&#45;&gt;Node20 -->
<g id="edge20" class="edge">
<title>Node4&#45;&gt;Node20</title>
<path fill="none" stroke="#63b8ff" d="M1036.98,-118.47C1194.78,-117.9 1679.03,-112.82 2078.65,-74 2080.69,-73.8 2082.77,-73.58 2084.87,-73.33"/>
<polygon fill="#63b8ff" stroke="#63b8ff" points="2085.28,-76.81 2094.76,-72.07 2084.39,-69.87 2085.28,-76.81"/>
</g>
<!-- Node24 -->
<g id="node24" class="node">
<title>Node24</title>
<g id="a_node24"><a xlink:href="Bullets_8hpp.html" target="_top" xlink:title=" ">
<polygon fill="white" stroke="#666666" points="471.65,-74 349.65,-74 349.65,-55 471.65,-55 471.65,-74"/>
<text text-anchor="middle" x="410.65" y="-62" font-family="Helvetica,sans-Serif" font-size="10.00">Components/Bullets.hpp</text>
</a>
</g>
</g>
<!-- Node4&#45;&gt;Node24 -->
<g id="edge26" class="edge">
<title>Node4&#45;&gt;Node24</title>
<path fill="none" stroke="#63b8ff" d="M932.27,-114.67C841.93,-107.56 651.2,-91.52 483.2,-74.65"/>
<polygon fill="#63b8ff" stroke="#63b8ff" points="483.72,-71.19 473.42,-73.67 483.01,-78.15 483.72,-71.19"/>
</g>
<!-- Node4&#45;&gt;Node27 -->
<g id="edge31" class="edge">
<title>Node4&#45;&gt;Node27</title>
<path fill="none" stroke="#63b8ff" d="M932.2,-115.79C823.03,-109.69 563.72,-93.94 343.43,-75.02"/>
<polygon fill="#63b8ff" stroke="#63b8ff" points="343.75,-71.53 333.49,-74.16 343.15,-78.51 343.75,-71.53"/>
</g>
<!-- Node19&#45;&gt;Node4 -->
<g id="edge19" class="edge">
<title>Node19&#45;&gt;Node4</title>
<path fill="none" stroke="#63b8ff" d="M1101.45,-74.36C1081.68,-82.89 1049.04,-95.9 1023.2,-105.58"/>
<polygon fill="#63b8ff" stroke="#63b8ff" points="1022.18,-102.23 1014.02,-108.98 1024.61,-108.79 1022.18,-102.23"/>
</g>
<!-- Node20&#45;&gt;Node4 -->
<g id="edge21" class="edge">
<title>Node20&#45;&gt;Node4</title>
<path fill="none" stroke="#63b8ff" d="M2096.35,-74.03C1699.43,-112.56 1219.15,-117.83 1048.49,-118.46"/>
<polygon fill="#63b8ff" stroke="#63b8ff" points="1048.49,-114.96 1038.5,-118.49 1048.51,-121.96 1048.49,-114.96"/>
</g>
<!-- Node21 -->
<g id="node21" class="node">
<title>Node21</title>
<g id="a_node21"><a xlink:title=" ">
<polygon fill="#e0e0e0" stroke="#999999" points="1986.15,-19 1957.15,-19 1957.15,0 1986.15,0 1986.15,-19"/>
<text text-anchor="middle" x="1971.65" y="-7" font-family="Helvetica,sans-Serif" font-size="10.00">list</text>
</a>
</g>
</g>
<!-- Node20&#45;&gt;Node21 -->
<g id="edge22" class="edge">
<title>Node20&#45;&gt;Node21</title>
<path fill="none" stroke="#63b8ff" d="M2113.64,-54.51C2081.03,-44.4 2028.57,-28.14 1997.37,-18.47"/>
<polygon fill="#63b8ff" stroke="#63b8ff" points="1998.57,-15.18 1987.98,-15.56 1996.5,-21.86 1998.57,-15.18"/>
</g>
<!-- Node22 -->
<g id="node22" class="node">
<title>Node22</title>
<g id="a_node22"><a xlink:title=" ">
<polygon fill="#e0e0e0" stroke="#999999" points="2355.15,-19 2312.15,-19 2312.15,0 2355.15,0 2355.15,-19"/>
<text text-anchor="middle" x="2333.65" y="-7" font-family="Helvetica,sans-Serif" font-size="10.00">queue</text>
</a>
</g>
</g>
<!-- Node20&#45;&gt;Node22 -->
<g id="edge23" class="edge">
<title>Node20&#45;&gt;Node22</title>
<path fill="none" stroke="#63b8ff" d="M2175.05,-54.51C2210.2,-44.76 2266,-29.27 2301.18,-19.51"/>
<polygon fill="#63b8ff" stroke="#63b8ff" points="2301.66,-23.01 2310.36,-16.96 2299.79,-16.26 2301.66,-23.01"/>
</g>
<!-- Node23 -->
<g id="node23" class="node">
<title>Node23</title>
<g id="a_node23"><a xlink:title=" ">
<polygon fill="#e0e0e0" stroke="#999999" points="2293.65,-19 2231.65,-19 2231.65,0 2293.65,0 2293.65,-19"/>
<text text-anchor="middle" x="2262.65" y="-7" font-family="Helvetica,sans-Serif" font-size="10.00">Skaldi.hpp</text>
</a>
</g>
</g>
<!-- Node20&#45;&gt;Node23 -->
<g id="edge24" class="edge">
<title>Node20&#45;&gt;Node23</title>
<path fill="none" stroke="#63b8ff" d="M2163.01,-54.51C2182,-46.12 2210.58,-33.5 2232.27,-23.92"/>
<polygon fill="#63b8ff" stroke="#63b8ff" points="2233.48,-27.21 2241.21,-19.97 2230.65,-20.81 2233.48,-27.21"/>
</g>
<!-- Node24&#45;&gt;Node4 -->
<g id="edge27" class="edge">
<title>Node24&#45;&gt;Node4</title>
<path fill="none" stroke="#63b8ff" d="M471.99,-71.6C479.66,-72.44 487.35,-73.26 494.65,-74 647.71,-89.5 827.47,-104.82 921,-112.82"/>
<polygon fill="#63b8ff" stroke="#63b8ff" points="920.48,-116.28 930.74,-113.65 921.07,-109.31 920.48,-116.28"/>
</g>
<!-- Node24&#45;&gt;Node25 -->
<g id="edge28" class="edge">
<title>Node24&#45;&gt;Node25</title>
<path fill="none" stroke="#63b8ff" d="M389.28,-54.51C369.25,-46.08 339.05,-33.38 316.24,-23.79"/>
<polygon fill="#63b8ff" stroke="#63b8ff" points="317.68,-20.6 307.11,-19.94 314.97,-27.05 317.68,-20.6"/>
</g>
<!-- Node26 -->
<g id="node26" class="node">
<title>Node26</title>
<g id="a_node26"><a xlink:title=" ">
<polygon fill="#e0e0e0" stroke="#999999" points="176.65,-19 130.65,-19 130.65,0 176.65,0 176.65,-19"/>
<text text-anchor="middle" x="153.65" y="-7" font-family="Helvetica,sans-Serif" font-size="10.00">math.h</text>
</a>
</g>
</g>
<!-- Node24&#45;&gt;Node26 -->
<g id="edge30" class="edge">
<title>Node24&#45;&gt;Node26</title>
<path fill="none" stroke="#63b8ff" d="M367.06,-54.51C316.6,-44.1 234.53,-27.18 188.25,-17.63"/>
<polygon fill="#63b8ff" stroke="#63b8ff" points="189,-14.22 178.5,-15.62 187.59,-21.07 189,-14.22"/>
</g>
<!-- Node25&#45;&gt;Node4 -->
<g id="edge29" class="edge">
<title>Node25&#45;&gt;Node4</title>
<path fill="none" stroke="#63b8ff" d="M330.88,-18.39C371.04,-25.85 430.47,-38.39 480.65,-55 500.49,-61.57 503.44,-68.71 523.65,-74 662.07,-110.25 830.8,-117.61 920.83,-118.72"/>
<polygon fill="#63b8ff" stroke="#63b8ff" points="920.65,-122.22 930.69,-118.82 920.72,-115.22 920.65,-122.22"/>
</g>
<!-- Node27&#45;&gt;Node4 -->
<g id="edge32" class="edge">
<title>Node27&#45;&gt;Node4</title>
<path fill="none" stroke="#63b8ff" d="M331.83,-72.35C337.87,-72.94 343.88,-73.5 349.65,-74 558.79,-92.19 806.67,-107.59 921.1,-114.54"/>
<polygon fill="#63b8ff" stroke="#63b8ff" points="920.7,-118.02 930.89,-115.13 921.12,-111.03 920.7,-118.02"/>
</g>
<!-- Node28&#45;&gt;Node10 -->
<g id="edge35" class="edge">
<title>Node28&#45;&gt;Node10</title>
<path fill="none" stroke="#63b8ff" d="M2021.69,-109.64C2010.58,-100.67 1992.91,-86.38 1977.65,-74 1957.78,-57.87 1935.09,-39.39 1919.33,-26.55"/>
<polygon fill="#63b8ff" stroke="#63b8ff" points="1921.63,-23.91 1911.67,-20.3 1917.21,-29.33 1921.63,-23.91"/>
</g>
<!-- Node28&#45;&gt;Node15 -->
<g id="edge38" class="edge">
<title>Node28&#45;&gt;Node15</title>
<path fill="none" stroke="#63b8ff" d="M1976.8,-114.81C1935.89,-110.04 1880.3,-99.09 1837.65,-74 1818.75,-62.88 1802.64,-43.38 1792.42,-28.91"/>
<polygon fill="#63b8ff" stroke="#63b8ff" points="1795.4,-27.06 1786.91,-20.72 1789.59,-30.97 1795.4,-27.06"/>
</g>
<!-- Node29 -->
<g id="node29" class="node">
<title>Node29</title>
<g id="a_node29"><a xlink:title=" ">
<polygon fill="#e0e0e0" stroke="#999999" points="2143.65,-19 2087.65,-19 2087.65,0 2143.65,0 2143.65,-19"/>
<text text-anchor="middle" x="2115.65" y="-7" font-family="Helvetica,sans-Serif" font-size="10.00">algorithm</text>
</a>
</g>
</g>
<!-- Node28&#45;&gt;Node29 -->
<g id="edge36" class="edge">
<title>Node28&#45;&gt;Node29</title>
<path fill="none" stroke="#63b8ff" d="M2088.33,-112.23C2135.34,-105.66 2197.37,-93.52 2212.65,-74 2232.47,-48.69 2189.8,-30.24 2154.91,-19.95"/>
<polygon fill="#63b8ff" stroke="#63b8ff" points="2155.97,-16.61 2145.4,-17.3 2154.09,-23.36 2155.97,-16.61"/>
</g>
<!-- Node30 -->
<g id="node30" class="node">
<title>Node30</title>
<g id="a_node30"><a xlink:title=" ">
<polygon fill="#e0e0e0" stroke="#999999" points="2213.65,-19 2175.65,-19 2175.65,0 2213.65,0 2213.65,-19"/>
<text text-anchor="middle" x="2194.65" y="-7" font-family="Helvetica,sans-Serif" font-size="10.00">array</text>
</a>
</g>
</g>
<!-- Node28&#45;&gt;Node30 -->
<g id="edge37" class="edge">
<title>Node28&#45;&gt;Node30</title>
<path fill="none" stroke="#63b8ff" d="M2088.29,-113.51C2139.93,-107.59 2211.34,-95.68 2228.65,-74 2240.28,-59.43 2226.84,-40.3 2213.58,-26.86"/>
<polygon fill="#63b8ff" stroke="#63b8ff" points="2216.36,-24.66 2206.68,-20.35 2211.56,-29.76 2216.36,-24.66"/>
</g>
<!-- Node31 -->
<g id="node31" class="node">
<title>Node31</title>
<g id="a_node31"><a xlink:title=" ">
<polygon fill="#e0e0e0" stroke="#999999" points="2059.15,-19 2020.15,-19 2020.15,0 2059.15,0 2059.15,-19"/>
<text text-anchor="middle" x="2039.65" y="-7" font-family="Helvetica,sans-Serif" font-size="10.00">utility</text>
</a>
</g>
</g>
<!-- Node28&#45;&gt;Node31 -->
<g id="edge39" class="edge">
<title>Node28&#45;&gt;Node31</title>
<path fill="none" stroke="#63b8ff" d="M2088.42,-110.8C2130.88,-103.66 2184.26,-91.49 2197.65,-74 2202.79,-67.3 2202.75,-61.73 2197.65,-55 2193.73,-49.83 2115.34,-29.47 2070.48,-18.17"/>
<polygon fill="#63b8ff" stroke="#63b8ff" points="2071.36,-14.78 2060.81,-15.74 2069.65,-21.57 2071.36,-14.78"/>
</g>
<!-- Node32 -->
<g id="node32" class="node">
<title>Node32</title>
<g id="a_node32"><a xlink:href="Vectors_8hpp.html" target="_top" xlink:title=" ">
<polygon fill="white" stroke="#666666" points="2078.65,-74 1986.65,-74 1986.65,-55 2078.65,-55 2078.65,-74"/>
<text text-anchor="middle" x="2032.65" y="-62" font-family="Helvetica,sans-Serif" font-size="10.00">Utils/Vectors.hpp</text>
</a>
</g>
</g>
<!-- Node28&#45;&gt;Node32 -->
<g id="edge40" class="edge">
<title>Node28&#45;&gt;Node32</title>
<path fill="none" stroke="#63b8ff" d="M2032.65,-109.75C2032.65,-103.27 2032.65,-94.16 2032.65,-85.9"/>
<polygon fill="#63b8ff" stroke="#63b8ff" points="2036.15,-85.96 2032.65,-75.96 2029.15,-85.96 2036.15,-85.96"/>
</g>
<!-- Node32&#45;&gt;Node10 -->
<g id="edge41" class="edge">
<title>Node32&#45;&gt;Node10</title>
<path fill="none" stroke="#63b8ff" d="M2010.09,-54.51C1988.75,-46.01 1956.49,-33.15 1932.34,-23.53"/>
<polygon fill="#63b8ff" stroke="#63b8ff" points="1933.87,-20.37 1923.29,-19.92 1931.28,-26.87 1933.87,-20.37"/>
</g>
<!-- Node32&#45;&gt;Node15 -->
<g id="edge44" class="edge">
<title>Node32&#45;&gt;Node15</title>
<path fill="none" stroke="#63b8ff" d="M1989.9,-54.51C1940.28,-44.07 1859.46,-27.07 1814.16,-17.55"/>
<polygon fill="#63b8ff" stroke="#63b8ff" points="1814.9,-14.13 1804.39,-15.49 1813.46,-20.98 1814.9,-14.13"/>
</g>
<!-- Node32&#45;&gt;Node29 -->
<g id="edge42" class="edge">
<title>Node32&#45;&gt;Node29</title>
<path fill="none" stroke="#63b8ff" d="M2046.73,-54.51C2059.21,-46.54 2077.67,-34.75 2092.34,-25.38"/>
<polygon fill="#63b8ff" stroke="#63b8ff" points="2093.96,-28.5 2100.5,-20.17 2090.19,-22.6 2093.96,-28.5"/>
</g>
<!-- Node32&#45;&gt;Node30 -->
<g id="edge43" class="edge">
<title>Node32&#45;&gt;Node30</title>
<path fill="none" stroke="#63b8ff" d="M2060.13,-54.51C2089.11,-45.03 2134.63,-30.14 2164.55,-20.35"/>
<polygon fill="#63b8ff" stroke="#63b8ff" points="2165.34,-23.77 2173.76,-17.34 2163.16,-17.12 2165.34,-23.77"/>
</g>
<!-- Node32&#45;&gt;Node31 -->
<g id="edge45" class="edge">
<title>Node32&#45;&gt;Node31</title>
<path fill="none" stroke="#63b8ff" d="M2033.81,-54.75C2034.67,-48.19 2035.89,-38.95 2037,-30.6"/>
<polygon fill="#63b8ff" stroke="#63b8ff" points="2040.43,-31.31 2038.27,-20.94 2033.49,-30.4 2040.43,-31.31"/>
</g>
<!-- Node33&#45;&gt;Node10 -->
<g id="edge47" class="edge">
<title>Node33&#45;&gt;Node10</title>
<path fill="none" stroke="#63b8ff" d="M1890.47,-54.75C1891.83,-48.19 1893.75,-38.95 1895.48,-30.6"/>
<polygon fill="#63b8ff" stroke="#63b8ff" points="1898.88,-31.43 1897.49,-20.92 1892.03,-30 1898.88,-31.43"/>
</g>
<!-- Node33&#45;&gt;Node15 -->
<g id="edge49" class="edge">
<title>Node33&#45;&gt;Node15</title>
<path fill="none" stroke="#63b8ff" d="M1870.33,-54.51C1853.47,-46.24 1828.22,-33.84 1808.8,-24.31"/>
<polygon fill="#63b8ff" stroke="#63b8ff" points="1810.58,-21.29 1800.06,-20.02 1807.5,-27.57 1810.58,-21.29"/>
</g>
<!-- Node33&#45;&gt;Node21 -->
<g id="edge48" class="edge">
<title>Node33&#45;&gt;Node21</title>
<path fill="none" stroke="#63b8ff" d="M1902.73,-54.51C1915.21,-46.54 1933.67,-34.75 1948.34,-25.38"/>
<polygon fill="#63b8ff" stroke="#63b8ff" points="1949.96,-28.5 1956.5,-20.17 1946.19,-22.6 1949.96,-28.5"/>
</g>
<!-- Node34&#45;&gt;Node22 -->
<g id="edge61" class="edge">
<title>Node34&#45;&gt;Node22</title>
<path fill="none" stroke="#63b8ff" d="M2192.66,-164.74C2216.41,-138.76 2286.73,-61.83 2318.17,-27.44"/>
<polygon fill="#63b8ff" stroke="#63b8ff" points="2320.42,-30.17 2324.58,-20.42 2315.25,-25.44 2320.42,-30.17"/>
</g>
<!-- Node35 -->
<g id="node35" class="node">
<title>Node35</title>
<g id="a_node35"><a xlink:href="States_8hpp.html" target="_top" xlink:title=" ">
<polygon fill="white" stroke="#666666" points="2373.15,-129 2254.15,-129 2254.15,-110 2373.15,-110 2373.15,-129"/>
<text text-anchor="middle" x="2313.65" y="-117" font-family="Helvetica,sans-Serif" font-size="10.00">gameStates/States.hpp</text>
</a>
</g>
</g>
<!-- Node34&#45;&gt;Node35 -->
<g id="edge51" class="edge">
<title>Node34&#45;&gt;Node35</title>
<path fill="none" stroke="#63b8ff" d="M2206.54,-164.51C2227.14,-156.04 2258.24,-143.27 2281.63,-133.66"/>
<polygon fill="#63b8ff" stroke="#63b8ff" points="2282.77,-136.97 2290.69,-129.93 2280.11,-130.5 2282.77,-136.97"/>
</g>
<!-- Node35&#45;&gt;Node1 -->
<g id="edge53" class="edge">
<title>Node35&#45;&gt;Node1</title>
<path fill="none" stroke="#63b8ff" d="M2309.74,-129.37C2304.1,-141.87 2293.1,-165.24 2281.65,-184 2265.91,-209.8 2262.65,-217.26 2241.65,-239 2231.8,-249.2 2220.03,-259.13 2208.93,-267.71"/>
<polygon fill="#63b8ff" stroke="#63b8ff" points="2206.91,-264.85 2201.03,-273.66 2211.12,-270.44 2206.91,-264.85"/>
</g>
<!-- Node35&#45;&gt;Node2 -->
<g id="edge52" class="edge">
<title>Node35&#45;&gt;Node2</title>
<path fill="none" stroke="#63b8ff" d="M2308.65,-129.24C2300.04,-143.39 2280.97,-171.04 2256.65,-184 2212.76,-207.4 2074.66,-219.9 1996.68,-225.26"/>
<polygon fill="#63b8ff" stroke="#63b8ff" points="1996.88,-221.74 1987.13,-225.9 1997.34,-228.72 1996.88,-221.74"/>
</g>
<!-- Node36 -->
<g id="node36" class="node">
<title>Node36</title>
<g id="a_node36"><a xlink:href="SGamePlay_8hpp.html" target="_top" xlink:title=" ">
<polygon fill="white" stroke="#666666" points="2444.65,-74 2358.65,-74 2358.65,-55 2444.65,-55 2444.65,-74"/>
<text text-anchor="middle" x="2401.65" y="-62" font-family="Helvetica,sans-Serif" font-size="10.00">SGamePlay.hpp</text>
</a>
</g>
</g>
<!-- Node35&#45;&gt;Node36 -->
<g id="edge54" class="edge">
<title>Node35&#45;&gt;Node36</title>
<path fill="none" stroke="#63b8ff" d="M2328.58,-109.51C2341.94,-101.47 2361.76,-89.53 2377.39,-80.11"/>
<polygon fill="#63b8ff" stroke="#63b8ff" points="2378.89,-83.3 2385.65,-75.14 2375.28,-77.3 2378.89,-83.3"/>
</g>
<!-- Node36&#45;&gt;Node2 -->
<g id="edge55" class="edge">
<title>Node36&#45;&gt;Node2</title>
<path fill="none" stroke="#63b8ff" d="M2401.11,-74.27C2399.88,-87.5 2395.84,-112.73 2382.65,-129 2350.46,-168.7 2330.26,-168.19 2281.65,-184 2184.65,-215.54 2065.19,-224.8 1996.79,-227.47"/>
<polygon fill="#63b8ff" stroke="#63b8ff" points="1996.83,-223.96 1986.96,-227.81 1997.07,-230.96 1996.83,-223.96"/>
</g>
<!-- Node36&#45;&gt;Node22 -->
<g id="edge56" class="edge">
<title>Node36&#45;&gt;Node22</title>
<path fill="none" stroke="#63b8ff" d="M2390.12,-54.51C2380.19,-46.77 2365.64,-35.43 2353.8,-26.2"/>
<polygon fill="#63b8ff" stroke="#63b8ff" points="2356.25,-23.68 2346.21,-20.29 2351.95,-29.2 2356.25,-23.68"/>
</g>
<!-- Node36&#45;&gt;Node23 -->
<g id="edge60" class="edge">
<title>Node36&#45;&gt;Node23</title>
<path fill="none" stroke="#63b8ff" d="M2378.07,-54.51C2355.67,-45.97 2321.75,-33.03 2296.47,-23.4"/>
<polygon fill="#63b8ff" stroke="#63b8ff" points="2297.89,-20.19 2287.3,-19.9 2295.39,-26.73 2297.89,-20.19"/>
</g>
<!-- Node36&#45;&gt;Node30 -->
<g id="edge57" class="edge">
<title>Node36&#45;&gt;Node30</title>
<path fill="none" stroke="#63b8ff" d="M2363.09,-54.52C2329.09,-46.46 2277.94,-34.02 2224.88,-19.51"/>
<polygon fill="#63b8ff" stroke="#63b8ff" points="2225.92,-16.17 2215.35,-16.88 2224.06,-22.92 2225.92,-16.17"/>
</g>
<!-- Node37 -->
<g id="node37" class="node">
<title>Node37</title>
<g id="a_node37"><a xlink:title=" ">
<polygon fill="#e0e0e0" stroke="#999999" points="2419.15,-19 2378.15,-19 2378.15,0 2419.15,0 2419.15,-19"/>
<text text-anchor="middle" x="2398.65" y="-7" font-family="Helvetica,sans-Serif" font-size="10.00">string</text>
</a>
</g>
</g>
<!-- Node36&#45;&gt;Node37 -->
<g id="edge58" class="edge">
<title>Node36&#45;&gt;Node37</title>
<path fill="none" stroke="#63b8ff" d="M2401.16,-54.75C2400.79,-48.27 2400.27,-39.16 2399.81,-30.9"/>
<polygon fill="#63b8ff" stroke="#63b8ff" points="2403.3,-30.74 2399.24,-20.95 2396.31,-31.13 2403.3,-30.74"/>
</g>
<!-- Node38 -->
<g id="node38" class="node">
<title>Node38</title>
<g id="a_node38"><a xlink:title=" ">
<polygon fill="#e0e0e0" stroke="#999999" points="2483.65,-19 2437.65,-19 2437.65,0 2483.65,0 2483.65,-19"/>
<text text-anchor="middle" x="2460.65" y="-7" font-family="Helvetica,sans-Serif" font-size="10.00">cstring</text>
</a>
</g>
</g>
<!-- Node36&#45;&gt;Node38 -->
<g id="edge59" class="edge">
<title>Node36&#45;&gt;Node38</title>
<path fill="none" stroke="#63b8ff" d="M2411.66,-54.51C2420.02,-47 2432.15,-36.1 2442.25,-27.03"/>
<polygon fill="#63b8ff" stroke="#63b8ff" points="2444.57,-29.66 2449.67,-20.37 2439.89,-24.45 2444.57,-29.66"/>
</g>
<!-- Node39&#45;&gt;Node4 -->
<g id="edge64" class="edge">
<title>Node39&#45;&gt;Node4</title>
<path fill="none" stroke="#63b8ff" d="M152.11,-169.47C321.25,-159.52 757.01,-133.89 920.98,-124.25"/>
<polygon fill="#63b8ff" stroke="#63b8ff" points="921.02,-127.75 930.8,-123.67 920.61,-120.76 921.02,-127.75"/>
</g>
<!-- Node39&#45;&gt;Node15 -->
<g id="edge67" class="edge">
<title>Node39&#45;&gt;Node15</title>
<path fill="none" stroke="#63b8ff" d="M87.39,-164.81C97.83,-141.78 129.78,-79.3 178.65,-55 251.32,-18.87 1522.38,-11.63 1746.9,-10.64"/>
<polygon fill="#63b8ff" stroke="#63b8ff" points="1746.72,-14.14 1756.71,-10.59 1746.69,-7.14 1746.72,-14.14"/>
</g>
<!-- Node39&#45;&gt;Node25 -->
<g id="edge65" class="edge">
<title>Node39&#45;&gt;Node25</title>
<path fill="none" stroke="#63b8ff" d="M82.56,-164.65C80.4,-142.83 78.09,-85.97 107.65,-55 124.04,-37.83 181.86,-25.52 227.01,-18.26"/>
<polygon fill="#63b8ff" stroke="#63b8ff" points="227.34,-21.75 236.68,-16.75 226.27,-14.83 227.34,-21.75"/>
</g>
<!-- Node39&#45;&gt;Node26 -->
<g id="edge66" class="edge">
<title>Node39&#45;&gt;Node26</title>
<path fill="none" stroke="#63b8ff" d="M53.39,-164.5C25.56,-154.42 -9.65,-136.01 2.65,-110 25.03,-62.67 82.32,-34.79 119.55,-21.09"/>
<polygon fill="#63b8ff" stroke="#63b8ff" points="120.69,-24.4 128.97,-17.79 118.37,-17.79 120.69,-24.4"/>
</g>
<!-- Node40 -->
<g id="node40" class="node">
<title>Node40</title>
<g id="a_node40"><a xlink:title=" ">
<polygon fill="#e0e0e0" stroke="#999999" points="55.65,-129 11.65,-129 11.65,-110 55.65,-110 55.65,-129"/>
<text text-anchor="middle" x="33.65" y="-117" font-family="Helvetica,sans-Serif" font-size="10.00">cmath</text>
</a>
</g>
</g>
<!-- Node39&#45;&gt;Node40 -->
<g id="edge68" class="edge">
<title>Node39&#45;&gt;Node40</title>
<path fill="none" stroke="#63b8ff" d="M75.4,-164.75C68.49,-157.43 58.43,-146.76 49.91,-137.74"/>
<polygon fill="#63b8ff" stroke="#63b8ff" points="52.53,-135.42 43.13,-130.54 47.44,-140.22 52.53,-135.42"/>
</g>
<!-- Node41&#45;&gt;Node4 -->
<g id="edge70" class="edge">
<title>Node41&#45;&gt;Node4</title>
<path fill="none" stroke="#63b8ff" d="M2108.97,-222.88C1905.16,-204.32 1254.57,-145.08 1048.14,-126.28"/>
<polygon fill="#63b8ff" stroke="#63b8ff" points="1048.7,-122.82 1038.42,-125.4 1048.06,-129.79 1048.7,-122.82"/>
</g>
<!-- Node42 -->
<g id="node42" class="node">
<title>Node42</title>
<g id="a_node42"><a xlink:title=" ">
<polygon fill="#e0e0e0" stroke="#999999" points="2489.15,-184 2430.15,-184 2430.15,-165 2489.15,-165 2489.15,-184"/>
<text text-anchor="middle" x="2459.65" y="-172" font-family="Helvetica,sans-Serif" font-size="10.00">functional</text>
</a>
</g>
</g>
<!-- Node41&#45;&gt;Node42 -->
<g id="edge71" class="edge">
<title>Node41&#45;&gt;Node42</title>
<path fill="none" stroke="#63b8ff" d="M2220.89,-219.54C2270.43,-210.67 2348.3,-196.62 2415.65,-184 2416.66,-183.81 2417.67,-183.62 2418.7,-183.43"/>
<polygon fill="#63b8ff" stroke="#63b8ff" points="2419.18,-186.9 2428.35,-181.59 2417.87,-180.02 2419.18,-186.9"/>
</g>
</g>
</svg>
        <g id="navigator" transform="translate(0 0)" fill="#404254">
                <rect fill="#f2f5e9" fill-opacity="0.5" stroke="#606060" stroke-width=".5" x="0" y="0" width="60" height="60"/>
                <use id="zoomplus" xlink:href="#zoomPlus" x="17" y="9" onmousedown="handleZoom(evt,'in')"/>
                <use id="zoomminus" xlink:href="#zoomMin" x="42" y="9" onmousedown="handleZoom(evt,'out')"/>
                <use id="reset" xlink:href="#resetDef" x="30" y="36" onmousedown="handleReset()"/>
                <g id="arrowUp" xlink:href="#dirArrow" transform="translate(30 24)" onmousedown="handlePan(0,-1)">
                  <use xlink:href="#rim" fill="#404040">
                        <set attributeName="fill" to="#808080" begin="arrowUp.mouseover" end="arrowUp.mouseout"/>
                  </use>
                  <path fill="none" stroke="white" stroke-width="1.5" d="M0,-3.0v7 M-2.5,-0.5L0,-3.0L2.5,-0.5"/>
                </g>
                <g id="arrowRight" xlink:href="#dirArrow" transform="rotate(90) translate(36 -43)" onmousedown="handlePan(1,0)">
                  <use xlink:href="#rim" fill="#404040">
                        <set attributeName="fill" to="#808080" begin="arrowRight.mouseover" end="arrowRight.mouseout"/>
                  </use>
                  <path fill="none" stroke="white" stroke-width="1.5" d="M0,-3.0v7 M-2.5,-0.5L0,-3.0L2.5,-0.5"/>
                </g>
                <g id="arrowDown" xlink:href="#dirArrow" transform="rotate(180) translate(-30 -48)" onmousedown="handlePan(0,1)">
                  <use xlink:href="#rim" fill="#404040">
                        <set attributeName="fill" to="#808080" begin="arrowDown.mouseover" end="arrowDown.mouseout"/>
                  </use>
                  <path fill="none" stroke="white" stroke-width="1.5" d="M0,-3.0v7 M-2.5,-0.5L0,-3.0L2.5,-0.5"/>
                </g>
                <g id="arrowLeft" xlink:href="#dirArrow" transform="rotate(270) translate(-36 17)" onmousedown="handlePan(-1,0)">
                  <use xlink:href="#rim" fill="#404040">
                        <set attributeName="fill" to="#808080" begin="arrowLeft.mouseover" end="arrowLeft.mouseout"/>
                  </use>
                  <path fill="none" stroke="white" stroke-width="1.5" d="M0,-3.0v7 M-2.5,-0.5L0,-3.0L2.5,-0.5"/>
                </g>
        </g>
        <svg viewBox="0 0 15 15" width="100%" height="30px" preserveAspectRatio="xMaxYMin meet">
         <g id="arrow_out" transform="scale(0.3 0.3)">
          <a xlink:href="SMenu_8hpp__incl_org.svg" target="_base">
           <rect id="button" ry="5" rx="5" y="6" x="6" height="38" width="38"
                fill="#f2f5e9" fill-opacity="0.5" stroke="#606060" stroke-width="1.0"/>
           <path id="arrow"
             d="M 11.500037,31.436501 C 11.940474,20.09759 22.043105,11.32322 32.158766,21.979434 L 37.068811,17.246167 C 37.068811,17.246167 37.088388,32 37.088388,32 L 22.160133,31.978069 C 22.160133,31.978069 26.997745,27.140456 26.997745,27.140456 C 18.528582,18.264221 13.291696,25.230495 11.500037,31.436501 z"
             style="fill:#404040;"/>
          </a>
         </g>
        </svg>
</svg>
