<?xml version="1.0" encoding="UTF-8" standalone="no"?>
<!DOCTYPE svg PUBLIC "-//W3C//DTD SVG 1.1//EN"
 "http://www.w3.org/Graphics/SVG/1.1/DTD/svg11.dtd">
<!-- Generated by graphviz version 7.0.5 (20221223.1930)
 -->
<!-- Title: /github/workspace/client/include/system/gameStates/Example/SMenu_Duck.hpp Pages: 1 -->
<!--zoomable 489 -->
<svg id="main" version="1.1" xmlns="http://www.w3.org/2000/svg" xmlns:xlink="http://www.w3.org/1999/xlink" xml:space="preserve" onload="init(evt)">
<style type="text/css"><![CDATA[
.edge:hover path { stroke: red; }
.edge:hover polygon { stroke: red; fill: red; }
]]></style>
<script type="text/javascript"><![CDATA[
var edges = document.getElementsByTagName('g');
if (edges && edges.length) {
  for (var i=0;i<edges.length;i++) {
    if (edges[i].id.substr(0,4)=='edge') {
      edges[i].setAttribute('class','edge');
    }
  }
}
]]></script>
        <defs>
                <circle id="rim" cx="0" cy="0" r="7"/>
                <circle id="rim2" cx="0" cy="0" r="3.5"/>
                <g id="zoomPlus">
                        <use xlink:href="#rim" fill="#404040">
                                <set attributeName="fill" to="#808080" begin="zoomplus.mouseover" end="zoomplus.mouseout"/>
                        </use>
                        <path d="M-4,0h8M0,-4v8" fill="none" stroke="white" stroke-width="1.5" pointer-events="none"/>
                </g>
                <g id="zoomMin">
                        <use xlink:href="#rim" fill="#404040">
                                <set attributeName="fill" to="#808080" begin="zoomminus.mouseover" end="zoomminus.mouseout"/>
                        </use>
                        <path d="M-4,0h8" fill="none" stroke="white" stroke-width="1.5" pointer-events="none"/>
                </g>
                <g id="dirArrow">
                        <path fill="none" stroke="white" stroke-width="1.5" d="M0,-3.0v7 M-2.5,-0.5L0,-3.0L2.5,-0.5"/>
                </g>
               <g id="resetDef">
                       <use xlink:href="#rim2" fill="#404040">
                               <set attributeName="fill" to="#808080" begin="reset.mouseover" end="reset.mouseout"/>
                       </use>
               </g>
        </defs>

<script type="text/javascript">
var viewWidth = 2290;
var viewHeight = 489;
var sectionId = 'dynsection-0';
</script>
<script xlink:href="svgpan.js"/>
<svg id="graph" class="graph">
<g id="viewport">
<title>/github/workspace/client/include/system/gameStates/Example/SMenu_Duck.hpp</title>
<!-- Node1 -->
<g id="node1" class="node">
<title>Node1</title>
<g id="a_node1"><a xlink:title=" ">
<polygon fill="#999999" stroke="#666666" points="707,-481 567,-481 567,-440 707,-440 707,-481"/>
<text text-anchor="start" x="575" y="-469" font-family="Helvetica,sans-Serif" font-size="10.00">/github/workspace/client</text>
<text text-anchor="start" x="575" y="-458" font-family="Helvetica,sans-Serif" font-size="10.00">/include/system/gameStates</text>
<text text-anchor="middle" x="637" y="-447" font-family="Helvetica,sans-Serif" font-size="10.00">/Example/SMenu_Duck.hpp</text>
</a>
</g>
</g>
<!-- Node2 -->
<g id="node2" class="node">
<title>Node2</title>
<g id="a_node2"><a xlink:href="IGameState_8hpp.html" target="_top" xlink:title=" ">
<polygon fill="white" stroke="#666666" points="917.5,-404 830.5,-404 830.5,-385 917.5,-385 917.5,-404"/>
<text text-anchor="middle" x="874" y="-392" font-family="Helvetica,sans-Serif" font-size="10.00">IGameState.hpp</text>
</a>
</g>
</g>
<!-- Node1&#45;&gt;Node2 -->
<g id="edge1" class="edge">
<title>Node1&#45;&gt;Node2</title>
<path fill="none" stroke="#63b8ff" d="M707.47,-440.47C747.06,-429.78 795.27,-416.76 829.61,-407.49"/>
<polygon fill="#63b8ff" stroke="#63b8ff" points="830.49,-410.88 839.23,-404.89 828.66,-404.12 830.49,-410.88"/>
</g>
<!-- Node34 -->
<g id="node34" class="node">
<title>Node34</title>
<g id="a_node34"><a xlink:href="Bouton_8hpp.html" target="_top" xlink:title=" ">
<polygon fill="white" stroke="#666666" points="829.5,-184 706.5,-184 706.5,-165 829.5,-165 829.5,-184"/>
<text text-anchor="middle" x="768" y="-172" font-family="Helvetica,sans-Serif" font-size="10.00">Components/Bouton.hpp</text>
</a>
</g>
</g>
<!-- Node1&#45;&gt;Node34 -->
<g id="edge72" class="edge">
<title>Node1&#45;&gt;Node34</title>
<path fill="none" stroke="#63b8ff" d="M566.67,-450.54C462.92,-435.32 281,-400.13 281,-340.5 281,-340.5 281,-340.5 281,-283.5 281,-199.69 559.4,-180.87 695.21,-176.68"/>
<polygon fill="#63b8ff" stroke="#63b8ff" points="694.91,-180.19 704.81,-176.41 694.71,-173.2 694.91,-180.19"/>
</g>
<!-- Node3 -->
<g id="node3" class="node">
<title>Node3</title>
<g id="a_node3"><a xlink:href="EntitiesManager_8hpp.html" target="_top" xlink:title=" ">
<polygon fill="white" stroke="#666666" points="1213,-239 1073,-239 1073,-220 1213,-220 1213,-239"/>
<text text-anchor="middle" x="1143" y="-227" font-family="Helvetica,sans-Serif" font-size="10.00">Entities/EntitiesManager.hpp</text>
</a>
</g>
</g>
<!-- Node2&#45;&gt;Node3 -->
<g id="edge2" class="edge">
<title>Node2&#45;&gt;Node3</title>
<path fill="none" stroke="#63b8ff" d="M888.85,-384.5C933.03,-357.73 1063.99,-278.37 1118.63,-245.27"/>
<polygon fill="#63b8ff" stroke="#63b8ff" points="1120.17,-248.43 1126.91,-240.25 1116.54,-242.44 1120.17,-248.43"/>
</g>
<!-- Node24 -->
<g id="node24" class="node">
<title>Node24</title>
<g id="a_node24"><a xlink:href="Background_8hpp.html" target="_top" xlink:title=" ">
<polygon fill="white" stroke="#666666" points="1747,-74 1603,-74 1603,-55 1747,-55 1747,-74"/>
<text text-anchor="middle" x="1675" y="-62" font-family="Helvetica,sans-Serif" font-size="10.00">Components/Background.hpp</text>
</a>
</g>
</g>
<!-- Node2&#45;&gt;Node24 -->
<g id="edge65" class="edge">
<title>Node2&#45;&gt;Node24</title>
<path fill="none" stroke="#63b8ff" d="M917.92,-392.24C1085.46,-386.88 1675,-362.54 1675,-285.5 1675,-285.5 1675,-285.5 1675,-173.5 1675,-142.92 1675,-107.48 1675,-85.77"/>
<polygon fill="#63b8ff" stroke="#63b8ff" points="1678.5,-85.97 1675,-75.97 1671.5,-85.97 1678.5,-85.97"/>
</g>
<!-- Node30 -->
<g id="node30" class="node">
<title>Node30</title>
<g id="a_node30"><a xlink:href="String_8hpp.html" target="_top" xlink:title=" ">
<polygon fill="white" stroke="#666666" points="2224.5,-129 2141.5,-129 2141.5,-110 2224.5,-110 2224.5,-129"/>
<text text-anchor="middle" x="2183" y="-117" font-family="Helvetica,sans-Serif" font-size="10.00">Utils/String.hpp</text>
</a>
</g>
</g>
<!-- Node2&#45;&gt;Node30 -->
<g id="edge43" class="edge">
<title>Node2&#45;&gt;Node30</title>
<path fill="none" stroke="#63b8ff" d="M917.73,-392.22C1144.58,-385.28 2177,-350.16 2177,-285.5 2177,-285.5 2177,-285.5 2177,-228.5 2177,-197.88 2179.43,-162.44 2181.2,-140.75"/>
<polygon fill="#63b8ff" stroke="#63b8ff" points="2184.68,-141.22 2182.04,-130.96 2177.7,-140.63 2184.68,-141.22"/>
</g>
<!-- Node31 -->
<g id="node31" class="node">
<title>Node31</title>
<g id="a_node31"><a xlink:href="GameEngine_8hpp.html" target="_top" xlink:title=" ">
<polygon fill="white" stroke="#666666" points="807.5,-349 682.5,-349 682.5,-330 807.5,-330 807.5,-349"/>
<text text-anchor="middle" x="745" y="-337" font-family="Helvetica,sans-Serif" font-size="10.00">system/GameEngine.hpp</text>
</a>
</g>
</g>
<!-- Node2&#45;&gt;Node31 -->
<g id="edge47" class="edge">
<title>Node2&#45;&gt;Node31</title>
<path fill="none" stroke="#63b8ff" d="M852.12,-384.51C831.51,-376.04 800.41,-363.27 777.02,-353.66"/>
<polygon fill="#63b8ff" stroke="#63b8ff" points="778.54,-350.5 767.96,-349.93 775.88,-356.97 778.54,-350.5"/>
</g>
<!-- Node41 -->
<g id="node41" class="node">
<title>Node41</title>
<g id="a_node41"><a xlink:href="Centipede_8hpp.html" target="_top" xlink:title=" ">
<polygon fill="white" stroke="#666666" points="2137,-184 2001,-184 2001,-165 2137,-165 2137,-184"/>
<text text-anchor="middle" x="2069" y="-172" font-family="Helvetica,sans-Serif" font-size="10.00">Components/Centipede.hpp</text>
</a>
</g>
</g>
<!-- Node2&#45;&gt;Node41 -->
<g id="edge66" class="edge">
<title>Node2&#45;&gt;Node41</title>
<path fill="none" stroke="#63b8ff" d="M917.86,-393.25C1065.12,-392.08 1540.83,-385.48 1689,-349 1831.86,-313.82 1986.94,-225.44 2045.15,-190.27"/>
<polygon fill="#63b8ff" stroke="#63b8ff" points="2046.86,-193.33 2053.58,-185.14 2043.22,-187.35 2046.86,-193.33"/>
</g>
<!-- Node4 -->
<g id="node4" class="node">
<title>Node4</title>
<g id="a_node4"><a xlink:href="Engine_8hpp.html" target="_top" xlink:title=" ">
<polygon fill="white" stroke="#666666" points="1191,-129 1095,-129 1095,-110 1191,-110 1191,-129"/>
<text text-anchor="middle" x="1143" y="-117" font-family="Helvetica,sans-Serif" font-size="10.00">Engine/Engine.hpp</text>
</a>
</g>
</g>
<!-- Node3&#45;&gt;Node4 -->
<g id="edge3" class="edge">
<title>Node3&#45;&gt;Node4</title>
<path fill="none" stroke="#63b8ff" d="M1139.09,-219.66C1135.89,-202.5 1135.39,-164.26 1137.61,-140.6"/>
<polygon fill="#63b8ff" stroke="#63b8ff" points="1141.04,-141.33 1138.87,-130.96 1134.1,-140.42 1141.04,-141.33"/>
</g>
<!-- Node22 -->
<g id="node22" class="node">
<title>Node22</title>
<g id="a_node22"><a xlink:href="IComponents_8hpp.html" target="_top" xlink:title=" ">
<polygon fill="white" stroke="#666666" points="1695,-19 1603,-19 1603,0 1695,0 1695,-19"/>
<text text-anchor="middle" x="1649" y="-7" font-family="Helvetica,sans-Serif" font-size="10.00">IComponents.hpp</text>
</a>
</g>
</g>
<!-- Node3&#45;&gt;Node22 -->
<g id="edge30" class="edge">
<title>Node3&#45;&gt;Node22</title>
<path fill="none" stroke="#63b8ff" d="M1213.41,-221.44C1359.87,-205.14 1689.3,-159.6 1756,-74 1775.01,-49.6 1739.28,-32.63 1704.1,-22.41"/>
<polygon fill="#63b8ff" stroke="#63b8ff" points="1705.29,-19.11 1694.72,-19.85 1703.45,-25.86 1705.29,-19.11"/>
</g>
<!-- Node25 -->
<g id="node25" class="node">
<title>Node25</title>
<g id="a_node25"><a xlink:href="SparseArray_8hpp.html" target="_top" xlink:title=" ">
<polygon fill="white" stroke="#666666" points="1918.5,-184 1807.5,-184 1807.5,-165 1918.5,-165 1918.5,-184"/>
<text text-anchor="middle" x="1863" y="-172" font-family="Helvetica,sans-Serif" font-size="10.00">Utils/SparseArray.hpp</text>
</a>
</g>
</g>
<!-- Node3&#45;&gt;Node25 -->
<g id="edge31" class="edge">
<title>Node3&#45;&gt;Node25</title>
<path fill="none" stroke="#63b8ff" d="M1213.35,-223.32C1352.08,-213.11 1659.3,-190.49 1795.6,-180.46"/>
<polygon fill="#63b8ff" stroke="#63b8ff" points="1795.85,-183.95 1805.57,-179.73 1795.34,-176.97 1795.85,-183.95"/>
</g>
<!-- Node4&#45;&gt;Node3 -->
<g id="edge22" class="edge">
<title>Node4&#45;&gt;Node3</title>
<path fill="none" stroke="#63b8ff" d="M1146.93,-129.46C1150.12,-146.73 1150.6,-184.98 1148.38,-208.57"/>
<polygon fill="#63b8ff" stroke="#63b8ff" points="1144.95,-207.79 1147.11,-218.16 1151.89,-208.71 1144.95,-207.79"/>
</g>
<!-- Node5 -->
<g id="node5" class="node">
<title>Node5</title>
<g id="a_node5"><a xlink:title=" ">
<polygon fill="#e0e0e0" stroke="#999999" points="1216.5,-74 1127.5,-74 1127.5,-55 1216.5,-55 1216.5,-74"/>
<text text-anchor="middle" x="1172" y="-62" font-family="Helvetica,sans-Serif" font-size="10.00">SFML/Audio.hpp</text>
</a>
</g>
</g>
<!-- Node4&#45;&gt;Node5 -->
<g id="edge4" class="edge">
<title>Node4&#45;&gt;Node5</title>
<path fill="none" stroke="#63b8ff" d="M1147.79,-109.75C1151.54,-102.88 1156.91,-93.08 1161.63,-84.45"/>
<polygon fill="#63b8ff" stroke="#63b8ff" points="1164.65,-86.22 1166.38,-75.77 1158.51,-82.86 1164.65,-86.22"/>
</g>
<!-- Node6 -->
<g id="node6" class="node">
<title>Node6</title>
<g id="a_node6"><a xlink:title=" ">
<polygon fill="#e0e0e0" stroke="#999999" points="1339,-74 1235,-74 1235,-55 1339,-55 1339,-74"/>
<text text-anchor="middle" x="1287" y="-62" font-family="Helvetica,sans-Serif" font-size="10.00">SFML/Graphics.hpp</text>
</a>
</g>
</g>
<!-- Node4&#45;&gt;Node6 -->
<g id="edge5" class="edge">
<title>Node4&#45;&gt;Node6</title>
<path fill="none" stroke="#63b8ff" d="M1167.43,-109.51C1190.74,-100.93 1226.09,-87.92 1252.31,-78.27"/>
<polygon fill="#63b8ff" stroke="#63b8ff" points="1253.34,-81.62 1261.51,-74.88 1250.92,-75.05 1253.34,-81.62"/>
</g>
<!-- Node7 -->
<g id="node7" class="node">
<title>Node7</title>
<g id="a_node7"><a xlink:title=" ">
<polygon fill="#e0e0e0" stroke="#999999" points="765.5,-74 664.5,-74 664.5,-55 765.5,-55 765.5,-74"/>
<text text-anchor="middle" x="715" y="-62" font-family="Helvetica,sans-Serif" font-size="10.00">SFML/Network.hpp</text>
</a>
</g>
</g>
<!-- Node4&#45;&gt;Node7 -->
<g id="edge6" class="edge">
<title>Node4&#45;&gt;Node7</title>
<path fill="none" stroke="#63b8ff" d="M1094.6,-113.02C1026.18,-105.2 896.95,-90.14 777.04,-74.38"/>
<polygon fill="#63b8ff" stroke="#63b8ff" points="777.71,-70.94 767.34,-73.1 776.8,-77.88 777.71,-70.94"/>
</g>
<!-- Node8 -->
<g id="node8" class="node">
<title>Node8</title>
<g id="a_node8"><a xlink:title=" ">
<polygon fill="#e0e0e0" stroke="#999999" points="882.5,-74 783.5,-74 783.5,-55 882.5,-55 882.5,-74"/>
<text text-anchor="middle" x="833" y="-62" font-family="Helvetica,sans-Serif" font-size="10.00">SFML/Window.hpp</text>
</a>
</g>
</g>
<!-- Node4&#45;&gt;Node8 -->
<g id="edge7" class="edge">
<title>Node4&#45;&gt;Node8</title>
<path fill="none" stroke="#63b8ff" d="M1094.56,-110.22C1040.52,-100.98 952.99,-86.01 894.24,-75.97"/>
<polygon fill="#63b8ff" stroke="#63b8ff" points="894.83,-72.52 884.38,-74.29 893.65,-79.42 894.83,-72.52"/>
</g>
<!-- Node9 -->
<g id="node9" class="node">
<title>Node9</title>
<g id="a_node9"><a xlink:title=" ">
<polygon fill="#e0e0e0" stroke="#999999" points="999,-74 901,-74 901,-55 999,-55 999,-74"/>
<text text-anchor="middle" x="950" y="-62" font-family="Helvetica,sans-Serif" font-size="10.00">SFML/System.hpp</text>
</a>
</g>
</g>
<!-- Node4&#45;&gt;Node9 -->
<g id="edge8" class="edge">
<title>Node4&#45;&gt;Node9</title>
<path fill="none" stroke="#63b8ff" d="M1110.26,-109.51C1078.14,-100.69 1028.96,-87.18 993.55,-77.46"/>
<polygon fill="#63b8ff" stroke="#63b8ff" points="994.61,-74.12 984.04,-74.85 992.75,-80.87 994.61,-74.12"/>
</g>
<!-- Node10 -->
<g id="node10" class="node">
<title>Node10</title>
<g id="a_node10"><a xlink:title=" ">
<polygon fill="#e0e0e0" stroke="#999999" points="1913,-74 1859,-74 1859,-55 1913,-55 1913,-74"/>
<text text-anchor="middle" x="1886" y="-62" font-family="Helvetica,sans-Serif" font-size="10.00">iostream</text>
</a>
</g>
</g>
<!-- Node4&#45;&gt;Node10 -->
<g id="edge9" class="edge">
<title>Node4&#45;&gt;Node10</title>
<path fill="none" stroke="#63b8ff" d="M1191.3,-118.26C1304.45,-117.11 1595.57,-110.67 1847.37,-74.13"/>
<polygon fill="#63b8ff" stroke="#63b8ff" points="1847.69,-77.62 1857.08,-72.7 1846.67,-70.69 1847.69,-77.62"/>
</g>
<!-- Node11 -->
<g id="node11" class="node">
<title>Node11</title>
<g id="a_node11"><a xlink:title=" ">
<polygon fill="#e0e0e0" stroke="#999999" points="1407,-74 1357,-74 1357,-55 1407,-55 1407,-74"/>
<text text-anchor="middle" x="1382" y="-62" font-family="Helvetica,sans-Serif" font-size="10.00">fstream</text>
</a>
</g>
</g>
<!-- Node4&#45;&gt;Node11 -->
<g id="edge10" class="edge">
<title>Node4&#45;&gt;Node11</title>
<path fill="none" stroke="#63b8ff" d="M1186.28,-109.51C1225.48,-101.29 1285.09,-88.55 1345.82,-74.45"/>
<polygon fill="#63b8ff" stroke="#63b8ff" points="1346.35,-77.92 1355.3,-72.24 1344.76,-71.11 1346.35,-77.92"/>
</g>
<!-- Node12 -->
<g id="node12" class="node">
<title>Node12</title>
<g id="a_node12"><a xlink:title=" ">
<polygon fill="#e0e0e0" stroke="#999999" points="298.5,-74 257.5,-74 257.5,-55 298.5,-55 298.5,-74"/>
<text text-anchor="middle" x="278" y="-62" font-family="Helvetica,sans-Serif" font-size="10.00">string</text>
</a>
</g>
</g>
<!-- Node4&#45;&gt;Node12 -->
<g id="edge11" class="edge">
<title>Node4&#45;&gt;Node12</title>
<path fill="none" stroke="#63b8ff" d="M1094.51,-117.34C943.48,-113.49 481.86,-100.03 309.98,-73.83"/>
<polygon fill="#63b8ff" stroke="#63b8ff" points="310.77,-70.41 300.34,-72.29 309.66,-77.33 310.77,-70.41"/>
</g>
<!-- Node13 -->
<g id="node13" class="node">
<title>Node13</title>
<g id="a_node13"><a xlink:title=" ">
<polygon fill="#e0e0e0" stroke="#999999" points="367,-74 317,-74 317,-55 367,-55 367,-74"/>
<text text-anchor="middle" x="342" y="-62" font-family="Helvetica,sans-Serif" font-size="10.00">unistd.h</text>
</a>
</g>
</g>
<!-- Node4&#45;&gt;Node13 -->
<g id="edge12" class="edge">
<title>Node4&#45;&gt;Node13</title>
<path fill="none" stroke="#63b8ff" d="M1094.69,-116.88C952.58,-111.94 536.59,-96.11 378.52,-74.01"/>
<polygon fill="#63b8ff" stroke="#63b8ff" points="379.04,-70.55 368.64,-72.56 378.03,-77.48 379.04,-70.55"/>
</g>
<!-- Node14 -->
<g id="node14" class="node">
<title>Node14</title>
<g id="a_node14"><a xlink:title=" ">
<polygon fill="#e0e0e0" stroke="#999999" points="450.5,-74 385.5,-74 385.5,-55 450.5,-55 450.5,-74"/>
<text text-anchor="middle" x="418" y="-62" font-family="Helvetica,sans-Serif" font-size="10.00">sys/types.h</text>
</a>
</g>
</g>
<!-- Node4&#45;&gt;Node14 -->
<g id="edge13" class="edge">
<title>Node4&#45;&gt;Node14</title>
<path fill="none" stroke="#63b8ff" d="M1094.75,-117.59C984.47,-115.02 705.37,-105.81 462.13,-74.08"/>
<polygon fill="#63b8ff" stroke="#63b8ff" points="462.82,-70.64 452.44,-72.8 461.9,-77.58 462.82,-70.64"/>
</g>
<!-- Node15 -->
<g id="node15" class="node">
<title>Node15</title>
<g id="a_node15"><a xlink:title=" ">
<polygon fill="#e0e0e0" stroke="#999999" points="2107,-74 2063,-74 2063,-55 2107,-55 2107,-74"/>
<text text-anchor="middle" x="2085" y="-62" font-family="Helvetica,sans-Serif" font-size="10.00">vector</text>
</a>
</g>
</g>
<!-- Node4&#45;&gt;Node15 -->
<g id="edge14" class="edge">
<title>Node4&#45;&gt;Node15</title>
<path fill="none" stroke="#63b8ff" d="M1191.25,-117.54C1351.17,-114.13 1863.79,-101.43 2051.42,-73.96"/>
<polygon fill="#63b8ff" stroke="#63b8ff" points="2051.93,-77.43 2061.28,-72.45 2050.87,-70.51 2051.93,-77.43"/>
</g>
<!-- Node16 -->
<g id="node16" class="node">
<title>Node16</title>
<g id="a_node16"><a xlink:title=" ">
<polygon fill="#e0e0e0" stroke="#999999" points="527,-74 469,-74 469,-55 527,-55 527,-74"/>
<text text-anchor="middle" x="498" y="-62" font-family="Helvetica,sans-Serif" font-size="10.00">exception</text>
</a>
</g>
</g>
<!-- Node4&#45;&gt;Node16 -->
<g id="edge15" class="edge">
<title>Node4&#45;&gt;Node16</title>
<path fill="none" stroke="#63b8ff" d="M1094.74,-117.37C993.45,-114.47 751.16,-104.84 538.75,-74.18"/>
<polygon fill="#63b8ff" stroke="#63b8ff" points="539.28,-70.72 528.88,-72.74 538.26,-77.65 539.28,-70.72"/>
</g>
<!-- Node17 -->
<g id="node17" class="node">
<title>Node17</title>
<g id="a_node17"><a xlink:href="Window_8hpp.html" target="_top" xlink:title=" ">
<polygon fill="white" stroke="#666666" points="646.5,-74 545.5,-74 545.5,-55 646.5,-55 646.5,-74"/>
<text text-anchor="middle" x="596" y="-62" font-family="Helvetica,sans-Serif" font-size="10.00">Engine/Window.hpp</text>
</a>
</g>
</g>
<!-- Node4&#45;&gt;Node17 -->
<g id="edge16" class="edge">
<title>Node4&#45;&gt;Node17</title>
<path fill="none" stroke="#63b8ff" d="M1094.75,-115.32C1007.82,-109.05 819.39,-94.02 658.04,-75.4"/>
<polygon fill="#63b8ff" stroke="#63b8ff" points="658.8,-71.97 648.46,-74.29 657.99,-78.92 658.8,-71.97"/>
</g>
<!-- Node18 -->
<g id="node18" class="node">
<title>Node18</title>
<g id="a_node18"><a xlink:href="Event_8hpp.html" target="_top" xlink:title=" ">
<polygon fill="white" stroke="#666666" points="1109,-74 1017,-74 1017,-55 1109,-55 1109,-74"/>
<text text-anchor="middle" x="1063" y="-62" font-family="Helvetica,sans-Serif" font-size="10.00">Engine/Event.hpp</text>
</a>
</g>
</g>
<!-- Node4&#45;&gt;Node18 -->
<g id="edge18" class="edge">
<title>Node4&#45;&gt;Node18</title>
<path fill="none" stroke="#63b8ff" d="M1124.21,-109.51C1110.78,-101.7 1093.11,-90.21 1080.09,-80.93"/>
<polygon fill="#63b8ff" stroke="#63b8ff" points="1082.53,-78.37 1072.4,-75.26 1078.37,-84.01 1082.53,-78.37"/>
</g>
<!-- Node21 -->
<g id="node21" class="node">
<title>Node21</title>
<g id="a_node21"><a xlink:href="Bullets_8hpp.html" target="_top" xlink:title=" ">
<polygon fill="white" stroke="#666666" points="1585,-74 1463,-74 1463,-55 1585,-55 1585,-74"/>
<text text-anchor="middle" x="1524" y="-62" font-family="Helvetica,sans-Serif" font-size="10.00">Components/Bullets.hpp</text>
</a>
</g>
</g>
<!-- Node4&#45;&gt;Node21 -->
<g id="edge23" class="edge">
<title>Node4&#45;&gt;Node21</title>
<path fill="none" stroke="#63b8ff" d="M1191.13,-111.13C1256.96,-101.64 1375.39,-85.15 1451.84,-74.8"/>
<polygon fill="#63b8ff" stroke="#63b8ff" points="1451.86,-78.33 1461.3,-73.53 1450.92,-71.4 1451.86,-78.33"/>
</g>
<!-- Node4&#45;&gt;Node24 -->
<g id="edge28" class="edge">
<title>Node4&#45;&gt;Node24</title>
<path fill="none" stroke="#63b8ff" d="M1191.45,-113.27C1272.85,-105.06 1441.76,-88.58 1585,-74 1587.16,-73.78 1589.36,-73.56 1591.58,-73.33"/>
<polygon fill="#63b8ff" stroke="#63b8ff" points="1591.71,-76.83 1601.3,-72.33 1591,-69.87 1591.71,-76.83"/>
</g>
<!-- Node17&#45;&gt;Node4 -->
<g id="edge17" class="edge">
<title>Node17&#45;&gt;Node4</title>
<path fill="none" stroke="#63b8ff" d="M646.78,-71.81C652.62,-72.59 658.45,-73.35 664,-74 814.76,-91.72 992.43,-106.36 1083.21,-113.6"/>
<polygon fill="#63b8ff" stroke="#63b8ff" points="1082.89,-117.08 1093.13,-114.39 1083.44,-110.11 1082.89,-117.08"/>
</g>
<!-- Node18&#45;&gt;Node4 -->
<g id="edge19" class="edge">
<title>Node18&#45;&gt;Node4</title>
<path fill="none" stroke="#63b8ff" d="M1081.56,-74.36C1094.94,-82.13 1112.61,-93.61 1125.69,-102.92"/>
<polygon fill="#63b8ff" stroke="#63b8ff" points="1123.3,-105.5 1133.43,-108.61 1127.45,-99.86 1123.3,-105.5"/>
</g>
<!-- Node19 -->
<g id="node19" class="node">
<title>Node19</title>
<g id="a_node19"><a xlink:title=" ">
<polygon fill="#e0e0e0" stroke="#999999" points="1268.5,-19 1239.5,-19 1239.5,0 1268.5,0 1268.5,-19"/>
<text text-anchor="middle" x="1254" y="-7" font-family="Helvetica,sans-Serif" font-size="10.00">list</text>
</a>
</g>
</g>
<!-- Node18&#45;&gt;Node19 -->
<g id="edge20" class="edge">
<title>Node18&#45;&gt;Node19</title>
<path fill="none" stroke="#63b8ff" d="M1095.4,-54.51C1132.91,-44.1 1193.93,-27.17 1228.32,-17.63"/>
<polygon fill="#63b8ff" stroke="#63b8ff" points="1229.13,-21.03 1237.83,-14.99 1227.26,-14.29 1229.13,-21.03"/>
</g>
<!-- Node20 -->
<g id="node20" class="node">
<title>Node20</title>
<g id="a_node20"><a xlink:title=" ">
<polygon fill="#e0e0e0" stroke="#999999" points="250.5,-19 207.5,-19 207.5,0 250.5,0 250.5,-19"/>
<text text-anchor="middle" x="229" y="-7" font-family="Helvetica,sans-Serif" font-size="10.00">queue</text>
</a>
</g>
</g>
<!-- Node18&#45;&gt;Node20 -->
<g id="edge21" class="edge">
<title>Node18&#45;&gt;Node20</title>
<path fill="none" stroke="#63b8ff" d="M1016.53,-56C1013.65,-55.63 1010.79,-55.29 1008,-55 720.03,-24.59 369.83,-13.94 262.1,-11.25"/>
<polygon fill="#63b8ff" stroke="#63b8ff" points="262.34,-7.76 252.26,-11.01 262.17,-14.75 262.34,-7.76"/>
</g>
<!-- Node21&#45;&gt;Node4 -->
<g id="edge24" class="edge">
<title>Node21&#45;&gt;Node4</title>
<path fill="none" stroke="#63b8ff" d="M1464.8,-74.46C1393.27,-84.71 1273.81,-101.31 1202.26,-110.94"/>
<polygon fill="#63b8ff" stroke="#63b8ff" points="1202.15,-107.42 1192.7,-112.22 1203.08,-114.36 1202.15,-107.42"/>
</g>
<!-- Node21&#45;&gt;Node22 -->
<g id="edge25" class="edge">
<title>Node21&#45;&gt;Node22</title>
<path fill="none" stroke="#63b8ff" d="M1545.2,-54.51C1565.08,-46.08 1595.03,-33.38 1617.66,-23.79"/>
<polygon fill="#63b8ff" stroke="#63b8ff" points="1618.87,-27.07 1626.72,-19.95 1616.14,-20.63 1618.87,-27.07"/>
</g>
<!-- Node23 -->
<g id="node23" class="node">
<title>Node23</title>
<g id="a_node23"><a xlink:title=" ">
<polygon fill="#e0e0e0" stroke="#999999" points="2099,-19 2053,-19 2053,0 2099,0 2099,-19"/>
<text text-anchor="middle" x="2076" y="-7" font-family="Helvetica,sans-Serif" font-size="10.00">math.h</text>
</a>
</g>
</g>
<!-- Node21&#45;&gt;Node23 -->
<g id="edge27" class="edge">
<title>Node21&#45;&gt;Node23</title>
<path fill="none" stroke="#63b8ff" d="M1585.45,-55.94C1588.34,-55.61 1591.2,-55.3 1594,-55 1761.7,-37.08 1962.7,-19.91 2041.72,-13.32"/>
<polygon fill="#63b8ff" stroke="#63b8ff" points="2041.72,-16.84 2051.39,-12.52 2041.14,-9.86 2041.72,-16.84"/>
</g>
<!-- Node22&#45;&gt;Node4 -->
<g id="edge26" class="edge">
<title>Node22&#45;&gt;Node4</title>
<path fill="none" stroke="#63b8ff" d="M1602.81,-17.82C1562.73,-24.93 1503.53,-37.26 1454,-55 1436.22,-61.37 1433.97,-68.19 1416,-74 1344.61,-97.07 1258.68,-108.56 1202.54,-114.01"/>
<polygon fill="#63b8ff" stroke="#63b8ff" points="1202.52,-110.49 1192.88,-114.91 1203.17,-117.46 1202.52,-110.49"/>
</g>
<!-- Node24&#45;&gt;Node4 -->
<g id="edge29" class="edge">
<title>Node24&#45;&gt;Node4</title>
<path fill="none" stroke="#63b8ff" d="M1602.56,-74.04C1459.38,-88.62 1290.68,-105.07 1202.81,-113.27"/>
<polygon fill="#63b8ff" stroke="#63b8ff" points="1202.62,-109.77 1192.99,-114.18 1203.27,-116.74 1202.62,-109.77"/>
</g>
<!-- Node25&#45;&gt;Node10 -->
<g id="edge32" class="edge">
<title>Node25&#45;&gt;Node10</title>
<path fill="none" stroke="#63b8ff" d="M1845.41,-164.68C1824.9,-153.15 1795.33,-131.82 1808,-110 1816.84,-94.77 1833.06,-84.32 1848.43,-77.39"/>
<polygon fill="#63b8ff" stroke="#63b8ff" points="1849.5,-80.74 1857.43,-73.72 1846.85,-74.26 1849.5,-80.74"/>
</g>
<!-- Node25&#45;&gt;Node15 -->
<g id="edge35" class="edge">
<title>Node25&#45;&gt;Node15</title>
<path fill="none" stroke="#63b8ff" d="M1884.47,-164.54C1905.05,-155.84 1936.9,-142.06 1964,-129 1997.14,-113.03 2034.52,-93.11 2058.85,-79.88"/>
<polygon fill="#63b8ff" stroke="#63b8ff" points="2060.31,-83.07 2067.41,-75.21 2056.96,-76.93 2060.31,-83.07"/>
</g>
<!-- Node26 -->
<g id="node26" class="node">
<title>Node26</title>
<g id="a_node26"><a xlink:title=" ">
<polygon fill="#e0e0e0" stroke="#999999" points="2045,-74 1989,-74 1989,-55 2045,-55 2045,-74"/>
<text text-anchor="middle" x="2017" y="-62" font-family="Helvetica,sans-Serif" font-size="10.00">algorithm</text>
</a>
</g>
</g>
<!-- Node25&#45;&gt;Node26 -->
<g id="edge33" class="edge">
<title>Node25&#45;&gt;Node26</title>
<path fill="none" stroke="#63b8ff" d="M1879.51,-164.6C1894.99,-156.04 1918.59,-142.46 1938,-129 1959.56,-114.05 1982.79,-94.98 1998.45,-81.66"/>
<polygon fill="#63b8ff" stroke="#63b8ff" points="2000.68,-84.35 2005.98,-75.18 1996.12,-79.05 2000.68,-84.35"/>
</g>
<!-- Node27 -->
<g id="node27" class="node">
<title>Node27</title>
<g id="a_node27"><a xlink:title=" ">
<polygon fill="#e0e0e0" stroke="#999999" points="1841,-74 1803,-74 1803,-55 1841,-55 1841,-74"/>
<text text-anchor="middle" x="1822" y="-62" font-family="Helvetica,sans-Serif" font-size="10.00">array</text>
</a>
</g>
</g>
<!-- Node25&#45;&gt;Node27 -->
<g id="edge34" class="edge">
<title>Node25&#45;&gt;Node27</title>
<path fill="none" stroke="#63b8ff" d="M1841.23,-164.62C1826.66,-157.39 1808.62,-145.65 1800,-129 1792.46,-114.45 1799.82,-96.75 1807.99,-83.74"/>
<polygon fill="#63b8ff" stroke="#63b8ff" points="1810.75,-85.91 1813.59,-75.7 1805.01,-81.91 1810.75,-85.91"/>
</g>
<!-- Node28 -->
<g id="node28" class="node">
<title>Node28</title>
<g id="a_node28"><a xlink:title=" ">
<polygon fill="#e0e0e0" stroke="#999999" points="1970.5,-74 1931.5,-74 1931.5,-55 1970.5,-55 1970.5,-74"/>
<text text-anchor="middle" x="1951" y="-62" font-family="Helvetica,sans-Serif" font-size="10.00">utility</text>
</a>
</g>
</g>
<!-- Node25&#45;&gt;Node28 -->
<g id="edge36" class="edge">
<title>Node25&#45;&gt;Node28</title>
<path fill="none" stroke="#63b8ff" d="M1877.01,-164.59C1889.01,-156.44 1906.19,-143.46 1918,-129 1928.94,-115.6 1937.74,-98 1943.49,-84.72"/>
<polygon fill="#63b8ff" stroke="#63b8ff" points="1946.6,-86.37 1947.17,-75.79 1940.13,-83.71 1946.6,-86.37"/>
</g>
<!-- Node29 -->
<g id="node29" class="node">
<title>Node29</title>
<g id="a_node29"><a xlink:href="Vectors_8hpp.html" target="_top" xlink:title=" ">
<polygon fill="white" stroke="#666666" points="1909,-129 1817,-129 1817,-110 1909,-110 1909,-129"/>
<text text-anchor="middle" x="1863" y="-117" font-family="Helvetica,sans-Serif" font-size="10.00">Utils/Vectors.hpp</text>
</a>
</g>
</g>
<!-- Node25&#45;&gt;Node29 -->
<g id="edge37" class="edge">
<title>Node25&#45;&gt;Node29</title>
<path fill="none" stroke="#63b8ff" d="M1863,-164.75C1863,-158.27 1863,-149.16 1863,-140.9"/>
<polygon fill="#63b8ff" stroke="#63b8ff" points="1866.5,-140.96 1863,-130.96 1859.5,-140.96 1866.5,-140.96"/>
</g>
<!-- Node29&#45;&gt;Node10 -->
<g id="edge38" class="edge">
<title>Node29&#45;&gt;Node10</title>
<path fill="none" stroke="#63b8ff" d="M1866.8,-109.75C1869.74,-102.96 1873.94,-93.3 1877.65,-84.73"/>
<polygon fill="#63b8ff" stroke="#63b8ff" points="1880.75,-86.4 1881.52,-75.83 1874.33,-83.61 1880.75,-86.4"/>
</g>
<!-- Node29&#45;&gt;Node15 -->
<g id="edge41" class="edge">
<title>Node29&#45;&gt;Node15</title>
<path fill="none" stroke="#63b8ff" d="M1903.35,-109.58C1939.74,-101.42 1994.98,-88.78 2051.7,-74.51"/>
<polygon fill="#63b8ff" stroke="#63b8ff" points="2052.37,-77.95 2061.21,-72.1 2050.66,-71.16 2052.37,-77.95"/>
</g>
<!-- Node29&#45;&gt;Node26 -->
<g id="edge39" class="edge">
<title>Node29&#45;&gt;Node26</title>
<path fill="none" stroke="#63b8ff" d="M1889.12,-109.51C1914.2,-100.88 1952.31,-87.76 1980.4,-78.1"/>
<polygon fill="#63b8ff" stroke="#63b8ff" points="1981.26,-81.5 1989.57,-74.94 1978.98,-74.88 1981.26,-81.5"/>
</g>
<!-- Node29&#45;&gt;Node27 -->
<g id="edge40" class="edge">
<title>Node29&#45;&gt;Node27</title>
<path fill="none" stroke="#63b8ff" d="M1856.23,-109.75C1850.68,-102.58 1842.66,-92.2 1835.77,-83.3"/>
<polygon fill="#63b8ff" stroke="#63b8ff" points="1838.73,-81.41 1829.84,-75.64 1833.19,-85.69 1838.73,-81.41"/>
</g>
<!-- Node29&#45;&gt;Node28 -->
<g id="edge42" class="edge">
<title>Node29&#45;&gt;Node28</title>
<path fill="none" stroke="#63b8ff" d="M1877.93,-109.51C1891.28,-101.47 1911.11,-89.53 1926.74,-80.11"/>
<polygon fill="#63b8ff" stroke="#63b8ff" points="1928.24,-83.3 1935,-75.14 1924.62,-77.3 1928.24,-83.3"/>
</g>
<!-- Node30&#45;&gt;Node10 -->
<g id="edge44" class="edge">
<title>Node30&#45;&gt;Node10</title>
<path fill="none" stroke="#63b8ff" d="M2141.44,-112.13C2092.21,-104.41 2007.47,-90.63 1924.59,-74.21"/>
<polygon fill="#63b8ff" stroke="#63b8ff" points="1925.42,-70.81 1914.93,-72.28 1924.05,-77.67 1925.42,-70.81"/>
</g>
<!-- Node30&#45;&gt;Node15 -->
<g id="edge46" class="edge">
<title>Node30&#45;&gt;Node15</title>
<path fill="none" stroke="#63b8ff" d="M2166.38,-109.51C2151.22,-101.31 2128.58,-89.07 2111.03,-79.58"/>
<polygon fill="#63b8ff" stroke="#63b8ff" points="2113.17,-76.76 2102.71,-75.08 2109.84,-82.91 2113.17,-76.76"/>
</g>
<!-- Node30&#45;&gt;Node19 -->
<g id="edge45" class="edge">
<title>Node30&#45;&gt;Node19</title>
<path fill="none" stroke="#63b8ff" d="M2177.19,-109.95C2166.84,-95.55 2143.69,-66.87 2116,-55 2076.65,-38.12 1420.22,-15.9 1280.16,-11.34"/>
<polygon fill="#63b8ff" stroke="#63b8ff" points="1280.54,-7.85 1270.43,-11.02 1280.31,-14.85 1280.54,-7.85"/>
</g>
<!-- Node31&#45;&gt;Node20 -->
<g id="edge64" class="edge">
<title>Node31&#45;&gt;Node20</title>
<path fill="none" stroke="#63b8ff" d="M698.79,-329.57C598.53,-308.48 356.73,-248.15 191,-129 159.75,-106.53 126.23,-88.03 146,-55 156.92,-36.76 178.15,-25.57 196.41,-18.97"/>
<polygon fill="#63b8ff" stroke="#63b8ff" points="197.41,-22.33 205.84,-15.9 195.25,-15.67 197.41,-22.33"/>
</g>
<!-- Node32 -->
<g id="node32" class="node">
<title>Node32</title>
<g id="a_node32"><a xlink:href="States_8hpp.html" target="_top" xlink:title=" ">
<polygon fill="white" stroke="#666666" points="825.5,-294 706.5,-294 706.5,-275 825.5,-275 825.5,-294"/>
<text text-anchor="middle" x="766" y="-282" font-family="Helvetica,sans-Serif" font-size="10.00">gameStates/States.hpp</text>
</a>
</g>
</g>
<!-- Node31&#45;&gt;Node32 -->
<g id="edge48" class="edge">
<title>Node31&#45;&gt;Node32</title>
<path fill="none" stroke="#63b8ff" d="M748.47,-329.75C751.13,-323.04 754.9,-313.52 758.26,-305.02"/>
<polygon fill="#63b8ff" stroke="#63b8ff" points="761.47,-306.44 761.9,-295.85 754.96,-303.86 761.47,-306.44"/>
</g>
<!-- Node32&#45;&gt;Node2 -->
<g id="edge49" class="edge">
<title>Node32&#45;&gt;Node2</title>
<path fill="none" stroke="#63b8ff" d="M776.63,-294.4C786.95,-303.17 802.93,-317.1 816,-330 831.22,-345.02 847.56,-363.11 859.01,-376.14"/>
<polygon fill="#63b8ff" stroke="#63b8ff" points="856.19,-378.23 865.4,-383.47 861.47,-373.63 856.19,-378.23"/>
</g>
<!-- Node33 -->
<g id="node33" class="node">
<title>Node33</title>
<g id="a_node33"><a xlink:href="SMenu_8hpp.html" target="_top" xlink:title=" ">
<polygon fill="white" stroke="#666666" points="800.5,-239 735.5,-239 735.5,-220 800.5,-220 800.5,-239"/>
<text text-anchor="middle" x="768" y="-227" font-family="Helvetica,sans-Serif" font-size="10.00">SMenu.hpp</text>
</a>
</g>
</g>
<!-- Node32&#45;&gt;Node33 -->
<g id="edge50" class="edge">
<title>Node32&#45;&gt;Node33</title>
<path fill="none" stroke="#63b8ff" d="M766.33,-274.75C766.57,-268.27 766.92,-259.16 767.23,-250.9"/>
<polygon fill="#63b8ff" stroke="#63b8ff" points="770.73,-251.08 767.61,-240.95 763.73,-250.82 770.73,-251.08"/>
</g>
<!-- Node36 -->
<g id="node36" class="node">
<title>Node36</title>
<g id="a_node36"><a xlink:href="SGamePlay_8hpp.html" target="_top" xlink:title=" ">
<polygon fill="white" stroke="#666666" points="286,-129 200,-129 200,-110 286,-110 286,-129"/>
<text text-anchor="middle" x="243" y="-117" font-family="Helvetica,sans-Serif" font-size="10.00">SGamePlay.hpp</text>
</a>
</g>
</g>
<!-- Node32&#45;&gt;Node36 -->
<g id="edge55" class="edge">
<title>Node32&#45;&gt;Node36</title>
<path fill="none" stroke="#63b8ff" d="M737.14,-274.5C649.09,-247.06 383.8,-164.38 282.71,-132.88"/>
<polygon fill="#63b8ff" stroke="#63b8ff" points="283.81,-129.55 273.22,-129.92 281.73,-136.24 283.81,-129.55"/>
</g>
<!-- Node33&#45;&gt;Node2 -->
<g id="edge51" class="edge">
<title>Node33&#45;&gt;Node2</title>
<path fill="none" stroke="#63b8ff" d="M787.61,-239.36C802.29,-246.91 821.85,-259.07 834,-275 856.65,-304.7 866.92,-347.99 871.22,-373.2"/>
<polygon fill="#63b8ff" stroke="#63b8ff" points="867.76,-373.71 872.73,-383.07 874.68,-372.65 867.76,-373.71"/>
</g>
<!-- Node33&#45;&gt;Node34 -->
<g id="edge52" class="edge">
<title>Node33&#45;&gt;Node34</title>
<path fill="none" stroke="#63b8ff" d="M768,-219.75C768,-213.27 768,-204.16 768,-195.9"/>
<polygon fill="#63b8ff" stroke="#63b8ff" points="771.5,-195.96 768,-185.96 764.5,-195.96 771.5,-195.96"/>
</g>
<!-- Node34&#45;&gt;Node4 -->
<g id="edge53" class="edge">
<title>Node34&#45;&gt;Node4</title>
<path fill="none" stroke="#63b8ff" d="M829.92,-164.75C900.27,-154.81 1014.27,-138.69 1083.57,-128.9"/>
<polygon fill="#63b8ff" stroke="#63b8ff" points="1083.8,-132.4 1093.21,-127.54 1082.82,-125.47 1083.8,-132.4"/>
</g>
<!-- Node35 -->
<g id="node35" class="node">
<title>Node35</title>
<g id="a_node35"><a xlink:title=" ">
<polygon fill="#e0e0e0" stroke="#999999" points="797.5,-129 738.5,-129 738.5,-110 797.5,-110 797.5,-129"/>
<text text-anchor="middle" x="768" y="-117" font-family="Helvetica,sans-Serif" font-size="10.00">functional</text>
</a>
</g>
</g>
<!-- Node34&#45;&gt;Node35 -->
<g id="edge54" class="edge">
<title>Node34&#45;&gt;Node35</title>
<path fill="none" stroke="#63b8ff" d="M768,-164.75C768,-158.27 768,-149.16 768,-140.9"/>
<polygon fill="#63b8ff" stroke="#63b8ff" points="771.5,-140.96 768,-130.96 764.5,-140.96 771.5,-140.96"/>
</g>
<!-- Node36&#45;&gt;Node2 -->
<g id="edge56" class="edge">
<title>Node36&#45;&gt;Node2</title>
<path fill="none" stroke="#63b8ff" d="M243.23,-129.42C244.5,-158.28 252.66,-249.88 305,-294 382.42,-359.26 691.78,-383.48 818.96,-390.79"/>
<polygon fill="#63b8ff" stroke="#63b8ff" points="818.64,-394.28 828.82,-391.35 819.03,-387.29 818.64,-394.28"/>
</g>
<!-- Node36&#45;&gt;Node12 -->
<g id="edge59" class="edge">
<title>Node36&#45;&gt;Node12</title>
<path fill="none" stroke="#63b8ff" d="M248.78,-109.75C253.41,-102.73 260.07,-92.64 265.87,-83.87"/>
<polygon fill="#63b8ff" stroke="#63b8ff" points="268.67,-85.98 271.26,-75.71 262.83,-82.12 268.67,-85.98"/>
</g>
<!-- Node36&#45;&gt;Node20 -->
<g id="edge57" class="edge">
<title>Node36&#45;&gt;Node20</title>
<path fill="none" stroke="#63b8ff" d="M241.85,-109.66C239.63,-92.5 234.67,-54.26 231.61,-30.6"/>
<polygon fill="#63b8ff" stroke="#63b8ff" points="235.11,-30.43 230.36,-20.96 228.17,-31.33 235.11,-30.43"/>
</g>
<!-- Node36&#45;&gt;Node27 -->
<g id="edge58" class="edge">
<title>Node36&#45;&gt;Node27</title>
<path fill="none" stroke="#63b8ff" d="M286.47,-117.8C502.18,-114.25 1459.15,-97.42 1756,-74 1767.59,-73.09 1780.26,-71.58 1791.38,-70.08"/>
<polygon fill="#63b8ff" stroke="#63b8ff" points="1791.79,-73.56 1801.2,-68.71 1790.82,-66.63 1791.79,-73.56"/>
</g>
<!-- Node37 -->
<g id="node37" class="node">
<title>Node37</title>
<g id="a_node37"><a xlink:title=" ">
<polygon fill="#e0e0e0" stroke="#999999" points="201,-74 155,-74 155,-55 201,-55 201,-74"/>
<text text-anchor="middle" x="178" y="-62" font-family="Helvetica,sans-Serif" font-size="10.00">cstring</text>
</a>
</g>
</g>
<!-- Node36&#45;&gt;Node37 -->
<g id="edge60" class="edge">
<title>Node36&#45;&gt;Node37</title>
<path fill="none" stroke="#63b8ff" d="M231.97,-109.51C222.58,-101.85 208.85,-90.66 197.59,-81.47"/>
<polygon fill="#63b8ff" stroke="#63b8ff" points="200,-78.92 190.04,-75.31 195.57,-84.35 200,-78.92"/>
</g>
<!-- Node38 -->
<g id="node38" class="node">
<title>Node38</title>
<g id="a_node38"><a xlink:href="Global_8hpp.html" target="_top" xlink:title=" ">
<polygon fill="white" stroke="#666666" points="99,-74 37,-74 37,-55 99,-55 99,-74"/>
<text text-anchor="middle" x="68" y="-62" font-family="Helvetica,sans-Serif" font-size="10.00">Global.hpp</text>
</a>
</g>
</g>
<!-- Node36&#45;&gt;Node38 -->
<g id="edge61" class="edge">
<title>Node36&#45;&gt;Node38</title>
<path fill="none" stroke="#63b8ff" d="M213.31,-109.51C184.44,-100.76 140.36,-87.42 108.33,-77.71"/>
<polygon fill="#63b8ff" stroke="#63b8ff" points="109.57,-74.43 98.99,-74.88 107.54,-81.13 109.57,-74.43"/>
</g>
<!-- Node39 -->
<g id="node39" class="node">
<title>Node39</title>
<g id="a_node39"><a xlink:title=" ">
<polygon fill="#e0e0e0" stroke="#999999" points="62,-19 0,-19 0,0 62,0 62,-19"/>
<text text-anchor="middle" x="31" y="-7" font-family="Helvetica,sans-Serif" font-size="10.00">Skaldi.hpp</text>
</a>
</g>
</g>
<!-- Node38&#45;&gt;Node39 -->
<g id="edge62" class="edge">
<title>Node38&#45;&gt;Node39</title>
<path fill="none" stroke="#63b8ff" d="M61.89,-54.75C56.99,-47.73 49.95,-37.64 43.83,-28.87"/>
<polygon fill="#63b8ff" stroke="#63b8ff" points="46.7,-26.88 38.11,-20.68 40.96,-30.89 46.7,-26.88"/>
</g>
<!-- Node40 -->
<g id="node40" class="node">
<title>Node40</title>
<g id="a_node40"><a xlink:title=" ">
<polygon fill="#e0e0e0" stroke="#999999" points="131.5,-19 80.5,-19 80.5,0 131.5,0 131.5,-19"/>
<text text-anchor="middle" x="106" y="-7" font-family="Helvetica,sans-Serif" font-size="10.00">memory</text>
</a>
</g>
</g>
<!-- Node38&#45;&gt;Node40 -->
<g id="edge63" class="edge">
<title>Node38&#45;&gt;Node40</title>
<path fill="none" stroke="#63b8ff" d="M74.27,-54.75C79.36,-47.66 86.7,-37.42 93.03,-28.59"/>
<polygon fill="#63b8ff" stroke="#63b8ff" points="95.72,-30.84 98.71,-20.67 90.04,-26.76 95.72,-30.84"/>
</g>
<!-- Node41&#45;&gt;Node4 -->
<g id="edge67" class="edge">
<title>Node41&#45;&gt;Node4</title>
<path fill="none" stroke="#63b8ff" d="M2000.51,-169.32C1977.47,-167.93 1951.62,-166.38 1928,-165 1657.16,-149.16 1333.7,-131.09 1202.58,-123.8"/>
<polygon fill="#63b8ff" stroke="#63b8ff" points="1202.93,-120.32 1192.75,-123.26 1202.54,-127.31 1202.93,-120.32"/>
</g>
<!-- Node41&#45;&gt;Node15 -->
<g id="edge70" class="edge">
<title>Node41&#45;&gt;Node15</title>
<path fill="none" stroke="#63b8ff" d="M2075.86,-164.56C2081.98,-155.97 2090.5,-142.37 2094,-129 2097.8,-114.47 2095.1,-97.62 2091.69,-84.93"/>
<polygon fill="#63b8ff" stroke="#63b8ff" points="2095.13,-84.22 2088.84,-75.7 2088.44,-86.29 2095.13,-84.22"/>
</g>
<!-- Node41&#45;&gt;Node22 -->
<g id="edge68" class="edge">
<title>Node41&#45;&gt;Node22</title>
<path fill="none" stroke="#63b8ff" d="M2137.23,-170.95C2192.38,-165.88 2257.3,-151.3 2234,-110 2182.55,-18.78 1843.8,-9.69 1706.58,-9.82"/>
<polygon fill="#63b8ff" stroke="#63b8ff" points="1706.61,-6.32 1696.62,-9.85 1706.63,-13.32 1706.61,-6.32"/>
</g>
<!-- Node41&#45;&gt;Node23 -->
<g id="edge69" class="edge">
<title>Node41&#45;&gt;Node23</title>
<path fill="none" stroke="#63b8ff" d="M2137.32,-167.16C2187.94,-160.89 2250.82,-149.22 2267,-129 2287.55,-103.32 2287.45,-80.76 2267,-55 2247.84,-30.87 2160.3,-18.62 2110.65,-13.51"/>
<polygon fill="#63b8ff" stroke="#63b8ff" points="2111.29,-10.05 2101,-12.56 2110.61,-17.02 2111.29,-10.05"/>
</g>
<!-- Node42 -->
<g id="node42" class="node">
<title>Node42</title>
<g id="a_node42"><a xlink:title=" ">
<polygon fill="#e0e0e0" stroke="#999999" points="2085,-129 2041,-129 2041,-110 2085,-110 2085,-129"/>
<text text-anchor="middle" x="2063" y="-117" font-family="Helvetica,sans-Serif" font-size="10.00">cmath</text>
</a>
</g>
</g>
<!-- Node41&#45;&gt;Node42 -->
<g id="edge71" class="edge">
<title>Node41&#45;&gt;Node42</title>
<path fill="none" stroke="#63b8ff" d="M2068.01,-164.75C2067.27,-158.19 2066.22,-148.95 2065.28,-140.6"/>
<polygon fill="#63b8ff" stroke="#63b8ff" points="2068.79,-140.49 2064.18,-130.95 2061.83,-141.28 2068.79,-140.49"/>
</g>
</g>
</svg>
        <g id="navigator" transform="translate(0 0)" fill="#404254">
                <rect fill="#f2f5e9" fill-opacity="0.5" stroke="#606060" stroke-width=".5" x="0" y="0" width="60" height="60"/>
                <use id="zoomplus" xlink:href="#zoomPlus" x="17" y="9" onmousedown="handleZoom(evt,'in')"/>
                <use id="zoomminus" xlink:href="#zoomMin" x="42" y="9" onmousedown="handleZoom(evt,'out')"/>
                <use id="reset" xlink:href="#resetDef" x="30" y="36" onmousedown="handleReset()"/>
                <g id="arrowUp" xlink:href="#dirArrow" transform="translate(30 24)" onmousedown="handlePan(0,-1)">
                  <use xlink:href="#rim" fill="#404040">
                        <set attributeName="fill" to="#808080" begin="arrowUp.mouseover" end="arrowUp.mouseout"/>
                  </use>
                  <path fill="none" stroke="white" stroke-width="1.5" d="M0,-3.0v7 M-2.5,-0.5L0,-3.0L2.5,-0.5"/>
                </g>
                <g id="arrowRight" xlink:href="#dirArrow" transform="rotate(90) translate(36 -43)" onmousedown="handlePan(1,0)">
                  <use xlink:href="#rim" fill="#404040">
                        <set attributeName="fill" to="#808080" begin="arrowRight.mouseover" end="arrowRight.mouseout"/>
                  </use>
                  <path fill="none" stroke="white" stroke-width="1.5" d="M0,-3.0v7 M-2.5,-0.5L0,-3.0L2.5,-0.5"/>
                </g>
                <g id="arrowDown" xlink:href="#dirArrow" transform="rotate(180) translate(-30 -48)" onmousedown="handlePan(0,1)">
                  <use xlink:href="#rim" fill="#404040">
                        <set attributeName="fill" to="#808080" begin="arrowDown.mouseover" end="arrowDown.mouseout"/>
                  </use>
                  <path fill="none" stroke="white" stroke-width="1.5" d="M0,-3.0v7 M-2.5,-0.5L0,-3.0L2.5,-0.5"/>
                </g>
                <g id="arrowLeft" xlink:href="#dirArrow" transform="rotate(270) translate(-36 17)" onmousedown="handlePan(-1,0)">
                  <use xlink:href="#rim" fill="#404040">
                        <set attributeName="fill" to="#808080" begin="arrowLeft.mouseover" end="arrowLeft.mouseout"/>
                  </use>
                  <path fill="none" stroke="white" stroke-width="1.5" d="M0,-3.0v7 M-2.5,-0.5L0,-3.0L2.5,-0.5"/>
                </g>
        </g>
        <svg viewBox="0 0 15 15" width="100%" height="30px" preserveAspectRatio="xMaxYMin meet">
         <g id="arrow_out" transform="scale(0.3 0.3)">
          <a xlink:href="SMenu__Duck_8hpp__incl_org.svg" target="_base">
           <rect id="button" ry="5" rx="5" y="6" x="6" height="38" width="38"
                fill="#f2f5e9" fill-opacity="0.5" stroke="#606060" stroke-width="1.0"/>
           <path id="arrow"
             d="M 11.500037,31.436501 C 11.940474,20.09759 22.043105,11.32322 32.158766,21.979434 L 37.068811,17.246167 C 37.068811,17.246167 37.088388,32 37.088388,32 L 22.160133,31.978069 C 22.160133,31.978069 26.997745,27.140456 26.997745,27.140456 C 18.528582,18.264221 13.291696,25.230495 11.500037,31.436501 z"
             style="fill:#404040;"/>
          </a>
         </g>
        </svg>
</svg>
