<?xml version="1.0" encoding="UTF-8" standalone="no"?>
<!DOCTYPE svg PUBLIC "-//W3C//DTD SVG 1.1//EN"
 "http://www.w3.org/Graphics/SVG/1.1/DTD/svg11.dtd">
<!-- Generated by graphviz version 7.0.5 (20221223.1930)
 -->
<!-- Title: /github/workspace/client/include/Utils/SparseArray.hpp Pages: 1 -->
<svg width="2658pt" height="676pt"
 viewBox="0.00 0.00 2657.79 676.00" xmlns="http://www.w3.org/2000/svg" xmlns:xlink="http://www.w3.org/1999/xlink">
<g id="graph0" class="graph" transform="scale(1 1) rotate(0) translate(4 672)">
<title>/github/workspace/client/include/Utils/SparseArray.hpp</title>
<!-- Node1 -->
<g id="node1" class="node">
<title>Node1</title>
<g id="a_node1"><a xlink:title=" ">
<polygon fill="#999999" stroke="#666666" points="1789,-668 1641,-668 1641,-638 1789,-638 1789,-668"/>
<text text-anchor="start" x="1649" y="-656" font-family="Helvetica,sans-Serif" font-size="10.00">/github/workspace/client</text>
<text text-anchor="middle" x="1715" y="-645" font-family="Helvetica,sans-Serif" font-size="10.00">/include/Utils/SparseArray.hpp</text>
</a>
</g>
</g>
<!-- Node2 -->
<g id="node2" class="node">
<title>Node2</title>
<g id="a_node2"><a xlink:href="EntitiesManager_8hpp.html" target="_top" xlink:title=" ">
<polygon fill="white" stroke="#666666" points="1803,-602 1627,-602 1627,-572 1803,-572 1803,-602"/>
<text text-anchor="start" x="1635" y="-590" font-family="Helvetica,sans-Serif" font-size="10.00">/github/workspace/client</text>
<text text-anchor="middle" x="1715" y="-579" font-family="Helvetica,sans-Serif" font-size="10.00">/include/Entities/EntitiesManager.hpp</text>
</a>
</g>
</g>
<!-- Node1&#45;&gt;Node2 -->
<g id="edge1" class="edge">
<title>Node1&#45;&gt;Node2</title>
<path fill="none" stroke="#63b8ff" d="M1715,-626.39C1715,-618.13 1715,-609.28 1715,-602.16"/>
<polygon fill="#63b8ff" stroke="#63b8ff" points="1711.5,-626.28 1715,-636.28 1718.5,-626.28 1711.5,-626.28"/>
</g>
<!-- Node3 -->
<g id="node3" class="node">
<title>Node3</title>
<g id="a_node3"><a xlink:href="Engine_8hpp.html" target="_top" xlink:title=" ">
<polygon fill="white" stroke="#666666" points="1734.5,-536 1601.5,-536 1601.5,-506 1734.5,-506 1734.5,-536"/>
<text text-anchor="start" x="1609.5" y="-524" font-family="Helvetica,sans-Serif" font-size="10.00">/github/workspace/client</text>
<text text-anchor="middle" x="1668" y="-513" font-family="Helvetica,sans-Serif" font-size="10.00">/include/Engine/Engine.hpp</text>
</a>
</g>
</g>
<!-- Node2&#45;&gt;Node3 -->
<g id="edge2" class="edge">
<title>Node2&#45;&gt;Node3</title>
<path fill="none" stroke="#63b8ff" d="M1691.57,-562.96C1684.5,-554 1677.44,-544.03 1672.69,-536.16"/>
<polygon fill="#63b8ff" stroke="#63b8ff" points="1688.83,-565.13 1697.89,-570.63 1694.23,-560.68 1688.83,-565.13"/>
</g>
<!-- Node5 -->
<g id="node5" class="node">
<title>Node5</title>
<g id="a_node5"><a xlink:href="IGameState_8hpp.html" target="_top" xlink:title=" ">
<polygon fill="white" stroke="#666666" points="1610,-327 1470,-327 1470,-286 1610,-286 1610,-327"/>
<text text-anchor="start" x="1478" y="-315" font-family="Helvetica,sans-Serif" font-size="10.00">/github/workspace/client</text>
<text text-anchor="start" x="1478" y="-304" font-family="Helvetica,sans-Serif" font-size="10.00">/include/system/gameStates</text>
<text text-anchor="middle" x="1540" y="-293" font-family="Helvetica,sans-Serif" font-size="10.00">/IGameState.hpp</text>
</a>
</g>
</g>
<!-- Node2&#45;&gt;Node5 -->
<g id="edge64" class="edge">
<title>Node2&#45;&gt;Node5</title>
<path fill="none" stroke="#63b8ff" d="M1615.21,-584.73C1323.58,-579.98 488.17,-558.68 407,-470 309.63,-363.61 -305.93,-509.66 849,-363 1074.95,-334.31 1344.46,-317.71 1469.65,-311"/>
<polygon fill="#63b8ff" stroke="#63b8ff" points="1615.03,-588.22 1625.09,-584.88 1615.14,-581.22 1615.03,-588.22"/>
</g>
<!-- Node16 -->
<g id="node16" class="node">
<title>Node16</title>
<g id="a_node16"><a xlink:href="include_8hpp.html" target="_top" xlink:title=" ">
<polygon fill="white" stroke="#666666" points="2420,-321.5 2298,-321.5 2298,-291.5 2420,-291.5 2420,-321.5"/>
<text text-anchor="start" x="2306" y="-309.5" font-family="Helvetica,sans-Serif" font-size="10.00">/github/workspace/client</text>
<text text-anchor="middle" x="2359" y="-298.5" font-family="Helvetica,sans-Serif" font-size="10.00">/include/include.hpp</text>
</a>
</g>
</g>
<!-- Node2&#45;&gt;Node16 -->
<g id="edge63" class="edge">
<title>Node2&#45;&gt;Node16</title>
<path fill="none" stroke="#63b8ff" d="M1814.46,-584.45C2037.3,-578.38 2563.28,-548.71 2642,-404 2650.71,-387.99 2653.58,-377.07 2642,-363 2634.93,-354.41 2501.24,-330.99 2420.18,-317.48"/>
<polygon fill="#63b8ff" stroke="#63b8ff" points="1814.54,-580.94 1804.63,-584.7 1814.72,-587.94 1814.54,-580.94"/>
</g>
<!-- Node42 -->
<g id="node42" class="node">
<title>Node42</title>
<g id="a_node42"><a xlink:href="EntitiesManager_8cpp.html" target="_top" xlink:title=" ">
<polygon fill="white" stroke="#666666" points="1915,-536 1791,-536 1791,-506 1915,-506 1915,-536"/>
<text text-anchor="start" x="1799" y="-524" font-family="Helvetica,sans-Serif" font-size="10.00">/github/workspace/client</text>
<text text-anchor="middle" x="1853" y="-513" font-family="Helvetica,sans-Serif" font-size="10.00">/src/EntitiesManager.cpp</text>
</a>
</g>
</g>
<!-- Node2&#45;&gt;Node42 -->
<g id="edge65" class="edge">
<title>Node2&#45;&gt;Node42</title>
<path fill="none" stroke="#63b8ff" d="M1756.28,-566.86C1777.41,-557.05 1802.71,-545.32 1822.13,-536.31"/>
<polygon fill="#63b8ff" stroke="#63b8ff" points="1754.94,-563.62 1747.34,-571 1757.89,-569.97 1754.94,-563.62"/>
</g>
<!-- Node3&#45;&gt;Node2 -->
<g id="edge54" class="edge">
<title>Node3&#45;&gt;Node2</title>
<path fill="none" stroke="#63b8ff" d="M1691.39,-544.99C1698.46,-553.95 1705.53,-563.92 1710.29,-571.8"/>
<polygon fill="#63b8ff" stroke="#63b8ff" points="1694.14,-542.82 1685.08,-537.33 1688.74,-547.28 1694.14,-542.82"/>
</g>
<!-- Node4 -->
<g id="node4" class="node">
<title>Node4</title>
<g id="a_node4"><a xlink:href="Background_8hpp.html" target="_top" xlink:title=" ">
<polygon fill="white" stroke="#666666" points="1845.5,-470 1664.5,-470 1664.5,-440 1845.5,-440 1845.5,-470"/>
<text text-anchor="start" x="1672.5" y="-458" font-family="Helvetica,sans-Serif" font-size="10.00">/github/workspace/client</text>
<text text-anchor="middle" x="1755" y="-447" font-family="Helvetica,sans-Serif" font-size="10.00">/include/Components/Background.hpp</text>
</a>
</g>
</g>
<!-- Node3&#45;&gt;Node4 -->
<g id="edge3" class="edge">
<title>Node3&#45;&gt;Node4</title>
<path fill="none" stroke="#63b8ff" d="M1690.55,-498.7C1702.57,-489.4 1717.29,-478.73 1729.7,-470.39"/>
<polygon fill="#63b8ff" stroke="#63b8ff" points="1688.44,-495.91 1682.77,-504.86 1692.79,-501.39 1688.44,-495.91"/>
</g>
<!-- Node12 -->
<g id="node12" class="node">
<title>Node12</title>
<g id="a_node12"><a xlink:href="client_2src_2main_8cpp.html" target="_top" xlink:title=" ">
<polygon fill="white" stroke="#666666" points="1974,-30 1852,-30 1852,0 1974,0 1974,-30"/>
<text text-anchor="start" x="1860" y="-18" font-family="Helvetica,sans-Serif" font-size="10.00">/github/workspace/client</text>
<text text-anchor="middle" x="1913" y="-7" font-family="Helvetica,sans-Serif" font-size="10.00">/src/main.cpp</text>
</a>
</g>
</g>
<!-- Node3&#45;&gt;Node12 -->
<g id="edge62" class="edge">
<title>Node3&#45;&gt;Node12</title>
<path fill="none" stroke="#63b8ff" d="M1746.03,-505.92C1833.68,-497.44 2023.09,-519.83 2073,-470 2124.42,-418.66 2091,-380.16 2091,-307.5 2091,-307.5 2091,-307.5 2091,-151.5 2091,-86.84 2015.7,-48.97 1963.06,-30.39"/>
<polygon fill="#63b8ff" stroke="#63b8ff" points="1745.62,-502.44 1736.11,-507.11 1746.46,-509.39 1745.62,-502.44"/>
</g>
<!-- Node15 -->
<g id="node15" class="node">
<title>Node15</title>
<g id="a_node15"><a xlink:href="Bonus_8hpp.html" target="_top" xlink:title=" ">
<polygon fill="white" stroke="#666666" points="2276.5,-398.5 2119.5,-398.5 2119.5,-368.5 2276.5,-368.5 2276.5,-398.5"/>
<text text-anchor="start" x="2127.5" y="-386.5" font-family="Helvetica,sans-Serif" font-size="10.00">/github/workspace/client</text>
<text text-anchor="middle" x="2198" y="-375.5" font-family="Helvetica,sans-Serif" font-size="10.00">/include/Components/Bonus.hpp</text>
</a>
</g>
</g>
<!-- Node3&#45;&gt;Node15 -->
<g id="edge18" class="edge">
<title>Node3&#45;&gt;Node15</title>
<path fill="none" stroke="#63b8ff" d="M1745.92,-506.43C1746.95,-506.28 1747.98,-506.14 1749,-506 1907,-484.41 1960.69,-535.7 2106,-470 2141.56,-453.92 2172.37,-418.52 2187.69,-398.69"/>
<polygon fill="#63b8ff" stroke="#63b8ff" points="1745.56,-502.94 1736.18,-507.87 1746.59,-509.87 1745.56,-502.94"/>
</g>
<!-- Node3&#45;&gt;Node16 -->
<g id="edge60" class="edge">
<title>Node3&#45;&gt;Node16</title>
<path fill="none" stroke="#63b8ff" d="M1745.78,-505.73C1921.05,-483.03 1972.82,-514.5 2141,-470 2209.45,-451.89 2230.73,-448.26 2286,-404 2301.41,-391.66 2333.56,-345.4 2349.55,-321.7"/>
<polygon fill="#63b8ff" stroke="#63b8ff" points="1745.55,-502.23 1736.1,-507.03 1746.48,-509.17 1745.55,-502.23"/>
</g>
<!-- Node17 -->
<g id="node17" class="node">
<title>Node17</title>
<g id="a_node17"><a xlink:href="Bouton_8hpp.html" target="_top" xlink:title=" ">
<polygon fill="white" stroke="#666666" points="1885,-321.5 1725,-321.5 1725,-291.5 1885,-291.5 1885,-321.5"/>
<text text-anchor="start" x="1733" y="-309.5" font-family="Helvetica,sans-Serif" font-size="10.00">/github/workspace/client</text>
<text text-anchor="middle" x="1805" y="-298.5" font-family="Helvetica,sans-Serif" font-size="10.00">/include/Components/Bouton.hpp</text>
</a>
</g>
</g>
<!-- Node3&#45;&gt;Node17 -->
<g id="edge20" class="edge">
<title>Node3&#45;&gt;Node17</title>
<path fill="none" stroke="#63b8ff" d="M1745.68,-503.19C1801.24,-490.8 1866.91,-475.22 1871,-470 1885.64,-451.31 1871.74,-394.15 1856,-363 1847.86,-346.88 1833.67,-332.01 1822.33,-321.73"/>
<polygon fill="#63b8ff" stroke="#63b8ff" points="1745.21,-499.71 1736.21,-505.29 1746.73,-506.54 1745.21,-499.71"/>
</g>
<!-- Node18 -->
<g id="node18" class="node">
<title>Node18</title>
<g id="a_node18"><a xlink:href="Bullets_8hpp.html" target="_top" xlink:title=" ">
<polygon fill="white" stroke="#666666" points="2632.5,-398.5 2473.5,-398.5 2473.5,-368.5 2632.5,-368.5 2632.5,-398.5"/>
<text text-anchor="start" x="2481.5" y="-386.5" font-family="Helvetica,sans-Serif" font-size="10.00">/github/workspace/client</text>
<text text-anchor="middle" x="2553" y="-375.5" font-family="Helvetica,sans-Serif" font-size="10.00">/include/Components/Bullets.hpp</text>
</a>
</g>
</g>
<!-- Node3&#45;&gt;Node18 -->
<g id="edge23" class="edge">
<title>Node3&#45;&gt;Node18</title>
<path fill="none" stroke="#63b8ff" d="M1746.15,-508.65C1755.18,-507.66 1764.27,-506.75 1773,-506 1853.02,-499.1 2426.53,-511.99 2495,-470 2521.11,-453.99 2534.66,-418.57 2543.53,-398.71"/>
<polygon fill="#63b8ff" stroke="#63b8ff" points="1745.83,-505.16 1736.29,-509.76 1746.62,-512.11 1745.83,-505.16"/>
</g>
<!-- Node20 -->
<g id="node20" class="node">
<title>Node20</title>
<g id="a_node20"><a xlink:href="Centipede_8hpp.html" target="_top" xlink:title=" ">
<polygon fill="white" stroke="#666666" points="1846.5,-398.5 1673.5,-398.5 1673.5,-368.5 1846.5,-368.5 1846.5,-398.5"/>
<text text-anchor="start" x="1681.5" y="-386.5" font-family="Helvetica,sans-Serif" font-size="10.00">/github/workspace/client</text>
<text text-anchor="middle" x="1760" y="-375.5" font-family="Helvetica,sans-Serif" font-size="10.00">/include/Components/Centipede.hpp</text>
</a>
</g>
</g>
<!-- Node3&#45;&gt;Node20 -->
<g id="edge27" class="edge">
<title>Node3&#45;&gt;Node20</title>
<path fill="none" stroke="#63b8ff" d="M1746.06,-503.79C1794.15,-493.01 1847.94,-479.2 1855,-470 1876.96,-441.4 1832.76,-414.66 1797.55,-398.94"/>
<polygon fill="#63b8ff" stroke="#63b8ff" points="1745.44,-500.34 1736.43,-505.92 1746.95,-507.17 1745.44,-500.34"/>
</g>
<!-- Node21 -->
<g id="node21" class="node">
<title>Node21</title>
<g id="a_node21"><a xlink:href="IComponents_8hpp.html" target="_top" xlink:title=" ">
<polygon fill="white" stroke="#666666" points="2494.5,-470 2307.5,-470 2307.5,-440 2494.5,-440 2494.5,-470"/>
<text text-anchor="start" x="2315.5" y="-458" font-family="Helvetica,sans-Serif" font-size="10.00">/github/workspace/client</text>
<text text-anchor="middle" x="2401" y="-447" font-family="Helvetica,sans-Serif" font-size="10.00">/include/Components/IComponents.hpp</text>
</a>
</g>
</g>
<!-- Node3&#45;&gt;Node21 -->
<g id="edge29" class="edge">
<title>Node3&#45;&gt;Node21</title>
<path fill="none" stroke="#63b8ff" d="M1745.91,-506.38C1746.95,-506.25 1747.98,-506.12 1749,-506 1989.6,-477.33 2051.84,-493.59 2293,-470 2297.61,-469.55 2302.33,-469.06 2307.09,-468.53"/>
<polygon fill="#63b8ff" stroke="#63b8ff" points="1745.6,-502.89 1736.16,-507.7 1746.54,-509.82 1745.6,-502.89"/>
</g>
<!-- Node22 -->
<g id="node22" class="node">
<title>Node22</title>
<g id="a_node22"><a xlink:href="oold__EntitiesManager_8hpp.html" target="_top" xlink:title=" ">
<polygon fill="white" stroke="#666666" points="2455,-404 2333,-404 2333,-363 2455,-363 2455,-404"/>
<text text-anchor="start" x="2341" y="-392" font-family="Helvetica,sans-Serif" font-size="10.00">/github/workspace/client</text>
<text text-anchor="start" x="2341" y="-381" font-family="Helvetica,sans-Serif" font-size="10.00">/include/Entities/oold</text>
<text text-anchor="middle" x="2394" y="-370" font-family="Helvetica,sans-Serif" font-size="10.00">_EntitiesManager.hpp</text>
</a>
</g>
</g>
<!-- Node3&#45;&gt;Node22 -->
<g id="edge59" class="edge">
<title>Node3&#45;&gt;Node22</title>
<path fill="none" stroke="#63b8ff" d="M1746.07,-505.81C1873.04,-492.4 2150.41,-506.33 2255,-470 2277.36,-462.23 2278.99,-452.64 2299,-440 2318.38,-427.76 2340.46,-414.79 2358.46,-404.48"/>
<polygon fill="#63b8ff" stroke="#63b8ff" points="1746.03,-502.29 1736.5,-506.93 1746.84,-509.24 1746.03,-502.29"/>
</g>
<!-- Node23 -->
<g id="node23" class="node">
<title>Node23</title>
<g id="a_node23"><a xlink:href="Mobs_8hpp.html" target="_top" xlink:title=" ">
<polygon fill="white" stroke="#666666" points="579.5,-470 426.5,-470 426.5,-440 579.5,-440 579.5,-470"/>
<text text-anchor="start" x="434.5" y="-458" font-family="Helvetica,sans-Serif" font-size="10.00">/github/workspace/client</text>
<text text-anchor="middle" x="503" y="-447" font-family="Helvetica,sans-Serif" font-size="10.00">/include/Components/Mobs.hpp</text>
</a>
</g>
</g>
<!-- Node3&#45;&gt;Node23 -->
<g id="edge34" class="edge">
<title>Node3&#45;&gt;Node23</title>
<path fill="none" stroke="#63b8ff" d="M1589.86,-519.46C1411.8,-517.55 962.46,-508.92 589,-470 585.99,-469.69 582.93,-469.34 579.84,-468.96"/>
<polygon fill="#63b8ff" stroke="#63b8ff" points="1589.64,-522.95 1599.67,-519.56 1589.71,-515.95 1589.64,-522.95"/>
</g>
<!-- Node24 -->
<g id="node24" class="node">
<title>Node24</title>
<g id="a_node24"><a xlink:href="Audio_8hpp.html" target="_top" xlink:title=" ">
<polygon fill="white" stroke="#666666" points="726,-470 598,-470 598,-440 726,-440 726,-470"/>
<text text-anchor="start" x="606" y="-458" font-family="Helvetica,sans-Serif" font-size="10.00">/github/workspace/client</text>
<text text-anchor="middle" x="662" y="-447" font-family="Helvetica,sans-Serif" font-size="10.00">/include/Engine/Audio.hpp</text>
</a>
</g>
</g>
<!-- Node3&#45;&gt;Node24 -->
<g id="edge35" class="edge">
<title>Node3&#45;&gt;Node24</title>
<path fill="none" stroke="#63b8ff" d="M1590.09,-519.4C1429.54,-517.37 1050.47,-508.52 735,-470 732.18,-469.66 729.31,-469.27 726.41,-468.85"/>
<polygon fill="#63b8ff" stroke="#63b8ff" points="1589.71,-522.89 1599.75,-519.51 1589.8,-515.89 1589.71,-522.89"/>
</g>
<!-- Node25 -->
<g id="node25" class="node">
<title>Node25</title>
<g id="a_node25"><a xlink:href="Destroy_8hpp.html" target="_top" xlink:title=" ">
<polygon fill="white" stroke="#666666" points="1317.5,-470 1180.5,-470 1180.5,-440 1317.5,-440 1317.5,-470"/>
<text text-anchor="start" x="1188.5" y="-458" font-family="Helvetica,sans-Serif" font-size="10.00">/github/workspace/client</text>
<text text-anchor="middle" x="1249" y="-447" font-family="Helvetica,sans-Serif" font-size="10.00">/include/Engine/Destroy.hpp</text>
</a>
</g>
</g>
<!-- Node3&#45;&gt;Node25 -->
<g id="edge36" class="edge">
<title>Node3&#45;&gt;Node25</title>
<path fill="none" stroke="#63b8ff" d="M1590.03,-509.29C1520.84,-499.62 1417.06,-484.68 1327,-470 1324.01,-469.51 1320.96,-469.01 1317.88,-468.49"/>
<polygon fill="#63b8ff" stroke="#63b8ff" points="1589.37,-512.73 1599.76,-510.65 1590.34,-505.8 1589.37,-512.73"/>
</g>
<!-- Node27 -->
<g id="node27" class="node">
<title>Node27</title>
<g id="a_node27"><a xlink:href="Draw_8hpp.html" target="_top" xlink:title=" ">
<polygon fill="white" stroke="#666666" points="1462,-470 1336,-470 1336,-440 1462,-440 1462,-470"/>
<text text-anchor="start" x="1344" y="-458" font-family="Helvetica,sans-Serif" font-size="10.00">/github/workspace/client</text>
<text text-anchor="middle" x="1399" y="-447" font-family="Helvetica,sans-Serif" font-size="10.00">/include/Engine/Draw.hpp</text>
</a>
</g>
</g>
<!-- Node3&#45;&gt;Node27 -->
<g id="edge38" class="edge">
<title>Node3&#45;&gt;Node27</title>
<path fill="none" stroke="#63b8ff" d="M1596.13,-502.9C1553.47,-492.75 1499.98,-480.02 1459.48,-470.39"/>
<polygon fill="#63b8ff" stroke="#63b8ff" points="1595.28,-506.3 1605.82,-505.21 1596.9,-499.49 1595.28,-506.3"/>
</g>
<!-- Node29 -->
<g id="node29" class="node">
<title>Node29</title>
<g id="a_node29"><a xlink:href="Error_8hpp.html" target="_top" xlink:title=" ">
<polygon fill="white" stroke="#666666" points="2064,-470 1940,-470 1940,-440 2064,-440 2064,-470"/>
<text text-anchor="start" x="1948" y="-458" font-family="Helvetica,sans-Serif" font-size="10.00">/github/workspace/client</text>
<text text-anchor="middle" x="2002" y="-447" font-family="Helvetica,sans-Serif" font-size="10.00">/include/Engine/Error.hpp</text>
</a>
</g>
</g>
<!-- Node3&#45;&gt;Node29 -->
<g id="edge40" class="edge">
<title>Node3&#45;&gt;Node29</title>
<path fill="none" stroke="#63b8ff" d="M1745.91,-505.07C1804.87,-493.77 1884.78,-478.46 1939.56,-467.96"/>
<polygon fill="#63b8ff" stroke="#63b8ff" points="1745.44,-501.6 1736.27,-506.92 1746.75,-508.47 1745.44,-501.6"/>
</g>
<!-- Node31 -->
<g id="node31" class="node">
<title>Node31</title>
<g id="a_node31"><a xlink:href="Event_8hpp.html" target="_top" xlink:title=" ">
<polygon fill="white" stroke="#666666" points="1646,-470 1518,-470 1518,-440 1646,-440 1646,-470"/>
<text text-anchor="start" x="1526" y="-458" font-family="Helvetica,sans-Serif" font-size="10.00">/github/workspace/client</text>
<text text-anchor="middle" x="1582" y="-447" font-family="Helvetica,sans-Serif" font-size="10.00">/include/Engine/Event.hpp</text>
</a>
</g>
</g>
<!-- Node3&#45;&gt;Node31 -->
<g id="edge43" class="edge">
<title>Node3&#45;&gt;Node31</title>
<path fill="none" stroke="#63b8ff" d="M1633.75,-499.25C1620.41,-489.82 1605.94,-478.9 1595.59,-470.39"/>
<polygon fill="#63b8ff" stroke="#63b8ff" points="1631.74,-502.11 1641.95,-504.93 1635.73,-496.36 1631.74,-502.11"/>
</g>
<!-- Node32 -->
<g id="node32" class="node">
<title>Node32</title>
<g id="a_node32"><a xlink:href="Event_8cpp.html" target="_top" xlink:title=" ">
<polygon fill="white" stroke="#666666" points="1605,-398.5 1483,-398.5 1483,-368.5 1605,-368.5 1605,-398.5"/>
<text text-anchor="start" x="1491" y="-386.5" font-family="Helvetica,sans-Serif" font-size="10.00">/github/workspace/client</text>
<text text-anchor="middle" x="1544" y="-375.5" font-family="Helvetica,sans-Serif" font-size="10.00">/src/Event.cpp</text>
</a>
</g>
</g>
<!-- Node3&#45;&gt;Node32 -->
<g id="edge61" class="edge">
<title>Node3&#45;&gt;Node32</title>
<path fill="none" stroke="#63b8ff" d="M1590.21,-514.8C1559.83,-508.5 1527.83,-495.66 1509,-470 1492.68,-447.76 1514.09,-416.81 1529.9,-398.89"/>
<polygon fill="#63b8ff" stroke="#63b8ff" points="1589.34,-518.2 1599.81,-516.56 1590.61,-511.32 1589.34,-518.2"/>
</g>
<!-- Node33 -->
<g id="node33" class="node">
<title>Node33</title>
<g id="a_node33"><a xlink:href="Map_8hpp.html" target="_top" xlink:title=" ">
<polygon fill="white" stroke="#666666" points="866,-470 744,-470 744,-440 866,-440 866,-470"/>
<text text-anchor="start" x="752" y="-458" font-family="Helvetica,sans-Serif" font-size="10.00">/github/workspace/client</text>
<text text-anchor="middle" x="805" y="-447" font-family="Helvetica,sans-Serif" font-size="10.00">/include/Engine/Map.hpp</text>
</a>
</g>
</g>
<!-- Node3&#45;&gt;Node33 -->
<g id="edge46" class="edge">
<title>Node3&#45;&gt;Node33</title>
<path fill="none" stroke="#63b8ff" d="M1589.92,-518.55C1447.35,-515.14 1135.52,-504.11 875,-470 872.17,-469.63 869.29,-469.21 866.38,-468.76"/>
<polygon fill="#63b8ff" stroke="#63b8ff" points="1589.54,-522.05 1599.62,-518.78 1589.7,-515.05 1589.54,-522.05"/>
</g>
<!-- Node34 -->
<g id="node34" class="node">
<title>Node34</title>
<g id="a_node34"><a xlink:href="StateManager_8hpp.html" target="_top" xlink:title=" ">
<polygon fill="white" stroke="#666666" points="1022,-398.5 858,-398.5 858,-368.5 1022,-368.5 1022,-398.5"/>
<text text-anchor="start" x="866" y="-386.5" font-family="Helvetica,sans-Serif" font-size="10.00">/github/workspace/client</text>
<text text-anchor="middle" x="940" y="-375.5" font-family="Helvetica,sans-Serif" font-size="10.00">/include/Engine/StateManager.hpp</text>
</a>
</g>
</g>
<!-- Node3&#45;&gt;Node34 -->
<g id="edge47" class="edge">
<title>Node3&#45;&gt;Node34</title>
<path fill="none" stroke="#63b8ff" d="M1589.9,-519.82C1322.46,-518.84 457.71,-512.37 417,-470 407.76,-460.39 408.08,-449.91 417,-440 445.89,-407.88 717.89,-392.92 857.76,-387.3"/>
<polygon fill="#63b8ff" stroke="#63b8ff" points="1589.52,-523.32 1599.53,-519.86 1589.54,-516.32 1589.52,-523.32"/>
</g>
<!-- Node35 -->
<g id="node35" class="node">
<title>Node35</title>
<g id="a_node35"><a xlink:href="Text_8hpp.html" target="_top" xlink:title=" ">
<polygon fill="white" stroke="#666666" points="1006,-470 884,-470 884,-440 1006,-440 1006,-470"/>
<text text-anchor="start" x="892" y="-458" font-family="Helvetica,sans-Serif" font-size="10.00">/github/workspace/client</text>
<text text-anchor="middle" x="945" y="-447" font-family="Helvetica,sans-Serif" font-size="10.00">/include/Engine/Text.hpp</text>
</a>
</g>
</g>
<!-- Node3&#45;&gt;Node35 -->
<g id="edge49" class="edge">
<title>Node3&#45;&gt;Node35</title>
<path fill="none" stroke="#63b8ff" d="M1589.95,-517.08C1467.14,-511.79 1221.5,-498.45 1015,-470 1012.18,-469.61 1009.29,-469.18 1006.39,-468.71"/>
<polygon fill="#63b8ff" stroke="#63b8ff" points="1589.79,-520.57 1599.93,-517.5 1590.09,-513.58 1589.79,-520.57"/>
</g>
<!-- Node36 -->
<g id="node36" class="node">
<title>Node36</title>
<g id="a_node36"><a xlink:href="Window_8hpp.html" target="_top" xlink:title=" ">
<polygon fill="white" stroke="#666666" points="1162,-470 1024,-470 1024,-440 1162,-440 1162,-470"/>
<text text-anchor="start" x="1032" y="-458" font-family="Helvetica,sans-Serif" font-size="10.00">/github/workspace/client</text>
<text text-anchor="middle" x="1093" y="-447" font-family="Helvetica,sans-Serif" font-size="10.00">/include/Engine/Window.hpp</text>
</a>
</g>
</g>
<!-- Node3&#45;&gt;Node36 -->
<g id="edge50" class="edge">
<title>Node3&#45;&gt;Node36</title>
<path fill="none" stroke="#63b8ff" d="M1589.91,-514.45C1490.34,-506.6 1313.28,-490.86 1163,-470 1162.72,-469.96 1162.45,-469.92 1162.17,-469.88"/>
<polygon fill="#63b8ff" stroke="#63b8ff" points="1589.62,-517.93 1599.86,-515.22 1590.16,-510.96 1589.62,-517.93"/>
</g>
<!-- Node38 -->
<g id="node38" class="node">
<title>Node38</title>
<g id="a_node38"><a xlink:href="Properties_8hpp.html" target="_top" xlink:title=" ">
<polygon fill="white" stroke="#666666" points="328.5,-470 177.5,-470 177.5,-440 328.5,-440 328.5,-470"/>
<text text-anchor="start" x="185.5" y="-458" font-family="Helvetica,sans-Serif" font-size="10.00">/github/workspace/client</text>
<text text-anchor="middle" x="253" y="-447" font-family="Helvetica,sans-Serif" font-size="10.00">/include/Entities/Properties.hpp</text>
</a>
</g>
</g>
<!-- Node3&#45;&gt;Node38 -->
<g id="edge55" class="edge">
<title>Node3&#45;&gt;Node38</title>
<path fill="none" stroke="#63b8ff" d="M1589.79,-518.79C1389.21,-515.3 840.16,-503.22 384,-470 366.09,-468.7 346.85,-466.88 328.77,-464.98"/>
<polygon fill="#63b8ff" stroke="#63b8ff" points="1589.5,-522.29 1599.56,-518.96 1589.62,-515.29 1589.5,-522.29"/>
</g>
<!-- Node4&#45;&gt;Node3 -->
<g id="edge4" class="edge">
<title>Node4&#45;&gt;Node3</title>
<path fill="none" stroke="#63b8ff" d="M1732.18,-477.5C1720.12,-486.83 1705.4,-497.49 1693.03,-505.8"/>
<polygon fill="#63b8ff" stroke="#63b8ff" points="1734.33,-480.27 1740,-471.32 1729.99,-474.78 1734.33,-480.27"/>
</g>
<!-- Node4&#45;&gt;Node5 -->
<g id="edge5" class="edge">
<title>Node4&#45;&gt;Node5</title>
<path fill="none" stroke="#63b8ff" d="M1716.55,-434.5C1700.27,-425.78 1681.34,-414.99 1665,-404 1640.87,-387.77 1636.97,-380.84 1614,-363 1598.53,-350.98 1580.99,-337.81 1566.88,-327.32"/>
<polygon fill="#63b8ff" stroke="#63b8ff" points="1714.48,-437.37 1724.96,-438.95 1717.75,-431.18 1714.48,-437.37"/>
</g>
<!-- Node6 -->
<g id="node6" class="node">
<title>Node6</title>
<g id="a_node6"><a xlink:href="SGamePlay__Duck_8hpp.html" target="_top" xlink:title=" ">
<polygon fill="white" stroke="#666666" points="1176.5,-250 1019.5,-250 1019.5,-209 1176.5,-209 1176.5,-250"/>
<text text-anchor="start" x="1027.5" y="-238" font-family="Helvetica,sans-Serif" font-size="10.00">/github/workspace/client</text>
<text text-anchor="start" x="1027.5" y="-227" font-family="Helvetica,sans-Serif" font-size="10.00">/include/system/gameStates</text>
<text text-anchor="middle" x="1098" y="-216" font-family="Helvetica,sans-Serif" font-size="10.00">/Example/SGamePlay_Duck.hpp</text>
</a>
</g>
</g>
<!-- Node5&#45;&gt;Node6 -->
<g id="edge6" class="edge">
<title>Node5&#45;&gt;Node6</title>
<path fill="none" stroke="#63b8ff" d="M1458.36,-294.18C1386.45,-283.86 1278.98,-267.57 1186,-250 1182.92,-249.42 1179.79,-248.81 1176.63,-248.18"/>
<polygon fill="#63b8ff" stroke="#63b8ff" points="1457.7,-297.62 1468.09,-295.57 1458.69,-290.69 1457.7,-297.62"/>
</g>
<!-- Node7 -->
<g id="node7" class="node">
<title>Node7</title>
<g id="a_node7"><a xlink:href="SMenu__Duck_8hpp.html" target="_top" xlink:title=" ">
<polygon fill="white" stroke="#666666" points="1727,-250 1587,-250 1587,-209 1727,-209 1727,-250"/>
<text text-anchor="start" x="1595" y="-238" font-family="Helvetica,sans-Serif" font-size="10.00">/github/workspace/client</text>
<text text-anchor="start" x="1595" y="-227" font-family="Helvetica,sans-Serif" font-size="10.00">/include/system/gameStates</text>
<text text-anchor="middle" x="1657" y="-216" font-family="Helvetica,sans-Serif" font-size="10.00">/Example/SMenu_Duck.hpp</text>
</a>
</g>
</g>
<!-- Node5&#45;&gt;Node7 -->
<g id="edge7" class="edge">
<title>Node5&#45;&gt;Node7</title>
<path fill="none" stroke="#63b8ff" d="M1580.51,-279.53C1595.35,-270.02 1611.91,-259.41 1625.81,-250.49"/>
<polygon fill="#63b8ff" stroke="#63b8ff" points="1578.85,-276.44 1572.32,-284.78 1582.63,-282.33 1578.85,-276.44"/>
</g>
<!-- Node8 -->
<g id="node8" class="node">
<title>Node8</title>
<g id="a_node8"><a xlink:href="SGamePlay_8hpp.html" target="_top" xlink:title=" ">
<polygon fill="white" stroke="#666666" points="1493,-250 1353,-250 1353,-209 1493,-209 1493,-250"/>
<text text-anchor="start" x="1361" y="-238" font-family="Helvetica,sans-Serif" font-size="10.00">/github/workspace/client</text>
<text text-anchor="start" x="1361" y="-227" font-family="Helvetica,sans-Serif" font-size="10.00">/include/system/gameStates</text>
<text text-anchor="middle" x="1423" y="-216" font-family="Helvetica,sans-Serif" font-size="10.00">/SGamePlay.hpp</text>
</a>
</g>
</g>
<!-- Node5&#45;&gt;Node8 -->
<g id="edge8" class="edge">
<title>Node5&#45;&gt;Node8</title>
<path fill="none" stroke="#63b8ff" d="M1499.49,-279.53C1484.65,-270.02 1468.09,-259.41 1454.19,-250.49"/>
<polygon fill="#63b8ff" stroke="#63b8ff" points="1497.37,-282.33 1507.68,-284.78 1501.15,-276.44 1497.37,-282.33"/>
</g>
<!-- Node9 -->
<g id="node9" class="node">
<title>Node9</title>
<g id="a_node9"><a xlink:href="States_8hpp.html" target="_top" xlink:title=" ">
<polygon fill="white" stroke="#666666" points="1531,-173 1391,-173 1391,-132 1531,-132 1531,-173"/>
<text text-anchor="start" x="1399" y="-161" font-family="Helvetica,sans-Serif" font-size="10.00">/github/workspace/client</text>
<text text-anchor="start" x="1399" y="-150" font-family="Helvetica,sans-Serif" font-size="10.00">/include/system/gameStates</text>
<text text-anchor="middle" x="1461" y="-139" font-family="Helvetica,sans-Serif" font-size="10.00">/States.hpp</text>
</a>
</g>
</g>
<!-- Node5&#45;&gt;Node9 -->
<g id="edge16" class="edge">
<title>Node5&#45;&gt;Node9</title>
<path fill="none" stroke="#63b8ff" d="M1530.26,-274.91C1523.51,-255.46 1513.67,-230.07 1502,-209 1495.09,-196.53 1485.75,-183.66 1477.73,-173.46"/>
<polygon fill="#63b8ff" stroke="#63b8ff" points="1526.87,-275.81 1533.38,-284.17 1533.5,-273.57 1526.87,-275.81"/>
</g>
<!-- Node13 -->
<g id="node13" class="node">
<title>Node13</title>
<g id="a_node13"><a xlink:href="SMenu_8hpp.html" target="_top" xlink:title=" ">
<polygon fill="white" stroke="#666666" points="1885,-250 1745,-250 1745,-209 1885,-209 1885,-250"/>
<text text-anchor="start" x="1753" y="-238" font-family="Helvetica,sans-Serif" font-size="10.00">/github/workspace/client</text>
<text text-anchor="start" x="1753" y="-227" font-family="Helvetica,sans-Serif" font-size="10.00">/include/system/gameStates</text>
<text text-anchor="middle" x="1815" y="-216" font-family="Helvetica,sans-Serif" font-size="10.00">/SMenu.hpp</text>
</a>
</g>
</g>
<!-- Node5&#45;&gt;Node13 -->
<g id="edge14" class="edge">
<title>Node5&#45;&gt;Node13</title>
<path fill="none" stroke="#63b8ff" d="M1621.56,-283.26C1660.71,-272.58 1707.16,-259.91 1744.72,-249.67"/>
<polygon fill="#63b8ff" stroke="#63b8ff" points="1620.65,-279.88 1611.92,-285.88 1622.49,-286.63 1620.65,-279.88"/>
</g>
<!-- Node14 -->
<g id="node14" class="node">
<title>Node14</title>
<g id="a_node14"><a xlink:href="old__SGamePlay_01copy_8hpp.html" target="_top" xlink:title=" ">
<polygon fill="white" stroke="#666666" points="1335,-250 1195,-250 1195,-209 1335,-209 1335,-250"/>
<text text-anchor="start" x="1203" y="-238" font-family="Helvetica,sans-Serif" font-size="10.00">/github/workspace/client</text>
<text text-anchor="start" x="1203" y="-227" font-family="Helvetica,sans-Serif" font-size="10.00">/include/system/gameStates</text>
<text text-anchor="middle" x="1265" y="-216" font-family="Helvetica,sans-Serif" font-size="10.00">/old_SGamePlay copy.hpp</text>
</a>
</g>
</g>
<!-- Node5&#45;&gt;Node14 -->
<g id="edge17" class="edge">
<title>Node5&#45;&gt;Node14</title>
<path fill="none" stroke="#63b8ff" d="M1458.44,-283.26C1419.29,-272.58 1372.84,-259.91 1335.28,-249.67"/>
<polygon fill="#63b8ff" stroke="#63b8ff" points="1457.51,-286.63 1468.08,-285.88 1459.35,-279.88 1457.51,-286.63"/>
</g>
<!-- Node8&#45;&gt;Node9 -->
<g id="edge9" class="edge">
<title>Node8&#45;&gt;Node9</title>
<path fill="none" stroke="#63b8ff" d="M1438.06,-198.78C1442.39,-190.23 1447,-181.12 1450.95,-173.33"/>
<polygon fill="#63b8ff" stroke="#63b8ff" points="1435.07,-196.94 1433.67,-207.44 1441.31,-200.11 1435.07,-196.94"/>
</g>
<!-- Node10 -->
<g id="node10" class="node">
<title>Node10</title>
<g id="a_node10"><a xlink:href="GameEngine_8hpp.html" target="_top" xlink:title=" ">
<polygon fill="white" stroke="#666666" points="1590.5,-96 1429.5,-96 1429.5,-66 1590.5,-66 1590.5,-96"/>
<text text-anchor="start" x="1437.5" y="-84" font-family="Helvetica,sans-Serif" font-size="10.00">/github/workspace/client</text>
<text text-anchor="middle" x="1510" y="-73" font-family="Helvetica,sans-Serif" font-size="10.00">/include/system/GameEngine.hpp</text>
</a>
</g>
</g>
<!-- Node9&#45;&gt;Node10 -->
<g id="edge10" class="edge">
<title>Node9&#45;&gt;Node10</title>
<path fill="none" stroke="#63b8ff" d="M1481.53,-122.38C1487.83,-113.44 1494.5,-103.99 1499.8,-96.47"/>
<polygon fill="#63b8ff" stroke="#63b8ff" points="1478.68,-120.34 1475.78,-130.53 1484.41,-124.38 1478.68,-120.34"/>
</g>
<!-- Node10&#45;&gt;Node5 -->
<g id="edge11" class="edge">
<title>Node10&#45;&gt;Node5</title>
<path fill="none" stroke="#63b8ff" d="M1527.75,-105.65C1532.72,-113.61 1537.45,-122.81 1540,-132 1554.92,-185.85 1548.21,-252.76 1543.39,-285.52"/>
<polygon fill="#63b8ff" stroke="#63b8ff" points="1530.81,-103.93 1522.32,-97.59 1525,-107.84 1530.81,-103.93"/>
</g>
<!-- Node11 -->
<g id="node11" class="node">
<title>Node11</title>
<g id="a_node11"><a xlink:href="StateManager_8cpp.html" target="_top" xlink:title=" ">
<polygon fill="white" stroke="#666666" points="1312,-30 1190,-30 1190,0 1312,0 1312,-30"/>
<text text-anchor="start" x="1198" y="-18" font-family="Helvetica,sans-Serif" font-size="10.00">/github/workspace/client</text>
<text text-anchor="middle" x="1251" y="-7" font-family="Helvetica,sans-Serif" font-size="10.00">/src/StateManager.cpp</text>
</a>
</g>
</g>
<!-- Node10&#45;&gt;Node11 -->
<g id="edge12" class="edge">
<title>Node10&#45;&gt;Node11</title>
<path fill="none" stroke="#63b8ff" d="M1440.54,-62.84C1399.51,-52.7 1348.14,-40 1309.23,-30.39"/>
<polygon fill="#63b8ff" stroke="#63b8ff" points="1439.54,-66.19 1450.08,-65.19 1441.21,-59.4 1439.54,-66.19"/>
</g>
<!-- Node10&#45;&gt;Node12 -->
<g id="edge13" class="edge">
<title>Node10&#45;&gt;Node12</title>
<path fill="none" stroke="#63b8ff" d="M1601.64,-65.45C1678.15,-53.3 1785.09,-36.31 1851.63,-25.75"/>
<polygon fill="#63b8ff" stroke="#63b8ff" points="1601.41,-61.94 1592.08,-66.97 1602.5,-68.85 1601.41,-61.94"/>
</g>
<!-- Node13&#45;&gt;Node9 -->
<g id="edge15" class="edge">
<title>Node13&#45;&gt;Node9</title>
<path fill="none" stroke="#63b8ff" d="M1733.82,-208.55C1659.19,-191.97 1584.32,-177.07 1531.25,-166.82"/>
<polygon fill="#63b8ff" stroke="#63b8ff" points="1732.83,-211.92 1743.35,-210.68 1734.35,-205.09 1732.83,-211.92"/>
</g>
<!-- Node15&#45;&gt;Node16 -->
<g id="edge19" class="edge">
<title>Node15&#45;&gt;Node16</title>
<path fill="none" stroke="#63b8ff" d="M2239.21,-363.3C2266.9,-350.4 2302.8,-333.68 2328.05,-321.92"/>
<polygon fill="#63b8ff" stroke="#63b8ff" points="2238,-360 2230.41,-367.4 2240.96,-366.35 2238,-360"/>
</g>
<!-- Node17&#45;&gt;Node7 -->
<g id="edge21" class="edge">
<title>Node17&#45;&gt;Node7</title>
<path fill="none" stroke="#63b8ff" d="M1766.35,-285.91C1744.8,-274.99 1718.02,-261.42 1696.36,-250.44"/>
<polygon fill="#63b8ff" stroke="#63b8ff" points="1764.61,-288.96 1775.11,-290.36 1767.78,-282.71 1764.61,-288.96"/>
</g>
<!-- Node17&#45;&gt;Node13 -->
<g id="edge22" class="edge">
<title>Node17&#45;&gt;Node13</title>
<path fill="none" stroke="#63b8ff" d="M1808.44,-279.68C1809.73,-270.06 1811.16,-259.3 1812.36,-250.3"/>
<polygon fill="#63b8ff" stroke="#63b8ff" points="1804.98,-279.16 1807.13,-289.54 1811.92,-280.09 1804.98,-279.16"/>
</g>
<!-- Node18&#45;&gt;Node3 -->
<g id="edge24" class="edge">
<title>Node18&#45;&gt;Node3</title>
<path fill="none" stroke="#63b8ff" d="M2553.08,-409.87C2547.75,-429.92 2534.72,-456.68 2513,-470 2444.53,-511.99 1871.02,-499.1 1791,-506 1772.82,-507.57 1753.07,-509.8 1734.79,-512.03"/>
<polygon fill="#63b8ff" stroke="#63b8ff" points="2556.49,-410.69 2555.07,-400.19 2549.63,-409.28 2556.49,-410.69"/>
</g>
<!-- Node18&#45;&gt;Node16 -->
<g id="edge25" class="edge">
<title>Node18&#45;&gt;Node16</title>
<path fill="none" stroke="#63b8ff" d="M2505.1,-363.98C2471.51,-351 2427.26,-333.89 2396.29,-321.92"/>
<polygon fill="#63b8ff" stroke="#63b8ff" points="2503.59,-367.15 2514.18,-367.49 2506.12,-360.62 2503.59,-367.15"/>
</g>
<!-- Node19 -->
<g id="node19" class="node">
<title>Node19</title>
<g id="a_node19"><a xlink:href="Bullets_8cpp.html" target="_top" xlink:title=" ">
<polygon fill="white" stroke="#666666" points="2614,-321.5 2492,-321.5 2492,-291.5 2614,-291.5 2614,-321.5"/>
<text text-anchor="start" x="2500" y="-309.5" font-family="Helvetica,sans-Serif" font-size="10.00">/github/workspace/client</text>
<text text-anchor="middle" x="2553" y="-298.5" font-family="Helvetica,sans-Serif" font-size="10.00">/src/Bullets.cpp</text>
</a>
</g>
</g>
<!-- Node18&#45;&gt;Node19 -->
<g id="edge26" class="edge">
<title>Node18&#45;&gt;Node19</title>
<path fill="none" stroke="#63b8ff" d="M2553,-356.73C2553,-345.08 2553,-331.76 2553,-321.92"/>
<polygon fill="#63b8ff" stroke="#63b8ff" points="2549.5,-356.53 2553,-366.53 2556.5,-356.53 2549.5,-356.53"/>
</g>
<!-- Node20&#45;&gt;Node5 -->
<g id="edge28" class="edge">
<title>Node20&#45;&gt;Node5</title>
<path fill="none" stroke="#63b8ff" d="M1706.87,-364.39C1674.15,-353.23 1632.17,-338.92 1598.5,-327.44"/>
<polygon fill="#63b8ff" stroke="#63b8ff" points="1705.55,-367.64 1716.15,-367.55 1707.81,-361.01 1705.55,-367.64"/>
</g>
<!-- Node21&#45;&gt;Node2 -->
<g id="edge32" class="edge">
<title>Node21&#45;&gt;Node2</title>
<path fill="none" stroke="#63b8ff" d="M2296.04,-469.69C2295.02,-469.8 2294.01,-469.9 2293,-470 2179.73,-481.32 1883.39,-454.25 1782,-506 1753.6,-520.5 1732.58,-552.87 1722.22,-571.69"/>
<polygon fill="#63b8ff" stroke="#63b8ff" points="2296.01,-473.22 2305.58,-468.67 2295.27,-466.26 2296.01,-473.22"/>
</g>
<!-- Node21&#45;&gt;Node18 -->
<g id="edge30" class="edge">
<title>Node21&#45;&gt;Node18</title>
<path fill="none" stroke="#63b8ff" d="M2442.74,-434.91C2467.63,-423.53 2498.73,-409.31 2521.55,-398.88"/>
<polygon fill="#63b8ff" stroke="#63b8ff" points="2441.51,-431.63 2433.87,-438.97 2444.42,-437.99 2441.51,-431.63"/>
</g>
<!-- Node21&#45;&gt;Node20 -->
<g id="edge31" class="edge">
<title>Node21&#45;&gt;Node20</title>
<path fill="none" stroke="#63b8ff" d="M2295.75,-442.98C2200.69,-432.98 2056.95,-417.74 1932,-404 1904.22,-400.94 1873.92,-397.54 1846.61,-394.43"/>
<polygon fill="#63b8ff" stroke="#63b8ff" points="2295.29,-446.45 2305.6,-444.02 2296.02,-439.49 2295.29,-446.45"/>
</g>
<!-- Node21&#45;&gt;Node22 -->
<g id="edge33" class="edge">
<title>Node21&#45;&gt;Node22</title>
<path fill="none" stroke="#63b8ff" d="M2398.42,-428.36C2397.62,-420.45 2396.76,-411.87 2396.01,-404.42"/>
<polygon fill="#63b8ff" stroke="#63b8ff" points="2394.91,-428.49 2399.4,-438.09 2401.88,-427.79 2394.91,-428.49"/>
</g>
<!-- Node26 -->
<g id="node26" class="node">
<title>Node26</title>
<g id="a_node26"><a xlink:href="Destroy_8cpp.html" target="_top" xlink:title=" ">
<polygon fill="white" stroke="#666666" points="1310,-398.5 1188,-398.5 1188,-368.5 1310,-368.5 1310,-398.5"/>
<text text-anchor="start" x="1196" y="-386.5" font-family="Helvetica,sans-Serif" font-size="10.00">/github/workspace/client</text>
<text text-anchor="middle" x="1249" y="-375.5" font-family="Helvetica,sans-Serif" font-size="10.00">/src/Destroy.cpp</text>
</a>
</g>
</g>
<!-- Node25&#45;&gt;Node26 -->
<g id="edge37" class="edge">
<title>Node25&#45;&gt;Node26</title>
<path fill="none" stroke="#63b8ff" d="M1249,-428.26C1249,-418.33 1249,-407.36 1249,-398.88"/>
<polygon fill="#63b8ff" stroke="#63b8ff" points="1245.5,-428.09 1249,-438.09 1252.5,-428.09 1245.5,-428.09"/>
</g>
<!-- Node28 -->
<g id="node28" class="node">
<title>Node28</title>
<g id="a_node28"><a xlink:href="Draw_8cpp.html" target="_top" xlink:title=" ">
<polygon fill="white" stroke="#666666" points="1460,-398.5 1338,-398.5 1338,-368.5 1460,-368.5 1460,-398.5"/>
<text text-anchor="start" x="1346" y="-386.5" font-family="Helvetica,sans-Serif" font-size="10.00">/github/workspace/client</text>
<text text-anchor="middle" x="1399" y="-375.5" font-family="Helvetica,sans-Serif" font-size="10.00">/src/Draw.cpp</text>
</a>
</g>
</g>
<!-- Node27&#45;&gt;Node28 -->
<g id="edge39" class="edge">
<title>Node27&#45;&gt;Node28</title>
<path fill="none" stroke="#63b8ff" d="M1399,-428.26C1399,-418.33 1399,-407.36 1399,-398.88"/>
<polygon fill="#63b8ff" stroke="#63b8ff" points="1395.5,-428.09 1399,-438.09 1402.5,-428.09 1395.5,-428.09"/>
</g>
<!-- Node29&#45;&gt;Node12 -->
<g id="edge42" class="edge">
<title>Node29&#45;&gt;Node12</title>
<path fill="none" stroke="#63b8ff" d="M1962.71,-433.58C1951.19,-425.79 1939.65,-415.87 1932,-404 1908.32,-367.26 1913,-351.21 1913,-307.5 1913,-307.5 1913,-307.5 1913,-151.5 1913,-107.27 1913,-54.93 1913,-30.24"/>
<polygon fill="#63b8ff" stroke="#63b8ff" points="1960.69,-436.44 1971.02,-438.82 1964.43,-430.52 1960.69,-436.44"/>
</g>
<!-- Node30 -->
<g id="node30" class="node">
<title>Node30</title>
<g id="a_node30"><a xlink:href="Error_8cpp.html" target="_top" xlink:title=" ">
<polygon fill="white" stroke="#666666" points="2063,-398.5 1941,-398.5 1941,-368.5 2063,-368.5 2063,-398.5"/>
<text text-anchor="start" x="1949" y="-386.5" font-family="Helvetica,sans-Serif" font-size="10.00">/github/workspace/client</text>
<text text-anchor="middle" x="2002" y="-375.5" font-family="Helvetica,sans-Serif" font-size="10.00">/src/Error.cpp</text>
</a>
</g>
</g>
<!-- Node29&#45;&gt;Node30 -->
<g id="edge41" class="edge">
<title>Node29&#45;&gt;Node30</title>
<path fill="none" stroke="#63b8ff" d="M2002,-428.26C2002,-418.33 2002,-407.36 2002,-398.88"/>
<polygon fill="#63b8ff" stroke="#63b8ff" points="1998.5,-428.09 2002,-438.09 2005.5,-428.09 1998.5,-428.09"/>
</g>
<!-- Node31&#45;&gt;Node3 -->
<g id="edge44" class="edge">
<title>Node31&#45;&gt;Node3</title>
<path fill="none" stroke="#63b8ff" d="M1616.15,-476.68C1629.61,-486.19 1644.24,-497.24 1654.63,-505.8"/>
<polygon fill="#63b8ff" stroke="#63b8ff" points="1618.53,-474.07 1608.32,-471.25 1614.54,-479.82 1618.53,-474.07"/>
</g>
<!-- Node31&#45;&gt;Node32 -->
<g id="edge45" class="edge">
<title>Node31&#45;&gt;Node32</title>
<path fill="none" stroke="#63b8ff" d="M1568.64,-429.56C1563.03,-419.3 1556.7,-407.73 1551.86,-398.88"/>
<polygon fill="#63b8ff" stroke="#63b8ff" points="1565.53,-431.18 1573.4,-438.27 1571.67,-427.82 1565.53,-431.18"/>
</g>
<!-- Node34&#45;&gt;Node11 -->
<g id="edge48" class="edge">
<title>Node34&#45;&gt;Node11</title>
<path fill="none" stroke="#63b8ff" d="M945.92,-357.25C952.44,-327.22 962,-275.5 962,-230.5 962,-230.5 962,-230.5 962,-151.5 962,-51.75 1104.88,-25.29 1189.71,-18.36"/>
<polygon fill="#63b8ff" stroke="#63b8ff" points="942.54,-356.35 943.77,-366.87 949.37,-357.88 942.54,-356.35"/>
</g>
<!-- Node36&#45;&gt;Node3 -->
<g id="edge51" class="edge">
<title>Node36&#45;&gt;Node3</title>
<path fill="none" stroke="#63b8ff" d="M1173.49,-468.92C1176.03,-469.29 1178.53,-469.66 1181,-470 1330.81,-490.79 1507.21,-506.5 1601.23,-514.37"/>
<polygon fill="#63b8ff" stroke="#63b8ff" points="1174.18,-465.48 1163.76,-467.4 1173.1,-472.4 1174.18,-465.48"/>
</g>
<!-- Node36&#45;&gt;Node34 -->
<g id="edge52" class="edge">
<title>Node36&#45;&gt;Node34</title>
<path fill="none" stroke="#63b8ff" d="M1050.98,-434.91C1025.93,-423.53 994.63,-409.31 971.66,-398.88"/>
<polygon fill="#63b8ff" stroke="#63b8ff" points="1049.37,-438.02 1059.92,-438.97 1052.26,-431.65 1049.37,-438.02"/>
</g>
<!-- Node37 -->
<g id="node37" class="node">
<title>Node37</title>
<g id="a_node37"><a xlink:href="Window_8cpp.html" target="_top" xlink:title=" ">
<polygon fill="white" stroke="#666666" points="1162,-398.5 1040,-398.5 1040,-368.5 1162,-368.5 1162,-398.5"/>
<text text-anchor="start" x="1048" y="-386.5" font-family="Helvetica,sans-Serif" font-size="10.00">/github/workspace/client</text>
<text text-anchor="middle" x="1101" y="-375.5" font-family="Helvetica,sans-Serif" font-size="10.00">/src/Window.cpp</text>
</a>
</g>
</g>
<!-- Node36&#45;&gt;Node37 -->
<g id="edge53" class="edge">
<title>Node36&#45;&gt;Node37</title>
<path fill="none" stroke="#63b8ff" d="M1095.96,-428.26C1097.11,-418.33 1098.37,-407.36 1099.34,-398.88"/>
<polygon fill="#63b8ff" stroke="#63b8ff" points="1092.5,-427.76 1094.83,-438.1 1099.45,-428.56 1092.5,-427.76"/>
</g>
<!-- Node39 -->
<g id="node39" class="node">
<title>Node39</title>
<g id="a_node39"><a xlink:href="Enemy_8hpp.html" target="_top" xlink:title=" ">
<polygon fill="white" stroke="#666666" points="332,-398.5 174,-398.5 174,-368.5 332,-368.5 332,-398.5"/>
<text text-anchor="start" x="182" y="-386.5" font-family="Helvetica,sans-Serif" font-size="10.00">/github/workspace/client</text>
<text text-anchor="middle" x="253" y="-375.5" font-family="Helvetica,sans-Serif" font-size="10.00">/include/Components/Enemy.hpp</text>
</a>
</g>
</g>
<!-- Node38&#45;&gt;Node39 -->
<g id="edge56" class="edge">
<title>Node38&#45;&gt;Node39</title>
<path fill="none" stroke="#63b8ff" d="M253,-428.26C253,-418.33 253,-407.36 253,-398.88"/>
<polygon fill="#63b8ff" stroke="#63b8ff" points="249.5,-428.09 253,-438.09 256.5,-428.09 249.5,-428.09"/>
</g>
<!-- Node40 -->
<g id="node40" class="node">
<title>Node40</title>
<g id="a_node40"><a xlink:href="Player_8hpp.html" target="_top" xlink:title=" ">
<polygon fill="white" stroke="#666666" points="156,-398.5 0,-398.5 0,-368.5 156,-368.5 156,-398.5"/>
<text text-anchor="start" x="8" y="-386.5" font-family="Helvetica,sans-Serif" font-size="10.00">/github/workspace/client</text>
<text text-anchor="middle" x="78" y="-375.5" font-family="Helvetica,sans-Serif" font-size="10.00">/include/Components/Player.hpp</text>
</a>
</g>
</g>
<!-- Node38&#45;&gt;Node40 -->
<g id="edge57" class="edge">
<title>Node38&#45;&gt;Node40</title>
<path fill="none" stroke="#63b8ff" d="M206.09,-435.37C177.24,-423.91 140.83,-409.45 114.21,-398.88"/>
<polygon fill="#63b8ff" stroke="#63b8ff" points="204.75,-438.6 215.33,-439.04 207.33,-432.1 204.75,-438.6"/>
</g>
<!-- Node41 -->
<g id="node41" class="node">
<title>Node41</title>
<g id="a_node41"><a xlink:href="Player_8cpp.html" target="_top" xlink:title=" ">
<polygon fill="white" stroke="#666666" points="139,-321.5 17,-321.5 17,-291.5 139,-291.5 139,-321.5"/>
<text text-anchor="start" x="25" y="-309.5" font-family="Helvetica,sans-Serif" font-size="10.00">/github/workspace/client</text>
<text text-anchor="middle" x="78" y="-298.5" font-family="Helvetica,sans-Serif" font-size="10.00">/src/Player.cpp</text>
</a>
</g>
</g>
<!-- Node40&#45;&gt;Node41 -->
<g id="edge58" class="edge">
<title>Node40&#45;&gt;Node41</title>
<path fill="none" stroke="#63b8ff" d="M78,-356.73C78,-345.08 78,-331.76 78,-321.92"/>
<polygon fill="#63b8ff" stroke="#63b8ff" points="74.5,-356.53 78,-366.53 81.5,-356.53 74.5,-356.53"/>
</g>
</g>
</svg>
