<?xml version="1.0" encoding="UTF-8" standalone="no"?>
<!DOCTYPE svg PUBLIC "-//W3C//DTD SVG 1.1//EN"
 "http://www.w3.org/Graphics/SVG/1.1/DTD/svg11.dtd">
<!-- Generated by graphviz version 7.0.5 (20221223.1930)
 -->
<!-- Title: /github/workspace/client/include/Utils/SparseArray.hpp Pages: 1 -->
<svg width="314pt" height="148pt"
 viewBox="0.00 0.00 313.50 148.00" xmlns="http://www.w3.org/2000/svg" xmlns:xlink="http://www.w3.org/1999/xlink">
<g id="graph0" class="graph" transform="scale(1 1) rotate(0) translate(4 144)">
<title>/github/workspace/client/include/Utils/SparseArray.hpp</title>
<!-- Node1 -->
<g id="node1" class="node">
<title>Node1</title>
<g id="a_node1"><a xlink:title=" ">
<polygon fill="#999999" stroke="#666666" points="248,-140 100,-140 100,-110 248,-110 248,-140"/>
<text text-anchor="start" x="108" y="-128" font-family="Helvetica,sans-Serif" font-size="10.00">/github/workspace/client</text>
<text text-anchor="middle" x="174" y="-117" font-family="Helvetica,sans-Serif" font-size="10.00">/include/Utils/SparseArray.hpp</text>
</a>
</g>
</g>
<!-- Node2 -->
<g id="node2" class="node">
<title>Node2</title>
<g id="a_node2"><a xlink:title=" ">
<polygon fill="#e0e0e0" stroke="#999999" points="54,-19 0,-19 0,0 54,0 54,-19"/>
<text text-anchor="middle" x="27" y="-7" font-family="Helvetica,sans-Serif" font-size="10.00">iostream</text>
</a>
</g>
</g>
<!-- Node1&#45;&gt;Node2 -->
<g id="edge1" class="edge">
<title>Node1&#45;&gt;Node2</title>
<path fill="none" stroke="#63b8ff" d="M135.84,-109.62C116.36,-101.12 93.03,-89.05 75,-74 59.76,-61.28 46.52,-42.85 37.82,-29.12"/>
<polygon fill="#63b8ff" stroke="#63b8ff" points="40.84,-27.34 32.66,-20.6 34.85,-30.97 40.84,-27.34"/>
</g>
<!-- Node3 -->
<g id="node3" class="node">
<title>Node3</title>
<g id="a_node3"><a xlink:title=" ">
<polygon fill="#e0e0e0" stroke="#999999" points="129,-19 73,-19 73,0 129,0 129,-19"/>
<text text-anchor="middle" x="101" y="-7" font-family="Helvetica,sans-Serif" font-size="10.00">algorithm</text>
</a>
</g>
</g>
<!-- Node1&#45;&gt;Node3 -->
<g id="edge2" class="edge">
<title>Node1&#45;&gt;Node3</title>
<path fill="none" stroke="#63b8ff" d="M126.4,-109.68C109.31,-101.98 91.85,-90.56 82,-74 73.65,-59.95 80.41,-41.95 88.09,-28.7"/>
<polygon fill="#63b8ff" stroke="#63b8ff" points="90.88,-30.83 93.35,-20.53 84.99,-27.04 90.88,-30.83"/>
</g>
<!-- Node4 -->
<g id="node4" class="node">
<title>Node4</title>
<g id="a_node4"><a xlink:title=" ">
<polygon fill="#e0e0e0" stroke="#999999" points="186,-19 148,-19 148,0 186,0 186,-19"/>
<text text-anchor="middle" x="167" y="-7" font-family="Helvetica,sans-Serif" font-size="10.00">array</text>
</a>
</g>
</g>
<!-- Node1&#45;&gt;Node4 -->
<g id="edge3" class="edge">
<title>Node1&#45;&gt;Node4</title>
<path fill="none" stroke="#63b8ff" d="M182.07,-109.73C188.93,-95.77 196.95,-73.92 192,-55 189.59,-45.81 184.82,-36.5 180.08,-28.8"/>
<polygon fill="#63b8ff" stroke="#63b8ff" points="183.15,-27.1 174.7,-20.7 177.32,-30.97 183.15,-27.1"/>
</g>
<!-- Node5 -->
<g id="node5" class="node">
<title>Node5</title>
<g id="a_node5"><a xlink:title=" ">
<polygon fill="#e0e0e0" stroke="#999999" points="248,-19 204,-19 204,0 248,0 248,-19"/>
<text text-anchor="middle" x="226" y="-7" font-family="Helvetica,sans-Serif" font-size="10.00">vector</text>
</a>
</g>
</g>
<!-- Node1&#45;&gt;Node5 -->
<g id="edge4" class="edge">
<title>Node1&#45;&gt;Node5</title>
<path fill="none" stroke="#63b8ff" d="M185.01,-109.79C192.07,-100.13 201.01,-86.82 207,-74 213.57,-59.94 218.49,-43.06 221.68,-30.25"/>
<polygon fill="#63b8ff" stroke="#63b8ff" points="225,-31.43 223.85,-20.9 218.18,-29.84 225,-31.43"/>
</g>
<!-- Node6 -->
<g id="node6" class="node">
<title>Node6</title>
<g id="a_node6"><a xlink:title=" ">
<polygon fill="#e0e0e0" stroke="#999999" points="305.5,-19 266.5,-19 266.5,0 305.5,0 305.5,-19"/>
<text text-anchor="middle" x="286" y="-7" font-family="Helvetica,sans-Serif" font-size="10.00">utility</text>
</a>
</g>
</g>
<!-- Node1&#45;&gt;Node6 -->
<g id="edge5" class="edge">
<title>Node1&#45;&gt;Node6</title>
<path fill="none" stroke="#63b8ff" d="M188.85,-109.68C199.08,-99.74 212.96,-86.16 225,-74 240.4,-58.44 257.67,-40.41 269.89,-27.55"/>
<polygon fill="#63b8ff" stroke="#63b8ff" points="272.41,-29.97 276.75,-20.31 267.33,-25.16 272.41,-29.97"/>
</g>
<!-- Node7 -->
<g id="node7" class="node">
<title>Node7</title>
<g id="a_node7"><a xlink:href="Vectors_8hpp.html" target="_top" xlink:title=" ">
<polygon fill="white" stroke="#666666" points="183,-74 91,-74 91,-55 183,-55 183,-74"/>
<text text-anchor="middle" x="137" y="-62" font-family="Helvetica,sans-Serif" font-size="10.00">Utils/Vectors.hpp</text>
</a>
</g>
</g>
<!-- Node1&#45;&gt;Node7 -->
<g id="edge6" class="edge">
<title>Node1&#45;&gt;Node7</title>
<path fill="none" stroke="#63b8ff" d="M164.85,-109.54C159.92,-101.74 153.78,-92.03 148.52,-83.71"/>
<polygon fill="#63b8ff" stroke="#63b8ff" points="151.6,-82.03 143.3,-75.45 145.68,-85.78 151.6,-82.03"/>
</g>
<!-- Node7&#45;&gt;Node2 -->
<g id="edge7" class="edge">
<title>Node7&#45;&gt;Node2</title>
<path fill="none" stroke="#63b8ff" d="M118.34,-54.51C101.17,-46.24 75.45,-33.84 55.67,-24.31"/>
<polygon fill="#63b8ff" stroke="#63b8ff" points="57.28,-21.2 46.75,-20.01 54.24,-27.51 57.28,-21.2"/>
</g>
<!-- Node7&#45;&gt;Node3 -->
<g id="edge8" class="edge">
<title>Node7&#45;&gt;Node3</title>
<path fill="none" stroke="#63b8ff" d="M131.06,-54.75C126.29,-47.73 119.44,-37.64 113.48,-28.87"/>
<polygon fill="#63b8ff" stroke="#63b8ff" points="116.44,-27 107.92,-20.69 110.65,-30.93 116.44,-27"/>
</g>
<!-- Node7&#45;&gt;Node4 -->
<g id="edge9" class="edge">
<title>Node7&#45;&gt;Node4</title>
<path fill="none" stroke="#63b8ff" d="M141.95,-54.75C145.84,-47.88 151.39,-38.08 156.28,-29.45"/>
<polygon fill="#63b8ff" stroke="#63b8ff" points="159.31,-31.19 161.19,-20.76 153.22,-27.74 159.31,-31.19"/>
</g>
<!-- Node7&#45;&gt;Node5 -->
<g id="edge10" class="edge">
<title>Node7&#45;&gt;Node5</title>
<path fill="none" stroke="#63b8ff" d="M152.1,-54.51C165.6,-46.47 185.65,-34.53 201.46,-25.11"/>
<polygon fill="#63b8ff" stroke="#63b8ff" points="203.02,-28.26 209.82,-20.13 199.44,-22.24 203.02,-28.26"/>
</g>
<!-- Node7&#45;&gt;Node6 -->
<g id="edge11" class="edge">
<title>Node7&#45;&gt;Node6</title>
<path fill="none" stroke="#63b8ff" d="M162.28,-54.51C188.11,-45.32 228.23,-31.05 255.74,-21.26"/>
<polygon fill="#63b8ff" stroke="#63b8ff" points="256.65,-24.66 264.9,-18.01 254.3,-18.06 256.65,-24.66"/>
</g>
</g>
</svg>
