<?xml version="1.0" encoding="UTF-8" standalone="no"?>
<!DOCTYPE svg PUBLIC "-//W3C//DTD SVG 1.1//EN"
 "http://www.w3.org/Graphics/SVG/1.1/DTD/svg11.dtd">
<!-- Generated by graphviz version 7.0.5 (20221223.1930)
 -->
<!-- Title: /github/workspace/client/src/StateManager.cpp Pages: 1 -->
<!--zoomable 588 -->
<svg id="main" version="1.1" xmlns="http://www.w3.org/2000/svg" xmlns:xlink="http://www.w3.org/1999/xlink" xml:space="preserve" onload="init(evt)">
<style type="text/css"><![CDATA[
.edge:hover path { stroke: red; }
.edge:hover polygon { stroke: red; fill: red; }
]]></style>
<script type="text/javascript"><![CDATA[
var edges = document.getElementsByTagName('g');
if (edges && edges.length) {
  for (var i=0;i<edges.length;i++) {
    if (edges[i].id.substr(0,4)=='edge') {
      edges[i].setAttribute('class','edge');
    }
  }
}
]]></script>
        <defs>
                <circle id="rim" cx="0" cy="0" r="7"/>
                <circle id="rim2" cx="0" cy="0" r="3.5"/>
                <g id="zoomPlus">
                        <use xlink:href="#rim" fill="#404040">
                                <set attributeName="fill" to="#808080" begin="zoomplus.mouseover" end="zoomplus.mouseout"/>
                        </use>
                        <path d="M-4,0h8M0,-4v8" fill="none" stroke="white" stroke-width="1.5" pointer-events="none"/>
                </g>
                <g id="zoomMin">
                        <use xlink:href="#rim" fill="#404040">
                                <set attributeName="fill" to="#808080" begin="zoomminus.mouseover" end="zoomminus.mouseout"/>
                        </use>
                        <path d="M-4,0h8" fill="none" stroke="white" stroke-width="1.5" pointer-events="none"/>
                </g>
                <g id="dirArrow">
                        <path fill="none" stroke="white" stroke-width="1.5" d="M0,-3.0v7 M-2.5,-0.5L0,-3.0L2.5,-0.5"/>
                </g>
               <g id="resetDef">
                       <use xlink:href="#rim2" fill="#404040">
                               <set attributeName="fill" to="#808080" begin="reset.mouseover" end="reset.mouseout"/>
                       </use>
               </g>
        </defs>

<script type="text/javascript">
var viewWidth = 2067;
var viewHeight = 588;
var sectionId = 'dynsection-0';
</script>
<script xlink:href="svgpan.js"/>
<svg id="graph" class="graph">
<g id="viewport">
<title>/github/workspace/client/src/StateManager.cpp</title>
<!-- Node1 -->
<g id="node1" class="node">
<title>Node1</title>
<g id="a_node1"><a xlink:title=" ">
<polygon fill="#999999" stroke="#666666" points="622,-580 500,-580 500,-550 622,-550 622,-580"/>
<text text-anchor="start" x="508" y="-568" font-family="Helvetica,sans-Serif" font-size="10.00">/github/workspace/client</text>
<text text-anchor="middle" x="561" y="-557" font-family="Helvetica,sans-Serif" font-size="10.00">/src/StateManager.cpp</text>
</a>
</g>
</g>
<!-- Node2 -->
<g id="node2" class="node">
<title>Node2</title>
<g id="a_node2"><a xlink:href="StateManager_8hpp.html" target="_top" xlink:title=" ">
<polygon fill="white" stroke="#666666" points="580,-294 452,-294 452,-275 580,-275 580,-294"/>
<text text-anchor="middle" x="516" y="-282" font-family="Helvetica,sans-Serif" font-size="10.00">Engine/StateManager.hpp</text>
</a>
</g>
</g>
<!-- Node1&#45;&gt;Node2 -->
<g id="edge1" class="edge">
<title>Node1&#45;&gt;Node2</title>
<path fill="none" stroke="#63b8ff" d="M551.24,-549.67C538,-528.82 516,-488.44 516,-450.5 516,-450.5 516,-450.5 516,-393.5 516,-362.92 516,-327.48 516,-305.77"/>
<polygon fill="#63b8ff" stroke="#63b8ff" points="519.5,-305.97 516,-295.97 512.5,-305.97 519.5,-305.97"/>
</g>
<!-- Node30 -->
<g id="node30" class="node">
<title>Node30</title>
<g id="a_node30"><a xlink:href="GameEngine_8hpp.html" target="_top" xlink:title=" ">
<polygon fill="white" stroke="#666666" points="669.5,-514 544.5,-514 544.5,-495 669.5,-495 669.5,-514"/>
<text text-anchor="middle" x="607" y="-502" font-family="Helvetica,sans-Serif" font-size="10.00">system/GameEngine.hpp</text>
</a>
</g>
</g>
<!-- Node1&#45;&gt;Node30 -->
<g id="edge44" class="edge">
<title>Node1&#45;&gt;Node30</title>
<path fill="none" stroke="#63b8ff" d="M572.37,-549.54C578.64,-541.56 586.48,-531.59 593.11,-523.16"/>
<polygon fill="#63b8ff" stroke="#63b8ff" points="595.81,-525.39 599.24,-515.36 590.31,-521.06 595.81,-525.39"/>
</g>
<!-- Node3 -->
<g id="node3" class="node">
<title>Node3</title>
<g id="a_node3"><a xlink:href="Engine_8hpp.html" target="_top" xlink:title=" ">
<polygon fill="white" stroke="#666666" points="1077,-239 981,-239 981,-220 1077,-220 1077,-239"/>
<text text-anchor="middle" x="1029" y="-227" font-family="Helvetica,sans-Serif" font-size="10.00">Engine/Engine.hpp</text>
</a>
</g>
</g>
<!-- Node2&#45;&gt;Node3 -->
<g id="edge2" class="edge">
<title>Node2&#45;&gt;Node3</title>
<path fill="none" stroke="#63b8ff" d="M580.45,-276.84C680.66,-266.49 872.36,-246.68 969.47,-236.65"/>
<polygon fill="#63b8ff" stroke="#63b8ff" points="969.74,-240.14 979.32,-235.63 969.02,-233.18 969.74,-240.14"/>
</g>
<!-- Node16 -->
<g id="node16" class="node">
<title>Node16</title>
<g id="a_node16"><a xlink:href="Window_8hpp.html" target="_top" xlink:title=" ">
<polygon fill="white" stroke="#666666" points="264.5,-184 163.5,-184 163.5,-165 264.5,-165 264.5,-184"/>
<text text-anchor="middle" x="214" y="-172" font-family="Helvetica,sans-Serif" font-size="10.00">Engine/Window.hpp</text>
</a>
</g>
</g>
<!-- Node2&#45;&gt;Node16 -->
<g id="edge43" class="edge">
<title>Node2&#45;&gt;Node16</title>
<path fill="none" stroke="#63b8ff" d="M491.03,-274.57C437.55,-255.44 311.77,-210.47 249.8,-188.3"/>
<polygon fill="#63b8ff" stroke="#63b8ff" points="251.02,-185.02 240.43,-184.95 248.66,-191.61 251.02,-185.02"/>
</g>
<!-- Node4 -->
<g id="node4" class="node">
<title>Node4</title>
<g id="a_node4"><a xlink:title=" ">
<polygon fill="#e0e0e0" stroke="#999999" points="878.5,-184 789.5,-184 789.5,-165 878.5,-165 878.5,-184"/>
<text text-anchor="middle" x="834" y="-172" font-family="Helvetica,sans-Serif" font-size="10.00">SFML/Audio.hpp</text>
</a>
</g>
</g>
<!-- Node3&#45;&gt;Node4 -->
<g id="edge3" class="edge">
<title>Node3&#45;&gt;Node4</title>
<path fill="none" stroke="#63b8ff" d="M995.92,-219.51C963.47,-210.69 913.78,-197.18 878,-187.46"/>
<polygon fill="#63b8ff" stroke="#63b8ff" points="878.94,-184.09 868.38,-184.84 877.11,-190.84 878.94,-184.09"/>
</g>
<!-- Node5 -->
<g id="node5" class="node">
<title>Node5</title>
<g id="a_node5"><a xlink:title=" ">
<polygon fill="#e0e0e0" stroke="#999999" points="1001,-184 897,-184 897,-165 1001,-165 1001,-184"/>
<text text-anchor="middle" x="949" y="-172" font-family="Helvetica,sans-Serif" font-size="10.00">SFML/Graphics.hpp</text>
</a>
</g>
</g>
<!-- Node3&#45;&gt;Node5 -->
<g id="edge4" class="edge">
<title>Node3&#45;&gt;Node5</title>
<path fill="none" stroke="#63b8ff" d="M1015.43,-219.51C1003.52,-211.62 985.95,-199.98 971.87,-190.65"/>
<polygon fill="#63b8ff" stroke="#63b8ff" points="973.9,-187.8 963.63,-185.19 970.04,-193.63 973.9,-187.8"/>
</g>
<!-- Node6 -->
<g id="node6" class="node">
<title>Node6</title>
<g id="a_node6"><a xlink:title=" ">
<polygon fill="#e0e0e0" stroke="#999999" points="1492.5,-184 1391.5,-184 1391.5,-165 1492.5,-165 1492.5,-184"/>
<text text-anchor="middle" x="1442" y="-172" font-family="Helvetica,sans-Serif" font-size="10.00">SFML/Network.hpp</text>
</a>
</g>
</g>
<!-- Node3&#45;&gt;Node6 -->
<g id="edge5" class="edge">
<title>Node3&#45;&gt;Node6</title>
<path fill="none" stroke="#63b8ff" d="M1077.28,-222.65C1143.16,-214.62 1265.24,-199.55 1380.17,-184.23"/>
<polygon fill="#63b8ff" stroke="#63b8ff" points="1380.32,-187.74 1389.77,-182.94 1379.39,-180.8 1380.32,-187.74"/>
</g>
<!-- Node7 -->
<g id="node7" class="node">
<title>Node7</title>
<g id="a_node7"><a xlink:title=" ">
<polygon fill="#e0e0e0" stroke="#999999" points="654.5,-184 555.5,-184 555.5,-165 654.5,-165 654.5,-184"/>
<text text-anchor="middle" x="605" y="-172" font-family="Helvetica,sans-Serif" font-size="10.00">SFML/Window.hpp</text>
</a>
</g>
</g>
<!-- Node3&#45;&gt;Node7 -->
<g id="edge6" class="edge">
<title>Node3&#45;&gt;Node7</title>
<path fill="none" stroke="#63b8ff" d="M980.54,-222.93C912.71,-215.06 785.29,-200.01 666.03,-184.24"/>
<polygon fill="#63b8ff" stroke="#63b8ff" points="666.76,-180.81 656.38,-182.96 665.84,-187.75 666.76,-180.81"/>
</g>
<!-- Node8 -->
<g id="node8" class="node">
<title>Node8</title>
<g id="a_node8"><a xlink:title=" ">
<polygon fill="#e0e0e0" stroke="#999999" points="771,-184 673,-184 673,-165 771,-165 771,-184"/>
<text text-anchor="middle" x="722" y="-172" font-family="Helvetica,sans-Serif" font-size="10.00">SFML/System.hpp</text>
</a>
</g>
</g>
<!-- Node3&#45;&gt;Node8 -->
<g id="edge7" class="edge">
<title>Node3&#45;&gt;Node8</title>
<path fill="none" stroke="#63b8ff" d="M980.69,-220.16C927.11,-210.91 840.57,-195.97 782.51,-185.95"/>
<polygon fill="#63b8ff" stroke="#63b8ff" points="783.24,-182.52 772.79,-184.27 782.04,-189.42 783.24,-182.52"/>
</g>
<!-- Node9 -->
<g id="node9" class="node">
<title>Node9</title>
<g id="a_node9"><a xlink:title=" ">
<polygon fill="#e0e0e0" stroke="#999999" points="1712,-19 1658,-19 1658,0 1712,0 1712,-19"/>
<text text-anchor="middle" x="1685" y="-7" font-family="Helvetica,sans-Serif" font-size="10.00">iostream</text>
</a>
</g>
</g>
<!-- Node3&#45;&gt;Node9 -->
<g id="edge8" class="edge">
<title>Node3&#45;&gt;Node9</title>
<path fill="none" stroke="#63b8ff" d="M1077.29,-228.79C1237.19,-229.32 1742.5,-227.52 1800,-184 1827.07,-163.51 1834.26,-140.33 1819,-110 1798,-68.25 1750.28,-39.62 1717.84,-24.14"/>
<polygon fill="#63b8ff" stroke="#63b8ff" points="1719.41,-21.01 1708.86,-20.03 1716.49,-27.37 1719.41,-21.01"/>
</g>
<!-- Node10 -->
<g id="node10" class="node">
<title>Node10</title>
<g id="a_node10"><a xlink:title=" ">
<polygon fill="#e0e0e0" stroke="#999999" points="1145,-184 1095,-184 1095,-165 1145,-165 1145,-184"/>
<text text-anchor="middle" x="1120" y="-172" font-family="Helvetica,sans-Serif" font-size="10.00">fstream</text>
</a>
</g>
</g>
<!-- Node3&#45;&gt;Node10 -->
<g id="edge9" class="edge">
<title>Node3&#45;&gt;Node10</title>
<path fill="none" stroke="#63b8ff" d="M1044.44,-219.51C1058.25,-211.47 1078.75,-199.53 1094.91,-190.11"/>
<polygon fill="#63b8ff" stroke="#63b8ff" points="1096.6,-193.18 1103.48,-185.12 1093.08,-187.13 1096.6,-193.18"/>
</g>
<!-- Node11 -->
<g id="node11" class="node">
<title>Node11</title>
<g id="a_node11"><a xlink:title=" ">
<polygon fill="#e0e0e0" stroke="#999999" points="145.5,-184 104.5,-184 104.5,-165 145.5,-165 145.5,-184"/>
<text text-anchor="middle" x="125" y="-172" font-family="Helvetica,sans-Serif" font-size="10.00">string</text>
</a>
</g>
</g>
<!-- Node3&#45;&gt;Node11 -->
<g id="edge10" class="edge">
<title>Node3&#45;&gt;Node11</title>
<path fill="none" stroke="#63b8ff" d="M980.71,-227.53C824.97,-224.19 336.15,-211.84 156.87,-184.03"/>
<polygon fill="#63b8ff" stroke="#63b8ff" points="157.7,-180.62 147.27,-182.47 156.57,-187.53 157.7,-180.62"/>
</g>
<!-- Node12 -->
<g id="node12" class="node">
<title>Node12</title>
<g id="a_node12"><a xlink:title=" ">
<polygon fill="#e0e0e0" stroke="#999999" points="1213,-184 1163,-184 1163,-165 1213,-165 1213,-184"/>
<text text-anchor="middle" x="1188" y="-172" font-family="Helvetica,sans-Serif" font-size="10.00">unistd.h</text>
</a>
</g>
</g>
<!-- Node3&#45;&gt;Node12 -->
<g id="edge11" class="edge">
<title>Node3&#45;&gt;Node12</title>
<path fill="none" stroke="#63b8ff" d="M1055.97,-219.51C1082.45,-210.68 1122.99,-197.17 1152.17,-187.44"/>
<polygon fill="#63b8ff" stroke="#63b8ff" points="1152.92,-190.88 1161.3,-184.4 1150.71,-184.24 1152.92,-190.88"/>
</g>
<!-- Node13 -->
<g id="node13" class="node">
<title>Node13</title>
<g id="a_node13"><a xlink:title=" ">
<polygon fill="#e0e0e0" stroke="#999999" points="1296.5,-184 1231.5,-184 1231.5,-165 1296.5,-165 1296.5,-184"/>
<text text-anchor="middle" x="1264" y="-172" font-family="Helvetica,sans-Serif" font-size="10.00">sys/types.h</text>
</a>
</g>
</g>
<!-- Node3&#45;&gt;Node13 -->
<g id="edge12" class="edge">
<title>Node3&#45;&gt;Node13</title>
<path fill="none" stroke="#63b8ff" d="M1068.86,-219.51C1110.82,-210.05 1176.67,-195.2 1220.09,-185.4"/>
<polygon fill="#63b8ff" stroke="#63b8ff" points="1220.69,-188.85 1229.68,-183.24 1219.15,-182.03 1220.69,-188.85"/>
</g>
<!-- Node14 -->
<g id="node14" class="node">
<title>Node14</title>
<g id="a_node14"><a xlink:title=" ">
<polygon fill="#e0e0e0" stroke="#999999" points="1260,-19 1216,-19 1216,0 1260,0 1260,-19"/>
<text text-anchor="middle" x="1238" y="-7" font-family="Helvetica,sans-Serif" font-size="10.00">vector</text>
</a>
</g>
</g>
<!-- Node3&#45;&gt;Node14 -->
<g id="edge13" class="edge">
<title>Node3&#45;&gt;Node14</title>
<path fill="none" stroke="#63b8ff" d="M1030.33,-219.59C1032.89,-205.71 1039.86,-179.06 1057,-165 1114.02,-118.22 1168.43,-182.69 1219,-129 1244.05,-102.41 1243.7,-56.67 1240.99,-30.47"/>
<polygon fill="#63b8ff" stroke="#63b8ff" points="1244.5,-30.33 1239.77,-20.85 1237.56,-31.22 1244.5,-30.33"/>
</g>
<!-- Node15 -->
<g id="node15" class="node">
<title>Node15</title>
<g id="a_node15"><a xlink:title=" ">
<polygon fill="#e0e0e0" stroke="#999999" points="1373,-184 1315,-184 1315,-165 1373,-165 1373,-184"/>
<text text-anchor="middle" x="1344" y="-172" font-family="Helvetica,sans-Serif" font-size="10.00">exception</text>
</a>
</g>
</g>
<!-- Node3&#45;&gt;Node15 -->
<g id="edge14" class="edge">
<title>Node3&#45;&gt;Node15</title>
<path fill="none" stroke="#63b8ff" d="M1077.2,-221.66C1130.25,-213.94 1218.33,-200.52 1303.41,-184.4"/>
<polygon fill="#63b8ff" stroke="#63b8ff" points="1303.93,-187.87 1313.09,-182.55 1302.61,-180.99 1303.93,-187.87"/>
</g>
<!-- Node3&#45;&gt;Node16 -->
<g id="edge15" class="edge">
<title>Node3&#45;&gt;Node16</title>
<path fill="none" stroke="#63b8ff" d="M980.78,-227.17C861.51,-223.43 543.63,-211.33 276.47,-185.14"/>
<polygon fill="#63b8ff" stroke="#63b8ff" points="277.2,-181.69 266.9,-184.19 276.51,-188.66 277.2,-181.69"/>
</g>
<!-- Node17 -->
<g id="node17" class="node">
<title>Node17</title>
<g id="a_node17"><a xlink:href="Event_8hpp.html" target="_top" xlink:title=" ">
<polygon fill="white" stroke="#666666" points="537,-184 445,-184 445,-165 537,-165 537,-184"/>
<text text-anchor="middle" x="491" y="-172" font-family="Helvetica,sans-Serif" font-size="10.00">Engine/Event.hpp</text>
</a>
</g>
</g>
<!-- Node3&#45;&gt;Node17 -->
<g id="edge17" class="edge">
<title>Node3&#45;&gt;Node17</title>
<path fill="none" stroke="#63b8ff" d="M980.59,-225.36C894.18,-219.18 708.02,-204.37 548.37,-185.25"/>
<polygon fill="#63b8ff" stroke="#63b8ff" points="549.26,-181.83 538.92,-184.11 548.42,-188.78 549.26,-181.83"/>
</g>
<!-- Node20 -->
<g id="node20" class="node">
<title>Node20</title>
<g id="a_node20"><a xlink:href="EntitiesManager_8hpp.html" target="_top" xlink:title=" ">
<polygon fill="white" stroke="#666666" points="1651,-184 1511,-184 1511,-165 1651,-165 1651,-184"/>
<text text-anchor="middle" x="1581" y="-172" font-family="Helvetica,sans-Serif" font-size="10.00">Entities/EntitiesManager.hpp</text>
</a>
</g>
</g>
<!-- Node3&#45;&gt;Node20 -->
<g id="edge21" class="edge">
<title>Node3&#45;&gt;Node20</title>
<path fill="none" stroke="#63b8ff" d="M1077.33,-223.66C1161.77,-215.73 1341.18,-199.31 1493,-184 1495.16,-183.78 1497.36,-183.56 1499.57,-183.33"/>
<polygon fill="#63b8ff" stroke="#63b8ff" points="1499.71,-186.84 1509.3,-182.33 1498.99,-179.87 1499.71,-186.84"/>
</g>
<!-- Node27 -->
<g id="node27" class="node">
<title>Node27</title>
<g id="a_node27"><a xlink:href="Bullets_8hpp.html" target="_top" xlink:title=" ">
<polygon fill="white" stroke="#666666" points="1791,-184 1669,-184 1669,-165 1791,-165 1791,-184"/>
<text text-anchor="middle" x="1730" y="-172" font-family="Helvetica,sans-Serif" font-size="10.00">Components/Bullets.hpp</text>
</a>
</g>
</g>
<!-- Node3&#45;&gt;Node27 -->
<g id="edge37" class="edge">
<title>Node3&#45;&gt;Node27</title>
<path fill="none" stroke="#63b8ff" d="M1077.27,-225.65C1181.99,-219.64 1437.28,-204.5 1651,-184 1653.15,-183.79 1655.33,-183.58 1657.54,-183.35"/>
<polygon fill="#63b8ff" stroke="#63b8ff" points="1657.65,-186.86 1667.22,-182.31 1656.9,-179.9 1657.65,-186.86"/>
</g>
<!-- Node29 -->
<g id="node29" class="node">
<title>Node29</title>
<g id="a_node29"><a xlink:href="Background_8hpp.html" target="_top" xlink:title=" ">
<polygon fill="white" stroke="#666666" points="427,-184 283,-184 283,-165 427,-165 427,-184"/>
<text text-anchor="middle" x="355" y="-172" font-family="Helvetica,sans-Serif" font-size="10.00">Components/Background.hpp</text>
</a>
</g>
</g>
<!-- Node3&#45;&gt;Node29 -->
<g id="edge41" class="edge">
<title>Node3&#45;&gt;Node29</title>
<path fill="none" stroke="#63b8ff" d="M980.72,-225.68C880.19,-219.33 641.47,-203.1 438.47,-185.03"/>
<polygon fill="#63b8ff" stroke="#63b8ff" points="439.08,-181.57 428.81,-184.16 438.46,-188.54 439.08,-181.57"/>
</g>
<!-- Node16&#45;&gt;Node3 -->
<g id="edge16" class="edge">
<title>Node16&#45;&gt;Node3</title>
<path fill="none" stroke="#63b8ff" d="M264.81,-181.88C270.97,-182.68 277.14,-183.41 283,-184 537.97,-209.53 842.97,-222 969.55,-226.48"/>
<polygon fill="#63b8ff" stroke="#63b8ff" points="969.25,-229.97 979.37,-226.82 969.49,-222.98 969.25,-229.97"/>
</g>
<!-- Node17&#45;&gt;Node3 -->
<g id="edge18" class="edge">
<title>Node17&#45;&gt;Node3</title>
<path fill="none" stroke="#63b8ff" d="M537.49,-181.52C543.75,-182.41 550.05,-183.27 556,-184 704.44,-202.1 879.41,-216.54 969.28,-223.66"/>
<polygon fill="#63b8ff" stroke="#63b8ff" points="968.85,-227.14 979.09,-224.44 969.4,-220.16 968.85,-227.14"/>
</g>
<!-- Node18 -->
<g id="node18" class="node">
<title>Node18</title>
<g id="a_node18"><a xlink:title=" ">
<polygon fill="#e0e0e0" stroke="#999999" points="1209.5,-129 1180.5,-129 1180.5,-110 1209.5,-110 1209.5,-129"/>
<text text-anchor="middle" x="1195" y="-117" font-family="Helvetica,sans-Serif" font-size="10.00">list</text>
</a>
</g>
</g>
<!-- Node17&#45;&gt;Node18 -->
<g id="edge19" class="edge">
<title>Node17&#45;&gt;Node18</title>
<path fill="none" stroke="#63b8ff" d="M537.41,-166.12C540.65,-165.7 543.87,-165.33 547,-165 820.08,-136.47 897.6,-184.55 1169.11,-129.01"/>
<polygon fill="#63b8ff" stroke="#63b8ff" points="1169.53,-132.5 1178.61,-127.04 1168.11,-125.65 1169.53,-132.5"/>
</g>
<!-- Node19 -->
<g id="node19" class="node">
<title>Node19</title>
<g id="a_node19"><a xlink:title=" ">
<polygon fill="#e0e0e0" stroke="#999999" points="47.5,-129 4.5,-129 4.5,-110 47.5,-110 47.5,-129"/>
<text text-anchor="middle" x="26" y="-117" font-family="Helvetica,sans-Serif" font-size="10.00">queue</text>
</a>
</g>
</g>
<!-- Node17&#45;&gt;Node19 -->
<g id="edge20" class="edge">
<title>Node17&#45;&gt;Node19</title>
<path fill="none" stroke="#63b8ff" d="M444.51,-166.16C441.63,-165.76 438.78,-165.37 436,-165 296.08,-146.6 128.58,-130.16 58.91,-123.56"/>
<polygon fill="#63b8ff" stroke="#63b8ff" points="59.61,-120.11 49.33,-122.66 58.96,-127.08 59.61,-120.11"/>
</g>
<!-- Node20&#45;&gt;Node3 -->
<g id="edge22" class="edge">
<title>Node20&#45;&gt;Node3</title>
<path fill="none" stroke="#63b8ff" d="M1510.54,-184.05C1358.74,-199.35 1179.5,-215.76 1088.4,-223.67"/>
<polygon fill="#63b8ff" stroke="#63b8ff" points="1088.37,-220.16 1078.71,-224.51 1088.98,-227.14 1088.37,-220.16"/>
</g>
<!-- Node21 -->
<g id="node21" class="node">
<title>Node21</title>
<g id="a_node21"><a xlink:href="IComponents_8hpp.html" target="_top" xlink:title=" ">
<polygon fill="white" stroke="#666666" points="1672,-129 1522,-129 1522,-110 1672,-110 1672,-129"/>
<text text-anchor="middle" x="1597" y="-117" font-family="Helvetica,sans-Serif" font-size="10.00">Components/IComponents.hpp</text>
</a>
</g>
</g>
<!-- Node20&#45;&gt;Node21 -->
<g id="edge23" class="edge">
<title>Node20&#45;&gt;Node21</title>
<path fill="none" stroke="#63b8ff" d="M1583.64,-164.75C1585.64,-158.11 1588.48,-148.73 1591.02,-140.31"/>
<polygon fill="#63b8ff" stroke="#63b8ff" points="1594.32,-141.48 1593.86,-130.89 1587.62,-139.45 1594.32,-141.48"/>
</g>
<!-- Node22 -->
<g id="node22" class="node">
<title>Node22</title>
<g id="a_node22"><a xlink:href="SparseArray_8hpp.html" target="_top" xlink:title=" ">
<polygon fill="white" stroke="#666666" points="1162.5,-129 1051.5,-129 1051.5,-110 1162.5,-110 1162.5,-129"/>
<text text-anchor="middle" x="1107" y="-117" font-family="Helvetica,sans-Serif" font-size="10.00">Utils/SparseArray.hpp</text>
</a>
</g>
</g>
<!-- Node20&#45;&gt;Node22 -->
<g id="edge25" class="edge">
<title>Node20&#45;&gt;Node22</title>
<path fill="none" stroke="#63b8ff" d="M1510.76,-165.94C1410.31,-155.12 1232.11,-135.88 1173.76,-129.16"/>
<polygon fill="#63b8ff" stroke="#63b8ff" points="1174.5,-125.72 1164.16,-128.04 1173.69,-132.68 1174.5,-125.72"/>
</g>
<!-- Node21&#45;&gt;Node3 -->
<g id="edge24" class="edge">
<title>Node21&#45;&gt;Node3</title>
<path fill="none" stroke="#63b8ff" d="M1521.88,-120.35C1398.82,-121.21 1160.49,-127.81 1086,-165 1065.97,-175 1049.72,-195.32 1039.78,-210.3"/>
<polygon fill="#63b8ff" stroke="#63b8ff" points="1037.08,-208 1034.73,-218.33 1043.01,-211.72 1037.08,-208"/>
</g>
<!-- Node22&#45;&gt;Node9 -->
<g id="edge26" class="edge">
<title>Node22&#45;&gt;Node9</title>
<path fill="none" stroke="#63b8ff" d="M1154.79,-109.57C1266.67,-88.67 1543.81,-36.88 1646.19,-17.75"/>
<polygon fill="#63b8ff" stroke="#63b8ff" points="1646.83,-21.19 1656.02,-15.92 1645.55,-14.31 1646.83,-21.19"/>
</g>
<!-- Node22&#45;&gt;Node14 -->
<g id="edge29" class="edge">
<title>Node22&#45;&gt;Node14</title>
<path fill="none" stroke="#63b8ff" d="M1117.72,-109.66C1139.79,-91.47 1190.58,-49.6 1218.58,-26.51"/>
<polygon fill="#63b8ff" stroke="#63b8ff" points="1220.47,-29.48 1225.96,-20.42 1216.02,-24.08 1220.47,-29.48"/>
</g>
<!-- Node23 -->
<g id="node23" class="node">
<title>Node23</title>
<g id="a_node23"><a xlink:title=" ">
<polygon fill="#e0e0e0" stroke="#999999" points="1093,-19 1037,-19 1037,0 1093,0 1093,-19"/>
<text text-anchor="middle" x="1065" y="-7" font-family="Helvetica,sans-Serif" font-size="10.00">algorithm</text>
</a>
</g>
</g>
<!-- Node22&#45;&gt;Node23 -->
<g id="edge27" class="edge">
<title>Node22&#45;&gt;Node23</title>
<path fill="none" stroke="#63b8ff" d="M1078.96,-109.57C1062.41,-102.69 1042.81,-91.36 1033,-74 1024.21,-58.46 1035.57,-40.21 1047.11,-27.27"/>
<polygon fill="#63b8ff" stroke="#63b8ff" points="1049.38,-29.96 1053.83,-20.35 1044.35,-25.09 1049.38,-29.96"/>
</g>
<!-- Node24 -->
<g id="node24" class="node">
<title>Node24</title>
<g id="a_node24"><a xlink:title=" ">
<polygon fill="#e0e0e0" stroke="#999999" points="995,-19 957,-19 957,0 995,0 995,-19"/>
<text text-anchor="middle" x="976" y="-7" font-family="Helvetica,sans-Serif" font-size="10.00">array</text>
</a>
</g>
</g>
<!-- Node22&#45;&gt;Node24 -->
<g id="edge28" class="edge">
<title>Node22&#45;&gt;Node24</title>
<path fill="none" stroke="#63b8ff" d="M1084.92,-109.56C1067.47,-101.82 1043.13,-89.44 1025,-74 1009.62,-60.91 995.94,-42.27 986.97,-28.57"/>
<polygon fill="#63b8ff" stroke="#63b8ff" points="990.18,-27.1 981.89,-20.51 984.26,-30.84 990.18,-27.1"/>
</g>
<!-- Node25 -->
<g id="node25" class="node">
<title>Node25</title>
<g id="a_node25"><a xlink:title=" ">
<polygon fill="#e0e0e0" stroke="#999999" points="1177.5,-19 1138.5,-19 1138.5,0 1177.5,0 1177.5,-19"/>
<text text-anchor="middle" x="1158" y="-7" font-family="Helvetica,sans-Serif" font-size="10.00">utility</text>
</a>
</g>
</g>
<!-- Node22&#45;&gt;Node25 -->
<g id="edge30" class="edge">
<title>Node22&#45;&gt;Node25</title>
<path fill="none" stroke="#63b8ff" d="M1116.06,-109.81C1124.3,-101.4 1136.17,-87.92 1143,-74 1149.74,-60.27 1153.54,-43.36 1155.63,-30.45"/>
<polygon fill="#63b8ff" stroke="#63b8ff" points="1159.08,-31.01 1156.99,-20.63 1152.15,-30.05 1159.08,-31.01"/>
</g>
<!-- Node26 -->
<g id="node26" class="node">
<title>Node26</title>
<g id="a_node26"><a xlink:href="Vectors_8hpp.html" target="_top" xlink:title=" ">
<polygon fill="white" stroke="#666666" points="1134,-74 1042,-74 1042,-55 1134,-55 1134,-74"/>
<text text-anchor="middle" x="1088" y="-62" font-family="Helvetica,sans-Serif" font-size="10.00">Utils/Vectors.hpp</text>
</a>
</g>
</g>
<!-- Node22&#45;&gt;Node26 -->
<g id="edge31" class="edge">
<title>Node22&#45;&gt;Node26</title>
<path fill="none" stroke="#63b8ff" d="M1103.86,-109.75C1101.46,-103.04 1098.04,-93.52 1095,-85.02"/>
<polygon fill="#63b8ff" stroke="#63b8ff" points="1098.39,-84.1 1091.72,-75.87 1091.8,-86.46 1098.39,-84.1"/>
</g>
<!-- Node26&#45;&gt;Node9 -->
<g id="edge32" class="edge">
<title>Node26&#45;&gt;Node9</title>
<path fill="none" stroke="#63b8ff" d="M1134.35,-59.39C1248.31,-49.27 1540.56,-23.32 1646.18,-13.95"/>
<polygon fill="#63b8ff" stroke="#63b8ff" points="1646.38,-17.44 1656.03,-13.07 1645.76,-10.47 1646.38,-17.44"/>
</g>
<!-- Node26&#45;&gt;Node14 -->
<g id="edge35" class="edge">
<title>Node26&#45;&gt;Node14</title>
<path fill="none" stroke="#63b8ff" d="M1113.45,-54.51C1138.72,-45.58 1177.58,-31.85 1205.16,-22.1"/>
<polygon fill="#63b8ff" stroke="#63b8ff" points="1206.17,-25.46 1214.43,-18.83 1203.84,-18.86 1206.17,-25.46"/>
</g>
<!-- Node26&#45;&gt;Node23 -->
<g id="edge33" class="edge">
<title>Node26&#45;&gt;Node23</title>
<path fill="none" stroke="#63b8ff" d="M1084.2,-54.75C1081.26,-47.96 1077.06,-38.3 1073.35,-29.73"/>
<polygon fill="#63b8ff" stroke="#63b8ff" points="1076.67,-28.61 1069.48,-20.83 1070.25,-31.4 1076.67,-28.61"/>
</g>
<!-- Node26&#45;&gt;Node24 -->
<g id="edge34" class="edge">
<title>Node26&#45;&gt;Node24</title>
<path fill="none" stroke="#63b8ff" d="M1069,-54.51C1051.44,-46.2 1025.08,-33.73 1004.91,-24.18"/>
<polygon fill="#63b8ff" stroke="#63b8ff" points="1006.62,-21.12 996.09,-20.01 1003.63,-27.45 1006.62,-21.12"/>
</g>
<!-- Node26&#45;&gt;Node25 -->
<g id="edge36" class="edge">
<title>Node26&#45;&gt;Node25</title>
<path fill="none" stroke="#63b8ff" d="M1099.87,-54.51C1110.09,-46.77 1125.07,-35.43 1137.26,-26.2"/>
<polygon fill="#63b8ff" stroke="#63b8ff" points="1139.23,-29.1 1145.09,-20.27 1135.01,-23.52 1139.23,-29.1"/>
</g>
<!-- Node27&#45;&gt;Node3 -->
<g id="edge38" class="edge">
<title>Node27&#45;&gt;Node3</title>
<path fill="none" stroke="#63b8ff" d="M1668.68,-184.03C1455.78,-204.44 1201.73,-219.54 1088.45,-225.59"/>
<polygon fill="#63b8ff" stroke="#63b8ff" points="1088.59,-222.08 1078.79,-226.1 1088.96,-229.07 1088.59,-222.08"/>
</g>
<!-- Node27&#45;&gt;Node21 -->
<g id="edge39" class="edge">
<title>Node27&#45;&gt;Node21</title>
<path fill="none" stroke="#63b8ff" d="M1707.44,-164.51C1686.1,-156.01 1653.84,-143.15 1629.69,-133.53"/>
<polygon fill="#63b8ff" stroke="#63b8ff" points="1631.22,-130.37 1620.63,-129.92 1628.63,-136.87 1631.22,-130.37"/>
</g>
<!-- Node28 -->
<g id="node28" class="node">
<title>Node28</title>
<g id="a_node28"><a xlink:title=" ">
<polygon fill="#e0e0e0" stroke="#999999" points="1810,-129 1764,-129 1764,-110 1810,-110 1810,-129"/>
<text text-anchor="middle" x="1787" y="-117" font-family="Helvetica,sans-Serif" font-size="10.00">math.h</text>
</a>
</g>
</g>
<!-- Node27&#45;&gt;Node28 -->
<g id="edge40" class="edge">
<title>Node27&#45;&gt;Node28</title>
<path fill="none" stroke="#63b8ff" d="M1739.67,-164.51C1747.74,-157 1759.47,-146.1 1769.22,-137.03"/>
<polygon fill="#63b8ff" stroke="#63b8ff" points="1771.43,-139.76 1776.37,-130.39 1766.66,-134.63 1771.43,-139.76"/>
</g>
<!-- Node29&#45;&gt;Node3 -->
<g id="edge42" class="edge">
<title>Node29&#45;&gt;Node3</title>
<path fill="none" stroke="#63b8ff" d="M427.18,-182.32C433.22,-182.91 439.23,-183.48 445,-184 636.53,-201.23 863.28,-216.95 969.14,-224.23"/>
<polygon fill="#63b8ff" stroke="#63b8ff" points="968.8,-227.71 979.02,-224.91 969.28,-220.73 968.8,-227.71"/>
</g>
<!-- Node30&#45;&gt;Node19 -->
<g id="edge74" class="edge">
<title>Node30&#45;&gt;Node19</title>
<path fill="none" stroke="#63b8ff" d="M544.04,-498.86C388.76,-486.57 0,-450.32 0,-395.5 0,-395.5 0,-395.5 0,-228.5 0,-196.75 10.75,-161.18 18.43,-139.83"/>
<polygon fill="#63b8ff" stroke="#63b8ff" points="21.61,-141.3 21.85,-130.7 15.06,-138.83 21.61,-141.3"/>
</g>
<!-- Node31 -->
<g id="node31" class="node">
<title>Node31</title>
<g id="a_node31"><a xlink:href="States_8hpp.html" target="_top" xlink:title=" ">
<polygon fill="white" stroke="#666666" points="754.5,-459 635.5,-459 635.5,-440 754.5,-440 754.5,-459"/>
<text text-anchor="middle" x="695" y="-447" font-family="Helvetica,sans-Serif" font-size="10.00">gameStates/States.hpp</text>
</a>
</g>
</g>
<!-- Node30&#45;&gt;Node31 -->
<g id="edge45" class="edge">
<title>Node30&#45;&gt;Node31</title>
<path fill="none" stroke="#63b8ff" d="M621.93,-494.51C635.28,-486.47 655.11,-474.53 670.74,-465.11"/>
<polygon fill="#63b8ff" stroke="#63b8ff" points="672.24,-468.3 679,-460.14 668.62,-462.3 672.24,-468.3"/>
</g>
<!-- Node32 -->
<g id="node32" class="node">
<title>Node32</title>
<g id="a_node32"><a xlink:href="IGameState_8hpp.html" target="_top" xlink:title=" ">
<polygon fill="white" stroke="#666666" points="769.5,-349 682.5,-349 682.5,-330 769.5,-330 769.5,-349"/>
<text text-anchor="middle" x="726" y="-337" font-family="Helvetica,sans-Serif" font-size="10.00">IGameState.hpp</text>
</a>
</g>
</g>
<!-- Node31&#45;&gt;Node32 -->
<g id="edge46" class="edge">
<title>Node31&#45;&gt;Node32</title>
<path fill="none" stroke="#63b8ff" d="M697.54,-439.66C702.49,-422.42 713.54,-383.9 720.33,-360.27"/>
<polygon fill="#63b8ff" stroke="#63b8ff" points="723.62,-361.49 723.01,-350.92 716.89,-359.56 723.62,-361.49"/>
</g>
<!-- Node36 -->
<g id="node36" class="node">
<title>Node36</title>
<g id="a_node36"><a xlink:href="SMenu_8hpp.html" target="_top" xlink:title=" ">
<polygon fill="white" stroke="#666666" points="788.5,-404 723.5,-404 723.5,-385 788.5,-385 788.5,-404"/>
<text text-anchor="middle" x="756" y="-392" font-family="Helvetica,sans-Serif" font-size="10.00">SMenu.hpp</text>
</a>
</g>
</g>
<!-- Node31&#45;&gt;Node36 -->
<g id="edge60" class="edge">
<title>Node31&#45;&gt;Node36</title>
<path fill="none" stroke="#63b8ff" d="M705.35,-439.51C714.08,-431.93 726.79,-420.88 737.3,-411.75"/>
<polygon fill="#63b8ff" stroke="#63b8ff" points="739.41,-414.55 744.66,-405.35 734.82,-409.27 739.41,-414.55"/>
</g>
<!-- Node39 -->
<g id="node39" class="node">
<title>Node39</title>
<g id="a_node39"><a xlink:href="SGamePlay_8hpp.html" target="_top" xlink:title=" ">
<polygon fill="white" stroke="#666666" points="227,-404 141,-404 141,-385 227,-385 227,-404"/>
<text text-anchor="middle" x="184" y="-392" font-family="Helvetica,sans-Serif" font-size="10.00">SGamePlay.hpp</text>
</a>
</g>
</g>
<!-- Node31&#45;&gt;Node39 -->
<g id="edge65" class="edge">
<title>Node31&#45;&gt;Node39</title>
<path fill="none" stroke="#63b8ff" d="M635.13,-442.29C534.97,-431.9 334.94,-411.15 238.49,-401.15"/>
<polygon fill="#63b8ff" stroke="#63b8ff" points="239.06,-397.69 228.76,-400.14 238.34,-404.66 239.06,-397.69"/>
</g>
<!-- Node32&#45;&gt;Node20 -->
<g id="edge47" class="edge">
<title>Node32&#45;&gt;Node20</title>
<path fill="none" stroke="#63b8ff" d="M769.87,-330.14C912.28,-302.99 1361.74,-217.3 1522.84,-186.59"/>
<polygon fill="#63b8ff" stroke="#63b8ff" points="1523.27,-190.07 1532.44,-184.76 1521.96,-183.19 1523.27,-190.07"/>
</g>
<!-- Node32&#45;&gt;Node29 -->
<g id="edge53" class="edge">
<title>Node32&#45;&gt;Node29</title>
<path fill="none" stroke="#63b8ff" d="M707.47,-329.68C681.22,-317.24 631.65,-293.94 589,-275 517.41,-243.2 432.63,-207.67 387.34,-188.87"/>
<polygon fill="#63b8ff" stroke="#63b8ff" points="388.69,-185.64 378.11,-185.04 386.01,-192.1 388.69,-185.64"/>
</g>
<!-- Node32&#45;&gt;Node30 -->
<g id="edge52" class="edge">
<title>Node32&#45;&gt;Node30</title>
<path fill="none" stroke="#63b8ff" d="M714.1,-349.28C693.44,-365.14 650.84,-400.59 627,-440 618.84,-453.49 613.7,-470.63 610.67,-483.71"/>
<polygon fill="#63b8ff" stroke="#63b8ff" points="607.3,-482.76 608.7,-493.26 614.15,-484.17 607.3,-482.76"/>
</g>
<!-- Node33 -->
<g id="node33" class="node">
<title>Node33</title>
<g id="a_node33"><a xlink:href="String_8hpp.html" target="_top" xlink:title=" ">
<polygon fill="white" stroke="#666666" points="2044.5,-184 1961.5,-184 1961.5,-165 2044.5,-165 2044.5,-184"/>
<text text-anchor="middle" x="2003" y="-172" font-family="Helvetica,sans-Serif" font-size="10.00">Utils/String.hpp</text>
</a>
</g>
</g>
<!-- Node32&#45;&gt;Node33 -->
<g id="edge48" class="edge">
<title>Node32&#45;&gt;Node33</title>
<path fill="none" stroke="#63b8ff" d="M769.91,-336.88C979.04,-329.15 1864.37,-296.29 1871,-294 1924.92,-275.37 1969.93,-221.65 1990.68,-193.38"/>
<polygon fill="#63b8ff" stroke="#63b8ff" points="1993.37,-195.64 1996.33,-185.46 1987.67,-191.57 1993.37,-195.64"/>
</g>
<!-- Node34 -->
<g id="node34" class="node">
<title>Node34</title>
<g id="a_node34"><a xlink:href="Centipede_8hpp.html" target="_top" xlink:title=" ">
<polygon fill="white" stroke="#666666" points="1862,-294 1726,-294 1726,-275 1862,-275 1862,-294"/>
<text text-anchor="middle" x="1794" y="-282" font-family="Helvetica,sans-Serif" font-size="10.00">Components/Centipede.hpp</text>
</a>
</g>
</g>
<!-- Node32&#45;&gt;Node34 -->
<g id="edge54" class="edge">
<title>Node32&#45;&gt;Node34</title>
<path fill="none" stroke="#63b8ff" d="M769.86,-336.32C932.51,-328.25 1502.71,-299.96 1714.24,-289.46"/>
<polygon fill="#63b8ff" stroke="#63b8ff" points="1714.22,-292.96 1724.03,-288.97 1713.87,-285.97 1714.22,-292.96"/>
</g>
<!-- Node33&#45;&gt;Node9 -->
<g id="edge49" class="edge">
<title>Node33&#45;&gt;Node9</title>
<path fill="none" stroke="#63b8ff" d="M2004.8,-164.53C2008.65,-142.42 2015.07,-84.96 1985,-55 1948.96,-19.09 1796.39,-12.04 1723.75,-10.74"/>
<polygon fill="#63b8ff" stroke="#63b8ff" points="1723.96,-7.24 1713.91,-10.59 1723.86,-14.24 1723.96,-7.24"/>
</g>
<!-- Node33&#45;&gt;Node14 -->
<g id="edge51" class="edge">
<title>Node33&#45;&gt;Node14</title>
<path fill="none" stroke="#63b8ff" d="M2001.87,-164.72C1998.41,-142.01 1985.79,-81.31 1947,-55 1890.71,-16.82 1404.9,-11.4 1271.67,-10.63"/>
<polygon fill="#63b8ff" stroke="#63b8ff" points="1271.78,-7.13 1261.76,-10.58 1271.74,-14.13 1271.78,-7.13"/>
</g>
<!-- Node33&#45;&gt;Node18 -->
<g id="edge50" class="edge">
<title>Node33&#45;&gt;Node18</title>
<path fill="none" stroke="#63b8ff" d="M1961.26,-170.76C1816.59,-161.27 1339.07,-129.95 1221.38,-122.23"/>
<polygon fill="#63b8ff" stroke="#63b8ff" points="1221.71,-118.74 1211.5,-121.58 1221.25,-125.73 1221.71,-118.74"/>
</g>
<!-- Node34&#45;&gt;Node3 -->
<g id="edge55" class="edge">
<title>Node34&#45;&gt;Node3</title>
<path fill="none" stroke="#63b8ff" d="M1725.78,-278.77C1577.6,-268.51 1228.46,-244.32 1088.53,-234.62"/>
<polygon fill="#63b8ff" stroke="#63b8ff" points="1088.96,-231.15 1078.74,-233.95 1088.48,-238.13 1088.96,-231.15"/>
</g>
<!-- Node34&#45;&gt;Node14 -->
<g id="edge58" class="edge">
<title>Node34&#45;&gt;Node14</title>
<path fill="none" stroke="#63b8ff" d="M1825.19,-274.56C1866.18,-260.69 1933,-229.74 1933,-175.5 1933,-175.5 1933,-175.5 1933,-118.5 1933,-50.72 1410.21,-19.27 1271.47,-12.12"/>
<polygon fill="#63b8ff" stroke="#63b8ff" points="1272.01,-8.64 1261.85,-11.63 1271.66,-15.63 1272.01,-8.64"/>
</g>
<!-- Node34&#45;&gt;Node21 -->
<g id="edge56" class="edge">
<title>Node34&#45;&gt;Node21</title>
<path fill="none" stroke="#63b8ff" d="M1798.04,-274.56C1807.08,-253 1826.21,-197.58 1800,-165 1785.1,-146.48 1731.78,-135.24 1683.52,-128.69"/>
<polygon fill="#63b8ff" stroke="#63b8ff" points="1684.23,-125.25 1673.86,-127.43 1683.33,-132.19 1684.23,-125.25"/>
</g>
<!-- Node34&#45;&gt;Node28 -->
<g id="edge57" class="edge">
<title>Node34&#45;&gt;Node28</title>
<path fill="none" stroke="#63b8ff" d="M1805.36,-274.67C1814.78,-266.56 1827.5,-253.61 1833,-239 1844.58,-208.22 1845.84,-195.28 1833,-165 1828.24,-153.76 1819.09,-143.98 1810.2,-136.46"/>
<polygon fill="#63b8ff" stroke="#63b8ff" points="1812.47,-133.79 1802.42,-130.42 1808.17,-139.32 1812.47,-133.79"/>
</g>
<!-- Node35 -->
<g id="node35" class="node">
<title>Node35</title>
<g id="a_node35"><a xlink:title=" ">
<polygon fill="#e0e0e0" stroke="#999999" points="1791,-239 1747,-239 1747,-220 1791,-220 1791,-239"/>
<text text-anchor="middle" x="1769" y="-227" font-family="Helvetica,sans-Serif" font-size="10.00">cmath</text>
</a>
</g>
</g>
<!-- Node34&#45;&gt;Node35 -->
<g id="edge59" class="edge">
<title>Node34&#45;&gt;Node35</title>
<path fill="none" stroke="#63b8ff" d="M1789.87,-274.75C1786.67,-267.96 1782.11,-258.3 1778.07,-249.73"/>
<polygon fill="#63b8ff" stroke="#63b8ff" points="1781.3,-248.36 1773.86,-240.81 1774.96,-251.35 1781.3,-248.36"/>
</g>
<!-- Node36&#45;&gt;Node32 -->
<g id="edge61" class="edge">
<title>Node36&#45;&gt;Node32</title>
<path fill="none" stroke="#63b8ff" d="M751.05,-384.75C747.16,-377.88 741.61,-368.08 736.72,-359.45"/>
<polygon fill="#63b8ff" stroke="#63b8ff" points="739.78,-357.74 731.81,-350.76 733.69,-361.19 739.78,-357.74"/>
</g>
<!-- Node37 -->
<g id="node37" class="node">
<title>Node37</title>
<g id="a_node37"><a xlink:href="Bouton_8hpp.html" target="_top" xlink:title=" ">
<polygon fill="white" stroke="#666666" points="1090.5,-349 967.5,-349 967.5,-330 1090.5,-330 1090.5,-349"/>
<text text-anchor="middle" x="1029" y="-337" font-family="Helvetica,sans-Serif" font-size="10.00">Components/Bouton.hpp</text>
</a>
</g>
</g>
<!-- Node36&#45;&gt;Node37 -->
<g id="edge62" class="edge">
<title>Node36&#45;&gt;Node37</title>
<path fill="none" stroke="#63b8ff" d="M788.93,-387.11C834.17,-378.32 916.24,-362.39 971.68,-351.63"/>
<polygon fill="#63b8ff" stroke="#63b8ff" points="972.1,-355.11 981.25,-349.77 970.76,-348.24 972.1,-355.11"/>
</g>
<!-- Node37&#45;&gt;Node3 -->
<g id="edge63" class="edge">
<title>Node37&#45;&gt;Node3</title>
<path fill="none" stroke="#63b8ff" d="M1029,-329.66C1029,-312.57 1029,-274.61 1029,-250.92"/>
<polygon fill="#63b8ff" stroke="#63b8ff" points="1032.5,-250.97 1029,-240.97 1025.5,-250.97 1032.5,-250.97"/>
</g>
<!-- Node38 -->
<g id="node38" class="node">
<title>Node38</title>
<g id="a_node38"><a xlink:title=" ">
<polygon fill="#e0e0e0" stroke="#999999" points="2058.5,-294 1999.5,-294 1999.5,-275 2058.5,-275 2058.5,-294"/>
<text text-anchor="middle" x="2029" y="-282" font-family="Helvetica,sans-Serif" font-size="10.00">functional</text>
</a>
</g>
</g>
<!-- Node37&#45;&gt;Node38 -->
<g id="edge64" class="edge">
<title>Node37&#45;&gt;Node38</title>
<path fill="none" stroke="#63b8ff" d="M1090.77,-338.7C1243.2,-338.54 1649.26,-334.03 1985,-294 1986.01,-293.88 1987.04,-293.75 1988.07,-293.61"/>
<polygon fill="#63b8ff" stroke="#63b8ff" points="1988.44,-297.09 1997.77,-292.08 1987.35,-290.18 1988.44,-297.09"/>
</g>
<!-- Node39&#45;&gt;Node11 -->
<g id="edge69" class="edge">
<title>Node39&#45;&gt;Node11</title>
<path fill="none" stroke="#63b8ff" d="M172.75,-384.57C163.34,-376.4 150.45,-363.41 144,-349 120.95,-297.48 121.39,-229.07 123.33,-195.64"/>
<polygon fill="#63b8ff" stroke="#63b8ff" points="126.81,-196.02 124.03,-185.8 119.83,-195.53 126.81,-196.02"/>
</g>
<!-- Node39&#45;&gt;Node19 -->
<g id="edge67" class="edge">
<title>Node39&#45;&gt;Node19</title>
<path fill="none" stroke="#63b8ff" d="M140.76,-387.02C114.94,-381.1 83.17,-369.92 62,-349 40.54,-327.79 38,-315.67 38,-285.5 38,-285.5 38,-285.5 38,-228.5 38,-197.73 33.13,-162.34 29.6,-140.7"/>
<polygon fill="#63b8ff" stroke="#63b8ff" points="33.06,-140.18 27.92,-130.92 26.16,-141.36 33.06,-140.18"/>
</g>
<!-- Node39&#45;&gt;Node24 -->
<g id="edge68" class="edge">
<title>Node39&#45;&gt;Node24</title>
<path fill="none" stroke="#63b8ff" d="M163.69,-384.51C132.4,-369.11 76,-334.56 76,-285.5 76,-285.5 76,-285.5 76,-118.5 76,-28.87 788.73,-13.24 945.67,-10.88"/>
<polygon fill="#63b8ff" stroke="#63b8ff" points="945.32,-14.39 955.27,-10.74 945.22,-7.39 945.32,-14.39"/>
</g>
<!-- Node39&#45;&gt;Node32 -->
<g id="edge66" class="edge">
<title>Node39&#45;&gt;Node32</title>
<path fill="none" stroke="#63b8ff" d="M227.44,-389.25C325.36,-379.68 563.15,-356.42 671.09,-345.87"/>
<polygon fill="#63b8ff" stroke="#63b8ff" points="671.24,-349.37 680.85,-344.92 670.56,-342.41 671.24,-349.37"/>
</g>
<!-- Node40 -->
<g id="node40" class="node">
<title>Node40</title>
<g id="a_node40"><a xlink:title=" ">
<polygon fill="#e0e0e0" stroke="#999999" points="279,-349 233,-349 233,-330 279,-330 279,-349"/>
<text text-anchor="middle" x="256" y="-337" font-family="Helvetica,sans-Serif" font-size="10.00">cstring</text>
</a>
</g>
</g>
<!-- Node39&#45;&gt;Node40 -->
<g id="edge70" class="edge">
<title>Node39&#45;&gt;Node40</title>
<path fill="none" stroke="#63b8ff" d="M196.21,-384.51C206.83,-376.7 222.44,-365.21 235.04,-355.93"/>
<polygon fill="#63b8ff" stroke="#63b8ff" points="236.77,-359 242.75,-350.26 232.62,-353.36 236.77,-359"/>
</g>
<!-- Node41 -->
<g id="node41" class="node">
<title>Node41</title>
<g id="a_node41"><a xlink:href="Global_8hpp.html" target="_top" xlink:title=" ">
<polygon fill="white" stroke="#666666" points="215,-349 153,-349 153,-330 215,-330 215,-349"/>
<text text-anchor="middle" x="184" y="-337" font-family="Helvetica,sans-Serif" font-size="10.00">Global.hpp</text>
</a>
</g>
</g>
<!-- Node39&#45;&gt;Node41 -->
<g id="edge71" class="edge">
<title>Node39&#45;&gt;Node41</title>
<path fill="none" stroke="#63b8ff" d="M184,-384.75C184,-378.27 184,-369.16 184,-360.9"/>
<polygon fill="#63b8ff" stroke="#63b8ff" points="187.5,-360.96 184,-350.96 180.5,-360.96 187.5,-360.96"/>
</g>
<!-- Node42 -->
<g id="node42" class="node">
<title>Node42</title>
<g id="a_node42"><a xlink:title=" ">
<polygon fill="#e0e0e0" stroke="#999999" points="215,-294 153,-294 153,-275 215,-275 215,-294"/>
<text text-anchor="middle" x="184" y="-282" font-family="Helvetica,sans-Serif" font-size="10.00">Skaldi.hpp</text>
</a>
</g>
</g>
<!-- Node41&#45;&gt;Node42 -->
<g id="edge72" class="edge">
<title>Node41&#45;&gt;Node42</title>
<path fill="none" stroke="#63b8ff" d="M184,-329.75C184,-323.27 184,-314.16 184,-305.9"/>
<polygon fill="#63b8ff" stroke="#63b8ff" points="187.5,-305.96 184,-295.96 180.5,-305.96 187.5,-305.96"/>
</g>
<!-- Node43 -->
<g id="node43" class="node">
<title>Node43</title>
<g id="a_node43"><a xlink:title=" ">
<polygon fill="#e0e0e0" stroke="#999999" points="284.5,-294 233.5,-294 233.5,-275 284.5,-275 284.5,-294"/>
<text text-anchor="middle" x="259" y="-282" font-family="Helvetica,sans-Serif" font-size="10.00">memory</text>
</a>
</g>
</g>
<!-- Node41&#45;&gt;Node43 -->
<g id="edge73" class="edge">
<title>Node41&#45;&gt;Node43</title>
<path fill="none" stroke="#63b8ff" d="M196.72,-329.51C207.78,-321.7 224.04,-310.21 237.17,-300.93"/>
<polygon fill="#63b8ff" stroke="#63b8ff" points="239.08,-303.86 245.23,-295.23 235.04,-298.14 239.08,-303.86"/>
</g>
</g>
</svg>
        <g id="navigator" transform="translate(0 0)" fill="#404254">
                <rect fill="#f2f5e9" fill-opacity="0.5" stroke="#606060" stroke-width=".5" x="0" y="0" width="60" height="60"/>
                <use id="zoomplus" xlink:href="#zoomPlus" x="17" y="9" onmousedown="handleZoom(evt,'in')"/>
                <use id="zoomminus" xlink:href="#zoomMin" x="42" y="9" onmousedown="handleZoom(evt,'out')"/>
                <use id="reset" xlink:href="#resetDef" x="30" y="36" onmousedown="handleReset()"/>
                <g id="arrowUp" xlink:href="#dirArrow" transform="translate(30 24)" onmousedown="handlePan(0,-1)">
                  <use xlink:href="#rim" fill="#404040">
                        <set attributeName="fill" to="#808080" begin="arrowUp.mouseover" end="arrowUp.mouseout"/>
                  </use>
                  <path fill="none" stroke="white" stroke-width="1.5" d="M0,-3.0v7 M-2.5,-0.5L0,-3.0L2.5,-0.5"/>
                </g>
                <g id="arrowRight" xlink:href="#dirArrow" transform="rotate(90) translate(36 -43)" onmousedown="handlePan(1,0)">
                  <use xlink:href="#rim" fill="#404040">
                        <set attributeName="fill" to="#808080" begin="arrowRight.mouseover" end="arrowRight.mouseout"/>
                  </use>
                  <path fill="none" stroke="white" stroke-width="1.5" d="M0,-3.0v7 M-2.5,-0.5L0,-3.0L2.5,-0.5"/>
                </g>
                <g id="arrowDown" xlink:href="#dirArrow" transform="rotate(180) translate(-30 -48)" onmousedown="handlePan(0,1)">
                  <use xlink:href="#rim" fill="#404040">
                        <set attributeName="fill" to="#808080" begin="arrowDown.mouseover" end="arrowDown.mouseout"/>
                  </use>
                  <path fill="none" stroke="white" stroke-width="1.5" d="M0,-3.0v7 M-2.5,-0.5L0,-3.0L2.5,-0.5"/>
                </g>
                <g id="arrowLeft" xlink:href="#dirArrow" transform="rotate(270) translate(-36 17)" onmousedown="handlePan(-1,0)">
                  <use xlink:href="#rim" fill="#404040">
                        <set attributeName="fill" to="#808080" begin="arrowLeft.mouseover" end="arrowLeft.mouseout"/>
                  </use>
                  <path fill="none" stroke="white" stroke-width="1.5" d="M0,-3.0v7 M-2.5,-0.5L0,-3.0L2.5,-0.5"/>
                </g>
        </g>
        <svg viewBox="0 0 15 15" width="100%" height="30px" preserveAspectRatio="xMaxYMin meet">
         <g id="arrow_out" transform="scale(0.3 0.3)">
          <a xlink:href="StateManager_8cpp__incl_org.svg" target="_base">
           <rect id="button" ry="5" rx="5" y="6" x="6" height="38" width="38"
                fill="#f2f5e9" fill-opacity="0.5" stroke="#606060" stroke-width="1.0"/>
           <path id="arrow"
             d="M 11.500037,31.436501 C 11.940474,20.09759 22.043105,11.32322 32.158766,21.979434 L 37.068811,17.246167 C 37.068811,17.246167 37.088388,32 37.088388,32 L 22.160133,31.978069 C 22.160133,31.978069 26.997745,27.140456 26.997745,27.140456 C 18.528582,18.264221 13.291696,25.230495 11.500037,31.436501 z"
             style="fill:#404040;"/>
          </a>
         </g>
        </svg>
</svg>
