<?xml version="1.0" encoding="UTF-8" standalone="no"?>
<!DOCTYPE svg PUBLIC "-//W3C//DTD SVG 1.1//EN"
 "http://www.w3.org/Graphics/SVG/1.1/DTD/svg11.dtd">
<!-- Generated by graphviz version 7.0.5 (20221223.1930)
 -->
<!-- Title: /github/workspace/client/include/Engine/StateManager.hpp Pages: 1 -->
<!--zoomable 313 -->
<svg id="main" version="1.1" xmlns="http://www.w3.org/2000/svg" xmlns:xlink="http://www.w3.org/1999/xlink" xml:space="preserve" onload="init(evt)">
<style type="text/css"><![CDATA[
.edge:hover path { stroke: red; }
.edge:hover polygon { stroke: red; fill: red; }
]]></style>
<script type="text/javascript"><![CDATA[
var edges = document.getElementsByTagName('g');
if (edges && edges.length) {
  for (var i=0;i<edges.length;i++) {
    if (edges[i].id.substr(0,4)=='edge') {
      edges[i].setAttribute('class','edge');
    }
  }
}
]]></script>
        <defs>
                <circle id="rim" cx="0" cy="0" r="7"/>
                <circle id="rim2" cx="0" cy="0" r="3.5"/>
                <g id="zoomPlus">
                        <use xlink:href="#rim" fill="#404040">
                                <set attributeName="fill" to="#808080" begin="zoomplus.mouseover" end="zoomplus.mouseout"/>
                        </use>
                        <path d="M-4,0h8M0,-4v8" fill="none" stroke="white" stroke-width="1.5" pointer-events="none"/>
                </g>
                <g id="zoomMin">
                        <use xlink:href="#rim" fill="#404040">
                                <set attributeName="fill" to="#808080" begin="zoomminus.mouseover" end="zoomminus.mouseout"/>
                        </use>
                        <path d="M-4,0h8" fill="none" stroke="white" stroke-width="1.5" pointer-events="none"/>
                </g>
                <g id="dirArrow">
                        <path fill="none" stroke="white" stroke-width="1.5" d="M0,-3.0v7 M-2.5,-0.5L0,-3.0L2.5,-0.5"/>
                </g>
               <g id="resetDef">
                       <use xlink:href="#rim2" fill="#404040">
                               <set attributeName="fill" to="#808080" begin="reset.mouseover" end="reset.mouseout"/>
                       </use>
               </g>
        </defs>

<script type="text/javascript">
var viewWidth = 1732;
var viewHeight = 313;
var sectionId = 'dynsection-0';
</script>
<script xlink:href="svgpan.js"/>
<svg id="graph" class="graph">
<g id="viewport">
<title>/github/workspace/client/include/Engine/StateManager.hpp</title>
<!-- Node1 -->
<g id="node1" class="node">
<title>Node1</title>
<g id="a_node1"><a xlink:title=" ">
<polygon fill="#999999" stroke="#666666" points="956.5,-305 792.5,-305 792.5,-275 956.5,-275 956.5,-305"/>
<text text-anchor="start" x="800.5" y="-293" font-family="Helvetica,sans-Serif" font-size="10.00">/github/workspace/client</text>
<text text-anchor="middle" x="874.5" y="-282" font-family="Helvetica,sans-Serif" font-size="10.00">/include/Engine/StateManager.hpp</text>
</a>
</g>
</g>
<!-- Node2 -->
<g id="node2" class="node">
<title>Node2</title>
<g id="a_node2"><a xlink:href="Engine_8hpp.html" target="_top" xlink:title=" ">
<polygon fill="white" stroke="#666666" points="884.5,-239 788.5,-239 788.5,-220 884.5,-220 884.5,-239"/>
<text text-anchor="middle" x="836.5" y="-227" font-family="Helvetica,sans-Serif" font-size="10.00">Engine/Engine.hpp</text>
</a>
</g>
</g>
<!-- Node1&#45;&gt;Node2 -->
<g id="edge1" class="edge">
<title>Node1&#45;&gt;Node2</title>
<path fill="none" stroke="#63b8ff" d="M865.11,-274.54C860.04,-266.74 853.73,-257.03 848.33,-248.71"/>
<polygon fill="#63b8ff" stroke="#63b8ff" points="851.34,-246.92 842.96,-240.44 845.47,-250.74 851.34,-246.92"/>
</g>
<!-- Node15 -->
<g id="node15" class="node">
<title>Node15</title>
<g id="a_node15"><a xlink:href="Window_8hpp.html" target="_top" xlink:title=" ">
<polygon fill="white" stroke="#666666" points="1724,-184 1623,-184 1623,-165 1724,-165 1724,-184"/>
<text text-anchor="middle" x="1673.5" y="-172" font-family="Helvetica,sans-Serif" font-size="10.00">Engine/Window.hpp</text>
</a>
</g>
</g>
<!-- Node1&#45;&gt;Node15 -->
<g id="edge42" class="edge">
<title>Node1&#45;&gt;Node15</title>
<path fill="none" stroke="#63b8ff" d="M956.91,-277.36C1091.51,-258.35 1367.23,-219.34 1611.42,-184.44"/>
<polygon fill="#63b8ff" stroke="#63b8ff" points="1611.75,-187.93 1621.15,-183.05 1610.76,-181 1611.75,-187.93"/>
</g>
<!-- Node3 -->
<g id="node3" class="node">
<title>Node3</title>
<g id="a_node3"><a xlink:title=" ">
<polygon fill="#e0e0e0" stroke="#999999" points="1363,-184 1274,-184 1274,-165 1363,-165 1363,-184"/>
<text text-anchor="middle" x="1318.5" y="-172" font-family="Helvetica,sans-Serif" font-size="10.00">SFML/Audio.hpp</text>
</a>
</g>
</g>
<!-- Node2&#45;&gt;Node3 -->
<g id="edge2" class="edge">
<title>Node2&#45;&gt;Node3</title>
<path fill="none" stroke="#63b8ff" d="M884.74,-224.32C962.08,-217.43 1118.86,-202.72 1262.54,-184.19"/>
<polygon fill="#63b8ff" stroke="#63b8ff" points="1262.77,-187.69 1272.24,-182.93 1261.87,-180.74 1262.77,-187.69"/>
</g>
<!-- Node4 -->
<g id="node4" class="node">
<title>Node4</title>
<g id="a_node4"><a xlink:title=" ">
<polygon fill="#e0e0e0" stroke="#999999" points="1485.5,-184 1381.5,-184 1381.5,-165 1485.5,-165 1485.5,-184"/>
<text text-anchor="middle" x="1433.5" y="-172" font-family="Helvetica,sans-Serif" font-size="10.00">SFML/Graphics.hpp</text>
</a>
</g>
</g>
<!-- Node2&#45;&gt;Node4 -->
<g id="edge3" class="edge">
<title>Node2&#45;&gt;Node4</title>
<path fill="none" stroke="#63b8ff" d="M885,-225.38C977.26,-219.25 1184.63,-204.53 1369.95,-184.22"/>
<polygon fill="#63b8ff" stroke="#63b8ff" points="1370.22,-187.71 1379.78,-183.14 1369.45,-180.76 1370.22,-187.71"/>
</g>
<!-- Node5 -->
<g id="node5" class="node">
<title>Node5</title>
<g id="a_node5"><a xlink:title=" ">
<polygon fill="#e0e0e0" stroke="#999999" points="1605,-184 1504,-184 1504,-165 1605,-165 1605,-184"/>
<text text-anchor="middle" x="1554.5" y="-172" font-family="Helvetica,sans-Serif" font-size="10.00">SFML/Network.hpp</text>
</a>
</g>
</g>
<!-- Node2&#45;&gt;Node5 -->
<g id="edge4" class="edge">
<title>Node2&#45;&gt;Node5</title>
<path fill="none" stroke="#63b8ff" d="M884.9,-226.44C992.23,-221.62 1258.54,-208.2 1492.67,-184.1"/>
<polygon fill="#63b8ff" stroke="#63b8ff" points="1492.7,-187.62 1502.29,-183.11 1491.98,-180.66 1492.7,-187.62"/>
</g>
<!-- Node6 -->
<g id="node6" class="node">
<title>Node6</title>
<g id="a_node6"><a xlink:title=" ">
<polygon fill="#e0e0e0" stroke="#999999" points="99,-184 0,-184 0,-165 99,-165 99,-184"/>
<text text-anchor="middle" x="49.5" y="-172" font-family="Helvetica,sans-Serif" font-size="10.00">SFML/Window.hpp</text>
</a>
</g>
</g>
<!-- Node2&#45;&gt;Node6 -->
<g id="edge5" class="edge">
<title>Node2&#45;&gt;Node6</title>
<path fill="none" stroke="#63b8ff" d="M788.26,-226.92C673.04,-222.85 372.57,-210.51 110.62,-184.12"/>
<polygon fill="#63b8ff" stroke="#63b8ff" points="111.17,-180.66 100.86,-183.13 110.46,-187.62 111.17,-180.66"/>
</g>
<!-- Node7 -->
<g id="node7" class="node">
<title>Node7</title>
<g id="a_node7"><a xlink:title=" ">
<polygon fill="#e0e0e0" stroke="#999999" points="215.5,-184 117.5,-184 117.5,-165 215.5,-165 215.5,-184"/>
<text text-anchor="middle" x="166.5" y="-172" font-family="Helvetica,sans-Serif" font-size="10.00">SFML/System.hpp</text>
</a>
</g>
</g>
<!-- Node2&#45;&gt;Node7 -->
<g id="edge6" class="edge">
<title>Node2&#45;&gt;Node7</title>
<path fill="none" stroke="#63b8ff" d="M788.02,-225.95C685.02,-220.32 436.81,-205.56 229.5,-184 228.68,-183.91 227.85,-183.83 227.01,-183.74"/>
<polygon fill="#63b8ff" stroke="#63b8ff" points="227.83,-180.31 217.49,-182.64 227.03,-187.26 227.83,-180.31"/>
</g>
<!-- Node8 -->
<g id="node8" class="node">
<title>Node8</title>
<g id="a_node8"><a xlink:title=" ">
<polygon fill="#e0e0e0" stroke="#999999" points="320.5,-19 266.5,-19 266.5,0 320.5,0 320.5,-19"/>
<text text-anchor="middle" x="293.5" y="-7" font-family="Helvetica,sans-Serif" font-size="10.00">iostream</text>
</a>
</g>
</g>
<!-- Node2&#45;&gt;Node8 -->
<g id="edge7" class="edge">
<title>Node2&#45;&gt;Node8</title>
<path fill="none" stroke="#63b8ff" d="M788.03,-228.14C660.16,-226.71 321.13,-219.56 286.5,-184 246.06,-142.48 270.31,-65.46 284.89,-29.69"/>
<polygon fill="#63b8ff" stroke="#63b8ff" points="288.05,-31.21 288.77,-20.64 281.61,-28.45 288.05,-31.21"/>
</g>
<!-- Node9 -->
<g id="node9" class="node">
<title>Node9</title>
<g id="a_node9"><a xlink:title=" ">
<polygon fill="#e0e0e0" stroke="#999999" points="695.5,-184 645.5,-184 645.5,-165 695.5,-165 695.5,-184"/>
<text text-anchor="middle" x="670.5" y="-172" font-family="Helvetica,sans-Serif" font-size="10.00">fstream</text>
</a>
</g>
</g>
<!-- Node2&#45;&gt;Node9 -->
<g id="edge8" class="edge">
<title>Node2&#45;&gt;Node9</title>
<path fill="none" stroke="#63b8ff" d="M808.34,-219.51C780.25,-210.54 736.98,-196.73 706.43,-186.97"/>
<polygon fill="#63b8ff" stroke="#63b8ff" points="707.83,-183.75 697.24,-184.04 705.7,-190.41 707.83,-183.75"/>
</g>
<!-- Node10 -->
<g id="node10" class="node">
<title>Node10</title>
<g id="a_node10"><a xlink:title=" ">
<polygon fill="#e0e0e0" stroke="#999999" points="755,-184 714,-184 714,-165 755,-165 755,-184"/>
<text text-anchor="middle" x="734.5" y="-172" font-family="Helvetica,sans-Serif" font-size="10.00">string</text>
</a>
</g>
</g>
<!-- Node2&#45;&gt;Node10 -->
<g id="edge9" class="edge">
<title>Node2&#45;&gt;Node10</title>
<path fill="none" stroke="#63b8ff" d="M819.2,-219.51C803.42,-211.31 779.86,-199.07 761.59,-189.58"/>
<polygon fill="#63b8ff" stroke="#63b8ff" points="763.38,-186.56 752.89,-185.06 760.15,-192.77 763.38,-186.56"/>
</g>
<!-- Node11 -->
<g id="node11" class="node">
<title>Node11</title>
<g id="a_node11"><a xlink:title=" ">
<polygon fill="#e0e0e0" stroke="#999999" points="823.5,-184 773.5,-184 773.5,-165 823.5,-165 823.5,-184"/>
<text text-anchor="middle" x="798.5" y="-172" font-family="Helvetica,sans-Serif" font-size="10.00">unistd.h</text>
</a>
</g>
</g>
<!-- Node2&#45;&gt;Node11 -->
<g id="edge10" class="edge">
<title>Node2&#45;&gt;Node11</title>
<path fill="none" stroke="#63b8ff" d="M830.23,-219.75C825.14,-212.66 817.8,-202.42 811.47,-193.59"/>
<polygon fill="#63b8ff" stroke="#63b8ff" points="814.46,-191.76 805.79,-185.67 808.78,-195.84 814.46,-191.76"/>
</g>
<!-- Node12 -->
<g id="node12" class="node">
<title>Node12</title>
<g id="a_node12"><a xlink:title=" ">
<polygon fill="#e0e0e0" stroke="#999999" points="907,-184 842,-184 842,-165 907,-165 907,-184"/>
<text text-anchor="middle" x="874.5" y="-172" font-family="Helvetica,sans-Serif" font-size="10.00">sys/types.h</text>
</a>
</g>
</g>
<!-- Node2&#45;&gt;Node12 -->
<g id="edge11" class="edge">
<title>Node2&#45;&gt;Node12</title>
<path fill="none" stroke="#63b8ff" d="M842.77,-219.75C847.86,-212.66 855.2,-202.42 861.53,-193.59"/>
<polygon fill="#63b8ff" stroke="#63b8ff" points="864.22,-195.84 867.21,-185.67 858.54,-191.76 864.22,-195.84"/>
</g>
<!-- Node13 -->
<g id="node13" class="node">
<title>Node13</title>
<g id="a_node13"><a xlink:title=" ">
<polygon fill="#e0e0e0" stroke="#999999" points="382.5,-19 338.5,-19 338.5,0 382.5,0 382.5,-19"/>
<text text-anchor="middle" x="360.5" y="-7" font-family="Helvetica,sans-Serif" font-size="10.00">vector</text>
</a>
</g>
</g>
<!-- Node2&#45;&gt;Node13 -->
<g id="edge12" class="edge">
<title>Node2&#45;&gt;Node13</title>
<path fill="none" stroke="#63b8ff" d="M788.25,-228.14C662.68,-226.69 333.19,-219.51 300.5,-184 258.48,-138.34 315.08,-61.78 344.6,-27.73"/>
<polygon fill="#63b8ff" stroke="#63b8ff" points="347.05,-30.24 351.09,-20.44 341.82,-25.58 347.05,-30.24"/>
</g>
<!-- Node14 -->
<g id="node14" class="node">
<title>Node14</title>
<g id="a_node14"><a xlink:title=" ">
<polygon fill="#e0e0e0" stroke="#999999" points="983.5,-184 925.5,-184 925.5,-165 983.5,-165 983.5,-184"/>
<text text-anchor="middle" x="954.5" y="-172" font-family="Helvetica,sans-Serif" font-size="10.00">exception</text>
</a>
</g>
</g>
<!-- Node2&#45;&gt;Node14 -->
<g id="edge13" class="edge">
<title>Node2&#45;&gt;Node14</title>
<path fill="none" stroke="#63b8ff" d="M856.52,-219.51C875.11,-211.16 903.04,-198.61 924.33,-189.05"/>
<polygon fill="#63b8ff" stroke="#63b8ff" points="925.71,-192.27 933.4,-184.98 922.84,-185.88 925.71,-192.27"/>
</g>
<!-- Node2&#45;&gt;Node15 -->
<g id="edge14" class="edge">
<title>Node2&#45;&gt;Node15</title>
<path fill="none" stroke="#63b8ff" d="M884.87,-227.04C1006.39,-223.23 1333.58,-211.31 1605.5,-184 1607.41,-183.81 1609.36,-183.6 1611.32,-183.38"/>
<polygon fill="#63b8ff" stroke="#63b8ff" points="1611.73,-186.85 1621.24,-182.17 1610.89,-179.9 1611.73,-186.85"/>
</g>
<!-- Node16 -->
<g id="node16" class="node">
<title>Node16</title>
<g id="a_node16"><a xlink:href="Event_8hpp.html" target="_top" xlink:title=" ">
<polygon fill="white" stroke="#666666" points="1093.5,-184 1001.5,-184 1001.5,-165 1093.5,-165 1093.5,-184"/>
<text text-anchor="middle" x="1047.5" y="-172" font-family="Helvetica,sans-Serif" font-size="10.00">Engine/Event.hpp</text>
</a>
</g>
</g>
<!-- Node2&#45;&gt;Node16 -->
<g id="edge16" class="edge">
<title>Node2&#45;&gt;Node16</title>
<path fill="none" stroke="#63b8ff" d="M867.08,-219.51C900.78,-210.57 955.33,-196.83 995.7,-187.08"/>
<polygon fill="#63b8ff" stroke="#63b8ff" points="996.3,-190.54 1005.2,-184.8 994.66,-183.73 996.3,-190.54"/>
</g>
<!-- Node19 -->
<g id="node19" class="node">
<title>Node19</title>
<g id="a_node19"><a xlink:href="EntitiesManager_8hpp.html" target="_top" xlink:title=" ">
<polygon fill="white" stroke="#666666" points="449.5,-184 309.5,-184 309.5,-165 449.5,-165 449.5,-184"/>
<text text-anchor="middle" x="379.5" y="-172" font-family="Helvetica,sans-Serif" font-size="10.00">Entities/EntitiesManager.hpp</text>
</a>
</g>
</g>
<!-- Node2&#45;&gt;Node19 -->
<g id="edge20" class="edge">
<title>Node2&#45;&gt;Node19</title>
<path fill="none" stroke="#63b8ff" d="M788.07,-223.37C710.13,-214.67 556.25,-196.87 461.14,-185.6"/>
<polygon fill="#63b8ff" stroke="#63b8ff" points="461.69,-182.14 451.35,-184.44 460.86,-189.09 461.69,-182.14"/>
</g>
<!-- Node26 -->
<g id="node26" class="node">
<title>Node26</title>
<g id="a_node26"><a xlink:href="Bullets_8hpp.html" target="_top" xlink:title=" ">
<polygon fill="white" stroke="#666666" points="627.5,-184 505.5,-184 505.5,-165 627.5,-165 627.5,-184"/>
<text text-anchor="middle" x="566.5" y="-172" font-family="Helvetica,sans-Serif" font-size="10.00">Components/Bullets.hpp</text>
</a>
</g>
</g>
<!-- Node2&#45;&gt;Node26 -->
<g id="edge36" class="edge">
<title>Node2&#45;&gt;Node26</title>
<path fill="none" stroke="#63b8ff" d="M788.01,-219.98C739.96,-210.94 666.8,-196.62 617.81,-186.68"/>
<polygon fill="#63b8ff" stroke="#63b8ff" points="618.8,-183.31 608.3,-184.74 617.4,-190.17 618.8,-183.31"/>
</g>
<!-- Node28 -->
<g id="node28" class="node">
<title>Node28</title>
<g id="a_node28"><a xlink:href="Background_8hpp.html" target="_top" xlink:title=" ">
<polygon fill="white" stroke="#666666" points="1255.5,-184 1111.5,-184 1111.5,-165 1255.5,-165 1255.5,-184"/>
<text text-anchor="middle" x="1183.5" y="-172" font-family="Helvetica,sans-Serif" font-size="10.00">Components/Background.hpp</text>
</a>
</g>
</g>
<!-- Node2&#45;&gt;Node28 -->
<g id="edge40" class="edge">
<title>Node2&#45;&gt;Node28</title>
<path fill="none" stroke="#63b8ff" d="M884.92,-220.33C942.96,-211.15 1040.7,-196.19 1108.51,-186.11"/>
<polygon fill="#63b8ff" stroke="#63b8ff" points="1108.67,-189.62 1118.05,-184.69 1107.64,-182.7 1108.67,-189.62"/>
</g>
<!-- Node15&#45;&gt;Node2 -->
<g id="edge15" class="edge">
<title>Node15&#45;&gt;Node2</title>
<path fill="none" stroke="#63b8ff" d="M1622.68,-184.08C1352.35,-211.19 1027.68,-223.11 896.09,-226.98"/>
<polygon fill="#63b8ff" stroke="#63b8ff" points="896.12,-223.48 886.23,-227.27 896.32,-230.48 896.12,-223.48"/>
</g>
<!-- Node16&#45;&gt;Node2 -->
<g id="edge17" class="edge">
<title>Node16&#45;&gt;Node2</title>
<path fill="none" stroke="#63b8ff" d="M1017.09,-184.45C983.46,-193.37 928.92,-207.11 888.5,-216.87"/>
<polygon fill="#63b8ff" stroke="#63b8ff" points="887.89,-213.42 878.98,-219.16 889.52,-220.22 887.89,-213.42"/>
</g>
<!-- Node17 -->
<g id="node17" class="node">
<title>Node17</title>
<g id="a_node17"><a xlink:title=" ">
<polygon fill="#e0e0e0" stroke="#999999" points="1089,-129 1060,-129 1060,-110 1089,-110 1089,-129"/>
<text text-anchor="middle" x="1074.5" y="-117" font-family="Helvetica,sans-Serif" font-size="10.00">list</text>
</a>
</g>
</g>
<!-- Node16&#45;&gt;Node17 -->
<g id="edge18" class="edge">
<title>Node16&#45;&gt;Node17</title>
<path fill="none" stroke="#63b8ff" d="M1051.96,-164.75C1055.45,-157.88 1060.45,-148.08 1064.85,-139.45"/>
<polygon fill="#63b8ff" stroke="#63b8ff" points="1067.84,-141.29 1069.26,-130.79 1061.6,-138.11 1067.84,-141.29"/>
</g>
<!-- Node18 -->
<g id="node18" class="node">
<title>Node18</title>
<g id="a_node18"><a xlink:title=" ">
<polygon fill="#e0e0e0" stroke="#999999" points="1042,-129 999,-129 999,-110 1042,-110 1042,-129"/>
<text text-anchor="middle" x="1020.5" y="-117" font-family="Helvetica,sans-Serif" font-size="10.00">queue</text>
</a>
</g>
</g>
<!-- Node16&#45;&gt;Node18 -->
<g id="edge19" class="edge">
<title>Node16&#45;&gt;Node18</title>
<path fill="none" stroke="#63b8ff" d="M1043.04,-164.75C1039.55,-157.88 1034.55,-148.08 1030.15,-139.45"/>
<polygon fill="#63b8ff" stroke="#63b8ff" points="1033.4,-138.11 1025.74,-130.79 1027.16,-141.29 1033.4,-138.11"/>
</g>
<!-- Node19&#45;&gt;Node2 -->
<g id="edge21" class="edge">
<title>Node19&#45;&gt;Node2</title>
<path fill="none" stroke="#63b8ff" d="M449.64,-183.07C539.19,-193.16 692.44,-210.94 776.72,-221"/>
<polygon fill="#63b8ff" stroke="#63b8ff" points="776.29,-224.48 786.64,-222.19 777.12,-217.52 776.29,-224.48"/>
</g>
<!-- Node20 -->
<g id="node20" class="node">
<title>Node20</title>
<g id="a_node20"><a xlink:href="IComponents_8hpp.html" target="_top" xlink:title=" ">
<polygon fill="white" stroke="#666666" points="603.5,-129 453.5,-129 453.5,-110 603.5,-110 603.5,-129"/>
<text text-anchor="middle" x="528.5" y="-117" font-family="Helvetica,sans-Serif" font-size="10.00">Components/IComponents.hpp</text>
</a>
</g>
</g>
<!-- Node19&#45;&gt;Node20 -->
<g id="edge22" class="edge">
<title>Node19&#45;&gt;Node20</title>
<path fill="none" stroke="#63b8ff" d="M404.78,-164.51C429,-155.89 465.8,-142.8 492.97,-133.14"/>
<polygon fill="#63b8ff" stroke="#63b8ff" points="493.92,-136.51 502.17,-129.87 491.58,-129.92 493.92,-136.51"/>
</g>
<!-- Node21 -->
<g id="node21" class="node">
<title>Node21</title>
<g id="a_node21"><a xlink:href="SparseArray_8hpp.html" target="_top" xlink:title=" ">
<polygon fill="white" stroke="#666666" points="435,-129 324,-129 324,-110 435,-110 435,-129"/>
<text text-anchor="middle" x="379.5" y="-117" font-family="Helvetica,sans-Serif" font-size="10.00">Utils/SparseArray.hpp</text>
</a>
</g>
</g>
<!-- Node19&#45;&gt;Node21 -->
<g id="edge24" class="edge">
<title>Node19&#45;&gt;Node21</title>
<path fill="none" stroke="#63b8ff" d="M379.5,-164.75C379.5,-158.27 379.5,-149.16 379.5,-140.9"/>
<polygon fill="#63b8ff" stroke="#63b8ff" points="383,-140.96 379.5,-130.96 376,-140.96 383,-140.96"/>
</g>
<!-- Node20&#45;&gt;Node2 -->
<g id="edge23" class="edge">
<title>Node20&#45;&gt;Node2</title>
<path fill="none" stroke="#63b8ff" d="M518.31,-129.12C504.11,-142.14 481.68,-167.11 496.5,-184 514.67,-204.7 684.29,-218.73 776.87,-224.91"/>
<polygon fill="#63b8ff" stroke="#63b8ff" points="776.59,-228.4 786.79,-225.56 777.04,-221.42 776.59,-228.4"/>
</g>
<!-- Node21&#45;&gt;Node8 -->
<g id="edge25" class="edge">
<title>Node21&#45;&gt;Node8</title>
<path fill="none" stroke="#63b8ff" d="M372.46,-109.66C358.35,-91.94 326.36,-51.77 307.72,-28.35"/>
<polygon fill="#63b8ff" stroke="#63b8ff" points="310.55,-26.29 301.58,-20.64 305.07,-30.65 310.55,-26.29"/>
</g>
<!-- Node21&#45;&gt;Node13 -->
<g id="edge28" class="edge">
<title>Node21&#45;&gt;Node13</title>
<path fill="none" stroke="#63b8ff" d="M377.95,-109.66C374.93,-92.5 368.2,-54.26 364.04,-30.6"/>
<polygon fill="#63b8ff" stroke="#63b8ff" points="367.52,-30.19 362.34,-20.95 360.62,-31.41 367.52,-30.19"/>
</g>
<!-- Node22 -->
<g id="node22" class="node">
<title>Node22</title>
<g id="a_node22"><a xlink:title=" ">
<polygon fill="#e0e0e0" stroke="#999999" points="462.5,-19 406.5,-19 406.5,0 462.5,0 462.5,-19"/>
<text text-anchor="middle" x="434.5" y="-7" font-family="Helvetica,sans-Serif" font-size="10.00">algorithm</text>
</a>
</g>
</g>
<!-- Node21&#45;&gt;Node22 -->
<g id="edge26" class="edge">
<title>Node21&#45;&gt;Node22</title>
<path fill="none" stroke="#63b8ff" d="M432.23,-109.55C452.74,-103.21 474.22,-92.41 486.5,-74 498.23,-56.42 478.91,-37.89 460.58,-25.42"/>
<polygon fill="#63b8ff" stroke="#63b8ff" points="462.57,-22.54 452.26,-20.13 458.82,-28.45 462.57,-22.54"/>
</g>
<!-- Node23 -->
<g id="node23" class="node">
<title>Node23</title>
<g id="a_node23"><a xlink:title=" ">
<polygon fill="#e0e0e0" stroke="#999999" points="532.5,-19 494.5,-19 494.5,0 532.5,0 532.5,-19"/>
<text text-anchor="middle" x="513.5" y="-7" font-family="Helvetica,sans-Serif" font-size="10.00">array</text>
</a>
</g>
</g>
<!-- Node21&#45;&gt;Node23 -->
<g id="edge27" class="edge">
<title>Node21&#45;&gt;Node23</title>
<path fill="none" stroke="#63b8ff" d="M435.38,-111.01C459.43,-104.93 485.8,-93.93 502.5,-74 512.51,-62.05 514.89,-44.3 514.97,-30.6"/>
<polygon fill="#63b8ff" stroke="#63b8ff" points="518.48,-30.81 514.61,-20.95 511.48,-31.07 518.48,-30.81"/>
</g>
<!-- Node24 -->
<g id="node24" class="node">
<title>Node24</title>
<g id="a_node24"><a xlink:title=" ">
<polygon fill="#e0e0e0" stroke="#999999" points="597,-19 558,-19 558,0 597,0 597,-19"/>
<text text-anchor="middle" x="577.5" y="-7" font-family="Helvetica,sans-Serif" font-size="10.00">utility</text>
</a>
</g>
</g>
<!-- Node21&#45;&gt;Node24 -->
<g id="edge29" class="edge">
<title>Node21&#45;&gt;Node24</title>
<path fill="none" stroke="#63b8ff" d="M430.71,-109.52C459.1,-102.87 494.09,-91.8 521.5,-74 539.75,-62.15 555.62,-42.76 565.76,-28.53"/>
<polygon fill="#63b8ff" stroke="#63b8ff" points="568.49,-30.73 571.23,-20.5 562.71,-26.79 568.49,-30.73"/>
</g>
<!-- Node25 -->
<g id="node25" class="node">
<title>Node25</title>
<g id="a_node25"><a xlink:href="Vectors_8hpp.html" target="_top" xlink:title=" ">
<polygon fill="white" stroke="#666666" points="477.5,-74 385.5,-74 385.5,-55 477.5,-55 477.5,-74"/>
<text text-anchor="middle" x="431.5" y="-62" font-family="Helvetica,sans-Serif" font-size="10.00">Utils/Vectors.hpp</text>
</a>
</g>
</g>
<!-- Node21&#45;&gt;Node25 -->
<g id="edge30" class="edge">
<title>Node21&#45;&gt;Node25</title>
<path fill="none" stroke="#63b8ff" d="M388.09,-109.75C395.34,-102.35 405.95,-91.54 414.87,-82.45"/>
<polygon fill="#63b8ff" stroke="#63b8ff" points="417.16,-85.11 421.67,-75.52 412.16,-80.21 417.16,-85.11"/>
</g>
<!-- Node25&#45;&gt;Node8 -->
<g id="edge31" class="edge">
<title>Node25&#45;&gt;Node8</title>
<path fill="none" stroke="#63b8ff" d="M408.09,-54.51C385.85,-45.97 352.17,-33.03 327.08,-23.4"/>
<polygon fill="#63b8ff" stroke="#63b8ff" points="328.57,-20.22 317.98,-19.9 326.06,-26.75 328.57,-20.22"/>
</g>
<!-- Node25&#45;&gt;Node13 -->
<g id="edge34" class="edge">
<title>Node25&#45;&gt;Node13</title>
<path fill="none" stroke="#63b8ff" d="M419.46,-54.51C409.09,-46.77 393.9,-35.43 381.53,-26.2"/>
<polygon fill="#63b8ff" stroke="#63b8ff" points="383.69,-23.44 373.58,-20.26 379.5,-29.05 383.69,-23.44"/>
</g>
<!-- Node25&#45;&gt;Node22 -->
<g id="edge32" class="edge">
<title>Node25&#45;&gt;Node22</title>
<path fill="none" stroke="#63b8ff" d="M432,-54.75C432.36,-48.27 432.88,-39.16 433.35,-30.9"/>
<polygon fill="#63b8ff" stroke="#63b8ff" points="436.84,-31.13 433.91,-20.95 429.85,-30.74 436.84,-31.13"/>
</g>
<!-- Node25&#45;&gt;Node23 -->
<g id="edge33" class="edge">
<title>Node25&#45;&gt;Node23</title>
<path fill="none" stroke="#63b8ff" d="M445.41,-54.51C457.74,-46.54 475.97,-34.75 490.47,-25.38"/>
<polygon fill="#63b8ff" stroke="#63b8ff" points="492.03,-28.55 498.52,-20.18 488.23,-22.67 492.03,-28.55"/>
</g>
<!-- Node25&#45;&gt;Node24 -->
<g id="edge35" class="edge">
<title>Node25&#45;&gt;Node24</title>
<path fill="none" stroke="#63b8ff" d="M456.27,-54.51C481.32,-45.41 520.11,-31.33 547.03,-21.56"/>
<polygon fill="#63b8ff" stroke="#63b8ff" points="548.14,-24.88 556.35,-18.18 545.76,-18.3 548.14,-24.88"/>
</g>
<!-- Node26&#45;&gt;Node2 -->
<g id="edge37" class="edge">
<title>Node26&#45;&gt;Node2</title>
<path fill="none" stroke="#63b8ff" d="M617.28,-184.45C665.21,-193.48 736.57,-207.46 784.79,-217.24"/>
<polygon fill="#63b8ff" stroke="#63b8ff" points="783.93,-220.64 794.43,-219.21 785.33,-213.78 783.93,-220.64"/>
</g>
<!-- Node26&#45;&gt;Node20 -->
<g id="edge38" class="edge">
<title>Node26&#45;&gt;Node20</title>
<path fill="none" stroke="#63b8ff" d="M560.23,-164.75C555.14,-157.66 547.8,-147.42 541.47,-138.59"/>
<polygon fill="#63b8ff" stroke="#63b8ff" points="544.46,-136.76 535.79,-130.67 538.78,-140.84 544.46,-136.76"/>
</g>
<!-- Node27 -->
<g id="node27" class="node">
<title>Node27</title>
<g id="a_node27"><a xlink:title=" ">
<polygon fill="#e0e0e0" stroke="#999999" points="667.5,-129 621.5,-129 621.5,-110 667.5,-110 667.5,-129"/>
<text text-anchor="middle" x="644.5" y="-117" font-family="Helvetica,sans-Serif" font-size="10.00">math.h</text>
</a>
</g>
</g>
<!-- Node26&#45;&gt;Node27 -->
<g id="edge39" class="edge">
<title>Node26&#45;&gt;Node27</title>
<path fill="none" stroke="#63b8ff" d="M579.73,-164.51C591.34,-156.62 608.47,-144.98 622.2,-135.65"/>
<polygon fill="#63b8ff" stroke="#63b8ff" points="623.91,-138.72 630.21,-130.21 619.97,-132.93 623.91,-138.72"/>
</g>
<!-- Node28&#45;&gt;Node2 -->
<g id="edge41" class="edge">
<title>Node28&#45;&gt;Node2</title>
<path fill="none" stroke="#63b8ff" d="M1129.95,-184.48C1066.57,-194.48 961.53,-210.51 895.76,-220.22"/>
<polygon fill="#63b8ff" stroke="#63b8ff" points="895.64,-216.7 886.25,-221.62 896.66,-223.63 895.64,-216.7"/>
</g>
</g>
</svg>
        <g id="navigator" transform="translate(0 0)" fill="#404254">
                <rect fill="#f2f5e9" fill-opacity="0.5" stroke="#606060" stroke-width=".5" x="0" y="0" width="60" height="60"/>
                <use id="zoomplus" xlink:href="#zoomPlus" x="17" y="9" onmousedown="handleZoom(evt,'in')"/>
                <use id="zoomminus" xlink:href="#zoomMin" x="42" y="9" onmousedown="handleZoom(evt,'out')"/>
                <use id="reset" xlink:href="#resetDef" x="30" y="36" onmousedown="handleReset()"/>
                <g id="arrowUp" xlink:href="#dirArrow" transform="translate(30 24)" onmousedown="handlePan(0,-1)">
                  <use xlink:href="#rim" fill="#404040">
                        <set attributeName="fill" to="#808080" begin="arrowUp.mouseover" end="arrowUp.mouseout"/>
                  </use>
                  <path fill="none" stroke="white" stroke-width="1.5" d="M0,-3.0v7 M-2.5,-0.5L0,-3.0L2.5,-0.5"/>
                </g>
                <g id="arrowRight" xlink:href="#dirArrow" transform="rotate(90) translate(36 -43)" onmousedown="handlePan(1,0)">
                  <use xlink:href="#rim" fill="#404040">
                        <set attributeName="fill" to="#808080" begin="arrowRight.mouseover" end="arrowRight.mouseout"/>
                  </use>
                  <path fill="none" stroke="white" stroke-width="1.5" d="M0,-3.0v7 M-2.5,-0.5L0,-3.0L2.5,-0.5"/>
                </g>
                <g id="arrowDown" xlink:href="#dirArrow" transform="rotate(180) translate(-30 -48)" onmousedown="handlePan(0,1)">
                  <use xlink:href="#rim" fill="#404040">
                        <set attributeName="fill" to="#808080" begin="arrowDown.mouseover" end="arrowDown.mouseout"/>
                  </use>
                  <path fill="none" stroke="white" stroke-width="1.5" d="M0,-3.0v7 M-2.5,-0.5L0,-3.0L2.5,-0.5"/>
                </g>
                <g id="arrowLeft" xlink:href="#dirArrow" transform="rotate(270) translate(-36 17)" onmousedown="handlePan(-1,0)">
                  <use xlink:href="#rim" fill="#404040">
                        <set attributeName="fill" to="#808080" begin="arrowLeft.mouseover" end="arrowLeft.mouseout"/>
                  </use>
                  <path fill="none" stroke="white" stroke-width="1.5" d="M0,-3.0v7 M-2.5,-0.5L0,-3.0L2.5,-0.5"/>
                </g>
        </g>
        <svg viewBox="0 0 15 15" width="100%" height="30px" preserveAspectRatio="xMaxYMin meet">
         <g id="arrow_out" transform="scale(0.3 0.3)">
          <a xlink:href="StateManager_8hpp__incl_org.svg" target="_base">
           <rect id="button" ry="5" rx="5" y="6" x="6" height="38" width="38"
                fill="#f2f5e9" fill-opacity="0.5" stroke="#606060" stroke-width="1.0"/>
           <path id="arrow"
             d="M 11.500037,31.436501 C 11.940474,20.09759 22.043105,11.32322 32.158766,21.979434 L 37.068811,17.246167 C 37.068811,17.246167 37.088388,32 37.088388,32 L 22.160133,31.978069 C 22.160133,31.978069 26.997745,27.140456 26.997745,27.140456 C 18.528582,18.264221 13.291696,25.230495 11.500037,31.436501 z"
             style="fill:#404040;"/>
          </a>
         </g>
        </svg>
</svg>
