<?xml version="1.0" encoding="UTF-8" standalone="no"?>
<!DOCTYPE svg PUBLIC "-//W3C//DTD SVG 1.1//EN"
 "http://www.w3.org/Graphics/SVG/1.1/DTD/svg11.dtd">
<!-- Generated by graphviz version 7.0.5 (20221223.1930)
 -->
<!-- Title: /github/workspace/client/include/system/gameStates/States.hpp Pages: 1 -->
<svg width="2449pt" height="379pt"
 viewBox="0.00 0.00 2449.00 379.00" xmlns="http://www.w3.org/2000/svg" xmlns:xlink="http://www.w3.org/1999/xlink">
<g id="graph0" class="graph" transform="scale(1 1) rotate(0) translate(4 375)">
<title>/github/workspace/client/include/system/gameStates/States.hpp</title>
<!-- Node1 -->
<g id="node1" class="node">
<title>Node1</title>
<g id="a_node1"><a xlink:title=" ">
<polygon fill="#999999" stroke="#666666" points="1589,-371 1449,-371 1449,-330 1589,-330 1589,-371"/>
<text text-anchor="start" x="1457" y="-359" font-family="Helvetica,sans-Serif" font-size="10.00">/github/workspace/client</text>
<text text-anchor="start" x="1457" y="-348" font-family="Helvetica,sans-Serif" font-size="10.00">/include/system/gameStates</text>
<text text-anchor="middle" x="1519" y="-337" font-family="Helvetica,sans-Serif" font-size="10.00">/States.hpp</text>
</a>
</g>
</g>
<!-- Node2 -->
<g id="node2" class="node">
<title>Node2</title>
<g id="a_node2"><a xlink:href="IGameState_8hpp.html" target="_top" xlink:title=" ">
<polygon fill="white" stroke="#666666" points="1389.5,-239 1302.5,-239 1302.5,-220 1389.5,-220 1389.5,-239"/>
<text text-anchor="middle" x="1346" y="-227" font-family="Helvetica,sans-Serif" font-size="10.00">IGameState.hpp</text>
</a>
</g>
</g>
<!-- Node1&#45;&gt;Node2 -->
<g id="edge1" class="edge">
<title>Node1&#45;&gt;Node2</title>
<path fill="none" stroke="#63b8ff" d="M1483.86,-329.66C1466.44,-319.48 1445.27,-306.6 1427,-294 1404.99,-278.82 1381.04,-259.69 1364.93,-246.41"/>
<polygon fill="#63b8ff" stroke="#63b8ff" points="1367.52,-244.02 1357.59,-240.32 1363.05,-249.4 1367.52,-244.02"/>
</g>
<!-- Node37 -->
<g id="node37" class="node">
<title>Node37</title>
<g id="a_node37"><a xlink:href="SMenu_8hpp.html" target="_top" xlink:title=" ">
<polygon fill="white" stroke="#666666" points="1501.5,-294 1436.5,-294 1436.5,-275 1501.5,-275 1501.5,-294"/>
<text text-anchor="middle" x="1469" y="-282" font-family="Helvetica,sans-Serif" font-size="10.00">SMenu.hpp</text>
</a>
</g>
</g>
<!-- Node1&#45;&gt;Node37 -->
<g id="edge60" class="edge">
<title>Node1&#45;&gt;Node37</title>
<path fill="none" stroke="#63b8ff" d="M1503.45,-329.6C1496.85,-321.15 1489.22,-311.38 1482.81,-303.18"/>
<polygon fill="#63b8ff" stroke="#63b8ff" points="1485.61,-301.08 1476.7,-295.36 1480.1,-305.39 1485.61,-301.08"/>
</g>
<!-- Node40 -->
<g id="node40" class="node">
<title>Node40</title>
<g id="a_node40"><a xlink:href="SGamePlay_8hpp.html" target="_top" xlink:title=" ">
<polygon fill="white" stroke="#666666" points="1612,-294 1526,-294 1526,-275 1612,-275 1612,-294"/>
<text text-anchor="middle" x="1569" y="-282" font-family="Helvetica,sans-Serif" font-size="10.00">SGamePlay.hpp</text>
</a>
</g>
</g>
<!-- Node1&#45;&gt;Node40 -->
<g id="edge65" class="edge">
<title>Node1&#45;&gt;Node40</title>
<path fill="none" stroke="#63b8ff" d="M1534.55,-329.6C1541.15,-321.15 1548.78,-311.38 1555.19,-303.18"/>
<polygon fill="#63b8ff" stroke="#63b8ff" points="1557.9,-305.39 1561.3,-295.36 1552.39,-301.08 1557.9,-305.39"/>
</g>
<!-- Node3 -->
<g id="node3" class="node">
<title>Node3</title>
<g id="a_node3"><a xlink:href="EntitiesManager_8hpp.html" target="_top" xlink:title=" ">
<polygon fill="white" stroke="#666666" points="601,-184 461,-184 461,-165 601,-165 601,-184"/>
<text text-anchor="middle" x="531" y="-172" font-family="Helvetica,sans-Serif" font-size="10.00">Entities/EntitiesManager.hpp</text>
</a>
</g>
</g>
<!-- Node2&#45;&gt;Node3 -->
<g id="edge2" class="edge">
<title>Node2&#45;&gt;Node3</title>
<path fill="none" stroke="#63b8ff" d="M1302.29,-226.45C1188.79,-221 875.43,-205.09 615,-184 614.15,-183.93 613.3,-183.86 612.44,-183.79"/>
<polygon fill="#63b8ff" stroke="#63b8ff" points="612.88,-180.32 602.62,-182.94 612.27,-187.29 612.88,-180.32"/>
</g>
<!-- Node27 -->
<g id="node27" class="node">
<title>Node27</title>
<g id="a_node27"><a xlink:href="Background_8hpp.html" target="_top" xlink:title=" ">
<polygon fill="white" stroke="#666666" points="704,-74 560,-74 560,-55 704,-55 704,-74"/>
<text text-anchor="middle" x="632" y="-62" font-family="Helvetica,sans-Serif" font-size="10.00">Components/Background.hpp</text>
</a>
</g>
</g>
<!-- Node2&#45;&gt;Node27 -->
<g id="edge53" class="edge">
<title>Node2&#45;&gt;Node27</title>
<path fill="none" stroke="#63b8ff" d="M1306.6,-219.5C1185.3,-191.81 817.59,-107.87 682.49,-77.03"/>
<polygon fill="#63b8ff" stroke="#63b8ff" points="683.29,-73.62 672.76,-74.8 681.73,-80.44 683.29,-73.62"/>
</g>
<!-- Node33 -->
<g id="node33" class="node">
<title>Node33</title>
<g id="a_node33"><a xlink:href="String_8hpp.html" target="_top" xlink:title=" ">
<polygon fill="white" stroke="#666666" points="465.5,-74 382.5,-74 382.5,-55 465.5,-55 465.5,-74"/>
<text text-anchor="middle" x="424" y="-62" font-family="Helvetica,sans-Serif" font-size="10.00">Utils/String.hpp</text>
</a>
</g>
</g>
<!-- Node2&#45;&gt;Node33 -->
<g id="edge46" class="edge">
<title>Node2&#45;&gt;Node33</title>
<path fill="none" stroke="#63b8ff" d="M1302.29,-227.77C1127.28,-224.67 484.99,-211.47 452,-184 423.25,-160.06 420.87,-112.59 422.14,-85.56"/>
<polygon fill="#63b8ff" stroke="#63b8ff" points="425.6,-86.17 422.82,-75.94 418.62,-85.67 425.6,-86.17"/>
</g>
<!-- Node34 -->
<g id="node34" class="node">
<title>Node34</title>
<g id="a_node34"><a xlink:href="GameEngine_8hpp.html" target="_top" xlink:title=" ">
<polygon fill="white" stroke="#666666" points="2412.5,-184 2287.5,-184 2287.5,-165 2412.5,-165 2412.5,-184"/>
<text text-anchor="middle" x="2350" y="-172" font-family="Helvetica,sans-Serif" font-size="10.00">system/GameEngine.hpp</text>
</a>
</g>
</g>
<!-- Node2&#45;&gt;Node34 -->
<g id="edge50" class="edge">
<title>Node2&#45;&gt;Node34</title>
<path fill="none" stroke="#63b8ff" d="M1389.93,-220.95C1392.65,-220.6 1395.36,-220.28 1398,-220 1724.02,-185.85 2115.61,-177.91 2276.01,-176.06"/>
<polygon fill="#63b8ff" stroke="#63b8ff" points="2275.68,-179.56 2285.64,-175.95 2275.6,-172.56 2275.68,-179.56"/>
</g>
<!-- Node35 -->
<g id="node35" class="node">
<title>Node35</title>
<g id="a_node35"><a xlink:href="Centipede_8hpp.html" target="_top" xlink:title=" ">
<polygon fill="white" stroke="#666666" points="1633,-184 1497,-184 1497,-165 1633,-165 1633,-184"/>
<text text-anchor="middle" x="1565" y="-172" font-family="Helvetica,sans-Serif" font-size="10.00">Components/Centipede.hpp</text>
</a>
</g>
</g>
<!-- Node2&#45;&gt;Node35 -->
<g id="edge54" class="edge">
<title>Node2&#45;&gt;Node35</title>
<path fill="none" stroke="#63b8ff" d="M1383.15,-219.51C1419.99,-210.59 1476.62,-196.89 1516.88,-187.15"/>
<polygon fill="#63b8ff" stroke="#63b8ff" points="1517.67,-190.56 1526.56,-184.8 1516.02,-183.75 1517.67,-190.56"/>
</g>
<!-- Node4 -->
<g id="node4" class="node">
<title>Node4</title>
<g id="a_node4"><a xlink:href="Engine_8hpp.html" target="_top" xlink:title=" ">
<polygon fill="white" stroke="#666666" points="1521,-129 1417,-129 1417,-110 1521,-110 1521,-129"/>
<text text-anchor="middle" x="1469" y="-117" font-family="Helvetica,sans-Serif" font-size="10.00">../Engine/Engine.hpp</text>
</a>
</g>
</g>
<!-- Node3&#45;&gt;Node4 -->
<g id="edge3" class="edge">
<title>Node3&#45;&gt;Node4</title>
<path fill="none" stroke="#63b8ff" d="M601.14,-169.32C777.34,-159.14 1236.18,-133.22 1405.28,-123.9"/>
<polygon fill="#63b8ff" stroke="#63b8ff" points="1405.4,-127.4 1415.19,-123.36 1405.02,-120.41 1405.4,-127.4"/>
</g>
<!-- Node25 -->
<g id="node25" class="node">
<title>Node25</title>
<g id="a_node25"><a xlink:href="IComponents_8hpp.html" target="_top" xlink:title=" ">
<polygon fill="white" stroke="#666666" points="2066,-19 1974,-19 1974,0 2066,0 2066,-19"/>
<text text-anchor="middle" x="2020" y="-7" font-family="Helvetica,sans-Serif" font-size="10.00">IComponents.hpp</text>
</a>
</g>
</g>
<!-- Node3&#45;&gt;Node25 -->
<g id="edge33" class="edge">
<title>Node3&#45;&gt;Node25</title>
<path fill="none" stroke="#63b8ff" d="M529.23,-164.61C525.33,-142.19 518.76,-83.1 551,-55 578.07,-31.41 1693.83,-14.89 1962.33,-11.25"/>
<polygon fill="#63b8ff" stroke="#63b8ff" points="1962.27,-14.76 1972.23,-11.12 1962.18,-7.76 1962.27,-14.76"/>
</g>
<!-- Node28 -->
<g id="node28" class="node">
<title>Node28</title>
<g id="a_node28"><a xlink:href="SparseArray_8hpp.html" target="_top" xlink:title=" ">
<polygon fill="white" stroke="#666666" points="211.5,-129 100.5,-129 100.5,-110 211.5,-110 211.5,-129"/>
<text text-anchor="middle" x="156" y="-117" font-family="Helvetica,sans-Serif" font-size="10.00">Utils/SparseArray.hpp</text>
</a>
</g>
</g>
<!-- Node3&#45;&gt;Node28 -->
<g id="edge34" class="edge">
<title>Node3&#45;&gt;Node28</title>
<path fill="none" stroke="#63b8ff" d="M467.39,-164.51C399.49,-154.91 292.37,-139.77 223.15,-129.99"/>
<polygon fill="#63b8ff" stroke="#63b8ff" points="223.84,-126.55 213.45,-128.62 222.86,-133.49 223.84,-126.55"/>
</g>
<!-- Node4&#45;&gt;Node3 -->
<g id="edge25" class="edge">
<title>Node4&#45;&gt;Node3</title>
<path fill="none" stroke="#63b8ff" d="M1416.61,-123.65C1261.03,-132.68 801.27,-158.67 612.86,-169.1"/>
<polygon fill="#63b8ff" stroke="#63b8ff" points="612.69,-165.6 602.9,-169.65 613.08,-172.59 612.69,-165.6"/>
</g>
<!-- Node5 -->
<g id="node5" class="node">
<title>Node5</title>
<g id="a_node5"><a xlink:title=" ">
<polygon fill="#e0e0e0" stroke="#999999" points="849.5,-74 760.5,-74 760.5,-55 849.5,-55 849.5,-74"/>
<text text-anchor="middle" x="805" y="-62" font-family="Helvetica,sans-Serif" font-size="10.00">SFML/Audio.hpp</text>
</a>
</g>
</g>
<!-- Node4&#45;&gt;Node5 -->
<g id="edge4" class="edge">
<title>Node4&#45;&gt;Node5</title>
<path fill="none" stroke="#63b8ff" d="M1416.64,-116.15C1312.82,-111.18 1073.32,-98.12 861.11,-74.14"/>
<polygon fill="#63b8ff" stroke="#63b8ff" points="861.59,-70.67 851.25,-73.01 860.79,-77.62 861.59,-70.67"/>
</g>
<!-- Node6 -->
<g id="node6" class="node">
<title>Node6</title>
<g id="a_node6"><a xlink:title=" ">
<polygon fill="#e0e0e0" stroke="#999999" points="972,-74 868,-74 868,-55 972,-55 972,-74"/>
<text text-anchor="middle" x="920" y="-62" font-family="Helvetica,sans-Serif" font-size="10.00">SFML/Graphics.hpp</text>
</a>
</g>
</g>
<!-- Node4&#45;&gt;Node6 -->
<g id="edge5" class="edge">
<title>Node4&#45;&gt;Node6</title>
<path fill="none" stroke="#63b8ff" d="M1416.56,-114.54C1329.1,-107.76 1147.64,-92.92 983.51,-74.24"/>
<polygon fill="#63b8ff" stroke="#63b8ff" points="984.06,-70.78 973.73,-73.12 983.26,-77.73 984.06,-70.78"/>
</g>
<!-- Node7 -->
<g id="node7" class="node">
<title>Node7</title>
<g id="a_node7"><a xlink:title=" ">
<polygon fill="#e0e0e0" stroke="#999999" points="1091.5,-74 990.5,-74 990.5,-55 1091.5,-55 1091.5,-74"/>
<text text-anchor="middle" x="1041" y="-62" font-family="Helvetica,sans-Serif" font-size="10.00">SFML/Network.hpp</text>
</a>
</g>
</g>
<!-- Node4&#45;&gt;Node7 -->
<g id="edge6" class="edge">
<title>Node4&#45;&gt;Node7</title>
<path fill="none" stroke="#63b8ff" d="M1416.71,-112.58C1347.39,-104.64 1220.96,-89.88 1103.2,-74.4"/>
<polygon fill="#63b8ff" stroke="#63b8ff" points="1103.71,-70.94 1093.34,-73.1 1102.8,-77.88 1103.71,-70.94"/>
</g>
<!-- Node8 -->
<g id="node8" class="node">
<title>Node8</title>
<g id="a_node8"><a xlink:title=" ">
<polygon fill="#e0e0e0" stroke="#999999" points="1208.5,-74 1109.5,-74 1109.5,-55 1208.5,-55 1208.5,-74"/>
<text text-anchor="middle" x="1159" y="-62" font-family="Helvetica,sans-Serif" font-size="10.00">SFML/Window.hpp</text>
</a>
</g>
</g>
<!-- Node4&#45;&gt;Node8 -->
<g id="edge7" class="edge">
<title>Node4&#45;&gt;Node8</title>
<path fill="none" stroke="#63b8ff" d="M1416.76,-109.57C1362.41,-100.28 1277.37,-85.74 1219.98,-75.92"/>
<polygon fill="#63b8ff" stroke="#63b8ff" points="1220.82,-72.52 1210.37,-74.28 1219.64,-79.42 1220.82,-72.52"/>
</g>
<!-- Node9 -->
<g id="node9" class="node">
<title>Node9</title>
<g id="a_node9"><a xlink:title=" ">
<polygon fill="#e0e0e0" stroke="#999999" points="1325,-74 1227,-74 1227,-55 1325,-55 1325,-74"/>
<text text-anchor="middle" x="1276" y="-62" font-family="Helvetica,sans-Serif" font-size="10.00">SFML/System.hpp</text>
</a>
</g>
</g>
<!-- Node4&#45;&gt;Node9 -->
<g id="edge8" class="edge">
<title>Node4&#45;&gt;Node9</title>
<path fill="none" stroke="#63b8ff" d="M1436.26,-109.51C1404.14,-100.69 1354.96,-87.18 1319.55,-77.46"/>
<polygon fill="#63b8ff" stroke="#63b8ff" points="1320.61,-74.12 1310.04,-74.85 1318.75,-80.87 1320.61,-74.12"/>
</g>
<!-- Node10 -->
<g id="node10" class="node">
<title>Node10</title>
<g id="a_node10"><a xlink:title=" ">
<polygon fill="#e0e0e0" stroke="#999999" points="324,-19 270,-19 270,0 324,0 324,-19"/>
<text text-anchor="middle" x="297" y="-7" font-family="Helvetica,sans-Serif" font-size="10.00">iostream</text>
</a>
</g>
</g>
<!-- Node4&#45;&gt;Node10 -->
<g id="edge9" class="edge">
<title>Node4&#45;&gt;Node10</title>
<path fill="none" stroke="#63b8ff" d="M1416.57,-118.35C1211.59,-117.48 470.83,-111.75 373,-74 348.03,-64.36 325.32,-42.96 311.36,-27.67"/>
<polygon fill="#63b8ff" stroke="#63b8ff" points="314.07,-25.46 304.85,-20.24 308.81,-30.07 314.07,-25.46"/>
</g>
<!-- Node11 -->
<g id="node11" class="node">
<title>Node11</title>
<g id="a_node11"><a xlink:title=" ">
<polygon fill="#e0e0e0" stroke="#999999" points="1393,-74 1343,-74 1343,-55 1393,-55 1393,-74"/>
<text text-anchor="middle" x="1368" y="-62" font-family="Helvetica,sans-Serif" font-size="10.00">fstream</text>
</a>
</g>
</g>
<!-- Node4&#45;&gt;Node11 -->
<g id="edge10" class="edge">
<title>Node4&#45;&gt;Node11</title>
<path fill="none" stroke="#63b8ff" d="M1451.87,-109.51C1436.25,-101.31 1412.92,-89.07 1394.83,-79.58"/>
<polygon fill="#63b8ff" stroke="#63b8ff" points="1396.7,-76.61 1386.22,-75.06 1393.45,-82.81 1396.7,-76.61"/>
</g>
<!-- Node12 -->
<g id="node12" class="node">
<title>Node12</title>
<g id="a_node12"><a xlink:title=" ">
<polygon fill="#e0e0e0" stroke="#999999" points="1459,-74 1411,-74 1411,-55 1459,-55 1459,-74"/>
<text text-anchor="middle" x="1435" y="-62" font-family="Helvetica,sans-Serif" font-size="10.00">string.h</text>
</a>
</g>
</g>
<!-- Node4&#45;&gt;Node12 -->
<g id="edge11" class="edge">
<title>Node4&#45;&gt;Node12</title>
<path fill="none" stroke="#63b8ff" d="M1463.39,-109.75C1458.88,-102.73 1452.41,-92.64 1446.79,-83.87"/>
<polygon fill="#63b8ff" stroke="#63b8ff" points="1449.9,-82.24 1441.55,-75.72 1444.01,-86.02 1449.9,-82.24"/>
</g>
<!-- Node13 -->
<g id="node13" class="node">
<title>Node13</title>
<g id="a_node13"><a xlink:title=" ">
<polygon fill="#e0e0e0" stroke="#999999" points="1527,-74 1477,-74 1477,-55 1527,-55 1527,-74"/>
<text text-anchor="middle" x="1502" y="-62" font-family="Helvetica,sans-Serif" font-size="10.00">unistd.h</text>
</a>
</g>
</g>
<!-- Node4&#45;&gt;Node13 -->
<g id="edge12" class="edge">
<title>Node4&#45;&gt;Node13</title>
<path fill="none" stroke="#63b8ff" d="M1474.45,-109.75C1478.77,-102.81 1484.96,-92.86 1490.38,-84.16"/>
<polygon fill="#63b8ff" stroke="#63b8ff" points="1493.32,-86.07 1495.63,-75.73 1487.38,-82.37 1493.32,-86.07"/>
</g>
<!-- Node14 -->
<g id="node14" class="node">
<title>Node14</title>
<g id="a_node14"><a xlink:title=" ">
<polygon fill="#e0e0e0" stroke="#999999" points="1610.5,-74 1545.5,-74 1545.5,-55 1610.5,-55 1610.5,-74"/>
<text text-anchor="middle" x="1578" y="-62" font-family="Helvetica,sans-Serif" font-size="10.00">sys/types.h</text>
</a>
</g>
</g>
<!-- Node4&#45;&gt;Node14 -->
<g id="edge13" class="edge">
<title>Node4&#45;&gt;Node14</title>
<path fill="none" stroke="#63b8ff" d="M1487.49,-109.51C1504.5,-101.24 1529.99,-88.84 1549.59,-79.31"/>
<polygon fill="#63b8ff" stroke="#63b8ff" points="1550.96,-82.54 1558.42,-75.02 1547.9,-76.25 1550.96,-82.54"/>
</g>
<!-- Node15 -->
<g id="node15" class="node">
<title>Node15</title>
<g id="a_node15"><a xlink:title=" ">
<polygon fill="#e0e0e0" stroke="#999999" points="446,-19 402,-19 402,0 446,0 446,-19"/>
<text text-anchor="middle" x="424" y="-7" font-family="Helvetica,sans-Serif" font-size="10.00">vector</text>
</a>
</g>
</g>
<!-- Node4&#45;&gt;Node15 -->
<g id="edge14" class="edge">
<title>Node4&#45;&gt;Node15</title>
<path fill="none" stroke="#63b8ff" d="M1416.74,-117.96C1273.46,-116.06 876.66,-107.8 751,-74 732.77,-69.1 730.99,-60.73 713,-55 623.51,-26.51 512.43,-15.96 457.7,-12.3"/>
<polygon fill="#63b8ff" stroke="#63b8ff" points="458,-8.81 447.8,-11.67 457.56,-15.79 458,-8.81"/>
</g>
<!-- Node16 -->
<g id="node16" class="node">
<title>Node16</title>
<g id="a_node16"><a xlink:title=" ">
<polygon fill="#e0e0e0" stroke="#999999" points="1685,-74 1629,-74 1629,-55 1685,-55 1685,-74"/>
<text text-anchor="middle" x="1657" y="-62" font-family="Helvetica,sans-Serif" font-size="10.00">stdbool.h</text>
</a>
</g>
</g>
<!-- Node4&#45;&gt;Node16 -->
<g id="edge15" class="edge">
<title>Node4&#45;&gt;Node16</title>
<path fill="none" stroke="#63b8ff" d="M1500.89,-109.51C1533.22,-100.4 1583.29,-86.28 1617.97,-76.5"/>
<polygon fill="#63b8ff" stroke="#63b8ff" points="1618.52,-79.99 1627.19,-73.9 1616.62,-73.25 1618.52,-79.99"/>
</g>
<!-- Node17 -->
<g id="node17" class="node">
<title>Node17</title>
<g id="a_node17"><a xlink:title=" ">
<polygon fill="#e0e0e0" stroke="#999999" points="1750.5,-74 1703.5,-74 1703.5,-55 1750.5,-55 1750.5,-74"/>
<text text-anchor="middle" x="1727" y="-62" font-family="Helvetica,sans-Serif" font-size="10.00">stdlib.h</text>
</a>
</g>
</g>
<!-- Node4&#45;&gt;Node17 -->
<g id="edge16" class="edge">
<title>Node4&#45;&gt;Node17</title>
<path fill="none" stroke="#63b8ff" d="M1518.33,-109.58C1561.62,-101.56 1626.52,-89.09 1692.26,-74.28"/>
<polygon fill="#63b8ff" stroke="#63b8ff" points="1692.79,-77.75 1701.77,-72.13 1691.24,-70.93 1692.79,-77.75"/>
</g>
<!-- Node18 -->
<g id="node18" class="node">
<title>Node18</title>
<g id="a_node18"><a xlink:title=" ">
<polygon fill="#e0e0e0" stroke="#999999" points="1827,-74 1769,-74 1769,-55 1827,-55 1827,-74"/>
<text text-anchor="middle" x="1798" y="-62" font-family="Helvetica,sans-Serif" font-size="10.00">exception</text>
</a>
</g>
</g>
<!-- Node4&#45;&gt;Node18 -->
<g id="edge17" class="edge">
<title>Node4&#45;&gt;Node18</title>
<path fill="none" stroke="#63b8ff" d="M1521.49,-111.57C1577.5,-103.94 1669.1,-90.75 1757.29,-74.4"/>
<polygon fill="#63b8ff" stroke="#63b8ff" points="1757.91,-77.85 1767.09,-72.57 1756.62,-70.97 1757.91,-77.85"/>
</g>
<!-- Node19 -->
<g id="node19" class="node">
<title>Node19</title>
<g id="a_node19"><a xlink:href="Window_8hpp.html" target="_top" xlink:title=" ">
<polygon fill="white" stroke="#666666" points="1946.5,-74 1845.5,-74 1845.5,-55 1946.5,-55 1946.5,-74"/>
<text text-anchor="middle" x="1896" y="-62" font-family="Helvetica,sans-Serif" font-size="10.00">Engine/Window.hpp</text>
</a>
</g>
</g>
<!-- Node4&#45;&gt;Node19 -->
<g id="edge18" class="edge">
<title>Node4&#45;&gt;Node19</title>
<path fill="none" stroke="#63b8ff" d="M1521.24,-110.47C1522.5,-110.31 1523.76,-110.16 1525,-110 1659.13,-93.24 1692.96,-91.48 1827,-74 1829.28,-73.7 1831.61,-73.39 1833.97,-73.08"/>
<polygon fill="#63b8ff" stroke="#63b8ff" points="1834.21,-76.58 1843.65,-71.77 1833.27,-69.64 1834.21,-76.58"/>
</g>
<!-- Node20 -->
<g id="node20" class="node">
<title>Node20</title>
<g id="a_node20"><a xlink:href="Event_8hpp.html" target="_top" xlink:title=" ">
<polygon fill="white" stroke="#666666" points="2235,-74 2143,-74 2143,-55 2235,-55 2235,-74"/>
<text text-anchor="middle" x="2189" y="-62" font-family="Helvetica,sans-Serif" font-size="10.00">Engine/Event.hpp</text>
</a>
</g>
</g>
<!-- Node4&#45;&gt;Node20 -->
<g id="edge20" class="edge">
<title>Node4&#45;&gt;Node20</title>
<path fill="none" stroke="#63b8ff" d="M1521.23,-110.37C1522.49,-110.24 1523.75,-110.12 1525,-110 1790.94,-84.66 1859.37,-102.43 2125,-74 2127.04,-73.78 2129.11,-73.54 2131.22,-73.28"/>
<polygon fill="#63b8ff" stroke="#63b8ff" points="2131.64,-76.76 2141.1,-71.97 2130.72,-69.82 2131.64,-76.76"/>
</g>
<!-- Node24 -->
<g id="node24" class="node">
<title>Node24</title>
<g id="a_node24"><a xlink:href="Bullets_8hpp.html" target="_top" xlink:title=" ">
<polygon fill="white" stroke="#666666" points="2125,-74 2003,-74 2003,-55 2125,-55 2125,-74"/>
<text text-anchor="middle" x="2064" y="-62" font-family="Helvetica,sans-Serif" font-size="10.00">Components/Bullets.hpp</text>
</a>
</g>
</g>
<!-- Node4&#45;&gt;Node24 -->
<g id="edge26" class="edge">
<title>Node4&#45;&gt;Node24</title>
<path fill="none" stroke="#63b8ff" d="M1521.23,-110.4C1522.5,-110.27 1523.75,-110.13 1525,-110 1726.75,-88.84 1778.08,-93.42 1980,-74 1983.77,-73.64 1987.64,-73.25 1991.55,-72.84"/>
<polygon fill="#63b8ff" stroke="#63b8ff" points="1991.58,-76.36 2001.16,-71.83 1990.85,-69.4 1991.58,-76.36"/>
</g>
<!-- Node4&#45;&gt;Node27 -->
<g id="edge31" class="edge">
<title>Node4&#45;&gt;Node27</title>
<path fill="none" stroke="#63b8ff" d="M1416.61,-116.32C1294.71,-110.82 982.97,-95.39 715.57,-74.51"/>
<polygon fill="#63b8ff" stroke="#63b8ff" points="716.23,-71.05 705.98,-73.75 715.68,-78.03 716.23,-71.05"/>
</g>
<!-- Node19&#45;&gt;Node4 -->
<g id="edge19" class="edge">
<title>Node19&#45;&gt;Node4</title>
<path fill="none" stroke="#63b8ff" d="M1844.61,-74.05C1710.9,-91.48 1677,-93.25 1543,-110 1539.61,-110.42 1536.12,-110.87 1532.58,-111.31"/>
<polygon fill="#63b8ff" stroke="#63b8ff" points="1532.2,-107.84 1522.72,-112.57 1533.08,-114.78 1532.2,-107.84"/>
</g>
<!-- Node20&#45;&gt;Node4 -->
<g id="edge21" class="edge">
<title>Node20&#45;&gt;Node4</title>
<path fill="none" stroke="#63b8ff" d="M2142.61,-74.04C1877.3,-102.41 1808.81,-84.68 1543,-110 1539.6,-110.32 1536.1,-110.69 1532.56,-111.08"/>
<polygon fill="#63b8ff" stroke="#63b8ff" points="1532.21,-107.6 1522.68,-112.23 1533.02,-114.55 1532.21,-107.6"/>
</g>
<!-- Node21 -->
<g id="node21" class="node">
<title>Node21</title>
<g id="a_node21"><a xlink:title=" ">
<polygon fill="#e0e0e0" stroke="#999999" points="1246.5,-19 1217.5,-19 1217.5,0 1246.5,0 1246.5,-19"/>
<text text-anchor="middle" x="1232" y="-7" font-family="Helvetica,sans-Serif" font-size="10.00">list</text>
</a>
</g>
</g>
<!-- Node20&#45;&gt;Node21 -->
<g id="edge22" class="edge">
<title>Node20&#45;&gt;Node21</title>
<path fill="none" stroke="#63b8ff" d="M2142.53,-55.97C2139.65,-55.61 2136.79,-55.28 2134,-55 1788.9,-19.92 1366.6,-12.24 1258.29,-10.8"/>
<polygon fill="#63b8ff" stroke="#63b8ff" points="1258.48,-7.3 1248.43,-10.67 1258.39,-14.3 1258.48,-7.3"/>
</g>
<!-- Node22 -->
<g id="node22" class="node">
<title>Node22</title>
<g id="a_node22"><a xlink:title=" ">
<polygon fill="#e0e0e0" stroke="#999999" points="2398.5,-19 2355.5,-19 2355.5,0 2398.5,0 2398.5,-19"/>
<text text-anchor="middle" x="2377" y="-7" font-family="Helvetica,sans-Serif" font-size="10.00">queue</text>
</a>
</g>
</g>
<!-- Node20&#45;&gt;Node22 -->
<g id="edge23" class="edge">
<title>Node20&#45;&gt;Node22</title>
<path fill="none" stroke="#63b8ff" d="M2220.89,-54.51C2255.25,-44.82 2309.63,-29.49 2344.3,-19.72"/>
<polygon fill="#63b8ff" stroke="#63b8ff" points="2345.11,-23.13 2353.78,-17.05 2343.21,-16.39 2345.11,-23.13"/>
</g>
<!-- Node23 -->
<g id="node23" class="node">
<title>Node23</title>
<g id="a_node23"><a xlink:title=" ">
<polygon fill="#e0e0e0" stroke="#999999" points="2278,-19 2216,-19 2216,0 2278,0 2278,-19"/>
<text text-anchor="middle" x="2247" y="-7" font-family="Helvetica,sans-Serif" font-size="10.00">Skaldi.hpp</text>
</a>
</g>
</g>
<!-- Node20&#45;&gt;Node23 -->
<g id="edge24" class="edge">
<title>Node20&#45;&gt;Node23</title>
<path fill="none" stroke="#63b8ff" d="M2198.84,-54.51C2207.05,-47 2218.98,-36.1 2228.91,-27.03"/>
<polygon fill="#63b8ff" stroke="#63b8ff" points="2231.17,-29.71 2236.19,-20.38 2226.45,-24.54 2231.17,-29.71"/>
</g>
<!-- Node24&#45;&gt;Node4 -->
<g id="edge27" class="edge">
<title>Node24&#45;&gt;Node4</title>
<path fill="none" stroke="#63b8ff" d="M2002.74,-73.54C2001.15,-73.69 1999.57,-73.85 1998,-74 1796.08,-93.42 1744.75,-88.84 1543,-110 1539.6,-110.36 1536.1,-110.75 1532.57,-111.16"/>
<polygon fill="#63b8ff" stroke="#63b8ff" points="1532.21,-107.67 1522.69,-112.34 1533.04,-114.63 1532.21,-107.67"/>
</g>
<!-- Node24&#45;&gt;Node25 -->
<g id="edge28" class="edge">
<title>Node24&#45;&gt;Node25</title>
<path fill="none" stroke="#63b8ff" d="M2056.73,-54.75C2050.72,-47.5 2041.99,-36.98 2034.54,-28.02"/>
<polygon fill="#63b8ff" stroke="#63b8ff" points="2037.47,-26.07 2028.39,-20.61 2032.08,-30.54 2037.47,-26.07"/>
</g>
<!-- Node26 -->
<g id="node26" class="node">
<title>Node26</title>
<g id="a_node26"><a xlink:title=" ">
<polygon fill="#e0e0e0" stroke="#999999" points="2131,-19 2085,-19 2085,0 2131,0 2131,-19"/>
<text text-anchor="middle" x="2108" y="-7" font-family="Helvetica,sans-Serif" font-size="10.00">math.h</text>
</a>
</g>
</g>
<!-- Node24&#45;&gt;Node26 -->
<g id="edge30" class="edge">
<title>Node24&#45;&gt;Node26</title>
<path fill="none" stroke="#63b8ff" d="M2071.27,-54.75C2077.28,-47.5 2086.01,-36.98 2093.46,-28.02"/>
<polygon fill="#63b8ff" stroke="#63b8ff" points="2095.92,-30.54 2099.61,-20.61 2090.53,-26.07 2095.92,-30.54"/>
</g>
<!-- Node25&#45;&gt;Node4 -->
<g id="edge29" class="edge">
<title>Node25&#45;&gt;Node4</title>
<path fill="none" stroke="#63b8ff" d="M2014.19,-19.41C2004.24,-33.79 1982.42,-61.78 1956,-74 1870.58,-113.52 1627.57,-99.9 1534,-110 1533.62,-110.04 1533.24,-110.08 1532.85,-110.12"/>
<polygon fill="#63b8ff" stroke="#63b8ff" points="1532.52,-106.64 1522.98,-111.26 1533.32,-113.59 1532.52,-106.64"/>
</g>
<!-- Node27&#45;&gt;Node4 -->
<g id="edge32" class="edge">
<title>Node27&#45;&gt;Node4</title>
<path fill="none" stroke="#63b8ff" d="M704.32,-72.05C712,-72.75 719.67,-73.42 727,-74 978.2,-93.85 1277.31,-109.05 1405.59,-115.34"/>
<polygon fill="#63b8ff" stroke="#63b8ff" points="1405.07,-118.82 1415.23,-115.81 1405.41,-111.83 1405.07,-118.82"/>
</g>
<!-- Node28&#45;&gt;Node10 -->
<g id="edge35" class="edge">
<title>Node28&#45;&gt;Node10</title>
<path fill="none" stroke="#63b8ff" d="M167.54,-109.66C191.4,-91.39 246.43,-49.23 276.49,-26.21"/>
<polygon fill="#63b8ff" stroke="#63b8ff" points="278.29,-29.24 284.1,-20.38 274.03,-23.68 278.29,-29.24"/>
</g>
<!-- Node28&#45;&gt;Node15 -->
<g id="edge38" class="edge">
<title>Node28&#45;&gt;Node15</title>
<path fill="none" stroke="#63b8ff" d="M177.93,-109.66C224.95,-90.72 335.66,-46.1 391.13,-23.75"/>
<polygon fill="#63b8ff" stroke="#63b8ff" points="392.39,-27.01 400.36,-20.03 389.78,-20.52 392.39,-27.01"/>
</g>
<!-- Node29 -->
<g id="node29" class="node">
<title>Node29</title>
<g id="a_node29"><a xlink:title=" ">
<polygon fill="#e0e0e0" stroke="#999999" points="56,-19 0,-19 0,0 56,0 56,-19"/>
<text text-anchor="middle" x="28" y="-7" font-family="Helvetica,sans-Serif" font-size="10.00">algorithm</text>
</a>
</g>
</g>
<!-- Node28&#45;&gt;Node29 -->
<g id="edge36" class="edge">
<title>Node28&#45;&gt;Node29</title>
<path fill="none" stroke="#63b8ff" d="M128.36,-109.56C109.17,-102.31 83.93,-90.55 66,-74 52.58,-61.61 42.34,-43.39 35.89,-29.65"/>
<polygon fill="#63b8ff" stroke="#63b8ff" points="39.22,-28.51 31.99,-20.76 32.81,-31.32 39.22,-28.51"/>
</g>
<!-- Node30 -->
<g id="node30" class="node">
<title>Node30</title>
<g id="a_node30"><a xlink:title=" ">
<polygon fill="#e0e0e0" stroke="#999999" points="221,-19 183,-19 183,0 221,0 221,-19"/>
<text text-anchor="middle" x="202" y="-7" font-family="Helvetica,sans-Serif" font-size="10.00">array</text>
</a>
</g>
</g>
<!-- Node28&#45;&gt;Node30 -->
<g id="edge37" class="edge">
<title>Node28&#45;&gt;Node30</title>
<path fill="none" stroke="#63b8ff" d="M162.29,-109.67C168.28,-100.94 177.2,-87.05 183,-74 189.24,-59.96 194.14,-43.3 197.4,-30.56"/>
<polygon fill="#63b8ff" stroke="#63b8ff" points="200.8,-31.39 199.74,-20.85 193.99,-29.75 200.8,-31.39"/>
</g>
<!-- Node31 -->
<g id="node31" class="node">
<title>Node31</title>
<g id="a_node31"><a xlink:title=" ">
<polygon fill="#e0e0e0" stroke="#999999" points="124.5,-19 85.5,-19 85.5,0 124.5,0 124.5,-19"/>
<text text-anchor="middle" x="105" y="-7" font-family="Helvetica,sans-Serif" font-size="10.00">utility</text>
</a>
</g>
</g>
<!-- Node28&#45;&gt;Node31 -->
<g id="edge39" class="edge">
<title>Node28&#45;&gt;Node31</title>
<path fill="none" stroke="#63b8ff" d="M122.14,-109.56C104.17,-102.91 83.66,-91.82 73,-74 63.83,-58.68 75.23,-40.4 86.89,-27.4"/>
<polygon fill="#63b8ff" stroke="#63b8ff" points="89.22,-30.03 93.7,-20.42 84.21,-25.14 89.22,-30.03"/>
</g>
<!-- Node32 -->
<g id="node32" class="node">
<title>Node32</title>
<g id="a_node32"><a xlink:href="Vectors_8hpp.html" target="_top" xlink:title=" ">
<polygon fill="white" stroke="#666666" points="174,-74 82,-74 82,-55 174,-55 174,-74"/>
<text text-anchor="middle" x="128" y="-62" font-family="Helvetica,sans-Serif" font-size="10.00">Utils/Vectors.hpp</text>
</a>
</g>
</g>
<!-- Node28&#45;&gt;Node32 -->
<g id="edge40" class="edge">
<title>Node28&#45;&gt;Node32</title>
<path fill="none" stroke="#63b8ff" d="M151.38,-109.75C147.75,-102.88 142.57,-93.08 138.01,-84.45"/>
<polygon fill="#63b8ff" stroke="#63b8ff" points="141.2,-82.99 133.43,-75.78 135.01,-86.26 141.2,-82.99"/>
</g>
<!-- Node32&#45;&gt;Node10 -->
<g id="edge41" class="edge">
<title>Node32&#45;&gt;Node10</title>
<path fill="none" stroke="#63b8ff" d="M156.67,-54.51C184.77,-45.7 227.77,-32.21 258.77,-22.49"/>
<polygon fill="#63b8ff" stroke="#63b8ff" points="259.65,-25.88 268.15,-19.55 257.56,-19.2 259.65,-25.88"/>
</g>
<!-- Node32&#45;&gt;Node15 -->
<g id="edge44" class="edge">
<title>Node32&#45;&gt;Node15</title>
<path fill="none" stroke="#63b8ff" d="M174.25,-55.22C234.26,-44.47 337.54,-25.98 390.51,-16.5"/>
<polygon fill="#63b8ff" stroke="#63b8ff" points="390.91,-19.98 400.14,-14.77 389.68,-13.09 390.91,-19.98"/>
</g>
<!-- Node32&#45;&gt;Node29 -->
<g id="edge42" class="edge">
<title>Node32&#45;&gt;Node29</title>
<path fill="none" stroke="#63b8ff" d="M111.04,-54.51C95.64,-46.35 72.69,-34.19 54.81,-24.71"/>
<polygon fill="#63b8ff" stroke="#63b8ff" points="56.53,-21.66 46.05,-20.07 53.25,-27.84 56.53,-21.66"/>
</g>
<!-- Node32&#45;&gt;Node30 -->
<g id="edge43" class="edge">
<title>Node32&#45;&gt;Node30</title>
<path fill="none" stroke="#63b8ff" d="M140.55,-54.51C151.46,-46.7 167.5,-35.21 180.46,-25.93"/>
<polygon fill="#63b8ff" stroke="#63b8ff" points="182.31,-28.91 188.4,-20.24 178.23,-23.22 182.31,-28.91"/>
</g>
<!-- Node32&#45;&gt;Node31 -->
<g id="edge45" class="edge">
<title>Node32&#45;&gt;Node31</title>
<path fill="none" stroke="#63b8ff" d="M124.2,-54.75C121.26,-47.96 117.06,-38.3 113.35,-29.73"/>
<polygon fill="#63b8ff" stroke="#63b8ff" points="116.67,-28.61 109.48,-20.83 110.25,-31.4 116.67,-28.61"/>
</g>
<!-- Node33&#45;&gt;Node10 -->
<g id="edge47" class="edge">
<title>Node33&#45;&gt;Node10</title>
<path fill="none" stroke="#63b8ff" d="M402.46,-54.51C382.26,-46.08 351.83,-33.38 328.84,-23.79"/>
<polygon fill="#63b8ff" stroke="#63b8ff" points="330.2,-20.56 319.62,-19.94 327.5,-27.02 330.2,-20.56"/>
</g>
<!-- Node33&#45;&gt;Node15 -->
<g id="edge49" class="edge">
<title>Node33&#45;&gt;Node15</title>
<path fill="none" stroke="#63b8ff" d="M424,-54.75C424,-48.27 424,-39.16 424,-30.9"/>
<polygon fill="#63b8ff" stroke="#63b8ff" points="427.5,-30.96 424,-20.96 420.5,-30.96 427.5,-30.96"/>
</g>
<!-- Node33&#45;&gt;Node21 -->
<g id="edge48" class="edge">
<title>Node33&#45;&gt;Node21</title>
<path fill="none" stroke="#63b8ff" d="M465.84,-56.72C470.61,-56.08 475.4,-55.48 480,-55 763.47,-25.16 1109.33,-13.88 1205.88,-11.18"/>
<polygon fill="#63b8ff" stroke="#63b8ff" points="1205.7,-14.69 1215.6,-10.91 1205.51,-7.69 1205.7,-14.69"/>
</g>
<!-- Node34&#45;&gt;Node1 -->
<g id="edge51" class="edge">
<title>Node34&#45;&gt;Node1</title>
<path fill="none" stroke="#63b8ff" d="M2342.49,-184.22C2329.76,-198.33 2302.46,-225.93 2273,-239 2153.67,-291.94 1770.27,-328.92 1600.83,-343.09"/>
<polygon fill="#63b8ff" stroke="#63b8ff" points="1600.68,-339.59 1591,-343.91 1601.26,-346.57 1600.68,-339.59"/>
</g>
<!-- Node34&#45;&gt;Node22 -->
<g id="edge52" class="edge">
<title>Node34&#45;&gt;Node22</title>
<path fill="none" stroke="#63b8ff" d="M2351.45,-164.74C2355.63,-139.53 2367.75,-66.36 2373.67,-30.62"/>
<polygon fill="#63b8ff" stroke="#63b8ff" points="2377.11,-31.24 2375.29,-20.8 2370.21,-30.09 2377.11,-31.24"/>
</g>
<!-- Node35&#45;&gt;Node4 -->
<g id="edge55" class="edge">
<title>Node35&#45;&gt;Node4</title>
<path fill="none" stroke="#63b8ff" d="M1548.71,-164.51C1534.01,-156.39 1512.11,-144.3 1494.98,-134.85"/>
<polygon fill="#63b8ff" stroke="#63b8ff" points="1496.82,-131.86 1486.37,-130.09 1493.43,-137.99 1496.82,-131.86"/>
</g>
<!-- Node35&#45;&gt;Node15 -->
<g id="edge58" class="edge">
<title>Node35&#45;&gt;Node15</title>
<path fill="none" stroke="#63b8ff" d="M1496.82,-168.26C1284.13,-151.71 641.56,-100.11 551,-74 512.45,-62.88 471.59,-40.24 446.93,-25.21"/>
<polygon fill="#63b8ff" stroke="#63b8ff" points="449.04,-22.4 438.7,-20.1 445.34,-28.35 449.04,-22.4"/>
</g>
<!-- Node35&#45;&gt;Node25 -->
<g id="edge56" class="edge">
<title>Node35&#45;&gt;Node25</title>
<path fill="none" stroke="#63b8ff" d="M1633.26,-174.24C1789.45,-174.33 2165.47,-164.88 2244,-74 2249.52,-67.61 2249.36,-61.53 2244,-55 2238.67,-48.5 2142.12,-31.09 2077.54,-20.07"/>
<polygon fill="#63b8ff" stroke="#63b8ff" points="2078.21,-16.64 2067.77,-18.41 2077.04,-23.54 2078.21,-16.64"/>
</g>
<!-- Node35&#45;&gt;Node26 -->
<g id="edge57" class="edge">
<title>Node35&#45;&gt;Node26</title>
<path fill="none" stroke="#63b8ff" d="M1633.31,-172.66C1770.43,-170.31 2074.49,-161.47 2173,-129 2216.45,-114.68 2237.93,-114.07 2260,-74 2285.48,-27.75 2195.15,-15.18 2142.8,-11.77"/>
<polygon fill="#63b8ff" stroke="#63b8ff" points="2143.03,-8.28 2132.85,-11.21 2142.63,-15.27 2143.03,-8.28"/>
</g>
<!-- Node36 -->
<g id="node36" class="node">
<title>Node36</title>
<g id="a_node36"><a xlink:title=" ">
<polygon fill="#e0e0e0" stroke="#999999" points="1587,-129 1543,-129 1543,-110 1587,-110 1587,-129"/>
<text text-anchor="middle" x="1565" y="-117" font-family="Helvetica,sans-Serif" font-size="10.00">cmath</text>
</a>
</g>
</g>
<!-- Node35&#45;&gt;Node36 -->
<g id="edge59" class="edge">
<title>Node35&#45;&gt;Node36</title>
<path fill="none" stroke="#63b8ff" d="M1565,-164.75C1565,-158.27 1565,-149.16 1565,-140.9"/>
<polygon fill="#63b8ff" stroke="#63b8ff" points="1568.5,-140.96 1565,-130.96 1561.5,-140.96 1568.5,-140.96"/>
</g>
<!-- Node37&#45;&gt;Node2 -->
<g id="edge61" class="edge">
<title>Node37&#45;&gt;Node2</title>
<path fill="none" stroke="#63b8ff" d="M1448.13,-274.51C1428.58,-266.08 1399.1,-253.38 1376.83,-243.79"/>
<polygon fill="#63b8ff" stroke="#63b8ff" points="1378.52,-240.7 1367.95,-239.96 1375.75,-247.13 1378.52,-240.7"/>
</g>
<!-- Node38 -->
<g id="node38" class="node">
<title>Node38</title>
<g id="a_node38"><a xlink:href="Bouton_8hpp.html" target="_top" xlink:title=" ">
<polygon fill="white" stroke="#666666" points="1530.5,-239 1407.5,-239 1407.5,-220 1530.5,-220 1530.5,-239"/>
<text text-anchor="middle" x="1469" y="-227" font-family="Helvetica,sans-Serif" font-size="10.00">Components/Bouton.hpp</text>
</a>
</g>
</g>
<!-- Node37&#45;&gt;Node38 -->
<g id="edge62" class="edge">
<title>Node37&#45;&gt;Node38</title>
<path fill="none" stroke="#63b8ff" d="M1469,-274.75C1469,-268.27 1469,-259.16 1469,-250.9"/>
<polygon fill="#63b8ff" stroke="#63b8ff" points="1472.5,-250.96 1469,-240.96 1465.5,-250.96 1472.5,-250.96"/>
</g>
<!-- Node38&#45;&gt;Node4 -->
<g id="edge63" class="edge">
<title>Node38&#45;&gt;Node4</title>
<path fill="none" stroke="#63b8ff" d="M1469,-219.66C1469,-202.57 1469,-164.61 1469,-140.92"/>
<polygon fill="#63b8ff" stroke="#63b8ff" points="1472.5,-140.97 1469,-130.97 1465.5,-140.97 1472.5,-140.97"/>
</g>
<!-- Node39 -->
<g id="node39" class="node">
<title>Node39</title>
<g id="a_node39"><a xlink:title=" ">
<polygon fill="#e0e0e0" stroke="#999999" points="1440.5,-184 1381.5,-184 1381.5,-165 1440.5,-165 1440.5,-184"/>
<text text-anchor="middle" x="1411" y="-172" font-family="Helvetica,sans-Serif" font-size="10.00">functional</text>
</a>
</g>
</g>
<!-- Node38&#45;&gt;Node39 -->
<g id="edge64" class="edge">
<title>Node38&#45;&gt;Node39</title>
<path fill="none" stroke="#63b8ff" d="M1459.16,-219.51C1450.95,-212 1439.02,-201.1 1429.09,-192.03"/>
<polygon fill="#63b8ff" stroke="#63b8ff" points="1431.55,-189.54 1421.81,-185.38 1426.83,-194.71 1431.55,-189.54"/>
</g>
<!-- Node40&#45;&gt;Node2 -->
<g id="edge66" class="edge">
<title>Node40&#45;&gt;Node2</title>
<path fill="none" stroke="#63b8ff" d="M1531.17,-274.51C1493.57,-265.57 1435.75,-251.83 1394.73,-242.08"/>
<polygon fill="#63b8ff" stroke="#63b8ff" points="1395.65,-238.7 1385.11,-239.8 1394.03,-245.51 1395.65,-238.7"/>
</g>
<!-- Node40&#45;&gt;Node22 -->
<g id="edge67" class="edge">
<title>Node40&#45;&gt;Node22</title>
<path fill="none" stroke="#63b8ff" d="M1612.24,-282.75C1788.19,-279.12 2441,-259.97 2441,-175.5 2441,-175.5 2441,-175.5 2441,-118.5 2441,-82.02 2413.64,-47.08 2394.7,-27.26"/>
<polygon fill="#63b8ff" stroke="#63b8ff" points="2397.33,-24.94 2387.79,-20.33 2392.38,-29.88 2397.33,-24.94"/>
</g>
<!-- Node40&#45;&gt;Node23 -->
<g id="edge71" class="edge">
<title>Node40&#45;&gt;Node23</title>
<path fill="none" stroke="#63b8ff" d="M1612.12,-280.28C1719.38,-270.82 2004.58,-236.6 2213,-129 2246.03,-111.95 2260.62,-107.84 2276,-74 2283.11,-58.35 2273.44,-40.55 2263.4,-27.78"/>
<polygon fill="#63b8ff" stroke="#63b8ff" points="2266.1,-25.55 2256.91,-20.27 2260.8,-30.12 2266.1,-25.55"/>
</g>
<!-- Node40&#45;&gt;Node30 -->
<g id="edge68" class="edge">
<title>Node40&#45;&gt;Node30</title>
<path fill="none" stroke="#63b8ff" d="M1525.65,-276.82C1520.72,-276.16 1515.75,-275.53 1511,-275 1370.23,-259.19 240,-317.15 240,-175.5 240,-175.5 240,-175.5 240,-118.5 240,-85.65 224.16,-50.19 212.93,-29.19"/>
<polygon fill="#63b8ff" stroke="#63b8ff" points="216.12,-27.72 208.18,-20.69 210,-31.13 216.12,-27.72"/>
</g>
<!-- Node41 -->
<g id="node41" class="node">
<title>Node41</title>
<g id="a_node41"><a xlink:title=" ">
<polygon fill="#e0e0e0" stroke="#999999" points="1589.5,-239 1548.5,-239 1548.5,-220 1589.5,-220 1589.5,-239"/>
<text text-anchor="middle" x="1569" y="-227" font-family="Helvetica,sans-Serif" font-size="10.00">string</text>
</a>
</g>
</g>
<!-- Node40&#45;&gt;Node41 -->
<g id="edge69" class="edge">
<title>Node40&#45;&gt;Node41</title>
<path fill="none" stroke="#63b8ff" d="M1569,-274.75C1569,-268.27 1569,-259.16 1569,-250.9"/>
<polygon fill="#63b8ff" stroke="#63b8ff" points="1572.5,-250.96 1569,-240.96 1565.5,-250.96 1572.5,-250.96"/>
</g>
<!-- Node42 -->
<g id="node42" class="node">
<title>Node42</title>
<g id="a_node42"><a xlink:title=" ">
<polygon fill="#e0e0e0" stroke="#999999" points="1654,-239 1608,-239 1608,-220 1654,-220 1654,-239"/>
<text text-anchor="middle" x="1631" y="-227" font-family="Helvetica,sans-Serif" font-size="10.00">cstring</text>
</a>
</g>
</g>
<!-- Node40&#45;&gt;Node42 -->
<g id="edge70" class="edge">
<title>Node40&#45;&gt;Node42</title>
<path fill="none" stroke="#63b8ff" d="M1579.52,-274.51C1588.39,-266.93 1601.31,-255.88 1611.99,-246.75"/>
<polygon fill="#63b8ff" stroke="#63b8ff" points="1614.16,-249.5 1619.49,-240.34 1609.61,-244.18 1614.16,-249.5"/>
</g>
</g>
</svg>
