<?xml version="1.0" encoding="UTF-8" standalone="no"?>
<!DOCTYPE svg PUBLIC "-//W3C//DTD SVG 1.1//EN"
 "http://www.w3.org/Graphics/SVG/1.1/DTD/svg11.dtd">
<!-- Generated by graphviz version 7.0.5 (20221223.1930)
 -->
<!-- Title: /github/workspace/client/include/Engine/StateManager.hpp Pages: 1 -->
<svg width="1878pt" height="313pt"
 viewBox="0.00 0.00 1878.00 313.00" xmlns="http://www.w3.org/2000/svg" xmlns:xlink="http://www.w3.org/1999/xlink">
<g id="graph0" class="graph" transform="scale(1 1) rotate(0) translate(4 309)">
<title>/github/workspace/client/include/Engine/StateManager.hpp</title>
<!-- Node1 -->
<g id="node1" class="node">
<title>Node1</title>
<g id="a_node1"><a xlink:title=" ">
<polygon fill="#999999" stroke="#666666" points="1039.5,-305 875.5,-305 875.5,-275 1039.5,-275 1039.5,-305"/>
<text text-anchor="start" x="883.5" y="-293" font-family="Helvetica,sans-Serif" font-size="10.00">/github/workspace/client</text>
<text text-anchor="middle" x="957.5" y="-282" font-family="Helvetica,sans-Serif" font-size="10.00">/include/Engine/StateManager.hpp</text>
</a>
</g>
</g>
<!-- Node2 -->
<g id="node2" class="node">
<title>Node2</title>
<g id="a_node2"><a xlink:href="Engine_8hpp.html" target="_top" xlink:title=" ">
<polygon fill="white" stroke="#666666" points="967.5,-239 871.5,-239 871.5,-220 967.5,-220 967.5,-239"/>
<text text-anchor="middle" x="919.5" y="-227" font-family="Helvetica,sans-Serif" font-size="10.00">Engine/Engine.hpp</text>
</a>
</g>
</g>
<!-- Node1&#45;&gt;Node2 -->
<g id="edge1" class="edge">
<title>Node1&#45;&gt;Node2</title>
<path fill="none" stroke="#63b8ff" d="M948.11,-274.54C943.04,-266.74 936.73,-257.03 931.33,-248.71"/>
<polygon fill="#63b8ff" stroke="#63b8ff" points="934.34,-246.92 925.96,-240.44 928.47,-250.74 934.34,-246.92"/>
</g>
<!-- Node17 -->
<g id="node17" class="node">
<title>Node17</title>
<g id="a_node17"><a xlink:href="Window_8hpp.html" target="_top" xlink:title=" ">
<polygon fill="white" stroke="#666666" points="1870,-184 1769,-184 1769,-165 1870,-165 1870,-184"/>
<text text-anchor="middle" x="1819.5" y="-172" font-family="Helvetica,sans-Serif" font-size="10.00">Engine/Window.hpp</text>
</a>
</g>
</g>
<!-- Node1&#45;&gt;Node17 -->
<g id="edge45" class="edge">
<title>Node1&#45;&gt;Node17</title>
<path fill="none" stroke="#63b8ff" d="M1039.91,-278.58C1183.44,-260.37 1488.92,-221.24 1757.51,-184.4"/>
<polygon fill="#63b8ff" stroke="#63b8ff" points="1757.73,-187.9 1767.16,-183.07 1756.77,-180.97 1757.73,-187.9"/>
</g>
<!-- Node3 -->
<g id="node3" class="node">
<title>Node3</title>
<g id="a_node3"><a xlink:title=" ">
<polygon fill="#e0e0e0" stroke="#999999" points="1509,-184 1420,-184 1420,-165 1509,-165 1509,-184"/>
<text text-anchor="middle" x="1464.5" y="-172" font-family="Helvetica,sans-Serif" font-size="10.00">SFML/Audio.hpp</text>
</a>
</g>
</g>
<!-- Node2&#45;&gt;Node3 -->
<g id="edge2" class="edge">
<title>Node2&#45;&gt;Node3</title>
<path fill="none" stroke="#63b8ff" d="M967.7,-225.19C1053.87,-219.04 1240.26,-204.69 1408.44,-184.17"/>
<polygon fill="#63b8ff" stroke="#63b8ff" points="1408.74,-187.66 1418.24,-182.96 1407.89,-180.71 1408.74,-187.66"/>
</g>
<!-- Node4 -->
<g id="node4" class="node">
<title>Node4</title>
<g id="a_node4"><a xlink:title=" ">
<polygon fill="#e0e0e0" stroke="#999999" points="1631.5,-184 1527.5,-184 1527.5,-165 1631.5,-165 1631.5,-184"/>
<text text-anchor="middle" x="1579.5" y="-172" font-family="Helvetica,sans-Serif" font-size="10.00">SFML/Graphics.hpp</text>
</a>
</g>
</g>
<!-- Node2&#45;&gt;Node4 -->
<g id="edge3" class="edge">
<title>Node2&#45;&gt;Node4</title>
<path fill="none" stroke="#63b8ff" d="M967.73,-225.97C1067.84,-220.5 1305.67,-206.31 1516.02,-184.2"/>
<polygon fill="#63b8ff" stroke="#63b8ff" points="1516.2,-187.7 1525.78,-183.16 1515.47,-180.73 1516.2,-187.7"/>
</g>
<!-- Node5 -->
<g id="node5" class="node">
<title>Node5</title>
<g id="a_node5"><a xlink:title=" ">
<polygon fill="#e0e0e0" stroke="#999999" points="1751,-184 1650,-184 1650,-165 1751,-165 1751,-184"/>
<text text-anchor="middle" x="1700.5" y="-172" font-family="Helvetica,sans-Serif" font-size="10.00">SFML/Network.hpp</text>
</a>
</g>
</g>
<!-- Node2&#45;&gt;Node5 -->
<g id="edge4" class="edge">
<title>Node2&#45;&gt;Node5</title>
<path fill="none" stroke="#63b8ff" d="M967.7,-226.84C1082.12,-222.63 1379.27,-210.02 1638.64,-184.1"/>
<polygon fill="#63b8ff" stroke="#63b8ff" points="1638.69,-187.61 1648.29,-183.12 1637.99,-180.64 1638.69,-187.61"/>
</g>
<!-- Node6 -->
<g id="node6" class="node">
<title>Node6</title>
<g id="a_node6"><a xlink:title=" ">
<polygon fill="#e0e0e0" stroke="#999999" points="99,-184 0,-184 0,-165 99,-165 99,-184"/>
<text text-anchor="middle" x="49.5" y="-172" font-family="Helvetica,sans-Serif" font-size="10.00">SFML/Window.hpp</text>
</a>
</g>
</g>
<!-- Node2&#45;&gt;Node6 -->
<g id="edge5" class="edge">
<title>Node2&#45;&gt;Node6</title>
<path fill="none" stroke="#63b8ff" d="M871.4,-227.34C747.3,-224.04 406.02,-212.95 110.72,-184.12"/>
<polygon fill="#63b8ff" stroke="#63b8ff" points="111.16,-180.64 100.86,-183.15 110.47,-187.61 111.16,-180.64"/>
</g>
<!-- Node7 -->
<g id="node7" class="node">
<title>Node7</title>
<g id="a_node7"><a xlink:title=" ">
<polygon fill="#e0e0e0" stroke="#999999" points="215.5,-184 117.5,-184 117.5,-165 215.5,-165 215.5,-184"/>
<text text-anchor="middle" x="166.5" y="-172" font-family="Helvetica,sans-Serif" font-size="10.00">SFML/System.hpp</text>
</a>
</g>
</g>
<!-- Node2&#45;&gt;Node7 -->
<g id="edge6" class="edge">
<title>Node2&#45;&gt;Node7</title>
<path fill="none" stroke="#63b8ff" d="M871.31,-226.55C758.75,-221.74 469.89,-207.94 229.5,-184 228.68,-183.92 227.85,-183.83 227.01,-183.75"/>
<polygon fill="#63b8ff" stroke="#63b8ff" points="227.82,-180.32 217.49,-182.68 227.04,-187.27 227.82,-180.32"/>
</g>
<!-- Node8 -->
<g id="node8" class="node">
<title>Node8</title>
<g id="a_node8"><a xlink:title=" ">
<polygon fill="#e0e0e0" stroke="#999999" points="320.5,-19 266.5,-19 266.5,0 320.5,0 320.5,-19"/>
<text text-anchor="middle" x="293.5" y="-7" font-family="Helvetica,sans-Serif" font-size="10.00">iostream</text>
</a>
</g>
</g>
<!-- Node2&#45;&gt;Node8 -->
<g id="edge7" class="edge">
<title>Node2&#45;&gt;Node8</title>
<path fill="none" stroke="#63b8ff" d="M871.23,-228.7C730.37,-228.79 327.24,-225.39 286.5,-184 245.84,-142.7 270.2,-65.57 284.85,-29.73"/>
<polygon fill="#63b8ff" stroke="#63b8ff" points="288.02,-31.23 288.75,-20.66 281.59,-28.47 288.02,-31.23"/>
</g>
<!-- Node9 -->
<g id="node9" class="node">
<title>Node9</title>
<g id="a_node9"><a xlink:title=" ">
<polygon fill="#e0e0e0" stroke="#999999" points="695.5,-184 645.5,-184 645.5,-165 695.5,-165 695.5,-184"/>
<text text-anchor="middle" x="670.5" y="-172" font-family="Helvetica,sans-Serif" font-size="10.00">fstream</text>
</a>
</g>
</g>
<!-- Node2&#45;&gt;Node9 -->
<g id="edge8" class="edge">
<title>Node2&#45;&gt;Node9</title>
<path fill="none" stroke="#63b8ff" d="M873.67,-219.58C832.44,-211.43 769.96,-198.76 706.7,-184.43"/>
<polygon fill="#63b8ff" stroke="#63b8ff" points="707.73,-181.07 697.2,-182.26 706.17,-187.9 707.73,-181.07"/>
</g>
<!-- Node10 -->
<g id="node10" class="node">
<title>Node10</title>
<g id="a_node10"><a xlink:title=" ">
<polygon fill="#e0e0e0" stroke="#999999" points="761.5,-184 713.5,-184 713.5,-165 761.5,-165 761.5,-184"/>
<text text-anchor="middle" x="737.5" y="-172" font-family="Helvetica,sans-Serif" font-size="10.00">string.h</text>
</a>
</g>
</g>
<!-- Node2&#45;&gt;Node10 -->
<g id="edge9" class="edge">
<title>Node2&#45;&gt;Node10</title>
<path fill="none" stroke="#63b8ff" d="M888.63,-219.51C856.46,-210.14 806.16,-195.49 772.53,-185.7"/>
<polygon fill="#63b8ff" stroke="#63b8ff" points="773.85,-182.44 763.27,-183 771.89,-189.16 773.85,-182.44"/>
</g>
<!-- Node11 -->
<g id="node11" class="node">
<title>Node11</title>
<g id="a_node11"><a xlink:title=" ">
<polygon fill="#e0e0e0" stroke="#999999" points="829.5,-184 779.5,-184 779.5,-165 829.5,-165 829.5,-184"/>
<text text-anchor="middle" x="804.5" y="-172" font-family="Helvetica,sans-Serif" font-size="10.00">unistd.h</text>
</a>
</g>
</g>
<!-- Node2&#45;&gt;Node11 -->
<g id="edge10" class="edge">
<title>Node2&#45;&gt;Node11</title>
<path fill="none" stroke="#63b8ff" d="M899.99,-219.51C881.87,-211.16 854.65,-198.61 833.9,-189.05"/>
<polygon fill="#63b8ff" stroke="#63b8ff" points="835.64,-186 825.09,-184.99 832.71,-192.36 835.64,-186"/>
</g>
<!-- Node12 -->
<g id="node12" class="node">
<title>Node12</title>
<g id="a_node12"><a xlink:title=" ">
<polygon fill="#e0e0e0" stroke="#999999" points="913,-184 848,-184 848,-165 913,-165 913,-184"/>
<text text-anchor="middle" x="880.5" y="-172" font-family="Helvetica,sans-Serif" font-size="10.00">sys/types.h</text>
</a>
</g>
</g>
<!-- Node2&#45;&gt;Node12 -->
<g id="edge11" class="edge">
<title>Node2&#45;&gt;Node12</title>
<path fill="none" stroke="#63b8ff" d="M913.06,-219.75C907.84,-212.66 900.31,-202.42 893.81,-193.59"/>
<polygon fill="#63b8ff" stroke="#63b8ff" points="896.72,-191.64 887.98,-185.66 891.08,-195.79 896.72,-191.64"/>
</g>
<!-- Node13 -->
<g id="node13" class="node">
<title>Node13</title>
<g id="a_node13"><a xlink:title=" ">
<polygon fill="#e0e0e0" stroke="#999999" points="382.5,-19 338.5,-19 338.5,0 382.5,0 382.5,-19"/>
<text text-anchor="middle" x="360.5" y="-7" font-family="Helvetica,sans-Serif" font-size="10.00">vector</text>
</a>
</g>
</g>
<!-- Node2&#45;&gt;Node13 -->
<g id="edge12" class="edge">
<title>Node2&#45;&gt;Node13</title>
<path fill="none" stroke="#63b8ff" d="M871.45,-228.72C732.75,-228.84 339.13,-225.51 300.5,-184 258.22,-138.58 314.96,-61.89 344.55,-27.77"/>
<polygon fill="#63b8ff" stroke="#63b8ff" points="347.02,-30.26 351.07,-20.46 341.8,-25.6 347.02,-30.26"/>
</g>
<!-- Node14 -->
<g id="node14" class="node">
<title>Node14</title>
<g id="a_node14"><a xlink:title=" ">
<polygon fill="#e0e0e0" stroke="#999999" points="987.5,-184 931.5,-184 931.5,-165 987.5,-165 987.5,-184"/>
<text text-anchor="middle" x="959.5" y="-172" font-family="Helvetica,sans-Serif" font-size="10.00">stdbool.h</text>
</a>
</g>
</g>
<!-- Node2&#45;&gt;Node14 -->
<g id="edge13" class="edge">
<title>Node2&#45;&gt;Node14</title>
<path fill="none" stroke="#63b8ff" d="M926.11,-219.75C931.46,-212.66 939.18,-202.42 945.85,-193.59"/>
<polygon fill="#63b8ff" stroke="#63b8ff" points="948.61,-195.74 951.84,-185.65 943.02,-191.52 948.61,-195.74"/>
</g>
<!-- Node15 -->
<g id="node15" class="node">
<title>Node15</title>
<g id="a_node15"><a xlink:title=" ">
<polygon fill="#e0e0e0" stroke="#999999" points="1053,-184 1006,-184 1006,-165 1053,-165 1053,-184"/>
<text text-anchor="middle" x="1029.5" y="-172" font-family="Helvetica,sans-Serif" font-size="10.00">stdlib.h</text>
</a>
</g>
</g>
<!-- Node2&#45;&gt;Node15 -->
<g id="edge14" class="edge">
<title>Node2&#45;&gt;Node15</title>
<path fill="none" stroke="#63b8ff" d="M938.16,-219.51C955.33,-211.24 981.05,-198.84 1000.83,-189.31"/>
<polygon fill="#63b8ff" stroke="#63b8ff" points="1002.26,-192.51 1009.75,-185.01 999.22,-186.2 1002.26,-192.51"/>
</g>
<!-- Node16 -->
<g id="node16" class="node">
<title>Node16</title>
<g id="a_node16"><a xlink:title=" ">
<polygon fill="#e0e0e0" stroke="#999999" points="1129.5,-184 1071.5,-184 1071.5,-165 1129.5,-165 1129.5,-184"/>
<text text-anchor="middle" x="1100.5" y="-172" font-family="Helvetica,sans-Serif" font-size="10.00">exception</text>
</a>
</g>
</g>
<!-- Node2&#45;&gt;Node16 -->
<g id="edge15" class="edge">
<title>Node2&#45;&gt;Node16</title>
<path fill="none" stroke="#63b8ff" d="M950.2,-219.51C980.56,-210.62 1027.16,-196.97 1060.42,-187.24"/>
<polygon fill="#63b8ff" stroke="#63b8ff" points="1061.08,-190.69 1069.69,-184.52 1059.11,-183.97 1061.08,-190.69"/>
</g>
<!-- Node2&#45;&gt;Node17 -->
<g id="edge16" class="edge">
<title>Node2&#45;&gt;Node17</title>
<path fill="none" stroke="#63b8ff" d="M967.84,-227.36C1095.99,-224.14 1454.3,-213.21 1751.5,-184 1753.41,-183.81 1755.36,-183.61 1757.32,-183.39"/>
<polygon fill="#63b8ff" stroke="#63b8ff" points="1757.73,-186.86 1767.24,-182.19 1756.89,-179.91 1757.73,-186.86"/>
</g>
<!-- Node18 -->
<g id="node18" class="node">
<title>Node18</title>
<g id="a_node18"><a xlink:href="Event_8hpp.html" target="_top" xlink:title=" ">
<polygon fill="white" stroke="#666666" points="1239.5,-184 1147.5,-184 1147.5,-165 1239.5,-165 1239.5,-184"/>
<text text-anchor="middle" x="1193.5" y="-172" font-family="Helvetica,sans-Serif" font-size="10.00">Engine/Event.hpp</text>
</a>
</g>
</g>
<!-- Node2&#45;&gt;Node18 -->
<g id="edge18" class="edge">
<title>Node2&#45;&gt;Node18</title>
<path fill="none" stroke="#63b8ff" d="M960.76,-219.51C1007.44,-210.1 1083.58,-195.36 1136.04,-185.56"/>
<polygon fill="#63b8ff" stroke="#63b8ff" points="1136.5,-189.04 1145.69,-183.77 1135.22,-182.16 1136.5,-189.04"/>
</g>
<!-- Node22 -->
<g id="node22" class="node">
<title>Node22</title>
<g id="a_node22"><a xlink:href="EntitiesManager_8hpp.html" target="_top" xlink:title=" ">
<polygon fill="white" stroke="#666666" points="449.5,-184 309.5,-184 309.5,-165 449.5,-165 449.5,-184"/>
<text text-anchor="middle" x="379.5" y="-172" font-family="Helvetica,sans-Serif" font-size="10.00">Entities/EntitiesManager.hpp</text>
</a>
</g>
</g>
<!-- Node2&#45;&gt;Node22 -->
<g id="edge23" class="edge">
<title>Node2&#45;&gt;Node22</title>
<path fill="none" stroke="#63b8ff" d="M871.21,-224.35C788.5,-216.72 614.67,-199.9 460.69,-184.61"/>
<polygon fill="#63b8ff" stroke="#63b8ff" points="461.44,-181.17 451.15,-183.67 460.75,-188.14 461.44,-181.17"/>
</g>
<!-- Node29 -->
<g id="node29" class="node">
<title>Node29</title>
<g id="a_node29"><a xlink:href="Bullets_8hpp.html" target="_top" xlink:title=" ">
<polygon fill="white" stroke="#666666" points="627.5,-184 505.5,-184 505.5,-165 627.5,-165 627.5,-184"/>
<text text-anchor="middle" x="566.5" y="-172" font-family="Helvetica,sans-Serif" font-size="10.00">Components/Bullets.hpp</text>
</a>
</g>
</g>
<!-- Node2&#45;&gt;Node29 -->
<g id="edge39" class="edge">
<title>Node2&#45;&gt;Node29</title>
<path fill="none" stroke="#63b8ff" d="M871.23,-221.95C809.25,-213.01 701.64,-196.9 632.24,-186.2"/>
<polygon fill="#63b8ff" stroke="#63b8ff" points="632.94,-182.77 622.52,-184.7 631.87,-189.69 632.94,-182.77"/>
</g>
<!-- Node31 -->
<g id="node31" class="node">
<title>Node31</title>
<g id="a_node31"><a xlink:href="Background_8hpp.html" target="_top" xlink:title=" ">
<polygon fill="white" stroke="#666666" points="1401.5,-184 1257.5,-184 1257.5,-165 1401.5,-165 1401.5,-184"/>
<text text-anchor="middle" x="1329.5" y="-172" font-family="Helvetica,sans-Serif" font-size="10.00">Components/Background.hpp</text>
</a>
</g>
</g>
<!-- Node2&#45;&gt;Node31 -->
<g id="edge43" class="edge">
<title>Node2&#45;&gt;Node31</title>
<path fill="none" stroke="#63b8ff" d="M967.96,-221.63C1036.47,-212.45 1162.37,-196.15 1246.06,-185.58"/>
<polygon fill="#63b8ff" stroke="#63b8ff" points="1246.34,-189.08 1255.82,-184.35 1245.46,-182.13 1246.34,-189.08"/>
</g>
<!-- Node17&#45;&gt;Node2 -->
<g id="edge17" class="edge">
<title>Node17&#45;&gt;Node2</title>
<path fill="none" stroke="#63b8ff" d="M1768.61,-184.09C1473.33,-213.06 1118.07,-224.01 979.15,-227.3"/>
<polygon fill="#63b8ff" stroke="#63b8ff" points="979.38,-223.8 969.46,-227.53 979.54,-230.79 979.38,-223.8"/>
</g>
<!-- Node18&#45;&gt;Node2 -->
<g id="edge19" class="edge">
<title>Node18&#45;&gt;Node2</title>
<path fill="none" stroke="#63b8ff" d="M1152.19,-184.5C1106.06,-193.8 1031.2,-208.3 978.83,-218.09"/>
<polygon fill="#63b8ff" stroke="#63b8ff" points="978.37,-214.61 969.18,-219.88 979.65,-221.49 978.37,-214.61"/>
</g>
<!-- Node19 -->
<g id="node19" class="node">
<title>Node19</title>
<g id="a_node19"><a xlink:title=" ">
<polygon fill="#e0e0e0" stroke="#999999" points="1154,-129 1125,-129 1125,-110 1154,-110 1154,-129"/>
<text text-anchor="middle" x="1139.5" y="-117" font-family="Helvetica,sans-Serif" font-size="10.00">list</text>
</a>
</g>
</g>
<!-- Node18&#45;&gt;Node19 -->
<g id="edge20" class="edge">
<title>Node18&#45;&gt;Node19</title>
<path fill="none" stroke="#63b8ff" d="M1184.58,-164.75C1177.05,-157.35 1166.03,-146.54 1156.77,-137.45"/>
<polygon fill="#63b8ff" stroke="#63b8ff" points="1159.28,-135.01 1149.69,-130.5 1154.38,-140 1159.28,-135.01"/>
</g>
<!-- Node20 -->
<g id="node20" class="node">
<title>Node20</title>
<g id="a_node20"><a xlink:title=" ">
<polygon fill="#e0e0e0" stroke="#999999" points="1215,-129 1172,-129 1172,-110 1215,-110 1215,-129"/>
<text text-anchor="middle" x="1193.5" y="-117" font-family="Helvetica,sans-Serif" font-size="10.00">queue</text>
</a>
</g>
</g>
<!-- Node18&#45;&gt;Node20 -->
<g id="edge21" class="edge">
<title>Node18&#45;&gt;Node20</title>
<path fill="none" stroke="#63b8ff" d="M1193.5,-164.75C1193.5,-158.27 1193.5,-149.16 1193.5,-140.9"/>
<polygon fill="#63b8ff" stroke="#63b8ff" points="1197,-140.96 1193.5,-130.96 1190,-140.96 1197,-140.96"/>
</g>
<!-- Node21 -->
<g id="node21" class="node">
<title>Node21</title>
<g id="a_node21"><a xlink:title=" ">
<polygon fill="#e0e0e0" stroke="#999999" points="1295.5,-129 1233.5,-129 1233.5,-110 1295.5,-110 1295.5,-129"/>
<text text-anchor="middle" x="1264.5" y="-117" font-family="Helvetica,sans-Serif" font-size="10.00">Skaldi.hpp</text>
</a>
</g>
</g>
<!-- Node18&#45;&gt;Node21 -->
<g id="edge22" class="edge">
<title>Node18&#45;&gt;Node21</title>
<path fill="none" stroke="#63b8ff" d="M1205.54,-164.51C1215.91,-156.77 1231.1,-145.43 1243.47,-136.2"/>
<polygon fill="#63b8ff" stroke="#63b8ff" points="1245.5,-139.05 1251.42,-130.26 1241.31,-133.44 1245.5,-139.05"/>
</g>
<!-- Node22&#45;&gt;Node2 -->
<g id="edge24" class="edge">
<title>Node22&#45;&gt;Node2</title>
<path fill="none" stroke="#63b8ff" d="M449.9,-181.75C457.56,-182.51 465.21,-183.28 472.5,-184 611.36,-197.8 774.05,-213.59 859.8,-222.15"/>
<polygon fill="#63b8ff" stroke="#63b8ff" points="859.32,-225.62 869.62,-223.14 860.02,-218.66 859.32,-225.62"/>
</g>
<!-- Node23 -->
<g id="node23" class="node">
<title>Node23</title>
<g id="a_node23"><a xlink:href="IComponents_8hpp.html" target="_top" xlink:title=" ">
<polygon fill="white" stroke="#666666" points="611.5,-129 453.5,-129 453.5,-110 611.5,-110 611.5,-129"/>
<text text-anchor="middle" x="532.5" y="-117" font-family="Helvetica,sans-Serif" font-size="10.00">../Components/IComponents.hpp</text>
</a>
</g>
</g>
<!-- Node22&#45;&gt;Node23 -->
<g id="edge25" class="edge">
<title>Node22&#45;&gt;Node23</title>
<path fill="none" stroke="#63b8ff" d="M405.45,-164.51C430.37,-155.88 468.23,-142.76 496.14,-133.1"/>
<polygon fill="#63b8ff" stroke="#63b8ff" points="496.94,-136.52 505.24,-129.94 494.65,-129.91 496.94,-136.52"/>
</g>
<!-- Node24 -->
<g id="node24" class="node">
<title>Node24</title>
<g id="a_node24"><a xlink:href="SparseArray_8hpp.html" target="_top" xlink:title=" ">
<polygon fill="white" stroke="#666666" points="435,-129 324,-129 324,-110 435,-110 435,-129"/>
<text text-anchor="middle" x="379.5" y="-117" font-family="Helvetica,sans-Serif" font-size="10.00">Utils/SparseArray.hpp</text>
</a>
</g>
</g>
<!-- Node22&#45;&gt;Node24 -->
<g id="edge27" class="edge">
<title>Node22&#45;&gt;Node24</title>
<path fill="none" stroke="#63b8ff" d="M379.5,-164.75C379.5,-158.27 379.5,-149.16 379.5,-140.9"/>
<polygon fill="#63b8ff" stroke="#63b8ff" points="383,-140.96 379.5,-130.96 376,-140.96 383,-140.96"/>
</g>
<!-- Node23&#45;&gt;Node2 -->
<g id="edge26" class="edge">
<title>Node23&#45;&gt;Node2</title>
<path fill="none" stroke="#63b8ff" d="M520.83,-129.48C505.24,-142.54 481.24,-167.05 496.5,-184 520.36,-210.5 749.04,-222.35 859.87,-226.56"/>
<polygon fill="#63b8ff" stroke="#63b8ff" points="859.54,-230.05 869.67,-226.93 859.8,-223.06 859.54,-230.05"/>
</g>
<!-- Node24&#45;&gt;Node8 -->
<g id="edge28" class="edge">
<title>Node24&#45;&gt;Node8</title>
<path fill="none" stroke="#63b8ff" d="M372.46,-109.66C358.35,-91.94 326.36,-51.77 307.72,-28.35"/>
<polygon fill="#63b8ff" stroke="#63b8ff" points="310.55,-26.29 301.58,-20.64 305.07,-30.65 310.55,-26.29"/>
</g>
<!-- Node24&#45;&gt;Node13 -->
<g id="edge31" class="edge">
<title>Node24&#45;&gt;Node13</title>
<path fill="none" stroke="#63b8ff" d="M377.95,-109.66C374.93,-92.5 368.2,-54.26 364.04,-30.6"/>
<polygon fill="#63b8ff" stroke="#63b8ff" points="367.52,-30.19 362.34,-20.95 360.62,-31.41 367.52,-30.19"/>
</g>
<!-- Node25 -->
<g id="node25" class="node">
<title>Node25</title>
<g id="a_node25"><a xlink:title=" ">
<polygon fill="#e0e0e0" stroke="#999999" points="462.5,-19 406.5,-19 406.5,0 462.5,0 462.5,-19"/>
<text text-anchor="middle" x="434.5" y="-7" font-family="Helvetica,sans-Serif" font-size="10.00">algorithm</text>
</a>
</g>
</g>
<!-- Node24&#45;&gt;Node25 -->
<g id="edge29" class="edge">
<title>Node24&#45;&gt;Node25</title>
<path fill="none" stroke="#63b8ff" d="M432.23,-109.55C452.74,-103.21 474.22,-92.41 486.5,-74 498.23,-56.42 478.91,-37.89 460.58,-25.42"/>
<polygon fill="#63b8ff" stroke="#63b8ff" points="462.57,-22.54 452.26,-20.13 458.82,-28.45 462.57,-22.54"/>
</g>
<!-- Node26 -->
<g id="node26" class="node">
<title>Node26</title>
<g id="a_node26"><a xlink:title=" ">
<polygon fill="#e0e0e0" stroke="#999999" points="532.5,-19 494.5,-19 494.5,0 532.5,0 532.5,-19"/>
<text text-anchor="middle" x="513.5" y="-7" font-family="Helvetica,sans-Serif" font-size="10.00">array</text>
</a>
</g>
</g>
<!-- Node24&#45;&gt;Node26 -->
<g id="edge30" class="edge">
<title>Node24&#45;&gt;Node26</title>
<path fill="none" stroke="#63b8ff" d="M435.38,-111.01C459.43,-104.93 485.8,-93.93 502.5,-74 512.51,-62.05 514.89,-44.3 514.97,-30.6"/>
<polygon fill="#63b8ff" stroke="#63b8ff" points="518.48,-30.81 514.61,-20.95 511.48,-31.07 518.48,-30.81"/>
</g>
<!-- Node27 -->
<g id="node27" class="node">
<title>Node27</title>
<g id="a_node27"><a xlink:title=" ">
<polygon fill="#e0e0e0" stroke="#999999" points="597,-19 558,-19 558,0 597,0 597,-19"/>
<text text-anchor="middle" x="577.5" y="-7" font-family="Helvetica,sans-Serif" font-size="10.00">utility</text>
</a>
</g>
</g>
<!-- Node24&#45;&gt;Node27 -->
<g id="edge32" class="edge">
<title>Node24&#45;&gt;Node27</title>
<path fill="none" stroke="#63b8ff" d="M430.71,-109.52C459.1,-102.87 494.09,-91.8 521.5,-74 539.75,-62.15 555.62,-42.76 565.76,-28.53"/>
<polygon fill="#63b8ff" stroke="#63b8ff" points="568.49,-30.73 571.23,-20.5 562.71,-26.79 568.49,-30.73"/>
</g>
<!-- Node28 -->
<g id="node28" class="node">
<title>Node28</title>
<g id="a_node28"><a xlink:href="Vectors_8hpp.html" target="_top" xlink:title=" ">
<polygon fill="white" stroke="#666666" points="477.5,-74 385.5,-74 385.5,-55 477.5,-55 477.5,-74"/>
<text text-anchor="middle" x="431.5" y="-62" font-family="Helvetica,sans-Serif" font-size="10.00">Utils/Vectors.hpp</text>
</a>
</g>
</g>
<!-- Node24&#45;&gt;Node28 -->
<g id="edge33" class="edge">
<title>Node24&#45;&gt;Node28</title>
<path fill="none" stroke="#63b8ff" d="M388.09,-109.75C395.34,-102.35 405.95,-91.54 414.87,-82.45"/>
<polygon fill="#63b8ff" stroke="#63b8ff" points="417.16,-85.11 421.67,-75.52 412.16,-80.21 417.16,-85.11"/>
</g>
<!-- Node28&#45;&gt;Node8 -->
<g id="edge34" class="edge">
<title>Node28&#45;&gt;Node8</title>
<path fill="none" stroke="#63b8ff" d="M408.09,-54.51C385.85,-45.97 352.17,-33.03 327.08,-23.4"/>
<polygon fill="#63b8ff" stroke="#63b8ff" points="328.57,-20.22 317.98,-19.9 326.06,-26.75 328.57,-20.22"/>
</g>
<!-- Node28&#45;&gt;Node13 -->
<g id="edge37" class="edge">
<title>Node28&#45;&gt;Node13</title>
<path fill="none" stroke="#63b8ff" d="M419.46,-54.51C409.09,-46.77 393.9,-35.43 381.53,-26.2"/>
<polygon fill="#63b8ff" stroke="#63b8ff" points="383.69,-23.44 373.58,-20.26 379.5,-29.05 383.69,-23.44"/>
</g>
<!-- Node28&#45;&gt;Node25 -->
<g id="edge35" class="edge">
<title>Node28&#45;&gt;Node25</title>
<path fill="none" stroke="#63b8ff" d="M432,-54.75C432.36,-48.27 432.88,-39.16 433.35,-30.9"/>
<polygon fill="#63b8ff" stroke="#63b8ff" points="436.84,-31.13 433.91,-20.95 429.85,-30.74 436.84,-31.13"/>
</g>
<!-- Node28&#45;&gt;Node26 -->
<g id="edge36" class="edge">
<title>Node28&#45;&gt;Node26</title>
<path fill="none" stroke="#63b8ff" d="M445.41,-54.51C457.74,-46.54 475.97,-34.75 490.47,-25.38"/>
<polygon fill="#63b8ff" stroke="#63b8ff" points="492.03,-28.55 498.52,-20.18 488.23,-22.67 492.03,-28.55"/>
</g>
<!-- Node28&#45;&gt;Node27 -->
<g id="edge38" class="edge">
<title>Node28&#45;&gt;Node27</title>
<path fill="none" stroke="#63b8ff" d="M456.27,-54.51C481.32,-45.41 520.11,-31.33 547.03,-21.56"/>
<polygon fill="#63b8ff" stroke="#63b8ff" points="548.14,-24.88 556.35,-18.18 545.76,-18.3 548.14,-24.88"/>
</g>
<!-- Node29&#45;&gt;Node2 -->
<g id="edge40" class="edge">
<title>Node29&#45;&gt;Node2</title>
<path fill="none" stroke="#63b8ff" d="M627.9,-183.95C693.17,-193.44 795.56,-208.8 860.07,-218.77"/>
<polygon fill="#63b8ff" stroke="#63b8ff" points="859.35,-222.2 869.77,-220.28 860.43,-215.28 859.35,-222.2"/>
</g>
<!-- Node29&#45;&gt;Node23 -->
<g id="edge41" class="edge">
<title>Node29&#45;&gt;Node23</title>
<path fill="none" stroke="#63b8ff" d="M560.89,-164.75C556.38,-157.73 549.91,-147.64 544.29,-138.87"/>
<polygon fill="#63b8ff" stroke="#63b8ff" points="547.4,-137.24 539.05,-130.72 541.51,-141.02 547.4,-137.24"/>
</g>
<!-- Node30 -->
<g id="node30" class="node">
<title>Node30</title>
<g id="a_node30"><a xlink:title=" ">
<polygon fill="#e0e0e0" stroke="#999999" points="675.5,-129 629.5,-129 629.5,-110 675.5,-110 675.5,-129"/>
<text text-anchor="middle" x="652.5" y="-117" font-family="Helvetica,sans-Serif" font-size="10.00">math.h</text>
</a>
</g>
</g>
<!-- Node29&#45;&gt;Node30 -->
<g id="edge42" class="edge">
<title>Node29&#45;&gt;Node30</title>
<path fill="none" stroke="#63b8ff" d="M581.09,-164.51C594.02,-156.54 613.14,-144.75 628.35,-135.38"/>
<polygon fill="#63b8ff" stroke="#63b8ff" points="630.16,-138.38 636.84,-130.15 626.49,-132.42 630.16,-138.38"/>
</g>
<!-- Node31&#45;&gt;Node2 -->
<g id="edge44" class="edge">
<title>Node31&#45;&gt;Node2</title>
<path fill="none" stroke="#63b8ff" d="M1265.28,-184.48C1186.83,-194.9 1055.31,-211.88 979.04,-221.42"/>
<polygon fill="#63b8ff" stroke="#63b8ff" points="978.74,-217.93 969.25,-222.64 979.61,-224.88 978.74,-217.93"/>
</g>
</g>
</svg>
