<?xml version="1.0" encoding="UTF-8" standalone="no"?>
<!DOCTYPE svg PUBLIC "-//W3C//DTD SVG 1.1//EN"
 "http://www.w3.org/Graphics/SVG/1.1/DTD/svg11.dtd">
<!-- Generated by graphviz version 7.0.5 (20221223.1930)
 -->
<!-- Title: /github/workspace/client/src/StateManager.cpp Pages: 1 -->
<!--zoomable 313 -->
<svg id="main" version="1.1" xmlns="http://www.w3.org/2000/svg" xmlns:xlink="http://www.w3.org/1999/xlink" xml:space="preserve" onload="init(evt)">
<style type="text/css"><![CDATA[
.edge:hover path { stroke: red; }
.edge:hover polygon { stroke: red; fill: red; }
]]></style>
<script type="text/javascript"><![CDATA[
var edges = document.getElementsByTagName('g');
if (edges && edges.length) {
  for (var i=0;i<edges.length;i++) {
    if (edges[i].id.substr(0,4)=='edge') {
      edges[i].setAttribute('class','edge');
    }
  }
}
]]></script>
        <defs>
                <circle id="rim" cx="0" cy="0" r="7"/>
                <circle id="rim2" cx="0" cy="0" r="3.5"/>
                <g id="zoomPlus">
                        <use xlink:href="#rim" fill="#404040">
                                <set attributeName="fill" to="#808080" begin="zoomplus.mouseover" end="zoomplus.mouseout"/>
                        </use>
                        <path d="M-4,0h8M0,-4v8" fill="none" stroke="white" stroke-width="1.5" pointer-events="none"/>
                </g>
                <g id="zoomMin">
                        <use xlink:href="#rim" fill="#404040">
                                <set attributeName="fill" to="#808080" begin="zoomminus.mouseover" end="zoomminus.mouseout"/>
                        </use>
                        <path d="M-4,0h8" fill="none" stroke="white" stroke-width="1.5" pointer-events="none"/>
                </g>
                <g id="dirArrow">
                        <path fill="none" stroke="white" stroke-width="1.5" d="M0,-3.0v7 M-2.5,-0.5L0,-3.0L2.5,-0.5"/>
                </g>
               <g id="resetDef">
                       <use xlink:href="#rim2" fill="#404040">
                               <set attributeName="fill" to="#808080" begin="reset.mouseover" end="reset.mouseout"/>
                       </use>
               </g>
        </defs>

<script type="text/javascript">
var viewWidth = 2174;
var viewHeight = 313;
var sectionId = 'dynsection-0';
</script>
<script xlink:href="svgpan.js"/>
<svg id="graph" class="graph">
<g id="viewport">
<title>/github/workspace/client/src/StateManager.cpp</title>
<!-- Node1 -->
<g id="node1" class="node">
<title>Node1</title>
<g id="a_node1"><a xlink:title=" ">
<polygon fill="#999999" stroke="#666666" points="1375.5,-305 1253.5,-305 1253.5,-275 1375.5,-275 1375.5,-305"/>
<text text-anchor="start" x="1261.5" y="-293" font-family="Helvetica,sans-Serif" font-size="10.00">/github/workspace/client</text>
<text text-anchor="middle" x="1314.5" y="-282" font-family="Helvetica,sans-Serif" font-size="10.00">/src/StateManager.cpp</text>
</a>
</g>
</g>
<!-- Node2 -->
<g id="node2" class="node">
<title>Node2</title>
<g id="a_node2"><a xlink:href="StateManager_8hpp.html" target="_top" xlink:title=" ">
<polygon fill="white" stroke="#666666" points="807.5,-239 679.5,-239 679.5,-220 807.5,-220 807.5,-239"/>
<text text-anchor="middle" x="743.5" y="-227" font-family="Helvetica,sans-Serif" font-size="10.00">Engine/StateManager.hpp</text>
</a>
</g>
</g>
<!-- Node1&#45;&gt;Node2 -->
<g id="edge1" class="edge">
<title>Node1&#45;&gt;Node2</title>
<path fill="none" stroke="#63b8ff" d="M1253.12,-282.71C1147.86,-271.93 933.23,-249.94 818.98,-238.23"/>
<polygon fill="#63b8ff" stroke="#63b8ff" points="819.39,-234.76 809.08,-237.22 818.67,-241.72 819.39,-234.76"/>
</g>
<!-- Node28 -->
<g id="node28" class="node">
<title>Node28</title>
<g id="a_node28"><a xlink:href="GameEngine_8hpp.html" target="_top" xlink:title=" ">
<polygon fill="white" stroke="#666666" points="2055,-239 1930,-239 1930,-220 2055,-220 2055,-239"/>
<text text-anchor="middle" x="1992.5" y="-227" font-family="Helvetica,sans-Serif" font-size="10.00">system/GameEngine.hpp</text>
</a>
</g>
</g>
<!-- Node1&#45;&gt;Node28 -->
<g id="edge35" class="edge">
<title>Node1&#45;&gt;Node28</title>
<path fill="none" stroke="#63b8ff" d="M1375.86,-283.71C1500.66,-272.94 1783.59,-248.53 1918.4,-236.89"/>
<polygon fill="#63b8ff" stroke="#63b8ff" points="1918.63,-240.39 1928.3,-236.04 1918.03,-233.41 1918.63,-240.39"/>
</g>
<!-- Node3 -->
<g id="node3" class="node">
<title>Node3</title>
<g id="a_node3"><a xlink:href="Engine_8hpp.html" target="_top" xlink:title=" ">
<polygon fill="white" stroke="#666666" points="791.5,-184 695.5,-184 695.5,-165 791.5,-165 791.5,-184"/>
<text text-anchor="middle" x="743.5" y="-172" font-family="Helvetica,sans-Serif" font-size="10.00">Engine/Engine.hpp</text>
</a>
</g>
</g>
<!-- Node2&#45;&gt;Node3 -->
<g id="edge2" class="edge">
<title>Node2&#45;&gt;Node3</title>
<path fill="none" stroke="#63b8ff" d="M738.33,-219.75C736.92,-213.19 736.46,-203.95 736.93,-195.6"/>
<polygon fill="#63b8ff" stroke="#63b8ff" points="740.37,-196.3 738.11,-185.94 733.42,-195.45 740.37,-196.3"/>
</g>
<!-- Node18 -->
<g id="node18" class="node">
<title>Node18</title>
<g id="a_node18"><a xlink:href="Window_8hpp.html" target="_top" xlink:title=" ">
<polygon fill="white" stroke="#666666" points="101,-129 0,-129 0,-110 101,-110 101,-129"/>
<text text-anchor="middle" x="50.5" y="-117" font-family="Helvetica,sans-Serif" font-size="10.00">Engine/Window.hpp</text>
</a>
</g>
</g>
<!-- Node2&#45;&gt;Node18 -->
<g id="edge34" class="edge">
<title>Node2&#45;&gt;Node18</title>
<path fill="none" stroke="#63b8ff" d="M685.9,-219.52C556.82,-199.41 245.3,-150.86 112.33,-130.14"/>
<polygon fill="#63b8ff" stroke="#63b8ff" points="113.09,-126.71 102.67,-128.63 112.01,-133.63 113.09,-126.71"/>
</g>
<!-- Node3&#45;&gt;Node2 -->
<g id="edge26" class="edge">
<title>Node3&#45;&gt;Node2</title>
<path fill="none" stroke="#63b8ff" d="M748.71,-184.44C750.08,-190.97 750.54,-200.1 750.07,-208.35"/>
<polygon fill="#63b8ff" stroke="#63b8ff" points="746.6,-207.89 748.85,-218.25 753.55,-208.75 746.6,-207.89"/>
</g>
<!-- Node4 -->
<g id="node4" class="node">
<title>Node4</title>
<g id="a_node4"><a xlink:title=" ">
<polygon fill="#e0e0e0" stroke="#999999" points="919,-129 830,-129 830,-110 919,-110 919,-129"/>
<text text-anchor="middle" x="874.5" y="-117" font-family="Helvetica,sans-Serif" font-size="10.00">SFML/Audio.hpp</text>
</a>
</g>
</g>
<!-- Node3&#45;&gt;Node4 -->
<g id="edge3" class="edge">
<title>Node3&#45;&gt;Node4</title>
<path fill="none" stroke="#63b8ff" d="M765.72,-164.51C786.64,-156.04 818.23,-143.27 841.98,-133.66"/>
<polygon fill="#63b8ff" stroke="#63b8ff" points="843.25,-136.92 851.2,-129.93 840.62,-130.43 843.25,-136.92"/>
</g>
<!-- Node5 -->
<g id="node5" class="node">
<title>Node5</title>
<g id="a_node5"><a xlink:title=" ">
<polygon fill="#e0e0e0" stroke="#999999" points="1041.5,-129 937.5,-129 937.5,-110 1041.5,-110 1041.5,-129"/>
<text text-anchor="middle" x="989.5" y="-117" font-family="Helvetica,sans-Serif" font-size="10.00">SFML/Graphics.hpp</text>
</a>
</g>
</g>
<!-- Node3&#45;&gt;Node5 -->
<g id="edge4" class="edge">
<title>Node3&#45;&gt;Node5</title>
<path fill="none" stroke="#63b8ff" d="M785.23,-164.51C827.06,-155.5 891.58,-141.6 936.9,-131.83"/>
<polygon fill="#63b8ff" stroke="#63b8ff" points="937.46,-135.29 946.5,-129.77 935.98,-128.45 937.46,-135.29"/>
</g>
<!-- Node6 -->
<g id="node6" class="node">
<title>Node6</title>
<g id="a_node6"><a xlink:title=" ">
<polygon fill="#e0e0e0" stroke="#999999" points="1161,-129 1060,-129 1060,-110 1161,-110 1161,-129"/>
<text text-anchor="middle" x="1110.5" y="-117" font-family="Helvetica,sans-Serif" font-size="10.00">SFML/Network.hpp</text>
</a>
</g>
</g>
<!-- Node3&#45;&gt;Node6 -->
<g id="edge5" class="edge">
<title>Node3&#45;&gt;Node6</title>
<path fill="none" stroke="#63b8ff" d="M791.86,-166.52C857.81,-156.99 976.05,-139.92 1048.46,-129.46"/>
<polygon fill="#63b8ff" stroke="#63b8ff" points="1048.78,-132.95 1058.18,-128.06 1047.78,-126.02 1048.78,-132.95"/>
</g>
<!-- Node7 -->
<g id="node7" class="node">
<title>Node7</title>
<g id="a_node7"><a xlink:title=" ">
<polygon fill="#e0e0e0" stroke="#999999" points="1278,-129 1179,-129 1179,-110 1278,-110 1278,-129"/>
<text text-anchor="middle" x="1228.5" y="-117" font-family="Helvetica,sans-Serif" font-size="10.00">SFML/Window.hpp</text>
</a>
</g>
</g>
<!-- Node3&#45;&gt;Node7 -->
<g id="edge6" class="edge">
<title>Node3&#45;&gt;Node7</title>
<path fill="none" stroke="#63b8ff" d="M791.92,-169.12C869.17,-161.98 1025.31,-146.96 1167.45,-129.34"/>
<polygon fill="#63b8ff" stroke="#63b8ff" points="1167.54,-132.86 1177.03,-128.15 1166.67,-125.91 1167.54,-132.86"/>
</g>
<!-- Node8 -->
<g id="node8" class="node">
<title>Node8</title>
<g id="a_node8"><a xlink:title=" ">
<polygon fill="#e0e0e0" stroke="#999999" points="1394.5,-129 1296.5,-129 1296.5,-110 1394.5,-110 1394.5,-129"/>
<text text-anchor="middle" x="1345.5" y="-117" font-family="Helvetica,sans-Serif" font-size="10.00">SFML/System.hpp</text>
</a>
</g>
</g>
<!-- Node3&#45;&gt;Node8 -->
<g id="edge7" class="edge">
<title>Node3&#45;&gt;Node8</title>
<path fill="none" stroke="#63b8ff" d="M792,-170.58C885.32,-164.72 1096.62,-150.38 1284.94,-129.22"/>
<polygon fill="#63b8ff" stroke="#63b8ff" points="1285.12,-132.72 1294.66,-128.12 1284.33,-125.77 1285.12,-132.72"/>
</g>
<!-- Node9 -->
<g id="node9" class="node">
<title>Node9</title>
<g id="a_node9"><a xlink:title=" ">
<polygon fill="#e0e0e0" stroke="#999999" points="1466.5,-129 1412.5,-129 1412.5,-110 1466.5,-110 1466.5,-129"/>
<text text-anchor="middle" x="1439.5" y="-117" font-family="Helvetica,sans-Serif" font-size="10.00">iostream</text>
</a>
</g>
</g>
<!-- Node3&#45;&gt;Node9 -->
<g id="edge8" class="edge">
<title>Node3&#45;&gt;Node9</title>
<path fill="none" stroke="#63b8ff" d="M791.82,-172.96C899.59,-171.17 1167.82,-163.48 1401,-129.12"/>
<polygon fill="#63b8ff" stroke="#63b8ff" points="1401.2,-132.63 1410.58,-127.69 1400.17,-125.71 1401.2,-132.63"/>
</g>
<!-- Node10 -->
<g id="node10" class="node">
<title>Node10</title>
<g id="a_node10"><a xlink:title=" ">
<polygon fill="#e0e0e0" stroke="#999999" points="1534.5,-129 1484.5,-129 1484.5,-110 1534.5,-110 1534.5,-129"/>
<text text-anchor="middle" x="1509.5" y="-117" font-family="Helvetica,sans-Serif" font-size="10.00">fstream</text>
</a>
</g>
</g>
<!-- Node3&#45;&gt;Node10 -->
<g id="edge9" class="edge">
<title>Node3&#45;&gt;Node10</title>
<path fill="none" stroke="#63b8ff" d="M791.79,-173.63C907.78,-173.28 1211.3,-168.49 1473.1,-129.06"/>
<polygon fill="#63b8ff" stroke="#63b8ff" points="1473.5,-132.53 1482.86,-127.56 1472.44,-125.62 1473.5,-132.53"/>
</g>
<!-- Node11 -->
<g id="node11" class="node">
<title>Node11</title>
<g id="a_node11"><a xlink:title=" ">
<polygon fill="#e0e0e0" stroke="#999999" points="1600.5,-129 1552.5,-129 1552.5,-110 1600.5,-110 1600.5,-129"/>
<text text-anchor="middle" x="1576.5" y="-117" font-family="Helvetica,sans-Serif" font-size="10.00">string.h</text>
</a>
</g>
</g>
<!-- Node3&#45;&gt;Node11 -->
<g id="edge10" class="edge">
<title>Node3&#45;&gt;Node11</title>
<path fill="none" stroke="#63b8ff" d="M791.63,-174.1C914.96,-174.94 1252.31,-172.86 1540.99,-129.06"/>
<polygon fill="#63b8ff" stroke="#63b8ff" points="1541.26,-132.56 1550.61,-127.58 1540.19,-125.65 1541.26,-132.56"/>
</g>
<!-- Node12 -->
<g id="node12" class="node">
<title>Node12</title>
<g id="a_node12"><a xlink:title=" ">
<polygon fill="#e0e0e0" stroke="#999999" points="169.5,-129 119.5,-129 119.5,-110 169.5,-110 169.5,-129"/>
<text text-anchor="middle" x="144.5" y="-117" font-family="Helvetica,sans-Serif" font-size="10.00">unistd.h</text>
</a>
</g>
</g>
<!-- Node3&#45;&gt;Node12 -->
<g id="edge11" class="edge">
<title>Node3&#45;&gt;Node12</title>
<path fill="none" stroke="#63b8ff" d="M695.18,-172.4C598.97,-169.63 376.56,-160.3 180.73,-129.08"/>
<polygon fill="#63b8ff" stroke="#63b8ff" points="181.58,-125.67 171.15,-127.53 180.46,-132.58 181.58,-125.67"/>
</g>
<!-- Node13 -->
<g id="node13" class="node">
<title>Node13</title>
<g id="a_node13"><a xlink:title=" ">
<polygon fill="#e0e0e0" stroke="#999999" points="253,-129 188,-129 188,-110 253,-110 253,-129"/>
<text text-anchor="middle" x="220.5" y="-117" font-family="Helvetica,sans-Serif" font-size="10.00">sys/types.h</text>
</a>
</g>
</g>
<!-- Node3&#45;&gt;Node13 -->
<g id="edge12" class="edge">
<title>Node3&#45;&gt;Node13</title>
<path fill="none" stroke="#63b8ff" d="M695.03,-170.35C608.79,-164.43 423.12,-150.31 267.5,-129 266.49,-128.86 265.48,-128.72 264.45,-128.57"/>
<polygon fill="#63b8ff" stroke="#63b8ff" points="265.23,-125.15 254.81,-127.04 264.14,-132.06 265.23,-125.15"/>
</g>
<!-- Node14 -->
<g id="node14" class="node">
<title>Node14</title>
<g id="a_node14"><a xlink:title=" ">
<polygon fill="#e0e0e0" stroke="#999999" points="529.5,-19 485.5,-19 485.5,0 529.5,0 529.5,-19"/>
<text text-anchor="middle" x="507.5" y="-7" font-family="Helvetica,sans-Serif" font-size="10.00">vector</text>
</a>
</g>
</g>
<!-- Node3&#45;&gt;Node14 -->
<g id="edge13" class="edge">
<title>Node3&#45;&gt;Node14</title>
<path fill="none" stroke="#63b8ff" d="M695.37,-172.23C586.08,-168.86 326.62,-157.88 300.5,-129 244.98,-67.62 402.34,-29.85 474.01,-16.24"/>
<polygon fill="#63b8ff" stroke="#63b8ff" points="474.44,-19.72 483.64,-14.47 473.17,-12.83 474.44,-19.72"/>
</g>
<!-- Node15 -->
<g id="node15" class="node">
<title>Node15</title>
<g id="a_node15"><a xlink:title=" ">
<polygon fill="#e0e0e0" stroke="#999999" points="365.5,-129 309.5,-129 309.5,-110 365.5,-110 365.5,-129"/>
<text text-anchor="middle" x="337.5" y="-117" font-family="Helvetica,sans-Serif" font-size="10.00">stdbool.h</text>
</a>
</g>
</g>
<!-- Node3&#45;&gt;Node15 -->
<g id="edge14" class="edge">
<title>Node3&#45;&gt;Node15</title>
<path fill="none" stroke="#63b8ff" d="M695.2,-169.32C626.63,-163.02 496.92,-149.79 376.93,-129.25"/>
<polygon fill="#63b8ff" stroke="#63b8ff" points="377.66,-125.83 367.21,-127.57 376.46,-132.72 377.66,-125.83"/>
</g>
<!-- Node16 -->
<g id="node16" class="node">
<title>Node16</title>
<g id="a_node16"><a xlink:title=" ">
<polygon fill="#e0e0e0" stroke="#999999" points="431,-129 384,-129 384,-110 431,-110 431,-129"/>
<text text-anchor="middle" x="407.5" y="-117" font-family="Helvetica,sans-Serif" font-size="10.00">stdlib.h</text>
</a>
</g>
</g>
<!-- Node3&#45;&gt;Node16 -->
<g id="edge15" class="edge">
<title>Node3&#45;&gt;Node16</title>
<path fill="none" stroke="#63b8ff" d="M695.21,-168.01C637.47,-161.1 537.72,-148.04 442.51,-129.2"/>
<polygon fill="#63b8ff" stroke="#63b8ff" points="443.2,-125.77 432.71,-127.23 441.82,-132.63 443.2,-125.77"/>
</g>
<!-- Node17 -->
<g id="node17" class="node">
<title>Node17</title>
<g id="a_node17"><a xlink:title=" ">
<polygon fill="#e0e0e0" stroke="#999999" points="507.5,-129 449.5,-129 449.5,-110 507.5,-110 507.5,-129"/>
<text text-anchor="middle" x="478.5" y="-117" font-family="Helvetica,sans-Serif" font-size="10.00">exception</text>
</a>
</g>
</g>
<!-- Node3&#45;&gt;Node17 -->
<g id="edge16" class="edge">
<title>Node3&#45;&gt;Node17</title>
<path fill="none" stroke="#63b8ff" d="M696.7,-164.57C653.28,-156.22 586.57,-143.23 518.76,-129.23"/>
<polygon fill="#63b8ff" stroke="#63b8ff" points="519.86,-125.88 509.36,-127.28 518.44,-132.73 519.86,-125.88"/>
</g>
<!-- Node3&#45;&gt;Node18 -->
<g id="edge17" class="edge">
<title>Node3&#45;&gt;Node18</title>
<path fill="none" stroke="#63b8ff" d="M695.05,-171.49C589.55,-166.61 331.53,-152.86 113.18,-130.22"/>
<polygon fill="#63b8ff" stroke="#63b8ff" points="113.64,-126.75 103.33,-129.19 112.91,-133.71 113.64,-126.75"/>
</g>
<!-- Node19 -->
<g id="node19" class="node">
<title>Node19</title>
<g id="a_node19"><a xlink:href="Draw_8hpp.html" target="_top" xlink:title=" ">
<polygon fill="white" stroke="#666666" points="615,-129 526,-129 526,-110 615,-110 615,-129"/>
<text text-anchor="middle" x="570.5" y="-117" font-family="Helvetica,sans-Serif" font-size="10.00">Engine/Draw.hpp</text>
</a>
</g>
</g>
<!-- Node3&#45;&gt;Node19 -->
<g id="edge19" class="edge">
<title>Node3&#45;&gt;Node19</title>
<path fill="none" stroke="#63b8ff" d="M708.94,-164.51C678.83,-155.84 635.56,-142.65 605.37,-132.97"/>
<polygon fill="#63b8ff" stroke="#63b8ff" points="606.53,-129.66 595.93,-129.91 604.37,-136.32 606.53,-129.66"/>
</g>
<!-- Node20 -->
<g id="node20" class="node">
<title>Node20</title>
<g id="a_node20"><a xlink:href="Event_8hpp.html" target="_top" xlink:title=" ">
<polygon fill="white" stroke="#666666" points="1906.5,-129 1814.5,-129 1814.5,-110 1906.5,-110 1906.5,-129"/>
<text text-anchor="middle" x="1860.5" y="-117" font-family="Helvetica,sans-Serif" font-size="10.00">Engine/Event.hpp</text>
</a>
</g>
</g>
<!-- Node3&#45;&gt;Node20 -->
<g id="edge21" class="edge">
<title>Node3&#45;&gt;Node20</title>
<path fill="none" stroke="#63b8ff" d="M791.85,-173.37C941.59,-172.54 1410.13,-166.83 1796.5,-129 1798.54,-128.8 1800.62,-128.58 1802.72,-128.33"/>
<polygon fill="#63b8ff" stroke="#63b8ff" points="1803.13,-131.81 1812.61,-127.06 1802.24,-124.86 1803.13,-131.81"/>
</g>
<!-- Node24 -->
<g id="node24" class="node">
<title>Node24</title>
<g id="a_node24"><a xlink:href="EntitiesManager_8hpp.html" target="_top" xlink:title=" ">
<polygon fill="white" stroke="#666666" points="862.5,-74 722.5,-74 722.5,-55 862.5,-55 862.5,-74"/>
<text text-anchor="middle" x="792.5" y="-62" font-family="Helvetica,sans-Serif" font-size="10.00">Entities/EntitiesManager.hpp</text>
</a>
</g>
</g>
<!-- Node3&#45;&gt;Node24 -->
<g id="edge27" class="edge">
<title>Node3&#45;&gt;Node24</title>
<path fill="none" stroke="#63b8ff" d="M740.95,-164.67C743.04,-155.71 749.83,-141.43 755.5,-129 762.39,-113.91 769.96,-96.69 776.9,-83.99"/>
<polygon fill="#63b8ff" stroke="#63b8ff" points="779.87,-85.83 782.01,-75.46 773.87,-82.23 779.87,-85.83"/>
</g>
<!-- Node26 -->
<g id="node26" class="node">
<title>Node26</title>
<g id="a_node26"><a xlink:href="Bullets_8hpp.html" target="_top" xlink:title=" ">
<polygon fill="white" stroke="#666666" points="755.5,-129 633.5,-129 633.5,-110 755.5,-110 755.5,-129"/>
<text text-anchor="middle" x="694.5" y="-117" font-family="Helvetica,sans-Serif" font-size="10.00">Components/Bullets.hpp</text>
</a>
</g>
</g>
<!-- Node3&#45;&gt;Node26 -->
<g id="edge31" class="edge">
<title>Node3&#45;&gt;Node26</title>
<path fill="none" stroke="#63b8ff" d="M729.97,-164.51C721.81,-157.31 711.87,-146.99 704.41,-138.15"/>
<polygon fill="#63b8ff" stroke="#63b8ff" points="707.37,-136.24 698.44,-130.55 701.87,-140.57 707.37,-136.24"/>
</g>
<!-- Node18&#45;&gt;Node3 -->
<g id="edge18" class="edge">
<title>Node18&#45;&gt;Node3</title>
<path fill="none" stroke="#63b8ff" d="M101.32,-126.82C107.47,-127.62 113.64,-128.38 119.5,-129 326.36,-150.9 572.43,-164.7 683.73,-170.44"/>
<polygon fill="#63b8ff" stroke="#63b8ff" points="683.35,-173.92 693.52,-170.94 683.71,-166.93 683.35,-173.92"/>
</g>
<!-- Node19&#45;&gt;Node3 -->
<g id="edge20" class="edge">
<title>Node19&#45;&gt;Node3</title>
<path fill="none" stroke="#63b8ff" d="M604.91,-129.45C634.97,-138.1 678.24,-151.29 708.47,-160.98"/>
<polygon fill="#63b8ff" stroke="#63b8ff" points="707.34,-164.29 717.93,-164.04 709.49,-157.63 707.34,-164.29"/>
</g>
<!-- Node20&#45;&gt;Node3 -->
<g id="edge22" class="edge">
<title>Node20&#45;&gt;Node3</title>
<path fill="none" stroke="#63b8ff" d="M1814.21,-129.03C1430.45,-166.59 965.74,-172.46 803.07,-173.35"/>
<polygon fill="#63b8ff" stroke="#63b8ff" points="803.38,-169.85 793.4,-173.4 803.41,-176.85 803.38,-169.85"/>
</g>
<!-- Node21 -->
<g id="node21" class="node">
<title>Node21</title>
<g id="a_node21"><a xlink:title=" ">
<polygon fill="#e0e0e0" stroke="#999999" points="1875,-74 1846,-74 1846,-55 1875,-55 1875,-74"/>
<text text-anchor="middle" x="1860.5" y="-62" font-family="Helvetica,sans-Serif" font-size="10.00">list</text>
</a>
</g>
</g>
<!-- Node20&#45;&gt;Node21 -->
<g id="edge23" class="edge">
<title>Node20&#45;&gt;Node21</title>
<path fill="none" stroke="#63b8ff" d="M1860.5,-109.75C1860.5,-103.27 1860.5,-94.16 1860.5,-85.9"/>
<polygon fill="#63b8ff" stroke="#63b8ff" points="1864,-85.96 1860.5,-75.96 1857,-85.96 1864,-85.96"/>
</g>
<!-- Node22 -->
<g id="node22" class="node">
<title>Node22</title>
<g id="a_node22"><a xlink:title=" ">
<polygon fill="#e0e0e0" stroke="#999999" points="1956,-74 1913,-74 1913,-55 1956,-55 1956,-74"/>
<text text-anchor="middle" x="1934.5" y="-62" font-family="Helvetica,sans-Serif" font-size="10.00">queue</text>
</a>
</g>
</g>
<!-- Node20&#45;&gt;Node22 -->
<g id="edge24" class="edge">
<title>Node20&#45;&gt;Node22</title>
<path fill="none" stroke="#63b8ff" d="M1873.05,-109.51C1883.96,-101.7 1900,-90.21 1912.96,-80.93"/>
<polygon fill="#63b8ff" stroke="#63b8ff" points="1914.81,-83.91 1920.9,-75.24 1910.73,-78.22 1914.81,-83.91"/>
</g>
<!-- Node23 -->
<g id="node23" class="node">
<title>Node23</title>
<g id="a_node23"><a xlink:title=" ">
<polygon fill="#e0e0e0" stroke="#999999" points="2165.5,-74 2103.5,-74 2103.5,-55 2165.5,-55 2165.5,-74"/>
<text text-anchor="middle" x="2134.5" y="-62" font-family="Helvetica,sans-Serif" font-size="10.00">Skaldi.hpp</text>
</a>
</g>
</g>
<!-- Node20&#45;&gt;Node23 -->
<g id="edge25" class="edge">
<title>Node20&#45;&gt;Node23</title>
<path fill="none" stroke="#63b8ff" d="M1906.98,-109.51C1958.82,-99.48 2041.97,-83.4 2092.1,-73.7"/>
<polygon fill="#63b8ff" stroke="#63b8ff" points="2092.54,-77.18 2101.7,-71.85 2091.21,-70.31 2092.54,-77.18"/>
</g>
<!-- Node24&#45;&gt;Node3 -->
<g id="edge28" class="edge">
<title>Node24&#45;&gt;Node3</title>
<path fill="none" stroke="#63b8ff" d="M794.74,-74.16C792.46,-86.41 782.4,-109.49 773.5,-129 769.6,-137.55 765.17,-146.97 760.68,-154.93"/>
<polygon fill="#63b8ff" stroke="#63b8ff" points="757.72,-153.06 755.36,-163.38 763.65,-156.78 757.72,-153.06"/>
</g>
<!-- Node24&#45;&gt;Node14 -->
<g id="edge30" class="edge">
<title>Node24&#45;&gt;Node14</title>
<path fill="none" stroke="#63b8ff" d="M744.15,-54.51C686.37,-43.76 591.21,-26.07 540.97,-16.72"/>
<polygon fill="#63b8ff" stroke="#63b8ff" points="541.75,-13.31 531.28,-14.92 540.47,-20.19 541.75,-13.31"/>
</g>
<!-- Node25 -->
<g id="node25" class="node">
<title>Node25</title>
<g id="a_node25"><a xlink:title=" ">
<polygon fill="#e0e0e0" stroke="#999999" points="811.5,-19 773.5,-19 773.5,0 811.5,0 811.5,-19"/>
<text text-anchor="middle" x="792.5" y="-7" font-family="Helvetica,sans-Serif" font-size="10.00">array</text>
</a>
</g>
</g>
<!-- Node24&#45;&gt;Node25 -->
<g id="edge29" class="edge">
<title>Node24&#45;&gt;Node25</title>
<path fill="none" stroke="#63b8ff" d="M792.5,-54.75C792.5,-48.27 792.5,-39.16 792.5,-30.9"/>
<polygon fill="#63b8ff" stroke="#63b8ff" points="796,-30.96 792.5,-20.96 789,-30.96 796,-30.96"/>
</g>
<!-- Node26&#45;&gt;Node3 -->
<g id="edge32" class="edge">
<title>Node26&#45;&gt;Node3</title>
<path fill="none" stroke="#63b8ff" d="M707.97,-129.44C716.17,-136.67 726.18,-147.06 733.66,-155.93"/>
<polygon fill="#63b8ff" stroke="#63b8ff" points="730.71,-157.85 739.64,-163.56 736.22,-153.53 730.71,-157.85"/>
</g>
<!-- Node27 -->
<g id="node27" class="node">
<title>Node27</title>
<g id="a_node27"><a xlink:title=" ">
<polygon fill="#e0e0e0" stroke="#999999" points="704.5,-74 658.5,-74 658.5,-55 704.5,-55 704.5,-74"/>
<text text-anchor="middle" x="681.5" y="-62" font-family="Helvetica,sans-Serif" font-size="10.00">math.h</text>
</a>
</g>
</g>
<!-- Node26&#45;&gt;Node27 -->
<g id="edge33" class="edge">
<title>Node26&#45;&gt;Node27</title>
<path fill="none" stroke="#63b8ff" d="M692.35,-109.75C690.74,-103.19 688.48,-93.95 686.43,-85.6"/>
<polygon fill="#63b8ff" stroke="#63b8ff" points="689.84,-84.79 684.05,-75.91 683.04,-86.46 689.84,-84.79"/>
</g>
<!-- Node28&#45;&gt;Node22 -->
<g id="edge45" class="edge">
<title>Node28&#45;&gt;Node22</title>
<path fill="none" stroke="#63b8ff" d="M1982.06,-219.76C1972.97,-211.51 1960.23,-198.32 1953.5,-184 1938.4,-151.87 1934.98,-110.02 1934.39,-85.62"/>
<polygon fill="#63b8ff" stroke="#63b8ff" points="1937.89,-85.79 1934.3,-75.82 1930.89,-85.85 1937.89,-85.79"/>
</g>
<!-- Node28&#45;&gt;Node23 -->
<g id="edge44" class="edge">
<title>Node28&#45;&gt;Node23</title>
<path fill="none" stroke="#63b8ff" d="M2048.99,-219.57C2088.17,-212.08 2135.41,-200.04 2147.5,-184 2169.42,-154.9 2155.05,-109.79 2143.93,-84.44"/>
<polygon fill="#63b8ff" stroke="#63b8ff" points="2147.24,-83.26 2139.83,-75.69 2140.9,-86.23 2147.24,-83.26"/>
</g>
<!-- Node29 -->
<g id="node29" class="node">
<title>Node29</title>
<g id="a_node29"><a xlink:href="SGamePlay_8hpp.html" target="_top" xlink:title=" ">
<polygon fill="white" stroke="#666666" points="2138.5,-184 1962.5,-184 1962.5,-165 2138.5,-165 2138.5,-184"/>
<text text-anchor="middle" x="2050.5" y="-172" font-family="Helvetica,sans-Serif" font-size="10.00">system/gameStates/SGamePlay.hpp</text>
</a>
</g>
</g>
<!-- Node28&#45;&gt;Node29 -->
<g id="edge36" class="edge">
<title>Node28&#45;&gt;Node29</title>
<path fill="none" stroke="#63b8ff" d="M2002.34,-219.51C2010.55,-212 2022.48,-201.1 2032.41,-192.03"/>
<polygon fill="#63b8ff" stroke="#63b8ff" points="2034.67,-194.71 2039.69,-185.38 2029.95,-189.54 2034.67,-194.71"/>
</g>
<!-- Node29&#45;&gt;Node22 -->
<g id="edge40" class="edge">
<title>Node29&#45;&gt;Node22</title>
<path fill="none" stroke="#63b8ff" d="M2047.8,-164.68C2043.36,-151.4 2033.39,-126.09 2017.5,-110 2003.27,-95.59 1983.38,-84.7 1966.64,-77.31"/>
<polygon fill="#63b8ff" stroke="#63b8ff" points="1968.16,-74.15 1957.58,-73.53 1965.46,-80.61 1968.16,-74.15"/>
</g>
<!-- Node29&#45;&gt;Node23 -->
<g id="edge43" class="edge">
<title>Node29&#45;&gt;Node23</title>
<path fill="none" stroke="#63b8ff" d="M2070.27,-164.53C2084.77,-157 2103.89,-144.91 2115.5,-129 2124.86,-116.18 2129.65,-98.74 2132.07,-85.38"/>
<polygon fill="#63b8ff" stroke="#63b8ff" points="2135.52,-86.01 2133.53,-75.61 2128.6,-84.98 2135.52,-86.01"/>
</g>
<!-- Node30 -->
<g id="node30" class="node">
<title>Node30</title>
<g id="a_node30"><a xlink:href="IGameState_8hpp.html" target="_top" xlink:title=" ">
<polygon fill="white" stroke="#666666" points="1796,-129 1619,-129 1619,-110 1796,-110 1796,-129"/>
<text text-anchor="middle" x="1707.5" y="-117" font-family="Helvetica,sans-Serif" font-size="10.00">system/gameStates/IGameState.hpp</text>
</a>
</g>
</g>
<!-- Node29&#45;&gt;Node30 -->
<g id="edge37" class="edge">
<title>Node29&#45;&gt;Node30</title>
<path fill="none" stroke="#63b8ff" d="M1992.31,-164.51C1932.72,-155.3 1840.09,-140.99 1776.76,-131.2"/>
<polygon fill="#63b8ff" stroke="#63b8ff" points="1777.6,-127.79 1767.18,-129.72 1776.53,-134.71 1777.6,-127.79"/>
</g>
<!-- Node32 -->
<g id="node32" class="node">
<title>Node32</title>
<g id="a_node32"><a xlink:title=" ">
<polygon fill="#e0e0e0" stroke="#999999" points="2106,-129 2065,-129 2065,-110 2106,-110 2106,-129"/>
<text text-anchor="middle" x="2085.5" y="-117" font-family="Helvetica,sans-Serif" font-size="10.00">string</text>
</a>
</g>
</g>
<!-- Node29&#45;&gt;Node32 -->
<g id="edge41" class="edge">
<title>Node29&#45;&gt;Node32</title>
<path fill="none" stroke="#63b8ff" d="M2056.28,-164.75C2060.91,-157.73 2067.57,-147.64 2073.37,-138.87"/>
<polygon fill="#63b8ff" stroke="#63b8ff" points="2076.17,-140.98 2078.76,-130.71 2070.33,-137.12 2076.17,-140.98"/>
</g>
<!-- Node33 -->
<g id="node33" class="node">
<title>Node33</title>
<g id="a_node33"><a xlink:title=" ">
<polygon fill="#e0e0e0" stroke="#999999" points="2008.5,-129 1962.5,-129 1962.5,-110 2008.5,-110 2008.5,-129"/>
<text text-anchor="middle" x="1985.5" y="-117" font-family="Helvetica,sans-Serif" font-size="10.00">cstring</text>
</a>
</g>
</g>
<!-- Node29&#45;&gt;Node33 -->
<g id="edge42" class="edge">
<title>Node29&#45;&gt;Node33</title>
<path fill="none" stroke="#63b8ff" d="M2039.47,-164.51C2030.08,-156.85 2016.35,-145.66 2005.09,-136.47"/>
<polygon fill="#63b8ff" stroke="#63b8ff" points="2007.5,-133.92 1997.54,-130.31 2003.07,-139.35 2007.5,-133.92"/>
</g>
<!-- Node30&#45;&gt;Node24 -->
<g id="edge38" class="edge">
<title>Node30&#45;&gt;Node24</title>
<path fill="none" stroke="#63b8ff" d="M1618.57,-110.66C1615.51,-110.43 1612.48,-110.21 1609.5,-110 1340.38,-91 1020.89,-75.7 873.9,-69.07"/>
<polygon fill="#63b8ff" stroke="#63b8ff" points="874.42,-65.59 864.28,-68.63 874.11,-72.58 874.42,-65.59"/>
</g>
<!-- Node31 -->
<g id="node31" class="node">
<title>Node31</title>
<g id="a_node31"><a xlink:title=" ">
<polygon fill="#e0e0e0" stroke="#999999" points="1749,-74 1666,-74 1666,-55 1749,-55 1749,-74"/>
<text text-anchor="middle" x="1707.5" y="-62" font-family="Helvetica,sans-Serif" font-size="10.00">Utils/String.hpp</text>
</a>
</g>
</g>
<!-- Node30&#45;&gt;Node31 -->
<g id="edge39" class="edge">
<title>Node30&#45;&gt;Node31</title>
<path fill="none" stroke="#63b8ff" d="M1707.5,-109.75C1707.5,-103.27 1707.5,-94.16 1707.5,-85.9"/>
<polygon fill="#63b8ff" stroke="#63b8ff" points="1711,-85.96 1707.5,-75.96 1704,-85.96 1711,-85.96"/>
</g>
</g>
</svg>
        <g id="navigator" transform="translate(0 0)" fill="#404254">
                <rect fill="#f2f5e9" fill-opacity="0.5" stroke="#606060" stroke-width=".5" x="0" y="0" width="60" height="60"/>
                <use id="zoomplus" xlink:href="#zoomPlus" x="17" y="9" onmousedown="handleZoom(evt,'in')"/>
                <use id="zoomminus" xlink:href="#zoomMin" x="42" y="9" onmousedown="handleZoom(evt,'out')"/>
                <use id="reset" xlink:href="#resetDef" x="30" y="36" onmousedown="handleReset()"/>
                <g id="arrowUp" xlink:href="#dirArrow" transform="translate(30 24)" onmousedown="handlePan(0,-1)">
                  <use xlink:href="#rim" fill="#404040">
                        <set attributeName="fill" to="#808080" begin="arrowUp.mouseover" end="arrowUp.mouseout"/>
                  </use>
                  <path fill="none" stroke="white" stroke-width="1.5" d="M0,-3.0v7 M-2.5,-0.5L0,-3.0L2.5,-0.5"/>
                </g>
                <g id="arrowRight" xlink:href="#dirArrow" transform="rotate(90) translate(36 -43)" onmousedown="handlePan(1,0)">
                  <use xlink:href="#rim" fill="#404040">
                        <set attributeName="fill" to="#808080" begin="arrowRight.mouseover" end="arrowRight.mouseout"/>
                  </use>
                  <path fill="none" stroke="white" stroke-width="1.5" d="M0,-3.0v7 M-2.5,-0.5L0,-3.0L2.5,-0.5"/>
                </g>
                <g id="arrowDown" xlink:href="#dirArrow" transform="rotate(180) translate(-30 -48)" onmousedown="handlePan(0,1)">
                  <use xlink:href="#rim" fill="#404040">
                        <set attributeName="fill" to="#808080" begin="arrowDown.mouseover" end="arrowDown.mouseout"/>
                  </use>
                  <path fill="none" stroke="white" stroke-width="1.5" d="M0,-3.0v7 M-2.5,-0.5L0,-3.0L2.5,-0.5"/>
                </g>
                <g id="arrowLeft" xlink:href="#dirArrow" transform="rotate(270) translate(-36 17)" onmousedown="handlePan(-1,0)">
                  <use xlink:href="#rim" fill="#404040">
                        <set attributeName="fill" to="#808080" begin="arrowLeft.mouseover" end="arrowLeft.mouseout"/>
                  </use>
                  <path fill="none" stroke="white" stroke-width="1.5" d="M0,-3.0v7 M-2.5,-0.5L0,-3.0L2.5,-0.5"/>
                </g>
        </g>
        <svg viewBox="0 0 15 15" width="100%" height="30px" preserveAspectRatio="xMaxYMin meet">
         <g id="arrow_out" transform="scale(0.3 0.3)">
          <a xlink:href="StateManager_8cpp__incl_org.svg" target="_base">
           <rect id="button" ry="5" rx="5" y="6" x="6" height="38" width="38"
                fill="#f2f5e9" fill-opacity="0.5" stroke="#606060" stroke-width="1.0"/>
           <path id="arrow"
             d="M 11.500037,31.436501 C 11.940474,20.09759 22.043105,11.32322 32.158766,21.979434 L 37.068811,17.246167 C 37.068811,17.246167 37.088388,32 37.088388,32 L 22.160133,31.978069 C 22.160133,31.978069 26.997745,27.140456 26.997745,27.140456 C 18.528582,18.264221 13.291696,25.230495 11.500037,31.436501 z"
             style="fill:#404040;"/>
          </a>
         </g>
        </svg>
</svg>
