<?xml version="1.0" encoding="UTF-8" standalone="no"?>
<!DOCTYPE svg PUBLIC "-//W3C//DTD SVG 1.1//EN"
 "http://www.w3.org/Graphics/SVG/1.1/DTD/svg11.dtd">
<!-- Generated by graphviz version 7.0.5 (20221223.1930)
 -->
<!-- Title: /github/workspace/client/include/Engine/StateManager.hpp Pages: 1 -->
<svg width="2135pt" height="456pt"
 viewBox="0.00 0.00 2135.00 456.00" xmlns="http://www.w3.org/2000/svg" xmlns:xlink="http://www.w3.org/1999/xlink">
<g id="graph0" class="graph" transform="scale(1 1) rotate(0) translate(4 452)">
<title>/github/workspace/client/include/Engine/StateManager.hpp</title>
<!-- Node1 -->
<g id="node1" class="node">
<title>Node1</title>
<g id="a_node1"><a xlink:title=" ">
<polygon fill="#999999" stroke="#666666" points="1413,-448 1249,-448 1249,-418 1413,-418 1413,-448"/>
<text text-anchor="start" x="1257" y="-436" font-family="Helvetica,sans-Serif" font-size="10.00">/github/workspace/client</text>
<text text-anchor="middle" x="1331" y="-425" font-family="Helvetica,sans-Serif" font-size="10.00">/include/Engine/StateManager.hpp</text>
</a>
</g>
</g>
<!-- Node2 -->
<g id="node2" class="node">
<title>Node2</title>
<g id="a_node2"><a xlink:href="Engine_8hpp.html" target="_top" xlink:title=" ">
<polygon fill="white" stroke="#666666" points="1397.5,-382 1264.5,-382 1264.5,-352 1397.5,-352 1397.5,-382"/>
<text text-anchor="start" x="1272.5" y="-370" font-family="Helvetica,sans-Serif" font-size="10.00">/github/workspace/client</text>
<text text-anchor="middle" x="1331" y="-359" font-family="Helvetica,sans-Serif" font-size="10.00">/include/Engine/Engine.hpp</text>
</a>
</g>
</g>
<!-- Node1&#45;&gt;Node2 -->
<g id="edge1" class="edge">
<title>Node1&#45;&gt;Node2</title>
<path fill="none" stroke="#63b8ff" d="M1324.37,-406.39C1324.05,-398.13 1324.36,-389.28 1325.29,-382.16"/>
<polygon fill="#63b8ff" stroke="#63b8ff" points="1320.88,-406.6 1325.16,-416.29 1327.85,-406.04 1320.88,-406.6"/>
</g>
<!-- Node25 -->
<g id="node25" class="node">
<title>Node25</title>
<g id="a_node25"><a xlink:href="StateManager_8cpp.html" target="_top" xlink:title=" ">
<polygon fill="white" stroke="#666666" points="569,-30 447,-30 447,0 569,0 569,-30"/>
<text text-anchor="start" x="455" y="-18" font-family="Helvetica,sans-Serif" font-size="10.00">/github/workspace/client</text>
<text text-anchor="middle" x="508" y="-7" font-family="Helvetica,sans-Serif" font-size="10.00">/src/StateManager.cpp</text>
</a>
</g>
</g>
<!-- Node1&#45;&gt;Node25 -->
<g id="edge47" class="edge">
<title>Node1&#45;&gt;Node25</title>
<path fill="none" stroke="#63b8ff" d="M1237.37,-432.67C934.37,-433.63 0,-426.5 0,-302 0,-302 0,-302 0,-151.5 0,-59.99 311.61,-28.71 446.72,-19.44"/>
<polygon fill="#63b8ff" stroke="#63b8ff" points="1237.24,-436.18 1247.23,-432.64 1237.22,-429.18 1237.24,-436.18"/>
</g>
<!-- Node2&#45;&gt;Node1 -->
<g id="edge21" class="edge">
<title>Node2&#45;&gt;Node1</title>
<path fill="none" stroke="#63b8ff" d="M1337.63,-393.56C1337.95,-401.82 1337.64,-410.67 1336.72,-417.8"/>
<polygon fill="#63b8ff" stroke="#63b8ff" points="1341.12,-393.36 1336.84,-383.67 1334.14,-393.92 1341.12,-393.36"/>
</g>
<!-- Node3 -->
<g id="node3" class="node">
<title>Node3</title>
<g id="a_node3"><a xlink:href="Bonus_8hpp.html" target="_top" xlink:title=" ">
<polygon fill="white" stroke="#666666" points="401.5,-244.5 244.5,-244.5 244.5,-214.5 401.5,-214.5 401.5,-244.5"/>
<text text-anchor="start" x="252.5" y="-232.5" font-family="Helvetica,sans-Serif" font-size="10.00">/github/workspace/client</text>
<text text-anchor="middle" x="323" y="-221.5" font-family="Helvetica,sans-Serif" font-size="10.00">/include/Components/Bonus.hpp</text>
</a>
</g>
</g>
<!-- Node2&#45;&gt;Node3 -->
<g id="edge2" class="edge">
<title>Node2&#45;&gt;Node3</title>
<path fill="none" stroke="#63b8ff" d="M1252.71,-365.85C1070.22,-364.79 621.17,-357.87 477,-316 424.43,-300.73 370.09,-265.01 342.15,-244.91"/>
<polygon fill="#63b8ff" stroke="#63b8ff" points="1252.55,-369.35 1262.56,-365.9 1252.58,-362.35 1252.55,-369.35"/>
</g>
<!-- Node4 -->
<g id="node4" class="node">
<title>Node4</title>
<g id="a_node4"><a xlink:href="include_8hpp.html" target="_top" xlink:title=" ">
<polygon fill="white" stroke="#666666" points="491,-167.5 369,-167.5 369,-137.5 491,-137.5 491,-167.5"/>
<text text-anchor="start" x="377" y="-155.5" font-family="Helvetica,sans-Serif" font-size="10.00">/github/workspace/client</text>
<text text-anchor="middle" x="430" y="-144.5" font-family="Helvetica,sans-Serif" font-size="10.00">/include/include.hpp</text>
</a>
</g>
</g>
<!-- Node2&#45;&gt;Node4 -->
<g id="edge44" class="edge">
<title>Node2&#45;&gt;Node4</title>
<path fill="none" stroke="#63b8ff" d="M1252.88,-364.9C1060.42,-361.68 567.51,-350.25 407,-316 326.92,-298.91 281.38,-317.48 235,-250 198.25,-196.54 298.58,-171.38 368.6,-160.6"/>
<polygon fill="#63b8ff" stroke="#63b8ff" points="1252.72,-368.4 1262.78,-365.06 1252.83,-361.4 1252.72,-368.4"/>
</g>
<!-- Node5 -->
<g id="node5" class="node">
<title>Node5</title>
<g id="a_node5"><a xlink:href="Bullets_8hpp.html" target="_top" xlink:title=" ">
<polygon fill="white" stroke="#666666" points="187.5,-316 28.5,-316 28.5,-286 187.5,-286 187.5,-316"/>
<text text-anchor="start" x="36.5" y="-304" font-family="Helvetica,sans-Serif" font-size="10.00">/github/workspace/client</text>
<text text-anchor="middle" x="108" y="-293" font-family="Helvetica,sans-Serif" font-size="10.00">/include/Components/Bullets.hpp</text>
</a>
</g>
</g>
<!-- Node2&#45;&gt;Node5 -->
<g id="edge4" class="edge">
<title>Node2&#45;&gt;Node5</title>
<path fill="none" stroke="#63b8ff" d="M1252.72,-365.37C1067.74,-363.27 589.73,-354.22 193,-316 191.28,-315.83 189.53,-315.66 187.78,-315.47"/>
<polygon fill="#63b8ff" stroke="#63b8ff" points="1252.66,-368.87 1262.7,-365.48 1252.74,-361.87 1252.66,-368.87"/>
</g>
<!-- Node7 -->
<g id="node7" class="node">
<title>Node7</title>
<g id="a_node7"><a xlink:href="Audio_8hpp.html" target="_top" xlink:title=" ">
<polygon fill="white" stroke="#666666" points="1027,-316 899,-316 899,-286 1027,-286 1027,-316"/>
<text text-anchor="start" x="907" y="-304" font-family="Helvetica,sans-Serif" font-size="10.00">/github/workspace/client</text>
<text text-anchor="middle" x="963" y="-293" font-family="Helvetica,sans-Serif" font-size="10.00">/include/Engine/Audio.hpp</text>
</a>
</g>
</g>
<!-- Node2&#45;&gt;Node7 -->
<g id="edge8" class="edge">
<title>Node2&#45;&gt;Node7</title>
<path fill="none" stroke="#63b8ff" d="M1252.95,-353.24C1193.44,-343.4 1109.48,-329.27 1036,-316 1033.21,-315.5 1030.35,-314.97 1027.47,-314.44"/>
<polygon fill="#63b8ff" stroke="#63b8ff" points="1252.22,-356.67 1262.65,-354.84 1253.36,-349.76 1252.22,-356.67"/>
</g>
<!-- Node8 -->
<g id="node8" class="node">
<title>Node8</title>
<g id="a_node8"><a xlink:href="Destroy_8hpp.html" target="_top" xlink:title=" ">
<polygon fill="white" stroke="#666666" points="1324.5,-316 1187.5,-316 1187.5,-286 1324.5,-286 1324.5,-316"/>
<text text-anchor="start" x="1195.5" y="-304" font-family="Helvetica,sans-Serif" font-size="10.00">/github/workspace/client</text>
<text text-anchor="middle" x="1256" y="-293" font-family="Helvetica,sans-Serif" font-size="10.00">/include/Engine/Destroy.hpp</text>
</a>
</g>
</g>
<!-- Node2&#45;&gt;Node8 -->
<g id="edge9" class="edge">
<title>Node2&#45;&gt;Node8</title>
<path fill="none" stroke="#63b8ff" d="M1305.71,-344.42C1294.89,-335.18 1282.54,-324.65 1272.86,-316.39"/>
<polygon fill="#63b8ff" stroke="#63b8ff" points="1303.32,-346.99 1313.2,-350.81 1307.87,-341.66 1303.32,-346.99"/>
</g>
<!-- Node10 -->
<g id="node10" class="node">
<title>Node10</title>
<g id="a_node10"><a xlink:href="Draw_8hpp.html" target="_top" xlink:title=" ">
<polygon fill="white" stroke="#666666" points="1469,-316 1343,-316 1343,-286 1469,-286 1469,-316"/>
<text text-anchor="start" x="1351" y="-304" font-family="Helvetica,sans-Serif" font-size="10.00">/github/workspace/client</text>
<text text-anchor="middle" x="1406" y="-293" font-family="Helvetica,sans-Serif" font-size="10.00">/include/Engine/Draw.hpp</text>
</a>
</g>
</g>
<!-- Node2&#45;&gt;Node10 -->
<g id="edge11" class="edge">
<title>Node2&#45;&gt;Node10</title>
<path fill="none" stroke="#63b8ff" d="M1350.17,-344.14C1360.34,-334.97 1372.77,-324.56 1383.4,-316.39"/>
<polygon fill="#63b8ff" stroke="#63b8ff" points="1347.99,-341.4 1343.03,-350.77 1352.75,-346.53 1347.99,-341.4"/>
</g>
<!-- Node12 -->
<g id="node12" class="node">
<title>Node12</title>
<g id="a_node12"><a xlink:href="Error_8hpp.html" target="_top" xlink:title=" ">
<polygon fill="white" stroke="#666666" points="1169,-316 1045,-316 1045,-286 1169,-286 1169,-316"/>
<text text-anchor="start" x="1053" y="-304" font-family="Helvetica,sans-Serif" font-size="10.00">/github/workspace/client</text>
<text text-anchor="middle" x="1107" y="-293" font-family="Helvetica,sans-Serif" font-size="10.00">/include/Engine/Error.hpp</text>
</a>
</g>
</g>
<!-- Node2&#45;&gt;Node12 -->
<g id="edge14" class="edge">
<title>Node2&#45;&gt;Node12</title>
<path fill="none" stroke="#63b8ff" d="M1269.79,-348.51C1234.49,-338.43 1190.65,-325.9 1157.37,-316.39"/>
<polygon fill="#63b8ff" stroke="#63b8ff" points="1268.42,-351.76 1279,-351.14 1270.34,-345.03 1268.42,-351.76"/>
</g>
<!-- Node14 -->
<g id="node14" class="node">
<title>Node14</title>
<g id="a_node14"><a xlink:href="client_2src_2main_8cpp.html" target="_top" xlink:title=" ">
<polygon fill="white" stroke="#666666" points="1198,-30 1076,-30 1076,0 1198,0 1198,-30"/>
<text text-anchor="start" x="1084" y="-18" font-family="Helvetica,sans-Serif" font-size="10.00">/github/workspace/client</text>
<text text-anchor="middle" x="1137" y="-7" font-family="Helvetica,sans-Serif" font-size="10.00">/src/main.cpp</text>
</a>
</g>
</g>
<!-- Node2&#45;&gt;Node14 -->
<g id="edge46" class="edge">
<title>Node2&#45;&gt;Node14</title>
<path fill="none" stroke="#63b8ff" d="M1409.26,-361.47C1565.16,-352.17 1901.35,-330.54 1922,-316 1956.15,-291.95 1961,-272.27 1961,-230.5 1961,-230.5 1961,-230.5 1961,-151.5 1961,-74.21 1389.22,-31.66 1198.26,-19.61"/>
<polygon fill="#63b8ff" stroke="#63b8ff" points="1409.19,-357.97 1399.42,-362.06 1409.61,-364.96 1409.19,-357.97"/>
</g>
<!-- Node15 -->
<g id="node15" class="node">
<title>Node15</title>
<g id="a_node15"><a xlink:href="Event_8hpp.html" target="_top" xlink:title=" ">
<polygon fill="white" stroke="#666666" points="1615,-316 1487,-316 1487,-286 1615,-286 1615,-316"/>
<text text-anchor="start" x="1495" y="-304" font-family="Helvetica,sans-Serif" font-size="10.00">/github/workspace/client</text>
<text text-anchor="middle" x="1551" y="-293" font-family="Helvetica,sans-Serif" font-size="10.00">/include/Engine/Event.hpp</text>
</a>
</g>
</g>
<!-- Node2&#45;&gt;Node15 -->
<g id="edge17" class="edge">
<title>Node2&#45;&gt;Node15</title>
<path fill="none" stroke="#63b8ff" d="M1385.9,-348.25C1419.45,-338.21 1462.17,-325.82 1495.79,-316.39"/>
<polygon fill="#63b8ff" stroke="#63b8ff" points="1384.91,-344.89 1376.35,-351.12 1386.93,-351.6 1384.91,-344.89"/>
</g>
<!-- Node16 -->
<g id="node16" class="node">
<title>Node16</title>
<g id="a_node16"><a xlink:href="Event_8cpp.html" target="_top" xlink:title=" ">
<polygon fill="white" stroke="#666666" points="1867,-244.5 1745,-244.5 1745,-214.5 1867,-214.5 1867,-244.5"/>
<text text-anchor="start" x="1753" y="-232.5" font-family="Helvetica,sans-Serif" font-size="10.00">/github/workspace/client</text>
<text text-anchor="middle" x="1806" y="-221.5" font-family="Helvetica,sans-Serif" font-size="10.00">/src/Event.cpp</text>
</a>
</g>
</g>
<!-- Node2&#45;&gt;Node16 -->
<g id="edge45" class="edge">
<title>Node2&#45;&gt;Node16</title>
<path fill="none" stroke="#63b8ff" d="M1409.07,-364.92C1558.08,-362.04 1871.22,-351.76 1904,-316 1929.1,-288.62 1881.47,-261.12 1844.23,-244.97"/>
<polygon fill="#63b8ff" stroke="#63b8ff" points="1409.21,-361.42 1399.28,-365.1 1409.34,-368.41 1409.21,-361.42"/>
</g>
<!-- Node17 -->
<g id="node17" class="node">
<title>Node17</title>
<g id="a_node17"><a xlink:href="Map_8hpp.html" target="_top" xlink:title=" ">
<polygon fill="white" stroke="#666666" points="1755,-316 1633,-316 1633,-286 1755,-286 1755,-316"/>
<text text-anchor="start" x="1641" y="-304" font-family="Helvetica,sans-Serif" font-size="10.00">/github/workspace/client</text>
<text text-anchor="middle" x="1694" y="-293" font-family="Helvetica,sans-Serif" font-size="10.00">/include/Engine/Map.hpp</text>
</a>
</g>
</g>
<!-- Node2&#45;&gt;Node17 -->
<g id="edge20" class="edge">
<title>Node2&#45;&gt;Node17</title>
<path fill="none" stroke="#63b8ff" d="M1408.83,-353.34C1467.94,-343.57 1551.19,-329.49 1624,-316 1626.8,-315.48 1629.67,-314.94 1632.56,-314.39"/>
<polygon fill="#63b8ff" stroke="#63b8ff" points="1408.51,-349.84 1399.21,-354.92 1409.65,-356.75 1408.51,-349.84"/>
</g>
<!-- Node18 -->
<g id="node18" class="node">
<title>Node18</title>
<g id="a_node18"><a xlink:href="Text_8hpp.html" target="_top" xlink:title=" ">
<polygon fill="white" stroke="#666666" points="1895,-316 1773,-316 1773,-286 1895,-286 1895,-316"/>
<text text-anchor="start" x="1781" y="-304" font-family="Helvetica,sans-Serif" font-size="10.00">/github/workspace/client</text>
<text text-anchor="middle" x="1834" y="-293" font-family="Helvetica,sans-Serif" font-size="10.00">/include/Engine/Text.hpp</text>
</a>
</g>
</g>
<!-- Node2&#45;&gt;Node18 -->
<g id="edge22" class="edge">
<title>Node2&#45;&gt;Node18</title>
<path fill="none" stroke="#63b8ff" d="M1409.35,-358.91C1496.28,-350.59 1640.59,-335.43 1764,-316 1766.82,-315.56 1769.69,-315.08 1772.59,-314.58"/>
<polygon fill="#63b8ff" stroke="#63b8ff" points="1409.12,-355.42 1399.5,-359.85 1409.78,-362.39 1409.12,-355.42"/>
</g>
<!-- Node19 -->
<g id="node19" class="node">
<title>Node19</title>
<g id="a_node19"><a xlink:href="Window_8hpp.html" target="_top" xlink:title=" ">
<polygon fill="white" stroke="#666666" points="2127,-316 1989,-316 1989,-286 2127,-286 2127,-316"/>
<text text-anchor="start" x="1997" y="-304" font-family="Helvetica,sans-Serif" font-size="10.00">/github/workspace/client</text>
<text text-anchor="middle" x="2058" y="-293" font-family="Helvetica,sans-Serif" font-size="10.00">/include/Engine/Window.hpp</text>
</a>
</g>
</g>
<!-- Node2&#45;&gt;Node19 -->
<g id="edge23" class="edge">
<title>Node2&#45;&gt;Node19</title>
<path fill="none" stroke="#63b8ff" d="M1408.84,-361.9C1528.8,-355.33 1765.71,-340.62 1966,-316 1973.4,-315.09 1981.14,-313.99 1988.87,-312.81"/>
<polygon fill="#63b8ff" stroke="#63b8ff" points="1408.91,-358.39 1399.11,-362.43 1409.29,-365.38 1408.91,-358.39"/>
</g>
<!-- Node21 -->
<g id="node21" class="node">
<title>Node21</title>
<g id="a_node21"><a xlink:href="EntitiesManager_8hpp.html" target="_top" xlink:title=" ">
<polygon fill="white" stroke="#666666" points="881,-316 705,-316 705,-286 881,-286 881,-316"/>
<text text-anchor="start" x="713" y="-304" font-family="Helvetica,sans-Serif" font-size="10.00">/github/workspace/client</text>
<text text-anchor="middle" x="793" y="-293" font-family="Helvetica,sans-Serif" font-size="10.00">/include/Entities/EntitiesManager.hpp</text>
</a>
</g>
</g>
<!-- Node2&#45;&gt;Node21 -->
<g id="edge27" class="edge">
<title>Node2&#45;&gt;Node21</title>
<path fill="none" stroke="#63b8ff" d="M1253.11,-358.57C1163.26,-349.35 1011.4,-332.79 881.4,-316.05"/>
<polygon fill="#63b8ff" stroke="#63b8ff" points="1252.49,-362.02 1262.79,-359.55 1253.2,-355.06 1252.49,-362.02"/>
</g>
<!-- Node27 -->
<g id="node27" class="node">
<title>Node27</title>
<g id="a_node27"><a xlink:href="Properties_8hpp.html" target="_top" xlink:title=" ">
<polygon fill="white" stroke="#666666" points="637.5,-316 486.5,-316 486.5,-286 637.5,-286 637.5,-316"/>
<text text-anchor="start" x="494.5" y="-304" font-family="Helvetica,sans-Serif" font-size="10.00">/github/workspace/client</text>
<text text-anchor="middle" x="562" y="-293" font-family="Helvetica,sans-Serif" font-size="10.00">/include/Entities/Properties.hpp</text>
</a>
</g>
</g>
<!-- Node2&#45;&gt;Node27 -->
<g id="edge37" class="edge">
<title>Node2&#45;&gt;Node27</title>
<path fill="none" stroke="#63b8ff" d="M1252.99,-360.5C1133.14,-351.91 896.56,-334.37 696,-316 677.13,-314.27 656.79,-312.24 637.79,-310.26"/>
<polygon fill="#63b8ff" stroke="#63b8ff" points="1252.48,-363.97 1262.7,-361.2 1252.98,-356.99 1252.48,-363.97"/>
</g>
<!-- Node3&#45;&gt;Node4 -->
<g id="edge3" class="edge">
<title>Node3&#45;&gt;Node4</title>
<path fill="none" stroke="#63b8ff" d="M352.6,-207.75C370.67,-195.09 393.31,-179.21 409.43,-167.92"/>
<polygon fill="#63b8ff" stroke="#63b8ff" points="351.05,-204.56 344.87,-213.17 355.07,-210.3 351.05,-204.56"/>
</g>
<!-- Node5&#45;&gt;Node2 -->
<g id="edge5" class="edge">
<title>Node5&#45;&gt;Node2</title>
<path fill="none" stroke="#63b8ff" d="M199.23,-314.75C203.21,-315.21 207.15,-315.63 211,-316 609.65,-354.41 1090.37,-363.36 1264.26,-365.4"/>
<polygon fill="#63b8ff" stroke="#63b8ff" points="199.79,-311.29 189.44,-313.55 198.94,-318.24 199.79,-311.29"/>
</g>
<!-- Node5&#45;&gt;Node4 -->
<g id="edge6" class="edge">
<title>Node5&#45;&gt;Node4</title>
<path fill="none" stroke="#63b8ff" d="M130.87,-277.58C158,-251.02 199.86,-210.18 202,-209 254.08,-180.28 320.92,-166.26 368.74,-159.53"/>
<polygon fill="#63b8ff" stroke="#63b8ff" points="128.42,-275.08 123.72,-284.57 133.32,-280.08 128.42,-275.08"/>
</g>
<!-- Node6 -->
<g id="node6" class="node">
<title>Node6</title>
<g id="a_node6"><a xlink:href="Bullets_8cpp.html" target="_top" xlink:title=" ">
<polygon fill="white" stroke="#666666" points="150,-244.5 28,-244.5 28,-214.5 150,-214.5 150,-244.5"/>
<text text-anchor="start" x="36" y="-232.5" font-family="Helvetica,sans-Serif" font-size="10.00">/github/workspace/client</text>
<text text-anchor="middle" x="89" y="-221.5" font-family="Helvetica,sans-Serif" font-size="10.00">/src/Bullets.cpp</text>
</a>
</g>
</g>
<!-- Node5&#45;&gt;Node6 -->
<g id="edge7" class="edge">
<title>Node5&#45;&gt;Node6</title>
<path fill="none" stroke="#63b8ff" d="M101.05,-274.58C98.32,-264.58 95.27,-253.45 92.93,-244.88"/>
<polygon fill="#63b8ff" stroke="#63b8ff" points="97.65,-275.42 103.66,-284.14 104.4,-273.57 97.65,-275.42"/>
</g>
<!-- Node9 -->
<g id="node9" class="node">
<title>Node9</title>
<g id="a_node9"><a xlink:href="Destroy_8cpp.html" target="_top" xlink:title=" ">
<polygon fill="white" stroke="#666666" points="1446,-244.5 1324,-244.5 1324,-214.5 1446,-214.5 1446,-244.5"/>
<text text-anchor="start" x="1332" y="-232.5" font-family="Helvetica,sans-Serif" font-size="10.00">/github/workspace/client</text>
<text text-anchor="middle" x="1385" y="-221.5" font-family="Helvetica,sans-Serif" font-size="10.00">/src/Destroy.cpp</text>
</a>
</g>
</g>
<!-- Node8&#45;&gt;Node9 -->
<g id="edge10" class="edge">
<title>Node8&#45;&gt;Node9</title>
<path fill="none" stroke="#63b8ff" d="M1292.85,-280.15C1313.73,-268.9 1339.37,-255.08 1358.31,-244.88"/>
<polygon fill="#63b8ff" stroke="#63b8ff" points="1291.2,-277.06 1284.06,-284.88 1294.53,-283.22 1291.2,-277.06"/>
</g>
<!-- Node10&#45;&gt;Node2 -->
<g id="edge12" class="edge">
<title>Node10&#45;&gt;Node2</title>
<path fill="none" stroke="#63b8ff" d="M1386.81,-323.87C1376.58,-333.1 1364.04,-343.59 1353.36,-351.8"/>
<polygon fill="#63b8ff" stroke="#63b8ff" points="1389.06,-326.56 1394.01,-317.19 1384.3,-321.43 1389.06,-326.56"/>
</g>
<!-- Node11 -->
<g id="node11" class="node">
<title>Node11</title>
<g id="a_node11"><a xlink:href="Draw_8cpp.html" target="_top" xlink:title=" ">
<polygon fill="white" stroke="#666666" points="1586,-244.5 1464,-244.5 1464,-214.5 1586,-214.5 1586,-244.5"/>
<text text-anchor="start" x="1472" y="-232.5" font-family="Helvetica,sans-Serif" font-size="10.00">/github/workspace/client</text>
<text text-anchor="middle" x="1525" y="-221.5" font-family="Helvetica,sans-Serif" font-size="10.00">/src/Draw.cpp</text>
</a>
</g>
</g>
<!-- Node10&#45;&gt;Node11 -->
<g id="edge13" class="edge">
<title>Node10&#45;&gt;Node11</title>
<path fill="none" stroke="#63b8ff" d="M1440.52,-279.84C1459.68,-268.65 1483.07,-254.99 1500.37,-244.88"/>
<polygon fill="#63b8ff" stroke="#63b8ff" points="1438.83,-276.77 1431.96,-284.84 1442.36,-282.82 1438.83,-276.77"/>
</g>
<!-- Node13 -->
<g id="node13" class="node">
<title>Node13</title>
<g id="a_node13"><a xlink:href="Error_8cpp.html" target="_top" xlink:title=" ">
<polygon fill="white" stroke="#666666" points="1306,-244.5 1184,-244.5 1184,-214.5 1306,-214.5 1306,-244.5"/>
<text text-anchor="start" x="1192" y="-232.5" font-family="Helvetica,sans-Serif" font-size="10.00">/github/workspace/client</text>
<text text-anchor="middle" x="1245" y="-221.5" font-family="Helvetica,sans-Serif" font-size="10.00">/src/Error.cpp</text>
</a>
</g>
</g>
<!-- Node12&#45;&gt;Node13 -->
<g id="edge15" class="edge">
<title>Node12&#45;&gt;Node13</title>
<path fill="none" stroke="#63b8ff" d="M1145.81,-280.46C1168.25,-269.15 1196.01,-255.17 1216.44,-244.88"/>
<polygon fill="#63b8ff" stroke="#63b8ff" points="1144.3,-277.29 1136.95,-284.92 1147.45,-283.55 1144.3,-277.29"/>
</g>
<!-- Node12&#45;&gt;Node14 -->
<g id="edge16" class="edge">
<title>Node12&#45;&gt;Node14</title>
<path fill="none" stroke="#63b8ff" d="M1124.75,-276.35C1129.72,-268.39 1134.45,-259.19 1137,-250 1159.28,-169.54 1145.79,-67.47 1139.6,-30.33"/>
<polygon fill="#63b8ff" stroke="#63b8ff" points="1122,-274.16 1119.32,-284.41 1127.81,-278.07 1122,-274.16"/>
</g>
<!-- Node15&#45;&gt;Node2 -->
<g id="edge18" class="edge">
<title>Node15&#45;&gt;Node2</title>
<path fill="none" stroke="#63b8ff" d="M1496.29,-319.69C1462.77,-329.72 1420.05,-342.12 1386.4,-351.56"/>
<polygon fill="#63b8ff" stroke="#63b8ff" points="1497.26,-323.06 1505.83,-316.83 1495.24,-316.35 1497.26,-323.06"/>
</g>
<!-- Node15&#45;&gt;Node16 -->
<g id="edge19" class="edge">
<title>Node15&#45;&gt;Node16</title>
<path fill="none" stroke="#63b8ff" d="M1615.23,-282.49C1657.76,-270.9 1712.88,-255.88 1752.92,-244.97"/>
<polygon fill="#63b8ff" stroke="#63b8ff" points="1614.33,-279.11 1605.61,-285.12 1616.17,-285.86 1614.33,-279.11"/>
</g>
<!-- Node19&#45;&gt;Node1 -->
<g id="edge25" class="edge">
<title>Node19&#45;&gt;Node1</title>
<path fill="none" stroke="#63b8ff" d="M1977.71,-316.36C1838.06,-341.33 1552.02,-392.48 1411.93,-417.53"/>
<polygon fill="#63b8ff" stroke="#63b8ff" points="1978,-319.86 1987.23,-314.65 1976.77,-312.97 1978,-319.86"/>
</g>
<!-- Node19&#45;&gt;Node2 -->
<g id="edge24" class="edge">
<title>Node19&#45;&gt;Node2</title>
<path fill="none" stroke="#63b8ff" d="M1977.62,-316.75C1762.19,-342.71 1514.2,-357.28 1397.68,-363.07"/>
<polygon fill="#63b8ff" stroke="#63b8ff" points="1977.82,-320.25 1987.33,-315.57 1976.98,-313.3 1977.82,-320.25"/>
</g>
<!-- Node20 -->
<g id="node20" class="node">
<title>Node20</title>
<g id="a_node20"><a xlink:href="Window_8cpp.html" target="_top" xlink:title=" ">
<polygon fill="white" stroke="#666666" points="2119,-244.5 1997,-244.5 1997,-214.5 2119,-214.5 2119,-244.5"/>
<text text-anchor="start" x="2005" y="-232.5" font-family="Helvetica,sans-Serif" font-size="10.00">/github/workspace/client</text>
<text text-anchor="middle" x="2058" y="-221.5" font-family="Helvetica,sans-Serif" font-size="10.00">/src/Window.cpp</text>
</a>
</g>
</g>
<!-- Node19&#45;&gt;Node20 -->
<g id="edge26" class="edge">
<title>Node19&#45;&gt;Node20</title>
<path fill="none" stroke="#63b8ff" d="M2058,-274.26C2058,-264.33 2058,-253.36 2058,-244.88"/>
<polygon fill="#63b8ff" stroke="#63b8ff" points="2054.5,-274.09 2058,-284.09 2061.5,-274.09 2054.5,-274.09"/>
</g>
<!-- Node21&#45;&gt;Node2 -->
<g id="edge28" class="edge">
<title>Node21&#45;&gt;Node2</title>
<path fill="none" stroke="#63b8ff" d="M892.75,-315.18C894.85,-315.46 896.94,-315.73 899,-316 1028.34,-332.66 1179.42,-349.15 1264.36,-358.41"/>
<polygon fill="#63b8ff" stroke="#63b8ff" points="893.23,-311.72 882.86,-313.86 892.3,-318.66 893.23,-311.72"/>
</g>
<!-- Node21&#45;&gt;Node4 -->
<g id="edge29" class="edge">
<title>Node21&#45;&gt;Node4</title>
<path fill="none" stroke="#63b8ff" d="M803.27,-275.17C809.8,-254.96 814.44,-226.94 799,-209 779.21,-186.02 590.95,-166.96 491.26,-158.39"/>
<polygon fill="#63b8ff" stroke="#63b8ff" points="800.07,-273.73 799.97,-284.33 806.65,-276.11 800.07,-273.73"/>
</g>
<!-- Node22 -->
<g id="node22" class="node">
<title>Node22</title>
<g id="a_node22"><a xlink:href="IGameState_8hpp.html" target="_top" xlink:title=" ">
<polygon fill="white" stroke="#666666" points="1128,-250 988,-250 988,-209 1128,-209 1128,-250"/>
<text text-anchor="start" x="996" y="-238" font-family="Helvetica,sans-Serif" font-size="10.00">/github/workspace/client</text>
<text text-anchor="start" x="996" y="-227" font-family="Helvetica,sans-Serif" font-size="10.00">/include/system/gameStates</text>
<text text-anchor="middle" x="1058" y="-216" font-family="Helvetica,sans-Serif" font-size="10.00">/IGameState.hpp</text>
</a>
</g>
</g>
<!-- Node21&#45;&gt;Node22 -->
<g id="edge30" class="edge">
<title>Node21&#45;&gt;Node22</title>
<path fill="none" stroke="#63b8ff" d="M859.23,-282.63C898.36,-272.37 947.87,-259.38 987.69,-248.94"/>
<polygon fill="#63b8ff" stroke="#63b8ff" points="858.48,-279.21 849.69,-285.13 860.25,-285.98 858.48,-279.21"/>
</g>
<!-- Node26 -->
<g id="node26" class="node">
<title>Node26</title>
<g id="a_node26"><a xlink:href="EntitiesManager_8cpp.html" target="_top" xlink:title=" ">
<polygon fill="white" stroke="#666666" points="970,-244.5 846,-244.5 846,-214.5 970,-214.5 970,-244.5"/>
<text text-anchor="start" x="854" y="-232.5" font-family="Helvetica,sans-Serif" font-size="10.00">/github/workspace/client</text>
<text text-anchor="middle" x="908" y="-221.5" font-family="Helvetica,sans-Serif" font-size="10.00">/src/EntitiesManager.cpp</text>
</a>
</g>
</g>
<!-- Node21&#45;&gt;Node26 -->
<g id="edge36" class="edge">
<title>Node21&#45;&gt;Node26</title>
<path fill="none" stroke="#63b8ff" d="M826.62,-279.68C845.09,-268.52 867.56,-254.94 884.2,-244.88"/>
<polygon fill="#63b8ff" stroke="#63b8ff" points="824.87,-276.65 818.12,-284.82 828.49,-282.64 824.87,-276.65"/>
</g>
<!-- Node23 -->
<g id="node23" class="node">
<title>Node23</title>
<g id="a_node23"><a xlink:href="SGamePlay_8hpp.html" target="_top" xlink:title=" ">
<polygon fill="white" stroke="#666666" points="1128,-173 988,-173 988,-132 1128,-132 1128,-173"/>
<text text-anchor="start" x="996" y="-161" font-family="Helvetica,sans-Serif" font-size="10.00">/github/workspace/client</text>
<text text-anchor="start" x="996" y="-150" font-family="Helvetica,sans-Serif" font-size="10.00">/include/system/gameStates</text>
<text text-anchor="middle" x="1058" y="-139" font-family="Helvetica,sans-Serif" font-size="10.00">/SGamePlay.hpp</text>
</a>
</g>
</g>
<!-- Node22&#45;&gt;Node23 -->
<g id="edge31" class="edge">
<title>Node22&#45;&gt;Node23</title>
<path fill="none" stroke="#63b8ff" d="M1058,-197.36C1058,-189.24 1058,-180.7 1058,-173.33"/>
<polygon fill="#63b8ff" stroke="#63b8ff" points="1054.5,-197.28 1058,-207.28 1061.5,-197.28 1054.5,-197.28"/>
</g>
<!-- Node23&#45;&gt;Node14 -->
<g id="edge35" class="edge">
<title>Node23&#45;&gt;Node14</title>
<path fill="none" stroke="#63b8ff" d="M1080.5,-122.25C1086.49,-113.96 1092.74,-104.79 1098,-96 1111.25,-73.86 1123.81,-46.56 1130.94,-30.25"/>
<polygon fill="#63b8ff" stroke="#63b8ff" points="1077.69,-120.16 1074.58,-130.29 1083.33,-124.32 1077.69,-120.16"/>
</g>
<!-- Node24 -->
<g id="node24" class="node">
<title>Node24</title>
<g id="a_node24"><a xlink:href="GameEngine_8hpp.html" target="_top" xlink:title=" ">
<polygon fill="white" stroke="#666666" points="1089.5,-96 928.5,-96 928.5,-66 1089.5,-66 1089.5,-96"/>
<text text-anchor="start" x="936.5" y="-84" font-family="Helvetica,sans-Serif" font-size="10.00">/github/workspace/client</text>
<text text-anchor="middle" x="1009" y="-73" font-family="Helvetica,sans-Serif" font-size="10.00">/include/system/GameEngine.hpp</text>
</a>
</g>
</g>
<!-- Node23&#45;&gt;Node24 -->
<g id="edge32" class="edge">
<title>Node23&#45;&gt;Node24</title>
<path fill="none" stroke="#63b8ff" d="M1037.47,-122.38C1031.17,-113.44 1024.5,-103.99 1019.2,-96.47"/>
<polygon fill="#63b8ff" stroke="#63b8ff" points="1034.59,-124.38 1043.22,-130.53 1040.32,-120.34 1034.59,-124.38"/>
</g>
<!-- Node24&#45;&gt;Node14 -->
<g id="edge34" class="edge">
<title>Node24&#45;&gt;Node14</title>
<path fill="none" stroke="#63b8ff" d="M1047.82,-60.59C1067.32,-50.84 1090.52,-39.24 1108.37,-30.31"/>
<polygon fill="#63b8ff" stroke="#63b8ff" points="1046.46,-57.36 1039.08,-64.96 1049.59,-63.62 1046.46,-57.36"/>
</g>
<!-- Node24&#45;&gt;Node25 -->
<g id="edge33" class="edge">
<title>Node24&#45;&gt;Node25</title>
<path fill="none" stroke="#63b8ff" d="M917.11,-68.26C815.96,-55.34 656.19,-34.93 569.27,-23.83"/>
<polygon fill="#63b8ff" stroke="#63b8ff" points="916.36,-71.69 926.73,-69.49 917.25,-64.75 916.36,-71.69"/>
</g>
<!-- Node27&#45;&gt;Node4 -->
<g id="edge43" class="edge">
<title>Node27&#45;&gt;Node4</title>
<path fill="none" stroke="#63b8ff" d="M491.59,-281.16C475.54,-273.82 459.99,-263.75 449,-250 429.92,-226.12 428.23,-188.46 428.94,-167.96"/>
<polygon fill="#63b8ff" stroke="#63b8ff" points="490.21,-284.37 500.78,-285.01 492.91,-277.91 490.21,-284.37"/>
</g>
<!-- Node28 -->
<g id="node28" class="node">
<title>Node28</title>
<g id="a_node28"><a xlink:href="Enemy_8hpp.html" target="_top" xlink:title=" ">
<polygon fill="white" stroke="#666666" points="616,-244.5 458,-244.5 458,-214.5 616,-214.5 616,-244.5"/>
<text text-anchor="start" x="466" y="-232.5" font-family="Helvetica,sans-Serif" font-size="10.00">/github/workspace/client</text>
<text text-anchor="middle" x="537" y="-221.5" font-family="Helvetica,sans-Serif" font-size="10.00">/include/Components/Enemy.hpp</text>
</a>
</g>
</g>
<!-- Node27&#45;&gt;Node28 -->
<g id="edge38" class="edge">
<title>Node27&#45;&gt;Node28</title>
<path fill="none" stroke="#63b8ff" d="M552.97,-274.91C549.34,-264.82 545.29,-253.54 542.17,-244.88"/>
<polygon fill="#63b8ff" stroke="#63b8ff" points="549.63,-275.95 556.31,-284.18 556.22,-273.58 549.63,-275.95"/>
</g>
<!-- Node29 -->
<g id="node29" class="node">
<title>Node29</title>
<g id="a_node29"><a xlink:href="Player_8hpp.html" target="_top" xlink:title=" ">
<polygon fill="white" stroke="#666666" points="790,-244.5 634,-244.5 634,-214.5 790,-214.5 790,-244.5"/>
<text text-anchor="start" x="642" y="-232.5" font-family="Helvetica,sans-Serif" font-size="10.00">/github/workspace/client</text>
<text text-anchor="middle" x="712" y="-221.5" font-family="Helvetica,sans-Serif" font-size="10.00">/include/Components/Player.hpp</text>
</a>
</g>
</g>
<!-- Node27&#45;&gt;Node29 -->
<g id="edge40" class="edge">
<title>Node27&#45;&gt;Node29</title>
<path fill="none" stroke="#63b8ff" d="M603.52,-280.76C628.03,-269.41 658.54,-255.27 680.96,-244.88"/>
<polygon fill="#63b8ff" stroke="#63b8ff" points="602.06,-277.58 594.45,-284.96 605,-283.93 602.06,-277.58"/>
</g>
<!-- Node28&#45;&gt;Node4 -->
<g id="edge39" class="edge">
<title>Node28&#45;&gt;Node4</title>
<path fill="none" stroke="#63b8ff" d="M507.4,-207.75C489.33,-195.09 466.69,-179.21 450.57,-167.92"/>
<polygon fill="#63b8ff" stroke="#63b8ff" points="504.93,-210.3 515.13,-213.17 508.95,-204.56 504.93,-210.3"/>
</g>
<!-- Node29&#45;&gt;Node4 -->
<g id="edge41" class="edge">
<title>Node29&#45;&gt;Node4</title>
<path fill="none" stroke="#63b8ff" d="M646.76,-211.15C597.46,-198.04 530.58,-180.25 484.21,-167.92"/>
<polygon fill="#63b8ff" stroke="#63b8ff" points="645.6,-214.46 656.16,-213.65 647.4,-207.7 645.6,-214.46"/>
</g>
<!-- Node30 -->
<g id="node30" class="node">
<title>Node30</title>
<g id="a_node30"><a xlink:href="Player_8cpp.html" target="_top" xlink:title=" ">
<polygon fill="white" stroke="#666666" points="773,-167.5 651,-167.5 651,-137.5 773,-137.5 773,-167.5"/>
<text text-anchor="start" x="659" y="-155.5" font-family="Helvetica,sans-Serif" font-size="10.00">/github/workspace/client</text>
<text text-anchor="middle" x="712" y="-144.5" font-family="Helvetica,sans-Serif" font-size="10.00">/src/Player.cpp</text>
</a>
</g>
</g>
<!-- Node29&#45;&gt;Node30 -->
<g id="edge42" class="edge">
<title>Node29&#45;&gt;Node30</title>
<path fill="none" stroke="#63b8ff" d="M712,-202.73C712,-191.08 712,-177.76 712,-167.92"/>
<polygon fill="#63b8ff" stroke="#63b8ff" points="708.5,-202.53 712,-212.53 715.5,-202.53 708.5,-202.53"/>
</g>
</g>
</svg>
