<?xml version="1.0" encoding="UTF-8" standalone="no"?>
<!DOCTYPE svg PUBLIC "-//W3C//DTD SVG 1.1//EN"
 "http://www.w3.org/Graphics/SVG/1.1/DTD/svg11.dtd">
<!-- Generated by graphviz version 7.0.5 (20221223.1930)
 -->
<!-- Title: /github/workspace/client/include/system/gameStates/States.hpp Pages: 1 -->
<!--zoomable 379 -->
<svg id="main" version="1.1" xmlns="http://www.w3.org/2000/svg" xmlns:xlink="http://www.w3.org/1999/xlink" xml:space="preserve" onload="init(evt)">
<style type="text/css"><![CDATA[
.edge:hover path { stroke: red; }
.edge:hover polygon { stroke: red; fill: red; }
]]></style>
<script type="text/javascript"><![CDATA[
var edges = document.getElementsByTagName('g');
if (edges && edges.length) {
  for (var i=0;i<edges.length;i++) {
    if (edges[i].id.substr(0,4)=='edge') {
      edges[i].setAttribute('class','edge');
    }
  }
}
]]></script>
        <defs>
                <circle id="rim" cx="0" cy="0" r="7"/>
                <circle id="rim2" cx="0" cy="0" r="3.5"/>
                <g id="zoomPlus">
                        <use xlink:href="#rim" fill="#404040">
                                <set attributeName="fill" to="#808080" begin="zoomplus.mouseover" end="zoomplus.mouseout"/>
                        </use>
                        <path d="M-4,0h8M0,-4v8" fill="none" stroke="white" stroke-width="1.5" pointer-events="none"/>
                </g>
                <g id="zoomMin">
                        <use xlink:href="#rim" fill="#404040">
                                <set attributeName="fill" to="#808080" begin="zoomminus.mouseover" end="zoomminus.mouseout"/>
                        </use>
                        <path d="M-4,0h8" fill="none" stroke="white" stroke-width="1.5" pointer-events="none"/>
                </g>
                <g id="dirArrow">
                        <path fill="none" stroke="white" stroke-width="1.5" d="M0,-3.0v7 M-2.5,-0.5L0,-3.0L2.5,-0.5"/>
                </g>
               <g id="resetDef">
                       <use xlink:href="#rim2" fill="#404040">
                               <set attributeName="fill" to="#808080" begin="reset.mouseover" end="reset.mouseout"/>
                       </use>
               </g>
        </defs>

<script type="text/javascript">
var viewWidth = 2350;
var viewHeight = 379;
var sectionId = 'dynsection-0';
</script>
<script xlink:href="svgpan.js"/>
<svg id="graph" class="graph">
<g id="viewport">
<title>/github/workspace/client/include/system/gameStates/States.hpp</title>
<!-- Node1 -->
<g id="node1" class="node">
<title>Node1</title>
<g id="a_node1"><a xlink:title=" ">
<polygon fill="#999999" stroke="#666666" points="1686,-371 1546,-371 1546,-330 1686,-330 1686,-371"/>
<text text-anchor="start" x="1554" y="-359" font-family="Helvetica,sans-Serif" font-size="10.00">/github/workspace/client</text>
<text text-anchor="start" x="1554" y="-348" font-family="Helvetica,sans-Serif" font-size="10.00">/include/system/gameStates</text>
<text text-anchor="middle" x="1616" y="-337" font-family="Helvetica,sans-Serif" font-size="10.00">/States.hpp</text>
</a>
</g>
</g>
<!-- Node2 -->
<g id="node2" class="node">
<title>Node2</title>
<g id="a_node2"><a xlink:href="IGameState_8hpp.html" target="_top" xlink:title=" ">
<polygon fill="white" stroke="#666666" points="1491.5,-239 1404.5,-239 1404.5,-220 1491.5,-220 1491.5,-239"/>
<text text-anchor="middle" x="1448" y="-227" font-family="Helvetica,sans-Serif" font-size="10.00">IGameState.hpp</text>
</a>
</g>
</g>
<!-- Node1&#45;&gt;Node2 -->
<g id="edge1" class="edge">
<title>Node1&#45;&gt;Node2</title>
<path fill="none" stroke="#63b8ff" d="M1583.28,-329.67C1566.76,-319.4 1546.54,-306.43 1529,-294 1507.3,-278.63 1483.46,-259.67 1467.3,-246.49"/>
<polygon fill="#63b8ff" stroke="#63b8ff" points="1469.87,-244.07 1459.92,-240.43 1465.43,-249.48 1469.87,-244.07"/>
</g>
<!-- Node34 -->
<g id="node34" class="node">
<title>Node34</title>
<g id="a_node34"><a xlink:href="SMenu_8hpp.html" target="_top" xlink:title=" ">
<polygon fill="white" stroke="#666666" points="1603.5,-294 1538.5,-294 1538.5,-275 1603.5,-275 1603.5,-294"/>
<text text-anchor="middle" x="1571" y="-282" font-family="Helvetica,sans-Serif" font-size="10.00">SMenu.hpp</text>
</a>
</g>
</g>
<!-- Node1&#45;&gt;Node34 -->
<g id="edge57" class="edge">
<title>Node1&#45;&gt;Node34</title>
<path fill="none" stroke="#63b8ff" d="M1602.01,-329.6C1596.13,-321.24 1589.34,-311.59 1583.62,-303.45"/>
<polygon fill="#63b8ff" stroke="#63b8ff" points="1586.58,-301.57 1577.96,-295.4 1580.85,-305.59 1586.58,-301.57"/>
</g>
<!-- Node37 -->
<g id="node37" class="node">
<title>Node37</title>
<g id="a_node37"><a xlink:href="SGamePlay_8hpp.html" target="_top" xlink:title=" ">
<polygon fill="white" stroke="#666666" points="2197,-294 2111,-294 2111,-275 2197,-275 2197,-294"/>
<text text-anchor="middle" x="2154" y="-282" font-family="Helvetica,sans-Serif" font-size="10.00">SGamePlay.hpp</text>
</a>
</g>
</g>
<!-- Node1&#45;&gt;Node37 -->
<g id="edge62" class="edge">
<title>Node1&#45;&gt;Node37</title>
<path fill="none" stroke="#63b8ff" d="M1686.33,-341.13C1794.97,-328.21 2001.26,-303.67 2099.44,-291.99"/>
<polygon fill="#63b8ff" stroke="#63b8ff" points="2099.56,-295.5 2109.08,-290.84 2098.74,-288.55 2099.56,-295.5"/>
</g>
<!-- Node3 -->
<g id="node3" class="node">
<title>Node3</title>
<g id="a_node3"><a xlink:href="EntitiesManager_8hpp.html" target="_top" xlink:title=" ">
<polygon fill="white" stroke="#666666" points="1340,-184 1200,-184 1200,-165 1340,-165 1340,-184"/>
<text text-anchor="middle" x="1270" y="-172" font-family="Helvetica,sans-Serif" font-size="10.00">Entities/EntitiesManager.hpp</text>
</a>
</g>
</g>
<!-- Node2&#45;&gt;Node3 -->
<g id="edge2" class="edge">
<title>Node2&#45;&gt;Node3</title>
<path fill="none" stroke="#63b8ff" d="M1417.8,-219.51C1388.44,-210.76 1343.6,-197.42 1311.02,-187.71"/>
<polygon fill="#63b8ff" stroke="#63b8ff" points="1312.08,-184.38 1301.5,-184.88 1310.08,-191.09 1312.08,-184.38"/>
</g>
<!-- Node24 -->
<g id="node24" class="node">
<title>Node24</title>
<g id="a_node24"><a xlink:href="Background_8hpp.html" target="_top" xlink:title=" ">
<polygon fill="white" stroke="#666666" points="703,-74 559,-74 559,-55 703,-55 703,-74"/>
<text text-anchor="middle" x="631" y="-62" font-family="Helvetica,sans-Serif" font-size="10.00">Components/Background.hpp</text>
</a>
</g>
</g>
<!-- Node2&#45;&gt;Node24 -->
<g id="edge50" class="edge">
<title>Node2&#45;&gt;Node24</title>
<path fill="none" stroke="#63b8ff" d="M1404.26,-221.43C1353.04,-213.04 1265.7,-198.37 1191,-184 1002.79,-147.81 780.32,-98.89 682.04,-76.96"/>
<polygon fill="#63b8ff" stroke="#63b8ff" points="682.96,-73.58 672.44,-74.82 681.43,-80.41 682.96,-73.58"/>
</g>
<!-- Node30 -->
<g id="node30" class="node">
<title>Node30</title>
<g id="a_node30"><a xlink:href="String_8hpp.html" target="_top" xlink:title=" ">
<polygon fill="white" stroke="#666666" points="464.5,-74 381.5,-74 381.5,-55 464.5,-55 464.5,-74"/>
<text text-anchor="middle" x="423" y="-62" font-family="Helvetica,sans-Serif" font-size="10.00">Utils/String.hpp</text>
</a>
</g>
</g>
<!-- Node2&#45;&gt;Node30 -->
<g id="edge43" class="edge">
<title>Node2&#45;&gt;Node30</title>
<path fill="none" stroke="#63b8ff" d="M1404.02,-228.18C1237.09,-226.34 643.85,-213.82 479,-129 459.44,-118.93 443.61,-98.93 433.83,-84.05"/>
<polygon fill="#63b8ff" stroke="#63b8ff" points="436.86,-82.29 428.62,-75.63 430.9,-85.97 436.86,-82.29"/>
</g>
<!-- Node31 -->
<g id="node31" class="node">
<title>Node31</title>
<g id="a_node31"><a xlink:href="GameEngine_8hpp.html" target="_top" xlink:title=" ">
<polygon fill="white" stroke="#666666" points="1691.5,-184 1566.5,-184 1566.5,-165 1691.5,-165 1691.5,-184"/>
<text text-anchor="middle" x="1629" y="-172" font-family="Helvetica,sans-Serif" font-size="10.00">system/GameEngine.hpp</text>
</a>
</g>
</g>
<!-- Node2&#45;&gt;Node31 -->
<g id="edge47" class="edge">
<title>Node2&#45;&gt;Node31</title>
<path fill="none" stroke="#63b8ff" d="M1478.7,-219.51C1508.7,-210.73 1554.55,-197.3 1587.73,-187.59"/>
<polygon fill="#63b8ff" stroke="#63b8ff" points="1588.38,-191.04 1597,-184.87 1586.41,-184.32 1588.38,-191.04"/>
</g>
<!-- Node32 -->
<g id="node32" class="node">
<title>Node32</title>
<g id="a_node32"><a xlink:href="Centipede_8hpp.html" target="_top" xlink:title=" ">
<polygon fill="white" stroke="#666666" points="1532,-184 1396,-184 1396,-165 1532,-165 1532,-184"/>
<text text-anchor="middle" x="1464" y="-172" font-family="Helvetica,sans-Serif" font-size="10.00">Components/Centipede.hpp</text>
</a>
</g>
</g>
<!-- Node2&#45;&gt;Node32 -->
<g id="edge51" class="edge">
<title>Node2&#45;&gt;Node32</title>
<path fill="none" stroke="#63b8ff" d="M1450.64,-219.75C1452.64,-213.11 1455.48,-203.73 1458.02,-195.31"/>
<polygon fill="#63b8ff" stroke="#63b8ff" points="1461.32,-196.48 1460.86,-185.89 1454.62,-194.45 1461.32,-196.48"/>
</g>
<!-- Node4 -->
<g id="node4" class="node">
<title>Node4</title>
<g id="a_node4"><a xlink:href="Engine_8hpp.html" target="_top" xlink:title=" ">
<polygon fill="white" stroke="#666666" points="1367,-129 1271,-129 1271,-110 1367,-110 1367,-129"/>
<text text-anchor="middle" x="1319" y="-117" font-family="Helvetica,sans-Serif" font-size="10.00">Engine/Engine.hpp</text>
</a>
</g>
</g>
<!-- Node3&#45;&gt;Node4 -->
<g id="edge3" class="edge">
<title>Node3&#45;&gt;Node4</title>
<path fill="none" stroke="#63b8ff" d="M1272.93,-164.75C1278.23,-157.27 1287.98,-146.32 1297.26,-137.17"/>
<polygon fill="#63b8ff" stroke="#63b8ff" points="1299.51,-139.87 1304.42,-130.48 1294.73,-134.75 1299.51,-139.87"/>
</g>
<!-- Node22 -->
<g id="node22" class="node">
<title>Node22</title>
<g id="a_node22"><a xlink:href="IComponents_8hpp.html" target="_top" xlink:title=" ">
<polygon fill="white" stroke="#666666" points="1857,-19 1765,-19 1765,0 1857,0 1857,-19"/>
<text text-anchor="middle" x="1811" y="-7" font-family="Helvetica,sans-Serif" font-size="10.00">IComponents.hpp</text>
</a>
</g>
</g>
<!-- Node3&#45;&gt;Node22 -->
<g id="edge30" class="edge">
<title>Node3&#45;&gt;Node22</title>
<path fill="none" stroke="#63b8ff" d="M1199.66,-172.67C1001.3,-169.13 457.62,-150.7 550,-55 571.17,-33.07 1508.98,-15.63 1753.3,-11.45"/>
<polygon fill="#63b8ff" stroke="#63b8ff" points="1753.29,-14.96 1763.23,-11.29 1753.17,-7.96 1753.29,-14.96"/>
</g>
<!-- Node25 -->
<g id="node25" class="node">
<title>Node25</title>
<g id="a_node25"><a xlink:href="SparseArray_8hpp.html" target="_top" xlink:title=" ">
<polygon fill="white" stroke="#666666" points="220.5,-129 109.5,-129 109.5,-110 220.5,-110 220.5,-129"/>
<text text-anchor="middle" x="165" y="-117" font-family="Helvetica,sans-Serif" font-size="10.00">Utils/SparseArray.hpp</text>
</a>
</g>
</g>
<!-- Node3&#45;&gt;Node25 -->
<g id="edge31" class="edge">
<title>Node3&#45;&gt;Node25</title>
<path fill="none" stroke="#63b8ff" d="M1199.62,-170.12C999.31,-160.52 427.98,-133.11 231.97,-123.71"/>
<polygon fill="#63b8ff" stroke="#63b8ff" points="232.37,-120.23 222.22,-123.24 232.04,-127.22 232.37,-120.23"/>
</g>
<!-- Node4&#45;&gt;Node3 -->
<g id="edge22" class="edge">
<title>Node4&#45;&gt;Node3</title>
<path fill="none" stroke="#63b8ff" d="M1316,-129.36C1310.68,-136.82 1300.99,-147.72 1291.75,-156.81"/>
<polygon fill="#63b8ff" stroke="#63b8ff" points="1289.54,-154.08 1284.63,-163.47 1294.33,-159.19 1289.54,-154.08"/>
</g>
<!-- Node5 -->
<g id="node5" class="node">
<title>Node5</title>
<g id="a_node5"><a xlink:title=" ">
<polygon fill="#e0e0e0" stroke="#999999" points="1127.5,-74 1038.5,-74 1038.5,-55 1127.5,-55 1127.5,-74"/>
<text text-anchor="middle" x="1083" y="-62" font-family="Helvetica,sans-Serif" font-size="10.00">SFML/Audio.hpp</text>
</a>
</g>
</g>
<!-- Node4&#45;&gt;Node5 -->
<g id="edge4" class="edge">
<title>Node4&#45;&gt;Node5</title>
<path fill="none" stroke="#63b8ff" d="M1278.97,-109.51C1239.01,-100.54 1177.46,-86.71 1134.02,-76.96"/>
<polygon fill="#63b8ff" stroke="#63b8ff" points="1134.84,-73.55 1124.31,-74.78 1133.3,-80.38 1134.84,-73.55"/>
</g>
<!-- Node6 -->
<g id="node6" class="node">
<title>Node6</title>
<g id="a_node6"><a xlink:title=" ">
<polygon fill="#e0e0e0" stroke="#999999" points="1250,-74 1146,-74 1146,-55 1250,-55 1250,-74"/>
<text text-anchor="middle" x="1198" y="-62" font-family="Helvetica,sans-Serif" font-size="10.00">SFML/Graphics.hpp</text>
</a>
</g>
</g>
<!-- Node4&#45;&gt;Node6 -->
<g id="edge5" class="edge">
<title>Node4&#45;&gt;Node6</title>
<path fill="none" stroke="#63b8ff" d="M1298.47,-109.51C1279.32,-101.12 1250.5,-88.5 1228.63,-78.92"/>
<polygon fill="#63b8ff" stroke="#63b8ff" points="1230.17,-75.77 1219.61,-74.97 1227.36,-82.18 1230.17,-75.77"/>
</g>
<!-- Node7 -->
<g id="node7" class="node">
<title>Node7</title>
<g id="a_node7"><a xlink:title=" ">
<polygon fill="#e0e0e0" stroke="#999999" points="1369.5,-74 1268.5,-74 1268.5,-55 1369.5,-55 1369.5,-74"/>
<text text-anchor="middle" x="1319" y="-62" font-family="Helvetica,sans-Serif" font-size="10.00">SFML/Network.hpp</text>
</a>
</g>
</g>
<!-- Node4&#45;&gt;Node7 -->
<g id="edge6" class="edge">
<title>Node4&#45;&gt;Node7</title>
<path fill="none" stroke="#63b8ff" d="M1319,-109.75C1319,-103.27 1319,-94.16 1319,-85.9"/>
<polygon fill="#63b8ff" stroke="#63b8ff" points="1322.5,-85.96 1319,-75.96 1315.5,-85.96 1322.5,-85.96"/>
</g>
<!-- Node8 -->
<g id="node8" class="node">
<title>Node8</title>
<g id="a_node8"><a xlink:title=" ">
<polygon fill="#e0e0e0" stroke="#999999" points="1486.5,-74 1387.5,-74 1387.5,-55 1486.5,-55 1486.5,-74"/>
<text text-anchor="middle" x="1437" y="-62" font-family="Helvetica,sans-Serif" font-size="10.00">SFML/Window.hpp</text>
</a>
</g>
</g>
<!-- Node4&#45;&gt;Node8 -->
<g id="edge7" class="edge">
<title>Node4&#45;&gt;Node8</title>
<path fill="none" stroke="#63b8ff" d="M1339.02,-109.51C1357.61,-101.16 1385.54,-88.61 1406.83,-79.05"/>
<polygon fill="#63b8ff" stroke="#63b8ff" points="1408.21,-82.27 1415.9,-74.98 1405.34,-75.88 1408.21,-82.27"/>
</g>
<!-- Node9 -->
<g id="node9" class="node">
<title>Node9</title>
<g id="a_node9"><a xlink:title=" ">
<polygon fill="#e0e0e0" stroke="#999999" points="1603,-74 1505,-74 1505,-55 1603,-55 1603,-74"/>
<text text-anchor="middle" x="1554" y="-62" font-family="Helvetica,sans-Serif" font-size="10.00">SFML/System.hpp</text>
</a>
</g>
</g>
<!-- Node4&#45;&gt;Node9 -->
<g id="edge8" class="edge">
<title>Node4&#45;&gt;Node9</title>
<path fill="none" stroke="#63b8ff" d="M1358.86,-109.51C1398.65,-100.54 1459.94,-86.71 1503.2,-76.96"/>
<polygon fill="#63b8ff" stroke="#63b8ff" points="1503.87,-80.39 1512.86,-74.78 1502.33,-73.57 1503.87,-80.39"/>
</g>
<!-- Node10 -->
<g id="node10" class="node">
<title>Node10</title>
<g id="a_node10"><a xlink:title=" ">
<polygon fill="#e0e0e0" stroke="#999999" points="323,-19 269,-19 269,0 323,0 323,-19"/>
<text text-anchor="middle" x="296" y="-7" font-family="Helvetica,sans-Serif" font-size="10.00">iostream</text>
</a>
</g>
</g>
<!-- Node4&#45;&gt;Node10 -->
<g id="edge9" class="edge">
<title>Node4&#45;&gt;Node10</title>
<path fill="none" stroke="#63b8ff" d="M1270.63,-118.03C1089.31,-116.02 455.97,-106.71 372,-74 347.06,-64.28 324.34,-42.9 310.37,-27.63"/>
<polygon fill="#63b8ff" stroke="#63b8ff" points="313.09,-25.42 303.86,-20.21 307.83,-30.04 313.09,-25.42"/>
</g>
<!-- Node11 -->
<g id="node11" class="node">
<title>Node11</title>
<g id="a_node11"><a xlink:title=" ">
<polygon fill="#e0e0e0" stroke="#999999" points="1671,-74 1621,-74 1621,-55 1671,-55 1671,-74"/>
<text text-anchor="middle" x="1646" y="-62" font-family="Helvetica,sans-Serif" font-size="10.00">fstream</text>
</a>
</g>
</g>
<!-- Node4&#45;&gt;Node11 -->
<g id="edge10" class="edge">
<title>Node4&#45;&gt;Node11</title>
<path fill="none" stroke="#63b8ff" d="M1367.46,-112.56C1423.49,-105.38 1518.69,-92.22 1609.73,-74.29"/>
<polygon fill="#63b8ff" stroke="#63b8ff" points="1610.2,-77.76 1619.32,-72.37 1608.83,-70.9 1610.2,-77.76"/>
</g>
<!-- Node12 -->
<g id="node12" class="node">
<title>Node12</title>
<g id="a_node12"><a xlink:title=" ">
<polygon fill="#e0e0e0" stroke="#999999" points="2086.5,-74 2045.5,-74 2045.5,-55 2086.5,-55 2086.5,-74"/>
<text text-anchor="middle" x="2066" y="-62" font-family="Helvetica,sans-Serif" font-size="10.00">string</text>
</a>
</g>
</g>
<!-- Node4&#45;&gt;Node12 -->
<g id="edge11" class="edge">
<title>Node4&#45;&gt;Node12</title>
<path fill="none" stroke="#63b8ff" d="M1367.25,-114.74C1387.54,-113.2 1411.42,-111.45 1433,-110 1697.21,-92.26 1769.33,-118.13 2034.03,-73.91"/>
<polygon fill="#63b8ff" stroke="#63b8ff" points="2034.38,-77.4 2043.66,-72.28 2033.22,-70.5 2034.38,-77.4"/>
</g>
<!-- Node13 -->
<g id="node13" class="node">
<title>Node13</title>
<g id="a_node13"><a xlink:title=" ">
<polygon fill="#e0e0e0" stroke="#999999" points="1739,-74 1689,-74 1689,-55 1739,-55 1739,-74"/>
<text text-anchor="middle" x="1714" y="-62" font-family="Helvetica,sans-Serif" font-size="10.00">unistd.h</text>
</a>
</g>
</g>
<!-- Node4&#45;&gt;Node13 -->
<g id="edge12" class="edge">
<title>Node4&#45;&gt;Node13</title>
<path fill="none" stroke="#63b8ff" d="M1367.46,-114.43C1434.85,-108.34 1560.84,-95.47 1677.56,-74.24"/>
<polygon fill="#63b8ff" stroke="#63b8ff" points="1678.14,-77.69 1687.34,-72.43 1676.87,-70.81 1678.14,-77.69"/>
</g>
<!-- Node14 -->
<g id="node14" class="node">
<title>Node14</title>
<g id="a_node14"><a xlink:title=" ">
<polygon fill="#e0e0e0" stroke="#999999" points="824.5,-74 759.5,-74 759.5,-55 824.5,-55 824.5,-74"/>
<text text-anchor="middle" x="792" y="-62" font-family="Helvetica,sans-Serif" font-size="10.00">sys/types.h</text>
</a>
</g>
</g>
<!-- Node4&#45;&gt;Node14 -->
<g id="edge13" class="edge">
<title>Node4&#45;&gt;Node14</title>
<path fill="none" stroke="#63b8ff" d="M1270.61,-115.8C1185.08,-110.65 1001.45,-97.9 836.31,-74.17"/>
<polygon fill="#63b8ff" stroke="#63b8ff" points="836.85,-70.72 826.45,-72.74 835.85,-77.64 836.85,-70.72"/>
</g>
<!-- Node15 -->
<g id="node15" class="node">
<title>Node15</title>
<g id="a_node15"><a xlink:title=" ">
<polygon fill="#e0e0e0" stroke="#999999" points="445,-19 401,-19 401,0 445,0 445,-19"/>
<text text-anchor="middle" x="423" y="-7" font-family="Helvetica,sans-Serif" font-size="10.00">vector</text>
</a>
</g>
</g>
<!-- Node4&#45;&gt;Node15 -->
<g id="edge14" class="edge">
<title>Node4&#45;&gt;Node15</title>
<path fill="none" stroke="#63b8ff" d="M1270.6,-117.1C1151.63,-113.27 847.5,-101.07 750,-74 731.81,-68.95 729.99,-60.73 712,-55 622.51,-26.51 511.43,-15.96 456.7,-12.3"/>
<polygon fill="#63b8ff" stroke="#63b8ff" points="457,-8.81 446.8,-11.67 456.56,-15.79 457,-8.81"/>
</g>
<!-- Node16 -->
<g id="node16" class="node">
<title>Node16</title>
<g id="a_node16"><a xlink:title=" ">
<polygon fill="#e0e0e0" stroke="#999999" points="901,-74 843,-74 843,-55 901,-55 901,-74"/>
<text text-anchor="middle" x="872" y="-62" font-family="Helvetica,sans-Serif" font-size="10.00">exception</text>
</a>
</g>
</g>
<!-- Node4&#45;&gt;Node16 -->
<g id="edge15" class="edge">
<title>Node4&#45;&gt;Node16</title>
<path fill="none" stroke="#63b8ff" d="M1270.6,-114.99C1195.83,-109.19 1047.56,-96.17 912.35,-74.22"/>
<polygon fill="#63b8ff" stroke="#63b8ff" points="913.32,-70.83 902.89,-72.66 912.19,-77.74 913.32,-70.83"/>
</g>
<!-- Node17 -->
<g id="node17" class="node">
<title>Node17</title>
<g id="a_node17"><a xlink:href="Window_8hpp.html" target="_top" xlink:title=" ">
<polygon fill="white" stroke="#666666" points="1020.5,-74 919.5,-74 919.5,-55 1020.5,-55 1020.5,-74"/>
<text text-anchor="middle" x="970" y="-62" font-family="Helvetica,sans-Serif" font-size="10.00">Engine/Window.hpp</text>
</a>
</g>
</g>
<!-- Node4&#45;&gt;Node17 -->
<g id="edge16" class="edge">
<title>Node4&#45;&gt;Node17</title>
<path fill="none" stroke="#63b8ff" d="M1270.86,-111.89C1208.55,-102.81 1100.1,-86.38 1031.79,-75.71"/>
<polygon fill="#63b8ff" stroke="#63b8ff" points="1032.69,-72.31 1022.27,-74.22 1031.61,-79.23 1032.69,-72.31"/>
</g>
<!-- Node18 -->
<g id="node18" class="node">
<title>Node18</title>
<g id="a_node18"><a xlink:href="Event_8hpp.html" target="_top" xlink:title=" ">
<polygon fill="white" stroke="#666666" points="2027,-74 1935,-74 1935,-55 2027,-55 2027,-74"/>
<text text-anchor="middle" x="1981" y="-62" font-family="Helvetica,sans-Serif" font-size="10.00">Engine/Event.hpp</text>
</a>
</g>
</g>
<!-- Node4&#45;&gt;Node18 -->
<g id="edge18" class="edge">
<title>Node4&#45;&gt;Node18</title>
<path fill="none" stroke="#63b8ff" d="M1367.27,-114.25C1385.08,-112.88 1405.39,-111.37 1424,-110 1643.1,-93.83 1698.71,-98.8 1917,-74 1919.04,-73.77 1921.11,-73.52 1923.21,-73.25"/>
<polygon fill="#63b8ff" stroke="#63b8ff" points="1923.65,-76.72 1933.09,-71.91 1922.71,-69.79 1923.65,-76.72"/>
</g>
<!-- Node21 -->
<g id="node21" class="node">
<title>Node21</title>
<g id="a_node21"><a xlink:href="Bullets_8hpp.html" target="_top" xlink:title=" ">
<polygon fill="white" stroke="#666666" points="1917,-74 1795,-74 1795,-55 1917,-55 1917,-74"/>
<text text-anchor="middle" x="1856" y="-62" font-family="Helvetica,sans-Serif" font-size="10.00">Components/Bullets.hpp</text>
</a>
</g>
</g>
<!-- Node4&#45;&gt;Node21 -->
<g id="edge23" class="edge">
<title>Node4&#45;&gt;Node21</title>
<path fill="none" stroke="#63b8ff" d="M1367.43,-113.59C1450.38,-105.68 1624.54,-89.46 1772,-74 1775.76,-73.61 1779.63,-73.19 1783.55,-72.77"/>
<polygon fill="#63b8ff" stroke="#63b8ff" points="1783.59,-76.28 1793.15,-71.72 1782.83,-69.33 1783.59,-76.28"/>
</g>
<!-- Node4&#45;&gt;Node24 -->
<g id="edge28" class="edge">
<title>Node4&#45;&gt;Node24</title>
<path fill="none" stroke="#63b8ff" d="M1270.84,-115.66C1169.23,-109.21 925.84,-92.65 714.77,-74.58"/>
<polygon fill="#63b8ff" stroke="#63b8ff" points="715.25,-71.1 704.98,-73.73 714.65,-78.08 715.25,-71.1"/>
</g>
<!-- Node17&#45;&gt;Node4 -->
<g id="edge17" class="edge">
<title>Node17&#45;&gt;Node4</title>
<path fill="none" stroke="#63b8ff" d="M1020.88,-72.51C1084.27,-81.76 1192.22,-98.12 1259.4,-108.63"/>
<polygon fill="#63b8ff" stroke="#63b8ff" points="1258.72,-112.07 1269.14,-110.16 1259.81,-105.15 1258.72,-112.07"/>
</g>
<!-- Node18&#45;&gt;Node4 -->
<g id="edge19" class="edge">
<title>Node18&#45;&gt;Node4</title>
<path fill="none" stroke="#63b8ff" d="M1934.68,-74.04C1716.66,-98.79 1660.99,-93.84 1442,-110 1421.47,-111.51 1398.86,-113.2 1378.63,-114.66"/>
<polygon fill="#63b8ff" stroke="#63b8ff" points="1378.58,-111.16 1368.86,-115.37 1379.08,-118.14 1378.58,-111.16"/>
</g>
<!-- Node19 -->
<g id="node19" class="node">
<title>Node19</title>
<g id="a_node19"><a xlink:title=" ">
<polygon fill="#e0e0e0" stroke="#999999" points="1141.5,-19 1112.5,-19 1112.5,0 1141.5,0 1141.5,-19"/>
<text text-anchor="middle" x="1127" y="-7" font-family="Helvetica,sans-Serif" font-size="10.00">list</text>
</a>
</g>
</g>
<!-- Node18&#45;&gt;Node19 -->
<g id="edge20" class="edge">
<title>Node18&#45;&gt;Node19</title>
<path fill="none" stroke="#63b8ff" d="M1934.53,-55.99C1931.65,-55.63 1928.79,-55.29 1926,-55 1623.23,-23.25 1253.37,-13.25 1153.11,-11.03"/>
<polygon fill="#63b8ff" stroke="#63b8ff" points="1153.34,-7.53 1143.26,-10.82 1153.19,-14.53 1153.34,-7.53"/>
</g>
<!-- Node20 -->
<g id="node20" class="node">
<title>Node20</title>
<g id="a_node20"><a xlink:title=" ">
<polygon fill="#e0e0e0" stroke="#999999" points="2212.5,-19 2169.5,-19 2169.5,0 2212.5,0 2212.5,-19"/>
<text text-anchor="middle" x="2191" y="-7" font-family="Helvetica,sans-Serif" font-size="10.00">queue</text>
</a>
</g>
</g>
<!-- Node18&#45;&gt;Node20 -->
<g id="edge21" class="edge">
<title>Node18&#45;&gt;Node20</title>
<path fill="none" stroke="#63b8ff" d="M2016.62,-54.51C2056.18,-44.53 2119.51,-28.54 2157.99,-18.83"/>
<polygon fill="#63b8ff" stroke="#63b8ff" points="2158.77,-22.25 2167.61,-16.4 2157.05,-15.46 2158.77,-22.25"/>
</g>
<!-- Node21&#45;&gt;Node4 -->
<g id="edge24" class="edge">
<title>Node21&#45;&gt;Node4</title>
<path fill="none" stroke="#63b8ff" d="M1794.74,-73.5C1793.15,-73.67 1791.56,-73.84 1790,-74 1642.4,-89.47 1468.05,-105.71 1378.49,-113.61"/>
<polygon fill="#63b8ff" stroke="#63b8ff" points="1378.37,-110.11 1368.71,-114.47 1378.98,-117.08 1378.37,-110.11"/>
</g>
<!-- Node21&#45;&gt;Node22 -->
<g id="edge25" class="edge">
<title>Node21&#45;&gt;Node22</title>
<path fill="none" stroke="#63b8ff" d="M1848.57,-54.75C1842.42,-47.5 1833.49,-36.98 1825.87,-28.02"/>
<polygon fill="#63b8ff" stroke="#63b8ff" points="1828.71,-25.95 1819.57,-20.6 1823.38,-30.48 1828.71,-25.95"/>
</g>
<!-- Node23 -->
<g id="node23" class="node">
<title>Node23</title>
<g id="a_node23"><a xlink:title=" ">
<polygon fill="#e0e0e0" stroke="#999999" points="2015,-19 1969,-19 1969,0 2015,0 2015,-19"/>
<text text-anchor="middle" x="1992" y="-7" font-family="Helvetica,sans-Serif" font-size="10.00">math.h</text>
</a>
</g>
</g>
<!-- Node21&#45;&gt;Node23 -->
<g id="edge27" class="edge">
<title>Node21&#45;&gt;Node23</title>
<path fill="none" stroke="#63b8ff" d="M1879.07,-54.51C1900.89,-46.01 1933.88,-33.15 1958.58,-23.53"/>
<polygon fill="#63b8ff" stroke="#63b8ff" points="1959.81,-26.8 1967.86,-19.91 1957.27,-20.28 1959.81,-26.8"/>
</g>
<!-- Node22&#45;&gt;Node4 -->
<g id="edge26" class="edge">
<title>Node22&#45;&gt;Node4</title>
<path fill="none" stroke="#63b8ff" d="M1805.29,-19.35C1795.51,-33.66 1774.05,-61.53 1748,-74 1731.57,-81.86 1492.31,-103.48 1378.42,-113.4"/>
<polygon fill="#63b8ff" stroke="#63b8ff" points="1378.31,-109.9 1368.65,-114.25 1378.92,-116.87 1378.31,-109.9"/>
</g>
<!-- Node24&#45;&gt;Node4 -->
<g id="edge29" class="edge">
<title>Node24&#45;&gt;Node4</title>
<path fill="none" stroke="#63b8ff" d="M703.32,-71.94C711,-72.67 718.68,-73.37 726,-74 921.18,-90.86 1152.32,-106.82 1259.31,-114.21"/>
<polygon fill="#63b8ff" stroke="#63b8ff" points="1258.78,-117.68 1269,-114.88 1259.26,-110.7 1258.78,-117.68"/>
</g>
<!-- Node25&#45;&gt;Node10 -->
<g id="edge32" class="edge">
<title>Node25&#45;&gt;Node10</title>
<path fill="none" stroke="#63b8ff" d="M176,-109.69C187.13,-100.74 204.82,-86.48 220,-74 239.58,-57.9 261.81,-39.29 277.14,-26.4"/>
<polygon fill="#63b8ff" stroke="#63b8ff" points="279.16,-29.27 284.56,-20.15 274.65,-23.92 279.16,-29.27"/>
</g>
<!-- Node25&#45;&gt;Node15 -->
<g id="edge35" class="edge">
<title>Node25&#45;&gt;Node15</title>
<path fill="none" stroke="#63b8ff" d="M186.11,-109.66C231.28,-90.75 337.51,-46.29 391.02,-23.89"/>
<polygon fill="#63b8ff" stroke="#63b8ff" points="392.33,-27.13 400.2,-20.04 389.62,-20.68 392.33,-27.13"/>
</g>
<!-- Node26 -->
<g id="node26" class="node">
<title>Node26</title>
<g id="a_node26"><a xlink:title=" ">
<polygon fill="#e0e0e0" stroke="#999999" points="56,-19 0,-19 0,0 56,0 56,-19"/>
<text text-anchor="middle" x="28" y="-7" font-family="Helvetica,sans-Serif" font-size="10.00">algorithm</text>
</a>
</g>
</g>
<!-- Node25&#45;&gt;Node26 -->
<g id="edge33" class="edge">
<title>Node25&#45;&gt;Node26</title>
<path fill="none" stroke="#63b8ff" d="M149.13,-109.6C134.55,-101.15 112.6,-87.73 95,-74 76.34,-59.45 56.92,-40.56 43.82,-27.17"/>
<polygon fill="#63b8ff" stroke="#63b8ff" points="46.71,-25.13 37.25,-20.36 41.67,-29.99 46.71,-25.13"/>
</g>
<!-- Node27 -->
<g id="node27" class="node">
<title>Node27</title>
<g id="a_node27"><a xlink:title=" ">
<polygon fill="#e0e0e0" stroke="#999999" points="184,-19 146,-19 146,0 184,0 184,-19"/>
<text text-anchor="middle" x="165" y="-7" font-family="Helvetica,sans-Serif" font-size="10.00">array</text>
</a>
</g>
</g>
<!-- Node25&#45;&gt;Node27 -->
<g id="edge34" class="edge">
<title>Node25&#45;&gt;Node27</title>
<path fill="none" stroke="#63b8ff" d="M147,-109.57C134.07,-102.05 117.62,-89.96 110,-74 100.94,-55.01 119.56,-37.25 137.54,-25.37"/>
<polygon fill="#63b8ff" stroke="#63b8ff" points="139.29,-28.41 145.99,-20.2 135.64,-22.44 139.29,-28.41"/>
</g>
<!-- Node28 -->
<g id="node28" class="node">
<title>Node28</title>
<g id="a_node28"><a xlink:title=" ">
<polygon fill="#e0e0e0" stroke="#999999" points="120.5,-19 81.5,-19 81.5,0 120.5,0 120.5,-19"/>
<text text-anchor="middle" x="101" y="-7" font-family="Helvetica,sans-Serif" font-size="10.00">utility</text>
</a>
</g>
</g>
<!-- Node25&#45;&gt;Node28 -->
<g id="edge36" class="edge">
<title>Node25&#45;&gt;Node28</title>
<path fill="none" stroke="#63b8ff" d="M144.73,-109.64C130.63,-102.29 112.82,-90.39 104,-74 96.86,-60.74 96.48,-43.59 97.68,-30.45"/>
<polygon fill="#63b8ff" stroke="#63b8ff" points="101.11,-31.21 98.95,-20.84 94.17,-30.3 101.11,-31.21"/>
</g>
<!-- Node29 -->
<g id="node29" class="node">
<title>Node29</title>
<g id="a_node29"><a xlink:href="Vectors_8hpp.html" target="_top" xlink:title=" ">
<polygon fill="white" stroke="#666666" points="211,-74 119,-74 119,-55 211,-55 211,-74"/>
<text text-anchor="middle" x="165" y="-62" font-family="Helvetica,sans-Serif" font-size="10.00">Utils/Vectors.hpp</text>
</a>
</g>
</g>
<!-- Node25&#45;&gt;Node29 -->
<g id="edge37" class="edge">
<title>Node25&#45;&gt;Node29</title>
<path fill="none" stroke="#63b8ff" d="M165,-109.75C165,-103.27 165,-94.16 165,-85.9"/>
<polygon fill="#63b8ff" stroke="#63b8ff" points="168.5,-85.96 165,-75.96 161.5,-85.96 168.5,-85.96"/>
</g>
<!-- Node29&#45;&gt;Node10 -->
<g id="edge38" class="edge">
<title>Node29&#45;&gt;Node10</title>
<path fill="none" stroke="#63b8ff" d="M187.22,-54.51C208.14,-46.04 239.73,-33.27 263.48,-23.66"/>
<polygon fill="#63b8ff" stroke="#63b8ff" points="264.75,-26.92 272.7,-19.93 262.12,-20.43 264.75,-26.92"/>
</g>
<!-- Node29&#45;&gt;Node15 -->
<g id="edge41" class="edge">
<title>Node29&#45;&gt;Node15</title>
<path fill="none" stroke="#63b8ff" d="M208.77,-54.51C259.82,-44.02 343.1,-26.91 389.35,-17.41"/>
<polygon fill="#63b8ff" stroke="#63b8ff" points="389.97,-20.86 399.06,-15.42 388.56,-14 389.97,-20.86"/>
</g>
<!-- Node29&#45;&gt;Node26 -->
<g id="edge39" class="edge">
<title>Node29&#45;&gt;Node26</title>
<path fill="none" stroke="#63b8ff" d="M141.76,-54.51C119.68,-45.97 86.25,-33.03 61.33,-23.4"/>
<polygon fill="#63b8ff" stroke="#63b8ff" points="62.9,-20.25 52.31,-19.9 60.37,-26.78 62.9,-20.25"/>
</g>
<!-- Node29&#45;&gt;Node27 -->
<g id="edge40" class="edge">
<title>Node29&#45;&gt;Node27</title>
<path fill="none" stroke="#63b8ff" d="M165,-54.75C165,-48.27 165,-39.16 165,-30.9"/>
<polygon fill="#63b8ff" stroke="#63b8ff" points="168.5,-30.96 165,-20.96 161.5,-30.96 168.5,-30.96"/>
</g>
<!-- Node29&#45;&gt;Node28 -->
<g id="edge42" class="edge">
<title>Node29&#45;&gt;Node28</title>
<path fill="none" stroke="#63b8ff" d="M154.14,-54.51C144.89,-46.85 131.38,-35.66 120.29,-26.47"/>
<polygon fill="#63b8ff" stroke="#63b8ff" points="122.8,-24.01 112.86,-20.32 118.33,-29.4 122.8,-24.01"/>
</g>
<!-- Node30&#45;&gt;Node10 -->
<g id="edge44" class="edge">
<title>Node30&#45;&gt;Node10</title>
<path fill="none" stroke="#63b8ff" d="M401.46,-54.51C381.26,-46.08 350.83,-33.38 327.84,-23.79"/>
<polygon fill="#63b8ff" stroke="#63b8ff" points="329.2,-20.56 318.62,-19.94 326.5,-27.02 329.2,-20.56"/>
</g>
<!-- Node30&#45;&gt;Node15 -->
<g id="edge46" class="edge">
<title>Node30&#45;&gt;Node15</title>
<path fill="none" stroke="#63b8ff" d="M423,-54.75C423,-48.27 423,-39.16 423,-30.9"/>
<polygon fill="#63b8ff" stroke="#63b8ff" points="426.5,-30.96 423,-20.96 419.5,-30.96 426.5,-30.96"/>
</g>
<!-- Node30&#45;&gt;Node19 -->
<g id="edge45" class="edge">
<title>Node30&#45;&gt;Node19</title>
<path fill="none" stroke="#63b8ff" d="M464.63,-59.58C480.96,-58.08 499.85,-56.4 517,-55 742.99,-36.54 1016.39,-17.91 1100.87,-12.24"/>
<polygon fill="#63b8ff" stroke="#63b8ff" points="1101.1,-15.74 1110.85,-11.58 1100.64,-8.75 1101.1,-15.74"/>
</g>
<!-- Node31&#45;&gt;Node1 -->
<g id="edge48" class="edge">
<title>Node31&#45;&gt;Node1</title>
<path fill="none" stroke="#63b8ff" d="M1632.34,-184.2C1635.55,-193.06 1640.18,-207.25 1642,-220 1646.89,-254.21 1637.02,-293.02 1628.06,-319.16"/>
<polygon fill="#63b8ff" stroke="#63b8ff" points="1624.81,-317.85 1624.71,-328.45 1631.4,-320.23 1624.81,-317.85"/>
</g>
<!-- Node31&#45;&gt;Node20 -->
<g id="edge49" class="edge">
<title>Node31&#45;&gt;Node20</title>
<path fill="none" stroke="#63b8ff" d="M1691.98,-165.94C1793.52,-153.73 1982.85,-130.83 1990,-129 2053.96,-112.6 2072.93,-110.42 2128,-74 2147.15,-61.33 2165.2,-42.11 2177.03,-28.14"/>
<polygon fill="#63b8ff" stroke="#63b8ff" points="2179.56,-30.56 2183.2,-20.61 2174.15,-26.12 2179.56,-30.56"/>
</g>
<!-- Node32&#45;&gt;Node4 -->
<g id="edge52" class="edge">
<title>Node32&#45;&gt;Node4</title>
<path fill="none" stroke="#63b8ff" d="M1439.4,-164.51C1415.93,-155.93 1380.33,-142.92 1353.93,-133.27"/>
<polygon fill="#63b8ff" stroke="#63b8ff" points="1355.25,-130.02 1344.66,-129.88 1352.85,-136.6 1355.25,-130.02"/>
</g>
<!-- Node32&#45;&gt;Node15 -->
<g id="edge55" class="edge">
<title>Node32&#45;&gt;Node15</title>
<path fill="none" stroke="#63b8ff" d="M1395.64,-167.47C1197.29,-149.76 630.63,-97.71 550,-74 511.72,-62.74 471.07,-40.33 446.35,-25.37"/>
<polygon fill="#63b8ff" stroke="#63b8ff" points="448.43,-22.54 438.08,-20.27 444.75,-28.5 448.43,-22.54"/>
</g>
<!-- Node32&#45;&gt;Node22 -->
<g id="edge53" class="edge">
<title>Node32&#45;&gt;Node22</title>
<path fill="none" stroke="#63b8ff" d="M1532.28,-165.15C1691.97,-145.31 2077.71,-95.4 2096,-74 2101.49,-67.58 2101.49,-61.42 2096,-55 2081.41,-37.96 1947.62,-22.97 1868.64,-15.51"/>
<polygon fill="#63b8ff" stroke="#63b8ff" points="1869.19,-12.05 1858.91,-14.61 1868.54,-19.02 1869.19,-12.05"/>
</g>
<!-- Node32&#45;&gt;Node23 -->
<g id="edge54" class="edge">
<title>Node32&#45;&gt;Node23</title>
<path fill="none" stroke="#63b8ff" d="M1532.28,-166.72C1641.94,-155.75 1848.47,-134.77 1882,-129 1985.58,-111.18 2046.89,-156.51 2112,-74 2137.87,-41.22 2070.46,-23.4 2026.49,-15.53"/>
<polygon fill="#63b8ff" stroke="#63b8ff" points="2027.28,-12.11 2016.84,-13.91 2026.12,-19.02 2027.28,-12.11"/>
</g>
<!-- Node33 -->
<g id="node33" class="node">
<title>Node33</title>
<g id="a_node33"><a xlink:title=" ">
<polygon fill="#e0e0e0" stroke="#999999" points="1486,-129 1442,-129 1442,-110 1486,-110 1486,-129"/>
<text text-anchor="middle" x="1464" y="-117" font-family="Helvetica,sans-Serif" font-size="10.00">cmath</text>
</a>
</g>
</g>
<!-- Node32&#45;&gt;Node33 -->
<g id="edge56" class="edge">
<title>Node32&#45;&gt;Node33</title>
<path fill="none" stroke="#63b8ff" d="M1464,-164.75C1464,-158.27 1464,-149.16 1464,-140.9"/>
<polygon fill="#63b8ff" stroke="#63b8ff" points="1467.5,-140.96 1464,-130.96 1460.5,-140.96 1467.5,-140.96"/>
</g>
<!-- Node34&#45;&gt;Node2 -->
<g id="edge58" class="edge">
<title>Node34&#45;&gt;Node2</title>
<path fill="none" stroke="#63b8ff" d="M1550.13,-274.51C1530.58,-266.08 1501.1,-253.38 1478.83,-243.79"/>
<polygon fill="#63b8ff" stroke="#63b8ff" points="1480.52,-240.7 1469.95,-239.96 1477.75,-247.13 1480.52,-240.7"/>
</g>
<!-- Node35 -->
<g id="node35" class="node">
<title>Node35</title>
<g id="a_node35"><a xlink:href="Bouton_8hpp.html" target="_top" xlink:title=" ">
<polygon fill="white" stroke="#666666" points="1632.5,-239 1509.5,-239 1509.5,-220 1632.5,-220 1632.5,-239"/>
<text text-anchor="middle" x="1571" y="-227" font-family="Helvetica,sans-Serif" font-size="10.00">Components/Bouton.hpp</text>
</a>
</g>
</g>
<!-- Node34&#45;&gt;Node35 -->
<g id="edge59" class="edge">
<title>Node34&#45;&gt;Node35</title>
<path fill="none" stroke="#63b8ff" d="M1571,-274.75C1571,-268.27 1571,-259.16 1571,-250.9"/>
<polygon fill="#63b8ff" stroke="#63b8ff" points="1574.5,-250.96 1571,-240.96 1567.5,-250.96 1574.5,-250.96"/>
</g>
<!-- Node35&#45;&gt;Node4 -->
<g id="edge60" class="edge">
<title>Node35&#45;&gt;Node4</title>
<path fill="none" stroke="#63b8ff" d="M1521.68,-219.51C1475.41,-210.56 1410,-196.39 1387,-184 1365.54,-172.43 1345.74,-152.43 1333.11,-137.96"/>
<polygon fill="#63b8ff" stroke="#63b8ff" points="1336,-135.95 1326.88,-130.56 1330.64,-140.46 1336,-135.95"/>
</g>
<!-- Node36 -->
<g id="node36" class="node">
<title>Node36</title>
<g id="a_node36"><a xlink:title=" ">
<polygon fill="#e0e0e0" stroke="#999999" points="1768.5,-184 1709.5,-184 1709.5,-165 1768.5,-165 1768.5,-184"/>
<text text-anchor="middle" x="1739" y="-172" font-family="Helvetica,sans-Serif" font-size="10.00">functional</text>
</a>
</g>
</g>
<!-- Node35&#45;&gt;Node36 -->
<g id="edge61" class="edge">
<title>Node35&#45;&gt;Node36</title>
<path fill="none" stroke="#63b8ff" d="M1599.5,-219.51C1627.1,-210.8 1669.16,-197.53 1699.88,-187.84"/>
<polygon fill="#63b8ff" stroke="#63b8ff" points="1700.72,-191.25 1709.2,-184.9 1698.61,-184.57 1700.72,-191.25"/>
</g>
<!-- Node37&#45;&gt;Node2 -->
<g id="edge63" class="edge">
<title>Node37&#45;&gt;Node2</title>
<path fill="none" stroke="#63b8ff" d="M2110.63,-281.96C2007.22,-277.99 1737.81,-265.86 1503.08,-239.26"/>
<polygon fill="#63b8ff" stroke="#63b8ff" points="1503.77,-235.81 1493.44,-238.15 1502.97,-242.77 1503.77,-235.81"/>
</g>
<!-- Node37&#45;&gt;Node12 -->
<g id="edge66" class="edge">
<title>Node37&#45;&gt;Node12</title>
<path fill="none" stroke="#63b8ff" d="M2150.44,-274.68C2137.39,-242.36 2092,-129.9 2073.72,-84.61"/>
<polygon fill="#63b8ff" stroke="#63b8ff" points="2077.06,-83.55 2070.07,-75.59 2070.57,-86.17 2077.06,-83.55"/>
</g>
<!-- Node37&#45;&gt;Node20 -->
<g id="edge64" class="edge">
<title>Node37&#45;&gt;Node20</title>
<path fill="none" stroke="#63b8ff" d="M2197.49,-282.08C2233.58,-278.68 2284.14,-268.48 2317,-239 2339.58,-218.75 2342,-205.83 2342,-175.5 2342,-175.5 2342,-175.5 2342,-118.5 2342,-60.83 2268.24,-31.02 2223.82,-18.29"/>
<polygon fill="#63b8ff" stroke="#63b8ff" points="2224.98,-14.98 2214.42,-15.75 2223.16,-21.74 2224.98,-14.98"/>
</g>
<!-- Node37&#45;&gt;Node27 -->
<g id="edge65" class="edge">
<title>Node37&#45;&gt;Node27</title>
<path fill="none" stroke="#63b8ff" d="M2110.82,-282.18C1830.21,-273.45 277,-223.01 277,-175.5 277,-175.5 277,-175.5 277,-118.5 277,-72.55 227.56,-39.99 194.37,-23.3"/>
<polygon fill="#63b8ff" stroke="#63b8ff" points="196.15,-20.27 185.62,-19.1 193.12,-26.58 196.15,-20.27"/>
</g>
<!-- Node38 -->
<g id="node38" class="node">
<title>Node38</title>
<g id="a_node38"><a xlink:title=" ">
<polygon fill="#e0e0e0" stroke="#999999" points="2308,-239 2262,-239 2262,-220 2308,-220 2308,-239"/>
<text text-anchor="middle" x="2285" y="-227" font-family="Helvetica,sans-Serif" font-size="10.00">cstring</text>
</a>
</g>
</g>
<!-- Node37&#45;&gt;Node38 -->
<g id="edge67" class="edge">
<title>Node37&#45;&gt;Node38</title>
<path fill="none" stroke="#63b8ff" d="M2176.22,-274.51C2197.14,-266.04 2228.73,-253.27 2252.48,-243.66"/>
<polygon fill="#63b8ff" stroke="#63b8ff" points="2253.75,-246.92 2261.7,-239.93 2251.12,-240.43 2253.75,-246.92"/>
</g>
<!-- Node39 -->
<g id="node39" class="node">
<title>Node39</title>
<g id="a_node39"><a xlink:href="Global_8hpp.html" target="_top" xlink:title=" ">
<polygon fill="white" stroke="#666666" points="2244,-239 2182,-239 2182,-220 2244,-220 2244,-239"/>
<text text-anchor="middle" x="2213" y="-227" font-family="Helvetica,sans-Serif" font-size="10.00">Global.hpp</text>
</a>
</g>
</g>
<!-- Node37&#45;&gt;Node39 -->
<g id="edge68" class="edge">
<title>Node37&#45;&gt;Node39</title>
<path fill="none" stroke="#63b8ff" d="M2164.01,-274.51C2172.37,-267 2184.5,-256.1 2194.6,-247.03"/>
<polygon fill="#63b8ff" stroke="#63b8ff" points="2196.91,-249.66 2202.01,-240.37 2192.24,-244.45 2196.91,-249.66"/>
</g>
<!-- Node40 -->
<g id="node40" class="node">
<title>Node40</title>
<g id="a_node40"><a xlink:title=" ">
<polygon fill="#e0e0e0" stroke="#999999" points="2244,-184 2182,-184 2182,-165 2244,-165 2244,-184"/>
<text text-anchor="middle" x="2213" y="-172" font-family="Helvetica,sans-Serif" font-size="10.00">Skaldi.hpp</text>
</a>
</g>
</g>
<!-- Node39&#45;&gt;Node40 -->
<g id="edge69" class="edge">
<title>Node39&#45;&gt;Node40</title>
<path fill="none" stroke="#63b8ff" d="M2213,-219.75C2213,-213.27 2213,-204.16 2213,-195.9"/>
<polygon fill="#63b8ff" stroke="#63b8ff" points="2216.5,-195.96 2213,-185.96 2209.5,-195.96 2216.5,-195.96"/>
</g>
<!-- Node41 -->
<g id="node41" class="node">
<title>Node41</title>
<g id="a_node41"><a xlink:title=" ">
<polygon fill="#e0e0e0" stroke="#999999" points="2313.5,-184 2262.5,-184 2262.5,-165 2313.5,-165 2313.5,-184"/>
<text text-anchor="middle" x="2288" y="-172" font-family="Helvetica,sans-Serif" font-size="10.00">memory</text>
</a>
</g>
</g>
<!-- Node39&#45;&gt;Node41 -->
<g id="edge70" class="edge">
<title>Node39&#45;&gt;Node41</title>
<path fill="none" stroke="#63b8ff" d="M2225.72,-219.51C2236.78,-211.7 2253.04,-200.21 2266.17,-190.93"/>
<polygon fill="#63b8ff" stroke="#63b8ff" points="2268.08,-193.86 2274.23,-185.23 2264.04,-188.14 2268.08,-193.86"/>
</g>
</g>
</svg>
        <g id="navigator" transform="translate(0 0)" fill="#404254">
                <rect fill="#f2f5e9" fill-opacity="0.5" stroke="#606060" stroke-width=".5" x="0" y="0" width="60" height="60"/>
                <use id="zoomplus" xlink:href="#zoomPlus" x="17" y="9" onmousedown="handleZoom(evt,'in')"/>
                <use id="zoomminus" xlink:href="#zoomMin" x="42" y="9" onmousedown="handleZoom(evt,'out')"/>
                <use id="reset" xlink:href="#resetDef" x="30" y="36" onmousedown="handleReset()"/>
                <g id="arrowUp" xlink:href="#dirArrow" transform="translate(30 24)" onmousedown="handlePan(0,-1)">
                  <use xlink:href="#rim" fill="#404040">
                        <set attributeName="fill" to="#808080" begin="arrowUp.mouseover" end="arrowUp.mouseout"/>
                  </use>
                  <path fill="none" stroke="white" stroke-width="1.5" d="M0,-3.0v7 M-2.5,-0.5L0,-3.0L2.5,-0.5"/>
                </g>
                <g id="arrowRight" xlink:href="#dirArrow" transform="rotate(90) translate(36 -43)" onmousedown="handlePan(1,0)">
                  <use xlink:href="#rim" fill="#404040">
                        <set attributeName="fill" to="#808080" begin="arrowRight.mouseover" end="arrowRight.mouseout"/>
                  </use>
                  <path fill="none" stroke="white" stroke-width="1.5" d="M0,-3.0v7 M-2.5,-0.5L0,-3.0L2.5,-0.5"/>
                </g>
                <g id="arrowDown" xlink:href="#dirArrow" transform="rotate(180) translate(-30 -48)" onmousedown="handlePan(0,1)">
                  <use xlink:href="#rim" fill="#404040">
                        <set attributeName="fill" to="#808080" begin="arrowDown.mouseover" end="arrowDown.mouseout"/>
                  </use>
                  <path fill="none" stroke="white" stroke-width="1.5" d="M0,-3.0v7 M-2.5,-0.5L0,-3.0L2.5,-0.5"/>
                </g>
                <g id="arrowLeft" xlink:href="#dirArrow" transform="rotate(270) translate(-36 17)" onmousedown="handlePan(-1,0)">
                  <use xlink:href="#rim" fill="#404040">
                        <set attributeName="fill" to="#808080" begin="arrowLeft.mouseover" end="arrowLeft.mouseout"/>
                  </use>
                  <path fill="none" stroke="white" stroke-width="1.5" d="M0,-3.0v7 M-2.5,-0.5L0,-3.0L2.5,-0.5"/>
                </g>
        </g>
        <svg viewBox="0 0 15 15" width="100%" height="30px" preserveAspectRatio="xMaxYMin meet">
         <g id="arrow_out" transform="scale(0.3 0.3)">
          <a xlink:href="States_8hpp__incl_org.svg" target="_base">
           <rect id="button" ry="5" rx="5" y="6" x="6" height="38" width="38"
                fill="#f2f5e9" fill-opacity="0.5" stroke="#606060" stroke-width="1.0"/>
           <path id="arrow"
             d="M 11.500037,31.436501 C 11.940474,20.09759 22.043105,11.32322 32.158766,21.979434 L 37.068811,17.246167 C 37.068811,17.246167 37.088388,32 37.088388,32 L 22.160133,31.978069 C 22.160133,31.978069 26.997745,27.140456 26.997745,27.140456 C 18.528582,18.264221 13.291696,25.230495 11.500037,31.436501 z"
             style="fill:#404040;"/>
          </a>
         </g>
        </svg>
</svg>
