<?xml version="1.0" encoding="UTF-8" standalone="no"?>
<!DOCTYPE svg PUBLIC "-//W3C//DTD SVG 1.1//EN"
 "http://www.w3.org/Graphics/SVG/1.1/DTD/svg11.dtd">
<!-- Generated by graphviz version 7.0.5 (20221223.1930)
 -->
<!-- Title: /github/workspace/client/src/StateManager.cpp Pages: 1 -->
<svg width="2299pt" height="588pt"
 viewBox="0.00 0.00 2299.00 588.00" xmlns="http://www.w3.org/2000/svg" xmlns:xlink="http://www.w3.org/1999/xlink">
<g id="graph0" class="graph" transform="scale(1 1) rotate(0) translate(4 584)">
<title>/github/workspace/client/src/StateManager.cpp</title>
<!-- Node1 -->
<g id="node1" class="node">
<title>Node1</title>
<g id="a_node1"><a xlink:title=" ">
<polygon fill="#999999" stroke="#666666" points="1968,-580 1846,-580 1846,-550 1968,-550 1968,-580"/>
<text text-anchor="start" x="1854" y="-568" font-family="Helvetica,sans-Serif" font-size="10.00">/github/workspace/client</text>
<text text-anchor="middle" x="1907" y="-557" font-family="Helvetica,sans-Serif" font-size="10.00">/src/StateManager.cpp</text>
</a>
</g>
</g>
<!-- Node2 -->
<g id="node2" class="node">
<title>Node2</title>
<g id="a_node2"><a xlink:href="StateManager_8hpp.html" target="_top" xlink:title=" ">
<polygon fill="white" stroke="#666666" points="1768,-294 1640,-294 1640,-275 1768,-275 1768,-294"/>
<text text-anchor="middle" x="1704" y="-282" font-family="Helvetica,sans-Serif" font-size="10.00">Engine/StateManager.hpp</text>
</a>
</g>
</g>
<!-- Node1&#45;&gt;Node2 -->
<g id="edge1" class="edge">
<title>Node1&#45;&gt;Node2</title>
<path fill="none" stroke="#63b8ff" d="M1866.13,-549.55C1826.4,-532.58 1772,-500.26 1772,-450.5 1772,-450.5 1772,-450.5 1772,-393.5 1772,-356.44 1742.98,-321.71 1722.85,-302.08"/>
<polygon fill="#63b8ff" stroke="#63b8ff" points="1725.43,-299.7 1715.73,-295.43 1720.65,-304.81 1725.43,-299.7"/>
</g>
<!-- Node33 -->
<g id="node33" class="node">
<title>Node33</title>
<g id="a_node33"><a xlink:href="GameEngine_8hpp.html" target="_top" xlink:title=" ">
<polygon fill="white" stroke="#666666" points="2081.5,-514 1956.5,-514 1956.5,-495 2081.5,-495 2081.5,-514"/>
<text text-anchor="middle" x="2019" y="-502" font-family="Helvetica,sans-Serif" font-size="10.00">system/GameEngine.hpp</text>
</a>
</g>
</g>
<!-- Node1&#45;&gt;Node33 -->
<g id="edge47" class="edge">
<title>Node1&#45;&gt;Node33</title>
<path fill="none" stroke="#63b8ff" d="M1934.69,-549.54C1952.17,-540.4 1974.66,-528.66 1992.01,-519.6"/>
<polygon fill="#63b8ff" stroke="#63b8ff" points="1993.48,-522.78 2000.72,-515.05 1990.24,-516.57 1993.48,-522.78"/>
</g>
<!-- Node3 -->
<g id="node3" class="node">
<title>Node3</title>
<g id="a_node3"><a xlink:href="Engine_8hpp.html" target="_top" xlink:title=" ">
<polygon fill="white" stroke="#666666" points="1274,-239 1178,-239 1178,-220 1274,-220 1274,-239"/>
<text text-anchor="middle" x="1226" y="-227" font-family="Helvetica,sans-Serif" font-size="10.00">Engine/Engine.hpp</text>
</a>
</g>
</g>
<!-- Node2&#45;&gt;Node3 -->
<g id="edge2" class="edge">
<title>Node2&#45;&gt;Node3</title>
<path fill="none" stroke="#63b8ff" d="M1639.53,-276.35C1546.52,-266.04 1375.96,-247.13 1285.69,-237.12"/>
<polygon fill="#63b8ff" stroke="#63b8ff" points="1286.12,-233.65 1275.8,-236.02 1285.35,-240.6 1286.12,-233.65"/>
</g>
<!-- Node18 -->
<g id="node18" class="node">
<title>Node18</title>
<g id="a_node18"><a xlink:href="Window_8hpp.html" target="_top" xlink:title=" ">
<polygon fill="white" stroke="#666666" points="1884.5,-184 1783.5,-184 1783.5,-165 1884.5,-165 1884.5,-184"/>
<text text-anchor="middle" x="1834" y="-172" font-family="Helvetica,sans-Serif" font-size="10.00">Engine/Window.hpp</text>
</a>
</g>
</g>
<!-- Node2&#45;&gt;Node18 -->
<g id="edge46" class="edge">
<title>Node2&#45;&gt;Node18</title>
<path fill="none" stroke="#63b8ff" d="M1714.64,-274.66C1736.44,-256.55 1786.5,-214.96 1814.37,-191.81"/>
<polygon fill="#63b8ff" stroke="#63b8ff" points="1816.6,-194.51 1822.05,-185.43 1812.12,-189.13 1816.6,-194.51"/>
</g>
<!-- Node4 -->
<g id="node4" class="node">
<title>Node4</title>
<g id="a_node4"><a xlink:title=" ">
<polygon fill="#e0e0e0" stroke="#999999" points="1458.5,-184 1369.5,-184 1369.5,-165 1458.5,-165 1458.5,-184"/>
<text text-anchor="middle" x="1414" y="-172" font-family="Helvetica,sans-Serif" font-size="10.00">SFML/Audio.hpp</text>
</a>
</g>
</g>
<!-- Node3&#45;&gt;Node4 -->
<g id="edge3" class="edge">
<title>Node3&#45;&gt;Node4</title>
<path fill="none" stroke="#63b8ff" d="M1257.89,-219.51C1289.18,-210.69 1337.09,-197.18 1371.58,-187.46"/>
<polygon fill="#63b8ff" stroke="#63b8ff" points="1372.13,-190.94 1380.81,-184.86 1370.23,-184.2 1372.13,-190.94"/>
</g>
<!-- Node5 -->
<g id="node5" class="node">
<title>Node5</title>
<g id="a_node5"><a xlink:title=" ">
<polygon fill="#e0e0e0" stroke="#999999" points="420,-184 316,-184 316,-165 420,-165 420,-184"/>
<text text-anchor="middle" x="368" y="-172" font-family="Helvetica,sans-Serif" font-size="10.00">SFML/Graphics.hpp</text>
</a>
</g>
</g>
<!-- Node3&#45;&gt;Node5 -->
<g id="edge4" class="edge">
<title>Node3&#45;&gt;Node5</title>
<path fill="none" stroke="#63b8ff" d="M1177.83,-227.2C1055.15,-223.59 720.74,-211.88 431.35,-184.14"/>
<polygon fill="#63b8ff" stroke="#63b8ff" points="432.01,-180.69 421.72,-183.21 431.33,-187.66 432.01,-180.69"/>
</g>
<!-- Node6 -->
<g id="node6" class="node">
<title>Node6</title>
<g id="a_node6"><a xlink:title=" ">
<polygon fill="#e0e0e0" stroke="#999999" points="539.5,-184 438.5,-184 438.5,-165 539.5,-165 539.5,-184"/>
<text text-anchor="middle" x="489" y="-172" font-family="Helvetica,sans-Serif" font-size="10.00">SFML/Network.hpp</text>
</a>
</g>
</g>
<!-- Node3&#45;&gt;Node6 -->
<g id="edge5" class="edge">
<title>Node3&#45;&gt;Node6</title>
<path fill="none" stroke="#63b8ff" d="M1177.8,-226.62C1068.33,-222.08 792.32,-209.07 551.27,-184.27"/>
<polygon fill="#63b8ff" stroke="#63b8ff" points="551.63,-180.79 541.32,-183.23 550.91,-187.75 551.63,-180.79"/>
</g>
<!-- Node7 -->
<g id="node7" class="node">
<title>Node7</title>
<g id="a_node7"><a xlink:title=" ">
<polygon fill="#e0e0e0" stroke="#999999" points="656.5,-184 557.5,-184 557.5,-165 656.5,-165 656.5,-184"/>
<text text-anchor="middle" x="607" y="-172" font-family="Helvetica,sans-Serif" font-size="10.00">SFML/Window.hpp</text>
</a>
</g>
</g>
<!-- Node3&#45;&gt;Node7 -->
<g id="edge6" class="edge">
<title>Node3&#45;&gt;Node7</title>
<path fill="none" stroke="#63b8ff" d="M1177.59,-225.7C1082.27,-219.95 863.31,-205.63 668.2,-184.17"/>
<polygon fill="#63b8ff" stroke="#63b8ff" points="668.69,-180.7 658.37,-183.08 667.92,-187.66 668.69,-180.7"/>
</g>
<!-- Node8 -->
<g id="node8" class="node">
<title>Node8</title>
<g id="a_node8"><a xlink:title=" ">
<polygon fill="#e0e0e0" stroke="#999999" points="1275,-184 1177,-184 1177,-165 1275,-165 1275,-184"/>
<text text-anchor="middle" x="1226" y="-172" font-family="Helvetica,sans-Serif" font-size="10.00">SFML/System.hpp</text>
</a>
</g>
</g>
<!-- Node3&#45;&gt;Node8 -->
<g id="edge7" class="edge">
<title>Node3&#45;&gt;Node8</title>
<path fill="none" stroke="#63b8ff" d="M1226,-219.75C1226,-213.27 1226,-204.16 1226,-195.9"/>
<polygon fill="#63b8ff" stroke="#63b8ff" points="1229.5,-195.96 1226,-185.96 1222.5,-195.96 1229.5,-195.96"/>
</g>
<!-- Node9 -->
<g id="node9" class="node">
<title>Node9</title>
<g id="a_node9"><a xlink:title=" ">
<polygon fill="#e0e0e0" stroke="#999999" points="1687,-19 1633,-19 1633,0 1687,0 1687,-19"/>
<text text-anchor="middle" x="1660" y="-7" font-family="Helvetica,sans-Serif" font-size="10.00">iostream</text>
</a>
</g>
</g>
<!-- Node3&#45;&gt;Node9 -->
<g id="edge8" class="edge">
<title>Node3&#45;&gt;Node9</title>
<path fill="none" stroke="#63b8ff" d="M1274.37,-226.29C1375.19,-221.23 1600.55,-207.42 1626,-184 1669.23,-144.21 1666.82,-66.91 1662.85,-30.45"/>
<polygon fill="#63b8ff" stroke="#63b8ff" points="1666.37,-30.37 1661.65,-20.89 1659.43,-31.25 1666.37,-30.37"/>
</g>
<!-- Node10 -->
<g id="node10" class="node">
<title>Node10</title>
<g id="a_node10"><a xlink:title=" ">
<polygon fill="#e0e0e0" stroke="#999999" points="725,-184 675,-184 675,-165 725,-165 725,-184"/>
<text text-anchor="middle" x="700" y="-172" font-family="Helvetica,sans-Serif" font-size="10.00">fstream</text>
</a>
</g>
</g>
<!-- Node3&#45;&gt;Node10 -->
<g id="edge9" class="edge">
<title>Node3&#45;&gt;Node10</title>
<path fill="none" stroke="#63b8ff" d="M1177.84,-226.62C1091.33,-222.71 903.78,-211.78 736.41,-184.14"/>
<polygon fill="#63b8ff" stroke="#63b8ff" points="737.09,-180.71 726.65,-182.5 735.93,-187.61 737.09,-180.71"/>
</g>
<!-- Node11 -->
<g id="node11" class="node">
<title>Node11</title>
<g id="a_node11"><a xlink:title=" ">
<polygon fill="#e0e0e0" stroke="#999999" points="791,-184 743,-184 743,-165 791,-165 791,-184"/>
<text text-anchor="middle" x="767" y="-172" font-family="Helvetica,sans-Serif" font-size="10.00">string.h</text>
</a>
</g>
</g>
<!-- Node3&#45;&gt;Node11 -->
<g id="edge10" class="edge">
<title>Node3&#45;&gt;Node11</title>
<path fill="none" stroke="#63b8ff" d="M1177.76,-225.79C1100.46,-220.95 943.97,-209.06 802.45,-184.19"/>
<polygon fill="#63b8ff" stroke="#63b8ff" points="803.37,-180.8 792.91,-182.49 802.14,-187.69 803.37,-180.8"/>
</g>
<!-- Node12 -->
<g id="node12" class="node">
<title>Node12</title>
<g id="a_node12"><a xlink:title=" ">
<polygon fill="#e0e0e0" stroke="#999999" points="859,-184 809,-184 809,-165 859,-165 859,-184"/>
<text text-anchor="middle" x="834" y="-172" font-family="Helvetica,sans-Serif" font-size="10.00">unistd.h</text>
</a>
</g>
</g>
<!-- Node3&#45;&gt;Node12 -->
<g id="edge11" class="edge">
<title>Node3&#45;&gt;Node12</title>
<path fill="none" stroke="#63b8ff" d="M1177.65,-224.37C1110.75,-218.24 986.01,-205.33 870.34,-184.22"/>
<polygon fill="#63b8ff" stroke="#63b8ff" points="871.13,-180.81 860.66,-182.43 869.86,-187.69 871.13,-180.81"/>
</g>
<!-- Node13 -->
<g id="node13" class="node">
<title>Node13</title>
<g id="a_node13"><a xlink:title=" ">
<polygon fill="#e0e0e0" stroke="#999999" points="942.5,-184 877.5,-184 877.5,-165 942.5,-165 942.5,-184"/>
<text text-anchor="middle" x="910" y="-172" font-family="Helvetica,sans-Serif" font-size="10.00">sys/types.h</text>
</a>
</g>
</g>
<!-- Node3&#45;&gt;Node13 -->
<g id="edge12" class="edge">
<title>Node3&#45;&gt;Node13</title>
<path fill="none" stroke="#63b8ff" d="M1177.89,-221.26C1125.4,-213.24 1038.61,-199.6 954.09,-184.32"/>
<polygon fill="#63b8ff" stroke="#63b8ff" points="954.95,-180.92 944.48,-182.57 953.69,-187.81 954.95,-180.92"/>
</g>
<!-- Node14 -->
<g id="node14" class="node">
<title>Node14</title>
<g id="a_node14"><a xlink:title=" ">
<polygon fill="#e0e0e0" stroke="#999999" points="1401,-19 1357,-19 1357,0 1401,0 1401,-19"/>
<text text-anchor="middle" x="1379" y="-7" font-family="Helvetica,sans-Serif" font-size="10.00">vector</text>
</a>
</g>
</g>
<!-- Node3&#45;&gt;Node14 -->
<g id="edge13" class="edge">
<title>Node3&#45;&gt;Node14</title>
<path fill="none" stroke="#63b8ff" d="M1248.51,-219.58C1264.87,-212.14 1286.58,-200.15 1301,-184 1342.53,-137.49 1365.23,-65.21 1374.28,-30.47"/>
<polygon fill="#63b8ff" stroke="#63b8ff" points="1377.63,-31.5 1376.65,-20.95 1370.84,-29.82 1377.63,-31.5"/>
</g>
<!-- Node15 -->
<g id="node15" class="node">
<title>Node15</title>
<g id="a_node15"><a xlink:title=" ">
<polygon fill="#e0e0e0" stroke="#999999" points="1017,-184 961,-184 961,-165 1017,-165 1017,-184"/>
<text text-anchor="middle" x="989" y="-172" font-family="Helvetica,sans-Serif" font-size="10.00">stdbool.h</text>
</a>
</g>
</g>
<!-- Node3&#45;&gt;Node15 -->
<g id="edge14" class="edge">
<title>Node3&#45;&gt;Node15</title>
<path fill="none" stroke="#63b8ff" d="M1185.38,-219.55C1147.33,-211.14 1088.56,-198.11 1028.5,-184.55"/>
<polygon fill="#63b8ff" stroke="#63b8ff" points="1029.28,-181.14 1018.75,-182.35 1027.74,-187.97 1029.28,-181.14"/>
</g>
<!-- Node16 -->
<g id="node16" class="node">
<title>Node16</title>
<g id="a_node16"><a xlink:title=" ">
<polygon fill="#e0e0e0" stroke="#999999" points="1082.5,-184 1035.5,-184 1035.5,-165 1082.5,-165 1082.5,-184"/>
<text text-anchor="middle" x="1059" y="-172" font-family="Helvetica,sans-Serif" font-size="10.00">stdlib.h</text>
</a>
</g>
</g>
<!-- Node3&#45;&gt;Node16 -->
<g id="edge15" class="edge">
<title>Node3&#45;&gt;Node16</title>
<path fill="none" stroke="#63b8ff" d="M1197.67,-219.51C1168.91,-210.38 1124.35,-196.24 1093.54,-186.46"/>
<polygon fill="#63b8ff" stroke="#63b8ff" points="1094.89,-183.22 1084.3,-183.53 1092.78,-189.89 1094.89,-183.22"/>
</g>
<!-- Node17 -->
<g id="node17" class="node">
<title>Node17</title>
<g id="a_node17"><a xlink:title=" ">
<polygon fill="#e0e0e0" stroke="#999999" points="1159,-184 1101,-184 1101,-165 1159,-165 1159,-184"/>
<text text-anchor="middle" x="1130" y="-172" font-family="Helvetica,sans-Serif" font-size="10.00">exception</text>
</a>
</g>
</g>
<!-- Node3&#45;&gt;Node17 -->
<g id="edge16" class="edge">
<title>Node3&#45;&gt;Node17</title>
<path fill="none" stroke="#63b8ff" d="M1209.71,-219.51C1195.01,-211.39 1173.11,-199.3 1155.98,-189.85"/>
<polygon fill="#63b8ff" stroke="#63b8ff" points="1157.82,-186.86 1147.37,-185.09 1154.43,-192.99 1157.82,-186.86"/>
</g>
<!-- Node3&#45;&gt;Node18 -->
<g id="edge17" class="edge">
<title>Node3&#45;&gt;Node18</title>
<path fill="none" stroke="#63b8ff" d="M1274.48,-225.2C1369.07,-218.94 1584.28,-204.12 1765,-184 1767.29,-183.75 1769.62,-183.47 1771.98,-183.19"/>
<polygon fill="#63b8ff" stroke="#63b8ff" points="1772.19,-186.69 1781.67,-181.95 1771.31,-179.74 1772.19,-186.69"/>
</g>
<!-- Node19 -->
<g id="node19" class="node">
<title>Node19</title>
<g id="a_node19"><a xlink:href="Event_8hpp.html" target="_top" xlink:title=" ">
<polygon fill="white" stroke="#666666" points="1765,-184 1673,-184 1673,-165 1765,-165 1765,-184"/>
<text text-anchor="middle" x="1719" y="-172" font-family="Helvetica,sans-Serif" font-size="10.00">Engine/Event.hpp</text>
</a>
</g>
</g>
<!-- Node3&#45;&gt;Node19 -->
<g id="edge19" class="edge">
<title>Node3&#45;&gt;Node19</title>
<path fill="none" stroke="#63b8ff" d="M1274.29,-223.61C1353.11,-216.05 1513.85,-200.63 1650,-184 1653.77,-183.54 1657.67,-183.04 1661.61,-182.52"/>
<polygon fill="#63b8ff" stroke="#63b8ff" points="1661.82,-186.02 1671.27,-181.23 1660.89,-179.09 1661.82,-186.02"/>
</g>
<!-- Node23 -->
<g id="node23" class="node">
<title>Node23</title>
<g id="a_node23"><a xlink:href="EntitiesManager_8hpp.html" target="_top" xlink:title=" ">
<polygon fill="white" stroke="#666666" points="1617,-184 1477,-184 1477,-165 1617,-165 1617,-184"/>
<text text-anchor="middle" x="1547" y="-172" font-family="Helvetica,sans-Serif" font-size="10.00">Entities/EntitiesManager.hpp</text>
</a>
</g>
</g>
<!-- Node3&#45;&gt;Node23 -->
<g id="edge24" class="edge">
<title>Node3&#45;&gt;Node23</title>
<path fill="none" stroke="#63b8ff" d="M1274.19,-219.69C1327.86,-210.5 1414.98,-196.1 1476.34,-186.25"/>
<polygon fill="#63b8ff" stroke="#63b8ff" points="1476.67,-189.74 1485.99,-184.7 1475.57,-182.83 1476.67,-189.74"/>
</g>
<!-- Node30 -->
<g id="node30" class="node">
<title>Node30</title>
<g id="a_node30"><a xlink:href="Bullets_8hpp.html" target="_top" xlink:title=" ">
<polygon fill="white" stroke="#666666" points="298,-184 176,-184 176,-165 298,-165 298,-184"/>
<text text-anchor="middle" x="237" y="-172" font-family="Helvetica,sans-Serif" font-size="10.00">Components/Bullets.hpp</text>
</a>
</g>
</g>
<!-- Node3&#45;&gt;Node30 -->
<g id="edge40" class="edge">
<title>Node3&#45;&gt;Node30</title>
<path fill="none" stroke="#63b8ff" d="M1177.96,-227.5C1041.99,-224.28 643.32,-212.76 309.83,-184.99"/>
<polygon fill="#63b8ff" stroke="#63b8ff" points="310.26,-181.52 300,-184.17 309.67,-188.49 310.26,-181.52"/>
</g>
<!-- Node32 -->
<g id="node32" class="node">
<title>Node32</title>
<g id="a_node32"><a xlink:href="Background_8hpp.html" target="_top" xlink:title=" ">
<polygon fill="white" stroke="#666666" points="2047,-184 1903,-184 1903,-165 2047,-165 2047,-184"/>
<text text-anchor="middle" x="1975" y="-172" font-family="Helvetica,sans-Serif" font-size="10.00">Components/Background.hpp</text>
</a>
</g>
</g>
<!-- Node3&#45;&gt;Node32 -->
<g id="edge44" class="edge">
<title>Node3&#45;&gt;Node32</title>
<path fill="none" stroke="#63b8ff" d="M1274.42,-225.64C1383.58,-219.41 1656.58,-203.59 1885,-184 1887.17,-183.81 1889.36,-183.62 1891.58,-183.42"/>
<polygon fill="#63b8ff" stroke="#63b8ff" points="1891.69,-186.93 1901.32,-182.51 1891.04,-179.96 1891.69,-186.93"/>
</g>
<!-- Node18&#45;&gt;Node3 -->
<g id="edge18" class="edge">
<title>Node18&#45;&gt;Node3</title>
<path fill="none" stroke="#63b8ff" d="M1782.73,-184.03C1602.37,-204.1 1387.75,-218.89 1285.59,-225.17"/>
<polygon fill="#63b8ff" stroke="#63b8ff" points="1285.57,-221.67 1275.8,-225.77 1285.99,-228.65 1285.57,-221.67"/>
</g>
<!-- Node19&#45;&gt;Node3 -->
<g id="edge20" class="edge">
<title>Node19&#45;&gt;Node3</title>
<path fill="none" stroke="#63b8ff" d="M1672.76,-183.41C1671.16,-183.61 1669.57,-183.81 1668,-184 1531.74,-200.65 1370.84,-216.08 1285.66,-223.63"/>
<polygon fill="#63b8ff" stroke="#63b8ff" points="1285.56,-220.13 1275.91,-224.49 1286.18,-227.1 1285.56,-220.13"/>
</g>
<!-- Node20 -->
<g id="node20" class="node">
<title>Node20</title>
<g id="a_node20"><a xlink:title=" ">
<polygon fill="#e0e0e0" stroke="#999999" points="1733.5,-129 1704.5,-129 1704.5,-110 1733.5,-110 1733.5,-129"/>
<text text-anchor="middle" x="1719" y="-117" font-family="Helvetica,sans-Serif" font-size="10.00">list</text>
</a>
</g>
</g>
<!-- Node19&#45;&gt;Node20 -->
<g id="edge21" class="edge">
<title>Node19&#45;&gt;Node20</title>
<path fill="none" stroke="#63b8ff" d="M1719,-164.75C1719,-158.27 1719,-149.16 1719,-140.9"/>
<polygon fill="#63b8ff" stroke="#63b8ff" points="1722.5,-140.96 1719,-130.96 1715.5,-140.96 1722.5,-140.96"/>
</g>
<!-- Node21 -->
<g id="node21" class="node">
<title>Node21</title>
<g id="a_node21"><a xlink:title=" ">
<polygon fill="#e0e0e0" stroke="#999999" points="2224.5,-129 2181.5,-129 2181.5,-110 2224.5,-110 2224.5,-129"/>
<text text-anchor="middle" x="2203" y="-117" font-family="Helvetica,sans-Serif" font-size="10.00">queue</text>
</a>
</g>
</g>
<!-- Node19&#45;&gt;Node21 -->
<g id="edge22" class="edge">
<title>Node19&#45;&gt;Node21</title>
<path fill="none" stroke="#63b8ff" d="M1765.42,-166.28C1768.66,-165.83 1771.88,-165.4 1775,-165 1921.76,-146.24 2097.59,-129.88 2169.69,-123.43"/>
<polygon fill="#63b8ff" stroke="#63b8ff" points="2169.97,-126.91 2179.63,-122.54 2169.35,-119.94 2169.97,-126.91"/>
</g>
<!-- Node22 -->
<g id="node22" class="node">
<title>Node22</title>
<g id="a_node22"><a xlink:title=" ">
<polygon fill="#e0e0e0" stroke="#999999" points="2008,-129 1946,-129 1946,-110 2008,-110 2008,-129"/>
<text text-anchor="middle" x="1977" y="-117" font-family="Helvetica,sans-Serif" font-size="10.00">Skaldi.hpp</text>
</a>
</g>
</g>
<!-- Node19&#45;&gt;Node22 -->
<g id="edge23" class="edge">
<title>Node19&#45;&gt;Node22</title>
<path fill="none" stroke="#63b8ff" d="M1762.77,-164.51C1810.71,-154.66 1887.09,-138.97 1934.52,-129.23"/>
<polygon fill="#63b8ff" stroke="#63b8ff" points="1935.06,-132.69 1944.15,-127.25 1933.65,-125.83 1935.06,-132.69"/>
</g>
<!-- Node23&#45;&gt;Node3 -->
<g id="edge25" class="edge">
<title>Node23&#45;&gt;Node3</title>
<path fill="none" stroke="#63b8ff" d="M1497.95,-184.46C1440.83,-194.23 1346.68,-209.77 1285.46,-219.54"/>
<polygon fill="#63b8ff" stroke="#63b8ff" points="1285.25,-216.03 1275.92,-221.06 1286.35,-222.95 1285.25,-216.03"/>
</g>
<!-- Node24 -->
<g id="node24" class="node">
<title>Node24</title>
<g id="a_node24"><a xlink:href="IComponents_8hpp.html" target="_top" xlink:title=" ">
<polygon fill="white" stroke="#666666" points="846,-129 688,-129 688,-110 846,-110 846,-129"/>
<text text-anchor="middle" x="767" y="-117" font-family="Helvetica,sans-Serif" font-size="10.00">../Components/IComponents.hpp</text>
</a>
</g>
</g>
<!-- Node23&#45;&gt;Node24 -->
<g id="edge26" class="edge">
<title>Node23&#45;&gt;Node24</title>
<path fill="none" stroke="#63b8ff" d="M1476.78,-165.87C1473.47,-165.56 1470.2,-165.27 1467,-165 1248.59,-146.46 991.24,-131.99 857.7,-125.04"/>
<polygon fill="#63b8ff" stroke="#63b8ff" points="858.02,-121.55 847.85,-124.53 857.66,-128.54 858.02,-121.55"/>
</g>
<!-- Node25 -->
<g id="node25" class="node">
<title>Node25</title>
<g id="a_node25"><a xlink:href="SparseArray_8hpp.html" target="_top" xlink:title=" ">
<polygon fill="white" stroke="#666666" points="1602.5,-129 1491.5,-129 1491.5,-110 1602.5,-110 1602.5,-129"/>
<text text-anchor="middle" x="1547" y="-117" font-family="Helvetica,sans-Serif" font-size="10.00">Utils/SparseArray.hpp</text>
</a>
</g>
</g>
<!-- Node23&#45;&gt;Node25 -->
<g id="edge28" class="edge">
<title>Node23&#45;&gt;Node25</title>
<path fill="none" stroke="#63b8ff" d="M1547,-164.75C1547,-158.27 1547,-149.16 1547,-140.9"/>
<polygon fill="#63b8ff" stroke="#63b8ff" points="1550.5,-140.96 1547,-130.96 1543.5,-140.96 1550.5,-140.96"/>
</g>
<!-- Node24&#45;&gt;Node3 -->
<g id="edge27" class="edge">
<title>Node24&#45;&gt;Node3</title>
<path fill="none" stroke="#63b8ff" d="M846.33,-121.56C983.94,-124.22 1255.05,-133.45 1284,-165 1299.42,-181.81 1275.77,-201.18 1254.2,-214.06"/>
<polygon fill="#63b8ff" stroke="#63b8ff" points="1252.58,-210.95 1245.58,-218.91 1256.01,-217.05 1252.58,-210.95"/>
</g>
<!-- Node25&#45;&gt;Node9 -->
<g id="edge29" class="edge">
<title>Node25&#45;&gt;Node9</title>
<path fill="none" stroke="#63b8ff" d="M1567.97,-109.55C1584.15,-101.88 1606.34,-89.6 1622,-74 1634.94,-61.11 1645.23,-42.95 1651.82,-29.35"/>
<polygon fill="#63b8ff" stroke="#63b8ff" points="1654.85,-31.14 1655.83,-20.59 1648.49,-28.22 1654.85,-31.14"/>
</g>
<!-- Node25&#45;&gt;Node14 -->
<g id="edge32" class="edge">
<title>Node25&#45;&gt;Node14</title>
<path fill="none" stroke="#63b8ff" d="M1533.25,-109.66C1504.58,-91.23 1438.11,-48.5 1402.51,-25.62"/>
<polygon fill="#63b8ff" stroke="#63b8ff" points="1404.52,-22.74 1394.21,-20.28 1400.73,-28.63 1404.52,-22.74"/>
</g>
<!-- Node26 -->
<g id="node26" class="node">
<title>Node26</title>
<g id="a_node26"><a xlink:title=" ">
<polygon fill="#e0e0e0" stroke="#999999" points="1572,-19 1516,-19 1516,0 1572,0 1572,-19"/>
<text text-anchor="middle" x="1544" y="-7" font-family="Helvetica,sans-Serif" font-size="10.00">algorithm</text>
</a>
</g>
</g>
<!-- Node25&#45;&gt;Node26 -->
<g id="edge30" class="edge">
<title>Node25&#45;&gt;Node26</title>
<path fill="none" stroke="#63b8ff" d="M1537.12,-109.75C1528.61,-101.5 1516.95,-88.3 1512,-74 1506.34,-57.64 1516.48,-40.15 1526.82,-27.67"/>
<polygon fill="#63b8ff" stroke="#63b8ff" points="1529.35,-30.09 1533.48,-20.33 1524.17,-25.38 1529.35,-30.09"/>
</g>
<!-- Node27 -->
<g id="node27" class="node">
<title>Node27</title>
<g id="a_node27"><a xlink:title=" ">
<polygon fill="#e0e0e0" stroke="#999999" points="1819,-19 1781,-19 1781,0 1819,0 1819,-19"/>
<text text-anchor="middle" x="1800" y="-7" font-family="Helvetica,sans-Serif" font-size="10.00">array</text>
</a>
</g>
</g>
<!-- Node25&#45;&gt;Node27 -->
<g id="edge31" class="edge">
<title>Node25&#45;&gt;Node27</title>
<path fill="none" stroke="#63b8ff" d="M1567.7,-109.66C1612.45,-90.56 1718.33,-45.36 1770.25,-23.2"/>
<polygon fill="#63b8ff" stroke="#63b8ff" points="1771.54,-26.45 1779.37,-19.31 1768.8,-20.02 1771.54,-26.45"/>
</g>
<!-- Node28 -->
<g id="node28" class="node">
<title>Node28</title>
<g id="a_node28"><a xlink:title=" ">
<polygon fill="#e0e0e0" stroke="#999999" points="1485.5,-19 1446.5,-19 1446.5,0 1485.5,0 1485.5,-19"/>
<text text-anchor="middle" x="1466" y="-7" font-family="Helvetica,sans-Serif" font-size="10.00">utility</text>
</a>
</g>
</g>
<!-- Node25&#45;&gt;Node28 -->
<g id="edge33" class="edge">
<title>Node25&#45;&gt;Node28</title>
<path fill="none" stroke="#63b8ff" d="M1538.29,-109.66C1529.87,-100.93 1516.97,-87.04 1507,-74 1495.92,-59.5 1484.78,-42.02 1476.91,-29.07"/>
<polygon fill="#63b8ff" stroke="#63b8ff" points="1480.06,-27.51 1471.92,-20.72 1474.05,-31.1 1480.06,-27.51"/>
</g>
<!-- Node29 -->
<g id="node29" class="node">
<title>Node29</title>
<g id="a_node29"><a xlink:href="Vectors_8hpp.html" target="_top" xlink:title=" ">
<polygon fill="white" stroke="#666666" points="1613,-74 1521,-74 1521,-55 1613,-55 1613,-74"/>
<text text-anchor="middle" x="1567" y="-62" font-family="Helvetica,sans-Serif" font-size="10.00">Utils/Vectors.hpp</text>
</a>
</g>
</g>
<!-- Node25&#45;&gt;Node29 -->
<g id="edge34" class="edge">
<title>Node25&#45;&gt;Node29</title>
<path fill="none" stroke="#63b8ff" d="M1550.3,-109.75C1552.83,-103.04 1556.43,-93.52 1559.63,-85.02"/>
<polygon fill="#63b8ff" stroke="#63b8ff" points="1562.84,-86.45 1563.09,-75.86 1556.29,-83.98 1562.84,-86.45"/>
</g>
<!-- Node29&#45;&gt;Node9 -->
<g id="edge35" class="edge">
<title>Node29&#45;&gt;Node9</title>
<path fill="none" stroke="#63b8ff" d="M1582.78,-54.51C1597.02,-46.39 1618.24,-34.3 1634.83,-24.85"/>
<polygon fill="#63b8ff" stroke="#63b8ff" points="1636.19,-28.1 1643.14,-20.11 1632.72,-22.02 1636.19,-28.1"/>
</g>
<!-- Node29&#45;&gt;Node14 -->
<g id="edge38" class="edge">
<title>Node29&#45;&gt;Node14</title>
<path fill="none" stroke="#63b8ff" d="M1535.11,-54.51C1500.94,-44.88 1446.96,-29.66 1412.27,-19.88"/>
<polygon fill="#63b8ff" stroke="#63b8ff" points="1413.34,-16.54 1402.76,-17.2 1411.44,-23.28 1413.34,-16.54"/>
</g>
<!-- Node29&#45;&gt;Node26 -->
<g id="edge36" class="edge">
<title>Node29&#45;&gt;Node26</title>
<path fill="none" stroke="#63b8ff" d="M1563.2,-54.75C1560.26,-47.96 1556.06,-38.3 1552.35,-29.73"/>
<polygon fill="#63b8ff" stroke="#63b8ff" points="1555.67,-28.61 1548.48,-20.83 1549.25,-31.4 1555.67,-28.61"/>
</g>
<!-- Node29&#45;&gt;Node27 -->
<g id="edge37" class="edge">
<title>Node29&#45;&gt;Node27</title>
<path fill="none" stroke="#63b8ff" d="M1606.53,-54.51C1652.59,-44.03 1727.72,-26.94 1769.52,-17.43"/>
<polygon fill="#63b8ff" stroke="#63b8ff" points="1770.16,-20.88 1779.14,-15.25 1768.61,-14.05 1770.16,-20.88"/>
</g>
<!-- Node29&#45;&gt;Node28 -->
<g id="edge39" class="edge">
<title>Node29&#45;&gt;Node28</title>
<path fill="none" stroke="#63b8ff" d="M1549.87,-54.51C1534.25,-46.31 1510.92,-34.07 1492.83,-24.58"/>
<polygon fill="#63b8ff" stroke="#63b8ff" points="1494.7,-21.61 1484.22,-20.06 1491.45,-27.81 1494.7,-21.61"/>
</g>
<!-- Node30&#45;&gt;Node3 -->
<g id="edge41" class="edge">
<title>Node30&#45;&gt;Node3</title>
<path fill="none" stroke="#63b8ff" d="M298.27,-182.27C304.28,-182.92 310.27,-183.51 316,-184 636.4,-211.17 1021.14,-223.13 1166.56,-227"/>
<polygon fill="#63b8ff" stroke="#63b8ff" points="1166.24,-230.49 1176.33,-227.25 1166.43,-223.49 1166.24,-230.49"/>
</g>
<!-- Node30&#45;&gt;Node24 -->
<g id="edge42" class="edge">
<title>Node30&#45;&gt;Node24</title>
<path fill="none" stroke="#63b8ff" d="M298.45,-165.95C301.34,-165.62 304.2,-165.31 307,-165 435.06,-151.03 583.42,-137.08 676.25,-128.62"/>
<polygon fill="#63b8ff" stroke="#63b8ff" points="676.42,-132.12 686.07,-127.73 675.79,-125.15 676.42,-132.12"/>
</g>
<!-- Node31 -->
<g id="node31" class="node">
<title>Node31</title>
<g id="a_node31"><a xlink:title=" ">
<polygon fill="#e0e0e0" stroke="#999999" points="203,-129 157,-129 157,-110 203,-110 203,-129"/>
<text text-anchor="middle" x="180" y="-117" font-family="Helvetica,sans-Serif" font-size="10.00">math.h</text>
</a>
</g>
</g>
<!-- Node30&#45;&gt;Node31 -->
<g id="edge43" class="edge">
<title>Node30&#45;&gt;Node31</title>
<path fill="none" stroke="#63b8ff" d="M227.33,-164.51C219.26,-157 207.53,-146.1 197.78,-137.03"/>
<polygon fill="#63b8ff" stroke="#63b8ff" points="200.34,-134.63 190.63,-130.39 195.57,-139.76 200.34,-134.63"/>
</g>
<!-- Node32&#45;&gt;Node3 -->
<g id="edge45" class="edge">
<title>Node32&#45;&gt;Node3</title>
<path fill="none" stroke="#63b8ff" d="M1902.66,-184.03C1675.22,-203.52 1403.7,-219.29 1285.6,-225.56"/>
<polygon fill="#63b8ff" stroke="#63b8ff" points="1285.64,-222.06 1275.84,-226.08 1286.01,-229.05 1285.64,-222.06"/>
</g>
<!-- Node33&#45;&gt;Node21 -->
<g id="edge75" class="edge">
<title>Node33&#45;&gt;Node21</title>
<path fill="none" stroke="#63b8ff" d="M2067.63,-494.55C2145.86,-478.74 2291,-443.01 2291,-395.5 2291,-395.5 2291,-395.5 2291,-228.5 2291,-187.97 2253.29,-154.22 2227.24,-135.74"/>
<polygon fill="#63b8ff" stroke="#63b8ff" points="2229.42,-132.99 2219.18,-130.28 2225.49,-138.79 2229.42,-132.99"/>
</g>
<!-- Node34 -->
<g id="node34" class="node">
<title>Node34</title>
<g id="a_node34"><a xlink:href="States_8hpp.html" target="_top" xlink:title=" ">
<polygon fill="white" stroke="#666666" points="2122.5,-459 2003.5,-459 2003.5,-440 2122.5,-440 2122.5,-459"/>
<text text-anchor="middle" x="2063" y="-447" font-family="Helvetica,sans-Serif" font-size="10.00">gameStates/States.hpp</text>
</a>
</g>
</g>
<!-- Node33&#45;&gt;Node34 -->
<g id="edge48" class="edge">
<title>Node33&#45;&gt;Node34</title>
<path fill="none" stroke="#63b8ff" d="M2026.27,-494.75C2032.28,-487.5 2041.01,-476.98 2048.46,-468.02"/>
<polygon fill="#63b8ff" stroke="#63b8ff" points="2050.92,-470.54 2054.61,-460.61 2045.53,-466.07 2050.92,-470.54"/>
</g>
<!-- Node35 -->
<g id="node35" class="node">
<title>Node35</title>
<g id="a_node35"><a xlink:href="IGameState_8hpp.html" target="_top" xlink:title=" ">
<polygon fill="white" stroke="#666666" points="2018.5,-349 1931.5,-349 1931.5,-330 2018.5,-330 2018.5,-349"/>
<text text-anchor="middle" x="1975" y="-337" font-family="Helvetica,sans-Serif" font-size="10.00">IGameState.hpp</text>
</a>
</g>
</g>
<!-- Node34&#45;&gt;Node35 -->
<g id="edge49" class="edge">
<title>Node34&#45;&gt;Node35</title>
<path fill="none" stroke="#63b8ff" d="M2055.8,-439.66C2041.36,-421.94 2008.62,-381.77 1989.55,-358.35"/>
<polygon fill="#63b8ff" stroke="#63b8ff" points="1992.29,-356.18 1983.26,-350.63 1986.86,-360.6 1992.29,-356.18"/>
</g>
<!-- Node39 -->
<g id="node39" class="node">
<title>Node39</title>
<g id="a_node39"><a xlink:href="SMenu_8hpp.html" target="_top" xlink:title=" ">
<polygon fill="white" stroke="#666666" points="1946.5,-404 1881.5,-404 1881.5,-385 1946.5,-385 1946.5,-404"/>
<text text-anchor="middle" x="1914" y="-392" font-family="Helvetica,sans-Serif" font-size="10.00">SMenu.hpp</text>
</a>
</g>
</g>
<!-- Node34&#45;&gt;Node39 -->
<g id="edge63" class="edge">
<title>Node34&#45;&gt;Node39</title>
<path fill="none" stroke="#63b8ff" d="M2037.72,-439.51C2013.5,-430.89 1976.7,-417.8 1949.53,-408.14"/>
<polygon fill="#63b8ff" stroke="#63b8ff" points="1950.92,-404.92 1940.33,-404.87 1948.58,-411.51 1950.92,-404.92"/>
</g>
<!-- Node42 -->
<g id="node42" class="node">
<title>Node42</title>
<g id="a_node42"><a xlink:href="SGamePlay_8hpp.html" target="_top" xlink:title=" ">
<polygon fill="white" stroke="#666666" points="2169,-404 2083,-404 2083,-385 2169,-385 2169,-404"/>
<text text-anchor="middle" x="2126" y="-392" font-family="Helvetica,sans-Serif" font-size="10.00">SGamePlay.hpp</text>
</a>
</g>
</g>
<!-- Node34&#45;&gt;Node42 -->
<g id="edge68" class="edge">
<title>Node34&#45;&gt;Node42</title>
<path fill="none" stroke="#63b8ff" d="M2073.69,-439.51C2082.7,-431.93 2095.83,-420.88 2106.68,-411.75"/>
<polygon fill="#63b8ff" stroke="#63b8ff" points="2108.91,-414.45 2114.31,-405.33 2104.41,-409.09 2108.91,-414.45"/>
</g>
<!-- Node35&#45;&gt;Node23 -->
<g id="edge50" class="edge">
<title>Node35&#45;&gt;Node23</title>
<path fill="none" stroke="#63b8ff" d="M1951.38,-329.5C1879.84,-302.26 1665.3,-220.55 1581.28,-188.56"/>
<polygon fill="#63b8ff" stroke="#63b8ff" points="1582.55,-185.29 1571.96,-185.01 1580.06,-191.84 1582.55,-185.29"/>
</g>
<!-- Node35&#45;&gt;Node32 -->
<g id="edge56" class="edge">
<title>Node35&#45;&gt;Node32</title>
<path fill="none" stroke="#63b8ff" d="M1975,-329.74C1975,-304.53 1975,-231.36 1975,-195.62"/>
<polygon fill="#63b8ff" stroke="#63b8ff" points="1978.5,-195.82 1975,-185.82 1971.5,-195.82 1978.5,-195.82"/>
</g>
<!-- Node35&#45;&gt;Node33 -->
<g id="edge55" class="edge">
<title>Node35&#45;&gt;Node33</title>
<path fill="none" stroke="#63b8ff" d="M1975.51,-349.37C1976.86,-369.41 1981.44,-419.54 1995,-459 1998.06,-467.91 2002.78,-477.18 2007.22,-484.94"/>
<polygon fill="#63b8ff" stroke="#63b8ff" points="2004.17,-486.65 2012.34,-493.4 2010.16,-483.03 2004.17,-486.65"/>
</g>
<!-- Node36 -->
<g id="node36" class="node">
<title>Node36</title>
<g id="a_node36"><a xlink:href="String_8hpp.html" target="_top" xlink:title=" ">
<polygon fill="white" stroke="#666666" points="2148.5,-184 2065.5,-184 2065.5,-165 2148.5,-165 2148.5,-184"/>
<text text-anchor="middle" x="2107" y="-172" font-family="Helvetica,sans-Serif" font-size="10.00">Utils/String.hpp</text>
</a>
</g>
</g>
<!-- Node35&#45;&gt;Node36 -->
<g id="edge51" class="edge">
<title>Node35&#45;&gt;Node36</title>
<path fill="none" stroke="#63b8ff" d="M1982.1,-329.74C2003.05,-303.87 2064.91,-227.48 2092.92,-192.88"/>
<polygon fill="#63b8ff" stroke="#63b8ff" points="2095.34,-195.46 2098.92,-185.48 2089.9,-191.05 2095.34,-195.46"/>
</g>
<!-- Node37 -->
<g id="node37" class="node">
<title>Node37</title>
<g id="a_node37"><a xlink:href="Centipede_8hpp.html" target="_top" xlink:title=" ">
<polygon fill="white" stroke="#666666" points="216,-294 80,-294 80,-275 216,-275 216,-294"/>
<text text-anchor="middle" x="148" y="-282" font-family="Helvetica,sans-Serif" font-size="10.00">Components/Centipede.hpp</text>
</a>
</g>
</g>
<!-- Node35&#45;&gt;Node37 -->
<g id="edge57" class="edge">
<title>Node35&#45;&gt;Node37</title>
<path fill="none" stroke="#63b8ff" d="M1931.19,-337.23C1691.85,-330.29 541.64,-296.92 227.45,-287.8"/>
<polygon fill="#63b8ff" stroke="#63b8ff" points="227.8,-284.31 217.7,-287.52 227.6,-291.31 227.8,-284.31"/>
</g>
<!-- Node36&#45;&gt;Node9 -->
<g id="edge52" class="edge">
<title>Node36&#45;&gt;Node9</title>
<path fill="none" stroke="#63b8ff" d="M2065.96,-164.56C2031.22,-156.56 1980.29,-143.83 1937,-129 1843.85,-97.08 1737.9,-48.02 1688.35,-24.29"/>
<polygon fill="#63b8ff" stroke="#63b8ff" points="1690,-21.2 1679.47,-20.02 1686.96,-27.51 1690,-21.2"/>
</g>
<!-- Node36&#45;&gt;Node14 -->
<g id="edge54" class="edge">
<title>Node36&#45;&gt;Node14</title>
<path fill="none" stroke="#63b8ff" d="M2065.02,-166.15C2061.97,-165.73 2058.94,-165.34 2056,-165 1929.02,-150.48 1596.58,-185.62 1482,-129 1437.75,-107.14 1404.57,-56.93 1388.94,-29.4"/>
<polygon fill="#63b8ff" stroke="#63b8ff" points="1392.09,-27.87 1384.22,-20.78 1385.95,-31.23 1392.09,-27.87"/>
</g>
<!-- Node36&#45;&gt;Node20 -->
<g id="edge53" class="edge">
<title>Node36&#45;&gt;Node20</title>
<path fill="none" stroke="#63b8ff" d="M2065,-166.33C2061.96,-165.87 2058.93,-165.42 2056,-165 1919.54,-145.67 1883.05,-156.48 1748,-129 1746.99,-128.79 1745.96,-128.57 1744.92,-128.33"/>
<polygon fill="#63b8ff" stroke="#63b8ff" points="1745.96,-124.98 1735.39,-125.79 1744.15,-131.75 1745.96,-124.98"/>
</g>
<!-- Node37&#45;&gt;Node3 -->
<g id="edge58" class="edge">
<title>Node37&#45;&gt;Node3</title>
<path fill="none" stroke="#63b8ff" d="M216.25,-280.14C413.24,-270.46 980.5,-242.57 1166.3,-233.44"/>
<polygon fill="#63b8ff" stroke="#63b8ff" points="1166.39,-236.94 1176.21,-232.95 1166.05,-229.94 1166.39,-236.94"/>
</g>
<!-- Node37&#45;&gt;Node14 -->
<g id="edge61" class="edge">
<title>Node37&#45;&gt;Node14</title>
<path fill="none" stroke="#63b8ff" d="M135.79,-274.62C114.31,-257.86 72,-219.29 72,-175.5 72,-175.5 72,-175.5 72,-118.5 72,-52.64 1139.86,-17.6 1345.11,-11.48"/>
<polygon fill="#63b8ff" stroke="#63b8ff" points="1345.18,-14.98 1355.08,-11.18 1344.98,-7.98 1345.18,-14.98"/>
</g>
<!-- Node37&#45;&gt;Node24 -->
<g id="edge59" class="edge">
<title>Node37&#45;&gt;Node24</title>
<path fill="none" stroke="#63b8ff" d="M146.22,-274.7C142.28,-252.5 135.54,-193.89 167,-165 203.65,-131.34 518.17,-123.13 676.59,-121.14"/>
<polygon fill="#63b8ff" stroke="#63b8ff" points="676.25,-124.64 686.21,-121.02 676.16,-117.64 676.25,-124.64"/>
</g>
<!-- Node37&#45;&gt;Node31 -->
<g id="edge60" class="edge">
<title>Node37&#45;&gt;Node31</title>
<path fill="none" stroke="#63b8ff" d="M144.09,-274.75C135.65,-254.52 117.75,-203.34 134,-165 138.76,-153.76 147.91,-143.98 156.8,-136.46"/>
<polygon fill="#63b8ff" stroke="#63b8ff" points="158.83,-139.32 164.58,-130.42 154.53,-133.79 158.83,-139.32"/>
</g>
<!-- Node38 -->
<g id="node38" class="node">
<title>Node38</title>
<g id="a_node38"><a xlink:title=" ">
<polygon fill="#e0e0e0" stroke="#999999" points="44,-239 0,-239 0,-220 44,-220 44,-239"/>
<text text-anchor="middle" x="22" y="-227" font-family="Helvetica,sans-Serif" font-size="10.00">cmath</text>
</a>
</g>
</g>
<!-- Node37&#45;&gt;Node38 -->
<g id="edge62" class="edge">
<title>Node37&#45;&gt;Node38</title>
<path fill="none" stroke="#63b8ff" d="M126.63,-274.51C106.59,-266.08 76.4,-253.38 53.59,-243.79"/>
<polygon fill="#63b8ff" stroke="#63b8ff" points="55.03,-240.6 44.45,-239.94 52.31,-247.05 55.03,-240.6"/>
</g>
<!-- Node39&#45;&gt;Node35 -->
<g id="edge64" class="edge">
<title>Node39&#45;&gt;Node35</title>
<path fill="none" stroke="#63b8ff" d="M1924.35,-384.51C1933.08,-376.93 1945.79,-365.88 1956.3,-356.75"/>
<polygon fill="#63b8ff" stroke="#63b8ff" points="1958.41,-359.55 1963.66,-350.35 1953.82,-354.27 1958.41,-359.55"/>
</g>
<!-- Node40 -->
<g id="node40" class="node">
<title>Node40</title>
<g id="a_node40"><a xlink:href="Bouton_8hpp.html" target="_top" xlink:title=" ">
<polygon fill="white" stroke="#666666" points="1287.5,-349 1164.5,-349 1164.5,-330 1287.5,-330 1287.5,-349"/>
<text text-anchor="middle" x="1226" y="-337" font-family="Helvetica,sans-Serif" font-size="10.00">Components/Bouton.hpp</text>
</a>
</g>
</g>
<!-- Node39&#45;&gt;Node40 -->
<g id="edge65" class="edge">
<title>Node39&#45;&gt;Node40</title>
<path fill="none" stroke="#63b8ff" d="M1881.28,-390.98C1776.39,-382.9 1446.81,-357.51 1298.99,-346.12"/>
<polygon fill="#63b8ff" stroke="#63b8ff" points="1299.57,-342.66 1289.33,-345.38 1299.03,-349.64 1299.57,-342.66"/>
</g>
<!-- Node40&#45;&gt;Node3 -->
<g id="edge66" class="edge">
<title>Node40&#45;&gt;Node3</title>
<path fill="none" stroke="#63b8ff" d="M1226,-329.66C1226,-312.57 1226,-274.61 1226,-250.92"/>
<polygon fill="#63b8ff" stroke="#63b8ff" points="1229.5,-250.97 1226,-240.97 1222.5,-250.97 1229.5,-250.97"/>
</g>
<!-- Node41 -->
<g id="node41" class="node">
<title>Node41</title>
<g id="a_node41"><a xlink:title=" ">
<polygon fill="#e0e0e0" stroke="#999999" points="61.5,-294 2.5,-294 2.5,-275 61.5,-275 61.5,-294"/>
<text text-anchor="middle" x="32" y="-282" font-family="Helvetica,sans-Serif" font-size="10.00">functional</text>
</a>
</g>
</g>
<!-- Node40&#45;&gt;Node41 -->
<g id="edge67" class="edge">
<title>Node40&#45;&gt;Node41</title>
<path fill="none" stroke="#63b8ff" d="M1164.17,-337.55C959.89,-334.21 306.88,-321.69 72.87,-293.92"/>
<polygon fill="#63b8ff" stroke="#63b8ff" points="73.57,-290.48 63.22,-292.73 72.71,-297.43 73.57,-290.48"/>
</g>
<!-- Node42&#45;&gt;Node21 -->
<g id="edge70" class="edge">
<title>Node42&#45;&gt;Node21</title>
<path fill="none" stroke="#63b8ff" d="M2144.86,-384.61C2159.26,-376.97 2178.66,-364.7 2191,-349 2209.64,-325.28 2215,-315.67 2215,-285.5 2215,-285.5 2215,-285.5 2215,-228.5 2215,-197.73 2210.13,-162.34 2206.6,-140.7"/>
<polygon fill="#63b8ff" stroke="#63b8ff" points="2210.06,-140.18 2204.92,-130.92 2203.16,-141.36 2210.06,-140.18"/>
</g>
<!-- Node42&#45;&gt;Node22 -->
<g id="edge74" class="edge">
<title>Node42&#45;&gt;Node22</title>
<path fill="none" stroke="#63b8ff" d="M2133.83,-384.53C2141,-375.93 2151.45,-362.32 2158,-349 2171,-322.57 2177,-314.96 2177,-285.5 2177,-285.5 2177,-285.5 2177,-228.5 2177,-199.04 2179.34,-185.31 2158,-165 2138.33,-146.29 2066.7,-132.99 2019.66,-126.04"/>
<polygon fill="#63b8ff" stroke="#63b8ff" points="2020.17,-122.58 2009.78,-124.63 2019.18,-129.51 2020.17,-122.58"/>
</g>
<!-- Node42&#45;&gt;Node27 -->
<g id="edge71" class="edge">
<title>Node42&#45;&gt;Node27</title>
<path fill="none" stroke="#63b8ff" d="M2152.31,-384.61C2189.51,-370.18 2253,-337.89 2253,-285.5 2253,-285.5 2253,-285.5 2253,-118.5 2253,-31.49 1932.74,-14.44 1830.78,-11.22"/>
<polygon fill="#63b8ff" stroke="#63b8ff" points="1831.07,-7.73 1820.98,-10.94 1830.87,-14.73 1831.07,-7.73"/>
</g>
<!-- Node42&#45;&gt;Node35 -->
<g id="edge69" class="edge">
<title>Node42&#45;&gt;Node35</title>
<path fill="none" stroke="#63b8ff" d="M2100.38,-384.51C2075.91,-375.92 2038.76,-362.88 2011.25,-353.22"/>
<polygon fill="#63b8ff" stroke="#63b8ff" points="2012.51,-349.96 2001.92,-349.95 2010.19,-356.56 2012.51,-349.96"/>
</g>
<!-- Node43 -->
<g id="node43" class="node">
<title>Node43</title>
<g id="a_node43"><a xlink:title=" ">
<polygon fill="#e0e0e0" stroke="#999999" points="2084.5,-349 2043.5,-349 2043.5,-330 2084.5,-330 2084.5,-349"/>
<text text-anchor="middle" x="2064" y="-337" font-family="Helvetica,sans-Serif" font-size="10.00">string</text>
</a>
</g>
</g>
<!-- Node42&#45;&gt;Node43 -->
<g id="edge72" class="edge">
<title>Node42&#45;&gt;Node43</title>
<path fill="none" stroke="#63b8ff" d="M2115.48,-384.51C2106.61,-376.93 2093.69,-365.88 2083.01,-356.75"/>
<polygon fill="#63b8ff" stroke="#63b8ff" points="2085.39,-354.18 2075.51,-350.34 2080.84,-359.5 2085.39,-354.18"/>
</g>
<!-- Node44 -->
<g id="node44" class="node">
<title>Node44</title>
<g id="a_node44"><a xlink:title=" ">
<polygon fill="#e0e0e0" stroke="#999999" points="2149,-349 2103,-349 2103,-330 2149,-330 2149,-349"/>
<text text-anchor="middle" x="2126" y="-337" font-family="Helvetica,sans-Serif" font-size="10.00">cstring</text>
</a>
</g>
</g>
<!-- Node42&#45;&gt;Node44 -->
<g id="edge73" class="edge">
<title>Node42&#45;&gt;Node44</title>
<path fill="none" stroke="#63b8ff" d="M2126,-384.75C2126,-378.27 2126,-369.16 2126,-360.9"/>
<polygon fill="#63b8ff" stroke="#63b8ff" points="2129.5,-360.96 2126,-350.96 2122.5,-360.96 2129.5,-360.96"/>
</g>
</g>
</svg>
