<?xml version="1.0" encoding="UTF-8" standalone="no"?>
<!DOCTYPE svg PUBLIC "-//W3C//DTD SVG 1.1//EN"
 "http://www.w3.org/Graphics/SVG/1.1/DTD/svg11.dtd">
<!-- Generated by graphviz version 7.0.5 (20221223.1930)
 -->
<!-- Title: /github/workspace/server/src/utilities/Transform.cpp Pages: 1 -->
<svg width="194pt" height="148pt"
 viewBox="0.00 0.00 194.00 148.00" xmlns="http://www.w3.org/2000/svg" xmlns:xlink="http://www.w3.org/1999/xlink">
<g id="graph0" class="graph" transform="scale(1 1) rotate(0) translate(4 144)">
<title>/github/workspace/server/src/utilities/Transform.cpp</title>
<!-- Node1 -->
<g id="node1" class="node">
<title>Node1</title>
<g id="a_node1"><a xlink:title=" ">
<polygon fill="#999999" stroke="#666666" points="160,-140 28,-140 28,-110 160,-110 160,-140"/>
<text text-anchor="start" x="36" y="-128" font-family="Helvetica,sans-Serif" font-size="10.00">/github/workspace/server</text>
<text text-anchor="middle" x="94" y="-117" font-family="Helvetica,sans-Serif" font-size="10.00">/src/utilities/Transform.cpp</text>
</a>
</g>
</g>
<!-- Node2 -->
<g id="node2" class="node">
<title>Node2</title>
<g id="a_node2"><a xlink:href="Transform_8hpp.html" target="_top" xlink:title=" ">
<polygon fill="white" stroke="#666666" points="150.5,-74 37.5,-74 37.5,-55 150.5,-55 150.5,-74"/>
<text text-anchor="middle" x="94" y="-62" font-family="Helvetica,sans-Serif" font-size="10.00">utilities/Transform.hpp</text>
</a>
</g>
</g>
<!-- Node1&#45;&gt;Node2 -->
<g id="edge1" class="edge">
<title>Node1&#45;&gt;Node2</title>
<path fill="none" stroke="#63b8ff" d="M94,-109.54C94,-102.34 94,-93.53 94,-85.68"/>
<polygon fill="#63b8ff" stroke="#63b8ff" points="97.5,-85.69 94,-75.69 90.5,-85.69 97.5,-85.69"/>
</g>
<!-- Node3 -->
<g id="node3" class="node">
<title>Node3</title>
<g id="a_node3"><a xlink:title=" ">
<polygon fill="#e0e0e0" stroke="#999999" points="56,-19 0,-19 0,0 56,0 56,-19"/>
<text text-anchor="middle" x="28" y="-7" font-family="Helvetica,sans-Serif" font-size="10.00">algorithm</text>
</a>
</g>
</g>
<!-- Node2&#45;&gt;Node3 -->
<g id="edge2" class="edge">
<title>Node2&#45;&gt;Node3</title>
<path fill="none" stroke="#63b8ff" d="M82.8,-54.51C73.26,-46.85 59.33,-35.66 47.89,-26.47"/>
<polygon fill="#63b8ff" stroke="#63b8ff" points="50.2,-23.84 40.21,-20.31 45.82,-29.3 50.2,-23.84"/>
</g>
<!-- Node4 -->
<g id="node4" class="node">
<title>Node4</title>
<g id="a_node4"><a xlink:title=" ">
<polygon fill="#e0e0e0" stroke="#999999" points="114,-19 74,-19 74,0 114,0 114,-19"/>
<text text-anchor="middle" x="94" y="-7" font-family="Helvetica,sans-Serif" font-size="10.00">regex</text>
</a>
</g>
</g>
<!-- Node2&#45;&gt;Node4 -->
<g id="edge3" class="edge">
<title>Node2&#45;&gt;Node4</title>
<path fill="none" stroke="#63b8ff" d="M94,-54.75C94,-48.27 94,-39.16 94,-30.9"/>
<polygon fill="#63b8ff" stroke="#63b8ff" points="97.5,-30.96 94,-20.96 90.5,-30.96 97.5,-30.96"/>
</g>
<!-- Node5 -->
<g id="node5" class="node">
<title>Node5</title>
<g id="a_node5"><a xlink:title=" ">
<polygon fill="#e0e0e0" stroke="#999999" points="186,-19 132,-19 132,0 186,0 186,-19"/>
<text text-anchor="middle" x="159" y="-7" font-family="Helvetica,sans-Serif" font-size="10.00">iostream</text>
</a>
</g>
</g>
<!-- Node2&#45;&gt;Node5 -->
<g id="edge4" class="edge">
<title>Node2&#45;&gt;Node5</title>
<path fill="none" stroke="#63b8ff" d="M105.03,-54.51C114.42,-46.85 128.15,-35.66 139.41,-26.47"/>
<polygon fill="#63b8ff" stroke="#63b8ff" points="141.43,-29.35 146.96,-20.31 137,-23.92 141.43,-29.35"/>
</g>
</g>
</svg>
