<?xml version="1.0" encoding="UTF-8" standalone="no"?>
<!DOCTYPE svg PUBLIC "-//W3C//DTD SVG 1.1//EN"
 "http://www.w3.org/Graphics/SVG/1.1/DTD/svg11.dtd">
<!-- Generated by graphviz version 7.0.5 (20221223.1930)
 -->
<!-- Title: /github/workspace/server/include/utilities/Utilities.hpp Pages: 1 -->
<svg width="205pt" height="148pt"
 viewBox="0.00 0.00 205.00 148.00" xmlns="http://www.w3.org/2000/svg" xmlns:xlink="http://www.w3.org/1999/xlink">
<g id="graph0" class="graph" transform="scale(1 1) rotate(0) translate(4 144)">
<title>/github/workspace/server/include/utilities/Utilities.hpp</title>
<!-- Node1 -->
<g id="node1" class="node">
<title>Node1</title>
<g id="a_node1"><a xlink:title=" ">
<polygon fill="#999999" stroke="#666666" points="144,-140 6,-140 6,-110 144,-110 144,-140"/>
<text text-anchor="start" x="14" y="-128" font-family="Helvetica,sans-Serif" font-size="10.00">/github/workspace/server</text>
<text text-anchor="middle" x="75" y="-117" font-family="Helvetica,sans-Serif" font-size="10.00">/include/utilities/Utilities.hpp</text>
</a>
</g>
</g>
<!-- Node2 -->
<g id="node2" class="node">
<title>Node2</title>
<g id="a_node2"><a xlink:href="Check_8hpp.html" target="_top" xlink:title=" ">
<polygon fill="white" stroke="#666666" points="62,-74 0,-74 0,-55 62,-55 62,-74"/>
<text text-anchor="middle" x="31" y="-62" font-family="Helvetica,sans-Serif" font-size="10.00">Check.hpp</text>
</a>
</g>
</g>
<!-- Node1&#45;&gt;Node2 -->
<g id="edge1" class="edge">
<title>Node1&#45;&gt;Node2</title>
<path fill="none" stroke="#63b8ff" d="M64.12,-109.54C58.12,-101.56 50.63,-91.59 44.28,-83.16"/>
<polygon fill="#63b8ff" stroke="#63b8ff" points="47.24,-81.27 38.43,-75.38 41.65,-85.48 47.24,-81.27"/>
</g>
<!-- Node5 -->
<g id="node5" class="node">
<title>Node5</title>
<g id="a_node5"><a xlink:href="Transform_8hpp.html" target="_top" xlink:title=" ">
<polygon fill="white" stroke="#666666" points="159.5,-74 80.5,-74 80.5,-55 159.5,-55 159.5,-74"/>
<text text-anchor="middle" x="120" y="-62" font-family="Helvetica,sans-Serif" font-size="10.00">Transform.hpp</text>
</a>
</g>
</g>
<!-- Node1&#45;&gt;Node5 -->
<g id="edge4" class="edge">
<title>Node1&#45;&gt;Node5</title>
<path fill="none" stroke="#63b8ff" d="M86.12,-109.54C92.26,-101.56 99.93,-91.59 106.41,-83.16"/>
<polygon fill="#63b8ff" stroke="#63b8ff" points="109.08,-85.44 112.4,-75.37 103.53,-81.17 109.08,-85.44"/>
</g>
<!-- Node3 -->
<g id="node3" class="node">
<title>Node3</title>
<g id="a_node3"><a xlink:title=" ">
<polygon fill="#e0e0e0" stroke="#999999" points="123,-19 69,-19 69,0 123,0 123,-19"/>
<text text-anchor="middle" x="96" y="-7" font-family="Helvetica,sans-Serif" font-size="10.00">iostream</text>
</a>
</g>
</g>
<!-- Node2&#45;&gt;Node3 -->
<g id="edge2" class="edge">
<title>Node2&#45;&gt;Node3</title>
<path fill="none" stroke="#63b8ff" d="M42.03,-54.51C51.42,-46.85 65.15,-35.66 76.41,-26.47"/>
<polygon fill="#63b8ff" stroke="#63b8ff" points="78.43,-29.35 83.96,-20.31 74,-23.92 78.43,-29.35"/>
</g>
<!-- Node4 -->
<g id="node4" class="node">
<title>Node4</title>
<g id="a_node4"><a xlink:title=" ">
<polygon fill="#e0e0e0" stroke="#999999" points="51,-19 11,-19 11,0 51,0 51,-19"/>
<text text-anchor="middle" x="31" y="-7" font-family="Helvetica,sans-Serif" font-size="10.00">regex</text>
</a>
</g>
</g>
<!-- Node2&#45;&gt;Node4 -->
<g id="edge3" class="edge">
<title>Node2&#45;&gt;Node4</title>
<path fill="none" stroke="#63b8ff" d="M31,-54.75C31,-48.27 31,-39.16 31,-30.9"/>
<polygon fill="#63b8ff" stroke="#63b8ff" points="34.5,-30.96 31,-20.96 27.5,-30.96 34.5,-30.96"/>
</g>
<!-- Node5&#45;&gt;Node3 -->
<g id="edge7" class="edge">
<title>Node5&#45;&gt;Node3</title>
<path fill="none" stroke="#63b8ff" d="M116.04,-54.75C112.96,-47.96 108.59,-38.3 104.71,-29.73"/>
<polygon fill="#63b8ff" stroke="#63b8ff" points="107.99,-28.49 100.67,-20.82 101.61,-31.37 107.99,-28.49"/>
</g>
<!-- Node5&#45;&gt;Node4 -->
<g id="edge6" class="edge">
<title>Node5&#45;&gt;Node4</title>
<path fill="none" stroke="#63b8ff" d="M104.9,-54.51C91.4,-46.47 71.35,-34.53 55.54,-25.11"/>
<polygon fill="#63b8ff" stroke="#63b8ff" points="57.56,-22.24 47.18,-20.13 53.98,-28.26 57.56,-22.24"/>
</g>
<!-- Node6 -->
<g id="node6" class="node">
<title>Node6</title>
<g id="a_node6"><a xlink:title=" ">
<polygon fill="#e0e0e0" stroke="#999999" points="197,-19 141,-19 141,0 197,0 197,-19"/>
<text text-anchor="middle" x="169" y="-7" font-family="Helvetica,sans-Serif" font-size="10.00">algorithm</text>
</a>
</g>
</g>
<!-- Node5&#45;&gt;Node6 -->
<g id="edge5" class="edge">
<title>Node5&#45;&gt;Node6</title>
<path fill="none" stroke="#63b8ff" d="M128.09,-54.75C134.86,-47.43 144.72,-36.76 153.06,-27.74"/>
<polygon fill="#63b8ff" stroke="#63b8ff" points="155.49,-30.27 159.71,-20.55 150.35,-25.52 155.49,-30.27"/>
</g>
</g>
</svg>
