<?xml version="1.0" encoding="UTF-8" standalone="no"?>
<!DOCTYPE svg PUBLIC "-//W3C//DTD SVG 1.1//EN"
 "http://www.w3.org/Graphics/SVG/1.1/DTD/svg11.dtd">
<!-- Generated by graphviz version 7.0.5 (20221223.1930)
 -->
<!-- Title: /github/workspace/server/include/utilities/Utilities.hpp Pages: 1 -->
<svg width="146pt" height="170pt"
 viewBox="0.00 0.00 146.00 170.00" xmlns="http://www.w3.org/2000/svg" xmlns:xlink="http://www.w3.org/1999/xlink">
<g id="graph0" class="graph" transform="scale(1 1) rotate(0) translate(4 166)">
<title>/github/workspace/server/include/utilities/Utilities.hpp</title>
<!-- Node1 -->
<g id="node1" class="node">
<title>Node1</title>
<g id="a_node1"><a xlink:title=" ">
<polygon fill="#999999" stroke="#666666" points="138,-162 0,-162 0,-132 138,-132 138,-162"/>
<text text-anchor="start" x="8" y="-150" font-family="Helvetica,sans-Serif" font-size="10.00">/github/workspace/server</text>
<text text-anchor="middle" x="69" y="-139" font-family="Helvetica,sans-Serif" font-size="10.00">/include/utilities/Utilities.hpp</text>
</a>
</g>
</g>
<!-- Node2 -->
<g id="node2" class="node">
<title>Node2</title>
<g id="a_node2"><a xlink:href="Server_8hpp.html" target="_top" xlink:title=" ">
<polygon fill="white" stroke="#666666" points="132,-96 6,-96 6,-66 132,-66 132,-96"/>
<text text-anchor="start" x="14" y="-84" font-family="Helvetica,sans-Serif" font-size="10.00">/github/workspace/server</text>
<text text-anchor="middle" x="69" y="-73" font-family="Helvetica,sans-Serif" font-size="10.00">/include/Server.hpp</text>
</a>
</g>
</g>
<!-- Node1&#45;&gt;Node2 -->
<g id="edge1" class="edge">
<title>Node1&#45;&gt;Node2</title>
<path fill="none" stroke="#63b8ff" d="M69,-120.39C69,-112.13 69,-103.28 69,-96.16"/>
<polygon fill="#63b8ff" stroke="#63b8ff" points="65.5,-120.28 69,-130.28 72.5,-120.28 65.5,-120.28"/>
</g>
<!-- Node3 -->
<g id="node3" class="node">
<title>Node3</title>
<g id="a_node3"><a xlink:href="server_2src_2main_8cpp.html" target="_top" xlink:title=" ">
<polygon fill="white" stroke="#666666" points="132,-30 6,-30 6,0 132,0 132,-30"/>
<text text-anchor="start" x="14" y="-18" font-family="Helvetica,sans-Serif" font-size="10.00">/github/workspace/server</text>
<text text-anchor="middle" x="69" y="-7" font-family="Helvetica,sans-Serif" font-size="10.00">/src/main.cpp</text>
</a>
</g>
</g>
<!-- Node2&#45;&gt;Node3 -->
<g id="edge2" class="edge">
<title>Node2&#45;&gt;Node3</title>
<path fill="none" stroke="#63b8ff" d="M69,-54.39C69,-46.13 69,-37.28 69,-30.16"/>
<polygon fill="#63b8ff" stroke="#63b8ff" points="65.5,-54.28 69,-64.28 72.5,-54.28 65.5,-54.28"/>
</g>
</g>
</svg>
