<?xml version="1.0" encoding="UTF-8" standalone="no"?>
<!DOCTYPE svg PUBLIC "-//W3C//DTD SVG 1.1//EN"
 "http://www.w3.org/Graphics/SVG/1.1/DTD/svg11.dtd">
<!-- Generated by graphviz version 7.0.5 (20221223.1930)
 -->
<!-- Title: /github/workspace/client/include/Utils/Vectors.hpp Pages: 1 -->
<svg width="312pt" height="93pt"
 viewBox="0.00 0.00 311.50 93.00" xmlns="http://www.w3.org/2000/svg" xmlns:xlink="http://www.w3.org/1999/xlink">
<g id="graph0" class="graph" transform="scale(1 1) rotate(0) translate(4 89)">
<title>/github/workspace/client/include/Utils/Vectors.hpp</title>
<!-- Node1 -->
<g id="node1" class="node">
<title>Node1</title>
<g id="a_node1"><a xlink:title=" ">
<polygon fill="#999999" stroke="#666666" points="229,-85 101,-85 101,-55 229,-55 229,-85"/>
<text text-anchor="start" x="109" y="-73" font-family="Helvetica,sans-Serif" font-size="10.00">/github/workspace/client</text>
<text text-anchor="middle" x="165" y="-62" font-family="Helvetica,sans-Serif" font-size="10.00">/include/Utils/Vectors.hpp</text>
</a>
</g>
</g>
<!-- Node2 -->
<g id="node2" class="node">
<title>Node2</title>
<g id="a_node2"><a xlink:title=" ">
<polygon fill="#e0e0e0" stroke="#999999" points="54,-19 0,-19 0,0 54,0 54,-19"/>
<text text-anchor="middle" x="27" y="-7" font-family="Helvetica,sans-Serif" font-size="10.00">iostream</text>
</a>
</g>
</g>
<!-- Node1&#45;&gt;Node2 -->
<g id="edge1" class="edge">
<title>Node1&#45;&gt;Node2</title>
<path fill="none" stroke="#63b8ff" d="M130.89,-54.54C108.73,-45.15 80.06,-32.99 58.45,-23.83"/>
<polygon fill="#63b8ff" stroke="#63b8ff" points="59.83,-20.62 49.26,-19.94 57.1,-27.06 59.83,-20.62"/>
</g>
<!-- Node3 -->
<g id="node3" class="node">
<title>Node3</title>
<g id="a_node3"><a xlink:title=" ">
<polygon fill="#e0e0e0" stroke="#999999" points="128,-19 72,-19 72,0 128,0 128,-19"/>
<text text-anchor="middle" x="100" y="-7" font-family="Helvetica,sans-Serif" font-size="10.00">algorithm</text>
</a>
</g>
</g>
<!-- Node1&#45;&gt;Node3 -->
<g id="edge2" class="edge">
<title>Node1&#45;&gt;Node3</title>
<path fill="none" stroke="#63b8ff" d="M148.93,-54.54C139.59,-46.13 127.78,-35.51 118.11,-26.8"/>
<polygon fill="#63b8ff" stroke="#63b8ff" points="120.54,-24.28 110.76,-20.19 115.86,-29.48 120.54,-24.28"/>
</g>
<!-- Node4 -->
<g id="node4" class="node">
<title>Node4</title>
<g id="a_node4"><a xlink:title=" ">
<polygon fill="#e0e0e0" stroke="#999999" points="184,-19 146,-19 146,0 184,0 184,-19"/>
<text text-anchor="middle" x="165" y="-7" font-family="Helvetica,sans-Serif" font-size="10.00">array</text>
</a>
</g>
</g>
<!-- Node1&#45;&gt;Node4 -->
<g id="edge3" class="edge">
<title>Node1&#45;&gt;Node4</title>
<path fill="none" stroke="#63b8ff" d="M165,-54.54C165,-47.34 165,-38.53 165,-30.68"/>
<polygon fill="#63b8ff" stroke="#63b8ff" points="168.5,-30.69 165,-20.69 161.5,-30.69 168.5,-30.69"/>
</g>
<!-- Node5 -->
<g id="node5" class="node">
<title>Node5</title>
<g id="a_node5"><a xlink:title=" ">
<polygon fill="#e0e0e0" stroke="#999999" points="246,-19 202,-19 202,0 246,0 246,-19"/>
<text text-anchor="middle" x="224" y="-7" font-family="Helvetica,sans-Serif" font-size="10.00">vector</text>
</a>
</g>
</g>
<!-- Node1&#45;&gt;Node5 -->
<g id="edge4" class="edge">
<title>Node1&#45;&gt;Node5</title>
<path fill="none" stroke="#63b8ff" d="M179.58,-54.54C187.98,-46.22 198.56,-35.72 207.29,-27.07"/>
<polygon fill="#63b8ff" stroke="#63b8ff" points="209.54,-29.77 214.18,-20.24 204.61,-24.8 209.54,-29.77"/>
</g>
<!-- Node6 -->
<g id="node6" class="node">
<title>Node6</title>
<g id="a_node6"><a xlink:title=" ">
<polygon fill="#e0e0e0" stroke="#999999" points="303.5,-19 264.5,-19 264.5,0 303.5,0 303.5,-19"/>
<text text-anchor="middle" x="284" y="-7" font-family="Helvetica,sans-Serif" font-size="10.00">utility</text>
</a>
</g>
</g>
<!-- Node1&#45;&gt;Node6 -->
<g id="edge5" class="edge">
<title>Node1&#45;&gt;Node6</title>
<path fill="none" stroke="#63b8ff" d="M194.42,-54.54C213.17,-45.32 237.34,-33.44 255.85,-24.34"/>
<polygon fill="#63b8ff" stroke="#63b8ff" points="257.22,-27.57 264.65,-20.01 254.13,-21.28 257.22,-27.57"/>
</g>
</g>
</svg>
