<?xml version="1.0" encoding="UTF-8" standalone="no"?>
<!DOCTYPE svg PUBLIC "-//W3C//DTD SVG 1.1//EN"
 "http://www.w3.org/Graphics/SVG/1.1/DTD/svg11.dtd">
<!-- Generated by graphviz version 7.0.5 (20221223.1930)
 -->
<!-- Title: /github/workspace/client/include/Engine/Window.hpp Pages: 1 -->
<svg width="2532pt" height="610pt"
 viewBox="0.00 0.00 2532.00 610.00" xmlns="http://www.w3.org/2000/svg" xmlns:xlink="http://www.w3.org/1999/xlink">
<g id="graph0" class="graph" transform="scale(1 1) rotate(0) translate(4 606)">
<title>/github/workspace/client/include/Engine/Window.hpp</title>
<!-- Node1 -->
<g id="node1" class="node">
<title>Node1</title>
<g id="a_node1"><a xlink:title=" ">
<polygon fill="#999999" stroke="#666666" points="1324,-602 1186,-602 1186,-572 1324,-572 1324,-602"/>
<text text-anchor="start" x="1194" y="-590" font-family="Helvetica,sans-Serif" font-size="10.00">/github/workspace/client</text>
<text text-anchor="middle" x="1255" y="-579" font-family="Helvetica,sans-Serif" font-size="10.00">/include/Engine/Window.hpp</text>
</a>
</g>
</g>
<!-- Node2 -->
<g id="node2" class="node">
<title>Node2</title>
<g id="a_node2"><a xlink:href="Engine_8hpp.html" target="_top" xlink:title=" ">
<polygon fill="white" stroke="#666666" points="1274.5,-536 1141.5,-536 1141.5,-506 1274.5,-506 1274.5,-536"/>
<text text-anchor="start" x="1149.5" y="-524" font-family="Helvetica,sans-Serif" font-size="10.00">/github/workspace/client</text>
<text text-anchor="middle" x="1208" y="-513" font-family="Helvetica,sans-Serif" font-size="10.00">/include/Engine/Engine.hpp</text>
</a>
</g>
</g>
<!-- Node1&#45;&gt;Node2 -->
<g id="edge1" class="edge">
<title>Node1&#45;&gt;Node2</title>
<path fill="none" stroke="#63b8ff" d="M1231.57,-562.96C1224.5,-554 1217.44,-544.03 1212.69,-536.16"/>
<polygon fill="#63b8ff" stroke="#63b8ff" points="1228.83,-565.13 1237.89,-570.63 1234.23,-560.68 1228.83,-565.13"/>
</g>
<!-- Node35 -->
<g id="node35" class="node">
<title>Node35</title>
<g id="a_node35"><a xlink:href="StateManager_8hpp.html" target="_top" xlink:title=" ">
<polygon fill="white" stroke="#666666" points="2524,-470 2360,-470 2360,-440 2524,-440 2524,-470"/>
<text text-anchor="start" x="2368" y="-458" font-family="Helvetica,sans-Serif" font-size="10.00">/github/workspace/client</text>
<text text-anchor="middle" x="2442" y="-447" font-family="Helvetica,sans-Serif" font-size="10.00">/include/Engine/StateManager.hpp</text>
</a>
</g>
</g>
<!-- Node1&#45;&gt;Node35 -->
<g id="edge63" class="edge">
<title>Node1&#45;&gt;Node35</title>
<path fill="none" stroke="#63b8ff" d="M1267.73,-561.77C1279.15,-542.84 1297.83,-517.81 1322,-506 1424.3,-456.03 2232.61,-480.23 2346,-470 2350.45,-469.6 2355,-469.13 2359.59,-468.61"/>
<polygon fill="#63b8ff" stroke="#63b8ff" points="1264.82,-559.81 1262.9,-570.23 1270.9,-563.29 1264.82,-559.81"/>
</g>
<!-- Node41 -->
<g id="node41" class="node">
<title>Node41</title>
<g id="a_node41"><a xlink:href="Window_8cpp.html" target="_top" xlink:title=" ">
<polygon fill="white" stroke="#666666" points="1453,-536 1331,-536 1331,-506 1453,-506 1453,-536"/>
<text text-anchor="start" x="1339" y="-524" font-family="Helvetica,sans-Serif" font-size="10.00">/github/workspace/client</text>
<text text-anchor="middle" x="1392" y="-513" font-family="Helvetica,sans-Serif" font-size="10.00">/src/Window.cpp</text>
</a>
</g>
</g>
<!-- Node1&#45;&gt;Node41 -->
<g id="edge64" class="edge">
<title>Node1&#45;&gt;Node41</title>
<path fill="none" stroke="#63b8ff" d="M1295.98,-566.86C1316.96,-557.05 1342.08,-545.32 1361.36,-536.31"/>
<polygon fill="#63b8ff" stroke="#63b8ff" points="1294.7,-563.59 1287.12,-571 1297.66,-569.94 1294.7,-563.59"/>
</g>
<!-- Node2&#45;&gt;Node1 -->
<g id="edge53" class="edge">
<title>Node2&#45;&gt;Node1</title>
<path fill="none" stroke="#63b8ff" d="M1231.39,-544.99C1238.46,-553.95 1245.53,-563.92 1250.29,-571.8"/>
<polygon fill="#63b8ff" stroke="#63b8ff" points="1234.14,-542.82 1225.08,-537.33 1228.74,-547.28 1234.14,-542.82"/>
</g>
<!-- Node3 -->
<g id="node3" class="node">
<title>Node3</title>
<g id="a_node3"><a xlink:href="Background_8hpp.html" target="_top" xlink:title=" ">
<polygon fill="white" stroke="#666666" points="1669.5,-470 1488.5,-470 1488.5,-440 1669.5,-440 1669.5,-470"/>
<text text-anchor="start" x="1496.5" y="-458" font-family="Helvetica,sans-Serif" font-size="10.00">/github/workspace/client</text>
<text text-anchor="middle" x="1579" y="-447" font-family="Helvetica,sans-Serif" font-size="10.00">/include/Components/Background.hpp</text>
</a>
</g>
</g>
<!-- Node2&#45;&gt;Node3 -->
<g id="edge2" class="edge">
<title>Node2&#45;&gt;Node3</title>
<path fill="none" stroke="#63b8ff" d="M1285.88,-504.99C1357.41,-492.64 1431.79,-479.83 1488.3,-470.32"/>
<polygon fill="#63b8ff" stroke="#63b8ff" points="1285.63,-501.48 1276.38,-506.63 1286.83,-508.37 1285.63,-501.48"/>
</g>
<!-- Node11 -->
<g id="node11" class="node">
<title>Node11</title>
<g id="a_node11"><a xlink:href="client_2src_2main_8cpp.html" target="_top" xlink:title=" ">
<polygon fill="white" stroke="#666666" points="453,-30 331,-30 331,0 453,0 453,-30"/>
<text text-anchor="start" x="339" y="-18" font-family="Helvetica,sans-Serif" font-size="10.00">/github/workspace/client</text>
<text text-anchor="middle" x="392" y="-7" font-family="Helvetica,sans-Serif" font-size="10.00">/src/main.cpp</text>
</a>
</g>
</g>
<!-- Node2&#45;&gt;Node11 -->
<g id="edge62" class="edge">
<title>Node2&#45;&gt;Node11</title>
<path fill="none" stroke="#63b8ff" d="M1130.01,-519.66C891.92,-518.18 184.93,-510.39 90,-470 39.23,-448.4 0,-439.67 0,-384.5 0,-384.5 0,-384.5 0,-151.5 0,-82.37 220.5,-40.72 330.75,-24.21"/>
<polygon fill="#63b8ff" stroke="#63b8ff" points="1129.79,-523.16 1139.81,-519.72 1129.83,-516.16 1129.79,-523.16"/>
</g>
<!-- Node14 -->
<g id="node14" class="node">
<title>Node14</title>
<g id="a_node14"><a xlink:href="Bonus_8hpp.html" target="_top" xlink:title=" ">
<polygon fill="white" stroke="#666666" points="223.5,-398.5 66.5,-398.5 66.5,-368.5 223.5,-368.5 223.5,-398.5"/>
<text text-anchor="start" x="74.5" y="-386.5" font-family="Helvetica,sans-Serif" font-size="10.00">/github/workspace/client</text>
<text text-anchor="middle" x="145" y="-375.5" font-family="Helvetica,sans-Serif" font-size="10.00">/include/Components/Bonus.hpp</text>
</a>
</g>
</g>
<!-- Node2&#45;&gt;Node14 -->
<g id="edge17" class="edge">
<title>Node2&#45;&gt;Node14</title>
<path fill="none" stroke="#63b8ff" d="M1129.85,-519.53C942.61,-517.77 472.7,-509.43 321,-470 262.15,-454.71 199.55,-419 167.22,-398.9"/>
<polygon fill="#63b8ff" stroke="#63b8ff" points="1129.69,-523.03 1139.72,-519.62 1129.75,-516.03 1129.69,-523.03"/>
</g>
<!-- Node15 -->
<g id="node15" class="node">
<title>Node15</title>
<g id="a_node15"><a xlink:href="include_8hpp.html" target="_top" xlink:title=" ">
<polygon fill="white" stroke="#666666" points="542,-321.5 420,-321.5 420,-291.5 542,-291.5 542,-321.5"/>
<text text-anchor="start" x="428" y="-309.5" font-family="Helvetica,sans-Serif" font-size="10.00">/github/workspace/client</text>
<text text-anchor="middle" x="481" y="-298.5" font-family="Helvetica,sans-Serif" font-size="10.00">/include/include.hpp</text>
</a>
</g>
</g>
<!-- Node2&#45;&gt;Node15 -->
<g id="edge60" class="edge">
<title>Node2&#45;&gt;Node15</title>
<path fill="none" stroke="#63b8ff" d="M1129.55,-518.87C930.77,-515.55 411.13,-503.79 242,-470 156.39,-452.9 107.3,-475.35 57,-404 46.5,-389.11 44.98,-376.7 57,-363 80.54,-336.18 307.84,-318.34 419.59,-311.12"/>
<polygon fill="#63b8ff" stroke="#63b8ff" points="1129.47,-522.37 1139.52,-519.04 1129.58,-515.37 1129.47,-522.37"/>
</g>
<!-- Node16 -->
<g id="node16" class="node">
<title>Node16</title>
<g id="a_node16"><a xlink:href="Bouton_8hpp.html" target="_top" xlink:title=" ">
<polygon fill="white" stroke="#666666" points="2339,-321.5 2179,-321.5 2179,-291.5 2339,-291.5 2339,-321.5"/>
<text text-anchor="start" x="2187" y="-309.5" font-family="Helvetica,sans-Serif" font-size="10.00">/github/workspace/client</text>
<text text-anchor="middle" x="2259" y="-298.5" font-family="Helvetica,sans-Serif" font-size="10.00">/include/Components/Bouton.hpp</text>
</a>
</g>
</g>
<!-- Node2&#45;&gt;Node16 -->
<g id="edge19" class="edge">
<title>Node2&#45;&gt;Node16</title>
<path fill="none" stroke="#63b8ff" d="M1285.87,-506.39C1410.45,-500.57 2273.52,-509.25 2312,-470 2345.29,-436.04 2330.9,-407.06 2313,-363 2306.22,-346.31 2291.74,-331.89 2279.48,-321.93"/>
<polygon fill="#63b8ff" stroke="#63b8ff" points="1285.9,-502.88 1276.16,-507.05 1286.37,-509.86 1285.9,-502.88"/>
</g>
<!-- Node17 -->
<g id="node17" class="node">
<title>Node17</title>
<g id="a_node17"><a xlink:href="Bullets_8hpp.html" target="_top" xlink:title=" ">
<polygon fill="white" stroke="#666666" points="579.5,-398.5 420.5,-398.5 420.5,-368.5 579.5,-368.5 579.5,-398.5"/>
<text text-anchor="start" x="428.5" y="-386.5" font-family="Helvetica,sans-Serif" font-size="10.00">/github/workspace/client</text>
<text text-anchor="middle" x="500" y="-375.5" font-family="Helvetica,sans-Serif" font-size="10.00">/include/Components/Bullets.hpp</text>
</a>
</g>
</g>
<!-- Node2&#45;&gt;Node17 -->
<g id="edge22" class="edge">
<title>Node2&#45;&gt;Node17</title>
<path fill="none" stroke="#63b8ff" d="M1129.99,-517.56C968.32,-511.83 608.02,-496.05 559,-470 529.02,-454.07 507.72,-418.62 500.7,-398.73"/>
<polygon fill="#63b8ff" stroke="#63b8ff" points="1129.65,-521.05 1139.76,-517.9 1129.89,-514.05 1129.65,-521.05"/>
</g>
<!-- Node19 -->
<g id="node19" class="node">
<title>Node19</title>
<g id="a_node19"><a xlink:href="Centipede_8hpp.html" target="_top" xlink:title=" ">
<polygon fill="white" stroke="#666666" points="1182.5,-398.5 1009.5,-398.5 1009.5,-368.5 1182.5,-368.5 1182.5,-398.5"/>
<text text-anchor="start" x="1017.5" y="-386.5" font-family="Helvetica,sans-Serif" font-size="10.00">/github/workspace/client</text>
<text text-anchor="middle" x="1096" y="-375.5" font-family="Helvetica,sans-Serif" font-size="10.00">/include/Components/Centipede.hpp</text>
</a>
</g>
</g>
<!-- Node2&#45;&gt;Node19 -->
<g id="edge26" class="edge">
<title>Node2&#45;&gt;Node19</title>
<path fill="none" stroke="#63b8ff" d="M1189,-497.02C1165.83,-468.98 1127.35,-422.42 1107.95,-398.96"/>
<polygon fill="#63b8ff" stroke="#63b8ff" points="1186.19,-499.11 1195.26,-504.59 1191.59,-494.65 1186.19,-499.11"/>
</g>
<!-- Node20 -->
<g id="node20" class="node">
<title>Node20</title>
<g id="a_node20"><a xlink:href="IComponents_8hpp.html" target="_top" xlink:title=" ">
<polygon fill="white" stroke="#666666" points="775.5,-470 588.5,-470 588.5,-440 775.5,-440 775.5,-470"/>
<text text-anchor="start" x="596.5" y="-458" font-family="Helvetica,sans-Serif" font-size="10.00">/github/workspace/client</text>
<text text-anchor="middle" x="682" y="-447" font-family="Helvetica,sans-Serif" font-size="10.00">/include/Components/IComponents.hpp</text>
</a>
</g>
</g>
<!-- Node2&#45;&gt;Node20 -->
<g id="edge28" class="edge">
<title>Node2&#45;&gt;Node20</title>
<path fill="none" stroke="#63b8ff" d="M1129.77,-510.88C1045.77,-501.02 908.4,-484.75 790,-470 785.4,-469.43 780.7,-468.84 775.95,-468.23"/>
<polygon fill="#63b8ff" stroke="#63b8ff" points="1129.17,-514.33 1139.51,-512.02 1129.98,-507.38 1129.17,-514.33"/>
</g>
<!-- Node21 -->
<g id="node21" class="node">
<title>Node21</title>
<g id="a_node21"><a xlink:href="EntitiesManager_8hpp.html" target="_top" xlink:title=" ">
<polygon fill="white" stroke="#666666" points="774,-398.5 598,-398.5 598,-368.5 774,-368.5 774,-398.5"/>
<text text-anchor="start" x="606" y="-386.5" font-family="Helvetica,sans-Serif" font-size="10.00">/github/workspace/client</text>
<text text-anchor="middle" x="686" y="-375.5" font-family="Helvetica,sans-Serif" font-size="10.00">/include/Entities/EntitiesManager.hpp</text>
</a>
</g>
</g>
<!-- Node2&#45;&gt;Node21 -->
<g id="edge54" class="edge">
<title>Node2&#45;&gt;Node21</title>
<path fill="none" stroke="#63b8ff" d="M1129.9,-519.63C967.78,-518.07 607.04,-510.1 570,-470 543.7,-441.53 594.27,-414.65 636.81,-398.88"/>
<polygon fill="#63b8ff" stroke="#63b8ff" points="1129.67,-523.13 1139.71,-519.72 1129.74,-516.13 1129.67,-523.13"/>
</g>
<!-- Node23 -->
<g id="node23" class="node">
<title>Node23</title>
<g id="a_node23"><a xlink:href="oold__EntitiesManager_8hpp.html" target="_top" xlink:title=" ">
<polygon fill="white" stroke="#666666" points="914,-404 792,-404 792,-363 914,-363 914,-404"/>
<text text-anchor="start" x="800" y="-392" font-family="Helvetica,sans-Serif" font-size="10.00">/github/workspace/client</text>
<text text-anchor="start" x="800" y="-381" font-family="Helvetica,sans-Serif" font-size="10.00">/include/Entities/oold</text>
<text text-anchor="middle" x="853" y="-370" font-family="Helvetica,sans-Serif" font-size="10.00">_EntitiesManager.hpp</text>
</a>
</g>
</g>
<!-- Node2&#45;&gt;Node23 -->
<g id="edge59" class="edge">
<title>Node2&#45;&gt;Node23</title>
<path fill="none" stroke="#63b8ff" d="M1129.83,-515.3C1023.16,-508.07 842.9,-492.66 823,-470 806.6,-451.33 821.87,-423.14 835.96,-404.29"/>
<polygon fill="#63b8ff" stroke="#63b8ff" points="1129.46,-518.78 1139.67,-515.95 1129.93,-511.8 1129.46,-518.78"/>
</g>
<!-- Node24 -->
<g id="node24" class="node">
<title>Node24</title>
<g id="a_node24"><a xlink:href="Mobs_8hpp.html" target="_top" xlink:title=" ">
<polygon fill="white" stroke="#666666" points="985.5,-470 832.5,-470 832.5,-440 985.5,-440 985.5,-470"/>
<text text-anchor="start" x="840.5" y="-458" font-family="Helvetica,sans-Serif" font-size="10.00">/github/workspace/client</text>
<text text-anchor="middle" x="909" y="-447" font-family="Helvetica,sans-Serif" font-size="10.00">/include/Components/Mobs.hpp</text>
</a>
</g>
</g>
<!-- Node2&#45;&gt;Node24 -->
<g id="edge37" class="edge">
<title>Node2&#45;&gt;Node24</title>
<path fill="none" stroke="#63b8ff" d="M1130.08,-503.32C1082.45,-493.13 1022.15,-480.22 976.56,-470.46"/>
<polygon fill="#63b8ff" stroke="#63b8ff" points="1129.28,-506.73 1139.79,-505.4 1130.74,-499.88 1129.28,-506.73"/>
</g>
<!-- Node25 -->
<g id="node25" class="node">
<title>Node25</title>
<g id="a_node25"><a xlink:href="Audio_8hpp.html" target="_top" xlink:title=" ">
<polygon fill="white" stroke="#666666" points="1132,-470 1004,-470 1004,-440 1132,-440 1132,-470"/>
<text text-anchor="start" x="1012" y="-458" font-family="Helvetica,sans-Serif" font-size="10.00">/github/workspace/client</text>
<text text-anchor="middle" x="1068" y="-447" font-family="Helvetica,sans-Serif" font-size="10.00">/include/Engine/Audio.hpp</text>
</a>
</g>
</g>
<!-- Node2&#45;&gt;Node25 -->
<g id="edge38" class="edge">
<title>Node2&#45;&gt;Node25</title>
<path fill="none" stroke="#63b8ff" d="M1166.12,-500.86C1144.68,-491.05 1119.02,-479.32 1099.31,-470.31"/>
<polygon fill="#63b8ff" stroke="#63b8ff" points="1164.65,-504.03 1175.2,-505.01 1167.57,-497.67 1164.65,-504.03"/>
</g>
<!-- Node26 -->
<g id="node26" class="node">
<title>Node26</title>
<g id="a_node26"><a xlink:href="Destroy_8hpp.html" target="_top" xlink:title=" ">
<polygon fill="white" stroke="#666666" points="1325.5,-470 1188.5,-470 1188.5,-440 1325.5,-440 1325.5,-470"/>
<text text-anchor="start" x="1196.5" y="-458" font-family="Helvetica,sans-Serif" font-size="10.00">/github/workspace/client</text>
<text text-anchor="middle" x="1257" y="-447" font-family="Helvetica,sans-Serif" font-size="10.00">/include/Engine/Destroy.hpp</text>
</a>
</g>
</g>
<!-- Node2&#45;&gt;Node26 -->
<g id="edge39" class="edge">
<title>Node2&#45;&gt;Node26</title>
<path fill="none" stroke="#63b8ff" d="M1225.86,-496.68C1232.66,-487.79 1240.2,-477.95 1246.16,-470.16"/>
<polygon fill="#63b8ff" stroke="#63b8ff" points="1223.09,-494.53 1219.79,-504.59 1228.65,-498.78 1223.09,-494.53"/>
</g>
<!-- Node28 -->
<g id="node28" class="node">
<title>Node28</title>
<g id="a_node28"><a xlink:href="Draw_8hpp.html" target="_top" xlink:title=" ">
<polygon fill="white" stroke="#666666" points="1470,-470 1344,-470 1344,-440 1470,-440 1470,-470"/>
<text text-anchor="start" x="1352" y="-458" font-family="Helvetica,sans-Serif" font-size="10.00">/github/workspace/client</text>
<text text-anchor="middle" x="1407" y="-447" font-family="Helvetica,sans-Serif" font-size="10.00">/include/Engine/Draw.hpp</text>
</a>
</g>
</g>
<!-- Node2&#45;&gt;Node28 -->
<g id="edge41" class="edge">
<title>Node2&#45;&gt;Node28</title>
<path fill="none" stroke="#63b8ff" d="M1263.35,-502.2C1294.5,-492.18 1332.89,-479.83 1362.15,-470.43"/>
<polygon fill="#63b8ff" stroke="#63b8ff" points="1262.55,-498.78 1254.1,-505.17 1264.69,-505.44 1262.55,-498.78"/>
</g>
<!-- Node30 -->
<g id="node30" class="node">
<title>Node30</title>
<g id="a_node30"><a xlink:href="Error_8hpp.html" target="_top" xlink:title=" ">
<polygon fill="white" stroke="#666666" points="454,-470 330,-470 330,-440 454,-440 454,-470"/>
<text text-anchor="start" x="338" y="-458" font-family="Helvetica,sans-Serif" font-size="10.00">/github/workspace/client</text>
<text text-anchor="middle" x="392" y="-447" font-family="Helvetica,sans-Serif" font-size="10.00">/include/Engine/Error.hpp</text>
</a>
</g>
</g>
<!-- Node2&#45;&gt;Node30 -->
<g id="edge43" class="edge">
<title>Node2&#45;&gt;Node30</title>
<path fill="none" stroke="#63b8ff" d="M1129.65,-517.39C994.87,-512.3 710.59,-498.9 472,-470 466.26,-469.3 460.31,-468.47 454.36,-467.57"/>
<polygon fill="#63b8ff" stroke="#63b8ff" points="1129.42,-520.88 1139.54,-517.76 1129.68,-513.89 1129.42,-520.88"/>
</g>
<!-- Node32 -->
<g id="node32" class="node">
<title>Node32</title>
<g id="a_node32"><a xlink:href="Event_8hpp.html" target="_top" xlink:title=" ">
<polygon fill="white" stroke="#666666" points="1816,-470 1688,-470 1688,-440 1816,-440 1816,-470"/>
<text text-anchor="start" x="1696" y="-458" font-family="Helvetica,sans-Serif" font-size="10.00">/github/workspace/client</text>
<text text-anchor="middle" x="1752" y="-447" font-family="Helvetica,sans-Serif" font-size="10.00">/include/Engine/Event.hpp</text>
</a>
</g>
</g>
<!-- Node2&#45;&gt;Node32 -->
<g id="edge46" class="edge">
<title>Node2&#45;&gt;Node32</title>
<path fill="none" stroke="#63b8ff" d="M1286.1,-505.23C1454.11,-483.65 1500.76,-493.65 1669,-470 1675.09,-469.14 1681.43,-468.13 1687.79,-467.05"/>
<polygon fill="#63b8ff" stroke="#63b8ff" points="1285.82,-501.74 1276.36,-506.51 1286.73,-508.68 1285.82,-501.74"/>
</g>
<!-- Node33 -->
<g id="node33" class="node">
<title>Node33</title>
<g id="a_node33"><a xlink:href="Event_8cpp.html" target="_top" xlink:title=" ">
<polygon fill="white" stroke="#666666" points="1883,-398.5 1761,-398.5 1761,-368.5 1883,-368.5 1883,-398.5"/>
<text text-anchor="start" x="1769" y="-386.5" font-family="Helvetica,sans-Serif" font-size="10.00">/github/workspace/client</text>
<text text-anchor="middle" x="1822" y="-375.5" font-family="Helvetica,sans-Serif" font-size="10.00">/src/Event.cpp</text>
</a>
</g>
</g>
<!-- Node2&#45;&gt;Node33 -->
<g id="edge61" class="edge">
<title>Node2&#45;&gt;Node33</title>
<path fill="none" stroke="#63b8ff" d="M1285.91,-506.35C1286.94,-506.23 1287.98,-506.11 1289,-506 1334.11,-501.13 2073.63,-502.79 2105,-470 2114.22,-460.37 2113.47,-450.3 2105,-440 2090.98,-422.97 1962.12,-403.08 1883.2,-392.34"/>
<polygon fill="#63b8ff" stroke="#63b8ff" points="1285.63,-502.85 1276.15,-507.6 1286.52,-509.8 1285.63,-502.85"/>
</g>
<!-- Node34 -->
<g id="node34" class="node">
<title>Node34</title>
<g id="a_node34"><a xlink:href="Map_8hpp.html" target="_top" xlink:title=" ">
<polygon fill="white" stroke="#666666" points="1956,-470 1834,-470 1834,-440 1956,-440 1956,-470"/>
<text text-anchor="start" x="1842" y="-458" font-family="Helvetica,sans-Serif" font-size="10.00">/github/workspace/client</text>
<text text-anchor="middle" x="1895" y="-447" font-family="Helvetica,sans-Serif" font-size="10.00">/include/Engine/Map.hpp</text>
</a>
</g>
</g>
<!-- Node2&#45;&gt;Node34 -->
<g id="edge49" class="edge">
<title>Node2&#45;&gt;Node34</title>
<path fill="none" stroke="#63b8ff" d="M1285.91,-506.38C1286.95,-506.25 1287.98,-506.12 1289,-506 1526.07,-477.63 1588.33,-501.48 1825,-470 1827.83,-469.62 1830.71,-469.2 1833.62,-468.75"/>
<polygon fill="#63b8ff" stroke="#63b8ff" points="1285.6,-502.89 1276.16,-507.71 1286.55,-509.83 1285.6,-502.89"/>
</g>
<!-- Node2&#45;&gt;Node35 -->
<g id="edge50" class="edge">
<title>Node2&#45;&gt;Node35</title>
<path fill="none" stroke="#63b8ff" d="M1285.91,-506.33C1286.94,-506.22 1287.98,-506.11 1289,-506 1756.58,-457.86 1877.83,-511.98 2346,-470 2350.45,-469.6 2355,-469.14 2359.59,-468.62"/>
<polygon fill="#63b8ff" stroke="#63b8ff" points="1285.64,-502.84 1276.15,-507.55 1286.5,-509.78 1285.64,-502.84"/>
</g>
<!-- Node36 -->
<g id="node36" class="node">
<title>Node36</title>
<g id="a_node36"><a xlink:href="Text_8hpp.html" target="_top" xlink:title=" ">
<polygon fill="white" stroke="#666666" points="2096,-470 1974,-470 1974,-440 2096,-440 2096,-470"/>
<text text-anchor="start" x="1982" y="-458" font-family="Helvetica,sans-Serif" font-size="10.00">/github/workspace/client</text>
<text text-anchor="middle" x="2035" y="-447" font-family="Helvetica,sans-Serif" font-size="10.00">/include/Engine/Text.hpp</text>
</a>
</g>
</g>
<!-- Node2&#45;&gt;Node36 -->
<g id="edge52" class="edge">
<title>Node2&#45;&gt;Node36</title>
<path fill="none" stroke="#63b8ff" d="M1285.91,-506.36C1286.95,-506.24 1287.98,-506.12 1289,-506 1587.98,-472.32 1666.49,-507.6 1965,-470 1967.83,-469.64 1970.71,-469.24 1973.62,-468.8"/>
<polygon fill="#63b8ff" stroke="#63b8ff" points="1285.62,-502.87 1276.16,-507.64 1286.53,-509.81 1285.62,-502.87"/>
</g>
<!-- Node37 -->
<g id="node37" class="node">
<title>Node37</title>
<g id="a_node37"><a xlink:href="Properties_8hpp.html" target="_top" xlink:title=" ">
<polygon fill="white" stroke="#666666" points="2303.5,-470 2152.5,-470 2152.5,-440 2303.5,-440 2303.5,-470"/>
<text text-anchor="start" x="2160.5" y="-458" font-family="Helvetica,sans-Serif" font-size="10.00">/github/workspace/client</text>
<text text-anchor="middle" x="2228" y="-447" font-family="Helvetica,sans-Serif" font-size="10.00">/include/Entities/Properties.hpp</text>
</a>
</g>
</g>
<!-- Node2&#45;&gt;Node37 -->
<g id="edge55" class="edge">
<title>Node2&#45;&gt;Node37</title>
<path fill="none" stroke="#63b8ff" d="M1285.91,-506.34C1286.94,-506.22 1287.98,-506.11 1289,-506 1664.52,-465.76 1762.15,-507.08 2138,-470 2142.72,-469.53 2147.57,-468.99 2152.46,-468.38"/>
<polygon fill="#63b8ff" stroke="#63b8ff" points="1285.63,-502.85 1276.15,-507.59 1286.51,-509.79 1285.63,-502.85"/>
</g>
<!-- Node3&#45;&gt;Node2 -->
<g id="edge3" class="edge">
<title>Node3&#45;&gt;Node2</title>
<path fill="none" stroke="#63b8ff" d="M1491.33,-472.46C1435.93,-482.21 1362.88,-494.8 1298,-506 1290.55,-507.29 1282.71,-508.64 1274.88,-509.98"/>
<polygon fill="#63b8ff" stroke="#63b8ff" points="1491.79,-475.93 1501.03,-470.75 1490.58,-469.04 1491.79,-475.93"/>
</g>
<!-- Node4 -->
<g id="node4" class="node">
<title>Node4</title>
<g id="a_node4"><a xlink:href="IGameState_8hpp.html" target="_top" xlink:title=" ">
<polygon fill="white" stroke="#666666" points="1649,-327 1509,-327 1509,-286 1649,-286 1649,-327"/>
<text text-anchor="start" x="1517" y="-315" font-family="Helvetica,sans-Serif" font-size="10.00">/github/workspace/client</text>
<text text-anchor="start" x="1517" y="-304" font-family="Helvetica,sans-Serif" font-size="10.00">/include/system/gameStates</text>
<text text-anchor="middle" x="1579" y="-293" font-family="Helvetica,sans-Serif" font-size="10.00">/IGameState.hpp</text>
</a>
</g>
</g>
<!-- Node3&#45;&gt;Node4 -->
<g id="edge4" class="edge">
<title>Node3&#45;&gt;Node4</title>
<path fill="none" stroke="#63b8ff" d="M1579,-428.51C1579,-399.69 1579,-353.37 1579,-327.19"/>
<polygon fill="#63b8ff" stroke="#63b8ff" points="1575.5,-428.17 1579,-438.17 1582.5,-428.17 1575.5,-428.17"/>
</g>
<!-- Node5 -->
<g id="node5" class="node">
<title>Node5</title>
<g id="a_node5"><a xlink:href="SGamePlay__Duck_8hpp.html" target="_top" xlink:title=" ">
<polygon fill="white" stroke="#666666" points="1657.5,-250 1500.5,-250 1500.5,-209 1657.5,-209 1657.5,-250"/>
<text text-anchor="start" x="1508.5" y="-238" font-family="Helvetica,sans-Serif" font-size="10.00">/github/workspace/client</text>
<text text-anchor="start" x="1508.5" y="-227" font-family="Helvetica,sans-Serif" font-size="10.00">/include/system/gameStates</text>
<text text-anchor="middle" x="1579" y="-216" font-family="Helvetica,sans-Serif" font-size="10.00">/Example/SGamePlay_Duck.hpp</text>
</a>
</g>
</g>
<!-- Node4&#45;&gt;Node5 -->
<g id="edge5" class="edge">
<title>Node4&#45;&gt;Node5</title>
<path fill="none" stroke="#63b8ff" d="M1579,-274.36C1579,-266.24 1579,-257.7 1579,-250.33"/>
<polygon fill="#63b8ff" stroke="#63b8ff" points="1575.5,-274.28 1579,-284.28 1582.5,-274.28 1575.5,-274.28"/>
</g>
<!-- Node6 -->
<g id="node6" class="node">
<title>Node6</title>
<g id="a_node6"><a xlink:href="SMenu__Duck_8hpp.html" target="_top" xlink:title=" ">
<polygon fill="white" stroke="#666666" points="2310,-250 2170,-250 2170,-209 2310,-209 2310,-250"/>
<text text-anchor="start" x="2178" y="-238" font-family="Helvetica,sans-Serif" font-size="10.00">/github/workspace/client</text>
<text text-anchor="start" x="2178" y="-227" font-family="Helvetica,sans-Serif" font-size="10.00">/include/system/gameStates</text>
<text text-anchor="middle" x="2240" y="-216" font-family="Helvetica,sans-Serif" font-size="10.00">/Example/SMenu_Duck.hpp</text>
</a>
</g>
</g>
<!-- Node4&#45;&gt;Node6 -->
<g id="edge6" class="edge">
<title>Node4&#45;&gt;Node6</title>
<path fill="none" stroke="#63b8ff" d="M1660.65,-299.91C1770.28,-291.84 1970.97,-275.08 2141,-250 2150.27,-248.63 2159.99,-246.98 2169.57,-245.23"/>
<polygon fill="#63b8ff" stroke="#63b8ff" points="1660.59,-296.4 1650.87,-300.62 1661.1,-303.39 1660.59,-296.4"/>
</g>
<!-- Node7 -->
<g id="node7" class="node">
<title>Node7</title>
<g id="a_node7"><a xlink:href="SGamePlay_8hpp.html" target="_top" xlink:title=" ">
<polygon fill="white" stroke="#666666" points="1816,-250 1676,-250 1676,-209 1816,-209 1816,-250"/>
<text text-anchor="start" x="1684" y="-238" font-family="Helvetica,sans-Serif" font-size="10.00">/github/workspace/client</text>
<text text-anchor="start" x="1684" y="-227" font-family="Helvetica,sans-Serif" font-size="10.00">/include/system/gameStates</text>
<text text-anchor="middle" x="1746" y="-216" font-family="Helvetica,sans-Serif" font-size="10.00">/SGamePlay.hpp</text>
</a>
</g>
</g>
<!-- Node4&#45;&gt;Node7 -->
<g id="edge7" class="edge">
<title>Node4&#45;&gt;Node7</title>
<path fill="none" stroke="#63b8ff" d="M1633.81,-280.88C1655.75,-271.03 1680.69,-259.83 1701.48,-250.49"/>
<polygon fill="#63b8ff" stroke="#63b8ff" points="1632.38,-277.69 1624.7,-284.98 1635.25,-284.07 1632.38,-277.69"/>
</g>
<!-- Node8 -->
<g id="node8" class="node">
<title>Node8</title>
<g id="a_node8"><a xlink:href="States_8hpp.html" target="_top" xlink:title=" ">
<polygon fill="white" stroke="#666666" points="1709,-173 1569,-173 1569,-132 1709,-132 1709,-173"/>
<text text-anchor="start" x="1577" y="-161" font-family="Helvetica,sans-Serif" font-size="10.00">/github/workspace/client</text>
<text text-anchor="start" x="1577" y="-150" font-family="Helvetica,sans-Serif" font-size="10.00">/include/system/gameStates</text>
<text text-anchor="middle" x="1639" y="-139" font-family="Helvetica,sans-Serif" font-size="10.00">/States.hpp</text>
</a>
</g>
</g>
<!-- Node4&#45;&gt;Node8 -->
<g id="edge15" class="edge">
<title>Node4&#45;&gt;Node8</title>
<path fill="none" stroke="#63b8ff" d="M1519.4,-279.53C1508.02,-271.74 1497.61,-261.99 1491,-250 1482.2,-234.04 1480.62,-223.98 1491,-209 1508.66,-183.51 1539.57,-169.71 1568.59,-162.25"/>
<polygon fill="#63b8ff" stroke="#63b8ff" points="1517.51,-282.48 1527.84,-284.82 1521.22,-276.54 1517.51,-282.48"/>
</g>
<!-- Node12 -->
<g id="node12" class="node">
<title>Node12</title>
<g id="a_node12"><a xlink:href="SMenu_8hpp.html" target="_top" xlink:title=" ">
<polygon fill="white" stroke="#666666" points="2132,-250 1992,-250 1992,-209 2132,-209 2132,-250"/>
<text text-anchor="start" x="2000" y="-238" font-family="Helvetica,sans-Serif" font-size="10.00">/github/workspace/client</text>
<text text-anchor="start" x="2000" y="-227" font-family="Helvetica,sans-Serif" font-size="10.00">/include/system/gameStates</text>
<text text-anchor="middle" x="2062" y="-216" font-family="Helvetica,sans-Serif" font-size="10.00">/SMenu.hpp</text>
</a>
</g>
</g>
<!-- Node4&#45;&gt;Node12 -->
<g id="edge13" class="edge">
<title>Node4&#45;&gt;Node12</title>
<path fill="none" stroke="#63b8ff" d="M1660.66,-296.84C1742.56,-287.56 1872.1,-271.24 1983,-250 1985.91,-249.44 1988.88,-248.84 1991.87,-248.22"/>
<polygon fill="#63b8ff" stroke="#63b8ff" points="1660.48,-293.34 1650.94,-297.94 1661.26,-300.3 1660.48,-293.34"/>
</g>
<!-- Node13 -->
<g id="node13" class="node">
<title>Node13</title>
<g id="a_node13"><a xlink:href="old__SGamePlay_01copy_8hpp.html" target="_top" xlink:title=" ">
<polygon fill="white" stroke="#666666" points="1974,-250 1834,-250 1834,-209 1974,-209 1974,-250"/>
<text text-anchor="start" x="1842" y="-238" font-family="Helvetica,sans-Serif" font-size="10.00">/github/workspace/client</text>
<text text-anchor="start" x="1842" y="-227" font-family="Helvetica,sans-Serif" font-size="10.00">/include/system/gameStates</text>
<text text-anchor="middle" x="1904" y="-216" font-family="Helvetica,sans-Serif" font-size="10.00">/old_SGamePlay copy.hpp</text>
</a>
</g>
</g>
<!-- Node4&#45;&gt;Node13 -->
<g id="edge16" class="edge">
<title>Node4&#45;&gt;Node13</title>
<path fill="none" stroke="#63b8ff" d="M1660.29,-287.59C1708.26,-276.91 1770.15,-262.95 1825,-250 1827.89,-249.32 1830.83,-248.62 1833.81,-247.9"/>
<polygon fill="#63b8ff" stroke="#63b8ff" points="1659.82,-284.11 1650.81,-289.7 1661.33,-290.94 1659.82,-284.11"/>
</g>
<!-- Node7&#45;&gt;Node8 -->
<g id="edge8" class="edge">
<title>Node7&#45;&gt;Node8</title>
<path fill="none" stroke="#63b8ff" d="M1708.57,-202.26C1695.09,-192.82 1680.12,-182.32 1667.53,-173.49"/>
<polygon fill="#63b8ff" stroke="#63b8ff" points="1706.17,-204.86 1716.37,-207.73 1710.19,-199.12 1706.17,-204.86"/>
</g>
<!-- Node9 -->
<g id="node9" class="node">
<title>Node9</title>
<g id="a_node9"><a xlink:href="GameEngine_8hpp.html" target="_top" xlink:title=" ">
<polygon fill="white" stroke="#666666" points="1616.5,-96 1455.5,-96 1455.5,-66 1616.5,-66 1616.5,-96"/>
<text text-anchor="start" x="1463.5" y="-84" font-family="Helvetica,sans-Serif" font-size="10.00">/github/workspace/client</text>
<text text-anchor="middle" x="1536" y="-73" font-family="Helvetica,sans-Serif" font-size="10.00">/include/system/GameEngine.hpp</text>
</a>
</g>
</g>
<!-- Node8&#45;&gt;Node9 -->
<g id="edge9" class="edge">
<title>Node8&#45;&gt;Node9</title>
<path fill="none" stroke="#63b8ff" d="M1600.2,-125.32C1585.67,-115.52 1569.71,-104.75 1557.34,-96.4"/>
<polygon fill="#63b8ff" stroke="#63b8ff" points="1597.98,-128.05 1608.23,-130.74 1601.9,-122.24 1597.98,-128.05"/>
</g>
<!-- Node9&#45;&gt;Node4 -->
<g id="edge10" class="edge">
<title>Node9&#45;&gt;Node4</title>
<path fill="none" stroke="#63b8ff" d="M1516.76,-104.96C1491.11,-138.54 1452.02,-202.23 1480,-250 1489.16,-265.64 1504.53,-277.21 1520.45,-285.61"/>
<polygon fill="#63b8ff" stroke="#63b8ff" points="1519.19,-107.54 1522.63,-97.52 1513.69,-103.2 1519.19,-107.54"/>
</g>
<!-- Node10 -->
<g id="node10" class="node">
<title>Node10</title>
<g id="a_node10"><a xlink:href="StateManager_8cpp.html" target="_top" xlink:title=" ">
<polygon fill="white" stroke="#666666" points="2031,-30 1909,-30 1909,0 2031,0 2031,-30"/>
<text text-anchor="start" x="1917" y="-18" font-family="Helvetica,sans-Serif" font-size="10.00">/github/workspace/client</text>
<text text-anchor="middle" x="1970" y="-7" font-family="Helvetica,sans-Serif" font-size="10.00">/src/StateManager.cpp</text>
</a>
</g>
</g>
<!-- Node9&#45;&gt;Node10 -->
<g id="edge11" class="edge">
<title>Node9&#45;&gt;Node10</title>
<path fill="none" stroke="#63b8ff" d="M1628.02,-66.43C1712.63,-53.95 1835.68,-35.81 1908.8,-25.02"/>
<polygon fill="#63b8ff" stroke="#63b8ff" points="1627.75,-62.93 1618.37,-67.85 1628.77,-69.86 1627.75,-62.93"/>
</g>
<!-- Node9&#45;&gt;Node11 -->
<g id="edge12" class="edge">
<title>Node9&#45;&gt;Node11</title>
<path fill="none" stroke="#63b8ff" d="M1443.64,-74.83C1217.78,-62.2 642.24,-30 453.19,-19.42"/>
<polygon fill="#63b8ff" stroke="#63b8ff" points="1443.41,-78.33 1453.59,-75.39 1443.8,-71.34 1443.41,-78.33"/>
</g>
<!-- Node12&#45;&gt;Node8 -->
<g id="edge14" class="edge">
<title>Node12&#45;&gt;Node8</title>
<path fill="none" stroke="#63b8ff" d="M1980.67,-208.61C1881.02,-188.63 1776.7,-172.73 1709.47,-163.14"/>
<polygon fill="#63b8ff" stroke="#63b8ff" points="1979.88,-212.02 1990.37,-210.57 1981.27,-205.15 1979.88,-212.02"/>
</g>
<!-- Node14&#45;&gt;Node15 -->
<g id="edge18" class="edge">
<title>Node14&#45;&gt;Node15</title>
<path fill="none" stroke="#63b8ff" d="M220.72,-365.6C280.74,-352.2 363.56,-333.71 419.53,-321.22"/>
<polygon fill="#63b8ff" stroke="#63b8ff" points="220.26,-362.11 211.26,-367.71 221.78,-368.95 220.26,-362.11"/>
</g>
<!-- Node16&#45;&gt;Node6 -->
<g id="edge20" class="edge">
<title>Node16&#45;&gt;Node6</title>
<path fill="none" stroke="#63b8ff" d="M2252.54,-280C2250.08,-270.3 2247.32,-259.4 2245.02,-250.3"/>
<polygon fill="#63b8ff" stroke="#63b8ff" points="2249.12,-280.74 2254.96,-289.57 2255.9,-279.02 2249.12,-280.74"/>
</g>
<!-- Node16&#45;&gt;Node12 -->
<g id="edge21" class="edge">
<title>Node16&#45;&gt;Node12</title>
<path fill="none" stroke="#63b8ff" d="M2210.27,-286.95C2181.14,-275.86 2144.14,-261.77 2114.39,-250.44"/>
<polygon fill="#63b8ff" stroke="#63b8ff" points="2209.01,-290.21 2219.6,-290.5 2211.5,-283.67 2209.01,-290.21"/>
</g>
<!-- Node17&#45;&gt;Node2 -->
<g id="edge23" class="edge">
<title>Node17&#45;&gt;Node2</title>
<path fill="none" stroke="#63b8ff" d="M518.77,-408.22C532.06,-428.46 551.35,-456.37 577,-470 626.18,-496.13 988.7,-511.94 1141.01,-517.61"/>
<polygon fill="#63b8ff" stroke="#63b8ff" points="521.78,-406.44 513.37,-399.99 515.93,-410.28 521.78,-406.44"/>
</g>
<!-- Node17&#45;&gt;Node15 -->
<g id="edge24" class="edge">
<title>Node17&#45;&gt;Node15</title>
<path fill="none" stroke="#63b8ff" d="M493.56,-357.1C490.59,-345.37 487.17,-331.87 484.65,-321.92"/>
<polygon fill="#63b8ff" stroke="#63b8ff" points="490.12,-357.74 495.96,-366.57 496.9,-356.02 490.12,-357.74"/>
</g>
<!-- Node18 -->
<g id="node18" class="node">
<title>Node18</title>
<g id="a_node18"><a xlink:href="Bullets_8cpp.html" target="_top" xlink:title=" ">
<polygon fill="white" stroke="#666666" points="682,-321.5 560,-321.5 560,-291.5 682,-291.5 682,-321.5"/>
<text text-anchor="start" x="568" y="-309.5" font-family="Helvetica,sans-Serif" font-size="10.00">/github/workspace/client</text>
<text text-anchor="middle" x="621" y="-298.5" font-family="Helvetica,sans-Serif" font-size="10.00">/src/Bullets.cpp</text>
</a>
</g>
</g>
<!-- Node17&#45;&gt;Node18 -->
<g id="edge25" class="edge">
<title>Node17&#45;&gt;Node18</title>
<path fill="none" stroke="#63b8ff" d="M532.92,-362.1C553.44,-349.38 579.35,-333.32 597.74,-321.92"/>
<polygon fill="#63b8ff" stroke="#63b8ff" points="531.27,-359 524.62,-367.24 534.96,-364.95 531.27,-359"/>
</g>
<!-- Node19&#45;&gt;Node4 -->
<g id="edge27" class="edge">
<title>Node19&#45;&gt;Node4</title>
<path fill="none" stroke="#63b8ff" d="M1175.99,-365.89C1181.4,-364.88 1186.78,-363.9 1192,-363 1302.18,-343.92 1430.83,-326.42 1508.54,-316.36"/>
<polygon fill="#63b8ff" stroke="#63b8ff" points="1175.52,-362.42 1166.35,-367.73 1176.83,-369.29 1175.52,-362.42"/>
</g>
<!-- Node20&#45;&gt;Node17 -->
<g id="edge29" class="edge">
<title>Node20&#45;&gt;Node17</title>
<path fill="none" stroke="#63b8ff" d="M633.61,-435.52C603.55,-424.04 565.47,-409.5 537.66,-398.88"/>
<polygon fill="#63b8ff" stroke="#63b8ff" points="632.28,-438.76 642.88,-439.06 634.78,-432.22 632.28,-438.76"/>
</g>
<!-- Node20&#45;&gt;Node19 -->
<g id="edge30" class="edge">
<title>Node20&#45;&gt;Node19</title>
<path fill="none" stroke="#63b8ff" d="M779.3,-437.67C849.21,-425.93 942.6,-410.25 1009.83,-398.97"/>
<polygon fill="#63b8ff" stroke="#63b8ff" points="779.06,-434.16 769.78,-439.26 780.22,-441.06 779.06,-434.16"/>
</g>
<!-- Node20&#45;&gt;Node21 -->
<g id="edge31" class="edge">
<title>Node20&#45;&gt;Node21</title>
<path fill="none" stroke="#63b8ff" d="M683.48,-428.26C684.05,-418.33 684.68,-407.36 685.17,-398.88"/>
<polygon fill="#63b8ff" stroke="#63b8ff" points="680,-427.9 682.92,-438.09 686.98,-428.31 680,-427.9"/>
</g>
<!-- Node20&#45;&gt;Node23 -->
<g id="edge36" class="edge">
<title>Node20&#45;&gt;Node23</title>
<path fill="none" stroke="#63b8ff" d="M727.84,-435.37C751.37,-425.81 780.04,-414.15 804,-404.42"/>
<polygon fill="#63b8ff" stroke="#63b8ff" points="726.78,-432.02 718.83,-439.03 729.42,-438.51 726.78,-432.02"/>
</g>
<!-- Node21&#45;&gt;Node2 -->
<g id="edge32" class="edge">
<title>Node21&#45;&gt;Node2</title>
<path fill="none" stroke="#63b8ff" d="M639.71,-403.39C603.81,-419.49 564.06,-444.09 588,-470 625.19,-510.26 988.62,-518.13 1141.2,-519.65"/>
<polygon fill="#63b8ff" stroke="#63b8ff" points="640.98,-406.66 648.77,-399.48 638.2,-400.23 640.98,-406.66"/>
</g>
<!-- Node21&#45;&gt;Node4 -->
<g id="edge34" class="edge">
<title>Node21&#45;&gt;Node4</title>
<path fill="none" stroke="#63b8ff" d="M763.26,-366.04C769.92,-364.9 776.57,-363.87 783,-363 1049.51,-327.07 1369.55,-313.72 1508.68,-309.36"/>
<polygon fill="#63b8ff" stroke="#63b8ff" points="762.79,-362.57 753.57,-367.77 764.02,-369.46 762.79,-362.57"/>
</g>
<!-- Node21&#45;&gt;Node15 -->
<g id="edge33" class="edge">
<title>Node21&#45;&gt;Node15</title>
<path fill="none" stroke="#63b8ff" d="M635.84,-364.15C600.29,-351.14 553.27,-333.94 520.4,-321.92"/>
<polygon fill="#63b8ff" stroke="#63b8ff" points="634.46,-367.37 645.05,-367.52 636.86,-360.8 634.46,-367.37"/>
</g>
<!-- Node22 -->
<g id="node22" class="node">
<title>Node22</title>
<g id="a_node22"><a xlink:href="EntitiesManager_8cpp.html" target="_top" xlink:title=" ">
<polygon fill="white" stroke="#666666" points="824,-321.5 700,-321.5 700,-291.5 824,-291.5 824,-321.5"/>
<text text-anchor="start" x="708" y="-309.5" font-family="Helvetica,sans-Serif" font-size="10.00">/github/workspace/client</text>
<text text-anchor="middle" x="762" y="-298.5" font-family="Helvetica,sans-Serif" font-size="10.00">/src/EntitiesManager.cpp</text>
</a>
</g>
</g>
<!-- Node21&#45;&gt;Node22 -->
<g id="edge35" class="edge">
<title>Node21&#45;&gt;Node22</title>
<path fill="none" stroke="#63b8ff" d="M708.81,-359.99C721.33,-347.64 736.47,-332.7 747.39,-321.92"/>
<polygon fill="#63b8ff" stroke="#63b8ff" points="706.39,-357.46 701.73,-366.98 711.31,-362.44 706.39,-357.46"/>
</g>
<!-- Node27 -->
<g id="node27" class="node">
<title>Node27</title>
<g id="a_node27"><a xlink:href="Destroy_8cpp.html" target="_top" xlink:title=" ">
<polygon fill="white" stroke="#666666" points="1323,-398.5 1201,-398.5 1201,-368.5 1323,-368.5 1323,-398.5"/>
<text text-anchor="start" x="1209" y="-386.5" font-family="Helvetica,sans-Serif" font-size="10.00">/github/workspace/client</text>
<text text-anchor="middle" x="1262" y="-375.5" font-family="Helvetica,sans-Serif" font-size="10.00">/src/Destroy.cpp</text>
</a>
</g>
</g>
<!-- Node26&#45;&gt;Node27 -->
<g id="edge40" class="edge">
<title>Node26&#45;&gt;Node27</title>
<path fill="none" stroke="#63b8ff" d="M1258.85,-428.26C1259.57,-418.33 1260.36,-407.36 1260.97,-398.88"/>
<polygon fill="#63b8ff" stroke="#63b8ff" points="1255.37,-427.86 1258.14,-438.09 1262.35,-428.37 1255.37,-427.86"/>
</g>
<!-- Node29 -->
<g id="node29" class="node">
<title>Node29</title>
<g id="a_node29"><a xlink:href="Draw_8cpp.html" target="_top" xlink:title=" ">
<polygon fill="white" stroke="#666666" points="1468,-398.5 1346,-398.5 1346,-368.5 1468,-368.5 1468,-398.5"/>
<text text-anchor="start" x="1354" y="-386.5" font-family="Helvetica,sans-Serif" font-size="10.00">/github/workspace/client</text>
<text text-anchor="middle" x="1407" y="-375.5" font-family="Helvetica,sans-Serif" font-size="10.00">/src/Draw.cpp</text>
</a>
</g>
</g>
<!-- Node28&#45;&gt;Node29 -->
<g id="edge42" class="edge">
<title>Node28&#45;&gt;Node29</title>
<path fill="none" stroke="#63b8ff" d="M1407,-428.26C1407,-418.33 1407,-407.36 1407,-398.88"/>
<polygon fill="#63b8ff" stroke="#63b8ff" points="1403.5,-428.09 1407,-438.09 1410.5,-428.09 1403.5,-428.09"/>
</g>
<!-- Node30&#45;&gt;Node11 -->
<g id="edge45" class="edge">
<title>Node30&#45;&gt;Node11</title>
<path fill="none" stroke="#63b8ff" d="M392,-428.66C392,-399.45 392,-350.01 392,-307.5 392,-307.5 392,-307.5 392,-151.5 392,-107.27 392,-54.93 392,-30.24"/>
<polygon fill="#63b8ff" stroke="#63b8ff" points="388.5,-428.34 392,-438.34 395.5,-428.34 388.5,-428.34"/>
</g>
<!-- Node31 -->
<g id="node31" class="node">
<title>Node31</title>
<g id="a_node31"><a xlink:href="Error_8cpp.html" target="_top" xlink:title=" ">
<polygon fill="white" stroke="#666666" points="364,-398.5 242,-398.5 242,-368.5 364,-368.5 364,-398.5"/>
<text text-anchor="start" x="250" y="-386.5" font-family="Helvetica,sans-Serif" font-size="10.00">/github/workspace/client</text>
<text text-anchor="middle" x="303" y="-375.5" font-family="Helvetica,sans-Serif" font-size="10.00">/src/Error.cpp</text>
</a>
</g>
</g>
<!-- Node30&#45;&gt;Node31 -->
<g id="edge44" class="edge">
<title>Node30&#45;&gt;Node31</title>
<path fill="none" stroke="#63b8ff" d="M364.79,-432.75C350.73,-421.77 333.94,-408.66 321.42,-398.88"/>
<polygon fill="#63b8ff" stroke="#63b8ff" points="362.33,-435.27 372.37,-438.67 366.64,-429.75 362.33,-435.27"/>
</g>
<!-- Node32&#45;&gt;Node2 -->
<g id="edge47" class="edge">
<title>Node32&#45;&gt;Node2</title>
<path fill="none" stroke="#63b8ff" d="M1676.82,-471.41C1513.07,-493.71 1466.43,-483.69 1298,-506 1290.5,-506.99 1282.64,-508.18 1274.8,-509.43"/>
<polygon fill="#63b8ff" stroke="#63b8ff" points="1676.85,-474.94 1686.28,-470.1 1675.89,-468 1676.85,-474.94"/>
</g>
<!-- Node32&#45;&gt;Node33 -->
<g id="edge48" class="edge">
<title>Node32&#45;&gt;Node33</title>
<path fill="none" stroke="#63b8ff" d="M1774.36,-431.8C1785.21,-421.02 1797.95,-408.38 1807.51,-398.88"/>
<polygon fill="#63b8ff" stroke="#63b8ff" points="1772.21,-429 1767.58,-438.53 1777.14,-433.97 1772.21,-429"/>
</g>
<!-- Node35&#45;&gt;Node10 -->
<g id="edge51" class="edge">
<title>Node35&#45;&gt;Node10</title>
<path fill="none" stroke="#63b8ff" d="M2431.69,-429.07C2420.74,-400.3 2405,-351.31 2405,-307.5 2405,-307.5 2405,-307.5 2405,-151.5 2405,-74.18 2151.31,-35.93 2031.4,-22.17"/>
<polygon fill="#63b8ff" stroke="#63b8ff" points="2428.42,-430.31 2435.34,-438.34 2434.93,-427.75 2428.42,-430.31"/>
</g>
<!-- Node38 -->
<g id="node38" class="node">
<title>Node38</title>
<g id="a_node38"><a xlink:href="Enemy_8hpp.html" target="_top" xlink:title=" ">
<polygon fill="white" stroke="#666666" points="2130,-398.5 1972,-398.5 1972,-368.5 2130,-368.5 2130,-398.5"/>
<text text-anchor="start" x="1980" y="-386.5" font-family="Helvetica,sans-Serif" font-size="10.00">/github/workspace/client</text>
<text text-anchor="middle" x="2051" y="-375.5" font-family="Helvetica,sans-Serif" font-size="10.00">/include/Components/Enemy.hpp</text>
</a>
</g>
</g>
<!-- Node37&#45;&gt;Node38 -->
<g id="edge56" class="edge">
<title>Node37&#45;&gt;Node38</title>
<path fill="none" stroke="#63b8ff" d="M2180.94,-435.52C2151.7,-424.04 2114.67,-409.5 2087.63,-398.88"/>
<polygon fill="#63b8ff" stroke="#63b8ff" points="2179.33,-438.65 2189.92,-439.05 2181.89,-432.13 2179.33,-438.65"/>
</g>
<!-- Node39 -->
<g id="node39" class="node">
<title>Node39</title>
<g id="a_node39"><a xlink:href="Player_8hpp.html" target="_top" xlink:title=" ">
<polygon fill="white" stroke="#666666" points="2304,-398.5 2148,-398.5 2148,-368.5 2304,-368.5 2304,-398.5"/>
<text text-anchor="start" x="2156" y="-386.5" font-family="Helvetica,sans-Serif" font-size="10.00">/github/workspace/client</text>
<text text-anchor="middle" x="2226" y="-375.5" font-family="Helvetica,sans-Serif" font-size="10.00">/include/Components/Player.hpp</text>
</a>
</g>
</g>
<!-- Node37&#45;&gt;Node39 -->
<g id="edge57" class="edge">
<title>Node37&#45;&gt;Node39</title>
<path fill="none" stroke="#63b8ff" d="M2227.26,-428.26C2226.97,-418.33 2226.66,-407.36 2226.41,-398.88"/>
<polygon fill="#63b8ff" stroke="#63b8ff" points="2223.76,-428.19 2227.54,-438.09 2230.75,-427.99 2223.76,-428.19"/>
</g>
<!-- Node40 -->
<g id="node40" class="node">
<title>Node40</title>
<g id="a_node40"><a xlink:href="Player_8cpp.html" target="_top" xlink:title=" ">
<polygon fill="white" stroke="#666666" points="2161,-321.5 2039,-321.5 2039,-291.5 2161,-291.5 2161,-321.5"/>
<text text-anchor="start" x="2047" y="-309.5" font-family="Helvetica,sans-Serif" font-size="10.00">/github/workspace/client</text>
<text text-anchor="middle" x="2100" y="-298.5" font-family="Helvetica,sans-Serif" font-size="10.00">/src/Player.cpp</text>
</a>
</g>
</g>
<!-- Node39&#45;&gt;Node40 -->
<g id="edge58" class="edge">
<title>Node39&#45;&gt;Node40</title>
<path fill="none" stroke="#63b8ff" d="M2192.02,-362.27C2170.6,-349.52 2143.46,-333.37 2124.22,-321.92"/>
<polygon fill="#63b8ff" stroke="#63b8ff" points="2190.02,-365.16 2200.41,-367.27 2193.6,-359.14 2190.02,-365.16"/>
</g>
</g>
</svg>
