<?xml version="1.0" encoding="UTF-8" standalone="no"?>
<!DOCTYPE svg PUBLIC "-//W3C//DTD SVG 1.1//EN"
 "http://www.w3.org/Graphics/SVG/1.1/DTD/svg11.dtd">
<!-- Generated by graphviz version 7.0.5 (20221223.1930)
 -->
<!-- Title: /github/workspace/client/src/Window.cpp Pages: 1 -->
<svg width="1859pt" height="258pt"
 viewBox="0.00 0.00 1859.17 258.00" xmlns="http://www.w3.org/2000/svg" xmlns:xlink="http://www.w3.org/1999/xlink">
<g id="graph0" class="graph" transform="scale(1 1) rotate(0) translate(4 254)">
<title>/github/workspace/client/src/Window.cpp</title>
<!-- Node1 -->
<g id="node1" class="node">
<title>Node1</title>
<g id="a_node1"><a xlink:title=" ">
<polygon fill="#999999" stroke="#666666" points="1222,-250 1100,-250 1100,-220 1222,-220 1222,-250"/>
<text text-anchor="start" x="1108" y="-238" font-family="Helvetica,sans-Serif" font-size="10.00">/github/workspace/client</text>
<text text-anchor="middle" x="1161" y="-227" font-family="Helvetica,sans-Serif" font-size="10.00">/src/Window.cpp</text>
</a>
</g>
</g>
<!-- Node2 -->
<g id="node2" class="node">
<title>Node2</title>
<g id="a_node2"><a xlink:href="Window_8hpp.html" target="_top" xlink:title=" ">
<polygon fill="white" stroke="#666666" points="1165.5,-184 1064.5,-184 1064.5,-165 1165.5,-165 1165.5,-184"/>
<text text-anchor="middle" x="1115" y="-172" font-family="Helvetica,sans-Serif" font-size="10.00">Engine/Window.hpp</text>
</a>
</g>
</g>
<!-- Node1&#45;&gt;Node2 -->
<g id="edge1" class="edge">
<title>Node1&#45;&gt;Node2</title>
<path fill="none" stroke="#63b8ff" d="M1149.63,-219.54C1143.36,-211.56 1135.52,-201.59 1128.89,-193.16"/>
<polygon fill="#63b8ff" stroke="#63b8ff" points="1131.69,-191.06 1122.76,-185.36 1126.19,-195.39 1131.69,-191.06"/>
</g>
<!-- Node20 -->
<g id="node20" class="node">
<title>Node20</title>
<g id="a_node20"><a xlink:title=" ">
<polygon fill="#e0e0e0" stroke="#999999" points="1344.5,-19 1315.5,-19 1315.5,0 1344.5,0 1344.5,-19"/>
<text text-anchor="middle" x="1330" y="-7" font-family="Helvetica,sans-Serif" font-size="10.00">list</text>
</a>
</g>
</g>
<!-- Node1&#45;&gt;Node20 -->
<g id="edge35" class="edge">
<title>Node1&#45;&gt;Node20</title>
<path fill="none" stroke="#63b8ff" d="M1222.27,-229.2C1375.58,-215.78 1769.03,-172.25 1847,-74 1852.25,-67.39 1852.71,-61.22 1847,-55 1830.23,-36.72 1459.43,-16.95 1356.36,-11.79"/>
<polygon fill="#63b8ff" stroke="#63b8ff" points="1356.58,-8.29 1346.42,-11.29 1356.24,-15.29 1356.58,-8.29"/>
</g>
<!-- Node3 -->
<g id="node3" class="node">
<title>Node3</title>
<g id="a_node3"><a xlink:href="Engine_8hpp.html" target="_top" xlink:title=" ">
<polygon fill="white" stroke="#666666" points="917,-129 821,-129 821,-110 917,-110 917,-129"/>
<text text-anchor="middle" x="869" y="-117" font-family="Helvetica,sans-Serif" font-size="10.00">Engine/Engine.hpp</text>
</a>
</g>
</g>
<!-- Node2&#45;&gt;Node3 -->
<g id="edge2" class="edge">
<title>Node2&#45;&gt;Node3</title>
<path fill="none" stroke="#63b8ff" d="M1068.05,-164.51C1024.52,-155.54 960.21,-141.71 916.51,-131.96"/>
<polygon fill="#63b8ff" stroke="#63b8ff" points="917.32,-128.55 906.79,-129.78 915.78,-135.38 917.32,-128.55"/>
</g>
<!-- Node3&#45;&gt;Node2 -->
<g id="edge17" class="edge">
<title>Node3&#45;&gt;Node2</title>
<path fill="none" stroke="#63b8ff" d="M915.73,-129.45C959.19,-138.4 1023.5,-152.22 1067.27,-161.99"/>
<polygon fill="#63b8ff" stroke="#63b8ff" points="1066.49,-165.4 1077.01,-164.18 1068.02,-158.57 1066.49,-165.4"/>
</g>
<!-- Node4 -->
<g id="node4" class="node">
<title>Node4</title>
<g id="a_node4"><a xlink:title=" ">
<polygon fill="#e0e0e0" stroke="#999999" points="966.5,-74 877.5,-74 877.5,-55 966.5,-55 966.5,-74"/>
<text text-anchor="middle" x="922" y="-62" font-family="Helvetica,sans-Serif" font-size="10.00">SFML/Audio.hpp</text>
</a>
</g>
</g>
<!-- Node3&#45;&gt;Node4 -->
<g id="edge3" class="edge">
<title>Node3&#45;&gt;Node4</title>
<path fill="none" stroke="#63b8ff" d="M877.75,-109.75C885.15,-102.35 895.96,-91.54 905.05,-82.45"/>
<polygon fill="#63b8ff" stroke="#63b8ff" points="907.39,-85.06 911.99,-75.51 902.44,-80.11 907.39,-85.06"/>
</g>
<!-- Node5 -->
<g id="node5" class="node">
<title>Node5</title>
<g id="a_node5"><a xlink:title=" ">
<polygon fill="#e0e0e0" stroke="#999999" points="1199,-74 1095,-74 1095,-55 1199,-55 1199,-74"/>
<text text-anchor="middle" x="1147" y="-62" font-family="Helvetica,sans-Serif" font-size="10.00">SFML/Graphics.hpp</text>
</a>
</g>
</g>
<!-- Node3&#45;&gt;Node5 -->
<g id="edge4" class="edge">
<title>Node3&#45;&gt;Node5</title>
<path fill="none" stroke="#63b8ff" d="M916.16,-109.51C963.83,-100.42 1037.59,-86.36 1088.85,-76.59"/>
<polygon fill="#63b8ff" stroke="#63b8ff" points="1089.42,-80.04 1098.59,-74.73 1088.11,-73.16 1089.42,-80.04"/>
</g>
<!-- Node6 -->
<g id="node6" class="node">
<title>Node6</title>
<g id="a_node6"><a xlink:title=" ">
<polygon fill="#e0e0e0" stroke="#999999" points="1318.5,-74 1217.5,-74 1217.5,-55 1318.5,-55 1318.5,-74"/>
<text text-anchor="middle" x="1268" y="-62" font-family="Helvetica,sans-Serif" font-size="10.00">SFML/Network.hpp</text>
</a>
</g>
</g>
<!-- Node3&#45;&gt;Node6 -->
<g id="edge5" class="edge">
<title>Node3&#45;&gt;Node6</title>
<path fill="none" stroke="#63b8ff" d="M917.3,-112.32C980.89,-104.14 1096.49,-89.16 1206.01,-74.26"/>
<polygon fill="#63b8ff" stroke="#63b8ff" points="1206.33,-77.75 1215.77,-72.93 1205.39,-70.81 1206.33,-77.75"/>
</g>
<!-- Node7 -->
<g id="node7" class="node">
<title>Node7</title>
<g id="a_node7"><a xlink:title=" ">
<polygon fill="#e0e0e0" stroke="#999999" points="1435.5,-74 1336.5,-74 1336.5,-55 1435.5,-55 1435.5,-74"/>
<text text-anchor="middle" x="1386" y="-62" font-family="Helvetica,sans-Serif" font-size="10.00">SFML/Window.hpp</text>
</a>
</g>
</g>
<!-- Node3&#45;&gt;Node7 -->
<g id="edge6" class="edge">
<title>Node3&#45;&gt;Node7</title>
<path fill="none" stroke="#63b8ff" d="M917.33,-114.6C999.12,-107.82 1170.32,-92.9 1324.93,-74.32"/>
<polygon fill="#63b8ff" stroke="#63b8ff" points="1325.02,-77.84 1334.53,-73.16 1324.18,-70.89 1325.02,-77.84"/>
</g>
<!-- Node8 -->
<g id="node8" class="node">
<title>Node8</title>
<g id="a_node8"><a xlink:title=" ">
<polygon fill="#e0e0e0" stroke="#999999" points="1552,-74 1454,-74 1454,-55 1552,-55 1552,-74"/>
<text text-anchor="middle" x="1503" y="-62" font-family="Helvetica,sans-Serif" font-size="10.00">SFML/System.hpp</text>
</a>
</g>
</g>
<!-- Node3&#45;&gt;Node8 -->
<g id="edge7" class="edge">
<title>Node3&#45;&gt;Node8</title>
<path fill="none" stroke="#63b8ff" d="M917.27,-115.89C1014.54,-110.39 1241.26,-96.34 1442.3,-74.23"/>
<polygon fill="#63b8ff" stroke="#63b8ff" points="1442.61,-77.71 1452.16,-73.13 1441.84,-70.76 1442.61,-77.71"/>
</g>
<!-- Node9 -->
<g id="node9" class="node">
<title>Node9</title>
<g id="a_node9"><a xlink:title=" ">
<polygon fill="#e0e0e0" stroke="#999999" points="54,-74 0,-74 0,-55 54,-55 54,-74"/>
<text text-anchor="middle" x="27" y="-62" font-family="Helvetica,sans-Serif" font-size="10.00">iostream</text>
</a>
</g>
</g>
<!-- Node3&#45;&gt;Node9 -->
<g id="edge8" class="edge">
<title>Node3&#45;&gt;Node9</title>
<path fill="none" stroke="#63b8ff" d="M820.56,-118.8C696.42,-118.92 356.8,-115.28 65.63,-74.11"/>
<polygon fill="#63b8ff" stroke="#63b8ff" points="66.32,-70.67 55.92,-72.72 65.32,-77.6 66.32,-70.67"/>
</g>
<!-- Node10 -->
<g id="node10" class="node">
<title>Node10</title>
<g id="a_node10"><a xlink:title=" ">
<polygon fill="#e0e0e0" stroke="#999999" points="122,-74 72,-74 72,-55 122,-55 122,-74"/>
<text text-anchor="middle" x="97" y="-62" font-family="Helvetica,sans-Serif" font-size="10.00">fstream</text>
</a>
</g>
</g>
<!-- Node3&#45;&gt;Node10 -->
<g id="edge9" class="edge">
<title>Node3&#45;&gt;Node10</title>
<path fill="none" stroke="#63b8ff" d="M820.75,-118.66C704.14,-118.4 397.7,-113.79 133.5,-74.07"/>
<polygon fill="#63b8ff" stroke="#63b8ff" points="134.06,-70.61 123.64,-72.56 133,-77.53 134.06,-70.61"/>
</g>
<!-- Node11 -->
<g id="node11" class="node">
<title>Node11</title>
<g id="a_node11"><a xlink:title=" ">
<polygon fill="#e0e0e0" stroke="#999999" points="188,-74 140,-74 140,-55 188,-55 188,-74"/>
<text text-anchor="middle" x="164" y="-62" font-family="Helvetica,sans-Serif" font-size="10.00">string.h</text>
</a>
</g>
</g>
<!-- Node3&#45;&gt;Node11 -->
<g id="edge10" class="edge">
<title>Node3&#45;&gt;Node11</title>
<path fill="none" stroke="#63b8ff" d="M820.58,-118.37C711.31,-117.42 437.21,-111.34 199.68,-74.12"/>
<polygon fill="#63b8ff" stroke="#63b8ff" points="200.32,-70.68 189.9,-72.56 199.22,-77.59 200.32,-70.68"/>
</g>
<!-- Node12 -->
<g id="node12" class="node">
<title>Node12</title>
<g id="a_node12"><a xlink:title=" ">
<polygon fill="#e0e0e0" stroke="#999999" points="256,-74 206,-74 206,-55 256,-55 256,-74"/>
<text text-anchor="middle" x="231" y="-62" font-family="Helvetica,sans-Serif" font-size="10.00">unistd.h</text>
</a>
</g>
</g>
<!-- Node3&#45;&gt;Node12 -->
<g id="edge11" class="edge">
<title>Node3&#45;&gt;Node12</title>
<path fill="none" stroke="#63b8ff" d="M820.52,-117.74C719.38,-115.55 478.44,-107.19 267.45,-74.1"/>
<polygon fill="#63b8ff" stroke="#63b8ff" points="268.07,-70.65 257.65,-72.54 266.97,-77.57 268.07,-70.65"/>
</g>
<!-- Node13 -->
<g id="node13" class="node">
<title>Node13</title>
<g id="a_node13"><a xlink:title=" ">
<polygon fill="#e0e0e0" stroke="#999999" points="339.5,-74 274.5,-74 274.5,-55 339.5,-55 339.5,-74"/>
<text text-anchor="middle" x="307" y="-62" font-family="Helvetica,sans-Serif" font-size="10.00">sys/types.h</text>
</a>
</g>
</g>
<!-- Node3&#45;&gt;Node13 -->
<g id="edge12" class="edge">
<title>Node3&#45;&gt;Node13</title>
<path fill="none" stroke="#63b8ff" d="M820.56,-115.82C729.08,-110.42 524.79,-96.77 354,-74 352.99,-73.87 351.98,-73.72 350.95,-73.58"/>
<polygon fill="#63b8ff" stroke="#63b8ff" points="351.73,-70.16 341.3,-72.07 350.64,-77.07 351.73,-70.16"/>
</g>
<!-- Node14 -->
<g id="node14" class="node">
<title>Node14</title>
<g id="a_node14"><a xlink:title=" ">
<polygon fill="#e0e0e0" stroke="#999999" points="410,-19 366,-19 366,0 410,0 410,-19"/>
<text text-anchor="middle" x="388" y="-7" font-family="Helvetica,sans-Serif" font-size="10.00">vector</text>
</a>
</g>
</g>
<!-- Node3&#45;&gt;Node14 -->
<g id="edge13" class="edge">
<title>Node3&#45;&gt;Node14</title>
<path fill="none" stroke="#63b8ff" d="M820.56,-117.65C704.1,-115.1 415.84,-105.63 387,-74 376.43,-62.41 377.92,-44.08 381.33,-30.09"/>
<polygon fill="#63b8ff" stroke="#63b8ff" points="384.64,-31.22 384.13,-20.64 377.93,-29.23 384.64,-31.22"/>
</g>
<!-- Node15 -->
<g id="node15" class="node">
<title>Node15</title>
<g id="a_node15"><a xlink:title=" ">
<polygon fill="#e0e0e0" stroke="#999999" points="610,-74 554,-74 554,-55 610,-55 610,-74"/>
<text text-anchor="middle" x="582" y="-62" font-family="Helvetica,sans-Serif" font-size="10.00">stdbool.h</text>
</a>
</g>
</g>
<!-- Node3&#45;&gt;Node15 -->
<g id="edge14" class="edge">
<title>Node3&#45;&gt;Node15</title>
<path fill="none" stroke="#63b8ff" d="M820.94,-110.67C772.87,-102.68 696.55,-89.56 621.34,-74.39"/>
<polygon fill="#63b8ff" stroke="#63b8ff" points="622.23,-71 611.73,-72.44 620.84,-77.86 622.23,-71"/>
</g>
<!-- Node16 -->
<g id="node16" class="node">
<title>Node16</title>
<g id="a_node16"><a xlink:title=" ">
<polygon fill="#e0e0e0" stroke="#999999" points="675.5,-74 628.5,-74 628.5,-55 675.5,-55 675.5,-74"/>
<text text-anchor="middle" x="652" y="-62" font-family="Helvetica,sans-Serif" font-size="10.00">stdlib.h</text>
</a>
</g>
</g>
<!-- Node3&#45;&gt;Node16 -->
<g id="edge15" class="edge">
<title>Node3&#45;&gt;Node16</title>
<path fill="none" stroke="#63b8ff" d="M831.25,-109.54C796.28,-101.21 742.54,-88.3 686.62,-74.38"/>
<polygon fill="#63b8ff" stroke="#63b8ff" points="687.8,-71.06 677.25,-72.04 686.11,-77.85 687.8,-71.06"/>
</g>
<!-- Node17 -->
<g id="node17" class="node">
<title>Node17</title>
<g id="a_node17"><a xlink:title=" ">
<polygon fill="#e0e0e0" stroke="#999999" points="752,-74 694,-74 694,-55 752,-55 752,-74"/>
<text text-anchor="middle" x="723" y="-62" font-family="Helvetica,sans-Serif" font-size="10.00">exception</text>
</a>
</g>
</g>
<!-- Node3&#45;&gt;Node17 -->
<g id="edge16" class="edge">
<title>Node3&#45;&gt;Node17</title>
<path fill="none" stroke="#63b8ff" d="M844.23,-109.51C820.6,-100.93 784.76,-87.92 758.17,-78.27"/>
<polygon fill="#63b8ff" stroke="#63b8ff" points="759.42,-75 748.82,-74.87 757.03,-81.58 759.42,-75"/>
</g>
<!-- Node18 -->
<g id="node18" class="node">
<title>Node18</title>
<g id="a_node18"><a xlink:href="Draw_8hpp.html" target="_top" xlink:title=" ">
<polygon fill="white" stroke="#666666" points="859.5,-74 770.5,-74 770.5,-55 859.5,-55 859.5,-74"/>
<text text-anchor="middle" x="815" y="-62" font-family="Helvetica,sans-Serif" font-size="10.00">Engine/Draw.hpp</text>
</a>
</g>
</g>
<!-- Node3&#45;&gt;Node18 -->
<g id="edge18" class="edge">
<title>Node3&#45;&gt;Node18</title>
<path fill="none" stroke="#63b8ff" d="M854.62,-109.51C845.68,-102.23 834.63,-91.77 826.31,-82.87"/>
<polygon fill="#63b8ff" stroke="#63b8ff" points="829.07,-80.7 819.84,-75.49 823.81,-85.32 829.07,-80.7"/>
</g>
<!-- Node19 -->
<g id="node19" class="node">
<title>Node19</title>
<g id="a_node19"><a xlink:href="Event_8hpp.html" target="_top" xlink:title=" ">
<polygon fill="white" stroke="#666666" points="1077,-74 985,-74 985,-55 1077,-55 1077,-74"/>
<text text-anchor="middle" x="1031" y="-62" font-family="Helvetica,sans-Serif" font-size="10.00">Engine/Event.hpp</text>
</a>
</g>
</g>
<!-- Node3&#45;&gt;Node19 -->
<g id="edge20" class="edge">
<title>Node3&#45;&gt;Node19</title>
<path fill="none" stroke="#63b8ff" d="M891.26,-109.51C916.05,-100.8 956.42,-87.53 987.47,-77.84"/>
<polygon fill="#63b8ff" stroke="#63b8ff" points="988.48,-81.19 997,-74.89 986.41,-74.5 988.48,-81.19"/>
</g>
<!-- Node23 -->
<g id="node23" class="node">
<title>Node23</title>
<g id="a_node23"><a xlink:href="StateManager_8hpp.html" target="_top" xlink:title=" ">
<polygon fill="white" stroke="#666666" points="1838,-74 1710,-74 1710,-55 1838,-55 1838,-74"/>
<text text-anchor="middle" x="1774" y="-62" font-family="Helvetica,sans-Serif" font-size="10.00">Engine/StateManager.hpp</text>
</a>
</g>
</g>
<!-- Node3&#45;&gt;Node23 -->
<g id="edge25" class="edge">
<title>Node3&#45;&gt;Node23</title>
<path fill="none" stroke="#63b8ff" d="M917.2,-116.83C1044.22,-112.4 1397.97,-98.96 1692,-74 1694.06,-73.83 1696.14,-73.64 1698.25,-73.44"/>
<polygon fill="#63b8ff" stroke="#63b8ff" points="1698.57,-76.93 1708.18,-72.46 1697.88,-69.96 1698.57,-76.93"/>
</g>
<!-- Node24 -->
<g id="node24" class="node">
<title>Node24</title>
<g id="a_node24"><a xlink:href="EntitiesManager_8hpp.html" target="_top" xlink:title=" ">
<polygon fill="white" stroke="#666666" points="536,-74 396,-74 396,-55 536,-55 536,-74"/>
<text text-anchor="middle" x="466" y="-62" font-family="Helvetica,sans-Serif" font-size="10.00">Entities/EntitiesManager.hpp</text>
</a>
</g>
</g>
<!-- Node3&#45;&gt;Node24 -->
<g id="edge28" class="edge">
<title>Node3&#45;&gt;Node24</title>
<path fill="none" stroke="#63b8ff" d="M820.7,-112.73C751.07,-103.93 622.11,-87.01 540.31,-76"/>
<polygon fill="#63b8ff" stroke="#63b8ff" points="540.98,-72.56 530.6,-74.69 540.04,-79.49 540.98,-72.56"/>
</g>
<!-- Node26 -->
<g id="node26" class="node">
<title>Node26</title>
<g id="a_node26"><a xlink:href="Bullets_8hpp.html" target="_top" xlink:title=" ">
<polygon fill="white" stroke="#666666" points="1692,-74 1570,-74 1570,-55 1692,-55 1692,-74"/>
<text text-anchor="middle" x="1631" y="-62" font-family="Helvetica,sans-Serif" font-size="10.00">Components/Bullets.hpp</text>
</a>
</g>
</g>
<!-- Node3&#45;&gt;Node26 -->
<g id="edge32" class="edge">
<title>Node3&#45;&gt;Node26</title>
<path fill="none" stroke="#63b8ff" d="M917.23,-116.12C1029.06,-110.67 1314.05,-96.08 1552,-74 1554.15,-73.8 1556.33,-73.59 1558.54,-73.37"/>
<polygon fill="#63b8ff" stroke="#63b8ff" points="1558.64,-76.88 1568.22,-72.34 1557.91,-69.91 1558.64,-76.88"/>
</g>
<!-- Node18&#45;&gt;Node3 -->
<g id="edge19" class="edge">
<title>Node18&#45;&gt;Node3</title>
<path fill="none" stroke="#63b8ff" d="M829.32,-74.44C838.29,-81.74 849.42,-92.28 857.76,-101.22"/>
<polygon fill="#63b8ff" stroke="#63b8ff" points="855.02,-103.4 864.25,-108.61 860.29,-98.79 855.02,-103.4"/>
</g>
<!-- Node19&#45;&gt;Node3 -->
<g id="edge21" class="edge">
<title>Node19&#45;&gt;Node3</title>
<path fill="none" stroke="#63b8ff" d="M1008.86,-74.45C984.13,-83.14 943.77,-96.41 912.69,-106.11"/>
<polygon fill="#63b8ff" stroke="#63b8ff" points="911.66,-102.76 903.14,-109.06 913.73,-109.45 911.66,-102.76"/>
</g>
<!-- Node19&#45;&gt;Node20 -->
<g id="edge22" class="edge">
<title>Node19&#45;&gt;Node20</title>
<path fill="none" stroke="#63b8ff" d="M1077.39,-55.28C1141.04,-44 1253.29,-24.1 1303.93,-15.12"/>
<polygon fill="#63b8ff" stroke="#63b8ff" points="1304.41,-18.59 1313.65,-13.4 1303.19,-11.7 1304.41,-18.59"/>
</g>
<!-- Node21 -->
<g id="node21" class="node">
<title>Node21</title>
<g id="a_node21"><a xlink:title=" ">
<polygon fill="#e0e0e0" stroke="#999999" points="1087.5,-19 1044.5,-19 1044.5,0 1087.5,0 1087.5,-19"/>
<text text-anchor="middle" x="1066" y="-7" font-family="Helvetica,sans-Serif" font-size="10.00">queue</text>
</a>
</g>
</g>
<!-- Node19&#45;&gt;Node21 -->
<g id="edge23" class="edge">
<title>Node19&#45;&gt;Node21</title>
<path fill="none" stroke="#63b8ff" d="M1036.78,-54.75C1041.41,-47.73 1048.07,-37.64 1053.87,-28.87"/>
<polygon fill="#63b8ff" stroke="#63b8ff" points="1056.67,-30.98 1059.26,-20.71 1050.83,-27.12 1056.67,-30.98"/>
</g>
<!-- Node22 -->
<g id="node22" class="node">
<title>Node22</title>
<g id="a_node22"><a xlink:title=" ">
<polygon fill="#e0e0e0" stroke="#999999" points="1026,-19 964,-19 964,0 1026,0 1026,-19"/>
<text text-anchor="middle" x="995" y="-7" font-family="Helvetica,sans-Serif" font-size="10.00">Skaldi.hpp</text>
</a>
</g>
</g>
<!-- Node19&#45;&gt;Node22 -->
<g id="edge24" class="edge">
<title>Node19&#45;&gt;Node22</title>
<path fill="none" stroke="#63b8ff" d="M1025.06,-54.75C1020.29,-47.73 1013.44,-37.64 1007.48,-28.87"/>
<polygon fill="#63b8ff" stroke="#63b8ff" points="1010.44,-27 1001.92,-20.69 1004.65,-30.93 1010.44,-27"/>
</g>
<!-- Node23&#45;&gt;Node2 -->
<g id="edge27" class="edge">
<title>Node23&#45;&gt;Node2</title>
<path fill="none" stroke="#63b8ff" d="M1719.13,-74.49C1597.36,-94.45 1305.2,-142.33 1177.04,-163.33"/>
<polygon fill="#63b8ff" stroke="#63b8ff" points="1176.68,-159.84 1167.38,-164.92 1177.82,-166.75 1176.68,-159.84"/>
</g>
<!-- Node23&#45;&gt;Node3 -->
<g id="edge26" class="edge">
<title>Node23&#45;&gt;Node3</title>
<path fill="none" stroke="#63b8ff" d="M1709.56,-74.04C1417.34,-98.82 1066.31,-112.24 928.51,-116.75"/>
<polygon fill="#63b8ff" stroke="#63b8ff" points="928.8,-113.24 918.91,-117.06 929.02,-120.23 928.8,-113.24"/>
</g>
<!-- Node24&#45;&gt;Node3 -->
<g id="edge29" class="edge">
<title>Node24&#45;&gt;Node3</title>
<path fill="none" stroke="#63b8ff" d="M536.37,-74.08C613.74,-83.97 736.6,-100.13 809.41,-109.99"/>
<polygon fill="#63b8ff" stroke="#63b8ff" points="808.77,-113.44 819.15,-111.31 809.71,-106.5 808.77,-113.44"/>
</g>
<!-- Node24&#45;&gt;Node14 -->
<g id="edge31" class="edge">
<title>Node24&#45;&gt;Node14</title>
<path fill="none" stroke="#63b8ff" d="M452.77,-54.51C441.16,-46.62 424.03,-34.98 410.3,-25.65"/>
<polygon fill="#63b8ff" stroke="#63b8ff" points="412.53,-22.93 402.29,-20.21 408.59,-28.72 412.53,-22.93"/>
</g>
<!-- Node25 -->
<g id="node25" class="node">
<title>Node25</title>
<g id="a_node25"><a xlink:title=" ">
<polygon fill="#e0e0e0" stroke="#999999" points="485,-19 447,-19 447,0 485,0 485,-19"/>
<text text-anchor="middle" x="466" y="-7" font-family="Helvetica,sans-Serif" font-size="10.00">array</text>
</a>
</g>
</g>
<!-- Node24&#45;&gt;Node25 -->
<g id="edge30" class="edge">
<title>Node24&#45;&gt;Node25</title>
<path fill="none" stroke="#63b8ff" d="M466,-54.75C466,-48.27 466,-39.16 466,-30.9"/>
<polygon fill="#63b8ff" stroke="#63b8ff" points="469.5,-30.96 466,-20.96 462.5,-30.96 469.5,-30.96"/>
</g>
<!-- Node26&#45;&gt;Node3 -->
<g id="edge33" class="edge">
<title>Node26&#45;&gt;Node3</title>
<path fill="none" stroke="#63b8ff" d="M1569.64,-74.03C1332.81,-96 1049.5,-110.55 928.44,-116.04"/>
<polygon fill="#63b8ff" stroke="#63b8ff" points="928.58,-112.53 918.75,-116.48 928.89,-119.53 928.58,-112.53"/>
</g>
<!-- Node27 -->
<g id="node27" class="node">
<title>Node27</title>
<g id="a_node27"><a xlink:title=" ">
<polygon fill="#e0e0e0" stroke="#999999" points="1654,-19 1608,-19 1608,0 1654,0 1654,-19"/>
<text text-anchor="middle" x="1631" y="-7" font-family="Helvetica,sans-Serif" font-size="10.00">math.h</text>
</a>
</g>
</g>
<!-- Node26&#45;&gt;Node27 -->
<g id="edge34" class="edge">
<title>Node26&#45;&gt;Node27</title>
<path fill="none" stroke="#63b8ff" d="M1631,-54.75C1631,-48.27 1631,-39.16 1631,-30.9"/>
<polygon fill="#63b8ff" stroke="#63b8ff" points="1634.5,-30.96 1631,-20.96 1627.5,-30.96 1634.5,-30.96"/>
</g>
</g>
</svg>
