<?xml version="1.0" encoding="UTF-8" standalone="no"?>
<!DOCTYPE svg PUBLIC "-//W3C//DTD SVG 1.1//EN"
 "http://www.w3.org/Graphics/SVG/1.1/DTD/svg11.dtd">
<!-- Generated by graphviz version 7.0.5 (20221223.1930)
 -->
<!-- Title: /github/workspace/client/include/Engine/Window.hpp Pages: 1 -->
<svg width="1847pt" height="203pt"
 viewBox="0.00 0.00 1847.00 203.00" xmlns="http://www.w3.org/2000/svg" xmlns:xlink="http://www.w3.org/1999/xlink">
<g id="graph0" class="graph" transform="scale(1 1) rotate(0) translate(4 199)">
<title>/github/workspace/client/include/Engine/Window.hpp</title>
<!-- Node1 -->
<g id="node1" class="node">
<title>Node1</title>
<g id="a_node1"><a xlink:title=" ">
<polygon fill="#999999" stroke="#666666" points="1109,-195 971,-195 971,-165 1109,-165 1109,-195"/>
<text text-anchor="start" x="979" y="-183" font-family="Helvetica,sans-Serif" font-size="10.00">/github/workspace/client</text>
<text text-anchor="middle" x="1040" y="-172" font-family="Helvetica,sans-Serif" font-size="10.00">/include/Engine/Window.hpp</text>
</a>
</g>
</g>
<!-- Node2 -->
<g id="node2" class="node">
<title>Node2</title>
<g id="a_node2"><a xlink:href="Engine_8hpp.html" target="_top" xlink:title=" ">
<polygon fill="white" stroke="#666666" points="1088,-129 992,-129 992,-110 1088,-110 1088,-129"/>
<text text-anchor="middle" x="1040" y="-117" font-family="Helvetica,sans-Serif" font-size="10.00">Engine/Engine.hpp</text>
</a>
</g>
</g>
<!-- Node1&#45;&gt;Node2 -->
<g id="edge1" class="edge">
<title>Node1&#45;&gt;Node2</title>
<path fill="none" stroke="#63b8ff" d="M1034.08,-164.54C1033.19,-157.26 1033.01,-148.31 1033.57,-140.39"/>
<polygon fill="#63b8ff" stroke="#63b8ff" points="1037.01,-141.05 1034.84,-130.68 1030.07,-140.14 1037.01,-141.05"/>
</g>
<!-- Node2&#45;&gt;Node1 -->
<g id="edge16" class="edge">
<title>Node2&#45;&gt;Node1</title>
<path fill="none" stroke="#63b8ff" d="M1044.96,-129.18C1046.34,-135.58 1046.92,-144.65 1046.71,-153.3"/>
<polygon fill="#63b8ff" stroke="#63b8ff" points="1043.23,-152.81 1046.02,-163.03 1050.21,-153.3 1043.23,-152.81"/>
</g>
<!-- Node3 -->
<g id="node3" class="node">
<title>Node3</title>
<g id="a_node3"><a xlink:title=" ">
<polygon fill="#e0e0e0" stroke="#999999" points="1692.5,-74 1603.5,-74 1603.5,-55 1692.5,-55 1692.5,-74"/>
<text text-anchor="middle" x="1648" y="-62" font-family="Helvetica,sans-Serif" font-size="10.00">SFML/Audio.hpp</text>
</a>
</g>
</g>
<!-- Node2&#45;&gt;Node3 -->
<g id="edge2" class="edge">
<title>Node2&#45;&gt;Node3</title>
<path fill="none" stroke="#63b8ff" d="M1088.29,-115.86C1182.83,-110.42 1399.19,-96.66 1592.04,-74.13"/>
<polygon fill="#63b8ff" stroke="#63b8ff" points="1592.22,-77.64 1601.74,-72.99 1591.4,-70.69 1592.22,-77.64"/>
</g>
<!-- Node4 -->
<g id="node4" class="node">
<title>Node4</title>
<g id="a_node4"><a xlink:title=" ">
<polygon fill="#e0e0e0" stroke="#999999" points="104,-74 0,-74 0,-55 104,-55 104,-74"/>
<text text-anchor="middle" x="52" y="-62" font-family="Helvetica,sans-Serif" font-size="10.00">SFML/Graphics.hpp</text>
</a>
</g>
</g>
<!-- Node2&#45;&gt;Node4 -->
<g id="edge3" class="edge">
<title>Node2&#45;&gt;Node4</title>
<path fill="none" stroke="#63b8ff" d="M991.64,-117.72C855.49,-115.2 457.17,-105.56 115.57,-74.15"/>
<polygon fill="#63b8ff" stroke="#63b8ff" points="115.99,-70.67 105.71,-73.23 115.35,-77.64 115.99,-70.67"/>
</g>
<!-- Node5 -->
<g id="node5" class="node">
<title>Node5</title>
<g id="a_node5"><a xlink:title=" ">
<polygon fill="#e0e0e0" stroke="#999999" points="223.5,-74 122.5,-74 122.5,-55 223.5,-55 223.5,-74"/>
<text text-anchor="middle" x="173" y="-62" font-family="Helvetica,sans-Serif" font-size="10.00">SFML/Network.hpp</text>
</a>
</g>
</g>
<!-- Node2&#45;&gt;Node5 -->
<g id="edge4" class="edge">
<title>Node2&#45;&gt;Node5</title>
<path fill="none" stroke="#63b8ff" d="M991.62,-117.32C867.6,-113.98 528.06,-102.84 235.09,-74.22"/>
<polygon fill="#63b8ff" stroke="#63b8ff" points="235.62,-70.76 225.32,-73.26 234.93,-77.72 235.62,-70.76"/>
</g>
<!-- Node6 -->
<g id="node6" class="node">
<title>Node6</title>
<g id="a_node6"><a xlink:title=" ">
<polygon fill="#e0e0e0" stroke="#999999" points="340.5,-74 241.5,-74 241.5,-55 340.5,-55 340.5,-74"/>
<text text-anchor="middle" x="291" y="-62" font-family="Helvetica,sans-Serif" font-size="10.00">SFML/Window.hpp</text>
</a>
</g>
</g>
<!-- Node2&#45;&gt;Node6 -->
<g id="edge5" class="edge">
<title>Node2&#45;&gt;Node6</title>
<path fill="none" stroke="#63b8ff" d="M991.79,-116.7C880.9,-112.27 598.99,-99.41 352.21,-74.14"/>
<polygon fill="#63b8ff" stroke="#63b8ff" points="352.67,-70.67 342.36,-73.12 351.95,-77.63 352.67,-70.67"/>
</g>
<!-- Node7 -->
<g id="node7" class="node">
<title>Node7</title>
<g id="a_node7"><a xlink:title=" ">
<polygon fill="#e0e0e0" stroke="#999999" points="457,-74 359,-74 359,-55 457,-55 457,-74"/>
<text text-anchor="middle" x="408" y="-62" font-family="Helvetica,sans-Serif" font-size="10.00">SFML/System.hpp</text>
</a>
</g>
</g>
<!-- Node2&#45;&gt;Node7 -->
<g id="edge6" class="edge">
<title>Node2&#45;&gt;Node7</title>
<path fill="none" stroke="#63b8ff" d="M991.51,-115.86C894.38,-110.33 668.77,-96.27 468.65,-74.22"/>
<polygon fill="#63b8ff" stroke="#63b8ff" points="469.16,-70.76 458.84,-73.13 468.39,-77.71 469.16,-70.76"/>
</g>
<!-- Node8 -->
<g id="node8" class="node">
<title>Node8</title>
<g id="a_node8"><a xlink:title=" ">
<polygon fill="#e0e0e0" stroke="#999999" points="529,-74 475,-74 475,-55 529,-55 529,-74"/>
<text text-anchor="middle" x="502" y="-62" font-family="Helvetica,sans-Serif" font-size="10.00">iostream</text>
</a>
</g>
</g>
<!-- Node2&#45;&gt;Node8 -->
<g id="edge7" class="edge">
<title>Node2&#45;&gt;Node8</title>
<path fill="none" stroke="#63b8ff" d="M991.61,-116.52C903.67,-112.42 711.67,-101.18 540.67,-74.21"/>
<polygon fill="#63b8ff" stroke="#63b8ff" points="541.36,-70.77 530.93,-72.65 540.25,-77.68 541.36,-70.77"/>
</g>
<!-- Node9 -->
<g id="node9" class="node">
<title>Node9</title>
<g id="a_node9"><a xlink:title=" ">
<polygon fill="#e0e0e0" stroke="#999999" points="597,-74 547,-74 547,-55 597,-55 597,-74"/>
<text text-anchor="middle" x="572" y="-62" font-family="Helvetica,sans-Serif" font-size="10.00">fstream</text>
</a>
</g>
</g>
<!-- Node2&#45;&gt;Node9 -->
<g id="edge8" class="edge">
<title>Node2&#45;&gt;Node9</title>
<path fill="none" stroke="#63b8ff" d="M991.52,-115.8C913.04,-110.92 753.15,-98.96 608.44,-74.18"/>
<polygon fill="#63b8ff" stroke="#63b8ff" points="609.11,-70.74 598.66,-72.48 607.91,-77.64 609.11,-70.74"/>
</g>
<!-- Node10 -->
<g id="node10" class="node">
<title>Node10</title>
<g id="a_node10"><a xlink:title=" ">
<polygon fill="#e0e0e0" stroke="#999999" points="663,-74 615,-74 615,-55 663,-55 663,-74"/>
<text text-anchor="middle" x="639" y="-62" font-family="Helvetica,sans-Serif" font-size="10.00">string.h</text>
</a>
</g>
</g>
<!-- Node2&#45;&gt;Node10 -->
<g id="edge9" class="edge">
<title>Node2&#45;&gt;Node10</title>
<path fill="none" stroke="#63b8ff" d="M991.76,-114.71C923.28,-108.88 793.82,-96.21 674.56,-74.26"/>
<polygon fill="#63b8ff" stroke="#63b8ff" points="675.39,-70.85 664.92,-72.45 674.1,-77.73 675.39,-70.85"/>
</g>
<!-- Node11 -->
<g id="node11" class="node">
<title>Node11</title>
<g id="a_node11"><a xlink:title=" ">
<polygon fill="#e0e0e0" stroke="#999999" points="731,-74 681,-74 681,-55 731,-55 731,-74"/>
<text text-anchor="middle" x="706" y="-62" font-family="Helvetica,sans-Serif" font-size="10.00">unistd.h</text>
</a>
</g>
</g>
<!-- Node2&#45;&gt;Node11 -->
<g id="edge10" class="edge">
<title>Node2&#45;&gt;Node11</title>
<path fill="none" stroke="#63b8ff" d="M991.61,-112.67C934.55,-105.49 836.64,-92.22 742.35,-74.08"/>
<polygon fill="#63b8ff" stroke="#63b8ff" points="743.15,-70.67 732.66,-72.19 741.81,-77.54 743.15,-70.67"/>
</g>
<!-- Node12 -->
<g id="node12" class="node">
<title>Node12</title>
<g id="a_node12"><a xlink:title=" ">
<polygon fill="#e0e0e0" stroke="#999999" points="814.5,-74 749.5,-74 749.5,-55 814.5,-55 814.5,-74"/>
<text text-anchor="middle" x="782" y="-62" font-family="Helvetica,sans-Serif" font-size="10.00">sys/types.h</text>
</a>
</g>
</g>
<!-- Node2&#45;&gt;Node12 -->
<g id="edge11" class="edge">
<title>Node2&#45;&gt;Node12</title>
<path fill="none" stroke="#63b8ff" d="M996.23,-109.51C948.82,-99.77 873.6,-84.32 826.06,-74.55"/>
<polygon fill="#63b8ff" stroke="#63b8ff" points="826.89,-71.15 816.39,-72.56 825.48,-78 826.89,-71.15"/>
</g>
<!-- Node13 -->
<g id="node13" class="node">
<title>Node13</title>
<g id="a_node13"><a xlink:title=" ">
<polygon fill="#e0e0e0" stroke="#999999" points="1047,-19 1003,-19 1003,0 1047,0 1047,-19"/>
<text text-anchor="middle" x="1025" y="-7" font-family="Helvetica,sans-Serif" font-size="10.00">vector</text>
</a>
</g>
</g>
<!-- Node2&#45;&gt;Node13 -->
<g id="edge12" class="edge">
<title>Node2&#45;&gt;Node13</title>
<path fill="none" stroke="#63b8ff" d="M991.61,-113.07C944.53,-106.68 877.83,-94.27 862,-74 826.4,-28.41 933.99,-15.51 991.41,-11.89"/>
<polygon fill="#63b8ff" stroke="#63b8ff" points="991.54,-15.39 1001.33,-11.34 991.15,-8.4 991.54,-15.39"/>
</g>
<!-- Node14 -->
<g id="node14" class="node">
<title>Node14</title>
<g id="a_node14"><a xlink:title=" ">
<polygon fill="#e0e0e0" stroke="#999999" points="927,-74 871,-74 871,-55 927,-55 927,-74"/>
<text text-anchor="middle" x="899" y="-62" font-family="Helvetica,sans-Serif" font-size="10.00">stdbool.h</text>
</a>
</g>
</g>
<!-- Node2&#45;&gt;Node14 -->
<g id="edge13" class="edge">
<title>Node2&#45;&gt;Node14</title>
<path fill="none" stroke="#63b8ff" d="M1016.08,-109.51C993.36,-100.97 958.95,-88.03 933.31,-78.4"/>
<polygon fill="#63b8ff" stroke="#63b8ff" points="934.57,-75.13 923.98,-74.89 932.11,-81.69 934.57,-75.13"/>
</g>
<!-- Node15 -->
<g id="node15" class="node">
<title>Node15</title>
<g id="a_node15"><a xlink:title=" ">
<polygon fill="#e0e0e0" stroke="#999999" points="992.5,-74 945.5,-74 945.5,-55 992.5,-55 992.5,-74"/>
<text text-anchor="middle" x="969" y="-62" font-family="Helvetica,sans-Serif" font-size="10.00">stdlib.h</text>
</a>
</g>
</g>
<!-- Node2&#45;&gt;Node15 -->
<g id="edge14" class="edge">
<title>Node2&#45;&gt;Node15</title>
<path fill="none" stroke="#63b8ff" d="M1027.96,-109.51C1017.59,-101.77 1002.4,-90.43 990.03,-81.2"/>
<polygon fill="#63b8ff" stroke="#63b8ff" points="992.19,-78.44 982.08,-75.26 988,-84.05 992.19,-78.44"/>
</g>
<!-- Node16 -->
<g id="node16" class="node">
<title>Node16</title>
<g id="a_node16"><a xlink:title=" ">
<polygon fill="#e0e0e0" stroke="#999999" points="1069,-74 1011,-74 1011,-55 1069,-55 1069,-74"/>
<text text-anchor="middle" x="1040" y="-62" font-family="Helvetica,sans-Serif" font-size="10.00">exception</text>
</a>
</g>
</g>
<!-- Node2&#45;&gt;Node16 -->
<g id="edge15" class="edge">
<title>Node2&#45;&gt;Node16</title>
<path fill="none" stroke="#63b8ff" d="M1040,-109.75C1040,-103.27 1040,-94.16 1040,-85.9"/>
<polygon fill="#63b8ff" stroke="#63b8ff" points="1043.5,-85.96 1040,-75.96 1036.5,-85.96 1043.5,-85.96"/>
</g>
<!-- Node17 -->
<g id="node17" class="node">
<title>Node17</title>
<g id="a_node17"><a xlink:href="Draw_8hpp.html" target="_top" xlink:title=" ">
<polygon fill="white" stroke="#666666" points="1176.5,-74 1087.5,-74 1087.5,-55 1176.5,-55 1176.5,-74"/>
<text text-anchor="middle" x="1132" y="-62" font-family="Helvetica,sans-Serif" font-size="10.00">Engine/Draw.hpp</text>
</a>
</g>
</g>
<!-- Node2&#45;&gt;Node17 -->
<g id="edge17" class="edge">
<title>Node2&#45;&gt;Node17</title>
<path fill="none" stroke="#63b8ff" d="M1050.39,-109.51C1062.9,-101.31 1083.88,-89.07 1101.52,-79.58"/>
<polygon fill="#63b8ff" stroke="#63b8ff" points="1102.88,-82.82 1110.1,-75.06 1099.62,-76.62 1102.88,-82.82"/>
</g>
<!-- Node18 -->
<g id="node18" class="node">
<title>Node18</title>
<g id="a_node18"><a xlink:href="Event_8hpp.html" target="_top" xlink:title=" ">
<polygon fill="white" stroke="#666666" points="1445,-74 1353,-74 1353,-55 1445,-55 1445,-74"/>
<text text-anchor="middle" x="1399" y="-62" font-family="Helvetica,sans-Serif" font-size="10.00">Engine/Event.hpp</text>
</a>
</g>
</g>
<!-- Node2&#45;&gt;Node18 -->
<g id="edge19" class="edge">
<title>Node2&#45;&gt;Node18</title>
<path fill="none" stroke="#63b8ff" d="M1088.35,-110.59C1146.84,-101.8 1247.97,-87.09 1335,-74 1337.03,-73.7 1339.09,-73.38 1341.19,-73.07"/>
<polygon fill="#63b8ff" stroke="#63b8ff" points="1341.68,-76.53 1351.05,-71.57 1340.63,-69.61 1341.68,-76.53"/>
</g>
<!-- Node22 -->
<g id="node22" class="node">
<title>Node22</title>
<g id="a_node22"><a xlink:href="StateManager_8hpp.html" target="_top" xlink:title=" ">
<polygon fill="white" stroke="#666666" points="1839,-74 1711,-74 1711,-55 1839,-55 1839,-74"/>
<text text-anchor="middle" x="1775" y="-62" font-family="Helvetica,sans-Serif" font-size="10.00">Engine/StateManager.hpp</text>
</a>
</g>
</g>
<!-- Node2&#45;&gt;Node22 -->
<g id="edge24" class="edge">
<title>Node2&#45;&gt;Node22</title>
<path fill="none" stroke="#63b8ff" d="M1088.37,-115.8C1196.82,-109.91 1467.03,-94.74 1693,-74 1695.05,-73.81 1697.14,-73.61 1699.25,-73.41"/>
<polygon fill="#63b8ff" stroke="#63b8ff" points="1699.58,-76.89 1709.17,-72.39 1698.86,-69.93 1699.58,-76.89"/>
</g>
<!-- Node23 -->
<g id="node23" class="node">
<title>Node23</title>
<g id="a_node23"><a xlink:href="EntitiesManager_8hpp.html" target="_top" xlink:title=" ">
<polygon fill="white" stroke="#666666" points="1335,-74 1195,-74 1195,-55 1335,-55 1335,-74"/>
<text text-anchor="middle" x="1265" y="-62" font-family="Helvetica,sans-Serif" font-size="10.00">Entities/EntitiesManager.hpp</text>
</a>
</g>
</g>
<!-- Node2&#45;&gt;Node23 -->
<g id="edge27" class="edge">
<title>Node2&#45;&gt;Node23</title>
<path fill="none" stroke="#63b8ff" d="M1072.95,-109.51C1109.17,-100.54 1167.7,-86.71 1210.69,-76.96"/>
<polygon fill="#63b8ff" stroke="#63b8ff" points="1211.35,-80.4 1220.34,-74.78 1209.81,-73.57 1211.35,-80.4"/>
</g>
<!-- Node25 -->
<g id="node25" class="node">
<title>Node25</title>
<g id="a_node25"><a xlink:href="Bullets_8hpp.html" target="_top" xlink:title=" ">
<polygon fill="white" stroke="#666666" points="1585,-74 1463,-74 1463,-55 1585,-55 1585,-74"/>
<text text-anchor="middle" x="1524" y="-62" font-family="Helvetica,sans-Serif" font-size="10.00">Components/Bullets.hpp</text>
</a>
</g>
</g>
<!-- Node2&#45;&gt;Node25 -->
<g id="edge31" class="edge">
<title>Node2&#45;&gt;Node25</title>
<path fill="none" stroke="#63b8ff" d="M1088.38,-112.91C1164.41,-104.7 1316.08,-88.75 1445,-74 1447.14,-73.75 1449.32,-73.5 1451.53,-73.25"/>
<polygon fill="#63b8ff" stroke="#63b8ff" points="1451.67,-76.75 1461.19,-72.11 1450.86,-69.8 1451.67,-76.75"/>
</g>
<!-- Node17&#45;&gt;Node2 -->
<g id="edge18" class="edge">
<title>Node17&#45;&gt;Node2</title>
<path fill="none" stroke="#63b8ff" d="M1121.81,-74.36C1109.39,-82.51 1088.45,-94.74 1070.77,-104.27"/>
<polygon fill="#63b8ff" stroke="#63b8ff" points="1069.38,-101.04 1062.16,-108.8 1072.64,-107.24 1069.38,-101.04"/>
</g>
<!-- Node18&#45;&gt;Node2 -->
<g id="edge20" class="edge">
<title>Node18&#45;&gt;Node2</title>
<path fill="none" stroke="#63b8ff" d="M1352.73,-74.04C1264.89,-87.26 1162.76,-102.1 1099.65,-110.85"/>
<polygon fill="#63b8ff" stroke="#63b8ff" points="1099.26,-107.37 1089.83,-112.21 1100.22,-114.31 1099.26,-107.37"/>
</g>
<!-- Node19 -->
<g id="node19" class="node">
<title>Node19</title>
<g id="a_node19"><a xlink:title=" ">
<polygon fill="#e0e0e0" stroke="#999999" points="1350.5,-19 1321.5,-19 1321.5,0 1350.5,0 1350.5,-19"/>
<text text-anchor="middle" x="1336" y="-7" font-family="Helvetica,sans-Serif" font-size="10.00">list</text>
</a>
</g>
</g>
<!-- Node18&#45;&gt;Node19 -->
<g id="edge21" class="edge">
<title>Node18&#45;&gt;Node19</title>
<path fill="none" stroke="#63b8ff" d="M1388.31,-54.51C1379.3,-46.93 1366.17,-35.88 1355.32,-26.75"/>
<polygon fill="#63b8ff" stroke="#63b8ff" points="1357.59,-24.09 1347.69,-20.33 1353.09,-29.45 1357.59,-24.09"/>
</g>
<!-- Node20 -->
<g id="node20" class="node">
<title>Node20</title>
<g id="a_node20"><a xlink:title=" ">
<polygon fill="#e0e0e0" stroke="#999999" points="1411.5,-19 1368.5,-19 1368.5,0 1411.5,0 1411.5,-19"/>
<text text-anchor="middle" x="1390" y="-7" font-family="Helvetica,sans-Serif" font-size="10.00">queue</text>
</a>
</g>
</g>
<!-- Node18&#45;&gt;Node20 -->
<g id="edge22" class="edge">
<title>Node18&#45;&gt;Node20</title>
<path fill="none" stroke="#63b8ff" d="M1397.51,-54.75C1396.4,-48.19 1394.83,-38.95 1393.41,-30.6"/>
<polygon fill="#63b8ff" stroke="#63b8ff" points="1396.9,-30.21 1391.77,-20.93 1390,-31.38 1396.9,-30.21"/>
</g>
<!-- Node21 -->
<g id="node21" class="node">
<title>Node21</title>
<g id="a_node21"><a xlink:title=" ">
<polygon fill="#e0e0e0" stroke="#999999" points="1492,-19 1430,-19 1430,0 1492,0 1492,-19"/>
<text text-anchor="middle" x="1461" y="-7" font-family="Helvetica,sans-Serif" font-size="10.00">Skaldi.hpp</text>
</a>
</g>
</g>
<!-- Node18&#45;&gt;Node21 -->
<g id="edge23" class="edge">
<title>Node18&#45;&gt;Node21</title>
<path fill="none" stroke="#63b8ff" d="M1409.52,-54.51C1418.39,-46.93 1431.31,-35.88 1441.99,-26.75"/>
<polygon fill="#63b8ff" stroke="#63b8ff" points="1444.16,-29.5 1449.49,-20.34 1439.61,-24.18 1444.16,-29.5"/>
</g>
<!-- Node22&#45;&gt;Node1 -->
<g id="edge26" class="edge">
<title>Node22&#45;&gt;Node1</title>
<path fill="none" stroke="#63b8ff" d="M1716.96,-74.46C1586.6,-94.59 1270.3,-143.44 1120.82,-166.52"/>
<polygon fill="#63b8ff" stroke="#63b8ff" points="1120.32,-163.05 1110.97,-168.04 1121.39,-169.97 1120.32,-163.05"/>
</g>
<!-- Node22&#45;&gt;Node2 -->
<g id="edge25" class="edge">
<title>Node22&#45;&gt;Node2</title>
<path fill="none" stroke="#63b8ff" d="M1710.66,-74.03C1485.65,-94.67 1216.9,-109.79 1099.56,-115.73"/>
<polygon fill="#63b8ff" stroke="#63b8ff" points="1099.68,-112.22 1089.87,-116.22 1100.03,-119.21 1099.68,-112.22"/>
</g>
<!-- Node23&#45;&gt;Node2 -->
<g id="edge28" class="edge">
<title>Node23&#45;&gt;Node2</title>
<path fill="none" stroke="#63b8ff" d="M1232.23,-74.45C1196.09,-83.4 1137.57,-97.22 1094.53,-106.99"/>
<polygon fill="#63b8ff" stroke="#63b8ff" points="1093.85,-103.56 1084.86,-109.18 1095.39,-110.39 1093.85,-103.56"/>
</g>
<!-- Node23&#45;&gt;Node13 -->
<g id="edge30" class="edge">
<title>Node23&#45;&gt;Node13</title>
<path fill="none" stroke="#63b8ff" d="M1224.29,-54.51C1177.61,-44.2 1101.97,-27.5 1058.54,-17.91"/>
<polygon fill="#63b8ff" stroke="#63b8ff" points="1059.45,-14.52 1048.93,-15.79 1057.94,-21.36 1059.45,-14.52"/>
</g>
<!-- Node24 -->
<g id="node24" class="node">
<title>Node24</title>
<g id="a_node24"><a xlink:title=" ">
<polygon fill="#e0e0e0" stroke="#999999" points="1284,-19 1246,-19 1246,0 1284,0 1284,-19"/>
<text text-anchor="middle" x="1265" y="-7" font-family="Helvetica,sans-Serif" font-size="10.00">array</text>
</a>
</g>
</g>
<!-- Node23&#45;&gt;Node24 -->
<g id="edge29" class="edge">
<title>Node23&#45;&gt;Node24</title>
<path fill="none" stroke="#63b8ff" d="M1265,-54.75C1265,-48.27 1265,-39.16 1265,-30.9"/>
<polygon fill="#63b8ff" stroke="#63b8ff" points="1268.5,-30.96 1265,-20.96 1261.5,-30.96 1268.5,-30.96"/>
</g>
<!-- Node25&#45;&gt;Node2 -->
<g id="edge32" class="edge">
<title>Node25&#45;&gt;Node2</title>
<path fill="none" stroke="#63b8ff" d="M1462.6,-74.05C1333.52,-88.82 1181.73,-104.77 1099.69,-112.96"/>
<polygon fill="#63b8ff" stroke="#63b8ff" points="1099.45,-109.46 1089.85,-113.93 1100.14,-116.43 1099.45,-109.46"/>
</g>
<!-- Node26 -->
<g id="node26" class="node">
<title>Node26</title>
<g id="a_node26"><a xlink:title=" ">
<polygon fill="#e0e0e0" stroke="#999999" points="1556,-19 1510,-19 1510,0 1556,0 1556,-19"/>
<text text-anchor="middle" x="1533" y="-7" font-family="Helvetica,sans-Serif" font-size="10.00">math.h</text>
</a>
</g>
</g>
<!-- Node25&#45;&gt;Node26 -->
<g id="edge33" class="edge">
<title>Node25&#45;&gt;Node26</title>
<path fill="none" stroke="#63b8ff" d="M1525.49,-54.75C1526.6,-48.19 1528.17,-38.95 1529.59,-30.6"/>
<polygon fill="#63b8ff" stroke="#63b8ff" points="1533,-31.38 1531.23,-20.93 1526.1,-30.21 1533,-31.38"/>
</g>
</g>
</svg>
