<?xml version="1.0" encoding="UTF-8" standalone="no"?>
<!DOCTYPE svg PUBLIC "-//W3C//DTD SVG 1.1//EN"
 "http://www.w3.org/Graphics/SVG/1.1/DTD/svg11.dtd">
<!-- Generated by graphviz version 7.0.5 (20221223.1930)
 -->
<!-- Title: /github/workspace/client/src/Window.cpp Pages: 1 -->
<!--zoomable 368 -->
<svg id="main" version="1.1" xmlns="http://www.w3.org/2000/svg" xmlns:xlink="http://www.w3.org/1999/xlink" xml:space="preserve" onload="init(evt)">
<style type="text/css"><![CDATA[
.edge:hover path { stroke: red; }
.edge:hover polygon { stroke: red; fill: red; }
]]></style>
<script type="text/javascript"><![CDATA[
var edges = document.getElementsByTagName('g');
if (edges && edges.length) {
  for (var i=0;i<edges.length;i++) {
    if (edges[i].id.substr(0,4)=='edge') {
      edges[i].setAttribute('class','edge');
    }
  }
}
]]></script>
        <defs>
                <circle id="rim" cx="0" cy="0" r="7"/>
                <circle id="rim2" cx="0" cy="0" r="3.5"/>
                <g id="zoomPlus">
                        <use xlink:href="#rim" fill="#404040">
                                <set attributeName="fill" to="#808080" begin="zoomplus.mouseover" end="zoomplus.mouseout"/>
                        </use>
                        <path d="M-4,0h8M0,-4v8" fill="none" stroke="white" stroke-width="1.5" pointer-events="none"/>
                </g>
                <g id="zoomMin">
                        <use xlink:href="#rim" fill="#404040">
                                <set attributeName="fill" to="#808080" begin="zoomminus.mouseover" end="zoomminus.mouseout"/>
                        </use>
                        <path d="M-4,0h8" fill="none" stroke="white" stroke-width="1.5" pointer-events="none"/>
                </g>
                <g id="dirArrow">
                        <path fill="none" stroke="white" stroke-width="1.5" d="M0,-3.0v7 M-2.5,-0.5L0,-3.0L2.5,-0.5"/>
                </g>
               <g id="resetDef">
                       <use xlink:href="#rim2" fill="#404040">
                               <set attributeName="fill" to="#808080" begin="reset.mouseover" end="reset.mouseout"/>
                       </use>
               </g>
        </defs>

<script type="text/javascript">
var viewWidth = 1625;
var viewHeight = 368;
var sectionId = 'dynsection-0';
</script>
<script xlink:href="svgpan.js"/>
<svg id="graph" class="graph">
<g id="viewport">
<title>/github/workspace/client/src/Window.cpp</title>
<!-- Node1 -->
<g id="node1" class="node">
<title>Node1</title>
<g id="a_node1"><a xlink:title=" ">
<polygon fill="#999999" stroke="#666666" points="1276.5,-360 1154.5,-360 1154.5,-330 1276.5,-330 1276.5,-360"/>
<text text-anchor="start" x="1162.5" y="-348" font-family="Helvetica,sans-Serif" font-size="10.00">/github/workspace/client</text>
<text text-anchor="middle" x="1215.5" y="-337" font-family="Helvetica,sans-Serif" font-size="10.00">/src/Window.cpp</text>
</a>
</g>
</g>
<!-- Node2 -->
<g id="node2" class="node">
<title>Node2</title>
<g id="a_node2"><a xlink:href="Window_8hpp.html" target="_top" xlink:title=" ">
<polygon fill="white" stroke="#666666" points="817,-294 716,-294 716,-275 817,-275 817,-294"/>
<text text-anchor="middle" x="766.5" y="-282" font-family="Helvetica,sans-Serif" font-size="10.00">Engine/Window.hpp</text>
</a>
</g>
</g>
<!-- Node1&#45;&gt;Node2 -->
<g id="edge1" class="edge">
<title>Node1&#45;&gt;Node2</title>
<path fill="none" stroke="#63b8ff" d="M1154.01,-335.99C1068.48,-324.84 914.45,-304.78 828.59,-293.59"/>
<polygon fill="#63b8ff" stroke="#63b8ff" points="829.07,-290.12 818.7,-292.3 828.17,-297.06 829.07,-290.12"/>
</g>
<!-- Node17 -->
<g id="node17" class="node">
<title>Node17</title>
<g id="a_node17"><a xlink:title=" ">
<polygon fill="#e0e0e0" stroke="#999999" points="1382,-129 1353,-129 1353,-110 1382,-110 1382,-129"/>
<text text-anchor="middle" x="1367.5" y="-117" font-family="Helvetica,sans-Serif" font-size="10.00">list</text>
</a>
</g>
</g>
<!-- Node1&#45;&gt;Node17 -->
<g id="edge42" class="edge">
<title>Node1&#45;&gt;Node17</title>
<path fill="none" stroke="#63b8ff" d="M1276.64,-339.81C1368,-329.88 1537.51,-296.45 1613.5,-184 1618.23,-177 1618.91,-171.48 1613.5,-165 1585.7,-131.72 1451.4,-123.28 1393.81,-121.18"/>
<polygon fill="#63b8ff" stroke="#63b8ff" points="1394.07,-117.69 1383.96,-120.86 1393.84,-124.68 1394.07,-117.69"/>
</g>
<!-- Node3 -->
<g id="node3" class="node">
<title>Node3</title>
<g id="a_node3"><a xlink:href="Engine_8hpp.html" target="_top" xlink:title=" ">
<polygon fill="white" stroke="#666666" points="814.5,-239 718.5,-239 718.5,-220 814.5,-220 814.5,-239"/>
<text text-anchor="middle" x="766.5" y="-227" font-family="Helvetica,sans-Serif" font-size="10.00">Engine/Engine.hpp</text>
</a>
</g>
</g>
<!-- Node2&#45;&gt;Node3 -->
<g id="edge2" class="edge">
<title>Node2&#45;&gt;Node3</title>
<path fill="none" stroke="#63b8ff" d="M761.33,-274.75C759.92,-268.19 759.46,-258.95 759.93,-250.6"/>
<polygon fill="#63b8ff" stroke="#63b8ff" points="763.37,-251.3 761.11,-240.94 756.42,-250.45 763.37,-251.3"/>
</g>
<!-- Node3&#45;&gt;Node2 -->
<g id="edge15" class="edge">
<title>Node3&#45;&gt;Node2</title>
<path fill="none" stroke="#63b8ff" d="M771.71,-239.44C773.08,-245.97 773.54,-255.1 773.07,-263.35"/>
<polygon fill="#63b8ff" stroke="#63b8ff" points="769.6,-262.89 771.85,-273.25 776.55,-263.75 769.6,-262.89"/>
</g>
<!-- Node4 -->
<g id="node4" class="node">
<title>Node4</title>
<g id="a_node4"><a xlink:title=" ">
<polygon fill="#e0e0e0" stroke="#999999" points="1363,-184 1274,-184 1274,-165 1363,-165 1363,-184"/>
<text text-anchor="middle" x="1318.5" y="-172" font-family="Helvetica,sans-Serif" font-size="10.00">SFML/Audio.hpp</text>
</a>
</g>
</g>
<!-- Node3&#45;&gt;Node4 -->
<g id="edge3" class="edge">
<title>Node3&#45;&gt;Node4</title>
<path fill="none" stroke="#63b8ff" d="M814.69,-225.27C901.81,-219.2 1091.57,-204.91 1262.51,-184.16"/>
<polygon fill="#63b8ff" stroke="#63b8ff" points="1262.74,-187.66 1272.24,-182.97 1261.89,-180.71 1262.74,-187.66"/>
</g>
<!-- Node5 -->
<g id="node5" class="node">
<title>Node5</title>
<g id="a_node5"><a xlink:title=" ">
<polygon fill="#e0e0e0" stroke="#999999" points="1485.5,-184 1381.5,-184 1381.5,-165 1485.5,-165 1485.5,-184"/>
<text text-anchor="middle" x="1433.5" y="-172" font-family="Helvetica,sans-Serif" font-size="10.00">SFML/Graphics.hpp</text>
</a>
</g>
</g>
<!-- Node3&#45;&gt;Node5 -->
<g id="edge4" class="edge">
<title>Node3&#45;&gt;Node5</title>
<path fill="none" stroke="#63b8ff" d="M814.82,-225.98C915.69,-220.49 1156.25,-206.25 1369.67,-184.12"/>
<polygon fill="#63b8ff" stroke="#63b8ff" points="1370.01,-187.6 1379.59,-183.08 1369.28,-180.64 1370.01,-187.6"/>
</g>
<!-- Node6 -->
<g id="node6" class="node">
<title>Node6</title>
<g id="a_node6"><a xlink:title=" ">
<polygon fill="#e0e0e0" stroke="#999999" points="1605,-184 1504,-184 1504,-165 1605,-165 1605,-184"/>
<text text-anchor="middle" x="1554.5" y="-172" font-family="Helvetica,sans-Serif" font-size="10.00">SFML/Network.hpp</text>
</a>
</g>
</g>
<!-- Node3&#45;&gt;Node6 -->
<g id="edge5" class="edge">
<title>Node3&#45;&gt;Node6</title>
<path fill="none" stroke="#63b8ff" d="M814.74,-226.88C929.94,-222.73 1230.4,-210.22 1492.52,-184.11"/>
<polygon fill="#63b8ff" stroke="#63b8ff" points="1492.69,-187.61 1502.29,-183.12 1491.99,-180.64 1492.69,-187.61"/>
</g>
<!-- Node7 -->
<g id="node7" class="node">
<title>Node7</title>
<g id="a_node7"><a xlink:title=" ">
<polygon fill="#e0e0e0" stroke="#999999" points="99,-184 0,-184 0,-165 99,-165 99,-184"/>
<text text-anchor="middle" x="49.5" y="-172" font-family="Helvetica,sans-Serif" font-size="10.00">SFML/Window.hpp</text>
</a>
</g>
</g>
<!-- Node3&#45;&gt;Node7 -->
<g id="edge6" class="edge">
<title>Node3&#45;&gt;Node7</title>
<path fill="none" stroke="#63b8ff" d="M718.1,-226.48C610.76,-221.73 344.44,-208.46 110.48,-184.12"/>
<polygon fill="#63b8ff" stroke="#63b8ff" points="111.18,-180.68 100.87,-183.11 110.45,-187.64 111.18,-180.68"/>
</g>
<!-- Node8 -->
<g id="node8" class="node">
<title>Node8</title>
<g id="a_node8"><a xlink:title=" ">
<polygon fill="#e0e0e0" stroke="#999999" points="215.5,-184 117.5,-184 117.5,-165 215.5,-165 215.5,-184"/>
<text text-anchor="middle" x="166.5" y="-172" font-family="Helvetica,sans-Serif" font-size="10.00">SFML/System.hpp</text>
</a>
</g>
</g>
<!-- Node3&#45;&gt;Node8 -->
<g id="edge7" class="edge">
<title>Node3&#45;&gt;Node8</title>
<path fill="none" stroke="#63b8ff" d="M718.28,-225.34C624.17,-218.99 409.45,-203.58 229.5,-184 228.68,-183.91 227.85,-183.82 227.01,-183.73"/>
<polygon fill="#63b8ff" stroke="#63b8ff" points="227.84,-180.3 217.5,-182.6 227.02,-187.25 227.84,-180.3"/>
</g>
<!-- Node9 -->
<g id="node9" class="node">
<title>Node9</title>
<g id="a_node9"><a xlink:title=" ">
<polygon fill="#e0e0e0" stroke="#999999" points="320.5,-19 266.5,-19 266.5,0 320.5,0 320.5,-19"/>
<text text-anchor="middle" x="293.5" y="-7" font-family="Helvetica,sans-Serif" font-size="10.00">iostream</text>
</a>
</g>
</g>
<!-- Node3&#45;&gt;Node9 -->
<g id="edge8" class="edge">
<title>Node3&#45;&gt;Node9</title>
<path fill="none" stroke="#63b8ff" d="M718.37,-227.53C602.63,-224.72 316.07,-214.71 286.5,-184 246.3,-142.25 270.43,-65.35 284.94,-29.64"/>
<polygon fill="#63b8ff" stroke="#63b8ff" points="288.09,-31.19 288.79,-20.62 281.65,-28.44 288.09,-31.19"/>
</g>
<!-- Node10 -->
<g id="node10" class="node">
<title>Node10</title>
<g id="a_node10"><a xlink:title=" ">
<polygon fill="#e0e0e0" stroke="#999999" points="695.5,-184 645.5,-184 645.5,-165 695.5,-165 695.5,-184"/>
<text text-anchor="middle" x="670.5" y="-172" font-family="Helvetica,sans-Serif" font-size="10.00">fstream</text>
</a>
</g>
</g>
<!-- Node3&#45;&gt;Node10 -->
<g id="edge9" class="edge">
<title>Node3&#45;&gt;Node10</title>
<path fill="none" stroke="#63b8ff" d="M750.21,-219.51C735.51,-211.39 713.61,-199.3 696.48,-189.85"/>
<polygon fill="#63b8ff" stroke="#63b8ff" points="698.32,-186.86 687.87,-185.09 694.93,-192.99 698.32,-186.86"/>
</g>
<!-- Node11 -->
<g id="node11" class="node">
<title>Node11</title>
<g id="a_node11"><a xlink:title=" ">
<polygon fill="#e0e0e0" stroke="#999999" points="755,-184 714,-184 714,-165 755,-165 755,-184"/>
<text text-anchor="middle" x="734.5" y="-172" font-family="Helvetica,sans-Serif" font-size="10.00">string</text>
</a>
</g>
</g>
<!-- Node3&#45;&gt;Node11 -->
<g id="edge10" class="edge">
<title>Node3&#45;&gt;Node11</title>
<path fill="none" stroke="#63b8ff" d="M761.22,-219.75C757.03,-212.81 751.02,-202.86 745.77,-194.16"/>
<polygon fill="#63b8ff" stroke="#63b8ff" points="748.85,-192.49 740.68,-185.74 742.85,-196.11 748.85,-192.49"/>
</g>
<!-- Node12 -->
<g id="node12" class="node">
<title>Node12</title>
<g id="a_node12"><a xlink:title=" ">
<polygon fill="#e0e0e0" stroke="#999999" points="823.5,-184 773.5,-184 773.5,-165 823.5,-165 823.5,-184"/>
<text text-anchor="middle" x="798.5" y="-172" font-family="Helvetica,sans-Serif" font-size="10.00">unistd.h</text>
</a>
</g>
</g>
<!-- Node3&#45;&gt;Node12 -->
<g id="edge11" class="edge">
<title>Node3&#45;&gt;Node12</title>
<path fill="none" stroke="#63b8ff" d="M771.78,-219.75C775.97,-212.81 781.98,-202.86 787.23,-194.16"/>
<polygon fill="#63b8ff" stroke="#63b8ff" points="790.15,-196.11 792.32,-185.74 784.15,-192.49 790.15,-196.11"/>
</g>
<!-- Node13 -->
<g id="node13" class="node">
<title>Node13</title>
<g id="a_node13"><a xlink:title=" ">
<polygon fill="#e0e0e0" stroke="#999999" points="907,-184 842,-184 842,-165 907,-165 907,-184"/>
<text text-anchor="middle" x="874.5" y="-172" font-family="Helvetica,sans-Serif" font-size="10.00">sys/types.h</text>
</a>
</g>
</g>
<!-- Node3&#45;&gt;Node13 -->
<g id="edge12" class="edge">
<title>Node3&#45;&gt;Node13</title>
<path fill="none" stroke="#63b8ff" d="M784.82,-219.51C801.68,-211.24 826.93,-198.84 846.35,-189.31"/>
<polygon fill="#63b8ff" stroke="#63b8ff" points="847.66,-192.57 855.09,-185.02 844.57,-186.29 847.66,-192.57"/>
</g>
<!-- Node14 -->
<g id="node14" class="node">
<title>Node14</title>
<g id="a_node14"><a xlink:title=" ">
<polygon fill="#e0e0e0" stroke="#999999" points="382.5,-19 338.5,-19 338.5,0 382.5,0 382.5,-19"/>
<text text-anchor="middle" x="360.5" y="-7" font-family="Helvetica,sans-Serif" font-size="10.00">vector</text>
</a>
</g>
</g>
<!-- Node3&#45;&gt;Node14 -->
<g id="edge13" class="edge">
<title>Node3&#45;&gt;Node14</title>
<path fill="none" stroke="#63b8ff" d="M718.42,-227.49C605.01,-224.62 328.24,-214.52 300.5,-184 258.76,-138.08 315.21,-61.66 344.64,-27.68"/>
<polygon fill="#63b8ff" stroke="#63b8ff" points="347.08,-30.21 351.12,-20.42 341.85,-25.56 347.08,-30.21"/>
</g>
<!-- Node15 -->
<g id="node15" class="node">
<title>Node15</title>
<g id="a_node15"><a xlink:title=" ">
<polygon fill="#e0e0e0" stroke="#999999" points="983.5,-184 925.5,-184 925.5,-165 983.5,-165 983.5,-184"/>
<text text-anchor="middle" x="954.5" y="-172" font-family="Helvetica,sans-Serif" font-size="10.00">exception</text>
</a>
</g>
</g>
<!-- Node3&#45;&gt;Node15 -->
<g id="edge14" class="edge">
<title>Node3&#45;&gt;Node15</title>
<path fill="none" stroke="#63b8ff" d="M798.39,-219.51C830.44,-210.48 879.91,-196.53 914.55,-186.76"/>
<polygon fill="#63b8ff" stroke="#63b8ff" points="915.11,-190.24 923.78,-184.16 913.21,-183.5 915.11,-190.24"/>
</g>
<!-- Node16 -->
<g id="node16" class="node">
<title>Node16</title>
<g id="a_node16"><a xlink:href="Event_8hpp.html" target="_top" xlink:title=" ">
<polygon fill="white" stroke="#666666" points="1093.5,-184 1001.5,-184 1001.5,-165 1093.5,-165 1093.5,-184"/>
<text text-anchor="middle" x="1047.5" y="-172" font-family="Helvetica,sans-Serif" font-size="10.00">Engine/Event.hpp</text>
</a>
</g>
</g>
<!-- Node3&#45;&gt;Node16 -->
<g id="edge16" class="edge">
<title>Node3&#45;&gt;Node16</title>
<path fill="none" stroke="#63b8ff" d="M808.95,-219.51C857.25,-210.02 936.2,-195.12 989.99,-185.33"/>
<polygon fill="#63b8ff" stroke="#63b8ff" points="990.36,-188.82 999.57,-183.59 989.11,-181.93 990.36,-188.82"/>
</g>
<!-- Node19 -->
<g id="node19" class="node">
<title>Node19</title>
<g id="a_node19"><a xlink:href="EntitiesManager_8hpp.html" target="_top" xlink:title=" ">
<polygon fill="white" stroke="#666666" points="449.5,-184 309.5,-184 309.5,-165 449.5,-165 449.5,-184"/>
<text text-anchor="middle" x="379.5" y="-172" font-family="Helvetica,sans-Serif" font-size="10.00">Entities/EntitiesManager.hpp</text>
</a>
</g>
</g>
<!-- Node3&#45;&gt;Node19 -->
<g id="edge20" class="edge">
<title>Node3&#45;&gt;Node19</title>
<path fill="none" stroke="#63b8ff" d="M718,-222.47C650.7,-213.61 528.72,-196.96 450.99,-186.05"/>
<polygon fill="#63b8ff" stroke="#63b8ff" points="451.75,-182.62 441.36,-184.69 450.77,-189.55 451.75,-182.62"/>
</g>
<!-- Node26 -->
<g id="node26" class="node">
<title>Node26</title>
<g id="a_node26"><a xlink:href="Bullets_8hpp.html" target="_top" xlink:title=" ">
<polygon fill="white" stroke="#666666" points="627.5,-184 505.5,-184 505.5,-165 627.5,-165 627.5,-184"/>
<text text-anchor="middle" x="566.5" y="-172" font-family="Helvetica,sans-Serif" font-size="10.00">Components/Bullets.hpp</text>
</a>
</g>
</g>
<!-- Node3&#45;&gt;Node26 -->
<g id="edge36" class="edge">
<title>Node3&#45;&gt;Node26</title>
<path fill="none" stroke="#63b8ff" d="M727.36,-219.51C692.22,-210.69 641.08,-197.18 605.88,-187.46"/>
<polygon fill="#63b8ff" stroke="#63b8ff" points="607.08,-184.16 596.51,-184.85 605.21,-190.9 607.08,-184.16"/>
</g>
<!-- Node28 -->
<g id="node28" class="node">
<title>Node28</title>
<g id="a_node28"><a xlink:href="Background_8hpp.html" target="_top" xlink:title=" ">
<polygon fill="white" stroke="#666666" points="1255.5,-184 1111.5,-184 1111.5,-165 1255.5,-165 1255.5,-184"/>
<text text-anchor="middle" x="1183.5" y="-172" font-family="Helvetica,sans-Serif" font-size="10.00">Components/Background.hpp</text>
</a>
</g>
</g>
<!-- Node3&#45;&gt;Node28 -->
<g id="edge40" class="edge">
<title>Node3&#45;&gt;Node28</title>
<path fill="none" stroke="#63b8ff" d="M814.64,-221.79C884.4,-212.6 1014.37,-196.05 1099.94,-185.43"/>
<polygon fill="#63b8ff" stroke="#63b8ff" points="1100.2,-188.93 1109.69,-184.23 1099.34,-181.98 1100.2,-188.93"/>
</g>
<!-- Node16&#45;&gt;Node3 -->
<g id="edge17" class="edge">
<title>Node16&#45;&gt;Node3</title>
<path fill="none" stroke="#63b8ff" d="M1005.14,-184.47C957.42,-193.85 879.68,-208.52 825.92,-218.32"/>
<polygon fill="#63b8ff" stroke="#63b8ff" points="825.53,-214.83 816.32,-220.06 826.78,-221.72 825.53,-214.83"/>
</g>
<!-- Node16&#45;&gt;Node17 -->
<g id="edge18" class="edge">
<title>Node16&#45;&gt;Node17</title>
<path fill="none" stroke="#63b8ff" d="M1093.69,-165.85C1161.77,-154.57 1286.86,-133.86 1341.17,-124.86"/>
<polygon fill="#63b8ff" stroke="#63b8ff" points="1341.73,-128.32 1351.03,-123.23 1340.59,-121.41 1341.73,-128.32"/>
</g>
<!-- Node18 -->
<g id="node18" class="node">
<title>Node18</title>
<g id="a_node18"><a xlink:title=" ">
<polygon fill="#e0e0e0" stroke="#999999" points="1069,-129 1026,-129 1026,-110 1069,-110 1069,-129"/>
<text text-anchor="middle" x="1047.5" y="-117" font-family="Helvetica,sans-Serif" font-size="10.00">queue</text>
</a>
</g>
</g>
<!-- Node16&#45;&gt;Node18 -->
<g id="edge19" class="edge">
<title>Node16&#45;&gt;Node18</title>
<path fill="none" stroke="#63b8ff" d="M1047.5,-164.75C1047.5,-158.27 1047.5,-149.16 1047.5,-140.9"/>
<polygon fill="#63b8ff" stroke="#63b8ff" points="1051,-140.96 1047.5,-130.96 1044,-140.96 1051,-140.96"/>
</g>
<!-- Node19&#45;&gt;Node3 -->
<g id="edge21" class="edge">
<title>Node19&#45;&gt;Node3</title>
<path fill="none" stroke="#63b8ff" d="M449.97,-184.44C523.67,-194.25 637.94,-209.9 707.19,-219.67"/>
<polygon fill="#63b8ff" stroke="#63b8ff" points="706.43,-223.09 716.82,-221.03 707.41,-216.16 706.43,-223.09"/>
</g>
<!-- Node20 -->
<g id="node20" class="node">
<title>Node20</title>
<g id="a_node20"><a xlink:href="IComponents_8hpp.html" target="_top" xlink:title=" ">
<polygon fill="white" stroke="#666666" points="603.5,-129 453.5,-129 453.5,-110 603.5,-110 603.5,-129"/>
<text text-anchor="middle" x="528.5" y="-117" font-family="Helvetica,sans-Serif" font-size="10.00">Components/IComponents.hpp</text>
</a>
</g>
</g>
<!-- Node19&#45;&gt;Node20 -->
<g id="edge22" class="edge">
<title>Node19&#45;&gt;Node20</title>
<path fill="none" stroke="#63b8ff" d="M404.78,-164.51C429,-155.89 465.8,-142.8 492.97,-133.14"/>
<polygon fill="#63b8ff" stroke="#63b8ff" points="493.92,-136.51 502.17,-129.87 491.58,-129.92 493.92,-136.51"/>
</g>
<!-- Node21 -->
<g id="node21" class="node">
<title>Node21</title>
<g id="a_node21"><a xlink:href="SparseArray_8hpp.html" target="_top" xlink:title=" ">
<polygon fill="white" stroke="#666666" points="435,-129 324,-129 324,-110 435,-110 435,-129"/>
<text text-anchor="middle" x="379.5" y="-117" font-family="Helvetica,sans-Serif" font-size="10.00">Utils/SparseArray.hpp</text>
</a>
</g>
</g>
<!-- Node19&#45;&gt;Node21 -->
<g id="edge24" class="edge">
<title>Node19&#45;&gt;Node21</title>
<path fill="none" stroke="#63b8ff" d="M379.5,-164.75C379.5,-158.27 379.5,-149.16 379.5,-140.9"/>
<polygon fill="#63b8ff" stroke="#63b8ff" points="383,-140.96 379.5,-130.96 376,-140.96 383,-140.96"/>
</g>
<!-- Node20&#45;&gt;Node3 -->
<g id="edge23" class="edge">
<title>Node20&#45;&gt;Node3</title>
<path fill="none" stroke="#63b8ff" d="M517.91,-129.49C503.78,-142.55 482.12,-167.06 496.5,-184 522.89,-215.09 635.33,-224.5 706.52,-227.32"/>
<polygon fill="#63b8ff" stroke="#63b8ff" points="706.38,-230.81 716.5,-227.68 706.63,-223.82 706.38,-230.81"/>
</g>
<!-- Node21&#45;&gt;Node9 -->
<g id="edge25" class="edge">
<title>Node21&#45;&gt;Node9</title>
<path fill="none" stroke="#63b8ff" d="M372.46,-109.66C358.35,-91.94 326.36,-51.77 307.72,-28.35"/>
<polygon fill="#63b8ff" stroke="#63b8ff" points="310.55,-26.29 301.58,-20.64 305.07,-30.65 310.55,-26.29"/>
</g>
<!-- Node21&#45;&gt;Node14 -->
<g id="edge28" class="edge">
<title>Node21&#45;&gt;Node14</title>
<path fill="none" stroke="#63b8ff" d="M377.95,-109.66C374.93,-92.5 368.2,-54.26 364.04,-30.6"/>
<polygon fill="#63b8ff" stroke="#63b8ff" points="367.52,-30.19 362.34,-20.95 360.62,-31.41 367.52,-30.19"/>
</g>
<!-- Node22 -->
<g id="node22" class="node">
<title>Node22</title>
<g id="a_node22"><a xlink:title=" ">
<polygon fill="#e0e0e0" stroke="#999999" points="462.5,-19 406.5,-19 406.5,0 462.5,0 462.5,-19"/>
<text text-anchor="middle" x="434.5" y="-7" font-family="Helvetica,sans-Serif" font-size="10.00">algorithm</text>
</a>
</g>
</g>
<!-- Node21&#45;&gt;Node22 -->
<g id="edge26" class="edge">
<title>Node21&#45;&gt;Node22</title>
<path fill="none" stroke="#63b8ff" d="M432.23,-109.55C452.74,-103.21 474.22,-92.41 486.5,-74 498.23,-56.42 478.91,-37.89 460.58,-25.42"/>
<polygon fill="#63b8ff" stroke="#63b8ff" points="462.57,-22.54 452.26,-20.13 458.82,-28.45 462.57,-22.54"/>
</g>
<!-- Node23 -->
<g id="node23" class="node">
<title>Node23</title>
<g id="a_node23"><a xlink:title=" ">
<polygon fill="#e0e0e0" stroke="#999999" points="532.5,-19 494.5,-19 494.5,0 532.5,0 532.5,-19"/>
<text text-anchor="middle" x="513.5" y="-7" font-family="Helvetica,sans-Serif" font-size="10.00">array</text>
</a>
</g>
</g>
<!-- Node21&#45;&gt;Node23 -->
<g id="edge27" class="edge">
<title>Node21&#45;&gt;Node23</title>
<path fill="none" stroke="#63b8ff" d="M435.38,-111.01C459.43,-104.93 485.8,-93.93 502.5,-74 512.51,-62.05 514.89,-44.3 514.97,-30.6"/>
<polygon fill="#63b8ff" stroke="#63b8ff" points="518.48,-30.81 514.61,-20.95 511.48,-31.07 518.48,-30.81"/>
</g>
<!-- Node24 -->
<g id="node24" class="node">
<title>Node24</title>
<g id="a_node24"><a xlink:title=" ">
<polygon fill="#e0e0e0" stroke="#999999" points="597,-19 558,-19 558,0 597,0 597,-19"/>
<text text-anchor="middle" x="577.5" y="-7" font-family="Helvetica,sans-Serif" font-size="10.00">utility</text>
</a>
</g>
</g>
<!-- Node21&#45;&gt;Node24 -->
<g id="edge29" class="edge">
<title>Node21&#45;&gt;Node24</title>
<path fill="none" stroke="#63b8ff" d="M430.71,-109.52C459.1,-102.87 494.09,-91.8 521.5,-74 539.75,-62.15 555.62,-42.76 565.76,-28.53"/>
<polygon fill="#63b8ff" stroke="#63b8ff" points="568.49,-30.73 571.23,-20.5 562.71,-26.79 568.49,-30.73"/>
</g>
<!-- Node25 -->
<g id="node25" class="node">
<title>Node25</title>
<g id="a_node25"><a xlink:href="Vectors_8hpp.html" target="_top" xlink:title=" ">
<polygon fill="white" stroke="#666666" points="477.5,-74 385.5,-74 385.5,-55 477.5,-55 477.5,-74"/>
<text text-anchor="middle" x="431.5" y="-62" font-family="Helvetica,sans-Serif" font-size="10.00">Utils/Vectors.hpp</text>
</a>
</g>
</g>
<!-- Node21&#45;&gt;Node25 -->
<g id="edge30" class="edge">
<title>Node21&#45;&gt;Node25</title>
<path fill="none" stroke="#63b8ff" d="M388.09,-109.75C395.34,-102.35 405.95,-91.54 414.87,-82.45"/>
<polygon fill="#63b8ff" stroke="#63b8ff" points="417.16,-85.11 421.67,-75.52 412.16,-80.21 417.16,-85.11"/>
</g>
<!-- Node25&#45;&gt;Node9 -->
<g id="edge31" class="edge">
<title>Node25&#45;&gt;Node9</title>
<path fill="none" stroke="#63b8ff" d="M408.09,-54.51C385.85,-45.97 352.17,-33.03 327.08,-23.4"/>
<polygon fill="#63b8ff" stroke="#63b8ff" points="328.57,-20.22 317.98,-19.9 326.06,-26.75 328.57,-20.22"/>
</g>
<!-- Node25&#45;&gt;Node14 -->
<g id="edge34" class="edge">
<title>Node25&#45;&gt;Node14</title>
<path fill="none" stroke="#63b8ff" d="M419.46,-54.51C409.09,-46.77 393.9,-35.43 381.53,-26.2"/>
<polygon fill="#63b8ff" stroke="#63b8ff" points="383.69,-23.44 373.58,-20.26 379.5,-29.05 383.69,-23.44"/>
</g>
<!-- Node25&#45;&gt;Node22 -->
<g id="edge32" class="edge">
<title>Node25&#45;&gt;Node22</title>
<path fill="none" stroke="#63b8ff" d="M432,-54.75C432.36,-48.27 432.88,-39.16 433.35,-30.9"/>
<polygon fill="#63b8ff" stroke="#63b8ff" points="436.84,-31.13 433.91,-20.95 429.85,-30.74 436.84,-31.13"/>
</g>
<!-- Node25&#45;&gt;Node23 -->
<g id="edge33" class="edge">
<title>Node25&#45;&gt;Node23</title>
<path fill="none" stroke="#63b8ff" d="M445.41,-54.51C457.74,-46.54 475.97,-34.75 490.47,-25.38"/>
<polygon fill="#63b8ff" stroke="#63b8ff" points="492.03,-28.55 498.52,-20.18 488.23,-22.67 492.03,-28.55"/>
</g>
<!-- Node25&#45;&gt;Node24 -->
<g id="edge35" class="edge">
<title>Node25&#45;&gt;Node24</title>
<path fill="none" stroke="#63b8ff" d="M456.27,-54.51C481.32,-45.41 520.11,-31.33 547.03,-21.56"/>
<polygon fill="#63b8ff" stroke="#63b8ff" points="548.14,-24.88 556.35,-18.18 545.76,-18.3 548.14,-24.88"/>
</g>
<!-- Node26&#45;&gt;Node3 -->
<g id="edge37" class="edge">
<title>Node26&#45;&gt;Node3</title>
<path fill="none" stroke="#63b8ff" d="M605.47,-184.45C640.55,-193.25 691.69,-206.76 726.94,-216.49"/>
<polygon fill="#63b8ff" stroke="#63b8ff" points="725.76,-219.8 736.33,-219.1 727.64,-213.05 725.76,-219.8"/>
</g>
<!-- Node26&#45;&gt;Node20 -->
<g id="edge38" class="edge">
<title>Node26&#45;&gt;Node20</title>
<path fill="none" stroke="#63b8ff" d="M560.23,-164.75C555.14,-157.66 547.8,-147.42 541.47,-138.59"/>
<polygon fill="#63b8ff" stroke="#63b8ff" points="544.46,-136.76 535.79,-130.67 538.78,-140.84 544.46,-136.76"/>
</g>
<!-- Node27 -->
<g id="node27" class="node">
<title>Node27</title>
<g id="a_node27"><a xlink:title=" ">
<polygon fill="#e0e0e0" stroke="#999999" points="667.5,-129 621.5,-129 621.5,-110 667.5,-110 667.5,-129"/>
<text text-anchor="middle" x="644.5" y="-117" font-family="Helvetica,sans-Serif" font-size="10.00">math.h</text>
</a>
</g>
</g>
<!-- Node26&#45;&gt;Node27 -->
<g id="edge39" class="edge">
<title>Node26&#45;&gt;Node27</title>
<path fill="none" stroke="#63b8ff" d="M579.73,-164.51C591.34,-156.62 608.47,-144.98 622.2,-135.65"/>
<polygon fill="#63b8ff" stroke="#63b8ff" points="623.91,-138.72 630.21,-130.21 619.97,-132.93 623.91,-138.72"/>
</g>
<!-- Node28&#45;&gt;Node3 -->
<g id="edge41" class="edge">
<title>Node28&#45;&gt;Node3</title>
<path fill="none" stroke="#63b8ff" d="M1118.16,-184.47C1037.88,-194.95 903,-212.07 825.66,-221.58"/>
<polygon fill="#63b8ff" stroke="#63b8ff" points="825.68,-218.05 816.18,-222.74 826.53,-225 825.68,-218.05"/>
</g>
</g>
</svg>
        <g id="navigator" transform="translate(0 0)" fill="#404254">
                <rect fill="#f2f5e9" fill-opacity="0.5" stroke="#606060" stroke-width=".5" x="0" y="0" width="60" height="60"/>
                <use id="zoomplus" xlink:href="#zoomPlus" x="17" y="9" onmousedown="handleZoom(evt,'in')"/>
                <use id="zoomminus" xlink:href="#zoomMin" x="42" y="9" onmousedown="handleZoom(evt,'out')"/>
                <use id="reset" xlink:href="#resetDef" x="30" y="36" onmousedown="handleReset()"/>
                <g id="arrowUp" xlink:href="#dirArrow" transform="translate(30 24)" onmousedown="handlePan(0,-1)">
                  <use xlink:href="#rim" fill="#404040">
                        <set attributeName="fill" to="#808080" begin="arrowUp.mouseover" end="arrowUp.mouseout"/>
                  </use>
                  <path fill="none" stroke="white" stroke-width="1.5" d="M0,-3.0v7 M-2.5,-0.5L0,-3.0L2.5,-0.5"/>
                </g>
                <g id="arrowRight" xlink:href="#dirArrow" transform="rotate(90) translate(36 -43)" onmousedown="handlePan(1,0)">
                  <use xlink:href="#rim" fill="#404040">
                        <set attributeName="fill" to="#808080" begin="arrowRight.mouseover" end="arrowRight.mouseout"/>
                  </use>
                  <path fill="none" stroke="white" stroke-width="1.5" d="M0,-3.0v7 M-2.5,-0.5L0,-3.0L2.5,-0.5"/>
                </g>
                <g id="arrowDown" xlink:href="#dirArrow" transform="rotate(180) translate(-30 -48)" onmousedown="handlePan(0,1)">
                  <use xlink:href="#rim" fill="#404040">
                        <set attributeName="fill" to="#808080" begin="arrowDown.mouseover" end="arrowDown.mouseout"/>
                  </use>
                  <path fill="none" stroke="white" stroke-width="1.5" d="M0,-3.0v7 M-2.5,-0.5L0,-3.0L2.5,-0.5"/>
                </g>
                <g id="arrowLeft" xlink:href="#dirArrow" transform="rotate(270) translate(-36 17)" onmousedown="handlePan(-1,0)">
                  <use xlink:href="#rim" fill="#404040">
                        <set attributeName="fill" to="#808080" begin="arrowLeft.mouseover" end="arrowLeft.mouseout"/>
                  </use>
                  <path fill="none" stroke="white" stroke-width="1.5" d="M0,-3.0v7 M-2.5,-0.5L0,-3.0L2.5,-0.5"/>
                </g>
        </g>
        <svg viewBox="0 0 15 15" width="100%" height="30px" preserveAspectRatio="xMaxYMin meet">
         <g id="arrow_out" transform="scale(0.3 0.3)">
          <a xlink:href="Window_8cpp__incl_org.svg" target="_base">
           <rect id="button" ry="5" rx="5" y="6" x="6" height="38" width="38"
                fill="#f2f5e9" fill-opacity="0.5" stroke="#606060" stroke-width="1.0"/>
           <path id="arrow"
             d="M 11.500037,31.436501 C 11.940474,20.09759 22.043105,11.32322 32.158766,21.979434 L 37.068811,17.246167 C 37.068811,17.246167 37.088388,32 37.088388,32 L 22.160133,31.978069 C 22.160133,31.978069 26.997745,27.140456 26.997745,27.140456 C 18.528582,18.264221 13.291696,25.230495 11.500037,31.436501 z"
             style="fill:#404040;"/>
          </a>
         </g>
        </svg>
</svg>
