<?xml version="1.0" encoding="UTF-8" standalone="no"?>
<!DOCTYPE svg PUBLIC "-//W3C//DTD SVG 1.1//EN"
 "http://www.w3.org/Graphics/SVG/1.1/DTD/svg11.dtd">
<!-- Generated by graphviz version 7.0.5 (20221223.1930)
 -->
<!-- Title: /github/workspace/client/src/Window.cpp Pages: 1 -->
<svg width="1774pt" height="368pt"
 viewBox="0.00 0.00 1773.57 368.00" xmlns="http://www.w3.org/2000/svg" xmlns:xlink="http://www.w3.org/1999/xlink">
<g id="graph0" class="graph" transform="scale(1 1) rotate(0) translate(4 364)">
<title>/github/workspace/client/src/Window.cpp</title>
<!-- Node1 -->
<g id="node1" class="node">
<title>Node1</title>
<g id="a_node1"><a xlink:title=" ">
<polygon fill="#999999" stroke="#666666" points="1390.5,-360 1268.5,-360 1268.5,-330 1390.5,-330 1390.5,-360"/>
<text text-anchor="start" x="1276.5" y="-348" font-family="Helvetica,sans-Serif" font-size="10.00">/github/workspace/client</text>
<text text-anchor="middle" x="1329.5" y="-337" font-family="Helvetica,sans-Serif" font-size="10.00">/src/Window.cpp</text>
</a>
</g>
</g>
<!-- Node2 -->
<g id="node2" class="node">
<title>Node2</title>
<g id="a_node2"><a xlink:href="Window_8hpp.html" target="_top" xlink:title=" ">
<polygon fill="white" stroke="#666666" points="893,-294 792,-294 792,-275 893,-275 893,-294"/>
<text text-anchor="middle" x="842.5" y="-282" font-family="Helvetica,sans-Serif" font-size="10.00">Engine/Window.hpp</text>
</a>
</g>
</g>
<!-- Node1&#45;&gt;Node2 -->
<g id="edge1" class="edge">
<title>Node1&#45;&gt;Node2</title>
<path fill="none" stroke="#63b8ff" d="M1268.31,-336.65C1175.12,-325.46 998.57,-304.25 904.75,-292.98"/>
<polygon fill="#63b8ff" stroke="#63b8ff" points="905.31,-289.52 894.96,-291.8 904.47,-296.47 905.31,-289.52"/>
</g>
<!-- Node19 -->
<g id="node19" class="node">
<title>Node19</title>
<g id="a_node19"><a xlink:title=" ">
<polygon fill="#e0e0e0" stroke="#999999" points="1617,-129 1588,-129 1588,-110 1617,-110 1617,-129"/>
<text text-anchor="middle" x="1602.5" y="-117" font-family="Helvetica,sans-Serif" font-size="10.00">list</text>
</a>
</g>
</g>
<!-- Node1&#45;&gt;Node19 -->
<g id="edge45" class="edge">
<title>Node1&#45;&gt;Node19</title>
<path fill="none" stroke="#63b8ff" d="M1390.98,-341.83C1488.3,-334.68 1675.41,-305.01 1759.5,-184 1792.58,-136.39 1681.55,-124.45 1628.79,-121.48"/>
<polygon fill="#63b8ff" stroke="#63b8ff" points="1628.99,-117.98 1618.84,-120.99 1628.66,-124.97 1628.99,-117.98"/>
</g>
<!-- Node3 -->
<g id="node3" class="node">
<title>Node3</title>
<g id="a_node3"><a xlink:href="Engine_8hpp.html" target="_top" xlink:title=" ">
<polygon fill="white" stroke="#666666" points="890.5,-239 794.5,-239 794.5,-220 890.5,-220 890.5,-239"/>
<text text-anchor="middle" x="842.5" y="-227" font-family="Helvetica,sans-Serif" font-size="10.00">Engine/Engine.hpp</text>
</a>
</g>
</g>
<!-- Node2&#45;&gt;Node3 -->
<g id="edge2" class="edge">
<title>Node2&#45;&gt;Node3</title>
<path fill="none" stroke="#63b8ff" d="M837.33,-274.75C835.92,-268.19 835.46,-258.95 835.93,-250.6"/>
<polygon fill="#63b8ff" stroke="#63b8ff" points="839.37,-251.3 837.11,-240.94 832.42,-250.45 839.37,-251.3"/>
</g>
<!-- Node3&#45;&gt;Node2 -->
<g id="edge17" class="edge">
<title>Node3&#45;&gt;Node2</title>
<path fill="none" stroke="#63b8ff" d="M847.71,-239.44C849.08,-245.97 849.54,-255.1 849.07,-263.35"/>
<polygon fill="#63b8ff" stroke="#63b8ff" points="845.6,-262.89 847.85,-273.25 852.55,-263.75 845.6,-262.89"/>
</g>
<!-- Node4 -->
<g id="node4" class="node">
<title>Node4</title>
<g id="a_node4"><a xlink:title=" ">
<polygon fill="#e0e0e0" stroke="#999999" points="1237,-184 1148,-184 1148,-165 1237,-165 1237,-184"/>
<text text-anchor="middle" x="1192.5" y="-172" font-family="Helvetica,sans-Serif" font-size="10.00">SFML/Audio.hpp</text>
</a>
</g>
</g>
<!-- Node3&#45;&gt;Node4 -->
<g id="edge3" class="edge">
<title>Node3&#45;&gt;Node4</title>
<path fill="none" stroke="#63b8ff" d="M890.97,-221.32C947.31,-212.95 1043.43,-198.59 1136.4,-184.31"/>
<polygon fill="#63b8ff" stroke="#63b8ff" points="1136.87,-187.78 1146.22,-182.8 1135.8,-180.86 1136.87,-187.78"/>
</g>
<!-- Node5 -->
<g id="node5" class="node">
<title>Node5</title>
<g id="a_node5"><a xlink:title=" ">
<polygon fill="#e0e0e0" stroke="#999999" points="1631.5,-184 1527.5,-184 1527.5,-165 1631.5,-165 1631.5,-184"/>
<text text-anchor="middle" x="1579.5" y="-172" font-family="Helvetica,sans-Serif" font-size="10.00">SFML/Graphics.hpp</text>
</a>
</g>
</g>
<!-- Node3&#45;&gt;Node5 -->
<g id="edge4" class="edge">
<title>Node3&#45;&gt;Node5</title>
<path fill="none" stroke="#63b8ff" d="M890.96,-226.52C1000.38,-221.79 1275.15,-208.46 1515.85,-184.19"/>
<polygon fill="#63b8ff" stroke="#63b8ff" points="1516.19,-187.68 1525.78,-183.18 1515.48,-180.71 1516.19,-187.68"/>
</g>
<!-- Node6 -->
<g id="node6" class="node">
<title>Node6</title>
<g id="a_node6"><a xlink:title=" ">
<polygon fill="#e0e0e0" stroke="#999999" points="1751,-184 1650,-184 1650,-165 1751,-165 1751,-184"/>
<text text-anchor="middle" x="1700.5" y="-172" font-family="Helvetica,sans-Serif" font-size="10.00">SFML/Network.hpp</text>
</a>
</g>
</g>
<!-- Node3&#45;&gt;Node6 -->
<g id="edge5" class="edge">
<title>Node3&#45;&gt;Node6</title>
<path fill="none" stroke="#63b8ff" d="M890.73,-227.24C1013.58,-223.72 1348.43,-212.22 1638.63,-184.09"/>
<polygon fill="#63b8ff" stroke="#63b8ff" points="1638.68,-187.6 1648.29,-183.14 1638,-180.63 1638.68,-187.6"/>
</g>
<!-- Node7 -->
<g id="node7" class="node">
<title>Node7</title>
<g id="a_node7"><a xlink:title=" ">
<polygon fill="#e0e0e0" stroke="#999999" points="99,-184 0,-184 0,-165 99,-165 99,-184"/>
<text text-anchor="middle" x="49.5" y="-172" font-family="Helvetica,sans-Serif" font-size="10.00">SFML/Window.hpp</text>
</a>
</g>
</g>
<!-- Node3&#45;&gt;Node7 -->
<g id="edge6" class="edge">
<title>Node3&#45;&gt;Node7</title>
<path fill="none" stroke="#63b8ff" d="M794.3,-226.95C678.45,-222.95 375.07,-210.7 110.72,-184.13"/>
<polygon fill="#63b8ff" stroke="#63b8ff" points="111.17,-180.66 100.86,-183.13 110.46,-187.62 111.17,-180.66"/>
</g>
<!-- Node8 -->
<g id="node8" class="node">
<title>Node8</title>
<g id="a_node8"><a xlink:title=" ">
<polygon fill="#e0e0e0" stroke="#999999" points="215.5,-184 117.5,-184 117.5,-165 215.5,-165 215.5,-184"/>
<text text-anchor="middle" x="166.5" y="-172" font-family="Helvetica,sans-Serif" font-size="10.00">SFML/System.hpp</text>
</a>
</g>
</g>
<!-- Node3&#45;&gt;Node8 -->
<g id="edge7" class="edge">
<title>Node3&#45;&gt;Node8</title>
<path fill="none" stroke="#63b8ff" d="M794.33,-226.02C690.79,-220.45 439.38,-205.76 229.5,-184 228.68,-183.91 227.85,-183.83 227.01,-183.74"/>
<polygon fill="#63b8ff" stroke="#63b8ff" points="227.83,-180.31 217.49,-182.64 227.03,-187.26 227.83,-180.31"/>
</g>
<!-- Node9 -->
<g id="node9" class="node">
<title>Node9</title>
<g id="a_node9"><a xlink:title=" ">
<polygon fill="#e0e0e0" stroke="#999999" points="320.5,-19 266.5,-19 266.5,0 320.5,0 320.5,-19"/>
<text text-anchor="middle" x="293.5" y="-7" font-family="Helvetica,sans-Serif" font-size="10.00">iostream</text>
</a>
</g>
</g>
<!-- Node3&#45;&gt;Node9 -->
<g id="edge8" class="edge">
<title>Node3&#45;&gt;Node9</title>
<path fill="none" stroke="#63b8ff" d="M794.43,-228.19C665.9,-226.88 321.61,-220.01 286.5,-184 246.04,-142.5 270.3,-65.47 284.89,-29.69"/>
<polygon fill="#63b8ff" stroke="#63b8ff" points="288.05,-31.21 288.76,-20.64 281.61,-28.46 288.05,-31.21"/>
</g>
<!-- Node10 -->
<g id="node10" class="node">
<title>Node10</title>
<g id="a_node10"><a xlink:title=" ">
<polygon fill="#e0e0e0" stroke="#999999" points="695.5,-184 645.5,-184 645.5,-165 695.5,-165 695.5,-184"/>
<text text-anchor="middle" x="670.5" y="-172" font-family="Helvetica,sans-Serif" font-size="10.00">fstream</text>
</a>
</g>
</g>
<!-- Node3&#45;&gt;Node10 -->
<g id="edge9" class="edge">
<title>Node3&#45;&gt;Node10</title>
<path fill="none" stroke="#63b8ff" d="M813.32,-219.51C783.83,-210.42 738.2,-196.36 706.48,-186.59"/>
<polygon fill="#63b8ff" stroke="#63b8ff" points="707.92,-183.37 697.34,-183.77 705.86,-190.06 707.92,-183.37"/>
</g>
<!-- Node11 -->
<g id="node11" class="node">
<title>Node11</title>
<g id="a_node11"><a xlink:title=" ">
<polygon fill="#e0e0e0" stroke="#999999" points="761.5,-184 713.5,-184 713.5,-165 761.5,-165 761.5,-184"/>
<text text-anchor="middle" x="737.5" y="-172" font-family="Helvetica,sans-Serif" font-size="10.00">string.h</text>
</a>
</g>
</g>
<!-- Node3&#45;&gt;Node11 -->
<g id="edge10" class="edge">
<title>Node3&#45;&gt;Node11</title>
<path fill="none" stroke="#63b8ff" d="M824.69,-219.51C808.37,-211.27 783.97,-198.96 765.13,-189.45"/>
<polygon fill="#63b8ff" stroke="#63b8ff" points="766.9,-186.42 756.4,-185.04 763.75,-192.67 766.9,-186.42"/>
</g>
<!-- Node12 -->
<g id="node12" class="node">
<title>Node12</title>
<g id="a_node12"><a xlink:title=" ">
<polygon fill="#e0e0e0" stroke="#999999" points="829.5,-184 779.5,-184 779.5,-165 829.5,-165 829.5,-184"/>
<text text-anchor="middle" x="804.5" y="-172" font-family="Helvetica,sans-Serif" font-size="10.00">unistd.h</text>
</a>
</g>
</g>
<!-- Node3&#45;&gt;Node12 -->
<g id="edge11" class="edge">
<title>Node3&#45;&gt;Node12</title>
<path fill="none" stroke="#63b8ff" d="M836.23,-219.75C831.14,-212.66 823.8,-202.42 817.47,-193.59"/>
<polygon fill="#63b8ff" stroke="#63b8ff" points="820.46,-191.76 811.79,-185.67 814.78,-195.84 820.46,-191.76"/>
</g>
<!-- Node13 -->
<g id="node13" class="node">
<title>Node13</title>
<g id="a_node13"><a xlink:title=" ">
<polygon fill="#e0e0e0" stroke="#999999" points="913,-184 848,-184 848,-165 913,-165 913,-184"/>
<text text-anchor="middle" x="880.5" y="-172" font-family="Helvetica,sans-Serif" font-size="10.00">sys/types.h</text>
</a>
</g>
</g>
<!-- Node3&#45;&gt;Node13 -->
<g id="edge12" class="edge">
<title>Node3&#45;&gt;Node13</title>
<path fill="none" stroke="#63b8ff" d="M848.77,-219.75C853.86,-212.66 861.2,-202.42 867.53,-193.59"/>
<polygon fill="#63b8ff" stroke="#63b8ff" points="870.22,-195.84 873.21,-185.67 864.54,-191.76 870.22,-195.84"/>
</g>
<!-- Node14 -->
<g id="node14" class="node">
<title>Node14</title>
<g id="a_node14"><a xlink:title=" ">
<polygon fill="#e0e0e0" stroke="#999999" points="382.5,-19 338.5,-19 338.5,0 382.5,0 382.5,-19"/>
<text text-anchor="middle" x="360.5" y="-7" font-family="Helvetica,sans-Serif" font-size="10.00">vector</text>
</a>
</g>
</g>
<!-- Node3&#45;&gt;Node14 -->
<g id="edge13" class="edge">
<title>Node3&#45;&gt;Node14</title>
<path fill="none" stroke="#63b8ff" d="M794.17,-228.18C667.55,-226.85 333.6,-219.93 300.5,-184 258.46,-138.36 315.07,-61.79 344.59,-27.73"/>
<polygon fill="#63b8ff" stroke="#63b8ff" points="347.05,-30.24 351.09,-20.44 341.82,-25.58 347.05,-30.24"/>
</g>
<!-- Node15 -->
<g id="node15" class="node">
<title>Node15</title>
<g id="a_node15"><a xlink:title=" ">
<polygon fill="#e0e0e0" stroke="#999999" points="987.5,-184 931.5,-184 931.5,-165 987.5,-165 987.5,-184"/>
<text text-anchor="middle" x="959.5" y="-172" font-family="Helvetica,sans-Serif" font-size="10.00">stdbool.h</text>
</a>
</g>
</g>
<!-- Node3&#45;&gt;Node15 -->
<g id="edge14" class="edge">
<title>Node3&#45;&gt;Node15</title>
<path fill="none" stroke="#63b8ff" d="M862.35,-219.51C880.78,-211.16 908.48,-198.61 929.59,-189.05"/>
<polygon fill="#63b8ff" stroke="#63b8ff" points="930.9,-192.3 938.57,-184.98 928.01,-185.92 930.9,-192.3"/>
</g>
<!-- Node16 -->
<g id="node16" class="node">
<title>Node16</title>
<g id="a_node16"><a xlink:title=" ">
<polygon fill="#e0e0e0" stroke="#999999" points="1053,-184 1006,-184 1006,-165 1053,-165 1053,-184"/>
<text text-anchor="middle" x="1029.5" y="-172" font-family="Helvetica,sans-Serif" font-size="10.00">stdlib.h</text>
</a>
</g>
</g>
<!-- Node3&#45;&gt;Node16 -->
<g id="edge15" class="edge">
<title>Node3&#45;&gt;Node16</title>
<path fill="none" stroke="#63b8ff" d="M874.22,-219.51C907.64,-210.04 960.13,-195.16 994.68,-185.37"/>
<polygon fill="#63b8ff" stroke="#63b8ff" points="995.53,-188.77 1004.2,-182.67 993.62,-182.03 995.53,-188.77"/>
</g>
<!-- Node17 -->
<g id="node17" class="node">
<title>Node17</title>
<g id="a_node17"><a xlink:title=" ">
<polygon fill="#e0e0e0" stroke="#999999" points="1129.5,-184 1071.5,-184 1071.5,-165 1129.5,-165 1129.5,-184"/>
<text text-anchor="middle" x="1100.5" y="-172" font-family="Helvetica,sans-Serif" font-size="10.00">exception</text>
</a>
</g>
</g>
<!-- Node3&#45;&gt;Node17 -->
<g id="edge16" class="edge">
<title>Node3&#45;&gt;Node17</title>
<path fill="none" stroke="#63b8ff" d="M887.42,-219.57C929.38,-211.18 994.05,-198.14 1060.09,-184.27"/>
<polygon fill="#63b8ff" stroke="#63b8ff" points="1060.58,-187.75 1069.64,-182.26 1059.13,-180.9 1060.58,-187.75"/>
</g>
<!-- Node18 -->
<g id="node18" class="node">
<title>Node18</title>
<g id="a_node18"><a xlink:href="Event_8hpp.html" target="_top" xlink:title=" ">
<polygon fill="white" stroke="#666666" points="1347.5,-184 1255.5,-184 1255.5,-165 1347.5,-165 1347.5,-184"/>
<text text-anchor="middle" x="1301.5" y="-172" font-family="Helvetica,sans-Serif" font-size="10.00">Engine/Event.hpp</text>
</a>
</g>
</g>
<!-- Node3&#45;&gt;Node18 -->
<g id="edge18" class="edge">
<title>Node3&#45;&gt;Node18</title>
<path fill="none" stroke="#63b8ff" d="M890.74,-223.22C965.14,-215.52 1111.92,-200.33 1236.5,-184 1238.96,-183.68 1241.47,-183.34 1244.02,-182.98"/>
<polygon fill="#63b8ff" stroke="#63b8ff" points="1244.4,-186.47 1253.81,-181.59 1243.41,-179.54 1244.4,-186.47"/>
</g>
<!-- Node22 -->
<g id="node22" class="node">
<title>Node22</title>
<g id="a_node22"><a xlink:href="EntitiesManager_8hpp.html" target="_top" xlink:title=" ">
<polygon fill="white" stroke="#666666" points="449.5,-184 309.5,-184 309.5,-165 449.5,-165 449.5,-184"/>
<text text-anchor="middle" x="379.5" y="-172" font-family="Helvetica,sans-Serif" font-size="10.00">Entities/EntitiesManager.hpp</text>
</a>
</g>
</g>
<!-- Node3&#45;&gt;Node22 -->
<g id="edge23" class="edge">
<title>Node3&#45;&gt;Node22</title>
<path fill="none" stroke="#63b8ff" d="M794.36,-223.47C715.4,-214.77 557.75,-196.77 461.11,-185.46"/>
<polygon fill="#63b8ff" stroke="#63b8ff" points="461.77,-182.02 451.43,-184.33 460.96,-188.97 461.77,-182.02"/>
</g>
<!-- Node29 -->
<g id="node29" class="node">
<title>Node29</title>
<g id="a_node29"><a xlink:href="Bullets_8hpp.html" target="_top" xlink:title=" ">
<polygon fill="white" stroke="#666666" points="627.5,-184 505.5,-184 505.5,-165 627.5,-165 627.5,-184"/>
<text text-anchor="middle" x="566.5" y="-172" font-family="Helvetica,sans-Serif" font-size="10.00">Components/Bullets.hpp</text>
</a>
</g>
</g>
<!-- Node3&#45;&gt;Node29 -->
<g id="edge39" class="edge">
<title>Node3&#45;&gt;Node29</title>
<path fill="none" stroke="#63b8ff" d="M794.31,-220.22C745.19,-211.18 669.37,-196.66 618.82,-186.63"/>
<polygon fill="#63b8ff" stroke="#63b8ff" points="619.78,-183.25 609.29,-184.73 618.41,-190.11 619.78,-183.25"/>
</g>
<!-- Node31 -->
<g id="node31" class="node">
<title>Node31</title>
<g id="a_node31"><a xlink:href="Background_8hpp.html" target="_top" xlink:title=" ">
<polygon fill="white" stroke="#666666" points="1509.5,-184 1365.5,-184 1365.5,-165 1509.5,-165 1509.5,-184"/>
<text text-anchor="middle" x="1437.5" y="-172" font-family="Helvetica,sans-Serif" font-size="10.00">Components/Background.hpp</text>
</a>
</g>
</g>
<!-- Node3&#45;&gt;Node31 -->
<g id="edge43" class="edge">
<title>Node3&#45;&gt;Node31</title>
<path fill="none" stroke="#63b8ff" d="M890.76,-224.18C980.72,-216.57 1179.65,-200.07 1347.5,-184 1349.66,-183.79 1351.86,-183.58 1354.08,-183.36"/>
<polygon fill="#63b8ff" stroke="#63b8ff" points="1354.2,-186.87 1363.81,-182.4 1353.51,-179.9 1354.2,-186.87"/>
</g>
<!-- Node18&#45;&gt;Node3 -->
<g id="edge19" class="edge">
<title>Node18&#45;&gt;Node3</title>
<path fill="none" stroke="#63b8ff" d="M1255.09,-183.92C1254.89,-183.95 1254.7,-183.97 1254.5,-184 1129.77,-200.35 982.79,-215.56 902.35,-223.25"/>
<polygon fill="#63b8ff" stroke="#63b8ff" points="902.11,-219.76 892.48,-224.19 902.77,-226.73 902.11,-219.76"/>
</g>
<!-- Node18&#45;&gt;Node19 -->
<g id="edge20" class="edge">
<title>Node18&#45;&gt;Node19</title>
<path fill="none" stroke="#63b8ff" d="M1347.87,-165.33C1412.01,-154.04 1525.64,-134.03 1576.55,-125.07"/>
<polygon fill="#63b8ff" stroke="#63b8ff" points="1577.08,-128.53 1586.32,-123.35 1575.86,-121.64 1577.08,-128.53"/>
</g>
<!-- Node20 -->
<g id="node20" class="node">
<title>Node20</title>
<g id="a_node20"><a xlink:title=" ">
<polygon fill="#e0e0e0" stroke="#999999" points="1358,-129 1315,-129 1315,-110 1358,-110 1358,-129"/>
<text text-anchor="middle" x="1336.5" y="-117" font-family="Helvetica,sans-Serif" font-size="10.00">queue</text>
</a>
</g>
</g>
<!-- Node18&#45;&gt;Node20 -->
<g id="edge21" class="edge">
<title>Node18&#45;&gt;Node20</title>
<path fill="none" stroke="#63b8ff" d="M1307.28,-164.75C1311.91,-157.73 1318.57,-147.64 1324.37,-138.87"/>
<polygon fill="#63b8ff" stroke="#63b8ff" points="1327.17,-140.98 1329.76,-130.71 1321.33,-137.12 1327.17,-140.98"/>
</g>
<!-- Node21 -->
<g id="node21" class="node">
<title>Node21</title>
<g id="a_node21"><a xlink:title=" ">
<polygon fill="#e0e0e0" stroke="#999999" points="1296.5,-129 1234.5,-129 1234.5,-110 1296.5,-110 1296.5,-129"/>
<text text-anchor="middle" x="1265.5" y="-117" font-family="Helvetica,sans-Serif" font-size="10.00">Skaldi.hpp</text>
</a>
</g>
</g>
<!-- Node18&#45;&gt;Node21 -->
<g id="edge22" class="edge">
<title>Node18&#45;&gt;Node21</title>
<path fill="none" stroke="#63b8ff" d="M1295.56,-164.75C1290.79,-157.73 1283.94,-147.64 1277.98,-138.87"/>
<polygon fill="#63b8ff" stroke="#63b8ff" points="1280.94,-137 1272.42,-130.69 1275.15,-140.93 1280.94,-137"/>
</g>
<!-- Node22&#45;&gt;Node3 -->
<g id="edge24" class="edge">
<title>Node22&#45;&gt;Node3</title>
<path fill="none" stroke="#63b8ff" d="M449.6,-182.97C540.57,-193.09 697.55,-211.06 783,-221.13"/>
<polygon fill="#63b8ff" stroke="#63b8ff" points="782.47,-224.6 792.81,-222.29 783.29,-217.64 782.47,-224.6"/>
</g>
<!-- Node23 -->
<g id="node23" class="node">
<title>Node23</title>
<g id="a_node23"><a xlink:href="IComponents_8hpp.html" target="_top" xlink:title=" ">
<polygon fill="white" stroke="#666666" points="611.5,-129 453.5,-129 453.5,-110 611.5,-110 611.5,-129"/>
<text text-anchor="middle" x="532.5" y="-117" font-family="Helvetica,sans-Serif" font-size="10.00">../Components/IComponents.hpp</text>
</a>
</g>
</g>
<!-- Node22&#45;&gt;Node23 -->
<g id="edge25" class="edge">
<title>Node22&#45;&gt;Node23</title>
<path fill="none" stroke="#63b8ff" d="M405.45,-164.51C430.37,-155.88 468.23,-142.76 496.14,-133.1"/>
<polygon fill="#63b8ff" stroke="#63b8ff" points="496.94,-136.52 505.24,-129.94 494.65,-129.91 496.94,-136.52"/>
</g>
<!-- Node24 -->
<g id="node24" class="node">
<title>Node24</title>
<g id="a_node24"><a xlink:href="SparseArray_8hpp.html" target="_top" xlink:title=" ">
<polygon fill="white" stroke="#666666" points="435,-129 324,-129 324,-110 435,-110 435,-129"/>
<text text-anchor="middle" x="379.5" y="-117" font-family="Helvetica,sans-Serif" font-size="10.00">Utils/SparseArray.hpp</text>
</a>
</g>
</g>
<!-- Node22&#45;&gt;Node24 -->
<g id="edge27" class="edge">
<title>Node22&#45;&gt;Node24</title>
<path fill="none" stroke="#63b8ff" d="M379.5,-164.75C379.5,-158.27 379.5,-149.16 379.5,-140.9"/>
<polygon fill="#63b8ff" stroke="#63b8ff" points="383,-140.96 379.5,-130.96 376,-140.96 383,-140.96"/>
</g>
<!-- Node23&#45;&gt;Node3 -->
<g id="edge26" class="edge">
<title>Node23&#45;&gt;Node3</title>
<path fill="none" stroke="#63b8ff" d="M520.88,-129.44C505.35,-142.44 481.43,-166.87 496.5,-184 515.08,-205.12 688.86,-219.02 782.84,-225.06"/>
<polygon fill="#63b8ff" stroke="#63b8ff" points="782.45,-228.54 792.65,-225.68 782.89,-221.55 782.45,-228.54"/>
</g>
<!-- Node24&#45;&gt;Node9 -->
<g id="edge28" class="edge">
<title>Node24&#45;&gt;Node9</title>
<path fill="none" stroke="#63b8ff" d="M372.46,-109.66C358.35,-91.94 326.36,-51.77 307.72,-28.35"/>
<polygon fill="#63b8ff" stroke="#63b8ff" points="310.55,-26.29 301.58,-20.64 305.07,-30.65 310.55,-26.29"/>
</g>
<!-- Node24&#45;&gt;Node14 -->
<g id="edge31" class="edge">
<title>Node24&#45;&gt;Node14</title>
<path fill="none" stroke="#63b8ff" d="M377.95,-109.66C374.93,-92.5 368.2,-54.26 364.04,-30.6"/>
<polygon fill="#63b8ff" stroke="#63b8ff" points="367.52,-30.19 362.34,-20.95 360.62,-31.41 367.52,-30.19"/>
</g>
<!-- Node25 -->
<g id="node25" class="node">
<title>Node25</title>
<g id="a_node25"><a xlink:title=" ">
<polygon fill="#e0e0e0" stroke="#999999" points="462.5,-19 406.5,-19 406.5,0 462.5,0 462.5,-19"/>
<text text-anchor="middle" x="434.5" y="-7" font-family="Helvetica,sans-Serif" font-size="10.00">algorithm</text>
</a>
</g>
</g>
<!-- Node24&#45;&gt;Node25 -->
<g id="edge29" class="edge">
<title>Node24&#45;&gt;Node25</title>
<path fill="none" stroke="#63b8ff" d="M432.23,-109.55C452.74,-103.21 474.22,-92.41 486.5,-74 498.23,-56.42 478.91,-37.89 460.58,-25.42"/>
<polygon fill="#63b8ff" stroke="#63b8ff" points="462.57,-22.54 452.26,-20.13 458.82,-28.45 462.57,-22.54"/>
</g>
<!-- Node26 -->
<g id="node26" class="node">
<title>Node26</title>
<g id="a_node26"><a xlink:title=" ">
<polygon fill="#e0e0e0" stroke="#999999" points="532.5,-19 494.5,-19 494.5,0 532.5,0 532.5,-19"/>
<text text-anchor="middle" x="513.5" y="-7" font-family="Helvetica,sans-Serif" font-size="10.00">array</text>
</a>
</g>
</g>
<!-- Node24&#45;&gt;Node26 -->
<g id="edge30" class="edge">
<title>Node24&#45;&gt;Node26</title>
<path fill="none" stroke="#63b8ff" d="M435.38,-111.01C459.43,-104.93 485.8,-93.93 502.5,-74 512.51,-62.05 514.89,-44.3 514.97,-30.6"/>
<polygon fill="#63b8ff" stroke="#63b8ff" points="518.48,-30.81 514.61,-20.95 511.48,-31.07 518.48,-30.81"/>
</g>
<!-- Node27 -->
<g id="node27" class="node">
<title>Node27</title>
<g id="a_node27"><a xlink:title=" ">
<polygon fill="#e0e0e0" stroke="#999999" points="597,-19 558,-19 558,0 597,0 597,-19"/>
<text text-anchor="middle" x="577.5" y="-7" font-family="Helvetica,sans-Serif" font-size="10.00">utility</text>
</a>
</g>
</g>
<!-- Node24&#45;&gt;Node27 -->
<g id="edge32" class="edge">
<title>Node24&#45;&gt;Node27</title>
<path fill="none" stroke="#63b8ff" d="M430.71,-109.52C459.1,-102.87 494.09,-91.8 521.5,-74 539.75,-62.15 555.62,-42.76 565.76,-28.53"/>
<polygon fill="#63b8ff" stroke="#63b8ff" points="568.49,-30.73 571.23,-20.5 562.71,-26.79 568.49,-30.73"/>
</g>
<!-- Node28 -->
<g id="node28" class="node">
<title>Node28</title>
<g id="a_node28"><a xlink:href="Vectors_8hpp.html" target="_top" xlink:title=" ">
<polygon fill="white" stroke="#666666" points="477.5,-74 385.5,-74 385.5,-55 477.5,-55 477.5,-74"/>
<text text-anchor="middle" x="431.5" y="-62" font-family="Helvetica,sans-Serif" font-size="10.00">Utils/Vectors.hpp</text>
</a>
</g>
</g>
<!-- Node24&#45;&gt;Node28 -->
<g id="edge33" class="edge">
<title>Node24&#45;&gt;Node28</title>
<path fill="none" stroke="#63b8ff" d="M388.09,-109.75C395.34,-102.35 405.95,-91.54 414.87,-82.45"/>
<polygon fill="#63b8ff" stroke="#63b8ff" points="417.16,-85.11 421.67,-75.52 412.16,-80.21 417.16,-85.11"/>
</g>
<!-- Node28&#45;&gt;Node9 -->
<g id="edge34" class="edge">
<title>Node28&#45;&gt;Node9</title>
<path fill="none" stroke="#63b8ff" d="M408.09,-54.51C385.85,-45.97 352.17,-33.03 327.08,-23.4"/>
<polygon fill="#63b8ff" stroke="#63b8ff" points="328.57,-20.22 317.98,-19.9 326.06,-26.75 328.57,-20.22"/>
</g>
<!-- Node28&#45;&gt;Node14 -->
<g id="edge37" class="edge">
<title>Node28&#45;&gt;Node14</title>
<path fill="none" stroke="#63b8ff" d="M419.46,-54.51C409.09,-46.77 393.9,-35.43 381.53,-26.2"/>
<polygon fill="#63b8ff" stroke="#63b8ff" points="383.69,-23.44 373.58,-20.26 379.5,-29.05 383.69,-23.44"/>
</g>
<!-- Node28&#45;&gt;Node25 -->
<g id="edge35" class="edge">
<title>Node28&#45;&gt;Node25</title>
<path fill="none" stroke="#63b8ff" d="M432,-54.75C432.36,-48.27 432.88,-39.16 433.35,-30.9"/>
<polygon fill="#63b8ff" stroke="#63b8ff" points="436.84,-31.13 433.91,-20.95 429.85,-30.74 436.84,-31.13"/>
</g>
<!-- Node28&#45;&gt;Node26 -->
<g id="edge36" class="edge">
<title>Node28&#45;&gt;Node26</title>
<path fill="none" stroke="#63b8ff" d="M445.41,-54.51C457.74,-46.54 475.97,-34.75 490.47,-25.38"/>
<polygon fill="#63b8ff" stroke="#63b8ff" points="492.03,-28.55 498.52,-20.18 488.23,-22.67 492.03,-28.55"/>
</g>
<!-- Node28&#45;&gt;Node27 -->
<g id="edge38" class="edge">
<title>Node28&#45;&gt;Node27</title>
<path fill="none" stroke="#63b8ff" d="M456.27,-54.51C481.32,-45.41 520.11,-31.33 547.03,-21.56"/>
<polygon fill="#63b8ff" stroke="#63b8ff" points="548.14,-24.88 556.35,-18.18 545.76,-18.3 548.14,-24.88"/>
</g>
<!-- Node29&#45;&gt;Node3 -->
<g id="edge40" class="edge">
<title>Node29&#45;&gt;Node3</title>
<path fill="none" stroke="#63b8ff" d="M618.3,-184.45C667.34,-193.5 740.5,-207.52 789.83,-217.3"/>
<polygon fill="#63b8ff" stroke="#63b8ff" points="788.92,-220.69 799.41,-219.21 790.29,-213.83 788.92,-220.69"/>
</g>
<!-- Node29&#45;&gt;Node23 -->
<g id="edge41" class="edge">
<title>Node29&#45;&gt;Node23</title>
<path fill="none" stroke="#63b8ff" d="M560.89,-164.75C556.38,-157.73 549.91,-147.64 544.29,-138.87"/>
<polygon fill="#63b8ff" stroke="#63b8ff" points="547.4,-137.24 539.05,-130.72 541.51,-141.02 547.4,-137.24"/>
</g>
<!-- Node30 -->
<g id="node30" class="node">
<title>Node30</title>
<g id="a_node30"><a xlink:title=" ">
<polygon fill="#e0e0e0" stroke="#999999" points="675.5,-129 629.5,-129 629.5,-110 675.5,-110 675.5,-129"/>
<text text-anchor="middle" x="652.5" y="-117" font-family="Helvetica,sans-Serif" font-size="10.00">math.h</text>
</a>
</g>
</g>
<!-- Node29&#45;&gt;Node30 -->
<g id="edge42" class="edge">
<title>Node29&#45;&gt;Node30</title>
<path fill="none" stroke="#63b8ff" d="M581.09,-164.51C594.02,-156.54 613.14,-144.75 628.35,-135.38"/>
<polygon fill="#63b8ff" stroke="#63b8ff" points="630.16,-138.38 636.84,-130.15 626.49,-132.42 630.16,-138.38"/>
</g>
<!-- Node31&#45;&gt;Node3 -->
<g id="edge44" class="edge">
<title>Node31&#45;&gt;Node3</title>
<path fill="none" stroke="#63b8ff" d="M1365.24,-184.02C1197.79,-200.06 999.48,-216.51 902.19,-224.13"/>
<polygon fill="#63b8ff" stroke="#63b8ff" points="902.05,-220.63 892.35,-224.9 902.59,-227.61 902.05,-220.63"/>
</g>
</g>
</svg>
