<?xml version="1.0" encoding="UTF-8" standalone="no"?>
<!DOCTYPE svg PUBLIC "-//W3C//DTD SVG 1.1//EN"
 "http://www.w3.org/Graphics/SVG/1.1/DTD/svg11.dtd">
<!-- Generated by graphviz version 7.0.5 (20221223.1930)
 -->
<!-- Title: /github/workspace/client/include/Engine/Window.hpp Pages: 1 -->
<svg width="1919pt" height="456pt"
 viewBox="0.00 0.00 1918.94 456.00" xmlns="http://www.w3.org/2000/svg" xmlns:xlink="http://www.w3.org/1999/xlink">
<g id="graph0" class="graph" transform="scale(1 1) rotate(0) translate(4 452)">
<title>/github/workspace/client/include/Engine/Window.hpp</title>
<!-- Node1 -->
<g id="node1" class="node">
<title>Node1</title>
<g id="a_node1"><a xlink:title=" ">
<polygon fill="#999999" stroke="#666666" points="1036,-448 898,-448 898,-418 1036,-418 1036,-448"/>
<text text-anchor="start" x="906" y="-436" font-family="Helvetica,sans-Serif" font-size="10.00">/github/workspace/client</text>
<text text-anchor="middle" x="967" y="-425" font-family="Helvetica,sans-Serif" font-size="10.00">/include/Engine/Window.hpp</text>
</a>
</g>
</g>
<!-- Node2 -->
<g id="node2" class="node">
<title>Node2</title>
<g id="a_node2"><a xlink:href="Engine_8hpp.html" target="_top" xlink:title=" ">
<polygon fill="white" stroke="#666666" points="986.5,-382 853.5,-382 853.5,-352 986.5,-352 986.5,-382"/>
<text text-anchor="start" x="861.5" y="-370" font-family="Helvetica,sans-Serif" font-size="10.00">/github/workspace/client</text>
<text text-anchor="middle" x="920" y="-359" font-family="Helvetica,sans-Serif" font-size="10.00">/include/Engine/Engine.hpp</text>
</a>
</g>
</g>
<!-- Node1&#45;&gt;Node2 -->
<g id="edge1" class="edge">
<title>Node1&#45;&gt;Node2</title>
<path fill="none" stroke="#63b8ff" d="M943.57,-408.96C936.5,-400 929.44,-390.03 924.69,-382.16"/>
<polygon fill="#63b8ff" stroke="#63b8ff" points="940.83,-411.13 949.89,-416.63 946.23,-406.68 940.83,-411.13"/>
</g>
<!-- Node18 -->
<g id="node18" class="node">
<title>Node18</title>
<g id="a_node18"><a xlink:href="StateManager_8hpp.html" target="_top" xlink:title=" ">
<polygon fill="white" stroke="#666666" points="1871,-316 1707,-316 1707,-286 1871,-286 1871,-316"/>
<text text-anchor="start" x="1715" y="-304" font-family="Helvetica,sans-Serif" font-size="10.00">/github/workspace/client</text>
<text text-anchor="middle" x="1789" y="-293" font-family="Helvetica,sans-Serif" font-size="10.00">/include/Engine/StateManager.hpp</text>
</a>
</g>
</g>
<!-- Node1&#45;&gt;Node18 -->
<g id="edge46" class="edge">
<title>Node1&#45;&gt;Node18</title>
<path fill="none" stroke="#63b8ff" d="M979.79,-407.89C991.25,-389.03 1009.94,-364.04 1034,-352 1100.08,-318.94 1624.51,-323.63 1698,-316 1700.86,-315.7 1703.77,-315.38 1706.71,-315.03"/>
<polygon fill="#63b8ff" stroke="#63b8ff" points="976.9,-405.9 974.94,-416.31 982.97,-409.4 976.9,-405.9"/>
</g>
<!-- Node30 -->
<g id="node30" class="node">
<title>Node30</title>
<g id="a_node30"><a xlink:href="Window_8cpp.html" target="_top" xlink:title=" ">
<polygon fill="white" stroke="#666666" points="1165,-382 1043,-382 1043,-352 1165,-352 1165,-382"/>
<text text-anchor="start" x="1051" y="-370" font-family="Helvetica,sans-Serif" font-size="10.00">/github/workspace/client</text>
<text text-anchor="middle" x="1104" y="-359" font-family="Helvetica,sans-Serif" font-size="10.00">/src/Window.cpp</text>
</a>
</g>
</g>
<!-- Node1&#45;&gt;Node30 -->
<g id="edge47" class="edge">
<title>Node1&#45;&gt;Node30</title>
<path fill="none" stroke="#63b8ff" d="M1007.98,-412.86C1028.96,-403.05 1054.08,-391.32 1073.36,-382.31"/>
<polygon fill="#63b8ff" stroke="#63b8ff" points="1006.7,-409.59 999.12,-417 1009.66,-415.94 1006.7,-409.59"/>
</g>
<!-- Node2&#45;&gt;Node1 -->
<g id="edge25" class="edge">
<title>Node2&#45;&gt;Node1</title>
<path fill="none" stroke="#63b8ff" d="M943.39,-390.99C950.46,-399.95 957.53,-409.92 962.29,-417.8"/>
<polygon fill="#63b8ff" stroke="#63b8ff" points="946.14,-388.82 937.08,-383.33 940.74,-393.28 946.14,-388.82"/>
</g>
<!-- Node3 -->
<g id="node3" class="node">
<title>Node3</title>
<g id="a_node3"><a xlink:href="Bonus_8hpp.html" target="_top" xlink:title=" ">
<polygon fill="white" stroke="#666666" points="1230.5,-244.5 1073.5,-244.5 1073.5,-214.5 1230.5,-214.5 1230.5,-244.5"/>
<text text-anchor="start" x="1081.5" y="-232.5" font-family="Helvetica,sans-Serif" font-size="10.00">/github/workspace/client</text>
<text text-anchor="middle" x="1152" y="-221.5" font-family="Helvetica,sans-Serif" font-size="10.00">/include/Components/Bonus.hpp</text>
</a>
</g>
</g>
<!-- Node2&#45;&gt;Node3 -->
<g id="edge2" class="edge">
<title>Node2&#45;&gt;Node3</title>
<path fill="none" stroke="#63b8ff" d="M998.2,-352.35C1067.19,-339.93 1157.65,-322.56 1163,-316 1179.45,-295.82 1168.46,-263.57 1159.73,-244.98"/>
<polygon fill="#63b8ff" stroke="#63b8ff" points="997.61,-348.9 988.38,-354.11 998.84,-355.79 997.61,-348.9"/>
</g>
<!-- Node4 -->
<g id="node4" class="node">
<title>Node4</title>
<g id="a_node4"><a xlink:href="include_8hpp.html" target="_top" xlink:title=" ">
<polygon fill="white" stroke="#666666" points="999,-167.5 877,-167.5 877,-137.5 999,-137.5 999,-167.5"/>
<text text-anchor="start" x="885" y="-155.5" font-family="Helvetica,sans-Serif" font-size="10.00">/github/workspace/client</text>
<text text-anchor="middle" x="938" y="-144.5" font-family="Helvetica,sans-Serif" font-size="10.00">/include/include.hpp</text>
</a>
</g>
</g>
<!-- Node2&#45;&gt;Node4 -->
<g id="edge43" class="edge">
<title>Node2&#45;&gt;Node4</title>
<path fill="none" stroke="#63b8ff" d="M997.79,-349.83C1055.78,-337.4 1125.69,-321.46 1130,-316 1138.26,-305.54 1136.77,-297.49 1130,-286 1113.23,-257.55 1091.13,-270.2 1065,-250 1045.1,-234.62 1045.45,-224.94 1026,-209 1006.72,-193.2 982.66,-178.31 964.57,-167.93"/>
<polygon fill="#63b8ff" stroke="#63b8ff" points="997.27,-346.36 988.23,-351.87 998.74,-353.2 997.27,-346.36"/>
</g>
<!-- Node5 -->
<g id="node5" class="node">
<title>Node5</title>
<g id="a_node5"><a xlink:href="Bullets_8hpp.html" target="_top" xlink:title=" ">
<polygon fill="white" stroke="#666666" points="671.5,-316 512.5,-316 512.5,-286 671.5,-286 671.5,-316"/>
<text text-anchor="start" x="520.5" y="-304" font-family="Helvetica,sans-Serif" font-size="10.00">/github/workspace/client</text>
<text text-anchor="middle" x="592" y="-293" font-family="Helvetica,sans-Serif" font-size="10.00">/include/Components/Bullets.hpp</text>
</a>
</g>
</g>
<!-- Node2&#45;&gt;Node5 -->
<g id="edge4" class="edge">
<title>Node2&#45;&gt;Node5</title>
<path fill="none" stroke="#63b8ff" d="M842.14,-351.92C786.89,-341.41 713.49,-327.09 660.47,-316.48"/>
<polygon fill="#63b8ff" stroke="#63b8ff" points="841.33,-355.33 851.8,-353.75 842.63,-348.45 841.33,-355.33"/>
</g>
<!-- Node7 -->
<g id="node7" class="node">
<title>Node7</title>
<g id="a_node7"><a xlink:href="Audio_8hpp.html" target="_top" xlink:title=" ">
<polygon fill="white" stroke="#666666" points="128,-316 0,-316 0,-286 128,-286 128,-316"/>
<text text-anchor="start" x="8" y="-304" font-family="Helvetica,sans-Serif" font-size="10.00">/github/workspace/client</text>
<text text-anchor="middle" x="64" y="-293" font-family="Helvetica,sans-Serif" font-size="10.00">/include/Engine/Audio.hpp</text>
</a>
</g>
</g>
<!-- Node2&#45;&gt;Node7 -->
<g id="edge8" class="edge">
<title>Node2&#45;&gt;Node7</title>
<path fill="none" stroke="#63b8ff" d="M842.12,-364.27C701.02,-360.41 393.87,-348.7 137,-316 134.18,-315.64 131.31,-315.24 128.42,-314.81"/>
<polygon fill="#63b8ff" stroke="#63b8ff" points="841.62,-367.75 851.71,-364.52 841.8,-360.76 841.62,-367.75"/>
</g>
<!-- Node8 -->
<g id="node8" class="node">
<title>Node8</title>
<g id="a_node8"><a xlink:href="Destroy_8hpp.html" target="_top" xlink:title=" ">
<polygon fill="white" stroke="#666666" points="1688.5,-316 1551.5,-316 1551.5,-286 1688.5,-286 1688.5,-316"/>
<text text-anchor="start" x="1559.5" y="-304" font-family="Helvetica,sans-Serif" font-size="10.00">/github/workspace/client</text>
<text text-anchor="middle" x="1620" y="-293" font-family="Helvetica,sans-Serif" font-size="10.00">/include/Engine/Destroy.hpp</text>
</a>
</g>
</g>
<!-- Node2&#45;&gt;Node8 -->
<g id="edge9" class="edge">
<title>Node2&#45;&gt;Node8</title>
<path fill="none" stroke="#63b8ff" d="M997.91,-352.38C998.95,-352.25 999.98,-352.12 1001,-352 1240.28,-323.44 1302.82,-345.33 1542,-316 1545,-315.63 1548.07,-315.22 1551.16,-314.78"/>
<polygon fill="#63b8ff" stroke="#63b8ff" points="997.6,-348.89 988.16,-353.7 998.54,-355.82 997.6,-348.89"/>
</g>
<!-- Node10 -->
<g id="node10" class="node">
<title>Node10</title>
<g id="a_node10"><a xlink:href="Draw_8hpp.html" target="_top" xlink:title=" ">
<polygon fill="white" stroke="#666666" points="272,-316 146,-316 146,-286 272,-286 272,-316"/>
<text text-anchor="start" x="154" y="-304" font-family="Helvetica,sans-Serif" font-size="10.00">/github/workspace/client</text>
<text text-anchor="middle" x="209" y="-293" font-family="Helvetica,sans-Serif" font-size="10.00">/include/Engine/Draw.hpp</text>
</a>
</g>
</g>
<!-- Node2&#45;&gt;Node10 -->
<g id="edge11" class="edge">
<title>Node2&#45;&gt;Node10</title>
<path fill="none" stroke="#63b8ff" d="M841.95,-362.67C720.53,-356.72 479.59,-342.34 277,-316 275.38,-315.79 273.75,-315.57 272.1,-315.34"/>
<polygon fill="#63b8ff" stroke="#63b8ff" points="841.65,-366.16 851.81,-363.15 841.99,-359.17 841.65,-366.16"/>
</g>
<!-- Node12 -->
<g id="node12" class="node">
<title>Node12</title>
<g id="a_node12"><a xlink:href="Error_8hpp.html" target="_top" xlink:title=" ">
<polygon fill="white" stroke="#666666" points="1533,-316 1409,-316 1409,-286 1533,-286 1533,-316"/>
<text text-anchor="start" x="1417" y="-304" font-family="Helvetica,sans-Serif" font-size="10.00">/github/workspace/client</text>
<text text-anchor="middle" x="1471" y="-293" font-family="Helvetica,sans-Serif" font-size="10.00">/include/Engine/Error.hpp</text>
</a>
</g>
</g>
<!-- Node2&#45;&gt;Node12 -->
<g id="edge14" class="edge">
<title>Node2&#45;&gt;Node12</title>
<path fill="none" stroke="#63b8ff" d="M997.92,-352.41C998.95,-352.27 999.98,-352.13 1001,-352 1177.54,-328.82 1223.75,-341.26 1400,-316 1402.86,-315.59 1405.78,-315.14 1408.72,-314.66"/>
<polygon fill="#63b8ff" stroke="#63b8ff" points="997.58,-348.93 988.18,-353.82 998.58,-355.85 997.58,-348.93"/>
</g>
<!-- Node14 -->
<g id="node14" class="node">
<title>Node14</title>
<g id="a_node14"><a xlink:href="client_2src_2main_8cpp.html" target="_top" xlink:title=" ">
<polygon fill="white" stroke="#666666" points="1624,-30 1502,-30 1502,0 1624,0 1624,-30"/>
<text text-anchor="start" x="1510" y="-18" font-family="Helvetica,sans-Serif" font-size="10.00">/github/workspace/client</text>
<text text-anchor="middle" x="1563" y="-7" font-family="Helvetica,sans-Serif" font-size="10.00">/src/main.cpp</text>
</a>
</g>
</g>
<!-- Node2&#45;&gt;Node14 -->
<g id="edge45" class="edge">
<title>Node2&#45;&gt;Node14</title>
<path fill="none" stroke="#63b8ff" d="M841.87,-364.59C688.08,-361.08 357.57,-349.67 319,-316 289.67,-290.4 300,-269.43 300,-230.5 300,-230.5 300,-230.5 300,-151.5 300,-29.18 1248.72,-17.1 1501.66,-16.06"/>
<polygon fill="#63b8ff" stroke="#63b8ff" points="841.49,-368.08 851.57,-364.8 841.65,-361.08 841.49,-368.08"/>
</g>
<!-- Node15 -->
<g id="node15" class="node">
<title>Node15</title>
<g id="a_node15"><a xlink:href="Event_8hpp.html" target="_top" xlink:title=" ">
<polygon fill="white" stroke="#666666" points="456,-316 328,-316 328,-286 456,-286 456,-316"/>
<text text-anchor="start" x="336" y="-304" font-family="Helvetica,sans-Serif" font-size="10.00">/github/workspace/client</text>
<text text-anchor="middle" x="392" y="-293" font-family="Helvetica,sans-Serif" font-size="10.00">/include/Engine/Event.hpp</text>
</a>
</g>
</g>
<!-- Node2&#45;&gt;Node15 -->
<g id="edge17" class="edge">
<title>Node2&#45;&gt;Node15</title>
<path fill="none" stroke="#63b8ff" d="M841.69,-359.5C750.01,-351.12 593.97,-335.3 461,-316 459.5,-315.78 457.99,-315.56 456.47,-315.33"/>
<polygon fill="#63b8ff" stroke="#63b8ff" points="841.31,-362.98 851.59,-360.4 841.95,-356.01 841.31,-362.98"/>
</g>
<!-- Node16 -->
<g id="node16" class="node">
<title>Node16</title>
<g id="a_node16"><a xlink:href="Event_8cpp.html" target="_top" xlink:title=" ">
<polygon fill="white" stroke="#666666" points="451,-244.5 329,-244.5 329,-214.5 451,-214.5 451,-244.5"/>
<text text-anchor="start" x="337" y="-232.5" font-family="Helvetica,sans-Serif" font-size="10.00">/github/workspace/client</text>
<text text-anchor="middle" x="390" y="-221.5" font-family="Helvetica,sans-Serif" font-size="10.00">/src/Event.cpp</text>
</a>
</g>
</g>
<!-- Node2&#45;&gt;Node16 -->
<g id="edge44" class="edge">
<title>Node2&#45;&gt;Node16</title>
<path fill="none" stroke="#63b8ff" d="M841.98,-361.56C738.91,-354.86 563.47,-340.28 504,-316 483.75,-307.73 482.46,-299.17 465,-286 446.25,-271.85 424.68,-255.93 409.5,-244.78"/>
<polygon fill="#63b8ff" stroke="#63b8ff" points="841.54,-365.04 851.75,-362.19 841.99,-358.06 841.54,-365.04"/>
</g>
<!-- Node17 -->
<g id="node17" class="node">
<title>Node17</title>
<g id="a_node17"><a xlink:href="Map_8hpp.html" target="_top" xlink:title=" ">
<polygon fill="white" stroke="#666666" points="981,-316 859,-316 859,-286 981,-286 981,-316"/>
<text text-anchor="start" x="867" y="-304" font-family="Helvetica,sans-Serif" font-size="10.00">/github/workspace/client</text>
<text text-anchor="middle" x="920" y="-293" font-family="Helvetica,sans-Serif" font-size="10.00">/include/Engine/Map.hpp</text>
</a>
</g>
</g>
<!-- Node2&#45;&gt;Node17 -->
<g id="edge20" class="edge">
<title>Node2&#45;&gt;Node17</title>
<path fill="none" stroke="#63b8ff" d="M920,-340.39C920,-332.13 920,-323.28 920,-316.16"/>
<polygon fill="#63b8ff" stroke="#63b8ff" points="916.5,-340.28 920,-350.28 923.5,-340.28 916.5,-340.28"/>
</g>
<!-- Node2&#45;&gt;Node18 -->
<g id="edge21" class="edge">
<title>Node2&#45;&gt;Node18</title>
<path fill="none" stroke="#63b8ff" d="M998.22,-351.35C1302.26,-318.25 1384.19,-347.24 1689,-316 1694.72,-315.41 1700.64,-314.71 1706.6,-313.95"/>
<polygon fill="#63b8ff" stroke="#63b8ff" points="997.91,-347.87 988.35,-352.44 998.67,-354.82 997.91,-347.87"/>
</g>
<!-- Node20 -->
<g id="node20" class="node">
<title>Node20</title>
<g id="a_node20"><a xlink:href="Text_8hpp.html" target="_top" xlink:title=" ">
<polygon fill="white" stroke="#666666" points="1121,-316 999,-316 999,-286 1121,-286 1121,-316"/>
<text text-anchor="start" x="1007" y="-304" font-family="Helvetica,sans-Serif" font-size="10.00">/github/workspace/client</text>
<text text-anchor="middle" x="1060" y="-293" font-family="Helvetica,sans-Serif" font-size="10.00">/include/Engine/Text.hpp</text>
</a>
</g>
</g>
<!-- Node2&#45;&gt;Node20 -->
<g id="edge24" class="edge">
<title>Node2&#45;&gt;Node20</title>
<path fill="none" stroke="#63b8ff" d="M961.88,-346.86C983.32,-337.05 1008.98,-325.32 1028.69,-316.31"/>
<polygon fill="#63b8ff" stroke="#63b8ff" points="960.43,-343.67 952.8,-351.01 963.35,-350.03 960.43,-343.67"/>
</g>
<!-- Node21 -->
<g id="node21" class="node">
<title>Node21</title>
<g id="a_node21"><a xlink:href="EntitiesManager_8hpp.html" target="_top" xlink:title=" ">
<polygon fill="white" stroke="#666666" points="1391,-316 1215,-316 1215,-286 1391,-286 1391,-316"/>
<text text-anchor="start" x="1223" y="-304" font-family="Helvetica,sans-Serif" font-size="10.00">/github/workspace/client</text>
<text text-anchor="middle" x="1303" y="-293" font-family="Helvetica,sans-Serif" font-size="10.00">/include/Entities/EntitiesManager.hpp</text>
</a>
</g>
</g>
<!-- Node2&#45;&gt;Node21 -->
<g id="edge26" class="edge">
<title>Node2&#45;&gt;Node21</title>
<path fill="none" stroke="#63b8ff" d="M998.17,-350.96C1074.89,-338.01 1155.31,-324.74 1214.79,-315.21"/>
<polygon fill="#63b8ff" stroke="#63b8ff" points="997.65,-347.5 988.37,-352.62 998.82,-354.4 997.65,-347.5"/>
</g>
<!-- Node26 -->
<g id="node26" class="node">
<title>Node26</title>
<g id="a_node26"><a xlink:href="Properties_8hpp.html" target="_top" xlink:title=" ">
<polygon fill="white" stroke="#666666" points="840.5,-316 689.5,-316 689.5,-286 840.5,-286 840.5,-316"/>
<text text-anchor="start" x="697.5" y="-304" font-family="Helvetica,sans-Serif" font-size="10.00">/github/workspace/client</text>
<text text-anchor="middle" x="765" y="-293" font-family="Helvetica,sans-Serif" font-size="10.00">/include/Entities/Properties.hpp</text>
</a>
</g>
</g>
<!-- Node2&#45;&gt;Node26 -->
<g id="edge36" class="edge">
<title>Node2&#45;&gt;Node26</title>
<path fill="none" stroke="#63b8ff" d="M874.65,-347.27C850.81,-337.43 822.03,-325.55 799.94,-316.43"/>
<polygon fill="#63b8ff" stroke="#63b8ff" points="873.24,-350.48 883.82,-351.06 875.91,-344.01 873.24,-350.48"/>
</g>
<!-- Node3&#45;&gt;Node4 -->
<g id="edge3" class="edge">
<title>Node3&#45;&gt;Node4</title>
<path fill="none" stroke="#63b8ff" d="M1100.12,-210.32C1062.95,-197.29 1013.59,-179.99 979.13,-167.92"/>
<polygon fill="#63b8ff" stroke="#63b8ff" points="1098.72,-213.53 1109.31,-213.54 1101.03,-206.93 1098.72,-213.53"/>
</g>
<!-- Node5&#45;&gt;Node2 -->
<g id="edge5" class="edge">
<title>Node5&#45;&gt;Node2</title>
<path fill="none" stroke="#63b8ff" d="M683.25,-318.63C737.21,-328.95 804.32,-342.06 853.32,-351.88"/>
<polygon fill="#63b8ff" stroke="#63b8ff" points="683.91,-315.2 673.43,-316.76 682.6,-322.07 683.91,-315.2"/>
</g>
<!-- Node5&#45;&gt;Node4 -->
<g id="edge6" class="edge">
<title>Node5&#45;&gt;Node4</title>
<path fill="none" stroke="#63b8ff" d="M598.05,-274.79C604.42,-253.87 616.58,-225.04 638,-209 656.87,-194.87 794.53,-173.56 876.67,-161.88"/>
<polygon fill="#63b8ff" stroke="#63b8ff" points="594.71,-273.72 595.42,-284.29 601.46,-275.59 594.71,-273.72"/>
</g>
<!-- Node6 -->
<g id="node6" class="node">
<title>Node6</title>
<g id="a_node6"><a xlink:href="Bullets_8cpp.html" target="_top" xlink:title=" ">
<polygon fill="white" stroke="#666666" points="591,-244.5 469,-244.5 469,-214.5 591,-214.5 591,-244.5"/>
<text text-anchor="start" x="477" y="-232.5" font-family="Helvetica,sans-Serif" font-size="10.00">/github/workspace/client</text>
<text text-anchor="middle" x="530" y="-221.5" font-family="Helvetica,sans-Serif" font-size="10.00">/src/Bullets.cpp</text>
</a>
</g>
</g>
<!-- Node5&#45;&gt;Node6 -->
<g id="edge7" class="edge">
<title>Node5&#45;&gt;Node6</title>
<path fill="none" stroke="#63b8ff" d="M571.63,-277.17C562.14,-266.53 551.14,-254.2 542.83,-244.88"/>
<polygon fill="#63b8ff" stroke="#63b8ff" points="568.88,-279.34 578.15,-284.47 574.1,-274.68 568.88,-279.34"/>
</g>
<!-- Node9 -->
<g id="node9" class="node">
<title>Node9</title>
<g id="a_node9"><a xlink:href="Destroy_8cpp.html" target="_top" xlink:title=" ">
<polygon fill="white" stroke="#666666" points="1887,-244.5 1765,-244.5 1765,-214.5 1887,-214.5 1887,-244.5"/>
<text text-anchor="start" x="1773" y="-232.5" font-family="Helvetica,sans-Serif" font-size="10.00">/github/workspace/client</text>
<text text-anchor="middle" x="1826" y="-221.5" font-family="Helvetica,sans-Serif" font-size="10.00">/src/Destroy.cpp</text>
</a>
</g>
</g>
<!-- Node8&#45;&gt;Node9 -->
<g id="edge10" class="edge">
<title>Node8&#45;&gt;Node9</title>
<path fill="none" stroke="#63b8ff" d="M1673.65,-281.9C1707.76,-270.39 1751.32,-255.69 1783.12,-244.97"/>
<polygon fill="#63b8ff" stroke="#63b8ff" points="1672.72,-278.52 1664.37,-285.03 1674.96,-285.15 1672.72,-278.52"/>
</g>
<!-- Node10&#45;&gt;Node2 -->
<g id="edge12" class="edge">
<title>Node10&#45;&gt;Node2</title>
<path fill="none" stroke="#63b8ff" d="M283.51,-314.38C287.4,-314.97 291.25,-315.51 295,-316 497.56,-342.33 738.45,-356.72 853.09,-362.67"/>
<polygon fill="#63b8ff" stroke="#63b8ff" points="284.41,-310.98 273.99,-312.86 283.31,-317.89 284.41,-310.98"/>
</g>
<!-- Node11 -->
<g id="node11" class="node">
<title>Node11</title>
<g id="a_node11"><a xlink:href="Draw_8cpp.html" target="_top" xlink:title=" ">
<polygon fill="white" stroke="#666666" points="270,-244.5 148,-244.5 148,-214.5 270,-214.5 270,-244.5"/>
<text text-anchor="start" x="156" y="-232.5" font-family="Helvetica,sans-Serif" font-size="10.00">/github/workspace/client</text>
<text text-anchor="middle" x="209" y="-221.5" font-family="Helvetica,sans-Serif" font-size="10.00">/src/Draw.cpp</text>
</a>
</g>
</g>
<!-- Node10&#45;&gt;Node11 -->
<g id="edge13" class="edge">
<title>Node10&#45;&gt;Node11</title>
<path fill="none" stroke="#63b8ff" d="M209,-274.26C209,-264.33 209,-253.36 209,-244.88"/>
<polygon fill="#63b8ff" stroke="#63b8ff" points="205.5,-274.09 209,-284.09 212.5,-274.09 205.5,-274.09"/>
</g>
<!-- Node13 -->
<g id="node13" class="node">
<title>Node13</title>
<g id="a_node13"><a xlink:href="Error_8cpp.html" target="_top" xlink:title=" ">
<polygon fill="white" stroke="#666666" points="1709,-244.5 1587,-244.5 1587,-214.5 1709,-214.5 1709,-244.5"/>
<text text-anchor="start" x="1595" y="-232.5" font-family="Helvetica,sans-Serif" font-size="10.00">/github/workspace/client</text>
<text text-anchor="middle" x="1648" y="-221.5" font-family="Helvetica,sans-Serif" font-size="10.00">/src/Error.cpp</text>
</a>
</g>
</g>
<!-- Node12&#45;&gt;Node13 -->
<g id="edge15" class="edge">
<title>Node12&#45;&gt;Node13</title>
<path fill="none" stroke="#63b8ff" d="M1518.06,-281.52C1547.3,-270.04 1584.33,-255.5 1611.37,-244.88"/>
<polygon fill="#63b8ff" stroke="#63b8ff" points="1517.11,-278.13 1509.08,-285.05 1519.67,-284.65 1517.11,-278.13"/>
</g>
<!-- Node12&#45;&gt;Node14 -->
<g id="edge16" class="edge">
<title>Node12&#45;&gt;Node14</title>
<path fill="none" stroke="#63b8ff" d="M1544.38,-285.71C1616.68,-271.55 1716.59,-251.73 1718,-250 1743.37,-218.98 1782.09,-162.6 1708,-66 1688.23,-40.22 1654.37,-27.66 1624.34,-21.57"/>
<polygon fill="#63b8ff" stroke="#63b8ff" points="1544.11,-282.2 1534.97,-287.56 1545.45,-289.07 1544.11,-282.2"/>
</g>
<!-- Node15&#45;&gt;Node2 -->
<g id="edge18" class="edge">
<title>Node15&#45;&gt;Node2</title>
<path fill="none" stroke="#63b8ff" d="M467.39,-314.23C471.32,-314.85 475.21,-315.45 479,-316 611.44,-335.22 766.75,-350.99 853.29,-359.4"/>
<polygon fill="#63b8ff" stroke="#63b8ff" points="468.16,-310.81 457.73,-312.65 467.03,-317.72 468.16,-310.81"/>
</g>
<!-- Node15&#45;&gt;Node16 -->
<g id="edge19" class="edge">
<title>Node15&#45;&gt;Node16</title>
<path fill="none" stroke="#63b8ff" d="M391.26,-274.26C390.97,-264.33 390.66,-253.36 390.41,-244.88"/>
<polygon fill="#63b8ff" stroke="#63b8ff" points="387.76,-274.19 391.54,-284.09 394.75,-273.99 387.76,-274.19"/>
</g>
<!-- Node18&#45;&gt;Node2 -->
<g id="edge22" class="edge">
<title>Node18&#45;&gt;Node2</title>
<path fill="none" stroke="#63b8ff" d="M1695.36,-317.17C1396.35,-346.87 1314.36,-317.96 1010,-352 1002.48,-352.84 994.61,-353.93 986.76,-355.14"/>
<polygon fill="#63b8ff" stroke="#63b8ff" points="1695.44,-320.68 1705.04,-316.2 1694.74,-313.72 1695.44,-320.68"/>
</g>
<!-- Node19 -->
<g id="node19" class="node">
<title>Node19</title>
<g id="a_node19"><a xlink:href="StateManager_8cpp.html" target="_top" xlink:title=" ">
<polygon fill="white" stroke="#666666" points="1875,-30 1753,-30 1753,0 1875,0 1875,-30"/>
<text text-anchor="start" x="1761" y="-18" font-family="Helvetica,sans-Serif" font-size="10.00">/github/workspace/client</text>
<text text-anchor="middle" x="1814" y="-7" font-family="Helvetica,sans-Serif" font-size="10.00">/src/StateManager.cpp</text>
</a>
</g>
</g>
<!-- Node18&#45;&gt;Node19 -->
<g id="edge23" class="edge">
<title>Node18&#45;&gt;Node19</title>
<path fill="none" stroke="#63b8ff" d="M1859.35,-280.89C1873.85,-273.61 1887.32,-263.63 1896,-250 1943.73,-175.01 1861.1,-68.74 1827.37,-30.45"/>
<polygon fill="#63b8ff" stroke="#63b8ff" points="1858.23,-277.56 1850.57,-284.89 1861.13,-283.93 1858.23,-277.56"/>
</g>
<!-- Node21&#45;&gt;Node2 -->
<g id="edge27" class="edge">
<title>Node21&#45;&gt;Node2</title>
<path fill="none" stroke="#63b8ff" d="M1210.77,-318.39C1153.09,-328.07 1077.3,-340.61 1010,-352 1002.54,-353.26 994.7,-354.6 986.87,-355.93"/>
<polygon fill="#63b8ff" stroke="#63b8ff" points="1211.28,-321.85 1220.56,-316.74 1210.12,-314.95 1211.28,-321.85"/>
</g>
<!-- Node21&#45;&gt;Node4 -->
<g id="edge28" class="edge">
<title>Node21&#45;&gt;Node4</title>
<path fill="none" stroke="#63b8ff" d="M1289.28,-276.01C1275.07,-252.02 1253.15,-217.49 1240,-209 1201.1,-183.87 1075.89,-167.29 999.44,-159.22"/>
<polygon fill="#63b8ff" stroke="#63b8ff" points="1286.2,-277.68 1294.26,-284.55 1292.24,-274.15 1286.2,-277.68"/>
</g>
<!-- Node22 -->
<g id="node22" class="node">
<title>Node22</title>
<g id="a_node22"><a xlink:href="IGameState_8hpp.html" target="_top" xlink:title=" ">
<polygon fill="white" stroke="#666666" points="1569,-250 1429,-250 1429,-209 1569,-209 1569,-250"/>
<text text-anchor="start" x="1437" y="-238" font-family="Helvetica,sans-Serif" font-size="10.00">/github/workspace/client</text>
<text text-anchor="start" x="1437" y="-227" font-family="Helvetica,sans-Serif" font-size="10.00">/include/system/gameStates</text>
<text text-anchor="middle" x="1499" y="-216" font-family="Helvetica,sans-Serif" font-size="10.00">/IGameState.hpp</text>
</a>
</g>
</g>
<!-- Node21&#45;&gt;Node22 -->
<g id="edge29" class="edge">
<title>Node21&#45;&gt;Node22</title>
<path fill="none" stroke="#63b8ff" d="M1354.45,-281.75C1381.62,-272.12 1415,-260.29 1442.83,-250.42"/>
<polygon fill="#63b8ff" stroke="#63b8ff" points="1353.29,-278.45 1345.04,-285.09 1355.63,-285.05 1353.29,-278.45"/>
</g>
<!-- Node25 -->
<g id="node25" class="node">
<title>Node25</title>
<g id="a_node25"><a xlink:href="EntitiesManager_8cpp.html" target="_top" xlink:title=" ">
<polygon fill="white" stroke="#666666" points="1411,-244.5 1287,-244.5 1287,-214.5 1411,-214.5 1411,-244.5"/>
<text text-anchor="start" x="1295" y="-232.5" font-family="Helvetica,sans-Serif" font-size="10.00">/github/workspace/client</text>
<text text-anchor="middle" x="1349" y="-221.5" font-family="Helvetica,sans-Serif" font-size="10.00">/src/EntitiesManager.cpp</text>
</a>
</g>
</g>
<!-- Node21&#45;&gt;Node25 -->
<g id="edge35" class="edge">
<title>Node21&#45;&gt;Node25</title>
<path fill="none" stroke="#63b8ff" d="M1318.75,-276.2C1325.64,-265.79 1333.5,-253.92 1339.48,-244.88"/>
<polygon fill="#63b8ff" stroke="#63b8ff" points="1315.97,-274.07 1313.37,-284.34 1321.8,-277.93 1315.97,-274.07"/>
</g>
<!-- Node23 -->
<g id="node23" class="node">
<title>Node23</title>
<g id="a_node23"><a xlink:href="SGamePlay_8hpp.html" target="_top" xlink:title=" ">
<polygon fill="white" stroke="#666666" points="1579,-173 1439,-173 1439,-132 1579,-132 1579,-173"/>
<text text-anchor="start" x="1447" y="-161" font-family="Helvetica,sans-Serif" font-size="10.00">/github/workspace/client</text>
<text text-anchor="start" x="1447" y="-150" font-family="Helvetica,sans-Serif" font-size="10.00">/include/system/gameStates</text>
<text text-anchor="middle" x="1509" y="-139" font-family="Helvetica,sans-Serif" font-size="10.00">/SGamePlay.hpp</text>
</a>
</g>
</g>
<!-- Node22&#45;&gt;Node23 -->
<g id="edge30" class="edge">
<title>Node22&#45;&gt;Node23</title>
<path fill="none" stroke="#63b8ff" d="M1503.11,-197.65C1504.21,-189.43 1505.36,-180.78 1506.36,-173.33"/>
<polygon fill="#63b8ff" stroke="#63b8ff" points="1499.68,-196.92 1501.83,-207.29 1506.62,-197.84 1499.68,-196.92"/>
</g>
<!-- Node23&#45;&gt;Node14 -->
<g id="edge34" class="edge">
<title>Node23&#45;&gt;Node14</title>
<path fill="none" stroke="#63b8ff" d="M1513.42,-120.52C1516.48,-103.89 1521.41,-83.3 1529,-66 1534.65,-53.12 1543.7,-40.02 1551.05,-30.47"/>
<polygon fill="#63b8ff" stroke="#63b8ff" points="1509.97,-119.9 1511.76,-130.34 1516.87,-121.07 1509.97,-119.9"/>
</g>
<!-- Node24 -->
<g id="node24" class="node">
<title>Node24</title>
<g id="a_node24"><a xlink:href="GameEngine_8hpp.html" target="_top" xlink:title=" ">
<polygon fill="white" stroke="#666666" points="1698.5,-96 1537.5,-96 1537.5,-66 1698.5,-66 1698.5,-96"/>
<text text-anchor="start" x="1545.5" y="-84" font-family="Helvetica,sans-Serif" font-size="10.00">/github/workspace/client</text>
<text text-anchor="middle" x="1618" y="-73" font-family="Helvetica,sans-Serif" font-size="10.00">/include/system/GameEngine.hpp</text>
</a>
</g>
</g>
<!-- Node23&#45;&gt;Node24 -->
<g id="edge31" class="edge">
<title>Node23&#45;&gt;Node24</title>
<path fill="none" stroke="#63b8ff" d="M1549.62,-125.6C1565.11,-115.72 1582.2,-104.83 1595.42,-96.4"/>
<polygon fill="#63b8ff" stroke="#63b8ff" points="1548.06,-122.44 1541.51,-130.77 1551.82,-128.35 1548.06,-122.44"/>
</g>
<!-- Node24&#45;&gt;Node14 -->
<g id="edge33" class="edge">
<title>Node24&#45;&gt;Node14</title>
<path fill="none" stroke="#63b8ff" d="M1598.44,-57.24C1590.68,-48.21 1582,-38.11 1575.17,-30.16"/>
<polygon fill="#63b8ff" stroke="#63b8ff" points="1595.64,-59.35 1604.81,-64.65 1600.94,-54.78 1595.64,-59.35"/>
</g>
<!-- Node24&#45;&gt;Node19 -->
<g id="edge32" class="edge">
<title>Node24&#45;&gt;Node19</title>
<path fill="none" stroke="#63b8ff" d="M1672.92,-62.07C1703.52,-52.07 1741.13,-39.79 1769.82,-30.43"/>
<polygon fill="#63b8ff" stroke="#63b8ff" points="1671.84,-58.74 1663.43,-65.17 1674.02,-65.39 1671.84,-58.74"/>
</g>
<!-- Node26&#45;&gt;Node4 -->
<g id="edge42" class="edge">
<title>Node26&#45;&gt;Node4</title>
<path fill="none" stroke="#63b8ff" d="M786.46,-277.24C794.49,-268.71 803.67,-258.92 812,-250 828.95,-231.84 830.89,-224.87 850,-209 869.18,-193.08 893.25,-178.19 911.37,-167.85"/>
<polygon fill="#63b8ff" stroke="#63b8ff" points="783.95,-274.8 779.64,-284.48 789.04,-279.6 783.95,-274.8"/>
</g>
<!-- Node27 -->
<g id="node27" class="node">
<title>Node27</title>
<g id="a_node27"><a xlink:href="Enemy_8hpp.html" target="_top" xlink:title=" ">
<polygon fill="white" stroke="#666666" points="1017,-244.5 859,-244.5 859,-214.5 1017,-214.5 1017,-244.5"/>
<text text-anchor="start" x="867" y="-232.5" font-family="Helvetica,sans-Serif" font-size="10.00">/github/workspace/client</text>
<text text-anchor="middle" x="938" y="-221.5" font-family="Helvetica,sans-Serif" font-size="10.00">/include/Components/Enemy.hpp</text>
</a>
</g>
</g>
<!-- Node26&#45;&gt;Node27 -->
<g id="edge37" class="edge">
<title>Node26&#45;&gt;Node27</title>
<path fill="none" stroke="#63b8ff" d="M811.37,-281.37C839.89,-269.91 875.88,-255.45 902.2,-244.88"/>
<polygon fill="#63b8ff" stroke="#63b8ff" points="810.22,-278.06 802.25,-285.04 812.83,-284.56 810.22,-278.06"/>
</g>
<!-- Node28 -->
<g id="node28" class="node">
<title>Node28</title>
<g id="a_node28"><a xlink:href="Player_8hpp.html" target="_top" xlink:title=" ">
<polygon fill="white" stroke="#666666" points="803,-244.5 647,-244.5 647,-214.5 803,-214.5 803,-244.5"/>
<text text-anchor="start" x="655" y="-232.5" font-family="Helvetica,sans-Serif" font-size="10.00">/github/workspace/client</text>
<text text-anchor="middle" x="725" y="-221.5" font-family="Helvetica,sans-Serif" font-size="10.00">/include/Components/Player.hpp</text>
</a>
</g>
</g>
<!-- Node26&#45;&gt;Node28 -->
<g id="edge39" class="edge">
<title>Node26&#45;&gt;Node28</title>
<path fill="none" stroke="#63b8ff" d="M751.12,-275.88C745.17,-265.55 738.42,-253.82 733.28,-244.88"/>
<polygon fill="#63b8ff" stroke="#63b8ff" points="747.94,-277.37 755.96,-284.29 754,-273.87 747.94,-277.37"/>
</g>
<!-- Node27&#45;&gt;Node4 -->
<g id="edge38" class="edge">
<title>Node27&#45;&gt;Node4</title>
<path fill="none" stroke="#63b8ff" d="M938,-202.73C938,-191.08 938,-177.76 938,-167.92"/>
<polygon fill="#63b8ff" stroke="#63b8ff" points="934.5,-202.53 938,-212.53 941.5,-202.53 934.5,-202.53"/>
</g>
<!-- Node28&#45;&gt;Node4 -->
<g id="edge40" class="edge">
<title>Node28&#45;&gt;Node4</title>
<path fill="none" stroke="#63b8ff" d="M776.64,-210.32C813.63,-197.29 862.77,-179.99 897.06,-167.92"/>
<polygon fill="#63b8ff" stroke="#63b8ff" points="775.77,-206.91 767.5,-213.54 778.09,-213.52 775.77,-206.91"/>
</g>
<!-- Node29 -->
<g id="node29" class="node">
<title>Node29</title>
<g id="a_node29"><a xlink:href="Player_8cpp.html" target="_top" xlink:title=" ">
<polygon fill="white" stroke="#666666" points="786,-167.5 664,-167.5 664,-137.5 786,-137.5 786,-167.5"/>
<text text-anchor="start" x="672" y="-155.5" font-family="Helvetica,sans-Serif" font-size="10.00">/github/workspace/client</text>
<text text-anchor="middle" x="725" y="-144.5" font-family="Helvetica,sans-Serif" font-size="10.00">/src/Player.cpp</text>
</a>
</g>
</g>
<!-- Node28&#45;&gt;Node29 -->
<g id="edge41" class="edge">
<title>Node28&#45;&gt;Node29</title>
<path fill="none" stroke="#63b8ff" d="M725,-202.73C725,-191.08 725,-177.76 725,-167.92"/>
<polygon fill="#63b8ff" stroke="#63b8ff" points="721.5,-202.53 725,-212.53 728.5,-202.53 721.5,-202.53"/>
</g>
</g>
</svg>
